<?xml version="1.0" standalone="no"?>
<!DOCTYPE svg PUBLIC "-//W3C//DTD SVG 1.1//EN" "http://www.w3.org/Graphics/SVG/1.1/DTD/svg11.dtd" >
<svg xmlns="http://www.w3.org/2000/svg">
<metadata>Generated by IcoMoon</metadata>
<defs>
<font id="instruments" horiz-adv-x="1024">
<font-face units-per-em="1024" ascent="960" descent="-64" />
<missing-glyph horiz-adv-x="1024" />
<glyph unicode="&#x20;" horiz-adv-x="512" d="" />
<glyph unicode="&#xe901;" glyph-name="ico-wb-down" d="M316.16 625.493l195.84-195.413 195.84 195.413 60.16-60.16-256-256-256 256z" />
<glyph unicode="&#xe903;" glyph-name="ico-wb-help" d="M512 874.667c-235.52 0-426.667-191.147-426.667-426.667s191.147-426.667 426.667-426.667 426.667 191.147 426.667 426.667-191.147 426.667-426.667 426.667zM554.667 149.333h-85.333v85.333h85.333v-85.333zM642.987 480l-38.4-39.253c-30.72-31.147-49.92-56.747-49.92-120.747h-85.333v21.333c0 46.933 19.2 89.6 49.92 120.747l52.907 53.76c15.787 15.36 25.173 36.693 25.173 60.16 0 46.933-38.4 85.333-85.333 85.333s-85.333-38.4-85.333-85.333h-85.333c0 94.293 76.373 170.667 170.667 170.667s170.667-76.373 170.667-170.667c0-37.547-15.36-71.68-39.68-96z" />
<glyph unicode="&#xe904;" glyph-name="ico-wb-infoico-wb-info" d="M512 874.667c-235.52 0-426.667-191.147-426.667-426.667s191.147-426.667 426.667-426.667 426.667 191.147 426.667 426.667-191.147 426.667-426.667 426.667zM554.667 234.667h-85.333v256h85.333v-256zM554.667 576h-85.333v85.333h85.333v-85.333z" />
<glyph unicode="&#xe905;" glyph-name="ico-wb-swap-arrows" d="M793.146 511.134l217.461-223.054-217.461-223.054v167.291h-382.057v111.527h375.645l6.412 167.29zM29.577 622.661l217.462 223.054v-167.291h382.057v-111.527h-382.057v-167.291l-217.462 223.054z" />
<glyph unicode="&#xe909;" glyph-name="ico-wb-new_message" d="M765.952 163.328l-135.168 133.12-34.816-34.816 133.12-133.12h-534.528l133.12 133.12-36.864 34.816-133.12-133.12v352.256l303.104-217.088 100.352 79.872-30.72 34.816-69.632-51.2-239.616 169.984h342.016v51.2h-456.704v-505.856h708.608v354.304h-49.152zM917.504 683.52h-135.168l-43.008 135.168-40.96-135.168h-135.168l108.544-73.728-59.392-126.976 126.976 77.824 126.976-77.824-59.392 126.976z" />
<glyph unicode="&#xe90a;" glyph-name="ico-wb-message" d="M106.496 583.168v-505.856h704.512v505.856h-704.512zM710.656 538.112l-253.952-266.24-251.904 266.24h505.856zM768 171.52l-129.024 135.168-30.72-32.768 145.408-151.552h-585.728l145.408 151.552-30.72 32.768-129.024-135.168v356.352l274.432-286.72 30.72-32.768 30.72 32.768 280.576 292.864v-362.496z" />
<glyph unicode="&#xe90b;" glyph-name="ico-wb-close" d="M724.992 278.016c-57.344 57.344-112.64 112.64-169.984 169.984 57.344 57.344 112.64 112.64 169.984 169.984 28.672 28.672-16.384 71.68-43.008 43.008-57.344-57.344-112.64-112.64-169.984-169.984-57.344 57.344-112.64 112.64-169.984 169.984-28.672 28.672-71.68-16.384-43.008-43.008 57.344-57.344 112.64-112.64 169.984-169.984-57.344-57.344-112.64-112.64-169.984-169.984-28.672-28.672 16.384-71.68 43.008-43.008 57.344 57.344 112.64 112.64 169.984 169.984 57.344-57.344 112.64-112.64 169.984-169.984 26.624-26.624 69.632 16.384 43.008 43.008z" />
<glyph unicode="&#xe90d;" glyph-name="ico-wb-excel" d="M768 826.88h-363.52v-51.2h327.68v-153.6h153.6v-563.2h-614.4v343.040h-51.2v-394.24h716.8v650.24l-168.96 168.96zM783.36 673.28v66.56l66.56-66.56h-66.56zM491.52 627.2l-204.8 179.2v-102.4h-204.8v-153.6h204.8v-102.4zM476.16 519.68v-153.6h-102.4v35.84h-51.2v-240.64h512v358.4h-358.4zM476.16 212.48h-102.4v102.4h102.4v-102.4zM629.76 212.48h-102.4v102.4h102.4v-102.4zM629.76 366.080h-102.4v102.4h102.4v-102.4zM783.36 212.48h-102.4v102.4h102.4v-102.4zM783.36 366.080h-102.4v102.4h102.4v-102.4z" />
<glyph unicode="&#xe90e;" glyph-name="ico-wb-print" d="M870.4 550.4h-102.4v92.16l-158.72 163.84h-353.28v-256h-102.4l-51.2-51.2v-256h153.6v-153.6h512v153.6h153.6v256l-51.2 51.2zM204.8 448h-51.2v51.2h51.2v-51.2zM716.8 140.8h-409.6v256h409.6v-256zM716.8 550.4h-409.6v204.8h256v-153.6h153.6v-51.2zM860.16 304.64h-46.080v76.8h46.080v-76.8zM358.4 345.6h307.2v-51.2h-307.2v51.2zM358.4 243.2h307.2v-51.2h-307.2v51.2z" />
<glyph unicode="&#xe914;" glyph-name="ico-wb-phone" d="M798.72 267.776c0 12.288 2.048 22.528-18.432 28.672-28.672 8.192-139.264 61.44-149.504 61.44-12.288-4.096-34.816-24.576-51.2-40.96-8.192-8.192-24.576-12.288-34.816-6.144-28.672 18.432-79.872 55.296-98.304 73.728-24.576 24.576-63.488 71.68-79.872 100.352-6.144 10.24-2.048 26.624 6.144 36.864 16.384 16.384 38.912 40.96 43.008 51.2 0 4.096-8.192 28.672-14.336 40.96-16.384 38.912-34.816 79.872-49.152 116.736-4.096 4.096-14.336 4.096-22.528 4.096-14.336 0-45.056-6.144-59.392-16.384-30.72-24.576-45.056-79.872-45.056-112.64-2.048-110.592 94.208-243.712 217.088-346.112 75.776-59.392 358.4-190.464 356.352 8.192z" />
<glyph unicode="&#xe917;" glyph-name="ico-wb-refresh-arrows" d="M1011.344 904.671c-8.439 8.434-18.442 12.665-30.001 12.665-11.554 0-21.543-4.231-29.999-12.665l-86.662-86.013c-47.554 44.894-102.006 79.68-163.334 104.341-61.324 24.663-124.453 36.992-189.345 36.992-122.227 0-228.889-36.995-320.004-111-91.117-73.996-151.115-170.543-180.004-289.662v-4.663c0-5.777 2.109-10.781 6.333-14.998 4.224-4.224 9.221-6.333 14.998-6.333h132.665c9.782 0 16.444 5.114 20.002 15.33 18.664 44.441 30.438 70.44 35.332 77.999 31.108 50.667 72.441 90.447 124 119.337 51.563 28.887 107.117 43.337 166.669 43.337 89.342 0 166.895-30.447 232.679-91.337l-92.016-91.995c-8.423-8.446-12.658-18.452-12.658-30.008 0-11.554 4.233-21.555 12.658-29.999 8.455-8.446 18.459-12.665 30.015-12.665h298.671c11.556 0 21.56 4.219 30.001 12.665 8.437 8.444 12.656 18.442 12.656 29.999v298.673c0 11.556-4.194 21.553-12.656 30.001zM985.994 362.655h-128c-9.779 0-16.446-5.107-19.993-15.332-18.657-44.446-30.445-70.433-35.327-77.992-31.117-50.655-72.453-90.449-123.997-119.337-51.566-28.897-107.119-43.33-166.673-43.33-43.108 0-84.668 7.993-124.663 23.988-40 16.014-75.783 38.685-107.334 68.021l91.337 91.33c8.441 8.437 12.665 18.449 12.665 29.999 0 11.554-4.224 21.567-12.665 29.999-8.446 8.453-18.442 12.682-29.999 12.682h-298.673c-11.563 0-21.564-4.229-30.008-12.682-8.444-8.434-12.663-18.447-12.663-30.001v-298.673c0-11.547 4.219-21.557 12.665-29.999 8.451-8.43 18.452-12.675 30.008-12.675 11.554 0 21.55 4.243 29.999 12.675l85.999 86.008c47.559-45.324 101.674-80.222 162.342-104.665 60.668-24.453 123.446-36.663 188.331-36.663 121.786 0 228.004 36.999 318.671 110.996 90.666 73.994 150.223 170.559 178.68 289.667 0.446 0.887 0.656 2.445 0.656 4.658 0 5.786-2.118 10.769-6.34 15.008-4.226 4.201-9.231 6.319-15.017 6.319z" />
<glyph unicode="&#xe91c;" glyph-name="down-triangle" d="M10.689 648.522l501.311-501.311 501.311 501.311z" />
<glyph unicode="&#xe91d;" glyph-name="ico-wb-fax" d="M643.072 122.368h-262.144c-10.24 0-20.48 4.096-26.624 12.288-6.144 6.144-12.288 16.384-12.288 26.624v194.56h339.968v-194.56c0-10.24-4.096-20.48-12.288-26.624-6.144-8.192-16.384-12.288-26.624-12.288v0zM380.928 773.632h262.144c20.48 0 38.912-8.192 53.248-22.528s22.528-32.768 22.528-53.248v-116.736h47.104c30.72 0 55.296-24.576 55.296-55.296v-221.184c0-30.72-24.576-55.296-55.296-55.296h-47.104v143.36h-413.696v-143.36h-47.104c-30.72 0-55.296 24.576-55.296 55.296v223.232c0 30.72 24.576 55.296 55.296 55.296h47.104v116.736c0 20.48 8.192 38.912 22.528 53.248 14.336 12.288 32.768 20.48 53.248 20.48v0zM643.072 736.768h-262.144c-10.24 0-20.48-4.096-26.624-12.288-6.144-6.144-12.288-16.384-12.288-26.624v-194.56h339.968v194.56c0 10.24-4.096 20.48-12.288 26.624-6.144 8.192-16.384 12.288-26.624 12.288v0z" />
<glyph unicode="&#xe91e;" glyph-name="ico-wb-deposit2" d="M414.875 302.316h-145.684v145.684h-97.125v-145.684h-145.684v-97.125h145.684v-145.684h97.125v145.684h145.684zM949.052 787.927h-776.979v-291.368h48.559v242.809h679.861v-485.611h-437.052v-48.559h485.611zM269.191 690.809v-194.243h48.559v48.559h97.125v-97.125h-97.125v-97.125h145.684v-48.559h388.493v388.493h-582.736zM560.559 399.441c-53.42 0-97.125 43.705-97.125 97.125s43.705 97.125 97.125 97.125c53.42 0 97.125-43.705 97.125-97.125s-43.705-97.125-97.125-97.125zM803.368 452.854h-97.125v87.41h97.125v-87.41z" />
<glyph unicode="&#xe91f;" glyph-name="ico-wb-trade2" d="M544.768 339.456c-18.432 18.432-51.2 16.384-73.728-6.144l-79.872-79.872c-22.528-22.528-38.912-14.336-38.912 16.384v280.576c0 30.72-20.48 55.296-47.104 55.296s-47.104-24.576-47.104-55.296v-280.576c0-30.72-18.432-38.912-38.912-16.384l-79.872 79.872c-22.528 22.528-55.296 24.576-73.728 6.144s-16.384-51.2 6.144-73.728l194.56-194.56c22.528-22.528 57.344-22.528 79.872 0l194.56 194.56c20.48 22.528 22.528 55.296 4.096 73.728zM450.56 538.112c18.432-18.432 51.2-16.384 73.728 6.144l79.872 79.872c22.528 22.528 38.912 14.336 38.912-16.384v-280.576c0-30.72 20.48-55.296 47.104-55.296s47.104 24.576 47.104 55.296v280.576c0 30.72 18.432 38.912 38.912 16.384l79.872-79.872c22.528-22.528 55.296-24.576 73.728-6.144s16.384 51.2-6.144 73.728l-194.56 194.56c-22.528 22.528-57.344 22.528-79.872 0l-192.512-194.56c-22.528-22.528-24.576-55.296-6.144-73.728z" />
<glyph unicode="&#xe920;" glyph-name="ico-wb-positions" d="M299.008 36.352c-18.432 0-32.768 10.24-40.96 26.624l-110.592 260.096h-92.16c-24.576 0-45.056 20.48-45.056 45.056s20.48 45.056 45.056 45.056h120.832c18.432 0 32.768-10.24 40.96-26.624l73.728-174.080 165.888 573.44c6.144 18.432 22.528 30.72 43.008 32.768 20.48 0 36.864-14.336 43.008-32.768l116.736-434.176 67.584 200.704c6.144 18.432 22.528 28.672 40.96 30.72 0 0 0 0 0 0 18.432 0 34.816-12.288 40.96-28.672l65.536-172.032h96.256c24.576 0 45.056-20.48 45.056-45.056s-20.48-45.056-45.056-45.056h-126.976c-18.432 0-34.816 12.288-40.96 28.672l-32.768 86.016-73.728-223.232c-6.144-18.432-24.576-30.72-43.008-30.72s-36.864 14.336-40.96 32.768l-112.64 421.888-157.696-538.624c-6.144-18.432-20.48-30.72-38.912-30.72-2.048-2.048-2.048-2.048-4.096-2.048z" />
<glyph unicode="&#xe923;" glyph-name="ico-wb-deposit" d="M259.2 640v-160h108.8l-112-160h256l112 160h38.4l-134.4-192h-220.8l-22.4-32h256l156.8 224h73.6v160h-512zM492.8 352h-176l150.4 217.6h176l-150.4-217.6zM448 476.8c-9.6-12.8 0-22.4 19.2-22.4h16c9.6 0 12.8-6.4 9.6-12.8s-16-12.8-25.6-12.8c-22.4 0-32 0-51.2 0-3.2-3.2-6.4-6.4-9.6-12.8h35.2c-3.2-3.2-6.4-6.4-9.6-12.8h16c3.2 3.2 6.4 6.4 9.6 12.8 19.2 0 41.6 9.6 51.2 22.4s0 22.4-19.2 22.4h-16c-9.6 0-12.8 6.4-9.6 12.8s16 12.8 25.6 12.8h54.4c3.2 3.2 6.4 6.4 9.6 12.8h-35.2c3.2 3.2 6.4 6.4 9.6 12.8h-16c-3.2-3.2-6.4-6.4-9.6-12.8-22.4 3.2-44.8-9.6-54.4-22.4z" />
<glyph unicode="&#xe924;" glyph-name="ico-wb-trade" d="M288 310.4h96v-96h-96v96zM416 374.4h96v-160h-96v160zM544 438.4h96v-224h-96v224zM672 502.4h96v-288h-96v288zM697.6 611.2h-96l-124.8-96-64 32-156.8-131.2v-41.6l163.2 137.6 64-32 131.2 99.2h96l57.6 54.4v48z" />
<glyph unicode="&#xe925;" glyph-name="ico-wb-user" d="M752 313.6c-16 22.4-64 38.4-115.2 57.6s-60.8 28.8-60.8 28.8v48c0 0 19.2 12.8 25.6 57.6 12.8-3.2 22.4 16 25.6 28.8 0 9.6-3.2 38.4-16 38.4 3.2 22.4 6.4 41.6 3.2 51.2-6.4 38.4-44.8 80-102.4 80s-96-41.6-99.2-80c0-9.6 0-28.8 3.2-51.2-12.8 3.2-16-25.6-16-38.4 0-9.6 12.8-32 25.6-28.8 6.4-44.8 25.6-57.6 25.6-57.6v-48c0 0-12.8-6.4-60.8-28.8-51.2-19.2-102.4-35.2-118.4-57.6-12.8-19.2-9.6-121.6-9.6-121.6h496c3.2 0 6.4 102.4-6.4 121.6z" />
<glyph unicode="&#xe926;" glyph-name="ico-wb-call-me-back" d="M684.373 89.6c-42.667 0-194.56 15.36-380.587 201.387s-201.387 339.627-201.387 380.587c0 69.973 88.747 168.96 112.64 168.96h51.2c6.827 0 13.653-3.413 15.36-10.24l73.387-177.493c3.413-6.827 0-15.36-5.12-20.48-69.973-52.907-93.867-69.973-93.867-95.573 0-56.32 237.227-293.547 293.547-293.547 27.307 0 44.373 23.893 97.28 93.867 5.12 6.827 13.653 8.533 20.48 5.12l174.080-75.093c6.827-3.413 10.24-8.533 10.24-15.36v-51.2c1.707-22.187-97.28-110.933-167.253-110.933zM843.093 782.507l-47.787 47.787-215.040-215.040v157.013h-68.267v-273.067h273.067v68.267h-157.013z" />
<glyph unicode="&#xe927;" glyph-name="ico-wb-call-us" d="M718.507 72.533c-42.667 0-194.56 15.36-380.587 201.387s-201.387 339.627-201.387 380.587c0 69.973 88.747 168.96 112.64 168.96h51.2c6.827 0 13.653-3.413 15.36-10.24l73.387-177.493c3.413-6.827 0-15.36-5.12-20.48-69.973-52.907-93.867-69.973-93.867-95.573 0-56.32 237.227-293.547 293.547-293.547 27.307 0 44.373 23.893 97.28 93.867 5.12 6.827 13.653 8.533 20.48 5.12l174.080-75.093c6.827-3.413 10.24-8.533 10.24-15.36v-51.2c1.707-22.187-97.28-110.933-167.253-110.933zM614.4 823.467v-68.267h157.013l-215.040-215.040 47.787-47.787 215.040 215.040v-157.013h68.267v273.067z" />
<glyph unicode="&#xe92b;" glyph-name="ico-wb-tools-calendar" d="M355.376 570.843h122.843v-122.843h-122.843v122.843zM542.711 570.843h122.843v-122.843h-122.843v122.843zM730.044 570.843h122.843v-122.843h-122.843v122.843zM171.113 386.58h122.843v-122.843h-122.843v122.843zM355.376 386.58h122.843v-122.843h-122.843v122.843zM542.711 386.58h122.843v-122.843h-122.843v122.843zM730.044 386.58h122.843v-122.843h-122.843v122.843zM171.113 199.245h122.843v-122.843h-122.843v122.843zM355.376 199.245h122.843v-122.843h-122.843v122.843zM542.711 199.245h122.843v-122.843h-122.843v122.843zM852.887 819.596v92.132c0 18.427-15.354 30.711-30.711 30.711h-122.843c-18.427 0-30.711-15.354-30.711-30.711v-92.132h-313.246v92.132c0 18.427-15.354 30.711-30.711 30.711h-122.843c-18.427 0-30.711-15.354-30.711-30.711v-92.132h-122.843v-869.106h930.526v869.106h-125.913zM730.044 881.017h61.42v-122.843h-61.42v122.843zM232.537 881.017h61.42v-122.843h-61.42v122.843zM914.306 14.983h-804.613v620.35h807.684v-620.35z" />
<glyph unicode="&#xe92d;" glyph-name="ico-wb-tools-info" d="M862.529 798.529c-192.326 192.326-508.734 192.326-701.060 0s-192.326-508.734 0-701.060c192.326-192.326 508.734-192.326 701.060 0 195.429 192.326 195.429 508.734 0 701.060zM502.694 857.47c52.734 0 96.162-43.428 96.162-96.162s-43.428-96.162-96.162-96.162c-52.734 0-96.162 43.428-96.162 96.162 0 55.837 43.428 96.162 96.162 96.162zM657.795 159.51c0-18.612-9.306-31.019-31.019-31.019h-245.062c-18.612 0-31.019 9.306-31.019 31.019v62.040c0 18.612 9.306 31.019 31.019 31.019h46.531v263.674h-46.531c-18.612 0-31.019 9.306-31.019 31.019v62.040c0 18.612 9.306 31.019 31.019 31.019h170.611c18.612 0 31.019-9.306 31.019-31.019v-356.734h46.531c18.612 0 31.019-9.306 31.019-31.019v-62.040z" />
<glyph unicode="&#xe92e;" glyph-name="ico-wb-tools-presentation" d="M674.17 728.112c-82.138-6.318-151.639-65.29-170.596-145.321h170.596v145.321zM539.379 117.34v52.653h-54.759v-54.759l-200.081-162.17h82.138l117.943 101.093v-21.060h54.759v21.060l120.049-103.2h82.138l-202.187 166.382zM480.409 355.332h-65.29v229.565h-50.547v-229.565h-35.805v318.023h-50.547v-318.023h-35.805v193.762h-52.653v-193.762h-65.29c-8.424 0-14.742-6.318-14.742-14.742s6.318-14.742 14.742-14.742h355.932c8.424 0 14.742 6.318 14.742 14.742-2.106 8.424-8.424 14.742-14.742 14.742zM44.443 942.935c-6.318 0-12.636-6.318-12.636-12.636v-31.591c0-6.318 6.318-12.636 12.636-12.636h937.22c6.318 0 12.636 6.318 12.636 12.636v31.591c0 6.318-6.318 12.636-12.636 12.636h-937.22zM31.807 220.541c0-6.318 6.318-12.636 12.636-12.636h937.22c6.318 0 12.636 6.318 12.636 12.636v619.196c0 6.318-6.318 12.636-12.636 12.636h-937.22c-6.318 0-12.636-6.318-12.636-12.636v-619.196zM67.61 810.25c0 4.212 4.212 8.424 8.424 8.424h871.93c4.212 0 8.424-4.212 8.424-8.424v-560.225c0-4.212-4.212-8.424-8.424-8.424h-871.93c-4.212 0-8.424 4.212-8.424 8.424v560.225zM701.55 728.112v-157.958c0-4.212-2.106-6.318-4.212-10.53-2.106-2.106-6.318-4.212-10.53-4.212h-189.55c0-6.318 0-12.636 0-18.954 0-107.412 86.35-193.762 193.762-193.762s193.762 86.35 193.762 193.762c0 101.093-80.032 185.338-183.232 191.656zM457.241-46.935h109.519v48.441h-109.519v-48.441z" />
<glyph unicode="&#xe934;" glyph-name="ico-link" d="M512 917.333c-256 0-469.333-213.333-469.333-469.333s213.333-469.333 469.333-469.333c256 0 469.333 213.333 469.333 469.333s-213.333 469.333-469.333 469.333zM512 55.467c-213.333 0-392.533 179.2-392.533 392.533s179.2 392.533 392.533 392.533 392.533-179.2 392.533-392.533c0-213.333-179.2-392.533-392.533-392.533zM742.4 465.067c0 0 0 0 0 0l-196.267 196.267c0 0-8.533 8.533-8.533 8.533h-59.733c-8.533 0-8.533 0-17.067-8.533 0-8.533 0-8.533 0-17.067l153.6-162.133h-332.8c0 0-8.533 0-8.533-8.533s0 0 0 0v-42.667c0-8.533 8.533-17.067 17.067-17.067h332.8l-162.133-162.133c0 0-8.533-8.533 0-17.067 0-8.533 8.533-8.533 17.067-8.533h68.267c0 0 8.533 0 8.533 8.533l204.8 204.8c8.533 8.533 8.533 17.067 0 17.067l-17.067 8.533z" />
<glyph unicode="&#xe935;" glyph-name="ico-open-popup" d="M42.667 917.333l8.533-315.733 76.8 8.533-8.533 230.4h785.067v-776.533l-238.933-8.533v-76.8l315.733 8.533v930.133zM42.667 490.667v-85.333h366.933l-366.933-358.4v-68.267h59.733l366.933 375.467v-375.467h85.333v512h-85.333z" />
<glyph unicode="&#xe936;" glyph-name="ico-print" d="M867.388 610.635h-66.259v289.129c0 12.047-12.047 24.094-24.094 24.094h-530.071c-12.047 0-24.094-12.047-24.094-24.094v-289.129h-66.259c-66.259 0-120.471-54.212-120.471-120.471v-265.035c0-42.165 30.118-72.282 72.282-72.282h114.447v-156.612c0-12.047 12.047-24.094 24.094-24.094h530.071c12.047 0 24.094 12.047 24.094 24.094v162.635h114.447c42.165 0 72.282 30.118 72.282 72.282v265.035c0 66.259-54.212 114.447-120.471 114.447zM271.059 875.671h481.882v-259.012h-481.882v259.012zM752.941 20.329h-481.882v295.153h481.882v-295.153zM939.671 231.153c0-12.047-12.047-24.094-24.094-24.094h-114.447v132.518c0 12.047-12.047 24.094-24.094 24.094h-530.071c-12.047 0-24.094-12.047-24.094-24.094v-132.518h-114.447c-12.047 0-24.094 12.047-24.094 24.094v265.035c0 36.141 30.118 66.259 66.259 66.259h710.776c36.141 0 66.259-30.118 66.259-66.259v-265.035zM680.659 146.824h-337.318c-12.047 0-24.094-12.047-24.094-24.094s12.047-24.094 24.094-24.094h343.341c12.047 0 24.094 12.047 24.094 24.094s-12.047 24.094-30.118 24.094zM680.659 273.318h-337.318c-12.047 0-24.094-12.047-24.094-24.094s12.047-24.094 24.094-24.094h343.341c12.047 0 24.094 12.047 24.094 24.094s-12.047 24.094-30.118 24.094z" />
<glyph unicode="&#xe938;" glyph-name="ico-signals" d="M386.048 789.333v-70.315h231.424l-220.843-220.843 49.493-49.493 220.843 220.843v-231.424h70.315v351.232h-351.232zM637.952 106.667v70.315h-231.424l220.843 220.843-49.493 49.493-220.843-220.843v231.424h-70.315v-351.232h351.232z" />
<glyph unicode="&#xe93f;" glyph-name="ico-announcment-none" d="M876.089 72.533c-6.827 0-11.378 4.551-11.378 9.102-118.329 136.533-288.996 216.178-468.764 216.178h-20.48c-20.48 0-38.684 15.929-38.684 36.409v225.28c0 20.48 15.929 36.409 38.684 36.409h20.48c179.769 0 348.16 79.644 468.764 216.178 0 6.827 4.551 11.378 11.378 11.378s11.378-4.551 11.378-13.653v-725.902c0-6.827-4.551-11.378-11.378-11.378zM375.467 573.156c-6.827 0-13.653-4.551-13.653-11.378v-225.28c0-6.827 4.551-11.378 13.653-11.378h20.48c177.493 0 345.884-72.818 468.764-202.524v653.084c-125.156-129.707-293.547-202.524-471.040-202.524h-18.204zM350.436 322.844h-150.187c-34.133 0-63.716 29.582-63.716 63.716v120.604c0 36.409 29.582 65.991 63.716 65.991h150.187c6.827 0 11.378-4.551 11.378-11.378v-225.28c0-9.102-4.551-13.653-11.378-13.653zM200.249 548.124c-20.48 0-38.684-18.204-38.684-38.684v-120.604c0-20.48 18.204-38.684 38.684-38.684h138.809v200.249h-138.809zM432.356 72.533h-43.236c-36.409 0-65.991 25.031-72.818 59.164l-52.338 200.249c-2.276 6.827 2.276 13.653 9.102 15.929s13.653-2.276 15.929-9.102l52.338-200.249c4.551-22.756 25.031-40.96 50.062-40.96h40.96c6.827 0 13.653 4.551 15.929 9.102 2.276 6.827 2.276 13.653 0 18.204 0 0-9.102 9.102-11.378 11.378-6.827 9.102-15.929 20.48-22.756 31.858-20.48 36.409-27.307 79.644-15.929 122.88l4.551 15.929c2.276 6.827 9.102 11.378 15.929 9.102s11.378-9.102 9.102-15.929l-4.551-15.929c-9.102-36.409-4.551-72.818 13.653-104.676 6.827-11.378 11.378-20.48 20.48-29.582 2.276-2.276 11.378-13.653 11.378-13.653 9.102-15.929 9.102-31.858 2.276-45.511-6.827-9.102-22.756-18.204-38.684-18.204zM225.28 397.938c-6.827 0-13.653 4.551-13.653 13.653v75.093c0 6.827 4.551 13.653 13.653 13.653s11.378-4.551 11.378-13.653v-75.093c0-9.102-4.551-13.653-11.378-13.653zM275.342 397.938c-6.827 0-13.653 4.551-13.653 13.653v75.093c0 6.827 4.551 13.653 13.653 13.653s13.653-4.551 13.653-13.653v-75.093c-2.276-9.102-6.827-13.653-13.653-13.653z" />
<glyph unicode="&#xe940;" glyph-name="ico-header-help" d="M530.204 379.733c-9.102 0-18.204 6.827-18.204 18.204v34.133c0 9.102 6.827 15.929 13.653 15.929 25.031 4.551 54.613 18.204 54.613 52.338 0 25.031-29.582 52.338-68.267 52.338-36.409 0-65.991-27.307-68.267-52.338 0-9.102-9.102-15.929-18.204-15.929s-15.929 9.102-15.929 18.204c4.551 40.96 45.511 84.196 102.4 84.196s102.4-38.684 102.4-86.471c0-38.684-25.031-68.267-68.267-81.92v-20.48c0-11.378-6.827-18.204-15.929-18.204zM530.204 311.467c-9.102 0-18.204 6.827-18.204 18.204s6.827 18.204 15.929 18.204v0c9.102 0 18.204-6.827 18.204-18.204s-6.827-18.204-15.929-18.204zM138.809 61.156c-2.276 0-6.827 2.276-9.102 4.551-4.551 4.551-4.551 9.102-2.276 13.653l77.369 188.871c-34.133 59.164-54.613 125.156-54.613 193.422 0 207.076 168.391 373.191 373.191 373.191s373.191-168.391 373.191-373.191-168.391-373.191-373.191-373.191c-72.818 0-141.084 20.48-200.249 59.164l-179.769-84.196c-2.276-2.276-4.551-2.276-4.551-2.276zM525.653 809.813c-191.147 0-348.16-157.013-348.16-348.16 0-65.991 18.204-129.707 52.338-184.32 2.276-4.551 2.276-6.827 0-11.378l-68.267-166.116 157.013 72.818c4.551 2.276 9.102 2.276 13.653 0 56.889-38.684 125.156-59.164 193.422-59.164 191.147 0 348.16 157.013 348.16 348.16s-157.013 348.16-348.16 348.16z" />
<glyph unicode="&#xe96e;" glyph-name="ico-wb-mobile-view" d="M661.333 917.333h-341.333c-58.88 0-106.667-47.787-106.667-106.667v-725.333c0-58.88 47.787-106.667 106.667-106.667h341.333c58.88 0 106.667 47.787 106.667 106.667v725.333c0 58.88-47.787 106.667-106.667 106.667zM490.667 21.333c-35.413 0-64 28.587-64 64s28.587 64 64 64 64-28.587 64-64-28.587-64-64-64zM682.667 192h-384v597.333h384v-597.333z" />
<glyph unicode="&#xe972;" glyph-name="ico-wb-limits" d="M256.003 959.993h511.988v-127.999h-511.988v127.999zM256.003 64.017h511.988v-127.999h-511.988v127.999zM703.987 320.017h-127.999v256h127.999l-192 192-192-192h127.999v-256h-127.999l192-192z" />
<glyph unicode="&#xea78;" glyph-name="ico-account-pref" d="M249.322 545.948h-129.113c-44.522 0-80.139 35.617-80.139 80.139v133.565c0 44.522 35.617 80.139 80.139 80.139h129.113c44.522 0 80.139-35.617 80.139-80.139v-129.113c4.452-48.974-35.617-84.591-80.139-84.591zM120.209 808.626c-26.713 0-48.974-22.261-48.974-48.974v-129.113c0-26.713 22.261-48.974 48.974-48.974h129.113c26.713 0 48.974 22.261 48.974 48.974v129.113c0 26.713-22.261 48.974-48.974 48.974h-129.113zM903.791 56.209h-129.113c-44.522 0-80.139 35.617-80.139 80.139v129.113c0 44.522 35.617 80.139 80.139 80.139h129.113c44.522 0 80.139-35.617 80.139-80.139v-129.113c0-44.522-35.617-80.139-80.139-80.139zM774.678 318.887c-26.713 0-48.974-22.261-48.974-48.974v-129.113c0-26.713 22.261-48.974 48.974-48.974h129.113c26.713 0 48.974 22.261 48.974 48.974v129.113c0 26.713-22.261 48.974-48.974 48.974h-129.113zM578.783 318.887h-133.565c-44.522 0-80.139 35.617-80.139 80.139v129.113c0 44.522 35.617 80.139 80.139 80.139h133.565c44.522 0 80.139-35.617 80.139-80.139v-129.113c0-44.522-35.617-80.139-80.139-80.139zM445.217 577.113c-26.713 0-48.974-22.261-48.974-48.974v-129.113c0-26.713 22.261-48.974 48.974-48.974h133.565c26.713 0 48.974 22.261 48.974 48.974v129.113c0 26.713-22.261 48.974-48.974 48.974h-133.565zM186.991 808.626c-8.904 0-17.809 4.452-17.809 13.357v97.948c0 8.904 8.904 17.809 17.809 17.809s17.809-8.904 17.809-17.809v-97.948c-4.452-8.904-8.904-13.357-17.809-13.357zM186.991-41.739c-8.904 0-17.809 8.904-17.809 17.809v587.687c0 8.904 8.904 17.809 17.809 17.809s17.809-8.904 17.809-17.809v-587.687c-4.452-8.904-8.904-17.809-17.809-17.809zM512-41.739c-8.904 0-17.809 8.904-17.809 17.809v360.626c0 8.904 8.904 17.809 17.809 17.809s17.809-8.904 17.809-17.809v-360.626c0-8.904-8.904-17.809-17.809-17.809zM512 577.113c-8.904 0-17.809 8.904-17.809 17.809v325.009c0 8.904 8.904 17.809 17.809 17.809s17.809-8.904 17.809-17.809v-325.009c0-8.904-8.904-17.809-17.809-17.809zM837.009 318.887c-8.904 0-17.809 8.904-17.809 17.809v583.235c0 8.904 8.904 17.809 17.809 17.809s17.809-8.904 17.809-17.809v-587.687c0-8.904-8.904-13.357-17.809-13.357zM837.009-41.739c-8.904 0-17.809 8.904-17.809 17.809v97.948c0 8.904 8.904 17.809 17.809 17.809s17.809-8.904 17.809-17.809v-97.948c0-8.904-8.904-17.809-17.809-17.809z" />
<glyph unicode="&#xea79;" glyph-name="ico-change-pass" d="M609.948 238.748h-195.896c-4.452 0-8.904 0-13.357 4.452 0 4.452 0 8.904 0 13.357l26.713 169.183c-40.070 26.713-62.33 71.235-62.33 115.757 0 80.139 66.783 146.922 146.922 146.922s146.922-66.783 146.922-146.922c0-48.974-22.261-89.043-62.33-115.757l26.713-169.183c0-4.452 0-8.904-4.452-13.357 0-4.452-4.452-4.452-8.904-4.452zM436.313 269.913h155.826l-26.713 160.278c0 4.452 0 13.357 8.904 17.809 31.165 22.261 48.974 57.878 48.974 97.948 0 62.33-48.974 111.304-111.304 111.304s-111.304-48.974-111.304-111.304c0-40.070 22.261-75.687 53.426-97.948 4.452-4.452 8.904-8.904 8.904-17.809l-26.713-160.278zM512-19.478c-258.226 0-467.478 209.252-467.478 467.478s209.252 467.478 467.478 467.478 467.478-209.252 467.478-467.478-209.252-467.478-467.478-467.478zM512 884.313c-240.417 0-436.313-195.896-436.313-436.313s195.896-436.313 436.313-436.313 436.313 195.896 436.313 436.313-195.896 436.313-436.313 436.313z" />
<glyph unicode="&#xea7a;" glyph-name="ico-logout" d="M592.139-19.478h-449.67c-53.426 0-97.948 44.522-97.948 97.948v739.061c0 53.426 44.522 97.948 97.948 97.948h449.67c53.426 0 97.948-44.522 97.948-97.948v-209.252c0-8.904-8.904-17.809-17.809-17.809s-17.809 8.904-17.809 17.809v209.252c0 35.617-26.713 62.33-62.33 62.33h-449.67c-35.617 0-62.33-26.713-62.33-62.33v-743.513c0-35.617 26.713-62.33 62.33-62.33h449.67c35.617 0 62.33 26.713 62.33 62.33v209.252c0 8.904 8.904 17.809 17.809 17.809s17.809-8.904 17.809-17.809v-209.252c0-48.974-44.522-93.496-97.948-93.496zM961.67 430.191h-512c-8.904 0-17.809 8.904-17.809 17.809s8.904 17.809 17.809 17.809h516.452c8.904 0 17.809-8.904 17.809-17.809s-13.357-17.809-22.261-17.809zM801.391 269.913c-4.452 0-8.904 0-13.357 4.452s-4.452 17.809 0 22.261l151.374 151.374-151.374 151.374c-4.452 4.452-4.452 17.809 0 22.261s17.809 4.452 22.261 0l160.278-160.278c4.452-4.452 4.452-17.809 0-22.261l-160.278-160.278c0-4.452-4.452-8.904-8.904-8.904z" />
<glyph unicode="&#xea7c;" glyph-name="ico-personal-info" d="M445.217 327.791h-338.365c-8.904 0-17.809 8.904-17.809 17.809 0 97.948 80.139 169.183 186.991 169.183s186.991-71.235 186.991-169.183c0-8.904-8.904-17.809-17.809-17.809zM124.661 363.409h302.748c-8.904 71.235-66.783 120.209-151.374 120.209s-142.47-48.974-151.374-120.209zM276.035 483.617c-57.878 0-102.4 44.522-102.4 102.4s44.522 102.4 102.4 102.4c57.878 0 102.4-44.522 102.4-102.4s-48.974-102.4-102.4-102.4zM276.035 652.8c-35.617 0-66.783-31.165-66.783-66.783s31.165-66.783 66.783-66.783 66.783 31.165 66.783 66.783c0 35.617-31.165 66.783-66.783 66.783zM917.148 599.374h-338.365c-8.904 0-17.809 8.904-17.809 17.809s8.904 17.809 17.809 17.809h338.365c8.904 0 17.809-8.904 17.809-17.809s-8.904-17.809-17.809-17.809zM783.583 465.809h-204.8c-8.904 0-17.809 8.904-17.809 17.809s8.904 17.809 17.809 17.809h204.8c8.904 0 17.809-8.904 17.809-17.809s-8.904-17.809-17.809-17.809zM917.148 327.791h-338.365c-8.904 0-17.809 8.904-17.809 17.809s8.904 17.809 17.809 17.809h338.365c8.904 0 17.809-8.904 17.809-17.809s-8.904-17.809-17.809-17.809zM983.93 127.443h-133.565c-8.904 0-17.809 8.904-17.809 17.809 0 4.452 0 4.452-4.452 8.904s-4.452 13.357 0 17.809c0 4.452 4.452 4.452 4.452 8.904 0 8.904-8.904 17.809-17.809 17.809s-17.809-8.904-17.809-17.809c0-4.452 0-4.452 4.452-8.904s4.452-13.357 0-17.809c0-4.452-4.452-4.452-4.452-8.904 0-8.904-8.904-17.809-17.809-17.809h-133.565c-8.904 0-17.809 8.904-17.809 17.809 0 4.452 0 4.452-4.452 8.904s-4.452 13.357 0 17.809c0 4.452 4.452 4.452 4.452 8.904 0 8.904-8.904 17.809-17.809 17.809s-17.809-8.904-17.809-17.809c0-4.452 0-4.452 4.452-8.904s4.452-13.357 0-17.809c0-4.452-4.452-4.452-4.452-8.904 0-8.904-8.904-17.809-17.809-17.809h-133.565c-8.904 0-17.809 8.904-17.809 17.809 0 4.452 0 4.452-4.452 8.904s-4.452 13.357 0 17.809c0 4.452 4.452 4.452 4.452 8.904 0 8.904-8.904 17.809-17.809 17.809s-17.809-8.904-17.809-17.809c0-4.452 0-4.452 4.452-8.904 8.904-8.904 8.904-13.357 4.452-22.261 0-4.452-4.452-4.452-4.452-8.904 0-8.904-8.904-17.809-17.809-17.809h-133.565c-8.904 0-17.809 8.904-17.809 17.809 0 4.452 0 4.452-4.452 8.904s-4.452 13.357 0 17.809c4.452 4.452 4.452 8.904 4.452 8.904 0 8.904-8.904 17.809-17.809 17.809s-17.809-8.904-17.809-17.809c0-4.452 0-4.452 4.452-8.904s4.452-13.357 0-17.809c0-4.452-4.452-4.452-4.452-8.904 0-8.904-8.904-17.809-17.809-17.809h-133.565c-8.904 0-17.809 8.904-17.809 17.809v609.948c0 8.904 8.904 17.809 17.809 17.809h948.313c8.904 0 17.809-8.904 17.809-17.809v-609.948c0-4.452-8.904-13.357-17.809-13.357zM863.722 158.609h106.852v578.783h-917.148v-578.783h106.852c0 4.452-4.452 13.357-4.452 17.809 0 26.713 22.261 48.974 48.974 48.974s48.974-22.261 48.974-48.974c0-4.452 0-13.357-4.452-17.809h106.852c0 4.452-4.452 13.357-4.452 17.809 0 26.713 22.261 48.974 48.974 48.974s48.974-22.261 48.974-48.974c0-4.452 0-13.357-4.452-17.809h106.852c0 4.452-4.452 13.357-4.452 17.809 0 26.713 22.261 48.974 48.974 48.974s48.974-22.261 48.974-48.974c0-4.452 0-13.357-4.452-17.809h106.852c0 4.452-4.452 13.357-4.452 17.809 0 26.713 22.261 48.974 48.974 48.974s48.974-22.261 48.974-48.974c26.713-4.452 26.713-8.904 22.261-17.809v0z" />
<glyph unicode="&#xea7d;" glyph-name="ico-upload-docs" d="M529.809 74.017h-467.478c-8.904 0-17.809 8.904-17.809 17.809v560.974c0 4.452 0 8.904 4.452 8.904l249.322 249.322c4.452 4.452 8.904 4.452 8.904 4.452h405.148c8.904 0 17.809-8.904 17.809-17.809v-467.478c0-8.904-8.904-13.357-17.809-13.357s-13.357 8.904-13.357 13.357v454.122h-382.887l-240.417-240.417v-538.713h454.122c8.904 0 13.357-8.904 13.357-13.357 0-8.904-8.904-17.809-13.357-17.809zM307.2 634.991h-244.87c-8.904 0-17.809 8.904-17.809 17.809s8.904 13.357 17.809 13.357h231.513v231.513c0 8.904 8.904 17.809 13.357 17.809s17.809-8.904 17.809-17.809v-249.322c0-4.452-8.904-13.357-17.809-13.357zM779.13 42.852c-8.904 0-17.809 8.904-17.809 17.809v218.157c0 8.904 8.904 17.809 17.809 17.809s13.357-8.904 13.357-17.809v-218.157c0-8.904-8.904-17.809-13.357-17.809zM868.174 167.513c-4.452 0-8.904 0-8.904 4.452l-84.591 84.591-84.591-84.591c-4.452-4.452-17.809-4.452-22.261 0s-4.452 17.809 0 22.261l93.496 93.496c4.452 4.452 17.809 4.452 22.261 0l93.496-93.496c4.452-4.452 4.452-17.809 0-22.261 0-4.452-4.452-4.452-8.904-4.452zM779.13-19.478c-111.304 0-204.8 89.043-204.8 200.348s89.043 204.8 204.8 204.8 200.348-89.043 200.348-204.8-89.043-200.348-200.348-200.348zM779.13 354.504c-93.496 0-173.635-75.687-173.635-173.635s75.687-169.183 173.635-169.183 169.183 75.687 169.183 169.183-75.687 173.635-169.183 173.635z" />
<glyph unicode="&#xea7e;" glyph-name="ico-wallet" d="M814.649 49.778h-614.4c-68.267 0-131.982 63.716-131.982 131.982v443.733c0 65.991 61.44 125.156 131.982 125.156h614.4c70.542 0 131.982-59.164 131.982-125.156v-441.458c-2.276-70.542-63.716-134.258-131.982-134.258zM200.249 721.067c-54.613 0-102.4-45.511-102.4-97.849v-443.733c0-52.338 50.062-102.4 102.4-102.4h614.4c52.338 0 102.4 50.062 102.4 104.676v443.733c0 52.338-47.787 97.849-102.4 97.849h-614.4zM930.702 284.16h-145.636c-68.267 0-131.982 63.716-131.982 131.982s63.716 131.982 131.982 131.982h145.636c9.102 0 13.653-6.827 13.653-13.653v-234.382c0-9.102-4.551-15.929-13.653-15.929zM785.067 518.542c-52.338 0-102.4-50.062-102.4-102.4s50.062-102.4 102.4-102.4h131.982v204.8h-131.982zM785.067 370.631c-25.031 0-43.236 20.48-43.236 43.236 0 25.031 20.48 43.236 43.236 43.236 25.031 0 43.236-20.48 43.236-43.236s-20.48-43.236-43.236-43.236zM785.067 429.796c-9.102 0-13.653-6.827-13.653-13.653 0-9.102 6.827-13.653 13.653-13.653 9.102 0 13.653 6.827 13.653 13.653s-6.827 13.653-13.653 13.653z" />
</font>
</defs>
</svg>
