<svg xmlns="http://www.w3.org/2000/svg" viewBox="0 0 80 16.34"><defs><style>.cls-1{fill:#df382c;}.cls-1,.cls-2{fill-rule:evenodd;}.cls-2{fill:#231f20;}</style></defs><title>Banamex</title><g id="Layer_2" data-name="Layer 2"><g id="Banamex"><path class="cls-1" d="M2.64,2a1.73,1.73,0,0,0-.31,2.09l1,1.36-2,.74C.43,6.29,0,6.94,0,8.07a8.43,8.43,0,0,0,.71,3.36c.47.77,1,1.14,1.45,1.14l2.17-.64v2.4A1.23,1.23,0,0,0,5,15.63a7.45,7.45,0,0,0,3.8.71,2,2,0,0,0,2.1-2.24V13l2.05.79a1.74,1.74,0,0,0,1.79-.31,6,6,0,0,0,1.93-4.16A1.26,1.26,0,0,0,15.48,7.9L14,7.28l1.39-1.7.4-1a2.88,2.88,0,0,0-.48-1.28A9.46,9.46,0,0,0,12.59.92a1.49,1.49,0,0,0-2.17.42l-1,1.18L8,.6A1.86,1.86,0,0,0,5.86.12,9.21,9.21,0,0,0,2.64,2ZM5.46,4.22l-.34-.57a4.87,4.87,0,0,1,4.2-1l-.66.79-.39,1-.4-.63c-.23-.37-.65-.45-1.3-.25l-1.11.65ZM4.81,7l-.57.17c-.42.14-.64.53-.64,1.19a3.31,3.31,0,0,0,.24,1.13l-.63.26c-.67-1.2-.57-2.61.25-4.29l.7,1L4.81,7Zm2.41-.71a3,3,0,0,0,1.13-1.7C8.49,6,9.54,6.77,11.46,7.11a3,3,0,0,0-1.11,3.53,3.61,3.61,0,0,0-3.87,0c.37-1.77-.08-3-1.36-3.61a3,3,0,0,0,2.1-.71ZM13,6.94,11.8,6.86,12.42,6c0-.5-.4-1.09-1.18-1.77l.39-.57A6.23,6.23,0,0,1,13,5.1l.91,2.18L13,6.94Zm-.09,2.5.65.34a4.88,4.88,0,0,1-2.7,3.1V12c0-.59-.09-1-.36-1.13l.75.25a1,1,0,0,0,.95-.34,1.94,1.94,0,0,0,.71-1.34ZM5.6,11.52a1.92,1.92,0,0,0,.74-.65v.92c-.11.66.57,1,2,1v.65a5.19,5.19,0,0,1-3.94-1.62l1.19-.31Z"/><path class="cls-2" d="M28.41,7.68a3,3,0,0,0,1.53-2.5c0-1.73-1-2.58-3-2.58h-4.1l-1,10.85h4.82c2.17,0,3.33-1.08,3.44-3.21a2.48,2.48,0,0,0-.73-1.94l-1-.62ZM25,4.3h1.61c.75,0,1.12.34,1.12,1.11-.05,1.27-.85,1.81-2.34,1.62l-.14,1.7h1.05c1,0,1.57.36,1.57,1.19,0,1.16-.53,1.74-1.57,1.77H24.34L25,4.3Z"/><path class="cls-2" d="M37.5,7.9a2.14,2.14,0,0,0-1.84-2.49,6.57,6.57,0,0,0-3.79.65V7.68a5.81,5.81,0,0,1,2.48-.74c.71,0,1,.31,1,1l-.14,2.48c-.11,1-.57,1.55-1.38,1.55s-1.05-.33-1.05-1c0-.89.6-1.34,1.78-1.34L34.78,8c-2.57,0-3.87,1-3.87,3,0,1.81.93,2.63,2.83,2.49H35c1.17.2,1.88-.34,2.1-1.6l.4-4Z"/><path class="cls-2" d="M45.54,7.68c.25-1.51-.31-2.27-1.7-2.27l-4.33.08-.79,8h2.07l.65-6.17h1c.6,0,.88.23.88.71l-.56,5.46H45l.57-5.77Z"/><path class="cls-2" d="M51.22,5.41a6.44,6.44,0,0,0-3.75.65V7.68A5.5,5.5,0,0,1,50,6.94c.68,0,1,.31,1,1l-.25,2.48c-.11,1-.54,1.55-1.26,1.55s-1.14-.33-1.14-1c0-.89.63-1.34,1.83-1.34L50.26,8Q46.5,8,46.5,11c0,1.81.94,2.63,2.81,2.49h1.2a1.69,1.69,0,0,0,2.16-1.6l.34-4a2.09,2.09,0,0,0-1.79-2.49Z"/><path class="cls-2" d="M62.41,5.41l-7.73.08-.62,8h2.1l.62-6.11.86-.06c.49,0,.74.17.74.54l-.48,5.46v.08H60l.48-6.08,1.05-.08c.42,0,.59.14.57.48l-.49,5.68h2.16l.57-6.16c0-1.25-.66-1.85-1.93-1.79Z"/><path class="cls-2" d="M68.57,6.94c.71,0,1.05.31,1.05,1,0,1-.62,1.45-1.84,1.45l-.17,1.52c2.41.31,3.69-.68,3.8-3,.08-1.73-.82-2.58-2.75-2.58-2.18,0-3.46,1.34-3.77,4s.74,4.18,3.37,4.18A5.13,5.13,0,0,0,70.53,13l.14-1.61a3.68,3.68,0,0,1-2.1.64c-1.1,0-1.64-.74-1.58-2.17.19-1.93.73-2.89,1.58-2.89Z"/><path class="cls-2" d="M77.83,5.58l-1.54,2.1-.64-1.14c-.37-.65-.8-1-1.28-1H72.76l2.09,3.86-3.21,4H73.8l2-2.41.88,1.61a1.35,1.35,0,0,0,1.22.8h1.67L77.18,9.21,80,5.58Z"/></g></g></svg>