<?xml version="1.0" encoding="utf-8"?>
<!-- Generator: Adobe Illustrator 22.1.0, SVG Export Plug-In . SVG Version: 6.00 Build 0)  -->
<svg version="1.1" id="Layer_1" xmlns="http://www.w3.org/2000/svg" xmlns:xlink="http://www.w3.org/1999/xlink" x="0px" y="0px"
	 viewBox="0 0 100 100" style="enable-background:new 0 0 100 100;" xml:space="preserve">
<style type="text/css">
	.st0{fill:#01703A;}
	.st1{fill:#7BBF44;}
	.st2{fill:#7BC043;}
</style>
<g>
	<g>
		<path class="st0" d="M17.6,60.1c0.7,0,1.2,0.1,1.7,0.3c0.5,0.2,0.8,0.5,1.1,0.9c0.3,0.4,0.4,0.8,0.5,1.3c0.1,0.5,0,1.1-0.1,1.6
			c-0.2,1.4-0.8,2.4-1.7,3.1c-0.9,0.7-2,1-3.5,1h-1.2l-0.9,5.1H10l2.4-13.5H17.6z M15.5,65.9c0.4,0,0.8-0.1,1.1-0.4
			c0.3-0.3,0.5-0.7,0.6-1.2c0.2-1.1-0.2-1.6-1.1-1.6h-0.7l-0.6,3.3H15.5z"/>
		<path class="st0" d="M25.1,63.3L24.8,65h0c0.3-0.6,0.7-1.1,1.2-1.4c0.5-0.3,1-0.5,1.5-0.5H28l-0.6,3.2c-0.1,0-0.3,0-0.4-0.1
			c-0.1,0-0.3,0-0.4,0c-0.6,0-1.1,0.1-1.5,0.4c-0.4,0.3-0.6,0.7-0.8,1.4l-1,5.6H20l1.8-10.2H25.1z"/>
		<path class="st0" d="M35.6,70.4c-0.2,0.6-0.5,1.2-0.9,1.7c-0.4,0.5-0.9,0.9-1.5,1.2c-0.6,0.3-1.4,0.4-2.4,0.4
			c-1,0-1.8-0.1-2.3-0.4c-0.5-0.3-0.9-0.6-1.1-1.1c-0.2-0.5-0.3-1.1-0.3-1.7c0-0.6,0.1-1.3,0.2-2.1c0.1-0.7,0.3-1.3,0.5-2
			c0.2-0.6,0.5-1.2,0.9-1.7c0.4-0.5,0.9-0.9,1.5-1.2c0.6-0.3,1.4-0.5,2.4-0.5c1,0,1.8,0.1,2.3,0.4c0.5,0.3,0.9,0.7,1.1,1.2
			c0.2,0.5,0.3,1.1,0.3,1.7c0,0.6-0.1,1.3-0.2,2.1C35.9,69.1,35.8,69.8,35.6,70.4z M30.5,70c0,0.4-0.1,0.7,0,1
			c0,0.2,0.1,0.4,0.2,0.5c0.1,0.1,0.3,0.1,0.4,0.1c0.2,0,0.4,0,0.5-0.1c0.1-0.1,0.3-0.3,0.4-0.5c0.1-0.2,0.2-0.6,0.3-1
			c0.1-0.4,0.2-0.9,0.3-1.6c0.1-0.6,0.2-1.2,0.2-1.6c0-0.4,0.1-0.7,0-1c0-0.2-0.1-0.4-0.2-0.5c-0.1-0.1-0.3-0.1-0.4-0.1
			c-0.2,0-0.4,0-0.5,0.1c-0.1,0.1-0.3,0.3-0.4,0.5c-0.1,0.2-0.2,0.6-0.3,1c-0.1,0.4-0.2,0.9-0.3,1.6C30.6,69.1,30.6,69.6,30.5,70z"
			/>
		<path class="st0" d="M42.3,65.9c-0.1-0.2-0.3-0.3-0.6-0.3c-0.3,0-0.5,0.1-0.7,0.3c-0.2,0.2-0.3,0.5-0.4,0.9l-1.2,6.7h-3.4
			l1.8-10.2h3.3L41,64.6h0c0.6-1,1.5-1.5,2.7-1.5c0.7,0,1.2,0.1,1.5,0.4c0.3,0.3,0.5,0.7,0.7,1.2c0.4-0.6,0.8-1,1.3-1.2
			c0.5-0.2,1-0.3,1.5-0.3c0.4,0,0.7,0,1,0.1c0.3,0.1,0.6,0.2,0.8,0.4c0.2,0.2,0.3,0.5,0.4,0.8c0.1,0.4,0.1,0.8,0,1.4l-1.4,7.7h-3.4
			l1.2-6.7c0.1-0.4,0.1-0.7,0-0.9c-0.1-0.2-0.3-0.3-0.6-0.3c-0.3,0-0.5,0.1-0.7,0.3c-0.2,0.2-0.3,0.5-0.4,0.9l-1.2,6.7h-3.4l1.2-6.7
			C42.4,66.4,42.4,66.1,42.3,65.9z"/>
		<path class="st0" d="M54.6,70.4c-0.1,0.6-0.1,0.9,0.1,1.1c0.2,0.2,0.4,0.3,0.6,0.3c0.3,0,0.6-0.1,0.8-0.4c0.2-0.2,0.4-0.7,0.5-1.4
			h3.1c-0.2,1.3-0.7,2.2-1.5,2.8c-0.7,0.6-1.8,1-3.2,1c-0.8,0-1.5-0.1-2-0.3c-0.5-0.2-0.9-0.5-1.2-0.9c-0.3-0.4-0.4-1-0.4-1.7
			c0-0.7,0-1.5,0.2-2.5c0.2-1,0.4-1.8,0.7-2.5c0.3-0.7,0.6-1.2,1.1-1.7c0.4-0.4,0.9-0.7,1.5-0.9c0.6-0.2,1.3-0.3,2-0.3
			c0.7,0,1.3,0.1,1.7,0.2c0.5,0.2,0.9,0.4,1.1,0.8c0.3,0.4,0.4,0.9,0.5,1.5c0.1,0.6,0,1.4-0.2,2.3l-0.2,1h-5L54.6,70.4z M57.1,65.5
			c-0.1-0.3-0.3-0.4-0.7-0.4c-0.4,0-0.6,0.1-0.8,0.4c-0.2,0.3-0.3,0.6-0.4,1.2l-0.1,0.5H57l0.1-0.5C57.2,66.2,57.2,65.8,57.1,65.5z"
			/>
		<path class="st0" d="M65,63.3L64.7,65h0c0.3-0.6,0.7-1.1,1.2-1.4c0.5-0.3,1-0.5,1.5-0.5h0.5l-0.6,3.2c-0.1,0-0.3,0-0.4-0.1
			c-0.1,0-0.3,0-0.4,0c-0.6,0-1.1,0.1-1.5,0.4c-0.4,0.3-0.6,0.7-0.8,1.4l-1,5.6h-3.4l1.8-10.2H65z"/>
		<path class="st0" d="M71.9,63.3l-1.8,10.2h-3.4l1.8-10.2H71.9z M72.5,60.1L72,62.6h-3.4l0.4-2.5H72.5z"/>
		<path class="st0" d="M77.8,66.3c0-0.3,0-0.5-0.1-0.6c-0.1-0.3-0.3-0.4-0.7-0.4c-0.2,0-0.4,0-0.5,0.1c-0.1,0.1-0.3,0.3-0.4,0.5
			c-0.1,0.2-0.2,0.6-0.3,1c-0.1,0.4-0.2,0.9-0.3,1.6c-0.1,0.6-0.2,1.1-0.2,1.6c0,0.4,0,0.7,0,1c0,0.2,0.1,0.4,0.2,0.5
			c0.1,0.1,0.3,0.1,0.5,0.1c0.3,0,0.6-0.1,0.8-0.4c0.2-0.2,0.4-0.7,0.5-1.3l0.1-0.7h3.1c-0.1,0.8-0.3,1.5-0.6,2.1
			c-0.2,0.6-0.6,1-0.9,1.4c-0.8,0.7-1.9,1-3.3,1c-0.7,0-1.2-0.1-1.8-0.2c-0.5-0.1-0.9-0.4-1.3-0.7c-0.3-0.4-0.5-0.9-0.6-1.6
			c-0.1-0.7,0-1.6,0.1-2.7c0.2-1.2,0.5-2.2,0.9-2.9c0.4-0.7,0.8-1.3,1.3-1.7c0.5-0.4,1-0.6,1.6-0.8c0.6-0.1,1.2-0.2,1.8-0.2
			c0.8,0,1.4,0.1,1.8,0.3c0.5,0.2,0.8,0.5,1,0.9c0.2,0.4,0.4,0.8,0.4,1.3c0,0.5,0,1.1-0.1,1.7h-3.1C77.7,66.9,77.8,66.6,77.8,66.3z"
			/>
		<path class="st0" d="M85.5,73c0-0.2,0-0.4,0-0.6h0c-0.3,0.5-0.6,0.8-1.1,1c-0.4,0.2-0.9,0.3-1.5,0.3c-0.5,0-0.9-0.1-1.3-0.2
			c-0.3-0.1-0.6-0.3-0.8-0.6c-0.2-0.3-0.3-0.6-0.3-0.9c0-0.4,0-0.8,0.1-1.2c0.1-0.5,0.2-0.9,0.4-1.2c0.2-0.4,0.4-0.7,0.6-0.9
			c0.3-0.3,0.6-0.5,1-0.7c0.4-0.2,0.9-0.3,1.4-0.5l1.4-0.3c0.4-0.1,0.7-0.2,0.8-0.4c0.2-0.2,0.3-0.4,0.4-0.7
			c0.1-0.6-0.1-0.9-0.7-0.9c-0.3,0-0.6,0.1-0.8,0.3c-0.2,0.2-0.3,0.5-0.4,1.1h-2.9c0.1-0.7,0.4-1.3,0.7-1.8c0.3-0.4,0.7-0.8,1.2-1
			c0.4-0.2,0.9-0.4,1.4-0.5c0.5-0.1,0.9-0.1,1.3-0.1c0.6,0,1.1,0,1.6,0.1c0.5,0.1,0.9,0.3,1.2,0.5c0.3,0.2,0.5,0.6,0.7,1
			c0.1,0.4,0.1,1,0,1.6l-0.9,5c-0.1,0.5-0.1,0.9-0.2,1.3c0,0.4,0,0.7,0.1,0.9h-3.3C85.5,73.4,85.5,73.2,85.5,73z M85.5,71.1
			c0.2-0.3,0.4-0.7,0.5-1.3l0.2-1.2h0c-0.1,0.1-0.3,0.2-0.5,0.3c-0.2,0-0.5,0.1-0.7,0.2c-0.3,0.1-0.5,0.3-0.6,0.5
			c-0.1,0.2-0.2,0.5-0.3,0.8c-0.1,0.3,0,0.6,0.1,0.8c0.1,0.2,0.3,0.3,0.6,0.3C85,71.5,85.3,71.4,85.5,71.1z"/>
	</g>
	<g>
		<path class="st1" d="M18.6,47.1c0.4,0,0.8,0,1.2,0.1c0.3,0.1,0.6,0.2,0.9,0.4c0.2,0.2,0.4,0.5,0.5,0.8c0.1,0.3,0.1,0.7,0,1.2
			c-0.1,0.6-0.3,1-0.6,1.4c-0.3,0.4-0.8,0.7-1.3,0.8l0,0c0.6,0.1,1,0.3,1.2,0.7c0.3,0.4,0.3,1,0.2,1.7c-0.1,0.4-0.2,0.8-0.4,1.2
			c-0.2,0.4-0.4,0.7-0.7,1c-0.3,0.3-0.7,0.5-1.1,0.7c-0.4,0.2-1,0.2-1.6,0.2h-3.5l1.8-10.3H18.6z M16.4,55.8c0.5,0,0.9-0.1,1.3-0.3
			c0.3-0.2,0.6-0.6,0.7-1.2c0.1-0.3,0.1-0.5,0-0.7c0-0.2-0.1-0.4-0.2-0.5c-0.1-0.1-0.3-0.2-0.5-0.3c-0.2,0-0.4-0.1-0.6-0.1h-0.9
			l-0.5,3.1H16.4z M17,51.3c0.6,0,1-0.1,1.3-0.3c0.3-0.2,0.5-0.6,0.6-1c0.1-0.5,0-0.8-0.2-1c-0.2-0.2-0.6-0.3-1.1-0.3h-0.7l-0.5,2.7
			H17z"/>
		<path class="st1" d="M22.2,51.8c0.1-0.5,0.2-0.8,0.4-1.1c0.2-0.3,0.4-0.5,0.7-0.7c0.3-0.2,0.6-0.3,0.9-0.4
			c0.3-0.1,0.7-0.1,1.1-0.1c0.6,0,1.1,0.1,1.4,0.2c0.3,0.1,0.6,0.3,0.8,0.5c0.2,0.2,0.3,0.5,0.3,0.8c0,0.3,0,0.6-0.1,1L27,55.8
			c-0.1,0.4-0.1,0.6-0.1,0.8c0,0.2,0,0.4,0.1,0.6h-1.9c0-0.1-0.1-0.3-0.1-0.4c0-0.1,0-0.3,0-0.4h0c-0.3,0.4-0.6,0.7-0.9,0.8
			c-0.3,0.1-0.7,0.2-1.2,0.2c-0.3,0-0.6-0.1-0.8-0.2c-0.2-0.1-0.4-0.3-0.5-0.5c-0.1-0.2-0.2-0.4-0.2-0.7c0-0.3,0-0.5,0-0.8
			c0.1-0.4,0.2-0.7,0.3-0.9c0.1-0.3,0.3-0.5,0.5-0.7c0.2-0.2,0.4-0.3,0.7-0.5c0.3-0.1,0.6-0.2,0.9-0.3l1.2-0.3
			c0.3-0.1,0.5-0.2,0.7-0.3c0.1-0.1,0.2-0.3,0.3-0.6c0.1-0.3,0-0.5-0.1-0.7c-0.1-0.2-0.3-0.3-0.7-0.3c-0.3,0-0.6,0.1-0.7,0.3
			c-0.2,0.2-0.3,0.4-0.4,0.7l0,0.2h-1.8L22.2,51.8z M25.1,53.7c-0.2,0.1-0.3,0.1-0.4,0.1c-0.4,0.1-0.7,0.2-0.9,0.4
			c-0.2,0.2-0.3,0.5-0.4,0.8c-0.1,0.3,0,0.6,0,0.8c0.1,0.2,0.3,0.3,0.5,0.3c0.1,0,0.3,0,0.4-0.1c0.2,0,0.3-0.1,0.4-0.2
			c0.1-0.1,0.3-0.2,0.4-0.4c0.1-0.2,0.2-0.3,0.2-0.5l0.3-1.5C25.4,53.6,25.2,53.7,25.1,53.7z"/>
		<path class="st1" d="M31.4,49.6l-0.2,0.9h0c0.3-0.4,0.6-0.7,1-0.8c0.4-0.2,0.8-0.3,1.2-0.3c0.6,0,1.1,0.2,1.4,0.5
			c0.3,0.3,0.4,0.9,0.2,1.7l-1,5.7h-2L33,52c0.1-0.4,0.1-0.7-0.1-0.8c-0.1-0.2-0.3-0.2-0.6-0.2c-0.7,0-1.1,0.4-1.3,1.3l-0.9,5.1h-2
			l1.4-7.7H31.4z"/>
		<path class="st1" d="M40,51.8c0-0.2,0-0.3,0-0.5c0-0.1-0.1-0.3-0.2-0.4c-0.1-0.1-0.2-0.1-0.4-0.1c-0.2,0-0.4,0.1-0.6,0.2
			c-0.2,0.1-0.3,0.3-0.4,0.5c-0.1,0.2-0.2,0.5-0.3,0.8c-0.1,0.3-0.2,0.7-0.2,1.2c-0.1,0.5-0.1,0.9-0.2,1.2c0,0.3,0,0.6,0,0.8
			c0,0.2,0.1,0.4,0.2,0.5c0.1,0.1,0.3,0.2,0.5,0.2c0.3,0,0.6-0.1,0.8-0.4c0.2-0.3,0.4-0.7,0.5-1.4h1.9c-0.2,1-0.5,1.8-1.1,2.3
			c-0.5,0.5-1.4,0.8-2.4,0.8c-0.5,0-0.9-0.1-1.3-0.2c-0.3-0.1-0.6-0.3-0.8-0.6c-0.2-0.3-0.3-0.7-0.3-1.3c0-0.5,0-1.2,0.2-1.9
			c0.1-0.8,0.3-1.5,0.6-2c0.2-0.5,0.5-0.9,0.9-1.3c0.3-0.3,0.7-0.5,1.1-0.7c0.4-0.1,0.8-0.2,1.3-0.2c0.9,0,1.6,0.3,1.9,0.8
			c0.4,0.5,0.5,1.3,0.3,2.2H40C40,52.2,40,52,40,51.8z"/>
		<path class="st1" d="M42.9,51.7c0.2-0.5,0.4-0.9,0.7-1.3c0.3-0.3,0.7-0.6,1.1-0.8c0.4-0.2,0.9-0.3,1.5-0.3c0.6,0,1.1,0.1,1.4,0.2
			c0.4,0.2,0.6,0.4,0.8,0.8c0.2,0.3,0.3,0.8,0.3,1.3c0,0.5-0.1,1.1-0.2,1.8c-0.1,0.7-0.3,1.2-0.5,1.8c-0.2,0.5-0.4,0.9-0.7,1.3
			c-0.3,0.3-0.7,0.6-1.1,0.8c-0.4,0.2-0.9,0.2-1.5,0.2c-0.6,0-1.1-0.1-1.4-0.2c-0.4-0.2-0.6-0.4-0.8-0.7c-0.2-0.3-0.3-0.8-0.3-1.3
			c0-0.5,0.1-1.1,0.2-1.8C42.6,52.8,42.7,52.2,42.9,51.7z M44.3,54.6c0,0.3,0,0.6,0,0.9c0,0.2,0.1,0.4,0.2,0.6
			c0.1,0.1,0.3,0.2,0.5,0.2c0.4,0,0.7-0.2,0.9-0.6c0.2-0.4,0.4-1.1,0.6-2.1c0.2-1,0.2-1.7,0.1-2.1c-0.1-0.4-0.3-0.6-0.7-0.6
			c-0.2,0-0.4,0.1-0.6,0.2c-0.2,0.1-0.3,0.3-0.4,0.6c-0.1,0.2-0.2,0.5-0.3,0.9c-0.1,0.3-0.2,0.7-0.2,1.1
			C44.4,53.9,44.3,54.2,44.3,54.6z"/>
	</g>
	<g>
		<path class="st0" d="M56.9,58.1c0,0,4.7-12.7,5.1-14.4L54.9,39c0,0,8.2-2.9,12-3.8l6.5-8.9l2.7,6.9C76.2,33.2,58.7,55,56.9,58.1z"
			/>
		<polygon class="st0" points="69.6,48.8 79.1,42.1 83.1,57.2 		"/>
		<path class="st2" d="M90,33.7c0,0-24.7,14.6-28.9,20.2c0,0,12.6-16,16.6-20L90,33.7z"/>
	</g>
</g>
</svg>
