<svg xmlns="http://www.w3.org/2000/svg" viewBox="0 0 80 12.85"><defs><style>.cls-1{fill:#003976;fill-rule:evenodd;}</style></defs><title>banco_de_chile</title><g id="Layer_2" data-name="Layer 2"><g id="banco_de_chile"><path class="cls-1" d="M3.32,0h.59A13.53,13.53,0,0,1,5.78.4H6A.58.58,0,0,0,6.33.28a.25.25,0,0,1,.13.06L4,2.08s-.75.37-.75.71V7.17L.84,8.85c0-.23.34-.45.34-.78V3.76c0-.34,2.33-1.55,2.33-1.9s-1.37-.62-1.37-.62c-.43,0-.61,0-1,0S.17,1.53,0,1.52C.53,1.17,2,0,3.32,0Zm5,.09c.37,0,.6.4,1.24,1.25.16.2.9,1.11.9,1.55v.34C10.43,4.11,8.1,5,8.1,5.37s1.23.14,1.77.5a1.94,1.94,0,0,1,.75,1.49V8.42c0,.63-.87.86-1.93,1.67a19.47,19.47,0,0,1-2.17,1.43,8.74,8.74,0,0,0-2.7-1H2.64A11.69,11.69,0,0,0,.84,11s1.83-1.8,3.69-1.8H5.78a8.29,8.29,0,0,1,1.36.44V1.71a.26.26,0,0,0-.25-.22c-.34,0-.59.63-.59.65V6.83c0,.21-.8.84-1.24,1.09-.65.37-1.07.73-1.46.93V8.76s.34-.38.34-.59V3.07A6.08,6.08,0,0,1,6,1.46C6.87,1,7.75.09,8.29.09ZM7.58,2.24s1,1.08,1,1.73c0,.5-.38.69-1,1.06Zm0,3.66c.09,0,.65.36.65.59v3.57c-.16.07,0,0-.13,0s-.52-.15-.52-.34ZM31.3,4.56l2.2,1.09v4.78l-2.08,1-2.23-1v-5ZM21.11,4.42l1.34,1.34v4.1l.62.62-1,1-1.08-1V6.63a7.7,7.7,0,0,0-.81-.72l-.75.69V9.89l.56.56-1.05,1-1-.93V6.41a7.05,7.05,0,0,1-.65-.62L18.6,4.45l1.27,1.21Zm5.13.18,2.42,1a4.13,4.13,0,0,1-1.12.75s-2-.78-2-.78v4l1.67.82a8.13,8.13,0,0,1,1.19-.33.47.47,0,0,0,.12,0v.1l-1.89,1.24h-.25L24,10.37V5.68ZM14,4.48c1.51.76,2.17.85,2.17,1.18v4l1,1-.9.87c-.66-.54-.9-.77-.9-.77l-1.66.82-2.26-1V7.87l2.21-1.09,1.21.5V6.19l-1.93-.67-1,.12,0-.16Zm16.63,1,1.44.68v4.25l-1.46-.65ZM12.79,7.68l2.05,1v1.92l-2.05-1Zm28.29-6a5.59,5.59,0,0,1,1.18.5c.37.18,1,.32,1,.65v7.7l-2,1L39,10.41V5.53l2.17-1c.08,0,.78.28.78.28V3.29l-1.81-.77c-.3,0-.65.3-1,.36l.08-.3A13,13,0,0,1,41.08,1.68Zm5.74,2.86,2,2.23L45.89,9v.59a12.1,12.1,0,0,0,1.74.91s.86-.59,1.24-.36c0,0-2.08,1.37-2.08,1.37l-2.2-1V5.59Zm-6.42,1,1.49.68v4.26h0L40.4,9.78Zm5.52.09L47.4,7.14,45.92,8.23Zm28,4.33.56.52L73.37,11.5l-1.05-1.06V3.3l1.61-1.58Zm-8.6-8.4V6L67,4.44l1.21,1.21v5.71l-1.52,1.49h0V6.42L66,5.86l-.68.59V9.84l.59.56v0l-1.09,1.09-1-1.06V3.07l1.55-1.52Zm4.63,0h0l1.05,1v0L70,3.69,68.87,2.6ZM77.6,4.61c.06,0,2,2.14,2.05,2.23l-3,2.08v.84l1.67.76a3,3,0,0,0,1.18-.39l.45.11a12.38,12.38,0,0,1-2.4,1.29,12.56,12.56,0,0,1-2.21-1V5.79A10.55,10.55,0,0,1,77.6,4.61ZM70,4.44h0l1,1V9.81l.59.56-1.12,1.08-1-1V6l-.5-.47Zm6.74,1.22,1.41,1.46-1.4.9ZM59.32.72h.13c-.1.25-1.78,1.06-2.42,1.8-1,1.14-1.67,1.78-1.56,3.56A4.5,4.5,0,0,0,57.31,9.2a5,5,0,0,0,2.08.71c1.25.06.75-.19.94-.09V2.3c0-.09-.23-.59-.45-.59-.06,0-.15.12-.15.19V7.09c0,.19-.18.47-1.06,1.05s-1.17.8-1.27.78a1.26,1.26,0,0,1,.22-.31V3.2c0-.53.78-.84,1.46-1.36A6.61,6.61,0,0,1,60.81.78h.28c.75,0,1.21.9,1.31,1a.86.86,0,0,1,.28.15h.43c.13,0,.44-.18.62-.15a22.57,22.57,0,0,1-2.14,1.46h-.25c-.11,0-.29-.18-.49-.28V9.73H61a5.26,5.26,0,0,0,1.49-.9h.09V9s-.46.87-.46.87a4.48,4.48,0,0,1-3.61,1.67c-2.71,0-4.63-1.94-4.84-5A5.16,5.16,0,0,1,58.08.91a7.78,7.78,0,0,1,.87,0Z"/></g></g></svg>