<?xml version="1.0" encoding="utf-8"?>
<!-- Generator: Adobe Illustrator 22.1.0, SVG Export Plug-In . SVG Version: 6.00 Build 0)  -->
<svg version="1.1" id="Layer_1" xmlns="http://www.w3.org/2000/svg" xmlns:xlink="http://www.w3.org/1999/xlink" x="0px" y="0px"
	 viewBox="0 0 100 100" style="enable-background:new 0 0 100 100;" xml:space="preserve">
<style type="text/css">
	.st0{fill:#FFCA37;}
	.st1{fill:#F1EFED;}
</style>
<g>
	<circle cx="50" cy="43.6" r="17.2"/>
	<circle class="st0" cx="50" cy="43.6" r="16.6"/>
	<circle cx="50" cy="43.6" r="14.4"/>
	<circle class="st1" cx="50" cy="43.6" r="13.9"/>
	<path d="M57.6,37.4c1.6,0,3,1.3,3,2.9c0,2.2-2.2,2.6-2.2,2.6l0,0.5c1.1,0,2.1,0.7,2.1,2.6c0,2.7-2.2,3.5-3,3.5
		c-0.5,0-16.8,0-16.8,0v-0.1c0,0,0.3,0,0.5,0c0.9,0,1.5-0.9,1.5-2.3c0-0.8,0-7.2,0-7.7c0-1.4-0.9-2-2-2l0-0.1H57.6 M45.2,42.9h10.2
		c1,0,2-0.5,2-2.2c0-1.6-1.1-1.9-1.7-1.9c-0.4,0-10.5,0-10.5,0V42.9 M45.2,48c0,0,9.9,0,10.3,0c0.9,0,1.8-0.5,1.8-2.2
		c0-1.8-1.2-2-1.6-2c-0.4,0-10.6,0-10.6,0V48 M57.6,36.9H40.8h-0.5l0,0.5l0,0.1l0,0.5h0.5c0.7,0,1.5,0.3,1.5,1.5v7.7
		c0,1-0.4,1.8-1,1.8h-0.5h-0.5v0.5v0.1V50h0.5h16.8c0.5,0,1.4-0.3,2.1-0.9c0.6-0.5,1.4-1.5,1.4-3.2c0-1.9-0.8-2.6-1.6-2.9
		c0.1-0.1,0.2-0.1,0.3-0.2c0.6-0.4,1.3-1.2,1.3-2.5C61.1,38.4,59.6,36.9,57.6,36.9L57.6,36.9z M45.7,39.2h10c0.3,0,1.2,0.1,1.2,1.4
		c0,1.2-0.5,1.7-1.5,1.7h-9.7V39.2L45.7,39.2z M45.7,44.3h10.1c0.3,0,1.1,0.1,1.1,1.4c0,1.5-0.8,1.7-1.3,1.7h-9.8V44.3L45.7,44.3z"
		/>
	<path class="st0" d="M60.5,46c0-1.9-0.9-2.6-2.1-2.6l0-0.5c0,0,2.2-0.4,2.2-2.6c0-1.6-1.4-2.9-3-2.9H40.8l0,0.1c1.1,0,2,0.6,2,2
		c0,0.5,0,6.8,0,7.7c0,1.4-0.7,2.3-1.5,2.3c-0.1,0-0.5,0-0.5,0v0.1c0,0,16.3,0,16.8,0C58.3,49.5,60.5,48.7,60.5,46z M55.6,48
		c-0.5,0-10.3,0-10.3,0v-4.1c0,0,10.2,0,10.6,0c0.4,0,1.6,0.2,1.6,2C57.4,47.4,56.5,48,55.6,48z M55.5,42.9H45.2v-4.1
		c0,0,10.1,0,10.5,0c0.6,0,1.7,0.3,1.7,1.9C57.4,42.3,56.5,42.9,55.5,42.9z"/>
	<path d="M49.8,34.2c0,0,0,12,0,12c0,0.1,0.1,0.3,0.4,0.3c0.3,0,2.6-0.8,2.6-6.7c0-0.2,0-0.4,0-0.6h-0.5c0,0.2,0,0.4,0,0.6
		c0,2.8-0.6,4.4-1,5.1c-0.4,0.6-0.8,0.9-1,1V34.9c0.3,0.2,0.7,0.5,1,1c0.2,0.3,0.4,0.6,0.5,1h0.5C51.8,35.1,50.6,34.4,49.8,34.2z"/>
	<g>
		<path class="st0" d="M49.8,51.2V50h-2.3v1.2c0,0.7-0.4,1.5-0.9,1.5h4.2C50.3,52.6,49.8,51.7,49.8,51.2z"/>
		<path class="st0" d="M52.8,39.2c0,0.2,0,0.4,0,0.6c0,5.8-2.3,6.7-2.6,6.7c-0.3,0-0.4-0.3-0.4-0.3c0-0.1,0-12,0-12
			c0.8,0.2,2,0.9,2.6,2.7h2.6c-0.9-1.8-2.9-3.6-6.1-3.6c-4.4,0-4.8,1.9-4.8,2.6c0,0.9,0.5,1.5,1.8,1.5c0.2,0,0.5-0.1,0.5-0.2
			c0-0.2-1-0.1-1-1.3c0-0.5,0.3-1.5,2.2-1.5v13.1h2.3v-0.6c2.1,0,5.7-2.1,5.8-7.7H52.8z"/>
	</g>
	<g>
		<path d="M46.8,37.1c0-0.4-0.4-0.6-0.6-0.6c-0.3-0.1-0.5-0.2-0.5-0.7c0-0.3,0.1-0.8,1.2-0.9v12.6h0.5V34.4c-1.9,0-2.2,1-2.2,1.5
			c0,1.2,1,1.1,1,1.3c0,0.1-0.3,0.2-0.5,0.2c-1.4,0-1.8-0.6-1.8-1.5c0-0.7,0.4-2.6,4.8-2.6c3.3,0,5.2,1.9,6.1,3.6h0.6
			c-0.3-0.6-0.6-1.2-1.2-1.8c-1-1.1-2.7-2.4-5.5-2.4c-2,0-3.5,0.4-4.4,1.2c-0.8,0.7-0.9,1.5-0.9,1.9c0,0.6,0.2,1.1,0.6,1.5
			c0.4,0.4,1,0.5,1.7,0.5C46.3,37.8,46.8,37.6,46.8,37.1z"/>
		<path d="M55.5,39.2c0,5.6-3.7,7.7-5.8,7.7v0.6h0.5v-0.1c1-0.1,2.4-0.7,3.5-1.9c1-1.1,2.2-3,2.2-6.2H55.5z"/>
		<path d="M50.3,51.2V50h-0.5v1.2c0,0.5,0.5,1.4,0.9,1.5h-4.2c0.5-0.1,0.9-0.9,0.9-1.5V50h-0.5v1.2c0,0.7-0.5,1.3-1,1.3h-0.9v0.6
			h7.8v-0.6h-1.4C50.9,52.5,50.3,51.7,50.3,51.2z"/>
	</g>
	<g>
		<path d="M13.1,69.1L13.1,69.1c0.3-0.2,1.3-0.4,1.3-1.9c0-1.8-1.8-1.8-2.1-1.8H10v0.4c0,0,0.3,0.1,0.3,0.9c0,0.5,0,5,0,5.6
			c0,0.6-0.3,0.8-0.3,0.8v0.4c0,0,2.6,0,2.9,0c0.3,0,1.8-0.5,1.8-2.3C14.7,69.7,13.6,69.2,13.1,69.1z M11.7,66.1
			c0-0.1,0.1-0.4,0.5-0.4c0.8,0,0.8,0.9,0.8,1.6c0,1.4-0.2,1.6-0.7,1.7h-0.6V66.1z M12.3,73.1c-0.3,0-0.6-0.1-0.6-0.6
			c0-0.2,0-3.1,0-3.1h0.7c0.8,0.1,0.9,1.1,0.9,2.1C13.2,72.5,13,73.1,12.3,73.1z"/>
		<path d="M20.1,72.4c-0.1-0.2-2.1-7-2.1-7h-0.3c0,0-2.1,6.9-2.2,7.2c0,0.1-0.2,0.6-0.6,0.6v0.2h1.7v-0.2c-0.5,0-0.7-0.4-0.7-0.6
			c0-0.1,0.1-0.5,0.1-0.5l0.3-1h2l0.4,1.2c0,0,0.1,0.3,0.1,0.3c0,0.2-0.1,0.5-0.8,0.5v0.2h2.7v-0.2C20.3,73.2,20.2,72.6,20.1,72.4z
			 M16.5,70.6l0.8-2.9l0.9,2.9H16.5z"/>
		<path d="M89.3,72.4c-0.1-0.2-2.1-7-2.1-7H87c0,0-2.1,6.9-2.2,7.2c0,0.1-0.2,0.6-0.6,0.6v0.2h1.7v-0.2c-0.5,0-0.7-0.4-0.7-0.6
			c0-0.1,0.1-0.5,0.1-0.5l0.3-1h2l0.4,1.2c0,0,0.1,0.3,0.1,0.3c0,0.2-0.1,0.5-0.8,0.5v0.2H90v-0.2C89.5,73.2,89.4,72.6,89.3,72.4z
			 M85.8,70.6l0.8-2.9l0.9,2.9H85.8z"/>
		<path d="M25,65.4v0.2c0.2,0,0.7,0.1,0.7,1c0,0.4,0,3.9,0,3.9l-3-5.1h-1.8v0.2c0.1,0,0.2,0.1,0.2,0.1c0,0,0.2,0.3,0.5,0.8
			c0,0.5,0,5.4,0,5.6c0,0.3-0.1,0.9-0.7,0.9v0.2h1.7v-0.2c-0.4,0-0.7-0.4-0.7-0.9c0-0.1,0-3.9,0-5c1.3,2.2,3.8,6.3,3.8,6.3H26
			c0,0,0-6.5,0-6.9c0-0.7,0.4-1,0.7-1v-0.2H25z"/>
		<path d="M70.3,65.4v0.2c0.2,0,0.7,0.1,0.7,1c0,0.4,0,3.9,0,3.9l-3-5.1h-1.8v0.2c0.1,0,0.2,0.1,0.2,0.1c0,0,0.2,0.3,0.5,0.8
			c0,0.5,0,5.4,0,5.6c0,0.3-0.1,0.9-0.7,0.9v0.2h1.7v-0.2c-0.4,0-0.7-0.4-0.7-0.9c0-0.1,0-3.9,0-5c1.3,2.2,3.8,6.3,3.8,6.3h0.2
			c0,0,0-6.5,0-6.9c0-0.7,0.4-1,0.7-1v-0.2H70.3z"/>
		<path d="M32.2,68v-2.7H32c0,0.1-0.2,0.5-0.4,0.5c-0.3,0-0.9-0.5-1.7-0.5c-1.4,0-3,1.6-3,4.1c0,3.5,2.3,4.2,3,4.2
			c1.7,0,2.4-1.7,2.4-1.7L32,71.6c0,0-0.7,1.5-2.1,1.5c-0.6,0-1.6-0.4-1.6-3.7c0-3.7,1.2-3.9,1.6-3.9c0.3,0,1.4,0.1,2,2.4L32.2,68z"
			/>
		<path d="M77.5,68v-2.7h-0.2c0,0.1-0.2,0.5-0.4,0.5c-0.3,0-0.9-0.5-1.7-0.5c-1.4,0-3,1.6-3,4.1c0,3.5,2.3,4.2,3,4.2
			c1.7,0,2.4-1.7,2.4-1.7l-0.3-0.3c0,0-0.7,1.5-2.1,1.5c-0.6,0-1.6-0.4-1.6-3.7c0-3.7,1.2-3.9,1.6-3.9c0.3,0,1.4,0.1,2,2.4L77.5,68z
			"/>
		<path d="M56.4,68v-2.7h-0.2c0,0.1-0.2,0.5-0.4,0.5c-0.3,0-0.9-0.5-1.7-0.5c-1.4,0-3,1.6-3,4.1c0,3.5,2.3,4.2,3,4.2
			c1.7,0,2.4-1.7,2.4-1.7l-0.3-0.3c0,0-0.7,1.5-2.1,1.5c-0.6,0-1.6-0.4-1.6-3.7c0-3.7,1.2-3.9,1.6-3.9c0.3,0,1.4,0.1,2,2.4L56.4,68z
			"/>
		<path d="M35.7,65.3c-0.8,0-3,0.8-3,4.2c0,3.4,2.1,4.2,3,4.2c1.5,0,2.9-1.6,2.9-4.2C38.7,66.3,36.8,65.3,35.7,65.3z M35.7,73.3
			c-0.5,0-1.6-0.6-1.6-3.9c0-3.3,1.1-3.9,1.6-3.9c0.5,0,1.5,0.5,1.5,3.9C37.2,72.8,36.2,73.3,35.7,73.3z"/>
		<path d="M46.2,65.4c-0.3,0-3.1,0-3.1,0v0.2c0.4,0,0.7,0.3,0.7,1c0,0.5,0,5.2,0,5.7c0,0.6-0.3,0.9-0.7,0.9v0.2h2.8v-0.2
			c-0.4,0-0.7-0.4-0.7-0.9c0-0.2,0-2.5,0-2.5s0.5,0,0.9,0c0.4,0,1.9-0.3,1.9-2.3C48,66.4,47.3,65.4,46.2,65.4z M45.2,69.4
			c0,0,0-2.9,0-3.1c0-0.5,0.2-0.5,0.5-0.5c0.9,0,1,1.3,1,1.8C46.6,68.6,46.5,69.4,45.2,69.4z"/>
		<path d="M47.9,65.4h3v0.2c-0.5,0-0.8,0.4-0.8,1c0,0.4,0,5.4,0,5.7c0,0.7,0.5,0.9,0.8,0.9v0.2h-3v-0.2c0.5,0,0.8-0.4,0.8-0.9
			c0-0.3,0-5.3,0-5.6c0-0.7-0.4-1-0.8-1V65.4z"/>
		<path d="M63.1,65.4h3v0.2c-0.5,0-0.8,0.4-0.8,1c0,0.4,0,5.4,0,5.7c0,0.7,0.5,0.9,0.8,0.9v0.2h-3v-0.2c0.5,0,0.8-0.4,0.8-0.9
			c0-0.3,0-5.3,0-5.6c0-0.7-0.4-1-0.8-1V65.4z"/>
		<path d="M63.1,65.6v-0.2h-2.8v0.2c0.5,0,0.7,0.3,0.7,1c0,0.1,0,1.2,0,2.4h-2.1c0-1.2,0-2.2,0-2.4c0-0.6,0.2-1,0.7-1v-0.2h-2.8v0.2
			c0.5,0,0.7,0.3,0.7,1c0,0.3,0,5.3,0,5.6c0,0.5-0.3,0.9-0.7,0.9v0.2h2.8v-0.2c-0.3,0-0.7-0.2-0.7-0.9c0-0.2,0-1.4,0-2.7H61
			c0,1.3,0,2.5,0,2.7c0,0.5-0.3,0.9-0.7,0.9v0.2h2.8v-0.2c-0.3,0-0.7-0.2-0.7-0.9c0-0.3,0-5.3,0-5.7C62.4,66,62.6,65.6,63.1,65.6z"
			/>
		<path d="M84.1,65.6v-0.2h-2.8v0.2c0.5,0,0.7,0.3,0.7,1c0,0.1,0,1.2,0,2.4H80c0-1.2,0-2.2,0-2.4c0-0.6,0.2-1,0.7-1v-0.2h-2.8v0.2
			c0.5,0,0.7,0.3,0.7,1c0,0.3,0,5.3,0,5.6c0,0.5-0.3,0.9-0.7,0.9v0.2h2.8v-0.2c-0.3,0-0.7-0.2-0.7-0.9c0-0.2,0-1.4,0-2.7H82
			c0,1.3,0,2.5,0,2.7c0,0.5-0.3,0.9-0.7,0.9v0.2h2.8v-0.2c-0.3,0-0.7-0.2-0.7-0.9c0-0.3,0-5.3,0-5.7C83.4,66,83.6,65.6,84.1,65.6z"
			/>
	</g>
</g>
</svg>
