<?xml version="1.0" encoding="utf-8"?>
<!-- Generator: Adobe Illustrator 22.1.0, SVG Export Plug-In . SVG Version: 6.00 Build 0)  -->
<svg version="1.1" id="Layer_1" xmlns="http://www.w3.org/2000/svg" xmlns:xlink="http://www.w3.org/1999/xlink" x="0px" y="0px"
	 viewBox="0 0 100 100" style="enable-background:new 0 0 100 100;" xml:space="preserve">
<style type="text/css">
	.st0{fill:#727A7F;}
	.st1{fill:none;stroke:#727A7F;stroke-width:1.359727e-02;stroke-miterlimit:3.864;}
	.st2{fill:#FFFFFF;}
	.st3{fill:#CE1F3F;}
	.st4{fill:#F18A00;}
	.st5{fill:#0B4E98;}
</style>
<g>
	<g>
		<path class="st0" d="M61.7,47.7c0.2-1-0.3-1.3-1.1-1.3h-1c-0.6,0-0.8,0-0.9,0.6l-0.4,2.5h1.5c0.4,0,0.7-0.1,0.8-0.3
			c0.1-0.1,0.1-0.2,0.2-0.3c0-0.1,0.1-0.2,0.1-0.3c0,0,0,0,0-0.1l0.4,0l-0.5,2.7h-0.4c0.1-0.7-0.1-1.1-0.8-1.1h-1.5l-0.5,2.8
			c-0.1,0.7,0,0.7,0.6,0.7h1.4c0.7,0,1.1-0.3,1.3-1.2l0.4,0l-0.4,1.9H56l1.2-6.8c0.1-0.6,0.2-0.9,0-1.1c-0.1-0.2-0.4-0.2-0.9-0.3
			c0,0-0.1,0-0.1,0l0.1-0.3h6.1l-0.3,1.9H61.7z"/>
		<path class="st0" d="M64.2,50.5c0.1,0.1,0.3,0.2,0.5,0.3c0.6,0.4,1.2,0.9,1.1,1.9c-0.2,1.3-1.3,1.8-2.6,1.8c-0.4,0-0.7,0-1-0.1
			c-0.3,0-0.5-0.1-0.6-0.2l0.2-1c0.4,0.3,0.9,0.7,1.6,0.7c0.8,0,1.1-0.4,1.2-0.8c0.1-0.3-0.1-0.5-0.3-0.7c-0.1-0.1-0.2-0.2-0.4-0.3
			c-0.1-0.1-0.3-0.2-0.5-0.3c-0.6-0.4-1.2-0.9-1.1-1.7c0.2-0.9,0.9-1.7,2.4-1.7c0.3,0,0.6,0,0.9,0.1c0.2,0,0.3,0.1,0.5,0.1
			c0,0,0.1,0,0.1,0l-0.2,1c-0.1-0.1-0.1-0.1-0.2-0.2c-0.1-0.1-0.2-0.1-0.3-0.2c-0.2-0.1-0.5-0.3-0.9-0.3c-0.4,0-0.9,0.1-1,0.7
			c-0.1,0.3,0.1,0.5,0.3,0.7C63.9,50.3,64,50.4,64.2,50.5"/>
		<path class="st0" d="M67.6,48.4l0.2-1l1.5-1.2l-0.4,2.1h1.6l-0.1,0.6h-1.6l-0.6,3.6c-0.2,0.9-0.2,1.2,0.8,1.2c0.1,0,0.3,0,0.5-0.1
			l-0.1,0.6c-0.3,0.1-0.6,0.1-0.9,0.1c-1.2,0-1.9-0.2-1.7-1.7l0.7-3.8h-1l0.1-0.6H67.6z"/>
		<path class="st0" d="M73.3,51l0.1-0.6c0.1-0.8,0.3-1.6-0.5-1.6c-0.8,0-1,0.6-1.1,1.2c0,0,0,0.1,0,0.1l-1.6,0
			c0.3-0.9,0.9-1.8,2.7-1.8c1.8,0,1.9,0.9,1.7,2.2l-0.7,3.8h-1.3l0.1-0.7c-0.1,0.1-0.1,0.1-0.2,0.2c-0.1,0.1-0.2,0.2-0.4,0.3
			c-0.3,0.2-0.7,0.3-1.2,0.3c-1,0-1.6-0.7-1.5-1.5C70,51.2,72.5,51,73.3,51 M71.1,52.7c-0.1,0.6,0.1,0.9,0.6,0.9
			c0.7,0,1.3-0.6,1.4-1.5l0.1-0.7C72.7,51.5,71.3,51.6,71.1,52.7 M71.1,52.7c-0.1,0.6,0.1,0.9,0.6,0.9c0.7,0,1.3-0.6,1.4-1.5
			l0.1-0.7C72.7,51.5,71.3,51.6,71.1,52.7 M73.3,51l0.1-0.6c0.1-0.8,0.3-1.6-0.5-1.6c-0.8,0-1,0.6-1.1,1.2c0,0,0,0.1,0,0.1l-1.6,0
			c0.3-0.9,0.9-1.8,2.7-1.8c1.8,0,1.9,0.9,1.7,2.2l-0.7,3.8h-1.3l0.1-0.7c-0.1,0.1-0.1,0.1-0.2,0.2c-0.1,0.1-0.2,0.2-0.4,0.3
			c-0.3,0.2-0.7,0.3-1.2,0.3c-1,0-1.6-0.7-1.5-1.5C70,51.2,72.5,51,73.3,51"/>
		<path class="st0" d="M81.5,45.4l-1.5,8.8h-1.3l0.1-0.7c-0.1,0.1-0.2,0.1-0.3,0.2c-0.1,0.1-0.3,0.2-0.4,0.3
			c-0.3,0.2-0.7,0.3-1.2,0.3c-1.7,0-2-1.4-1.8-3c0.3-1.6,1.2-3.2,2.9-3.2c1,0,1.3,0.5,1.5,0.9c0-0.1,0-0.2,0.1-0.3l0.1-0.7
			c0.1-0.5,0.2-1,0.2-1c0.1-0.8,0-1.1-0.6-1.1c0,0-0.1,0-0.1,0l0.1-0.3L81.5,45.4z M79.2,50.9c0.1-0.7,0.2-2-1-2
			c-1.1,0-1.5,1.4-1.6,2.3c-0.2,1-0.3,2.4,0.8,2.4c1.2,0,1.6-1.5,1.7-2.2L79.2,50.9z"/>
		<path class="st0" d="M84.3,48.2c1.8,0,2.5,1.3,2.2,3.1c-0.4,2.1-1.4,3.1-3.3,3.1c-2,0-2.5-1.3-2.2-3.1
			C81.4,49.2,82.4,48.2,84.3,48.2 M85,51.3c0.2-1.2,0.3-2.6-0.8-2.6c-1.2,0-1.6,1.5-1.8,2.6c-0.2,1.1-0.4,2.6,0.8,2.6
			C84.5,53.9,84.8,52.6,85,51.3 M85,51.3c0.2-1.2,0.3-2.6-0.8-2.6c-1.2,0-1.6,1.5-1.8,2.6c-0.2,1.1-0.4,2.6,0.8,2.6
			C84.5,53.9,84.8,52.6,85,51.3 M84.3,48.2c1.8,0,2.5,1.3,2.2,3.1c-0.4,2.1-1.4,3.1-3.3,3.1c-2,0-2.5-1.3-2.2-3.1
			C81.4,49.2,82.4,48.2,84.3,48.2"/>
		<path class="st0" d="M29,53.1c-0.1,0.5,0.4,0.5,1.1,0.5c1.4,0,2.1-0.6,2.3-1.9c0.2-1.2-0.6-1.6-1.7-1.6h-1.1L29,53.1z M34.1,47.8
			c-0.2,1.2-1.1,1.7-1.8,1.9c0.8,0.2,1.8,0.7,1.5,2.3c-0.2,1.1-0.9,1.7-1.8,2c-0.4,0.1-0.8,0.2-1.2,0.2c-0.4,0-0.7,0-1,0h-2.4
			l1.2-6.8c0.1-0.6,0.2-0.9,0-1.1c-0.1-0.2-0.4-0.2-1-0.3l0.1-0.3h3.8C32.9,45.8,34.4,46.1,34.1,47.8 M29.7,49.4h0.8
			c1.1,0,1.9-0.3,2.2-1.6c0.2-1.1-0.4-1.5-1.5-1.5c-0.8,0-0.9,0-1.1,0.6L29.7,49.4z"/>
		<path class="st0" d="M37.5,51l0.1-0.6c0.1-0.8,0.3-1.6-0.5-1.6c-0.8,0-1,0.6-1.1,1.2c0,0,0,0.1,0,0.1l-1.6,0
			c0.3-0.9,0.9-1.8,2.7-1.8c1.8,0,1.9,0.9,1.7,2.2l-0.7,3.8H37l0.1-0.7c-0.1,0.1-0.1,0.1-0.2,0.2c-0.1,0.1-0.2,0.2-0.4,0.3
			c-0.3,0.2-0.7,0.3-1.2,0.3c-1,0-1.6-0.7-1.5-1.5C34.2,51.2,36.7,51,37.5,51 M35.4,52.7c-0.1,0.6,0.1,0.9,0.6,0.9
			c0.7,0,1.3-0.6,1.4-1.5l0.1-0.7C36.9,51.5,35.6,51.6,35.4,52.7 M35.4,52.7c-0.1,0.6,0.1,0.9,0.6,0.9c0.7,0,1.3-0.6,1.4-1.5
			l0.1-0.7C36.9,51.5,35.6,51.6,35.4,52.7 M37.5,51l0.1-0.6c0.1-0.8,0.3-1.6-0.5-1.6c-0.8,0-1,0.6-1.1,1.2c0,0,0,0.1,0,0.1l-1.6,0
			c0.3-0.9,0.9-1.8,2.7-1.8c1.8,0,1.9,0.9,1.7,2.2l-0.7,3.8H37l0.1-0.7c-0.1,0.1-0.1,0.1-0.2,0.2c-0.1,0.1-0.2,0.2-0.4,0.3
			c-0.3,0.2-0.7,0.3-1.2,0.3c-1,0-1.6-0.7-1.5-1.5C34.2,51.2,36.7,51,37.5,51"/>
		<path class="st0" d="M43.5,51c0.2-1,0.3-1.8-0.5-1.8c-0.8,0-1.7,1.1-1.9,2l-0.5,3.1h-1.3L40,50c0.1-0.8,0-1-0.7-1.1
			c0,0-0.1,0-0.1,0l0.1-0.3l2.4-0.4l-0.3,1.5c0.4-0.6,1.2-1.5,2.4-1.5c1.2,0,1.4,0.8,1.2,1.8l-0.7,4.2h-1.3L43.5,51z"/>
		<path class="st0" d="M48.9,50c0.1-0.6,0.1-1.3-0.6-1.3c-0.8,0-1.2,0.9-1.4,2.1c-0.3,1.9,0.4,2.8,1.5,2.8c0.4,0,0.9-0.1,1.2-0.2
			c0,0,0.1,0,0.1,0l-0.1,0.6c-0.3,0.1-0.4,0.2-0.7,0.2c-0.3,0.1-0.6,0.1-1.1,0.1c-1.8,0-2.6-1.3-2.3-3.2c0.3-1.7,1.2-3,3-3
			c1.4,0,2.2,0.7,2,1.7c0,0,0,0.1,0,0.1L48.9,50z"/>
		<path class="st0" d="M53.6,48.2c1.8,0,2.5,1.3,2.2,3.1c-0.4,2.1-1.4,3.1-3.3,3.1c-2,0-2.5-1.3-2.2-3.1
			C50.7,49.2,51.7,48.2,53.6,48.2 M54.3,51.3c0.2-1.2,0.3-2.6-0.8-2.6c-1.2,0-1.6,1.5-1.8,2.6c-0.2,1.1-0.4,2.6,0.8,2.6
			C53.8,53.9,54.1,52.6,54.3,51.3 M54.3,51.3c0.2-1.2,0.3-2.6-0.8-2.6c-1.2,0-1.6,1.5-1.8,2.6c-0.2,1.1-0.4,2.6,0.8,2.6
			C53.8,53.9,54.1,52.6,54.3,51.3 M53.6,48.2c1.8,0,2.5,1.3,2.2,3.1c-0.4,2.1-1.4,3.1-3.3,3.1c-2,0-2.5-1.3-2.2-3.1
			C50.7,49.2,51.7,48.2,53.6,48.2"/>
		<path class="st1" d="M87.9,49.2c0-0.6,0.5-1,1-1c0.6,0,1,0.5,1,1c0,0.6-0.5,1-1,1C88.4,50.3,87.9,49.8,87.9,49.2z"/>
		<path class="st0" d="M88.6,50h0.2v-0.6h0.1c0.2,0,0.3,0.1,0.3,0.3l0.1,0.4h0.2l-0.1-0.4c0-0.2-0.1-0.3-0.3-0.4v0
			c0.1,0,0.3-0.1,0.3-0.3c0-0.3-0.3-0.4-0.6-0.4h-0.3V50z"/>
		<path class="st2" d="M88.8,48.6L88.8,48.6c0.3,0,0.4,0.1,0.4,0.3c0,0.2-0.2,0.3-0.3,0.3h-0.1V48.6z"/>
		<path class="st2" d="M88.8,48.6L88.8,48.6c0.3,0,0.4,0.1,0.4,0.3c0,0.2-0.2,0.3-0.3,0.3h-0.1V48.6z"/>
	</g>
	<rect x="10" y="43.3" class="st3" width="13.5" height="13.5"/>
	<polygon class="st4" points="23.5,50.4 17.8,45.6 17.8,45.6 17.8,54.5 23.5,54.5 	"/>
	<path class="st2" d="M17.8,46.8l0-1.3c-0.4,0.4-1.4,1.2-2.6,1.4v1l-1,0.4v0.9L10,50.8v3.7h8.8v-8.1L17.8,46.8z"/>
	<path class="st3" d="M15.1,48.8l-0.8,0.3c-0.1,0-0.2,0.1-0.2,0.2l0,0.6c0,0.1-0.1,0.2-0.2,0.2l-4,1.5v0.9l4-1.6
		c0.1,0,0.2-0.1,0.2-0.2v-0.6c0-0.1,0.1-0.2,0.2-0.2l0.8-0.3V48.8z"/>
	<path class="st3" d="M15.1,50.6l-0.8,0.3c-0.1,0-0.2,0.1-0.2,0.2l0,0.6c0,0.1-0.1,0.2-0.2,0.2l-4,1.6v0.9l4-1.6
		c0.1,0,0.2-0.1,0.2-0.2v-0.6c0-0.1,0.1-0.2,0.2-0.2l0.8-0.3V50.6z"/>
	<rect x="10" y="54.5" class="st5" width="13.5" height="2.2"/>
	<path class="st2" d="M13.7,55.6l0,0.1c0,0.1-0.1,0.2-0.2,0.3C13.4,56,13.4,56,13.3,56c0,0,0,0,0-0.1c0-0.1,0-0.2,0.1-0.3
		c0-0.1,0.1-0.1,0.2-0.1C13.6,55.5,13.6,55.5,13.7,55.6 M14,54.9l-0.2,0l-0.1,0.5c-0.1,0-0.1,0-0.2,0c-0.2,0-0.5,0.3-0.5,0.6
		c0,0.2,0.1,0.2,0.2,0.2c0.1,0,0.2,0,0.2-0.1c0,0,0.1-0.1,0.1-0.1c0,0,0,0,0-0.1l0,0.2h0.2L14,54.9z"/>
	<path class="st2" d="M14.5,55.6C14.5,55.6,14.5,55.6,14.5,55.6l-0.3,0.2c0-0.1,0.1-0.2,0.1-0.2C14.4,55.5,14.4,55.5,14.5,55.6
		C14.5,55.5,14.5,55.5,14.5,55.6 M14.7,55.5c0-0.1-0.1-0.2-0.2-0.2c-0.3,0-0.5,0.2-0.5,0.6c0,0.2,0.1,0.3,0.2,0.3
		c0.1,0,0.2,0,0.2-0.1c0,0,0.1,0,0.1-0.1c0,0,0.1,0,0.1-0.1l-0.1-0.1C14.5,56,14.5,56,14.4,56c0,0-0.1,0-0.1,0c0,0-0.1,0-0.1,0
		c0,0,0,0,0-0.1l0.4-0.2C14.7,55.7,14.7,55.6,14.7,55.5"/>
	<path class="st2" d="M15.4,55.4c-0.1,0-0.1,0-0.2,0c-0.2,0-0.3,0.1-0.3,0.2c0,0,0,0.1,0,0.1c0,0,0,0,0.1,0.1c0,0,0,0,0.1,0.1
		c0,0,0.1,0.1,0.1,0.1c0,0,0,0.1-0.1,0.1c-0.1,0-0.1,0-0.2,0l-0.1,0.2c0.1,0,0.1,0,0.2,0c0,0,0.1,0,0.1,0c0.2,0,0.3-0.1,0.3-0.2
		c0-0.1,0-0.1-0.2-0.2c-0.1-0.1-0.1-0.1-0.1-0.1c0,0,0,0,0,0c0,0,0-0.1,0.1-0.1c0.1,0,0.1,0,0.2,0.1L15.4,55.4z"/>
	<path class="st2" d="M16.1,55.6l0,0.1c0,0.1-0.1,0.2-0.2,0.3C15.9,56,15.8,56,15.8,56c0,0,0,0,0-0.1c0-0.1,0-0.2,0.1-0.3
		c0-0.1,0.1-0.1,0.2-0.1C16.1,55.5,16.1,55.5,16.1,55.6 M16.5,54.9l-0.2,0l-0.1,0.5c-0.1,0-0.1,0-0.2,0c-0.2,0-0.5,0.3-0.5,0.6
		c0,0.2,0.1,0.2,0.2,0.2c0.1,0,0.2,0,0.2-0.1c0,0,0.1-0.1,0.1-0.1c0,0,0,0,0-0.1l0,0.2h0.2L16.5,54.9z"/>
	<path class="st2" d="M17,55.6C17,55.6,17,55.6,17,55.6l-0.3,0.2c0-0.1,0.1-0.2,0.1-0.2C16.9,55.5,16.9,55.5,17,55.6
		C17,55.5,17,55.5,17,55.6 M17.2,55.5c0-0.1-0.1-0.2-0.2-0.2c-0.3,0-0.5,0.2-0.5,0.6c0,0.2,0.1,0.3,0.2,0.3c0.1,0,0.2,0,0.2-0.1
		c0,0,0.1,0,0.1-0.1c0,0,0.1,0,0.1-0.1l-0.1-0.1C17,56,17,56,16.9,56c0,0-0.1,0-0.1,0c0,0-0.1,0-0.1,0c0,0,0,0,0-0.1l0.4-0.2
		C17.2,55.7,17.2,55.6,17.2,55.5"/>
	<polygon class="st2" points="18.4,55.4 18.3,55.4 17.9,55.5 17.9,55.7 18.1,55.6 18,56.2 18.2,56.2 	"/>
	<path class="st2" d="M19.1,55.9c0,0.1-0.1,0.2-0.2,0.2c-0.1,0-0.2-0.1-0.2-0.1c0-0.1,0.1-0.1,0.1-0.2l0.1-0.1l0.1,0.1
		C19.1,55.8,19.1,55.8,19.1,55.9 M19.2,55.3c0,0,0,0.1-0.1,0.1L19,55.5l-0.1-0.1c0,0,0-0.1,0-0.1c0-0.1,0.1-0.1,0.1-0.1
		C19.1,55.2,19.2,55.2,19.2,55.3 M19.4,55.3c0-0.1-0.1-0.2-0.3-0.2c-0.2,0-0.4,0.1-0.4,0.3c0,0.1,0,0.1,0.1,0.2l0.1,0.1l-0.1,0.1
		c-0.1,0.1-0.2,0.2-0.2,0.3c0,0.2,0.1,0.3,0.3,0.3c0.3,0,0.5-0.1,0.5-0.3c0-0.1,0-0.2-0.1-0.2l-0.1-0.1l0.1-0.1
		C19.3,55.4,19.3,55.4,19.4,55.3C19.4,55.3,19.4,55.3,19.4,55.3"/>
	<path class="st2" d="M20.2,55.3h-0.5l-0.1,0.6h0.1c0.1,0,0.1,0,0.2,0c0,0,0.1,0.1,0.1,0.1c0,0.1-0.1,0.3-0.2,0.3
		c-0.1,0-0.1,0-0.2,0l-0.1,0.2c0.1,0,0.2,0,0.2,0c0.3,0,0.5-0.2,0.5-0.5c0-0.1,0-0.2-0.1-0.3c0,0-0.1,0-0.2,0l0-0.3h0.3L20.2,55.3z"
		/>
	<path class="st2" d="M20.9,55.3h-0.5l-0.1,0.6h0.1c0.1,0,0.1,0,0.2,0c0,0,0.1,0.1,0.1,0.1c0,0.1-0.1,0.3-0.2,0.3
		c-0.1,0-0.1,0-0.2,0l-0.1,0.2c0.1,0,0.2,0,0.2,0c0.3,0,0.5-0.2,0.5-0.5c0-0.1,0-0.2-0.1-0.3c0,0-0.1,0-0.2,0l0-0.3h0.3L20.9,55.3z"
		/>
</g>
</svg>
