<?xml version="1.0" encoding="utf-8"?>
<!-- Generator: Adobe Illustrator 22.1.0, SVG Export Plug-In . SVG Version: 6.00 Build 0)  -->
<svg version="1.1" id="Layer_1" xmlns="http://www.w3.org/2000/svg" xmlns:xlink="http://www.w3.org/1999/xlink" x="0px" y="0px"
	 viewBox="0 0 100 100" style="enable-background:new 0 0 100 100;" xml:space="preserve">
<style type="text/css">
	.st0{fill:#23418D;}
	.st1{fill:#C1CC30;}
</style>
<g>
	<path class="st0" d="M28.8,42.9c0-0.3,0.2-0.5,0.5-0.5c4.4,0,4.4,0,4.4,0c1.3,0,2.8,0.6,2.8,2.1c0,0.6-0.2,1-0.8,1.4
		c0.8,0.4,1.1,1.1,1.1,1.8c0,1.5-1.4,2.3-2.9,2.3c-4.6,0-4.6,0-4.6,0c-0.3,0-0.5-0.2-0.5-0.5V42.9L28.8,42.9z M30.8,43.7
		c0,1.5,0,1.5,0,1.5c2.9,0,2.9,0,2.9,0c0.4,0,0.7-0.2,0.7-0.7c0-0.5-0.3-0.8-0.7-0.8H30.8L30.8,43.7z M30.8,46.6c0,1.9,0,1.9,0,1.9
		c3.1,0,3.1,0,3.1,0c0.6,0,0.8-0.4,0.8-0.8c0-0.6-0.2-1-0.8-1H30.8L30.8,46.6z"/>
	<path class="st0" d="M46.2,49.9c-0.3,0-0.5-0.2-0.5-0.5c0-6.5,0-6.5,0-6.5c0-0.3,0.2-0.5,0.5-0.5c1.5,0,1.5,0,1.5,0
		c0.3,0,0.6,0.2,0.8,0.5c3.2,4.8,3.2,4.8,3.2,4.8c0-4.8,0-4.8,0-4.8c0-0.3,0.2-0.5,0.5-0.5c0.9,0,0.9,0,0.9,0c0.3,0,0.5,0.2,0.5,0.5
		c0,6.5,0,6.5,0,6.5c0,0.3-0.2,0.5-0.5,0.5c-1.8,0-1.8,0-1.8,0c-0.2,0-0.6-0.2-0.7-0.5c-3-4.5-3-4.5-3-4.5c0,4.5,0,4.5,0,4.5
		c0,0.3-0.2,0.5-0.5,0.5H46.2L46.2,49.9z"/>
	<path class="st0" d="M57.9,42.2c1.2,0,1.2,0,1.2,0c1.5,0,3.1,0.8,3.1,2.4c0,0.5-0.5,0.6-0.6,0.6c-0.6,0-0.6,0-0.6,0
		c-0.3,0-0.6-0.2-0.8-0.6c-0.2-0.6-0.6-0.9-1.2-0.9c-0.9,0-0.9,0-0.9,0c-1.6,0-2,0.6-2,2.4c0,1.8,0.4,2.3,2,2.3c1,0,1,0,1,0
		c0.7,0,1.1-0.3,1.3-0.8c0.2-0.5,0.5-0.6,0.8-0.6c0.6,0,0.6,0,0.6,0c0.2,0,0.6,0.1,0.6,0.6c0,1.5-1.6,2.3-3.1,2.3
		c-1.3,0-1.3,0-1.3,0c-2.6,0-3.9-1.2-3.9-3.8C54,43.4,55.3,42.2,57.9,42.2L57.9,42.2z"/>
	<path class="st0" d="M66.6,42.2c2.5,0,4.1,1.1,4.1,3.9c0,2.7-1.5,3.8-4.1,3.8c-2.7,0-4.2-1.1-4.2-3.8
		C62.4,43.3,63.8,42.2,66.6,42.2L66.6,42.2z M64.4,46.1c0,1.5,0.6,2.4,2.2,2.4s2.2-0.8,2.2-2.4c0-1.6-0.6-2.4-2.2-2.4
		S64.4,44.5,64.4,46.1L64.4,46.1z"/>
	<path class="st0" d="M29.4,58.9c-0.3,0-0.5-0.2-0.5-0.5c0-6.5,0-6.5,0-6.5c0-0.3,0.2-0.5,0.5-0.5c1.6,0,1.6,0,1.6,0
		c0.2,0,0.6,0.2,0.7,0.5c3.2,4.9,3.2,4.9,3.2,4.9c0-5,0-5,0-5c0-0.2,0.3-0.4,0.5-0.4c1,0,1,0,1,0c0.2,0,0.5,0.2,0.5,0.5
		c0,6.5,0,6.5,0,6.5c0,0.3-0.3,0.5-0.5,0.5c-1.8,0-1.8,0-1.8,0c-0.3,0-0.6-0.2-0.8-0.5c-2.9-4.5-2.9-4.5-2.9-4.5c0,4.5,0,4.5,0,4.5
		c0,0.3-0.3,0.5-0.5,0.5H29.4L29.4,58.9z"/>
	<path class="st0" d="M49.5,51.2c1.2,0,1.2,0,1.2,0c1.4,0,2.9,0.8,2.9,2.3c0,0.5-0.4,0.6-0.5,0.6c-0.7,0-0.7,0-0.7,0
		c-0.3,0-0.5-0.1-0.7-0.6c-0.3-0.5-0.7-0.8-1.3-0.8c-1,0-1,0-1,0c-1.5,0-1.9,0.6-1.9,2.3c0,1.8,0.4,2.4,1.9,2.4c1.1,0,1.1,0,1.1,0
		c0.6,0,1-0.4,1.3-0.9c0.2-0.4,0.4-0.5,0.7-0.5c0.7,0,0.7,0,0.7,0c0.1,0,0.5,0,0.5,0.5c0,1.6-1.6,2.4-3,2.4c-1.3,0-1.3,0-1.3,0
		c-2.5,0-3.9-1.2-3.9-3.9C45.7,52.4,47,51.2,49.5,51.2L49.5,51.2z"/>
	<path class="st0" d="M54.3,51.9c0-0.3,0.2-0.5,0.5-0.5c1,0,1,0,1,0c0.3,0,0.5,0.2,0.5,0.5c0,6.5,0,6.5,0,6.5c0,0.3-0.2,0.5-0.5,0.5
		c-1,0-1,0-1,0c-0.3,0-0.5-0.2-0.5-0.5V51.9L54.3,51.9z"/>
	<path class="st0" d="M60.9,51.2c2.5,0,4.1,1.1,4.1,3.8c0,2.8-1.5,3.9-4.1,3.9c-2.6,0-4.2-1.1-4.2-3.9
		C56.7,52.4,58.3,51.2,60.9,51.2L60.9,51.2z M58.7,55c0,1.6,0.6,2.5,2.2,2.5c1.6,0,2.2-0.9,2.2-2.5c0-1.6-0.6-2.4-2.2-2.4
		C59.3,52.6,58.7,53.4,58.7,55L58.7,55z"/>
	<path class="st0" d="M66.3,58.9c-0.3,0-0.5-0.2-0.5-0.5c0-6.5,0-6.5,0-6.5c0-0.3,0.2-0.5,0.5-0.5c1.6,0,1.6,0,1.6,0
		c0.2,0,0.5,0.2,0.7,0.5c3.2,4.9,3.2,4.9,3.2,4.9c0-5,0-5,0-5c0-0.2,0.2-0.4,0.5-0.4c0.9,0,0.9,0,0.9,0c0.3,0,0.5,0.2,0.5,0.5
		c0,6.5,0,6.5,0,6.5c0,0.3-0.2,0.5-0.5,0.5c-1.7,0-1.7,0-1.7,0c-0.3,0-0.6-0.2-0.8-0.5c-3-4.5-3-4.5-3-4.5c0,4.5,0,4.5,0,4.5
		c0,0.3-0.2,0.5-0.5,0.5H66.3L66.3,58.9z"/>
	<path class="st0" d="M84.5,51.3c0.3,0,0.5,0.2,0.5,0.5c0,5.5,0,5.5,0,5.5c4.5,0,4.5,0,4.5,0c0.3,0,0.5,0.2,0.5,0.5
		c0,0.5,0,0.5,0,0.5c0,0.3-0.2,0.5-0.5,0.5c-6.1,0-6.1,0-6.1,0c-0.3,0-0.5-0.2-0.5-0.5c0-6.5,0-6.5,0-6.5c0-0.3,0.2-0.5,0.5-0.5
		H84.5L84.5,51.3z"/>
	<path class="st0" d="M45.4,49.4c-1.2-5-1.2-5-1.2-5c-0.4-1.7-1.8-2.1-3.1-2.1c-1.4,0-2.8,0.4-3.2,2.1c-1.2,5-1.2,5-1.2,5
		c-0.1,0.3,0.1,0.5,0.3,0.5c1,0,1,0,1,0c0.2,0,0.5-0.2,0.5-0.5c0.3-1.3,0.3-1.3,0.3-1.3c1.7,0,1.7,0,1.7,0c0.2,0,0.2,0,0.2,0
		c2.5,0,2.5,0,2.5,0c0.4,1.3,0.4,1.3,0.4,1.3c0,0.3,0.3,0.5,0.5,0.5c1,0,1,0,1,0C45.3,49.9,45.4,49.6,45.4,49.4L45.4,49.4z
		 M41.2,46.5c-0.1,0-0.1,0-0.1,0c-2,0-2,0-2,0c0.3-1,0.5-2.8,1.9-2.8c1.5,0,1.5,1.7,1.8,2.8H41.2L41.2,46.5z"/>
	<path class="st0" d="M45.7,58.4c-1.2-5-1.2-5-1.2-5c-0.4-1.7-1.7-2-3.1-2c-1.2,0-2.7,0.3-3.1,2c-1.2,5-1.2,5-1.2,5
		c-0.1,0.2,0.1,0.5,0.3,0.5c1,0,1,0,1,0c0.2,0,0.4-0.3,0.5-0.5c0.3-1.4,0.3-1.4,0.3-1.4c1.6,0,1.6,0,1.6,0c0.3,0,0.3,0,0.3,0
		c2.5,0,2.5,0,2.5,0c0.3,1.4,0.3,1.4,0.3,1.4c0.1,0.2,0.3,0.5,0.6,0.5c0.9,0,0.9,0,0.9,0C45.6,58.9,45.8,58.6,45.7,58.4L45.7,58.4z
		 M41.6,55.4c-0.1,0-0.1,0-0.1,0c-2,0-2,0-2,0c0.3-1,0.5-2.7,1.8-2.7h0.1c1.4,0,1.5,1.6,1.8,2.7H41.6L41.6,55.4z"/>
	<path class="st0" d="M82.6,58.4c-1.2-5-1.2-5-1.2-5c-0.4-1.7-1.6-2-3.1-2c-1.4,0-2.7,0.3-3.1,2c-1.2,5-1.2,5-1.2,5
		c-0.1,0.2,0.1,0.5,0.3,0.5c0.9,0,0.9,0,0.9,0c0.3,0,0.5-0.3,0.6-0.5c0.3-1.4,0.3-1.4,0.3-1.4c1.6,0,1.6,0,1.6,0c0.2,0,0.2,0,0.2,0
		c2.6,0,2.6,0,2.6,0c0.3,1.4,0.3,1.4,0.3,1.4c0,0.2,0.3,0.5,0.5,0.5c1,0,1,0,1,0C82.5,58.9,82.6,58.6,82.6,58.4L82.6,58.4z
		 M78.5,55.4c-0.2,0-0.2,0-0.2,0c-1.9,0-1.9,0-1.9,0c0.3-1,0.4-2.7,1.8-2.7c0.1,0,0.1,0,0.1,0c1.3,0,1.5,1.7,1.8,2.7H78.5L78.5,55.4
		z"/>
	<path class="st1" d="M21.7,34.6c-5.2,1.9-5.2,1.9-5.2,1.9c-0.1,0-0.3,0.2-0.3,0.3c-0.2,0.8-3.5,12-6,15.9c-0.2,0.3-0.2,0.4,0,0.6
		c1.7,1.2,1.7,1.2,1.7,1.2c0.2,0.1,0.5,0.1,0.6-0.3c5.3-16.6,5.3-16.6,5.3-16.6c0.1-0.3,0.2-0.3,0.5-0.4c1.6-0.5,1.6-0.5,1.6-0.5
		c0.3-0.1,0.4,0.2,0.4,0.4c0,0-0.8,4.1-1.6,10.1c-0.8,5.7-2.5,9.5-2.7,9.9c-0.1,0.1-0.1,0.4,0.2,0.5c3.3,2.5,3.3,2.5,3.3,2.5
		c0.3,0.2,0.7,0,0.7-0.3C22.3,35,22.3,35,22.3,35C22.3,34.6,22.1,34.5,21.7,34.6L21.7,34.6z"/>
	<path class="st1" d="M27,64.9c0-0.1-1.4-5.1-1.2-9.9c0-13.6,0-13.6,0-13.6s-0.6-2.2-0.7-2.5c-0.1-0.3-0.2-0.4-0.4-0.4
		c-0.1,0-0.4,0-0.5,0.1c-0.2,0.1-0.3,0.2-0.3,0.4c-1.3,23.4-1.3,23.4-1.3,23.4c0,0.2,0.1,0.4,0.2,0.5c3.6,2.5,3.6,2.5,3.6,2.5
		C26.7,65.6,27.1,65.4,27,64.9L27,64.9z"/>
</g>
</svg>
