<?xml version="1.0" encoding="utf-8"?>
<!-- Generator: Adobe Illustrator 22.1.0, SVG Export Plug-In . SVG Version: 6.00 Build 0)  -->
<svg version="1.1" id="Layer_1" xmlns="http://www.w3.org/2000/svg" xmlns:xlink="http://www.w3.org/1999/xlink" x="0px" y="0px"
	 viewBox="0 0 100 100" style="enable-background:new 0 0 100 100;" xml:space="preserve">
<style type="text/css">
	.st0{fill:#00583C;}
</style>
<g>
	<path class="st0" d="M29.3,60.3c0,0,0.3,0.1,0.4,0.2c0.1,0,0.4,0.1,0.4,0.1L30,60.7c0,0-0.2,0-0.4,0c-0.2,0-0.4,0-0.4,0l-0.3-0.1
		l0.1-0.2l0.1-0.2l-0.2,0h-0.3l-0.1,0H11V36.9h-1v23.3v0.9h1h24.8v-0.9h-6.6L29.3,60.3z"/>
	<path class="st0" d="M29.1,58.3c0,0.1,0,0.4-0.1,0.4c-0.1,0,0.1,0.3,0.1,0.3l0,0.2h6.7v-0.9L29.1,58.3
		C29.1,58.3,29.1,58.3,29.1,58.3"/>
	<path class="st0" d="M12.2,41.6c0,0,0.1-0.2,0.2-0.2c0,0,0.1-0.1,0.2-0.2c0.1,0,0.1-0.1,0.1-0.1s-0.1,0-0.2,0c-0.1,0-0.1,0-0.1,0
		s-0.1-0.1-0.1-0.1c0,0-0.1,0-0.1,0L12.1,41c0,0,0-0.1,0.1-0.1c0.1-0.1,0-0.1-0.1-0.1c-0.1,0-0.2,0.1-0.1,0c0,0,0,0,0,0v1l0.1,0
		C12.1,41.7,12.2,41.7,12.2,41.6"/>
	<path class="st0" d="M12.2,40c0.1,0,0.2,0,0.2,0l0.1,0c0,0,0-0.1,0.2,0l0-0.1c0,0,0.1-0.2,0.2-0.2c0,0-0.1-0.1-0.1-0.1l-0.2,0.1
		l-0.2,0l-0.1-0.1c0,0,0-0.1,0-0.1c0,0,0.1-0.1,0.1-0.1s0-0.1,0-0.1c0,0,0.1-0.1,0.1-0.1l0.1,0l0.1-0.1c0-0.1,0.1,0,0.1,0l0.1,0.1
		l0,0.1l0.1,0v-0.4v0v-0.2c0,0-0.1,0-0.1,0s0-0.1,0-0.1c0,0,0,0,0.1-0.1v-1.3h-1v3.3c0,0,0,0,0,0C12.1,40.1,12.2,40,12.2,40"/>
	<path class="st0" d="M13,59.2h14.8c0,0,0,0,0,0c0-0.1-0.1-0.2-0.1-0.2s0.1-0.2,0-0.3c-0.1-0.1,0-0.3,0-0.3v0H13v-17c0,0,0,0-0.1,0
		c-0.1,0-0.2,0.1-0.3,0.1c-0.1,0-0.2,0.2-0.3,0.3c-0.1,0.1-0.1,0.1-0.2,0.1c0,0,0,0-0.1,0v16.5v0.9H13z"/>
	<path class="st0" d="M15,57.3h12.5c0-0.1-0.1-0.2-0.1-0.2c0-0.1,0-0.3,0.1-0.4c0,0,0-0.2,0-0.3H15V41.1c0,0,0,0,0,0
		s-0.4-0.2-0.4-0.2c-0.1,0-0.2-0.1-0.3-0.1c-0.1,0-0.1,0-0.2,0c0,0,0,0,0,0v15.7v0.9H15z"/>
	<path class="st0" d="M14.1,37.7c-0.1,0,0.1-0.1,0.1-0.1c0.1,0,0.1,0.1,0.1,0.1s0.1-0.1,0.2-0.1c0,0,0.1,0.1,0.1,0.1
		c0,0,0.1,0,0.1,0c0,0,0.1,0,0.1,0.1c0,0,0,0,0,0.1c0,0,0,0,0,0.1c0,0,0.1,0.1,0.1,0.1c0,0,0,0,0.1,0v-1.1h-1v0.9
		C14,37.8,14.2,37.7,14.1,37.7"/>
	<path class="st0" d="M35.7,56.4H30c0,0,0,0,0,0c0.1,0.1,0.2,0.1,0.2,0.2c0,0.1,0,0.2-0.1,0.3c-0.1,0.1-0.4,0.2-0.5,0.2
		c-0.1,0-0.1,0.1-0.1,0.2h6.3V56.4z"/>
	<path class="st0" d="M16.2,38.5C16.2,38.6,16.2,38.6,16.2,38.5c0,0,0.1,0,0.1,0c0,0,0,0,0,0c0,0,0,0,0,0c0,0,0,0.1,0,0.1
		c0,0,0.1,0,0.1,0c0,0,0,0,0-0.1c0,0,0,0,0-0.1c0,0,0-0.1,0-0.1c0,0,0,0,0-0.1c0,0,0,0,0,0c0.1,0,0.1,0.1,0.2,0c0,0,0,0,0.1,0
		c0,0,0.1,0,0.1,0v-1.5h-1v1.5c0,0,0.1,0.1,0.1,0.1C16.2,38.5,16.2,38.5,16.2,38.5"/>
	<path class="st0" d="M35.8,54.5h-4c-0.1,0-0.1,0.1-0.2,0.1c0,0.1-0.1,0.2-0.1,0.3c0,0.1,0,0.3,0,0.3s0,0.1,0,0.2h4.2V54.5z"/>
	<path class="st0" d="M16.8,38.7c0.1,0,0.1,0,0.1,0c0,0,0,0,0,0v-0.1c0,0,0,0-0.1,0.1c0,0-0.1,0-0.1,0
		C16.8,38.7,16.7,38.7,16.8,38.7"/>
	<path class="st0" d="M17,55.4h10.3c0-0.1,0-0.1,0-0.2c0-0.1,0-0.3,0-0.4c0-0.1,0-0.2,0-0.3H17v-8.6c0-0.1-0.1-0.1-0.1-0.1l-0.1-0.1
		c0,0-0.2-0.1-0.2-0.1c0,0-0.2-0.2-0.2-0.2c0-0.1,0-0.2,0-0.2s-0.1-0.1-0.1-0.2c0,0-0.1-0.2-0.1-0.2c0-0.1,0-0.2,0-0.2s0-0.2,0-0.2
		c0-0.1,0-0.1,0-0.2c0-0.1,0.1-0.5,0.1-0.5c0.1-0.1,0.1-0.2,0.1-0.2l0.1-0.1c0,0,0-0.2-0.1-0.2c0,0-0.2-0.3-0.3-0.3
		c-0.1,0-0.1-0.3-0.2-0.4v12v0.9H17z"/>
	<path class="st0" d="M18,47l0.4,0.6v0.2L18,47.5v5.2v0.9h1h8.3c0-0.2-0.3-0.2-0.4-0.3c-0.1-0.1-0.4-0.1-0.5-0.2
		C26.2,53,26,52.8,26,52.7c0,0,0,0,0,0h-7v-5.1l-0.2-0.1l-0.1-0.1l0-0.1l0-0.1c0,0-0.1-0.1-0.2-0.1c0,0-0.2-0.2-0.2-0.2
		s-0.1-0.1-0.2-0.1c0,0,0-0.1-0.1-0.1c0,0,0,0,0,0L18,47C18,46.9,18,47,18,47L18,47z"/>
	<path class="st0" d="M18.2,38.7C18.2,38.7,18.2,38.7,18.2,38.7c0,0.1,0.1,0.1,0.2,0.1c0,0,0,0,0.1,0c0,0,0,0,0.1,0c0,0,0,0,0,0
		c0,0,0,0,0,0c0,0,0,0,0.1,0c0,0,0,0,0,0c0,0,0,0,0,0c0,0,0,0,0,0c0,0,0.1,0.1,0.1,0.1c0,0,0,0,0,0c0,0,0,0,0,0c0,0,0.1,0,0,0.1
		c0,0,0,0-0.1,0c0,0,0,0-0.1,0.1c0,0-0.1,0-0.1,0c0,0,0,0.1,0,0.1c0,0,0,0,0,0c0,0,0,0,0,0c0,0,0,0,0.1,0c0,0,0,0,0.1,0
		c0,0,0.1,0,0.1,0c0,0,0,0,0,0v-2.3h-1v1.7c0,0,0,0,0,0C18.1,38.6,18.2,38.6,18.2,38.7"/>
	<path class="st0" d="M35.8,52.7h-2.5v0c0,0,0,0.4-0.1,0.6c0,0.1-0.1,0.2-0.1,0.3h2.7V52.7z"/>
	<path class="st0" d="M35.7,51.7v-0.9h-3.8l0.4,0.1l0.5,0.1c0,0,0.3,0.1,0.4,0.1c0.1,0,0.2,0.2,0.3,0.3c0.1,0.1,0.3,0.1,0.4,0.1
		c0.1,0,0.2,0.2,0.2,0.2s0,0,0,0.1H35.7z"/>
	<path class="st0" d="M21,51.7h4.2c-0.1-0.1-0.1-0.1-0.2-0.2c-0.1-0.1-0.1-0.2-0.2-0.3c-0.1-0.1,0-0.3,0-0.3l0-0.2H21v-2.3h-0.1
		l-0.4-0.1c0,0-0.1-0.3-0.2-0.4c-0.1,0-0.1-0.1-0.2-0.1v2.9v0.9H21z"/>
	<path class="st0" d="M20.8,41.6c0,0,0.1,0,0.1,0c0,0,0,0,0.1,0v-1.2c0,0,0,0,0,0c-0.1,0.1-0.2,0.1-0.2,0.2c0,0,0,0,0,0
		c0,0,0,0-0.1,0.1c0,0.1-0.1,0.1-0.1,0.2c0,0.1,0,0.1,0,0.2c0,0,0,0.1,0,0.1c0,0,0,0,0.1,0c0,0,0,0,0.1,0c0,0,0,0,0,0c0,0,0,0,0,0
		c0,0,0,0,0,0.1c0,0,0,0,0.1,0.1c0,0,0,0.1,0,0.1c0,0,0,0,0,0C20.8,41.4,20.8,41.5,20.8,41.6C20.7,41.6,20.7,41.6,20.8,41.6"/>
	<path class="st0" d="M20.1,39.2L20.1,39.2C20.1,39.2,20.1,39.2,20.1,39.2c0.1,0,0.2,0,0.3,0.1c0,0,0.1,0,0.1,0c0,0,0.1,0,0.1,0
		c0.1,0,0.1-0.1,0.1-0.1c0,0,0.1-0.1,0.1-0.1c0,0,0,0,0,0c0,0,0,0.1-0.1,0.1h0c0,0,0,0,0,0c0,0,0.1,0,0.1,0.1c0,0-0.1,0.1-0.1,0.1
		c0,0,0,0.1,0,0c0.1,0,0.1-0.1,0.1-0.1c0,0,0.1-0.1,0.1-0.1c0,0,0,0,0,0v-2.4h-1L20.1,39.2C20,39.2,20,39.2,20.1,39.2
		C20,39.2,20,39.2,20.1,39.2"/>
	<path class="st0" d="M20.3,47.5l0.1,0.2l0.3-0.2c0,0,0.1-0.2,0.2-0.3c0-0.1,0.1-0.1,0.2-0.1v-1.2l-0.1,0c0,0-0.1,0-0.1,0.1
		c0,0,0,0-0.1,0.1c0,0-0.1,0-0.1,0l-0.1,0l-0.2,0l-0.1,0c0,0,0,0-0.2,0.1v1.3c0.1,0.1,0.1,0.1,0.2,0.1
		C20.2,47.5,20.3,47.5,20.3,47.5"/>
	<path class="st0" d="M28.4,49.1l0.3,0l0.3,0.2l0.3,0.2l0.3,0h0.2l0.4,0.1c0,0,0.3,0.1,0.4,0.2c0,0,0,0,0,0h5.2v-0.9h-7.5
		c0,0,0.1,0,0.1,0C28.6,49,28.4,49.1,28.4,49.1"/>
	<path class="st0" d="M23,49.8h2c0-0.2-0.5-0.3-0.5-0.3c0,0-0.2,0-0.2-0.1c0,0-0.3-0.2-0.3-0.2c-0.1,0-0.5,0.1-0.5,0.1l-0.1,0.1
		c0,0-0.2,0-0.3,0c-0.1,0-0.2-0.1-0.2-0.1l-0.3,0l-0.1-0.1l-0.3,0l-0.2,0l0-0.2l0,0v0v0.9H23z"/>
	<path class="st0" d="M26.7,49c0.1,0,0.1-0.1,0.1-0.1c0,0,0,0,0,0h-0.3l0,0C26.5,48.9,26.6,49,26.7,49"/>
	<path class="st0" d="M24.3,49l0.1,0h0l0.2,0.1l0.1,0c0,0,0.3-0.1,0.5-0.2h-1L24.3,49z"/>
	<path class="st0" d="M22.3,48c0,0,0.1,0,0.2,0c0.1,0,0,0.1,0,0.1l0,0.2c0,0,0,0.1,0,0.2c0,0.1,0,0.3,0,0.3s0.1,0,0.1,0.1
		c0,0.1,0.1,0.1,0.2,0.1c0.1,0,0.2,0.1,0.2,0.1s0.2,0,0.3,0c0.1,0,0.2-0.1,0.2-0.1l0.2,0H23v-4.8c0,0,0,0,0,0c0,0-0.1,0.1-0.1,0.1
		c0,0,0,0.1-0.1,0.1c0,0-0.1,0-0.1,0.1c0,0-0.1,0-0.1,0c0,0-0.1,0.1,0,0.1c0,0,0,0.1,0,0.1c0,0,0,0.1,0,0.1c0,0,0,0.1,0,0.1
		s-0.1,0.2-0.1,0.2c0,0-0.1,0.1-0.1,0.1s-0.1,0.1-0.2,0.2c0,0-0.1,0.1-0.2,0.1v2.6l0.1,0L22.3,48z"/>
	<path class="st0" d="M22,42.6C22.1,42.6,22.1,42.6,22,42.6c0.1,0,0.1,0,0.2,0c0.1,0,0.1-0.1,0.1-0.1c0.1,0,0.2-0.1,0.1-0.2
		c0,0-0.1,0-0.1-0.1c0,0,0-0.1,0-0.1c0,0-0.1-0.1-0.1-0.1c0,0,0,0,0-0.1c0,0,0.1-0.1,0.1-0.1c0,0,0,0,0.1,0c0,0,0,0,0,0
		c0,0,0,0,0.1-0.1c0,0,0,0,0.1,0c0,0,0-0.1,0.1-0.1c0-0.1,0.1-0.1,0.1-0.2c0,0,0-0.1-0.1-0.1c0,0,0,0,0,0c0,0,0,0,0-0.1
		c0,0-0.1,0-0.1,0c0,0,0.1-0.1,0.1-0.1c0,0,0-0.1,0-0.1c0,0,0,0,0,0c0,0,0,0,0-0.1c0,0,0,0,0-0.1c0,0,0,0,0,0c0,0-0.1-0.1,0-0.1
		c0,0,0.1-0.1,0.1-0.1c0,0,0,0,0-0.1c0,0,0,0,0,0c0,0,0.1,0,0.1,0c0,0,0,0,0.1,0c0,0,0,0,0,0c0,0,0,0,0,0v-3.6h-1v2.4c0,0,0,0,0,0
		c0,0,0.1-0.1,0.1-0.1c0,0,0-0.1,0-0.1c0,0,0-0.1,0.1-0.1c0,0,0,0,0.1,0c0,0,0,0,0-0.1c0,0,0,0,0,0c0,0,0-0.1,0.1,0c0,0,0,0,0.1,0
		c0,0,0,0,0.1,0c0,0,0,0,0,0c0,0,0.1,0,0.1,0.1c0,0,0,0.1-0.1,0.1c0,0,0,0.1-0.1,0.1c0,0-0.1,0-0.1,0.1c0,0,0,0,0,0c0,0,0.1,0,0.1,0
		c0,0,0,0.1,0,0.1c0,0,0,0-0.1,0.1c0,0,0,0.1-0.1,0.1c0,0-0.1,0-0.1,0c0,0,0,0,0,0c-0.1,0-0.1,0-0.1,0c0,0,0,0,0,0L22,42.6
		C22,42.6,22,42.6,22,42.6C22,42.6,22,42.6,22,42.6"/>
	<path class="st0" d="M25,47.9h10.8V47H25v-4.8c0,0-0.1,0.1-0.1,0.1c0,0-0.2,0.1-0.3,0.2c-0.2,0-0.4,0-0.4,0s-0.1,0-0.2,0.1v0.6
		c0,0,0,0,0,0c0.1,0,0.1,0.1,0.1,0.1c0,0,0,0.1,0.1,0.1c0,0,0.1-0.1,0.1-0.1l0.1,0l0,0.1c0,0,0,0,0,0c0,0,0,0-0.1,0.1
		c-0.1,0-0.1,0.1-0.1,0.1c0,0-0.1,0-0.2,0c0,0,0,0,0,0V47v0.9H25z"/>
	<path class="st0" d="M24.2,40.9l0.1,0c0,0,0,0.1,0,0.1c0,0.1,0,0.2,0,0.2c0,0,0,0,0.1,0c0,0,0.1,0.1,0.1,0.1c0.1,0,0.1,0.1,0.1,0.1
		c0,0,0,0.1-0.1,0.1c0,0.1,0.1,0.1,0.2,0.1c0,0,0.2,0,0.2,0c0,0,0,0.1,0,0.1v-4.8h-1v4.3C24,41.1,24.1,41,24.2,40.9
		C24.1,40.9,24.2,40.9,24.2,40.9"/>
	<path class="st0" d="M24.7,42.2C24.7,42.2,24.7,42.2,24.7,42.2c0-0.1,0-0.1,0.1-0.1c0,0,0.1,0,0.1,0c0,0,0.1,0,0.2-0.1v-0.3
		c0,0,0,0,0,0c0,0,0,0.1-0.1,0.1c-0.1,0-0.2,0.1-0.2,0.1c0,0,0,0.1,0,0.1C24.7,42.1,24.7,42.1,24.7,42.2
		C24.6,42.2,24.7,42.2,24.7,42.2"/>
	<polygon class="st0" points="27,45.1 27,36.9 26,36.9 26,45.1 26,46.1 27,46.1 35.8,46.1 35.8,45.1 	"/>
	<polygon class="st0" points="29,44.2 35.8,44.2 35.8,43.3 29,43.3 29,36.9 28,36.9 28,43.3 28,44.2 	"/>
	<polygon class="st0" points="31,42.3 35.8,42.3 35.8,41.4 31,41.4 31,36.9 30,36.9 30,41.4 30,42.3 	"/>
	<polygon class="st0" points="33,40.4 35.8,40.4 35.8,39.5 33,39.5 33,36.9 32,36.9 32,39.5 32,40.4 	"/>
	<polygon class="st0" points="35,38.5 35.8,38.5 35.8,37.6 35,37.6 35,36.9 34,36.9 34,37.6 34,38.5 	"/>
	<path class="st0" d="M21,40.3L21,40.3C21,40.4,21,40.4,21,40.3C21,40.4,21,40.4,21,40.3"/>
	<polygon class="st0" points="38.6,48.9 40.9,48.9 40.9,59 46.5,59 46.5,61.1 38.6,61.1 	"/>
	<path class="st0" d="M51.1,56.3l1.5-4.5l1.5,4.5H51.1z M58.3,61.1l-4.5-12.2h-2.4l-4.4,12.2h2.4l0.9-2.8h4.5l1,2.8H58.3z"/>
	<polygon class="st0" points="59.1,48.9 66.7,48.9 66.7,50.9 61.3,50.9 61.3,53.8 66,53.8 66,55.9 61.3,55.9 61.3,61.1 59.1,61.1 	
		"/>
	<rect x="68" y="48.9" class="st0" width="2.2" height="12.2"/>
	<path class="st0" d="M73.3,56.9c0.1,0.6,0.4,2.3,2.4,2.3c1.6,0,2.2-0.9,2.2-1.7c0-1-0.8-1.3-2.8-1.8c-1.1-0.3-3.6-1-3.6-3.7
		c0-1.3,0.8-3.4,4.1-3.4c2.2,0,4.2,0.9,4.3,3.7l-2.3,0.1c-0.1-0.6-0.3-1.8-2-1.8c-0.7,0-1.9,0.2-1.9,1.2c0,0.8,0.7,1.1,2.5,1.6
		c1.7,0.4,4,1,4,4.1c0,1.5-0.9,2.7-1.8,3.2c-1,0.5-2.1,0.5-2.6,0.5c-1.2,0-4.2-0.1-4.6-4.2L73.3,56.9z"/>
	<polygon class="st0" points="81.2,48.9 89.5,48.9 89.5,50.9 83.4,50.9 83.4,53.7 89.1,53.7 89.1,55.7 83.4,55.7 83.4,59 89.7,59 
		89.7,61.1 81.2,61.1 	"/>
	<rect x="10" y="62.4" class="st0" width="80" height="0.7"/>
	<path class="st0" d="M38.8,40.8h2.5c0.5,0,0.9,0,1.1,0.1c0.2,0,0.5,0.1,0.7,0.3c0.2,0.1,0.4,0.3,0.5,0.6c0.1,0.2,0.2,0.5,0.2,0.8
		c0,0.3-0.1,0.6-0.2,0.9c-0.2,0.3-0.4,0.5-0.7,0.6c0.4,0.1,0.7,0.3,0.9,0.6c0.2,0.3,0.3,0.7,0.3,1.1c0,0.3-0.1,0.6-0.2,0.9
		c-0.1,0.3-0.3,0.5-0.6,0.7c-0.2,0.2-0.5,0.3-0.9,0.3c-0.2,0-0.7,0-1.5,0h-2.2V40.8z M40.1,42v1.6h0.8c0.5,0,0.8,0,0.9,0
		c0.2,0,0.4-0.1,0.5-0.3c0.1-0.1,0.2-0.3,0.2-0.6c0-0.2-0.1-0.4-0.2-0.5c-0.1-0.1-0.3-0.2-0.5-0.3c-0.1,0-0.5,0-1.1,0H40.1z
		 M40.1,44.8v1.9h1.2c0.5,0,0.8,0,0.9,0c0.2,0,0.3-0.1,0.5-0.3c0.1-0.2,0.2-0.4,0.2-0.6c0-0.2,0-0.4-0.1-0.5
		c-0.1-0.1-0.2-0.3-0.4-0.3c-0.2-0.1-0.6-0.1-1.1-0.1H40.1z"/>
	<path class="st0" d="M50.9,47.9h-1.4L49,46.3h-2.5l-0.5,1.6h-1.4l2.5-7.1h1.4L50.9,47.9z M48.6,45.1l-0.9-2.6l-0.9,2.6H48.6z"/>
	<polygon class="st0" points="51.6,47.9 51.6,40.8 52.9,40.8 55.5,45.5 55.5,40.8 56.7,40.8 56.7,47.9 55.4,47.9 52.8,43.3 
		52.8,47.9 	"/>
	<path class="st0" d="M62.1,45.3l1.2,0.4c-0.2,0.8-0.5,1.4-1,1.7c-0.4,0.4-1,0.6-1.7,0.6c-0.8,0-1.5-0.3-2.1-1
		c-0.5-0.6-0.8-1.5-0.8-2.7c0-1.2,0.3-2.1,0.8-2.8c0.5-0.7,1.3-1,2.2-1c0.8,0,1.4,0.3,1.9,0.8c0.3,0.3,0.5,0.7,0.6,1.3L62,43.1
		c-0.1-0.4-0.2-0.7-0.5-0.9c-0.2-0.2-0.5-0.3-0.9-0.3c-0.5,0-0.9,0.2-1.1,0.6c-0.3,0.4-0.4,1-0.4,1.8c0,0.9,0.1,1.5,0.4,1.9
		c0.3,0.4,0.7,0.6,1.1,0.6c0.3,0,0.6-0.1,0.9-0.4C61.8,46.2,62,45.8,62.1,45.3"/>
	<path class="st0" d="M64.2,44.4c0-0.7,0.1-1.3,0.3-1.8c0.1-0.4,0.3-0.7,0.6-1c0.2-0.3,0.5-0.5,0.8-0.6c0.4-0.2,0.9-0.3,1.4-0.3
		c0.9,0,1.7,0.3,2.2,1c0.6,0.6,0.8,1.6,0.8,2.7c0,1.1-0.3,2-0.8,2.7c-0.6,0.6-1.3,1-2.2,1c-0.9,0-1.7-0.3-2.3-1
		C64.4,46.4,64.2,45.5,64.2,44.4 M65.5,44.3c0,0.8,0.2,1.4,0.5,1.8c0.3,0.4,0.8,0.6,1.3,0.6c0.5,0,0.9-0.2,1.3-0.6
		c0.3-0.4,0.5-1,0.5-1.9c0-0.8-0.2-1.4-0.5-1.8c-0.3-0.4-0.7-0.6-1.3-0.6c-0.5,0-1,0.2-1.3,0.6C65.6,42.9,65.5,43.5,65.5,44.3"/>
</g>
</svg>
