<?xml version="1.0" encoding="utf-8"?>
<!-- Generator: Adobe Illustrator 22.1.0, SVG Export Plug-In . SVG Version: 6.00 Build 0)  -->
<svg version="1.1" id="Layer_1" xmlns="http://www.w3.org/2000/svg" xmlns:xlink="http://www.w3.org/1999/xlink" x="0px" y="0px"
	 viewBox="0 0 100 100" style="enable-background:new 0 0 100 100;" xml:space="preserve">
<style type="text/css">
	.st0{fill:#7BB8E4;}
	.st1{fill:#1E6CB5;}
</style>
<g id="XMLID_884_">
	<path id="XMLID_918_" class="st0" d="M31.8,37.4l5.1-0.1l3.1,4.6l0.6,0l0,0.2l5.8,0.1l2.4,3.5c0.2,0.3,0.5,0.6,0.3,1.1l-11.3,0
		c0-0.6-0.1-1.1-0.4-1.4l-5.1-7.6L31.8,37.4z"/>
	<path id="XMLID_917_" class="st0" d="M31.8,37.4L31.8,37.4l5.1,0L40,42l0.6,0l0,0.2l5.8,0.1l2.4,3.5l0,0l0,0
		c0.1,0.1,0.2,0.2,0.2,0.4c0.1,0.1,0.1,0.3,0.1,0.4c0,0.1,0,0.2-0.1,0.3l0,0l0,0l-11.3,0l0,0l0,0c0,0,0-0.1,0-0.1
		c0-0.6-0.1-1-0.4-1.3l0,0l0,0l-5.1-7.7L31.8,37.4L31.8,37.4L31.8,37.4L31.8,37.4L31.8,37.4l0.6,0.5l5.1,7.6l0,0
		c0.2,0.3,0.4,0.7,0.4,1.2c0,0,0,0.1,0,0.1l0,0l11.4,0l0,0c0-0.1,0.1-0.2,0.1-0.3c0-0.2-0.1-0.3-0.1-0.4c-0.1-0.1-0.2-0.3-0.2-0.4
		l0,0l-2.4-3.6l-5.8-0.1l0-0.2l-0.6,0l-3.1-4.6l-5.3,0.1L31.8,37.4L31.8,37.4z"/>
	<path id="XMLID_916_" class="st1" d="M49.2,46.9l-5.5,8.7c-0.1,0.3-0.3,0.3-0.5,0.3l-11.6-0.1l0.1-0.3l0.7,0l5.3-8
		c0.2-0.5,0.2-0.5,0.2-0.7H49.2z"/>
	<path id="XMLID_915_" class="st1" d="M49.2,46.9L49.2,46.9l-5.6,8.7l0,0c-0.1,0.1-0.1,0.2-0.2,0.2c-0.1,0-0.2,0.1-0.3,0.1l0,0l0,0
		l-11.5-0.1l0.1-0.2l0.7,0l5.3-8l0,0c0.1-0.2,0.1-0.4,0.2-0.5c0-0.1,0-0.2,0-0.2l0,0v0L49.2,46.9L49.2,46.9L49.2,46.9L49.2,46.9
		L49.2,46.9l-11.3,0l0,0c0,0.1,0,0.1,0,0.2c0,0.1-0.1,0.2-0.2,0.4l0,0l0,0l-5.3,8l-0.7,0l-0.2,0.4L43.2,56l0,0c0.1,0,0.2,0,0.3-0.1
		c0.1,0,0.2-0.1,0.2-0.3l0,0l0,0L49.2,46.9L49.2,46.9L49.2,46.9z"/>
	<path id="XMLID_914_" class="st1" d="M66.6,46.9l-5.5,8.7c-0.1,0.3-0.3,0.3-0.5,0.3L49,55.9l0.1-0.3l0.7,0l5.3-8
		c0.2-0.5,0.2-0.5,0.2-0.7H66.6z"/>
	<path id="XMLID_913_" class="st1" d="M66.6,46.9L66.6,46.9L61,55.6l0,0c-0.1,0.1-0.1,0.2-0.2,0.2c-0.1,0-0.2,0.1-0.3,0.1l0,0l0,0
		l-11.5-0.1l0.1-0.2l0.7,0l5.3-8l0,0c0.1-0.2,0.1-0.4,0.2-0.5c0-0.1,0-0.2,0-0.2l0,0v0L66.6,46.9L66.6,46.9L66.6,46.9L66.6,46.9
		L66.6,46.9l-11.3,0l0,0c0,0.1,0,0.1,0,0.2c0,0.1-0.1,0.2-0.2,0.4l0,0l0,0l-5.3,8l-0.7,0l-0.2,0.4L60.6,56l0,0c0.1,0,0.2,0,0.3-0.1
		c0.1,0,0.2-0.1,0.2-0.3l0,0l0,0L66.6,46.9L66.6,46.9L66.6,46.9z"/>
	<path id="XMLID_912_" class="st0" d="M54.3,37.3l6.2,0.1c1.5,2.3,1.5,2.3,3.4,4.7l2.4,3.5c0.2,0.3,0.5,0.6,0.3,1.1l-11.3,0
		c0-0.6-0.1-1.1-0.4-1.4c-1.9-2.6-3.5-4.9-5.6-7.7C50.9,37.1,52.7,37.3,54.3,37.3z"/>
	<path id="XMLID_911_" class="st0" d="M54.3,37.3L54.3,37.3l6.2,0.2l0,0l0,0c1.5,2.3,1.5,2.3,3.4,4.7l0,0l0,0l2.4,3.5l0,0l0,0
		c0.1,0.1,0.2,0.2,0.2,0.4c0.1,0.1,0.1,0.3,0.1,0.4c0,0.1,0,0.2-0.1,0.3l0,0l0,0l-11.3,0l0,0l0,0c0,0,0-0.1,0-0.1
		c0-0.6-0.1-1-0.4-1.3l0,0c-1.9-2.6-3.5-4.9-5.6-7.7l0,0l0,0c0.9-0.4,1.9-0.4,2.9-0.4c0.5,0,1,0,1.4,0
		C53.9,37.3,54.1,37.3,54.3,37.3L54.3,37.3L54.3,37.3L54.3,37.3L54.3,37.3c-0.2,0-0.4,0-0.6,0c-0.5,0-0.9,0-1.4,0
		c-1,0-2,0.1-2.9,0.4l-0.1,0l0,0c2.1,2.8,3.7,5.2,5.6,7.7l0,0c0.2,0.3,0.4,0.7,0.4,1.2c0,0,0,0.1,0,0.1l0,0l11.4,0l0,0
		c0-0.1,0.1-0.2,0.1-0.3c0-0.2-0.1-0.3-0.1-0.4c-0.1-0.1-0.2-0.3-0.2-0.4l0,0L64,42.1l0,0c-1.9-2.5-1.9-2.5-3.4-4.7l0,0L54.3,37.3
		L54.3,37.3L54.3,37.3z"/>
	<path id="XMLID_910_" class="st0" d="M46,23.6l6.1,0.1c1.5,2.3,1.5,2.3,3.4,4.7l2.4,3.5c0.2,0.3,0.5,0.6,0.3,1.1l-11.1,0
		c0-0.6-0.1-1.1-0.4-1.4c-1.8-2.6-3.5-4.9-5.5-7.7C42.6,23.4,44.4,23.6,46,23.6z"/>
	<path id="XMLID_909_" class="st0" d="M46,23.6L46,23.6l6.1,0.2l0,0l0,0c1.5,2.3,1.5,2.3,3.4,4.7l0,0l0,0l2.4,3.5l0,0l0,0
		c0.1,0.1,0.2,0.2,0.2,0.4c0.1,0.1,0.1,0.3,0.1,0.4c0,0.1,0,0.2-0.1,0.3l0,0l0,0l-11.1,0l0,0l0,0c0,0,0-0.1,0-0.1
		c0-0.6-0.1-1-0.4-1.3l0,0c-1.8-2.6-3.5-4.9-5.5-7.7l0,0l0,0c0.9-0.4,1.9-0.4,2.9-0.4c0.5,0,0.9,0,1.4,0
		C45.6,23.6,45.8,23.6,46,23.6L46,23.6L46,23.6L46,23.6L46,23.6c-0.2,0-0.4,0-0.6,0c-0.5,0-0.9,0-1.4,0c-1,0-2,0.1-2.9,0.4l0,0l0,0
		c2.1,2.8,3.7,5.2,5.5,7.7l0,0c0.2,0.3,0.4,0.7,0.4,1.2c0,0,0,0.1,0,0.1l0,0l11.2,0l0,0c0-0.1,0.1-0.2,0.1-0.3
		c0-0.2-0.1-0.3-0.1-0.4c-0.1-0.1-0.2-0.3-0.2-0.4l0,0l-2.4-3.5l0,0c-1.8-2.5-1.9-2.5-3.4-4.7l0,0L46,23.6L46,23.6L46,23.6z"/>
	<path id="XMLID_908_" class="st1" d="M58.1,33.2l-2.6,4c-2.1,0.1-5.3-0.2-6.2,0.4l-2.8,4.4L40.8,42l0-0.1c0.2,0,0.3,0,0.4-0.1
		l5.9-8.6L58.1,33.2z"/>
	<path id="XMLID_907_" class="st1" d="M58.1,33.2L58.1,33.2l-2.6,4l0,0l0,0c-0.4,0-0.8,0-1.3,0c-0.6,0-1.3,0-2,0
		c-0.6,0-1.2,0-1.8,0.1c-0.5,0.1-0.9,0.2-1.2,0.4l0,0L46.5,42L40.8,42l0-0.1l0,0l0,0c0.2,0,0.3,0,0.4-0.1l0,0l5.8-8.6L58.1,33.2
		L58.1,33.2L58.1,33.2L58.1,33.2L58.1,33.2l-11.1,0l-5.9,8.6l0,0l0,0c-0.1,0-0.2,0.1-0.4,0.1l0,0l0,0.2l5.8,0.1l2.8-4.4l0,0l0,0
		c0.2-0.2,0.6-0.3,1.1-0.3c0.5-0.1,1.1-0.1,1.7-0.1c0.6,0,1.3,0,2,0c0.5,0,0.9,0,1.3,0l0,0L58.1,33.2L58.1,33.2L58.1,33.2z"/>
	<path id="XMLID_903_" class="st1" d="M10,60.2h5.8c1.1,0,2,0.1,2.6,0.2c0.6,0.1,1.1,0.3,1.5,0.7c0.4,0.3,0.8,0.8,1.1,1.4
		c0.3,0.6,0.4,1.2,0.4,1.9c0,0.8-0.2,1.4-0.6,2.1c-0.4,0.6-0.9,1.1-1.5,1.4c0.9,0.3,1.6,0.8,2,1.5c0.5,0.7,0.7,1.5,0.7,2.4
		c0,0.7-0.2,1.4-0.5,2.1c-0.3,0.7-0.7,1.2-1.3,1.7c-0.5,0.4-1.2,0.7-2,0.8c-0.5,0.1-1.7,0.1-3.5,0.1H10V60.2z M12.9,62.9v3.7h1.9
		c1.1,0,1.8,0,2.1-0.1c0.5-0.1,0.9-0.3,1.2-0.6c0.3-0.3,0.4-0.7,0.4-1.3c0-0.5-0.1-0.9-0.4-1.2c-0.2-0.3-0.6-0.5-1.1-0.6
		c-0.3,0-1.1-0.1-2.5-0.1H12.9z M12.9,69.3v4.3h2.7c1.1,0,1.7,0,2-0.1c0.4-0.1,0.8-0.3,1.1-0.6c0.3-0.3,0.4-0.8,0.4-1.4
		c0-0.5-0.1-0.9-0.3-1.2c-0.2-0.3-0.5-0.6-0.9-0.7c-0.4-0.2-1.3-0.2-2.6-0.2H12.9L12.9,69.3z"/>
	<path id="XMLID_900_" class="st1" d="M31,72.9v-2.6c-0.5,0-0.9,0.1-1.5,0.2c-0.5,0.1-0.9,0.2-1.2,0.3c-0.3,0.1-0.6,0.3-0.8,0.5
		c-0.2,0.2-0.3,0.5-0.3,0.9c0,0.3,0,0.5,0.1,0.6c0,0.2,0.1,0.3,0.3,0.5c0.1,0.1,0.3,0.3,0.5,0.3c0.2,0.1,0.5,0.1,0.9,0.1
		c0.3,0,0.7-0.1,1-0.2C30.5,73.4,30.8,73.2,31,72.9L31,72.9z M31,74.8c-0.2,0.2-0.4,0.4-0.7,0.6c-0.3,0.2-0.5,0.4-0.8,0.5
		c-0.3,0.2-0.7,0.3-1,0.4c-0.4,0.1-0.7,0.1-1.2,0.1c-1,0-1.8-0.4-2.5-1.1c-0.7-0.7-1-1.7-1-2.8c0-0.9,0.2-1.6,0.5-2.2
		c0.3-0.6,0.8-1,1.5-1.4c0.6-0.3,1.4-0.6,2.3-0.7c0.9-0.1,1.9-0.2,2.9-0.3v-0.1c0-0.7-0.2-1.1-0.7-1.4c-0.5-0.3-1.2-0.4-2.1-0.4
		c-0.6,0-1.1,0.1-1.8,0.4c-0.6,0.2-1.1,0.4-1.3,0.5h-0.3v-3c0.4-0.1,0.9-0.2,1.7-0.4c0.8-0.2,1.6-0.2,2.4-0.2c1.9,0,3.3,0.3,4.1,1
		c0.8,0.7,1.3,1.8,1.3,3.3v8.4H31V74.8L31,74.8z"/>
	<path id="XMLID_899_" class="st1" d="M46.3,76.2h-2.9v-6c0-1.3-0.1-2.1-0.2-2.4c-0.1-0.4-0.3-0.7-0.6-0.9c-0.3-0.2-0.6-0.3-1-0.3
		c-0.5,0-1,0.1-1.4,0.4c-0.4,0.3-0.7,0.7-0.8,1.2c-0.1,0.5-0.2,1.4-0.2,2.7v5.3h-2.9V64.5H39v1.7c1-1.3,2.2-2,3.6-2
		c0.6,0,1.2,0.1,1.8,0.4c0.5,0.2,0.9,0.6,1.2,0.9c0.3,0.4,0.5,0.8,0.6,1.3c0.1,0.5,0.2,1.2,0.2,2.1V76.2L46.3,76.2z"/>
	<path id="XMLID_892_" class="st1" d="M52,76.1h-3.2V64.4h2.9v1.7c0.5-0.8,1-1.3,1.3-1.5c0.4-0.2,0.9-0.4,1.4-0.4
		c0.7,0,1.4,0.2,2.1,0.6l-1,2.7c-0.5-0.3-1-0.5-1.5-0.5c-0.4,0-0.8,0.1-1.1,0.4c-0.3,0.2-0.6,0.7-0.7,1.3c-0.2,0.6-0.3,1.9-0.3,3.9
		V76.1z"/>
	<path id="XMLID_891_" class="st1" d="M63.1,72.6l2.8-0.5c0.1,0.6,0.4,1.1,0.7,1.4c0.4,0.3,0.9,0.5,1.5,0.5c0.7,0,1.3-0.1,1.6-0.4
		c0.2-0.2,0.4-0.5,0.4-0.8c0-0.2-0.1-0.4-0.2-0.6c-0.1-0.1-0.4-0.3-0.9-0.4c-2.2-0.5-3.7-1.1-4.2-1.5c-0.8-0.6-1.2-1.5-1.2-2.6
		c0-1,0.4-1.9,1.1-2.5c0.7-0.7,1.8-1,3.3-1c1.4,0,2.5,0.3,3.2,0.8c0.7,0.5,1.2,1.3,1.4,2.3L70,67.7c-0.1-0.5-0.3-0.8-0.6-1
		c-0.3-0.2-0.8-0.4-1.3-0.4c-0.7,0-1.3,0.1-1.6,0.3c-0.2,0.2-0.3,0.4-0.3,0.6c0,0.2,0.1,0.4,0.3,0.6c0.2,0.2,1.1,0.5,2.6,0.9
		c1.5,0.4,2.5,0.8,3.1,1.4c0.6,0.5,0.9,1.3,0.9,2.3c0,1.1-0.4,2-1.2,2.8c-0.8,0.8-2,1.2-3.6,1.2c-1.4,0-2.6-0.3-3.4-1
		C63.9,74.6,63.4,73.7,63.1,72.6L63.1,72.6z"/>
	<path id="XMLID_890_" class="st1" d="M82.1,76.2v-1.7c-0.4,0.6-0.9,1.1-1.6,1.5c-0.7,0.4-1.4,0.5-2.1,0.5c-0.8,0-1.4-0.2-2-0.5
		c-0.6-0.3-1-0.8-1.3-1.4c-0.3-0.6-0.4-1.5-0.4-2.6v-7.4h3v5.4c0,1.6,0.1,2.6,0.2,3c0.1,0.4,0.3,0.7,0.6,0.9
		c0.3,0.2,0.7,0.3,1.1,0.3c0.5,0,1-0.1,1.4-0.4c0.4-0.3,0.7-0.7,0.8-1.1c0.1-0.4,0.2-1.5,0.2-3.2v-4.9h3v11.7H82.1z"/>
	<polygon id="XMLID_889_" class="st1" points="87.2,76.2 87.2,60.1 90,60.1 90,76.2 87.2,76.2 	"/>
	<ellipse id="XMLID_888_" class="st1" cx="59.8" cy="60.9" rx="1.8" ry="2.1"/>
	<path id="XMLID_887_" class="st1" d="M59.8,58.8L59.8,58.8c0.5,0,0.9,0.3,1.2,0.6c0.3,0.4,0.5,0.9,0.5,1.5c0,0.6-0.2,1.1-0.5,1.5
		c-0.3,0.4-0.8,0.6-1.2,0.6c-0.5,0-0.9-0.2-1.2-0.6c-0.3-0.4-0.5-0.9-0.5-1.5c0-0.6,0.2-1.1,0.5-1.5C58.9,59.1,59.3,58.9,59.8,58.8
		L59.8,58.8L59.8,58.8c-0.5,0-1,0.2-1.3,0.6c-0.3,0.4-0.5,0.9-0.5,1.5c0,0.6,0.2,1.1,0.5,1.5c0.3,0.4,0.8,0.6,1.3,0.6
		c0.5,0,1-0.2,1.3-0.6c0.3-0.4,0.5-0.9,0.5-1.5c0-0.6-0.2-1.1-0.5-1.5C60.8,59,60.3,58.8,59.8,58.8L59.8,58.8z"/>
	<rect id="XMLID_886_" x="58.2" y="64" class="st1" width="3.5" height="12.2"/>
	<path id="XMLID_885_" class="st1" d="M58.2,64L58.2,64l3.4,0v12.1h-3.4L58.2,64L58.2,64L58.2,64L58.2,64L58.2,64l0,12.2
		c0,0,0,0,0,0s0,0,0,0h3.5c0,0,0,0,0,0c0,0,0,0,0,0V64c0,0,0,0,0,0c0,0,0,0,0,0L58.2,64C58.2,64,58.2,64,58.2,64
		C58.1,64,58.1,64,58.2,64L58.2,64z"/>
</g>
</svg>
