<svg xmlns="http://www.w3.org/2000/svg" viewBox="0 0 80 24.86"><defs><style>.cls-1{fill:#19569c;}</style></defs><title>BBVA</title><g id="Layer_2" data-name="Layer 2"><g id="BBVA"><g id="_Group_" data-name="&lt;Group&gt;"><path id="_Compound_Path_" data-name="&lt;Compound Path&gt;" class="cls-1" d="M72.47,2.57C71.78.49,71.3,0,69.47,0H64.73L57.14,24.86H61l1.62-5.33h9l1.63,5.33H80ZM63.72,15.75,67.11,4.44l3.43,11.31Z"/><path class="cls-1" d="M30.17,10.92l2.07-3.09A2.94,2.94,0,0,0,32.87,6,2.87,2.87,0,0,0,30,3.24H26.82V21.49h1.77c2.95,0,5.18-1.6,5.18-5.33,0-3.07-1.44-4.72-3.6-5.24m1.24,13.9H21V0h10.8c5.06,0,6.83,4.13,4.26,7.93l-1.21,1.8C43.34,14.14,40.57,24.82,31.41,24.82Z"/><path class="cls-1" d="M9.18,10.92l2.07-3.09A2.89,2.89,0,0,0,11.89,6,2.88,2.88,0,0,0,9,3.24H5.84V21.49H7.6c3,0,5.19-1.6,5.19-5.33,0-3.07-1.45-4.72-3.61-5.24m1.24,13.9H0V0H10.8c5.07,0,6.83,4.13,4.27,7.93l-1.22,1.8C22.35,14.14,19.59,24.82,10.42,24.82Z"/><path id="_Path_" data-name="&lt;Path&gt;" class="cls-1" d="M56.06,0H60L52.41,24.81H46.46L38.35,0h4.38c1.69,0,2.14.44,3,3.25l4.7,15.59L56.06,0"/></g></g></g></svg>