<?xml version="1.0" encoding="utf-8"?>
<!-- Generator: Adobe Illustrator 22.1.0, SVG Export Plug-In . SVG Version: 6.00 Build 0)  -->
<svg version="1.1" id="Layer_1" xmlns="http://www.w3.org/2000/svg" xmlns:xlink="http://www.w3.org/1999/xlink" x="0px" y="0px"
	 viewBox="0 0 100 100" style="enable-background:new 0 0 100 100;" xml:space="preserve">
<style type="text/css">
	.st0{fill:#0D4D8D;}
	.st1{fill:#F47D30;}
</style>
<g>
	<path class="st0" d="M47.6,41.9c2.5-2,6.3-2.6,9.5-1.7c1.2,0.3,2.6,0.9,2.9,2.1c0,1-0.4,1.9-0.6,2.9c-1.5-1.2-3.7-1.6-5.8-1.4
		c-2.2,0.4-3.7,2-4.5,3.7c-0.9,2-1.4,4.3-0.5,6.4c0.4,1.1,1.5,2.1,2.8,2.4c2.1,0.5,4.3-0.1,5.9-1.4c-0.3,1.2-0.5,2.5-0.9,3.7
		c-0.4,1-1.7,1.3-2.7,1.5c-2.8,0.4-6.1-0.1-8.1-2c-2-1.9-2.4-4.5-2.3-7C43.3,47.8,44.6,44.2,47.6,41.9z"/>
	<g>
		<path class="st0" d="M28.6,40.6c2.1-0.3,4.2-0.5,6.3-0.5c1.9,0.1,4,0.5,5.5,1.7c1.7,1.4,1.8,4,0.4,5.6c-0.8,1-2.1,1.7-3.4,2
			c1.1,0.4,2.1,1,2.7,1.9c1.2,2.2,0.6,5.2-1.6,6.8c-1.7,1.4-4,1.8-6.3,2c-1.7,0.1-3.4,0-5-0.4c-0.8-0.2-1.5-0.8-1.8-1.6
			c-0.4-1.1-0.3-2.2,0-3.3C26.6,50,27.5,45.3,28.6,40.6z M32.5,43.4c-0.3,1.4-0.6,2.7-0.9,4.1c-0.1,0.4,0.5,0.5,0.8,0.5
			c1.4,0,3-0.1,4.1-1c0.9-0.9,1.1-2.6-0.3-3.2C35.2,43.2,33.8,43.4,32.5,43.4z M30.9,51.1c-0.4,1.3-0.6,2.6-0.9,3.9
			c-0.1,0.6-0.4,1.2,0.1,1.7c1.5,0,3.1,0.1,4.4-0.7c1.6-0.8,2.1-3,0.8-4.1C34.1,50.9,32.4,51.1,30.9,51.1z"/>
	</g>
	<g>
		<path class="st0" d="M63.1,40.7c1.5-0.4,3-0.4,4.6-0.5c2.1,0,4.4,0,6.2,1c1.4,0.7,2.3,2.1,2.5,3.5c0.5,3.1-1.3,6.4-4.5,7.9
			c-2.1,1-4.6,1.1-7,1c-0.4,1.5-0.6,3.1-1.1,4.6C63.6,59,63,59.8,62.1,60c-1.1,0.1-2.2,0-3.3,0C60.3,53.6,61.6,47.1,63.1,40.7z
			 M67.3,43.6c-0.4,1.9-0.8,3.7-1.2,5.6c-0.1,0.4,0.2,0.7,0.6,0.9c1.1,0.2,2.4,0,3.4-0.5c1.9-1,2.7-3.3,1.8-5
			C71,43.2,68.9,43.5,67.3,43.6z"/>
	</g>
	<path class="st0" d="M78.5,45c0.7-1.4,1.6-2.9,3.2-3.5c0.8-0.3,1.7,0.1,2.2,0.7c1,2.1,0.8,4.5,0,6.7C82.5,47.3,80.6,46,78.5,45z"/>
	<path class="st1" d="M84,42.2c1.9,0.8,3.2,2.4,4.5,3.8c1,1.1,1.6,2.5,1.5,3.9c-0.1,1.2-0.8,2.3-1.6,3.2c-1.6,1.9-3.6,3.4-5.8,4.8
		c-0.9,0.5-2,1-3.1,0.7c-1.5-0.3-2.4-1.5-3-2.7c3.2-1.6,6.2-3.8,7.5-6.9C84.7,46.8,85,44.4,84,42.2z"/>
	<path class="st0" d="M12.1,45c0.7-1.4,1.6-2.9,3.2-3.5c0.8-0.3,1.7,0.1,2.2,0.7c1,2.1,0.8,4.5,0,6.7C16,47.3,14.2,46,12.1,45z"/>
	<path class="st1" d="M17.5,42.2c1.9,0.8,3.2,2.4,4.5,3.8c1,1.1,1.6,2.5,1.5,3.9c-0.1,1.2-0.8,2.3-1.6,3.2c-1.6,1.9-3.6,3.4-5.8,4.8
		c-0.9,0.5-2,1-3.1,0.7c-1.5-0.3-2.4-1.5-3-2.7c3.2-1.6,6.2-3.8,7.5-6.9C18.3,46.8,18.5,44.4,17.5,42.2z"/>
</g>
</svg>
