<?xml version="1.0" encoding="utf-8"?>
<!-- Generator: Adobe Illustrator 22.1.0, SVG Export Plug-In . SVG Version: 6.00 Build 0)  -->
<svg version="1.1" id="Layer_1" xmlns="http://www.w3.org/2000/svg" xmlns:xlink="http://www.w3.org/1999/xlink" x="0px" y="0px"
	 viewBox="0 0 100 100" style="enable-background:new 0 0 100 100;" xml:space="preserve">
<style type="text/css">
	.st0{fill-rule:evenodd;clip-rule:evenodd;fill:#0270B8;}
	.st1{fill-rule:evenodd;clip-rule:evenodd;fill:#F5822B;}
</style>
<g>
	<path class="st0" d="M23.5,44.8c-0.5-0.5-1-0.9-1.5-1.2c-0.5-0.3-1.1-0.4-1.7-0.4c-1,0-1.8,0.3-2.5,0.9c-0.7,0.6-1.1,1.4-1.3,2.4
		c-0.1,1,0,1.8,0.5,2.3c0.5,0.6,1.2,0.9,2.1,0.9c0.6,0,1.2-0.1,1.8-0.4c0.6-0.2,1.3-0.6,2.1-1.2L22,54.4c-0.7,0.3-1.4,0.5-2,0.6
		c-0.7,0.1-1.3,0.2-2,0.2c-0.8,0-1.6-0.1-2.3-0.3c-0.7-0.2-1.4-0.4-1.9-0.8c-1.3-0.8-2.3-1.9-2.8-3.2c-0.5-1.3-0.7-2.8-0.4-4.5
		c0.2-1.2,0.6-2.4,1.2-3.5c0.6-1.1,1.3-2,2.3-2.8c0.9-0.8,2-1.4,3.1-1.9c1.2-0.4,2.4-0.6,3.6-0.6c0.7,0,1.3,0.1,2,0.2
		c0.6,0.1,1.2,0.3,1.8,0.6L23.5,44.8L23.5,44.8z M31.8,48.7h2.5L34,46.9c-0.1-1-0.2-1.7-0.2-2.2c0-0.5,0-1,0.1-1.4h-0.1
		c-0.1,0.4-0.2,0.9-0.4,1.4c-0.2,0.5-0.5,1.3-0.9,2.2L31.8,48.7L31.8,48.7z M22.9,54.8l8.5-16.6h6.7l3.2,16.6h-6.4l-0.2-2.1h-4.5
		l-0.8,2.1H22.9L22.9,54.8z M42.8,54.8l2.6-16.6h6.1l-2.5,16.6H42.8L42.8,54.8z"/>
	<path class="st0" d="M79.7,48.7h2.5l-0.2-1.9c-0.1-1-0.2-1.7-0.2-2.2c0-0.5,0-1,0.1-1.4h-0.1c-0.1,0.4-0.2,0.9-0.4,1.4
		c-0.2,0.5-0.5,1.3-0.9,2.2L79.7,48.7L79.7,48.7z M70.8,54.8l8.5-16.6h6.7l3.2,16.6h-6.4l-0.2-2.1h-4.5l-0.8,2.1H70.8L70.8,54.8z"/>
	<path class="st0" d="M13.8,58.7c-0.2-0.2-0.4-0.4-0.7-0.5c-0.2-0.1-0.5-0.2-0.8-0.2c-0.2,0-0.5,0-0.7,0.1c-0.2,0.1-0.4,0.2-0.6,0.4
		c-0.2,0.2-0.3,0.4-0.4,0.6c-0.1,0.2-0.1,0.5-0.1,0.7c0,0.2,0,0.4,0.1,0.6c0.1,0.2,0.1,0.3,0.2,0.5c0.2,0.2,0.4,0.4,0.7,0.6
		c0.3,0.1,0.5,0.2,0.8,0.2c0.3,0,0.5-0.1,0.8-0.2c0.2-0.1,0.5-0.3,0.7-0.5v0.7c-0.2,0.2-0.5,0.3-0.7,0.4c-0.3,0.1-0.5,0.1-0.8,0.1
		c-0.2,0-0.5,0-0.7-0.1c-0.2-0.1-0.4-0.2-0.6-0.3c-0.3-0.2-0.6-0.5-0.7-0.8c-0.2-0.3-0.2-0.7-0.2-1.1c0-0.3,0.1-0.7,0.2-0.9
		c0.1-0.3,0.3-0.5,0.5-0.8c0.2-0.2,0.5-0.4,0.7-0.5c0.3-0.1,0.6-0.2,0.9-0.2c0.2,0,0.5,0,0.7,0.1c0.2,0.1,0.5,0.2,0.7,0.4V58.7
		L13.8,58.7z M16.2,58.6l-0.7,1.6h1.4L16.2,58.6L16.2,58.6z M16.2,57.4l2,4.6h-0.6L17,60.7h-1.7L14.8,62h-0.6L16.2,57.4L16.2,57.4z
		 M18.8,62v-4.4h0.5V62H18.8L18.8,62z M19.9,62l1.4-2.4L20,57.6h0.6l0.9,1.7l0.9-1.7h0.6l-1.2,2.1l1.4,2.3h-0.6l-1.1-1.9l-1,1.9
		H19.9L19.9,62z M25.2,58.6l-0.7,1.6H26L25.2,58.6L25.2,58.6z M25.2,57.4l2,4.6h-0.6l-0.6-1.4h-1.7L23.8,62h-0.6L25.2,57.4
		L25.2,57.4z"/>
	<path class="st0" d="M29.5,62v-4.4h2.3v0.5H30v1.3h1.8v0.5H30v1.7h1.8V62H29.5L29.5,62z M36,58.7c-0.2-0.2-0.4-0.4-0.7-0.5
		c-0.2-0.1-0.5-0.2-0.8-0.2c-0.2,0-0.5,0-0.7,0.1c-0.2,0.1-0.4,0.2-0.6,0.4c-0.2,0.2-0.3,0.4-0.4,0.6c-0.1,0.2-0.1,0.5-0.1,0.7
		c0,0.2,0,0.4,0.1,0.6c0.1,0.2,0.1,0.3,0.2,0.5c0.2,0.2,0.4,0.4,0.6,0.6c0.3,0.1,0.6,0.2,0.8,0.2c0.3,0,0.6-0.1,0.8-0.2
		c0.2-0.1,0.5-0.3,0.7-0.5v0.7c-0.2,0.2-0.5,0.3-0.7,0.4c-0.2,0.1-0.5,0.1-0.8,0.1c-0.2,0-0.5,0-0.7-0.1c-0.2-0.1-0.4-0.2-0.6-0.3
		c-0.3-0.2-0.6-0.5-0.7-0.8c-0.2-0.3-0.2-0.7-0.2-1.1c0-0.3,0.1-0.7,0.2-0.9c0.1-0.3,0.3-0.5,0.5-0.8c0.2-0.2,0.5-0.4,0.8-0.5
		c0.3-0.1,0.6-0.2,0.9-0.2c0.3,0,0.5,0,0.7,0.1c0.2,0.1,0.5,0.2,0.7,0.4V58.7L36,58.7z M38.8,61.7c0.2,0,0.5-0.1,0.7-0.1
		c0.2-0.1,0.4-0.2,0.6-0.4c0.2-0.2,0.3-0.4,0.4-0.6c0.1-0.2,0.1-0.5,0.1-0.7c0-0.2,0-0.5-0.1-0.7c-0.1-0.2-0.2-0.4-0.4-0.6
		c-0.2-0.2-0.4-0.3-0.6-0.4C39.3,58,39,58,38.8,58c-0.2,0-0.5,0-0.7,0.1c-0.2,0.1-0.4,0.2-0.6,0.4c-0.2,0.2-0.3,0.4-0.4,0.6
		C37,59.4,37,59.6,37,59.8c0,0.2,0.1,0.5,0.1,0.7c0.1,0.2,0.2,0.4,0.4,0.6c0.2,0.2,0.4,0.3,0.6,0.4C38.3,61.6,38.5,61.7,38.8,61.7
		L38.8,61.7z M41.2,59.8c0,0.3-0.1,0.6-0.2,0.9c-0.1,0.3-0.3,0.5-0.5,0.7c-0.2,0.2-0.5,0.4-0.8,0.5c-0.3,0.1-0.6,0.2-0.9,0.2
		c-0.3,0-0.6-0.1-0.9-0.2c-0.3-0.1-0.6-0.3-0.8-0.5c-0.2-0.2-0.4-0.5-0.5-0.7c-0.1-0.3-0.2-0.6-0.2-0.9c0-0.3,0.1-0.6,0.2-0.9
		c0.1-0.3,0.3-0.5,0.5-0.7c0.2-0.2,0.5-0.4,0.8-0.5c0.3-0.1,0.6-0.2,0.9-0.2s0.6,0.1,0.9,0.2c0.3,0.1,0.5,0.3,0.8,0.5
		c0.2,0.2,0.4,0.5,0.5,0.7C41.1,59.2,41.2,59.5,41.2,59.8L41.2,59.8z M41.7,62v-4.6L45,61v-3.4h0.5v4.6l-3.2-3.5V62H41.7L41.7,62z
		 M48.4,61.7c0.2,0,0.5-0.1,0.7-0.1c0.2-0.1,0.4-0.2,0.6-0.4c0.2-0.2,0.3-0.4,0.4-0.6c0.1-0.2,0.1-0.5,0.1-0.7
		c0-0.2-0.1-0.5-0.1-0.7c-0.1-0.2-0.2-0.4-0.4-0.6c-0.2-0.2-0.4-0.3-0.6-0.4C48.9,58,48.7,58,48.4,58c-0.2,0-0.5,0-0.7,0.1
		c-0.2,0.1-0.4,0.2-0.6,0.4c-0.2,0.2-0.3,0.4-0.4,0.6c-0.1,0.2-0.1,0.5-0.1,0.7c0,0.2,0,0.5,0.1,0.7c0.1,0.2,0.2,0.4,0.4,0.6
		c0.2,0.2,0.4,0.3,0.6,0.4C48,61.6,48.2,61.7,48.4,61.7L48.4,61.7z M50.8,59.8c0,0.3-0.1,0.6-0.2,0.9c-0.1,0.3-0.3,0.5-0.5,0.7
		c-0.2,0.2-0.5,0.4-0.8,0.5c-0.3,0.1-0.6,0.2-0.9,0.2c-0.3,0-0.6-0.1-0.9-0.2c-0.3-0.1-0.5-0.3-0.8-0.5c-0.2-0.2-0.4-0.5-0.5-0.7
		c-0.1-0.3-0.2-0.6-0.2-0.9c0-0.3,0.1-0.6,0.2-0.9c0.1-0.3,0.3-0.5,0.5-0.7c0.2-0.2,0.5-0.4,0.8-0.5c0.3-0.1,0.6-0.2,0.9-0.2
		c0.3,0,0.6,0.1,0.9,0.2c0.3,0.1,0.5,0.3,0.8,0.5c0.2,0.2,0.4,0.5,0.5,0.7C50.7,59.2,50.8,59.5,50.8,59.8L50.8,59.8z M47.5,57.2
		l0.6-1h0.6l0.6,1h-0.4l-0.5-0.7l-0.5,0.7H47.5L47.5,57.2z M53.4,62.2L52.1,59l-0.5,3H51l0.9-4.6l1.5,3.7l1.5-3.7l0.9,4.6h-0.5
		l-0.6-3L53.4,62.2L53.4,62.2z M56.3,62v-4.4h0.5V62H56.3L56.3,62z M61.2,58.7c-0.2-0.2-0.4-0.4-0.7-0.5C60.3,58.1,60,58,59.7,58
		c-0.2,0-0.5,0-0.7,0.1c-0.2,0.1-0.4,0.2-0.6,0.4c-0.2,0.2-0.3,0.4-0.4,0.6C58,59.3,58,59.6,58,59.8c0,0.2,0,0.4,0.1,0.6
		c0.1,0.2,0.1,0.3,0.2,0.5c0.2,0.2,0.4,0.4,0.7,0.6c0.3,0.1,0.5,0.2,0.8,0.2c0.3,0,0.5-0.1,0.8-0.2c0.2-0.1,0.5-0.3,0.7-0.5v0.7
		c-0.2,0.2-0.5,0.3-0.7,0.4c-0.2,0.1-0.5,0.1-0.8,0.1c-0.2,0-0.5,0-0.7-0.1c-0.2-0.1-0.4-0.2-0.6-0.3c-0.3-0.2-0.6-0.5-0.7-0.8
		c-0.2-0.3-0.3-0.7-0.3-1.1c0-0.3,0.1-0.7,0.2-0.9c0.1-0.3,0.3-0.5,0.5-0.8c0.2-0.2,0.5-0.4,0.7-0.5c0.3-0.1,0.6-0.2,0.9-0.2
		c0.2,0,0.5,0,0.7,0.1c0.2,0.1,0.5,0.2,0.7,0.4V58.7L61.2,58.7z M63.2,58.6l-0.7,1.6h1.4L63.2,58.6L63.2,58.6z M63.2,57.4l2,4.6
		h-0.6l-0.6-1.4h-1.7L61.8,62h-0.6L63.2,57.4L63.2,57.4z"/>
	<path class="st0" d="M67.4,62v-4.4h2.3v0.5h-1.8v1.3h1.8v0.5h-1.8V62H67.4L67.4,62z M70.4,62v-4.4h2.3v0.5h-1.8v1.3h1.8v0.5h-1.8
		v1.7h1.8V62H70.4L70.4,62z M74,61.5h0.3c0.6,0,0.9,0,1.1-0.1c0.2,0,0.4-0.1,0.5-0.2c0.2-0.2,0.3-0.3,0.4-0.6
		c0.1-0.2,0.1-0.5,0.1-0.8c0-0.3-0.1-0.6-0.1-0.8c-0.1-0.2-0.2-0.4-0.4-0.6c-0.1-0.1-0.3-0.2-0.5-0.2c-0.2-0.1-0.6-0.1-1.1-0.1H74
		V61.5L74,61.5z M73.5,62v-4.4h0.9c0.6,0,1.1,0,1.3,0.1c0.3,0.1,0.5,0.2,0.7,0.3c0.2,0.2,0.4,0.4,0.6,0.7c0.1,0.3,0.2,0.7,0.2,1
		c0,0.4-0.1,0.7-0.2,1c-0.1,0.3-0.3,0.6-0.6,0.7c-0.2,0.1-0.4,0.2-0.7,0.3C75.4,62,75,62,74.5,62h-0.2H73.5L73.5,62z M77.8,62v-4.4
		h2.3v0.5h-1.8v1.3h1.8v0.5h-1.8v1.7h1.8V62H77.8L77.8,62z M80.9,62v-4.4h1c0.3,0,0.5,0,0.6,0.1c0.1,0,0.3,0.1,0.4,0.2
		c0.1,0.1,0.2,0.2,0.3,0.4c0.1,0.2,0.1,0.4,0.1,0.6c0,0.4-0.1,0.6-0.3,0.8c-0.2,0.2-0.5,0.3-0.9,0.3h-0.1l1.7,2.1h-0.7l-1.6-2.1
		h-0.1V62H80.9L80.9,62z M81.4,58.1v1.5h0.4c0.4,0,0.7-0.1,0.8-0.2c0.1-0.1,0.2-0.3,0.2-0.5c0-0.3-0.1-0.5-0.2-0.6
		c-0.1-0.1-0.4-0.2-0.8-0.2H81.4L81.4,58.1z M85.5,58.6l-0.7,1.6h1.4L85.5,58.6L85.5,58.6z M85.5,57.4l2,4.6h-0.6l-0.6-1.4h-1.7
		L84,62h-0.6L85.5,57.4L85.5,57.4z M87.8,62v-4.4h0.5v3.9H90V62H87.8L87.8,62z"/>
	<polygon class="st0" points="69.5,55 62.1,55 57.8,46.9 65.3,46.9 69.5,55 	"/>
	<polygon class="st1" points="73.5,38 66.1,38 58.5,46.1 65.9,46.1 73.5,38 	"/>
	<polygon class="st0" points="54.1,38 61.6,38 65.8,46.1 58.4,46.1 54.1,38 	"/>
	<polygon class="st1" points="50.1,55 57.5,55 65.2,46.9 57.8,46.9 50.1,55 	"/>
</g>
</svg>
