<?xml version="1.0" encoding="utf-8"?>
<!-- Generator: Adobe Illustrator 22.1.0, SVG Export Plug-In . SVG Version: 6.00 Build 0)  -->
<svg version="1.1" id="Layer_1" xmlns="http://www.w3.org/2000/svg" xmlns:xlink="http://www.w3.org/1999/xlink" x="0px" y="0px"
	 viewBox="0 0 100 100" style="enable-background:new 0 0 100 100;" xml:space="preserve">
<style type="text/css">
	.st0{clip-path:url(#SVGID_2_);fill-rule:evenodd;clip-rule:evenodd;fill:#29367D;}
	.st1{clip-path:url(#SVGID_2_);fill-rule:evenodd;clip-rule:evenodd;fill:#EE7D22;}
	.st2{fill-rule:evenodd;clip-rule:evenodd;fill:#EE7D22;}
	.st3{fill-rule:evenodd;clip-rule:evenodd;fill:#29367D;}
</style>
<g>
	<g>
		<defs>
			<rect id="SVGID_1_" x="10" y="31.7" width="80" height="36.6"/>
		</defs>
		<clipPath id="SVGID_2_">
			<use xlink:href="#SVGID_1_"  style="overflow:visible;"/>
		</clipPath>
		<path class="st0" d="M18.4,40.1l4.4,0c1.2,0,1.8,0,2.6,0.9c1.7,1.8,0.5,4.5-2.6,3.8c0.7,3-2.6,4.1-4,2c-0.5-0.8-0.5-1.6-0.5-2.5
			L18.4,40.1z M18.4,40.1"/>
		<path class="st1" d="M17.8,40.1l-4.4,0c-1.2,0-1.8,0-2.6,0.9c-1.7,1.8-0.5,4.5,2.6,3.8c-0.7,3,2.6,4.1,4,2
			c0.5-0.8,0.5-1.6,0.5-2.5L17.8,40.1z M17.8,40.1"/>
		<path class="st0" d="M17.8,39.5l-4.4,0c-1.2,0-1.8,0-2.6-0.9c-1.7-1.8-0.5-4.5,2.6-3.8c-0.7-3,2.6-4.1,4-2
			c0.5,0.8,0.5,1.6,0.5,2.5L17.8,39.5z M17.8,39.5"/>
		<path class="st1" d="M18.4,39.5l4.4,0c1.2,0,1.8,0,2.6-0.9c1.7-1.8,0.5-4.5-2.6-3.8c0.7-3-2.6-4.1-4-2c-0.5,0.8-0.5,1.6-0.5,2.5
			L18.4,39.5z M18.4,39.5"/>
	</g>
	<path class="st2" d="M59.9,58.7h7.3l6.3-7.9h-7.3L59.9,58.7z M59.9,58.7"/>
	<path class="st2" d="M52.7,67.9h7.3l6.3-8H59L52.7,67.9z M52.7,67.9"/>
	<path class="st3" d="M35.1,56.3l-2,5.1h2.8L35.1,56.3L35.1,56.3z M24.3,68l8.4-17.2H39L42.5,68H37l-0.4-2.3h-5.4L29.9,68H24.3z
		 M45.2,68l2.4-17.2h5.6L50.8,68H45.2z M82.4,56.3l-2.1,5.1h2.8L82.4,56.3z M71.6,68L80,50.7h6.3L89.8,68h-5.6l-0.4-2.3h-5.4
		L77.2,68H71.6z M71.6,68"/>
	<path class="st3" d="M59.2,59.9h7l4.8,8h-7L59.2,59.9z M59.2,59.9"/>
	<path class="st3" d="M55.3,50.6h6.8l4.6,8h-6.8L55.3,50.6z M55.3,50.6"/>
	<path class="st3" d="M24.5,51.3l-0.5,5.1c-2.1-2.8-6.8-0.9-7.2,2.7c-0.5,4.5,4.1,5.6,6.6,2.9L22.8,67c-0.7,0.4-1.5,0.7-2.2,0.8
		c-0.7,0.2-1.4,0.3-2.2,0.3c-0.9,0-1.7-0.1-2.4-0.3c-0.7-0.2-1.4-0.5-2-1c-1.1-0.8-2-1.9-2.5-3.2c-0.5-1.3-0.7-2.7-0.5-4.4
		c0.1-1.3,0.5-2.5,1-3.6c0.5-1.1,1.2-2.1,2.1-2.9c0.9-0.8,1.8-1.5,2.8-1.9c1-0.4,2.1-0.7,3.3-0.7c0.7,0,1.4,0.1,2.1,0.2
		C23.1,50.7,23.8,51,24.5,51.3L24.5,51.3z M24.5,51.3"/>
	<path class="st3" d="M27.1,46.4L29.2,35h4.2L32,42.9h3.5l-0.7,3.5H27.1z M40,41.3c-0.3,0-0.6,0.1-0.8,0.4c-0.2,0.3-0.3,0.6-0.3,0.9
		c0,0.3,0.1,0.5,0.2,0.6c0.2,0.2,0.4,0.2,0.6,0.2c0.3,0,0.6-0.1,0.8-0.4c0.2-0.2,0.3-0.6,0.3-0.9c0-0.3-0.1-0.5-0.2-0.6
		C40.5,41.4,40.3,41.3,40,41.3L40,41.3z M35.3,42.9c0-0.7,0.1-1.3,0.3-1.8c0.2-0.6,0.6-1.1,1-1.5c0.5-0.5,1-0.8,1.6-1.1
		c0.6-0.3,1.3-0.4,2-0.4c1.3,0,2.3,0.3,3,1c0.7,0.7,1.1,1.6,1.1,2.8c0,0.5-0.1,1.1-0.3,1.6c-0.2,0.5-0.5,1-0.8,1.4
		c-0.5,0.6-1,1-1.7,1.3c-0.7,0.3-1.4,0.5-2.2,0.5c-1.2,0-2.2-0.4-2.9-1.1C35.7,44.9,35.3,44,35.3,42.9L35.3,42.9z M44.8,46.4l1-5.1
		h-1l0.5-2.9h1l0.4-2.2h3.8l-0.4,2.2h1.2l-0.6,2.9h-1.2l-1,5.1H44.8z M54.4,41.3h1.9v-0.1c0-0.3-0.1-0.4-0.2-0.6
		c-0.1-0.1-0.3-0.2-0.6-0.2c-0.3,0-0.5,0.1-0.7,0.2C54.7,40.8,54.5,41,54.4,41.3L54.4,41.3z M59.6,42.8h-5.4c0,0.4,0.1,0.7,0.3,0.9
		c0.2,0.2,0.4,0.3,0.7,0.3c0.2,0,0.4-0.1,0.6-0.2c0.2-0.1,0.4-0.3,0.6-0.6l2.9,0.6c-0.5,0.9-1.1,1.6-1.8,2c-0.7,0.4-1.6,0.7-2.6,0.7
		c-1.2,0-2.2-0.3-2.9-1c-0.8-0.7-1.1-1.6-1.1-2.7c0-0.6,0.1-1.3,0.3-1.8c0.2-0.6,0.5-1.1,1-1.5c0.5-0.5,1-0.8,1.6-1.1
		c0.6-0.3,1.3-0.4,2-0.4c1.2,0,2.2,0.3,2.9,1c0.8,0.7,1.1,1.5,1.1,2.6c0,0.2,0,0.4,0,0.6C59.6,42.4,59.6,42.6,59.6,42.8L59.6,42.8z
		 M59.4,46.4l1.5-8h3.5l-0.3,1.1c0.3-0.5,0.6-0.8,1-1c0.4-0.2,0.8-0.3,1.3-0.3c0.1,0,0.2,0,0.4,0c0.2,0,0.3,0.1,0.5,0.1l-0.6,3.3
		c-0.3-0.1-0.5-0.2-0.7-0.2c-0.2,0-0.4-0.1-0.6-0.1c-0.4,0-0.8,0.1-1,0.3c-0.2,0.2-0.4,0.6-0.5,1.2l-0.7,3.6H59.4z M70,38
		c-0.6,0-1-0.2-1.4-0.5c-0.4-0.3-0.6-0.8-0.6-1.3c0-0.5,0.2-1,0.7-1.4c0.5-0.4,1-0.6,1.6-0.6c0.6,0,1.1,0.2,1.4,0.5
		c0.4,0.3,0.6,0.8,0.6,1.3c0,0.6-0.2,1-0.7,1.4C71.2,37.8,70.7,38,70,38L70,38z M66.4,46.4l1.5-8h3.8l-1.5,8H66.4z M76.6,41.4
		c-0.3,0-0.6,0.1-0.8,0.4c-0.2,0.2-0.3,0.5-0.3,0.9c0,0.3,0.1,0.5,0.2,0.7c0.1,0.2,0.3,0.2,0.6,0.2c0.3,0,0.6-0.1,0.8-0.3
		c0.2-0.2,0.3-0.5,0.3-0.9c0-0.3-0.1-0.5-0.2-0.7C77.1,41.4,76.9,41.4,76.6,41.4L76.6,41.4z M78.2,38.4h3.7l-1.5,8h-3.6l0.3-1.1
		c-0.3,0.5-0.7,0.8-1.1,1c-0.4,0.2-0.8,0.3-1.3,0.3c-0.9,0-1.6-0.3-2.1-1c-0.6-0.7-0.8-1.5-0.8-2.6c0-0.6,0.1-1.2,0.3-1.8
		c0.2-0.6,0.5-1.1,0.8-1.6c0.4-0.5,0.9-0.9,1.4-1.2c0.5-0.3,1-0.4,1.6-0.4c0.5,0,1,0.1,1.3,0.3c0.4,0.2,0.7,0.6,1,1.1L78.2,38.4z
		 M81.1,45.3l1.4-2.4c0.4,0.4,0.8,0.7,1.2,0.9c0.4,0.2,0.7,0.3,1,0.3c0.1,0,0.2,0,0.3-0.1c0.1-0.1,0.1-0.1,0.1-0.2
		c0-0.1-0.2-0.3-0.6-0.5c0,0,0,0-0.1,0L83.9,43c-0.5-0.3-0.8-0.5-1.1-0.9c-0.2-0.3-0.3-0.7-0.3-1.2c0-0.8,0.3-1.5,1-2
		c0.6-0.5,1.5-0.8,2.5-0.8c0.5,0,1.1,0.1,1.6,0.2c0.5,0.2,1.1,0.4,1.6,0.7l-1.3,2.1c-0.3-0.3-0.5-0.4-0.8-0.6
		c-0.3-0.1-0.5-0.2-0.7-0.2c-0.1,0-0.2,0-0.3,0.1c-0.1,0.1-0.1,0.1-0.1,0.2c0,0.1,0.2,0.3,0.5,0.4c0.1,0,0.2,0.1,0.2,0.1l0.5,0.2
		c0.5,0.2,0.9,0.5,1.1,0.8c0.2,0.3,0.4,0.8,0.4,1.3c0,0.9-0.3,1.6-1,2.2c-0.7,0.6-1.6,0.8-2.7,0.8c-0.6,0-1.2-0.1-1.8-0.3
		C82.4,46.1,81.8,45.8,81.1,45.3L81.1,45.3z M81.1,45.3"/>
</g>
</svg>
