<?xml version="1.0" encoding="utf-8"?>
<!-- Generator: Adobe Illustrator 22.1.0, SVG Export Plug-In . SVG Version: 6.00 Build 0)  -->
<svg version="1.1" id="Layer_1" xmlns="http://www.w3.org/2000/svg" xmlns:xlink="http://www.w3.org/1999/xlink" x="0px" y="0px"
	 viewBox="0 0 100 100" style="enable-background:new 0 0 100 100;" xml:space="preserve">
<style type="text/css">
	.st0{fill-rule:evenodd;clip-rule:evenodd;fill:#E21E26;}
	.st1{fill-rule:evenodd;clip-rule:evenodd;fill:#F3C417;}
	.st2{fill-rule:evenodd;clip-rule:evenodd;fill:#FDFEFF;}
	.st3{fill:#FFFFFF;}
	.st4{fill-rule:evenodd;clip-rule:evenodd;fill:#FFFFFF;}
</style>
<g>
	<polygon class="st0" points="10,29.9 90,29.9 90,70.1 10,70.1 10,29.9 	"/>
	<path class="st1" d="M33.3,39.7c0.9,0,1.7,0.7,1.7,1.7c0,0.9-0.7,1.7-1.7,1.7c-0.9,0-1.7-0.7-1.7-1.7
		C31.7,40.4,32.4,39.7,33.3,39.7L33.3,39.7z"/>
	<path class="st2" d="M28.9,55.8h-4c-0.4-0.3-0.4-0.5-0.4-1.1l0-8.5c0.1-1.2,1.3-1.9,2-2l13.7,0c1.1,0.2,1.5,0.9,1.8,1.9V55
		c0,0.3,0.1,0.7-0.3,0.8l-4,0c0.9-0.8,1-1.8,0.8-3.4l-10.5,0C28,54.4,28,55.2,28.9,55.8L28.9,55.8z"/>
	<path class="st0" d="M28.1,49.5l0-1.9c0.1-0.5,0.7-1,1.3-1l8.2,0c0.6-0.1,1,0.2,1,0.9l0,2.1L28.1,49.5L28.1,49.5z"/>
	<path class="st1" d="M25.1,58.2c-1.1-0.2-0.1-0.8,0.5-0.9c5.4-0.5,11.4-1.1,17,0.1c0.9,0.2,1.6,0.9,0.2,0.6
		c-0.8-0.1-0.7,0.3-0.4,0.3c1,0,2.3,0.7,1.1,0.8c-0.4,0-0.9-0.9-1.4-0.5c-0.1,0.1,0.1,0.2,0.1,0.2c0.8,0.2,0.4,0.6-0.7,0.2
		C36.2,58,31,57.8,25.1,58.2L25.1,58.2z"/>
	<path class="st3" d="M54.1,48.7h-1.7l-0.2,0.9h-1.5l1.8-5.2h1.7l1.8,5.2h-1.6L54.1,48.7L54.1,48.7z M53.8,47.5l-0.5-1.9l-0.5,1.9
		H53.8L53.8,47.5z M58.5,44.3H60v2.8c0,0.6-0.1,1.1-0.1,1.4c-0.1,0.3-0.3,0.6-0.6,0.8c-0.3,0.2-0.7,0.3-1.2,0.3
		c-0.5,0-0.9-0.1-1.2-0.2c-0.3-0.1-0.5-0.4-0.6-0.6c-0.1-0.3-0.2-0.6-0.3-1l1.4-0.2c0,0.2,0,0.4,0.1,0.5c0,0.1,0.1,0.2,0.2,0.3
		c0.1,0,0.1,0.1,0.2,0.1c0.2,0,0.3-0.1,0.4-0.2c0.1-0.1,0.1-0.4,0.1-0.7V44.3L58.5,44.3z M63.9,48.7h-1.7l-0.2,0.9h-1.5l1.8-5.2h1.7
		l1.8,5.2h-1.6L63.9,48.7L63.9,48.7z M63.5,47.5L63,45.7l-0.5,1.9H63.5L63.5,47.5z"/>
	<path class="st3" d="M45.6,50.7h4.3V52h-1.4v3.9H47V52h-1.4V50.7L45.6,50.7z M50.5,55.9v-5.2h2.4c0.4,0,0.8,0,1,0.1
		c0.2,0.1,0.4,0.2,0.6,0.5c0.1,0.2,0.2,0.5,0.2,0.8c0,0.3-0.1,0.5-0.2,0.8c-0.1,0.2-0.3,0.4-0.4,0.5c-0.1,0.1-0.3,0.2-0.5,0.2
		c0.2,0.1,0.3,0.1,0.4,0.2c0.1,0,0.1,0.1,0.2,0.3c0.1,0.1,0.2,0.2,0.2,0.3l0.7,1.5h-1.6l-0.8-1.6c-0.1-0.2-0.2-0.3-0.3-0.4
		c-0.1-0.1-0.2-0.1-0.3-0.1h-0.1v2.1H50.5L50.5,55.9z M51.9,52.8h0.6c0.1,0,0.2,0,0.4-0.1c0.1,0,0.2-0.1,0.2-0.2
		c0.1-0.1,0.1-0.2,0.1-0.3c0-0.2,0-0.3-0.1-0.4c-0.1-0.1-0.3-0.1-0.5-0.1h-0.6V52.8L51.9,52.8z M58.4,50.7h1.4v3.1
		c0,0.3,0,0.6-0.1,0.9c-0.1,0.3-0.2,0.5-0.4,0.7c-0.2,0.2-0.4,0.3-0.6,0.4c-0.3,0.1-0.6,0.2-1,0.2c-0.2,0-0.5,0-0.7-0.1
		c-0.3,0-0.5-0.1-0.7-0.2c-0.2-0.1-0.3-0.3-0.5-0.5c-0.1-0.2-0.2-0.4-0.3-0.6c-0.1-0.3-0.1-0.6-0.1-0.9v-3.1h1.4v3.2
		c0,0.3,0.1,0.5,0.2,0.7c0.1,0.2,0.3,0.2,0.6,0.2c0.2,0,0.4-0.1,0.6-0.2c0.1-0.2,0.2-0.4,0.2-0.7V50.7L58.4,50.7z M62.6,50.7H64v2.8
		c0,0.6,0,1.1-0.1,1.4s-0.3,0.6-0.6,0.8c-0.3,0.2-0.6,0.3-1.1,0.3c-0.5,0-0.8-0.1-1.1-0.2c-0.3-0.1-0.5-0.4-0.6-0.6
		c-0.1-0.3-0.2-0.6-0.2-1l1.4-0.2c0,0.2,0,0.4,0.1,0.5c0,0.1,0.1,0.2,0.2,0.3c0.1,0,0.1,0.1,0.2,0.1c0.2,0,0.3-0.1,0.3-0.2
		c0.1-0.1,0.1-0.4,0.1-0.7V50.7L62.6,50.7z M65,50.7h1.4v5.2H65V50.7L65,50.7z M67.5,50.7h1.4v3.9h2.2v1.3h-3.6V50.7L67.5,50.7z
		 M71.7,50.7h1.4v3.9h2.2v1.3h-3.6V50.7L71.7,50.7z M75.7,53.3c0-0.9,0.2-1.5,0.6-2c0.4-0.5,1-0.7,1.7-0.7c0.8,0,1.4,0.2,1.8,0.7
		c0.4,0.5,0.6,1.1,0.6,2c0,0.6-0.1,1.1-0.3,1.5c-0.2,0.4-0.4,0.7-0.8,0.9c-0.3,0.2-0.8,0.3-1.3,0.3c-0.5,0-0.9-0.1-1.3-0.3
		c-0.3-0.2-0.6-0.5-0.8-0.9C75.8,54.4,75.7,53.9,75.7,53.3L75.7,53.3z M77.1,53.3c0,0.5,0.1,0.9,0.3,1.1c0.2,0.2,0.4,0.3,0.7,0.3
		c0.3,0,0.5-0.1,0.7-0.3c0.2-0.2,0.3-0.6,0.3-1.2c0-0.5-0.1-0.9-0.3-1.1c-0.2-0.2-0.4-0.3-0.7-0.3c-0.3,0-0.5,0.1-0.7,0.3
		C77.2,52.4,77.1,52.8,77.1,53.3L77.1,53.3z"/>
	<path class="st4" d="M49.5,45.9l0-1.6c-5.8-1.2-4.8,7,0,5.1l0-1.7C46.1,49.9,46.2,44.2,49.5,45.9L49.5,45.9z"/>
</g>
</svg>
