<?xml version="1.0" encoding="utf-8"?>
<!-- Generator: Adobe Illustrator 22.1.0, SVG Export Plug-In . SVG Version: 6.00 Build 0)  -->
<svg version="1.1" id="Layer_1" xmlns="http://www.w3.org/2000/svg" xmlns:xlink="http://www.w3.org/1999/xlink" x="0px" y="0px"
	 viewBox="0 0 100 100" style="enable-background:new 0 0 100 100;" xml:space="preserve">
<style type="text/css">
	.st0{fill:#ED1A3D;}
	.st1{fill:#F18A00;}
	.st2{fill:#FFFFFF;}
	.st3{fill:#005193;}
	.st4{fill:#F68526;}
</style>
<g>
	<g>
		<rect x="60.5" y="24.2" class="st0" width="29.5" height="29.5"/>
		<polygon class="st1" points="90,39.8 77.5,29.3 77.5,29.3 77.5,48.9 90,48.9 		"/>
		<path class="st2" d="M77.5,32.1l0-2.8c-0.9,1-3.1,2.6-5.8,3v2.2l-2.1,0.9v1.9l-9.1,3.5v8.1h19.2V31.2L77.5,32.1z"/>
		<path class="st0" d="M71.7,36.5L70,37.1c-0.2,0.1-0.4,0.3-0.4,0.5l0,1.3c0,0.2-0.2,0.4-0.4,0.5l-8.8,3.4v2.1l8.8-3.4
			c0.2-0.1,0.4-0.3,0.4-0.5v-1.3c0-0.2,0.2-0.4,0.3-0.5l1.7-0.7V36.5z"/>
		<path class="st0" d="M71.7,40.4L70,41.1c-0.2,0.1-0.4,0.3-0.4,0.5l0,1.3c0,0.2-0.2,0.4-0.4,0.5l-8.8,3.4v2l8.8-3.5
			c0.2-0.1,0.4-0.3,0.4-0.5v-1.3c0-0.2,0.2-0.4,0.3-0.5l1.7-0.7V40.4z"/>
		<rect x="60.5" y="48.9" class="st3" width="29.5" height="4.9"/>
		<path class="st2" d="M68.5,51.2l0,0.2c0,0.2-0.2,0.4-0.4,0.6c-0.1,0.1-0.2,0.2-0.3,0.2c-0.1,0-0.1-0.1-0.1-0.2
			c0-0.2,0.1-0.5,0.2-0.6c0.1-0.2,0.3-0.3,0.4-0.3C68.3,51.1,68.4,51.1,68.5,51.2 M69.2,49.8l-0.5,0.1l-0.2,1
			c-0.2-0.1-0.2-0.1-0.3-0.1c-0.5,0-1,0.6-1,1.4c0,0.3,0.1,0.5,0.3,0.5c0.1,0,0.3-0.1,0.5-0.2c0.1-0.1,0.2-0.1,0.2-0.2
			c0,0,0.1-0.1,0.1-0.1l-0.1,0.5h0.4L69.2,49.8z"/>
		<path class="st2" d="M70.4,51.2c0,0,0,0.1,0,0.1l-0.6,0.3c0.1-0.3,0.1-0.4,0.2-0.5c0.1-0.1,0.2-0.1,0.3-0.1
			C70.4,51.1,70.4,51.1,70.4,51.2 M70.8,51.1c0-0.2-0.2-0.4-0.5-0.4c-0.6,0-1,0.5-1,1.2c0,0.4,0.2,0.6,0.5,0.6c0.2,0,0.3,0,0.5-0.1
			c0.1,0,0.1-0.1,0.2-0.1c0.1-0.1,0.1-0.1,0.3-0.2l-0.2-0.3c-0.2,0.2-0.3,0.2-0.4,0.3c-0.1,0-0.2,0-0.2,0c-0.1,0-0.1,0-0.2-0.1
			c0,0,0-0.1,0-0.2l0.8-0.4C70.7,51.5,70.8,51.3,70.8,51.1"/>
		<path class="st2" d="M72.4,50.9c-0.2-0.1-0.3-0.1-0.5-0.1c-0.4,0-0.7,0.2-0.7,0.5c0,0.1,0,0.2,0.1,0.3c0,0,0.1,0.1,0.1,0.2
			c0,0,0.1,0.1,0.2,0.2c0.1,0.1,0.1,0.1,0.1,0.2c0,0.1-0.1,0.2-0.2,0.2c-0.1,0-0.2,0-0.4-0.1L71,52.5c0.1,0,0.2,0.1,0.3,0.1
			c0.1,0,0.2,0,0.3,0c0.4,0,0.6-0.2,0.6-0.5c0-0.2-0.1-0.3-0.3-0.5c-0.2-0.2-0.2-0.2-0.3-0.2c0,0,0-0.1,0-0.1c0-0.1,0.1-0.1,0.2-0.1
			c0.1,0,0.2,0,0.4,0.1L72.4,50.9z"/>
		<path class="st2" d="M73.9,51.2l0,0.2c0,0.2-0.2,0.4-0.4,0.6c-0.1,0.1-0.2,0.2-0.3,0.2c-0.1,0-0.1-0.1-0.1-0.2
			c0-0.2,0.1-0.5,0.2-0.6c0.1-0.2,0.3-0.3,0.4-0.3C73.8,51.1,73.8,51.1,73.9,51.2 M74.6,49.8l-0.5,0.1l-0.2,1
			c-0.2-0.1-0.2-0.1-0.3-0.1c-0.5,0-1,0.6-1,1.4c0,0.3,0.1,0.5,0.3,0.5c0.1,0,0.3-0.1,0.5-0.2c0.1-0.1,0.2-0.1,0.2-0.2
			c0,0,0.1-0.1,0.1-0.1l-0.1,0.5h0.4L74.6,49.8z"/>
		<path class="st2" d="M75.8,51.2c0,0,0,0.1,0,0.1l-0.6,0.3c0.1-0.3,0.1-0.4,0.2-0.5c0.1-0.1,0.2-0.1,0.3-0.1
			C75.8,51.1,75.8,51.1,75.8,51.2 M76.3,51.1c0-0.2-0.2-0.4-0.5-0.4c-0.6,0-1,0.5-1,1.2c0,0.4,0.2,0.6,0.5,0.6c0.2,0,0.3,0,0.5-0.1
			c0.1,0,0.1-0.1,0.2-0.1c0.1-0.1,0.1-0.1,0.3-0.2L76,51.9c-0.2,0.2-0.3,0.2-0.4,0.3c-0.1,0-0.2,0-0.2,0c-0.1,0-0.1,0-0.2-0.1
			c0,0,0-0.1,0-0.2l0.8-0.4C76.2,51.5,76.3,51.3,76.3,51.1"/>
		<polygon class="st2" points="78.8,50.7 78.6,50.7 77.7,51.1 77.8,51.4 78.3,51.3 78,52.6 78.5,52.6 		"/>
		<path class="st2" d="M80.4,51.9c0,0.2-0.2,0.4-0.5,0.4c-0.2,0-0.4-0.1-0.4-0.3c0-0.1,0.1-0.3,0.3-0.4l0.2-0.1l0.2,0.2
			C80.4,51.7,80.4,51.8,80.4,51.9 M80.5,50.6c0,0.1-0.1,0.2-0.1,0.2L80.2,51l-0.1-0.2c0-0.1-0.1-0.1-0.1-0.2c0-0.1,0.1-0.3,0.3-0.3
			C80.5,50.4,80.6,50.5,80.5,50.6 M81,50.5c0-0.3-0.2-0.5-0.6-0.5c-0.5,0-0.9,0.2-0.9,0.6c0,0.2,0.1,0.3,0.2,0.4l0.2,0.2l-0.3,0.2
			c-0.2,0.1-0.4,0.4-0.4,0.6c0,0.4,0.2,0.6,0.7,0.6c0.6,0,1-0.3,1-0.7c0-0.2-0.1-0.4-0.3-0.5l-0.2-0.2l0.2-0.2
			c0.2-0.1,0.3-0.2,0.3-0.3C81,50.7,81,50.6,81,50.5"/>
		<path class="st2" d="M82.7,50.6h-1.2l-0.2,1.3h0.2c0.1,0,0.3,0,0.3,0.1c0.1,0,0.1,0.2,0.1,0.3c0,0.3-0.2,0.6-0.5,0.6
			c-0.1,0-0.2,0-0.4-0.1l-0.1,0.4c0.2,0.1,0.3,0.1,0.5,0.1c0.6,0,1-0.5,1-1c0-0.3-0.1-0.5-0.3-0.6c-0.1,0-0.2-0.1-0.4-0.1l0.1-0.6
			h0.7L82.7,50.6z"/>
		<path class="st2" d="M84.3,50.6h-1.2L83,51.9h0.2c0.1,0,0.3,0,0.3,0.1c0.1,0,0.1,0.2,0.1,0.3c0,0.3-0.2,0.6-0.5,0.6
			c-0.1,0-0.2,0-0.4-0.1l-0.1,0.4c0.2,0.1,0.3,0.1,0.5,0.1c0.6,0,1-0.5,1-1c0-0.3-0.1-0.5-0.3-0.6c-0.1,0-0.2-0.1-0.4-0.1l0.1-0.6
			h0.7L84.3,50.6z"/>
	</g>
	<g>
		<g>
			<path class="st4" d="M10,39c0-4.6,3-8.8,9.1-8.8c2.2,0,4,0.5,5.3,1.4l-2.1,3.5c-0.9-0.5-1.8-0.9-3.3-0.9c-2.5,0-3.9,1.9-3.9,4.6
				c0,2.8,1.3,4.9,3.9,4.9c1.8,0,2.8-0.7,3.6-1.2l1.9,3.4c-0.9,0.8-3,1.9-5.6,1.9C12.9,47.7,10,43.6,10,39z"/>
			<path class="st4" d="M25.5,44.1c0-3.2,3.1-4.5,6.7-4.5h0.4v-0.4c0-0.7-0.3-1.1-1.7-1.1c-1.5,0-2.7,0.8-3.1,1.1l-1.8-2.7
				c0.8-0.7,2.7-1.9,5.5-1.9c4,0,5.6,1.3,5.6,5v3.5c0,2,0.2,3.4,0.4,4.3H33c-0.1-0.3-0.2-0.8-0.3-1.2c-0.5,0.7-1.6,1.5-3.3,1.5
				C27.2,47.7,25.5,46.5,25.5,44.1z M32.5,44v-1.8h-0.4c-1.4,0-2.4,0.5-2.4,1.4c0,0.6,0.5,1,1.2,1C31.7,44.6,32.2,44.3,32.5,44z"/>
			<path class="st4" d="M36.7,53l0.8-3.5c0.2,0.1,0.6,0.2,1.1,0.2c1,0,1.3-0.5,1.3-2.4V34.9h4.6v12.8c0,3.5-1.4,5.7-4.9,5.7
				C38.1,53.4,37.2,53.2,36.7,53z M39.6,31.3c0-1.3,1.1-2.5,2.6-2.5c1.5,0,2.6,1.1,2.6,2.5c0,1.3-1.1,2.5-2.6,2.5
				C40.7,33.8,39.6,32.7,39.6,31.3z"/>
			<path class="st4" d="M46.7,44.1c0-3.2,3.1-4.5,6.7-4.5h0.4v-0.4c0-0.7-0.3-1.1-1.7-1.1c-1.5,0-2.7,0.8-3.1,1.1l-1.8-2.7
				c0.8-0.7,2.7-1.9,5.5-1.9c4,0,5.6,1.3,5.6,5v3.5c0,2,0.2,3.4,0.4,4.3h-4.5c-0.1-0.3-0.2-0.8-0.3-1.2c-0.5,0.7-1.6,1.5-3.3,1.5
				C48.5,47.7,46.7,46.5,46.7,44.1z M53.7,44v-1.8h-0.4c-1.4,0-2.4,0.5-2.4,1.4c0,0.6,0.5,1,1.2,1C53,44.6,53.4,44.3,53.7,44z"/>
		</g>
	</g>
	<g>
		<g>
			<path class="st4" d="M10,58h5.3l2.9,9.2c0.4,1.3,0.7,2.7,0.8,2.8h0.1c0-0.1,0.4-1.5,0.8-2.8l2.8-9.2h4.9l-6.4,17.5h-4.6L10,58z"
				/>
			<path class="st4" d="M26.7,68.9c0-4.3,3.1-6.7,6.7-6.7c3.9,0,5.9,2.4,5.9,6.8c0,0.5,0,0.9-0.1,1.5h-7.6c0.3,1.3,1.1,1.9,2.6,1.9
				c1.7,0,2.5-0.4,3.1-0.7l1.4,2.8c-1,0.5-2.2,1.2-5,1.2C29.4,75.8,26.7,73.2,26.7,68.9z M34.8,67.4c0-1.2-0.4-2-1.5-2
				c-1.1,0-1.6,0.6-1.8,2H34.8z"/>
			<path class="st4" d="M40.6,69c0-4.3,2.9-6.8,7.2-6.8c2.1,0,3.3,0.5,3.9,0.9l-1.3,3.1c-0.5-0.3-1.3-0.5-2.4-0.5
				c-1.6,0-2.6,1.1-2.6,3.2c0,2.1,0.9,3.4,2.7,3.4c1.3,0,2-0.4,2.4-0.6l1.3,3c-0.6,0.4-1.7,1-4.1,1C43.5,75.8,40.6,73.3,40.6,69z"/>
			<path class="st4" d="M53.4,58.8c0-1.4,1.1-2.6,2.6-2.6c1.6,0,2.6,1.2,2.6,2.6c0,1.4-1.1,2.6-2.6,2.6
				C54.5,61.4,53.4,60.2,53.4,58.8z M53.7,62.5h4.7v12.9h-4.7V62.5z"/>
			<path class="st4" d="M61.2,62.5h4.5V64c0.7-0.8,1.9-1.8,3.9-1.8c2.8,0,3.8,1.8,3.8,4.3v8.9h-4.6v-7.9c0-1-0.4-1.4-1.3-1.4
				c-0.9,0-1.5,0.7-1.8,1v8.3h-4.6V62.5z"/>
			<path class="st4" d="M75.4,72c0-3.3,3.2-4.7,6.7-4.7h0.4v-0.4c0-0.7-0.3-1.1-1.7-1.1c-1.5,0-2.7,0.8-3.2,1.1l-1.8-2.8
				c0.8-0.8,2.7-1.9,5.6-1.9c4,0,5.7,1.4,5.7,5.2V71c0,2.1,0.2,3.5,0.4,4.5H83c-0.1-0.3-0.2-0.9-0.3-1.3c-0.5,0.7-1.6,1.6-3.4,1.6
				C77.2,75.8,75.4,74.5,75.4,72z M82.5,71.9V70h-0.4c-1.5,0-2.4,0.5-2.4,1.5c0,0.6,0.5,1,1.3,1C81.8,72.5,82.2,72.2,82.5,71.9z"/>
		</g>
	</g>
</g>
</svg>
