<?xml version="1.0" encoding="utf-8"?>
<!-- Generator: Adobe Illustrator 23.0.3, SVG Export Plug-In . SVG Version: 6.00 Build 0)  -->
<svg version="1.1" id="Layer_1" xmlns="http://www.w3.org/2000/svg" xmlns:xlink="http://www.w3.org/1999/xlink" x="0px" y="0px"
	 viewBox="0 0 100 100" style="enable-background:new 0 0 100 100;" xml:space="preserve">
<style type="text/css">
	.st0{fill-rule:evenodd;clip-rule:evenodd;fill:#F8ED3B;}
	.st1{fill-rule:evenodd;clip-rule:evenodd;}
</style>
<g>
	<rect x="10" y="10" class="st0" width="80" height="80"/>
	<path class="st1" d="M60.93,69.37l0.03,6.55c0.05,0.63,0.14,0.98,0.26,1.24c0.89,1.93,3.95,1.76,5.74,0.6l-0.79-1.65
		c-0.59,0.22-1.28,0.71-2.11,0.45c-0.74-0.22-0.68-1.09-0.68-1.95c0-1.77,0-3.53,0-5.3l4.95,0.01l3.98,9.07
		c0.08,0.4-0.8,1.96-0.99,2.22c-1.38,1.93-2.66,1.12-3.76,0.87l-0.54,1.96c2.1,0.8,4.29,0.5,5.52-0.83c1.09-1.19,1.72-2.85,2.4-4.7
		l3.81-10.55h-2.53l-2.68,8.11c-0.27-0.3-2.34-5.49-2.72-6.38c-0.52-1.2-1.27-1.72-2.86-1.73c-1.5-0.01-3.01,0-4.55,0v-3.26
		c-0.53,0.12-2.04,0.57-2.44,0.78v2.44l-1.96,0.03l0.01,1.95L60.93,69.37z M55.95,16.1c12.52,0,20.75,10.07,18.38,22.51
		c-2.37,12.44-14.46,22.51-26.98,22.51c-12.53,0-20.76-10.07-18.39-22.51C31.35,26.17,43.42,16.1,55.95,16.1L55.95,16.1z
		 M61.93,19.02c7.75,2.71,12.25,10.46,10.5,19.59C70.41,49.25,60.63,58.01,50,59.13c-0.84-0.03-0.86-0.5-0.89-1.21
		c0.04-1.47,0.1-2.96,0.14-4.43c0.01-0.22-0.07-0.29-0.16-0.31c-1.09-0.11-2.17-0.35-3.23-0.68c-1.14-0.45-2.3-1.1-3.46-1.85
		c-0.53-0.26-0.46-1.48-0.45-1.96c0.1-0.87,0.74-2.9,1.77-3c1.24-0.07,1.83,0.59,3.05,1.19c2.15,1.02,5.16,1.62,7.4,0.57
		c1.08-0.65,1.34-1.54,0.83-2.66c-0.87-1.83-5.05-3.32-6.95-4.24c-4.54-1.93-7.07-5.86-6.27-10.53c0.6-3.45,3.83-6.06,7.21-6.54
		c0-0.54,0-1.09,0-1.65c-4.17,1.21-7.34,3.61-10.19,6.4c-4.13,4.03-6.55,9.13-6.76,15.64c0.33,7.97,4.47,11.5,8.8,14.14
		c-7.44-2.87-11.69-10.48-9.99-19.4c2.08-10.93,12.33-19.86,23.3-20.59c0.44,0.26,0.46,0.3,0.7,0.89c-0.1,1.38-0.18,2.75-0.27,4.13
		c2.17,0.44,4.21,1.05,5.86,2.45c0.05,3.16-2.32,4.48-3.22,4.01c0.04-0.15-3.57-1.14-4.32-1.32c-0.91-0.15-1.81-0.1-2.71,0.31
		c-1.06,0.5-1.57,1.25-1.06,2.42c0.44,0.87,1.16,1.44,1.95,1.93c2.28,1.23,4.55,2.47,6.83,3.69c1.96,1.1,3.36,2.53,4.26,4.26
		c0.65,1.72,0.8,3.46,0.42,5.23c-0.45,1.44-0.99,2.7-1.83,3.49c-0.69,0.79-1.46,1.4-2.28,1.84c-1.16,0.61-2.32,1.16-3.52,1.35
		c-0.04,0.74-0.07,1.46-0.11,2.19c0.1,0.05,0.19,0.03,0.3,0c2.57-0.83,4.84-2.29,7.04-3.88c2.86-2.52,5.53-5.16,6.93-8.58
		c0.95-1.91,1.69-4.02,2.04-6.5C71.96,28.99,69.43,22.45,61.93,19.02L61.93,19.02z M33.13,67.38l0.03-2.43
		c-0.03-0.86,0.75-2.19,1.81-2.68c0.98-0.45,2.85-0.48,3.77,0.12l-0.45,1.92c-2.77-0.61-2.75-0.1-2.75,3.07h3.01l-0.78,1.92
		l-2.23,0.01v9.05c-0.45,0.05-2.02,0.08-2.41-0.03v-9.01l-1.21-0.03l-0.75-1.91L33.13,67.38z M49.4,73.17
		c0.15,6.47,7.18,6.12,9.07,4.4c-0.07-0.27-0.55-1.49-0.71-1.65c-1.29,0.53-2.56,1.13-4.13,0.35c-2.44-1.2-2.26-5.74,0.2-6.87
		c0.95-0.44,2.27-0.4,3.27,0.03c0.35,0.16,0.61,0.34,0.9,0.46v-2.1c-1.44-0.57-2.49-0.95-4.32-0.54
		C50.94,67.9,49.35,70.42,49.4,73.17L49.4,73.17z M23.76,71.73c0.18-1.47,0.74-2.68,2.3-2.71c1.51-0.03,2.23,1.23,2.3,2.74
		L23.76,71.73z M30.52,77.57l-0.68-1.61c-0.64,0.18-1.04,0.49-1.87,0.64c-2.17,0.37-4.13-0.64-4.17-3.11h7.04
		c0-2.47-0.44-5.3-3.19-6.16c-1.27-0.41-2.82-0.26-3.87,0.37c-3.81,2.29-3.62,10.99,3.07,10.91C28.13,78.61,29.77,78.26,30.52,77.57
		L30.52,77.57z M41.06,71.76c0.12-1.49,0.8-2.73,2.33-2.74c1.47,0,2.22,1.28,2.23,2.74H41.06z M38.61,73.34
		c0.26,4.07,3.42,5.99,7.3,5.08c0.86-0.2,1.27-0.53,1.91-0.75l-0.68-1.72c-0.98,0.3-2.25,1.14-4.02,0.53
		c-1.17-0.42-1.99-1.44-2.03-2.97l7.06-0.01c0-3.22-0.97-6.36-4.67-6.39C39.85,67.07,38.42,70.12,38.61,73.34L38.61,73.34z"/>
</g>
</svg>
