<?xml version="1.0" encoding="utf-8"?>
<!-- Generator: Adobe Illustrator 22.1.0, SVG Export Plug-In . SVG Version: 6.00 Build 0)  -->
<svg version="1.1" id="Layer_1" xmlns="http://www.w3.org/2000/svg" xmlns:xlink="http://www.w3.org/1999/xlink" x="0px" y="0px"
	 viewBox="0 0 100 100" style="enable-background:new 0 0 100 100;" xml:space="preserve">
<style type="text/css">
	.st0{fill:#FFCD00;}
	.st1{fill:#717274;}
	.st2{fill:#010101;}
</style>
<g>
	<polygon class="st0" points="10,52.9 10,37.1 35.8,37.1 35.8,52.9 22.6,48.4 	"/>
	<polygon class="st0" points="10,54.7 22.8,50.4 35.9,55 35.9,63.6 10,63.6 	"/>
	<g>
		<path class="st1" d="M50.9,37.4v4.1h-0.3c-0.4-1.1-0.9-2-1.6-2.6c-0.7-0.6-1.5-0.9-2.4-0.9c-0.8,0-1.5,0.2-2.1,0.7
			c-0.5,0.5-0.9,1.2-1.2,2.1c-0.2,0.9-0.3,1.8-0.3,2.7c0,1.1,0.1,2.1,0.4,3c0.2,0.8,0.7,1.5,1.2,1.9c0.6,0.4,1.2,0.6,2,0.6
			c0.3,0,0.5,0,0.8-0.1c0.3-0.1,0.6-0.1,0.9-0.3v-2.4c0-0.5,0-0.8-0.1-0.9c-0.1-0.1-0.2-0.3-0.4-0.4c-0.2-0.1-0.4-0.2-0.7-0.2h-0.3
			v-0.3h5.4v0.3c-0.4,0-0.7,0.1-0.8,0.2c-0.2,0.1-0.3,0.2-0.4,0.4c0,0.1-0.1,0.4-0.1,0.8v2.4c-0.7,0.3-1.4,0.6-2.2,0.8
			c-0.8,0.2-1.6,0.3-2.4,0.3c-1,0-1.9-0.2-2.6-0.5c-0.7-0.3-1.3-0.7-1.8-1.2c-0.5-0.5-0.9-1-1.2-1.7c-0.4-0.8-0.6-1.7-0.6-2.7
			c0-1.8,0.6-3.3,1.7-4.5c1.2-1.2,2.6-1.8,4.4-1.8c0.5,0,1,0,1.5,0.1c0.2,0,0.6,0.2,1.2,0.4c0.5,0.2,0.8,0.3,0.9,0.3
			c0.2,0,0.3-0.1,0.4-0.2c0.1-0.1,0.2-0.3,0.4-0.7H50.9z"/>
		<path class="st1" d="M56,41.3v1.8c0.5-0.8,0.9-1.4,1.3-1.7c0.4-0.3,0.7-0.4,1.1-0.4c0.3,0,0.5,0.1,0.7,0.3
			c0.2,0.2,0.3,0.5,0.3,0.8c0,0.4-0.1,0.7-0.3,0.9s-0.4,0.3-0.6,0.3c-0.3,0-0.5-0.1-0.7-0.3c-0.2-0.2-0.3-0.3-0.4-0.3
			c-0.1,0-0.1-0.1-0.2-0.1c-0.2,0-0.3,0.1-0.4,0.2c-0.2,0.2-0.4,0.5-0.5,0.8c-0.2,0.6-0.3,1.2-0.3,1.9v1.9l0,0.5
			c0,0.3,0,0.5,0.1,0.6c0.1,0.2,0.2,0.3,0.3,0.3c0.1,0.1,0.3,0.1,0.6,0.1v0.3h-4.1v-0.3c0.3,0,0.6-0.1,0.7-0.3
			c0.1-0.2,0.2-0.6,0.2-1.3V43c0-0.5,0-0.8-0.1-0.9c-0.1-0.2-0.1-0.3-0.2-0.4c-0.1-0.1-0.3-0.1-0.5-0.2v-0.3H56z"/>
		<path class="st1" d="M67.6,41.3v6.3c0,0.6,0.1,1,0.2,1.2c0.1,0.2,0.3,0.2,0.7,0.3v0.3h-3.1v-1.1c-0.4,0.5-0.7,0.8-1.1,1
			c-0.4,0.2-0.8,0.3-1.2,0.3c-0.4,0-0.8-0.1-1.1-0.4c-0.3-0.3-0.6-0.6-0.7-1c-0.1-0.4-0.2-1-0.2-2V43c0-0.6-0.1-1-0.2-1.1
			c-0.1-0.1-0.3-0.2-0.7-0.3v-0.3h3.1v5.5c0,0.6,0,0.9,0.1,1.1c0.1,0.2,0.1,0.3,0.2,0.4c0.1,0.1,0.2,0.1,0.4,0.1
			c0.2,0,0.4-0.1,0.5-0.2c0.2-0.1,0.5-0.5,0.8-0.9V43c0-0.6-0.1-1-0.2-1.1c-0.1-0.1-0.3-0.2-0.7-0.3v-0.3H67.6z"/>
		<path class="st1" d="M72.5,48.5v3c0,0.4,0,0.7,0.1,0.8c0.1,0.1,0.2,0.3,0.3,0.3c0.1,0.1,0.4,0.1,0.8,0.1v0.3h-4.3v-0.3
			c0.3,0,0.6-0.1,0.7-0.3c0.1-0.1,0.2-0.5,0.2-1V43c0-0.6-0.1-0.9-0.2-1.1c-0.1-0.2-0.4-0.2-0.7-0.3v-0.3h3.2v1.1
			c0.3-0.4,0.5-0.7,0.8-0.9c0.4-0.3,0.8-0.4,1.3-0.4c0.6,0,1.1,0.2,1.5,0.6c0.5,0.4,0.8,0.9,1,1.6c0.2,0.7,0.4,1.4,0.4,2.1
			c0,0.8-0.1,1.6-0.4,2.2c-0.2,0.7-0.6,1.2-1.1,1.5c-0.5,0.4-1,0.5-1.6,0.5c-0.4,0-0.8-0.1-1.2-0.3C73.1,49.2,72.8,48.9,72.5,48.5z
			 M72.5,47.7c0.5,0.7,1,1.1,1.5,1.1c0.3,0,0.5-0.2,0.7-0.5c0.3-0.5,0.4-1.4,0.4-2.8c0-1.4-0.2-2.3-0.5-2.9
			c-0.2-0.3-0.5-0.5-0.8-0.5c-0.5,0-1,0.4-1.3,1.3V47.7z"/>
		<path class="st1" d="M82.4,41c0.7,0,1.3,0.2,1.8,0.5c0.6,0.4,1,0.9,1.3,1.5c0.3,0.7,0.4,1.4,0.4,2.2c0,1.1-0.3,2.1-0.8,2.9
			c-0.7,0.9-1.6,1.4-2.7,1.4c-1.1,0-2-0.4-2.6-1.3c-0.6-0.9-0.9-1.8-0.9-3c0-1.2,0.3-2.2,0.9-3C80.4,41.5,81.3,41,82.4,41z
			 M82.4,41.7c-0.3,0-0.5,0.1-0.7,0.3c-0.2,0.2-0.3,0.7-0.4,1.3c-0.1,0.7-0.1,1.6-0.1,2.7c0,0.6,0,1.2,0.1,1.7
			c0.1,0.4,0.2,0.7,0.4,0.9c0.2,0.2,0.4,0.3,0.7,0.3c0.2,0,0.4-0.1,0.6-0.2c0.2-0.2,0.4-0.5,0.4-0.8c0.1-0.5,0.2-1.7,0.2-3.3
			c0-1-0.1-1.7-0.2-2c-0.1-0.4-0.3-0.6-0.5-0.8C82.8,41.7,82.6,41.7,82.4,41.7z"/>
	</g>
	<g>
		<path class="st2" d="M46.4,60l2.7-6.9h4v0.3h-0.3c-0.3,0-0.5,0.1-0.7,0.2c-0.1,0.1-0.2,0.2-0.3,0.4c-0.1,0.1-0.1,0.4-0.1,1v6.9
			c0,0.5,0,0.9,0.1,1c0.1,0.1,0.2,0.2,0.3,0.3c0.2,0.1,0.4,0.1,0.7,0.1H53v0.3h-5.1v-0.3h0.3c0.3,0,0.5-0.1,0.7-0.2
			c0.1-0.1,0.2-0.2,0.3-0.4c0.1-0.1,0.1-0.4,0.1-1v-7.7l-3.7,9.5h-0.2l-3.8-9.4v7.3c0,0.5,0,0.8,0,0.9c0.1,0.3,0.2,0.5,0.4,0.6
			c0.2,0.2,0.5,0.2,1,0.2v0.3h-3.3v-0.3h0.1c0.2,0,0.4,0,0.6-0.1c0.2-0.1,0.3-0.2,0.4-0.3c0.1-0.1,0.2-0.3,0.2-0.6
			c0-0.1,0-0.3,0-0.8v-6.6c0-0.5,0-0.9-0.1-1c-0.1-0.1-0.2-0.2-0.3-0.3c-0.2-0.1-0.4-0.1-0.7-0.1h-0.3v-0.3h4L46.4,60z"/>
		<path class="st2" d="M60.3,56.4V62c0,0.5,0,0.9,0.1,1c0.1,0.1,0.3,0.2,0.6,0.3v0.3h-2.7v-1c-0.3,0.4-0.6,0.7-1,0.9
			c-0.3,0.2-0.7,0.3-1.1,0.3c-0.4,0-0.7-0.1-1-0.4c-0.3-0.2-0.5-0.5-0.6-0.9c-0.1-0.3-0.2-0.9-0.2-1.7V58c0-0.5,0-0.9-0.1-1
			c-0.1-0.1-0.3-0.2-0.6-0.3v-0.3h2.7v4.9c0,0.5,0,0.8,0.1,1c0,0.1,0.1,0.3,0.2,0.3c0.1,0.1,0.2,0.1,0.3,0.1c0.2,0,0.3,0,0.5-0.1
			c0.2-0.1,0.4-0.4,0.7-0.8V58c0-0.5,0-0.9-0.1-1c-0.1-0.1-0.3-0.2-0.6-0.3v-0.3H60.3z"/>
		<path class="st2" d="M64.7,53.8v2.6h1.6v0.8h-1.6v4.4c0,0.4,0,0.7,0.1,0.8c0,0.1,0.1,0.2,0.2,0.3c0.1,0.1,0.2,0.1,0.3,0.1
			c0.3,0,0.6-0.3,0.9-0.8l0.2,0.2c-0.4,1-1,1.5-1.9,1.5c-0.4,0-0.8-0.1-1.1-0.4c-0.3-0.3-0.5-0.5-0.6-0.8c0-0.2-0.1-0.6-0.1-1.4
			v-3.9h-0.9v-0.3c0.6-0.5,1.1-0.9,1.5-1.4c0.4-0.5,0.8-1.1,1.1-1.7H64.7z"/>
		<path class="st2" d="M73.4,56.4V62c0,0.5,0,0.9,0.1,1c0.1,0.1,0.3,0.2,0.6,0.3v0.3h-2.7v-1c-0.3,0.4-0.6,0.7-1,0.9
			c-0.3,0.2-0.7,0.3-1.1,0.3c-0.4,0-0.7-0.1-1-0.4c-0.3-0.2-0.5-0.5-0.6-0.9c-0.1-0.3-0.2-0.9-0.2-1.7V58c0-0.5,0-0.9-0.1-1
			c-0.1-0.1-0.3-0.2-0.6-0.3v-0.3h2.7v4.9c0,0.5,0,0.8,0.1,1c0,0.1,0.1,0.3,0.2,0.3c0.1,0.1,0.2,0.1,0.3,0.1c0.2,0,0.3,0,0.5-0.1
			c0.2-0.1,0.4-0.4,0.7-0.8V58c0-0.5,0-0.9-0.1-1c-0.1-0.1-0.3-0.2-0.6-0.3v-0.3H73.4z"/>
		<path class="st2" d="M78.9,62.5c-0.8,0.8-1.6,1.2-2.2,1.2c-0.4,0-0.7-0.1-1-0.4c-0.3-0.3-0.4-0.6-0.4-1c0-0.5,0.2-1,0.7-1.5
			c0.4-0.4,1.4-1,2.9-1.7v-0.7c0-0.5,0-0.9-0.1-1c-0.1-0.1-0.2-0.3-0.3-0.4c-0.2-0.1-0.3-0.2-0.5-0.2c-0.3,0-0.6,0.1-0.8,0.2
			c-0.1,0.1-0.2,0.2-0.2,0.3c0,0.1,0.1,0.2,0.2,0.4c0.2,0.2,0.3,0.4,0.3,0.6c0,0.3-0.1,0.5-0.3,0.6c-0.2,0.2-0.4,0.3-0.7,0.3
			c-0.3,0-0.6-0.1-0.8-0.3c-0.2-0.2-0.3-0.4-0.3-0.7c0-0.4,0.1-0.7,0.4-1.1s0.7-0.6,1.1-0.8c0.5-0.2,1-0.3,1.5-0.3
			c0.6,0,1.1,0.1,1.5,0.4c0.4,0.3,0.6,0.6,0.7,0.9c0.1,0.2,0.1,0.7,0.1,1.5v2.8c0,0.3,0,0.5,0,0.6c0,0.1,0.1,0.1,0.1,0.2
			c0,0,0.1,0.1,0.2,0.1c0.1,0,0.3-0.1,0.4-0.3l0.2,0.2c-0.2,0.4-0.5,0.7-0.7,0.8c-0.3,0.2-0.5,0.3-0.9,0.3c-0.4,0-0.7-0.1-0.9-0.3
			C79,63.2,78.9,62.9,78.9,62.5z M78.9,62v-2.4c-0.6,0.4-1,0.8-1.3,1.2c-0.2,0.3-0.3,0.6-0.3,0.8c0,0.2,0.1,0.4,0.2,0.6
			c0.1,0.1,0.3,0.2,0.5,0.2C78.3,62.4,78.6,62.3,78.9,62z"/>
		<path class="st2" d="M85.2,53.2v8.9c0,0.5,0.1,0.8,0.2,1c0.1,0.1,0.3,0.2,0.6,0.2v0.3h-3.6v-0.3c0.3,0,0.5-0.1,0.7-0.3
			c0.1-0.1,0.1-0.4,0.1-0.9v-7.4c0-0.5-0.1-0.8-0.2-1c-0.1-0.1-0.3-0.2-0.6-0.2v-0.3H85.2z"/>
	</g>
	<g>
		<path class="st1" d="M87.7,36.2c0.4,0,0.8,0.1,1.1,0.3c0.4,0.2,0.7,0.5,0.9,0.9c0.2,0.4,0.3,0.8,0.3,1.2c0,0.4-0.1,0.8-0.3,1.2
			c-0.2,0.4-0.5,0.7-0.9,0.9c-0.4,0.2-0.8,0.3-1.2,0.3c-0.4,0-0.8-0.1-1.2-0.3c-0.4-0.2-0.7-0.5-0.9-0.9c-0.2-0.4-0.3-0.8-0.3-1.2
			c0-0.4,0.1-0.8,0.3-1.2c0.2-0.4,0.5-0.7,0.9-0.9C86.9,36.3,87.3,36.2,87.7,36.2z M87.7,36.5c-0.3,0-0.7,0.1-1,0.3
			c-0.3,0.2-0.6,0.5-0.8,0.8c-0.2,0.3-0.3,0.7-0.3,1.1c0,0.4,0.1,0.7,0.3,1.1c0.2,0.3,0.4,0.6,0.8,0.8c0.3,0.2,0.7,0.3,1,0.3
			c0.4,0,0.7-0.1,1-0.3c0.3-0.2,0.6-0.5,0.8-0.8c0.2-0.3,0.3-0.7,0.3-1.1c0-0.4-0.1-0.7-0.3-1.1c-0.2-0.3-0.4-0.6-0.8-0.8
			C88.4,36.6,88,36.5,87.7,36.5z M86.4,37.2h1.2c0.4,0,0.7,0.1,0.8,0.2c0.2,0.1,0.3,0.3,0.3,0.6c0,0.2,0,0.3-0.1,0.4
			c-0.1,0.1-0.2,0.2-0.4,0.3l0.4,0.9c0.1,0.1,0.1,0.2,0.2,0.3c0,0,0.1,0.1,0.1,0.1V40h-0.8l-0.7-1.3h-0.2v0.7c0,0.2,0,0.3,0.1,0.4
			c0,0.1,0.2,0.1,0.3,0.1V40h-1.4v-0.1c0.1,0,0.2,0,0.3-0.1c0.1-0.1,0.1-0.2,0.1-0.4v-1.6c0-0.2,0-0.3-0.1-0.4
			c0-0.1-0.1-0.1-0.2-0.1V37.2z M87.4,38.6c0.1,0,0.1,0,0.2,0c0.1,0,0.3-0.1,0.4-0.2c0.1-0.1,0.2-0.3,0.2-0.5c0-0.2,0-0.3-0.1-0.4
			c-0.1-0.1-0.2-0.2-0.4-0.2h-0.1V38.6z"/>
	</g>
</g>
</svg>
