<?xml version="1.0" encoding="utf-8"?>
<!-- Generator: Adobe Illustrator 22.1.0, SVG Export Plug-In . SVG Version: 6.00 Build 0)  -->
<svg version="1.1" id="Layer_1" xmlns="http://www.w3.org/2000/svg" xmlns:xlink="http://www.w3.org/1999/xlink" x="0px" y="0px"
	 viewBox="0 0 100 100" style="enable-background:new 0 0 100 100;" xml:space="preserve">
<style type="text/css">
	.st0{fill-rule:evenodd;clip-rule:evenodd;fill:#314A9F;}
	.st1{fill-rule:evenodd;clip-rule:evenodd;fill:#00A64F;}
</style>
<g>
	<path class="st0" d="M10,57h12.4c1,0,1.7-0.8,1.7-1.8V43H11.7c-1,0-1.7,0.8-1.7,1.8V57L10,57z M13.3,54.8l7.4-1.3v-7.7l-7.4,1.3
		V54.8L13.3,54.8z"/>
	<path class="st1" d="M61.6,48.7c1.2,0,2.1,1,2.1,2.6c0,1.6-0.9,2.7-2.1,2.7c-0.6,0-1.2-0.3-1.6-0.8c-0.4-0.5-0.5-1.1-0.5-1.7
		c0-0.8,0.1-1.4,0.4-1.9C60.3,49,60.9,48.7,61.6,48.7L61.6,48.7z M59.6,45l0,3.4c1-1,2.1-1.2,3.4-0.9c1.5,0.4,2.4,1.9,2.4,3.9
		c0,2.5-1.7,4.1-3.8,4.1c-2.3,0-3.9-1.6-3.9-3.9V45H59.6L59.6,45z M56.2,47.1h0.5v1.8h-0.5l0,0v0c-0.4,0-0.8,0.2-1,0.4
		c-0.3,0.3-0.4,0.6-0.4,1h0l0,0v5H53v-5l0,0h0c0-0.9,0.4-1.7,1-2.3C54.5,47.4,55.3,47.1,56.2,47.1L56.2,47.1L56.2,47.1L56.2,47.1z
		 M49.1,52.2h-2.6c0,0.1,0.1,0.2,0.1,0.3c0.3,0.8,1,1.2,1.8,1.4l0,0h0c0.1,0,0.2,0,0.3,0c0.1,0,0.2,0,0.3,0l0,0
		c0.9,0,1.5-0.3,1.9-0.5c0.1,0.4,0,1,0,1.2c-0.2,0.8-1.5,0.8-2,0.8v0c-0.2,0-0.3,0-0.5,0c-0.2,0-0.3,0-0.5-0.1l0,0
		c-2.1-0.4-3.3-2.2-3.2-4.2v0v0l0,0c0.1-1.7,1-3.2,2.6-3.7h0l0,0l0,0c1.3-0.4,2.5,0,3.3,0.7c0.2,0.1,0.3,0.3,0.4,0.5
		c0.1,0.2,0.2,0.3,0.3,0.5l0,0l0,0l0,0c0.2,0.4,0.3,0.7,0.3,1.1c0,0.4-0.1,0.8-0.4,1.1c-0.2,0.3-0.5,0.5-0.8,0.6v0
		C50.2,52.1,49.6,52.2,49.1,52.2L49.1,52.2z M46.4,50.9h2.7c0.6,0,1.3-0.3,1-1.1l0,0l0,0l0,0c0-0.1-0.1-0.2-0.1-0.3
		c-0.1-0.1-0.1-0.2-0.2-0.3c-0.4-0.4-1.1-0.7-1.9-0.5v0l0,0l0,0c-0.1,0-0.2,0.1-0.4,0.2c-0.1,0.1-0.2,0.1-0.3,0.2
		C46.8,49.4,46.6,50.1,46.4,50.9L46.4,50.9z M41.7,45v2.1h3l-0.1,0.7c-0.1,0.6-0.4,0.8-1.1,0.8h-1.8v3.9l0,0c0,0.1,0,0.4,0,0.5
		c0.1,0.6,0.5,0.8,1,0.8c0.6,0.1,1.5,0,1.9-0.2c0.1,0.7,0,1.5-0.4,1.7c-0.4,0.1-1.1,0.2-1.6,0.2c-0.2,0-0.5,0-0.8-0.1
		c-0.4-0.1-1-0.4-1.3-0.7c-0.6-0.6-0.6-1.4-0.6-2.1l0,0V45H41.7L41.7,45z M34.6,47.1h0.7l0,0v0c0.9,0,1.7,0.4,2.3,0.9
		c0.6,0.6,1,1.4,1,2.3l0,0l0,0v5h-1.8v-5l0,0h0c0-0.4-0.2-0.8-0.4-1c-0.3-0.3-0.6-0.4-1-0.4v0l0,0h-0.7l0,0v0c-0.4,0-0.8,0.2-1,0.4
		c-0.3,0.3-0.4,0.6-0.4,1h0l0,0v5h-1.8v-5l0,0l0,0c0-0.9,0.4-1.7,1-2.3C32.8,47.4,33.7,47.1,34.6,47.1L34.6,47.1L34.6,47.1
		L34.6,47.1z M27.8,44.9h1.8v10.5h-1.8V44.9L27.8,44.9z M77.3,47.1h0.6h0v0c0.9,0,1.7,0.4,2.3,0.9c0.6,0.6,1,1.4,1,2.3h0l0,0v5h-1.8
		v-5l0,0h0c0-0.4-0.2-0.8-0.4-1c-0.3-0.3-0.6-0.4-1-0.4v0h0h-0.6h0v0c-0.4,0-0.8,0.2-1,0.4c-0.3,0.3-0.4,0.6-0.4,1h0l0,0v5H74v-5
		l0,0h0c0-0.9,0.4-1.7,1-2.3C75.6,47.4,76.4,47.1,77.3,47.1L77.3,47.1L77.3,47.1L77.3,47.1z M82.7,44.9h1.8v10.5h-1.8V44.9
		L82.7,44.9z M89.6,47.4h-1.8l-3.3,3.7l3.7,4.2H90l-3.7-4.2L89.6,47.4L89.6,47.4z M71.2,51.8L71.2,51.8c-0.4,0-0.8,0-1.2,0
		c-0.7,0-1.1,0.1-1.5,0.2c-0.4,0.2-0.6,0.5-0.6,0.8l0,0v0.1l0,0c-0.1,0.6,0.3,1.1,0.9,1.2h0v0c0.7,0.1,1.3,0,1.7-0.2
		c0.3-0.1,0.6-0.5,0.7-1C71.2,52.6,71.2,52.1,71.2,51.8L71.2,51.8z M68.9,47.1c0.9-0.1,2,0,2.7,0.6c0.3,0.2,0.5,0.5,0.8,0.9
		c0.2,0.4,0.2,0.9,0.3,1.4v2.4c0,1.2-0.4,2.3-1.6,2.8c-0.4,0.2-0.8,0.3-1.3,0.3c-2.1,0.1-3.6-1-3.4-2.9c0.1-1.4,1.3-1.9,2.6-2
		c0.6,0,1.8,0.1,2.2,0c0-0.4-0.1-1-0.2-1.2c-0.1-0.2-0.3-0.5-0.6-0.6c-0.4-0.2-1-0.2-1.5-0.2c-0.6,0-1.1,0.1-1.8,0.5l0-0.7
		c0-0.2,0-0.5,0.1-0.7C67.4,47.3,68.4,47.2,68.9,47.1L68.9,47.1z"/>
</g>
</svg>
