<?xml version="1.0" encoding="utf-8"?>
<!-- Generator: Adobe Illustrator 24.0.0, SVG Export Plug-In . SVG Version: 6.00 Build 0)  -->
<svg version="1.1" id="Layer_1" xmlns="http://www.w3.org/2000/svg" xmlns:xlink="http://www.w3.org/1999/xlink" x="0px" y="0px"
	 viewBox="0 0 100 100" style="enable-background:new 0 0 100 100;" xml:space="preserve">
<style type="text/css">
	.st0{fill:#25395E;}
	.st1{fill-rule:evenodd;clip-rule:evenodd;fill:#25395E;}
</style>
<g>
	<g>
		<g>
			<path class="st0" d="M30.54,46.38h1.31l1.67,7.42l4.46-7.42h0.22l1.82,7.42l4.34-7.42h1.33l-6.04,10.11h-0.24l-1.82-7.33
				l-4.42,7.33h-0.24L30.54,46.38z"/>
			<path class="st0" d="M56.44,46.38l-1.72,9.77h-1.23l0.29-1.67c-1.35,1.34-2.78,2.01-4.27,2.01c-1.37,0-2.47-0.51-3.27-1.54
				c-0.81-1.02-1.09-2.25-0.83-3.67c0.25-1.41,0.96-2.62,2.13-3.64c1.17-1.01,2.45-1.52,3.84-1.52c1.6,0,2.77,0.68,3.53,2.04
				l0.31-1.79H56.44z M54.41,51.31c0.2-1.12-0.01-2.06-0.62-2.83c-0.61-0.77-1.46-1.15-2.54-1.15c-1.09,0-2.08,0.4-2.97,1.19
				c-0.89,0.79-1.42,1.72-1.61,2.79c-0.19,1.09,0.02,2.03,0.64,2.83c0.62,0.79,1.47,1.19,2.53,1.19c1.05,0,2.03-0.38,2.93-1.14
				C53.66,53.43,54.21,52.47,54.41,51.31z"/>
			<path class="st0" d="M59.3,42.61h1.25l-2.39,13.55h-1.25L59.3,42.61z"/>
			<path class="st0" d="M62.52,42.61h1.25l-2.39,13.55h-1.25L62.52,42.61z"/>
			<path class="st0" d="M72.33,52.99l0.97,0.55c-1.4,1.96-3.13,2.94-5.19,2.94c-1.47,0-2.6-0.51-3.38-1.52
				c-0.78-1.01-1.05-2.23-0.8-3.64c0.25-1.44,0.95-2.66,2.1-3.68c1.14-1.02,2.42-1.53,3.83-1.53c1.42,0,2.53,0.47,3.33,1.42
				c0.8,0.95,1.07,2.23,0.82,3.87h-8.8c-0.17,1.18,0.03,2.13,0.61,2.84c0.58,0.72,1.37,1.08,2.38,1.08
				C69.85,55.33,71.23,54.55,72.33,52.99z M72.8,50.32c-0.01-0.93-0.31-1.66-0.9-2.19c-0.59-0.53-1.34-0.79-2.23-0.79
				c-1.84,0-3.22,0.99-4.13,2.98H72.8z"/>
			<path class="st0" d="M78.54,42.61h1.27l-0.67,3.77h1.99l-0.19,1.07h-1.99l-1.53,8.71h-1.27l1.54-8.71h-1.73l0.19-1.07h1.73
				L78.54,42.61z"/>
		</g>
	</g>
	<path class="st0" d="M84.26,54.5c0,0.91-0.74,1.65-1.65,1.65c-0.91,0-1.65-0.74-1.65-1.65c0-0.91,0.74-1.65,1.65-1.65
		C83.52,52.85,84.26,53.59,84.26,54.5z"/>
	<path class="st0" d="M89.81,54.5c0,0.91-0.74,1.65-1.65,1.65c-0.91,0-1.65-0.74-1.65-1.65c0-0.91,0.74-1.65,1.65-1.65
		C89.07,52.85,89.81,53.59,89.81,54.5z"/>
	<path class="st1" d="M20.51,40.77c-0.18,1.68,1.19,2.48,2.42,2.54c2.69,0.12,4.75-2.88,3.34-5.54
		C24.11,36.71,20.7,38.98,20.51,40.77z"/>
	<path class="st1" d="M23.85,55.18c-1.3,1.17-2.88,2.34-4.73,2.77c-1.72,0.4-3.63,0.16-3.8-1.27c-0.31-2.55,4.17-3.73,6.34-6
		c2.63-2.74,1.19-7.78-3.46-7.26c-2.33,0.26-4.44,1.87-5.65,3.23c-0.05,0.06-0.7,0.52-0.23,0.69c0.76,0.67,1.26-0.34,1.85-0.69
		c0.73-0.44,1.42-0.72,2.31-0.35c0.12,2.16-1.36,3.87-2.65,5.54c-1.33,1.72-2.94,3-3.57,4.96c-0.85,2.59,0.61,4.42,2.88,4.73
		c3.04,0.42,5.4-0.85,7.49-2.31c0.9-0.62,1.98-1.33,2.88-2.08c0.83-0.69,2.26-1.64,1.62-2.88C24.6,54.28,24.27,54.81,23.85,55.18z"
		/>
	<path class="st1" d="M26.27,37.77c1.41,2.66-0.65,5.66-3.34,5.54c-1.23-0.06-2.6-0.86-2.42-2.54
		C20.7,38.98,24.11,36.71,26.27,37.77z"/>
	<path class="st0" d="M30.91,61.53l0.7-3.32h2.4l-0.08,0.39h-1.96l-0.22,1.02h1.83l-0.08,0.39h-1.83l-0.24,1.13h2.04l-0.08,0.39
		H30.91z"/>
	<path class="st0" d="M34,60.53l0.09-0.41h1.25l-0.09,0.41H34z"/>
	<path class="st0" d="M37.24,60.65l0.39,0.05c-0.1,0.28-0.26,0.49-0.47,0.65c-0.21,0.16-0.45,0.23-0.71,0.23
		c-0.33,0-0.57-0.11-0.72-0.32c-0.15-0.22-0.19-0.52-0.1-0.92c0.06-0.26,0.15-0.49,0.27-0.68c0.13-0.19,0.29-0.34,0.49-0.44
		c0.2-0.1,0.4-0.15,0.6-0.15c0.26,0,0.46,0.07,0.6,0.2c0.14,0.13,0.2,0.32,0.2,0.56l-0.41,0.06c0-0.16-0.04-0.28-0.12-0.36
		c-0.08-0.08-0.19-0.12-0.32-0.12c-0.2,0-0.39,0.07-0.55,0.22c-0.16,0.15-0.27,0.38-0.34,0.7c-0.07,0.32-0.06,0.56,0.04,0.7
		c0.09,0.15,0.24,0.22,0.44,0.22c0.16,0,0.3-0.05,0.43-0.15C37.07,61,37.17,60.85,37.24,60.65z"/>
	<path class="st0" d="M37.91,60.32c0.09-0.44,0.29-0.77,0.58-0.99c0.24-0.18,0.52-0.27,0.81-0.27c0.33,0,0.58,0.11,0.74,0.32
		c0.16,0.22,0.21,0.52,0.12,0.9c-0.07,0.31-0.16,0.55-0.29,0.73c-0.13,0.18-0.29,0.31-0.49,0.41c-0.2,0.1-0.4,0.15-0.61,0.15
		c-0.34,0-0.59-0.11-0.75-0.32C37.86,61.04,37.82,60.73,37.91,60.32z M38.33,60.32c-0.07,0.31-0.05,0.54,0.05,0.69
		c0.1,0.15,0.25,0.23,0.46,0.23c0.2,0,0.39-0.08,0.55-0.23c0.17-0.15,0.28-0.39,0.35-0.7c0.06-0.3,0.04-0.52-0.06-0.68
		c-0.1-0.15-0.25-0.23-0.45-0.23c-0.2,0-0.39,0.08-0.56,0.23C38.51,59.79,38.39,60.02,38.33,60.32z"/>
	<path class="st0" d="M40.38,61.53l0.51-2.4h0.36l-0.07,0.34c0.1-0.12,0.22-0.21,0.36-0.28c0.14-0.07,0.29-0.11,0.45-0.11
		c0.18,0,0.32,0.04,0.41,0.11c0.1,0.07,0.16,0.18,0.18,0.31c0.25-0.28,0.53-0.42,0.83-0.42c0.24,0,0.41,0.07,0.51,0.2
		c0.1,0.13,0.12,0.34,0.06,0.61l-0.35,1.65h-0.4l0.32-1.51c0.03-0.16,0.05-0.28,0.03-0.35c-0.01-0.07-0.05-0.13-0.11-0.17
		c-0.06-0.04-0.14-0.07-0.23-0.07c-0.17,0-0.32,0.06-0.46,0.17c-0.14,0.11-0.23,0.29-0.28,0.54l-0.3,1.4h-0.41l0.33-1.56
		c0.04-0.18,0.03-0.32-0.01-0.41c-0.05-0.09-0.15-0.14-0.3-0.14c-0.11,0-0.23,0.03-0.34,0.09c-0.11,0.06-0.2,0.15-0.27,0.26
		c-0.07,0.12-0.13,0.28-0.17,0.5l-0.27,1.25H40.38z"/>
	<path class="st0" d="M44.24,61.53l0.51-2.4h0.36l-0.07,0.34c0.1-0.12,0.22-0.21,0.36-0.28c0.14-0.07,0.29-0.11,0.45-0.11
		c0.18,0,0.32,0.04,0.41,0.11c0.1,0.07,0.16,0.18,0.18,0.31c0.25-0.28,0.53-0.42,0.83-0.42c0.24,0,0.41,0.07,0.51,0.2
		c0.1,0.13,0.12,0.34,0.06,0.61l-0.35,1.65h-0.4l0.32-1.51c0.03-0.16,0.05-0.28,0.03-0.35c-0.01-0.07-0.05-0.13-0.11-0.17
		c-0.06-0.04-0.14-0.07-0.23-0.07c-0.17,0-0.32,0.06-0.46,0.17c-0.14,0.11-0.23,0.29-0.28,0.54l-0.3,1.4h-0.41L46,59.96
		c0.04-0.18,0.03-0.32-0.01-0.41c-0.05-0.09-0.15-0.14-0.3-0.14c-0.11,0-0.23,0.03-0.34,0.09c-0.11,0.06-0.2,0.15-0.27,0.26
		c-0.07,0.12-0.13,0.28-0.17,0.5l-0.27,1.25H44.24z"/>
	<path class="st0" d="M49.91,60.75l0.41,0.05c-0.12,0.25-0.28,0.44-0.49,0.57c-0.21,0.14-0.45,0.2-0.73,0.2
		c-0.35,0-0.61-0.11-0.77-0.32c-0.16-0.22-0.2-0.52-0.12-0.91c0.09-0.4,0.26-0.72,0.51-0.94c0.26-0.22,0.55-0.33,0.88-0.33
		c0.32,0,0.56,0.11,0.72,0.33c0.16,0.22,0.19,0.53,0.11,0.92c-0.01,0.02-0.01,0.06-0.03,0.11h-1.79c-0.04,0.26-0.01,0.47,0.1,0.61
		c0.1,0.14,0.26,0.21,0.46,0.21c0.15,0,0.28-0.04,0.41-0.12C49.7,61.05,49.81,60.92,49.91,60.75z M48.71,60.09h1.34
		c0.02-0.2,0.01-0.35-0.06-0.45c-0.1-0.16-0.25-0.24-0.45-0.24c-0.19,0-0.36,0.06-0.51,0.19C48.88,59.72,48.77,59.88,48.71,60.09z"
		/>
	<path class="st0" d="M50.67,61.53l0.51-2.4h0.37l-0.08,0.36c0.13-0.17,0.24-0.28,0.33-0.34c0.09-0.05,0.18-0.08,0.28-0.08
		c0.14,0,0.27,0.04,0.39,0.13l-0.22,0.38c-0.09-0.06-0.18-0.09-0.28-0.09c-0.09,0-0.17,0.03-0.26,0.08
		c-0.08,0.05-0.15,0.13-0.2,0.22c-0.08,0.14-0.13,0.3-0.17,0.48l-0.27,1.26H50.67z"/>
	<path class="st0" d="M53.97,60.65l0.39,0.05c-0.1,0.28-0.26,0.49-0.47,0.65c-0.21,0.16-0.45,0.23-0.71,0.23
		c-0.33,0-0.57-0.11-0.72-0.32c-0.15-0.22-0.19-0.52-0.1-0.92c0.05-0.26,0.15-0.49,0.27-0.68c0.13-0.19,0.29-0.34,0.49-0.44
		c0.2-0.1,0.4-0.15,0.6-0.15c0.26,0,0.46,0.07,0.6,0.2c0.14,0.13,0.2,0.32,0.2,0.56l-0.41,0.06c0-0.16-0.04-0.28-0.12-0.36
		c-0.08-0.08-0.19-0.12-0.32-0.12c-0.2,0-0.39,0.07-0.55,0.22c-0.16,0.15-0.27,0.38-0.34,0.7c-0.07,0.32-0.06,0.56,0.04,0.7
		c0.09,0.15,0.24,0.22,0.44,0.22c0.16,0,0.3-0.05,0.43-0.15C53.8,61,53.9,60.85,53.97,60.65z"/>
	<path class="st0" d="M56.35,60.75l0.41,0.05c-0.12,0.25-0.28,0.44-0.49,0.57c-0.21,0.14-0.45,0.2-0.73,0.2
		c-0.35,0-0.61-0.11-0.77-0.32c-0.16-0.22-0.2-0.52-0.12-0.91c0.09-0.4,0.26-0.72,0.51-0.94c0.26-0.22,0.55-0.33,0.88-0.33
		c0.32,0,0.56,0.11,0.72,0.33c0.16,0.22,0.19,0.53,0.11,0.92c0,0.02-0.01,0.06-0.03,0.11h-1.79c-0.04,0.26-0.01,0.47,0.09,0.61
		c0.1,0.14,0.26,0.21,0.46,0.21c0.15,0,0.29-0.04,0.41-0.12C56.14,61.05,56.25,60.92,56.35,60.75z M55.15,60.09h1.34
		c0.02-0.2,0.01-0.35-0.06-0.45c-0.1-0.16-0.25-0.24-0.45-0.24c-0.19,0-0.36,0.06-0.51,0.19C55.31,59.72,55.21,59.88,55.15,60.09z"
		/>
	<path class="st0" d="M58.53,60.46l0.42-0.04c-0.02,0.17,0,0.3,0.05,0.41c0.05,0.11,0.14,0.19,0.28,0.26c0.14,0.07,0.3,0.1,0.49,0.1
		c0.17,0,0.32-0.02,0.46-0.07c0.14-0.05,0.25-0.12,0.33-0.2c0.08-0.09,0.13-0.18,0.15-0.28c0.02-0.1,0.01-0.19-0.03-0.27
		c-0.04-0.08-0.13-0.14-0.26-0.2c-0.08-0.03-0.27-0.09-0.56-0.16c-0.29-0.07-0.49-0.14-0.6-0.21c-0.14-0.08-0.24-0.19-0.29-0.31
		c-0.05-0.12-0.06-0.26-0.03-0.41c0.04-0.17,0.12-0.32,0.24-0.47c0.13-0.15,0.29-0.26,0.49-0.33c0.2-0.08,0.41-0.11,0.63-0.11
		c0.25,0,0.45,0.04,0.63,0.12c0.17,0.08,0.29,0.2,0.36,0.35c0.07,0.15,0.09,0.33,0.05,0.52l-0.43,0.03
		c0.02-0.21-0.02-0.37-0.13-0.47c-0.11-0.11-0.29-0.16-0.54-0.16c-0.27,0-0.47,0.05-0.61,0.15c-0.14,0.1-0.23,0.21-0.26,0.35
		c-0.03,0.12,0,0.22,0.07,0.29c0.07,0.08,0.27,0.16,0.61,0.24c0.34,0.08,0.57,0.15,0.69,0.21c0.17,0.09,0.29,0.2,0.36,0.34
		c0.06,0.14,0.08,0.29,0.04,0.47c-0.04,0.18-0.12,0.34-0.26,0.5c-0.13,0.16-0.31,0.28-0.51,0.36c-0.21,0.09-0.43,0.13-0.67,0.13
		c-0.3,0-0.54-0.04-0.73-0.13c-0.18-0.09-0.32-0.22-0.39-0.39C58.51,60.88,58.49,60.68,58.53,60.46z"/>
	<path class="st0" d="M61.28,62.45l0.04-0.38c0.08,0.02,0.16,0.04,0.23,0.04c0.09,0,0.17-0.01,0.23-0.05
		c0.06-0.03,0.11-0.07,0.16-0.13c0.03-0.04,0.1-0.14,0.19-0.3c0.01-0.02,0.03-0.06,0.06-0.1l-0.4-2.41h0.44l0.2,1.39
		c0.03,0.18,0.05,0.36,0.06,0.56c0.09-0.19,0.18-0.37,0.28-0.55l0.81-1.4h0.41l-1.43,2.44c-0.15,0.26-0.27,0.45-0.34,0.55
		c-0.1,0.13-0.2,0.23-0.31,0.3c-0.11,0.06-0.23,0.09-0.35,0.09C61.45,62.5,61.37,62.48,61.28,62.45z"/>
	<path class="st0" d="M63.8,60.81l0.42-0.06c-0.01,0.16,0.02,0.29,0.11,0.37c0.09,0.09,0.22,0.13,0.41,0.13
		c0.19,0,0.33-0.04,0.44-0.11c0.11-0.08,0.17-0.17,0.19-0.27c0.02-0.09,0-0.16-0.07-0.22c-0.05-0.04-0.18-0.08-0.39-0.14
		c-0.28-0.08-0.48-0.14-0.58-0.2c-0.1-0.06-0.17-0.13-0.21-0.23c-0.04-0.1-0.05-0.2-0.02-0.32c0.02-0.11,0.07-0.21,0.14-0.3
		c0.07-0.09,0.15-0.17,0.25-0.23c0.07-0.05,0.17-0.09,0.28-0.12c0.12-0.03,0.24-0.05,0.36-0.05c0.19,0,0.35,0.03,0.48,0.08
		c0.13,0.05,0.22,0.13,0.27,0.22c0.05,0.09,0.07,0.22,0.06,0.37l-0.41,0.05c0.01-0.12-0.02-0.22-0.1-0.29
		c-0.07-0.07-0.19-0.1-0.35-0.1c-0.19,0-0.33,0.03-0.42,0.09c-0.09,0.06-0.15,0.13-0.17,0.22c-0.01,0.05,0,0.1,0.02,0.14
		c0.02,0.04,0.07,0.08,0.13,0.11c0.04,0.02,0.15,0.05,0.34,0.1c0.27,0.08,0.46,0.14,0.56,0.19c0.1,0.05,0.18,0.12,0.22,0.21
		c0.04,0.09,0.05,0.21,0.02,0.35c-0.03,0.14-0.1,0.26-0.2,0.38c-0.1,0.12-0.24,0.21-0.4,0.28c-0.16,0.07-0.34,0.1-0.53,0.1
		c-0.31,0-0.54-0.06-0.67-0.19C63.85,61.26,63.79,61.06,63.8,60.81z"/>
	<path class="st0" d="M67.09,61.16l-0.02,0.36c-0.12,0.02-0.22,0.04-0.32,0.04c-0.15,0-0.26-0.02-0.33-0.07
		c-0.07-0.05-0.12-0.11-0.13-0.18c-0.02-0.08,0-0.24,0.05-0.48l0.29-1.38h-0.3l0.07-0.32h0.3l0.13-0.6l0.46-0.24l-0.18,0.84h0.41
		l-0.07,0.32h-0.41l-0.3,1.41c-0.02,0.12-0.03,0.19-0.03,0.22c0.01,0.03,0.02,0.06,0.05,0.08c0.03,0.02,0.07,0.03,0.13,0.03
		C66.96,61.18,67.02,61.17,67.09,61.16z"/>
	<path class="st0" d="M69.22,60.75l0.41,0.05c-0.12,0.25-0.28,0.44-0.49,0.57s-0.45,0.2-0.73,0.2c-0.35,0-0.61-0.11-0.77-0.32
		c-0.16-0.22-0.2-0.52-0.12-0.91c0.09-0.4,0.26-0.72,0.51-0.94c0.26-0.22,0.55-0.33,0.88-0.33c0.32,0,0.56,0.11,0.72,0.33
		c0.16,0.22,0.19,0.53,0.11,0.92c0,0.02-0.01,0.06-0.03,0.11h-1.79c-0.04,0.26-0.01,0.47,0.09,0.61c0.1,0.14,0.26,0.21,0.46,0.21
		c0.15,0,0.29-0.04,0.41-0.12C69.01,61.05,69.12,60.92,69.22,60.75z M68.03,60.09h1.34c0.02-0.2,0.01-0.35-0.06-0.45
		c-0.1-0.16-0.25-0.24-0.45-0.24c-0.19,0-0.36,0.06-0.51,0.19C68.19,59.72,68.08,59.88,68.03,60.09z"/>
	<path class="st0" d="M69.99,61.53l0.51-2.4h0.36l-0.07,0.34c0.1-0.12,0.22-0.21,0.36-0.28c0.14-0.07,0.29-0.11,0.45-0.11
		c0.18,0,0.32,0.04,0.41,0.11c0.1,0.07,0.16,0.18,0.18,0.31c0.25-0.28,0.53-0.42,0.83-0.42c0.24,0,0.41,0.07,0.51,0.2
		c0.1,0.13,0.12,0.34,0.06,0.61l-0.35,1.65h-0.41l0.32-1.51c0.03-0.16,0.05-0.28,0.03-0.35c-0.01-0.07-0.05-0.13-0.11-0.17
		c-0.06-0.04-0.14-0.07-0.23-0.07c-0.17,0-0.32,0.06-0.46,0.17c-0.14,0.11-0.23,0.29-0.28,0.54l-0.3,1.4h-0.41l0.33-1.56
		c0.04-0.18,0.03-0.32-0.01-0.41c-0.05-0.09-0.15-0.14-0.3-0.14c-0.11,0-0.23,0.03-0.34,0.09c-0.11,0.06-0.2,0.15-0.27,0.26
		c-0.07,0.12-0.13,0.28-0.17,0.5l-0.27,1.25H69.99z"/>
	<path class="st0" d="M74.88,60.51l0.42-0.04c-0.02,0.17,0,0.3,0.05,0.41c0.05,0.11,0.14,0.19,0.28,0.26c0.14,0.07,0.3,0.1,0.49,0.1
		c0.17,0,0.32-0.02,0.46-0.07c0.14-0.05,0.25-0.12,0.33-0.2c0.08-0.09,0.13-0.18,0.15-0.28c0.02-0.1,0.01-0.19-0.03-0.27
		c-0.04-0.08-0.13-0.14-0.26-0.2c-0.08-0.03-0.27-0.09-0.56-0.16c-0.29-0.07-0.49-0.14-0.6-0.21c-0.14-0.08-0.24-0.19-0.29-0.31
		c-0.05-0.12-0.06-0.26-0.03-0.41c0.04-0.17,0.12-0.32,0.24-0.47s0.29-0.26,0.49-0.33c0.2-0.08,0.41-0.11,0.63-0.11
		c0.25,0,0.45,0.04,0.63,0.12c0.17,0.08,0.29,0.2,0.36,0.35c0.07,0.15,0.09,0.33,0.05,0.52l-0.43,0.03
		c0.02-0.21-0.02-0.37-0.13-0.47c-0.11-0.11-0.29-0.16-0.54-0.16c-0.27,0-0.47,0.05-0.61,0.15c-0.14,0.1-0.23,0.21-0.26,0.35
		c-0.03,0.12,0,0.22,0.07,0.29c0.07,0.08,0.27,0.16,0.61,0.24c0.34,0.08,0.57,0.15,0.69,0.21c0.17,0.09,0.29,0.2,0.36,0.34
		c0.06,0.14,0.08,0.29,0.04,0.47c-0.04,0.18-0.12,0.34-0.26,0.5c-0.13,0.16-0.31,0.28-0.51,0.36c-0.21,0.09-0.43,0.13-0.67,0.13
		c-0.3,0-0.54-0.04-0.73-0.13c-0.18-0.09-0.32-0.22-0.39-0.39C74.85,60.93,74.83,60.73,74.88,60.51z"/>
	<path class="st0" d="M79.65,60.8l0.41,0.05c-0.12,0.25-0.28,0.44-0.49,0.57c-0.21,0.14-0.45,0.2-0.73,0.2
		c-0.35,0-0.61-0.11-0.77-0.32c-0.16-0.22-0.2-0.52-0.12-0.91c0.09-0.4,0.26-0.72,0.51-0.94c0.26-0.22,0.55-0.33,0.88-0.33
		c0.32,0,0.56,0.11,0.72,0.33c0.16,0.22,0.19,0.53,0.11,0.92c0,0.02-0.01,0.06-0.03,0.11h-1.79c-0.04,0.26-0.01,0.47,0.09,0.61
		c0.1,0.14,0.26,0.21,0.46,0.21c0.15,0,0.29-0.04,0.41-0.12C79.44,61.1,79.55,60.98,79.65,60.8z M78.45,60.15h1.34
		c0.02-0.2,0.01-0.35-0.06-0.45c-0.1-0.16-0.25-0.24-0.45-0.24c-0.19,0-0.36,0.06-0.51,0.19C78.61,59.77,78.51,59.94,78.45,60.15z"
		/>
	<path class="st0" d="M80.41,61.58l0.51-2.4h0.37l-0.08,0.36c0.13-0.17,0.24-0.28,0.33-0.34c0.09-0.05,0.18-0.08,0.28-0.08
		c0.14,0,0.27,0.04,0.39,0.13l-0.22,0.38c-0.09-0.06-0.18-0.09-0.28-0.09c-0.09,0-0.17,0.03-0.26,0.08
		c-0.08,0.05-0.15,0.13-0.2,0.22c-0.08,0.14-0.13,0.3-0.17,0.48l-0.27,1.26H80.41z"/>
	<path class="st0" d="M82.62,61.58l-0.4-2.4h0.43l0.21,1.44c0.02,0.16,0.04,0.32,0.05,0.48c0.06-0.13,0.15-0.28,0.25-0.46l0.85-1.47
		h0.42L83,61.58H82.62z"/>
	<path class="st0" d="M84.28,61.58l0.51-2.4h0.41l-0.51,2.4H84.28z M84.88,58.73l0.1-0.47h0.41l-0.1,0.47H84.88z"/>
	<path class="st0" d="M87.06,60.7l0.39,0.05c-0.1,0.28-0.26,0.49-0.47,0.65c-0.21,0.16-0.45,0.23-0.71,0.23
		c-0.33,0-0.57-0.11-0.72-0.32c-0.15-0.22-0.19-0.52-0.1-0.92c0.05-0.26,0.15-0.49,0.27-0.68c0.13-0.19,0.29-0.34,0.49-0.44
		s0.4-0.15,0.6-0.15c0.26,0,0.46,0.07,0.6,0.2c0.14,0.13,0.2,0.32,0.2,0.56l-0.41,0.06c0-0.16-0.04-0.28-0.12-0.36
		c-0.08-0.08-0.19-0.12-0.32-0.12c-0.2,0-0.39,0.07-0.55,0.22c-0.16,0.15-0.27,0.38-0.34,0.7c-0.07,0.32-0.06,0.56,0.04,0.7
		c0.09,0.15,0.24,0.22,0.44,0.22c0.16,0,0.3-0.05,0.43-0.15C86.89,61.05,86.99,60.9,87.06,60.7z"/>
	<path class="st0" d="M89.43,60.8l0.41,0.05c-0.12,0.25-0.28,0.44-0.49,0.57c-0.21,0.14-0.45,0.2-0.73,0.2
		c-0.35,0-0.61-0.11-0.77-0.32c-0.16-0.22-0.2-0.52-0.12-0.91c0.09-0.4,0.26-0.72,0.51-0.94c0.26-0.22,0.55-0.33,0.88-0.33
		c0.32,0,0.56,0.11,0.72,0.33c0.16,0.22,0.19,0.53,0.11,0.92c0,0.02-0.01,0.06-0.03,0.11h-1.79c-0.04,0.26-0.01,0.47,0.09,0.61
		c0.1,0.14,0.26,0.21,0.46,0.21c0.15,0,0.29-0.04,0.41-0.12C89.22,61.1,89.33,60.98,89.43,60.8z M88.23,60.15h1.34
		c0.02-0.2,0.01-0.35-0.06-0.45c-0.1-0.16-0.25-0.24-0.45-0.24c-0.19,0-0.36,0.06-0.51,0.19C88.4,59.77,88.29,59.94,88.23,60.15z"/>
</g>
</svg>
