<?xml version="1.0" encoding="utf-8"?>
<!-- Generator: Adobe Illustrator 23.0.3, SVG Export Plug-In . SVG Version: 6.00 Build 0)  -->
<svg version="1.1" id="Layer_1" xmlns="http://www.w3.org/2000/svg" xmlns:xlink="http://www.w3.org/1999/xlink" x="0px" y="0px"
	 viewBox="0 0 100 100" style="enable-background:new 0 0 100 100;" xml:space="preserve">
<style type="text/css">
	.st0{fill:#F37021;}
</style>
<g>
	<path class="st0" d="M41.45,46.73c-0.68-0.74-1.54-1.32-2.53-1.72c-0.98-0.4-2.1-0.6-3.32-0.6c-1.02,0-2.03,0.21-2.98,0.62
		c-0.95,0.41-1.8,0.99-2.53,1.73c-0.73,0.74-1.32,1.63-1.75,2.66c-0.43,1.03-0.65,2.19-0.65,3.46c0,1.34,0.23,2.56,0.68,3.63
		c0.45,1.06,1.06,1.97,1.81,2.71c0.76,0.74,1.64,1.31,2.64,1.69c0.99,0.38,2.05,0.58,3.15,0.58c0.97,0,1.86-0.13,2.66-0.4
		c0.8-0.27,1.52-0.64,2.15-1.11c0.62-0.46,1.16-1.02,1.59-1.65l0.48-0.7l-4.51-1.25l-0.25,0.22c-0.46,0.4-1.17,0.6-2.11,0.6
		c-0.47,0-0.91-0.08-1.32-0.25c-0.41-0.16-0.77-0.39-1.09-0.69c-0.31-0.3-0.57-0.65-0.76-1.05c-0.11-0.21-0.18-0.44-0.24-0.69h10.65
		l0.17-0.34c0.06-0.13,0.09-0.27,0.12-0.6c0.02-0.24,0.03-0.51,0.03-0.81c0-1.24-0.18-2.39-0.53-3.4
		C42.66,48.36,42.13,47.47,41.45,46.73z M32.71,50.7c0.03-0.1,0.08-0.21,0.13-0.31c0.15-0.33,0.36-0.64,0.62-0.9
		c0.25-0.26,0.57-0.47,0.93-0.63c0.36-0.16,0.78-0.24,1.24-0.24c0.53,0,0.99,0.08,1.37,0.23c0.37,0.15,0.69,0.35,0.94,0.6
		c0.24,0.24,0.43,0.53,0.55,0.84c0.05,0.13,0.1,0.27,0.13,0.41H32.71z"/>
	<path class="st0" d="M19.23,38.66v15.17c0,0.85-0.68,1.53-1.54,1.53c-0.85,0-1.54-0.69-1.54-1.53H10c0,4.23,3.44,7.66,7.69,7.66
		c4.25,0,7.69-3.43,7.69-7.66V38.51h-6.15V38.66z"/>
	<path class="st0" d="M89.63,48.5c-0.24-0.78-0.62-1.48-1.11-2.09c-0.5-0.61-1.14-1.1-1.9-1.44c-0.75-0.34-1.65-0.51-2.65-0.51
		c-0.93,0-1.85,0.21-2.74,0.62c-0.39,0.18-0.75,0.42-1.08,0.7v-0.89h-4.71v16.15h4.8v-9.22c0-0.85,0.22-1.55,0.66-2.13
		c0.4-0.53,1.01-0.78,1.83-0.78c0.92,0,1.54,0.23,1.88,0.71c0.38,0.53,0.58,1.2,0.58,1.99v9.44H90V50.98
		C90,50.11,89.87,49.27,89.63,48.5z"/>
	<path class="st0" d="M53.49,56.8c-0.22,0.02-0.44,0.04-0.66,0.04c-0.48,0-0.83-0.1-1.02-0.27c-0.18-0.17-0.27-0.51-0.27-0.98v-6.32
		h3.11v-4.38h-3.11v-4.56h-4.77v4.56h-1.84v4.38h1.84v6.9c0,1.58,0.47,2.83,1.39,3.72c0.91,0.89,2.17,1.34,3.72,1.34
		c0.71,0,1.26-0.05,1.67-0.16c0.5-0.13,0.66-0.19,0.75-0.22l0.39-0.15v-4.15l-0.77,0.19C53.89,56.74,53.8,56.75,53.49,56.8z"/>
	<path class="st0" d="M70.84,46.86c-0.75-0.76-1.65-1.36-2.66-1.79c-1.02-0.43-2.15-0.65-3.35-0.65c-1.19,0-2.31,0.22-3.33,0.65
		c-1.02,0.43-1.92,1.03-2.66,1.79c-0.74,0.76-1.33,1.67-1.74,2.7c-0.42,1.03-0.63,2.17-0.63,3.39c0,1.22,0.21,2.37,0.63,3.4
		c0.42,1.04,1.01,1.95,1.75,2.72c0.74,0.76,1.64,1.36,2.66,1.79c1.03,0.43,2.15,0.65,3.33,0.65c1.2,0,2.33-0.22,3.35-0.65
		c1.01-0.43,1.91-1.03,2.66-1.79c0.75-0.76,1.35-1.67,1.76-2.72c0.42-1.04,0.63-2.18,0.63-3.4c0-1.22-0.22-2.36-0.63-3.39
		C72.18,48.53,71.59,47.62,70.84,46.86z M68.1,54.78c-0.2,0.51-0.46,0.94-0.79,1.27c-0.33,0.34-0.71,0.59-1.13,0.77
		c-0.43,0.17-0.88,0.26-1.35,0.26c-0.47,0-0.93-0.09-1.36-0.26c-0.42-0.17-0.79-0.43-1.11-0.76c-0.33-0.33-0.59-0.77-0.8-1.29
		c-0.2-0.52-0.31-1.13-0.31-1.83c0-0.69,0.11-1.3,0.31-1.8c0.21-0.51,0.47-0.94,0.8-1.28c0.31-0.33,0.68-0.58,1.1-0.74
		c0.43-0.16,0.89-0.25,1.37-0.25c0.47,0,0.93,0.09,1.36,0.25c0.42,0.16,0.79,0.41,1.12,0.75c0.33,0.33,0.59,0.76,0.79,1.26
		c0.2,0.51,0.3,1.12,0.3,1.81C68.4,53.64,68.3,54.26,68.1,54.78z"/>
</g>
</svg>
