<?xml version="1.0" encoding="utf-8"?>
<!-- Generator: Adobe Illustrator 23.0.3, SVG Export Plug-In . SVG Version: 6.00 Build 0)  -->
<svg version="1.1" id="Layer_1" xmlns="http://www.w3.org/2000/svg" xmlns:xlink="http://www.w3.org/1999/xlink" x="0px" y="0px"
	 viewBox="0 0 100 100" style="enable-background:new 0 0 100 100;" xml:space="preserve">
<style type="text/css">
	.st0{fill-rule:evenodd;clip-rule:evenodd;fill:#1B171B;stroke:#1B171B;stroke-width:0.9921;}
	.st1{fill-rule:evenodd;clip-rule:evenodd;fill:url(#SVGID_1_);}
	.st2{fill-rule:evenodd;clip-rule:evenodd;fill:url(#SVGID_2_);}
	.st3{fill-rule:evenodd;clip-rule:evenodd;fill:url(#SVGID_3_);}
	.st4{fill-rule:evenodd;clip-rule:evenodd;fill:url(#SVGID_4_);}
	.st5{fill-rule:evenodd;clip-rule:evenodd;fill:url(#SVGID_5_);}
	.st6{fill-rule:evenodd;clip-rule:evenodd;fill:#FDD800;}
	.st7{fill:#1B171B;}
	.st8{fill-rule:evenodd;clip-rule:evenodd;fill:#DF1F26;}
	.st9{fill:#DF1F26;}
	.st10{fill:#231F20;}
	.st11{fill:#FFFFFF;}
</style>
<g>
	<g>
		<polygon class="st0" points="63.92,34.36 72.82,20.61 72.22,36.97 88.05,41.19 72.3,45.68 73.18,62.04 64.04,48.45 48.76,54.34 
			58.86,41.45 48.53,28.73 		"/>
		<g>
			<linearGradient id="SVGID_1_" gradientUnits="userSpaceOnUse" x1="62.9534" y1="37.6742" x2="71.3862" y2="40.1544">
				<stop  offset="0.4505" style="stop-color:#EA9F22"/>
				<stop  offset="0.5549" style="stop-color:#FEDA00"/>
			</linearGradient>
			<polygon class="st1" points="64.37,33.79 73.27,20.05 72.67,36.41 88.5,40.63 72.75,45.12 73.63,61.48 64.49,47.89 49.21,53.78 
				59.31,40.89 48.99,28.17 			"/>
			<linearGradient id="SVGID_2_" gradientUnits="userSpaceOnUse" x1="52.7141" y1="36.9244" x2="57.6746" y2="29.4837">
				<stop  offset="0.4505" style="stop-color:#EA9F22"/>
				<stop  offset="0.5549" style="stop-color:#FEDA00"/>
			</linearGradient>
			<polyline class="st2" points="59.31,40.89 48.98,28.17 64.36,33.8 			"/>
			<linearGradient id="SVGID_3_" gradientUnits="userSpaceOnUse" x1="55.3852" y1="43.8086" x2="60.8419" y2="51.0014">
				<stop  offset="0.4505" style="stop-color:#FEDA00"/>
				<stop  offset="0.5549" style="stop-color:#EA9F22"/>
			</linearGradient>
			<polyline class="st3" points="59.31,40.88 49.21,53.78 64.49,47.89 66.77,40.71 			"/>
			<linearGradient id="SVGID_4_" gradientUnits="userSpaceOnUse" x1="66.0746" y1="52.495" x2="74.3252" y2="49.7343">
				<stop  offset="0.4505" style="stop-color:#EA9F22"/>
				<stop  offset="0.5549" style="stop-color:#FEDA00"/>
			</linearGradient>
			<polyline class="st4" points="72.75,45.12 73.63,61.48 64.49,47.89 66.33,40.9 			"/>
			<linearGradient id="SVGID_5_" gradientUnits="userSpaceOnUse" x1="77.4763" y1="45.1155" x2="77.3605" y2="36.4304">
				<stop  offset="0.456" style="stop-color:#EA9F22"/>
				<stop  offset="0.5549" style="stop-color:#FEDA00"/>
			</linearGradient>
			<polyline class="st5" points="72.68,36.41 88.5,40.63 72.75,45.12 66.33,40.77 			"/>
			<polygon class="st6" points="72.37,57.72 65.37,47.3 64.9,46.6 64.11,46.9 52.4,51.42 60.14,41.54 60.66,40.87 60.13,40.22 
				52.21,30.48 64.01,34.79 64.8,35.07 65.25,34.37 72.08,23.83 71.62,36.38 71.59,37.22 72.4,37.43 84.53,40.66 72.46,44.11 
				71.65,44.34 71.7,45.18 72.37,57.72 			"/>
		</g>
	</g>
	<g>
		<g>
			<g>
				<g>
					<path class="st7" d="M53.35,48.2l-0.85-4.48l-2.46,0h-0.7l-3.76,6.65l-0.38,0.67h0.38h2.34l0.42-0.82l1.69-0.01l1.01-0.01
						l0.11,0.84l2.19,0h0.53L53.35,48.2z M50.05,48.41l-0.77,0.01l0.77-1.5l0.44-0.85l0.33,2.34L50.05,48.41z"/>
					<path class="st7" d="M41.82,45.29c0.67-0.01,1.16,0.23,1.16,0.93l0.93,0.01l1.6,0.01l0.37,0c0.05-0.63-0.04-1.2-0.37-1.66
						c-0.28-0.39-0.73-0.69-1.41-0.88c-0.06-0.02-0.12-0.04-0.19-0.05c-1.2-0.31-3.61-0.38-5.1,0.68c-1.54,0.99-2.28,3.7-1.76,5.21
						c0.69,2.27,5.15,2.19,6.6,0.83l0.03,0l0.16,0.66h0.08l1,0l0.6-3.08l0.21-1.09l-0.21,0l-1.6,0.01l-1.85,0.01l-0.3,1.64l1.04,0
						l0,0.04c-0.36,0.67-1.1,1.03-2.22,0.82c-0.91-0.23-1.16-1.05-0.84-2.33C40.04,45.89,40.71,45.26,41.82,45.29z"/>
					<path class="st7" d="M35.01,43.72h-0.14l-2.32,0h-0.7l-3.33,5.89l-0.81,1.43h0.81h1.91l0.43-0.82l1.69-0.01l1.01-0.01
						l0.11,0.84l1.21,0h1.52L35.01,43.72z M32.54,48.41l-0.77,0.01l0.77-1.55L33,45.95l0.31,2.46L32.54,48.41z"/>
					<path class="st7" d="M28.58,43.94c-0.3-0.15-0.67-0.22-1.08-0.23H26.5h-4.54l-1.37,7.32h2.56l0.43-2.28h2.91h0.13
						c0.71-0.02,1.42-0.32,1.94-0.9c0.37-0.41,0.64-0.96,0.75-1.66C29.52,44.91,29.19,44.25,28.58,43.94z M26.63,46.19
						c-0.02,0.14-0.06,0.28-0.13,0.39c-0.15,0.25-0.41,0.4-0.79,0.41l-1.76,0l0.28-1.54l1.72,0c0.25,0,0.44,0.05,0.56,0.17
						C26.63,45.73,26.67,45.92,26.63,46.19z"/>
				</g>
				<g>
					<path class="st7" d="M72.95,52.31c-0.42,0-0.83,0.01-1.23,0.04c-5.09,0.32-8.32,2.73-9.28,8.41c-0.04,0.24-0.08,0.5-0.11,0.75
						c-0.11,1.11-0.09,2.1,0.11,2.95c0.67,2.91,3.27,4.34,8.83,4.11c0.15-0.01,0.3-0.02,0.45-0.02c5.62-0.38,8.37-3.14,9.29-8.19
						C82.07,54.23,79.06,52.16,72.95,52.31z M73.55,63.89c-0.52,0.42-1.16,0.68-1.83,0.8c-1.29,0.22-2.63-0.11-3.19-0.91
						c-0.88-1.1-0.66-3.73,0.42-5.57c0.63-1.03,1.62-1.74,2.77-1.97c0.32-0.06,0.65-0.09,0.99-0.08c1.79,0.08,2.77,1.01,2.74,2.84
						C75.35,61.33,74.65,62.94,73.55,63.89z"/>
					<path class="st7" d="M62.46,56.19c-0.65-2.75-3.07-3.5-7.03-3.33l-2.15,0l-3.31,0l-3.57,0l-0.89,4.75l-1.6,8.54l-0.36,1.9h0.36
						h1.6l4.46,0h3.31h0.92c4.14-0.03,7.23-2.11,8.24-7.91l0.02-0.14C62.7,58.44,62.7,57.19,62.46,56.19z M56.88,60.05
						c-0.35,2.22-1.29,3.89-3.6,4.15c-0.1,0.01-0.21,0.02-0.31,0.03l-2.99,0.01l-0.35,0l0.35-1.9l1.05-5.64l2.26,0l1.07,0
						C56.27,56.81,57.2,57.8,56.88,60.05z"/>
					<polygon class="st7" points="26.44,52.85 12.26,52.86 11.57,56.67 16.5,56.67 14.35,68.04 19.69,68.05 21.82,56.67 
						26.44,56.67 26.81,56.67 27.5,52.85 					"/>
					<path class="st7" d="M43.98,55.81c-0.93-2.64-3.68-3.61-7.91-3.5c-0.41,0-0.82,0.01-1.21,0.04c-0.82,0.05-1.6,0.15-2.32,0.32
						c-1.59,0.36-2.94,1.01-4.03,2c-0.86,0.78-1.55,1.77-2.07,2.99c-0.47,1.09-0.8,2.37-0.99,3.85c-0.21,2.05,0.06,3.68,0.99,4.85
						c0.5,0.63,1.18,1.13,2.07,1.5c1.04,0.43,2.37,0.67,4.03,0.72c0.58,0.02,1.2,0.01,1.86-0.01c0.16-0.01,0.31-0.02,0.47-0.03
						c5.33-0.36,8.07-2.88,9.12-7.46c0.05-0.24,0.1-0.48,0.15-0.73C44.46,58.48,44.4,56.98,43.98,55.81z M36.67,63.89
						c-0.51,0.42-1.15,0.68-1.8,0.79c-0.82,0.15-1.67,0.06-2.32-0.22c-0.37-0.16-0.68-0.4-0.88-0.69c-0.88-1.1-0.54-3.95,0.54-5.79
						c0.11-0.18,0.22-0.34,0.34-0.49c0.6-0.73,1.39-1.15,2.32-1.29c0.31-0.05,0.63-0.06,0.97-0.05c1.79,0.08,2.77,1.01,2.74,2.84
						C38.48,61.34,37.77,62.94,36.67,63.89z"/>
				</g>
			</g>
		</g>
		<g>
			<g>
				<g>
					<path class="st8" d="M53.56,48.04l-0.85-4.48l-2.46,0h-0.7l-3.76,6.65l-0.38,0.67h0.38h2.34l0.42-0.82l1.69-0.01l1.01-0.01
						l0.11,0.84l2.19,0h0.53L53.56,48.04z M50.25,48.25l-0.77,0.01l0.77-1.5l0.44-0.85l0.33,2.34L50.25,48.25z"/>
					<path class="st8" d="M42.02,45.12c0.67-0.01,1.16,0.23,1.16,0.93l0.93,0.01l1.6,0.01l0.37,0c0.05-0.63-0.04-1.2-0.37-1.66
						c-0.28-0.39-0.72-0.69-1.41-0.88c-0.06-0.02-0.12-0.04-0.19-0.05c-1.2-0.31-3.61-0.38-5.1,0.68c-1.54,0.99-2.28,3.7-1.76,5.21
						c0.69,2.27,5.15,2.19,6.6,0.83l0.02,0l0.16,0.66h0.08l1,0l0.6-3.08l0.21-1.09l-0.21,0l-1.6,0.01l-1.85,0.01l-0.3,1.64l1.05,0
						l0,0.04c-0.36,0.67-1.1,1.03-2.22,0.82c-0.91-0.23-1.16-1.05-0.84-2.33C40.24,45.73,40.92,45.09,42.02,45.12z"/>
					<path class="st8" d="M35.21,43.56h-0.14l-2.32,0h-0.7l-3.33,5.89l-0.81,1.43h0.81h1.91l0.43-0.82l1.69-0.01l1.01-0.01
						l0.11,0.84l1.21,0h1.52L35.21,43.56z M32.75,48.25l-0.77,0.01l0.77-1.55l0.46-0.92l0.31,2.46L32.75,48.25z"/>
					<path class="st8" d="M28.78,43.78c-0.3-0.15-0.67-0.22-1.08-0.23h-0.99h-4.54l-1.37,7.32h2.56l0.43-2.28h2.91h0.13
						c0.71-0.02,1.42-0.32,1.94-0.9c0.37-0.41,0.64-0.96,0.75-1.66C29.72,44.75,29.4,44.09,28.78,43.78z M26.83,46.02
						c-0.02,0.14-0.06,0.27-0.13,0.39c-0.15,0.25-0.41,0.4-0.79,0.41l-1.77,0l0.28-1.54l1.72,0c0.25,0,0.44,0.05,0.56,0.17
						C26.83,45.57,26.88,45.75,26.83,46.02z"/>
				</g>
				<g>
					<path class="st8" d="M73.16,52.15c-0.42,0-0.83,0.01-1.23,0.04c-5.09,0.32-8.32,2.73-9.28,8.41c-0.04,0.24-0.08,0.49-0.11,0.75
						c-0.11,1.11-0.09,2.1,0.11,2.95c0.67,2.91,3.27,4.34,8.83,4.11c0.15-0.01,0.3-0.02,0.45-0.02c5.62-0.38,8.37-3.14,9.29-8.19
						C82.27,54.07,79.26,51.99,73.16,52.15z M73.75,63.73c-0.52,0.42-1.16,0.68-1.83,0.8c-1.29,0.22-2.63-0.11-3.19-0.91
						c-0.88-1.1-0.66-3.73,0.42-5.57c0.63-1.03,1.62-1.74,2.77-1.97c0.32-0.06,0.65-0.09,0.99-0.08c1.79,0.08,2.77,1.01,2.74,2.84
						C75.56,61.17,74.85,62.77,73.75,63.73z"/>
					<path class="st8" d="M62.67,56.03c-0.65-2.75-3.07-3.5-7.03-3.33l-2.15,0l-3.31,0l-3.57,0l-0.89,4.75L44.12,66l-0.36,1.9h0.36
						h1.6l4.46,0h3.31h0.92c4.14-0.03,7.23-2.11,8.25-7.91l0.02-0.14C62.91,58.28,62.9,57.02,62.67,56.03z M57.09,59.88
						c-0.34,2.22-1.29,3.89-3.6,4.15c-0.1,0.01-0.21,0.02-0.31,0.03l-3,0.01l-0.35,0l0.35-1.9l1.05-5.64l2.26,0l1.07,0
						C56.47,56.64,57.41,57.64,57.09,59.88z"/>
					<polygon class="st8" points="26.65,52.69 12.47,52.69 11.77,56.5 16.7,56.5 14.56,67.88 19.89,67.89 22.03,56.51 26.65,56.51 
						27.01,56.51 27.7,52.69 					"/>
					<path class="st8" d="M44.19,55.64c-0.93-2.64-3.68-3.61-7.91-3.5c-0.41,0-0.82,0.01-1.21,0.04c-0.82,0.05-1.6,0.15-2.32,0.32
						c-1.59,0.36-2.94,1.01-4.03,2c-0.86,0.78-1.55,1.77-2.07,2.99c-0.47,1.09-0.8,2.37-0.99,3.85c-0.21,2.05,0.06,3.68,0.99,4.86
						c0.5,0.63,1.18,1.13,2.07,1.5c1.04,0.43,2.37,0.67,4.03,0.72c0.58,0.02,1.2,0.01,1.86-0.01c0.16-0.01,0.31-0.02,0.47-0.03
						c5.33-0.36,8.07-2.88,9.12-7.46c0.05-0.24,0.1-0.48,0.15-0.73C44.66,58.32,44.6,56.82,44.19,55.64z M36.88,63.73
						c-0.51,0.42-1.15,0.68-1.8,0.79c-0.82,0.15-1.67,0.06-2.32-0.22c-0.37-0.16-0.68-0.4-0.88-0.69c-0.88-1.1-0.54-3.95,0.54-5.79
						c0.11-0.18,0.22-0.34,0.35-0.49c0.6-0.73,1.39-1.15,2.32-1.29c0.31-0.05,0.63-0.06,0.97-0.05c1.79,0.08,2.77,1.01,2.74,2.84
						C38.68,61.17,37.97,62.77,36.88,63.73z"/>
				</g>
			</g>
		</g>
	</g>
	<path class="st7" d="M12.65,71.5h4.2c0.92,0,1.57,0.22,1.97,0.65c0.39,0.44,0.54,1.05,0.42,1.86c-0.12,0.83-0.45,1.47-1.02,1.94
		c-0.56,0.46-1.35,0.7-2.37,0.7h-1.38l-0.42,3.04H11.5L12.65,71.5z M14.7,74.99h0.62c0.49,0,0.84-0.08,1.06-0.25
		c0.22-0.17,0.35-0.39,0.39-0.65c0.04-0.26-0.02-0.47-0.17-0.65c-0.15-0.18-0.46-0.27-0.93-0.27h-0.72L14.7,74.99z"/>
	<path class="st7" d="M24.01,78.33h-2.87l-0.59,1.35h-2.58l4.22-8.18h2.76l1.93,8.18h-2.65L24.01,78.33z M23.73,76.56l-0.49-2.94
		l-1.31,2.94H23.73z"/>
	<path class="st7" d="M27.71,79.68l1.15-8.18h4.21c0.78,0,1.37,0.07,1.76,0.2c0.39,0.13,0.69,0.38,0.89,0.74
		c0.2,0.36,0.27,0.8,0.19,1.33c-0.06,0.45-0.22,0.85-0.45,1.17c-0.24,0.33-0.54,0.6-0.91,0.8c-0.23,0.13-0.55,0.24-0.93,0.32
		c0.29,0.1,0.49,0.2,0.62,0.3c0.08,0.07,0.2,0.21,0.34,0.43c0.15,0.22,0.24,0.39,0.28,0.51l0.89,2.37h-2.86l-1-2.5
		c-0.13-0.32-0.25-0.53-0.37-0.63c-0.16-0.13-0.36-0.19-0.59-0.19h-0.22l-0.46,3.32H27.71z M30.94,74.82H32
		c0.11,0,0.34-0.04,0.69-0.11c0.17-0.03,0.32-0.12,0.45-0.26c0.13-0.14,0.2-0.3,0.23-0.47c0.04-0.26-0.02-0.47-0.17-0.61
		c-0.15-0.14-0.45-0.21-0.91-0.21h-1.11L30.94,74.82z"/>
	<path class="st7" d="M41.79,78.33h-2.87l-0.59,1.35h-2.58l4.22-8.18h2.76l1.93,8.18h-2.65L41.79,78.33z M41.51,76.56l-0.49-2.94
		l-1.31,2.94H41.51z"/>
	<g>
		<path class="st7" d="M45.94,71.65h6.96l-0.26,2.02H50.3l-0.8,6.15h-2.29l0.8-6.15h-2.34L45.94,71.65z"/>
		<path class="st7" d="M52.76,75.74c0.17-1.33,0.65-2.37,1.42-3.11c0.77-0.74,1.76-1.11,2.96-1.11c1.23,0,2.14,0.36,2.71,1.09
			c0.57,0.73,0.77,1.75,0.6,3.07c-0.12,0.95-0.37,1.74-0.74,2.35c-0.37,0.61-0.85,1.09-1.45,1.43c-0.6,0.34-1.3,0.51-2.13,0.51
			c-0.84,0-1.51-0.15-2.02-0.44c-0.51-0.29-0.89-0.76-1.15-1.39C52.7,77.49,52.64,76.69,52.76,75.74z M55.05,75.75
			c-0.11,0.82-0.05,1.42,0.19,1.78c0.23,0.36,0.59,0.54,1.06,0.54c0.49,0,0.9-0.18,1.21-0.53c0.32-0.35,0.53-0.99,0.65-1.9
			c0.1-0.77,0.03-1.33-0.2-1.68c-0.24-0.35-0.59-0.53-1.08-0.53c-0.46,0-0.86,0.18-1.18,0.54C55.38,74.32,55.16,74.92,55.05,75.75z"
			/>
		<path class="st7" d="M62.24,71.65h3.4c0.67,0,1.2,0.1,1.59,0.3c0.39,0.2,0.69,0.49,0.91,0.86c0.22,0.37,0.36,0.81,0.42,1.31
			c0.06,0.5,0.05,1.02-0.02,1.58c-0.11,0.87-0.29,1.55-0.54,2.03c-0.24,0.48-0.55,0.88-0.91,1.21c-0.36,0.32-0.73,0.54-1.12,0.65
			c-0.52,0.15-0.99,0.22-1.39,0.22h-3.4L62.24,71.65z M64.29,73.5l-0.58,4.46h0.56c0.48,0,0.83-0.06,1.04-0.18
			c0.22-0.12,0.4-0.32,0.56-0.61c0.15-0.29,0.27-0.76,0.36-1.42c0.11-0.87,0.06-1.46-0.15-1.78c-0.21-0.32-0.62-0.48-1.21-0.48
			H64.29z"/>
		<path class="st7" d="M69.44,75.74c0.17-1.33,0.65-2.37,1.42-3.11c0.77-0.74,1.76-1.11,2.96-1.11c1.23,0,2.14,0.36,2.71,1.09
			c0.57,0.73,0.77,1.75,0.6,3.07c-0.12,0.95-0.37,1.74-0.74,2.35c-0.37,0.61-0.85,1.09-1.45,1.43c-0.6,0.34-1.3,0.51-2.13,0.51
			c-0.84,0-1.51-0.15-2.02-0.44c-0.51-0.29-0.89-0.76-1.15-1.39C69.38,77.49,69.32,76.69,69.44,75.74z M71.73,75.75
			c-0.11,0.82-0.05,1.42,0.19,1.78c0.23,0.36,0.59,0.54,1.07,0.54c0.49,0,0.9-0.18,1.21-0.53c0.32-0.35,0.53-0.99,0.65-1.9
			c0.1-0.77,0.03-1.33-0.2-1.68c-0.24-0.35-0.59-0.53-1.08-0.53c-0.46,0-0.86,0.18-1.18,0.54C72.06,74.32,71.84,74.92,71.73,75.75z"
			/>
		<path class="st7" d="M78.03,77.81h2.05l-0.26,2h-2.05L78.03,77.81z M78.76,71.65h2.2l-0.24,1.86l-0.91,3.74h-1.36l0.07-3.74
			L78.76,71.65z"/>
	</g>
	<path class="st9" d="M12.77,71.42h4.2c0.92,0,1.57,0.22,1.96,0.65c0.39,0.44,0.54,1.05,0.42,1.86c-0.12,0.83-0.45,1.47-1.02,1.94
		c-0.56,0.47-1.35,0.7-2.37,0.7h-1.38l-0.42,3.04h-2.54L12.77,71.42z M14.82,74.91h0.62c0.49,0,0.84-0.08,1.06-0.25
		c0.22-0.17,0.35-0.39,0.39-0.65c0.04-0.26-0.02-0.47-0.17-0.65c-0.15-0.18-0.46-0.27-0.93-0.27h-0.72L14.82,74.91z"/>
	<path class="st9" d="M24.14,78.25h-2.87l-0.59,1.35H18.1l4.22-8.18h2.76l1.93,8.18h-2.65L24.14,78.25z M23.86,76.48l-0.49-2.94
		l-1.31,2.94H23.86z"/>
	<path class="st9" d="M27.84,79.6l1.15-8.18h4.21c0.78,0,1.37,0.07,1.76,0.2c0.39,0.13,0.69,0.38,0.89,0.74
		c0.2,0.36,0.27,0.8,0.19,1.33c-0.06,0.45-0.22,0.85-0.46,1.17c-0.24,0.33-0.54,0.6-0.91,0.8c-0.23,0.13-0.55,0.24-0.93,0.32
		c0.29,0.1,0.49,0.2,0.62,0.3c0.08,0.07,0.2,0.21,0.34,0.43c0.15,0.22,0.24,0.39,0.28,0.51l0.89,2.37h-2.86l-1-2.5
		c-0.13-0.32-0.25-0.53-0.37-0.63c-0.16-0.13-0.36-0.19-0.59-0.19h-0.22l-0.46,3.32H27.84z M31.06,74.74h1.07
		c0.11,0,0.34-0.04,0.68-0.11c0.17-0.03,0.32-0.12,0.45-0.26c0.13-0.14,0.2-0.3,0.23-0.47c0.04-0.26-0.02-0.47-0.17-0.61
		c-0.15-0.14-0.45-0.21-0.91-0.21H31.3L31.06,74.74z"/>
	<path class="st9" d="M41.92,78.25h-2.87l-0.59,1.35h-2.58l4.22-8.18h2.76l1.93,8.18h-2.65L41.92,78.25z M41.64,76.48l-0.49-2.94
		l-1.31,2.94H41.64z"/>
	<g>
		<path class="st9" d="M46.07,71.53h6.96l-0.26,2.02h-2.34l-0.8,6.15h-2.29l0.8-6.15H45.8L46.07,71.53z"/>
		<path class="st9" d="M52.89,75.62c0.17-1.33,0.65-2.37,1.42-3.11c0.77-0.74,1.76-1.11,2.96-1.11c1.23,0,2.14,0.36,2.71,1.09
			c0.57,0.73,0.77,1.75,0.6,3.07c-0.12,0.95-0.37,1.74-0.74,2.35c-0.37,0.61-0.85,1.09-1.45,1.43c-0.6,0.34-1.3,0.51-2.13,0.51
			c-0.84,0-1.51-0.15-2.02-0.44c-0.51-0.29-0.89-0.76-1.15-1.39C52.83,77.37,52.77,76.57,52.89,75.62z M55.18,75.63
			c-0.11,0.82-0.05,1.42,0.19,1.78c0.23,0.36,0.59,0.54,1.06,0.54c0.49,0,0.9-0.18,1.21-0.53c0.32-0.35,0.53-0.99,0.65-1.9
			c0.1-0.77,0.03-1.33-0.2-1.68c-0.24-0.35-0.59-0.53-1.08-0.53c-0.46,0-0.86,0.18-1.18,0.54C55.51,74.2,55.29,74.8,55.18,75.63z"/>
		<path class="st9" d="M62.37,71.53h3.4c0.67,0,1.2,0.1,1.59,0.3c0.39,0.2,0.69,0.49,0.91,0.86c0.22,0.37,0.36,0.81,0.42,1.31
			c0.06,0.5,0.05,1.02-0.02,1.58c-0.11,0.87-0.29,1.55-0.54,2.03c-0.24,0.48-0.55,0.88-0.91,1.21c-0.36,0.32-0.73,0.54-1.12,0.65
			c-0.52,0.15-0.99,0.22-1.39,0.22h-3.4L62.37,71.53z M64.42,73.38l-0.58,4.46h0.56c0.48,0,0.83-0.06,1.04-0.18
			c0.22-0.12,0.4-0.32,0.55-0.61c0.15-0.29,0.27-0.76,0.36-1.42c0.11-0.86,0.06-1.46-0.15-1.78c-0.21-0.32-0.62-0.48-1.21-0.48
			H64.42z"/>
		<path class="st9" d="M69.57,75.62c0.17-1.33,0.65-2.37,1.42-3.11c0.77-0.74,1.76-1.11,2.96-1.11c1.23,0,2.14,0.36,2.71,1.09
			c0.57,0.73,0.77,1.75,0.6,3.07c-0.12,0.95-0.37,1.74-0.74,2.35c-0.37,0.61-0.85,1.09-1.45,1.43c-0.6,0.34-1.3,0.51-2.13,0.51
			c-0.84,0-1.51-0.15-2.02-0.44c-0.51-0.29-0.89-0.76-1.15-1.39C69.51,77.37,69.45,76.57,69.57,75.62z M71.86,75.63
			c-0.11,0.82-0.05,1.42,0.19,1.78c0.23,0.36,0.59,0.54,1.06,0.54c0.49,0,0.9-0.18,1.21-0.53c0.32-0.35,0.53-0.99,0.65-1.9
			c0.1-0.77,0.03-1.33-0.2-1.68c-0.24-0.35-0.59-0.53-1.08-0.53c-0.46,0-0.86,0.18-1.18,0.54C72.19,74.2,71.97,74.8,71.86,75.63z"/>
		<path class="st9" d="M78.16,77.69h2.05l-0.26,2H77.9L78.16,77.69z M78.89,71.53h2.2l-0.24,1.86l-0.91,3.74h-1.36l0.07-3.74
			L78.89,71.53z"/>
	</g>
	<g>
		<path class="st10" d="M69.81,40.61c-0.22-0.35-0.68-0.84-1.39-1.46l0.97-2.49c0.21,0.17,0.34,0.38,0.37,0.64
			c0.02,0.21-0.02,0.51-0.13,0.9l1.68,0.65c0.37-1.03,0.28-1.91-0.26-2.64c-0.24-0.37-0.6-0.69-1.11-0.98l0.34-0.9l-1.29-0.5
			l-0.35,0.89c-0.28-0.07-0.51-0.12-0.69-0.12c-0.42-0.03-0.83,0.05-1.25,0.24c-0.32,0.14-0.61,0.35-0.87,0.62
			c-0.26,0.27-0.46,0.61-0.61,1c-0.23,0.6-0.26,1.18-0.09,1.73c0.17,0.55,0.61,1.11,1.34,1.66l0.15,0.12l-1.06,2.74
			c-0.25-0.22-0.41-0.46-0.44-0.71c-0.04-0.22,0.02-0.61,0.17-1.18l-1.72-0.67c-0.47,1.18-0.44,2.15,0.1,2.92
			c0.26,0.37,0.71,0.73,1.33,1.09l-0.5,1.29l0.35,0.13l-0.01,0.02l0.62,0.24l0.01-0.02l0.33,0.13l0.5-1.3
			c0.55,0.13,1.07,0.14,1.57,0.05c0.97-0.17,1.67-0.81,2.09-1.88C70.25,42.02,70.21,41.29,69.81,40.61z M67.02,37.9
			c-0.18-0.31-0.21-0.64-0.07-1c0.13-0.32,0.32-0.55,0.57-0.67c0.17-0.08,0.36-0.11,0.58-0.07l-0.81,2.07
			C67.17,38.11,67.07,38,67.02,37.9z M67.31,43.2c-0.13,0.03-0.28,0.04-0.46,0.01l0.89-2.29c0.15,0.15,0.26,0.29,0.32,0.41
			c0.17,0.31,0.18,0.64,0.04,1.01C67.91,42.83,67.64,43.11,67.31,43.2z"/>
		<path class="st11" d="M70.2,40.42c-0.22-0.36-0.68-0.84-1.39-1.46l0.96-2.49c0.22,0.17,0.34,0.39,0.37,0.65
			c0.03,0.21-0.02,0.51-0.13,0.9l1.68,0.65c0.37-1.03,0.29-1.91-0.25-2.64c-0.24-0.36-0.61-0.69-1.12-0.97l0.36-0.9l-1.3-0.5
			l-0.34,0.89c-0.28-0.07-0.51-0.11-0.69-0.12c-0.41-0.03-0.83,0.05-1.25,0.24c-0.32,0.14-0.61,0.35-0.87,0.62
			c-0.26,0.27-0.46,0.6-0.61,1c-0.24,0.6-0.27,1.18-0.1,1.73c0.17,0.55,0.61,1.11,1.33,1.66L67,39.78l-1.06,2.74
			c-0.26-0.22-0.41-0.45-0.45-0.71c-0.04-0.22,0.02-0.62,0.17-1.18l-1.72-0.67c-0.47,1.17-0.44,2.14,0.1,2.92
			c0.27,0.37,0.71,0.73,1.33,1.09l-0.5,1.29l0.35,0.13l0,0.03l0.61,0.24l0.01-0.02l0.33,0.13l0.5-1.3c0.55,0.13,1.07,0.14,1.57,0.05
			c0.97-0.18,1.67-0.81,2.08-1.88C70.64,41.83,70.6,41.09,70.2,40.42z M67.41,37.71c-0.19-0.31-0.22-0.65-0.07-1
			c0.12-0.33,0.31-0.55,0.57-0.67c0.17-0.08,0.36-0.1,0.58-0.07l-0.81,2.07C67.56,37.91,67.47,37.81,67.41,37.71z M67.69,43.01
			c-0.13,0.03-0.28,0.04-0.46,0.02l0.89-2.3c0.15,0.15,0.26,0.29,0.32,0.41c0.17,0.31,0.18,0.65,0.04,1.02
			C68.29,42.63,68.03,42.92,67.69,43.01z"/>
	</g>
</g>
</svg>
