<?xml version="1.0" encoding="utf-8"?>
<!-- Generator: Adobe Illustrator 23.0.3, SVG Export Plug-In . SVG Version: 6.00 Build 0)  -->
<svg version="1.1" id="Layer_1" xmlns="http://www.w3.org/2000/svg" xmlns:xlink="http://www.w3.org/1999/xlink" x="0px" y="0px"
	 viewBox="0 0 100 100" style="enable-background:new 0 0 100 100;" xml:space="preserve">
<style type="text/css">
	.st0{fill-rule:evenodd;clip-rule:evenodd;fill:#AD1F24;}
	.st1{fill-rule:evenodd;clip-rule:evenodd;fill:#1D417C;}
</style>
<g>
	<g>
		<path class="st0" d="M17.84,38.86c0-1.56,0.81-1.58,2.25-1.58h34.07c2.23,0,1.76,0.29,1.75-2.06c0-0.71,0.05-0.99,0.54-1.34
			c0.39-0.28,1.06-0.29,1.65-0.25c0.49,0.03,4.04,2.8,4.45,3.14c1.5,1.24,3.11,2.27,4.33,3.25c3.2,2.59,7.58,5.57,10.83,8.18
			c0.42,0.34,1.89,1.24,1.97,1.79c0.09,0.65-0.37,1.06-0.73,1.28c-0.85,0.52-4.91,3.7-5.42,4c-1.38,0.81-6.61,4.84-8.81,6.37
			l-1.03,0.82c-0.48,0.28-0.71,0.48-1.12,0.76c-0.45,0.3-0.74,0.51-1.15,0.83l-2.15,1.58c-0.44,0.28-0.58,0.6-1.27,0.6
			c-2.4,0-2.1-0.6-2.09-3.63c0-0.9,0.21-0.96-0.67-0.96H21.96c-0.88,0-3.01,0.21-3.66-0.3c-0.26-0.2-0.47-0.46-0.47-0.9L17.84,38.86
			L17.84,38.86z M55.73,24.39v3.25c0,0.8,0.4,0.59-1.97,0.59c-6.93,0-42-0.1-42.34,0c-0.4,0.12-0.88,0.62-1.13,0.94
			c-0.01,0.02-0.02,0.05-0.04,0.06c-0.15,0.18,0.03,0.08-0.21,0.18c0,1.19-0.12,38.95,0.04,39.44c0,0.01,0.1,0.18,0.1,0.19l0.87,0.9
			c0.58,0.34,1.17,0.22,1.84,0.22h40.86c2.37,0,1.97-0.21,1.97,0.59c0,1.07-0.14,4.84,0.07,5.64c0.09,0.34,0.1,0.27,0.25,0.54
			c0.19,0.33,0.46,0.59,0.78,0.79l0.35,0.15c0.75,0.29,1.66,0.17,2.49,0.17c0.18-0.49,1.23-1.22,1.67-1.58l0.67-0.61
			c0.64-0.58,1.37-1.05,1.95-1.69c0.02-0.02,0.19-0.19,0.19-0.2c0.07-0.06,0.2-0.17,0.27-0.22l6.82-5.88
			c0.02-0.01,0.04-0.03,0.05-0.05l5.96-5.17c0.3-0.2,0.61-0.61,0.91-0.87l1.55-1.31c0.02-0.01,0.04-0.03,0.05-0.05
			c0.02-0.01,0.04-0.03,0.05-0.05l3.32-2.88c0.38-0.28,0.61-0.53,0.94-0.83l4.66-4.1c1.32-1.12,1.26-1.25,1.26-2.98
			c-0.33-0.12-0.52-0.61-0.91-0.87c-0.02-0.01-0.22-0.15-0.24-0.16l-0.15-0.15c-0.01-0.02-0.03-0.04-0.05-0.05l-2.94-2.67
			c-0.01-0.01-0.04-0.03-0.05-0.05l-1.07-0.99c-0.02-0.02-0.09-0.07-0.11-0.09c-0.01-0.01-0.04-0.03-0.05-0.05l-0.09-0.11
			c-0.3-0.33-0.38-0.29-0.69-0.59l-0.72-0.66c-0.22-0.22-0.33-0.28-0.53-0.46l-6.25-5.67c-0.02-0.01-0.04-0.03-0.05-0.05
			c-0.01-0.01-0.04-0.03-0.05-0.05c-0.01-0.01-0.04-0.03-0.05-0.05l-1.7-1.55c-0.02-0.02-0.08-0.07-0.1-0.09
			c0,0-0.11-0.09-0.11-0.09l-3.57-3.23c-1-0.95-2.14-1.85-3.08-2.83c-0.01-0.01-0.03-0.04-0.05-0.05l-5.8-5.22
			c-0.02-0.01-0.04-0.03-0.05-0.05l-1.76-1.59c-0.15-0.14-0.13-0.05-0.21-0.28h-2.17c-0.11,0.27-0.38,0.19-0.62,0.36
			c-0.26,0.19-0.36,0.29-0.55,0.54c-0.13,0.18-0.1,0.08-0.19,0.3l-0.14,0.36C55.79,23.77,55.73,23.99,55.73,24.39z"/>
		<path class="st1" d="M37.36,51.31c0.35-0.25,1.09-0.59,1.22-1c-0.71-0.05-1.13,0.08-1.75,0.08c-0.87,0-0.83-0.05-1.37,0.39
			c-0.42,0.34-1.57,1.41-2.18,1.54l0.2-1.93c-3.08-0.01-2.57-0.35-2.57,1.57c0,2.61,0.36,1.94-1.47,3.15
			c-0.88,0.59-3.77,2.78-4.52,2.93c0.46-0.67,0.76-0.89,0.82-1.61l-2.44-0.01c0.04-0.42,0.1-0.41,0.35-0.71
			c0.21-0.24,0.17-0.28,0.38-0.5l2.58,0c0.27-0.48,1.13-1.27,1.15-1.79l-2.34-0.03c0.03-0.42,0.31-0.39,0.74-1.19l2.78-0.03
			c0,0,1.05-1.18,1.13-1.76l-4.08,0c-1.05,0.02-0.6-0.05-1.47,1.05l-3.54,4.83c-0.36,0.5-1.28,1.52-1.29,2.05
			c1.04-0.02,3.55,0.15,4.87-0.01l0.41,0.03c0.01-0.01,0.03,0.02,0.04,0.03l2.26,0l2.67-1.99c0.28-0.25,0.63-0.57,1.01-0.64
			c0.01,0.47-0.35,1.95-0.28,2.38c0.06,0.37,0.5,0.26,1.13,0.25c1.27,0,0.96,0.12,1.44-0.34l0.05-3.93L37.36,51.31z"/>
		<path class="st0" d="M43.64,46.54c-0.44,0.3-0.26,0.45-0.96,0.73c-1.3,0.51-2.61-0.47-2.6-2.4c0.01-2.86,2.56-3.16,3.37-1.71
			c0.6-0.05,1.62-0.66,1.83-0.95c-0.1-0.38-0.57-0.85-0.86-1.11c-0.31-0.28-0.81-0.55-1.29-0.66c-5.26-1.23-6.72,6.05-3.16,8.26
			c0.78,0.48,2.15,0.69,3.21,0.35c0.93-0.3,1.68-0.96,2.08-1.73c0.38-0.73,0.72-2.22,0.48-3.31l-3.92,0.01l0.02,1.85l1.87,0.02
			L43.64,46.54z"/>
		<path class="st0" d="M50.11,42.38c1.28-0.53,2.21,0.76,2.4,1.73c0.25,1.27-0.47,2.57-1.25,2.89
			C48.72,48.03,47.7,43.38,50.11,42.38L50.11,42.38z M54.53,45.46c0.19-1.27,0.07-2.31-0.64-3.38c-2.01-3.07-6.4-2.12-7.17,1.83
			c-0.24,1.24,0.11,2.46,0.71,3.42C49.42,50.5,53.98,49.24,54.53,45.46z"/>
		<path class="st1" d="M46.34,54.05c0.02-0.5,0-0.3,0.24-0.6l0.93-1.33l0.54-0.01C49.53,52.08,48.35,54.08,46.34,54.05L46.34,54.05z
			 M44.71,55.99c0.12-0.37,0.14-0.36,0.54-0.45l-0.33,2.64c2.81,0.17,2.33,0.32,2.42-2.19c0-0.1-0.01-0.34-0.01-0.4
			c0.06-0.62,0.02-0.26,0.19-0.42c0.03-0.19,0.45-0.16,0.72-0.26c1.41-0.5,3.76-2.39,3.1-4.17c-0.46-0.17-0.5-0.26-1.01-0.3
			l-3.65,0.01c-0.26,0.11-1.8,2.37-2.17,2.89l-2.83,3.86c-0.28,0.4-0.53,0.55-0.56,1.1l1.93-0.03
			C43.51,57.55,44.35,56.67,44.71,55.99z"/>
		<path class="st0" d="M33.34,45.71c-0.03-0.06-0.07-0.08-0.07-0.24c0-0.04,0.02-0.13,0.02-0.18l0.3-1.1
			c0.05-0.24,0.3-1.32,0.38-1.49c0.2,0.06,0.21-0.16,0.4,0.6c0.06,0.26,0.09,0.52,0.18,0.81c0.12,0.38,0.36,1.36,0.34,1.68
			C34.4,45.79,33.7,45.85,33.34,45.71L33.34,45.71z M32.19,49.09c0.27-0.48,0.32-1.33,0.48-1.58l2.71,0
			c0.22,0.31,0.3,0.98,0.44,1.44l1.96,0.01l-2.41-8.46l-2.5,0.11l-0.69,2.18c-0.36,0.94-1.92,5.96-1.9,6.29L32.19,49.09z"/>
		<path class="st1" d="M39.34,53.87c0.07-0.45,0-0.26,0.25-0.54l0.85-1.19c0.64-0.04,0.83-0.05,1.26,0.17
			C41.68,53.47,40.56,53.89,39.34,53.87L39.34,53.87z M37.78,55.79c1.16-0.05,2.49,0.03,3.62-0.64c1.24-0.74,2.52-2.04,2.93-3.37
			c0.18-0.59-0.1-1.15-0.63-1.28c-0.56-0.14-3.42-0.1-4.12-0.05c-0.34,0.14-3.89,5.34-4.28,5.8c-0.35,0.42-1.28,1.55-1.36,2.04
			l1.89-0.01C36.36,57.92,37.24,56.39,37.78,55.79z"/>
		<path class="st1" d="M57.5,52.13c0.26-0.23,1.04-1.22,1.11-1.7l-4.76,0.01c-0.6,0.56-0.97,1.22-1.51,1.97
			c-0.27,0.37-0.45,0.58-0.72,0.96l-2.5,3.51c-0.33,0.43-0.93,0.86-0.95,1.45l4.1,0.01c0.84-0.01,0.68,0.11,1.44-0.91
			c0.37-0.5,0.51-0.64,0.49-1.01l-2.36-0.01c0.04-0.55,0.36-0.74,0.6-1.15l2.79-0.04c0.39-0.92,1.02-1.24,1.08-1.8l-2.34-0.02
			c0.02-0.38,0.14-0.36,0.37-0.68C54.95,51.9,54.78,52.16,57.5,52.13z"/>
		<path class="st0" d="M27.1,42.53c1.27-0.08,1.74,0.11,1.49,1.45c-0.42,0.41-0.74,0.43-1.52,0.37L27.1,42.53L27.1,42.53z
			 M26.93,48.94c0.03-0.05,0.05,0.02,0.09-0.23c0.01-0.07,0.01-0.22,0.01-0.29c0.03-3.01-0.33-1.88,1.63-2.15
			c2.57-0.35,2.61-4.35,0.7-5.44c-0.58-0.33-3.3-0.23-4.21-0.21l0.04,8.51c0.39,0.01,0.61,0.01,0.96-0.05L26.93,48.94z"/>
		<path class="st1" d="M62.92,52.2c0.37-0.12,0.51-0.33,1.01-0.71c0.29-0.22,0.7-0.52,0.77-0.91c-1.48-1.91-7.14,0.74-6.98,3.55
			c0.65,0.57,0.93,0.6,1.78,0.96c-0.02,0.82-0.58,1.25-1.23,1.45c-1.16,0.36-1.23-0.46-1.64-0.92c-0.44,0.12-0.7,0.5-1.03,0.72
			c-0.87,0.6-1.4,0.73-0.77,1.37c1.67,1.72,5.14-0.14,6.34-1.61c0.47-0.58,1.16-1.15,1.06-2.26c-0.45-0.64-1.16-0.6-1.75-0.98
			c-0.03-0.47,0.05-0.51,0.34-0.74c0.35-0.28,0.12-0.22,0.61-0.35c1-0.25,1.41,0.42,1.43,0.39C62.86,52.13,62.9,52.18,62.92,52.2z"
			/>
		<path class="st1" d="M69.52,52.24c0.25-0.19,0.58-0.5,0.84-0.72c0.16-0.13,0.28-0.24,0.43-0.37c0.06-0.05,0.18-0.16,0.2-0.18
			c0.11-0.13,0.09-0.1,0.18-0.29c-0.21-0.4-0.28-0.36-0.72-0.54c-0.83-0.34-2.65-0.07-3.1,0.24c-1.14,0.78-0.81,0.35-1.92,1.43
			c-0.43,0.42-1.3,1.18-1.17,2.13c0.1,0.71,1.16,0.79,1.74,1.18L65.9,55.8c-0.07,0.04-2.1,1.98-2.66-0.22
			c-0.4,0.07-0.24,0.07-0.59,0.33l-1.53,1.12c0.03,1.99,4.31,1.92,6.97-1.4c1.64-2.05,0.24-2.16-1.12-2.78
			c-0.01-0.98,1.11-1.22,1.87-1.03C69.28,51.93,68.98,52.06,69.52,52.24z"/>
	</g>
</g>
</svg>
