<svg id="svg" xmlns="http://www.w3.org/2000/svg" xmlns:xlink="http://www.w3.org/1999/xlink" width="400" height="226.13333333333333" viewBox="0, 0, 400,226.13333333333333"><g id="svgg"><path id="path0" d="M314.706 0.962 C 314.706 1.055,314.248 1.131,313.688 1.131 L 312.670 1.131 312.670 10.374 L 312.670 19.616 316.251 19.774 C 318.220 19.860,321.427 19.860,323.378 19.773 C 325.841 19.663,326.923 19.689,326.923 19.857 C 326.923 20.005,327.512 20.095,328.450 20.089 C 330.303 20.078,334.023 20.556,334.120 20.818 C 334.158 20.923,334.540 20.951,334.968 20.882 C 335.417 20.809,335.747 20.850,335.747 20.980 C 335.747 21.103,336.001 21.156,336.312 21.096 C 336.666 21.028,336.878 21.092,336.878 21.265 C 336.878 21.428,337.030 21.483,337.246 21.400 C 337.448 21.323,337.728 21.347,337.868 21.455 C 338.008 21.563,338.758 21.783,339.536 21.943 C 340.314 22.103,340.950 22.312,340.950 22.408 C 340.950 22.504,341.154 22.529,341.403 22.464 C 341.666 22.395,341.855 22.457,341.855 22.611 C 341.855 22.758,341.961 22.812,342.091 22.731 C 342.221 22.651,342.452 22.689,342.603 22.814 C 342.755 22.940,343.360 23.165,343.948 23.313 C 344.536 23.461,344.967 23.662,344.906 23.761 C 344.846 23.859,345.000 23.886,345.249 23.821 C 345.498 23.756,345.701 23.813,345.701 23.948 C 345.701 24.083,345.854 24.135,346.041 24.064 C 346.227 23.992,346.380 24.027,346.380 24.142 C 346.380 24.257,347.042 24.584,347.851 24.870 C 348.660 25.155,349.321 25.480,349.321 25.590 C 349.321 25.701,349.398 25.776,349.491 25.756 C 349.704 25.712,352.336 26.912,352.489 27.123 C 352.551 27.209,353.188 27.581,353.904 27.950 C 354.717 28.368,355.164 28.730,355.094 28.914 C 355.030 29.084,355.086 29.145,355.227 29.058 C 355.556 28.855,358.635 30.978,358.448 31.280 C 358.362 31.419,358.410 31.451,358.562 31.356 C 358.706 31.268,358.824 31.303,358.824 31.435 C 358.824 31.566,358.921 31.674,359.040 31.674 C 359.577 31.674,362.084 33.750,362.099 34.208 C 362.102 34.295,362.252 34.499,362.433 34.661 C 362.716 34.915,362.720 34.901,362.461 34.559 C 362.297 34.341,362.240 34.163,362.335 34.163 C 362.568 34.163,366.508 38.194,366.544 38.470 C 366.560 38.590,366.585 38.781,366.601 38.895 C 366.616 39.009,366.722 39.187,366.835 39.291 C 366.955 39.401,366.973 39.361,366.878 39.197 C 366.789 39.041,366.798 38.914,366.898 38.915 C 367.154 38.916,368.000 40.244,367.924 40.526 C 367.890 40.653,367.955 40.700,368.069 40.630 C 368.283 40.498,369.457 41.884,369.457 42.268 C 369.457 42.388,369.608 42.543,369.793 42.614 C 370.000 42.694,370.072 42.890,369.980 43.128 C 369.883 43.382,369.919 43.459,370.088 43.356 C 370.366 43.183,371.119 44.417,370.881 44.655 C 370.803 44.733,370.890 44.796,371.075 44.796 C 371.262 44.796,371.697 45.397,372.059 46.154 C 372.416 46.900,372.768 47.511,372.843 47.511 C 373.075 47.511,373.522 48.922,373.373 49.185 C 373.295 49.322,373.312 49.361,373.412 49.271 C 373.511 49.181,373.759 49.435,373.962 49.836 C 374.203 50.314,374.251 50.623,374.100 50.732 C 373.963 50.830,374.014 50.899,374.225 50.902 C 374.470 50.904,374.750 51.449,375.125 52.658 C 375.424 53.623,375.748 54.446,375.845 54.488 C 375.942 54.529,375.956 54.668,375.877 54.796 C 375.798 54.923,375.860 55.106,376.013 55.201 C 376.167 55.296,376.316 55.675,376.345 56.043 C 376.374 56.411,376.456 56.807,376.527 56.922 C 376.598 57.036,376.731 57.537,376.822 58.033 C 376.914 58.530,377.101 59.013,377.239 59.106 C 377.415 59.226,377.401 59.333,377.189 59.469 C 376.947 59.626,376.961 59.734,377.261 60.034 C 377.502 60.275,377.579 60.576,377.480 60.887 C 377.396 61.152,377.434 61.435,377.564 61.515 C 377.695 61.596,377.861 62.270,377.934 63.014 C 378.007 63.758,378.159 65.283,378.271 66.403 C 378.580 69.487,378.536 74.383,378.166 78.167 C 377.983 80.034,377.831 81.714,377.827 81.900 C 377.822 82.174,377.784 82.181,377.629 81.936 C 377.488 81.715,377.406 81.791,377.324 82.219 C 377.263 82.542,377.300 82.805,377.407 82.805 C 377.514 82.805,377.602 82.958,377.602 83.145 C 377.602 83.331,377.493 83.484,377.359 83.484 C 377.226 83.484,377.147 83.713,377.183 83.993 C 377.219 84.273,377.189 84.604,377.117 84.729 C 377.045 84.853,376.807 85.896,376.587 87.048 C 376.368 88.199,376.088 89.140,375.966 89.140 C 375.844 89.140,375.797 89.281,375.863 89.452 C 375.929 89.624,375.905 89.853,375.809 89.961 C 375.713 90.070,375.402 90.998,375.117 92.025 C 374.831 93.051,374.510 93.891,374.403 93.891 C 374.296 93.891,374.219 93.968,374.233 94.061 C 374.294 94.483,373.907 95.229,373.695 95.098 C 373.565 95.018,373.525 95.059,373.605 95.188 C 373.790 95.488,373.330 96.833,373.041 96.833 C 372.922 96.833,372.890 96.940,372.971 97.071 C 373.052 97.202,372.931 97.482,372.702 97.693 C 372.473 97.904,372.249 98.280,372.206 98.528 C 372.115 99.046,371.509 100.285,371.265 100.452 C 371.174 100.515,370.830 101.100,370.501 101.753 C 370.171 102.407,369.809 102.941,369.695 102.941 C 369.581 102.941,369.428 103.128,369.356 103.357 C 369.283 103.586,368.945 104.094,368.605 104.488 C 368.265 104.881,367.802 105.460,367.576 105.773 C 367.351 106.087,367.078 106.289,366.970 106.223 C 366.862 106.156,366.700 106.220,366.610 106.366 C 366.501 106.542,366.553 106.575,366.764 106.466 C 366.938 106.375,366.884 106.462,366.642 106.657 C 366.401 106.853,366.289 107.014,366.395 107.014 C 366.500 107.014,366.404 107.215,366.181 107.461 C 365.959 107.707,365.700 107.860,365.606 107.803 C 365.512 107.745,365.450 107.874,365.467 108.091 C 365.486 108.336,365.349 108.472,365.104 108.453 C 364.888 108.436,364.758 108.498,364.815 108.592 C 364.987 108.869,362.874 110.873,362.479 110.807 C 362.278 110.774,362.112 110.881,362.109 111.045 C 362.103 111.415,359.654 113.457,358.785 113.817 C 358.433 113.963,358.145 114.159,358.145 114.254 C 358.145 114.348,357.559 114.717,356.844 115.073 C 356.128 115.428,355.479 115.808,355.401 115.917 C 355.322 116.026,355.203 115.976,355.136 115.806 C 355.047 115.583,355.008 115.602,354.995 115.875 C 354.984 116.110,354.573 116.404,353.903 116.655 C 353.312 116.877,352.773 117.137,352.706 117.233 C 352.497 117.530,350.644 118.105,350.393 117.950 C 350.255 117.864,350.224 117.912,350.318 118.065 C 350.420 118.230,350.308 118.326,350.013 118.326 C 349.757 118.326,349.548 118.438,349.548 118.576 C 349.548 118.714,349.395 118.768,349.208 118.696 C 349.021 118.625,348.869 118.673,348.869 118.803 C 348.869 118.950,348.587 118.985,348.133 118.896 C 347.618 118.794,347.495 118.817,347.723 118.973 C 347.964 119.139,347.687 119.270,346.648 119.485 C 345.878 119.644,345.249 119.855,345.249 119.955 C 345.249 120.257,344.571 120.157,344.563 119.853 C 344.559 119.687,344.425 119.742,344.240 119.987 C 344.026 120.269,343.774 120.355,343.456 120.254 C 343.193 120.171,342.986 120.206,342.986 120.333 C 342.986 120.458,342.252 120.633,341.355 120.722 C 338.356 121.017,340.462 121.216,344.594 121.027 C 371.076 119.818,391.038 104.079,397.374 79.412 C 399.384 71.589,400.120 56.135,398.543 54.904 C 398.375 54.773,398.378 54.685,398.553 54.613 C 398.691 54.556,398.753 54.249,398.692 53.931 C 398.622 53.564,398.521 53.451,398.415 53.622 C 398.320 53.775,398.171 53.418,398.069 52.794 C 397.970 52.191,397.850 51.544,397.801 51.357 C 397.752 51.171,397.669 50.814,397.616 50.566 C 397.366 49.378,397.101 48.563,397.065 48.869 C 397.026 49.195,396.222 46.732,396.072 45.826 C 396.032 45.584,395.892 45.350,395.761 45.307 C 395.630 45.263,395.578 45.003,395.646 44.729 C 395.713 44.455,395.684 44.309,395.580 44.404 C 395.357 44.610,394.742 43.258,394.924 42.963 C 394.993 42.851,394.942 42.760,394.810 42.760 C 394.678 42.760,394.570 42.615,394.570 42.437 C 394.570 42.259,394.439 41.979,394.279 41.815 C 394.118 41.650,393.749 40.956,393.458 40.271 C 393.168 39.587,392.815 38.952,392.675 38.861 C 392.493 38.742,392.499 38.694,392.697 38.691 C 392.855 38.689,392.914 38.535,392.835 38.329 C 392.737 38.074,392.650 38.048,392.532 38.238 C 392.373 38.495,391.954 37.448,392.050 37.031 C 392.073 36.928,391.997 36.904,391.879 36.976 C 391.762 37.049,391.598 36.797,391.514 36.418 C 391.431 36.038,391.111 35.494,390.802 35.208 C 390.317 34.758,390.137 34.379,390.063 33.654 C 390.053 33.561,389.933 33.510,389.795 33.541 C 389.657 33.572,389.337 33.207,389.084 32.729 C 388.830 32.252,388.491 31.811,388.330 31.749 C 388.169 31.687,388.099 31.476,388.175 31.279 C 388.254 31.073,388.218 30.980,388.089 31.059 C 387.893 31.180,387.007 29.999,386.995 29.600 C 386.993 29.517,386.898 29.365,386.785 29.261 C 386.663 29.149,386.653 29.211,386.762 29.412 C 386.961 29.782,386.862 29.685,385.969 28.640 C 385.660 28.278,385.552 28.065,385.729 28.168 C 385.924 28.282,385.880 28.128,385.616 27.774 C 385.377 27.455,385.138 27.235,385.086 27.285 C 384.957 27.409,384.163 26.675,384.163 26.432 C 384.163 26.325,382.788 24.872,381.109 23.202 C 379.429 21.533,378.054 20.052,378.054 19.912 C 378.054 19.771,377.972 19.707,377.871 19.770 C 377.624 19.923,376.357 18.893,376.357 18.538 C 376.357 18.383,376.167 18.228,375.934 18.194 C 375.701 18.159,375.243 17.885,374.916 17.585 C 374.589 17.284,374.070 16.869,373.762 16.664 C 373.419 16.434,373.331 16.288,373.536 16.286 C 373.818 16.283,373.821 16.252,373.550 16.081 C 373.375 15.970,373.095 15.931,372.928 15.995 C 372.761 16.059,372.624 16.002,372.624 15.867 C 372.624 15.733,372.316 15.463,371.938 15.268 C 371.534 15.058,371.317 14.808,371.410 14.658 C 371.513 14.492,371.438 14.452,371.197 14.545 C 370.971 14.631,370.714 14.526,370.538 14.274 C 370.379 14.047,370.198 13.857,370.136 13.852 C 369.656 13.812,368.778 13.208,368.775 12.916 C 368.772 12.601,368.744 12.599,368.552 12.896 C 368.431 13.083,368.331 13.127,368.329 12.994 C 368.327 12.862,367.964 12.581,367.522 12.370 C 367.021 12.131,366.779 11.888,366.880 11.724 C 366.985 11.555,366.923 11.507,366.706 11.591 C 366.513 11.665,366.254 11.533,366.096 11.281 C 365.946 11.040,365.731 10.898,365.620 10.967 C 365.263 11.188,364.199 10.584,364.530 10.348 C 364.729 10.206,364.668 10.175,364.331 10.248 C 363.777 10.368,362.576 9.680,362.838 9.392 C 362.932 9.288,362.881 9.277,362.725 9.367 C 362.566 9.459,361.607 9.126,360.550 8.612 C 359.510 8.106,358.537 7.692,358.389 7.692 C 358.240 7.692,358.180 7.592,358.256 7.469 C 358.336 7.340,358.245 7.302,358.043 7.380 C 357.850 7.454,357.692 7.405,357.692 7.271 C 357.692 7.137,357.540 7.086,357.353 7.158 C 357.135 7.242,357.014 7.153,357.014 6.911 C 357.014 6.704,356.925 6.589,356.817 6.656 C 356.582 6.801,353.764 5.888,353.662 5.633 C 353.623 5.535,353.455 5.507,353.289 5.571 C 353.123 5.635,352.928 5.591,352.855 5.474 C 352.783 5.357,352.009 5.076,351.136 4.850 C 350.102 4.581,349.548 4.325,349.548 4.114 C 349.548 3.845,349.487 3.841,349.191 4.087 C 348.913 4.317,348.797 4.322,348.664 4.107 C 348.570 3.955,348.334 3.892,348.138 3.967 C 347.943 4.042,347.722 4.004,347.647 3.882 C 347.571 3.760,346.801 3.534,345.935 3.379 C 345.069 3.225,344.412 3.013,344.476 2.910 C 344.540 2.806,344.282 2.784,343.903 2.860 C 343.507 2.939,343.213 2.903,343.213 2.775 C 343.213 2.652,342.958 2.600,342.647 2.660 C 342.293 2.727,342.081 2.664,342.081 2.491 C 342.081 2.311,341.891 2.261,341.542 2.349 C 341.201 2.434,340.899 2.361,340.724 2.150 C 340.571 1.966,340.366 1.865,340.267 1.926 C 340.021 2.078,335.520 1.536,335.520 1.354 C 335.520 1.273,334.960 1.254,334.276 1.310 C 333.536 1.372,333.032 1.323,333.032 1.189 C 333.032 1.052,332.419 1.009,331.448 1.079 C 330.577 1.141,329.864 1.102,329.864 0.992 C 329.864 0.880,326.526 0.792,322.285 0.792 C 318.117 0.792,314.706 0.868,314.706 0.962 M212.739 201.499 C 212.590 201.562,212.353 201.964,212.212 202.392 C 212.070 202.821,211.858 203.112,211.741 203.040 C 211.623 202.967,211.551 202.991,211.581 203.094 C 211.610 203.197,211.508 203.510,211.352 203.790 C 211.197 204.070,211.145 204.299,211.236 204.299 C 211.328 204.299,211.281 204.421,211.131 204.570 C 210.982 204.719,210.860 205.021,210.860 205.240 C 210.860 205.459,210.664 205.821,210.426 206.043 C 210.187 206.266,209.918 206.753,209.829 207.127 C 209.739 207.500,209.587 207.907,209.490 208.032 C 209.394 208.156,209.301 208.360,209.285 208.484 C 209.194 209.191,208.978 209.711,208.816 209.611 C 208.660 209.514,208.401 209.999,208.241 210.690 C 208.219 210.783,208.181 210.885,208.156 210.916 C 208.131 210.947,208.075 211.160,208.031 211.389 C 207.988 211.617,207.782 211.993,207.574 212.223 C 207.363 212.456,207.271 212.763,207.366 212.917 C 207.474 213.092,207.441 213.134,207.275 213.031 C 207.131 212.942,207.001 212.977,206.985 213.109 C 206.950 213.406,206.862 213.765,206.787 213.914 C 206.756 213.976,206.713 214.104,206.691 214.197 C 206.533 214.879,206.228 215.492,205.866 215.854 C 205.632 216.087,205.381 216.561,205.307 216.906 C 205.233 217.251,205.059 217.788,204.921 218.100 C 204.629 218.757,204.591 218.886,204.553 219.344 C 204.538 219.531,204.372 219.683,204.186 219.683 C 203.999 219.683,203.846 219.829,203.846 220.008 C 203.846 220.186,203.729 220.619,203.585 220.969 C 203.442 221.320,203.298 221.732,203.266 221.885 C 203.235 222.038,203.047 222.325,202.849 222.523 C 202.522 222.850,202.398 223.196,202.545 223.370 C 202.576 223.406,202.421 223.712,202.201 224.048 C 201.980 224.385,201.856 224.661,201.926 224.661 C 201.995 224.661,201.943 224.864,201.810 225.113 C 201.575 225.552,201.638 225.566,203.927 225.566 C 206.386 225.566,206.474 225.531,206.691 224.473 C 206.725 224.308,206.828 224.003,206.920 223.795 C 207.116 223.353,207.173 223.165,207.212 222.837 C 207.227 222.706,207.342 222.661,207.466 222.738 C 207.590 222.814,207.700 222.795,207.709 222.694 C 207.768 222.048,207.959 221.378,208.147 221.151 C 208.268 221.005,208.300 220.819,208.218 220.737 C 208.136 220.655,208.194 220.588,208.347 220.588 C 208.499 220.588,208.579 220.512,208.524 220.419 C 207.966 219.471,208.728 219.231,212.299 219.231 C 216.072 219.231,216.063 219.228,216.063 220.507 C 216.063 220.815,216.146 221.016,216.248 220.953 C 216.350 220.890,216.568 221.903,216.733 223.202 L 217.033 225.566 219.244 225.566 L 221.454 225.566 221.338 224.830 C 221.274 224.426,221.105 224.020,220.962 223.929 C 220.802 223.827,220.793 223.761,220.939 223.759 C 221.214 223.755,221.084 222.124,220.793 221.937 C 220.633 221.834,220.391 220.568,219.824 216.855 C 219.767 216.482,219.712 215.941,219.702 215.654 C 219.692 215.367,219.594 215.187,219.486 215.254 C 219.377 215.321,219.212 214.741,219.119 213.966 C 219.026 213.191,218.916 212.353,218.875 212.104 C 218.835 211.855,218.747 211.244,218.681 210.747 C 218.445 208.970,218.282 208.254,218.052 207.975 C 217.923 207.820,217.912 207.692,218.026 207.692 C 218.141 207.692,218.190 207.311,218.135 206.844 C 218.057 206.182,218.000 206.094,217.876 206.444 C 217.768 206.748,217.661 206.421,217.542 205.426 C 217.445 204.619,217.323 203.705,217.272 203.394 C 217.220 203.083,217.144 202.523,217.102 202.149 L 217.027 201.471 215.018 201.428 C 213.913 201.404,212.888 201.436,212.739 201.499 M326.469 201.426 C 326.408 201.484,325.849 201.591,325.227 201.665 C 324.605 201.739,323.983 201.955,323.845 202.144 C 323.706 202.334,323.426 202.489,323.222 202.489 C 323.018 202.489,322.851 202.568,322.851 202.665 C 322.851 202.762,322.545 202.957,322.172 203.098 C 321.799 203.239,321.493 203.516,321.493 203.713 C 321.493 203.911,321.391 204.072,321.267 204.072 C 321.143 204.072,321.041 204.231,321.041 204.425 C 321.041 204.619,320.954 204.724,320.848 204.658 C 320.436 204.404,320.066 205.871,319.962 208.171 C 319.888 209.811,319.934 210.622,320.108 210.729 C 320.248 210.816,320.362 211.065,320.362 211.283 C 320.362 211.501,320.670 211.908,321.047 212.186 C 321.424 212.465,321.681 212.776,321.618 212.877 C 321.555 212.979,321.723 213.253,321.990 213.488 C 322.320 213.777,322.422 213.805,322.308 213.575 C 322.215 213.388,322.501 213.643,322.944 214.140 C 323.387 214.638,323.750 214.970,323.752 214.878 C 323.755 214.721,324.322 215.128,325.009 215.781 C 325.173 215.936,325.411 216.063,325.538 216.063 C 325.665 216.063,325.851 216.201,325.950 216.370 C 326.050 216.538,326.360 216.796,326.640 216.943 C 326.920 217.090,327.149 217.360,327.149 217.542 C 327.149 217.724,327.234 217.873,327.338 217.873 C 327.606 217.873,328.047 219.426,327.906 219.873 C 327.621 220.774,327.272 221.267,326.920 221.267 C 326.711 221.267,326.363 221.463,326.146 221.703 C 325.841 222.040,325.510 222.124,324.697 222.070 C 324.117 222.032,323.388 221.986,323.077 221.970 C 322.613 221.944,322.572 221.896,322.851 221.698 C 323.116 221.510,323.057 221.479,322.575 221.556 C 322.236 221.610,322.013 221.567,322.079 221.461 C 322.145 221.354,321.995 221.267,321.746 221.267 C 321.497 221.267,321.230 221.163,321.152 221.037 C 321.073 220.911,320.918 220.864,320.806 220.933 C 320.694 221.002,320.279 220.749,319.883 220.371 C 318.658 219.200,318.575 219.320,318.198 222.770 C 318.047 224.160,318.408 224.716,319.304 224.474 C 319.407 224.446,319.429 224.523,319.354 224.644 C 319.230 224.844,319.572 224.968,321.866 225.553 C 323.049 225.855,326.923 225.769,327.754 225.422 C 328.167 225.249,328.531 225.124,328.562 225.144 C 328.727 225.246,329.630 224.831,329.544 224.692 C 329.489 224.603,329.734 224.402,330.088 224.245 C 330.465 224.079,330.832 223.675,330.971 223.275 C 331.103 222.899,331.307 222.651,331.426 222.724 C 331.593 222.827,332.036 222.027,331.948 221.780 C 331.938 221.751,332.025 221.396,332.141 220.989 C 332.448 219.919,332.417 217.193,332.091 216.625 C 332.020 216.503,331.895 216.119,331.812 215.771 C 331.729 215.424,331.569 215.196,331.458 215.266 C 331.346 215.335,331.189 215.186,331.110 214.935 C 331.030 214.685,330.864 214.480,330.741 214.480 C 330.617 214.480,330.571 214.391,330.637 214.284 C 330.761 214.083,329.934 213.211,329.671 213.265 C 329.451 213.310,328.801 212.815,328.741 212.557 C 328.712 212.432,328.607 212.352,328.509 212.379 C 328.411 212.405,328.020 212.131,327.641 211.769 C 327.206 211.353,326.915 211.210,326.851 211.381 C 326.791 211.542,326.676 211.469,326.568 211.199 C 326.390 210.754,325.615 210.073,325.283 210.070 C 325.189 210.069,325.106 209.966,325.097 209.842 C 325.088 209.717,324.918 209.435,324.718 209.214 C 324.390 208.852,324.305 208.115,324.456 206.927 C 324.486 206.693,324.849 206.301,325.264 206.056 C 325.679 205.812,326.018 205.531,326.018 205.433 C 326.018 205.334,326.383 205.186,326.829 205.102 C 327.813 204.917,330.411 205.198,329.778 205.420 C 329.472 205.528,329.714 205.656,330.637 205.878 C 331.344 206.047,331.974 206.270,332.037 206.374 C 332.220 206.669,333.030 206.592,333.051 206.278 C 333.061 206.123,333.100 205.792,333.138 205.543 C 333.566 202.747,333.565 202.744,332.942 202.588 C 332.620 202.507,332.412 202.349,332.481 202.238 C 332.550 202.127,332.498 202.036,332.366 202.036 C 332.013 202.036,331.876 202.007,330.882 201.715 C 329.971 201.448,326.677 201.233,326.469 201.426 M134.951 202.319 C 134.777 203.249,134.692 203.966,134.486 206.221 C 134.373 207.455,134.265 207.886,134.145 207.578 C 134.011 207.235,133.960 207.343,133.935 208.032 C 133.917 208.529,133.865 209.138,133.819 209.383 C 133.773 209.629,133.675 210.494,133.601 211.306 C 133.330 214.292,133.032 216.357,132.836 216.603 C 132.726 216.742,132.464 218.586,132.255 220.701 C 132.045 222.817,131.818 224.777,131.749 225.057 C 131.627 225.559,131.654 225.566,133.912 225.566 C 135.583 225.566,136.203 225.489,136.214 225.283 C 136.223 225.127,136.273 224.644,136.327 224.208 C 136.477 222.981,136.900 219.409,136.970 218.778 C 137.005 218.467,137.051 217.805,137.072 217.308 C 137.101 216.632,137.167 216.489,137.330 216.742 C 137.493 216.993,137.551 216.854,137.553 216.204 L 137.557 215.326 138.624 215.446 C 139.211 215.512,139.728 215.678,139.774 215.815 C 139.819 215.952,140.011 216.063,140.200 216.063 C 140.388 216.063,140.828 216.369,141.176 216.742 C 141.525 217.115,141.703 217.421,141.572 217.421 C 141.441 217.421,141.557 217.614,141.829 217.851 C 142.102 218.087,142.368 218.504,142.420 218.776 C 142.473 219.048,142.721 219.593,142.973 219.986 C 143.596 220.962,144.084 222.032,144.242 222.772 C 144.272 222.915,144.518 223.331,144.788 223.695 C 145.213 224.271,145.388 224.715,145.458 225.396 C 145.467 225.489,146.550 225.566,147.864 225.566 L 150.253 225.566 150.142 224.857 C 150.080 224.467,149.921 224.039,149.789 223.906 C 149.656 223.774,149.546 223.456,149.544 223.201 C 149.541 222.819,149.502 222.797,149.321 223.077 C 149.128 223.375,149.102 223.374,149.098 223.063 C 149.097 222.868,148.840 222.182,148.529 221.537 C 148.218 220.892,147.964 220.205,147.964 220.010 C 147.964 219.816,147.874 219.712,147.763 219.780 C 147.653 219.849,147.489 219.676,147.398 219.398 C 147.307 219.119,147.216 218.840,147.194 218.778 C 147.060 218.382,146.498 217.507,146.290 217.368 C 146.117 217.253,146.128 217.200,146.324 217.198 C 146.495 217.196,146.428 217.016,146.154 216.742 C 145.905 216.493,145.701 216.102,145.701 215.872 C 145.701 215.439,145.074 214.737,144.689 214.739 C 144.568 214.739,144.436 214.644,144.397 214.526 C 144.358 214.409,144.610 214.358,144.957 214.414 C 145.397 214.484,145.496 214.450,145.284 214.301 C 145.005 214.105,145.274 213.957,146.380 213.698 C 146.831 213.593,147.497 213.061,147.452 212.843 C 147.423 212.697,147.523 212.573,147.677 212.567 C 147.936 212.557,148.805 211.538,148.554 211.538 C 148.491 211.538,148.593 211.170,148.782 210.719 C 149.145 209.850,149.179 205.961,148.825 205.742 C 148.725 205.680,148.643 205.453,148.643 205.238 C 148.643 204.789,147.046 202.941,146.578 202.848 C 145.512 202.636,145.005 202.413,145.248 202.263 C 145.745 201.956,142.089 201.584,138.576 201.584 L 135.088 201.584 134.951 202.319 M160.844 201.753 C 160.788 202.386,160.466 205.047,160.277 206.448 C 160.188 207.104,159.988 208.791,159.861 209.955 C 159.827 210.266,159.783 210.959,159.764 211.495 C 159.743 212.080,159.638 212.414,159.502 212.330 C 159.373 212.250,159.269 212.463,159.260 212.826 C 159.252 213.176,159.209 213.716,159.166 214.027 C 159.018 215.086,158.866 216.399,158.578 219.101 C 158.410 220.682,158.227 221.618,158.135 221.363 C 158.028 221.064,157.951 221.268,157.890 222.011 C 157.841 222.607,157.904 223.208,158.029 223.345 C 158.187 223.518,158.177 223.550,157.997 223.450 C 157.819 223.350,157.711 223.663,157.658 224.435 L 157.579 225.566 165.781 225.566 L 173.982 225.566 173.987 224.830 C 173.990 224.426,174.075 223.739,174.176 223.303 C 174.503 221.897,174.713 221.946,168.307 221.946 L 162.443 221.946 162.466 221.097 C 162.486 220.340,162.508 220.310,162.670 220.814 C 162.830 221.316,162.857 221.277,162.903 220.475 C 162.974 219.220,163.021 218.683,163.220 216.799 L 163.394 215.158 167.646 215.158 C 170.845 215.158,171.921 215.088,171.992 214.876 C 172.045 214.720,172.113 213.906,172.144 213.066 L 172.201 211.538 167.977 211.538 C 164.218 211.538,163.768 211.499,163.890 211.181 C 163.965 210.984,164.027 210.469,164.027 210.036 C 164.027 209.603,164.120 209.307,164.234 209.377 C 164.435 209.502,164.847 206.391,164.734 205.600 C 164.682 205.233,165.032 205.204,169.416 205.204 C 174.748 205.204,174.391 205.332,174.454 203.394 C 174.477 202.665,174.494 202.647,174.661 203.167 C 174.808 203.628,174.846 203.534,174.864 202.658 L 174.887 201.584 167.873 201.584 C 164.016 201.584,160.853 201.660,160.844 201.753 M182.264 201.942 C 182.188 202.138,182.127 202.653,182.127 203.086 C 182.127 203.519,182.038 203.818,181.929 203.751 C 181.710 203.615,181.397 205.164,181.583 205.465 C 181.648 205.570,183.248 205.635,185.138 205.609 L 188.575 205.561 185.068 205.430 L 181.561 205.299 185.124 205.251 C 187.084 205.225,188.688 205.247,188.688 205.300 C 188.688 205.937,188.149 208.993,188.007 209.165 C 187.903 209.291,187.761 210.190,187.692 211.164 C 187.623 212.137,187.401 214.172,187.198 215.686 C 186.995 217.200,186.802 218.643,186.769 218.891 C 186.736 219.140,186.689 219.802,186.665 220.362 C 186.630 221.153,186.576 221.279,186.425 220.928 C 186.270 220.567,186.224 220.659,186.196 221.380 C 186.177 221.878,186.112 222.692,186.051 223.190 C 185.990 223.688,185.923 224.400,185.900 224.774 L 185.860 225.452 188.066 225.517 C 189.279 225.553,190.278 225.502,190.286 225.404 C 190.294 225.306,190.335 224.921,190.377 224.548 C 190.655 222.099,190.777 221.361,190.941 221.158 C 191.190 220.847,191.347 219.005,191.124 219.005 C 191.026 219.005,191.045 218.826,191.164 218.609 C 191.368 218.240,191.984 213.617,192.242 210.520 C 192.304 209.774,192.441 209.057,192.546 208.928 C 192.752 208.674,193.065 206.544,193.020 205.713 L 192.991 205.204 196.552 205.251 L 200.113 205.299 196.606 205.430 L 193.100 205.561 196.632 205.609 L 200.165 205.656 200.321 204.581 C 200.408 203.990,200.530 203.074,200.593 202.545 L 200.708 201.584 191.555 201.584 C 183.417 201.584,182.386 201.623,182.264 201.942 M233.533 201.753 C 233.672 202.230,232.931 207.943,232.781 207.560 C 232.655 207.240,232.607 207.344,232.595 207.957 C 232.586 208.413,232.511 208.964,232.428 209.182 C 232.324 209.451,232.360 209.524,232.541 209.413 C 232.860 209.215,232.894 209.549,232.586 209.858 C 232.465 209.978,232.312 210.609,232.245 211.258 C 232.179 211.908,232.075 212.822,232.014 213.290 C 231.953 213.758,231.853 214.700,231.790 215.385 C 231.623 217.221,231.419 218.410,231.227 218.665 C 231.133 218.790,230.991 219.604,230.909 220.475 C 230.743 222.266,230.577 223.836,230.525 224.126 C 230.505 224.233,230.501 224.601,230.516 224.943 L 230.543 225.566 232.663 225.566 L 234.782 225.566 235.031 223.586 C 235.168 222.497,235.350 220.897,235.436 220.030 C 235.531 219.083,235.652 218.622,235.741 218.877 C 235.823 219.109,236.012 218.088,236.162 216.607 C 236.312 215.126,236.474 213.609,236.522 213.235 C 236.569 212.862,236.735 211.363,236.889 209.905 C 237.043 208.447,237.257 207.307,237.363 207.373 C 237.470 207.439,237.570 207.207,237.585 206.857 C 237.601 206.508,237.638 206.018,237.667 205.769 C 237.697 205.520,237.796 204.477,237.888 203.450 L 238.056 201.584 235.770 201.584 C 234.513 201.584,233.506 201.660,233.533 201.753 M249.434 203.393 C 249.346 204.387,249.183 205.145,249.072 205.076 C 248.960 205.007,248.862 205.237,248.853 205.586 C 248.834 206.336,248.751 207.083,248.270 210.860 C 248.072 212.415,247.921 213.942,247.934 214.253 C 247.952 214.656,247.903 214.730,247.762 214.509 C 247.627 214.297,247.533 214.512,247.465 215.188 C 247.408 215.751,247.470 216.248,247.608 216.343 C 247.772 216.455,247.774 216.510,247.614 216.512 C 247.481 216.514,247.251 217.591,247.092 218.948 C 246.935 220.286,246.771 221.635,246.728 221.946 C 246.684 222.257,246.578 223.199,246.491 224.038 L 246.334 225.566 253.484 225.566 C 259.044 225.566,260.637 225.503,260.650 225.283 C 260.714 224.156,260.916 223.178,261.097 223.115 C 261.215 223.073,261.302 222.768,261.290 222.436 L 261.267 221.833 261.086 222.398 C 260.912 222.941,260.904 222.943,260.882 222.455 L 260.860 221.946 255.989 221.946 L 251.119 221.946 251.259 220.758 C 251.337 220.105,251.432 219.316,251.471 219.005 C 251.510 218.693,251.673 217.231,251.834 215.755 C 252.012 214.118,252.190 213.236,252.291 213.493 C 252.408 213.790,252.467 213.648,252.492 213.009 C 252.511 212.511,252.555 211.900,252.590 211.652 C 252.624 211.403,252.721 210.588,252.804 209.842 C 253.210 206.185,253.405 204.896,253.587 204.664 C 253.919 204.242,254.064 202.489,253.768 202.485 C 253.602 202.483,253.589 202.421,253.733 202.316 C 254.482 201.766,254.010 201.584,251.834 201.584 L 249.595 201.584 249.434 203.393 M272.513 201.863 C 272.457 202.021,272.370 202.658,272.318 203.281 C 272.043 206.554,271.612 209.689,271.451 209.589 C 271.350 209.527,271.258 209.762,271.248 210.111 C 271.238 210.461,271.204 210.950,271.172 211.199 C 271.141 211.448,270.928 213.308,270.698 215.332 C 270.440 217.600,270.205 218.902,270.083 218.725 C 269.964 218.551,269.913 218.896,269.955 219.605 C 269.992 220.247,269.946 220.725,269.853 220.667 C 269.760 220.609,269.675 221.000,269.666 221.536 C 269.656 222.073,269.608 222.715,269.559 222.964 C 269.509 223.213,269.411 223.900,269.340 224.491 L 269.211 225.566 277.340 225.566 L 285.470 225.566 285.629 224.717 C 285.717 224.251,285.831 223.436,285.883 222.907 L 285.978 221.946 279.987 221.946 C 275.150 221.946,274.018 221.889,274.109 221.650 C 274.227 221.343,274.335 220.291,274.426 218.552 C 274.472 217.686,274.507 217.618,274.661 218.100 C 274.813 218.575,274.848 218.504,274.880 217.647 C 274.925 216.450,275.055 215.367,275.167 215.255 C 275.211 215.211,277.151 215.163,279.479 215.149 L 283.710 215.122 283.710 214.593 C 283.710 214.302,283.779 213.886,283.862 213.669 C 283.977 213.369,283.936 213.321,283.692 213.468 C 283.436 213.622,283.424 213.595,283.632 213.335 C 283.775 213.156,283.928 212.704,283.971 212.330 L 284.050 211.652 279.778 211.590 L 275.506 211.528 275.649 210.484 C 275.727 209.909,275.799 209.173,275.808 208.849 C 275.822 208.323,275.844 208.308,276.004 208.710 C 276.140 209.053,276.205 208.903,276.272 208.088 C 276.321 207.497,276.284 207.014,276.189 207.014 C 276.095 207.014,276.018 206.906,276.018 206.774 C 276.018 206.642,276.120 206.597,276.244 206.674 C 276.379 206.757,276.471 206.488,276.471 206.009 L 276.471 205.204 281.200 205.204 L 285.930 205.204 286.104 204.016 C 286.200 203.363,286.285 202.574,286.295 202.262 L 286.312 201.697 279.463 201.637 C 274.101 201.590,272.591 201.639,272.513 201.863 M296.353 201.843 C 296.339 202.012,296.333 202.210,296.341 202.283 C 296.349 202.357,296.256 203.120,296.134 203.980 C 296.011 204.840,295.861 206.048,295.799 206.666 C 295.737 207.283,295.574 207.858,295.436 207.943 C 295.282 208.038,295.229 208.536,295.297 209.244 C 295.358 209.876,295.331 210.421,295.238 210.456 C 295.144 210.492,295.005 211.131,294.929 211.878 C 294.852 212.624,294.741 213.592,294.681 214.027 C 294.622 214.463,294.523 215.379,294.460 216.063 C 294.289 217.937,294.087 219.092,293.886 219.344 C 293.787 219.468,293.652 220.232,293.585 221.041 C 293.519 221.850,293.393 223.199,293.307 224.038 L 293.150 225.566 295.395 225.566 C 297.377 225.566,297.642 225.519,297.656 225.170 C 297.664 224.952,297.746 224.163,297.838 223.416 C 298.101 221.285,298.129 220.992,298.177 219.910 C 298.212 219.118,298.265 218.992,298.416 219.344 C 298.573 219.709,298.614 219.637,298.627 218.966 C 298.635 218.510,298.711 217.959,298.794 217.742 C 298.897 217.472,298.861 217.399,298.681 217.510 C 298.535 217.600,298.416 217.574,298.416 217.453 C 298.416 217.332,298.520 217.198,298.647 217.155 C 298.774 217.113,298.893 216.688,298.911 216.212 L 298.944 215.345 299.981 215.472 C 301.538 215.662,301.573 215.672,301.447 215.875 C 301.383 215.979,301.449 216.063,301.594 216.063 C 301.739 216.063,302.059 216.319,302.305 216.631 C 302.550 216.943,302.845 217.141,302.959 217.070 C 303.074 217.000,303.167 217.068,303.167 217.222 C 303.167 217.696,304.135 219.672,304.313 219.561 C 304.405 219.504,304.587 219.763,304.717 220.136 C 304.847 220.509,304.905 220.814,304.845 220.814 C 304.784 220.814,304.862 221.044,305.018 221.324 C 305.173 221.604,305.309 221.883,305.320 221.946 C 305.412 222.492,305.725 223.061,305.880 222.965 C 306.051 222.860,306.615 224.151,306.522 224.434 C 306.501 224.497,306.607 224.777,306.757 225.057 C 307.132 225.757,311.935 225.868,311.654 225.170 C 311.566 224.952,311.474 224.672,311.449 224.548 C 311.424 224.423,311.295 224.118,311.163 223.869 C 311.031 223.620,310.854 223.132,310.771 222.785 C 310.688 222.438,310.521 222.215,310.401 222.289 C 310.280 222.364,310.168 222.317,310.153 222.185 C 310.100 221.742,310.050 221.609,309.658 220.873 C 309.443 220.470,309.269 220.089,309.271 220.025 C 309.291 219.539,309.250 219.447,309.066 219.560 C 308.896 219.665,308.583 219.120,308.487 218.552 C 308.477 218.490,308.359 218.235,308.225 217.986 C 308.091 217.738,307.913 217.250,307.830 216.903 C 307.747 216.555,307.580 216.332,307.459 216.407 C 307.267 216.526,307.148 216.245,307.205 215.805 C 307.215 215.725,306.978 215.394,306.677 215.070 C 306.273 214.634,306.219 214.480,306.472 214.480 C 306.660 214.480,306.754 214.383,306.681 214.264 C 306.607 214.145,306.946 213.941,307.433 213.810 C 308.262 213.587,308.760 213.234,308.804 212.839 C 308.815 212.746,308.860 212.695,308.904 212.726 C 309.106 212.869,310.181 211.306,310.181 210.870 C 310.181 210.601,310.269 210.435,310.377 210.502 C 310.485 210.568,310.638 210.153,310.717 209.579 C 310.923 208.074,310.893 207.240,310.633 207.240 C 310.509 207.240,310.407 207.132,310.407 207.000 C 310.407 206.868,310.513 206.826,310.643 206.906 C 311.025 207.143,310.607 205.806,310.200 205.494 C 310.003 205.342,309.925 205.215,310.028 205.211 C 310.130 205.207,310.003 204.935,309.745 204.607 C 309.487 204.280,309.276 203.872,309.276 203.703 C 309.276 203.533,309.131 203.394,308.953 203.394 C 308.775 203.394,308.471 203.235,308.278 203.042 C 308.085 202.849,307.711 202.649,307.447 202.598 C 307.183 202.547,306.815 202.379,306.628 202.224 C 305.919 201.636,296.402 201.283,296.353 201.843 M141.750 205.409 C 141.400 205.546,141.514 205.616,142.288 205.740 C 143.661 205.959,144.057 206.224,144.237 207.042 C 144.352 207.564,144.446 207.670,144.591 207.440 C 144.719 207.239,144.789 207.572,144.789 208.371 C 144.789 209.257,144.726 209.518,144.570 209.276 C 144.390 208.998,144.350 209.022,144.347 209.413 C 144.344 209.838,143.407 211.105,143.105 211.091 C 142.516 211.065,142.440 211.105,142.733 211.291 C 143.161 211.562,141.100 211.991,139.372 211.991 C 138.054 211.991,138.043 211.985,138.115 211.369 C 138.155 211.027,138.315 209.499,138.471 207.975 L 138.755 205.204 140.475 205.220 C 141.525 205.229,142.022 205.303,141.750 205.409 M302.613 205.408 C 302.731 205.520,303.263 205.660,303.794 205.718 C 304.702 205.818,305.656 206.506,305.656 207.062 C 305.656 207.174,305.741 207.214,305.845 207.150 C 306.054 207.021,306.134 207.357,306.134 208.371 C 306.134 209.366,306.055 209.722,305.861 209.602 C 305.766 209.544,305.623 209.704,305.542 209.957 C 305.462 210.211,305.123 210.593,304.791 210.806 C 304.458 211.019,304.070 211.342,303.929 211.524 C 303.641 211.897,299.158 212.211,299.386 211.842 C 299.456 211.730,299.574 210.984,299.647 210.185 C 299.721 209.386,299.873 208.676,299.985 208.607 C 300.097 208.537,300.213 207.871,300.244 207.125 C 300.275 206.379,300.345 205.642,300.400 205.486 C 300.517 205.160,302.285 205.097,302.613 205.408 M149.383 208.371 C 149.383 208.931,149.427 209.160,149.481 208.880 C 149.535 208.600,149.535 208.142,149.481 207.862 C 149.427 207.582,149.383 207.811,149.383 208.371 M214.271 208.314 C 214.280 208.781,214.317 209.316,214.353 209.502 C 214.389 209.689,214.493 210.554,214.585 211.425 C 214.676 212.296,214.842 213.121,214.954 213.258 C 215.066 213.395,215.223 213.981,215.302 214.559 L 215.446 215.611 213.070 215.611 L 210.694 215.611 211.094 214.197 C 211.550 212.587,211.951 211.545,211.987 211.878 C 212.017 212.160,212.649 210.494,212.802 209.729 C 212.864 209.417,213.057 209.055,213.230 208.923 C 213.403 208.791,213.613 208.409,213.697 208.074 C 213.919 207.191,214.251 207.329,214.271 208.314 M214.706 215.917 C 215.141 215.955,214.301 216.004,212.839 216.025 C 211.377 216.046,210.181 215.987,210.180 215.894 C 210.180 215.737,212.847 215.751,214.706 215.917 " stroke="none" fill="#4a8835" fill-rule="evenodd"></path><path id="path1" d="M319.118 0.679 C 315.929 0.794,316.212 0.811,321.493 0.825 C 325.100 0.835,326.993 0.773,326.244 0.669 C 324.896 0.483,324.533 0.483,319.118 0.679 M313.688 0.905 C 313.608 1.033,313.799 1.131,314.127 1.131 C 314.445 1.131,314.706 1.029,314.706 0.905 C 314.706 0.781,314.508 0.679,314.267 0.679 C 314.025 0.679,313.765 0.781,313.688 0.905 M327.885 0.835 C 328.102 0.892,328.459 0.892,328.676 0.835 C 328.894 0.778,328.716 0.731,328.281 0.731 C 327.845 0.731,327.667 0.778,327.885 0.835 M310.731 1.157 C 310.632 1.317,310.147 1.349,309.336 1.248 C 308.466 1.139,308.139 1.166,308.246 1.338 C 308.343 1.496,308.133 1.584,307.659 1.584 C 306.439 1.584,301.271 2.262,300.889 2.472 C 300.694 2.580,300.261 2.616,299.928 2.552 C 299.536 2.477,299.321 2.534,299.321 2.714 C 299.321 2.910,299.083 2.947,298.507 2.839 C 298.059 2.755,297.747 2.774,297.814 2.882 C 297.880 2.989,296.821 3.263,295.461 3.489 C 294.100 3.715,292.986 3.997,292.986 4.115 C 292.986 4.233,292.783 4.265,292.534 4.186 C 292.285 4.107,292.081 4.130,292.081 4.238 C 292.081 4.346,291.313 4.626,290.373 4.860 C 289.433 5.094,288.615 5.364,288.556 5.461 C 288.496 5.557,288.298 5.579,288.115 5.509 C 287.932 5.439,287.783 5.506,287.783 5.658 C 287.783 5.824,287.601 5.888,287.330 5.817 C 287.081 5.752,286.927 5.779,286.987 5.877 C 287.116 6.085,285.297 6.590,285.025 6.421 C 284.924 6.359,284.842 6.416,284.842 6.548 C 284.842 6.680,284.689 6.787,284.502 6.787 C 284.316 6.787,284.163 6.900,284.163 7.038 C 284.163 7.176,284.010 7.230,283.824 7.158 C 283.637 7.086,283.484 7.110,283.484 7.211 C 283.484 7.312,282.873 7.579,282.127 7.805 C 281.380 8.031,280.769 8.315,280.769 8.435 C 280.769 8.555,280.597 8.513,280.386 8.342 C 280.114 8.122,280.054 8.115,280.176 8.319 C 280.295 8.516,280.076 8.719,279.485 8.962 C 279.009 9.157,278.162 9.532,277.602 9.794 C 277.042 10.056,276.456 10.261,276.301 10.251 C 276.145 10.240,276.018 10.311,276.018 10.408 C 276.018 10.505,275.586 10.757,275.057 10.969 C 274.529 11.180,274.045 11.429,273.983 11.522 C 273.776 11.828,271.223 12.895,271.011 12.764 C 270.897 12.694,270.831 12.771,270.865 12.936 C 270.900 13.100,270.800 13.210,270.645 13.179 C 270.489 13.148,270.362 13.209,270.362 13.314 C 270.362 13.420,269.955 13.690,269.457 13.914 C 268.959 14.138,268.552 14.390,268.552 14.472 C 268.552 14.555,267.941 14.915,267.195 15.271 C 266.448 15.628,265.837 16.009,265.837 16.118 C 265.837 16.227,265.744 16.259,265.630 16.188 C 265.516 16.118,265.389 16.138,265.347 16.232 C 265.276 16.393,261.433 19.020,260.999 19.204 C 260.888 19.251,260.878 19.159,260.976 18.999 C 261.098 18.803,261.066 18.764,260.880 18.879 C 260.728 18.973,260.656 19.103,260.721 19.167 C 260.786 19.232,259.749 20.084,258.417 21.060 C 256.212 22.676,255.571 23.182,254.103 24.465 C 253.837 24.697,253.544 24.892,253.450 24.898 C 253.357 24.904,252.873 25.311,252.376 25.803 C 251.878 26.294,251.345 26.649,251.190 26.592 C 251.036 26.534,250.935 26.567,250.964 26.665 C 251.030 26.884,243.394 34.470,243.156 34.423 C 243.063 34.404,243.012 34.476,243.043 34.583 C 243.074 34.689,242.460 35.529,241.679 36.449 C 238.927 39.689,236.245 43.124,235.912 43.835 C 235.781 44.115,235.589 44.344,235.484 44.344 C 235.380 44.344,235.294 44.437,235.294 44.551 C 235.294 44.946,232.850 48.386,232.679 48.232 C 232.584 48.147,232.584 48.210,232.678 48.373 C 232.779 48.548,232.616 49.009,232.278 49.504 C 231.964 49.964,231.528 50.721,231.310 51.188 C 231.091 51.654,230.839 52.036,230.749 52.036 C 230.592 52.036,230.090 53.267,230.090 53.654 C 230.090 53.760,235.392 53.846,241.871 53.846 C 254.453 53.846,253.901 53.896,254.520 52.710 C 255.270 51.276,256.667 49.353,256.801 49.570 C 256.895 49.721,257.004 49.673,257.093 49.442 C 257.185 49.202,257.145 49.127,256.982 49.228 C 256.546 49.497,256.861 48.960,257.982 47.523 C 258.577 46.760,259.151 46.190,259.257 46.255 C 259.364 46.321,259.437 46.244,259.420 46.083 C 259.372 45.633,260.828 44.071,261.124 44.254 C 261.286 44.355,261.320 44.313,261.215 44.143 C 261.016 43.822,261.498 43.161,261.796 43.345 C 261.909 43.415,261.976 43.389,261.943 43.286 C 261.834 42.939,262.986 41.615,263.294 41.733 C 263.461 41.798,263.542 41.758,263.472 41.646 C 263.299 41.366,265.383 39.565,265.673 39.745 C 265.802 39.824,265.841 39.783,265.761 39.653 C 265.560 39.328,268.473 36.802,268.809 37.010 C 268.970 37.109,269.014 37.076,268.922 36.927 C 268.835 36.786,269.234 36.337,269.848 35.885 C 270.442 35.448,271.176 34.878,271.481 34.619 C 271.785 34.360,272.165 34.199,272.326 34.261 C 272.487 34.322,272.595 34.249,272.565 34.098 C 272.536 33.947,272.688 33.837,272.905 33.855 C 273.121 33.872,273.248 33.804,273.186 33.704 C 273.125 33.605,273.711 33.108,274.490 32.600 C 275.268 32.092,276.034 31.569,276.191 31.437 C 276.348 31.306,276.593 31.270,276.735 31.358 C 276.881 31.449,276.931 31.418,276.851 31.288 C 276.773 31.162,277.114 30.876,277.608 30.653 C 278.102 30.430,278.507 30.180,278.507 30.098 C 278.507 30.015,279.143 29.649,279.921 29.284 C 280.699 28.919,281.457 28.505,281.607 28.364 C 281.757 28.222,282.394 27.922,283.021 27.697 C 283.649 27.471,284.163 27.218,284.163 27.135 C 284.163 27.052,284.952 26.698,285.916 26.349 C 286.881 26.001,287.721 25.641,287.783 25.551 C 287.845 25.461,288.812 25.104,289.932 24.758 C 291.052 24.412,292.002 24.045,292.044 23.942 C 292.085 23.840,292.380 23.822,292.700 23.902 C 293.089 24.000,293.230 23.967,293.129 23.803 C 293.031 23.645,293.623 23.412,294.792 23.150 C 295.790 22.925,296.606 22.662,296.606 22.566 C 296.606 22.469,296.876 22.457,297.206 22.540 C 297.574 22.632,297.752 22.605,297.668 22.469 C 297.532 22.249,302.047 21.230,303.167 21.228 C 303.479 21.228,303.853 21.128,303.999 21.007 C 304.146 20.885,304.638 20.858,305.106 20.945 C 305.647 21.047,305.898 21.023,305.808 20.877 C 305.650 20.622,307.205 20.422,310.973 20.213 C 313.335 20.082,315.085 19.706,313.405 19.690 L 312.670 19.683 312.670 10.407 C 312.670 5.305,312.593 1.124,312.500 1.116 C 312.407 1.108,312.005 1.058,311.606 1.006 C 311.208 0.954,310.814 1.022,310.731 1.157 M328.450 20.069 C 328.730 20.123,329.188 20.123,329.468 20.069 C 329.748 20.015,329.519 19.971,328.959 19.971 C 328.399 19.971,328.170 20.015,328.450 20.069 M309.615 35.512 C 309.367 35.615,308.018 35.814,306.618 35.954 C 303.586 36.258,300.226 36.883,300.226 37.144 C 300.226 37.246,300.048 37.332,299.830 37.335 C 299.330 37.341,295.911 38.339,295.339 38.646 C 295.103 38.773,293.993 39.314,292.873 39.848 C 291.753 40.381,290.532 41.026,290.159 41.280 C 289.787 41.534,289.125 41.933,288.689 42.167 C 288.253 42.400,287.540 42.882,287.104 43.236 C 286.669 43.591,286.016 44.112,285.654 44.395 C 284.502 45.296,280.995 48.808,280.995 49.062 C 280.995 49.196,280.793 49.414,280.545 49.546 C 280.298 49.679,279.950 50.064,279.773 50.403 C 279.595 50.741,279.258 51.222,279.024 51.471 C 278.789 51.719,278.399 52.278,278.156 52.711 C 277.913 53.144,277.588 53.635,277.432 53.802 C 277.277 53.968,277.149 54.196,277.149 54.308 C 277.149 54.427,286.100 54.538,298.608 54.575 C 313.896 54.620,320.158 54.710,320.384 54.889 C 320.558 55.027,321.175 55.317,321.754 55.533 C 323.391 56.145,325.508 58.331,326.228 60.155 C 326.406 60.605,326.661 61.045,326.794 61.134 C 327.346 61.501,327.083 65.400,326.414 66.785 C 326.072 67.492,325.792 68.155,325.792 68.258 C 325.792 68.360,325.537 68.718,325.226 69.054 C 324.915 69.389,324.661 69.758,324.661 69.874 C 324.661 69.989,324.432 70.236,324.152 70.422 C 323.872 70.607,323.337 71.028,322.964 71.357 C 322.590 71.685,321.893 72.283,321.414 72.685 C 320.935 73.087,320.240 73.696,319.870 74.038 C 319.499 74.381,319.139 74.661,319.069 74.661 C 318.999 74.661,318.521 75.042,318.005 75.509 C 317.490 75.976,316.664 76.692,316.170 77.102 C 314.014 78.889,313.225 79.573,312.469 80.317 C 312.025 80.752,311.609 81.087,311.544 81.061 C 311.479 81.036,311.171 81.262,310.860 81.565 C 309.853 82.545,308.803 83.473,308.501 83.650 C 308.169 83.846,306.374 85.342,305.444 86.199 C 305.106 86.510,304.336 87.172,303.732 87.670 C 303.128 88.167,302.343 88.829,301.988 89.140 C 301.632 89.451,300.976 90.011,300.530 90.385 C 300.083 90.758,299.379 91.369,298.964 91.742 C 298.550 92.115,297.635 92.879,296.931 93.439 C 296.227 93.999,295.371 94.712,295.028 95.023 C 294.685 95.334,293.918 95.995,293.323 96.493 C 292.729 96.991,291.998 97.627,291.699 97.907 C 291.400 98.187,291.098 98.416,291.027 98.416 C 290.955 98.416,290.527 98.772,290.075 99.206 C 288.477 100.743,284.601 103.907,284.474 103.780 C 284.365 103.671,284.869 101.940,285.047 101.810 C 285.133 101.748,285.494 100.730,285.850 99.548 C 286.206 98.365,286.561 97.347,286.639 97.285 C 286.716 97.223,287.024 96.357,287.324 95.362 C 287.623 94.367,287.937 93.450,288.021 93.326 C 288.106 93.201,288.449 92.234,288.784 91.176 C 289.119 90.119,289.525 88.999,289.685 88.688 C 289.845 88.377,290.156 87.460,290.376 86.652 C 290.596 85.843,290.853 85.130,290.946 85.068 C 291.039 85.006,291.388 84.022,291.722 82.882 C 292.056 81.742,292.512 80.418,292.735 79.941 C 292.958 79.463,293.325 78.360,293.552 77.489 C 293.778 76.618,294.034 75.854,294.120 75.792 C 294.206 75.730,294.504 74.966,294.783 74.095 C 295.061 73.224,295.424 72.206,295.588 71.833 C 295.753 71.459,296.116 70.390,296.395 69.457 C 296.674 68.524,296.971 67.709,297.054 67.647 C 297.137 67.585,297.386 66.878,297.609 66.075 C 297.831 65.273,298.063 64.484,298.125 64.322 C 298.217 64.082,295.988 64.027,286.146 64.027 L 274.053 64.027 273.543 65.894 C 273.263 66.920,272.957 67.862,272.864 67.986 C 272.770 68.111,272.452 69.078,272.157 70.136 C 271.861 71.193,271.559 72.110,271.485 72.172 C 271.411 72.234,271.111 73.150,270.820 74.208 C 270.528 75.266,270.199 76.249,270.089 76.393 C 269.979 76.536,269.630 77.605,269.312 78.768 C 268.994 79.931,268.651 80.984,268.550 81.109 C 268.449 81.233,268.089 82.302,267.750 83.484 C 267.412 84.666,267.066 85.684,266.983 85.747 C 266.899 85.809,266.597 86.725,266.312 87.783 C 266.027 88.840,265.713 89.808,265.614 89.932 C 265.516 90.057,265.147 91.176,264.794 92.421 C 264.442 93.665,264.093 94.734,264.019 94.796 C 263.945 94.859,263.645 95.775,263.353 96.833 C 263.062 97.890,262.746 98.857,262.653 98.982 C 262.560 99.106,262.206 100.175,261.868 101.357 C 261.529 102.540,261.179 103.558,261.090 103.620 C 261.000 103.682,260.870 103.988,260.801 104.299 C 260.504 105.630,259.643 108.493,259.509 108.597 C 259.428 108.660,259.126 109.525,258.838 110.520 C 258.549 111.516,258.246 112.432,258.163 112.557 C 257.967 112.851,257.595 114.009,257.108 115.837 C 256.893 116.646,256.642 117.410,256.550 117.534 C 256.459 117.658,256.158 118.575,255.882 119.570 C 255.607 120.566,255.297 121.484,255.194 121.611 C 255.092 121.738,254.728 122.858,254.387 124.100 C 254.046 125.342,253.695 126.408,253.608 126.471 C 253.520 126.533,253.164 127.602,252.815 128.846 C 252.466 130.090,252.119 131.160,252.043 131.222 C 251.832 131.396,250.412 136.014,250.373 136.652 L 250.339 137.217 262.701 137.276 L 275.063 137.334 275.464 135.692 C 275.685 134.789,275.996 133.735,276.156 133.351 C 276.315 132.967,276.668 131.720,276.939 130.580 C 277.210 129.440,277.504 128.507,277.592 128.507 C 277.680 128.507,277.758 128.380,277.765 128.224 C 277.784 127.791,279.156 122.706,279.184 122.964 C 279.198 123.088,279.461 122.172,279.770 120.928 C 280.078 119.683,280.426 118.494,280.542 118.285 C 280.658 118.076,281.016 116.854,281.337 115.570 C 281.658 114.286,282.059 112.930,282.227 112.557 C 282.395 112.183,282.661 111.292,282.818 110.577 C 283.165 108.997,283.319 108.969,284.028 110.351 C 284.331 110.942,284.842 111.776,285.163 112.205 C 285.484 112.633,285.747 113.078,285.747 113.193 C 285.747 113.308,286.027 113.739,286.369 114.152 C 286.711 114.564,287.500 115.697,288.122 116.670 C 288.744 117.643,289.332 118.474,289.429 118.516 C 289.526 118.559,289.795 118.966,290.028 119.421 C 290.261 119.876,290.691 120.514,290.984 120.838 C 291.276 121.162,291.923 121.914,292.421 122.508 C 294.221 124.656,298.908 129.103,300.651 130.317 C 301.098 130.628,301.719 131.111,302.030 131.391 C 302.342 131.671,302.706 131.900,302.840 131.900 C 302.973 131.900,303.285 132.079,303.532 132.296 C 304.100 132.796,304.561 133.063,307.353 134.510 C 310.232 136.002,312.861 137.008,315.724 137.714 C 316.968 138.020,318.190 138.361,318.439 138.472 C 319.031 138.735,320.927 139.052,324.548 139.495 C 329.747 140.132,330.138 140.158,334.389 140.158 C 338.155 140.158,339.882 140.058,341.968 139.718 C 342.342 139.657,343.920 139.440,345.475 139.236 C 347.031 139.032,348.609 138.734,348.982 138.575 C 349.355 138.416,350.730 138.027,352.036 137.711 C 354.538 137.105,358.632 135.781,358.824 135.516 C 358.886 135.430,359.344 135.228,359.842 135.067 C 360.339 134.905,361.526 134.382,362.479 133.903 C 363.432 133.424,364.315 133.032,364.442 133.032 C 364.570 133.032,364.808 132.898,364.973 132.734 C 365.137 132.571,365.882 132.150,366.629 131.799 C 367.376 131.448,368.037 131.096,368.100 131.016 C 368.162 130.936,368.696 130.619,369.287 130.312 C 369.878 130.004,370.362 129.678,370.362 129.588 C 370.362 129.497,370.693 129.252,371.097 129.043 C 371.502 128.834,372.189 128.393,372.624 128.062 C 375.547 125.845,376.398 125.187,376.729 124.887 C 376.936 124.700,377.545 124.191,378.084 123.756 C 379.615 122.518,383.282 118.725,384.992 116.610 C 388.461 112.320,392.073 106.348,393.669 102.262 C 393.840 101.827,394.043 101.420,394.122 101.357 C 394.201 101.295,394.510 100.532,394.809 99.661 C 395.109 98.790,395.440 98.015,395.547 97.939 C 395.653 97.862,395.744 97.710,395.749 97.599 C 395.755 97.489,395.791 97.296,395.831 97.172 C 395.871 97.048,396.117 96.182,396.378 95.249 C 396.640 94.316,396.950 93.348,397.068 93.100 C 397.352 92.498,398.186 88.931,398.188 88.311 C 398.189 88.041,398.286 87.787,398.403 87.745 C 398.652 87.657,399.198 84.400,399.665 80.222 C 400.083 76.478,400.115 64.780,399.717 61.099 L 399.434 58.484 399.295 63.801 C 399.112 70.739,398.664 74.378,397.373 79.412 C 391.053 104.048,371.065 119.823,344.646 121.024 C 342.484 121.122,340.488 121.167,340.210 121.124 C 339.933 121.080,337.677 120.944,335.197 120.821 C 332.717 120.698,330.630 120.515,330.559 120.413 C 330.488 120.312,329.632 120.098,328.657 119.938 C 326.961 119.660,326.140 119.419,323.258 118.354 C 321.667 117.766,318.955 116.307,318.710 115.907 C 318.611 115.744,318.389 115.611,318.218 115.611 C 317.537 115.611,313.713 111.534,312.732 109.763 C 312.411 109.184,312.037 108.636,311.900 108.544 C 311.745 108.441,311.739 108.377,311.884 108.375 C 312.012 108.373,312.424 108.091,312.800 107.749 C 313.176 107.407,314.187 106.516,315.045 105.769 C 315.904 105.023,316.782 104.259,316.997 104.072 C 317.211 103.886,317.868 103.326,318.457 102.828 C 319.045 102.330,319.806 101.643,320.148 101.301 C 320.490 100.959,320.839 100.679,320.924 100.679 C 321.009 100.679,321.408 100.348,321.810 99.943 C 322.213 99.539,322.978 98.852,323.511 98.416 C 324.044 97.981,324.757 97.370,325.095 97.059 C 325.988 96.238,326.913 95.475,327.015 95.475 C 327.064 95.475,327.455 95.144,327.884 94.740 C 328.313 94.335,329.010 93.717,329.434 93.365 C 329.857 93.013,330.519 92.453,330.904 92.121 C 333.251 90.093,334.253 89.249,334.941 88.719 C 336.732 87.341,337.426 86.729,339.228 84.935 C 341.239 82.933,343.228 80.419,344.135 78.733 C 344.437 78.173,344.740 77.664,344.810 77.602 C 344.880 77.540,345.176 76.878,345.468 76.131 C 345.759 75.385,346.187 74.343,346.418 73.818 C 346.785 72.983,347.420 69.995,347.920 66.742 C 348.204 64.898,348.047 59.807,347.700 59.592 C 347.596 59.528,347.510 59.151,347.507 58.754 C 347.503 57.865,346.749 54.905,346.289 53.969 C 346.103 53.591,345.775 52.786,345.560 52.182 C 345.345 51.578,345.060 50.967,344.926 50.825 C 344.791 50.682,344.436 50.031,344.135 49.378 C 343.834 48.725,343.500 48.190,343.393 48.190 C 343.286 48.190,343.125 47.997,343.036 47.760 C 342.486 46.307,337.672 41.653,335.548 40.521 C 335.221 40.348,334.904 40.142,334.842 40.063 C 334.779 39.985,334.219 39.669,333.597 39.361 C 332.975 39.053,332.313 38.682,332.127 38.537 C 331.940 38.393,331.075 38.048,330.204 37.772 C 329.333 37.495,328.518 37.194,328.394 37.102 C 327.988 36.802,325.271 36.202,323.190 35.952 C 322.070 35.817,320.977 35.614,320.761 35.501 C 320.274 35.244,310.237 35.255,309.615 35.512 " stroke="none" fill="#8ab33c" fill-rule="evenodd"></path><path id="path2" d="M19.457 38.669 C 19.457 39.032,19.373 39.363,19.270 39.404 C 19.168 39.446,18.851 40.905,18.567 42.647 C 18.284 44.389,17.974 45.916,17.880 46.041 C 17.786 46.165,17.421 47.998,17.070 50.113 C 16.719 52.229,16.367 54.010,16.289 54.072 C 16.211 54.135,15.910 55.611,15.621 57.353 C 15.332 59.095,15.018 60.622,14.925 60.747 C 14.831 60.871,14.471 62.704,14.125 64.819 C 13.779 66.934,13.430 68.716,13.349 68.778 C 13.268 68.840,12.910 70.622,12.554 72.738 C 12.197 74.853,11.840 76.635,11.759 76.697 C 11.678 76.759,11.377 78.286,11.090 80.090 C 10.803 81.895,10.492 83.473,10.400 83.597 C 10.308 83.722,9.947 85.503,9.597 87.557 C 9.247 89.610,8.896 91.340,8.816 91.403 C 8.736 91.465,8.436 92.992,8.149 94.796 C 7.861 96.601,7.549 98.179,7.456 98.303 C 7.362 98.428,7.013 100.158,6.681 102.149 C 6.348 104.140,5.985 105.973,5.873 106.222 C 5.761 106.471,5.409 108.252,5.090 110.181 C 4.772 112.110,4.425 113.844,4.320 114.036 C 4.215 114.227,3.907 115.754,3.637 117.429 C 3.366 119.104,3.053 120.698,2.941 120.970 C 2.829 121.243,2.473 123.024,2.150 124.930 C 1.826 126.835,1.470 128.597,1.357 128.846 C 1.169 129.264,-0.000 135.746,-0.000 136.375 C -0.000 136.590,2.878 136.652,12.872 136.652 L 25.745 136.652 26.097 134.672 C 26.291 133.583,26.519 132.183,26.604 131.561 C 26.690 130.939,26.830 130.379,26.916 130.317 C 27.002 130.255,27.304 128.778,27.588 127.036 C 27.872 125.294,28.187 123.712,28.288 123.520 C 28.389 123.329,28.758 121.445,29.109 119.335 C 29.459 117.224,29.806 115.447,29.879 115.385 C 29.952 115.322,30.186 114.202,30.398 112.896 C 30.610 111.589,30.891 109.894,31.022 109.128 L 31.261 107.735 43.447 107.657 C 52.809 107.597,55.699 107.514,55.916 107.296 C 56.072 107.141,56.471 107.014,56.804 107.014 C 57.844 107.014,62.975 106.084,63.688 105.766 C 64.061 105.600,65.105 105.232,66.007 104.950 C 66.909 104.667,67.647 104.354,67.647 104.254 C 67.647 104.154,67.798 104.072,67.983 104.072 C 68.414 104.072,72.426 101.972,73.756 101.049 C 76.473 99.165,79.173 96.764,80.882 94.714 C 81.256 94.266,81.728 93.705,81.933 93.467 C 82.637 92.648,84.615 89.530,84.615 89.238 C 84.615 89.078,84.747 88.812,84.909 88.647 C 85.070 88.483,85.498 87.636,85.860 86.765 C 86.222 85.894,86.640 84.977,86.790 84.729 C 86.940 84.480,87.241 83.614,87.458 82.805 C 87.676 81.997,87.933 81.231,88.030 81.103 C 88.341 80.693,89.139 76.335,89.289 74.222 C 89.369 73.094,89.521 72.172,89.627 72.172 C 89.878 72.172,89.878 65.448,89.627 65.292 C 89.521 65.227,89.371 64.428,89.294 63.517 C 89.123 61.494,88.569 58.788,88.131 57.834 C 87.953 57.445,87.599 56.523,87.345 55.784 C 87.091 55.046,86.795 54.384,86.688 54.314 C 86.581 54.243,86.210 53.549,85.863 52.771 C 85.516 51.994,85.166 51.357,85.086 51.357 C 85.005 51.357,84.750 51.027,84.518 50.622 C 83.539 48.911,79.674 44.826,79.016 44.805 C 78.860 44.800,78.733 44.699,78.733 44.580 C 78.733 44.460,78.249 44.084,77.658 43.742 C 77.067 43.401,76.533 43.051,76.471 42.964 C 76.236 42.639,72.442 40.986,71.036 40.597 C 70.230 40.374,69.519 40.122,69.457 40.037 C 69.311 39.838,64.705 38.914,63.858 38.914 C 63.503 38.914,63.116 38.819,62.998 38.703 C 62.499 38.214,55.029 38.009,37.652 38.009 L 19.457 38.009 19.457 38.669 M56.335 56.085 C 56.895 56.227,57.557 56.431,57.805 56.538 C 58.054 56.645,58.996 57.016,59.898 57.362 C 60.800 57.708,61.538 58.054,61.538 58.132 C 61.538 58.210,61.869 58.468,62.274 58.706 C 63.020 59.144,64.706 60.769,64.706 61.050 C 64.706 61.135,64.940 61.457,65.227 61.767 C 65.514 62.077,65.996 62.941,66.300 63.688 C 66.603 64.434,66.918 65.096,67.001 65.158 C 67.916 65.849,67.805 74.118,66.855 75.938 C 66.670 76.293,66.518 76.711,66.517 76.868 C 66.516 77.154,65.911 78.446,64.909 80.305 C 64.189 81.641,61.258 84.594,59.842 85.412 C 59.219 85.771,58.652 86.148,58.581 86.250 C 58.406 86.501,54.964 87.743,53.281 88.164 C 52.239 88.424,49.857 88.530,43.043 88.620 L 34.163 88.738 34.163 88.147 C 34.163 87.822,34.248 87.557,34.352 87.557 C 34.455 87.557,34.769 86.258,35.048 84.672 C 35.328 83.085,35.647 81.584,35.758 81.335 C 35.991 80.811,37.104 75.103,37.104 74.433 C 37.104 74.185,37.191 73.982,37.297 73.982 C 37.403 73.982,37.601 73.346,37.737 72.568 C 37.874 71.790,38.146 70.238,38.343 69.118 C 38.539 67.998,38.796 66.878,38.914 66.629 C 39.032 66.380,39.394 64.853,39.719 63.235 C 40.043 61.618,40.526 59.241,40.791 57.954 L 41.274 55.614 48.295 55.720 C 52.433 55.783,55.735 55.933,56.335 56.085 M138.122 61.700 C 135.129 61.779,130.218 62.239,129.989 62.461 C 129.870 62.576,129.514 62.670,129.196 62.670 C 128.382 62.670,123.961 63.523,123.416 63.786 C 123.167 63.906,121.946 64.273,120.701 64.603 C 119.457 64.933,118.388 65.270,118.326 65.352 C 118.264 65.433,117.805 65.637,117.308 65.805 C 114.254 66.832,110.191 69.061,106.222 71.889 C 102.994 74.188,95.928 81.906,95.928 83.132 C 95.928 83.287,95.741 83.583,95.514 83.789 C 95.286 83.995,94.854 84.698,94.553 85.351 C 94.252 86.004,93.878 86.673,93.722 86.837 C 93.567 87.002,93.439 87.225,93.439 87.333 C 93.439 87.441,93.039 88.379,92.551 89.417 C 92.062 90.455,91.590 91.606,91.502 91.976 C 91.415 92.345,91.158 93.062,90.933 93.569 C 90.528 94.479,89.593 98.624,89.593 99.508 C 89.593 99.758,89.500 99.996,89.386 100.038 C 88.382 100.405,88.353 116.423,89.354 117.760 C 89.447 117.885,89.703 118.750,89.922 119.683 C 90.142 120.617,90.552 121.889,90.834 122.511 C 91.115 123.133,91.580 124.177,91.865 124.830 C 92.151 125.484,92.469 126.018,92.573 126.018 C 92.676 126.018,92.761 126.145,92.762 126.301 C 92.765 126.889,95.079 129.948,96.790 131.626 C 99.158 133.948,99.489 134.224,100.665 134.862 C 101.217 135.162,101.856 135.570,102.085 135.769 C 102.313 135.968,102.930 136.269,103.456 136.438 C 103.982 136.607,104.468 136.825,104.537 136.923 C 105.692 138.557,118.091 138.533,121.587 136.891 C 122.095 136.652,122.995 136.283,123.586 136.071 C 124.177 135.859,124.661 135.605,124.661 135.507 C 124.661 135.409,124.997 135.218,125.408 135.083 C 126.145 134.839,127.868 133.820,129.412 132.713 C 129.847 132.400,130.907 131.630,131.766 131.002 C 132.625 130.373,133.377 129.908,133.437 129.968 C 133.575 130.106,133.094 132.629,132.701 133.824 C 132.538 134.321,132.332 135.263,132.244 135.916 L 132.084 137.104 142.489 137.104 C 150.988 137.104,152.914 137.048,153.009 136.800 C 153.074 136.633,153.200 135.895,153.290 135.160 C 153.381 134.425,153.527 133.773,153.616 133.710 C 153.705 133.648,154.066 131.663,154.419 129.299 C 154.772 126.934,155.128 124.949,155.211 124.887 C 155.294 124.825,155.428 124.316,155.510 123.756 C 156.147 119.380,156.626 116.559,156.795 116.176 C 156.905 115.928,157.247 114.197,157.556 112.330 C 157.865 110.464,158.228 108.428,158.363 107.805 C 158.498 107.183,158.815 105.300,159.067 103.620 C 159.318 101.940,159.617 100.362,159.731 100.113 C 159.844 99.864,160.153 98.184,160.416 96.380 C 160.680 94.576,160.985 92.896,161.095 92.647 C 161.205 92.398,161.561 90.413,161.885 88.235 C 162.209 86.058,162.554 84.123,162.651 83.937 C 162.749 83.750,163.119 81.714,163.474 79.412 C 163.828 77.110,164.180 75.175,164.255 75.113 C 164.330 75.051,164.660 73.371,164.988 71.380 C 165.317 69.389,165.736 67.050,165.920 66.182 C 166.319 64.294,166.343 64.346,164.991 64.145 C 164.399 64.057,163.811 63.900,163.685 63.797 C 163.559 63.693,161.930 63.387,160.065 63.115 C 158.200 62.844,156.511 62.539,156.312 62.438 C 155.431 61.993,144.218 61.538,138.122 61.700 M171.267 64.353 C 171.267 64.532,171.355 64.733,171.462 64.800 C 171.569 64.866,171.835 65.559,172.054 66.340 C 172.272 67.121,172.641 68.167,172.872 68.665 C 173.103 69.163,173.499 70.223,173.752 71.020 C 174.005 71.817,174.301 72.581,174.409 72.717 C 174.517 72.853,174.871 73.818,175.197 74.862 C 175.522 75.906,175.879 76.873,175.989 77.011 C 176.099 77.149,176.446 78.088,176.761 79.098 C 177.076 80.108,177.443 81.126,177.577 81.361 C 177.711 81.595,178.036 82.449,178.298 83.258 C 178.560 84.067,178.857 84.830,178.957 84.955 C 179.058 85.079,179.417 86.072,179.755 87.161 C 180.093 88.249,180.441 89.140,180.527 89.140 C 180.613 89.140,180.819 89.675,180.985 90.328 C 181.151 90.981,181.514 92.025,181.791 92.647 C 182.069 93.269,182.526 94.491,182.807 95.362 C 183.088 96.233,183.393 97.048,183.485 97.172 C 183.577 97.296,183.929 98.264,184.268 99.321 C 184.606 100.379,184.962 101.346,185.058 101.471 C 185.155 101.595,185.465 102.410,185.747 103.281 C 186.029 104.152,186.334 104.966,186.425 105.090 C 186.517 105.215,186.873 106.182,187.217 107.240 C 187.562 108.298,187.929 109.273,188.035 109.407 C 188.140 109.541,188.443 110.355,188.708 111.217 C 188.974 112.078,189.257 112.834,189.337 112.896 C 189.417 112.958,189.776 113.925,190.133 115.045 C 190.491 116.165,190.847 117.132,190.925 117.195 C 191.003 117.257,191.358 118.224,191.714 119.344 C 192.071 120.464,192.438 121.482,192.531 121.606 C 192.624 121.731,192.931 122.545,193.213 123.416 C 193.495 124.287,193.800 125.102,193.891 125.226 C 193.983 125.351,194.333 126.291,194.671 127.317 C 195.008 128.342,195.378 129.239,195.493 129.310 C 196.016 129.633,195.809 130.141,193.280 134.729 C 192.868 135.475,192.212 136.697,191.822 137.443 C 191.431 138.190,190.721 139.514,190.244 140.385 C 189.767 141.256,189.094 142.528,188.749 143.213 C 188.404 143.897,188.020 144.566,187.896 144.700 C 187.771 144.834,187.416 145.495,187.106 146.171 C 186.797 146.846,186.470 147.453,186.379 147.520 C 186.289 147.586,185.924 148.197,185.567 148.877 C 185.210 149.557,184.480 150.928,183.944 151.923 C 183.409 152.919,182.767 154.140,182.519 154.638 C 182.270 155.136,182.003 155.594,181.925 155.656 C 181.847 155.718,181.494 156.329,181.142 157.014 C 180.790 157.698,180.106 158.971,179.623 159.842 C 179.139 160.713,178.675 161.578,178.590 161.765 C 178.505 161.951,178.051 162.766,177.580 163.575 C 177.109 164.383,176.656 165.325,176.573 165.667 L 176.422 166.290 187.934 166.290 C 200.188 166.290,200.226 166.286,200.226 165.227 C 200.226 165.071,207.113 151.060,207.488 150.452 C 207.672 150.155,208.201 149.052,208.845 147.624 C 208.957 147.376,209.143 147.019,209.259 146.833 C 209.676 146.158,211.765 141.667,211.765 141.443 C 211.765 141.317,211.850 141.180,211.955 141.139 C 212.176 141.051,214.706 135.899,214.706 135.537 C 214.706 135.403,214.792 135.294,214.898 135.294 C 215.004 135.294,215.381 134.607,215.736 133.767 C 216.091 132.927,216.514 132.105,216.675 131.941 C 216.836 131.776,216.968 131.537,216.968 131.409 C 216.968 131.281,217.477 130.169,218.100 128.938 C 218.722 127.706,219.231 126.546,219.231 126.359 C 219.231 126.171,219.317 126.018,219.423 126.018 C 219.529 126.018,219.858 125.407,220.154 124.661 C 220.451 123.914,220.756 123.303,220.833 123.303 C 220.910 123.303,221.262 122.616,221.615 121.776 C 221.968 120.936,222.328 120.198,222.415 120.136 C 222.502 120.074,222.851 119.361,223.190 118.552 C 223.529 117.743,223.873 117.031,223.953 116.968 C 224.034 116.906,224.348 116.295,224.652 115.611 C 224.956 114.926,225.336 114.206,225.498 114.009 C 225.660 113.813,225.792 113.568,225.792 113.466 C 225.792 113.364,226.540 111.794,227.454 109.977 C 228.368 108.160,229.241 106.292,229.394 105.826 C 229.548 105.359,229.751 104.977,229.846 104.977 C 229.941 104.977,230.305 104.265,230.656 103.394 C 231.007 102.523,231.379 101.810,231.484 101.810 C 231.589 101.810,231.674 101.721,231.674 101.612 C 231.674 101.393,232.679 99.179,233.022 98.643 C 233.141 98.456,234.730 95.249,236.552 91.516 C 238.375 87.783,241.281 81.878,243.011 78.394 C 244.741 74.910,246.156 71.940,246.155 71.795 C 246.154 71.650,246.237 71.497,246.339 71.456 C 246.441 71.414,247.055 70.260,247.703 68.891 C 248.350 67.523,249.132 65.930,249.440 65.351 C 249.748 64.773,250.000 64.238,250.000 64.163 C 250.000 64.089,244.662 64.027,238.137 64.027 L 226.275 64.027 226.124 64.536 C 226.042 64.816,224.976 67.081,223.756 69.570 C 220.603 76.002,219.457 78.441,219.457 78.718 C 219.457 78.851,219.366 78.959,219.255 78.959 C 219.144 78.959,218.890 79.368,218.690 79.869 C 218.490 80.369,217.919 81.627,217.421 82.665 C 216.923 83.703,216.516 84.669,216.516 84.810 C 216.516 84.952,216.426 85.068,216.316 85.068 C 216.206 85.068,215.882 85.653,215.597 86.369 C 215.311 87.084,214.892 87.912,214.666 88.209 C 214.439 88.506,214.253 88.845,214.253 88.963 C 214.253 89.081,213.914 89.856,213.499 90.686 C 213.084 91.516,212.561 92.678,212.337 93.269 C 212.113 93.860,211.860 94.344,211.776 94.344 C 211.691 94.344,211.384 94.929,211.094 95.645 C 210.804 96.360,210.428 97.106,210.260 97.303 C 210.092 97.499,209.955 97.729,209.955 97.812 C 209.955 97.896,209.446 99.033,208.824 100.339 C 208.201 101.645,207.692 102.816,207.692 102.941 C 207.692 103.759,207.162 102.863,206.655 101.188 C 206.326 100.099,205.978 99.106,205.883 98.982 C 205.788 98.857,205.542 98.167,205.335 97.447 C 205.129 96.727,204.845 95.861,204.705 95.524 C 204.346 94.662,202.815 90.242,202.219 88.348 C 201.944 87.477,201.659 86.714,201.584 86.652 C 201.510 86.589,201.157 85.571,200.801 84.389 C 200.445 83.207,200.089 82.189,200.010 82.127 C 199.932 82.064,199.577 81.021,199.223 79.808 C 198.869 78.594,198.511 77.602,198.428 77.602 C 198.345 77.602,198.095 76.897,197.871 76.036 C 197.648 75.175,197.312 74.183,197.125 73.830 C 196.938 73.478,196.532 72.325,196.223 71.267 C 195.913 70.209,195.581 69.242,195.485 69.118 C 195.390 68.993,195.094 68.189,194.829 67.330 C 194.563 66.471,194.173 65.376,193.962 64.897 L 193.578 64.027 182.423 64.027 C 172.860 64.027,171.267 64.074,171.267 64.353 M142.459 80.373 C 142.390 80.653,142.209 81.799,142.057 82.919 C 141.905 84.038,141.711 85.006,141.626 85.068 C 141.541 85.130,141.249 86.708,140.976 88.575 C 140.702 90.441,140.385 92.172,140.271 92.421 C 140.156 92.670,139.803 94.604,139.485 96.719 C 139.168 98.835,138.816 100.769,138.703 101.018 C 138.591 101.267,138.276 102.998,138.005 104.864 C 137.733 106.731,137.422 108.462,137.312 108.710 C 137.203 108.959,136.956 110.174,136.762 111.411 C 136.355 114.018,136.447 113.874,134.070 115.615 C 133.063 116.352,132.081 117.085,131.887 117.244 C 131.694 117.404,130.956 117.839,130.248 118.213 C 129.540 118.586,128.961 118.955,128.960 119.034 C 128.960 119.112,128.323 119.411,127.545 119.698 C 126.768 119.985,126.080 120.290,126.018 120.375 C 125.833 120.629,122.746 121.262,120.954 121.414 C 116.353 121.803,112.527 119.376,111.071 115.146 C 110.838 114.469,110.548 113.746,110.427 113.541 C 109.692 112.300,109.655 103.552,110.381 102.618 C 110.484 102.485,110.796 101.425,111.073 100.264 C 111.350 99.102,111.826 97.626,112.132 96.983 C 113.216 94.703,114.795 91.739,115.044 91.516 C 115.184 91.391,115.577 90.851,115.918 90.315 C 116.591 89.260,120.239 85.520,120.596 85.520 C 120.716 85.520,121.024 85.311,121.281 85.054 C 121.721 84.614,122.447 84.173,124.548 83.069 C 126.577 82.003,128.059 81.468,130.317 80.990 C 131.623 80.713,132.896 80.400,133.145 80.295 C 133.824 80.009,134.820 79.940,138.882 79.900 L 142.583 79.864 142.459 80.373 M95.110 202.206 C 94.922 202.673,94.530 203.563,94.238 204.186 C 93.947 204.808,93.128 206.589,92.419 208.145 C 91.709 209.700,90.842 211.584,90.491 212.330 C 90.140 213.077,89.784 213.968,89.698 214.310 C 89.613 214.652,89.467 214.932,89.373 214.932 C 89.279 214.932,89.022 215.416,88.802 216.007 C 88.582 216.598,88.228 217.387,88.014 217.760 C 87.800 218.133,87.387 219.050,87.096 219.796 C 86.805 220.543,86.507 221.205,86.434 221.267 C 86.267 221.409,84.611 225.166,84.614 225.396 C 84.615 225.489,85.675 225.566,86.971 225.566 L 89.326 225.566 89.799 224.589 C 90.059 224.052,90.271 223.543,90.271 223.459 C 90.271 223.374,90.561 222.668,90.914 221.890 C 91.267 221.112,91.673 220.192,91.817 219.847 L 92.077 219.219 95.519 219.281 L 98.961 219.344 99.424 222.398 L 99.887 225.452 102.093 225.517 C 104.710 225.594,104.532 226.133,103.607 220.928 C 103.231 218.812,102.654 215.503,102.325 213.575 C 101.997 211.646,101.661 210.017,101.580 209.955 C 101.498 209.893,101.152 208.011,100.811 205.775 C 100.058 200.846,100.417 201.357,97.713 201.357 L 95.452 201.357 95.110 202.206 M68.920 202.291 C 68.842 202.680,68.778 203.241,68.778 203.538 C 68.778 203.835,68.682 204.255,68.565 204.471 C 68.447 204.687,68.082 207.257,67.754 210.181 C 67.425 213.105,67.069 215.701,66.963 215.950 C 66.776 216.389,65.829 224.031,65.834 225.057 C 65.837 225.550,65.906 225.566,68.067 225.566 L 70.296 225.566 70.838 220.984 L 71.380 216.403 74.297 216.251 C 75.901 216.167,77.276 216.010,77.351 215.902 C 77.427 215.794,77.938 215.560,78.488 215.383 C 79.577 215.032,81.514 213.332,81.773 212.500 C 81.860 212.220,82.014 211.991,82.115 211.991 C 82.685 211.991,83.024 207.885,82.581 206.340 C 82.103 204.676,80.113 202.489,79.076 202.489 C 78.887 202.489,78.733 202.395,78.733 202.281 C 78.733 201.861,76.353 201.584,72.755 201.584 L 69.061 201.584 68.920 202.291 M109.812 202.093 C 109.887 202.373,109.950 202.722,109.952 202.868 C 109.953 203.015,110.082 203.270,110.238 203.434 C 110.394 203.598,110.712 204.293,110.946 204.977 C 111.179 205.662,111.496 206.427,111.651 206.677 C 111.805 206.928,112.205 207.892,112.539 208.819 C 112.874 209.746,113.237 210.612,113.346 210.744 C 113.456 210.876,113.833 211.777,114.184 212.746 L 114.823 214.509 114.209 219.415 C 113.871 222.114,113.590 224.601,113.585 224.943 L 113.575 225.566 115.711 225.566 C 118.297 225.566,117.941 226.228,118.686 220.033 L 119.310 214.849 121.420 211.717 C 122.580 209.995,123.531 208.512,123.533 208.422 C 123.535 208.332,123.790 208.018,124.099 207.725 C 124.408 207.432,124.661 207.085,124.661 206.954 C 124.661 206.823,125.051 206.198,125.527 205.564 C 128.437 201.695,128.435 201.584,125.448 201.584 C 123.128 201.584,123.061 201.598,122.810 202.149 C 122.668 202.460,122.483 202.715,122.398 202.715 C 122.313 202.715,121.966 203.199,121.626 203.790 C 121.039 204.811,120.464 205.710,118.471 208.721 L 117.598 210.041 117.136 208.697 C 116.883 207.958,116.605 207.302,116.519 207.240 C 116.433 207.178,116.302 206.923,116.228 206.674 C 115.967 205.796,115.349 204.175,114.935 203.281 C 114.705 202.783,114.460 202.197,114.392 201.980 C 114.172 201.279,109.624 201.392,109.812 202.093 M75.226 205.430 C 75.303 205.554,75.540 205.656,75.753 205.656 C 76.585 205.656,77.752 206.727,78.040 207.753 C 78.783 210.409,76.700 212.443,73.236 212.443 L 72.110 212.443 72.243 211.256 C 72.317 210.602,72.498 208.973,72.645 207.636 L 72.913 205.204 74.000 205.204 C 74.597 205.204,75.149 205.305,75.226 205.430 M97.701 211.312 C 97.971 213.365,98.191 215.173,98.191 215.328 C 98.190 215.535,97.586 215.611,95.928 215.611 C 93.429 215.611,93.382 215.576,94.081 214.250 C 94.309 213.816,94.690 212.902,94.927 212.217 C 95.164 211.533,95.418 210.922,95.491 210.860 C 95.565 210.798,95.912 209.953,96.263 208.982 C 97.070 206.750,97.110 206.815,97.701 211.312 " stroke="none" fill="#0474bc" fill-rule="evenodd"></path><path id="path3" d="M318.495 0.620 C 319.273 0.664,320.546 0.664,321.324 0.620 C 322.101 0.576,321.465 0.540,319.910 0.540 C 318.354 0.540,317.718 0.576,318.495 0.620 M325.358 0.546 C 325.530 0.716,327.584 0.772,327.745 0.611 C 327.832 0.524,327.310 0.452,326.584 0.452 C 325.858 0.452,325.306 0.494,325.358 0.546 M312.557 0.905 C 312.175 1.069,312.217 1.102,312.826 1.115 C 313.223 1.124,313.611 1.029,313.688 0.905 C 313.855 0.634,313.188 0.634,312.557 0.905 M330.430 0.905 C 331.060 1.176,332.072 1.176,332.240 0.905 C 332.327 0.764,331.925 0.685,331.179 0.695 C 330.299 0.706,330.098 0.763,330.430 0.905 M309.955 1.131 C 309.679 1.310,309.708 1.351,310.111 1.354 C 310.384 1.356,310.670 1.256,310.747 1.131 C 310.925 0.843,310.400 0.843,309.955 1.131 M333.371 1.131 C 333.448 1.256,333.861 1.357,334.289 1.357 C 334.718 1.357,335.068 1.256,335.068 1.131 C 335.068 1.007,334.655 0.905,334.150 0.905 C 333.595 0.905,333.287 0.995,333.371 1.131 M335.633 1.357 C 335.552 1.489,335.782 1.584,336.186 1.584 C 336.566 1.584,336.878 1.482,336.878 1.357 C 336.878 1.233,336.629 1.131,336.326 1.131 C 336.022 1.131,335.710 1.233,335.633 1.357 M340.905 2.308 C 341.116 2.519,341.237 2.519,341.448 2.308 C 341.659 2.097,341.599 2.036,341.176 2.036 C 340.754 2.036,340.694 2.097,340.905 2.308 M342.081 2.489 C 342.081 2.613,342.285 2.715,342.534 2.715 C 342.783 2.715,342.986 2.613,342.986 2.489 C 342.986 2.364,342.783 2.262,342.534 2.262 C 342.285 2.262,342.081 2.364,342.081 2.489 M343.213 2.715 C 343.213 2.839,343.416 2.941,343.665 2.941 C 343.914 2.941,344.118 2.839,344.118 2.715 C 344.118 2.590,343.914 2.489,343.665 2.489 C 343.416 2.489,343.213 2.590,343.213 2.715 M344.490 2.888 C 344.421 3.000,344.990 3.208,345.755 3.350 C 347.354 3.647,347.800 3.546,346.340 3.217 C 345.802 3.096,345.194 2.926,344.989 2.840 C 344.784 2.754,344.559 2.776,344.490 2.888 M347.692 3.891 C 347.903 4.103,348.024 4.103,348.235 3.891 C 348.446 3.680,348.386 3.620,347.964 3.620 C 347.541 3.620,347.481 3.680,347.692 3.891 M349.548 4.299 C 349.548 4.423,349.700 4.525,349.887 4.525 C 350.074 4.525,350.226 4.423,350.226 4.299 C 350.226 4.174,350.074 4.072,349.887 4.072 C 349.700 4.072,349.548 4.174,349.548 4.299 M350.792 4.751 C 351.041 4.858,351.397 4.946,351.584 4.946 C 351.798 4.946,351.756 4.874,351.471 4.751 C 351.222 4.644,350.865 4.557,350.679 4.557 C 350.465 4.557,350.507 4.629,350.792 4.751 M352.579 5.301 C 352.940 5.501,353.287 5.611,353.352 5.547 C 353.531 5.368,353.345 5.255,352.601 5.089 L 351.923 4.938 352.579 5.301 M353.620 5.656 C 353.620 5.781,353.713 5.882,353.828 5.882 C 353.942 5.882,354.222 5.942,354.450 6.014 C 354.829 6.134,354.827 6.115,354.425 5.788 C 353.922 5.378,353.620 5.329,353.620 5.656 M355.656 6.448 C 356.689 6.846,357.095 6.840,356.222 6.440 C 355.848 6.269,355.390 6.132,355.204 6.136 C 355.017 6.140,355.221 6.280,355.656 6.448 M357.692 7.218 C 357.692 7.444,359.063 7.980,359.226 7.817 C 359.283 7.761,359.063 7.647,358.737 7.566 C 358.411 7.484,358.145 7.326,358.145 7.215 C 358.145 7.104,358.043 7.014,357.919 7.014 C 357.794 7.014,357.692 7.105,357.692 7.218 M359.552 8.044 C 359.864 8.355,364.027 10.337,364.027 10.174 C 364.027 10.073,363.082 9.524,361.926 8.954 C 360.019 8.014,359.214 7.706,359.552 8.044 M364.272 10.492 C 364.505 10.700,365.837 11.312,365.837 11.211 C 365.837 11.080,364.583 10.407,364.340 10.407 C 364.251 10.407,364.220 10.445,364.272 10.492 M366.742 11.867 C 366.742 11.929,367.073 12.149,367.477 12.356 C 367.882 12.563,368.287 12.846,368.379 12.984 C 368.496 13.161,368.546 13.153,368.549 12.957 C 368.550 12.804,368.145 12.471,367.647 12.217 C 367.149 11.963,366.742 11.806,366.742 11.867 M374.875 17.521 C 375.520 18.208,375.664 18.254,375.354 17.674 C 375.228 17.439,374.947 17.179,374.729 17.096 C 374.433 16.982,374.470 17.090,374.875 17.521 M375.792 18.165 C 375.792 18.207,376.104 18.540,376.485 18.905 C 376.892 19.295,377.118 19.412,377.032 19.187 C 376.907 18.863,375.792 17.943,375.792 18.165 M313.801 19.923 C 313.562 20.088,313.930 20.112,315.045 20.005 C 315.916 19.922,316.671 19.815,316.723 19.769 C 316.950 19.563,314.106 19.714,313.801 19.923 M323.756 19.921 C 325.138 20.167,327.331 20.157,326.357 19.910 C 325.984 19.815,325.017 19.737,324.208 19.738 C 322.773 19.740,322.762 19.744,323.756 19.921 M378.280 20.249 C 378.465 20.498,379.738 21.821,381.107 23.189 C 382.477 24.557,383.446 25.473,383.261 25.225 C 383.076 24.977,381.803 23.654,380.433 22.285 C 379.063 20.916,378.094 20.000,378.280 20.249 M329.132 20.296 C 329.413 20.350,329.820 20.348,330.037 20.291 C 330.253 20.235,330.023 20.190,329.525 20.193 C 329.027 20.195,328.850 20.242,329.132 20.296 M333.088 20.833 C 333.357 20.989,333.611 20.989,333.880 20.833 C 334.203 20.644,334.130 20.602,333.484 20.602 C 332.838 20.602,332.765 20.644,333.088 20.833 M334.615 21.041 C 334.615 21.165,334.819 21.267,335.068 21.267 C 335.317 21.267,335.520 21.165,335.520 21.041 C 335.520 20.916,335.317 20.814,335.068 20.814 C 334.819 20.814,334.615 20.916,334.615 21.041 M335.973 21.267 C 335.973 21.391,336.176 21.493,336.425 21.493 C 336.674 21.493,336.878 21.391,336.878 21.267 C 336.878 21.143,336.674 21.041,336.425 21.041 C 336.176 21.041,335.973 21.143,335.973 21.267 M341.176 22.624 C 341.176 22.749,341.329 22.851,341.516 22.851 C 341.702 22.851,341.855 22.749,341.855 22.624 C 341.855 22.500,341.702 22.398,341.516 22.398 C 341.329 22.398,341.176 22.500,341.176 22.624 M342.081 22.824 C 342.081 22.934,342.311 23.086,342.590 23.161 C 343.458 23.393,343.581 23.315,342.904 22.962 C 342.148 22.568,342.081 22.557,342.081 22.824 M344.118 23.580 C 344.429 23.717,344.734 23.847,344.796 23.869 C 344.859 23.891,345.266 24.066,345.701 24.258 C 346.137 24.450,346.748 24.670,347.059 24.748 L 347.624 24.889 347.059 24.612 C 346.748 24.459,346.428 24.242,346.349 24.129 C 346.269 24.016,346.091 23.994,345.953 24.079 C 345.815 24.165,345.701 24.143,345.701 24.031 C 345.701 23.919,345.308 23.709,344.827 23.565 C 343.742 23.240,343.362 23.248,344.118 23.580 M348.303 25.339 C 349.048 25.833,349.321 25.899,349.321 25.588 C 349.321 25.475,349.001 25.272,348.609 25.135 C 347.596 24.782,347.529 24.827,348.303 25.339 M349.548 25.766 C 349.548 25.952,350.684 26.541,350.806 26.418 C 350.845 26.380,350.577 26.177,350.212 25.968 C 349.846 25.758,349.548 25.667,349.548 25.766 M351.412 26.784 C 351.584 26.956,352.174 27.326,352.722 27.606 C 353.271 27.885,353.977 28.287,354.292 28.498 C 354.607 28.709,355.628 29.380,356.561 29.988 C 357.494 30.596,358.385 31.243,358.541 31.427 C 358.716 31.633,358.824 31.660,358.824 31.497 C 358.824 31.352,358.085 30.724,357.183 30.101 C 356.281 29.478,355.441 28.885,355.317 28.782 C 355.192 28.680,354.531 28.297,353.846 27.931 C 353.162 27.565,352.551 27.204,352.489 27.128 C 352.344 26.952,351.432 26.471,351.243 26.471 C 351.164 26.471,351.240 26.612,351.412 26.784 M359.389 32.020 C 360.507 32.839,361.798 33.986,363.969 36.086 C 366.586 38.618,366.751 38.763,366.285 38.122 C 365.977 37.698,363.124 34.860,361.529 33.390 C 360.714 32.640,359.335 31.671,359.096 31.681 C 359.008 31.685,359.140 31.838,359.389 32.020 M366.516 38.766 C 366.516 38.801,366.838 39.128,367.231 39.494 C 367.946 40.157,367.946 40.157,367.514 39.546 C 367.154 39.035,366.516 38.537,366.516 38.766 M370.141 43.382 C 370.144 43.476,370.353 43.807,370.607 44.118 L 371.068 44.683 370.709 43.948 C 370.368 43.249,370.130 43.012,370.141 43.382 M371.041 44.919 C 371.041 44.986,371.252 45.266,371.511 45.541 L 371.981 46.041 371.701 45.419 C 371.457 44.878,371.041 44.563,371.041 44.919 M371.992 46.290 C 372.172 46.958,374.120 50.671,374.292 50.675 C 374.401 50.677,374.387 50.551,374.262 50.396 C 374.136 50.240,373.798 49.553,373.511 48.869 C 373.223 48.184,372.921 47.574,372.839 47.511 C 372.757 47.449,372.518 47.093,372.307 46.719 C 372.097 46.346,371.955 46.153,371.992 46.290 M375.792 55.291 C 375.792 55.339,375.944 55.670,376.130 56.026 C 376.483 56.703,376.560 56.580,376.328 55.713 C 376.217 55.300,375.792 54.965,375.792 55.291 M377.149 60.520 C 377.149 60.707,377.251 60.860,377.376 60.860 C 377.500 60.860,377.602 60.707,377.602 60.520 C 377.602 60.334,377.500 60.181,377.376 60.181 C 377.251 60.181,377.149 60.334,377.149 60.520 M378.107 65.611 C 378.107 66.046,378.153 66.225,378.210 66.007 C 378.267 65.789,378.267 65.433,378.210 65.215 C 378.153 64.997,378.107 65.175,378.107 65.611 M378.374 71.719 C 378.374 73.897,378.408 74.788,378.449 73.699 C 378.490 72.610,378.490 70.829,378.449 69.740 C 378.408 68.651,378.374 69.542,378.374 71.719 M378.107 77.602 C 378.107 78.037,378.153 78.215,378.210 77.998 C 378.267 77.780,378.267 77.424,378.210 77.206 C 378.153 76.988,378.107 77.166,378.107 77.602 M377.149 83.145 C 377.149 83.331,377.251 83.484,377.376 83.484 C 377.500 83.484,377.602 83.331,377.602 83.145 C 377.602 82.958,377.500 82.805,377.376 82.805 C 377.251 82.805,377.149 82.958,377.149 83.145 M374.778 92.515 C 374.694 92.896,374.532 93.266,374.417 93.337 C 374.156 93.498,374.143 93.891,374.399 93.891 C 374.616 93.891,375.201 92.094,375.037 91.930 C 374.978 91.871,374.862 92.134,374.778 92.515 M373.777 94.833 C 373.434 95.816,373.589 95.860,374.023 94.903 C 374.219 94.471,374.300 94.118,374.203 94.118 C 374.106 94.118,373.914 94.440,373.777 94.833 M372.536 97.417 C 372.323 97.970,372.369 98.025,372.738 97.657 C 373.122 97.272,373.171 97.059,372.875 97.059 C 372.764 97.059,372.611 97.220,372.536 97.417 M370.677 100.954 C 370.348 101.603,369.769 102.519,369.391 102.990 C 369.012 103.461,368.767 103.910,368.845 103.988 C 368.923 104.067,369.110 103.863,369.259 103.536 C 369.408 103.209,369.613 102.941,369.716 102.941 C 369.818 102.941,370.169 102.414,370.496 101.769 C 370.822 101.125,371.231 100.456,371.404 100.283 C 371.776 99.911,371.801 99.774,371.497 99.774 C 371.375 99.774,371.006 100.305,370.677 100.954 M367.442 105.600 C 366.554 106.817,366.546 106.842,367.308 105.995 C 367.756 105.498,368.288 104.912,368.490 104.695 C 368.692 104.477,368.752 104.299,368.624 104.299 C 368.496 104.299,367.964 104.884,367.442 105.600 M364.278 109.050 C 363.125 110.170,362.091 111.086,361.981 111.086 C 361.871 111.086,361.668 111.297,361.530 111.555 C 361.106 112.347,364.256 109.603,366.046 107.621 C 367.156 106.392,366.319 107.069,364.278 109.050 M360.355 112.443 C 360.199 112.692,359.997 112.896,359.905 112.896 C 359.660 112.896,357.294 114.435,357.130 114.701 C 356.944 115.002,357.735 114.723,358.032 114.383 C 358.156 114.240,358.716 113.858,359.276 113.533 C 360.367 112.901,361.323 111.991,360.897 111.991 C 360.754 111.991,360.510 112.195,360.355 112.443 M355.982 115.264 C 355.741 115.447,355.651 115.600,355.783 115.604 C 355.914 115.608,356.220 115.461,356.461 115.279 C 356.703 115.096,356.793 114.943,356.661 114.939 C 356.529 114.935,356.224 115.082,355.982 115.264 M353.846 116.424 C 352.659 117.037,352.767 117.125,354.068 116.604 C 354.568 116.404,354.977 116.150,354.977 116.039 C 354.977 115.928,354.952 115.851,354.921 115.868 C 354.890 115.885,354.406 116.135,353.846 116.424 M351.697 117.421 C 350.923 117.933,350.990 117.978,352.002 117.625 C 352.394 117.488,352.715 117.285,352.715 117.172 C 352.715 116.861,352.442 116.928,351.697 117.421 M348.190 118.778 C 348.190 118.903,348.343 119.005,348.529 119.005 C 348.716 119.005,348.869 118.903,348.869 118.778 C 348.869 118.654,348.716 118.552,348.529 118.552 C 348.343 118.552,348.190 118.654,348.190 118.778 M346.946 119.231 C 346.660 119.353,346.619 119.425,346.833 119.425 C 347.019 119.425,347.376 119.338,347.624 119.231 C 347.910 119.108,347.951 119.036,347.738 119.036 C 347.551 119.036,347.195 119.124,346.946 119.231 M344.570 119.910 C 344.570 120.034,344.723 120.136,344.910 120.136 C 345.096 120.136,345.249 120.034,345.249 119.910 C 345.249 119.785,345.096 119.683,344.910 119.683 C 344.723 119.683,344.570 119.785,344.570 119.910 M343.439 120.136 C 343.439 120.260,343.592 120.362,343.778 120.362 C 343.965 120.362,344.118 120.260,344.118 120.136 C 344.118 120.011,343.965 119.910,343.778 119.910 C 343.592 119.910,343.439 120.011,343.439 120.136 M342.081 120.362 C 342.081 120.486,342.285 120.588,342.534 120.588 C 342.783 120.588,342.986 120.486,342.986 120.362 C 342.986 120.238,342.783 120.136,342.534 120.136 C 342.285 120.136,342.081 120.238,342.081 120.362 M340.554 120.744 C 340.772 120.801,341.128 120.801,341.346 120.744 C 341.564 120.687,341.386 120.641,340.950 120.641 C 340.515 120.641,340.337 120.687,340.554 120.744 M338.405 120.974 C 338.685 121.028,339.143 121.028,339.423 120.974 C 339.703 120.920,339.474 120.876,338.914 120.876 C 338.354 120.876,338.125 120.920,338.405 120.974 M181.775 203.187 C 181.692 203.322,181.736 203.546,181.875 203.685 C 182.060 203.870,182.127 203.804,182.127 203.439 C 182.127 202.893,182.009 202.808,181.775 203.187 M327.319 205.137 C 327.599 205.191,328.057 205.191,328.337 205.137 C 328.617 205.083,328.388 205.039,327.828 205.039 C 327.268 205.039,327.039 205.083,327.319 205.137 M184.996 205.373 C 188.022 205.433,188.443 205.488,188.533 205.832 C 188.608 206.118,188.642 206.087,188.662 205.713 L 188.688 205.204 185.124 205.254 L 181.561 205.304 184.996 205.373 M192.990 205.600 C 192.992 205.875,193.047 205.911,193.169 205.719 C 193.291 205.527,194.375 205.421,196.729 205.373 L 200.113 205.304 196.550 205.254 C 193.287 205.208,192.987 205.237,192.990 205.600 M319.748 208.258 C 319.750 208.880,319.794 209.108,319.846 208.764 C 319.898 208.420,319.896 207.911,319.843 207.633 C 319.789 207.354,319.746 207.636,319.748 208.258 M149.157 208.371 C 149.157 208.931,149.201 209.160,149.255 208.880 C 149.309 208.600,149.309 208.142,149.255 207.862 C 149.201 207.582,149.157 207.811,149.157 208.371 M159.377 211.784 C 159.293 211.920,159.338 212.144,159.477 212.282 C 159.662 212.467,159.729 212.402,159.729 212.036 C 159.729 211.490,159.611 211.406,159.377 211.784 M137.955 215.545 C 138.237 215.599,138.644 215.597,138.860 215.540 C 139.076 215.483,138.846 215.439,138.348 215.442 C 137.851 215.444,137.674 215.491,137.955 215.545 M298.869 215.560 C 298.869 215.657,299.276 215.697,299.774 215.650 C 300.271 215.602,300.679 215.523,300.679 215.474 C 300.679 215.425,300.271 215.385,299.774 215.385 C 299.276 215.385,298.869 215.464,298.869 215.560 M210.180 215.894 C 210.181 215.987,211.377 216.046,212.839 216.025 C 215.594 215.986,215.279 215.890,212.047 215.785 C 211.020 215.751,210.180 215.800,210.180 215.894 " stroke="none" fill="#66a274" fill-rule="evenodd"></path><path id="path4" d="M316.009 0.613 C 316.291 0.667,316.698 0.665,316.914 0.608 C 317.131 0.551,316.900 0.507,316.403 0.510 C 315.905 0.512,315.728 0.558,316.009 0.613 M306.787 1.359 C 306.787 1.483,307.059 1.584,307.391 1.584 C 308.055 1.584,307.943 1.310,307.234 1.202 C 306.988 1.165,306.787 1.235,306.787 1.359 M298.529 2.715 C 298.453 2.839,298.599 2.941,298.855 2.941 C 299.112 2.941,299.321 2.839,299.321 2.715 C 299.321 2.590,299.175 2.489,298.995 2.489 C 298.816 2.489,298.606 2.590,298.529 2.715 M288.363 5.180 C 288.123 5.275,288.021 5.404,288.137 5.467 C 288.253 5.531,288.603 5.448,288.914 5.284 C 289.513 4.967,289.105 4.890,288.363 5.180 M287.104 5.649 C 287.104 5.770,286.951 5.810,286.765 5.738 C 286.578 5.666,286.425 5.720,286.425 5.858 C 286.425 5.996,286.256 6.109,286.048 6.109 C 285.841 6.109,285.729 6.167,285.800 6.237 C 285.979 6.416,287.783 5.855,287.783 5.620 C 287.783 5.516,287.630 5.430,287.443 5.430 C 287.257 5.430,287.104 5.528,287.104 5.649 M283.943 6.778 C 283.760 6.894,283.689 7.068,283.786 7.164 C 283.882 7.261,284.032 7.231,284.119 7.098 C 284.205 6.964,284.429 6.797,284.615 6.726 C 284.917 6.611,284.917 6.595,284.615 6.582 C 284.429 6.574,284.126 6.663,283.943 6.778 M282.587 7.405 C 282.290 7.739,282.298 7.762,282.662 7.622 C 282.886 7.536,283.162 7.466,283.276 7.466 C 283.391 7.466,283.484 7.364,283.484 7.240 C 283.484 6.891,282.957 6.988,282.587 7.405 M279.808 8.408 C 279.465 8.533,279.186 8.728,279.186 8.842 C 279.186 9.141,279.468 9.098,280.010 8.718 C 280.271 8.536,280.548 8.451,280.626 8.530 C 280.705 8.608,280.769 8.554,280.769 8.409 C 280.769 8.101,280.648 8.101,279.808 8.408 M277.432 9.530 C 276.779 9.781,276.244 10.081,276.244 10.197 C 276.244 10.469,276.150 10.499,277.715 9.729 C 279.279 8.958,279.152 8.869,277.432 9.530 M275.226 10.649 C 274.465 11.136,274.570 11.221,275.442 10.823 C 275.759 10.679,276.018 10.475,276.018 10.371 C 276.018 10.135,276.043 10.126,275.226 10.649 M272.342 12.057 C 271.377 12.573,270.588 13.058,270.588 13.134 C 270.588 13.304,273.475 11.893,274.084 11.425 C 274.859 10.831,274.149 11.088,272.342 12.057 M269.007 13.846 C 268.324 14.214,267.713 14.595,267.650 14.693 C 267.586 14.791,267.076 15.103,266.516 15.387 C 265.956 15.670,265.183 16.142,264.798 16.435 C 264.413 16.728,264.020 16.968,263.924 16.968 C 263.829 16.968,263.060 17.471,262.216 18.085 C 261.371 18.699,260.619 19.141,260.544 19.066 C 260.469 18.990,260.407 19.038,260.407 19.172 C 260.407 19.305,259.949 19.683,259.389 20.011 C 258.829 20.339,258.371 20.705,258.371 20.824 C 258.371 20.943,258.244 21.041,258.088 21.041 C 257.933 21.042,257.347 21.459,256.787 21.969 C 255.534 23.110,256.448 22.613,258.484 21.046 C 259.231 20.471,261.063 19.192,262.557 18.202 C 264.050 17.212,265.306 16.326,265.347 16.232 C 265.389 16.138,265.516 16.118,265.630 16.188 C 265.744 16.259,265.837 16.227,265.837 16.118 C 265.837 16.009,266.448 15.628,267.195 15.271 C 267.941 14.915,268.552 14.555,268.552 14.472 C 268.552 14.390,268.959 14.138,269.457 13.914 C 269.955 13.690,270.362 13.420,270.362 13.314 C 270.362 13.209,270.337 13.134,270.305 13.149 C 270.274 13.164,269.690 13.478,269.007 13.846 M315.444 20.072 C 315.788 20.124,316.297 20.122,316.576 20.069 C 316.854 20.015,316.572 19.973,315.950 19.974 C 315.328 19.976,315.100 20.020,315.444 20.072 M323.020 20.069 C 323.300 20.123,323.758 20.123,324.038 20.069 C 324.318 20.015,324.089 19.971,323.529 19.971 C 322.969 19.971,322.740 20.015,323.020 20.069 M310.580 20.296 C 310.861 20.350,311.268 20.348,311.485 20.291 C 311.701 20.235,311.471 20.190,310.973 20.193 C 310.475 20.195,310.298 20.242,310.580 20.296 M308.201 20.518 C 308.419 20.575,308.775 20.575,308.993 20.518 C 309.211 20.461,309.033 20.414,308.597 20.414 C 308.162 20.414,307.984 20.461,308.201 20.518 M304.072 21.041 C 304.072 21.165,304.282 21.267,304.538 21.267 C 304.794 21.267,304.941 21.165,304.864 21.041 C 304.787 20.916,304.578 20.814,304.398 20.814 C 304.219 20.814,304.072 20.916,304.072 21.041 M254.716 23.507 C 254.300 23.867,253.450 24.583,252.828 25.097 C 249.757 27.636,243.667 33.409,243.666 33.784 C 243.665 33.886,243.080 34.564,242.364 35.290 C 240.650 37.030,240.031 37.733,239.370 38.688 C 239.069 39.123,238.749 39.532,238.659 39.596 C 238.569 39.660,237.985 40.423,237.361 41.293 C 236.737 42.162,236.064 43.055,235.865 43.278 C 235.666 43.501,235.293 44.061,235.036 44.522 C 234.779 44.984,234.411 45.540,234.218 45.758 C 234.025 45.976,233.928 46.154,234.004 46.154 C 234.079 46.154,233.892 46.423,233.586 46.752 C 233.281 47.082,233.032 47.489,233.032 47.657 C 233.032 47.826,232.924 47.964,232.792 47.964 C 232.660 47.964,232.615 48.066,232.692 48.190 C 232.769 48.314,232.750 48.416,232.649 48.416 C 232.548 48.416,232.213 48.900,231.906 49.491 C 231.598 50.082,231.282 50.617,231.205 50.679 C 231.034 50.815,230.543 51.728,230.543 51.908 C 230.543 52.315,230.968 51.918,231.314 51.188 C 231.779 50.209,232.440 49.117,234.106 46.572 C 234.760 45.574,235.294 44.665,235.294 44.551 C 235.294 44.437,235.380 44.344,235.484 44.344 C 235.589 44.344,235.781 44.115,235.912 43.835 C 236.043 43.555,236.826 42.460,237.651 41.403 C 242.306 35.439,246.320 31.131,251.248 26.810 C 252.242 25.939,253.088 25.150,253.130 25.057 C 253.171 24.963,253.349 24.887,253.526 24.887 C 253.702 24.887,253.846 24.788,253.846 24.666 C 253.846 24.545,254.149 24.290,254.518 24.098 C 254.888 23.907,255.299 23.548,255.431 23.301 C 255.758 22.691,255.609 22.734,254.716 23.507 M284.848 26.722 C 284.540 26.845,284.235 27.026,284.169 27.125 C 284.104 27.223,283.556 27.491,282.952 27.719 C 282.347 27.947,281.737 28.243,281.594 28.377 C 281.451 28.511,280.699 28.919,279.921 29.284 C 279.143 29.649,278.507 30.015,278.507 30.098 C 278.507 30.180,278.278 30.358,277.998 30.493 C 277.718 30.628,277.602 30.745,277.740 30.754 C 277.878 30.762,278.336 30.535,278.758 30.249 C 279.683 29.622,285.155 26.923,285.501 26.923 C 285.636 26.923,285.747 26.821,285.747 26.697 C 285.747 26.425,285.583 26.429,284.848 26.722 M276.810 31.040 C 276.561 31.181,276.307 31.367,276.244 31.454 C 276.182 31.540,275.791 31.785,275.375 31.999 C 274.959 32.212,274.666 32.434,274.724 32.492 C 274.854 32.622,276.423 31.720,277.022 31.171 C 277.524 30.711,277.459 30.671,276.810 31.040 M273.077 33.504 C 271.578 34.571,271.398 34.705,269.197 36.411 C 267.511 37.718,266.979 38.242,267.351 38.229 C 267.452 38.226,268.043 37.769,268.665 37.213 C 269.287 36.658,269.854 36.202,269.925 36.201 C 269.996 36.200,270.395 35.895,270.810 35.524 C 271.226 35.153,271.754 34.789,271.982 34.717 C 272.211 34.644,272.398 34.500,272.398 34.395 C 272.398 34.291,272.856 33.937,273.416 33.609 C 273.976 33.281,274.434 32.915,274.434 32.796 C 274.434 32.520,274.527 32.471,273.077 33.504 M265.830 39.202 C 265.266 39.728,264.299 40.619,263.680 41.182 C 260.698 43.900,256.041 49.765,254.522 52.715 C 254.362 53.026,254.122 53.351,253.989 53.438 C 253.855 53.524,253.816 53.666,253.902 53.751 C 253.988 53.837,254.240 53.575,254.461 53.170 C 254.683 52.764,255.079 52.165,255.341 51.838 C 255.604 51.511,255.977 50.939,256.170 50.566 C 257.249 48.480,262.680 42.269,265.468 39.932 C 266.356 39.188,267.188 38.219,266.920 38.241 C 266.884 38.243,266.394 38.676,265.830 39.202 M229.982 52.852 C 229.748 53.210,229.678 53.524,229.804 53.650 C 229.930 53.776,230.107 53.544,230.256 53.060 C 230.548 52.108,230.496 52.068,229.982 52.852 " stroke="none" fill="#aace86" fill-rule="evenodd"></path><path id="path5" d="" stroke="none" fill="#20a898" fill-rule="evenodd"></path><path id="path6" d="" stroke="none" fill="#2074c0" fill-rule="evenodd"></path><path id="path7" d="" stroke="none" fill="#2074c0" fill-rule="evenodd"></path><path id="path8" d="" stroke="none" fill="#2074c0" fill-rule="evenodd"></path></g></svg>