<svg xmlns="http://www.w3.org/2000/svg" viewBox="0 0 80 22.13"><defs><style>.cls-1{fill:#ee2c42;}.cls-2{fill:#fff;}</style></defs><title>Santander</title><g id="Layer_2" data-name="Layer 2"><g id="Santander"><rect class="cls-1" width="80" height="22.13"/><path class="cls-2" d="M12.44,4.08c0,1.55,2.61,3.28,2.61,5.06a1.08,1.08,0,0,1-.07.35c2.44.52,4.16,1.73,4.16,3.15,0,1.91-3.08,3.49-6.89,3.49s-6.92-1.55-6.92-3.42c0-1.42,1.87-2.57,4.13-3.18,0,.78,2.57,3.27,2.63,4.27a.91.91,0,0,1,0,.33c.56-.29.56-1.21.56-1.21,0-2.18-2.5-3.15-2.5-5.29A1.84,1.84,0,0,1,10.88,6v.6c0,1.56,2.71,3.3,2.71,4.72v.46c.63-.24.63-1.4.63-1.4,0-2-2.51-3.05-2.51-5.3a1.81,1.81,0,0,1,.73-1.61Z"/><path class="cls-2" d="M24.62,15.53a6.68,6.68,0,0,1-2.26-.38V12.84h.32A2.34,2.34,0,0,0,24.82,15a1.57,1.57,0,0,0,1.78-1.52c0-1-1-1.44-1.63-1.77L24,11.22A2.56,2.56,0,0,1,22.42,9a2.43,2.43,0,0,1,2.74-2.38A6.62,6.62,0,0,1,27.4,7V9.1h-.33c-.19-1.1-.79-2-2-2a1.35,1.35,0,0,0-1.46,1.29c0,.84.58,1.22,1.25,1.56l.94.48a2.93,2.93,0,0,1,1.92,2.42c0,1.6-1.08,2.65-3.08,2.65"/><path class="cls-2" d="M30.71,13a1,1,0,0,0-.7.9.78.78,0,0,0,.8.83,1.84,1.84,0,0,0,1-.41V12.52Zm-.5,2.47a1.28,1.28,0,0,1-1.35-1.37c0-.59.42-1,1.35-1.39l1.63-.59v-.52c0-.77-.35-1.25-.88-1.25a1.1,1.1,0,0,0-.91.48.76.76,0,0,0-.08.39,1.14,1.14,0,0,0,.13.45l-.79.37a1.44,1.44,0,0,1-.22-.68s0-.1,0-.14c.06-.44.44-.73.94-1a2.41,2.41,0,0,1,1.22-.39,1.65,1.65,0,0,1,1.79,1.63V14c0,.4,0,.66.36.66a.66.66,0,0,0,.29,0l.29-.09v.36l-1.69.64a1.19,1.19,0,0,1-.42-.8,3,3,0,0,1-1.67.8"/><path class="cls-2" d="M34.36,15.36v-.3l.4-.07a.48.48,0,0,0,.41-.48V11.24c0-.28-.13-.43-.37-.43a.92.92,0,0,0-.28,0l-.16.07v-.37L36.1,9.8h.25v.91a2.36,2.36,0,0,1,1.72-.91,1.76,1.76,0,0,1,1.82,1.93v2.78a.49.49,0,0,0,.42.48l.41.07v.3H37.85v-.3l.4-.07a.5.5,0,0,0,.43-.48V11.75a1,1,0,0,0-1.06-1.19,1.93,1.93,0,0,0-1.24.57v3.38a.5.5,0,0,0,.43.48l.4.07v.3Z"/><path class="cls-2" d="M44.88,10.55H43.19v3c0,.68.35,1,.86,1a1.77,1.77,0,0,0,.83-.23l.14.29-1.09.7a2.62,2.62,0,0,1-.33,0c-1.05,0-1.61-.63-1.61-1.95V10.55h-.88v-.31A3.56,3.56,0,0,0,43,8.46h.24V10H45.1Z"/><path class="cls-2" d="M47.42,13a1,1,0,0,0-.71.9.79.79,0,0,0,.81.83,1.84,1.84,0,0,0,1-.41V12.52Zm-.5,2.47a1.28,1.28,0,0,1-1.35-1.37c0-.59.42-1,1.35-1.39l1.63-.59v-.52c0-.77-.35-1.25-.88-1.25a1.1,1.1,0,0,0-.91.48.76.76,0,0,0-.08.39,1.14,1.14,0,0,0,.13.45l-.79.37a1.44,1.44,0,0,1-.22-.68s0-.1,0-.14c.06-.44.43-.73.94-1A2.41,2.41,0,0,1,48,9.8a1.65,1.65,0,0,1,1.79,1.63V14c0,.4,0,.66.36.66a.7.7,0,0,0,.29,0l.29-.09v.36L49,15.48a1.15,1.15,0,0,1-.42-.8,3,3,0,0,1-1.67.8"/><path class="cls-2" d="M51.07,15.36v-.3l.4-.07a.48.48,0,0,0,.41-.48V11.24c0-.28-.13-.43-.38-.43a.91.91,0,0,0-.27,0l-.16.07v-.37l1.74-.76h.25v.91a2.36,2.36,0,0,1,1.72-.91,1.76,1.76,0,0,1,1.82,1.93v2.78A.49.49,0,0,0,57,15l.41.07v.3H54.56v-.3L55,15a.5.5,0,0,0,.43-.48V11.75a1,1,0,0,0-1.06-1.19,1.93,1.93,0,0,0-1.24.57v3.38a.5.5,0,0,0,.43.48l.4.07v.3Z"/><path class="cls-2" d="M61,10.31c-.87,0-1.76.57-1.76,2.21,0,1.37.67,2.2,1.73,2.2a1.31,1.31,0,0,0,1.14-.58V11A1.16,1.16,0,0,0,61,10.31m-.55,5.17A2.54,2.54,0,0,1,58,12.76a2.9,2.9,0,0,1,2.9-3,3.19,3.19,0,0,1,1.25.23V7.23c0-.3-.16-.38-.35-.38a1,1,0,0,0-.34.06L61.22,7V6.63l1.88-.81h.25v8.07c0,.46.08.73.4.73a.66.66,0,0,0,.29,0l.29-.09v.36l-1.69.64a1.34,1.34,0,0,1-.46-.81,2.31,2.31,0,0,1-1.69.81"/><path class="cls-2" d="M68.57,11.7v0c0-.92-.51-1.36-1.11-1.36s-1.19.46-1.33,1.39Zm-2.48.5v.06c0,1.63.91,2.45,2,2.45a2.53,2.53,0,0,0,1.54-.55v.49a3.14,3.14,0,0,1-2.13.83,2.62,2.62,0,0,1-2.71-2.79A2.8,2.8,0,0,1,67.58,9.8,2.18,2.18,0,0,1,69.83,12v.16Z"/><path class="cls-2" d="M70.55,15.36v-.3l.39-.07a.49.49,0,0,0,.41-.48V11.24c0-.28-.13-.43-.37-.43a1,1,0,0,0-.28,0l-.15.07v-.37l1.71-.76h.25V11c.44-.86,1-1.22,1.55-1.22s.6.13.6.13v1.29h-.24a.59.59,0,0,0-.65-.51,1.24,1.24,0,0,0-1.21.82v3A.54.54,0,0,0,73,15l.58.07v.3Z"/></g></g></svg>