<?xml version="1.0" encoding="utf-8"?>
<!-- Generator: Adobe Illustrator 22.1.0, SVG Export Plug-In . SVG Version: 6.00 Build 0)  -->
<svg version="1.1" id="Layer_1" xmlns="http://www.w3.org/2000/svg" xmlns:xlink="http://www.w3.org/1999/xlink" x="0px" y="0px"
	 viewBox="0 0 100 100" style="enable-background:new 0 0 100 100;" xml:space="preserve">
<style type="text/css">
	.st0{fill:#ED1C24;stroke:#EC008C;stroke-width:5.656445e-02;stroke-miterlimit:10;}
	.st1{fill:#FFFFFF;}
</style>
<g>
	<rect x="10" y="40.3" class="st0" width="80" height="19.4"/>
	<g>
		<g>
			<path class="st1" d="M17.8,49.9c-0.4-0.7-0.5-1.6-0.5-2.3c0-2.3,2.1-4.3,4.4-4.3l6.9,0l-2.7,2.7l-4.3,0
				C19.9,46,17.8,47.8,17.8,49.9 M20.5,48c0.2-0.6,0.7-1.3,1.3-1.7c-1,0-2.1,0.5-3,1.7L20.5,48z M21.9,46.7C21.5,47,21,47.6,20.8,48
				l2.1,0C22.7,47.6,22.2,47.1,21.9,46.7z M18.6,48.4c-0.3,0.5-0.4,1-0.4,1.5l1.9,0c0-0.5,0.1-1,0.3-1.5L18.6,48.4z M20.7,48.4
				c-0.2,0.5-0.3,1-0.3,1.5l2.9,0c0-0.5-0.1-1-0.3-1.5L20.7,48.4z M24.9,48c-0.8-1.2-2-1.7-2.9-1.7c0.5,0.4,1,1.1,1.3,1.7L24.9,48z
				 M23.4,48.4c0.2,0.5,0.3,1,0.3,1.5l1.9,0c0-0.5-0.2-1-0.4-1.5L23.4,48.4z M18.7,52c0.9,1.2,2,1.7,3,1.7c-0.5-0.4-1.1-1.1-1.3-1.7
				L18.7,52z M21.8,53.3c0.4-0.3,0.8-0.9,1-1.4l-2.1,0C21,52.4,21.4,53,21.8,53.3z M20.3,51.7c-0.2-0.5-0.3-1-0.3-1.5l-1.9,0
				c0,0.5,0.2,1,0.4,1.5L20.3,51.7z M23,51.7c0.2-0.5,0.3-1,0.3-1.5l-2.9,0c0,0.5,0.1,1,0.3,1.5L23,51.7z M23.2,52
				c-0.2,0.6-0.8,1.3-1.3,1.7c1,0,2.1-0.4,3-1.7L23.2,52z M25.1,51.7c0.3-0.5,0.4-1,0.4-1.5l-1.9,0c0,0.5-0.1,1-0.3,1.5L25.1,51.7z
				 M25.9,50c0,2.3-2,4-3.8,4l-4.3,0l-2.7,2.6l6.9,0c2.2,0,4.3-2,4.4-4.3C26.4,51.6,26.3,50.7,25.9,50L25.9,50z"/>
		</g>
		<g>
			<path class="st1" d="M43,53.8c-1.7,0-3-1-3-2.6c0-1.6,1.3-2.6,3-2.6c1.7,0,3,1.1,3,2.7C46,52.8,44.7,53.8,43,53.8 M43,52.5
				c0.7,0,1.1-0.6,1.2-1.4c0-0.8-0.4-1.4-1.1-1.4c-0.8,0-1.2,0.6-1.2,1.4C41.9,51.9,42.3,52.5,43,52.5z"/>
			<path class="st1" d="M60.1,53.7l0-7.1l1.8,0l0,2.4h0c0.1-0.1,0.7-0.5,1.5-0.5c1.4,0,2.4,1.1,2.4,2.6c0,1.8-1.1,2.7-2.4,2.7
				c-1,0-1.5-0.5-1.6-0.6h0l0,0.5L60.1,53.7 M64,51.2c0-0.7-0.4-1.3-1.1-1.3c-0.6,0-1.1,0.5-1.1,1.3c0,0.7,0.4,1.3,1.1,1.3
				C63.5,52.5,64,52,64,51.2z"/>
			<path class="st1" d="M50.7,48.7l1.8,0l0,5l-1.8,0L50.7,48.7z M51.6,46.1c-0.6,0-1,0.4-1,1c0,0.5,0.4,1,1,1c0.5,0,1-0.4,1-1
				C52.6,46.6,52.2,46.1,51.6,46.1z"/>
			<path class="st1" d="M73.2,53.8l1.7,0l0-2.6c0-0.6,0.4-1,0.9-1c0.6,0,0.9,0.4,0.9,1l0,2.6l1.7,0l0-3c0-1.1-0.7-2.1-2.1-2.1
				c-0.9,0-1.4,0.5-1.6,0.7l0,0l0-0.6l-1.6,0L73.2,53.8"/>
			<polyline class="st1" points="79.6,53.8 81.3,53.8 81.3,51.5 81.4,51.5 82.9,53.8 84.9,53.8 83,51.1 84.9,48.8 82.9,48.8 
				81.4,50.8 81.3,50.8 81.3,46.7 79.6,46.7 79.6,53.8 			"/>
			<path class="st1" d="M39.7,48.7c-0.1,0-0.6-0.2-1.3-0.2c-1.6,0-2.8,1-2.8,2.6c0,1.5,1.1,2.6,2.7,2.6c0.7,0,1.2-0.2,1.3-0.2
				l-0.1-1.5c-0.1,0.1-0.5,0.3-0.9,0.3c-0.7,0-1.2-0.5-1.2-1.2c0-0.7,0.6-1.2,1.3-1.2c0.4,0,0.7,0.2,0.9,0.3L39.7,48.7"/>
			<path class="st1" d="M59,48.7l0,5l-1.7,0l0-0.5l0,0c-0.2,0.2-0.6,0.6-1.7,0.6c-1.2,0-2.3-1.1-2.3-2.6c0-1.5,1-2.6,2.4-2.6
				c1,0,1.4,0.4,1.6,0.6h0l0-0.5L59,48.7 M55.1,51.2c0,0.8,0.5,1.4,1.1,1.4c0.6,0,1.1-0.5,1.1-1.3c0-0.8-0.5-1.3-1.1-1.3
				C55.5,49.9,55.1,50.5,55.1,51.2z"/>
			<path class="st1" d="M72.2,48.7l0,5l-1.7,0l0-0.5h0c-0.2,0.2-0.6,0.6-1.7,0.6c-1.2,0-2.3-1.1-2.3-2.6c0-1.5,1-2.6,2.4-2.6
				c1,0,1.4,0.4,1.6,0.6h0l0-0.5L72.2,48.7 M68.2,51.2c0,0.8,0.5,1.4,1.1,1.4c0.6,0,1.1-0.5,1.1-1.3c0-0.8-0.5-1.3-1.1-1.3
				C68.7,49.9,68.2,50.5,68.2,51.2z"/>
			<path class="st1" d="M30,53.5c0.5,0.1,1.3,0.3,2.1,0.3c1.5,0,3-0.5,3-2.2c0-2.3-3.1-2-3.1-2.9c0-0.5,0.5-0.6,1-0.6
				c0.7,0,1.5,0.3,1.7,0.4l0.1-1.5c-0.5-0.2-1.2-0.2-1.8-0.3c-1.5,0-3,0.6-3,2c0,2.2,3.1,1.8,3.1,2.9c0,0.4-0.5,0.6-1,0.6
				c-0.8,0-1.5-0.4-1.9-0.5L30,53.5"/>
			<path class="st1" d="M49.9,52.3c-0.1,0-0.3,0.1-0.5,0.1c-0.4,0-0.8-0.2-0.8-0.8l0-1.7l1.1,0l0-1.3l-1.1,0l0-1.6l-1.8,0l0,1.6
				l-0.8,0l0,1.3l0.8,0l0,2c0,1.1,0.5,1.9,1.8,1.9c0.4,0,0.7,0,1-0.1L49.9,52.3"/>
		</g>
	</g>
</g>
</svg>
