<?xml version="1.0" encoding="utf-8"?>
<!-- Generator: Adobe Illustrator 22.1.0, SVG Export Plug-In . SVG Version: 6.00 Build 0)  -->
<svg version="1.1" id="Layer_1" xmlns="http://www.w3.org/2000/svg" xmlns:xlink="http://www.w3.org/1999/xlink" x="0px" y="0px"
	 viewBox="0 0 100 100" style="enable-background:new 0 0 100 100;" xml:space="preserve">
<style type="text/css">
	.st0{fill-rule:evenodd;clip-rule:evenodd;fill:#ED1B2E;}
	.st1{fill-rule:evenodd;clip-rule:evenodd;fill:none;stroke:#000000;stroke-width:0.2779;stroke-miterlimit:3.8637;}
	.st2{fill-rule:evenodd;clip-rule:evenodd;}
	.st3{fill-rule:evenodd;clip-rule:evenodd;fill:none;stroke:#FFC629;stroke-width:0.2779;stroke-miterlimit:3.8637;}
	.st4{fill-rule:evenodd;clip-rule:evenodd;fill:#FFC629;}
	.st5{fill-rule:evenodd;clip-rule:evenodd;fill:#0F7AD2;}
	.st6{clip-path:url(#SVGID_3_);}
	.st7{clip-path:url(#SVGID_4_);}
	.st8{fill-rule:evenodd;clip-rule:evenodd;fill:#FFFFFF;}
</style>
<g>
	<rect x="10" y="37.1" class="st0" width="80" height="25.7"/>
	<g>
		<g>
			<path class="st1" d="M79.6,53.2c0-0.6,0.4-1,1-1c0.6,0,1,0.4,1,1c0,0.5-0.4,1-1,1C80,54.2,79.6,53.8,79.6,53.2z"/>
			<path class="st2" d="M80.1,53.9v-1.2h0.5c0.1,0,0.2,0,0.2,0c0.1,0,0.1,0.1,0.1,0.1c0,0.1,0,0.1,0,0.2c0,0.1,0,0.2-0.1,0.2
				c-0.1,0.1-0.1,0.1-0.3,0.1c0,0,0.1,0,0.1,0.1c0,0,0.1,0.1,0.1,0.2l0.2,0.3H81l-0.2-0.3c0-0.1-0.1-0.1-0.1-0.2
				c0,0-0.1-0.1-0.1-0.1c0,0,0,0-0.1,0c0,0,0,0-0.1,0h-0.2v0.5H80.1z M80.3,53.2h0.3c0.1,0,0.1,0,0.2,0c0,0,0.1,0,0.1-0.1
				c0,0,0-0.1,0-0.1c0-0.1,0-0.1-0.1-0.1c0,0-0.1-0.1-0.2-0.1h-0.4V53.2z"/>
		</g>
		<g>
			<path class="st3" d="M79.5,53.2c0-0.5,0.4-1,1-1c0.5,0,1,0.4,1,1c0,0.6-0.4,1-1,1C79.9,54.2,79.5,53.8,79.5,53.2z"/>
			<path class="st4" d="M80,53.8v-1.2h0.5c0.1,0,0.2,0,0.2,0c0.1,0,0.1,0.1,0.1,0.1c0,0.1,0.1,0.1,0.1,0.2c0,0.1,0,0.2-0.1,0.2
				c-0.1,0.1-0.1,0.1-0.3,0.1c0,0,0.1,0,0.1,0.1c0,0,0.1,0.1,0.1,0.2l0.2,0.3h-0.2l-0.2-0.3c0-0.1-0.1-0.1-0.1-0.2
				c0,0-0.1-0.1-0.1-0.1c0,0,0,0-0.1,0c0,0,0,0-0.1,0h-0.2v0.5H80z M80.2,53.2h0.3c0.1,0,0.1,0,0.2,0c0,0,0.1,0,0.1-0.1
				c0,0,0-0.1,0-0.1c0-0.1,0-0.1-0.1-0.1c0,0-0.1-0.1-0.2-0.1h-0.4V53.2z"/>
		</g>
		<g>
			<path class="st2" d="M46.1,49.2h-2v-1.2c0-0.2,0-0.4-0.1-0.4c-0.1-0.1-0.2-0.1-0.4-0.1c-0.2,0-0.3,0-0.4,0.1
				c-0.1,0.1-0.1,0.2-0.1,0.4v0.3c0,0.1,0.1,0.3,0.2,0.4c0.2,0.2,0.7,0.6,1.7,1.4c0.5,0.4,0.8,0.7,1,0.9c0.2,0.2,0.3,0.6,0.3,1.1
				c0,0.6-0.1,1-0.3,1.4c-0.2,0.3-0.5,0.6-0.9,0.7c-0.4,0.2-0.9,0.3-1.5,0.3c-0.4,0-0.8-0.1-1.2-0.2c-0.4-0.1-0.6-0.3-0.8-0.5
				c-0.1-0.1-0.2-0.3-0.3-0.5c-0.1-0.2-0.1-0.4-0.1-0.7v-1.4h2v1.4c0,0.2,0,0.3,0.1,0.4c0.1,0.1,0.2,0.1,0.4,0.1
				c0.2,0,0.3,0,0.4-0.1c0.1-0.1,0.1-0.3,0.1-0.6v-0.2c0-0.1,0-0.2-0.1-0.3c-0.1-0.1-0.3-0.3-0.6-0.6L42,50.2
				c-0.4-0.4-0.7-0.7-0.8-0.9C41.1,49,41,48.8,41,48.4c0-0.5,0.1-0.9,0.3-1.2c0.2-0.3,0.5-0.5,0.8-0.7c0.4-0.2,0.9-0.3,1.5-0.3
				c0.8,0,1.4,0.2,1.8,0.5c0.4,0.3,0.6,0.7,0.6,1.2V49.2z"/>
			<path class="st2" d="M51,51.4h-2.7v1.4c0,0.2,0,0.4,0.1,0.4c0.1,0.1,0.2,0.1,0.3,0.1c0.1,0,0.2,0,0.3-0.1
				c0.1-0.1,0.1-0.2,0.1-0.3v-1H51v0.8c0,0.6-0.2,1.1-0.6,1.4c-0.4,0.3-0.9,0.5-1.7,0.5c-0.5,0-0.9-0.1-1.2-0.2
				c-0.3-0.1-0.5-0.3-0.7-0.5c-0.1-0.2-0.2-0.4-0.3-0.6c0-0.2-0.1-0.4-0.1-0.7v-2.8c0-0.6,0.2-1,0.6-1.4c0.4-0.3,0.9-0.5,1.7-0.5
				c0.6,0,1.1,0.1,1.4,0.3c0.3,0.2,0.6,0.4,0.7,0.7c0.1,0.2,0.2,0.6,0.2,1.2V51.4z M48.3,50.3h0.8v-0.9c0-0.1,0-0.2-0.1-0.3
				C49,49.1,48.9,49,48.7,49c-0.1,0-0.2,0-0.3,0.1c-0.1,0.1-0.1,0.1-0.1,0.3V50.3z"/>
			<path class="st2" d="M51.5,54.3V48h1.9v0.8c0.1-0.3,0.3-0.5,0.5-0.6c0.3-0.2,0.6-0.3,0.9-0.3c0.5,0,0.8,0.2,1.1,0.5
				c0.1,0.2,0.2,0.6,0.2,1.2v4.8h-1.9v-4.5c0-0.2,0-0.3-0.1-0.4c-0.1-0.1-0.2-0.1-0.3-0.1c-0.1,0-0.2,0-0.3,0.1
				c-0.1,0.1-0.1,0.2-0.1,0.3v4.6H51.5z"/>
			<path class="st2" d="M60.9,50.2h-1.8v-0.7c0-0.2,0-0.3-0.1-0.4c-0.1-0.1-0.2-0.1-0.3-0.1c-0.1,0-0.2,0-0.3,0.1
				c-0.1,0.1-0.1,0.2-0.1,0.4v3.4c0,0.1,0,0.2,0.1,0.3c0.1,0.1,0.2,0.1,0.3,0.1s0.2,0,0.3-0.1c0.1-0.1,0.1-0.2,0.1-0.4v-0.9h1.8v0.8
				c0,0.6-0.2,1.1-0.6,1.4c-0.4,0.3-1,0.5-1.7,0.5c-0.6,0-1.2-0.1-1.6-0.4c-0.4-0.3-0.6-0.8-0.6-1.4v-2.9c0-0.3,0.1-0.6,0.2-0.9
				c0.2-0.3,0.4-0.6,0.7-0.7c0.3-0.2,0.8-0.3,1.3-0.3c0.4,0,0.8,0,1.1,0.2c0.3,0.1,0.6,0.3,0.8,0.5c0.2,0.2,0.3,0.3,0.3,0.6
				c0.1,0.2,0.1,0.5,0.1,0.7V50.2z"/>
			<path class="st2" d="M61.4,47.6v-1.2h1.9v1.2H61.4z M61.4,54.3V48h1.9v6.3H61.4z"/>
			<rect x="63.8" y="46.4" class="st2" width="1.9" height="7.9"/>
			<rect x="66.1" y="46.4" class="st2" width="1.9" height="7.9"/>
			<path class="st2" d="M68.5,47.6v-1.2h1.9v1.2H68.5z M68.5,54.3V48h1.9v6.3H68.5z"/>
			<path class="st2" d="M70.6,49.1V48h0.6v-1.2h1.9V48H74v1.1h-0.8v3.5c0,0.2,0,0.3,0.1,0.4c0.1,0.1,0.2,0.1,0.4,0.1H74v1.1
				c-0.3,0-0.5,0-0.7,0c-0.6,0-0.9,0-1.2-0.1c-0.2-0.1-0.4-0.2-0.5-0.3c-0.1-0.1-0.2-0.3-0.2-0.4c0-0.2-0.1-0.4-0.1-0.8v-3.6H70.6z"
				/>
			<path class="st2" d="M78.8,49.7v3c0,0.2,0,0.4-0.1,0.6c-0.1,0.2-0.2,0.4-0.4,0.6c-0.2,0.2-0.4,0.3-0.7,0.4
				c-0.3,0.1-0.7,0.2-1.1,0.2c-0.4,0-0.8-0.1-1.1-0.2c-0.3-0.1-0.6-0.3-0.8-0.5c-0.1-0.1-0.2-0.3-0.3-0.6c-0.1-0.2-0.1-0.4-0.1-0.6
				v-2.9c0-0.4,0.1-0.7,0.2-0.9c0.2-0.3,0.4-0.6,0.7-0.7c0.3-0.2,0.8-0.3,1.3-0.3c0.5,0,0.9,0.1,1.3,0.2c0.3,0.1,0.6,0.3,0.8,0.6
				C78.7,48.9,78.8,49.3,78.8,49.7z M76.1,52.9c0,0.1,0,0.2,0.1,0.3c0.1,0.1,0.2,0.1,0.3,0.1c0.1,0,0.2,0,0.3-0.1
				c0.1-0.1,0.1-0.2,0.1-0.3v-3.4c0-0.1,0-0.2-0.1-0.3c-0.1-0.1-0.2-0.1-0.3-0.1c-0.1,0-0.2,0-0.3,0.1c-0.1,0.1-0.1,0.2-0.1,0.4
				V52.9z"/>
		</g>
		<g>
			<path class="st4" d="M45.8,49h-2v-1.2c0-0.2,0-0.4-0.1-0.4c-0.1-0.1-0.2-0.1-0.4-0.1c-0.2,0-0.3,0-0.4,0.1
				c-0.1,0.1-0.1,0.2-0.1,0.4V48c0,0.1,0.1,0.3,0.2,0.4c0.2,0.2,0.7,0.6,1.7,1.4c0.5,0.4,0.8,0.7,1,0.9c0.2,0.2,0.3,0.6,0.3,1.1
				c0,0.6-0.1,1-0.3,1.4c-0.2,0.3-0.5,0.6-0.9,0.8c-0.4,0.2-0.9,0.3-1.5,0.3c-0.4,0-0.8-0.1-1.2-0.2c-0.4-0.1-0.6-0.3-0.8-0.5
				c-0.1-0.1-0.2-0.3-0.3-0.5c-0.1-0.2-0.1-0.4-0.1-0.7V51h2v1.4c0,0.2,0,0.3,0.1,0.4c0.1,0.1,0.2,0.1,0.4,0.1c0.2,0,0.3,0,0.4-0.1
				c0.1-0.1,0.1-0.3,0.1-0.6V52c0-0.1,0-0.2-0.1-0.3c-0.1-0.1-0.3-0.3-0.6-0.6l-1.4-1.2c-0.4-0.4-0.7-0.7-0.8-0.9
				c-0.1-0.2-0.2-0.5-0.2-0.9c0-0.5,0.1-0.9,0.3-1.2c0.2-0.3,0.5-0.5,0.8-0.7c0.4-0.2,0.9-0.3,1.5-0.3c0.8,0,1.4,0.2,1.8,0.5
				c0.4,0.3,0.6,0.7,0.6,1.2V49z"/>
			<path class="st4" d="M50.8,51.1h-2.7v1.4c0,0.2,0,0.4,0.1,0.4c0.1,0.1,0.2,0.1,0.3,0.1c0.1,0,0.2,0,0.3-0.1
				c0.1-0.1,0.1-0.2,0.1-0.3v-1h1.9v0.8c0,0.6-0.2,1.1-0.6,1.4c-0.4,0.3-0.9,0.5-1.7,0.5c-0.5,0-0.9-0.1-1.2-0.2
				c-0.3-0.1-0.5-0.3-0.7-0.5c-0.1-0.2-0.2-0.4-0.3-0.6c0-0.2-0.1-0.4-0.1-0.7v-2.8c0-0.6,0.2-1,0.6-1.4c0.4-0.3,0.9-0.5,1.7-0.5
				c0.6,0,1.1,0.1,1.4,0.3c0.3,0.2,0.6,0.4,0.7,0.7c0.1,0.2,0.2,0.6,0.2,1.2V51.1z M48.1,50.1h0.8v-0.9c0-0.1,0-0.2-0.1-0.3
				c-0.1-0.1-0.2-0.1-0.3-0.1c-0.1,0-0.2,0-0.3,0.1c-0.1,0.1-0.1,0.1-0.1,0.3V50.1z"/>
			<path class="st4" d="M51.2,54.1v-6.3h1.9v0.8c0.1-0.3,0.3-0.5,0.5-0.6c0.3-0.2,0.6-0.3,0.9-0.3c0.5,0,0.8,0.2,1.1,0.5
				c0.1,0.2,0.2,0.6,0.2,1.1v4.8h-1.9v-4.5c0-0.2,0-0.3-0.1-0.4c-0.1-0.1-0.2-0.1-0.3-0.1c-0.1,0-0.2,0-0.3,0.1
				c-0.1,0.1-0.1,0.2-0.1,0.3v4.6H51.2z"/>
			<path class="st4" d="M60.7,50h-1.8v-0.7c0-0.2,0-0.3-0.1-0.4c-0.1-0.1-0.2-0.1-0.3-0.1c-0.1,0-0.2,0-0.3,0.1
				c-0.1,0.1-0.1,0.2-0.1,0.4v3.4c0,0.1,0,0.2,0.1,0.3c0.1,0.1,0.2,0.1,0.3,0.1c0.1,0,0.2,0,0.3-0.1c0.1-0.1,0.1-0.2,0.1-0.4v-0.9
				h1.8v0.8c0,0.6-0.2,1.1-0.6,1.4c-0.4,0.3-1,0.5-1.6,0.5c-0.6,0-1.2-0.1-1.6-0.4c-0.4-0.3-0.6-0.8-0.6-1.4v-2.9
				c0-0.3,0.1-0.6,0.2-0.9c0.2-0.3,0.4-0.6,0.8-0.7c0.3-0.2,0.8-0.3,1.3-0.3c0.4,0,0.8,0.1,1.1,0.2c0.3,0.1,0.6,0.3,0.8,0.5
				c0.2,0.2,0.3,0.3,0.3,0.6c0.1,0.2,0.1,0.5,0.1,0.7V50z"/>
			<path class="st4" d="M61.2,47.3v-1.2h1.9v1.2H61.2z M61.2,54.1v-6.3h1.9v6.3H61.2z"/>
			<rect x="63.5" y="46.2" class="st4" width="1.9" height="7.9"/>
			<rect x="65.9" y="46.2" class="st4" width="1.9" height="7.9"/>
			<path class="st4" d="M68.2,47.3v-1.2h1.9v1.2H68.2z M68.2,54.1v-6.3h1.9v6.3H68.2z"/>
			<path class="st4" d="M70.4,48.9v-1.1H71v-1.2h1.9v1.2h0.8v1.1h-0.8v3.5c0,0.2,0,0.3,0.1,0.4c0.1,0.1,0.2,0.1,0.4,0.1h0.3V54
				c-0.3,0-0.5,0-0.7,0c-0.6,0-0.9,0-1.2-0.1c-0.2-0.1-0.4-0.2-0.5-0.3c-0.1-0.1-0.2-0.3-0.2-0.4c0-0.2-0.1-0.4-0.1-0.8v-3.6H70.4z"
				/>
			<path class="st4" d="M78.5,49.5v3c0,0.2,0,0.4-0.1,0.6c-0.1,0.2-0.2,0.4-0.4,0.6c-0.2,0.2-0.4,0.3-0.7,0.4
				c-0.3,0.1-0.7,0.2-1.1,0.2c-0.4,0-0.8-0.1-1.1-0.2c-0.3-0.1-0.6-0.3-0.8-0.5c-0.1-0.1-0.2-0.3-0.3-0.6C74,52.8,74,52.6,74,52.5
				v-2.9c0-0.4,0.1-0.7,0.2-0.9c0.2-0.3,0.4-0.6,0.7-0.7c0.3-0.2,0.8-0.3,1.3-0.3c0.5,0,1,0.1,1.3,0.2c0.3,0.1,0.6,0.3,0.8,0.6
				C78.4,48.7,78.5,49,78.5,49.5z M75.8,52.6c0,0.1,0,0.3,0.1,0.3c0.1,0.1,0.2,0.1,0.3,0.1c0.1,0,0.2,0,0.3-0.1
				c0.1-0.1,0.1-0.2,0.1-0.3v-3.4c0-0.1,0-0.2-0.1-0.3c-0.1-0.1-0.2-0.1-0.3-0.1c-0.1,0-0.2,0-0.3,0.1c-0.1,0.1-0.1,0.2-0.1,0.4
				V52.6z"/>
		</g>
		<g>
			<rect x="41.4" y="55.5" class="st2" width="36.9" height="1.8"/>
			<rect x="41.1" y="55.3" class="st5" width="36.9" height="1.8"/>
		</g>
		<g>
			<path class="st2" d="M19,50.1c0-5,4-9.1,9-9.1c4.9,0,9,4.1,9,9.1c0,5-4,9.1-9,9.1C23,59.2,19,55.1,19,50.1z"/>
			<path class="st5" d="M18.7,49.9c0-5,4-9.1,9-9.1c4.9,0,9,4.1,9,9.1c0,5-4,9.1-9,9.1C22.7,58.9,18.7,54.9,18.7,49.9z"/>
			<g>
				<defs>
					<path id="SVGID_1_" d="M19.6,49.9c0-4.6,3.6-8.2,8.1-8.2c4.5,0,8.1,3.7,8.1,8.2c0,4.6-3.6,8.2-8.1,8.2
						C23.2,58.1,19.6,54.4,19.6,49.9z"/>
				</defs>
				<defs>
					<path id="SVGID_2_" d="M19.6,49.9c0-4.6,3.6-8.2,8.1-8.2c4.5,0,8.1,3.7,8.1,8.2c0,4.6-3.6,8.2-8.1,8.2
						C23.2,58.1,19.6,54.4,19.6,49.9z"/>
				</defs>
				<use xlink:href="#SVGID_1_"  style="overflow:visible;fill-rule:evenodd;clip-rule:evenodd;fill:#FFC629;"/>
				<clipPath id="SVGID_3_">
					<use xlink:href="#SVGID_1_"  style="overflow:visible;"/>
				</clipPath>
				<clipPath id="SVGID_4_" class="st6">
					<use xlink:href="#SVGID_2_"  style="overflow:visible;"/>
				</clipPath>
				<g class="st7">
					<path class="st5" d="M35.7,50.5L32,49.9c0,0-0.4-0.8-1.3-2c-0.8-1.2-1.1-1.4-1.3-1.6c-0.1-0.2-0.5-1.9-0.6-2.7
						c-0.2-0.9-0.1-1.4-0.8-1.2c-0.7,0.2-1.4,0.5-1.7,1.8c-0.3,1.4,0.2,2,0.3,2.8c0.1,0.8,0.1,1.6,0.1,1.6s-1.3-0.3-2.3-0.2
						c-0.9,0.1-1.7,0.3-2,1.2c-0.1,0.5,0.1,1.4,0.1,1.4s-0.6,0.4-0.3,1.3c0.2,0.8,0.5,0.8,0.5,0.8s-0.2,0.4,0.1,1.2
						c0.2,0.5,0.7,0.6,0.7,0.6s0.1,1.1,1.3,1.5c1.2,0.4,1.7,0,1.7,0s1.1,0.4,2.3,0.3c0.8-0.1,1.7-1.1,2.5-1.2
						c0.4-0.1,0.9,0.1,1.4,0.3c0.5,0.1,0.8,0.2,0.8,0.2s1.2-1.2,1.8-2.5c0.5-1.2,0.7-2.8,0.7-2.8L35.7,50.5z"/>
					<path class="st8" d="M35.7,51.1c0,0-3-0.6-3.4-0.7c-0.4-0.1-0.7-0.1-0.7-0.1s-0.3-0.8-1.2-2c-0.9-1.2-1.2-1.1-1.6-2.3
						c-0.4-1.2-0.5-2-0.6-2.6c-0.1-0.6-0.3-0.7-0.7-0.4c-0.4,0.2-1,1.1-0.9,1.9c0.1,0.9,0.5,1.7,0.5,2.8c0,1.1-0.1,1.4-0.1,1.4
						s-1.5-0.4-2.6-0.3c-1.1,0.1-1.6,0.5-1.6,1.1c0,0.6,0.2,1.2,1.4,1.4c0.6,0.1,1.7-0.3,2.3-0.3c0.6-0.1,0.6-0.5,0.4-0.8
						c-0.2-0.3-0.8-0.5-1.3-0.5c-0.5,0-0.9,0.3-1.1,0.3c-0.2,0.1-0.6-0.1-0.1-0.4c0.4-0.3,1-0.4,1.9-0.2c0.9,0.2,1,0.4,1.2,0.8
						c0.1,0.5,0,0.7,0,0.7s0.7,0.1,0.8,0.8c0.1,0.7-0.3,0.9-0.3,0.9s0.4,0.2,0.5,0.8c0.1,0.2-0.1,0.8-0.1,0.8s0.4,0.4,0.5,0.8
						c0,0.6-0.8,0.9-0.8,0.9s0.8,0.3,1.4-0.1c0.7-0.4,1.3-1,2.1-0.9c0.7,0.2,2.1,0.5,2.1,0.5s1-1.2,1.5-2.4
						C35.8,51.8,35.7,51.1,35.7,51.1z"/>
					<path class="st8" d="M23.1,51.2c0,0,0.6,0.5,1.7,0.4c1.1-0.1,1.7-0.3,2.2-0.4c0.5-0.1,0.8-0.1,0.9,0.4c0.1,0.5-0.2,0.8-0.7,0.9
						c-0.4,0.1-1.7,0.5-2.3,0.4c-0.6-0.1-1.5-0.1-1.8-0.4c-0.3-0.3-0.4-0.5-0.2-0.9C23,51.2,23.1,51.2,23.1,51.2z"/>
					<path class="st8" d="M23.5,53.2c0,0,0.8,0.4,1.8,0.3c0.9-0.1,1.6-0.4,2-0.6c0.5-0.1,0.8,0,0.9,0.4c0.1,0.4-0.1,0.7-0.7,0.9
						c-0.5,0.1-1.4,0.4-2.4,0.3c-1-0.1-1.6-0.2-1.7-0.6C23.3,53.5,23.5,53.2,23.5,53.2z"/>
					<path class="st8" d="M24.3,54.8c0,0,0.3,0.7,0.7,0.8c0.5,0.2,0.8,0.2,1.8,0.1c1-0.1,1.5-0.4,1.6-0.6c0.1-0.2,0-0.4-0.1-0.6
						c-0.1-0.1-0.2-0.2-0.6-0.1c-0.4,0.1-1.2,0.5-2,0.5C24.9,54.9,24.3,54.8,24.3,54.8z"/>
				</g>
			</g>
		</g>
	</g>
</g>
</svg>
