<?xml version="1.0" encoding="utf-8"?>
<!-- Generator: Adobe Illustrator 23.0.3, SVG Export Plug-In . SVG Version: 6.00 Build 0)  -->
<svg version="1.1" id="Layer_1" xmlns="http://www.w3.org/2000/svg" xmlns:xlink="http://www.w3.org/1999/xlink" x="0px" y="0px"
	 viewBox="0 0 100 100" style="enable-background:new 0 0 100 100;" xml:space="preserve">
<style type="text/css">
	.st0{fill-rule:evenodd;clip-rule:evenodd;fill:#E42A26;}
	.st1{fill-rule:evenodd;clip-rule:evenodd;fill:#57AA46;}
	.st2{fill-rule:evenodd;clip-rule:evenodd;fill:#FDD800;}
	.st3{fill-rule:evenodd;clip-rule:evenodd;fill:#0574BC;}
</style>
<g>
	<path class="st0" d="M68.9,32.38C80.55,32.7,90,42.25,90,53.72c0,8.4-5.14,15.83-13.03,18.84c-7.88,3-16.96,0.98-22.99-5.12
		c-6.04-6.1-7.84-15.08-4.58-22.76C52.67,37.01,60.36,32.15,68.9,32.38L68.9,32.38z M68.9,32.38"/>
	<path class="st1" d="M42.19,11.49c4.09,0,7.82,1.41,10.35,3.91c2.54,2.5,3.67,5.9,3.16,9.44c-0.78,5.4-5.24,10.27-11.3,12.34
		c-6.07,2.07-12.54,0.93-16.41-2.9c-3.87-3.82-4.36-9.56-1.26-14.55C29.85,14.74,35.94,11.49,42.19,11.49L42.19,11.49z M42.19,11.49
		"/>
	<path class="st2" d="M42.4,88.51c3.66,0,6.8-1.39,8.71-3.86c1.92-2.47,2.46-5.83,1.5-9.32c-1.45-5.33-6.12-10.14-11.84-12.18
		C35.07,61.1,29.44,62.23,26.52,66c-2.92,3.77-2.56,9.44,0.92,14.37C30.91,85.3,36.82,88.51,42.4,88.51L42.4,88.51z M42.4,88.51"/>
	<path class="st3" d="M19.15,35.95c5.05,0.19,9.15,5.88,9.15,12.71c0,5.01-2.23,9.44-5.65,11.22c-3.42,1.79-7.35,0.59-9.97-3.05
		c-2.62-3.64-3.4-8.99-1.98-13.56C12.11,38.7,15.45,35.81,19.15,35.95L19.15,35.95z M19.15,35.95"/>
</g>
</svg>
