<?xml version="1.0" encoding="utf-8"?>
<!-- Generator: Adobe Illustrator 22.1.0, SVG Export Plug-In . SVG Version: 6.00 Build 0)  -->
<svg version="1.1" id="Layer_1" xmlns="http://www.w3.org/2000/svg" xmlns:xlink="http://www.w3.org/1999/xlink" x="0px" y="0px"
	 viewBox="0 0 100 100" style="enable-background:new 0 0 100 100;" xml:space="preserve">
<style type="text/css">
	.st0{fill:#8CC541;}
	.st1{fill:#08974A;}
	.st2{fill:url(#SVGID_1_);}
	.st3{fill:url(#SVGID_2_);}
	.st4{fill:#EB2227;}
	.st5{fill:#FFFFFF;}
</style>
<g>
	<g>
		<g>
			<g>
				<path d="M30.9,43.3c0,1.9,1.4,2.2,2.8,2.5l1,0.2c0.9,0.2,1.6,0.4,1.6,1.1c0,0.9-1,1.1-1.9,1.1c-1.6,0-1.9-0.9-1.9-1.4h-1.8
					c0,1.1,0.6,2.9,3.8,2.9c0.8,0,3.5-0.2,3.5-2.8c0-1.5-1.1-2-2.3-2.3l-2.2-0.5c-0.4-0.1-0.9-0.2-0.9-0.9c0-0.8,0.8-1,1.5-1
					c1.6,0,1.8,0.9,1.8,1.3h1.8c0-1.1-0.7-2.8-3.5-2.8C31.4,40.7,30.9,42.4,30.9,43.3z"/>
				<path d="M41.8,49.7c2.2,0,3.6-1,3.6-3.2v-5.6h-1.9v5.7c0,1-0.5,1.6-1.8,1.6c-0.9,0-1.6-0.5-1.6-1.7v-5.6h-1.9v5.7
					c0,0.9,0.2,1.6,0.7,2.1C39.8,49.5,41,49.7,41.8,49.7z"/>
				<path d="M48.1,46.4h2.1c2.4,0,2.8-2,2.8-2.7c0-1.7-1-2.8-2.8-2.8h-4.1v8.6h1.9V46.4z M48.1,42.4h1.5c1.1,0,1.6,0.3,1.6,1.2
					c0,0.4,0,1.3-1.4,1.3h-1.7V42.4z"/>
				<polygon points="60.4,48 55.4,48 55.4,45.8 59.8,45.8 59.8,44.2 55.4,44.2 55.4,42.4 60.1,42.4 60.1,40.9 53.6,40.9 53.6,49.5 
					60.4,49.5 				"/>
				<path d="M62.8,46.1h1.9c1.4,0,1.4,0.5,1.4,1.6c0,0.9,0.1,1.3,0.2,1.7h2v-0.2C68,49.1,68,48.8,68,47.6c0-1.6-0.4-1.9-1.1-2.2
					c0.9-0.3,1.4-1.1,1.4-2.1c0-0.7-0.4-2.4-2.8-2.4h-4.5v8.6h1.8V46.1z M62.8,42.4h2.3c1.1,0,1.3,0.7,1.3,1.1
					c0,0.9-0.5,1.2-1.4,1.2h-2.2V42.4z"/>
				<path d="M38.1,56.5c0-1.5-1.1-2-2.3-2.3l-2.2-0.5c-0.4-0.1-0.9-0.2-0.9-0.9c0-0.8,0.8-1,1.5-1c1.6,0,1.8,0.9,1.8,1.3h1.8
					c0-1.1-0.7-2.8-3.5-2.8c-2.9,0-3.4,1.7-3.4,2.7c0,1.9,1.4,2.2,2.8,2.5l1,0.2c0.9,0.2,1.6,0.4,1.6,1.1c0,0.9-1,1.1-1.9,1.1
					c-1.6,0-1.9-0.9-1.9-1.4h-1.8c0,1.1,0.6,2.9,3.8,2.9C35.3,59.3,38.1,59.1,38.1,56.5z"/>
				<polygon points="45.3,52 45.3,50.5 38.7,50.5 38.7,59.1 45.5,59.1 45.5,57.6 40.6,57.6 40.6,55.3 44.9,55.3 44.9,53.8 
					40.6,53.8 40.6,52 				"/>
				<polygon points="52.3,57.5 47.9,57.5 47.9,50.5 46.1,50.5 46.1,59.1 52.3,59.1 				"/>
				<polygon points="54.6,55.3 58.9,55.3 58.9,53.8 54.6,53.8 54.6,52 59.3,52 59.3,50.5 52.8,50.5 52.8,59.1 59.5,59.1 59.5,57.6 
					54.6,57.6 				"/>
				<path d="M63.6,59.3c2.2,0,3.5-1.3,3.9-3.2h-1.9c-0.2,1.1-0.9,1.6-2,1.6c-1.6,0-2.2-1.4-2.2-2.9c0-2.4,1.3-3,2.2-3
					c1.5,0,1.8,1,2,1.5h1.9c-0.1-1.3-1.2-3-3.8-3c-2.3,0-4.1,1.5-4.1,4.5C59.5,57.8,61.2,59.3,63.6,59.3z"/>
				<polygon points="71.9,59.1 71.9,52 74.6,52 74.6,50.5 67.4,50.5 67.4,52 70.1,52 70.1,59.1 				"/>
				<path d="M78.3,59.3c1.2,0,4.3-0.5,4.3-4.5c0-4-3.1-4.5-4.3-4.5c-1.2,0-4.3,0.5-4.3,4.5C74.1,58.8,77.2,59.3,78.3,59.3z
					 M78.3,51.8c1,0,2.4,0.6,2.4,3c0,2.4-1.4,3-2.4,3c-1,0-2.4-0.6-2.4-3C75.9,52.4,77.3,51.8,78.3,51.8z"/>
				<path d="M87.7,54.2l-2.2-0.5c-0.4-0.1-0.9-0.2-0.9-0.9c0-0.8,0.8-1,1.5-1c1.6,0,1.8,0.9,1.8,1.3h1.8c0-1.1-0.7-2.8-3.5-2.8
					c-2.9,0-3.4,1.7-3.4,2.6c0,1.9,1.4,2.2,2.8,2.5l1,0.2c0.9,0.2,1.6,0.4,1.6,1.1c0,0.9-1,1.1-1.9,1.1c-1.6,0-1.9-0.9-1.9-1.4h-1.8
					c0,1.1,0.6,2.9,3.8,2.9c0.8,0,3.5-0.2,3.5-2.8C90,54.9,88.9,54.5,87.7,54.2z"/>
			</g>
		</g>
		<g>
			<path class="st0" d="M15.3,47.2c1.4-2.1,3.4-4.9,6.9-6.5H10v10.1C12.6,50.9,13.4,50,15.3,47.2z"/>
			<path class="st1" d="M23.2,52.7c-1.5,2.1-3.4,4.9-6.9,6.5h12.2V49.1C25.9,49.1,25.1,50,23.2,52.7z"/>
			<path class="st1" d="M22.4,52.2c-1.8,2.6-4.2,6-9.2,7.1h3.1c3.5-1.6,5.5-4.4,6.9-6.5c1.9-2.8,2.7-3.6,5.3-3.6v-1
				C25.4,48.1,24.4,49.4,22.4,52.2z"/>
			<linearGradient id="SVGID_1_" gradientUnits="userSpaceOnUse" x1="9.0247" y1="53.6815" x2="29.4408" y2="53.6815">
				<stop  offset="0.4" style="stop-color:#8CC541"/>
				<stop  offset="0.85" style="stop-color:#08974A"/>
			</linearGradient>
			<path class="st2" d="M22.4,52.2c-1.8,2.6-4.2,6-9.2,7.1h3.1c3.5-1.6,5.5-4.4,6.9-6.5c1.9-2.8,2.7-3.6,5.3-3.6v-1
				C25.4,48.1,24.4,49.4,22.4,52.2z"/>
			<linearGradient id="SVGID_2_" gradientUnits="userSpaceOnUse" x1="9.0263" y1="46.3186" x2="29.4432" y2="46.3186">
				<stop  offset="0.15" style="stop-color:#8CC541"/>
				<stop  offset="0.6" style="stop-color:#08974A"/>
			</linearGradient>
			<path class="st3" d="M15.3,47.2c-1.9,2.8-2.7,3.7-5.3,3.7v1c3.1,0,4.1-1.3,6.1-4.1c1.8-2.6,4.2-6,9.1-7h-3
				C18.7,42.4,16.8,45.2,15.3,47.2z"/>
			<path class="st4" d="M24,45.2c-2.1,1.1-3.4,2.9-4.7,4.7c-1.3,1.9-2.6,3.8-4.9,4.9c-1.2,0.6-2.6,0.9-4.4,0.9v3.5h3.2
				c5-1,7.4-4.4,9.2-7.1c2-2.8,3-4.1,6.1-4.1v-3.8C26.6,44.3,25.2,44.6,24,45.2z"/>
			<path class="st5" d="M25.3,40.8c-5,1-7.3,4.4-9.1,7c-2,2.8-3,4.1-6.1,4.1v3.8c1.8,0,3.3-0.3,4.4-0.9c2.2-1.1,3.6-3,4.9-4.9
				c1.3-1.8,2.6-3.6,4.7-4.7c1.2-0.6,2.6-0.9,4.5-0.9v-3.5H25.3z"/>
		</g>
	</g>
</g>
</svg>
