<?xml version="1.0" encoding="utf-8"?>
<!-- Generator: Adobe Illustrator 16.0.0, SVG Export Plug-In . SVG Version: 6.00 Build 0)  -->
<!DOCTYPE svg PUBLIC "-//W3C//DTD SVG 1.1//EN" "http://www.w3.org/Graphics/SVG/1.1/DTD/svg11.dtd">
<svg version="1.1" id="Layer_1" xmlns="http://www.w3.org/2000/svg" xmlns:xlink="http://www.w3.org/1999/xlink" x="0px" y="0px"
	 width="16px" height="16px" viewBox="0 0 16 16" style="enable-background:new 0 0 16 16;" xml:space="preserve">
<g id="camera">
	<path style="fill:#0059B2;" d="M8,5C5.791,5,4,6.791,4,9s1.791,4,4,4c2.209,0,4-1.791,4-4C12,6.792,10.209,5,8,5z M10.277,10.953
		c-1.078,1.258-2.971,1.403-4.229,0.324C4.79,10.2,4.645,8.306,5.724,7.048C6.801,5.79,8.695,5.645,9.953,6.724
		C11.21,7.801,11.355,9.695,10.277,10.953z"/>
	<path style="fill:#333333;" d="M8,7C6.896,7,6,7.896,6,9v0.001c0,0.138,0.112,0.25,0.25,0.25S6.5,9.139,6.5,9.001V9
		c0-0.828,0.671-1.5,1.5-1.5c0.138,0,0.25-0.112,0.25-0.25S8.138,7,8,7z"/>
	<path style="fill:#0059B2;" d="M14.746,4.521L12.579,4.16l-0.687-1.717C11.663,1.87,11.116,1.5,10.5,1.5h-5
		c-0.616,0-1.163,0.37-1.393,0.943L3.421,4.16L1.254,4.521C0.527,4.642,0,5.264,0,6v7.5C0,14.327,0.673,15,1.5,15h13
		c0.827,0,1.5-0.673,1.5-1.5V6C16,5.264,15.473,4.642,14.746,4.521z M15,13.5c0,0.276-0.224,0.5-0.5,0.5h-13
		C1.224,14,1,13.776,1,13.5V6c0-0.245,0.177-0.453,0.418-0.493L4.14,5.054l0.896-2.239C5.112,2.625,5.295,2.5,5.5,2.5h5
		c0.204,0,0.388,0.125,0.464,0.314l0.896,2.239l2.723,0.453C14.823,5.547,15,5.755,15,6V13.5z"/>
</g>
</svg>
