<?xml version="1.0" encoding="utf-8"?>
<!-- Generator: Adobe Illustrator 16.0.0, SVG Export Plug-In . SVG Version: 6.00 Build 0)  -->
<!DOCTYPE svg PUBLIC "-//W3C//DTD SVG 1.1//EN" "http://www.w3.org/Graphics/SVG/1.1/DTD/svg11.dtd">
<svg version="1.1" id="Layer_1" xmlns="http://www.w3.org/2000/svg" xmlns:xlink="http://www.w3.org/1999/xlink" x="0px" y="0px"
	 width="16px" height="16px" viewBox="0 0 32 32" enable-background="new 0 0 32 32" xml:space="preserve">
  <defs>
    <style type="text/css"><![CDATA[
      camera-style {
        fill="#0059B2" 
        stroke: blue;
        stroke-width: 2
      }
    ]]></style>
  </defs>  
  <g id="camera">
	<path class="camera-style" d="M16,10.001c-4.419,0-8,3.581-8,8c0,4.418,3.581,8,8,8c4.418,0,8-3.582,8-8S20.418,10.001,16,10.001z
		 M20.555,21.906c-2.156,2.516-5.943,2.807-8.458,0.65c-2.517-2.156-2.807-5.945-0.65-8.459c2.155-2.517,5.943-2.807,8.458-0.65
		C22.42,15.602,22.711,19.391,20.555,21.906z"/>
	<path fill="#333333" d="M16,14.001c-2.209,0-3.999,1.791-4,3.999v0.002c0,0.275,0.224,0.5,0.5,0.5s0.5-0.225,0.5-0.5V18
		c0.001-1.656,1.343-2.999,3-2.999c0.276,0,0.5-0.224,0.5-0.5S16.276,14.001,16,14.001z"/>
	<path fill="#0059B2" d="M29.492,9.042l-4.334-0.723l-1.373-3.434C23.326,3.74,22.232,3,21,3H11C9.768,3,8.674,3.74,8.214,4.886
		L6.842,8.319L2.509,9.042C1.055,9.283,0,10.527,0,12v15c0,1.654,1.346,3,3,3h26c1.654,0,3-1.346,3-3V12
		C32,10.527,30.945,9.283,29.492,9.042z M30,27c0,0.553-0.447,1-1,1H3c-0.553,0-1-0.447-1-1V12c0-0.489,0.354-0.906,0.836-0.986
		l5.444-0.907l1.791-4.478C10.224,5.25,10.591,5,11,5h10c0.408,0,0.775,0.249,0.928,0.629l1.791,4.478l5.445,0.907
		C29.646,11.094,30,11.511,30,12V27z"/>
</g>
</svg>
