<?xml version="1.0" encoding="utf-8"?>
<svg version="1.1" xmlns="http://www.w3.org/2000/svg" xmlns:xlink="http://www.w3.org/1999/xlink" x="0px" y="0px" viewBox="0 0 30 30" style="enable-background:new 0 0 30 30;" xml:space="preserve">
<style type="text/css">
	.st1{fill:#fff; stroke:#000; stroke-width:0.09; }
    .st2{ fill: #000}
	.st3{fill:#fff;}
    .st4{ fill: #000}
    .st5{}
</style>
	<g>
		<path class="st1" d="M25,15c0-5.5-4.5-10-10-10S5,9.5,5,15c0,5.5,4.5,10,10,10S25,20.5,25,15L25,15z"/>
		<path class="st2" d="M24.8,15c0-5.4-4.4-9.8-9.8-9.8c-5.4,0-9.8,4.4-9.8,9.8c0,5.4,4.4,9.8,9.8,9.8C20.4,24.8,24.8,20.4,24.8,15 L24.8,15z"/>
		<path class="st3" d="M20.9,15c0-3.2-2.6-5.9-5.9-5.9c-3.2,0-5.9,2.6-5.9,5.9c0,3.2,2.6,5.9,5.9,5.9C18.2,20.9,20.9,18.2,20.9,15 L20.9,15z"/>
		<path class="st4" d="M15,9.8c-2.9,0.1-5.2,2.4-5.2,5.2H15V9.8L15,9.8z"/>
		<path class="st5" d="M15,20.2c2.9-0.1,5.2-2.4,5.2-5.2H15V20.2L15,20.2z"/>
	</g>
</svg>
