<!-- Generated by IcoMoon.io -->
<svg version="1.1" xmlns="http://www.w3.org/2000/svg" width="1024" height="1024" viewBox="0 0 1024 1024">
<title></title>
<g id="icomoon-ignore">
</g>
<path fill="#fff" d="M265.115 492.659v-12.515l-5.689 12.515h-54.61l-6.827-13.653v13.653h-101.257l-11.378-28.443h-20.479l-12.515 28.443h-52.335v-85.329l38.683-86.467h72.814l10.24 25.030v-23.892h89.88l19.341 40.958 19.341-42.096h283.293c0 0 14.791 0 25.030 6.827v-6.827h71.677v9.102c0 0 12.515-9.102 31.856-9.102s126.287 0 126.287 0l11.378 25.030v-25.030h80.778l14.791 25.030v-25.030h77.366v171.795h-79.64l-18.203-29.581v29.581h-98.982l-13.653-30.718h-19.341l-12.515 30.718h-59.161c0 0-22.754 0-38.683-12.515 0 5.689 0 12.515 0 12.515h-120.598c0 0 0-34.132 0-39.821s-4.551-5.689-4.551-5.689h-4.551v45.509h-237.783z"></path>
<path fill="#fff" d="M205.953 530.203h155.868l22.754 25.030 22.754-25.030h119.461c0 0 11.378 0 21.616 5.689v-5.689c0 0 93.293 0 106.946 0s25.030 6.827 25.030 6.827v-6.827h137.665v5.689c0 0 10.24-5.689 22.754-5.689 13.653 0 89.88 0 89.88 0v5.689c0 0 11.378-5.689 22.754-5.689s70.539 0 70.539 0v161.557c0 0-9.102 10.24-28.443 10.24h-92.155v-5.689c0 0-9.102 5.689-22.754 5.689s-245.748 0-245.748 0 0-37.545 0-42.096c0-4.551-2.276-4.551-5.689-4.551h-3.413v46.647h-77.366v-46.647c0 0-9.102 4.551-22.754 4.551-14.791 0-27.305 0-27.305 0v42.096h-94.431l-21.616-26.167-22.754 26.167h-153.592v-171.795z"></path>
<path fill="#0078a9" d="M697.448 556.372h97.844v26.167h-68.263v22.754h65.988v22.754h-65.988v23.892h68.263v26.167h-97.844z"></path>
<path fill="#0078a9" d="M984.154 604.155c36.407 2.276 39.821 20.479 39.821 39.821 0 22.754-19.341 35.269-38.683 35.269h-62.575v-26.167h48.922c7.964 0 20.479 0 20.479-11.378 0-5.689-2.276-9.102-11.378-10.24-3.413 0-18.203-1.138-20.479-1.138-32.994-1.138-40.958-17.065-40.958-37.545 0-22.754 15.929-35.269 35.269-35.269h62.575v26.167h-45.509c-10.24 0-21.616-1.138-21.616 10.24 0 7.964 5.689 9.102 12.515 10.24 3.413-1.138 19.341 0 21.616 0z"></path>
<path fill="#0078a9" d="M871.519 604.155c36.407 2.276 39.821 20.479 39.821 39.821 0 22.754-19.341 35.269-38.683 35.269h-62.575v-26.167h48.922c7.964 0 20.479 0 20.479-11.378 0-5.689-2.276-9.102-11.378-10.24-3.413 0-18.203-1.138-20.479-1.138-32.994-1.138-40.958-17.065-40.958-37.545 0-22.754 15.929-35.269 35.269-35.269h62.575v26.167h-45.509c-10.24 0-21.616-1.138-21.616 10.24 0 7.964 5.689 9.102 12.515 10.24 3.413-1.138 19.341 0 21.616 0z"></path>
<path fill="#0078a9" d="M516.551 556.372h-104.671l-34.132 37.545-32.994-37.545h-119.461v121.736h113.772l36.407-39.821 35.269 40.958h56.886v-42.096h39.821c15.929 0 44.372 0 44.372-43.234 1.138-30.718-20.479-37.545-35.269-37.545zM324.276 651.94h-69.401v-23.892h65.988v-22.754h-65.988v-22.754h72.814l29.581 32.994-32.994 36.407zM439.186 666.73l-43.234-51.197 43.234-47.784v98.982zM506.311 612.12h-37.545v-29.581h37.545c12.515 0 15.929 7.964 15.929 13.653 1.138 9.102-3.413 15.929-15.929 15.929z"></path>
<path fill="#0078a9" d="M661.041 622.358c15.929-7.964 20.479-19.341 20.479-34.132 0-26.167-21.616-32.994-36.407-32.994h-77.366v121.736h29.581v-43.234h39.821c10.24 0 14.791 10.24 14.791 20.479l1.138 22.754h29.581l-1.138-25.030c-1.138-18.203-6.827-27.305-20.479-29.581zM634.874 609.844h-37.545v-27.305h37.545c12.515 0 15.929 7.964 15.929 13.653 1.138 9.102-3.413 13.653-15.929 13.653z"></path>
<path fill="#0078a9" d="M580.263 345.892h29.581v121.736h-29.581v-121.736z"></path>
<path fill="#0078a9" d="M334.516 345.892h97.844v26.167h-67.126v22.754h65.988v22.754h-65.988v25.030h67.126v25.030h-97.844z"></path>
<path fill="#0078a9" d="M543.856 411.88c15.929-7.964 20.479-19.341 20.479-34.132 0-26.167-21.616-32.994-36.407-32.994h-77.366v121.736h29.581v-43.234h38.683c10.24 0 14.791 10.24 14.791 20.479l1.138 22.754h29.581l-1.138-25.030c0-18.203-5.689-27.305-19.341-29.581zM517.689 399.366h-37.545v-27.305h37.545c12.515 0 15.929 7.964 15.929 13.653 1.138 7.964-3.413 13.653-15.929 13.653z"></path>
<path fill="#0078a9" d="M266.252 345.892l-36.407 81.916-36.407-81.916h-46.647v117.185l-52.335-117.185h-40.958l-53.473 121.736h31.856l11.378-27.305h60.299l11.378 27.305h60.299v-91.018l39.821 91.018h27.305l40.958-88.742v88.742h29.581v-121.736h-46.647zM54.637 414.156l18.203-42.096 18.203 42.096h-36.407z"></path>
<path fill="#0078a9" d="M919.304 345.892v84.191l-50.059-84.191h-44.372v114.909l-51.197-114.909h-39.821l-40.958 94.431c0 0-17.065 0-19.341 0-6.827-1.138-18.203-6.827-18.203-28.443v-9.102c0-28.443 15.929-30.718 35.269-30.718h18.203v-26.167h-38.683c-13.653 0-43.234 10.24-44.372 60.299-1.138 34.132 13.653 61.437 46.647 61.437h39.821l11.378-27.305h60.299l11.378 27.305h59.161v-88.742l53.473 88.742h40.958v-121.736h-29.581zM734.993 414.156l18.203-42.096 19.341 42.096h-37.545z"></path>
</svg>
