<svg xmlns="http://www.w3.org/2000/svg" viewBox="0 0 236.39 151.01"><defs><style>.cls-1{fill:none;}.cls-2{fill:#de4347;}.cls-3{fill:#ed1c24;}.cls-4{fill:#2a557c;}.cls-5{fill:#0072bc;}.cls-6{fill:#009da5;}.cls-7{fill:#fff;}</style></defs><title>Asset 1</title><g id="Layer_2" data-name="Layer 2"><g id="Layer_1-2" data-name="Layer 1"><path class="cls-1" d="M101.84,0H48.1l53.42,0Z"/><path class="cls-1" d="M0,140.86V151H11.37C5,150.92.54,146.68,0,140.86Z"/><path class="cls-2" d="M166.5,0H143.22l23.14,0Z"/><path class="cls-3" d="M54.06,136.42,81.6,14.6C83.41,6.64,93.5.18,101.52,0L48.1,0C40,0,29.7,6.53,27.85,14.6L.32,136.42A15.51,15.51,0,0,0,0,138.6v2.26c.54,5.82,5,10.06,11.37,10.15H65.12C57.18,150.89,52.24,144.4,54.06,136.42Z"/><path class="cls-4" d="M143.22,0,101.84,0l-.32,0Z"/><path class="cls-5" d="M119.06,136.42,146.59,14.6C148.41,6.7,158.37.28,166.36,0L143.22,0h-41.7C93.5.18,83.41,6.64,81.6,14.6L54.06,136.42c-1.82,8,3.12,14.47,11.06,14.59h65C122.19,150.89,117.25,144.4,119.06,136.42Z"/><path class="cls-6" d="M224.72,0H166.36c-8,.24-18,6.66-19.77,14.56L119.06,136.42c-1.81,8,3.13,14.47,11.06,14.59h61.16c7.82-.38,15.41-6.72,17.2-14.54L236,14.66C237.85,6.59,232.8,0,224.72,0Z"/><path class="cls-7" d="M102.65,88.77h1a1.82,1.82,0,0,0,1.84-.93l2.63-3.93h7L113.7,86.5h8.43l-1.07,4H111a4.69,4.69,0,0,1-4.29,2.46h-5.23l1.14-4.15m-1.16,5.68H120l-1.18,4.31h-7.43l-1.13,4.15h7.23l-1.18,4.3h-7.23l-1.68,6.14c-.42,1,.13,1.49,1.63,1.38h5.89l-1.09,4H102.49c-2.15,0-2.88-1.22-2.21-3.68l2.15-7.84H97.8l1.18-4.3h4.62l1.13-4.15h-4.41ZM131,83.88l-.29,2.52s3.48-2.61,6.65-2.61h11.7L144.57,100q-.56,2.77-4.77,2.77H126.54l-3.11,11.38c-.17.6.08.92.75.92h2.61l-1,3.53h-6.64q-3.81,0-3.18-2.31l8.78-32.39Zm9.9,4.58H130.45l-1.25,4.37a8.75,8.75,0,0,1,4.65-1.3c2.9,0,6.2,0,6.2,0ZM137.11,98.6c.77.1,1.2-.2,1.26-.92l.64-2.31H128.55l-.88,3.23Zm-7.05,5.23h6l-.11,2.61h1.61c.81,0,1.21-.26,1.21-.77l.48-1.69h5l-.67,2.46c-.57,2-2.07,3.12-4.51,3.23h-3.21v4.46c-.06.71.58,1.07,1.91,1.07h3l-1,3.53H132.6q-3,.15-3-2.92Z"/><path class="cls-7" d="M155.68,89,157.07,84h7.07l-.3,1.81S167.45,84,170.05,84h8.74L177.4,89H176l-6.6,23.21h1.38l-1.31,4.6h-1.37l-.58,2h-6.84l.57-2h-13.5l1.31-4.6h1.35L157,89h-1.36m7.62,0-1.8,6.28a29.26,29.26,0,0,1,5.73-1.51c.59-2.2,1.36-4.77,1.36-4.77Zm-2.63,9.23-1.8,6.57a19.61,19.61,0,0,1,5.75-1.82c.67-2.54,1.35-4.75,1.35-4.75Zm1.32,14,1.36-4.78h-5.28l-1.36,4.78Zm17.1-28.43h6.64l.29,2.45c-.05.62.32.92,1.11.92h1.17l-1.18,4.16h-4.89c-1.86.09-2.82-.62-2.91-2.16Zm-2,8.91h21.53L197.4,97.1h-6.85l-1.18,4.14h6.85L195,105.7h-7.63l-1.72,2.61h3.73l.86,5.22c.11.52.57.77,1.36.77h1.16l-1.22,4.31h-4.11c-2.12.1-3.22-.61-3.31-2.15l-1-4.77-3.4,5.07a3.65,3.65,0,0,1-3.7,2h-6.26l1.22-4.3h1.95a2.62,2.62,0,0,0,2.07-1.08l5.32-7.68h-6.85l1.27-4.46h7.43l1.18-4.14h-7.44Z"/><path class="cls-7" d="M57,62.31a14.73,14.73,0,0,1-5.65,9.26Q47,74.8,40.09,74.8q-6.5,0-9.53-3.31a8.59,8.59,0,0,1-2.1-6,15.72,15.72,0,0,1,.35-3.21l4.9-23.64h7.41L36.28,62a7.37,7.37,0,0,0-.2,1.79A4.54,4.54,0,0,0,37,66.77a5.06,5.06,0,0,0,4.28,1.71,9,9,0,0,0,5.62-1.68A7.78,7.78,0,0,0,49.7,62l4.85-23.37h7.37L57,62.31"/><path class="cls-7" d="M63.83,53h5.23l-.6,3,.75-.87a8.15,8.15,0,0,1,6.19-2.71c2.19,0,3.78.63,4.78,1.92s1.25,3.06.78,5.34L78.08,74.11H72.71l2.6-13a4.17,4.17,0,0,0-.22-3,2.55,2.55,0,0,0-2.32-1,5,5,0,0,0-3.49,1.28A6.43,6.43,0,0,0,67.39,62L65,74.11H59.61L63.83,53"/><path class="cls-7" d="M123.79,53H129l-.59,3,.74-.87a8.17,8.17,0,0,1,6.19-2.71c2.2,0,3.79.63,4.77,1.92s1.26,3.06.79,5.34l-2.87,14.38h-5.38l2.6-13a4.17,4.17,0,0,0-.22-3,2.56,2.56,0,0,0-2.31-1,5.09,5.09,0,0,0-3.5,1.28A6.36,6.36,0,0,0,127.36,62L125,74.11h-5.38L123.79,53"/><path class="cls-7" d="M88.1,53h5.8L89.36,74.1H83.57L88.1,53m1.83-7.69h5.84l-1.09,5.12H88.83Z"/><path class="cls-7" d="M99,72.5a7.79,7.79,0,0,1-2.29-5.89c0-.42,0-.91.08-1.43s.13-1.06.23-1.54a14.31,14.31,0,0,1,4.41-8.16,11.82,11.82,0,0,1,8.15-3,8.57,8.57,0,0,1,6.18,2.18,7.91,7.91,0,0,1,2.27,6,13.25,13.25,0,0,1-.09,1.46c-.07.54-.15,1.06-.24,1.58a13.88,13.88,0,0,1-4.39,8,11.83,11.83,0,0,1-8.12,3A8.63,8.63,0,0,1,99,72.5m11-4.18a10.37,10.37,0,0,0,2.2-5c.07-.34.12-.71.16-1.07a8.92,8.92,0,0,0,0-1,4.28,4.28,0,0,0-1-3,3.63,3.63,0,0,0-2.82-1.08,5.09,5.09,0,0,0-3.94,1.69,10.65,10.65,0,0,0-2.22,5.12c-.07.35-.12.7-.17,1a8.28,8.28,0,0,0,0,1,4.2,4.2,0,0,0,1,3,3.7,3.7,0,0,0,2.83,1,5.11,5.11,0,0,0,3.94-1.67"/><path class="cls-7" d="M149.66,39.92h15.19c2.92,0,5.18.66,6.73,2a7,7,0,0,1,2.32,5.67v.07c0,.47,0,1-.07,1.57s-.17,1.14-.3,1.73a13.37,13.37,0,0,1-4.62,7.86,13.12,13.12,0,0,1-8.55,3h-8.15l-2.52,12.36h-7.05l7-34.19m3.79,15.88h6.76a6.56,6.56,0,0,0,4.18-1.22,6.33,6.33,0,0,0,2.05-3.76c.06-.31.1-.59.14-.85s0-.49,0-.73a2.9,2.9,0,0,0-1.29-2.64,7.71,7.71,0,0,0-4.09-.82h-5.74Z"/><path class="cls-7" d="M205.47,78.19a33.13,33.13,0,0,1-5.6,8.79,11.35,11.35,0,0,1-9.68,4l.51-3.62c5-1.55,7.73-8.51,9.27-11.6l-1.84-22.71L202,53h3.26l.35,14.25L211.72,53h6.17L205.47,78.19"/><path class="cls-7" d="M188.2,54.73l-2.45,1.68c-2.57-2-4.91-3.25-9.43-1.15C170.17,58.11,165,80,182,72.79l1,1.15,6.67.17L194,54.22l-5.78.51M184.41,65.6c-1.07,3.16-3.46,5.25-5.34,4.65s-2.54-3.63-1.45-6.79,3.48-5.25,5.33-4.65,2.55,3.62,1.46,6.79"/></g></g></svg>