<!-- Generated by IcoMoon.io -->
<svg version="1.1" xmlns="http://www.w3.org/2000/svg" width="1024" height="1024" viewBox="0 0 1024 1024">
<title></title>
<g id="icomoon-ignore">
</g>
<path fill="#0067b4" d="M996.963 799.427c8.878-12.207 14.426-26.634 14.426-42.171v-490.512c0-38.841-34.403-72.134-72.134-72.134h-846.744c-19.976 0-38.841 7.768-52.158 19.976l956.61 584.842z"></path>
<path fill="#faa61a" d="M17.049 514.219h507.159v310.731l-507.159-310.731z"></path>
<path fill="#ed1c24" d="M12.609 671.805h254.134v157.585l-254.134-157.585z"></path>
<path fill="#fff" d="M423.22 377.719h51.048c37.732 0 58.817-21.086 58.817-59.927s-21.086-59.927-58.817-59.927h-51.048v119.853zM453.183 283.39h16.646c21.086 0 34.403 8.878 34.403 34.403 0 21.086-12.207 29.964-34.403 29.964h-16.646v-64.366z"></path>
<path fill="#fff" d="M558.61 377.719h97.659v-29.964h-67.695v-21.086h58.817v-25.525h-58.817v-17.756h63.256v-25.525h-93.22v119.853z"></path>
<path fill="#fff" d="M681.793 377.719h84.341v-29.964h-55.488v-89.89h-28.854v119.853z"></path>
<path fill="#fff" d="M863.793 257.866h-102.098v25.525h34.403v94.33h33.293v-94.33h34.403v-25.525z"></path>
<path fill="#fff" d="M918.171 292.268v0l12.207 38.841h-25.525l13.317-38.841zM859.353 377.719h29.964l8.878-21.086h42.171l8.878 21.086h29.964l-42.171-119.853h-34.403l-43.28 119.853z"></path>
</svg>
