<!-- Generated by IcoMoon.io -->
<svg version="1.1" xmlns="http://www.w3.org/2000/svg" width="1024" height="1024" viewBox="0 0 1024 1024">
<title></title>
<g id="icomoon-ignore">
</g>
<path fill="#004a98" d="M558.781 568.138c110.717 0 212.078-90.445 212.078-201.162 0-120.073-101.361-204.281-212.078-204.281h-95.123c-112.276 0-204.281 82.648-204.281 204.281 0 110.717 92.004 201.162 204.281 201.162h95.123z"></path>
<path fill="#fff" d="M505.762 474.574v-218.316c43.664 17.153 74.851 59.257 74.851 109.157s-31.188 92.004-74.851 109.157zM346.705 365.417c0-49.9 31.188-92.004 74.851-109.157v218.316c-43.664-17.153-74.851-59.257-74.851-109.157zM463.659 179.849c-102.92 0-185.568 82.648-185.568 185.568s82.648 185.568 185.568 185.568c102.92 0 185.568-82.648 185.568-185.568s-82.648-185.568-185.568-185.568z"></path>
<path fill="#004a98" d="M53.538 705.365c0 17.153 12.476 18.712 21.831 18.712 46.781 0 60.816-34.307 60.816-67.054 0-40.545-24.95-68.614-67.054-68.614-9.357 0-12.476 0-17.153 1.559v115.395zM31.706 605.564c0-18.712-9.357-18.712-20.272-18.712v-6.238c7.797 0 17.153 0 24.95 0 9.357 0 21.831 0 37.426 0 54.579 0 85.767 37.426 85.767 74.851 0 21.831-12.476 74.851-87.326 74.851-10.916 0-20.272 0-31.188 0-9.357 0-18.712 0-28.069 0v-6.238c12.476-1.559 18.712-1.559 20.272-15.593v-102.92z"></path>
<path fill="#004a98" d="M190.765 600.885c-6.238 0-10.916-4.678-10.916-10.916 0-4.678 4.678-10.916 10.916-10.916s10.916 4.678 10.916 10.916c0 4.678-6.238 10.916-10.916 10.916zM167.373 725.637h4.678c6.238 0 10.916 0 10.916-7.797v-57.698c0-9.357-3.119-10.916-10.916-15.593v-3.119c9.357-3.119 21.831-7.797 23.391-7.797 1.559-1.559 3.119-1.559 3.119-1.559 1.559 0 1.559 1.559 1.559 3.119v82.648c0 7.797 4.678 7.797 10.916 7.797h3.119v4.678c-7.797 0-14.035 0-21.831 0s-15.593 0-23.391 0v-4.678z"></path>
<path fill="#004a98" d="M234.427 661.702c0-7.797-3.119-9.357-12.476-14.035v-4.678c9.357-3.119 17.153-6.238 28.069-10.916 0 0 1.559 0 1.559 1.559v14.035c12.476-9.357 23.391-15.593 37.426-15.593 18.712 0 24.95 14.035 24.95 29.628v54.579c0 7.797 4.678 7.797 10.916 7.797h3.119v6.238c-7.797 0-15.593 0-23.391 0s-15.593 0-23.391 0v-6.238h3.119c6.238 0 10.916 0 10.916-7.797v-54.579c0-12.476-7.797-18.712-20.272-18.712-6.238 0-17.153 6.238-24.95 10.916v63.935c0 7.797 4.678 7.797 10.916 7.797h3.119v4.678c-7.797 0-15.593 0-23.391 0s-15.593 0-23.391 0v-6.238h3.119c6.238 0 10.916 0 10.916-7.797v-54.579z"></path>
<path fill="#004a98" d="M381.010 664.821c4.678 0 6.238-3.119 6.238-4.678 0-10.916-6.238-20.272-18.712-20.272s-21.831 9.357-24.95 24.95h37.426zM343.586 671.059c0 1.559 0 4.678 0 12.476 1.559 20.272 14.035 37.426 31.188 37.426 12.476 0 20.272-6.238 29.628-14.035l3.119 3.119c-9.357 12.476-21.831 23.391-38.985 23.391-34.307 0-40.545-32.747-40.545-46.781 0-42.104 28.069-54.579 43.664-54.579 17.153 0 35.866 10.916 35.866 34.307 0 1.559 0 3.119 0 3.119l-4.678 1.559h-59.257z"></path>
<path fill="#004a98" d="M410.639 725.637h6.238c6.238 0 10.916 0 10.916-7.797v-60.816c0-6.238-7.797-7.797-10.916-9.357v-3.119c15.593-6.238 23.391-12.476 26.51-12.476 1.559 0 1.559 0 1.559 3.119v18.712c4.678-7.797 14.035-21.831 28.069-21.831 4.678 0 12.476 3.119 12.476 10.916 0 6.238-4.678 10.916-9.357 10.916-6.238 0-6.238-4.678-14.035-4.678-3.119 0-15.593 4.678-15.593 17.153v49.9c0 7.797 4.678 7.797 10.916 7.797h7.797v6.238c-12.476 0-20.272 0-29.628 0s-17.153 0-24.95 0v-4.678z"></path>
<path fill="#004a98" d="M493.288 700.687c3.119 14.035 10.916 26.51 26.51 26.51 12.476 0 17.153-7.797 17.153-15.593 0-24.95-46.781-17.153-46.781-51.46 0-12.476 9.357-28.069 32.747-28.069 6.238 0 15.593 1.559 24.95 6.238l1.559 21.831h-4.678c-1.559-14.035-9.357-21.831-23.391-21.831-7.797 0-17.153 4.678-17.153 14.035 0 24.95 49.9 17.153 49.9 51.46 0 14.035-10.916 29.628-37.426 29.628-7.797 0-18.712-3.119-26.51-7.797l-3.119-24.95h6.238z"></path>
<path fill="#004a98" d="M747.468 619.598h-4.678c-4.678-24.95-21.831-34.307-45.222-34.307-24.95 0-60.816 17.153-60.816 67.054 0 43.664 31.188 74.851 63.935 74.851 21.831 0 38.985-14.035 43.664-37.426l4.678 1.559-4.678 31.188c-9.357 6.238-32.747 10.916-46.781 10.916-49.9 0-81.088-32.747-81.088-81.088 0-43.664 38.985-74.851 81.088-74.851 17.153 0 34.307 6.238 49.9 10.916v31.188z"></path>
<path fill="#004a98" d="M755.266 725.637h4.678c6.238 0 10.916 0 10.916-7.797v-118.514c0-14.035-3.119-14.035-10.916-17.153v-3.119c7.797-3.119 17.153-6.238 21.831-9.357 1.559-1.559 4.678-3.119 4.678-3.119 1.559 0 1.559 1.559 1.559 3.119v148.142c0 7.797 4.678 7.797 10.916 7.797h3.119v4.678c-7.797 0-14.035 0-21.831 0s-15.593 0-23.391 0v-4.678z"></path>
<path fill="#004a98" d="M892.492 719.399c0 3.119 1.559 4.678 6.238 4.678 3.119 0 6.238 0 7.797 0v4.678c-9.357 1.559-26.51 4.678-31.188 6.238h-1.559v-17.153c-12.476 10.916-23.391 17.153-37.426 17.153-10.916 0-23.391-7.797-23.391-24.95v-54.579c0-6.238-1.559-10.916-12.476-12.476v-4.678c7.797 0 24.95-1.559 28.069-1.559s3.119 1.559 3.119 6.238v54.579c0 6.238 0 24.95 18.712 24.95 7.797 0 17.153-6.238 26.51-12.476v-57.698c0-4.678-10.916-6.238-18.712-9.357v-3.119c18.712-1.559 31.188-3.119 32.747-3.119s1.559 1.559 1.559 3.119v79.529z"></path>
<path fill="#004a98" d="M934.596 706.925c0 7.797 7.797 21.831 21.831 21.831 23.391 0 32.747-21.831 32.747-42.104 0-23.391-17.153-42.104-34.307-42.104-7.797 0-14.035 4.678-20.272 9.357v53.019zM934.596 647.667c7.797-7.797 20.272-15.593 31.188-15.593 24.95 0 38.985 21.831 38.985 45.222 0 28.069-20.272 56.138-51.46 56.138-15.593 0-23.391-4.678-29.628-7.797l-6.238 4.678-4.678-3.119c1.559-12.476 3.119-24.95 3.119-37.426v-92.004c0-14.035-3.119-14.035-10.916-17.153v-3.119c7.797-3.119 17.153-6.238 21.831-9.357 3.119-1.559 4.678-1.559 4.678-1.559 1.559 0 1.559 1.559 1.559 3.119v77.969z"></path>
<path fill="#004a98" d="M11.435 855.067h1.559c4.678 0 9.357 0 9.357-6.238v-60.816c0-6.238-4.678-6.238-9.357-6.238h-1.559v-4.678c4.678 0 10.916 0 17.153 0s12.476 0 18.712 0v3.119h-1.559c-4.678 0-9.357 0-9.357 6.238v60.816c0 6.238 4.678 6.238 9.357 6.238h1.559v3.119c-6.238 0-12.476 0-18.712 0s-12.476 0-17.153 0v-1.559z"></path>
<path fill="#004a98" d="M47.3 858.185v-3.119h-1.559c-4.678 0-9.357 0-9.357-7.797v-60.816c0-6.238 4.678-7.797 9.357-7.797h1.559v-1.559c-4.678 0-12.476 0-17.153 0-6.238 0-12.476 0-17.153 0v3.119h1.559c4.678 0 9.357 0 9.357 7.797v60.816c0 6.238-4.678 7.797-9.357 7.797h-1.559v3.119c4.678 0 10.916 0 17.153 0 4.678-1.559 10.916-1.559 17.153-1.559zM47.3 859.745c-6.238 0-12.476 0-18.712 0s-12.476 0-17.153 0v0 0-4.678h1.559c4.678 0 7.797 0 7.797-6.238v-60.816c0-6.238-4.678-6.238-7.797-6.238h-1.559v-4.678c4.678 0 10.916 0 17.153 0s12.476 0 18.712 0v0 0 4.678h-1.559c-4.678 0-7.797 0-7.797 6.238v60.816c0 6.238 3.119 6.238 7.797 6.238h1.559v4.678z"></path>
<path fill="#004a98" d="M126.83 836.354v0-43.664c0-9.357-6.238-10.916-9.357-10.916h-3.119v-4.678c6.238 0 10.916 0 15.593 0s9.357 0 14.035 0v3.119h-1.559c-4.678 0-10.916 1.559-10.916 14.035v53.019c0 4.678 0 7.797 0 12.476h-4.678l-59.257-67.054v48.341c0 10.916 1.559 14.035 10.916 14.035h1.559v3.119c-4.678 0-9.357 0-15.593 0-4.678 0-10.916 0-15.593 0v-3.119h1.559c7.797 0 10.916-6.238 10.916-14.035v-48.341c0-6.238-4.678-10.916-10.916-10.916h-1.559v-4.678c4.678 0 9.357 0 14.035 0 3.119 0 6.238 0 10.916 0l53.019 59.257z"></path>
<path fill="#004a98" d="M126.83 834.795v0 0 0zM126.83 836.354v0 0zM129.948 859.745h3.119c0-3.119 0-7.797 0-10.916v-53.019c0-14.035 6.238-15.593 10.916-15.593h1.559v-3.119c-4.678 0-9.357 0-14.035 0s-10.916 0-15.593 0v3.119h1.559c3.119 0 10.916 1.559 10.916 10.916v43.664l-53.019-57.698c-3.119 0-6.238 0-10.916 0s-9.357 0-12.476 0v3.119h1.559c6.238 0 10.916 4.678 10.916 10.916v48.341c0 9.357-3.119 15.593-10.916 15.593h-1.559v3.119c4.678 0 10.916 0 15.593 0s9.357 0 14.035 0v-3.119h-1.559c-9.357 0-10.916-4.678-10.916-14.035v-48.341l60.816 67.054zM134.627 861.304h-4.678l-59.257-65.495v46.781c0 10.916 1.559 12.476 10.916 12.476h3.119v4.678c-4.678 0-9.357 0-15.593 0-4.678 0-10.916 0-15.593 0v0 0-4.678h1.559c7.797 0 9.357-4.678 9.357-14.035v-48.341c0-6.238-4.678-9.357-9.357-9.357h-1.559v-6.238c4.678 0 9.357 0 14.035 0 3.119 0 6.238 0 10.916 0l51.46 57.698v-42.104c0-9.357-6.238-10.916-9.357-10.916h-3.119v-4.678c6.238 0 10.916 0 15.593 0s9.357 0 14.035 0v0 0 4.678h-1.559c-4.678 0-9.357 0-9.357 14.035v53.019c-1.559 3.119-1.559 7.797-1.559 12.476v0 0z"></path>
<path fill="#004a98" d="M162.696 783.335c-9.357 0-9.357 1.559-10.916 10.916h-3.119c0-3.119 1.559-6.238 1.559-9.357s0-6.238 0-9.357h3.119c1.559 3.119 3.119 3.119 6.238 3.119h59.257c3.119 0 6.238 0 6.238-3.119h3.119c0 3.119-1.559 6.238-1.559 9.357s0 6.238 0 9.357l-3.119 1.559c0-4.678-1.559-10.916-9.357-10.916h-18.712v62.376c0 9.357 4.678 9.357 9.357 9.357h1.559v3.119c-4.678 0-12.476 0-18.712 0s-15.593 0-20.272 0v-4.678h1.559c6.238 0 9.357 0 9.357-9.357v-62.376h-15.593z"></path>
<path fill="#004a98" d="M209.477 859.745c-4.678 0-12.476 0-18.712 0s-15.593 0-20.272 0v0 0-4.678h1.559c6.238 0 9.357 0 9.357-9.357v-62.376h1.559v62.376c0 9.357-3.119 10.916-10.916 10.916h-1.559v3.119c4.678 0 12.476 0 18.712 0 6.238-1.559 14.035-1.559 20.272 0v-3.119h-1.559c-6.238 0-10.916-1.559-10.916-10.916v-62.376h18.712c7.797 0 9.357 6.238 9.357 10.916l3.119-1.559c0-3.119 0-6.238 0-9.357s0-6.238 1.559-9.357h-1.559c0 3.119-3.119 3.119-6.238 3.119h-59.257c-3.119 0-6.238 0-6.238-3.119h-1.559c0 3.119 0 6.238 0 9.357s-1.559 6.238-1.559 9.357h3.119c1.559-7.797 3.119-10.916 10.916-10.916v0 0c-9.357 0-7.797 1.559-10.916 10.916v0 0h-4.678c0-3.119 1.559-6.238 1.559-9.357s0-6.238 0-9.357v0 0 0 0c1.559 3.119 3.119 3.119 6.238 3.119v0h59.257c3.119 0 6.238 0 6.238-3.119v0 0h3.119c0 3.119-1.559 6.238-1.559 9.357s0 6.238 0 9.357v0 0l-4.678 1.559c0-4.678 0-10.916-7.797-10.916h-18.712v60.816c0 9.357 3.119 9.357 9.357 9.357h3.119l1.559 6.238z"></path>
<path fill="#004a98" d="M232.868 855.067h1.559c4.678 0 9.357 0 9.357-6.238v-60.816c0-6.238-4.678-6.238-9.357-6.238h-1.559v-4.678c7.797 0 18.712 0 29.628 0 9.357 0 21.831 0 29.628 0 0 4.678 0 12.476 0 17.153l-3.119 1.559c0-7.797-1.559-14.035-14.035-14.035h-15.593v31.188h14.035c6.238 0 7.797-4.678 9.357-10.916h3.119c0 4.678 0 9.357 0 14.035s0 9.357 0 14.035h-3.119c0-6.238-1.559-10.916-9.357-10.916h-14.035v26.51c0 7.797 6.238 7.797 14.035 7.797 14.035 0 20.272-1.559 23.391-14.035l3.119 1.559c-1.559 6.238-3.119 12.476-4.678 18.712-7.797 0-20.272 0-31.188 0s-24.95 0-31.188 0v-4.678z"></path>
<path fill="#004a98" d="M295.244 858.185c1.559-6.238 3.119-12.476 3.119-17.153h-1.559c-3.119 12.476-10.916 14.035-23.391 14.035-7.797 0-14.035 0-14.035-7.797v-28.069h14.035c7.797 0 9.357 4.678 9.357 10.916h3.119c0-4.678 0-7.797 0-12.476s0-9.357 0-12.476h-3.119c0 6.238-3.119 10.916-9.357 10.916h-14.035v-31.188h17.153c12.476 0 14.035 6.238 14.035 14.035h3.119c0-3.119 0-7.797 0-10.916 0-1.559 0-3.119 0-6.238-7.797 0-20.272 0-29.628 0s-21.831 0-28.069 0v3.119h1.559c4.678 0 9.357 0 9.357 7.797v60.816c0 6.238-4.678 7.797-9.357 7.797h-1.559v3.119c6.238 0 20.272 0 31.188 0 7.797-6.238 20.272-6.238 28.069-6.238zM295.244 859.745c-7.797 0-20.272 0-31.188 0s-24.95 0-31.188 0v0 0-4.678h1.559c4.678 0 7.797 0 7.797-6.238v-60.816c0-6.238-3.119-6.238-7.797-6.238h-1.559v-4.678c7.797 0 18.712 0 29.628 0 9.357 0 21.831 0 29.628 0v0 0c0 1.559 0 3.119 0 6.238 0 4.678 0 7.797 0 12.476v0 0l-4.678 1.559c0-7.797-1.559-12.476-14.035-12.476h-15.593v29.628h14.035c6.238 0 7.797-3.119 9.357-9.357v0 0h4.678c0 4.678 0 9.357 0 14.035s0 9.357 0 12.476v0 0l-4.678 1.559c-1.559-7.797-1.559-10.916-7.797-10.916h-14.035v26.51c0 7.797 6.238 7.797 14.035 7.797 14.035 0 20.272 0 23.391-14.035v0 0l3.119 1.559c-1.559 1.559-3.119 7.797-4.678 15.593v0 0z"></path>
<path fill="#004a98" d="M329.551 816.082h6.238c10.916 0 17.153-4.678 17.153-18.712 0-10.916-6.238-17.153-17.153-17.153-3.119 0-4.678 0-6.238 0v35.866zM315.517 789.573c0-7.797-4.678-9.357-7.797-9.357h-1.559v-3.119c3.119 0 10.916 0 18.712 0 6.238 0 12.476 0 18.712 0 14.035 0 28.069 4.678 28.069 20.272 0 10.916-6.238 17.153-15.593 20.272l20.272 29.628c3.119 4.678 6.238 6.238 10.916 6.238v3.119c-3.119 0-7.797 0-10.916 0s-7.797 0-10.916 0c-9.357-12.476-17.153-24.95-24.95-37.426h-7.797v24.95c0 9.357 4.678 9.357 9.357 9.357h1.559v3.119c-6.238 0-14.035 0-20.272 0s-10.916 0-17.153 0v-1.559h1.559c4.678 0 7.797-1.559 7.797-6.238v-59.257z"></path>
<path fill="#004a98" d="M335.788 816.082c10.916 0 17.153-4.678 17.153-17.153 0-10.916-6.238-17.153-17.153-17.153-3.119 0-4.678 0-6.238 0v34.307h6.238zM329.551 817.642v0-35.866c1.559 0 3.119 0 6.238 0 10.916 0 17.153 6.238 17.153 17.153 0 14.035-6.238 18.712-18.712 18.712h-4.678zM329.551 820.76h7.797c7.797 14.035 15.593 26.51 23.391 37.426 3.119 0 7.797 0 10.916 0s7.797 0 10.916 0v-3.119c-4.678 0-7.797-1.559-10.916-7.797l-20.272-29.628c9.357-3.119 15.593-9.357 15.593-20.272 0-15.593-12.476-20.272-26.51-20.272-6.238 0-12.476 0-18.712 0s-14.035 0-17.153 0v3.119h1.559c3.119 0 9.357 0 9.357 9.357v59.257c0 4.678-4.678 6.238-9.357 6.238h-1.559v3.119c6.238 0 10.916 0 15.593 0 6.238 0 12.476 0 20.272 0v-3.119c-4.678 0-9.357 0-9.357-9.357l-1.559-24.95zM384.129 859.745c-4.678 0-7.797 0-10.916 0s-7.797 0-10.916 0c-9.357-12.476-17.153-24.95-23.391-37.426h-6.238v24.95c0 9.357 3.119 9.357 9.357 9.357h3.119v4.678c-6.238 0-14.035 0-20.272 0s-10.916 0-17.153 0v0 0-6.238h1.559c4.678 0 7.797-1.559 7.797-6.238v-59.257c0-7.797-4.678-7.797-7.797-7.797h-3.119v-4.678c3.119 0 10.916 0 18.712 0 6.238 0 12.476 0 18.712 0 14.035 0 28.069 4.678 28.069 20.272 0 10.916-6.238 17.153-15.593 20.272l20.272 29.628c3.119 4.678 4.678 6.238 10.916 6.238v0 0l-3.119 6.238z"></path>
<path fill="#004a98" d="M463.659 836.354v0-43.664c0-9.357-6.238-10.916-9.357-10.916h-3.119v-4.678c4.678 0 10.916 0 15.593 0s9.357 0 14.035 0v3.119h-1.559c-4.678 0-10.916 1.559-10.916 14.035v53.019c0 4.678 0 7.797 0 12.476h-3.119l-59.257-67.054v48.341c0 10.916 1.559 14.035 10.916 14.035h1.559v3.119c-4.678 0-9.357 0-15.593 0-4.678 0-10.916 0-15.593 0v-3.119h1.559c7.797 0 10.916-6.238 10.916-14.035v-48.341c0-6.238-4.678-10.916-10.916-10.916h-1.559v-4.678c4.678 0 9.357 0 14.035 0 3.119 0 6.238 0 10.916 0l51.46 59.257z"></path>
<path fill="#004a98" d="M463.659 834.795v0 0 0zM463.659 836.354v0 0zM465.219 859.745h3.119c0-3.119 0-7.797 0-10.916v-53.019c0-14.035 6.238-15.593 10.916-15.593h1.559v-3.119c-4.678 0-9.357 0-14.035 0s-10.916 0-15.593 0v3.119h1.559c3.119 0 10.916 1.559 10.916 10.916v43.664l-51.46-57.698c-3.119 0-6.238 0-10.916 0s-9.357 0-12.476 0v3.119h1.559c4.678 0 10.916 4.678 10.916 10.916v48.341c0 9.357-3.119 15.593-10.916 15.593h-1.559v3.119c4.678 0 10.916 0 15.593 0s9.357 0 14.035 0v-3.119h-1.559c-9.357 0-10.916-4.678-10.916-14.035v-48.341l59.257 67.054zM469.896 861.304h-4.678l-59.257-65.495v46.781c0 10.916 1.559 12.476 10.916 12.476h3.119v4.678c-4.678 0-9.357 0-15.593 0-4.678 0-10.916 0-15.593 0v0 0-4.678h1.559c7.797 0 9.357-4.678 9.357-14.035v-48.341c0-6.238-4.678-9.357-9.357-9.357h-3.119v-6.238c4.678 0 9.357 0 14.035 0 3.119 0 6.238 0 10.916 0l51.46 57.698v-42.104c0-9.357-6.238-10.916-9.357-10.916h-3.119v-4.678c6.238 0 10.916 0 15.593 0s9.357 0 14.035 0v0 0 4.678h-1.559c-4.678 0-9.357 0-9.357 14.035v53.019c0 3.119 0 7.797 0 12.476v0 0z"></path>
<path fill="#004a98" d="M516.678 791.132v0l-10.916 32.747h21.831l-10.916-32.747zM499.524 842.592c-1.559 4.678-3.119 6.238-3.119 9.357s4.678 4.678 9.357 4.678h1.559v3.119c-4.678 0-9.357 0-14.035 0s-7.797 0-12.476 0v-4.678c4.678 0 7.797-3.119 9.357-7.797l18.712-53.019c1.559-4.678 3.119-9.357 4.678-14.035 3.119-1.559 7.797-3.119 10.916-4.678 0 0 0 0 1.559 0 0 0 0 0 1.559 0 0 1.559 0 1.559 1.559 3.119l21.831 60.816c1.559 4.678 3.119 7.797 4.678 12.476 1.559 3.119 3.119 4.678 7.797 4.678v0 3.119c-4.678 0-10.916 0-15.593 0-6.238 0-10.916 0-17.153 0v-4.678h1.559c3.119 0 7.797 0 7.797-3.119 0-1.559-1.559-4.678-3.119-7.797l-4.678-14.035h-26.51l-6.238 12.476z"></path>
<path fill="#004a98" d="M516.678 791.132v0 0zM507.322 822.32h20.272l-9.357-31.188-10.916 31.188zM505.762 823.879l10.916-34.307 10.916 34.307h-21.831zM529.153 858.185c6.238 0 10.916 0 17.153 0 4.678 0 10.916 0 15.593 0v-3.119c-4.678 0-6.238-1.559-7.797-4.678s-3.119-7.797-4.678-12.476l-21.831-60.816c0-1.559 0-1.559-1.559-3.119 0 0 0 0 0 0v0c0 0 0 0 0 0-1.559 1.559-6.238 3.119-10.916 4.678 0 4.678-3.119 10.916-4.678 14.035l-18.712 53.019c-1.559 4.678-6.238 7.797-10.916 7.797v0 3.119c4.678 0 7.797 0 12.476 0s9.357 0 14.035 0v-1.559c-3.119 0-9.357 0-9.357-4.678 0-1.559 1.559-4.678 3.119-9.357v0 0l3.119-12.476h26.51l4.678 14.035c1.559 3.119 3.119 6.238 3.119 7.797 0 3.119-4.678 3.119-7.797 3.119v0 4.678zM561.9 859.745c-4.678 0-10.916 0-15.593 0-6.238 0-10.916 0-17.153 0v0 0-4.678h1.559c3.119 0 6.238 0 6.238-3.119 0-1.559-1.559-4.678-1.559-7.797l-4.678-12.476h-24.95l-3.119 12.476c-1.559 4.678-3.119 7.797-3.119 9.357 0 3.119 4.678 3.119 7.797 3.119h1.559v4.678c-4.678 0-9.357 0-14.035 0s-7.797 0-12.476 0v0 0-6.238c4.678 0 7.797-3.119 9.357-7.797l18.712-53.019c1.559-4.678 3.119-9.357 4.678-14.035 3.119-1.559 7.797-3.119 10.916-4.678 0 0 0 0 1.559 0 0 0 1.559 0 1.559 0 0 1.559 0 1.559 1.559 3.119l21.831 60.816c1.559 4.678 3.119 7.797 4.678 12.476 1.559 3.119 3.119 4.678 7.797 4.678h1.559l-4.678 3.119z"></path>
<path fill="#004a98" d="M568.138 783.335c-9.357 0-9.357 1.559-10.916 10.916h-3.119c0-3.119 1.559-6.238 1.559-9.357s0-6.238 0-9.357h3.119c0 1.559 3.119 1.559 6.238 1.559h59.257c3.119 0 6.238 0 6.238-3.119h3.119c0 3.119-1.559 6.238-1.559 9.357s0 6.238 0 9.357l-3.119 1.559c0-4.678-1.559-10.916-9.357-10.916h-18.712v62.376c0 9.357 4.678 9.357 9.357 9.357h1.559v3.119c-4.678 0-12.476 0-18.712 0s-15.593 0-20.272 0v-3.119h1.559c6.238 0 9.357 0 9.357-9.357v-62.376h-15.593z"></path>
<path fill="#004a98" d="M613.361 859.745c-4.678 0-12.476 0-18.712 0s-15.593 0-20.272 0v0 0-4.678h1.559c6.238 0 9.357 0 9.357-9.357v-62.376h1.559v62.376c0 9.357-3.119 10.916-10.916 10.916h-1.559v3.119c4.678 0 12.476 0 18.712 0 7.797-1.559 15.593-1.559 20.272 0v-3.119h-1.559c-6.238 0-9.357-1.559-10.916-10.916v-62.376h20.272c7.797 0 9.357 6.238 9.357 10.916l3.119-1.559c0-3.119 0-6.238 0-9.357s0-6.238 1.559-9.357h-1.559c0 3.119-3.119 3.119-6.238 3.119h-59.257c-3.119 0-6.238 0-6.238-3.119h-1.559c0 3.119 0 6.238 0 9.357s-1.559 6.238-1.559 9.357h3.119c1.559-7.797 3.119-10.916 10.916-10.916v0 0c-9.357 0-7.797 1.559-10.916 10.916v0 0h-4.678c0-3.119 1.559-6.238 1.559-9.357s0-6.238 0-9.357v0 0 0c0 3.119 3.119 3.119 6.238 3.119 0 0 0 0 0 0h59.257c3.119 0 6.238 0 6.238-3.119v0 0h3.119c0 3.119-1.559 6.238-1.559 9.357s0 6.238 0 9.357v0 0l-4.678 1.559c0-4.678 0-10.916-7.797-10.916h-18.712v60.816c0 9.357 3.119 9.357 9.357 9.357h3.119v6.238z"></path>
<path fill="#004a98" d="M638.311 855.067h1.559c4.678 0 9.357 0 9.357-6.238v-60.816c0-6.238-4.678-6.238-9.357-6.238h-1.559v-4.678c4.678 0 10.916 0 17.153 0s12.476 0 18.712 0v3.119h-1.559c-4.678 0-9.357 0-9.357 6.238v60.816c0 6.238 4.678 6.238 9.357 6.238h1.559v3.119c-6.238 0-12.476 0-18.712 0s-12.476 0-17.153 0v-1.559z"></path>
<path fill="#004a98" d="M672.618 858.185v-3.119h-1.559c-4.678 0-9.357 0-9.357-7.797v-60.816c0-6.238 4.678-7.797 9.357-7.797h1.559v-1.559c-4.678 0-12.476 0-17.153 0-6.238 0-12.476 0-17.153 0v3.119h1.559c4.678 0 9.357 0 9.357 7.797v60.816c0 6.238-4.678 7.797-9.357 7.797h-1.559v3.119c4.678 0 10.916 0 17.153 0 6.238-1.559 12.476-1.559 17.153-1.559zM674.177 859.745c-6.238 0-12.476 0-18.712 0s-12.476 0-17.153 0v0 0-4.678h1.559c4.678 0 7.797 0 7.797-6.238v-60.816c0-6.238-3.119-6.238-7.797-6.238h-1.559v-4.678c4.678 0 10.916 0 17.153 0s12.476 0 18.712 0v0 0 4.678h-1.559c-4.678 0-7.797 0-7.797 6.238v60.816c0 6.238 3.119 6.238 7.797 6.238h1.559v4.678z"></path>
<path fill="#004a98" d="M722.518 855.067c21.831 0 26.51-20.272 26.51-37.426s-9.357-37.426-28.069-37.426c-20.272 0-26.51 18.712-26.51 34.307-1.559 20.272 9.357 40.545 28.069 40.545zM719.399 775.538c24.95 0 45.222 15.593 45.222 40.545 0 26.51-18.712 45.222-43.664 45.222s-43.664-17.153-43.664-42.104c0-24.95 18.712-43.664 42.104-43.664z"></path>
<path fill="#004a98" d="M692.89 814.523c0-15.593 6.238-34.307 26.51-34.307s29.628 20.272 29.628 37.426c0 17.153-4.678 37.426-26.51 37.426v0 0c21.831 0 26.51-18.712 26.51-35.866s-9.357-37.426-28.069-37.426c-20.272 0-26.51 17.153-28.069 32.747 1.559 20.272 10.916 40.545 29.628 40.545v0 0c-20.272 0-29.628-20.272-29.628-40.545zM677.295 819.201c0-24.95 18.712-43.664 43.664-43.664v0 0c-24.95 0-43.664 18.712-43.664 43.664 1.559 24.95 20.272 40.545 43.664 40.545 24.95 0 43.664-17.153 43.664-43.664 0-24.95-18.712-38.985-43.664-38.985v0 0c24.95 0 45.222 15.593 45.222 40.545 0 26.51-18.712 45.222-45.222 45.222-24.95-1.559-43.664-18.712-43.664-43.664z"></path>
<path fill="#004a98" d="M842.592 836.354v0-43.664c0-9.357-6.238-10.916-10.916-10.916h-3.119v-4.678c4.678 0 10.916 0 15.593 0s9.357 0 14.035 0v3.119h-1.559c-4.678 0-10.916 1.559-10.916 14.035v53.019c0 4.678 0 7.797 0 12.476h-4.678l-59.257-67.054v48.341c0 10.916 1.559 14.035 10.916 14.035h1.559v3.119c-4.678 0-9.357 0-15.593 0-4.678 0-10.916 0-15.593 0v-3.119h1.559c7.797 0 10.916-6.238 10.916-14.035v-48.341c0-6.238-4.678-10.916-10.916-10.916h-1.559v-4.678c4.678 0 9.357 0 14.035 0 3.119 0 6.238 0 10.916 0l54.579 59.257z"></path>
<path fill="#004a98" d="M842.592 834.795v0 0 0zM842.592 836.354v0 0zM845.711 859.745h3.119c0-3.119 0-7.797 0-10.916v-53.019c0-14.035 6.238-15.593 10.916-15.593h1.559v-3.119c-4.678 0-9.357 0-14.035 0s-10.916 0-15.593 0v3.119h1.559c3.119 0 10.916 1.559 10.916 10.916v43.664l-53.019-57.698c-3.119 0-6.238 0-10.916 0s-9.357 0-12.476 0v3.119h1.559c4.678 0 10.916 4.678 10.916 10.916v48.341c0 9.357-3.119 15.593-10.916 15.593h-1.559v3.119c4.678 0 10.916 0 15.593 0s9.357 0 14.035 0v-3.119h-1.559c-9.357 0-10.916-4.678-10.916-14.035v-48.341l60.816 67.054zM850.389 861.304h-4.678l-59.257-65.495v46.781c0 10.916 1.559 12.476 10.916 12.476h3.119v4.678c-4.678 0-9.357 0-15.593 0-4.678 0-10.916 0-15.593 0v0 0-4.678h1.559c7.797 0 9.357-4.678 9.357-14.035v-48.341c0-6.238-4.678-9.357-9.357-9.357h-1.559v-6.238c4.678 0 9.357 0 14.035 0 3.119 0 6.238 0 10.916 0l51.46 57.698v-42.104c0-9.357-6.238-10.916-9.357-10.916h-3.119v-4.678c6.238 0 10.916 0 15.593 0s9.357 0 14.035 0v0 0 4.678h-1.559c-4.678 0-9.357 0-9.357 14.035v53.019c-1.559 3.119-1.559 7.797-1.559 12.476v0 0z"></path>
<path fill="#004a98" d="M897.17 791.132v0l-10.916 32.747h21.831l-10.916-32.747zM880.017 842.592c-1.559 4.678-3.119 6.238-3.119 9.357s4.678 4.678 9.357 4.678h1.559v3.119c-4.678 0-9.357 0-14.035 0s-7.797 0-12.476 0v-4.678c4.678 0 7.797-3.119 9.357-7.797l18.712-53.019c1.559-4.678 3.119-9.357 4.678-14.035 3.119-1.559 7.797-3.119 10.916-4.678 0 0 0 0 1.559 0 0 0 0 0 1.559 0 0 1.559 0 1.559 1.559 3.119l21.831 60.816c1.559 4.678 3.119 7.797 4.678 12.476 1.559 3.119 3.119 4.678 7.797 4.678v0 3.119c-4.678 0-10.916 0-15.593 0-6.238 0-10.916 0-17.153 0v-4.678h1.559c3.119 0 7.797 0 7.797-3.119 0-1.559-1.559-4.678-3.119-7.797l-4.678-14.035h-26.51l-6.238 12.476z"></path>
<path fill="#004a98" d="M897.17 791.132v0 0zM886.255 822.32h20.272l-10.916-31.188-9.357 31.188zM884.696 823.879l10.916-34.307 10.916 34.307h-21.831zM909.646 858.185c6.238 0 10.916 0 17.153 0 4.678 0 10.916 0 15.593 0v-3.119c-4.678 0-6.238-1.559-7.797-4.678s-3.119-7.797-4.678-12.476l-21.831-60.816c0-1.559 0-1.559-1.559-3.119 0 0 0 0 0 0v0c0 0 0 0 0 0-1.559 1.559-6.238 3.119-10.916 4.678 0 4.678-3.119 10.916-4.678 14.035l-18.712 53.019c-1.559 6.238-6.238 9.357-10.916 9.357v0 3.119c4.678 0 7.797 0 12.476 0s9.357 0 14.035 0v-3.119c-3.119 0-9.357 0-9.357-4.678 0-1.559 1.559-4.678 3.119-9.357v0 0l3.119-12.476h26.51l4.678 14.035c1.559 3.119 3.119 6.238 3.119 7.797 0 3.119-4.678 3.119-7.797 3.119h-1.559v4.678zM942.393 859.745c-4.678 0-10.916 0-15.593 0-6.238 0-10.916 0-17.153 0v0 0-4.678h1.559c3.119 0 6.238 0 6.238-3.119 0-1.559-1.559-4.678-1.559-7.797l-4.678-12.476h-24.95l-3.119 12.476c-1.559 4.678-3.119 7.797-3.119 9.357 0 3.119 4.678 3.119 7.797 3.119h1.559v4.678c-4.678 0-9.357 0-14.035 0s-7.797 0-12.476 0v0 0-6.238c4.678 0 7.797-3.119 9.357-7.797l18.712-53.019c1.559-4.678 3.119-9.357 4.678-14.035 3.119-1.559 7.797-3.119 10.916-4.678 0 0 0 0 1.559 0 0 0 1.559 0 1.559 0 0 1.559 0 1.559 1.559 3.119l21.831 60.816c1.559 4.678 3.119 7.797 4.678 12.476 1.559 3.119 3.119 4.678 7.797 4.678h1.559l-4.678 3.119z"></path>
<path fill="#004a98" d="M972.022 847.27c0 4.678 3.119 6.238 6.238 6.238 4.678 0 9.357 0 15.593 0 4.678 0 9.357-3.119 10.916-6.238s3.119-6.238 3.119-7.797h3.119c-1.559 6.238-3.119 12.476-4.678 20.272-10.916 0-20.272 0-31.188 0s-20.272 0-31.188 0v-4.678h1.559c4.678 0 9.357 0 9.357-7.797v-59.257c0-6.238-4.678-6.238-9.357-6.238h-1.559v-4.678c6.238 0 12.476 0 18.712 0s12.476 0 17.153 0v3.119c-4.678 0-7.797 0-7.797 6.238v60.816z"></path>
<path fill="#004a98" d="M1006.329 858.185c1.559-6.238 3.119-12.476 4.678-18.712h-3.119c0 3.119-1.559 6.238-3.119 7.797-1.559 3.119-6.238 6.238-10.916 6.238-3.119 0-6.238 0-9.357 0-1.559 0-4.678 0-6.238 0-3.119 0-7.797-1.559-7.797-6.238v-59.257c0-6.238 4.678-6.238 7.797-6.238h3.119v-4.678c-6.238 0-10.916 0-17.153 0s-12.476 0-17.153 0v3.119h1.559c4.678 0 9.357 0 9.357 7.797v59.257c0 7.797-4.678 7.797-9.357 7.797h-1.559v3.119c9.357 0 20.272 0 29.628 0 10.916 0 20.272 0 29.628 0zM1007.887 859.745c-10.916 0-20.272 0-31.188 0s-20.272 0-31.188 0v0 0-4.678h1.559c4.678 0 7.797 0 7.797-7.797v-59.257c0-6.238-4.678-6.238-7.797-6.238h-1.559v-4.678c6.238 0 12.476 0 18.712 0s12.476 0 17.153 0v0 0 4.678h-1.559c-4.678 0-7.797 0-7.797 6.238v59.257c0 4.678 3.119 6.238 6.238 6.238 1.559 0 4.678 0 6.238 0 3.119 0 6.238 0 9.357 0 4.678 0 9.357-3.119 10.916-6.238s3.119-6.238 3.119-7.797v0 0h4.678c-1.559 6.238-3.119 12.476-4.678 20.272v0 0z"></path>
</svg>
