<?xml version="1.0" encoding="utf-8"?>
<!-- Generator: Adobe Illustrator 22.1.0, SVG Export Plug-In . SVG Version: 6.00 Build 0)  -->
<svg version="1.1" id="Layer_1" xmlns="http://www.w3.org/2000/svg" xmlns:xlink="http://www.w3.org/1999/xlink" x="0px" y="0px"
	 viewBox="0 0 100 100" style="enable-background:new 0 0 100 100;" xml:space="preserve">
<style type="text/css">
	.st0{fill:url(#SVGID_1_);}
	.st1{fill:#091A23;}
	.st2{fill:#231F20;}
</style>
<g>
	
		<radialGradient id="SVGID_1_" cx="45.1079" cy="-436.0791" r="6.181" gradientTransform="matrix(1 0 0 1 6.416 486.083)" gradientUnits="userSpaceOnUse">
		<stop  offset="5.618000e-03" style="stop-color:#FFEEE1"/>
		<stop  offset="9.664719e-02" style="stop-color:#FFEAD8"/>
		<stop  offset="0.2452" style="stop-color:#FEDDC2"/>
		<stop  offset="0.4329" style="stop-color:#FCCA9F"/>
		<stop  offset="0.6522" style="stop-color:#F9AF72"/>
		<stop  offset="0.8954" style="stop-color:#F68F39"/>
		<stop  offset="1" style="stop-color:#F48220"/>
	</radialGradient>
	<path class="st0" d="M51.5,43.9c-3.5,0-6.3,2.7-6.3,6c0,3.5,2.7,6.2,6.3,6.2c3.5,0,6.2-2.7,6.2-6.1C57.8,46.6,55,43.9,51.5,43.9z"
		/>
	<path class="st1" d="M16,44.1h-3.4v11.7H16c1.8,0,3.1-0.4,4.2-1.4c1.3-1.1,2.1-2.8,2.1-4.5C22.3,46.5,19.7,44.1,16,44.1z
		 M18.7,52.9c-0.7,0.7-1.7,0.9-3.1,0.9h-0.6v-7.8h0.6c1.5,0,2.4,0.3,3.1,0.9c0.8,0.7,1.3,1.8,1.3,2.9C19.9,51.1,19.5,52.2,18.7,52.9
		z"/>
	<rect x="23.4" y="44.1" class="st1" width="2.3" height="11.7"/>
	<path class="st1" d="M31.2,48.6c-1.4-0.5-1.8-0.8-1.8-1.5c0-0.7,0.7-1.3,1.7-1.3c0.7,0,1.2,0.3,1.8,0.9l1.2-1.6
		c-1-0.9-2.2-1.3-3.5-1.3c-2.1,0-3.7,1.4-3.7,3.4c0,1.6,0.7,2.4,2.9,3.2c0.9,0.3,1.4,0.5,1.6,0.7c0.5,0.3,0.7,0.7,0.7,1.2
		c0,1-0.8,1.7-1.8,1.7c-1.1,0-2-0.5-2.5-1.6l-1.5,1.4c1.1,1.5,2.3,2.2,4.1,2.2c2.4,0,4-1.6,4-3.9C34.6,50.4,33.8,49.6,31.2,48.6z"/>
	<path class="st1" d="M35.3,50c0,3.5,2.7,6.1,6.2,6.1c1,0,1.8-0.2,2.9-0.7v-2.7c-0.9,0.9-1.7,1.3-2.8,1.3c-2.3,0-3.9-1.7-3.9-4
		c0-2.3,1.7-4,3.8-4c1.1,0,1.9,0.4,2.9,1.3v-2.7c-1-0.5-1.8-0.7-2.8-0.7C38.1,43.8,35.3,46.6,35.3,50z"/>
	<polygon class="st1" points="63,52 59.8,44.1 57.3,44.1 62.3,56.2 63.5,56.2 68.6,44.1 66.1,44.1 	"/>
	<polygon class="st1" points="69.6,55.9 76.1,55.9 76.1,53.9 71.9,53.9 71.9,50.7 76,50.7 76,48.7 71.9,48.7 71.9,46.1 76.1,46.1 
		76.1,44.1 69.6,44.1 	"/>
	<path class="st1" d="M85.2,47.6c0-2.2-1.5-3.5-4.2-3.5h-3.4v11.7h2.3v-4.7h0.3l3.2,4.7h2.8l-3.7-4.9C84.3,50.6,85.2,49.4,85.2,47.6
		z M80.6,49.5h-0.7V46h0.7c1.4,0,2.2,0.6,2.2,1.7C82.8,48.9,82.1,49.5,80.6,49.5z"/>
	<path class="st2" d="M86.8,45c0-0.2-0.1-0.3-0.4-0.3h-0.3v1h0.2v-0.4l0.3,0.4h0.3l-0.3-0.4C86.7,45.2,86.8,45.1,86.8,45z
		 M86.4,45.1L86.4,45.1l0-0.3h0c0.1,0,0.2,0,0.2,0.1C86.6,45.1,86.5,45.1,86.4,45.1z"/>
	<path class="st2" d="M86.5,44.3c-0.5,0-0.9,0.4-0.9,0.9c0,0.5,0.4,0.9,0.9,0.9c0.5,0,0.9-0.4,0.9-0.9C87.4,44.7,87,44.3,86.5,44.3z
		 M86.5,45.9c-0.4,0-0.7-0.3-0.7-0.7c0-0.4,0.3-0.7,0.7-0.7c0.4,0,0.7,0.3,0.7,0.7C87.2,45.6,86.9,45.9,86.5,45.9z"/>
</g>
</svg>
