<?xml version="1.0" encoding="utf-8"?>
<!-- Generator: Adobe Illustrator 24.1.3, SVG Export Plug-In . SVG Version: 6.00 Build 0)  -->
<svg version="1.1" id="Layer_1" xmlns="http://www.w3.org/2000/svg" xmlns:xlink="http://www.w3.org/1999/xlink" x="0px" y="0px"
	 viewBox="0 0 50 50" style="enable-background:new 0 0 50 50;" xml:space="preserve">
<style type="text/css">
	.st0{fill:#344B63;}
	.st1{fill:#E6E7E8;}
	.st2{opacity:0.15;}
	.st3{fill:#231F20;}
	.st4{fill:#5386AD;}
	.st5{fill:#FFFFFF;}
	.st6{fill:#B5BFC8;}
</style>
<g>
	<g>
		<path class="st0" d="M45.35,19.1v-7.74L33.99,0H7.72C6.03,0,4.65,1.38,4.65,3.07V19.1H45.35z"/>
	</g>
	<g>
		<path class="st1" d="M4.65,19.1v27.83c0,1.69,1.38,3.07,3.07,3.07h34.56c1.69,0,3.07-1.38,3.07-3.07V19.1H4.65z"/>
	</g>
	<g class="st2">
		<path class="st3" d="M34.01,0l-0.59,10.8c0,1.11,0.9,2.01,2.01,2.01l9.91-1.47v-0.01L34.01,0z"/>
	</g>
	<g>
		<path class="st4" d="M34.01,0l-0.01,9.34c0,1.11,0.9,2.01,2.01,2.01h9.34v-0.01L34.01,0z"/>
	</g>
	<g>
		<path class="st5" d="M14.16,7.4H9.56l0.15,0.14v1.52L9.56,9.2l4.14,0.01v1.4H9.56l0.15,0.15v2.73H8.14v-7.5h6.02V7.4z"/>
		<path class="st5" d="M16.7,13.49h-1.57v-7.5h1.57V13.49z"/>
		<path class="st5" d="M24,13.49h-5.77v-7.5h1.57v5.96l-0.14,0.14H24V13.49z"/>
		<path class="st5" d="M30.99,13.49h-6.21v-7.5h6.21V7.4h-4.78l0.15,0.15v1.34l-0.15,0.15h4.33v1.41h-4.33l0.15,0.15v1.34
			l-0.15,0.15h4.78V13.49z"/>
	</g>
	<g>
		<rect x="4.65" y="18.97" class="st5" width="40.69" height="0.26"/>
	</g>
	<g>
		<g>
			<rect x="22.88" y="27.12" class="st6" width="12.83" height="1.28"/>
		</g>
		<g>
			<rect x="22.88" y="31.47" class="st6" width="12.83" height="1.28"/>
		</g>
		<g>
			<rect x="14.29" y="35.81" class="st6" width="21.42" height="1.28"/>
		</g>
		<g>
			<rect x="14.29" y="40.15" class="st6" width="21.42" height="1.28"/>
		</g>
	</g>
	<g>
		<path class="st6" d="M19.87,32.74h-5.7v-5.62h5.7V32.74z M15.45,31.47h3.14V28.4h-3.14V31.47z"/>
	</g>
</g>
</svg>
