<!-- Generated by IcoMoon.io -->
<svg version="1.1" xmlns="http://www.w3.org/2000/svg" width="1024" height="1024" viewBox="0 0 1024 1024">
<title></title>
<g id="icomoon-ignore">
</g>
<path fill="#ee373d" d="M512 690.969c-40.018 38.907-78.924 77.812-118.942 117.831-36.684 36.684-82.259 36.684-118.942 0-78.924-77.812-155.626-157.849-235.661-234.55-36.684-35.572-36.684-87.818 0-122.277 78.924-76.701 156.737-155.626 234.55-233.438 38.907-40.018 83.37-40.018 121.166-1.112 38.907 38.907 77.812 77.812 116.719 116.719-1.112 5.558-5.558 7.781-8.893 11.116-37.795 37.795-74.478 74.478-112.273 112.273-23.343 24.455-28.902 53.357-16.674 84.482 5.558 13.339 5.558 13.339 16.674 3.335 53.357-52.246 105.603-105.603 158.961-157.849 6.67-6.67 10.004-6.67 15.562 0 8.893 10.004 17.785 18.897 26.678 26.678 7.781 6.67 7.781 11.116 0 18.897-53.357 52.246-106.715 105.603-160.072 158.961-7.781 7.781-7.781 11.116 0 17.785 8.893 7.781 17.785 16.674 25.567 25.567s12.228 10.004 21.12 0c52.246-53.357 104.492-105.603 156.737-157.849 7.781-7.781 11.116-6.67 14.451 2.223 6.67 15.562 8.893 32.237 4.446 48.911-3.335 16.674-12.228 28.902-23.343 41.13-37.795 40.018-77.812 81.147-117.831 121.166z"></path>
<path fill="#2f408d" d="M512 690.969c40.018-40.018 78.924-80.036 118.942-120.054 11.116-11.116 20.009-24.455 23.343-41.13 4.446-16.674 2.223-33.349-4.446-48.911-3.335-10.004-7.781-10.004-14.451-2.223-52.246 53.357-105.603 104.492-156.737 157.849-8.893 8.893-13.339 7.781-21.12 0-7.781-8.893-16.674-17.785-25.567-25.567-7.781-6.67-7.781-10.004 0-17.785 53.357-52.246 106.715-105.603 160.072-158.961 7.781-7.781 7.781-12.228 0-18.897-10.004-8.893-18.897-17.785-26.678-26.678-5.558-6.67-10.004-6.67-15.562 0-54.469 51.134-106.715 103.38-160.072 156.737-11.116 11.116-11.116 11.116-16.674-3.335-12.228-31.126-6.67-60.027 16.674-84.482 36.684-37.795 74.478-74.478 112.273-112.273 3.335-3.335 7.781-5.558 8.893-11.116 38.907-38.907 77.812-77.812 116.719-116.719s82.259-38.907 121.166 0c78.924 78.924 156.737 157.849 235.661 235.661 34.46 34.46 34.46 85.594 0 120.054-80.036 77.812-157.849 156.737-235.661 235.661-37.795 37.795-82.259 37.795-120.054 0-37.795-40.018-77.812-78.924-116.719-117.831z"></path>
</svg>
