<!-- Generated by IcoMoon.io -->
<svg version="1.1" xmlns="http://www.w3.org/2000/svg" width="1024" height="1024" viewBox="0 0 1024 1024">
<title></title>
<g id="icomoon-ignore">
</g>
<path fill="#eb2030" d="M710.133 811.194h15.957l14.627-1.329 15.957-1.329 14.627-2.66 14.627-3.989 13.297-3.989 14.627-5.319 26.595-10.638 13.297-6.649 11.968-7.979 11.968-6.649 11.968-9.308 11.968-7.979 10.638-9.308 10.638-10.638 18.616-21.276 9.308-11.968 7.979-10.638 7.979-11.968 7.979-13.297 6.649-13.297 15.957-39.892 3.989-14.627 7.979-43.882v-15.957l1.329-14.627-1.329-15.957v-14.627l-2.66-15.957-2.66-14.627-2.66-13.297-3.989-14.627-5.319-14.627-10.638-26.595-6.649-11.968-7.979-13.297-15.957-23.936-27.924-31.914-10.638-10.638-10.638-9.308-11.968-7.979-11.968-9.308-11.968-6.649-11.968-7.979-13.297-6.649-26.595-10.638-14.627-5.319-13.297-3.989-14.627-3.989-14.627-2.66-15.957-1.329-14.627-1.329h-30.584l-15.957 1.329-14.627 1.329-14.627 2.66-29.255 7.979-39.892 15.957-13.297 6.649-13.297 7.979-11.968 6.649-11.968 9.308-10.638 7.979-10.638 9.308-10.638 10.638-27.924 31.914-15.957 23.936-7.979 13.297-6.649 11.968-10.638 26.595-5.319 14.627-3.989 14.627-2.66 13.297-2.66 14.627-2.66 15.957v14.627l-1.329 15.957 1.329 14.627v15.957l7.979 43.882 3.989 14.627 15.957 39.892 6.649 13.297 7.979 13.297 7.979 11.968 7.979 10.638 9.308 11.968 18.616 21.276 10.638 10.638 10.638 9.308 10.638 7.979 11.968 9.308 11.968 6.649 13.297 7.979 13.297 6.649 39.892 15.957 29.255 7.979 14.627 2.66 14.627 1.329 15.957 1.329z"></path>
<path fill="#0885c4" d="M313.867 811.194h14.627l15.957-1.329 14.627-1.329 14.627-2.66 29.255-7.979 39.892-15.957 13.297-6.649 13.297-7.979 11.968-6.649 10.638-9.308 11.968-7.979 10.638-9.308 10.638-10.638 18.616-21.276 9.308-11.968 7.979-10.638 7.979-11.968 7.979-13.297 6.649-13.297 15.957-39.892 3.989-14.627 7.979-43.882v-15.957l1.329-14.627-1.329-15.957v-14.627l-2.66-15.957-2.66-14.627-2.66-13.297-3.989-14.627-5.319-14.627-10.638-26.595-6.649-11.968-7.979-13.297-15.957-23.936-27.924-31.914-10.638-10.638-10.638-9.308-11.968-7.979-10.638-9.308-11.968-6.649-13.297-7.979-13.297-6.649-39.892-15.957-29.255-7.979-14.627-2.66-14.627-1.329-15.957-1.329h-30.584l-14.627 1.329-15.957 1.329-14.627 2.66-14.627 3.989-13.297 3.989-14.627 5.319-26.595 10.638-13.297 6.649-11.968 7.979-11.968 6.649-11.968 9.308-11.968 7.979-10.638 9.308-10.638 10.638-27.924 31.914-15.957 23.936-7.979 13.297-6.649 11.968-10.638 26.595-5.319 14.627-3.989 14.627-2.66 13.297-2.66 14.627-2.66 15.957-1.329 14.627v30.584l1.329 15.957 7.979 43.882 3.989 14.627 15.957 39.892 6.649 13.297 7.979 13.297 7.979 11.968 7.979 10.638 9.308 11.968 18.616 21.276 10.638 10.638 10.638 9.308 11.968 7.979 11.968 9.308 11.968 6.649 11.968 7.979 13.297 6.649 26.595 10.638 14.627 5.319 13.297 3.989 14.627 3.989 14.627 2.66 15.957 1.329 14.627 1.329z"></path>
<path fill="#eb2030" d="M474.767 327.164h151.592v-17.287h-136.965z"></path>
<path fill="#eb2030" d="M450.831 361.738h175.527v-15.957h-164.889z"></path>
<path fill="#eb2030" d="M433.545 397.642h192.814v-15.957h-184.836z"></path>
<path fill="#eb2030" d="M421.577 433.545h204.782v-17.287h-199.463z"></path>
<path fill="#eb2030" d="M414.928 469.448h211.431v-17.287h-208.771z"></path>
<path fill="#eb2030" d="M412.269 537.265h214.090v-15.957h-215.42z"></path>
<path fill="#eb2030" d="M417.587 575.828h208.771v-17.287h-211.431z"></path>
<path fill="#eb2030" d="M428.226 605.082h198.133v-15.957h-203.452z"></path>
<path fill="#eb2030" d="M442.853 642.316h183.506v-15.957h-191.484z"></path>
<path fill="#eb2030" d="M464.129 679.549h162.229v-15.957h-172.868z"></path>
<path fill="#eb2030" d="M490.724 715.452h134.305v-15.957h-148.932z"></path>
<path fill="#eb2030" d="M961.457 695.506v-2.66l1.329-2.66 2.66-2.66 2.66-1.329 1.329-1.329 2.66-1.329h6.649l5.319 2.66 3.989 3.989 1.329 2.66v2.66h-2.66v-2.66l-5.319-5.319h-1.329l-2.66-1.329h-3.989l-2.66 1.329h-1.329l-5.319 5.319v2.66z"></path>
<path fill="#eb2030" d="M970.765 695.506v-3.989h7.979v1.329h1.329l1.329 1.329v1.329h-2.66v-1.329h-1.329v-1.329h-3.989v2.66z"></path>
<path fill="#eb2030" d="M961.457 698.165v-2.66h2.66v2.66z"></path>
<path fill="#eb2030" d="M970.765 698.165v-2.66h2.66v1.329h5.319v-1.329h2.66v2.66h-1.329z"></path>
<path fill="#eb2030" d="M986.722 698.165v-2.66h2.66l1.329 2.66z"></path>
<path fill="#eb2030" d="M961.457 698.165h-1.329l1.329 2.66v2.66l1.329 2.66 2.66 2.66 2.66 1.329 1.329 1.329 2.66 1.329h6.649l5.319-2.66 3.989-3.989 1.329-2.66v-2.66l1.329-2.66h-3.989v5.319l-1.329 1.329-1.329 2.66-2.66 1.329-1.329 1.329h-9.308l-1.329-1.329-2.66-1.329-1.329-2.66-1.329-1.329v-5.319z"></path>
<path fill="#eb2030" d="M970.765 698.165v5.319h2.66v-3.989h2.66l2.66 3.989h2.66l-3.989-3.989 1.329-1.329h1.329z"></path>
<path fill="#fff" d="M646.305 486.735h-2.66l-1.329-1.329h-7.979l-1.329-1.329h-27.924l-2.66 1.329h-2.66l-2.66 1.329-2.66 2.66-2.66 1.329v1.329l-2.66 2.66v3.989l1.329 1.329v2.66l5.319 5.319 3.989 2.66 2.66 1.329 5.319 1.329 3.989 2.66 3.989 1.329 5.319 1.329 3.989 1.329 5.319 2.66 3.989 2.66 2.66 3.989 3.989 3.989 1.329 5.319 1.329 6.649 1.329 7.979-1.329 7.979v6.649l-2.66 6.649-1.329 5.319-3.989 3.989-2.66 3.989-3.989 3.989-7.979 5.319-5.319 2.66-3.989 1.329-5.319 1.329-3.989 1.329-5.319 1.329h-46.542l-2.66-1.329h-6.649l-2.66-1.329h-1.329l-2.66-1.329h-2.66l-5.319-2.66 6.649-30.584h1.329l1.329 1.329h2.66l2.66 1.329h2.66l2.66 1.329h6.649l2.66 1.329h7.979l3.989 1.329h15.957l3.989-1.329h3.989l3.989-3.989 1.329-2.66 1.329-1.329 1.329-2.66v-7.979l-1.329-1.329v-1.329l-1.329-1.329-2.66-1.329-1.329-1.329-2.66-1.329-1.329-1.329-2.66-1.329h-2.66l-15.957-7.979-3.989-1.329-2.66-1.329-3.989-3.989-2.66-1.329-2.66-2.66-3.989-7.979-1.329-3.989-1.329-2.66v-15.957l1.329-2.66v-5.319l1.329-2.66v-2.66l1.329-2.66 1.329-1.329v-2.66l1.329-1.329 1.329-2.66 1.329-1.329 1.329-2.66 2.66-1.329 2.66-2.66 2.66-1.329 1.329-1.329 7.979-3.989h2.66l5.319-2.66h6.649l2.66-1.329h11.968l3.989-1.329h13.297l3.989 1.329h15.957l2.66 1.329h7.979l1.329 1.329h1.329z"></path>
<path fill="#fff" d="M678.219 420.247h39.892l-6.649 34.574h23.936l-5.319 31.914-25.265-1.329-11.968 78.455-1.329 1.329v2.66l1.329 1.329v1.329l2.66 2.66h1.329l1.329 1.329h5.319l2.66 1.329h3.989l2.66-1.329h5.319l1.329-1.329h2.66l-3.989 26.595h-1.329l-1.329 1.329h-1.329l-1.329 1.329h-2.66l-1.329 1.329h-3.989l-2.66 1.329h-29.255l-11.968-3.989-2.66-1.329-1.329-1.329-2.66-1.329-2.66-5.319v-5.319l-1.329-2.66 1.329-2.66v-6.649z"></path>
<path fill="#fff" d="M437.534 539.924v10.638l2.66 5.319 1.329 1.329 2.66 5.319 2.66 2.66 2.66 1.329 2.66 2.66 7.979 3.989h6.649l2.66 1.329h26.595l19.947-6.649 7.979-5.319-5.319 35.903-2.66 1.329h-2.66l-1.329 1.329-2.66 1.329h-2.66l-1.329 1.329h-5.319l-2.66 1.329h-39.892l-2.66-1.329h-3.989l-3.989-1.329h-2.66l-3.989-1.329-2.66-1.329-3.989-1.329-2.66-1.329-3.989-1.329-2.66-1.329-3.989-2.66-2.66-2.66-2.66-1.329-5.319-5.319-1.329-3.989-5.319-5.319-5.319-15.957-1.329-5.319v-29.255l1.329-1.329v-5.319l1.329-2.66v-2.66l1.329-2.66v-3.989l3.989-7.979 1.329-3.989 2.66-5.319 2.66-3.989 1.329-2.66 15.957-15.957 3.989-1.329 3.989-2.66 3.989-1.329 3.989-2.66 3.989-1.329 5.319-1.329h5.319l5.319-1.329h22.606l2.66 1.329h5.319l5.319 2.66 3.989 1.329h2.66l2.66 2.66 5.319 2.66 6.649 6.649 1.329 2.66 2.66 2.66 2.66 5.319 1.329 3.989 1.329 2.66 1.329 3.989v3.989l1.329 5.319v14.627l-1.329 5.319v5.319l-1.329 6.649-1.329 7.979h-102.391l5.319-26.595h61.169l1.329-3.989v-3.989l-1.329-2.66v-2.66l-1.329-2.66v-2.66l-1.329-2.66-5.319-5.319-2.66-1.329h-1.329l-2.66-1.329h-2.66l-1.329-1.329h-5.319l-2.66 1.329h-2.66l-2.66 1.329h-2.66l-1.329 1.329-2.66 1.329-1.329 2.66-2.66 1.329-1.329 2.66-1.329 1.329-3.989 7.979v3.989l-1.329 2.66z"></path>
<path fill="#fff" d="M383.014 574.498l-5.319 30.584h-35.903v-2.66l1.329-2.66v-6.649l1.329-2.66v-1.329l-6.649 6.649-2.66 1.329-3.989 2.66-2.66 1.329-19.947 6.649h-19.947l-5.319-1.329-3.989-1.329-3.989-2.66-3.989-1.329-10.638-10.638-1.329-2.66-1.329-3.989-1.329-2.66-1.329-3.989v-22.606l1.329-5.319 2.66-3.989 2.66-5.319 1.329-3.989 3.989-3.989 2.66-3.989 15.957-10.638 5.319-1.329 3.989-1.329 5.319-1.329 3.989-1.329h5.319l2.66-1.329h10.638l2.66-1.329h27.924l1.329-2.66v-9.308l-1.329-1.329v-1.329l-2.66-2.66v-1.329l-1.329-1.329h-1.329l-2.66-2.66h-3.989l-1.329-1.329h-25.265l-3.989 1.329h-9.308l-3.989 1.329h-3.989l-3.989 1.329-2.66 1.329h-3.989l-2.66 1.329h-1.329l-1.329 1.329 9.308-33.244 3.989-1.329 5.319-2.66 3.989-1.329h2.66l3.989-1.329h11.968l3.989-1.329h26.595l3.989 1.329h3.989l5.319 1.329 7.979 2.66 5.319 2.66 7.979 5.319 9.308 9.308 2.66 5.319 1.329 3.989v5.319l1.329 5.319-1.329 5.319z"></path>
<path fill="#0885c4" d="M348.44 537.265v-1.329h-1.329l-1.329-1.329h-9.308l-2.66 1.329h-6.649l-2.66 1.329h-2.66l-1.329 1.329h-2.66l-1.329 1.329h-1.329l-2.66 1.329-2.66 2.66-2.66 1.329-2.66 2.66-2.66 1.329-1.329 2.66v1.329l-1.329 2.66v10.638l2.66 5.319 5.319 2.66h11.968l3.989-1.329h3.989l7.979-3.989 2.66-2.66 2.66-1.329 1.329-2.66 1.329-1.329v-1.329l1.329-1.329v-2.66l1.329-1.329v-3.989l1.329-2.66v-2.66l1.329-1.329v-5.319z"></path>
<path fill="#fff" d="M86.479 605.082h-38.563l31.914-184.836h66.487l6.649 110.369 46.542-110.369h69.147l-33.244 184.836h-38.563l25.265-138.294h-1.329l-57.179 138.294h-43.882v-5.319l-1.329-15.957-1.329-21.276-2.66-50.531-1.329-22.606-1.329-15.957v-6.649h-1.329z"></path>
<path fill="#fff" d="M728.75 605.082h39.892l13.297-79.785 1.329-2.66v-2.66l1.329-3.989 1.329-2.66v-2.66l2.66-2.66 2.66-5.319 2.66-1.329 2.66-2.66 2.66-1.329 11.968-3.989h5.319l5.319-1.329h2.66l1.329 1.329v-1.329l1.329-1.329v-5.319l5.319-15.957 5.319-10.638 1.329-1.329 1.329-2.66v-1.329h-3.989l-1.329-1.329h-1.329l-3.989 1.329h-3.989l-3.989 1.329h-2.66l-3.989 1.329-5.319 2.66-2.66 2.66-2.66 1.329-1.329 2.66-2.66 1.329-1.329 2.66-2.66 2.66-1.329 2.66-5.319 5.319 5.319-25.265h-39.892l-26.595 150.262z"></path>
<path fill="#fff" d="M901.618 452.161l5.319 1.329h11.968l11.968 3.989 2.66 1.329 3.989 1.329 2.66 1.329 3.989 1.329 2.66 2.66 2.66 1.329 2.66 2.66 2.66 1.329 7.979 7.979 1.329 2.66 1.329 3.989 2.66 2.66 1.329 2.66 1.329 3.989 1.329 2.66 1.329 3.989v3.989l1.329 2.66v3.989l1.329 3.989v17.287l-1.329 5.319v3.989l-1.329 5.319-6.649 19.947-1.329 2.66-2.66 3.989-2.66 2.66-1.329 3.989-7.979 7.979-2.66 1.329-2.66 2.66-3.989 2.66-5.319 2.66-3.989 2.66-2.66 1.329-7.979 2.66h-2.66l-3.989 1.329h-3.989l-3.989 1.329h-23.936l-3.989-1.329h-3.989l-3.989-1.329h-2.66l-3.989-1.329-2.66-1.329-3.989-1.329-2.66-2.66-2.66-1.329-3.989-1.329-5.319-5.319-2.66-1.329-2.66-2.66-1.329-2.66-2.66-2.66-1.329-2.66-2.66-3.989-1.329-2.66-1.329-3.989-1.329-2.66-3.989-11.968v-7.979l-1.329-3.989v-9.308l1.329-5.319v-7.979l1.329-5.319 5.319-15.957 1.329-2.66 1.329-3.989 2.66-2.66 1.329-3.989 7.979-7.979 1.329-2.66 3.989-2.66 2.66-2.66 2.66-1.329 2.66-2.66 3.989-1.329 2.66-1.329 3.989-2.66 2.66-1.329h3.989l11.968-3.989h11.968z"></path>
<path fill="#fff" d="M960.126 598.434h11.968v1.329h-3.989v9.308h-2.66v-9.308h-5.319z"></path>
<path fill="#fff" d="M973.424 598.434h3.989l3.989 7.979 3.989-7.979h3.989v10.638h-2.66v-7.979l-3.989 7.979h-2.66l-3.989-7.979v7.979h-2.66z"></path>
<path fill="#eb2030" d="M871.033 525.297l-1.329 5.319v14.627l1.329 3.989v2.66l1.329 2.66 1.329 3.989 5.319 5.319 7.979 3.989h11.968l3.989-1.329h2.66l2.66-1.329 2.66-2.66 2.66-1.329 2.66-2.66 1.329-2.66 2.66-3.989 1.329-2.66 2.66-7.979 3.989-15.957v-18.616l-1.329-3.989-5.319-10.638-2.66-1.329-1.329-1.329-5.319-2.66h-14.627l-3.989 1.329-2.66 1.329-2.66 2.66-2.66 1.329-5.319 5.319-1.329 3.989-2.66 2.66-1.329 2.66-1.329 3.989-1.329 2.66v3.989l-1.329 2.66z"></path>
</svg>
