<!-- Generated by IcoMoon.io -->
<svg version="1.1" xmlns="http://www.w3.org/2000/svg" width="1024" height="1024" viewBox="0 0 1024 1024">
<title></title>
<g id="icomoon-ignore">
</g>
<path fill="#fbb22f" d="M706.871 802.372h14.196l15.486-1.29 42.588-7.744 14.196-3.871 38.715-15.486 12.904-6.452 11.615-7.744 12.904-6.452 10.325-9.034 11.615-7.744 10.325-9.034 10.325-10.325 9.034-10.325 10.325-10.325 7.744-11.615 7.744-10.325 7.744-12.904 7.744-11.615 6.452-12.904 15.486-38.715 3.871-14.196 7.744-42.588 1.29-15.486v-29.682l-1.29-14.196-2.581-15.486-2.581-14.196-2.581-12.904-3.871-14.196-5.163-14.196-10.325-25.811-6.452-11.615-7.744-12.904-15.486-23.23-7.744-10.325-10.325-10.325-9.034-10.325-10.325-10.325-10.325-9.034-11.615-7.744-10.325-9.034-12.904-6.452-11.615-7.744-12.904-6.452-38.715-15.486-14.196-3.871-42.588-7.744-15.486-1.29h-29.682l-14.196 1.29-15.486 2.581-28.392 5.163-12.904 3.871-14.196 5.163-25.811 10.325-12.904 6.452-11.615 7.744-11.615 6.452-11.615 9.034-10.325 7.744-11.615 9.034-9.034 10.325-10.325 10.325-18.067 20.648-15.486 23.23-6.452 12.904-6.452 11.615-10.325 25.811-5.163 14.196-3.871 14.196-3.871 12.904-1.29 14.196-2.581 15.486-1.29 14.196v29.682l1.29 15.486 2.581 14.196 1.29 14.196 7.744 28.392 15.486 38.715 6.452 12.904 6.452 11.615 7.744 12.904 7.744 10.325 9.034 11.615 9.034 10.325 10.325 10.325 9.034 10.325 11.615 9.034 10.325 7.744 11.615 9.034 11.615 6.452 11.615 7.744 12.904 6.452 25.811 10.325 14.196 5.163 12.904 3.871 28.392 5.163 15.486 2.581 14.196 1.29h15.486z"></path>
<path fill="#eb2030" d="M317.129 802.372h15.486l14.196-1.29 15.486-2.581 28.392-5.163 12.904-3.871 14.196-5.163 25.811-10.325 12.904-6.452 11.615-7.744 11.615-6.452 11.615-9.034 10.325-7.744 11.615-9.034 9.034-10.325 10.325-10.325 9.034-10.325 9.034-11.615 7.744-10.325 7.744-12.904 6.452-11.615 6.452-12.904 5.163-12.904 6.452-12.904 3.871-12.904 7.744-28.392 2.581-14.196 1.29-14.196 1.29-15.486v-29.682l-1.29-14.196-1.29-15.486-2.581-14.196-3.871-12.904-7.744-28.392-6.452-12.904-5.163-12.904-6.452-11.615-6.452-12.904-15.486-23.23-18.067-20.648-10.325-10.325-9.034-10.325-11.615-9.034-10.325-7.744-11.615-9.034-11.615-6.452-11.615-7.744-12.904-6.452-25.811-10.325-14.196-5.163-12.904-3.871-28.392-5.163-15.486-2.581-14.196-1.29h-29.682l-15.486 1.29-42.588 7.744-14.196 3.871-38.715 15.486-12.904 6.452-11.615 7.744-12.904 6.452-10.325 9.034-11.615 7.744-10.325 9.034-10.325 10.325-27.101 30.974-15.486 23.23-7.744 12.904-6.452 11.615-10.325 25.811-5.163 14.196-3.871 14.196-2.581 12.904-2.581 14.196-2.581 15.486-1.29 14.196v29.682l1.29 15.486 7.744 42.588 3.871 14.196 15.486 38.715 6.452 12.904 7.744 11.615 7.744 12.904 7.744 10.325 9.034 11.615 18.067 20.648 10.325 10.325 10.325 9.034 11.615 7.744 10.325 9.034 12.904 6.452 11.615 7.744 12.904 6.452 38.715 15.486 14.196 3.871 42.588 7.744 15.486 1.29h14.196z"></path>
<path fill="#fbb22f" d="M478.445 332.615h153.574v-15.486h-140.67l-12.904 15.486z"></path>
<path fill="#fbb22f" d="M455.215 367.459h176.804v-15.486h-167.77l-9.034 15.486z"></path>
<path fill="#fbb22f" d="M437.148 403.594h194.871v-16.777h-187.129l-7.744 16.777z"></path>
<path fill="#fbb22f" d="M425.533 438.44h206.486v-15.486h-201.325l-5.163 15.486z"></path>
<path fill="#fbb22f" d="M433.277 607.5h200.034v-15.486h-205.196l5.163 15.486z"></path>
<path fill="#fbb22f" d="M447.474 642.345h185.838v-15.486h-193.581l7.744 15.486z"></path>
<path fill="#fbb22f" d="M468.122 677.189h165.189v-15.486h-175.514l10.325 15.486z"></path>
<path fill="#fbb22f" d="M496.514 713.325h136.797v-16.777h-149.703l12.904 16.777z"></path>
<path fill="#fbb22f" d="M419.081 473.285h212.94v-15.486h-210.359l-2.581 15.486z"></path>
<path fill="#fbb22f" d="M549.426 572.656h81.304v-15.486h-78.723l-2.581 15.486z"></path>
<path fill="#fbb22f" d="M555.878 537.811h74.852v-15.486h-72.27l-2.581 15.486z"></path>
<path fill="#fbb22f" d="M413.919 522.325h20.648v15.486h-20.648v-15.486z"></path>
<path fill="#fff" d="M373.911 502.966h-2.581l-1.29-1.29h-6.452l-1.29-1.29h-11.615l-3.871 1.29h-3.871l-1.29 1.29h-1.29l-1.29 1.29h-1.29l-1.29 1.29v1.29h-1.29v6.452l1.29 1.29v1.29l2.581 1.29 2.581 2.581 2.581 1.29h2.581l3.871 1.29 2.581 1.29 3.871 1.29 5.163 2.581 7.744 7.744 2.581 7.744v11.615l-1.29 5.163-2.581 7.744-1.29 2.581-10.325 10.325-3.871 1.29-2.581 1.29h-3.871l-3.871 1.29h-2.581l-3.871 1.29h-25.811l-2.581-1.29h-6.452l-1.29-1.29h-3.871l-1.29-1.29h-1.29l-2.581-1.29 5.163-20.648h2.581l2.581 1.29h2.581l2.581 1.29h5.163l2.581 1.29h19.359l2.581-1.29 5.163-5.163v-9.034l-2.581-1.29-1.29-1.29-3.871-2.581-2.581-1.29-11.615-3.871-7.744-5.163-2.581-2.581-2.581-3.871-2.581-5.163v-15.486l1.29-2.581v-3.871l1.29-2.581 2.581-3.871 1.29-2.581 2.581-1.29 1.29-2.581 3.871-2.581 2.581-1.29 7.744-2.581h3.871l5.163-1.29h32.263l1.29 1.29h6.452v1.29h1.29l-5.163 21.94z"></path>
<path fill="#fff" d="M397.141 456.507h27.101l-3.871 23.23h16.777l-3.871 21.94h-16.777l-10.325 54.203v2.581l1.29 1.29v1.29l1.29 1.29 2.581 1.29h12.904l1.29-1.29h2.581l-3.871 18.067-1.29 1.29h-1.29l-1.29 1.29h-2.581l-1.29 1.29h-6.452l-2.581 1.29h-6.452l-3.871-1.29h-6.452l-5.163-2.581h-2.581l-3.871-3.871v-2.581l-1.29-1.29v-7.744l1.29-2.581 18.067-107.115z"></path>
<path fill="#fff" d="M691.385 486.189l-1.29-1.29h-1.29l-1.29-1.29h-1.29l-1.29-1.29h-1.29l-1.29-1.29h-3.871l-2.581-1.29h-6.452l-1.29-1.29h-7.744l-2.581 1.29h-5.163l-5.163 2.581-3.871 1.29-2.581 1.29-7.744 7.744-1.29 3.871-2.581 3.871-2.581 5.163-1.29 5.163-1.29 6.452-1.29 3.871v12.904l1.29 3.871v2.581l2.581 5.163 2.581 2.581 1.29 2.581 2.581 2.581 5.163 2.581 7.744 2.581h3.871l2.581 1.29h9.034l2.581-1.29h2.581l2.581-1.29h2.581l5.163-2.581 3.871-3.871-5.163 27.101-2.581 2.581h-1.29l-1.29 1.29h-1.29l-1.29 1.29h-2.581l-2.581 1.29h-29.682l-5.163-1.29-3.871-1.29-5.163-2.581-3.871-1.29-3.871-3.871-3.871-2.581-3.871-3.871-2.581-5.163-3.871-5.163-1.29-5.163-2.581-6.452-1.29-6.452v-14.196l1.29-7.744 1.29-3.871v-3.871l3.871-11.615 1.29-2.581 1.29-3.871 1.29-2.581 1.29-3.871 2.581-5.163 2.581-2.581 1.29-2.581 10.325-10.325 5.163-2.581 2.581-2.581 2.581-1.29h2.581l2.581-1.29 3.871-1.29 2.581-1.29h2.581l3.871-1.29h10.325l3.871-1.29 2.581 1.29h11.615l2.581 1.29h2.581l2.581 1.29h2.581l1.29 1.29h2.581l1.29 1.29h2.581l1.29 1.29-5.163 27.101z"></path>
<path fill="#fff" d="M932.717 585.56h-27.101l2.581-11.615v-1.29l-1.29 2.581-2.581 1.29-1.29 1.29-1.29 2.581h-2.581l-2.581 2.581-2.581 1.29h-1.29l-2.581 1.29h-5.163l-2.581 1.29h-3.871l-5.163-1.29h-3.871l-5.163-2.581-3.871-2.581-2.581-2.581-3.871-2.581-5.163-7.744-1.29-5.163-2.581-3.871v-5.163l-1.29-5.163v-15.486l1.29-3.871 1.29-6.452 1.29-5.163 5.163-10.325 5.163-7.744 10.325-10.325 3.871-1.29 2.581-2.581 15.486-5.163h7.744l2.581 1.29h5.163l1.29 1.29 2.581 1.29 1.29 1.29h2.581l6.452 6.452v1.29l2.581 2.581 6.452-38.715h25.811l-21.94 129.055z"></path>
<path fill="#fbb22f" d="M888.838 561.041h5.163l5.163-2.581 1.29-1.29 2.581-1.29 1.29-1.29 1.29-2.581 2.581-1.29 1.29-2.581 1.29-1.29v-2.581l2.581-5.163v-2.581l1.29-2.581v-16.777l-1.29-1.29v-2.581l-1.29-2.581-5.163-5.163-2.581-1.29h-9.034l-2.581 1.29h-1.29l-2.581 1.29-1.29 2.581-2.581 1.29-1.29 1.29-3.871 7.744-1.29 1.29-1.29 3.871v2.581l-1.29 2.581v2.581l-1.29 3.871v5.163l1.29 5.163 2.581 7.744 2.581 3.871 3.871 2.581h3.871z"></path>
<path fill="#fff" d="M287.445 563.622l-3.871 21.94h-24.52v-5.163l1.29-2.581v-5.163l-1.29 2.581-1.29 1.29-2.581 1.29-1.29 1.29-10.325 5.163h-2.581l-2.581 1.29h-3.871l-2.581 1.29h-7.744l-2.581-1.29h-3.871l-2.581-1.29-3.871-1.29-1.29-1.29-2.581-1.29-3.871-3.871-1.29-2.581-1.29-1.29-1.29-2.581v-2.581l-1.29-1.29v-16.777l1.29-3.871 1.29-2.581 1.29-3.871 2.581-2.581 1.29-2.581 5.163-5.163 2.581-1.29 2.581-2.581 3.871-1.29 2.581-1.29 3.871-1.29 2.581-1.29h9.034l1.29-1.29h27.101v-2.581l1.29-2.581v-3.871l-1.29-1.29-1.29-2.581-1.29-1.29-2.581-1.29h-1.29l-2.581-1.29h-20.648l-3.871 1.29h-5.163l-2.581 1.29h-5.163l-2.581 1.29h-1.29l-1.29 1.29h-1.29l6.452-23.23 2.581-1.29h2.581l1.29-1.29h2.581l2.581-1.29h7.744l2.581-1.29h21.94l2.581 1.29h6.452l2.581 1.29 3.871 1.29 5.163 2.581 5.163 5.163 2.581 1.29 2.581 2.581 1.29 3.871v2.581l1.29 3.871v3.871l-1.29 3.871-9.034 51.622z"></path>
<path fill="#eb2030" d="M264.215 537.811l-1.29-1.29h-2.581l-1.29-1.29h-2.581l-1.29 1.29h-7.744l-1.29 1.29h-2.581l-1.29 1.29h-2.581l-1.29 1.29h-1.29l-3.871 3.871h-1.29l-1.29 1.29v1.29l-1.29 1.29v2.581l-1.29 1.29v2.581l1.29 2.581v2.581l1.29 1.29 2.581 1.29h1.29l1.29 1.29h5.163l2.581-1.29h3.871l2.581-1.29 1.29-1.29h2.581l3.871-3.871v-1.29l2.581-2.581v-1.29l1.29-1.29v-2.581l1.29-3.871v-2.581l1.29-2.581z"></path>
<path fill="#fff" d="M80.959 585.56h-27.101l23.23-129.055h46.459l3.871 76.141 32.263-76.141h47.751l-21.94 129.055h-27.101l16.777-96.791h-1.29l-40.007 96.791h-29.682v-5.163l-1.29-10.325v-15.486l-1.29-16.777-1.29-18.067v-15.486l-1.29-10.325v-5.163h-1.29l-16.777 96.791z"></path>
<path fill="#fff" d="M773.981 563.622l-5.163 21.94h-24.52l1.29-5.163v-6.452l-2.581 2.581-2.581 1.29-1.29 1.29-7.744 3.871-1.29 1.29h-3.871l-2.581 1.29h-2.581l-2.581 1.29h-7.744l-2.581-1.29h-3.871l-2.581-1.29-3.871-1.29-2.581-1.29-5.163-5.163-1.29-2.581-1.29-1.29-1.29-2.581v-2.581l-1.29-1.29v-16.777l1.29-3.871 1.29-2.581 1.29-3.871 2.581-2.581 1.29-2.581 5.163-5.163 2.581-1.29 2.581-2.581 3.871-1.29 5.163-2.581 3.871-1.29h7.744l1.29-1.29h28.392v-5.163l1.29-1.29-1.29-2.581v-1.29l-1.29-2.581-1.29-1.29-2.581-1.29h-1.29l-2.581-1.29h-20.648l-2.581 1.29h-6.452l-2.581 1.29h-5.163l-2.581 1.29h-1.29l-1.29 1.29h-1.29l6.452-23.23 2.581-1.29h2.581l1.29-1.29h2.581l2.581-1.29h7.744l2.581-1.29h21.94l2.581 1.29h6.452l5.163 2.581 3.871 1.29 2.581 1.29 5.163 5.163 2.581 1.29 1.29 2.581 2.581 3.871v2.581l1.29 3.871v7.744l-10.325 51.622z"></path>
<path fill="#fff" d="M768.818 585.56h1.29l3.871-21.94h-1.29l-3.871 20.648v1.29z"></path>
<path fill="#fff" d="M744.297 585.56v0h24.52v-1.29h-24.52l1.29 1.29h-1.29z"></path>
<path fill="#fff" d="M745.589 573.945l-1.29-1.29v12.904h1.29v-11.615z"></path>
<path fill="#fff" d="M708.163 586.852v0h12.904l2.581-1.29h3.871l7.744-3.871h1.29l2.581-1.29 6.452-6.452-1.29-1.29-1.29 2.581-3.871 3.871-5.163 2.581h-2.581l-5.163 2.581h-2.581l-2.581 1.29h-12.904v1.29z"></path>
<path fill="#fff" d="M683.641 557.17v0 3.871l1.29 2.581v3.871l2.581 5.163 1.29 1.29 1.29 2.581 1.29 1.29 1.29 2.581 7.744 3.871 7.744 2.581v-1.29l-3.871-1.29-10.325-5.163-5.163-5.163v-2.581l-1.29-1.29-1.29-2.581v-3.871l-1.29-2.581v-3.871h-1.29z"></path>
<path fill="#fff" d="M718.486 519.744v0h-2.581l-3.871 1.29-2.581 1.29-3.871 1.29-5.163 2.581-10.325 10.325-1.29 2.581-1.29 3.871-1.29 2.581-2.581 7.744v3.871h1.29v-3.871l2.581-7.744v-2.581l2.581-2.581 1.29-3.871 2.581-2.581 1.29-2.581 2.581-1.29 2.581-2.581 2.581-1.29 3.871-1.29 2.581-2.581h3.871l5.163-2.581z"></path>
<path fill="#fff" d="M739.136 517.163v0h-6.452l-2.581 1.29h-9.034l-1.29 1.29h9.034l1.29-1.29h9.034v-1.29z"></path>
<path fill="#fff" d="M752.041 518.452l1.29-1.29h-14.196v1.29h12.904z"></path>
<path fill="#fff" d="M753.331 512v0 5.163l-1.29 1.29h1.29v-1.29l1.29-1.29v-3.871h-1.29z"></path>
<path fill="#fff" d="M741.717 501.675v1.29h3.871l2.581 1.29 5.163 5.163v2.581h1.29v-2.581l-1.29-1.29-1.29-2.581-1.29-1.29-2.581-1.29-1.29-1.29h-2.581l-2.581-1.29v1.29z"></path>
<path fill="#fff" d="M700.419 506.837v1.29l1.29-1.29h1.29l1.29-1.29h2.581l2.581-1.29h5.163l2.581-1.29h9.034l3.871-1.29h11.615l-2.581-1.29h-9.034l-3.871 1.29h-9.034l-2.581 1.29h-5.163l-2.581 1.29h-2.581l-1.29 1.29h-1.29l-1.29 1.29z"></path>
<path fill="#fff" d="M706.871 482.318v1.29l-6.452 23.23 7.744-23.23h-1.29v-1.29z"></path>
<path fill="#fff" d="M750.751 478.445v0h-27.101l-2.581 1.29h-5.163l-2.581 1.29h-1.29l-2.581 1.29h-2.581v1.29h2.581l2.581-1.29h2.581l1.29-1.29h2.581l2.581-1.29h29.682v-1.29z"></path>
<path fill="#fff" d="M784.304 512v0-11.615l-1.29-2.581-1.29-3.871-5.163-5.163-1.29-2.581-3.871-1.29-5.163-2.581-3.871-1.29-2.581-1.29-3.871-1.29h-5.163v1.29h5.163l3.871 1.29 2.581 1.29h2.581l3.871 2.581 5.163 2.581 2.581 2.581 1.29 2.581 2.581 2.581 2.581 5.163v11.615h1.29z"></path>
<path fill="#fff" d="M773.981 563.622v0l10.325-51.622h-1.29l-10.325 51.622h1.29z"></path>
<path fill="#fbb22f" d="M749.46 537.811v-1.29h-2.581v-1.29h-5.163l-1.29 1.29h-7.744l-1.29 1.29h-2.581l-1.29 1.29h-1.29l-1.29 1.29h-1.29l-1.29 1.29h-1.29l-3.871 3.871v1.29l-1.29 1.29v2.581l-1.29 1.29v2.581l1.29 2.581v2.581l2.581 2.581h2.581l1.29 1.29h5.163l2.581-1.29h2.581l1.29-1.29h2.581l2.581-1.29 2.581-2.581h1.29l3.871-3.871v-2.581l1.29-1.29v-3.871l1.29-2.581v-5.163z"></path>
<path fill="#fff" d="M952.075 571.366v-5.163l5.163-5.163 5.163-2.581h5.163l7.744 3.871 1.29 2.581 1.29 1.29 1.29 2.581v2.581h-2.581l-1.29-1.29v-2.581l-1.29-1.29-1.29-2.581-2.581-2.581h-9.034l-2.581 1.29-1.29 1.29-1.29 2.581-1.29 1.29v3.871h-2.581z"></path>
<path fill="#fff" d="M959.818 571.366v-5.163h9.034l1.29 1.29v3.871h-2.581l1.29-1.29v-1.29l-1.29-1.29h-5.163v3.871h-2.581z"></path>
<path fill="#fff" d="M952.075 571.366l-1.29 1.29 1.29 2.581v2.581l1.29 2.581 2.581 1.29 1.29 1.29 5.163 2.581h5.163l7.744-3.871 1.29-1.29 2.581-5.163v-3.871h-2.581v1.29l-1.29 1.29v2.581l-1.29 2.581-3.871 3.871h-9.034l-2.581-1.29-2.581-2.581-1.29-2.581v-5.163h-2.581z"></path>
<path fill="#fff" d="M959.818 571.366v6.452h2.581v-5.163h2.581l2.581 5.163h2.581l-2.581-5.163h1.29l1.29-1.29h-10.325z"></path>
<path fill="#fff" d="M780.433 585.56h28.392l9.034-56.785 1.29-1.29v-2.581l1.29-2.581v-1.29l2.581-5.163 1.29-1.29 1.29-2.581 1.29-1.29 10.325-5.163h2.581l3.871-1.29h6.452l3.871-25.811-2.581 1.29h-5.163l-2.581 1.29h-1.29l-5.163 2.581-2.581 2.581-2.581 1.29-2.581 2.581-1.29 2.581-5.163 5.163 3.871-18.067h-28.392l-18.067 105.825z"></path>
<path fill="#fff" d="M521.034 585.56h28.392l9.034-56.785 1.29-1.29v-5.163l1.29-1.29v-2.581l2.581-2.581 1.29-2.581 1.29-1.29 2.581-1.29 1.29-1.29 2.581-1.29h2.581l3.871-1.29h2.581l3.871-1.29h1.29v1.29h2.581v-3.871l1.29-1.29v-2.581l1.29-3.871v-2.581l1.29-2.581 1.29-1.29v-2.581l2.581-2.581 1.29-2.581v-1.29h-1.29l-1.29-1.29h-1.29l-2.581 1.29h-5.163l-2.581 1.29h-2.581l-1.29 1.29-2.581 1.29-1.29 1.29-2.581 1.29-5.163 5.163-1.29 2.581-3.871 3.871 3.871-18.067h-28.392l-18.067 105.825z"></path>
<path fill="#fbb22f" d="M952.075 687.514v0-2.581l1.29-2.581 2.581-1.29 1.29-1.29 5.163-2.581h5.163l7.744 3.871 1.29 1.29 2.581 5.163h-3.871v-1.29l-1.29-2.581-3.871-3.871h-2.581l-2.581-1.29-2.581 1.29h-1.29l-2.581 1.29-2.581 2.581-1.29 2.581v1.29h-2.581z"></path>
<path fill="#fbb22f" d="M959.818 687.514v-2.581h9.034l1.29 1.29v1.29h-1.29v-1.29h-6.452v1.29h-2.581z"></path>
<path fill="#fbb22f" d="M950.785 690.096l1.29-2.581h2.581v2.581h-3.871z"></path>
<path fill="#fbb22f" d="M959.818 690.096v-2.581h2.581v2.581h5.163v-1.29h1.29v-1.29h1.29v2.581h-10.325z"></path>
<path fill="#fbb22f" d="M976.596 690.096l-1.29-2.581h3.871v2.581h-2.581z"></path>
<path fill="#fbb22f" d="M950.785 690.096v0l1.29 2.581v3.871l5.163 5.163 5.163 2.581h5.163l7.744-3.871 1.29-2.581 1.29-1.29 1.29-3.871v-2.581h-2.581l-1.29 2.581v2.581l-2.581 2.581-1.29 2.581h-1.29l-2.581 1.29h-5.163l-1.29-1.29h-2.581l-1.29-2.581-2.581-2.581v-5.163h-3.871z"></path>
<path fill="#fbb22f" d="M959.818 690.096v5.163h2.581v-3.871h2.581l2.581 3.871h2.581l-2.581-3.871h1.29v-1.29h-9.034z"></path>
<path fill="#fff" d="M524.904 510.71l-1.29-6.452-1.29-5.163-7.744-11.615-2.581-1.29-3.871-2.581-15.486-5.163h-15.486l-12.904 2.581-5.163 2.581-6.452 2.581-7.744 7.744-7.744 11.615-2.581 5.163-3.871 11.615v21.94l1.29 6.452 1.29 5.163 2.581 5.163 2.581 3.871 7.744 7.744 7.744 5.163 20.648 5.163h36.135l2.581-2.581 3.871-24.52-12.904 6.452h-15.486l-2.581 1.29h-12.904l-5.163-2.581-7.744-7.744v-3.871l-2.581-2.581v-5.163h63.237v-6.452l2.581-15.486 1.29-9.034zM497.804 519.744h-36.135v-6.452l1.29-2.581 11.615-11.615h10.325l10.325 10.325v7.744l2.581 2.581z"></path>
</svg>
