<?xml version="1.0" encoding="utf-8"?>
<!-- Generator: Adobe Illustrator 23.0.6, SVG Export Plug-In . SVG Version: 6.00 Build 0)  -->
<svg version="1.1" id="Layer_1" xmlns="http://www.w3.org/2000/svg" xmlns:xlink="http://www.w3.org/1999/xlink" x="0px" y="0px"
	 viewBox="0 0 30 30" style="enable-background:new 0 0 30 30;" xml:space="preserve">
<style type="text/css">
	.st0{fill:none;stroke:#E2E2E2;stroke-width:0.3723;stroke-linecap:round;stroke-linejoin:round;stroke-miterlimit:10;}
</style>
<g>
	<g>
		<line class="st0" x1="21.72" y1="10.86" x2="22.36" y2="10.22"/>
		<line class="st0" x1="19.43" y1="13.16" x2="21.06" y2="11.52"/>
		<path class="st0" d="M24.05,11.35c0.87-1.17,1.22-2.08,0.72-2.58c-0.78-0.78-2.54,0.51-4.75,2.59c-0.36,0.33-0.72,0.69-1.1,1.06
			c-0.21,0.2-0.41,0.41-0.63,0.62c0.06,0.02,0.12,0.06,0.17,0.11l1.93,1.93c0.05,0.05,0.09,0.11,0.11,0.17
			c0.25-0.25,0.5-0.5,0.74-0.75c0.84-0.86,1.6-1.67,2.22-2.4c0,0,0,0,0,0l0.05,0.05c0.17,0.17,0.4,0.37,0.23,0.54l-2.5,2.5
			l-0.02,0.02c-0.17,0.17-0.17,0.45,0,0.62c0,0,0.01,0.01,0.02,0.01c0.06,0.05,0.32,0.21,0.65-0.12l2.95-2.95
			c0.17-0.17,0.17-0.45,0-0.62L24.05,11.35z"/>
		<path class="st0" d="M17.93,13.68c-0.05-0.05-0.09-0.11-0.11-0.17c-2.75,2.78-4.63,5.45-4.53,6.39c0.01,0.1,0.04,0.19,0.1,0.25
			c0.06,0.06,0.14,0.09,0.25,0.1c0.94,0.09,3.61-1.78,6.39-4.53c-0.06-0.02-0.12-0.06-0.17-0.11L17.93,13.68z"/>
		<path class="st0" d="M17.89,13.1c-0.1,0.1-0.12,0.26-0.07,0.41c0.02,0.06,0.06,0.12,0.11,0.17l1.93,1.93
			c0.05,0.05,0.11,0.09,0.17,0.11c0.08,0.03,0.17,0.04,0.25,0.02c0.06-0.01,0.11-0.04,0.16-0.09c0.1-0.1,0.12-0.26,0.07-0.41
			c-0.02-0.06-0.06-0.12-0.11-0.17l-1.93-1.93c-0.05-0.05-0.11-0.09-0.17-0.11C18.15,12.98,17.99,13,17.89,13.1z"/>
		<line class="st0" x1="13.39" y1="20.14" x2="13" y2="20.54"/>
	</g>
	<path class="st0" d="M5,21.14c-0.07-0.56,0.64-1.95,1.31-1.98c0.71-0.03,0.33,1.73,0.41,2.3c0.6,0.02,0.75-1.89,1.54-2.16
		c0.08-0.03,0.17,0.02,0.2,0.1c0.22,0.66-0.13,2.1,0.92,1.17c0.34-0.3,0.92-0.81,1.43-0.72c0.57,0.1,0.22,0.6,0.41,1.01
		c0.26-0.17,0.46-0.98,0.89-0.88c0.21,0.05,0.17,0.39,0.27,0.5c0.17,0.2,0.2,0.18,0.54,0.13"/>
</g>
</svg>
