<!-- Generated by IcoMoon.io -->
<svg version="1.1" xmlns="http://www.w3.org/2000/svg" width="1024" height="1024" viewBox="0 0 1024 1024">
<title></title>
<g id="icomoon-ignore">
</g>
<path fill="#000" d="M620.683 347.866c62.104 95.375 35.489 224.020-59.886 288.341-95.375 62.104-224.020 35.489-288.341-59.886l59.886-39.924c39.924 62.104 124.209 79.848 186.313 39.924s79.848-124.209 39.924-186.313l62.104-42.142z"></path>
<path fill="#595a5c" d="M760.417 261.365c-62.104-95.375-190.748-124.209-288.341-59.886-95.375 62.104-124.209 190.748-59.886 288.341l59.886-37.707c-39.924-62.104-22.18-146.389 39.924-186.313s146.389-22.18 186.313 39.924l62.104-44.359z"></path>
<path fill="#000" d="M117.194 427.715c-8.872-217.365 159.696-401.461 377.062-410.331s401.461 159.696 410.331 377.062c8.872 217.365-159.696 401.461-377.062 410.331s-401.461-159.696-410.331-377.062zM527.527 775.944c201.838-8.872 359.317-179.659 350.445-381.499s-179.659-359.317-381.499-350.445c-201.838 8.872-359.317 179.659-350.445 381.499s179.659 359.317 381.499 350.445z"></path>
<path fill="#000" d="M556.359 889.062h24.397l-19.962 93.156h68.758l-4.435 19.962h-93.156l24.397-113.118z"></path>
<path fill="#000" d="M272.455 968.91c4.435 8.872 26.617 22.18 46.579 19.962 22.18 0 28.834-6.655 31.052-17.744 0-4.435 2.218-13.307-15.527-15.527l-28.834-2.218c-31.052-4.435-35.489-15.527-35.489-31.052 0-19.962 26.617-37.707 55.451-37.707 24.397 0 46.579 4.435 55.451 17.744l-17.744 11.090c-15.527-11.090-26.617-13.307-42.142-11.090-11.090 0-24.397 4.435-26.617 15.527-2.218 6.655-2.218 11.090 13.307 13.307l37.707 4.435c17.744 2.218 31.052 17.744 28.834 31.052-2.218 19.962-19.962 44.359-59.886 42.142-31.052-2.218-51.014-13.307-59.886-28.834l17.744-11.090z"></path>
<path fill="#000" d="M394.445 944.513c4.435-35.489 37.707-62.104 70.976-62.104 35.489 0 57.669 28.834 53.231 62.104-4.435 35.489-37.707 62.104-70.976 62.104-33.269 2.218-57.669-26.617-53.231-62.104zM452.114 986.654c22.18 0 42.142-17.744 46.579-39.924 2.218-22.18-13.307-39.924-35.489-39.924s-42.142 17.744-46.579 39.924c-2.218 22.18 13.307 39.924 35.489 39.924z"></path>
<path fill="#000" d="M645.080 944.513c4.435-35.489 37.707-62.104 70.976-62.104 35.489 0 57.669 28.834 53.231 62.104-4.435 35.489-37.707 62.104-70.976 62.104-35.489 2.218-57.669-26.617-53.231-62.104zM700.531 986.654c22.18 0 42.142-17.744 46.579-39.924 2.218-22.18-13.307-39.924-35.489-39.924s-44.359 17.744-46.579 39.924c-2.218 22.18 13.307 39.924 35.489 39.924z"></path>
</svg>
