<!-- Generated by IcoMoon.io -->
<svg version="1.1" xmlns="http://www.w3.org/2000/svg" width="1024" height="1024" viewBox="0 0 1024 1024">
<title></title>
<g id="icomoon-ignore">
</g>
<path fill="#0b67b2" d="M450.409 657.354h-75.141l46.809-290.707h75.141z"></path>
<path fill="#0b67b2" d="M311.214 366.646l-71.445 199.554-8.622-43.114-25.867-130.572c0 0-2.463-25.867-35.724-25.867h-119.486l-1.231 4.928c0 0 36.955 7.391 78.835 33.258l65.286 251.29h78.835l119.486-289.477h-80.067z"></path>
<path fill="#0b67b2" d="M904.949 657.354h68.982l-60.359-289.477h-60.359c-28.333 0-34.49 22.173-34.49 22.173l-112.095 268.536h78.835l16.013-43.114h96.081l7.391 41.88zM822.417 555.114l39.417-108.4 22.173 108.4h-61.591z"></path>
<path fill="#0b67b2" d="M711.554 436.859l11.085-62.822c0 0-33.258-12.32-67.75-12.32-36.955 0-126.877 16.013-126.877 96.081 0 75.141 104.704 76.373 104.704 114.559 0 39.417-93.617 32.026-124.413 7.391l-11.085 65.286c0 0 33.258 16.013 84.995 16.013s129.341-27.1 129.341-99.778c0-75.141-105.937-82.533-105.937-114.559s73.91-27.1 105.937-9.854z"></path>
<path fill="#faa634" d="M231.146 523.085l-25.867-130.572c0 0-2.463-25.867-35.724-25.867h-119.486l-1.231 4.928c0 0 56.662 12.32 112.095 56.662 52.968 41.88 70.213 94.849 70.213 94.849z"></path>
</svg>
