<?xml version="1.0" encoding="utf-8"?>
<!-- Generator: Adobe Illustrator 22.1.0, SVG Export Plug-In . SVG Version: 6.00 Build 0)  -->
<svg version="1.1" id="Layer_1" xmlns="http://www.w3.org/2000/svg" xmlns:xlink="http://www.w3.org/1999/xlink" x="0px" y="0px"
	 viewBox="0 0 100 100" style="enable-background:new 0 0 100 100;" xml:space="preserve">
<style type="text/css">
	.st0{fill-rule:evenodd;clip-rule:evenodd;fill:#FBAA28;}
	.st1{fill-rule:evenodd;clip-rule:evenodd;fill:#075FA0;}
</style>
<g>
	<path class="st0" d="M29.7,55c9.5-4.1,22.8-7.8,40.4-4.1l0.2-4.5c-18.6-2-32,3.9-40.6,8.1V55L29.7,55z"/>
	<g>
		<g>
			<polygon class="st1" points="12.4,58.2 21.3,58.2 21.3,60.9 15.8,60.9 15.7,63.4 21.3,63.4 21.3,66 15.7,66 15.7,68.5 21.2,68.5 
				21.2,71.2 12.4,71.2 12.4,58.2 			"/>
			<polygon class="st1" points="23.6,57.2 26.8,57.2 26.9,71.2 23.6,71.2 23.6,57.2 			"/>
			<path class="st1" d="M38,70.1c-1.1,0.9-2.8,1.4-4.3,1.4c-3.4,0-5-2.4-5-4.8c0-2.8,2.1-5.3,5.1-5.3c3.6,0,4.7,2.5,4.7,5.8H32
				c0,0.7,0.5,2,2.3,2c1.1,0,1.8-0.3,2.7-0.9L38,70.1L38,70.1z M35.6,65.3c0-1-0.5-1.9-1.6-1.9c-1,0-1.8,0.9-2,1.9H35.6L35.6,65.3z"
				/>
			<path class="st1" d="M48.4,70.6c-0.9,0.6-2.4,1-3.5,1c-3,0-5.1-1.7-5.1-4.8c0-3.2,2.1-5.3,5.4-5.3c1.1,0,2.5,0.4,3.2,0.8l-1,2.1
				c-0.5-0.2-1-0.4-1.5-0.4c-1.6,0-2.7,1-2.7,2.5c0,1.3,1,2.4,2.4,2.4c0.6,0,1.2-0.3,1.8-0.5L48.4,70.6L48.4,70.6z"/>
			<path class="st1" d="M49.6,61.8h1.5l0-3.2h3.1l-0.1,3.2h2.7l-0.1,2.4h-2.7c0,1.3-0.1,2.7-0.1,3.5c0,0.8,0.2,1.2,0.9,1.2
				c0.5,0,0.8-0.2,1.2-0.4l0.7,2.2c-1,0.6-2.1,0.9-3.2,0.9c-2.6,0-2.8-1.7-2.8-3.8c0-1.2,0.1-2.3,0.1-3.6h-1.4L49.6,61.8L49.6,61.8z
				"/>
			<path class="st1" d="M58.5,61.8h3.3v1.3h0c0.5-0.8,1.1-1.6,2.4-1.6c0.4,0,0.7,0,1.1,0.1l-0.4,3.2c-0.3-0.1-0.7-0.2-1.2-0.2
				c-1.1,0-1.9,0.9-1.9,1.1l-0.1,5.4h-3.3L58.5,61.8L58.5,61.8z"/>
			<path class="st1" d="M71.2,61.4c3.5,0,5.3,2.2,5.3,5.1c0,2.8-1.8,5.1-5.3,5.1c-3.5,0-5.3-2.2-5.3-5.1
				C65.9,63.6,67.7,61.4,71.2,61.4L71.2,61.4z M71.2,69.1c1.6,0,2-1.3,2-2.6c0-1.2-0.5-2.6-2-2.6c-1.6,0-2,1.3-2,2.6
				C69.1,67.7,69.6,69.1,71.2,69.1L71.2,69.1z"/>
			<path class="st1" d="M78.2,61.8h3.3v1c0.7-0.7,1.9-1.4,3.1-1.4c2,0,3.1,1.1,3.1,3.7c0,1.9,0,4,0,6.1h-3.3c0-1.8,0-3.6,0-5.6
				c0-0.8-0.2-1.4-1.2-1.4c-0.5,0-1.3,0.5-1.7,0.9l0,6.1h-3.3L78.2,61.8L78.2,61.8z"/>
		</g>
	</g>
	<g>
		<g>
			<polygon class="st1" points="41.3,42.3 45.4,28.8 49.1,28.8 45,42.3 41.3,42.3 			"/>
			<path class="st1" d="M39.7,28.8l-3.3,5.7c-0.8,1.5-1.3,2.3-1.6,3.2h0c0.1-1.2-0.1-2.7-0.1-3.5l-0.4-5.4h-6.2L28,29.1
				c1.6,0,2.5,0.8,2.8,2.4L32,42.3h3.8l7.7-13.6H39.7L39.7,28.8z"/>
			<path class="st1" d="M68.2,42.3l-0.1-2l-4.6,0l-0.9,2h-4l7.2-13.5h4.9L72,42.3H68.2L68.2,42.3z M67.8,34.3c0-1-0.1-2.4,0-3.2
				h-0.1c-0.2,0.7-1.2,2.7-1.6,3.7l-1.4,3H68L67.8,34.3L67.8,34.3z"/>
			<path class="st1" d="M53,42.7c-2.6,0-4.3-0.8-5.5-1.6l1.7-2.7c1.1,0.6,2,1.3,4,1.3c0.6,0,1.3-0.2,1.6-0.8
				c0.5-0.9-0.1-1.4-1.6-2.2l-0.7-0.5c-2.1-1.5-3-2.8-2-5.2c0.6-1.5,2.3-2.7,5.1-2.7c1.9,0,3.7,0.8,4.8,1.6l-2,2.4
				c-1-0.8-1.9-1.2-2.8-1.2c-0.8,0-1.4,0.3-1.6,0.7c-0.4,0.8,0.1,1.3,1.2,2l0.8,0.5c2.6,1.6,3.2,3.3,2.5,4.9
				C57.4,42.1,55.2,42.7,53,42.7L53,42.7z"/>
		</g>
	</g>
</g>
</svg>
