<?xml version="1.0" encoding="utf-8"?>
<!-- Generator: Adobe Illustrator 17.0.0, SVG Export Plug-In . SVG Version: 6.00 Build 0)  -->
<!DOCTYPE svg PUBLIC "-//W3C//DTD SVG 1.1//EN" "http://www.w3.org/Graphics/SVG/1.1/DTD/svg11.dtd">
<svg version="1.1" id="Layer_1" xmlns="http://www.w3.org/2000/svg" xmlns:xlink="http://www.w3.org/1999/xlink" x="0px" y="0px"
	 width="100px" height="100px" viewBox="0 0 100 100" enable-background="new 0 0 100 100" xml:space="preserve">
<path fill="#fff" d="M50,0C22.4,0,0,22.4,0,50c0,9.7,2.8,18.8,7.6,26.5L3.3,96.6l16.85-6.5l0,0C28.45,96.3,38.8,100,50,100c27.6,0,50-22.4,50-50
	S77.6,0,50,0z M49.7,21.1c3.95,0,7.2,3.2,7.2,7.2s-3.2,7.2-7.2,7.2c-3.95,0-7.2-3.2-7.2-7.2S45.7,21.1,49.7,21.1z M59.75,77.5H40V69
	h2.75V46.75H40v-8h2.95H57V69h2.75C59.75,69,59.75,77.5,59.75,77.5z"/>
</svg>
