<?xml version="1.0" encoding="utf-8"?>
<!-- Generator: Adobe Illustrator 24.1.3, SVG Export Plug-In . SVG Version: 6.00 Build 0)  -->
<svg version="1.1" id="Layer_1" xmlns="http://www.w3.org/2000/svg" xmlns:xlink="http://www.w3.org/1999/xlink" x="0px" y="0px"
	 viewBox="0 0 30 30" style="enable-background:new 0 0 30 30;" xml:space="preserve">
<g fill="#939393">
	<g>
		<g>
			<path d="M12,19c-3.86,0-7-3.14-7-7s3.14-7,7-7s7,3.14,7,7S15.86,19,12,19z M12,5.67c-3.49,0-6.33,2.84-6.33,6.33
				s2.84,6.33,6.33,6.33c3.49,0,6.33-2.84,6.33-6.33S15.49,5.67,12,5.67z"/>
		</g>
		<g>
			<path d="M24.67,25c-0.09,0-0.17-0.03-0.24-0.1l-7.95-7.95c-0.13-0.13-0.13-0.34,0-0.47c0.13-0.13,0.34-0.13,0.47,0l7.95,7.95
				c0.13,0.13,0.13,0.34,0,0.47C24.84,24.97,24.75,25,24.67,25z"/>
		</g>
	</g>
	<g>
		<g>
			<path d="M12,19c-3.86,0-7-3.14-7-7s3.14-7,7-7s7,3.14,7,7S15.86,19,12,19z M12,5.67c-3.49,0-6.33,2.84-6.33,6.33
				s2.84,6.33,6.33,6.33c3.49,0,6.33-2.84,6.33-6.33S15.49,5.67,12,5.67z"/>
		</g>
		<g>
			<path d="M24.67,25c-0.09,0-0.17-0.03-0.24-0.1l-7.95-7.95c-0.13-0.13-0.13-0.34,0-0.47c0.13-0.13,0.34-0.13,0.47,0l7.95,7.95
				c0.13,0.13,0.13,0.34,0,0.47C24.84,24.97,24.75,25,24.67,25z"/>
		</g>
	</g>
</g>
</svg>
