<?xml version="1.0" encoding="utf-8"?>
<!-- Generator: Adobe Illustrator 22.0.1, SVG Export Plug-In . SVG Version: 6.00 Build 0)  -->
<svg version="1.1" id="Layer_1" xmlns="http://www.w3.org/2000/svg" xmlns:xlink="http://www.w3.org/1999/xlink" x="0px" y="0px"
	 viewBox="0 0 47 47" style="enable-background:new 0 0 47 47;" xml:space="preserve">
<style type="text/css">
	.st0{fill:none;}
	.st1{fill:#a6bbd1;}
	.st2{fill:#E7B402;}
</style>
<g>
	<path class="st0" d="M39,6.3c-3.5,0-6.3,2.8-6.3,6.3S35.5,19,39,19c3.5,0,6.3-2.8,6.3-6.3S42.5,6.3,39,6.3z M39.7,16.6
		c0,0.3-0.3,0.5-0.6,0.5c-0.4,0-0.6-0.2-0.6-0.5v-4.9c0-0.3,0.3-0.5,0.6-0.5c0.4,0,0.6,0.2,0.6,0.5V16.6z M39.8,9.9
		c-0.4,0.4-1,0.4-1.4,0c-0.2-0.2-0.3-0.5-0.3-0.7c0-0.3,0.1-0.5,0.3-0.7c0.2-0.2,0.5-0.3,0.7-0.3c0.3,0,0.5,0.1,0.7,0.3
		C39.9,8.7,40,9,40,9.3C40,9.5,39.9,9.8,39.8,9.9z"/>
	<path class="st1" d="M39.3,23.1c0,0.1,0,0.3,0,0.4c0,8.7-7.1,15.8-15.8,15.8c-8.7,0-15.8-7.1-15.8-15.8c0-8.7,7.1-15.8,15.8-15.8
		c1.7,0,3.4,0.3,4.9,0.8c0.2-0.4,0.3-0.7,0.5-1c-1.7-0.6-3.5-0.9-5.5-0.9c-9.4,0-17,7.6-17,17c0,9.4,7.6,17,17,17
		c9.4,0,17-7.6,17-17c0-0.2,0-0.4,0-0.7C40.1,22.9,39.7,23,39.3,23.1z"/>
	<path class="st1" d="M23.5,13.3c-3.4,0-6.3,2.1-6.6,4.9c-0.1,0.9-0.2,1.6,0,2.9l0,0.4c0.1,1.1,0.3,2.6,0.5,3.5c0,0.1,0.7,3,2.2,4.1
		c0.2,0.8,0.2,1.7,0.1,1.9c-0.5,0.5-3.3,1.1-5.6,1.4c-0.4,0-0.6,0.4-0.6,0.7c0,0.3,0.3,0.6,0.6,0.6c0,0,0,0,0.1,0
		c1.3-0.1,5.4-0.7,6.4-1.9c0.7-0.8,0.3-2.6,0.1-3.3c0-0.2-0.2-0.3-0.3-0.4c-0.7-0.4-1.5-2-1.8-3.4c-0.2-0.9-0.4-2.3-0.5-3.3l0-0.4
		c-0.1-1.2-0.1-1.8,0-2.6c0.3-2.2,2.6-3.8,5.4-3.8s5.1,1.6,5.4,3.8c0.1,0.8,0.1,1.4,0,2.6l0,0.4c-0.1,1-0.3,2.5-0.5,3.3
		c-0.3,1.3-1.1,3-1.8,3.4c-0.2,0.1-0.3,0.2-0.3,0.4c-0.2,0.7-0.5,2.5,0.1,3.3c1,1.2,5.2,1.7,6.4,1.9c0.3,0,0.7-0.2,0.7-0.6
		c0-0.4-0.2-0.7-0.6-0.7c-2.3-0.3-5.1-0.9-5.6-1.4c-0.1-0.2-0.1-1.1,0.1-1.9c1.5-1,2.2-4,2.2-4.1c0.2-0.9,0.4-2.4,0.5-3.5l0-0.4
		c0.1-1.3,0.1-2,0-2.9C29.8,15.4,26.9,13.3,23.5,13.3z"/>
	<path class="st2" d="M39,5.2c-4.1,0-7.5,3.4-7.5,7.5s3.4,7.5,7.5,7.5c4.1,0,7.5-3.4,7.5-7.5S43.2,5.2,39,5.2z M39,19
		c-3.5,0-6.3-2.8-6.3-6.3s2.8-6.3,6.3-6.3c3.5,0,6.3,2.8,6.3,6.3S42.5,19,39,19z"/>
	<path class="st2" d="M39,11.2c-0.4,0-0.6,0.2-0.6,0.5v4.9c0,0.3,0.3,0.5,0.6,0.5c0.4,0,0.6-0.2,0.6-0.5v-4.9
		C39.7,11.4,39.4,11.2,39,11.2z"/>
	<path class="st2" d="M39,8.3c-0.3,0-0.5,0.1-0.7,0.3c-0.2,0.2-0.3,0.4-0.3,0.7c0,0.3,0.1,0.5,0.3,0.7c0.4,0.4,1,0.4,1.4,0
		C39.9,9.8,40,9.5,40,9.3c0-0.3-0.1-0.5-0.3-0.7C39.5,8.4,39.3,8.3,39,8.3z"/>
</g>
</svg>
