<?xml version="1.0" encoding="utf-8"?>
<!-- Generator: Adobe Illustrator 22.0.1, SVG Export Plug-In . SVG Version: 6.00 Build 0)  -->
<svg version="1.1" id="Layer_1" xmlns="http://www.w3.org/2000/svg" xmlns:xlink="http://www.w3.org/1999/xlink" x="0px" y="0px"
	 viewBox="0 0 47 47" style="enable-background:new 0 0 47 47;" xml:space="preserve">
<style type="text/css">
	.st0{fill:none;}
	.st1{fill:#FF8B8B;}
	.st2{fill:#a6bbd1;}
</style>
<g>
	<path class="st0" d="M42.8,8.2c0-2.1-1.9-4-4-4c-2.1,0-4,1.7-4,3.7v0.9h8V8.2z"/>
	<path class="st0" d="M33.6,9.9v8h10.3v-8h-0.6h-9.2H33.6z M38.8,11.1c0.9,0,1.7,0.8,1.7,1.7c0,0.7-0.5,1.4-1.1,1.6v1.8
		c0,0.3-0.3,0.6-0.6,0.6s-0.6-0.3-0.6-0.6v-1.8c-0.7-0.2-1.1-0.9-1.1-1.6C37.1,11.8,37.8,11.1,38.8,11.1z"/>
	<path class="st1" d="M42.8,9.3V8.8h-8v0.6c0,0.3-0.3,0.6-0.6,0.6h9.2C43,9.9,42.8,9.7,42.8,9.3z"/>
	<path class="st1" d="M44.5,8.8h-0.6v0.6c0,0.3-0.3,0.6-0.6,0.6h0.6v8H33.6v-8h0.6c-0.3,0-0.6-0.3-0.6-0.6V8.8h-0.6
		c-0.3,0-0.6,0.3-0.6,0.6v9.2c0,0.3,0.3,0.6,0.6,0.6h11.4c0.3,0,0.6-0.3,0.6-0.6V9.3C45.1,9,44.8,8.8,44.5,8.8z"/>
	<path class="st1" d="M38.2,14.4v1.8c0,0.3,0.3,0.6,0.6,0.6s0.6-0.3,0.6-0.6v-1.8c-0.2,0.1-0.4,0.1-0.6,0.1S38.4,14.5,38.2,14.4z"/>
	<path class="st1" d="M38.8,13.4c0.3,0,0.6-0.3,0.6-0.6c0-0.3-0.3-0.6-0.6-0.6s-0.6,0.3-0.6,0.6C38.2,13.1,38.5,13.4,38.8,13.4z"/>
	<path class="st1" d="M34.2,9.9c0.3,0,0.6-0.3,0.6-0.6V8.8V7.9c0-2,1.9-3.7,4-3.7c2.1,0,4,1.9,4,4v0.6v0.6c0,0.3,0.3,0.6,0.6,0.6
		c0.3,0,0.6-0.3,0.6-0.6V8.8V8.2c0-2.7-2.5-5.1-5.1-5.1c-2.7,0-5.1,2.3-5.1,4.9v0.9v0.6C33.6,9.7,33.9,9.9,34.2,9.9z"/>
	<path class="st1" d="M38.2,14.4c0.2,0.1,0.4,0.1,0.6,0.1s0.4,0,0.6-0.1c0.7-0.2,1.1-0.9,1.1-1.6c0-0.9-0.8-1.7-1.7-1.7
		s-1.7,0.8-1.7,1.7C37.1,13.5,37.5,14.2,38.2,14.4z M38.8,12.2c0.3,0,0.6,0.3,0.6,0.6c0,0.3-0.3,0.6-0.6,0.6s-0.6-0.3-0.6-0.6
		C38.2,12.5,38.5,12.2,38.8,12.2z"/>
	<path class="st2" d="M39.3,23.1c0,0.1,0,0.3,0,0.4c0,8.7-7.1,15.8-15.8,15.8c-8.7,0-15.8-7.1-15.8-15.8c0-8.7,7.1-15.8,15.8-15.8
		c1.7,0,3.4,0.3,4.9,0.8c0.2-0.4,0.3-0.7,0.5-1c-1.7-0.6-3.5-0.9-5.5-0.9c-9.4,0-17,7.6-17,17c0,9.4,7.6,17,17,17
		c9.4,0,17-7.6,17-17c0-0.2,0-0.4,0-0.7C40.1,22.9,39.7,23,39.3,23.1z"/>
	<path class="st2" d="M23.5,13.3c-3.4,0-6.3,2.1-6.6,4.9c-0.1,0.9-0.2,1.6,0,2.9l0,0.4c0.1,1.1,0.3,2.6,0.5,3.5c0,0.1,0.7,3,2.2,4.1
		c0.2,0.8,0.2,1.7,0.1,1.9c-0.5,0.5-3.3,1.1-5.6,1.4c-0.4,0-0.6,0.4-0.6,0.7c0,0.3,0.3,0.6,0.6,0.6c0,0,0,0,0.1,0
		c1.3-0.1,5.4-0.7,6.4-1.9c0.7-0.8,0.3-2.6,0.1-3.3c0-0.2-0.2-0.3-0.3-0.4c-0.7-0.4-1.5-2-1.8-3.4c-0.2-0.9-0.4-2.3-0.5-3.3l0-0.4
		c-0.1-1.2-0.1-1.8,0-2.6c0.3-2.2,2.6-3.8,5.4-3.8s5.1,1.6,5.4,3.8c0.1,0.8,0.1,1.4,0,2.6l0,0.4c-0.1,1-0.3,2.5-0.5,3.3
		c-0.3,1.3-1.1,3-1.8,3.4c-0.2,0.1-0.3,0.2-0.3,0.4c-0.2,0.7-0.5,2.5,0.1,3.3c1,1.2,5.2,1.7,6.4,1.9c0.3,0,0.7-0.2,0.7-0.6
		c0-0.4-0.2-0.7-0.6-0.7c-2.3-0.3-5.1-0.9-5.6-1.4c-0.1-0.2-0.1-1.1,0.1-1.9c1.5-1,2.2-4,2.2-4.1c0.2-0.9,0.4-2.4,0.5-3.5l0-0.4
		c0.1-1.3,0.1-2,0-2.9C29.8,15.4,26.9,13.3,23.5,13.3z"/>
</g>
</svg>
