<?xml version="1.0" encoding="utf-8"?>
<!-- Generator: Adobe Illustrator 22.0.1, SVG Export Plug-In . SVG Version: 6.00 Build 0)  -->
<svg version="1.1" id="Layer_1" xmlns="http://www.w3.org/2000/svg" xmlns:xlink="http://www.w3.org/1999/xlink" x="0px" y="0px"
	 viewBox="0 0 60 60" style="enable-background:new 0 0 60 60;" xml:space="preserve">
<g>
	<path d="M40.1,51c-2.5,0-11.4-0.9-22.3-11.8C6.9,28.3,6,19.3,6,16.9C6,12.8,11.2,7,12.6,7h3c0.4,0,0.8,0.2,0.9,0.6L20.8,18
		c0.2,0.4,0,0.9-0.3,1.2c-4.1,3.1-5.5,4.1-5.5,5.6C15,28.1,28.9,42,32.2,42c1.6,0,2.6-1.4,5.7-5.5c0.3-0.4,0.8-0.5,1.2-0.3l10.2,4.4
		c0.4,0.2,0.6,0.5,0.6,0.9v3C50,45.8,44.2,51,40.1,51z"/>
	<polygon points="49.4,10.4 46.6,7.6 34,20.2 34,11 30,11 30,27 46,27 46,23 36.8,23 	"/>
</g>
</svg>
