<?xml version="1.0" encoding="utf-8"?>
<!-- Generator: Adobe Illustrator 22.0.1, SVG Export Plug-In . SVG Version: 6.00 Build 0)  -->
<svg version="1.1" id="Layer_1" xmlns="http://www.w3.org/2000/svg" xmlns:xlink="http://www.w3.org/1999/xlink" x="0px" y="0px"
	 viewBox="0 0 60 60" style="enable-background:new 0 0 60 60;" xml:space="preserve">
<g>
	<path d="M42.1,52c-2.5,0-11.4-0.9-22.3-11.8C8.9,29.3,8,20.3,8,17.9C8,13.8,13.2,8,14.6,8h3c0.4,0,0.8,0.2,0.9,0.6L22.8,19
		c0.2,0.4,0,0.9-0.3,1.2c-4.1,3.1-5.5,4.1-5.5,5.6C17,29.1,30.9,43,34.2,43c1.6,0,2.6-1.4,5.7-5.5c0.3-0.4,0.8-0.5,1.2-0.3l10.2,4.4
		c0.4,0.2,0.6,0.5,0.6,0.9v3C52,46.8,46.2,52,42.1,52z"/>
	<polygon points="36,8 36,12 45.2,12 32.6,24.6 35.4,27.4 48,14.8 48,24 52,24 52,8 	"/>
</g>
</svg>
