<?xml version="1.0" encoding="utf-8"?>
<svg version="1.2" baseProfile="tiny" id="Layer_1" xmlns="http://www.w3.org/2000/svg" xmlns:xlink="http://www.w3.org/1999/xlink" x="0px" y="0px" viewBox="0 0 1000 2200" overflow="scroll" xml:space="preserve">
<style type="text/css">
	.st1{fill:#4DAC4C;}
	.st2{fill:#4DAC4C; font-family: Arial; font-size:600px; font-weight: bold;}
	.st2.static{transform: translateY(23px);}
</style>
<g>
	<path class="st1" d="M383.2,944.7c234.6,62.8,476.9-77,539.7-311.6c0.7-2.7,1.2-5.4,1.4-8.1l62.3,0c5.2,0,10.4-1.3,15-4
		c14.4-8.3,19.2-26.7,10.9-41.1L909.4,401.4c-5.6-9.8-16.1-15.6-27.5-15c-10.2,0.6-19.4,6.1-24.6,15L754.5,579.9
		c-2.7,4.6-4,9.8-4,15c0,16.5,13.4,30.1,30,30.1l53.7,0c-56.5,180-244.5,284.6-428.5,235.2c-188.9-50.7-300.5-243.8-249.8-432.7
		c50.9-188.9,243.8-300.3,432.9-249.8c59.9,16.1,114.6,47.6,158.4,91.4c16.7,17.3,44.3,17.7,61.8,1c17.3-16.7,17.7-44.3,1-61.8
		c-0.4-0.4-0.6-0.6-1-1c-54.7-54.7-122.9-94.1-197.6-114c-36.9-9.6-73.5-14.6-110-14.8C305.4,76.7,124.6,207.1,71.6,405
		C8.8,639.6,148.6,881.9,383.2,944.7z"/>
		<animateTransform  accumulate="none" additive="replace" attributeName="transform" attributeType="XML" calcMode="linear" dur="1s" fill="remove" from="360 489 523" repeatCount="indefinite" restart="always" to="0 489 523" type="rotate">
		</animateTransform>
</g>
<text class="st2" transform="matrix(1 0 0 1 320 760)" fill="#4DAC4C" font-family="'Arial-BoldMT'" font-size="600px">$</text>
<g>
	<path class="st1" d="M606.8,1210.3c-234.6-62.8-476.9,77-539.7,311.6c-0.7,2.7-1.2,5.4-1.4,8.1H3.4c-5.2,0-10.4,1.3-15,4
		c-14.4,8.3-19.2,26.7-10.9,41.1l103.1,178.5c5.6,9.8,16.1,15.6,27.5,15c10.2-0.6,19.4-6.1,24.6-15l102.8-178.5c2.7-4.6,4-9.8,4-15
		c0-16.5-13.4-30.1-30-30.1h-53.7c56.5-180,244.5-284.6,428.5-235.2c188.9,50.7,300.5,243.8,249.8,432.7
		c-50.9,188.9-243.8,300.3-432.9,249.8c-59.9-16.1-114.6-47.6-158.4-91.4c-16.7-17.3-44.3-17.7-61.8-1c-17.3,16.7-17.7,44.3-1,61.8
		c0.4,0.4,0.6,0.6,1,1c54.7,54.7,122.9,94.1,197.6,114c36.9,9.6,73.5,14.6,110,14.8c196,1.8,376.8-128.6,429.8-326.5
		C981.2,1515.4,841.4,1273.1,606.8,1210.3z"/>
</g>
<text class="st2" transform="matrix(1 0 0 1 320 1860)" fill="#4DAC4C" font-family="'Arial-BoldMT'" font-size="600px">$</text>
</svg>
