<?xml version="1.0" encoding="utf-8"?>
<!-- Generator: Adobe Illustrator 20.0.0, SVG Export Plug-In . SVG Version: 6.00 Build 0)  -->
<svg version="1.1" id="Layer_1" xmlns="http://www.w3.org/2000/svg" xmlns:xlink="http://www.w3.org/1999/xlink" x="0px" y="0px"
	 viewBox="0 0 60 60" style="enable-background:new 0 0 60 60;" xml:space="preserve">
<style type="text/css">
	.st0{fill:#fff;}
</style>
<path class="st0" d="M46.2,22.1c0-0.4-0.2-0.8-0.6-1c-0.4-0.2-0.8-0.1-1.1,0.2l-3.5,3.5l-1.1-1.1l-3.5-3.5l-1.1-1.1l3.5-3.5
	c0.3-0.3,0.4-0.7,0.2-1.1c-0.2-0.4-0.5-0.6-1-0.6c-2.1,0-4.1,0.8-5.7,2.4c-2.5,2.5-3,6.2-1.7,9.2L17.7,36.5L16.2,38
	c-1.6,1.6-1.6,4.2,0,5.8c1.6,1.6,4.2,1.6,5.8,0l1.5-1.5l11.1-12.9c3,1.4,6.7,0.8,9.2-1.7C45.4,26.2,46.2,24.2,46.2,22.1z M20.6,42.3
	c-0.8,0.8-2.1,0.8-2.9,0c-0.8-0.8-0.8-2.1,0-2.9c0.8-0.8,2.1-0.8,2.9,0C21.4,40.2,21.4,41.5,20.6,42.3z"/>
</svg>
