<svg id="Layer_1" data-name="Layer 1" xmlns="http://www.w3.org/2000/svg" viewBox="0 0 80.01 16.06"><defs><style>.cls-1{fill:#08897d;}</style></defs><title>ABC</title><g id="main"><path id="logo" class="cls-1" d="M19.78,42.16V47a.36.36,0,0,1-.32.32h-.93a.36.36,0,0,0-.36.36v2.5a.35.35,0,0,1,.33-.35h1.84a.35.35,0,0,0,.28-.19h0s0,0,0,0,0,0,0,0,0,0,0,0a.07.07,0,0,1,0-.05V44.4a6.25,6.25,0,0,1-1.79,11.82v-3.5h1.45a.36.36,0,0,0,.32-.35v-2.5a.36.36,0,0,1-.36.36H18.53a.36.36,0,0,0-.36.36v2.14h-.36V50.59a.36.36,0,0,0-.36-.36H15.67a.36.36,0,0,1-.36-.36v2.5a.34.34,0,0,0,.32.35h1.45v3.5A6.25,6.25,0,0,1,15.29,44.4v5.11h0v.05s0,0,0,0,0,0,0,0l0,0h0a.37.37,0,0,0,.28.19h1.84a.36.36,0,0,1,.33.35v-2.5a.36.36,0,0,0-.36-.36h-.89a.36.36,0,0,1-.32-.32V42.18A8,8,0,0,0,18,58h0a8,8,0,0,0,1.76-15.87M18.7,42c-.22,0-.45,0-.67,0h0c-.22,0-.43,0-.65,0l-.25,0v4.56a.41.41,0,0,0,.41.41h1a.41.41,0,0,0,.41-.41V42H18.7" transform="translate(-9.99 -41.97)"/><path id="zhong" d="M36.28,47.46H34.51v-2h1.77Zm-3.19,0H31.43v-2h1.66Zm4.81-1.93c.11-.1.16-.18.16-.24s-.19-.29-.58-.53l-.39-.24a.66.66,0,0,0-.35-.14c-.07,0-.15.08-.25.21l-.34.45H34.51V43.7l.21-.15a.31.31,0,0,0,.14-.17.22.22,0,0,0,0-.19c0-.07-.29-.15-.74-.25l-.78-.16c-.12,0-.2,0-.24,0a.32.32,0,0,0,0,.23l.08,1.06V45H31.62l-1.2-.62a.63.63,0,0,0-.3-.1.18.18,0,0,0-.1.07l.05.75v2.38l-.06,1a.41.41,0,0,0,0,.21s.21.07.53.06a1,1,0,0,0,.66-.19.48.48,0,0,0,.19-.32v-.38h1.67v1.6L33,51a.4.4,0,0,0,.09.21c0,.06.17.09.36.11a1.43,1.43,0,0,0,.59-.06,1,1,0,0,0,.37-.19.91.91,0,0,0,.15-.23l-.06-1.28V47.87h1.77v.34a.82.82,0,0,0,.06.38.41.41,0,0,0,.29.12,1.42,1.42,0,0,0,.5-.05,1.09,1.09,0,0,0,.44-.16.51.51,0,0,0,.15-.21l-.06-.9V45.75" transform="translate(-9.99 -41.97)"/><path id="guo" d="M46.62,49.82H41.69V43.91h4.92v5.91Zm1.62-6.09s-.09-.16-.28-.31a3.42,3.42,0,0,0-.72-.43.42.42,0,0,0-.24-.05.45.45,0,0,0-.2.17l-.3.39H41.8l-1-.52a.61.61,0,0,0-.28-.09.27.27,0,0,0-.08.07l0,1.29v5.23l0,1.35a.24.24,0,0,0,.09.14.46.46,0,0,0,.23.06,1.22,1.22,0,0,0,.81-.1.42.42,0,0,0,.17-.27v-.44h4.92v.43a.43.43,0,0,0,.08.31.62.62,0,0,0,.36.12,1.25,1.25,0,0,0,.54-.06.93.93,0,0,0,.34-.17.57.57,0,0,0,.1-.27L48,49.44V44.06c.16-.15.25-.26.25-.33m-6,5.1-.55,0,.1.12.23.32.54,0,3.87,0a.23.23,0,0,0,.12-.33.88.88,0,0,0-.19-.24,3.89,3.89,0,0,0-.43-.38c-.08-.06-.14-.09-.18-.08a.25.25,0,0,0-.12.07l-.2.25-.26.32h-.72v-2h0s0,0,0,0a.15.15,0,0,0,.06.13l.16.13a.72.72,0,0,1,.19.4,3.42,3.42,0,0,0,.07.35.34.34,0,0,0,.15.17.7.7,0,0,0,.4.09.48.48,0,0,0,.43-.27.58.58,0,0,0,.06-.33.78.78,0,0,0-.25-.43,1.12,1.12,0,0,0-.62-.25h1a.24.24,0,0,0,.14-.26.59.59,0,0,0,0-.08,4.55,4.55,0,0,0-.55-.46c-.12-.09-.22-.13-.29-.11s-.24.18-.5.51h-.47V45.17l0,0,1.83,0a.23.23,0,0,0,.12-.33.69.69,0,0,0-.13-.17,4.38,4.38,0,0,0-.6-.49q-.15-.11-.21-.09a.37.37,0,0,0-.18.15c-.08.09-.19.26-.36.5H42.52l-.7,0L42,45l.14.19.54,0h.64v1.35h-.79l-.65-.06.25.32h0l.09.13.51,0h.58v2H43" transform="translate(-9.99 -41.97)"/><path id="nong" d="M55.09,44.81c0,.11,0,.27.1.46s.13.49.22.78a7.41,7.41,0,0,0,.53,1.15,8.11,8.11,0,0,0,.77-1l.1-.19c.09-.17.16-.25.21-.26a.31.31,0,0,1,.18,0l.24.18a2.42,2.42,0,0,0,.41.3,1.51,1.51,0,0,1,.37.31c.09.1.11.18.09.23s-.21.09-.51.08c-.64.26-1.19.46-1.64.62.1.16.23.34.39.55a3.87,3.87,0,0,0,.79.72,4.35,4.35,0,0,0,1,.59l.25.09.29.05a.16.16,0,0,1,.08.12.12.12,0,0,1,0,.11l-.24.09-.2.07-.23.1a1.45,1.45,0,0,0-.21.16,1.24,1.24,0,0,0-.2.21,1.1,1.1,0,0,0-.14.27c0,.12-.09.19-.12.2s-.11,0-.21-.09l-.24-.16a3.67,3.67,0,0,1-.41-.33c-.17-.15-.32-.3-.45-.44a5.53,5.53,0,0,1-.5-.72,6.5,6.5,0,0,1-.54-1.18A7.82,7.82,0,0,1,55,46.58c-.06-.4-.1-.72-.12-.95s0-.44,0-.61c0,.12-.09.25-.15.4A9.85,9.85,0,0,1,54,46.51c.19.09.28.18.29.25s-.1.17-.32.28v2.41l1.19-.59.15-.08c.11-.06.19-.07.25,0a.11.11,0,0,1,.05.14.24.24,0,0,1-.08.13l-.09.08-1.68,1.63-.44.44c-.1.07-.17.1-.22.08s-.09-.07-.15-.17l-.24-.4-.18-.36a.51.51,0,0,1-.07-.26.22.22,0,0,1,.12-.16c.07,0,.11-.08.11-.11V48a13.79,13.79,0,0,1-1.3.93c-.39.24-.64.39-.75.44l-.18.09a.33.33,0,0,1-.17,0,.34.34,0,0,1-.18-.07c-.05,0,0-.14.2-.29l.14-.11c.13-.1.25-.19.35-.28a9.29,9.29,0,0,0,.71-.76q.55-.63.81-1a7.37,7.37,0,0,0,.57-1,6.7,6.7,0,0,0,.4-.85l.16-.43H52.23c0,.12,0,.25,0,.38a1,1,0,0,1-.13.52.84.84,0,0,1-.56.4.59.59,0,0,1-.64-.13.68.68,0,0,1-.22-.49.71.71,0,0,1,.22-.48l.38-.33a1.25,1.25,0,0,0,.19-.35l0-.12v-.27a.15.15,0,0,1,.09-.1s.1,0,.17.05l.09.12.12.19.09.19h1.55c0-.08,0-.16.07-.25s.08-.38.13-.76l0-.32a.73.73,0,0,1,.06-.27s.12,0,.28,0l.53.11a3.18,3.18,0,0,1,.71.2c.16.07.23.15.23.22s-.11.16-.31.31l-.32.72h1.59A3.13,3.13,0,0,1,57,44a.39.39,0,0,1,.19-.1.48.48,0,0,1,.29.12,7.08,7.08,0,0,1,.83.64.43.43,0,0,1,.15.3c0,.18-.13.27-.36.29h-.41a1.38,1.38,0,0,0-.92.35l-.24.2c-.13.11-.22.14-.26.1s0-.11,0-.21l.11-.27c.05-.11.13-.32.25-.64" transform="translate(-9.99 -41.97)"/><path id="ye" d="M61.38,45.44l-.11-.21a.29.29,0,0,1,0-.16A.11.11,0,0,1,61.3,45a.14.14,0,0,1,.14,0l.16.14.17.19c.26.3.47.55.63.77A7.81,7.81,0,0,1,63,47a2.34,2.34,0,0,1,.29,1.27A1.23,1.23,0,0,1,63,49a.73.73,0,0,1-.54.31.64.64,0,0,1-.52-.17.7.7,0,0,1-.24-.43,2.63,2.63,0,0,1,0-.66,5.3,5.3,0,0,0,.07-.7,5.07,5.07,0,0,0-.06-.7,2.4,2.4,0,0,0-.09-.41c0-.09-.07-.22-.14-.41s-.11-.31-.13-.35m-.69,5h0l2.64,0V44.33l-.07-1.22,0-.06a.35.35,0,0,1,.19,0l.4.08.41.11c.32.08.49.17.51.28s-.08.22-.29.38v6.6h.53v-6.2L65,43.12c0-.06.11-.08.23-.07a6.78,6.78,0,0,1,.87.18c.33.09.51.19.53.29s-.1.24-.35.37V48.8c.11-.29.23-.61.35-1s.21-.67.28-.91.13-.51.2-.81.12-.53.15-.69l.06-.32,0-.25c.05-.07.16-.05.34,0l.44.21.5.28c.29.17.42.31.37.44s-.13.14-.33.22l-.43.77q-.22.39-.6.93c-.25.36-.71,1-1.36,1.88v.91h.79c.23-.28.41-.51.53-.69s.23-.27.32-.28a.61.61,0,0,1,.35.14l.36.29.31.29a.58.58,0,0,1,.18.29c0,.14,0,.28-.12.31l-7.44,0-.56,0-.22-.27" transform="translate(-9.99 -41.97)"/><path id="yin" d="M75.9,45.27h1.73v1.1H75.9Zm0,4.18V46.78h.65l0,.29c0,.4.06.67.08.83s.06.33.11.54v0c0,.22.11.45.17.67-.24.08-.7.23-1,.32m0-5.57h1.73v1H75.9Zm3.73,6-.25-.11a3,3,0,0,1-1-.63c-.21-.22-.38-.41-.52-.59a5,5,0,0,0,.85-.42L79,47.9c.31,0,.46-.11.48-.2s0-.1-.1-.17a1.26,1.26,0,0,0-.36-.21l-.44-.19a.74.74,0,0,0-.3-.08.19.19,0,0,0-.1,0l0,.12-.06.16a2.4,2.4,0,0,1-.16.3,2.53,2.53,0,0,1-.21.32l-.18.19-.24-.49a6,6,0,0,1-.24-.91h.55v0c0,.12.1.18.29.21a1.5,1.5,0,0,0,.37,0,.79.79,0,0,0,.36-.09.52.52,0,0,0,.19-.22l0-.95V44c.18-.17.27-.28.27-.35s0-.09-.14-.16-.3-.21-.62-.41A.75.75,0,0,0,78,43a.38.38,0,0,0-.23.19l-.2.27H75.93l-.69-.34C75,43,74.88,43,74.84,43a.28.28,0,0,0-.08.06l0,1v3.2a2.51,2.51,0,0,0-.37-.4c-.17-.15-.28-.23-.34-.22a.29.29,0,0,0-.16.09l-.16.19a3,3,0,0,1-.27.3h-.14v-.94a.77.77,0,0,0,.18-.18h.88c.09,0,.15,0,.17-.07a.22.22,0,0,0,0-.18,2.56,2.56,0,0,0-.31-.33,1,1,0,0,0-.31-.23.25.25,0,0,0-.19.08,1.37,1.37,0,0,0-.19.21,2.76,2.76,0,0,1-.23.27H71.77c.25-.3.49-.62.74-1h0l1.48,0,.55,0a.22.22,0,0,0,.11-.32h0a2.26,2.26,0,0,0-.43-.47c-.11-.1-.19-.15-.25-.14a.51.51,0,0,0-.21.15l-.37.44-.67,0a9.84,9.84,0,0,0,.49-.86c.23-.08.34-.15.34-.23s-.26-.26-.78-.42l-.38-.12c-.19-.07-.31-.06-.35,0l0,.19-.05.25c0,.13-.09.37-.19.72s-.2.69-.32,1a7.85,7.85,0,0,1-.41,1l-.13.24a.24.24,0,0,0,0,.12.08.08,0,0,0,.1.06.17.17,0,0,0,.11-.06l.16-.16.31-.32.06-.06.16.2.4,0v1.12h-.69l-.54,0h0l.17.3h0l0,.05.56,0h.5v2a.45.45,0,0,1-.1.3l-.1.1A.21.21,0,0,0,72,50a2.47,2.47,0,0,0,.21.44,4.76,4.76,0,0,0,.28.46c.07.1.13.15.19.16a.17.17,0,0,0,.1,0A.56.56,0,0,0,72.9,51l.16-.21c.21-.3.39-.53.52-.71s.44-.52.93-1l.2-.21a.16.16,0,0,0,.05-.14.07.07,0,0,0-.08-.08.18.18,0,0,0-.11,0l-.31.16-.51.26-.39.21V47.5h.78l.55.05a.16.16,0,0,0,.11-.1v2a.57.57,0,0,1,0,.24.38.38,0,0,1-.1.13l-.08.11c0,.08,0,.26.22.56l.34.53c.06.1.12.15.17.16a.09.09,0,0,0,.08,0l.11-.11.17-.2.32-.35.4-.45.38-.4h0l.27-.31s0,.09.07.18.16.28.35.58a3,3,0,0,0,.67.73l.16.12.13.08c.07,0,.12,0,.15,0a.9.9,0,0,0,.17-.28.87.87,0,0,1,.32-.38,1.27,1.27,0,0,1,.29-.16l.25-.07c.1,0,.14-.07.14-.12s0-.11-.12-.15" transform="translate(-9.99 -41.97)"/><path id="hang" d="M81.72,45.69a1.07,1.07,0,0,0,.28-.12l.2-.11.36-.23.6-.35h0l.76-.51.44-.29c.22,0,.36,0,.39-.08s0-.1,0-.19a2.12,2.12,0,0,0-.46-.49L83.93,43c-.14-.13-.24-.18-.29-.17a.24.24,0,0,0-.14.14l-.07.13-.17.26-.09.15-.17.28c-.12.18-.28.41-.47.67a5.07,5.07,0,0,1-.56.67l-.2.19a1.16,1.16,0,0,0-.19.22.08.08,0,0,0,0,.1s.06,0,.12,0M90,46a1.8,1.8,0,0,0-.37-.45c-.28-.28-.47-.43-.57-.44s-.23.1-.4.31-.3.4-.41.54H85l-.52,0h0c.17,0,.27-.06.3-.13s-.12-.27-.47-.49l-.6-.37c-.12,0-.19-.07-.23,0a.18.18,0,0,0-.09.1l-.07.15-.17.33v0L82.9,46c-.1.18-.28.47-.55.86a8.33,8.33,0,0,1-.78,1l-.18.19a.19.19,0,0,0-.07.13.21.21,0,0,0,.05.12s.12,0,.26-.08L81.9,48q.6-.39.87-.6V50l0,1a.37.37,0,0,0,.12.13.7.7,0,0,0,.32,0h.16a.87.87,0,0,0,.52-.14.56.56,0,0,0,.16-.26L84,50V47c.14-.14.21-.23.21-.29s0-.1-.13-.15l-.23-.13,0,0,.43-.43.1-.08.08.09.19.26.56,0h1.94v3.3a.73.73,0,0,1-.06.3c0,.08-.18.11-.44.09l-.44,0H86a.79.79,0,0,0-.29,0,.12.12,0,0,0-.09.13.15.15,0,0,0,.06.13l.28.08.25,0a.39.39,0,0,1,.21.13.58.58,0,0,1,.12.25V51a.23.23,0,0,0,.05.17.21.21,0,0,0,.15.05,2.8,2.8,0,0,0,.79-.09c.39-.08.62-.18.7-.31a1,1,0,0,0,.11-.47V46.41l.12-.13h.81l.55,0A.25.25,0,0,0,90,46M84.83,43.8,85,44l.12.16.56,0,3,0,.55,0a.2.2,0,0,0,.08-.33,3,3,0,0,0-.31-.31l-.37-.34a.5.5,0,0,0-.27-.14c-.07,0-.16.06-.27.19s-.26.32-.47.6H85.6l-.77,0,0,0" transform="translate(-9.99 -41.97)"/><path id="agricultural" d="M58.63,57.26H56.41a0,0,0,0,1,0,0s0,0,0,0h.08l.06,0,.09,0a.15.15,0,0,0,.06-.09.51.51,0,0,0,0-.13V55.31a.54.54,0,0,0,0-.11.23.23,0,0,0,0-.11L56.6,55l-.08,0h-.05l0,0s0,0,0,0a.05.05,0,0,1,0,0h1.15l0,0s0,0,0,0l0,0h0l-.09,0-.08.07a.47.47,0,0,0-.05.1.41.41,0,0,0,0,.11V57s0,0,0,.05a.1.1,0,0,0,.06,0l.08,0h.48l.16,0,.17-.09.14-.13a.71.71,0,0,0,.1-.14.88.88,0,0,0,.07-.13l0-.06a.16.16,0,0,1,0-.06.06.06,0,0,1,0,0l0,0s0,0,0,.09m-4.22-.18.33-.82v0l.34.8Zm1.81.78h-.07a.11.11,0,0,1-.07,0l-.07-.06L56,57l-.06-.1L55.11,55a.91.91,0,0,0-.06-.11.09.09,0,0,0-.07,0,.08.08,0,0,0-.07,0,.58.58,0,0,0,0,.11h0l-.73,1.87a.25.25,0,0,1,0,.07L54,57a.23.23,0,0,1-.07.07l-.08.05a.12.12,0,0,1-.07,0h-.1a.05.05,0,0,0,0,0s0,0,0,0h.85s0,0,0,0l0,0,0,0h-.11a.11.11,0,0,1-.07,0A.18.18,0,0,1,54.3,57a.31.31,0,0,1,0-.13l.12-.38h.78l.16.37a.17.17,0,0,1,0,.08.15.15,0,0,1,0,.09s0,0-.06,0l-.07,0h-.11a.05.05,0,0,0,0,0s0,0,0,0h1.14l.05,0,0,0s0,0,0,0m-3.79-1.31a.52.52,0,0,1-.16.06H52v-.74a.35.35,0,0,1,0-.12A.13.13,0,0,1,52,55a.24.24,0,0,1,.13,0h.26a.35.35,0,0,1,.14.06l.1.1a.39.39,0,0,1,0,.18.74.74,0,0,1,0,.21.36.36,0,0,1-.07.18.22.22,0,0,1-.12.13m1.08.73a.11.11,0,0,0,0-.05H53.5s0,0,0,0a.22.22,0,0,0,0,.08l-.06.12a.29.29,0,0,1-.07.08l-.07,0a.12.12,0,0,1-.09,0,.17.17,0,0,1,0-.12,1.86,1.86,0,0,0,0-.22.58.58,0,0,0,0-.21.33.33,0,0,0-.07-.13.48.48,0,0,0-.26-.13l-.14,0,.18,0,.18-.06a.85.85,0,0,0,.19-.1.5.5,0,0,0,.14-.15.4.4,0,0,0,.06-.26.84.84,0,0,0-.06-.24.5.5,0,0,0-.11-.16.62.62,0,0,0-.16-.1.45.45,0,0,0-.19,0h-1.7l0,0s0,0,0,0l0,0h.06a.13.13,0,0,1,.08,0,.19.19,0,0,1,.07.08.21.21,0,0,1,0,.11.41.41,0,0,1,0,.1v1.56a.83.83,0,0,1,0,.13.15.15,0,0,1,0,.1.2.2,0,0,1-.08,0l-.07,0h-.08s0,0,0,0a.07.07,0,0,0,0,0h1.17a.05.05,0,0,0,0-.08l0,0h0l-.08,0L52,57a.31.31,0,0,1-.05-.1.45.45,0,0,1,0-.11V56h.17a.5.5,0,0,1,.19,0h0l.1,0a.26.26,0,0,1,.07.1.57.57,0,0,1,0,.16c0,.07,0,.12,0,.17v.17a1,1,0,0,0,0,.2.37.37,0,0,0,.07.16.29.29,0,0,0,.14.13.51.51,0,0,0,.22,0,.55.55,0,0,0,.18,0,.35.35,0,0,0,.15-.07.3.3,0,0,0,.12-.13,1.19,1.19,0,0,0,.08-.16l.06-.19a.11.11,0,0,0,0-.08m-4.24,0a1.41,1.41,0,0,0,0,.22.37.37,0,0,0,.07.16.41.41,0,0,0,.18.12.7.7,0,0,0,.25.05.75.75,0,0,0,.21,0,.9.9,0,0,0,.21-.08.56.56,0,0,0,.16-.14.51.51,0,0,0,.07-.17,1.23,1.23,0,0,0,0-.19V55.26s0-.07,0-.11a.19.19,0,0,0,0-.09L50.41,55l-.08,0h-.07l0,0a0,0,0,0,1,0,0,.05.05,0,0,1,0,0H51a.05.05,0,0,1,0,0s0,0,0,0l0,0H51l-.09,0-.08.06a.31.31,0,0,0-.05.1.52.52,0,0,0,0,.11v1.38a.58.58,0,0,1,0,.18.62.62,0,0,1-.11.17.7.7,0,0,1-.17.13.56.56,0,0,1-.2.08l-.22,0h-.42a1.86,1.86,0,0,1-.28,0,.65.65,0,0,1-.26-.14.52.52,0,0,1-.17-.26s0-.06,0-.1a.45.45,0,0,1,0-.11V55.31a.62.62,0,0,0,0-.13.24.24,0,0,0-.06-.11.41.41,0,0,0-.11-.07l-.09,0h-.1a0,0,0,0,1,0-.08H49.7a.05.05,0,0,1,0,0s0,0,0,0l0,0h-.06l-.1,0a.23.23,0,0,0-.1.07.24.24,0,0,0-.06.11.52.52,0,0,0,0,.11m-3.18-.46h2.2v.74a.15.15,0,0,1,0,.07s0,0,0,0h-.05l0,0,0-.07-.05-.13a.7.7,0,0,0-.09-.17.64.64,0,0,0-.14-.15.7.7,0,0,0-.17-.09l-.13,0h-.09v1.83a.5.5,0,0,0,0,.12.21.21,0,0,0,.06.1.32.32,0,0,0,.13.07l.13,0H48a.05.05,0,0,1,0,.08h-1.4a.05.05,0,0,1,0,0s0,0,0,0l0,0h.12l.1,0a.15.15,0,0,0,.09-.06.2.2,0,0,0,.06-.11.74.74,0,0,0,0-.12V55h-.08l-.1,0-.14.06-.13.09a.73.73,0,0,0-.1.13l-.08.14-.06.15,0,.05,0,0h0a.05.05,0,0,1,0,0,.14.14,0,0,1,0-.07M46,57.26H43.8a0,0,0,0,1,0,0s0,0,0,0h.08l.06,0,.09,0A.15.15,0,0,0,44.1,57a.51.51,0,0,0,0-.13V55.31a.54.54,0,0,0,0-.11.23.23,0,0,0,0-.11L44,55l-.08,0h0l0,0s0,0,0,0a.05.05,0,0,1,0,0H45a0,0,0,0,1,0,0s0,0,0,0l0,0H44.9l-.09,0-.08.07a.47.47,0,0,0,0,.1.41.41,0,0,0,0,.11V57s0,0,0,.05a.1.1,0,0,0,.06,0l.08,0h.48l.15,0,.17-.09a.92.92,0,0,0,.14-.13.71.71,0,0,0,.1-.14.88.88,0,0,0,.07-.13l0-.06a.16.16,0,0,1,0-.06.06.06,0,0,1,0,0l0,0s0,0,0,.09m-4.06,0a1.41,1.41,0,0,0,0,.22.37.37,0,0,0,.07.16.41.41,0,0,0,.18.12.7.7,0,0,0,.25.05.75.75,0,0,0,.21,0A.9.9,0,0,0,43,57a.56.56,0,0,0,.16-.14.36.36,0,0,0,.07-.17,1.23,1.23,0,0,0,0-.19V55.26s0-.07,0-.11a.19.19,0,0,0,0-.09L43.08,55,43,55h-.07l0,0a0,0,0,0,1,0,0,.05.05,0,0,1,0,0h.8a.05.05,0,0,1,0,0s0,0,0,0l0,0h0l-.09,0-.08.06a.93.93,0,0,0-.05.1.52.52,0,0,0,0,.11v1.38a.58.58,0,0,1,0,.18.62.62,0,0,1-.11.17.7.7,0,0,1-.17.13.56.56,0,0,1-.2.08l-.22,0h-.42a1.86,1.86,0,0,1-.28,0,.65.65,0,0,1-.26-.14.52.52,0,0,1-.17-.26s0-.06,0-.1a.45.45,0,0,1,0-.11V55.31a.62.62,0,0,0,0-.13.24.24,0,0,0-.06-.11.41.41,0,0,0-.11-.07l-.1,0h-.09a.05.05,0,0,1,0-.08h1.26a.05.05,0,0,1,0,0s0,0,0,0l0,0H42.3l-.1,0a.23.23,0,0,0-.1.07.24.24,0,0,0-.06.11.52.52,0,0,0,0,.11M41,55l0,.61v.07a.05.05,0,0,1,0,0l0,0s0,0,0,0a.08.08,0,0,1,0-.05v0a.77.77,0,0,0-.06-.15.56.56,0,0,0-.1-.15.69.69,0,0,0-.13-.11l-.17-.08a.79.79,0,0,0-.23,0,.47.47,0,0,0-.24.05.43.43,0,0,0-.17.13,1,1,0,0,0-.1.17,1.18,1.18,0,0,0-.07.2c0,.08,0,.15,0,.21a1.77,1.77,0,0,0,0,.24v.21a1.5,1.5,0,0,0,0,.22,1.6,1.6,0,0,0,.05.21.52.52,0,0,0,.1.18.73.73,0,0,0,.16.14.91.91,0,0,0,.18.08.59.59,0,0,0,.19,0,.53.53,0,0,0,.19-.05.83.83,0,0,0,.16-.09.62.62,0,0,0,.14-.14,1.58,1.58,0,0,0,.12-.15.24.24,0,0,1,.08-.09H41a.05.05,0,0,1,0,.05.26.26,0,0,1,0,.1,1.42,1.42,0,0,1-.11.18.73.73,0,0,1-.15.17.66.66,0,0,1-.2.14l-.23.07-.25,0a1.43,1.43,0,0,1-.29,0,1.31,1.31,0,0,1-.28-.09.83.83,0,0,1-.25-.18.94.94,0,0,1-.18-.24,1.09,1.09,0,0,1-.09-.23,2.07,2.07,0,0,1,0-.22,1.48,1.48,0,0,1,0-.21,2.32,2.32,0,0,1,0-.24,1.37,1.37,0,0,1,0-.25,1,1,0,0,1,.1-.21.83.83,0,0,1,.12-.17.64.64,0,0,1,.15-.13l.18-.11a.65.65,0,0,1,.21-.07,1,1,0,0,1,.26,0h.22l.19.05.17.07.11,0h.07l0,0,0-.06a.08.08,0,0,1,0,0l0,0,0,0s0,0,0,0,0,0,0,0m-2.46,1.9s0,.09,0,.12a.16.16,0,0,0,0,.09.18.18,0,0,0,.09.06l.1,0h.09s0,0,0,0a.07.07,0,0,1,0,.05H37.6a0,0,0,0,1,0-.05l0,0h.08l.08,0,.09-.06a.17.17,0,0,0,.06-.11.69.69,0,0,0,0-.13V55.29a.45.45,0,0,0,0-.11.22.22,0,0,0,0-.11l-.1-.07-.09,0h-.08s0,0,0,0a.05.05,0,0,1,0,0h1.2a.05.05,0,0,1,0,0s0,0,0,0l0,0h0a.18.18,0,0,0-.09,0,.27.27,0,0,0-.08.07.41.41,0,0,0,0,.09.37.37,0,0,0,0,.11m-2.08.58a.52.52,0,0,1-.16.06h-.38v-.74a.35.35,0,0,1,0-.12A.13.13,0,0,1,36,55a.24.24,0,0,1,.13,0h.26a.35.35,0,0,1,.14.06.32.32,0,0,1,.1.1.39.39,0,0,1,.05.18.74.74,0,0,1,0,.21.36.36,0,0,1-.07.18.19.19,0,0,1-.12.13m1.09.73a.07.07,0,0,0,0-.05h-.06s0,0,0,0a.22.22,0,0,0,0,.08l-.06.12a.29.29,0,0,1-.07.08l-.07,0a.12.12,0,0,1-.09,0,.17.17,0,0,1,0-.12,1.86,1.86,0,0,0,0-.22.58.58,0,0,0,0-.21.33.33,0,0,0-.07-.13.48.48,0,0,0-.26-.13l-.14,0,.18,0,.18-.06a.85.85,0,0,0,.19-.1.5.5,0,0,0,.14-.15.4.4,0,0,0,.06-.26.84.84,0,0,0-.06-.24A.5.5,0,0,0,37.1,55a.62.62,0,0,0-.16-.1.45.45,0,0,0-.19,0h-1.7l0,0a.09.09,0,0,0,0,0l0,0h.06a.13.13,0,0,1,.08,0,.19.19,0,0,1,.07.08.21.21,0,0,1,0,.11.41.41,0,0,1,0,.1v1.56a.83.83,0,0,1,0,.13.15.15,0,0,1-.05.1.2.2,0,0,1-.08,0l-.07,0H35s0,0,0,0a.07.07,0,0,0,0,0h1.17a0,0,0,0,0,0-.08l0,0h0l-.08,0L36,57a.31.31,0,0,1-.05-.1.45.45,0,0,1,0-.11V56h.17a.47.47,0,0,1,.19,0h0l.1,0a.26.26,0,0,1,.07.1.57.57,0,0,1,0,.16c0,.07,0,.12,0,.17v.17a1,1,0,0,0,0,.2.37.37,0,0,0,.07.16.29.29,0,0,0,.14.13.51.51,0,0,0,.22,0,.55.55,0,0,0,.18,0,.35.35,0,0,0,.15-.07.3.3,0,0,0,.12-.13.6.6,0,0,0,.08-.16l.06-.19a.11.11,0,0,0,0-.08m-6.91-.2.33-.82v0l.34.8Zm1.81.78h-.07a.11.11,0,0,1-.07,0l-.07-.06-.07-.1-.06-.1L31.21,55a.91.91,0,0,0-.06-.11.09.09,0,0,0-.07,0,.08.08,0,0,0-.07,0A.58.58,0,0,0,31,55h0l-.73,1.87a.25.25,0,0,1,0,.07l-.06.08a.23.23,0,0,1-.07.07l-.08.05a.12.12,0,0,1-.07,0h-.1a.05.05,0,0,0,0,0s0,0,0,0h.85s0,0,0,0l0,0,0,0h-.11a.09.09,0,0,1-.07,0A.18.18,0,0,1,30.4,57a.31.31,0,0,1,0-.13l.12-.38h.78l.16.37a.17.17,0,0,1,0,.08.15.15,0,0,1,0,.09s0,0-.06,0l-.07,0h-.11a.05.05,0,0,0,0,0s0,0,0,0h1.14l0,0,0,0s0,0,0,0m2.52-1s0,0,0,0,0,0,0,0l0,0h0s0,0-.06,0,0,0,0,.05a.46.46,0,0,0,0,.09.45.45,0,0,0,0,.08l-.07.63a.08.08,0,0,1,0,.07s0,0-.06,0a.13.13,0,0,1-.08,0l0,0-.05-.07-.06-.07a.09.09,0,0,0-.06,0l-.08,0-.08,0a.93.93,0,0,1-.22.1,1.06,1.06,0,0,1-.38.05,1.15,1.15,0,0,1-.41-.08.81.81,0,0,1-.34-.24.9.9,0,0,1-.19-.32,1.09,1.09,0,0,1-.07-.3,2.35,2.35,0,0,1,0-.26,2.11,2.11,0,0,1,0-.25.94.94,0,0,1,.06-.24,1,1,0,0,1,.1-.21,1.09,1.09,0,0,1,.13-.17.87.87,0,0,1,.15-.13,1,1,0,0,1,.17-.1l.22-.08a1.23,1.23,0,0,1,.29,0h.19l.16,0,.17.08.13.06a.11.11,0,0,0,.08,0l0,0s0,0,0-.06a.14.14,0,0,1,0-.06.05.05,0,0,1,0,0h0l0,0s0,0,0,0v.61s0,.06,0,.07l0,0,0,0a.06.06,0,0,1,0,0,.08.08,0,0,1,0-.05v0a1,1,0,0,0-.05-.12.77.77,0,0,0-.09-.13l-.14-.12a.85.85,0,0,0-.19-.1.6.6,0,0,0-.22,0,.55.55,0,0,0-.24.07.5.5,0,0,0-.19.19.87.87,0,0,0-.1.25,1,1,0,0,0,0,.22,1.69,1.69,0,0,0,0,.23v.21a1.4,1.4,0,0,0,0,.23c0,.06,0,.14,0,.22a.48.48,0,0,0,.09.19.41.41,0,0,0,.18.12.75.75,0,0,0,.26,0A.54.54,0,0,0,34,57a.36.36,0,0,0,.15-.15.41.41,0,0,0,0-.19v-.08a.58.58,0,0,0,0-.1l0-.1-.07,0-.06,0h-.06l0,0a0,0,0,0,1,0,0,.05.05,0,0,1,0,0h1s0,0,0,0" transform="translate(-9.99 -41.97)"/><path id="bank" d="M63.85,56.54v-.15h.34l-.34-.8V55h0a.58.58,0,0,1,0-.11.08.08,0,0,1,.07,0,.08.08,0,0,1,.07,0,.36.36,0,0,1,.06.11L65,56.86,65,57l.07.1.07.06a.13.13,0,0,0,.08,0h.07s0,0,0,0a0,0,0,0,1,0,0l0,0H64.12a.06.06,0,0,1,0,0,.05.05,0,0,1,0,0h.11l.07,0a.1.1,0,0,0,.06,0,.15.15,0,0,0,0-.09s0-.06,0-.08l-.16-.37h-.36Zm3.74.54a.61.61,0,0,1,0,.15.13.13,0,0,1-.07.06l-.08,0-.06-.05-.06-.07L66,55.38v1.53A.36.36,0,0,0,66,57a.18.18,0,0,0,.07.08.25.25,0,0,0,.11,0l.09,0h.1s0,0,0,0,0,0,0,0h-.88l0,0s0,0,0-.05l0,0h.16l.09,0a.27.27,0,0,0,.07-.08.2.2,0,0,0,0-.1V55.35a.49.49,0,0,0,0-.12.56.56,0,0,0,0-.12.19.19,0,0,0-.07-.08l-.09,0-.07,0h-.08a.06.06,0,0,1,0-.05s0,0,0,0h.79l1.18,1.53V55.21a.44.44,0,0,0,0-.1.18.18,0,0,0-.06-.09L67.22,55l-.09,0H67s0,0,0,0,0,0,0,0h.91a.05.05,0,0,1,0,0s0,0,0,0h-.1l-.1,0a.19.19,0,0,0-.14.14.51.51,0,0,0,0,.09v1.89ZM68.9,56l.66-.69,0-.07,0-.09a.12.12,0,0,0,0-.08.08.08,0,0,0,0-.05l-.07,0h-.11s0,0,0,0,0,0,0,0h1s0,0,0,0a.05.05,0,0,1,0,0h-.08l-.12,0-.14,0-.14.08a.46.46,0,0,0-.12.09l-.41.43.63,1.09a.58.58,0,0,0,.08.12l.06.09.07.09.07.07.08.06.07,0h.09s0,0,0,0,0,0,0,0H69.46s0,0,0,0a.05.05,0,0,1,0,0h.07l.06,0a.12.12,0,0,0,0-.05.11.11,0,0,0,0-.08.25.25,0,0,1,0-.07L69.11,56l-.2.2v.63a.45.45,0,0,0,0,.11.19.19,0,0,0,0,.1.27.27,0,0,0,.08.07l.08,0h0l0,0a.05.05,0,0,1,0,0s0,0,0,0H68.05a0,0,0,0,1,0-.05l0,0h.09l.06,0,.08-.06a.24.24,0,0,0,.06-.09.37.37,0,0,0,0-.12V55.32a.45.45,0,0,0,0-.11.36.36,0,0,0,0-.11.3.3,0,0,0-.08-.08.16.16,0,0,0-.09,0h-.1s0,0,0,0a.05.05,0,0,1,0,0h1.17a.05.05,0,0,1,0,0s0,0,0,0h-.1A.16.16,0,0,0,69,55a.23.23,0,0,0-.07.07.42.42,0,0,0,0,.1.41.41,0,0,0,0,.11l0,.65Zm-5.05-1v.58l-.33.82h.34v.15h-.4l-.12.38a.2.2,0,0,0,0,.13s0,.06,0,.07a.11.11,0,0,0,.07,0h.11l0,0a.08.08,0,0,1,0,0s0,0,0,0h-.85s0,0,0,0,0,0,0,0h.1l.07,0,.08,0L63,57l.06-.08,0-.07L63.85,55ZM61.6,57.26v-.15l.15,0A.37.37,0,0,0,61.9,57a.42.42,0,0,0,.09-.14l0-.17c0-.06,0-.11,0-.14a.58.58,0,0,0,0-.19.33.33,0,0,0-.11-.15.51.51,0,0,0-.18-.09l-.09,0v-.18a.71.71,0,0,0,.18-.08.35.35,0,0,0,.13-.14.48.48,0,0,0,0-.22.69.69,0,0,0,0-.22.29.29,0,0,0-.11-.16.41.41,0,0,0-.15-.07l-.09,0v-.16h.35l.21,0a.56.56,0,0,1,.17.09l.13.13a.48.48,0,0,1,.07.18.81.81,0,0,1,0,.22.48.48,0,0,1-.07.16.68.68,0,0,1-.12.12,1.09,1.09,0,0,1-.19.1L62,56l-.23,0,.28,0a1,1,0,0,1,.23.06.68.68,0,0,1,.19.11.59.59,0,0,1,.13.17.61.61,0,0,1,.06.25.66.66,0,0,1-.06.27.83.83,0,0,1-.11.15.69.69,0,0,1-.19.12.73.73,0,0,1-.24.07l-.24,0Zm0-2.41V55h-.32l-.06,0,0,.05a.22.22,0,0,0,0,.09V56h.25l.17,0h0v.18h-.42V57a.22.22,0,0,0,0,.09l0,0h.36v.15H60.3a0,0,0,0,1,0-.05l0,0,.06,0,.08,0a.2.2,0,0,0,.09,0,.22.22,0,0,0,.07-.09.46.46,0,0,0,0-.14V55.22a.31.31,0,0,0,0-.1.36.36,0,0,0,0-.09L60.51,55l-.09,0-.07,0a.05.05,0,0,1,0-.08h0l1.2,0Z" transform="translate(-9.99 -41.97)"/><path id="of" d="M73.42,57.28v-.15h.14l.13,0a.36.36,0,0,0,.14-.11.75.75,0,0,0,.1-.2l0-.2a1.42,1.42,0,0,0,0-.26c0-.12,0-.2,0-.24v-.19c0-.11,0-.2,0-.27l0-.2a.48.48,0,0,0-.06-.18.35.35,0,0,0-.11-.13.34.34,0,0,0-.17-.08l-.18,0h0v-.15h0l.27,0,.24.07.21.11.17.15a.86.86,0,0,1,.13.2,1.06,1.06,0,0,1,.09.25c0,.09,0,.17,0,.25a1.41,1.41,0,0,1,0,.2,1.64,1.64,0,0,1,0,.23,1.6,1.6,0,0,1,0,.21.67.67,0,0,1-.1.21,1,1,0,0,1-.16.2.73.73,0,0,1-.18.14l-.2.1-.17.06-.16,0Zm2.15-.44a.44.44,0,0,0,0,.13.19.19,0,0,0,0,.09.24.24,0,0,0,.09.06l.08,0h0l0,0a.05.05,0,0,1,0,0s0,0,0,0,0,0,0,0H74.68a0,0,0,0,1,0-.05l0,0,0,0h.06l.07,0,.09-.05A.26.26,0,0,0,75,57a.59.59,0,0,0,0-.14V55.27a.54.54,0,0,0,0-.11.19.19,0,0,0,0-.11.18.18,0,0,0-.09-.06l-.09,0h-.08s0,0,0,0,0,0,0,0h2.11v.65a.07.07,0,0,1,0,0s0,0,0,0h0s0,0,0,0l0-.07a.34.34,0,0,0-.06-.12.8.8,0,0,0-.09-.14.41.41,0,0,0-.14-.12.61.61,0,0,0-.17-.07.42.42,0,0,0-.14,0h-.45s0,0,0,0l0,0V56h.33a.2.2,0,0,0,.08,0,.3.3,0,0,0,.08-.08l.06-.09,0-.08,0-.07s0,0,0,0h0a.08.08,0,0,1,0,.06v.83s0,0,0,0a.06.06,0,0,1,0,0,.05.05,0,0,1,0,0,.16.16,0,0,1,0-.06l-.06-.12L76,56.19l-.1-.07a.18.18,0,0,0-.09,0h-.25v.74Zm-2.15-2V55a.45.45,0,0,0-.16,0,.71.71,0,0,0-.15.08.75.75,0,0,0-.13.16.92.92,0,0,0-.09.23,1.93,1.93,0,0,0,0,.27c0,.1,0,.19,0,.28a1.29,1.29,0,0,0,0,.2,1.28,1.28,0,0,0,0,.19l0,.22a1.22,1.22,0,0,0,0,.17l.07.11.1.1a.54.54,0,0,0,.17.08l.16,0v.15h-.15l-.19,0a.88.88,0,0,1-.21-.09,1.1,1.1,0,0,1-.21-.14,1,1,0,0,1-.17-.18,1.13,1.13,0,0,1-.12-.21,1.59,1.59,0,0,1-.07-.2c0-.06,0-.12,0-.16a.76.76,0,0,1,0-.15V56a1.41,1.41,0,0,1,0-.18,1.6,1.6,0,0,1,0-.21,1.89,1.89,0,0,1,.09-.21.59.59,0,0,1,.13-.17l.15-.13.16-.1.19-.08.19,0h.18" transform="translate(-9.99 -41.97)"/><path id="china" d="M88.39,56.54v-.15h.34l-.34-.8V55h0a.58.58,0,0,1,0-.11.08.08,0,0,1,.07,0,.08.08,0,0,1,.07,0,.36.36,0,0,1,.06.11l.86,1.89.06.1.07.1.07.06a.13.13,0,0,0,.08,0h.07s0,0,0,0a0,0,0,0,1,0,0l0,0H88.66a.06.06,0,0,1,0,0,.05.05,0,0,1,0,0h.11l.07,0a.1.1,0,0,0,.06,0,.15.15,0,0,0,0-.09s0-.06,0-.08l-.16-.37M88.39,55v.58l-.33.82h.34v.15H88l-.12.38a.2.2,0,0,0,0,.13s0,.06,0,.07a.11.11,0,0,0,.07,0h.11l0,0a.08.08,0,0,1,0,0s0,0,0,0h-.85s0,0,0,0,0,0,0,0h.1l.07,0,.08,0,.07-.07.06-.08,0-.07.7-1.88Zm-7.94,0,0,.61a.17.17,0,0,1,0,.07.05.05,0,0,1,0,0l0,0s0,0,0,0a.08.08,0,0,1,0-.05v0a.77.77,0,0,0-.06-.15,1,1,0,0,0-.1-.15.69.69,0,0,0-.13-.11l-.17-.08a.79.79,0,0,0-.23,0,.47.47,0,0,0-.24.05.34.34,0,0,0-.16.13,1,1,0,0,0-.1.17,1,1,0,0,0-.07.21c0,.08,0,.15,0,.21a1.77,1.77,0,0,0,0,.24v.21a1.5,1.5,0,0,0,0,.22,1.6,1.6,0,0,0,0,.21.52.52,0,0,0,.1.18.73.73,0,0,0,.16.14.71.71,0,0,0,.18.08.59.59,0,0,0,.19,0,.53.53,0,0,0,.19,0,.83.83,0,0,0,.16-.09.62.62,0,0,0,.14-.14,1.58,1.58,0,0,0,.12-.15.24.24,0,0,1,.08-.09s0,0,.06,0a.05.05,0,0,1,0,0,.26.26,0,0,1,0,.1,1.42,1.42,0,0,1-.11.18.73.73,0,0,1-.15.17.66.66,0,0,1-.2.14l-.23.07-.25,0a1.43,1.43,0,0,1-.29,0A1.31,1.31,0,0,1,79,57.2a.83.83,0,0,1-.25-.18.94.94,0,0,1-.18-.24,1.09,1.09,0,0,1-.09-.23,2.07,2.07,0,0,1,0-.22,1.48,1.48,0,0,1,0-.21,2.32,2.32,0,0,1,0-.24,1.37,1.37,0,0,1,0-.25,1,1,0,0,1,.1-.21.83.83,0,0,1,.12-.17.64.64,0,0,1,.15-.13L79,55a.65.65,0,0,1,.21-.07,1,1,0,0,1,.26,0h.22l.19,0,.17.07.11.05h.07l0,0s0,0,0-.06,0,0,0,0l0,0,0,0s0,0,0,0,0,0,0,0m1.87.92v-.58a.38.38,0,0,0,0-.1.36.36,0,0,0,0-.11.3.3,0,0,0-.08-.08l-.1,0h0l0,0s0,0,0,0a.05.05,0,0,1,0,0h1.14s0,0,0,0,0,0,0,0l0,0h0A.16.16,0,0,0,83,55a.27.27,0,0,0-.08.07.37.37,0,0,0-.05.11.49.49,0,0,0,0,.12v1.55a.45.45,0,0,0,0,.11.3.3,0,0,0,0,.1.15.15,0,0,0,.09.06l.09,0h0l0,0a.05.05,0,0,1,0,.08H82a0,0,0,0,1,0,0s0,0,0,0h.07l.07,0a.16.16,0,0,0,.08-.06s0-.06.06-.09a.5.5,0,0,0,0-.12V56h-.85v.84a.41.41,0,0,0,0,.11.31.31,0,0,0,0,.1.16.16,0,0,0,.08.06l.08,0h0l0,0a.05.05,0,0,1,0,0s0,0,0,0H80.6a0,0,0,0,1,0,0s0,0,0,0h.07l.06,0,.08-.05a.14.14,0,0,0,.06-.1.51.51,0,0,0,0-.13V55.29a.38.38,0,0,0,0-.1.31.31,0,0,0,0-.12.3.3,0,0,0-.08-.08l-.08,0h0l0,0s0,0,0,0,0,0,0,0h1.13s0,0,0,0,0,0,0,0h-.08l-.09,0a.32.32,0,0,0-.09.08.24.24,0,0,0,0,.1.37.37,0,0,0,0,.11v.59Zm1.85,1s0,.09,0,.12a.16.16,0,0,0,0,.09.15.15,0,0,0,.09.06l.1,0h.09s0,0,0,0a.07.07,0,0,1,0,.05H83.28a0,0,0,0,1,0-.05l0,0h.08l.08,0,.09-.06A.17.17,0,0,0,83.6,57a.69.69,0,0,0,0-.13V55.29a.45.45,0,0,0,0-.11.19.19,0,0,0,0-.11l-.1-.07-.09,0h-.08s0,0,0,0a.05.05,0,0,1,0,0h1.19a.05.05,0,0,1,0,0s0,0,0,0l0,0h0a.18.18,0,0,0-.09,0,.27.27,0,0,0-.08.07.41.41,0,0,0,0,.09.37.37,0,0,0,0,.11v1.57Zm2.61.23a.61.61,0,0,1,0,.15.13.13,0,0,1-.07.06l-.08,0-.06-.05-.06-.07-1.35-1.77v1.53a.2.2,0,0,0,0,.11.18.18,0,0,0,.07.08.25.25,0,0,0,.11,0l.09,0h.1s0,0,0,0,0,0,0,0h-.88l0,0s0,0,0-.05l0,0h.16l.1,0A.27.27,0,0,0,85,57a.2.2,0,0,0,0-.1V55.35a.49.49,0,0,0,0-.12.56.56,0,0,0,0-.12.19.19,0,0,0-.07-.08l-.09,0-.07,0h-.08a.06.06,0,0,1,0-.05s0,0,0,0h.79l1.18,1.53V55.21a.44.44,0,0,0,0-.1.18.18,0,0,0-.06-.09L86.42,55l-.09,0H86.2s0,0,0,0,0,0,0,0h.91a.05.05,0,0,1,0,0s0,0,0,0H87L87,55a.19.19,0,0,0-.14.14.51.51,0,0,0,0,.09v1.89Z" transform="translate(-9.99 -41.97)"/></g></svg>