<svg xmlns="http://www.w3.org/2000/svg" viewBox="0 0 80 19.79"><defs><style>.cls-1{fill:#9f9fa3;}.cls-2{fill:#fff;}.cls-3{fill:#ffc52a;}.cls-4{fill:#08958f;}</style></defs><title>ABN-Amro</title><g id="Layer_2" data-name="Layer 2"><g id="ABN-Amro"><g id="_Group_" data-name="&lt;Group&gt;"><path class="cls-1" d="M21.68,9.9,22.17,8h2.45L25.1,9.9H27L24.65,1.3H22.28L19.9,9.9m4.34-3.23H22.52L23.34,3h0Z"/><path class="cls-1" d="M30.32,6.13h1.05c.91,0,1.19.47,1.19,1.23a1.08,1.08,0,0,1-1.24,1.22h-1m0-6h1.11a1,1,0,0,1,1,1.1,1,1,0,0,1-.94,1.09H30.32ZM31.7,9.9c.77,0,2.66-.1,2.66-2.28,0-1.18-.33-2-1.61-2.18v0a1.75,1.75,0,0,0,1.47-1.89c0-1.84-1.13-2.23-2.5-2.23H28.53V9.9Z"/><polyline id="_Path_" data-name="&lt;Path&gt;" class="cls-1" points="38.14 9.9 38.14 3.61 38.16 3.61 40.5 9.9 42.87 9.9 42.87 1.3 41.2 1.3 41.2 7.25 41.17 7.25 38.89 1.3 36.46 1.3 36.46 9.9"/><polyline id="_Path_2" data-name="&lt;Path&gt;" class="cls-1" points="45.7 6.1 46.85 4.95 45.7 3.8 44.54 4.95"/><path class="cls-1" d="M49.2,9.9,49.69,8h2.45l.48,1.91h1.89L52.18,1.3H49.81L47.43,9.9m4.33-3.23H50L50.87,3h0Z"/><polyline id="_Path_3" data-name="&lt;Path&gt;" class="cls-1" points="57.74 9.9 57.74 3.27 57.76 3.27 59.33 9.9 61.05 9.9 62.7 3.27 62.73 3.27 62.73 9.9 64.48 9.9 64.48 1.3 61.68 1.3 60.25 7.15 60.23 7.15 58.88 1.3 55.99 1.3 55.99 9.9"/><path class="cls-1" d="M68.63,2.62h.8c.57,0,.92.31.92,1.13,0,.55-.21,1.27-.92,1.27h-.8m0,1.32h.47c1.38,0,1.28.87,1.28,1.89a4.1,4.1,0,0,0,.19,1.67h1.77a11.61,11.61,0,0,1-.21-2.53,1.52,1.52,0,0,0-1.56-1.69v0a1.85,1.85,0,0,0,1.6-2.11c0-1.46-.79-2.25-2-2.25H66.83V9.9h1.8V6.34Z"/><path class="cls-1" d="M77,8.75c-1,0-1.15-1-1.15-3.15S76,2.44,77,2.44s1.14,1,1.14,3.16S78.05,8.75,77,8.75M77,10c3,0,3-2.19,3-4.44s0-4.44-3-4.44-3,2.16-3,4.44,0,4.44,3,4.44"/><polyline id="_Path_4" data-name="&lt;Path&gt;" class="cls-2" points="0.02 0.02 14.83 0.02 14.83 12.36 7.42 19.77 0.02 12.36 0.02 0.02"/><polyline id="_Path_5" data-name="&lt;Path&gt;" class="cls-3" points="7.42 19.79 7.42 19.77 14.83 12.36 14.83 12.35 14.85 12.37 7.42 19.79"/><polyline id="_Path_6" data-name="&lt;Path&gt;" class="cls-2" points="7.42 19.77 7.42 4.95 14.83 12.35 14.83 12.36 7.42 19.77"/><polyline id="_Path_7" data-name="&lt;Path&gt;" class="cls-3" points="7.42 19.77 7.42 4.95 14.83 12.35 14.83 12.36 7.42 19.77"/><polyline id="_Path_8" data-name="&lt;Path&gt;" class="cls-4" points="7.42 19.79 0 12.37 0 0 14.85 0 14.85 12.37 14.83 12.33 14.83 0.02 0.02 0.02 0.02 12.36 7.4 19.75 7.42 19.79"/><polyline id="_Path_9" data-name="&lt;Path&gt;" class="cls-2" points="7.4 19.75 0.02 12.36 0.02 0.02 14.83 0.02 14.83 12.33 7.4 4.9 7.4 19.75"/><polyline id="_Path_10" data-name="&lt;Path&gt;" class="cls-4" points="7.4 19.75 0.02 12.36 0.02 0.02 14.83 0.02 14.83 12.33 7.4 4.9 7.4 19.75"/><path class="cls-3" d="M14.85,12.37l0,0v0l0,0M7.42,19.79l0,0,0,0v0"/><path class="cls-4" d="M14.85,12.37l0,0v0l0,0M7.42,19.79l0,0,0,0v0"/><polyline id="_Path_11" data-name="&lt;Path&gt;" class="cls-2" points="7.42 19.77 7.4 19.75 7.4 4.9 14.83 12.33 14.83 12.35 7.42 4.95 7.42 19.77"/><polyline id="_Path_12" data-name="&lt;Path&gt;" class="cls-3" points="7.42 19.77 7.4 19.75 7.4 4.9 14.83 12.33 14.83 12.35 7.42 4.95 7.42 19.77"/><polyline id="_Path_13" data-name="&lt;Path&gt;" class="cls-4" points="7.42 19.77 7.4 19.75 7.4 4.9 14.83 12.33 14.83 12.35 7.42 4.95 7.42 19.77"/></g></g></g></svg>