<svg xmlns="http://www.w3.org/2000/svg" viewBox="0 0 80 16.06"><defs><style>.cls-1{fill:#0d8a7d;}.cls-2{fill:#010101;}</style></defs><title>Agricultural-Bank-of-China</title><g id="Layer_2" data-name="Layer 2"><g id="Agricultural-Bank-of-China"><g id="main"><path id="logo" class="cls-1" d="M9.79.19V5.06a.36.36,0,0,1-.32.32H8.54a.36.36,0,0,0-.36.36v2.5a.36.36,0,0,1,.33-.36h1.84a.32.32,0,0,0,.28-.19h0s0,0,0-.05a0,0,0,0,1,0,0v0a.43.43,0,0,0,0,0V2.42A6.24,6.24,0,0,1,8.89,14.23v-3.5h1.46a.36.36,0,0,0,.33-.35V7.88a.36.36,0,0,1-.36.35H8.54a.36.36,0,0,0-.36.36v2.14H7.82V8.59a.36.36,0,0,0-.35-.36H5.68a.36.36,0,0,1-.36-.35v2.5a.37.37,0,0,0,.33.35H7.11v3.5A6.24,6.24,0,0,1,5.32,2.42V7.53h0v.11l0,.05h0a.34.34,0,0,0,.28.19H7.49a.35.35,0,0,1,.33.36V5.74a.36.36,0,0,0-.35-.36H6.54a.35.35,0,0,1-.32-.32V.21A8,8,0,0,0,8,16.06H8A8,8,0,0,0,9.79.19M8.7,0C8.48,0,8.26,0,8,0H8c-.22,0-.43,0-.64,0l-.25,0V4.61A.41.41,0,0,0,7.52,5h1a.41.41,0,0,0,.41-.41V.05L8.7,0"/><path id="zhong" class="cls-2" d="M26.29,5.49H24.51v-2h1.78Zm-3.19,0H21.43v-2H23.1Zm4.8-1.93c.11-.1.16-.18.16-.24s-.19-.29-.57-.53l-.39-.24a.69.69,0,0,0-.35-.14c-.07,0-.15.08-.25.21l-.34.44H24.51V1.72l.21-.14a.35.35,0,0,0,.14-.17.23.23,0,0,0,0-.19c0-.07-.29-.15-.74-.25S23.36.81,23.3.81s-.2,0-.23,0a.28.28,0,0,0-.05.23l.08,1.06v.93H21.6l-1.2-.62c-.15-.08-.25-.11-.29-.09a.13.13,0,0,0-.1.07l0,.75V5.54l-.06,1a.41.41,0,0,0,.05.21c0,.06.21.08.53.06a1,1,0,0,0,.67-.19.46.46,0,0,0,.18-.32V5.91H23.1v1.6L23,9a.34.34,0,0,0,.09.21c0,.06.16.1.36.11a1.42,1.42,0,0,0,.59-.06.84.84,0,0,0,.37-.19.59.59,0,0,0,.14-.23l-.06-1.28V5.91h1.78v.34a.74.74,0,0,0,.06.37c0,.06.13.1.29.12a1.43,1.43,0,0,0,.5,0,1.06,1.06,0,0,0,.43-.15.65.65,0,0,0,.16-.21l-.06-.9V3.79"/><path id="guo" class="cls-2" d="M36.62,7.85H31.69V1.94h4.92V7.85Zm1.62-6.09c0-.05-.09-.16-.28-.31A3.42,3.42,0,0,0,37.24,1,.44.44,0,0,0,37,1a.42.42,0,0,0-.19.16c-.08.1-.18.23-.3.4H31.8L30.75,1C30.59.93,30.5.9,30.47.92a.18.18,0,0,0-.08.07l.05,1.3V7.52L30.4,8.87a.37.37,0,0,0,.08.14.46.46,0,0,0,.23.06,1.22,1.22,0,0,0,.81-.1.42.42,0,0,0,.17-.27V8.27h4.92v.42a.43.43,0,0,0,.08.31.52.52,0,0,0,.36.11,1.19,1.19,0,0,0,.53-.06.7.7,0,0,0,.34-.17.57.57,0,0,0,.1-.27L38,7.48V2.1c.17-.16.26-.27.26-.34m-6,5.1-.55-.05.1.13.23.31.53,0,3.87,0a.23.23,0,0,0,.12-.33,1.21,1.21,0,0,0-.2-.25,5.3,5.3,0,0,0-.43-.38.42.42,0,0,0-.18-.08.23.23,0,0,0-.11.08l-.2.24-.25.33h-.72v-2h0v0a.13.13,0,0,0,0,.13l.17.14a.66.66,0,0,1,.19.4,3.06,3.06,0,0,0,.07.34.28.28,0,0,0,.14.17.6.6,0,0,0,.41.09A.48.48,0,0,0,36,5.93.58.58,0,0,0,36,5.6a.7.7,0,0,0-.26-.43,1.16,1.16,0,0,0-.61-.26l1,0a.22.22,0,0,0,.14-.26.36.36,0,0,0,0-.09,4.55,4.55,0,0,0-.55-.46C35.62,4,35.52,4,35.45,4s-.24.18-.51.51h-.46V3.2l0,0,1.83,0a.23.23,0,0,0,.12-.33.92.92,0,0,0-.13-.18,5.29,5.29,0,0,0-.6-.49q-.13-.11-.21-.09a.48.48,0,0,0-.18.15l-.36.5H32.52l-.71,0L32,3l.14.19.53,0h.64V4.52h-.79l-.65-.06.25.32h0l.09.13.51,0h.58v2h-.41"/><path id="nong" class="cls-2" d="M45.1,2.84c0,.11,0,.26.1.46s.13.49.22.77A7,7,0,0,0,46,5.22a7,7,0,0,0,.76-1L46.82,4c.09-.17.16-.25.21-.26a.32.32,0,0,1,.18,0,1.67,1.67,0,0,1,.23.18,2.91,2.91,0,0,0,.41.3,1.77,1.77,0,0,1,.37.31c.09.1.11.18.09.23s-.21.09-.51.08c-.65.26-1.19.46-1.64.62.1.16.23.34.39.55a3.87,3.87,0,0,0,.79.72,4.22,4.22,0,0,0,1.06.59l.25.1.28,0a.14.14,0,0,1,.08.12s0,.08,0,.1a.59.59,0,0,1-.23.09l-.2.07L48.3,8l-.21.15a1.83,1.83,0,0,0-.2.21,1.13,1.13,0,0,0-.13.27c0,.13-.09.19-.12.2s-.11,0-.21-.09l-.24-.16a4.9,4.9,0,0,1-.41-.33,4.77,4.77,0,0,1-.45-.45,4.9,4.9,0,0,1-.5-.72,6.2,6.2,0,0,1-.54-1.18A7.72,7.72,0,0,1,45,4.6q-.09-.61-.12-1c0-.23,0-.44-.05-.61,0,.11-.09.25-.15.4A10.92,10.92,0,0,1,44,4.52c.19.09.29.17.29.25s-.1.17-.32.28V7.46l1.2-.59.15-.07c.11-.06.19-.07.25,0a.11.11,0,0,1,0,.14.24.24,0,0,1-.08.13l-.08.08L43.82,8.76l-.44.44a.31.31,0,0,1-.22.08s-.09-.07-.15-.17l-.24-.41a4,4,0,0,1-.18-.36.65.65,0,0,1-.07-.26.22.22,0,0,1,.12-.16c.07,0,.1-.08.1-.11V6.06A13.77,13.77,0,0,1,41.45,7c-.39.24-.64.39-.75.44l-.18.1a.47.47,0,0,1-.17,0,.34.34,0,0,1-.18-.07c-.05,0,0-.15.21-.29l.14-.11.35-.28a7.73,7.73,0,0,0,.71-.76,10,10,0,0,0,.81-1,7.28,7.28,0,0,0,.58-1,8.68,8.68,0,0,0,.4-.84l.15-.43H42.24c0,.12,0,.25,0,.37a1,1,0,0,1-.13.53.83.83,0,0,1-.57.4A.6.6,0,0,1,40.94,4a.72.72,0,0,1-.22-.49A.72.72,0,0,1,41,3l.38-.33a1,1,0,0,0,.18-.35l.05-.12V2a.13.13,0,0,1,.09-.1s.1,0,.17,0l.09.12.12.19.09.19h1.54c0-.08,0-.16.07-.24s.08-.38.13-.76l0-.32A.73.73,0,0,1,44,.83s.12,0,.28,0l.53.11a2.37,2.37,0,0,1,.71.2c.16.07.24.15.23.22s-.11.16-.31.31-.23.52-.32.72h1.59a3.45,3.45,0,0,1,.3-.34.32.32,0,0,1,.19-.1.48.48,0,0,1,.29.12,8.69,8.69,0,0,1,.83.63.43.43,0,0,1,.15.3c0,.17-.13.27-.36.29h-.41a1.37,1.37,0,0,0-.92.34l-.24.2c-.13.11-.22.15-.26.11s0-.11,0-.21l.11-.27c0-.11.13-.32.26-.64"/><path id="ye" class="cls-2" d="M51.38,3.47l-.1-.21a.3.3,0,0,1-.05-.16A.12.12,0,0,1,51.3,3a.17.17,0,0,1,.14,0l.16.14.17.2a9.91,9.91,0,0,1,.63.77c.15.21.34.53.57.94a2.44,2.44,0,0,1,.29,1.27A1.31,1.31,0,0,1,53,7a.74.74,0,0,1-.54.32.67.67,0,0,1-.52-.17.71.71,0,0,1-.23-.43,1.93,1.93,0,0,1,0-.66,5.07,5.07,0,0,0,.06-.7,5.2,5.2,0,0,0-.06-.71,2.66,2.66,0,0,0-.09-.41,4,4,0,0,0-.14-.41,2.85,2.85,0,0,0-.13-.35m-.69,5h0l2.64,0V2.35l-.07-1.22,0-.06a.35.35,0,0,1,.19,0l.4.08.42.1c.32.08.49.17.51.28s-.08.22-.29.38v6.6h.53V2.33L55,1.12c0-.06.1-.08.22-.07a5.34,5.34,0,0,1,.87.19c.33.09.51.19.53.29s-.1.24-.35.37V6.81c.11-.28.23-.61.34-1s.21-.67.28-.91.14-.52.2-.82.12-.53.16-.68l.06-.33,0-.25c0-.06.16-.05.34,0l.44.21.5.28c.3.17.42.31.37.44s-.13.14-.33.22l-.43.77a11,11,0,0,1-.61.93c-.25.36-.7,1-1.36,1.88v.91h.79c.23-.28.41-.51.53-.69s.24-.27.32-.28a.58.58,0,0,1,.35.13c.11.09.23.18.36.3l.3.29a.58.58,0,0,1,.18.29c0,.14,0,.28-.13.31l-7.44,0-.56,0-.22-.27"/><path id="yin" class="cls-2" d="M65.91,3.3h1.72V4.4H65.91Zm0,4.19V4.82h.65l0,.28c0,.4.06.68.08.83s.06.33.11.54v0c0,.22.11.44.17.66l-1,.33m0-5.58h1.72v1H65.91ZM69.63,8l-.25-.1a3,3,0,0,1-1-.64c-.21-.21-.38-.41-.52-.58a4.79,4.79,0,0,0,.84-.42L69,5.94c.3-.05.46-.11.47-.2s0-.1-.1-.17A1.18,1.18,0,0,0,69,5.36l-.44-.19a.61.61,0,0,0-.3-.08.19.19,0,0,0-.1,0l0,.12-.06.16a1.52,1.52,0,0,1-.16.3,1.76,1.76,0,0,1-.21.32l-.18.19-.24-.49a7.1,7.1,0,0,1-.24-.91h.55v0c0,.11.1.18.29.21h.38A1.17,1.17,0,0,0,68.65,5a.49.49,0,0,0,.19-.23l0-1V2.07c.18-.17.27-.28.27-.35s-.06-.09-.15-.16-.3-.21-.62-.41A.85.85,0,0,0,68,1a.47.47,0,0,0-.24.19l-.2.28H65.91l-.69-.35C65,1,64.86,1,64.82,1l-.08.06,0,1v3.2a2.38,2.38,0,0,0-.36-.4c-.17-.16-.29-.23-.35-.22a.21.21,0,0,0-.15.08l-.17.2-.26.3h-.15v-1a1,1,0,0,0,.18-.17h.88c.09,0,.15,0,.16-.07a.19.19,0,0,0,0-.18,1.91,1.91,0,0,0-.3-.33.86.86,0,0,0-.32-.23.24.24,0,0,0-.18.08,1.23,1.23,0,0,0-.19.2l-.23.28H62.16l-.41,0c.24-.29.49-.62.74-1h0l1.48,0,.55,0a.21.21,0,0,0,.1-.32h0a2.31,2.31,0,0,0-.43-.47C64.09,2,64,2,64,2s-.12,0-.21.14l-.37.44h-.66c.11-.17.27-.46.49-.86.23-.08.34-.16.34-.23s-.26-.25-.78-.42L62.38.91c-.19-.07-.3-.06-.34,0l0,.18,0,.26c0,.13-.09.37-.19.71s-.2.69-.32,1a7.1,7.1,0,0,1-.41,1l-.13.24a.2.2,0,0,0,0,.13.08.08,0,0,0,.1.06.3.3,0,0,0,.11-.07l.16-.16L61.6,4l.06-.06.16.2.4,0V5.2h-.69l-.54,0h0l.17.3h0l0,0,.56,0h.5v2a.48.48,0,0,1-.1.29l-.1.1A.21.21,0,0,0,62,8a2.19,2.19,0,0,0,.21.43,5.24,5.24,0,0,0,.28.47c.07.1.13.15.18.16h.1A.56.56,0,0,0,62.9,9l.16-.22c.21-.29.38-.53.52-.7s.44-.52.92-1l.2-.21a.16.16,0,0,0,0-.14.07.07,0,0,0-.08-.08.18.18,0,0,0-.11,0l-.31.16L63.74,7l-.4.21V5.5h.78l.55,0a.18.18,0,0,0,.11-.1v2a.57.57,0,0,1,0,.24.5.5,0,0,1-.1.13.4.4,0,0,0-.07.12c0,.07.05.26.22.55l.34.54c.06.1.11.15.17.16a.11.11,0,0,0,.08,0l.11-.1.17-.21L66,8.56l.4-.45.38-.4h0L67,7.4s0,.09.08.17a4.73,4.73,0,0,0,.35.59,3,3,0,0,0,.67.73L68.3,9l.13.08c.07,0,.12,0,.15,0a.9.9,0,0,0,.17-.28,1.1,1.1,0,0,1,.32-.38,1.27,1.27,0,0,1,.29-.16l.26-.07c.09,0,.14-.06.14-.12S69.71,8,69.63,8"/><path id="hang" class="cls-2" d="M71.72,3.72A1.1,1.1,0,0,0,72,3.6l.19-.11a3.18,3.18,0,0,0,.36-.22l.6-.35h0l.76-.52.44-.28c.22,0,.35,0,.39-.08s0-.1,0-.19a1.94,1.94,0,0,0-.46-.49l-.34-.3c-.14-.12-.23-.18-.29-.16S73.55,1,73.5,1l-.07.13-.17.26-.09.15L73,1.84c-.12.19-.28.41-.47.68a6.8,6.8,0,0,1-.57.66l-.19.19a1.16,1.16,0,0,0-.19.22.08.08,0,0,0,0,.1.12.12,0,0,0,.12,0M80,4a1.69,1.69,0,0,0-.36-.45A1.7,1.7,0,0,0,79,3.12c-.1,0-.24.1-.41.31l-.4.54H75l-.53,0h0c.17,0,.27,0,.29-.13s-.12-.27-.47-.49l-.6-.37c-.11-.05-.19-.07-.22-.05a.2.2,0,0,0-.09.11l-.07.15-.17.33h0L72.9,4c-.1.18-.28.46-.55.86a8.33,8.33,0,0,1-.78,1L71.39,6a.26.26,0,0,0-.07.14.17.17,0,0,0,.06.12s.12,0,.26-.08L71.91,6c.4-.26.69-.45.87-.59V8.06l0,1a.37.37,0,0,0,.12.13.7.7,0,0,0,.32,0h.16a.87.87,0,0,0,.52-.14A.59.59,0,0,0,74,8.84L74,8V5.07c.14-.14.21-.24.2-.29s0-.11-.13-.15l-.23-.14,0,0L74.28,4l.1-.08.08.09.19.27.56,0h1.94V7.57a.83.83,0,0,1-.07.3c0,.08-.18.11-.43.09l-.44,0L76,7.9a.73.73,0,0,0-.28,0,.13.13,0,0,0-.1.13.11.11,0,0,0,.07.12.88.88,0,0,0,.27.08l.25.05a.41.41,0,0,1,.21.14.53.53,0,0,1,.12.25V9a.23.23,0,0,0,0,.17.37.37,0,0,0,.15,0,2.83,2.83,0,0,0,.79-.09c.39-.07.62-.18.7-.31a1,1,0,0,0,.11-.47V4.42l.12-.13h.81l.54,0A.21.21,0,0,0,80,4M74.84,1.83,75,2l.12.16.55,0,3,0,.55,0a.2.2,0,0,0,.08-.33,3,3,0,0,0-.31-.31l-.37-.34a.5.5,0,0,0-.27-.14c-.07,0-.16.06-.27.19s-.26.32-.47.6H75.6l-.77-.05,0,0"/><path id="agricultural" class="cls-2" d="M48.63,15.29H46.41a.07.07,0,0,1,0,0l0,0,0,0h0l.07,0,.08-.06A.15.15,0,0,0,46.7,15a.44.44,0,0,0,0-.13V13.32a.59.59,0,0,0,0-.11.23.23,0,0,0,0-.11L46.59,13l-.08,0h-.09s0,0,0,0a.05.05,0,0,1,0,0l0,0h1.1l0,0s0,0,0,0l0,0h0l-.09,0s0,0-.08.07a.42.42,0,0,0,0,.1.45.45,0,0,0,0,.11v1.63s0,.07,0,.08a.07.07,0,0,0,0,.06l.05.05h.57l.16,0,.16-.09a.92.92,0,0,0,.14-.13,1.71,1.71,0,0,0,.11-.14l.07-.13,0-.07a.15.15,0,0,0,0-.06l0,0s0,0,0,0,0,0,0,.08m-4.2-.15.33-.82v0l.34.8Zm1.81.78,0,0h0l-.08,0s0,0-.06-.06L46,15a.29.29,0,0,1-.05-.1L45.1,13a.36.36,0,0,0-.06-.11.09.09,0,0,0-.07,0,.08.08,0,0,0-.07.05.44.44,0,0,0-.06.1h0l-.73,1.87,0,.07L44,15l-.07.07-.08.05-.08,0h0l0,0s0,0,0,0,0,0,0,0h.86s0,0,0,0,0,0,0,0l0,0h-.1l-.07,0a.11.11,0,0,1,0-.08.17.17,0,0,1,0-.12l.13-.38h.77l.17.37s0,0,0,.08a.15.15,0,0,1,0,.09.12.12,0,0,1-.07.05l-.07,0h-.06l0,0a.05.05,0,0,0,0,0s0,0,0,0h1.14l0,0a.06.06,0,0,0,0,0l0,0m-3.79-1.31a.44.44,0,0,1-.16.06H42v-.73c0-.06,0-.1,0-.12l0-.06.14,0h.27a.35.35,0,0,1,.14.06.32.32,0,0,1,.1.1.56.56,0,0,1,.05.18.74.74,0,0,1,0,.21.45.45,0,0,1-.07.18.33.33,0,0,1-.14.12m1.09.73a.05.05,0,0,0,0,0,0,0,0,0,0-.05,0,.08.08,0,0,0,0,0l0,.08a.67.67,0,0,1-.06.12.16.16,0,0,1-.07.07.11.11,0,0,1-.07,0,.12.12,0,0,1-.09,0,.17.17,0,0,1,0-.12v-.22q0-.13,0-.21A.39.39,0,0,0,43,14.2a.27.27,0,0,0-.12-.09l-.13,0-.14,0,.17,0L43,14a.85.85,0,0,0,.19-.1.5.5,0,0,0,.14-.15.4.4,0,0,0,.06-.26.6.6,0,0,0,0-.24,1,1,0,0,0-.12-.15A.44.44,0,0,0,43,13a.7.7,0,0,0-.19-.06H41.19l0,0s0,0,0,0,0,0,0,0,0,0,0,0h.06l.08,0a.16.16,0,0,1,.07.07.43.43,0,0,1,0,.12s0,.07,0,.1v1.56a.69.69,0,0,1,0,.13c0,.05,0,.09-.06.1l-.08.05-.07,0h0l0,0,0,0s0,0,0,0l0,0h1.11a0,0,0,0,0,0-.08l0,0h0l-.08,0a.27.27,0,0,1-.08-.07.23.23,0,0,1,0-.1.52.52,0,0,1,0-.11V14.1h.18l.19,0h0l.1.05a.22.22,0,0,1,.07.09.7.7,0,0,1,0,.16,1.15,1.15,0,0,1,0,.18v.17a1,1,0,0,0,0,.2.52.52,0,0,0,.06.16.32.32,0,0,0,.15.13.48.48,0,0,0,.22,0,.55.55,0,0,0,.18,0l.15-.07a.74.74,0,0,0,.12-.13.8.8,0,0,0,.08-.16,1.94,1.94,0,0,1,.05-.2.14.14,0,0,0,0-.11m-4.25,0a1.41,1.41,0,0,0,0,.22.37.37,0,0,0,.08.15.32.32,0,0,0,.17.12.7.7,0,0,0,.25,0,.53.53,0,0,0,.22,0A.6.6,0,0,0,40.3,15a.45.45,0,0,0,.16-.14.51.51,0,0,0,.07-.17,1.36,1.36,0,0,0,0-.2V13.27a.52.52,0,0,0,0-.11.36.36,0,0,0,0-.09A.19.19,0,0,0,40.4,13l-.08,0h-.1a0,0,0,0,1,0-.05.05.05,0,0,1,0,0H41a.05.05,0,0,1,0,0s0,0,0,0H41l-.09,0-.08.06a.93.93,0,0,0-.05.1.45.45,0,0,0,0,.11v1.21a.86.86,0,0,1,0,.16.39.39,0,0,1,0,.18.62.62,0,0,1-.11.17.7.7,0,0,1-.17.13.78.78,0,0,1-.21.09l-.21,0h-.42l-.27,0a.59.59,0,0,1-.26-.14.81.81,0,0,1-.14-.16.69.69,0,0,1,0-.1.52.52,0,0,0,0-.11v-1.4s0-.08,0-.13a.17.17,0,0,0-.07-.1.3.3,0,0,0-.1-.07l-.1,0h-.09a.08.08,0,0,1,0,0s0,0,0,0l0,0h1.21l0,0a.08.08,0,0,1,0,.05h-.08l-.1,0a.31.31,0,0,0-.09.07.27.27,0,0,0-.06.1.5.5,0,0,0,0,.12m-3.2-.43h2.2v.74a.15.15,0,0,1,0,.07s0,0,0,0a0,0,0,0,1-.05,0s0,0,0-.05l0-.07-.05-.13a1.4,1.4,0,0,0-.09-.17.87.87,0,0,0-.13-.15l-.17-.09-.13,0h-.09v1.84a.5.5,0,0,0,0,.12.21.21,0,0,0,.06.1.23.23,0,0,0,.13.07l.12,0h0l0,0s0,0,0,0,0,0,0,0h-1.4l0,0a.05.05,0,0,1,0,0l0,0h.12l.1,0,.09-.06A.24.24,0,0,0,37,15a.74.74,0,0,0,0-.12V13h-.08l-.1,0-.15.06-.13.09-.1.13a.9.9,0,0,0-.07.14l-.07.15v.05l0,.05h0s0,0,0,0a.14.14,0,0,1,0-.07M36,15.29H33.8a0,0,0,0,1,0,0l0,0,0,0h0l.06,0A.47.47,0,0,0,34,15.1a.15.15,0,0,0,.06-.09.44.44,0,0,0,0-.13V13.32a.59.59,0,0,0,0-.11.23.23,0,0,0,0-.11L34,13l-.08,0h-.09s0,0,0,0a.05.05,0,0,1,0,0l0,0H35l0,0a.05.05,0,0,1,0,0l0,0h0l-.09,0s0,0-.08.07a.47.47,0,0,0,0,.1s0,.08,0,.11V15a.09.09,0,0,0,0,.06l.05.05h.57l.15,0a.7.7,0,0,0,.17-.09.92.92,0,0,0,.14-.13.71.71,0,0,0,.1-.14.66.66,0,0,0,.08-.13l0-.07a.16.16,0,0,1,0-.06.06.06,0,0,1,0,0s0,0,0,0v.08m-4.06,0a1.41,1.41,0,0,0,0,.22.34.34,0,0,0,.07.15.41.41,0,0,0,.18.12.7.7,0,0,0,.25,0,.5.5,0,0,0,.21,0A.58.58,0,0,0,33,15a.56.56,0,0,0,.16-.14.87.87,0,0,0,.07-.17,1.34,1.34,0,0,0,0-.2V13.27a.45.45,0,0,0,0-.11.36.36,0,0,0,0-.09.26.26,0,0,0-.09-.05L33,13h-.1s0,0,0-.05,0,0,0,0h.8a.05.05,0,0,1,0,0s0,0,0,0h-.08l-.1,0-.07.06a.31.31,0,0,0-.05.1.52.52,0,0,0,0,.11v1.37a.58.58,0,0,1,0,.18,1,1,0,0,1-.11.17.59.59,0,0,1-.18.13.72.72,0,0,1-.2.09l-.21,0h-.42l-.28,0a.72.72,0,0,1-.26-.14,1.13,1.13,0,0,1-.13-.16.69.69,0,0,1,0-.1s0-.07,0-.11,0-.08,0-.11V13.32a.62.62,0,0,0,0-.13.12.12,0,0,0-.06-.1A.26.26,0,0,0,31.3,13l-.09,0h-.09a.08.08,0,0,1,0,0s0,0,0,0l.05,0h1.21l0,0a.08.08,0,0,1,0,.05H32.3l-.1,0-.1.07a.27.27,0,0,0-.06.1.49.49,0,0,0,0,.12M31,13l0,.61s0,0,0,.06a.08.08,0,0,1,0,0h-.08l0-.06v0a.77.77,0,0,0-.06-.15,1,1,0,0,0-.1-.15.69.69,0,0,0-.13-.11l-.18-.09a.75.75,0,0,0-.23,0,.47.47,0,0,0-.24,0,.34.34,0,0,0-.16.13.48.48,0,0,0-.1.17,1.18,1.18,0,0,0-.07.2,2.07,2.07,0,0,0,0,.22c0,.06,0,.14,0,.23s0,.14,0,.21a1.64,1.64,0,0,0,0,.23,1.6,1.6,0,0,0,.05.21.77.77,0,0,0,.1.18.58.58,0,0,0,.17.14.45.45,0,0,0,.18.07.39.39,0,0,0,.19,0,.53.53,0,0,0,.19,0l.16-.1a.86.86,0,0,0,.14-.13l.12-.15a.49.49,0,0,1,.08-.1H31a.05.05,0,0,1,0,.05.22.22,0,0,1,0,.1.78.78,0,0,1-.11.18,1.53,1.53,0,0,1-.14.17,1.21,1.21,0,0,1-.2.14.77.77,0,0,1-.23.06,1.06,1.06,0,0,1-.25,0l-.29,0a1.31,1.31,0,0,1-.28-.09,1.06,1.06,0,0,1-.42-.42,2.29,2.29,0,0,1-.1-.23,1.7,1.7,0,0,1,0-.22c0-.07,0-.14,0-.2s0-.15,0-.25a.92.92,0,0,1,.06-.25,1,1,0,0,1,.09-.21,1.09,1.09,0,0,1,.13-.17.86.86,0,0,1,.14-.13,1.18,1.18,0,0,1,.19-.11.68.68,0,0,1,.2-.07l.26,0h.22l.19,0,.17.07.11.05a.08.08,0,0,0,.07,0s0,0,0,0,0,0,0-.06a.08.08,0,0,1,0-.05s0,0,0,0a0,0,0,0,1,.05,0s0,0,0,0v0m-2.45,1.9a.41.41,0,0,0,0,.12.19.19,0,0,0,0,.1l.09.06.1,0h.09s0,0,0,0,0,0,0,0H27.61s0,0,0,0l0,0,0,0h0l.08,0,.09-.06a.23.23,0,0,0,.05-.11.35.35,0,0,0,0-.13V13.32s0-.06,0-.11a.22.22,0,0,0-.05-.11.2.2,0,0,0-.09-.07l-.1,0h-.07s0,0,0,0a.05.05,0,0,1,0,0l.05,0h1.14a.05.05,0,0,1,0,0l0,0h-.08a.17.17,0,0,0-.1,0l-.08.08a.41.41,0,0,0,0,.09.37.37,0,0,0,0,.11m-2.07.58a.44.44,0,0,1-.16.06h-.38v-.73a.29.29,0,0,1,0-.12s0,0,.05-.06l.13,0h.27a.35.35,0,0,1,.14.06.32.32,0,0,1,.1.1.39.39,0,0,1,0,.18.5.5,0,0,1,0,.21.45.45,0,0,1-.07.18.33.33,0,0,1-.14.12m1.09.73s0,0,0,0a.07.07,0,0,0-.06,0s0,0,0,0a.56.56,0,0,0,0,.08.61.61,0,0,1-.05.12.18.18,0,0,1-.08.07.1.1,0,0,1-.07,0l-.09,0a.17.17,0,0,1,0-.12c0-.06,0-.14,0-.22a.58.58,0,0,0,0-.21.37.37,0,0,0-.07-.14.38.38,0,0,0-.13-.09l-.13,0-.14,0,.18,0,.18-.05a.85.85,0,0,0,.19-.1.4.4,0,0,0,.14-.15.48.48,0,0,0,.07-.26.84.84,0,0,0-.06-.24.61.61,0,0,0-.12-.15.37.37,0,0,0-.16-.1l-.18-.06H25.11l-.05,0s0,0,0,0,0,0,0,.05h.09a.11.11,0,0,1,.08,0s.05,0,.08.07a.42.42,0,0,1,0,.12.38.38,0,0,1,0,.1v1.56a.69.69,0,0,1,0,.13.15.15,0,0,1,0,.1l-.09.05-.07,0h0l0,0,0,0s0,0,0,0l.05,0h1.12s0,0,0,0a.05.05,0,0,0,0,0l0,0h0l-.08,0a.19.19,0,0,1-.08-.07.16.16,0,0,1-.05-.1.52.52,0,0,1,0-.11V14.1h.18l.19,0h0l.1.05a.22.22,0,0,1,.07.09s0,.1,0,.16a1,1,0,0,0,0,.18v.17a1,1,0,0,0,0,.2.37.37,0,0,0,.07.16.29.29,0,0,0,.14.13.48.48,0,0,0,.22,0,.55.55,0,0,0,.18,0l.15-.07a.49.49,0,0,0,.12-.13.48.48,0,0,0,.08-.16l.06-.2a.2.2,0,0,0,0-.11m-6.91-.2.33-.82v0l.34.8Zm1.81.78,0,0h0l-.08,0-.07-.06-.07-.1-.06-.1L21.21,13l-.06-.11a.09.09,0,0,0-.07,0,.09.09,0,0,0-.08.05L21,13h0l-.73,1.87a.25.25,0,0,1,0,.07.35.35,0,0,1-.05.08.46.46,0,0,1-.07.07l-.08.05-.08,0h0l-.06,0s0,0,0,0,0,0,0,0h.86a0,0,0,0,0,0,0l0,0,0,0h-.1l-.08,0a.1.1,0,0,1,0-.08.17.17,0,0,1,0-.12l.12-.38h.78l.16.37a.15.15,0,0,1,0,.08.29.29,0,0,1,0,.09.12.12,0,0,1-.07.05l-.07,0h-.06l-.05,0a.05.05,0,0,0,0,0s0,0,0,0h1.14l0,0a0,0,0,0,0,0,0l0,0m2.52-1s0,0,0,0,0,0,0,0l0,0h0l-.06,0a.12.12,0,0,0,0,.05.39.39,0,0,0,0,.09.23.23,0,0,0,0,.07l-.07.64a.09.09,0,0,1,0,.07.08.08,0,0,1-.06,0,.06.06,0,0,1-.07,0s0,0,0,0a.35.35,0,0,0,0-.08l-.05-.06-.06,0-.08,0-.09.07a.93.93,0,0,1-.22.1,1,1,0,0,1-.38.06,1.25,1.25,0,0,1-.42-.08.88.88,0,0,1-.34-.24,1,1,0,0,1-.19-.31,1.28,1.28,0,0,1-.07-.3,2.54,2.54,0,0,1,0-.26,2.28,2.28,0,0,1,0-.26,2,2,0,0,1,0-.24,1,1,0,0,1,.1-.21,1.09,1.09,0,0,1,.13-.17L23,13.1l.17-.1.22-.08a1.23,1.23,0,0,1,.29,0h.19L24,13l.17.07.12.06a.11.11,0,0,0,.08,0l0,0a.64.64,0,0,0,0-.07.08.08,0,0,1,0-.05s0,0,0,0h.05l0,0v.72l0,0a.05.05,0,0,1,0,0s0,0,0,0a.05.05,0,0,1,0,0v-.05l0-.12a.47.47,0,0,0-.09-.12l-.14-.12-.2-.1a.85.85,0,0,0-.22,0,.73.73,0,0,0-.24.07.52.52,0,0,0-.19.2.77.77,0,0,0-.1.25,1,1,0,0,0-.05.22,1.69,1.69,0,0,0,0,.23,1.62,1.62,0,0,0,0,.21,1.55,1.55,0,0,0,0,.23,1,1,0,0,0,.05.22.53.53,0,0,0,.09.2.46.46,0,0,0,.18.12.75.75,0,0,0,.26,0A.54.54,0,0,0,24,15a.36.36,0,0,0,.15-.15.37.37,0,0,0,0-.18V14.6a.22.22,0,0,0,0-.1.19.19,0,0,0,0-.09L24,14.36l-.06,0H23.9l0,0a0,0,0,0,1,0,0,.05.05,0,0,1,0,0l.05,0h1"/><path id="bank" class="cls-2" d="M53.85,14.57v-.15h.34l-.34-.8V13h0l0-.11a.1.1,0,0,1,.08,0,.09.09,0,0,1,.07,0l.06.11L55,14.89,55,15l.07.11.07.06.08,0h0l0,0,0,0a0,0,0,0,1,0,0l0,0H54.14s0,0,0,0a.05.05,0,0,1,0,0l0,0h.06l.07,0a.12.12,0,0,0,.07-.05.29.29,0,0,0,0-.09.15.15,0,0,0,0-.08l-.16-.37Zm3.74.54a.34.34,0,0,1,0,.15s0,.05-.07.05a.09.09,0,0,1-.08,0l-.06,0,0-.07L56,13.4v1.54a.3.3,0,0,0,0,.1.18.18,0,0,0,.07.08.3.3,0,0,0,.11,0l.09,0h.06l0,0s0,0,0,0,0,0,0,0h-.88l0,0s0,0,0,0l0,0,0,0h.12l.09,0a.18.18,0,0,0,.07-.08.26.26,0,0,0,0-.11V13.37s0-.08,0-.12a.34.34,0,0,0,0-.12.19.19,0,0,0-.07-.08l-.09,0h-.16s0,0,0-.05a.05.05,0,0,1,0,0h.8l1.18,1.53V13.24a.29.29,0,0,0,0-.09.15.15,0,0,0-.06-.09.19.19,0,0,0-.09-.05H57a.08.08,0,0,1,0-.05l0,0H58s0,0,0,0,0,0,0,0h-.1l-.1,0a.19.19,0,0,0-.09.05l0,.09a.51.51,0,0,0,0,.09v1.86ZM58.9,14l.67-.68,0-.07a.36.36,0,0,0,0-.09.08.08,0,0,0,0-.08.08.08,0,0,0-.05-.05l-.06,0h-.11s0,0,0,0,0,0,0,0h1a0,0,0,0,1,0,0,.08.08,0,0,1,0,.05h-.08l-.12,0-.13.05a.53.53,0,0,0-.14.08.48.48,0,0,0-.12.08l-.4.44.63,1.08s0,.06.08.12l.06.09.07.08.07.07.08.05a.11.11,0,0,0,.07,0h.08a0,0,0,0,1,0,.05s0,0,0,0h-1.2a.07.07,0,0,1,0,0s0,0,0,0h.07l.06,0a.07.07,0,0,0,0-.05.11.11,0,0,0,0-.08l0-.07-.53-.91-.2.2v.62a.43.43,0,0,0,0,.11.3.3,0,0,0,0,.1.27.27,0,0,0,.08.07l.09,0h0l0,0,0,0s0,0,0,0H58a0,0,0,0,1,0,0l0,0,0,0h0l.06,0a.21.21,0,0,0,.08-.06.24.24,0,0,0,.06-.09.51.51,0,0,0,0-.13V13.32a.49.49,0,0,0,0-.11.25.25,0,0,0-.13-.18l-.08,0H58a0,0,0,0,1,0,0l0,0h1.17a.05.05,0,0,1,0,.08h-.09L59,13a.18.18,0,0,0-.08.07.42.42,0,0,0,0,.1s0,.07,0,.11V14Zm-5-1v.58l-.33.82h.34v.15h-.4l-.12.38a.17.17,0,0,0,0,.12.1.1,0,0,0,0,.08l.08,0h.1l0,0,0,0s0,0,0,0h-.86s0,0,0,0,0,0,0,0l.06,0h0l.08,0,.08-.05L53,15a.35.35,0,0,0,0-.08.25.25,0,0,0,0-.07L53.85,13ZM51.6,15.29v-.15l.15,0A.4.4,0,0,0,51.9,15,.26.26,0,0,0,52,14.9a.47.47,0,0,0,0-.17c0-.06,0-.11,0-.14a1.06,1.06,0,0,0,0-.19.33.33,0,0,0-.11-.15.51.51,0,0,0-.18-.09l-.09,0V14a.71.71,0,0,0,.18-.08.35.35,0,0,0,.13-.14.48.48,0,0,0,.05-.22.69.69,0,0,0,0-.22.35.35,0,0,0-.1-.17.41.41,0,0,0-.15-.07l-.08,0v-.16h.1l.26,0,.21,0a.7.7,0,0,1,.17.09.37.37,0,0,1,.12.13.43.43,0,0,1,.08.18.55.55,0,0,1,0,.22.34.34,0,0,1-.07.16.34.34,0,0,1-.12.12,1.09,1.09,0,0,1-.19.1L52,14l-.23,0,.28,0,.22.07a.67.67,0,0,1,.19.1.45.45,0,0,1,.13.17.51.51,0,0,1,.06.25.66.66,0,0,1-.06.27.63.63,0,0,1-.31.27.73.73,0,0,1-.24.07l-.25,0Zm0-2.41V13h-.32l-.06,0,0,.06s0,0,0,.09V14h.25a.5.5,0,0,0,.16,0h0v.18h-.42V15a.55.55,0,0,0,0,.09l.05.05h.36v.15H50.31s0,0,0,0,0,0,0,0l0,0h.08l.09-.05a.22.22,0,0,0,.07-.09.46.46,0,0,0,0-.14V13.28a.36.36,0,0,0,0-.11.36.36,0,0,0,0-.09A.18.18,0,0,0,50.5,13l-.1,0a.08.08,0,0,1-.06,0s0,0,0,0a.05.05,0,0,1,0,0l0,0Z"/><path id="of" class="cls-2" d="M63.43,15.31v-.15h.13l.14-.05a.33.33,0,0,0,.13-.11.57.57,0,0,0,.1-.19c0-.08,0-.15,0-.2a1.65,1.65,0,0,0,0-.27c0-.12,0-.2,0-.24v-.19c0-.11,0-.2,0-.27l0-.21a1.27,1.27,0,0,0-.06-.18.42.42,0,0,0-.28-.21l-.18,0h0v-.15h0a2.48,2.48,0,0,1,.27,0L64,13l.2.11a.87.87,0,0,1,.17.16,1,1,0,0,1,.14.2,1.06,1.06,0,0,1,.09.25c0,.09,0,.17,0,.25a1.41,1.41,0,0,1,0,.2,1.64,1.64,0,0,1,0,.23,1.08,1.08,0,0,1,0,.21,1.28,1.28,0,0,1-.09.22,1.56,1.56,0,0,1-.16.2.73.73,0,0,1-.18.14l-.2.1-.17.06h-.3Zm2.15-.44a.49.49,0,0,0,0,.13.21.21,0,0,0,.06.1l.08.06.08,0h0l0,0a.05.05,0,0,1,0,0,.08.08,0,0,1,0,0H64.74l0,0s0,0,0,0l0,0,0,0h.06l.06,0a.14.14,0,0,0,.09-.05A.13.13,0,0,0,65,15a.32.32,0,0,0,0-.14V13.31a.49.49,0,0,0,0-.11.14.14,0,0,0-.05-.11.24.24,0,0,0-.08-.06l-.09,0h-.08a0,0,0,0,1,0,0s0,0,0,0l0,0h2.08v.65s0,0,0,.06l0,0h0s0,0,0,0l0-.07,0-.12a.51.51,0,0,0-.09-.13.44.44,0,0,0-.14-.13.51.51,0,0,0-.17-.07.42.42,0,0,0-.14,0h-.46l0,0,0,0V14h.33a.2.2,0,0,0,.08,0,.3.3,0,0,0,.08-.08.35.35,0,0,0,.06-.09.2.2,0,0,0,0-.08l0-.07s0,0,0,0,0,0,0,0,0,0,0,.06v.83a.09.09,0,0,1,0,0h-.05s0,0,0,0l0-.06a.61.61,0,0,0,0-.12.62.62,0,0,0-.09-.12l-.1-.07-.1,0h-.24v.75Zm-2.15-2V13a.41.41,0,0,0-.16,0,.71.71,0,0,0-.15.08.74.74,0,0,0-.12.16,1,1,0,0,0-.09.24,2,2,0,0,0,0,.26c0,.1,0,.2,0,.29a1.72,1.72,0,0,0,0,.2c0,.06,0,.12,0,.2a1.55,1.55,0,0,0,0,.21.49.49,0,0,0,0,.17L63,15l.09.09a.38.38,0,0,0,.17.08l.16,0v.15h-.16l-.19,0a.8.8,0,0,1-.21-.08,1.1,1.1,0,0,1-.21-.14,1,1,0,0,1-.17-.18,1.13,1.13,0,0,1-.12-.21,1.46,1.46,0,0,1-.07-.19,1.28,1.28,0,0,1,0-.17.66.66,0,0,1,0-.15V14a.62.62,0,0,1,0-.18,1.6,1.6,0,0,1,.05-.21,1.13,1.13,0,0,1,.09-.2.83.83,0,0,1,.13-.18l.15-.13.16-.1.19-.08.19,0h.18"/><path id="china" class="cls-2" d="M78.39,14.57v-.15h.34l-.34-.8V13h0l0-.11a.1.1,0,0,1,.08,0,.09.09,0,0,1,.07,0l.06.11.86,1.89.06.09.07.11.07.06a.13.13,0,0,0,.08,0h0l0,0,0,0a0,0,0,0,1,0,0,.05.05,0,0,1,0,0H78.68s0,0,0,0a.05.05,0,0,1,0,0l0,0h.06l.07,0a.12.12,0,0,0,.07-.05A.29.29,0,0,0,79,15a.45.45,0,0,0,0-.08l-.16-.37M78.39,13v.58l-.33.82h.34v.15H78l-.12.38a.17.17,0,0,0,0,.12.1.1,0,0,0,0,.08l.08,0h.1l0,0,0,0a0,0,0,0,1,0,0h-.86s0,0,0,0,0,0,0,0l.06,0h0l.08,0,.08-.05a.46.46,0,0,0,.07-.07.35.35,0,0,0,.05-.08.25.25,0,0,0,0-.07L78.39,13Zm-7.94,0,0,.61s0,0,0,.06a.08.08,0,0,1,0,0h-.08l0-.06v0a.77.77,0,0,0-.06-.15,1,1,0,0,0-.11-.15.63.63,0,0,0-.12-.11l-.18-.09a.75.75,0,0,0-.23,0,.47.47,0,0,0-.24,0,.43.43,0,0,0-.17.13.46.46,0,0,0-.09.17.93.93,0,0,0-.07.2c0,.08,0,.15,0,.21a1.77,1.77,0,0,0,0,.24,1.48,1.48,0,0,0,0,.21,1.64,1.64,0,0,0,0,.23.8.8,0,0,0,0,.21.52.52,0,0,0,.1.18.7.7,0,0,0,.16.14.6.6,0,0,0,.18.07.44.44,0,0,0,.2,0,.58.58,0,0,0,.19,0l.16-.1a.86.86,0,0,0,.14-.13l.12-.16.08-.09h.06a.05.05,0,0,1,0,.05.22.22,0,0,1,0,.1,1.42,1.42,0,0,1-.11.18,1.53,1.53,0,0,1-.14.17,1.21,1.21,0,0,1-.2.14.86.86,0,0,1-.23.06,1.1,1.1,0,0,1-.25,0l-.29,0a1.31,1.31,0,0,1-.28-.09,1,1,0,0,1-.25-.18,1.88,1.88,0,0,1-.18-.24,1.09,1.09,0,0,1-.09-.23,1.7,1.7,0,0,1,0-.22c0-.07,0-.14,0-.2s0-.15,0-.25a1.58,1.58,0,0,1,0-.25,2,2,0,0,1,.1-.21l.12-.17.15-.13L69,13a.86.86,0,0,1,.21-.07l.26,0h.22l.19,0,.17.07.11.05a.08.08,0,0,0,.07,0s0,0,0,0,0,0,0-.06a.08.08,0,0,1,0-.05s0,0,0,0a0,0,0,0,1,.05,0s0,0,0,0a.06.06,0,0,1,0,0m1.87.92v-.58a.38.38,0,0,0,0-.1.36.36,0,0,0,0-.11.22.22,0,0,0-.09-.07.18.18,0,0,0-.09,0H72a.07.07,0,0,1,0-.05s0,0,0,0l0,0h1.06l0,0s0,0,0,0,0,0,0,0l0,0h0L73,13a.17.17,0,0,0-.08.07.37.37,0,0,0,0,.11.49.49,0,0,0,0,.12v1.55a.45.45,0,0,0,0,.11.18.18,0,0,0,0,.1.2.2,0,0,0,.09.06l.09,0h0l0,0s0,0,0,0,0,0,0,0H72a.07.07,0,0,1,0,0l0,0,0,0h0l.07,0a.24.24,0,0,0,.09-.06.19.19,0,0,0,0-.09.51.51,0,0,0,0-.13V14h-.84v.84a.37.37,0,0,0,0,.11.31.31,0,0,0,.05.1.27.27,0,0,0,.08.07l.09,0h0l0,0a.06.06,0,0,1,0,0s0,0,0,0H70.62a0,0,0,0,1,0,0l0,0,0,0h0l.06,0,.08-.05a.21.21,0,0,0,.06-.1.28.28,0,0,0,0-.13V13.32s0-.06,0-.1a.43.43,0,0,0,0-.12L70.79,13l-.08,0h-.08s0,0,0-.05,0,0,0,0a.05.05,0,0,1,0,0h1.1a.05.05,0,0,1,0,0,.08.08,0,0,1,0,.05h-.07l-.09,0a.18.18,0,0,0-.08.07.18.18,0,0,0-.05.11.34.34,0,0,0,0,.1v.59Zm1.86,1a.41.41,0,0,0,0,.12.19.19,0,0,0,0,.1l.09.06.1,0h.08a.05.05,0,0,1,0,0s0,0,0,0H73.28a.07.07,0,0,1,0,0l0,0,0,0h0l.08,0a.24.24,0,0,0,.08-.06.17.17,0,0,0,.06-.11.35.35,0,0,0,0-.13V13.32s0-.06,0-.11a.22.22,0,0,0,0-.11.23.23,0,0,0-.1-.07.19.19,0,0,0-.09,0H73.3s0,0,0,0a.05.05,0,0,1,0,0l0,0H74.5s0,0,0,0l0,0h-.08l-.09,0-.08.08a.41.41,0,0,0,0,.09.37.37,0,0,0,0,.11v1.57Zm2.61.23a.33.33,0,0,1,0,.15s0,.05-.06.05a.08.08,0,0,1-.08,0l-.06,0-.06-.07L75.15,13.4v1.54a.3.3,0,0,0,0,.1.2.2,0,0,0,.08.08.21.21,0,0,0,.1,0l.1,0h0l0,0s0,0,0,0,0,0,0,0h-.88l0,0s0,0,0,0,0,0,0,0l0,0h.12l.1,0a.27.27,0,0,0,.07-.08.52.52,0,0,0,0-.11V13.37a.49.49,0,0,0,0-.12.21.21,0,0,0,0-.12.19.19,0,0,0-.07-.08l-.09,0h-.15s0,0,0-.05,0,0,0,0h.79l1.19,1.53V13.24a.16.16,0,0,0,0-.09.15.15,0,0,0-.06-.09.19.19,0,0,0-.09-.05h-.22a0,0,0,0,1,0-.05l0,0h.92a.05.05,0,0,1,0,0s0,0,0,0H77L77,13a.19.19,0,0,0-.09.05.41.41,0,0,0,0,.09.18.18,0,0,0,0,.09v1.86Z"/></g></g></g></svg>