<svg xmlns="http://www.w3.org/2000/svg" viewBox="0 0 80 30.15"><defs><style>.cls-1{fill:#ed1c24;}.cls-1,.cls-3{fill-rule:evenodd;}.cls-2,.cls-3{fill:#001689;}</style></defs><title>FA_Ahorro_Farmacias</title><g id="Layer_2" data-name="Layer 2"><g id="FA_Ahorro_Farmacias"><path class="cls-1" d="M26.09,22.35,21.44,0c4.75.78,7.85,3.24,9,7.74.92,5.15-.59,10-4.32,14.61ZM16.86,6.43,19.41,18H10.83l6-11.58ZM13,1.45,1.14,24.38C.05,21-1.36,17.78,2.8,10.48A23.33,23.33,0,0,1,13,1.45ZM8.22,22.91H20.35c.28,1.28.56,2.56.83,3.85A19.89,19.89,0,0,1,13.51,30a12.11,12.11,0,0,1-8.27-1.3l3-5.74Z"/><path class="cls-2" d="M59,3.72h1.1V4.8H59V3.72Zm0,1.76h1.1v5.47H59V5.48Zm-1.09,2H56.84a2.35,2.35,0,0,0-.08-1,.43.43,0,0,0-.35-.15c-.12,0-.33,0-.37.16A12.46,12.46,0,0,0,56,10c0,.12.24.16.36.16s.32,0,.36-.16a4.67,4.67,0,0,0,.09-1.19l1.07,0c0,.56.13,1.62-.25,2a1.69,1.69,0,0,1-1.24.39,1.36,1.36,0,0,1-1.24-.51,4,4,0,0,1-.36-2V7.82a3.65,3.65,0,0,1,.29-1.89,1.54,1.54,0,0,1,1.32-.51,1.37,1.37,0,0,1,1.11.39,2.38,2.38,0,0,1,.37,1.64ZM48,6.22a2,2,0,0,1,.51-.57A.9.9,0,0,1,49,5.46a1,1,0,0,1,.82.36A2.21,2.21,0,0,1,50,7v3.95H49V7.16c0-.23-.08-.64-.44-.64s-.43.24-.43.64v3.78H47V7.16c0-.35,0-.64-.49-.64s-.38.41-.38.64v3.77H45V5.55h1l0,.62a1.64,1.64,0,0,1,.45-.53.87.87,0,0,1,.53-.18.81.81,0,0,1,.58.21.84.84,0,0,1,.31.55Zm-3.58-.77V7h-.66c-.14,0-.21,0-.21.2v3.73H42.4V5.48h.89v.87c.19-.15.35-.5.57-.67a.71.71,0,0,1,.53-.23ZM41.52,7v3.95H40.44l0-.47a1.64,1.64,0,0,1-1.17.69c-.73,0-1.08-.92-1.07-1.57a1.74,1.74,0,0,1,1-1.63c.44-.26,1-.31,1.06-.59v-.3c0-.25.06-.73-.35-.73s-.53.42-.53.88H38.25c0-1.13.46-1.75,1.68-1.75A1.41,1.41,0,0,1,41.52,7ZM40.43,8.26c-.82.2-1.1.35-1.09,1.19,0,.46,0,.65.45.64.23,0,.53-.29.65-.47V8.26ZM34.35,3.72H37.6V5h-2V6.57h1.75V7.88H35.63v3.06H34.31l0-7.22ZM54,7v3.95H52.89l-.06-.47a1.64,1.64,0,0,1-1.17.69c-.73,0-1.07-.92-1.07-1.57a1.76,1.76,0,0,1,1-1.63c.45-.26,1-.31,1.06-.59v-.3c0-.25.06-.73-.35-.73s-.53.42-.53.88H50.69c0-1.13.46-1.75,1.68-1.75A1.41,1.41,0,0,1,54,7ZM52.88,8.26c-.83.2-1.11.35-1.1,1.19,0,.46,0,.65.45.64a1,1,0,0,0,.65-.47V8.26ZM64.25,7v3.95H63.18l-.06-.47a1.63,1.63,0,0,1-1.17.69c-.73,0-1.07-.93-1.06-1.58a1.75,1.75,0,0,1,1-1.63c.45-.26,1-.3,1.07-.58v-.3c0-.26,0-.74-.36-.74s-.53.43-.53.89H61c0-1.13.46-1.75,1.68-1.75A1.41,1.41,0,0,1,64.25,7ZM63.17,8.27c-.83.2-1.11.35-1.1,1.19,0,.46.06.64.46.64a1.08,1.08,0,0,0,.64-.47V8.27ZM78.68,3.73H80v7.2H78.68V3.73ZM76.71,7c0-.32-.15-.71-.53-.71s-.57.51-.56.74l0,.39H76.7V7Zm1.1.8v.5H75.64v1c0,.42,0,.76.52.76s.56-.32.56-.76V9.19h1.09v.16a1.62,1.62,0,0,1-1.59,1.8,1.5,1.5,0,0,1-1.67-1.48V7.82A3.25,3.25,0,0,1,74.89,6a1.63,1.63,0,0,1,1.35-.55A1.53,1.53,0,0,1,77.56,6a3.55,3.55,0,0,1,.25,1.85ZM72.55,3.73h1.32l0,7.21h-1l0-.66a2.69,2.69,0,0,1-.64.69.79.79,0,0,1-.51.18.82.82,0,0,1-.74-.37,2.69,2.69,0,0,1-.25-1.27V6.93a1.74,1.74,0,0,1,.3-1.1.77.77,0,0,1,.68-.41,1,1,0,0,1,.58.2,1.56,1.56,0,0,1,.37.57V3.73Zm0,3.43c0-.29,0-.64-.37-.65s-.43.24-.43.65V9.29c0,.52.17.72.42.72s.38-.46.38-.72V7.16ZM68,6.83V7H66.88V6.85c0-.34,0-.53-.46-.53s-.48.3-.48.53a.52.52,0,0,0,.11.33,1.57,1.57,0,0,0,.45.35l.64.39a1.68,1.68,0,0,1,.63.58,1.77,1.77,0,0,1,.19.82V9.6a1.42,1.42,0,0,1-.45,1.11,2,2,0,0,1-1.31.41,1.18,1.18,0,0,1-.81-.3,1.43,1.43,0,0,1-.51-1.24V9.39h1a1.49,1.49,0,0,0,.13.76c0,.09.25.13.4.13s.47-.17.47-.72a.65.65,0,0,0-.13-.39c-.2-.34-.83-.61-1.17-.8A1.42,1.42,0,0,1,65,7.84a1.19,1.19,0,0,1-.13-.7V6.73a1.08,1.08,0,0,1,.36-.93,1.52,1.52,0,0,1,1.07-.38,1.58,1.58,0,0,1,1.15.34A1.42,1.42,0,0,1,68,6.83Z"/><path class="cls-3" d="M34.49,12.88l-7,13.38h3.29l1.56-2.89h3.55l0,2.89h3.18L38.71,13l-4.22-.07Zm1.37,3.78L33.48,21h2.38V16.66ZM42,13h3l-.66,4.35h.25a4.83,4.83,0,0,1,2.1-.41c.82.07,2.15.48,2.08,1.52l-.87,7.86H44.8c.26-2,.52-4.09.78-6.09.1-.65.05-1.13-.5-1.15-.84,0-1,.47-1.06,1.15l-.82,6.09h-3L42,13Zm8.55,6a4.34,4.34,0,0,1,3.78-2.12,3,3,0,0,1,3.07,1.67c.56,1.05.28,3.69-.43,5.1a4.94,4.94,0,0,1-4.24,2.75c-2,0-2.75-.56-3.15-2.12a8,8,0,0,1,1-5.28Zm4.07.53a6.64,6.64,0,0,1-.93,4.43c-.35.44-.9.52-1.19,0-.49-1,0-3.47.79-4.52a.73.73,0,0,1,1.33.13Zm17.82-.53a4.34,4.34,0,0,1,3.78-2.12,3,3,0,0,1,3.07,1.67c.56,1.05.28,3.69-.43,5.1a4.94,4.94,0,0,1-4.24,2.75c-2,0-2.75-.56-3.15-2.12a8,8,0,0,1,1-5.28Zm4.07.53a6.64,6.64,0,0,1-.93,4.43c-.35.44-.9.52-1.19,0-.49-1,0-3.47.79-4.52a.73.73,0,0,1,1.33.13Zm-17.19-2.6,3,0v.4a2.12,2.12,0,0,0,.42,0c.62-.1,1.49-.31,1.93-.35l-.35,3c-.23,0-2.24-.05-2.53,1.29s-.6,5.12-.6,5.12h-3.1l1.23-9.42Zm6.58,0,3,0c0,.13,0,.26,0,.39a1.47,1.47,0,0,0,.42,0c.61-.09,1.48-.3,1.92-.35l-.35,3c-.22,0-2.23-.06-2.53,1.28s-.58,5.15-.58,5.15h-3.1l1.22-9.44Z"/><path class="cls-2" d="M78,27.56v.36h.16a.39.39,0,0,0,.21,0,.15.15,0,0,0,.06-.13.14.14,0,0,0-.07-.14.36.36,0,0,0-.21-.05Zm-.25-.16h.45a.69.69,0,0,1,.36.08.27.27,0,0,1,.12.24.37.37,0,0,1-.06.21.4.4,0,0,1-.19.11l.25.52h-.27l-.23-.48H78v.48h-.25V27.4Zm.42-.27a.88.88,0,0,0-.33.06.87.87,0,0,0-.47.48.75.75,0,0,0-.07.33.88.88,0,0,0,.06.33.92.92,0,0,0,.19.28.9.9,0,0,0,.28.2.84.84,0,0,0,.67,0,.91.91,0,0,0,.29-.19.77.77,0,0,0,.19-.28.88.88,0,0,0,.07-.32.81.81,0,0,0-.07-.35.84.84,0,0,0-.18-.28.94.94,0,0,0-.29-.2,1,1,0,0,0-.34-.06Zm0-.16a1.06,1.06,0,0,1,.4.08,1,1,0,0,1,.34.23,1.19,1.19,0,0,1,.22.33,1,1,0,0,1,.07.39.92.92,0,0,1-.08.4,1,1,0,0,1-.22.33,1,1,0,0,1-.34.22,1,1,0,0,1-.78,0,1,1,0,0,1-.34-.23,1.19,1.19,0,0,1-.22-.33,1,1,0,0,1-.08-.39,1,1,0,0,1,.08-.39,1.13,1.13,0,0,1,.23-.34,1,1,0,0,1,.72-.3Z"/></g></g></svg>