<svg xmlns="http://www.w3.org/2000/svg" viewBox="0 0 80 22.18"><defs><style>.cls-1{fill:#5f9dd5;}.cls-2{fill:#3e3b3a;}.cls-3{fill:#fff;}</style></defs><title>alior_bank copy</title><g id="Layer_2" data-name="Layer 2"><g id="alior_bank_copy" data-name="alior_bank copy"><ellipse class="cls-1" cx="46.19" cy="4.57" rx="1.53" ry="1.36"/><path class="cls-2" d="M39.51,4.7V16.46h2.85V4H40.18A.66.66,0,0,0,39.51,4.7Z"/><path class="cls-2" d="M44.77,8v8.46h2.84V7.34H45.43A.67.67,0,0,0,44.77,8Z"/><path class="cls-2" d="M55.31,7.13a3.89,3.89,0,0,0-2.61,1V7.34H50.52a.67.67,0,0,0-.66.66V20.11H52.7v-4a2.88,2.88,0,0,0,1.8.56,4.89,4.89,0,0,0,4.69-5.17A4.05,4.05,0,0,0,55.31,7.13Zm-.93,8.54a2.67,2.67,0,0,1-1.68-1.1V9.68a3.23,3.23,0,0,1,1.85-1.06c1,0,1.88,1.33,1.88,3.28S55.54,15.67,54.38,15.67Z"/><path class="cls-2" d="M64.59,7.13a6.8,6.8,0,0,0-3.32.53l.29.64A7.82,7.82,0,0,1,64,8c1.7,0,1.87.91,1.87,2v.53A6.9,6.9,0,0,0,64,10.25c-1.3,0-3.59.51-3.59,3.16a3.07,3.07,0,0,0,3.38,3.24,4.48,4.48,0,0,0,2.14-.74v.55h2.84V10C68.73,8.09,67.1,7.13,64.59,7.13Zm-.17,8.31a1.79,1.79,0,0,1-1.93-2,2.32,2.32,0,0,1,2.36-2.1,1.59,1.59,0,0,1,1,.33v3.16A2.28,2.28,0,0,1,64.42,15.44Z"/><path class="cls-2" d="M80,7.13H78.09L75.54,13l-.07-.14L72.55,7.13H69.64l4.45,8.68.1.21-.46,1.06C73,18.5,71,18.4,71,18.4v1.2a10.07,10.07,0,0,0,1.53,0,3.4,3.4,0,0,0,2.63-1.88h0l1.36-2.94h0Z"/><path class="cls-2" d="M32.49,4h-1.2l-1,2-5,10.39h1.92l1-2.06h6l1,2.06h3.13L32.84,4.79Zm1.28,9.49H28.64l2.61-5.42Z"/><path class="cls-1" d="M22.18,3.48V18.73a3.48,3.48,0,0,1-3.48,3.45H3.48A3.48,3.48,0,0,1,0,18.7V3.48A3.48,3.48,0,0,1,3.48,0H18.7A3.48,3.48,0,0,1,22.18,3.48Z"/><path class="cls-3" d="M14.82,12.47A34.42,34.42,0,0,0,16.72,8h-4.4V6.42h5.42v-1H12.32V3H9.79V5.47H4.37v1H9.79V8H5.24V8.8h8.81a19.38,19.38,0,0,1-1.31,3,23,23,0,0,0-6.3-1.24c-4.19,0-5.12,2.11-4.93,4,.16,1.54,1.31,3.79,4.81,3.79a9.23,9.23,0,0,0,7.36-4c3,1.39,6.22,3.11,8.5,4.37V15.08C19.77,14.25,17.24,13.29,14.82,12.47Zm-9,4.59c-3,0-3.42-1.66-3.47-2.66s.54-2.5,3.88-2.5a16.65,16.65,0,0,1,5.42,1.56C10.39,15.1,8.39,17.06,5.81,17.06Z"/></g></g></svg>