<?xml version="1.0" encoding="utf-8"?>
<!-- Generator: Adobe Illustrator 24.1.1, SVG Export Plug-In . SVG Version: 6.00 Build 0)  -->
<svg version="1.1" id="Layer_1" xmlns="http://www.w3.org/2000/svg" xmlns:xlink="http://www.w3.org/1999/xlink" x="0px" y="0px"
	 viewBox="0 0 100 100" style="enable-background:new 0 0 100 100;" xml:space="preserve">
<style type="text/css">
	.st0{fill:#FFE700;}
	.st1{fill:#231F20;}
	.st2{fill:#EC1C24;}
</style>
<g>
	<ellipse transform="matrix(0.9998 -0.0205 0.0205 0.9998 -1.0149 1.0359)" class="st0" cx="50" cy="50" rx="40" ry="40"/>
	<path class="st1" d="M27.42,51.16h4.56c-0.26,1.65-0.97,3.12-2.3,4.25c-1.33,1.13-3.13,1.69-5.4,1.69c-2.53,0-4.54-0.79-6.04-2.38
		c-1.5-1.58-2.25-3.55-2.25-5.89c0-2.43,0.74-4.48,2.23-6.16c1.48-1.67,3.46-2.51,5.94-2.51c2.4,0,4.34,0.79,5.81,2.37
		c1.48,1.58,2.13,3.73,2.13,6.45c0,0.22-0.01,0.53-0.01,0.93H21.13c0.02,1.02,0.22,1.75,0.61,2.19c0.37,0.41,1.81,1.02,2.7,1.02
		C25.71,53.1,27.19,52.49,27.42,51.16z M22.48,39.14L25,35.85l4.74,0.02l-4.13,3.31L22.48,39.14z M26.98,46.69
		c-0.01-1.05-0.46-1.73-0.99-2.17c-0.52-0.42-1.13-0.49-1.96-0.49c-1.34,0-2.96,0.89-2.96,2.66H26.98z"/>
	<path class="st1" d="M47.65,56.8H41.9l-3.09-4.58l-3.35,4.58h-5.42l5.88-8.66l-5.27-7.67h5.54c0,0,2.63,3.54,2.71,3.73
		c0.1-0.18,2.46-3.73,2.46-3.73h5.69l-5.32,7.59L47.65,56.8z"/>
	<path class="st1" d="M54.42,40.46L53.4,56.8h-4.68l-0.89-16.34H54.42z"/>
	<path class="st1" d="M66.05,40.51v3.6H63v7.37c0,0.71,0.17,1.04,0.44,1.18c0.27,0.13,0.52,0.17,0.81,0.17
		c0.44,0,1.19-0.16,1.8-0.32v4.15c-1.09,0.21-2.17,0.25-3.22,0.25c-1.7,0-3.03-0.46-3.84-1.19c-0.8-0.73-1.12-1.73-1.12-3.34
		l0.01-1.65v-6.62h-2.37v-3.6h2.48l-0.03-4.6L63,35.93v4.58H66.05z"/>
	<path class="st1" d="M74.5,57.09c-2.52,0-4.51-0.84-5.99-2.52c-1.48-1.68-2.22-3.65-2.22-5.91c0-2.43,0.77-4.46,2.32-6.08
		c1.55-1.62,3.56-2.43,6.03-2.43c2.5,0,4.5,0.8,6.02,2.4c1.52,1.6,2.27,3.61,2.27,6.02c0,2.43-0.77,4.46-2.3,6.09
		C79.09,56.28,77.05,57.09,74.5,57.09z M74.69,53.22c3.19,0,3.3-3.65,3.3-4.77c0-1.53-0.26-4.3-3.27-4.3
		c-2.98,0-3.27,2.87-3.27,4.46C71.44,50.48,71.76,53.22,74.69,53.22z"/>
	<path class="st2" d="M54.14,60.51c0,1.67-1.36,3.03-3.03,3.03c-1.67,0-3.03-1.36-3.03-3.03c0-1.67,1.36-3.03,3.03-3.03
		C52.78,57.48,54.14,58.84,54.14,60.51z"/>
	<g>
		<path class="st1" d="M84.99,44.21c-1.13,0-2.06-0.92-2.06-2.06c0-1.13,0.92-2.06,2.06-2.06c1.13,0,2.06,0.92,2.06,2.06
			C87.04,43.29,86.12,44.21,84.99,44.21L84.99,44.21z M84.99,40.42c-0.96,0-1.74,0.78-1.74,1.74c0,0.96,0.78,1.74,1.74,1.74
			c0.96,0,1.74-0.78,1.74-1.74C86.72,41.19,85.95,40.42,84.99,40.42L84.99,40.42z"/>
	</g>
	<g>
		<path class="st1" d="M84.61,42.33v0.82h-0.49v-2.06h0.91c0.17,0,0.3,0.02,0.4,0.06c0.1,0.04,0.18,0.11,0.25,0.21
			c0.07,0.1,0.1,0.22,0.1,0.35c0,0.25-0.12,0.42-0.36,0.53l0.38,0.91h-0.53l-0.32-0.82H84.61z M84.61,41.45v0.52h0.3
			c0.1,0,0.17-0.01,0.21-0.02c0.04-0.01,0.08-0.04,0.12-0.09c0.03-0.05,0.05-0.1,0.05-0.16c0-0.06-0.02-0.11-0.05-0.15
			c-0.03-0.05-0.07-0.07-0.11-0.08c-0.04-0.01-0.12-0.02-0.23-0.02H84.61z"/>
	</g>
</g>
</svg>
