<?xml version="1.0" encoding="utf-8"?>
<!-- Generator: Adobe Illustrator 24.1.1, SVG Export Plug-In . SVG Version: 6.00 Build 0)  -->
<svg version="1.1" id="Layer_1" xmlns="http://www.w3.org/2000/svg" xmlns:xlink="http://www.w3.org/1999/xlink" x="0px" y="0px"
	 viewBox="0 0 100 100" style="enable-background:new 0 0 100 100;" xml:space="preserve">
<style type="text/css">
	.st0{fill:url(#SVGID_1_);}
	.st1{fill:#FFFFFF;}
</style>
<g>
	
		<radialGradient id="SVGID_1_" cx="-125.02" cy="348.2726" r="74.6287" gradientTransform="matrix(1 0 0 -1 149.0522 372.3086)" gradientUnits="userSpaceOnUse">
		<stop  offset="0" style="stop-color:#9DD3F2"/>
		<stop  offset="0.0711" style="stop-color:#98D1F1"/>
		<stop  offset="0.1575" style="stop-color:#89CCF0"/>
		<stop  offset="0.2516" style="stop-color:#70C5EE"/>
		<stop  offset="0.3514" style="stop-color:#50BAE9"/>
		<stop  offset="0.4546" style="stop-color:#1FACE3"/>
		<stop  offset="0.5" style="stop-color:#17A4DE"/>
		<stop  offset="1" style="stop-color:#2F78BB"/>
	</radialGradient>
	<path class="st0" d="M89.53,10.09H10v79.82h79.53V63.57c0.32-0.46,0.47-1.04,0.47-1.76c0-0.82-0.16-1.32-0.47-1.75"/>
	<path class="st1" d="M17.17,44.63l-1.53-3.73l-1.52,3.73 M50.87,43.15c-0.31,0.19-0.67,0.19-1.11,0.19h-2.72v-2.08h2.75
		c0.39,0,0.8,0.02,1.06,0.17c0.29,0.14,0.47,0.43,0.47,0.83C51.33,42.66,51.16,42.99,50.87,43.15z M70.25,44.63L68.7,40.9
		l-1.54,3.73H70.25z M34.13,48.67h-2.29l-0.01-7.32l-3.24,7.32h-1.96l-3.25-7.33v7.33h-4.55l-0.86-2.09h-4.65l-0.87,2.09h-2.43
		l4-9.35h3.32l3.8,8.85v-8.85h3.65l2.93,6.34l2.69-6.34h3.72L34.13,48.67L34.13,48.67z M43.27,48.67H35.8v-9.35h7.47v1.95h-5.23
		v1.69h5.11v1.92h-5.11v1.87h5.23V48.67z M53.8,41.83c0,1.49-0.99,2.26-1.58,2.49c0.49,0.19,0.91,0.52,1.11,0.79
		c0.32,0.47,0.37,0.88,0.37,1.72v1.84h-2.25l-0.01-1.18c0-0.56,0.05-1.37-0.35-1.82c-0.33-0.33-0.82-0.4-1.63-0.4h-2.4v3.4h-2.24
		v-9.35h5.14c1.14,0,1.98,0.03,2.71,0.45C53.37,40.18,53.8,40.79,53.8,41.83z M57.37,48.67h-2.28v-9.35h2.28V48.67z M83.83,48.67
		h-3.17l-4.24-7.02v7.02h-4.55l-0.87-2.09h-4.64l-0.84,2.09H62.9c-1.09,0-2.46-0.24-3.24-1.03c-0.79-0.79-1.19-1.87-1.19-3.57
		c0-1.39,0.24-2.65,1.21-3.66c0.72-0.75,1.85-1.09,3.39-1.09h2.16v2h-2.12c-0.82,0-1.28,0.12-1.72,0.55
		c-0.38,0.39-0.64,1.14-0.64,2.12c0,1,0.2,1.72,0.61,2.2c0.34,0.37,0.97,0.48,1.56,0.48h1l3.15-7.35h3.35l3.78,8.85v-8.85h3.4
		l3.93,6.51v-6.51h2.29V48.67L83.83,48.67z M10,50.5h3.82l0.86-2.08h1.93l0.86,2.08h7.51v-1.59l0.67,1.59h3.9l0.67-1.62v1.61H48.9
		l-0.01-3.41h0.36c0.25,0.01,0.33,0.03,0.33,0.45v2.96h9.66v-0.79c0.78,0.42,1.99,0.79,3.59,0.79h4.06l0.87-2.08h1.93l0.85,2.08
		h7.83v-1.97l1.19,1.97h6.27V37.46h-6.21V39l-0.87-1.54h-6.37V39l-0.8-1.54h-8.61c-1.44,0-2.71,0.2-3.73,0.76v-0.76H53.3v0.76
		c-0.65-0.58-1.54-0.76-2.52-0.76h-21.7l-1.46,3.37l-1.5-3.37h-6.84V39l-0.75-1.54h-5.83L10,43.66L10,50.5L10,50.5z"/>
	<path class="st1" d="M89.53,57.4h-4.07c-0.41,0-0.68,0.02-0.9,0.17c-0.24,0.15-0.33,0.38-0.33,0.67c0,0.35,0.2,0.59,0.49,0.7
		c0.24,0.08,0.49,0.11,0.86,0.11l1.21,0.03c1.22,0.03,2.04,0.24,2.54,0.75c0.09,0.07,0.14,0.15,0.21,0.23 M89.53,63.57
		c-0.54,0.79-1.6,1.2-3.03,1.2h-4.32v-2.01h4.3c0.43,0,0.72-0.06,0.9-0.23c0.16-0.14,0.26-0.35,0.26-0.61
		c0-0.27-0.11-0.49-0.27-0.62c-0.16-0.14-0.4-0.21-0.79-0.21c-2.1-0.07-4.72,0.07-4.72-2.9c0-1.36,0.86-2.78,3.21-2.78h4.45v-1.86
		h-4.14c-1.25,0-2.16,0.3-2.8,0.76v-0.76h-6.12c-0.98,0-2.13,0.24-2.67,0.76v-0.76H62.88v0.76c-0.87-0.63-2.34-0.76-3.01-0.76h-7.21
		v0.76c-0.69-0.67-2.22-0.76-3.15-0.76h-8.07l-1.85,2l-1.73-2H25.82V66.6h11.82l1.9-2.03l1.79,2.03l7.29,0.01v-3.07h0.72
		c0.97,0.01,2.11-0.02,3.11-0.46v3.52h6.01v-3.4h0.29c0.37,0,0.41,0.02,0.41,0.39v3.02h18.26c1.16,0,2.37-0.3,3.04-0.84v0.84h5.79
		c1.21,0,2.38-0.17,3.28-0.6V63.57L89.53,63.57z M80.61,59.83c0.44,0.45,0.67,1.02,0.67,1.98c0,2.01-1.26,2.95-3.51,2.95h-4.35
		v-2.01h4.34c0.42,0,0.72-0.06,0.91-0.23c0.15-0.14,0.26-0.35,0.26-0.61c0-0.27-0.12-0.49-0.27-0.62c-0.17-0.14-0.41-0.21-0.8-0.21
		c-2.09-0.07-4.71,0.07-4.71-2.9c0-1.36,0.85-2.78,3.2-2.78h4.48v1.99h-4.1c-0.41,0-0.67,0.02-0.9,0.17
		c-0.24,0.15-0.34,0.38-0.34,0.67c0,0.35,0.21,0.59,0.49,0.7c0.24,0.08,0.49,0.11,0.87,0.11l1.2,0.03
		C79.27,59.11,80.11,59.32,80.61,59.83z M60.44,59.25c-0.3,0.18-0.67,0.19-1.1,0.19h-2.72v-2.1h2.75c0.4,0,0.8,0.01,1.07,0.17
		c0.29,0.15,0.46,0.44,0.46,0.84C60.9,58.75,60.73,59.08,60.44,59.25z M61.79,60.42c0.5,0.18,0.9,0.51,1.09,0.79
		c0.32,0.46,0.36,0.88,0.37,1.71v1.85h-2.24v-1.17c0-0.56,0.05-1.4-0.36-1.83c-0.33-0.34-0.82-0.42-1.64-0.42h-2.39v3.42h-2.25
		v-9.35h5.16c1.13,0,1.96,0.05,2.69,0.44c0.71,0.43,1.15,1.01,1.15,2.08C63.38,59.42,62.38,60.18,61.79,60.42z M64.62,55.41h7.46
		v1.93h-5.23v1.7h5.11v1.91h-5.11v1.86l5.23,0.01v1.94h-7.46V55.41z M49.53,59.73h-2.89v-2.38h2.91c0.81,0,1.37,0.33,1.37,1.15
		C50.93,59.3,50.39,59.73,49.53,59.73z M44.42,63.91l-3.43-3.81l3.43-3.69V63.91z M35.56,62.81h-5.5v-1.86h4.91v-1.91h-4.91v-1.7
		h5.6l2.44,2.73L35.56,62.81z M53.33,58.49c0,2.6-1.94,3.13-3.89,3.13h-2.79v3.14H42.3l-2.75-3.1l-2.86,3.1h-8.85v-9.35h8.99
		l2.75,3.07l2.84-3.07h7.14C51.33,55.41,53.33,55.9,53.33,58.49z"/>
</g>
</svg>
