<?xml version="1.0" encoding="utf-8"?>
<!-- Generator: Adobe Illustrator 24.1.1, SVG Export Plug-In . SVG Version: 6.00 Build 0)  -->
<svg version="1.1" id="Layer_1" xmlns="http://www.w3.org/2000/svg" xmlns:xlink="http://www.w3.org/1999/xlink" x="0px" y="0px"
	 viewBox="0 0 100 100" style="enable-background:new 0 0 100 100;" xml:space="preserve">
<style type="text/css">
	.st0{fill:#D7D7D7;}
	.st1{fill:url(#SVGID_1_);}
	.st2{fill:#FFFFFF;}
</style>
<g>
	<path class="st0" d="M86.36,77.27H13.64c-2.01,0-3.64-1.63-3.64-3.64V26.36c0-2.01,1.63-3.64,3.64-3.64h72.73
		c2.01,0,3.64,1.63,3.64,3.64v47.27C90,75.64,88.37,77.27,86.36,77.27z"/>
	<g>
		
			<radialGradient id="SVGID_1_" cx="-76.1874" cy="313.8255" r="13.8283" gradientTransform="matrix(0.9444 0 0 -0.9444 143.9104 356.0235)" gradientUnits="userSpaceOnUse">
			<stop  offset="0" style="stop-color:#9DD3F2"/>
			<stop  offset="0.0711" style="stop-color:#98D1F1"/>
			<stop  offset="0.1575" style="stop-color:#89CCF0"/>
			<stop  offset="0.2516" style="stop-color:#70C5EE"/>
			<stop  offset="0.3514" style="stop-color:#50BAE9"/>
			<stop  offset="0.4546" style="stop-color:#1FACE3"/>
			<stop  offset="0.5" style="stop-color:#17A4DE"/>
			<stop  offset="1" style="stop-color:#2F78BB"/>
		</radialGradient>
		<path class="st1" d="M83.42,57.19H69.5v13.97h13.92v-4.61c0.06-0.08,0.08-0.18,0.08-0.31c0-0.14-0.03-0.23-0.08-0.31"/>
		<path class="st2" d="M70.75,63.24l-0.27-0.65l-0.27,0.65 M76.65,62.98c-0.05,0.03-0.12,0.03-0.19,0.03h-0.48v-0.36h0.48
			c0.07,0,0.14,0,0.19,0.03c0.05,0.02,0.08,0.07,0.08,0.14C76.73,62.89,76.7,62.95,76.65,62.98z M80.04,63.24l-0.27-0.65l-0.27,0.65
			H80.04z M73.72,63.94h-0.4l0-1.28l-0.57,1.28h-0.34l-0.57-1.28v1.28h-0.8l-0.15-0.37h-0.81l-0.15,0.37H69.5l0.7-1.64h0.58
			l0.67,1.55v-1.55h0.64l0.51,1.11l0.47-1.11h0.65L73.72,63.94L73.72,63.94z M75.32,63.94h-1.31v-1.64h1.31v0.34h-0.92v0.29h0.89
			v0.34h-0.89v0.33h0.92V63.94z M77.16,62.75c0,0.26-0.17,0.4-0.28,0.44c0.09,0.03,0.16,0.09,0.19,0.14
			c0.06,0.08,0.06,0.15,0.06,0.3v0.32h-0.39l0-0.21c0-0.1,0.01-0.24-0.06-0.32c-0.06-0.06-0.14-0.07-0.29-0.07h-0.42v0.6h-0.39
			v-1.64h0.9c0.2,0,0.35,0.01,0.47,0.08C77.09,62.46,77.16,62.56,77.16,62.75z M77.79,63.94h-0.4v-1.64h0.4V63.94z M82.42,63.94
			h-0.55l-0.74-1.23v1.23h-0.8l-0.15-0.37h-0.81l-0.15,0.37h-0.46c-0.19,0-0.43-0.04-0.57-0.18c-0.14-0.14-0.21-0.33-0.21-0.62
			c0-0.24,0.04-0.46,0.21-0.64c0.13-0.13,0.32-0.19,0.59-0.19h0.38v0.35h-0.37c-0.14,0-0.22,0.02-0.3,0.1
			c-0.07,0.07-0.11,0.2-0.11,0.37c0,0.18,0.03,0.3,0.11,0.38c0.06,0.06,0.17,0.08,0.27,0.08h0.18l0.55-1.29h0.59l0.66,1.55v-1.55
			h0.6l0.69,1.14v-1.14h0.4V63.94L82.42,63.94z M69.5,64.26h0.67l0.15-0.36h0.34l0.15,0.36h1.32v-0.28l0.12,0.28h0.68l0.12-0.28
			v0.28h3.27l0-0.6h0.06c0.04,0,0.06,0.01,0.06,0.08v0.52h1.69v-0.14c0.14,0.07,0.35,0.14,0.63,0.14h0.71l0.15-0.36h0.34l0.15,0.36
			h1.37v-0.35l0.21,0.35h1.1v-2.28h-1.09v0.27l-0.15-0.27h-1.12v0.27l-0.14-0.27h-1.51c-0.25,0-0.47,0.04-0.65,0.13v-0.13h-1.04
			v0.13c-0.11-0.1-0.27-0.13-0.44-0.13h-3.8l-0.25,0.59l-0.26-0.59h-1.2v0.27l-0.13-0.27h-1.02l-0.47,1.09L69.5,64.26L69.5,64.26z"
			/>
		<path class="st2" d="M83.42,65.47H82.7c-0.07,0-0.12,0-0.16,0.03c-0.04,0.03-0.06,0.07-0.06,0.12c0,0.06,0.03,0.1,0.09,0.12
			c0.04,0.01,0.09,0.02,0.15,0.02l0.21,0.01c0.21,0.01,0.36,0.04,0.44,0.13c0.02,0.01,0.03,0.03,0.04,0.04 M83.42,66.55
			c-0.1,0.14-0.28,0.21-0.53,0.21h-0.76v-0.35h0.75c0.07,0,0.13-0.01,0.16-0.04c0.03-0.03,0.05-0.06,0.05-0.11
			c0-0.05-0.02-0.09-0.05-0.11c-0.03-0.02-0.07-0.04-0.14-0.04c-0.37-0.01-0.83,0.01-0.83-0.51c0-0.24,0.15-0.49,0.56-0.49h0.78
			V64.8h-0.72c-0.22,0-0.38,0.05-0.49,0.13V64.8h-1.07c-0.17,0-0.37,0.04-0.47,0.13V64.8h-1.91v0.13c-0.15-0.11-0.41-0.13-0.53-0.13
			h-1.26v0.13c-0.12-0.12-0.39-0.13-0.55-0.13H75l-0.32,0.35l-0.3-0.35h-2.11v2.28h2.07l0.33-0.36l0.31,0.36l1.28,0v-0.54h0.13
			c0.17,0,0.37,0,0.54-0.08v0.62h1.05v-0.6h0.05c0.06,0,0.07,0,0.07,0.07v0.53h3.2c0.2,0,0.41-0.05,0.53-0.15v0.15h1.01
			c0.21,0,0.42-0.03,0.57-0.11V66.55L83.42,66.55z M81.86,65.9c0.08,0.08,0.12,0.18,0.12,0.35c0,0.35-0.22,0.52-0.61,0.52H80.6
			v-0.35h0.76c0.07,0,0.13-0.01,0.16-0.04c0.03-0.03,0.05-0.06,0.05-0.11c0-0.05-0.02-0.09-0.05-0.11
			c-0.03-0.02-0.07-0.04-0.14-0.04c-0.37-0.01-0.82,0.01-0.82-0.51c0-0.24,0.15-0.49,0.56-0.49h0.78v0.35h-0.72
			c-0.07,0-0.12,0-0.16,0.03c-0.04,0.03-0.06,0.07-0.06,0.12c0,0.06,0.04,0.1,0.09,0.12c0.04,0.01,0.09,0.02,0.15,0.02l0.21,0.01
			C81.62,65.77,81.77,65.81,81.86,65.9z M78.33,65.8c-0.05,0.03-0.12,0.03-0.19,0.03h-0.48v-0.37h0.48c0.07,0,0.14,0,0.19,0.03
			c0.05,0.03,0.08,0.08,0.08,0.15C78.41,65.71,78.38,65.76,78.33,65.8z M78.56,66c0.09,0.03,0.16,0.09,0.19,0.14
			c0.06,0.08,0.06,0.15,0.06,0.3v0.32h-0.39v-0.2c0-0.1,0.01-0.24-0.06-0.32c-0.06-0.06-0.14-0.07-0.29-0.07h-0.42v0.6h-0.39v-1.64
			h0.9c0.2,0,0.34,0.01,0.47,0.08c0.12,0.07,0.2,0.18,0.2,0.36C78.84,65.83,78.67,65.96,78.56,66z M79.06,65.12h1.31v0.34h-0.92v0.3
			h0.89v0.33h-0.89v0.33l0.92,0v0.34h-1.31V65.12z M76.42,65.88h-0.51v-0.42h0.51c0.14,0,0.24,0.06,0.24,0.2
			C76.66,65.8,76.57,65.88,76.42,65.88z M75.52,66.61l-0.6-0.67l0.6-0.65V66.61z M73.97,66.42h-0.96v-0.33h0.86v-0.33h-0.86v-0.3
			h0.98l0.43,0.48L73.97,66.42z M77.08,65.66c0,0.45-0.34,0.55-0.68,0.55h-0.49v0.55h-0.76l-0.48-0.54l-0.5,0.54h-1.55v-1.64h1.57
			l0.48,0.54l0.5-0.54h1.25C76.73,65.12,77.08,65.21,77.08,65.66z"/>
	</g>
</g>
</svg>
