<svg id="Layer_1" data-name="Layer 1" xmlns="http://www.w3.org/2000/svg" viewBox="0 0 80 41.1"><defs><style>.cls-1{fill:#009a66;fill-rule:evenodd;}</style></defs><title>Argenta</title><g id="Argenta"><path class="cls-1" d="M23.55,40.65l-3.9-5.52h0v5.52H17.89V28.73h3.66a4.13,4.13,0,0,1,3.15,1,3.94,3.94,0,0,1,1.09,2.82,3.41,3.41,0,0,1-3.15,3.65H22.4l3.31,4.44Zm-3.93-5.77H20.8c.71,0,3.26,0,3.26-2.33,0-1-.67-2.22-2.62-2.22H19.62Z"/><path class="cls-1" d="M35.34,31.73a4.22,4.22,0,0,0-3.23-1.63,4.59,4.59,0,1,0,0,9.18,4.33,4.33,0,0,0,4.07-3H30.69v-1.6h7.48a6.32,6.32,0,1,1-.81-3Z"/><polygon class="cls-1" points="38.76 40.65 38.76 28.73 45.14 28.73 45.14 30.33 40.49 30.33 40.49 33.84 45.14 33.84 45.14 35.43 40.49 35.43 40.49 39.06 45.14 39.06 45.14 40.65 38.76 40.65 38.76 40.65"/><polygon class="cls-1" points="53.89 40.65 48.04 31.44 48.01 31.44 48.01 40.65 46.28 40.65 46.28 28.73 48.17 28.73 53.92 37.8 53.96 37.8 53.96 28.73 55.68 28.73 55.68 40.65 53.89 40.65 53.89 40.65"/><polygon class="cls-1" points="58.31 40.65 58.31 30.33 56.03 30.33 56.03 28.73 62.3 28.73 62.3 30.33 60.03 30.33 60.03 40.65 58.31 40.65 58.31 40.65"/><path class="cls-1" d="M64.78,28.71H62.91v12h1.87V37.12h7.87l4.68,3.63H80Zm0,6.73V31l5.66,4.38Z"/><path class="cls-1" d="M15.22,28.71,0,40.75H2.67l4.68-3.63h7.87v3.63h1.87v-12Zm0,6.73H9.56L15.22,31Z"/><polygon class="cls-1" points="32.23 12.96 32.23 10.22 36.72 6.17 40.5 6.17 32.23 12.96 32.23 12.96"/><polygon class="cls-1" points="41.89 21.69 36.87 21.69 35.15 20.35 49.08 8.56 50.93 10.12 50.93 14.02 41.89 21.69 41.89 21.69"/><polygon class="cls-1" points="50.93 14.79 50.93 18.12 46.53 21.69 42.9 21.69 50.93 14.79 50.93 14.79"/><polygon class="cls-1" points="42.56 0 42.56 4.58 41.89 5.11 41.89 0.58 42.56 0 42.56 0"/><polygon class="cls-1" points="43.04 5.06 52.18 5.06 56.53 1.35 47.63 1.35 43.04 5.06 43.04 5.06"/><polygon class="cls-1" points="32.23 14.17 41.51 6.17 46.24 6.17 48.43 8.01 34.55 19.88 32.23 18.07 32.23 14.02 32.23 14.17 32.23 14.17"/></g></svg>