<svg id="Layer_1" data-name="Layer 1" xmlns="http://www.w3.org/2000/svg" viewBox="0 0 80 40.87"><defs><style>.cls-1,.cls-2{fill:#096;}.cls-1{fill-rule:evenodd;}</style></defs><title>Argenra</title><path class="cls-1" d="M33.55,70.21l-3.9-5.53h0v5.53H27.89V58.29h3.66a4.15,4.15,0,0,1,3.15,1,4,4,0,0,1,1.09,2.82,3.41,3.41,0,0,1-3.39,3.66l3.31,4.45H33.55Zm-3.93-5.76H30.8c.7,0,3.26,0,3.26-2.34,0-1-.67-2.22-2.62-2.22H29.62v4.56Z" transform="translate(-10 -29.56)"/><path class="cls-1" d="M45.34,61.29a4.23,4.23,0,0,0-3.23-1.63,4.59,4.59,0,0,0,0,9.18,4.35,4.35,0,0,0,4.08-3H40.69v-1.6h7.48a6.32,6.32,0,1,1-.81-3h-2Z" transform="translate(-10 -29.56)"/><polygon class="cls-1" points="38.76 40.65 38.76 28.73 45.14 28.73 45.14 30.33 40.49 30.33 40.49 33.84 45.14 33.84 45.14 35.43 40.49 35.43 40.49 39.06 45.14 39.06 45.14 40.65 38.76 40.65"/><polygon class="cls-1" points="53.89 40.65 48.04 31.44 48.01 31.44 48.01 40.65 46.28 40.65 46.28 28.73 48.17 28.73 53.92 37.8 53.96 37.8 53.96 28.73 55.68 28.73 55.68 40.65 53.89 40.65"/><polygon class="cls-1" points="58.31 40.65 58.31 30.33 56.04 30.33 56.04 28.73 62.3 28.73 62.3 30.33 60.03 30.33 60.03 40.65 58.31 40.65"/><path class="cls-2" d="M74.78,58.27H72.91v12h1.87V66.68h7.87l4.68,3.62H90Zm0,6.73V60.6L80.44,65Z" transform="translate(-10 -29.56)"/><path class="cls-2" d="M25.22,58.27,10,70.31h2.67l4.68-3.62h7.87v3.63h1.87v-12Zm0,6.73-5.66,0,5.66-4.38Z" transform="translate(-10 -29.56)"/><polygon class="cls-1" points="32.23 12.97 32.23 10.22 36.72 6.17 40.5 6.17 32.23 12.97"/><polygon class="cls-1" points="41.89 21.69 36.87 21.69 35.15 20.35 49.08 8.56 50.93 10.12 50.93 14.03 41.89 21.69"/><polygon class="cls-1" points="50.93 14.8 50.93 18.12 46.53 21.69 42.9 21.69 50.93 14.8"/><polygon class="cls-1" points="42.56 0 42.56 4.58 41.89 5.11 41.89 0.58 42.56 0"/><polygon class="cls-1" points="43.04 5.06 52.18 5.06 56.53 1.35 47.63 1.35 43.04 5.06"/><polygon class="cls-1" points="32.23 14.17 41.51 6.17 46.25 6.17 48.43 8.02 34.55 19.88 32.23 18.07 32.23 14.03 32.23 14.17"/></svg>