<svg xmlns="http://www.w3.org/2000/svg" viewBox="0 0 80 52.83"><defs><style>.cls-1,.cls-4{fill:#2c328c;}.cls-1,.cls-2,.cls-3{fill-rule:evenodd;}.cls-2{fill:#fff200;}.cls-3{fill:#ed1c24;}.cls-4{stroke:#2c328c;stroke-miterlimit:22.93;stroke-width:0.22px;}</style></defs><title>Aura</title><g id="Layer_2" data-name="Layer 2"><g id="Aura"><path class="cls-1" d="M0,0H79.91L80,24.9c-9.65-3.67-40.34-12.45-80-1.5Z"/><path class="cls-2" d="M0,52.83H79.91V32.9c-14.41-4.82-40-12-79.91-1.81Z"/><path class="cls-3" d="M79.91,32.9c-14.41-4.82-40-12-79.91-1.81V23.4c39.66-10.95,70.35-2.17,80,1.5Z"/><path class="cls-2" d="M25.46,18.71c2-5.47,6.5-10.19,14.36-10.13S52.93,13.12,54.35,19A138,138,0,0,0,25.46,18.71Z"/><path class="cls-4" d="M17.85,42.74l5.36-8h2l5.7,8h-2.1l-1.62-2.42H21.34l-1.53,2.42Zm4-3.28H26.6l-1.46-2.21a16.08,16.08,0,0,1-1-1.65,7,7,0,0,1-.76,1.52l-1.53,2.34Zm18.38,3.28v-.85a4.87,4.87,0,0,1-3.2,1,6.82,6.82,0,0,1-1.67-.2,3.21,3.21,0,0,1-1.15-.49,1.59,1.59,0,0,1-.53-.73,3.25,3.25,0,0,1-.1-.91V37h1.71v3.2a3.42,3.42,0,0,0,.1,1,1.23,1.23,0,0,0,.69.6,3.28,3.28,0,0,0,1.29.22,4.63,4.63,0,0,0,1.45-.22,1.86,1.86,0,0,0,.95-.62,1.89,1.89,0,0,0,.28-1.13V37h1.71v5.78Zm5.68,0V37h1.54v.87A3.39,3.39,0,0,1,48.56,37a3,3,0,0,1,1.1-.19,5.31,5.31,0,0,1,1.76.31l-.6.91a3.86,3.86,0,0,0-1.25-.21,2.53,2.53,0,0,0-1,.19,1.26,1.26,0,0,0-.63.54,2.36,2.36,0,0,0-.29,1.14v3ZM60.51,42a8.48,8.48,0,0,1-1.83.66,9.46,9.46,0,0,1-1.89.19,5.67,5.67,0,0,1-2.56-.47,1.38,1.38,0,0,1-.89-1.19,1.07,1.07,0,0,1,.34-.77,2.44,2.44,0,0,1,.88-.57,6.89,6.89,0,0,1,1.23-.32c.34,0,.84-.1,1.52-.14a28.05,28.05,0,0,0,3.06-.34c0-.14,0-.22,0-.26a.88.88,0,0,0-.49-.84,4.51,4.51,0,0,0-2-.33,4.92,4.92,0,0,0-1.78.24,1.59,1.59,0,0,0-.85.86l-1.67-.13a2.13,2.13,0,0,1,.75-1A4,4,0,0,1,55.9,37a11.9,11.9,0,0,1,2.29-.2,10.82,10.82,0,0,1,2.1.17,3.46,3.46,0,0,1,1.19.44,1.43,1.43,0,0,1,.53.67,3.07,3.07,0,0,1,.08.9v1.3A8.13,8.13,0,0,0,62.2,42a1.86,1.86,0,0,0,.44.7H60.85a1.46,1.46,0,0,1-.34-.72Zm-.14-2.18a23.65,23.65,0,0,1-2.8.37,10.08,10.08,0,0,0-1.49.19,1.5,1.5,0,0,0-.67.32.6.6,0,0,0-.24.46c0,.27.17.48.51.66a3.55,3.55,0,0,0,1.52.26A5.63,5.63,0,0,0,59,41.85a2.34,2.34,0,0,0,1.13-.68,1.5,1.5,0,0,0,.28-1Z"/></g></g></svg>