<svg xmlns="http://www.w3.org/2000/svg" viewBox="0 0 80 20.72"><defs><style>.cls-1{fill:#44a647;}.cls-2{fill:#e32e26;}.cls-2,.cls-3,.cls-4{fill-rule:evenodd;}.cls-3{fill:#fedc00;}.cls-4,.cls-5{fill:#fff;}</style></defs><title>bodega_aurrera</title><g id="Layer_2" data-name="Layer 2"><g id="bodega_aurrera"><rect class="cls-1" width="80" height="20.72"/><path class="cls-2" d="M80,19.9V19H12.24A34.91,34.91,0,0,1,0,17.07V19.9Z"/><path class="cls-3" d="M80,18v-.94H18.83C12.3,16.33,3.73,11.19,0,5.77V16.13A27.35,27.35,0,0,0,9.42,18Z"/><path class="cls-4" d="M51.8,8.94,51.85,8a.91.91,0,0,0-1.16.53s0,.07,0,.09V8h-.88v3.37h1V9.66s0-.07,0-.1a.85.85,0,0,1,1-.62"/><path class="cls-4" d="M46.47,8.94,46.52,8a.9.9,0,0,0-1.16.53s0,.07,0,.09V8h-.88v3.37h1V9.66s0-.07,0-.1a.84.84,0,0,1,1-.62"/><path class="cls-4" d="M44.19,8.94,44.24,8a.9.9,0,0,0-1.16.53s0,.07,0,.09V8h-.88v3.37h1V9.66s0-.07,0-.1a.84.84,0,0,1,1-.62"/><path class="cls-4" d="M41.7,11.27V7.9h-1V9.74a.55.55,0,0,1-1.09,0V7.9h-1v2.36a1.15,1.15,0,0,0,1.13,1.11,1.25,1.25,0,0,0,1-.69v.59Z"/><path class="cls-5" d="M49.35,8.91a1,1,0,0,0-.09-.29A1.4,1.4,0,0,0,47.38,8a1.42,1.42,0,0,0-.59.55,1.83,1.83,0,0,0,.57,2.52,1,1,0,0,0,.28.14,2,2,0,0,0,1.57,0v-.82a1.28,1.28,0,0,1-.37.23A1.05,1.05,0,0,1,47.5,10h2a3.79,3.79,0,0,0-.12-1.06m-.76.39H47.5a.7.7,0,0,1,.19-.53.51.51,0,0,1,.72,0,.63.63,0,0,1,.18.52"/><path class="cls-5" d="M37,6.81H35.75L34.3,11.37h1l.32-1h1.44l.26,1h1.09Zm-1.1,2.85.48-1.76.48,1.76Z"/><path class="cls-5" d="M54.75,10.48V9.22a1.38,1.38,0,0,0-.61-1.17,2,2,0,0,0-1.87.06v.77a1.5,1.5,0,0,1,1.19-.16.52.52,0,0,1,.36.47,2.94,2.94,0,0,0-1,0,1.09,1.09,0,0,0-.92,1.24.59.59,0,0,0,0,.17,1,1,0,0,0,1.29.69,1,1,0,0,0,.63-.56l0,.55h.89Zm-.93-.43a.77.77,0,0,1-.33.49.52.52,0,0,1-.47,0A.42.42,0,0,1,52.9,10a.53.53,0,0,1,.49-.22h.45a1.79,1.79,0,0,1,0,.23"/><path class="cls-5" d="M32.88,7.75h0a1.85,1.85,0,0,0-.92.26v.57a1.13,1.13,0,0,1,.86-.38.55.55,0,0,1,.58.37,1.88,1.88,0,0,1,.06.53l-.86.13a1.49,1.49,0,0,0-.53.2,1.26,1.26,0,0,0-.32,1.44.93.93,0,0,0,1.71-.12v.53h.47V8.82a1,1,0,0,0-1-1.07m0,3.1a.55.55,0,0,1-.72-.22.85.85,0,0,1,0-.68.67.67,0,0,1,.44-.29l.82-.1V10a1,1,0,0,1-.54.9"/><path class="cls-5" d="M28.39,8.56a1.16,1.16,0,0,0-1.46-.76,1.14,1.14,0,0,0-.76.76,3.91,3.91,0,0,0,0,2,1.39,1.39,0,0,0,1.83.71,1.23,1.23,0,0,0,.25-.14v-.57a1.12,1.12,0,0,1-.24.19,1,1,0,0,1-1.35-.37,3.53,3.53,0,0,1-.11-.65H28.5a5.6,5.6,0,0,0-.11-1.15m-1.8.69a3.47,3.47,0,0,1,.08-.55.62.62,0,0,1,.39-.4.65.65,0,0,1,.83.39,5.35,5.35,0,0,1,.07.56Z"/><path class="cls-5" d="M25.23,6.35V8a1.26,1.26,0,0,0-1.75.29,1,1,0,0,0-.16.33,4.15,4.15,0,0,0,0,1.92,1.24,1.24,0,0,0,1.58.78,1,1,0,0,0,.33-.16v.23h.46v-5Zm0,4a.76.76,0,0,1-.43.43.73.73,0,0,1-.94-.43,3.78,3.78,0,0,1,0-1.64.73.73,0,0,1,1.37,0,3.78,3.78,0,0,1,0,1.64"/><path class="cls-5" d="M31.24,11V8h-.38v.26a1.19,1.19,0,0,0-1.69,0,1.25,1.25,0,0,0-.31.47,3.52,3.52,0,0,0,0,1.93,1.26,1.26,0,0,0,1.64.69,1.34,1.34,0,0,0,.4-.27,3,3,0,0,1-.07.67.94.94,0,0,1-.57.64A1.4,1.4,0,0,1,29,12v.57a1.93,1.93,0,0,0,1.69,0,1.33,1.33,0,0,0,.59-1c0-.15,0-.45,0-.61m-.55-.61a.76.76,0,0,1-.43.43.74.74,0,0,1-1-.43,3.78,3.78,0,0,1,0-1.64.76.76,0,0,1,.43-.43.74.74,0,0,1,1,.43,3.78,3.78,0,0,1,0,1.64"/><path class="cls-5" d="M19.94,10a1.28,1.28,0,0,0-.6-1,1.26,1.26,0,0,0,.25-1.77,1.24,1.24,0,0,0-.91-.5H17.56v4.71h1.12A1.32,1.32,0,0,0,19.94,10M18.08,7.21h.5a.76.76,0,0,1,0,1.51h-.5Zm.58,3.68h-.58V9.29h.58a.8.8,0,0,1,0,1.6"/><path class="cls-5" d="M22.93,8.79a1.33,1.33,0,0,0-1.59-1,1.31,1.31,0,0,0-1,1,3.94,3.94,0,0,0,0,1.53,1.33,1.33,0,0,0,2.6,0,4.37,4.37,0,0,0,0-1.53m-.51,1.43a.79.79,0,0,1-.61.61.82.82,0,0,1-1-.61,3.66,3.66,0,0,1,0-1.32.85.85,0,0,1,.62-.62.81.81,0,0,1,1,.62,3.66,3.66,0,0,1,0,1.32"/><path class="cls-2" d="M61.29,4.21A.89.89,0,0,0,60,4.09L60,4.16l-.93,1L58,6.42,57,7.69l-.66,1a2.64,2.64,0,0,0-.51,1.51l0,2.68a1.65,1.65,0,0,0,.17.56.21.21,0,0,0,.17.07,1.46,1.46,0,0,0,.42-.32l5.54-6.47.32-.22a.73.73,0,0,1,.79.18l.45.45.18.12Z"/><path class="cls-3" d="M63.51,7.06a.81.81,0,0,0-1.07-.14L62,7.27,60.71,8.84l4,4.65.28.18a.47.47,0,0,0,.3-.4l0-3,0-.45a6.24,6.24,0,0,0-1.72-2.73"/></g></g></svg>