<svg id="Layer_1" data-name="Layer 1" xmlns="http://www.w3.org/2000/svg" viewBox="0 0 80 47.3"><defs><style>.cls-1{fill:#ffca37;}.cls-2{fill:#f1efed;}</style></defs><title>banco-pichincha</title><circle cx="40" cy="17.2" r="17.2"/><circle class="cls-1" cx="40" cy="17.2" r="16.6"/><circle cx="40" cy="17.2" r="14.4"/><circle class="cls-2" cx="40" cy="17.2" r="13.9"/><path d="M57.6,37.4a3,3,0,0,1,3,2.9,2.69,2.69,0,0,1-2.2,2.6v.5c1.1,0,2.1.7,2.1,2.6a3.3,3.3,0,0,1-3,3.5H40.7v-.1h.5c.9,0,1.5-.9,1.5-2.3V39.4a1.84,1.84,0,0,0-2-2v-.1H57.6M45.2,42.9H55.4c1,0,2-.5,2-2.2a1.66,1.66,0,0,0-1.7-1.9H45.2v4.1m0,5.1H55.5c.9,0,1.8-.5,1.8-2.2s-1.2-2-1.6-2H45.1V48M57.6,36.9H40.3V38h.5a1.36,1.36,0,0,1,1.5,1.5v7.7c0,1-.4,1.8-1,1.8h-1v1H57.6a3.7,3.7,0,0,0,2.1-.9,4,4,0,0,0,1.4-3.2c0-1.9-.8-2.6-1.6-2.9.1-.1.2-.1.3-.2a2.92,2.92,0,0,0,1.3-2.5,3.4,3.4,0,0,0-3.5-3.4ZM45.7,39.2h10c.3,0,1.2.1,1.2,1.4s-.5,1.7-1.5,1.7H45.7V39.2Zm0,5.1H55.8c.3,0,1.1.1,1.1,1.4,0,1.5-.8,1.7-1.3,1.7H45.8V44.3Z" transform="translate(-10 -26.4)"/><path class="cls-1" d="M60.5,46c0-1.9-.9-2.6-2.1-2.6v-.5a2.69,2.69,0,0,0,2.2-2.6,3,3,0,0,0-3-2.9H40.8v.1a1.84,1.84,0,0,1,2,2v7.7c0,1.4-.7,2.3-1.5,2.3h-.5v.1H57.6A3.52,3.52,0,0,0,60.5,46Zm-4.9,2H45.3V43.9H55.9c.4,0,1.6.2,1.6,2C57.4,47.4,56.5,48,55.6,48Zm-.1-5.1H45.2V38.8H55.7a1.66,1.66,0,0,1,1.7,1.9C57.4,42.3,56.5,42.9,55.5,42.9Z" transform="translate(-10 -26.4)"/><path d="M49.8,34.2v12c0,.1.1.3.4.3s2.6-.8,2.6-6.7v-.6h-.5v.6a10.55,10.55,0,0,1-1,5.1,3,3,0,0,1-1,1v-11a4,4,0,0,1,1.5,2h.5A3.58,3.58,0,0,0,49.8,34.2Z" transform="translate(-10 -26.4)"/><path class="cls-1" d="M49.8,51.2V50H47.5v1.2c0,.7-.4,1.5-.9,1.5h4.2C50.3,52.6,49.8,51.7,49.8,51.2Z" transform="translate(-10 -26.4)"/><path class="cls-1" d="M52.8,39.2v.6c0,5.8-2.3,6.7-2.6,6.7a.45.45,0,0,1-.4-.3v-12a3.84,3.84,0,0,1,2.6,2.7H55a6.59,6.59,0,0,0-6.1-3.6c-4.4,0-4.8,1.9-4.8,2.6,0,.9.5,1.5,1.8,1.5.2,0,.5-.1.5-.2s-1-.1-1-1.3c0-.5.3-1.5,2.2-1.5V47.5h2.3v-.6c2.1,0,5.7-2.1,5.8-7.7Z" transform="translate(-10 -26.4)"/><path d="M46.8,37.1a.64.64,0,0,0-.6-.6c-.3-.1-.5-.2-.5-.7,0-.3.1-.8,1.2-.9V47.5h.5V34.4c-1.9,0-2.2,1-2.2,1.5,0,1.2,1,1.1,1,1.3s-.3.2-.5.2c-1.4,0-1.8-.6-1.8-1.5,0-.7.4-2.6,4.8-2.6a6.65,6.65,0,0,1,6.1,3.6h.6a6.28,6.28,0,0,0-1.2-1.8,7.13,7.13,0,0,0-5.5-2.4,6.61,6.61,0,0,0-4.4,1.2,2.48,2.48,0,0,0-.9,1.9,2,2,0,0,0,.6,1.5,2.31,2.31,0,0,0,1.7.5C46.3,37.8,46.8,37.6,46.8,37.1Z" transform="translate(-10 -26.4)"/><path d="M55.5,39.2c0,5.6-3.7,7.7-5.8,7.7v.6h.5v-.1a5.85,5.85,0,0,0,3.5-1.9,8.79,8.79,0,0,0,2.2-6.2h-.4Z" transform="translate(-10 -26.4)"/><path d="M50.3,51.2V50h-.5v1.2c0,.5.5,1.4.9,1.5H46.5c.5-.1.9-.9.9-1.5V50h-.5v1.2a1.23,1.23,0,0,1-1,1.3H45v.6h7.8v-.6H51.4C50.9,52.5,50.3,51.7,50.3,51.2Z" transform="translate(-10 -26.4)"/><path d="M13.1,69.1h0a1.86,1.86,0,0,0,1.3-1.9c0-1.8-1.8-1.8-2.1-1.8H10v.4s.3.1.3.9v5.6a.94.94,0,0,1-.3.8v.4h2.9a2.2,2.2,0,0,0,1.8-2.3A2,2,0,0,0,13.1,69.1Zm-1.4-3a.45.45,0,0,1,.5-.4c.8,0,.8.9.8,1.6,0,1.4-.2,1.6-.7,1.7h-.6Zm.6,7a.53.53,0,0,1-.6-.6V69.4h.7c.8.1.9,1.1.9,2.1S13,73.1,12.3,73.1Z" transform="translate(-10 -26.4)"/><path d="M20.1,72.4c-.1-.2-2.1-7-2.1-7h-.3s-2.1,6.9-2.2,7.2c0,.1-.2.6-.6.6v.2h1.7v-.2a.67.67,0,0,1-.7-.6,4.33,4.33,0,0,1,.1-.5l.3-1h2l.4,1.2.1.3c0,.2-.1.5-.8.5v.2h2.7v-.2C20.3,73.2,20.2,72.6,20.1,72.4Zm-3.6-1.8.8-2.9.9,2.9Z" transform="translate(-10 -26.4)"/><path d="M89.3,72.4c-.1-.2-2.1-7-2.1-7H87s-2.1,6.9-2.2,7.2c0,.1-.2.6-.6.6v.2h1.7v-.2a.67.67,0,0,1-.7-.6,4.33,4.33,0,0,1,.1-.5l.3-1h2l.4,1.2.1.3c0,.2-.1.5-.8.5v.2H90v-.2C89.5,73.2,89.4,72.6,89.3,72.4Zm-3.5-1.8.8-2.9.9,2.9Z" transform="translate(-10 -26.4)"/><path d="M25,65.4v.2c.2,0,.7.1.7,1v3.9l-3-5.1H20.9v.2a.35.35,0,0,1,.2.1s.2.3.5.8v5.6c0,.3-.1.9-.7.9v.2h1.7V73a.81.81,0,0,1-.7-.9v-5c1.3,2.2,3.8,6.3,3.8,6.3H26V66.5c0-.7.4-1,.7-1v-.2H25Z" transform="translate(-10 -26.4)"/><path d="M70.3,65.4v.2c.2,0,.7.1.7,1v3.9l-3-5.1H66.2v.2a.35.35,0,0,1,.2.1s.2.3.5.8v5.6c0,.3-.1.9-.7.9v.2h1.7V73a.81.81,0,0,1-.7-.9v-5c1.3,2.2,3.8,6.3,3.8,6.3h.2V66.5c0-.7.4-1,.7-1v-.2H70.3Z" transform="translate(-10 -26.4)"/><path d="M32.2,68V65.3H32c0,.1-.2.5-.4.5s-.9-.5-1.7-.5c-1.4,0-3,1.6-3,4.1,0,3.5,2.3,4.2,3,4.2a2.8,2.8,0,0,0,2.4-1.7l-.3-.3a2.62,2.62,0,0,1-2.1,1.5c-.6,0-1.6-.4-1.6-3.7,0-3.7,1.2-3.9,1.6-3.9s1.4.1,2,2.4Z" transform="translate(-10 -26.4)"/><path d="M77.5,68V65.3h-.2c0,.1-.2.5-.4.5s-.9-.5-1.7-.5c-1.4,0-3,1.6-3,4.1,0,3.5,2.3,4.2,3,4.2a2.8,2.8,0,0,0,2.4-1.7l-.3-.3a2.62,2.62,0,0,1-2.1,1.5c-.6,0-1.6-.4-1.6-3.7,0-3.7,1.2-3.9,1.6-3.9s1.4.1,2,2.4Z" transform="translate(-10 -26.4)"/><path d="M56.4,68V65.3h-.2c0,.1-.2.5-.4.5s-.9-.5-1.7-.5c-1.4,0-3,1.6-3,4.1,0,3.5,2.3,4.2,3,4.2a2.8,2.8,0,0,0,2.4-1.7l-.3-.3a2.62,2.62,0,0,1-2.1,1.5c-.6,0-1.6-.4-1.6-3.7,0-3.7,1.2-3.9,1.6-3.9s1.4.1,2,2.4Z" transform="translate(-10 -26.4)"/><path d="M35.7,65.3c-.8,0-3,.8-3,4.2s2.1,4.2,3,4.2c1.5,0,2.9-1.6,2.9-4.2C38.7,66.3,36.8,65.3,35.7,65.3Zm0,8c-.5,0-1.6-.6-1.6-3.9s1.1-3.9,1.6-3.9,1.5.5,1.5,3.9S36.2,73.3,35.7,73.3Z" transform="translate(-10 -26.4)"/><path d="M46.2,65.4H43.1v.2c.4,0,.7.3.7,1v5.7c0,.6-.3.9-.7.9v.2h2.8v-.2a.81.81,0,0,1-.7-.9V69.8h.9A2,2,0,0,0,48,67.5,1.93,1.93,0,0,0,46.2,65.4Zm-1,4V66.3c0-.5.2-.5.5-.5.9,0,1,1.3,1,1.8C46.6,68.6,46.5,69.4,45.2,69.4Z" transform="translate(-10 -26.4)"/><path d="M47.9,65.4h3v.2c-.5,0-.8.4-.8,1v5.7a.81.81,0,0,0,.8.9v.2h-3v-.2a.82.82,0,0,0,.8-.9V66.7c0-.7-.4-1-.8-1Z" transform="translate(-10 -26.4)"/><path d="M63.1,65.4h3v.2c-.5,0-.8.4-.8,1v5.7a.81.81,0,0,0,.8.9v.2h-3v-.2a.82.82,0,0,0,.8-.9V66.7c0-.7-.4-1-.8-1Z" transform="translate(-10 -26.4)"/><path d="M63.1,65.6v-.2H60.3v.2c.5,0,.7.3.7,1V69H58.9V66.6c0-.6.2-1,.7-1v-.2H56.8v.2c.5,0,.7.3.7,1v5.6a.81.81,0,0,1-.7.9v.2h2.8v-.2c-.3,0-.7-.2-.7-.9V69.5H61v2.7a.81.81,0,0,1-.7.9v.2h2.8v-.2c-.3,0-.7-.2-.7-.9V66.5C62.4,66,62.6,65.6,63.1,65.6Z" transform="translate(-10 -26.4)"/><path d="M84.1,65.6v-.2H81.3v.2c.5,0,.7.3.7,1V69H80V66.6c0-.6.2-1,.7-1v-.2H77.9v.2c.5,0,.7.3.7,1v5.6a.81.81,0,0,1-.7.9v.2h2.8v-.2c-.3,0-.7-.2-.7-.9V69.5h2v2.7a.81.81,0,0,1-.7.9v.2h2.8v-.2c-.3,0-.7-.2-.7-.9V66.5C83.4,66,83.6,65.6,84.1,65.6Z" transform="translate(-10 -26.4)"/></svg>