<svg xmlns="http://www.w3.org/2000/svg" viewBox="0 0 80 49.15"><defs><style>.cls-1{fill:#0f7dc2;}</style></defs><title>Banco-Nacion</title><g id="Layer_2" data-name="Layer 2"><g id="Banco-Nacion"><g id="_Group_" data-name="&lt;Group&gt;"><rect id="_Path_" data-name="&lt;Path&gt;" class="cls-1" x="31.91" y="10.41" width="2.3" height="11.43"/><rect id="_Path_2" data-name="&lt;Path&gt;" class="cls-1" x="31.4" y="22.77" width="17.2" height="1.72"/><rect id="_Path_3" data-name="&lt;Path&gt;" class="cls-1" x="36.53" y="10.41" width="2.3" height="11.43"/><rect id="_Path_4" data-name="&lt;Path&gt;" class="cls-1" x="41.17" y="10.41" width="2.3" height="11.43"/><rect id="_Path_5" data-name="&lt;Path&gt;" class="cls-1" x="45.74" y="10.41" width="2.3" height="11.43"/><rect id="_Path_6" data-name="&lt;Path&gt;" class="cls-1" x="30.36" y="25.39" width="19.36" height="1.72"/><path id="_Compound_Path_" data-name="&lt;Compound Path&gt;" class="cls-1" d="M40,0A17.19,17.19,0,1,0,57.19,17.19,17.19,17.19,0,0,0,40,0Zm0,31.93A14.75,14.75,0,1,1,54.75,17.19,14.75,14.75,0,0,1,40,31.93Z"/><path id="_Compound_Path_2" data-name="&lt;Compound Path&gt;" class="cls-1" d="M13.73,37.54c0-.32-.26-.48-.77-.48v-.13H15.1c1.46,0,2.19.43,2.19,1.31,0,.59-.35,1-1.06,1.12h0a1.93,1.93,0,0,1,.95.42,1.11,1.11,0,0,1,.38.87,1.17,1.17,0,0,1-.56,1,2.69,2.69,0,0,1-1.52.37H13v-.15c.51,0,.77-.16.77-.48v-3.9Zm.82,3.83a.38.38,0,0,0,.12.32,1,1,0,0,0,.53.1,1.9,1.9,0,0,0,1.07-.26,1,1,0,0,0,.39-.9c0-.74-.57-1.1-1.71-1.1h-.4v1.84Zm.65-2.15a1.54,1.54,0,0,0,.95-.25.83.83,0,0,0,.33-.71.94.94,0,0,0-.26-.69,1.24,1.24,0,0,0-.69-.33l-.55,0a.9.9,0,0,0-.34.05.2.2,0,0,0-.09.19v1.76Z"/><path id="_Compound_Path_3" data-name="&lt;Compound Path&gt;" class="cls-1" d="M23,41.16a2.86,2.86,0,0,0,.32.58.51.51,0,0,0,.44.18v.15h-2v-.15a1.27,1.27,0,0,0,.44-.07.2.2,0,0,0,.12-.19,2.13,2.13,0,0,0-.2-.61l-.28-.66H19.72s-.07.19-.21.53a2.35,2.35,0,0,0-.21.67q0,.33.54.33v.15H18.26v-.15a.68.68,0,0,0,.52-.32,8.08,8.08,0,0,0,.52-1l1.62-3.75h.16l2,4.35Zm-3.17-1.09h1.87l-.94-2.14-.93,2.14Z"/><path id="_Path_7" data-name="&lt;Path&gt;" class="cls-1" d="M28.8,42.17h-.13L25.12,37.9v3.54q0,.48.78.48v.15H24v-.15q.78,0,.78-.48V37.5l-.06-.08a1.69,1.69,0,0,0-.33-.29,1,1,0,0,0-.39-.07v-.13h1.37l3.07,3.73V37.54c0-.32-.26-.48-.77-.48v-.13h1.9v.13c-.51,0-.77.16-.77.48v4.63Z"/><path id="_Path_8" data-name="&lt;Path&gt;" class="cls-1" d="M34.66,38.57h-.18a2.53,2.53,0,0,0-.35-.76,1.69,1.69,0,0,0-.59-.51,1.74,1.74,0,0,0-.8-.18,1.59,1.59,0,0,0-1.41.67,3.07,3.07,0,0,0-.47,1.78,2.9,2.9,0,0,0,.21,1.09,2,2,0,0,0,.64.84,1.69,1.69,0,0,0,1,.33,2.58,2.58,0,0,0,1-.19,2.82,2.82,0,0,0,.86-.59l.14.15a2.72,2.72,0,0,1-.94.71,2.78,2.78,0,0,1-1.14.26,3.08,3.08,0,0,1-1.41-.31,2.34,2.34,0,0,1-1-.93,3,3,0,0,1-.15-2.5,2.58,2.58,0,0,1,.57-.86,2.55,2.55,0,0,1,.87-.56,3,3,0,0,1,1.1-.2,2.58,2.58,0,0,1,.53,0l.5.14a1.34,1.34,0,0,0,.39.1c.14,0,.25-.1.33-.29h.17l.07,1.76Z"/><path id="_Compound_Path_4" data-name="&lt;Compound Path&gt;" class="cls-1" d="M40.5,39.49a3,3,0,0,1-.18,1,2.47,2.47,0,0,1-.52.85A2.44,2.44,0,0,1,39,42a2.92,2.92,0,0,1-2.07,0,2.79,2.79,0,0,1-.85-.54,2.61,2.61,0,0,1-.58-.86,3,3,0,0,1-.2-1.1,2.9,2.9,0,0,1,.32-1.36,2.41,2.41,0,0,1,.93-1,2.72,2.72,0,0,1,1.38-.35,2.6,2.6,0,0,1,1.32.34,2.43,2.43,0,0,1,.94.94,2.82,2.82,0,0,1,.34,1.4Zm-4.31,0a2.93,2.93,0,0,0,.47,1.77,1.46,1.46,0,0,0,1.24.64,1.52,1.52,0,0,0,1.31-.8,3.23,3.23,0,0,0,.4-1.61,3.8,3.8,0,0,0-.18-1.19,1.83,1.83,0,0,0-.56-.88,1.43,1.43,0,0,0-1-.33c-1.14.08-1.71.89-1.71,2.4Z"/><path id="_Compound_Path_5" data-name="&lt;Compound Path&gt;" class="cls-1" d="M43.51,42.07v-.15q.69,0,.69-.48v-3.9q0-.48-.69-.48v-.13h2.06a4.91,4.91,0,0,1,1.77.28,2.37,2.37,0,0,1,1.13.86,2.48,2.48,0,0,1,.38,1.43A2.3,2.3,0,0,1,48,41.39a3.67,3.67,0,0,1-2.4.68Zm1.51-.7a.34.34,0,0,0,.39.38,3.36,3.36,0,0,0,1.42-.27,1.93,1.93,0,0,0,.87-.77,2.37,2.37,0,0,0,.29-1.2,2.5,2.5,0,0,0-.31-1.26,1.91,1.91,0,0,0-.88-.78,3.16,3.16,0,0,0-1.31-.26.81.81,0,0,0-.39.06c-.05,0-.08.15-.08.33v3.77Z"/><path id="_Path_9" data-name="&lt;Path&gt;" class="cls-1" d="M49.21,42.07v-.15c.47,0,.7-.16.7-.48v-3.9c0-.32-.23-.48-.7-.48v-.13h4.25V38h-.18a.88.88,0,0,0-.91-.8H51.08c-.23,0-.35.11-.35.31v1.67h1.12a1.46,1.46,0,0,0,.73-.16.62.62,0,0,0,.27-.58H53v1.82h-.16c0-.51-.33-.76-1-.76H50.73v1.91c0,.21.07.31.2.31H52a4.21,4.21,0,0,0,.68,0,1,1,0,0,0,.52-.27,1.91,1.91,0,0,0,.46-.67h.22l-.35,1.31Z"/><path id="_Path_10" data-name="&lt;Path&gt;" class="cls-1" d="M56.67,42.07v-.15c.47,0,.7-.16.7-.48v-3.9c0-.32-.23-.48-.7-.48v-.13h2.21v.13q-.69,0-.69.48v3.9c0,.21.27.31.8.31a6.84,6.84,0,0,0,1-.06,1.4,1.4,0,0,0,.65-.28,1.6,1.6,0,0,0,.48-.7h.2L61,42.07Z"/><path id="_Compound_Path_6" data-name="&lt;Compound Path&gt;" class="cls-1" d="M66.34,41.16a3.46,3.46,0,0,0,.32.58.52.52,0,0,0,.44.18v.15h-2v-.15a1.25,1.25,0,0,0,.43-.07.19.19,0,0,0,.13-.19,2.55,2.55,0,0,0-.2-.61l-.28-.66H63s-.07.19-.21.53a2.35,2.35,0,0,0-.21.67q0,.33.54.33v.15H61.57v-.15a.68.68,0,0,0,.53-.32,9.68,9.68,0,0,0,.52-1l1.62-3.75h.16l1.94,4.35Zm-3.16-1.09H65l-.93-2.14-.93,2.14Z"/><path id="_Path_11" data-name="&lt;Path&gt;" class="cls-1" d="M4.8,49.15H4.67L1.12,44.87v3.55q0,.48.78.48v.15H0V48.9q.78,0,.78-.48V44.48L.71,44.4a1.45,1.45,0,0,0-.32-.29A1,1,0,0,0,0,44v-.13H1.37l3.07,3.72V44.52q0-.48-.78-.48v-.13H5.57V44c-.51,0-.77.16-.77.48v4.63Z"/><path id="_Compound_Path_7" data-name="&lt;Compound Path&gt;" class="cls-1" d="M10.55,48.13a3.25,3.25,0,0,0,.32.59.52.52,0,0,0,.44.18v.15h-2V48.9a1.25,1.25,0,0,0,.43-.07.19.19,0,0,0,.13-.19,2.55,2.55,0,0,0-.2-.61l-.28-.66H7.25s-.08.19-.21.53a2.26,2.26,0,0,0-.21.67q0,.33.54.33v.15H5.78V48.9a.69.69,0,0,0,.53-.33,9.27,9.27,0,0,0,.52-1l1.61-3.75h.17ZM7.39,47.05H9.25l-.93-2.14Z"/><path id="_Path_12" data-name="&lt;Path&gt;" class="cls-1" d="M16.42,45.55h-.18a2.31,2.31,0,0,0-.35-.76,1.69,1.69,0,0,0-.59-.51,1.71,1.71,0,0,0-.8-.18,1.59,1.59,0,0,0-1.41.67,3.05,3.05,0,0,0-.46,1.78,3.1,3.1,0,0,0,.2,1.09,2,2,0,0,0,.64.84,1.69,1.69,0,0,0,1,.33,2.67,2.67,0,0,0,1-.19,3,3,0,0,0,.85-.59l.15.15a2.62,2.62,0,0,1-1,.7,2.64,2.64,0,0,1-1.14.27A3,3,0,0,1,13,48.83a2.23,2.23,0,0,1-1-.92,3,3,0,0,1-.16-2.5,2.49,2.49,0,0,1,.57-.86,2.65,2.65,0,0,1,.87-.56,3,3,0,0,1,1.1-.2,2.5,2.5,0,0,1,.53.05l.5.14a1.65,1.65,0,0,0,.4.09c.13,0,.24-.09.33-.28h.16l.07,1.76Z"/><path id="_Path_13" data-name="&lt;Path&gt;" class="cls-1" d="M18.52,48.42c0,.32.25.48.77.48v.15H16.92V48.9q.78,0,.78-.48v-3.9q0-.48-.78-.48v-.13h2.37V44c-.52,0-.77.16-.77.48Z"/><path id="_Compound_Path_8" data-name="&lt;Compound Path&gt;" class="cls-1" d="M24.92,46.47a3,3,0,0,1-.18,1.05,2.32,2.32,0,0,1-.52.85,2.44,2.44,0,0,1-.83.58,2.72,2.72,0,0,1-2.92-.52,2.61,2.61,0,0,1-.58-.86,3,3,0,0,1-.2-1.1A2.86,2.86,0,0,1,20,45.1a2.3,2.3,0,0,1,.92-1,2.73,2.73,0,0,1,1.39-.35,2.59,2.59,0,0,1,1.31.34,2.43,2.43,0,0,1,.94.94A2.82,2.82,0,0,1,24.92,46.47Zm-4.3,0a2.93,2.93,0,0,0,.46,1.77,1.48,1.48,0,0,0,1.25.64,1.53,1.53,0,0,0,1.3-.8,3.23,3.23,0,0,0,.4-1.61,3.81,3.81,0,0,0-.17-1.19,2,2,0,0,0-.56-.88,1.44,1.44,0,0,0-1-.33q-1.71.12-1.71,2.4Z"/><path id="_Path_14" data-name="&lt;Path&gt;" class="cls-1" d="M30.09,49.15H30l-3.55-4.28v3.55c0,.32.26.48.77.48v.15H25.29V48.9q.78,0,.78-.48V44.48L26,44.4a1.45,1.45,0,0,0-.32-.29,1,1,0,0,0-.39-.07v-.13h1.37l3.07,3.72V44.52q0-.48-.78-.48v-.13h1.91V44c-.51,0-.77.16-.77.48v4.63Z"/><path id="_Compound_Path_9" data-name="&lt;Compound Path&gt;" class="cls-1" d="M38.42,48.13a2.73,2.73,0,0,0,.32.59.52.52,0,0,0,.44.18v.15h-2V48.9a1.27,1.27,0,0,0,.44-.07.2.2,0,0,0,.12-.19,2.34,2.34,0,0,0-.19-.61l-.29-.66H35.11s-.07.19-.21.53a2.26,2.26,0,0,0-.21.67q0,.33.54.33v.15H33.65V48.9a.67.67,0,0,0,.52-.33,7.78,7.78,0,0,0,.52-1l1.62-3.75h.16Zm-3.16-1.08h1.86l-.94-2.14-.92,2.14Z"/><path id="_Compound_Path_10" data-name="&lt;Compound Path&gt;" class="cls-1" d="M40.07,44.52c0-.32-.23-.48-.68-.48v-.13H41.5a3.08,3.08,0,0,1,1.57.33,1.09,1.09,0,0,1,.56,1,1.07,1.07,0,0,1-.4.9,2.08,2.08,0,0,1-1,.42l1.57,1.89a1.25,1.25,0,0,0,.35.32.86.86,0,0,0,.41.12v.15H43.23l-1.89-2.4h-.46v1.76c0,.32.24.48.71.48v.15h-2.2V48.9c.45,0,.68-.16.68-.48v-3.9Zm.81,1.86a3.44,3.44,0,0,0,1.41-.27.89.89,0,0,0,.46-.85.94.94,0,0,0-.35-.81,1.52,1.52,0,0,0-.92-.26,2.08,2.08,0,0,0-.41,0,.22.22,0,0,0-.15.08.56.56,0,0,0,0,.26v1.83Z"/><path id="_Path_15" data-name="&lt;Path&gt;" class="cls-1" d="M49.63,45.43h-.18a1.8,1.8,0,0,0-1.78-1.33,1.7,1.7,0,0,0-1.07.32,1.86,1.86,0,0,0-.62.87,3.54,3.54,0,0,0-.21,1.26,2.54,2.54,0,0,0,.53,1.62,1.83,1.83,0,0,0,1.5.66,2,2,0,0,0,.89-.17.44.44,0,0,0,.2-.14.62.62,0,0,0,0-.24V47.12a1.36,1.36,0,0,0,0-.4.31.31,0,0,0-.18-.22,1.1,1.1,0,0,0-.47-.08v-.14h2v.14c-.24,0-.4.06-.46.16a1.05,1.05,0,0,0-.1.54V48.6a4.79,4.79,0,0,1-1,.38,4.07,4.07,0,0,1-1.06.17,3.31,3.31,0,0,1-1.35-.29A2.46,2.46,0,0,1,45.27,48a2.57,2.57,0,0,1-.41-1.47,2.74,2.74,0,0,1,.35-1.37,2.54,2.54,0,0,1,1-1,2.85,2.85,0,0,1,1.4-.35,3.22,3.22,0,0,1,.87.13,4.32,4.32,0,0,0,.59.12.33.33,0,0,0,.34-.25h.17l.07,1.64Z"/><path id="_Path_16" data-name="&lt;Path&gt;" class="cls-1" d="M50.5,49.05V48.9c.46,0,.7-.16.7-.48v-3.9c0-.32-.24-.48-.7-.48v-.13h4.25V45h-.18a.88.88,0,0,0-.91-.8H52.37c-.24,0-.35.1-.35.31v1.67h1.12a1.49,1.49,0,0,0,.73-.16.63.63,0,0,0,.27-.59h.16v1.83h-.16c0-.51-.33-.76-1-.76H52v1.91c0,.2.06.31.2.31h1.06a4.25,4.25,0,0,0,.69,0,1.19,1.19,0,0,0,.52-.27,1.91,1.91,0,0,0,.46-.67h.22l-.35,1.31Z"/><path id="_Path_17" data-name="&lt;Path&gt;" class="cls-1" d="M60.18,49.15h-.13L56.5,44.87v3.55q0,.48.78.48v.15h-1.9V48.9q.78,0,.78-.48V44.48l-.06-.08a1.69,1.69,0,0,0-.33-.29,1,1,0,0,0-.39-.07v-.13h1.37l3.07,3.72V44.52q0-.48-.78-.48v-.13H61V44c-.51,0-.77.16-.77.48v4.63Z"/><path id="_Path_18" data-name="&lt;Path&gt;" class="cls-1" d="M64.6,49.05H62.37V48.9c.47,0,.71-.16.71-.48v-4.2H62.5a2.65,2.65,0,0,0-.57.05.63.63,0,0,0-.34.26,2,2,0,0,0-.22.69h-.2l0-1.31h4.52l.05,1.31h-.2a1.74,1.74,0,0,0-.22-.69.6.6,0,0,0-.34-.26,2.61,2.61,0,0,0-.56-.05h-.58v4.2c0,.32.24.48.71.48v.15Z"/><path id="_Path_19" data-name="&lt;Path&gt;" class="cls-1" d="M67.68,48.42c0,.32.26.48.77.48v.15H66.08V48.9q.78,0,.78-.48v-3.9q0-.48-.78-.48v-.13h2.37V44c-.51,0-.77.16-.77.48Z"/><path id="_Path_20" data-name="&lt;Path&gt;" class="cls-1" d="M73.49,49.15h-.13l-3.55-4.28v3.55c0,.32.26.48.77.48v.15H68.69V48.9q.78,0,.78-.48V44.48l-.07-.08a1.72,1.72,0,0,0-.32-.29,1,1,0,0,0-.39-.07v-.13h1.37l3.06,3.72V44.52c0-.32-.25-.48-.77-.48v-.13h1.91V44c-.51,0-.77.16-.77.48v4.63Z"/><path id="_Compound_Path_11" data-name="&lt;Compound Path&gt;" class="cls-1" d="M79.24,48.13a2.73,2.73,0,0,0,.32.59.52.52,0,0,0,.44.18v.15H78V48.9a1.27,1.27,0,0,0,.44-.07.2.2,0,0,0,.12-.19,2.34,2.34,0,0,0-.19-.61L78,47.37h-2.1s-.08.19-.22.53a2.14,2.14,0,0,0-.2.67c0,.22.18.33.53.33v.15H74.47V48.9a.65.65,0,0,0,.52-.33,8.88,8.88,0,0,0,.53-1l1.61-3.75h.16Zm-3.16-1.08h1.86L77,44.91Z"/><polygon id="_Path_21" data-name="&lt;Path&gt;" class="cls-1" points="30.07 9.59 30.07 9.59 30.07 9.59 30.07 9.59"/><path id="_Compound_Path_12" data-name="&lt;Compound Path&gt;" class="cls-1" d="M39.76,4.59l-9.69,5H50Zm-4,3.6h0L39.89,6,44.3,8.19Z"/></g></g></g></svg>