<svg xmlns="http://www.w3.org/2000/svg" viewBox="0 0 80 18.71"><defs><style>.cls-1{fill:#015192;}.cls-2{fill:#ffd12a;}.cls-3{fill:#ee323e;}</style></defs><title>bancolombia</title><g id="Layer_2" data-name="Layer 2"><g id="bancolombia"><path class="cls-1" d="M2.54,18.6,0,18.58V9.67c.73,0,1.87-.06,3-.06,1.88,0,2.93.78,2.93,2.2a2.17,2.17,0,0,1-1.38,2v0a2,2,0,0,1,1.54,2c0,1.29-.86,2.77-3.5,2.77M2.66,11c-.35,0-.69,0-1,0v2.33h.68c1.15,0,1.75-.48,1.75-1.27S3.72,11,2.66,11m-.25,3.65H1.68v2.5c.21,0,.53.05.92.05,1.09,0,1.65-.53,1.65-1.33s-.74-1.23-1.84-1.23"/><path class="cls-1" d="M10.5,18.59a9,9,0,0,1,.06-1.18h0a2.29,2.29,0,0,1-2.16,1.31A1.72,1.72,0,0,1,6.47,16.9c0-1.65,1.6-2.53,3.89-2.53V14c0-.72-.34-1.1-1.31-1.1a4.27,4.27,0,0,0-2,.55L6.9,12a7.25,7.25,0,0,1,2.42-.43c2.17,0,2.78.89,2.78,2.4l.05,4.64Zm-.14-3.06c-1.83,0-2.24.54-2.24,1.09a.72.72,0,0,0,.8.74,1.58,1.58,0,0,0,1.44-1.67Z"/><path class="cls-1" d="M66,18.59a8.91,8.91,0,0,1,.07-1.18h0a2.3,2.3,0,0,1-2.16,1.31A1.73,1.73,0,0,1,62,16.9c0-1.65,1.6-2.53,3.9-2.53V14c0-.72-.34-1.1-1.32-1.1a4.26,4.26,0,0,0-2,.55L62.39,12a7.19,7.19,0,0,1,2.41-.43c2.17,0,2.78.89,2.78,2.4l.06,4.64Zm-.13-3.06c-1.83,0-2.24.54-2.24,1.09a.72.72,0,0,0,.8.74,1.59,1.59,0,0,0,1.44-1.67Z"/><path class="cls-1" d="M22.66,18.7c-1.87,0-3-1-3-3.34,0-2.15,1.1-3.8,3.49-3.8a4.9,4.9,0,0,1,1.38.2l-.17,1.53A3.49,3.49,0,0,0,23.1,13c-1.1,0-1.66.84-1.66,2.14s.45,2,1.6,2a3,3,0,0,0,1.33-.29l.14,1.51a5.34,5.34,0,0,1-1.85.32"/><path class="cls-1" d="M28.07,18.71c-1.92,0-3.15-1-3.15-3.46a3.43,3.43,0,0,1,3.44-3.7c1.92,0,3.15,1.08,3.15,3.45a3.45,3.45,0,0,1-3.44,3.71M28.24,13c-.77,0-1.53.61-1.53,2s.5,2.13,1.5,2.13,1.51-.7,1.51-2.1S29.26,13,28.24,13"/><path class="cls-1" d="M37.84,18.71c-1.91,0-3.15-1-3.15-3.46a3.43,3.43,0,0,1,3.45-3.7c1.91,0,3.15,1.08,3.15,3.45a3.45,3.45,0,0,1-3.45,3.71M38,13c-.77,0-1.54.61-1.54,2S37,17.2,38,17.2s1.51-.7,1.51-2.1S39,13,38,13"/><path class="cls-1" d="M61.32,18.58H59.47V11.71a8,8,0,0,1,1.85,0Zm-.87-7.78a1.08,1.08,0,0,1,0-2.15,1.07,1.07,0,0,1,1.08,1.07,1.08,1.08,0,0,1-1.08,1.08"/><path class="cls-1" d="M17,11.53a2.47,2.47,0,0,0-2.3,1.39v0l0-1.23a5.7,5.7,0,0,0-1.6.37v6.54h1.75V15.25c0-1.21.69-2.23,1.57-2.23.64,0,.83.43.83,1.15v4.41H19V13.74c0-1.21-.48-2.21-2-2.21"/><path class="cls-1" d="M32.26,9.33v9.25h1.68V8.93a5.38,5.38,0,0,0-1.68.4"/><path class="cls-1" d="M56.4,11.88A2,2,0,0,0,54.46,13h0a8.52,8.52,0,0,0,.1-1.28V8.93a5.45,5.45,0,0,0-1.68.41v9.05a8.54,8.54,0,0,0,2.42.32c2.21,0,3.47-1.54,3.47-3.75,0-1.94-.82-3.08-2.36-3.08m-1,5.48a2.55,2.55,0,0,1-.85-.12V15.39c0-1.09.52-2.11,1.37-2.11s1.1.62,1.1,1.85c0,1.62-.67,2.23-1.62,2.23"/><path class="cls-1" d="M49.92,11.53a2.39,2.39,0,0,0-2.2,1.39,1.75,1.75,0,0,0-1.86-1.39,2.4,2.4,0,0,0-2.22,1.39h0a10.82,10.82,0,0,0,.09-1.25,5.54,5.54,0,0,0-1.65.41v6.5H43.8V15.27c0-1.28.75-2.25,1.55-2.25s.8.51.8,1.19v4.37h1.71V15.27c0-1.34.78-2.25,1.54-2.25s.81.45.81,1.19v4.37h1.73V13.83c0-1.56-.72-2.3-2-2.3"/><path class="cls-1" d="M77.32.49a.73.73,0,0,0-.63-.4A23.72,23.72,0,0,0,71.9.16a25.66,25.66,0,0,0-2.79.4c-1,.19-2,.42-3,.72-.35.11-.56.31-.42.72s.35,1,.57,1.64c.14.42.51.42.9.31a33.06,33.06,0,0,1,3.34-.82c1.08-.22,2-.35,3-.48a41.19,41.19,0,0,1,4.32-.28c.2,0,.33-.19.19-.43Z"/><path class="cls-2" d="M79,3.55a.72.72,0,0,0-.78-.45,32.92,32.92,0,0,0-5.59.45,40.67,40.67,0,0,0-4.08.81c-.74.19-1.47.38-2.22.63s-1.49.5-2.22.78a.89.89,0,0,0-.62.9c.19.77.38,1.55.61,2.44a.73.73,0,0,0,1,.39c1.63-.62,3.33-1.15,4.93-1.59s3-.73,4.22-1c2.49-.54,3.79-.71,5.13-1,.3,0,.44-.25.3-.58Z"/><path class="cls-3" d="M80,9.33a.55.55,0,0,1-.32.78c-.47.2-.82.32-1.4.55l-.9.34-1,.39c-1.42.54-3,1.15-5,1.89a.8.8,0,0,1-1-.54c-.33-1.05-.7-2.08-1.07-3a.71.71,0,0,1,.49-1c1-.29,1.94-.52,2.83-.73s1.66-.4,2.4-.57c1.5-.34,2.45-.54,3.47-.72a.62.62,0,0,1,.8.44c.29.71.54,1.41.78,2.16"/></g></g></svg>