<svg xmlns="http://www.w3.org/2000/svg" viewBox="0 0 80 16.21"><defs><style>.cls-1{fill:#010101;}.cls-2{fill:#097aad;}</style></defs><title>Banco-Sabadell</title><g id="Layer_2" data-name="Layer 2"><g id="Banco-Sabadell"><path class="cls-1" d="M21.13,5.71c-.78-2.29-2.68-3.07-5-3.07a4.84,4.84,0,0,0-3.32,1.07,3.9,3.9,0,0,0-1.42,3.07c0,2.88,2.3,3.57,4.64,4.06.83.19,2.29.39,2.29,1.46s-1.17,1.42-2.05,1.42a2.48,2.48,0,0,1-2.73-1.86l-2.83.64c.58,2.58,2.83,3.66,5.32,3.66a6.12,6.12,0,0,0,3.81-1.08,4.15,4.15,0,0,0,1.61-3.32,3.7,3.7,0,0,0-1.71-3.12,10.19,10.19,0,0,0-3.42-1.12c-.73-.15-1.9-.34-1.9-1.32S15.42,5,16.25,5A2,2,0,0,1,18.5,6.54Z"/><path class="cls-1" d="M30.75,14.5V10c0-1.17.1-2.25-.88-3.08A5.29,5.29,0,0,0,26.8,6c-2.05,0-4.35.69-4.64,3.08l2.68.24c0-1,.79-1.41,1.71-1.41a1.62,1.62,0,0,1,1.17.44A1.89,1.89,0,0,1,28,9.62v.24a15.34,15.34,0,0,0-3.86.63,3.08,3.08,0,0,0-2.19,2.88c0,1.86,1.36,2.79,3.07,2.79a3.41,3.41,0,0,0,3.12-1.71A5.17,5.17,0,0,0,28.26,16H31A3.08,3.08,0,0,1,30.75,14.5Zm-2.88-2.79a3.3,3.3,0,0,1-.39,1.91,1.74,1.74,0,0,1-1.42.83,1.2,1.2,0,0,1-1.26-1.27c0-1.42,1.95-1.66,3.07-1.81Z"/><path class="cls-1" d="M37.78,6.05a2.48,2.48,0,0,0-2.39,1.42l-.1-4.64H32.46V16H34a5.09,5.09,0,0,1,.64-1.51,2.87,2.87,0,0,0,2.78,1.71c2.93,0,4-2.54,4-5.08C41.39,8.79,40.56,6.05,37.78,6.05Zm-.93,8.15a1.25,1.25,0,0,1-1.17-.68,3.12,3.12,0,0,1-.34-1.61V10.49c0-1,.19-2.53,1.56-2.53,1.56,0,1.56,2.05,1.56,3.12S38.46,14.2,36.85,14.2Z"/><path class="cls-1" d="M51.1,14.5V10c0-1.17.1-2.25-.87-3.08A5.32,5.32,0,0,0,47.15,6c-2,0-4.34.69-4.64,3.08l2.69.24c0-1,.78-1.41,1.71-1.41a1.62,1.62,0,0,1,1.17.44,2,2,0,0,1,.24,1.27v.24a15.26,15.26,0,0,0-3.85.63,3.09,3.09,0,0,0-2.2,2.88c0,1.86,1.37,2.79,3.07,2.79a3.43,3.43,0,0,0,3.13-1.71A5.52,5.52,0,0,0,48.61,16H51.4A2.51,2.51,0,0,1,51.1,14.5Zm-2.88-2.79a3.3,3.3,0,0,1-.39,1.91,1.74,1.74,0,0,1-1.41.83,1.21,1.21,0,0,1-1.27-1.27c0-1.42,2-1.66,3.07-1.81Z"/><path class="cls-1" d="M58.33,2.78V7.22A2.74,2.74,0,0,0,55.89,6c-2.83,0-3.57,2.88-3.57,5.18s.79,4.93,3.52,4.93a2.8,2.8,0,0,0,2.59-1.71l0,1.51h2.69V2.73H58.33Zm0,9.13h0a2.77,2.77,0,0,1-.25,1.42,1.5,1.5,0,0,1-1.22.78c-1.41,0-1.56-1.81-1.56-2.83C55.3,10.1,55.35,8,57,8c1.27,0,1.37,1.62,1.37,2.54Z"/><path class="cls-1" d="M71.7,11.57h0a6.55,6.55,0,0,0-1-3.81,4.43,4.43,0,0,0-3.57-1.71c-3,0-4.73,2.35-4.73,5.23a4.64,4.64,0,0,0,4.83,4.93,4.43,4.43,0,0,0,4.44-3.37l-2.59-.2a1.65,1.65,0,0,1-1.7,1.51,1.9,1.9,0,0,1-1.91-2.09v-.49ZM65.45,9.91c.1-1.12.59-2,1.81-2s1.56,1,1.61,2.05Z"/><rect class="cls-1" x="72.97" y="2.78" width="2.83" height="13.18"/><rect class="cls-1" x="77.17" y="2.78" width="2.83" height="13.18"/><path class="cls-2" d="M5.86,4.78a.56.56,0,0,0-.05-.88,1.49,1.49,0,0,0-.64,0H4.49v1h.78C5.47,4.88,5.71,4.93,5.86,4.78Z"/><path class="cls-2" d="M5.91,5.86a1.13,1.13,0,0,0-.59-.1H4.49V6.93h.78a1.33,1.33,0,0,0,.64-.1.6.6,0,0,0,.24-.48A.49.49,0,0,0,5.91,5.86Z"/><path class="cls-2" d="M5.32,0a5.32,5.32,0,1,0,5.32,5.32A5.36,5.36,0,0,0,5.32,0ZM6.78,7.57a2.22,2.22,0,0,1-1.26.24H3.37V2.93H5.56a2.27,2.27,0,0,1,1.13.19A1.18,1.18,0,0,1,7.27,4.2a1.14,1.14,0,0,1-.88,1.07,1.22,1.22,0,0,1,1,1.22A1.55,1.55,0,0,1,6.78,7.57Z"/></g></g></svg>