<svg id="Layer_1" data-name="Layer 1" xmlns="http://www.w3.org/2000/svg" viewBox="0 0 79.95 30.91"><defs><style>.cls-1{fill:#23418d;}.cls-2{fill:#c1cc30;}</style></defs><title>banco-nacional</title><path class="cls-1" d="M28.8,42.9a.47.47,0,0,1,.5-.5h4.4c1.3,0,2.8.6,2.8,2.1a1.51,1.51,0,0,1-.8,1.4,1.92,1.92,0,0,1,1.1,1.8c0,1.5-1.4,2.3-2.9,2.3H29.3a.47.47,0,0,1-.5-.5V42.9Zm2,.8v1.5h2.9a.63.63,0,0,0,.7-.7.71.71,0,0,0-.7-.8Zm0,2.9v1.9h3.1a.73.73,0,0,0,.8-.8c0-.6-.2-1-.8-1H30.8Z" transform="translate(-10.05 -34.56)"/><path class="cls-1" d="M46.2,49.9a.47.47,0,0,1-.5-.5V42.9a.47.47,0,0,1,.5-.5h1.5a1,1,0,0,1,.8.5l3.2,4.8V42.9a.47.47,0,0,1,.5-.5h.9a.47.47,0,0,1,.5.5v6.5a.47.47,0,0,1-.5.5H51.3a.87.87,0,0,1-.7-.5l-3-4.5v4.5a.47.47,0,0,1-.5.5Z" transform="translate(-10.05 -34.56)"/><path class="cls-1" d="M57.9,42.2h1.2c1.5,0,3.1.8,3.1,2.4a.62.62,0,0,1-.6.6H61a.94.94,0,0,1-.8-.6,1.18,1.18,0,0,0-1.2-.9h-.9c-1.6,0-2,.6-2,2.4s.4,2.3,2,2.3h1a1.25,1.25,0,0,0,1.3-.8.8.8,0,0,1,.8-.6h.6a.57.57,0,0,1,.6.6c0,1.5-1.6,2.3-3.1,2.3H58c-2.6,0-3.9-1.2-3.9-3.8s1.2-3.9,3.8-3.9Z" transform="translate(-10.05 -34.56)"/><path class="cls-1" d="M66.6,42.2c2.5,0,4.1,1.1,4.1,3.9s-1.5,3.8-4.1,3.8-4.2-1.1-4.2-3.8,1.4-3.9,4.2-3.9Zm-2.2,3.9c0,1.5.6,2.4,2.2,2.4s2.2-.8,2.2-2.4-.6-2.4-2.2-2.4-2.2.8-2.2,2.4Z" transform="translate(-10.05 -34.56)"/><path class="cls-1" d="M29.4,58.9a.47.47,0,0,1-.5-.5V51.9a.47.47,0,0,1,.5-.5H31a.87.87,0,0,1,.7.5l3.2,4.9v-5c0-.2.3-.4.5-.4h1a.54.54,0,0,1,.5.5v6.5a.54.54,0,0,1-.5.5H34.6a1,1,0,0,1-.8-.5l-2.9-4.5v4.5a.54.54,0,0,1-.5.5Z" transform="translate(-10.05 -34.56)"/><path class="cls-1" d="M49.5,51.2h1.2c1.4,0,2.9.8,2.9,2.3a.55.55,0,0,1-.5.6h-.7c-.3,0-.5-.1-.7-.6a1.44,1.44,0,0,0-1.3-.8h-1c-1.5,0-1.9.6-1.9,2.3s.4,2.4,1.9,2.4h1.1a1.54,1.54,0,0,0,1.3-.9c.2-.4.4-.5.7-.5h.7a.45.45,0,0,1,.5.5c0,1.6-1.6,2.4-3,2.4H49.4c-2.5,0-3.9-1.2-3.9-3.9.2-2.6,1.5-3.8,4-3.8Z" transform="translate(-10.05 -34.56)"/><path class="cls-1" d="M54.3,51.9a.47.47,0,0,1,.5-.5h1a.47.47,0,0,1,.5.5v6.5a.47.47,0,0,1-.5.5h-1a.47.47,0,0,1-.5-.5V51.9Z" transform="translate(-10.05 -34.56)"/><path class="cls-1" d="M60.9,51.2c2.5,0,4.1,1.1,4.1,3.8s-1.5,3.9-4.1,3.9-4.2-1.1-4.2-3.9c0-2.6,1.6-3.8,4.2-3.8ZM58.7,55c0,1.6.6,2.5,2.2,2.5s2.2-.9,2.2-2.5-.6-2.4-2.2-2.4-2.2.8-2.2,2.4Z" transform="translate(-10.05 -34.56)"/><path class="cls-1" d="M66.3,58.9a.47.47,0,0,1-.5-.5V51.9a.47.47,0,0,1,.5-.5h1.6a1,1,0,0,1,.7.5l3.2,4.9v-5a.46.46,0,0,1,.5-.4h.9a.47.47,0,0,1,.5.5v6.5a.47.47,0,0,1-.5.5H71.5a1,1,0,0,1-.8-.5l-3-4.5v4.5a.47.47,0,0,1-.5.5Z" transform="translate(-10.05 -34.56)"/><path class="cls-1" d="M84.5,51.3a.47.47,0,0,1,.5.5v5.5h4.5a.47.47,0,0,1,.5.5v.5a.47.47,0,0,1-.5.5H83.4a.47.47,0,0,1-.5-.5V51.8a.47.47,0,0,1,.5-.5Z" transform="translate(-10.05 -34.56)"/><path class="cls-1" d="M45.4,49.4l-1.2-5c-.4-1.7-1.8-2.1-3.1-2.1s-2.8.4-3.2,2.1l-1.2,5a.35.35,0,0,0,.3.5h1a.54.54,0,0,0,.5-.5l.3-1.3h4.4l.4,1.3a.54.54,0,0,0,.5.5h1c.2,0,.3-.3.3-.5Zm-4.2-2.9H39.1c.3-1,.5-2.8,1.9-2.8s1.5,1.7,1.8,2.8Z" transform="translate(-10.05 -34.56)"/><path class="cls-1" d="M45.7,58.4l-1.2-5c-.4-1.7-1.7-2-3.1-2-1.2,0-2.7.3-3.1,2l-1.2,5a.38.38,0,0,0,.3.5h1c.2,0,.4-.3.5-.5l.3-1.4h4.4l.3,1.4c.1.2.3.5.6.5h.9a.38.38,0,0,0,.3-.5Zm-4.1-3H39.5c.3-1,.5-2.7,1.8-2.7h.1c1.4,0,1.5,1.6,1.8,2.7Z" transform="translate(-10.05 -34.56)"/><path class="cls-1" d="M82.6,58.4l-1.2-5c-.4-1.7-1.6-2-3.1-2s-2.7.3-3.1,2l-1.2,5a.38.38,0,0,0,.3.5h.9c.3,0,.5-.3.6-.5l.3-1.4h4.4l.3,1.4a.64.64,0,0,0,.5.5h1c.2,0,.3-.3.3-.5Zm-4.1-3H76.4c.3-1,.4-2.7,1.8-2.7h.1c1.3,0,1.5,1.7,1.8,2.7Z" transform="translate(-10.05 -34.56)"/><path class="cls-2" d="M21.7,34.6l-5.2,1.9a.45.45,0,0,0-.3.3c-.2.8-3.5,12-6,15.9-.2.3-.2.4,0,.6l1.7,1.2a.39.39,0,0,0,.6-.3l5.3-16.6c.1-.3.2-.3.5-.4l1.6-.5c.3-.1.4.2.4.4,0,0-.8,4.1-1.6,10.1A36.85,36.85,0,0,1,16,57.1a.32.32,0,0,0,.2.5l3.3,2.5a.44.44,0,0,0,.7-.3L22.3,35c0-.4-.2-.5-.6-.4Z" transform="translate(-10.05 -34.56)"/><path class="cls-2" d="M27,64.9A38.28,38.28,0,0,1,25.8,55V41.4s-.6-2.2-.7-2.5-.2-.4-.4-.4-.4,0-.5.1-.3.2-.3.4L22.6,62.4a.76.76,0,0,0,.2.5l3.6,2.5c.3.2.7,0,.6-.5Z" transform="translate(-10.05 -34.56)"/></svg>