<svg id="Layer_1" data-name="Layer 1" xmlns="http://www.w3.org/2000/svg" viewBox="0 0 80 13.56"><defs><style>.cls-1{fill:#fce100;}.cls-2{fill:#213f7e;}</style></defs><title>Banco-do-Brazil</title><g id="Banco-do-Brazil"><g id="_Group_" data-name=" Group "><rect id="_Path_" data-name=" Path " class="cls-1" width="80" height="13.56"/><path id="_Compound_Path_" data-name=" Compound Path " class="cls-2" d="M3.73,5.08,5.85,6.49,8.39,4.8,7.33,4.09l1.38-.91,3,2L6.8,8.4l1.06.71,6-4-5-3.42ZM13.89,8.47,11.78,7.06,9.23,8.75l1.06.71-1.37.92-3-2,4.87-3.25-1.06-.7-6,4,5.08,3.39Zm0-5.36-1.06.7-1.05-.7,2.11-1.42ZM3.73,10.45l1.06-.71,1.06.71L3.73,11.86Z"/><path id="_Compound_Path_2" data-name=" Compound Path 2" class="cls-2" d="M18.7,10.16c.66,0,2.31-.08,2.31-1.79,0-.93-.29-1.58-1.4-1.72a1.44,1.44,0,0,0,1.28-1.51c0-1.44-1-1.75-2.18-1.75H15.93v6.77Zm49.89,0c.93,0,1.87-.12,1.87-1.56,0-1.66-2.41-1.49-2.41-2.54a.54.54,0,0,1,.5-.59H70V4.61H68.16c-1.48,0-1.85.68-1.85,1.54C66.31,7.8,69,7.76,69,8.69a.56.56,0,0,1-.48.63h-2L65,4.62H63.35l-1.56,5-1-2.17c.72-.13,1-.59,1-1.42a1.32,1.32,0,0,0-1.18-1.45H57.74v5.54h1.44V5.47h.48a.76.76,0,0,1,.76.76v.08c0,.46-.23.84-.6.82h-.4l1.31,3h2.32l.34-1.23h1.5l.34,1.23ZM64.67,8.08H63.6l.51-2.27Zm-16.1,2.24c2.16,0,2.16-1.43,2.16-2.9s0-2.91-2.16-2.91-2.16,1.42-2.16,2.91,0,2.9,2.16,2.9m0-.84c-.63,0-.72-.62-.72-2.06s.09-2.07.72-2.07.71.62.71,2.07-.08,2.06-.71,2.06m-6.86.68h2.11c2.21,0,2.06-2,2.06-2.81,0-1.73-.31-2.75-2-2.75H41.71Zm1.41-4.7h.57c.77,0,.77.91.77,1.93,0,1.39-.13,1.93-.81,1.93h-.53Zm11.2,1.75h.35c.68,0,.89.37.89,1,0,.95-.64,1-.92,1h-.75v-2Zm-.43-1V4.44h.83a.79.79,0,0,1,.77.81v0c0,.66-.41.86-.7.86h-.9Zm1.06,4c.67,0,2.32-.07,2.32-1.79,0-.93-.29-1.57-1.4-1.72a1.44,1.44,0,0,0,1.28-1.51c0-1.44-1-1.75-2.18-1.75H52.18v6.77Zm21.32,0V9.32H74.63V4.62H73.22v5.54ZM72.39,4.62H71v5.54h1.41ZM38,10.32c2.16,0,2.16-1.44,2.16-2.92s0-2.92-2.16-2.92S35.87,5.91,35.87,7.4s0,2.92,2.15,2.92m0-.84c-.63,0-.71-.63-.71-2.08s.08-2.07.71-2.07.72.62.72,2.07S38.65,9.48,38,9.48M24,8.08H23l.51-2.27Zm-1.63,2.08.35-1.23h1.5l.34,1.23H26.1L24.44,4.62H22.75l-1.7,5.54Zm11.07.16c1.23,0,1.94-.48,1.94-2H34.06c0,.44,0,1.15-.55,1.15s-.68-.36-.68-2.08.14-2.07.65-2.07.54.28.54,1h1.39c.05-1.21-.63-1.88-2-1.88-2,0-2,1.27-2,2.92s0,2.92,2.11,2.92m-5.88-.16V6.47l1.54,3.69H30.8V4.62H29.63V8.2L28.14,4.62H26.43v5.54ZM18,7.2h.22c.83,0,1.09.36,1.09,1,0,1-.78,1-1.13,1h-.52v-2Zm-.34-1V4.43h.62a.87.87,0,0,1,.94.8v.06a.83.83,0,0,1-.77.87h-.79Z"/></g></g></svg>