<svg xmlns="http://www.w3.org/2000/svg" viewBox="0 0 80 21.75"><defs><style>.cls-1{fill:#fff;}.cls-2{fill:#ef945b;}.cls-3{fill:#ce4b64;}.cls-4{fill:#ae2931;}.cls-5{fill:#f26722;}.cls-6{fill:#f6ceb6;}.cls-7{fill:#efad84;}.cls-8{fill:#efad7b;}</style></defs><title>Banco-Galicia</title><g id="Layer_2" data-name="Layer 2"><g id="Banco-Galicia"><g id="_Group_" data-name="&lt;Group&gt;"><path id="_Path_" data-name="&lt;Path&gt;" class="cls-1" d="M0,21.75V0H80V21.75Z"/><path id="_Path_2" data-name="&lt;Path&gt;" class="cls-2" d="M15.26,20.89l63.8,0,0,0-63.84,0,.06,0Z"/><path id="_Path_3" data-name="&lt;Path&gt;" class="cls-3" d="M.94,20.93h0Z"/><path id="_Path_4" data-name="&lt;Path&gt;" class="cls-3" d="M.94,1h0v20h0V1Z"/><path id="_Path_5" data-name="&lt;Path&gt;" class="cls-4" d="M11.25,20.93H.94V1H11.25L12.33,1s.45.08.48.11a10.58,10.58,0,0,1,5,2.54,14.73,14.73,0,0,1,1.85,2.38l.6,1.24A17.68,17.68,0,0,1,20.91,10c0,.49,0,1,0,1.5s-.09.77-.13,1.15a11.43,11.43,0,0,1-1.68,4.06,3.7,3.7,0,0,0-.45.62A12.74,12.74,0,0,1,15.1,20l-1,.4a11.41,11.41,0,0,1-2.8.49Z"/><path id="_Path_6" data-name="&lt;Path&gt;" class="cls-5" d="M15.26,20.89a13.9,13.9,0,0,0,3.53-2.29c0-.08.42-.43,1.06-1.18a17.71,17.71,0,0,0,1.54-2.54l.4-1.05a12.09,12.09,0,0,0-.07-7.36l-.39-1a13.69,13.69,0,0,0-2.78-3.77L17.65,1H79l0,0V20.91l-63.8,0Z"/><path id="_Path_7" data-name="&lt;Path&gt;" class="cls-1" d="M10.9,18.82c-.42-3-.9-5.91-1.22-8.87.47-.23.6-.73.75-1.21a6.6,6.6,0,0,0,.18-1.6,6.8,6.8,0,0,0-2.68.51.76.76,0,1,1,0-1.51,8,8,0,0,0,2.74.51A8,8,0,0,0,10.16,4a.77.77,0,0,1,.22-.58.76.76,0,0,1,1.27.57,8.42,8.42,0,0,0-.5,2.68l.06,0a7.51,7.51,0,0,0,2.69-.51.76.76,0,1,1,0,1.51,6.4,6.4,0,0,0-2.71-.49c.06.55.12,2.59,1,2.8-.05.45-.08.48-1,7,0,0-.26,1.81-.29,1.87Z"/><path id="_Path_8" data-name="&lt;Path&gt;" class="cls-1" d="M58.54,17.11a3.5,3.5,0,0,1-2.92-1.69c-.12-.23-.22-.46-.33-.7-.7-2.72.63-5.53,3.57-5.86a7.32,7.32,0,0,1,2.36.45,6.68,6.68,0,0,1-.47,1.29,4.19,4.19,0,0,1-.72-.13h-.88a2.56,2.56,0,0,0-1.45.8,2.77,2.77,0,0,0,.3,3.89l.49.22a4.87,4.87,0,0,0,2.24-.18c.16-.07.16-.07.21-.07a4.23,4.23,0,0,1,.51,1,7.1,7.1,0,0,1-2.91,1Z"/><path id="_Path_9" data-name="&lt;Path&gt;" class="cls-1" d="M35.29,7.41h-.6A3.94,3.94,0,0,0,31.5,9.23c-.22.48-.33.81-.36.84a5.27,5.27,0,0,0,.17,3.12,3.71,3.71,0,0,0,2.16,2l.69.13a4.23,4.23,0,0,0,1.64-.15c0-.84,0-1.68,0-2.52a13.64,13.64,0,0,0-1.93,0c0-.54,0-1.07,0-1.6v0h3.89c0,1.78,0,3.56,0,5.35l-1.12.38a17,17,0,0,1-1.91.38,7.62,7.62,0,0,1-2.56-.3A5.27,5.27,0,0,1,29,13.13a8,8,0,0,1,.15-3.91,7.83,7.83,0,0,1,1.08-1.79A6.54,6.54,0,0,1,32.9,5.84a9.36,9.36,0,0,1,4.58.27c-.18.5-.35,1-.52,1.52-1-.16-1-.16-1.67-.22Z"/><path id="_Compound_Path_" data-name="&lt;Compound Path&gt;" class="cls-1" d="M42.69,8.88a9.27,9.27,0,0,0-2.88.79c.14.39.29.78.44,1.17l1.27-.4a3.77,3.77,0,0,1,1.46,0c.73.32.76.91.79,1.63a7,7,0,0,0-3.72.86,4.34,4.34,0,0,0-.66.76,3,3,0,0,0-.07,1.86A2.5,2.5,0,0,0,40.9,17a3.09,3.09,0,0,0,2.84-1h0c.12.81.15.84.15.88l1.7,0,0-5.71a2.73,2.73,0,0,0-1.14-1.94A3.74,3.74,0,0,0,42.69,8.88Zm1.08,4.37c0,.47,0,1,0,1.44a2.49,2.49,0,0,1-1.82.9,1.17,1.17,0,0,1-.92-.67C40.79,13.36,42.66,13.28,43.77,13.25Z"/><path id="_Compound_Path_2" data-name="&lt;Compound Path&gt;" class="cls-1" d="M69.48,8.87a8.69,8.69,0,0,0-2.67.81,3,3,0,0,0,.44,1.17,6.83,6.83,0,0,1,2.47-.52s0,0,.32.1c.67.34.66.9.72,1.6-1.62.1-3.82.09-4.5,1.93a2.45,2.45,0,0,0,2,3.12A3.3,3.3,0,0,0,70.71,16h.07a4.16,4.16,0,0,0,.17.94H72.6c0-1.8,0-3.59,0-5.37a2.72,2.72,0,0,0-1.3-2.35c-.51-.2-.74-.23-.77-.26Zm1.27,4.37c0,.5,0,1,0,1.51-.67.55-1.94,1.35-2.64.37C67.39,13.49,69.68,13.27,70.75,13.24Z"/><path id="_Path_10" data-name="&lt;Path&gt;" class="cls-2" d="M51.67,16.9h1.9A11.94,11.94,0,0,1,51.67,16.9Z"/><path id="_Path_11" data-name="&lt;Path&gt;" class="cls-2" d="M71,16.9h1.67a.09.09,0,0,0-.06,0L71,16.9Z"/><path id="_Path_12" data-name="&lt;Path&gt;" class="cls-2" d="M43.94,16.87l1.69,0A9.32,9.32,0,0,1,43.94,16.87Z"/><path id="_Path_13" data-name="&lt;Path&gt;" class="cls-2" d="M47.57,5q0,5.94,0,11.89h-.06C47.54,12.92,47.56,9,47.57,5Z"/><path id="_Path_14" data-name="&lt;Path&gt;" class="cls-2" d="M62.93,16.89h2A14,14,0,0,1,62.93,16.89Z"/><path id="_Path_15" data-name="&lt;Path&gt;" class="cls-2" d="M51.61,9.06V16.9S51.59,16.9,51.61,9.06Z"/><path id="_Path_16" data-name="&lt;Path&gt;" class="cls-1" d="M51.61,16.9V9.06h1.93c0,2.61,0,5.21,0,7.83h-2Z"/><path id="_Path_17" data-name="&lt;Path&gt;" class="cls-1" d="M47.57,5V5h2V16.89H47.59q0-6,0-11.89Z"/><path id="_Path_18" data-name="&lt;Path&gt;" class="cls-1" d="M62.93,16.89V9.07h1.93l0,7.83Z"/><path id="_Path_19" data-name="&lt;Path&gt;" class="cls-6" d="M72.6,16.89c0-1.8,0-3.59,0-5.37,0,1.78,0,3.57,0,5.37Z"/><path id="_Path_20" data-name="&lt;Path&gt;" class="cls-6" d="M37.78,16.3c0-1.79,0-3.57,0-5.35h0Z"/><path id="_Path_21" data-name="&lt;Path&gt;" class="cls-7" d="M70.76,14.75c0-.51,0-1,0-1.51l0,0c0,.49,0,1,0,1.49Z"/><path id="_Path_22" data-name="&lt;Path&gt;" class="cls-8" d="M33.86,12.57h0a13.64,13.64,0,0,1,1.93,0H33.88A.08.08,0,0,1,33.86,12.57Z"/><path id="_Path_23" data-name="&lt;Path&gt;" class="cls-6" d="M33.86,12.57c0-.54,0-1.07,0-1.6,0,.53,0,1.06,0,1.6Z"/><path id="_Path_24" data-name="&lt;Path&gt;" class="cls-7" d="M33.88,11s0,0,3.9,0h-3.9Z"/><path id="_Path_25" data-name="&lt;Path&gt;" class="cls-6" d="M62.93,9.07a13.61,13.61,0,0,1,1.93,0Z"/><path id="_Path_26" data-name="&lt;Path&gt;" class="cls-1" d="M52.53,7.32a1.08,1.08,0,0,1-.63-1.87,1.06,1.06,0,0,1,1.64,1.24,1.15,1.15,0,0,1-1,.63Z"/><path id="_Path_27" data-name="&lt;Path&gt;" class="cls-1" d="M63.85,7.32A1.09,1.09,0,0,1,63,5.65a1.08,1.08,0,0,1,1.71,0,1.09,1.09,0,0,1-.61,1.66Z"/><path id="_Path_28" data-name="&lt;Path&gt;" class="cls-7" d="M47.57,5l0,0h1.91s0,0,0,0Z"/><path id="_Path_29" data-name="&lt;Path&gt;" class="cls-3" d="M.94,1h0Z"/><path id="_Path_30" data-name="&lt;Path&gt;" class="cls-2" d="M17.65,1s0,0,61.38,0Z"/></g></g></g></svg>