<svg id="Layer_1" data-name="Layer 1" xmlns="http://www.w3.org/2000/svg" viewBox="0 0 80 13.56"><defs><style>.cls-1{fill:#fbe000;}.cls-2{fill:#223e7d;}</style></defs><title>banco-do-brazil_brazil</title><rect class="cls-1" width="80" height="13.56"/><path class="cls-2" d="M13.73,48.3l2.12,1.41L18.39,48l-1.06-.71,1.38-.91,3,2L16.8,51.63l1.06.71,6-4-5.08-3.39Zm10.16,3.39-2.12-1.41L19.23,52l1.06.7-1.38.92-3-2,4.87-3.25-1.06-.71-6,4,5.08,3.39Zm0-5.36L22.83,47l-1.06-.71,2.12-1.41ZM13.73,53.67,14.79,53l1.06.71-2.12,1.41Z" transform="translate(-10 -43.22)"/><path class="cls-2" d="M28.7,53.38c.66,0,2.31-.08,2.31-1.79,0-.93-.29-1.58-1.4-1.72a1.45,1.45,0,0,0,1.28-1.51c0-1.44-1-1.75-2.18-1.75H25.93v6.77Zm49.89,0c.93,0,1.87-.12,1.87-1.56,0-1.66-2.4-1.49-2.4-2.55a.55.55,0,0,1,.63-.59H80v-.85H78.17c-1.48,0-1.85.67-1.85,1.54C76.32,51,79,51,79,51.91a.57.57,0,0,1-.61.63h-1.9l-1.41-4.7H73.37l-1.56,5-1-2.17c.72-.13,1-.59,1-1.42a1.32,1.32,0,0,0-1.44-1.45H67.76v5.54H69.2V48.7h.48a.76.76,0,0,1,.76.84c0,.46-.23.84-.6.82h-.41l1.32,3h2.31l.35-1.23h1.5l.34,1.23Zm-3.92-2.07H73.6L74.11,49Zm-16.1,2.24c2.16,0,2.16-1.44,2.16-2.91s0-2.91-2.16-2.91-2.16,1.42-2.16,2.91,0,2.91,2.16,2.91m0-.85c-.63,0-.72-.62-.72-2.06s.08-2.07.72-2.07.71.62.71,2.07-.08,2.06-.71,2.06m-6.86.68h2.11c2.21,0,2.06-2,2.06-2.81,0-1.73-.32-2.75-2-2.75H51.71Zm1.41-4.69h.57c.78,0,.78.9.78,1.92,0,1.4-.14,1.93-.81,1.93h-.53V48.69Zm11.2,1.74h.35c.68,0,.89.37.89,1,0,1-.64,1-.93,1h-.74V50.45Zm-.43-1V47.66h.83a.79.79,0,0,1,.77.86c0,.66-.41.86-.7.86h-.9Zm1.06,4c.66,0,2.31-.08,2.31-1.79,0-.93-.29-1.57-1.4-1.72a1.45,1.45,0,0,0,1.28-1.51c0-1.44-1-1.75-2.18-1.75H62.18V53.4H65Zm21.32,0v-.84H84.62v-4.7H83.21v5.54Zm-3.88-5.54H81v5.54h1.41ZM48,53.55c2.16,0,2.16-1.44,2.16-2.92s0-2.92-2.16-2.92-2.16,1.42-2.16,2.92,0,2.92,2.16,2.92m0-.85c-.63,0-.71-.63-.71-2.08s.08-2.08.71-2.08.72.62.72,2.08S48.65,52.7,48,52.7m-14-1.4H33L33.51,49Zm-1.63,2.08.35-1.23h1.5l.34,1.23h1.48l-1.67-5.54H32.75l-1.7,5.54Zm11.07.17c1.22,0,1.94-.49,1.94-2h-1.4c0,.45,0,1.15-.54,1.15s-.68-.36-.68-2.08.14-2.08.65-2.08.54.28.54,1h1.39c.05-1.22-.62-1.88-2-1.88-2,0-2,1.26-2,2.92s-.06,2.94,2.1,2.94m-5.88-.17V49.69l1.54,3.69h1.67V47.84h-1.2v3.58l-1.5-3.58H36.43v5.54Zm-9.66-3h.22c.83,0,1.09.37,1.09,1,0,1-.78,1-1.13,1h-.51V50.43Zm-.34-1V47.65h.61a.88.88,0,0,1,1,.86.81.81,0,0,1-.86.86h-.7Z" transform="translate(-10 -43.22)"/></svg>