<svg xmlns="http://www.w3.org/2000/svg" viewBox="0 0 80 28.1"><defs><style>.cls-1{fill:#001a4b;}.cls-2{fill:#0095da;}</style></defs><title>Banco-de-occidente</title><g id="Layer_2" data-name="Layer 2"><g id="Banco-de-occidente"><path class="cls-1" d="M0,21.34V28H2.87c1.36,0,2.43-.48,2.43-2a1.49,1.49,0,0,0-.88-1.45A1.35,1.35,0,0,0,4.88,24a2,2,0,0,0,.17-.88c0-1.1-.77-1.7-2.08-1.77H0Zm3.7,1.78c0,.66-.18.95-.67,1H1.35V22.28H2.7C3.47,22.28,3.7,22.45,3.7,23.12ZM3.94,26c0,.77-.26,1-.81,1.07H1.35v-2H2.8C3.29,25.07,3.94,25.07,3.94,26Zm15.69,1.14a9,9,0,0,1-1.28.16c-.45,0-.73-.06-.88-.31a2.79,2.79,0,0,1-.2-1.35c0-1.34.17-1.72,1.08-1.68.27,0,.85.13,1.29.18l.12-.78a10.07,10.07,0,0,0-1.36-.19c-2-.09-2.52.76-2.52,2.47s.49,2.54,2.52,2.46a9.76,9.76,0,0,0,1.39-.17Z"/><path class="cls-1" d="M34.49,27.29c-.68,0-.91-.31-1-1l0-.31h3.23v-.55a2.06,2.06,0,0,0-2.36-2.31c-1.44,0-2.28.66-2.28,2.47a2.77,2.77,0,0,0,.45,1.77,2.32,2.32,0,0,0,1.95.7A9,9,0,0,0,36,28l.53-.1-.14-.8A12.78,12.78,0,0,1,34.49,27.29Zm-.76-3.06a.77.77,0,0,1,.68-.27c.57,0,.84.22.93.92l0,.32H33.49A1.7,1.7,0,0,1,33.73,24.23Zm-4.46-1.08c-1.71,0-2.22.9-2.22,2.37,0,1.64.46,2.57,2.72,2.57.4,0,.77,0,1.25-.06l.51-.06V21.35H30.19V23.2A8,8,0,0,0,29.27,23.15Zm.3,4.12c-1-.05-1.13-.56-1.13-1.74a2.79,2.79,0,0,1,.16-1.17.78.78,0,0,1,.67-.41A2.48,2.48,0,0,1,30,24l.19,0v3.24A2.65,2.65,0,0,1,29.57,27.27Zm-5.32.16a2.79,2.79,0,0,0,.49-1.88,2.1,2.1,0,0,0-2.14-2.39h-.28c-1.66,0-2.46.7-2.46,2.38s.56,2.55,2.46,2.55A2.37,2.37,0,0,0,24.25,27.43Zm-1.93-.15c-.9,0-1.09-.37-1.09-1.75a2.21,2.21,0,0,1,.24-1.27,1,1,0,0,1,.85-.3c.6,0,1,.32,1,1.37v.22C23.37,26.84,23.21,27.28,22.32,27.28ZM8,24a.53.53,0,0,1,.6.54v.36A11.74,11.74,0,0,0,7.42,25c-1.27.15-1.75.72-1.75,1.53s.68,1.46,1.78,1.57a9.41,9.41,0,0,0,1.92,0L10,28v-3.2a1.49,1.49,0,0,0-.47-1.16A2.2,2.2,0,0,0,8,23.16a9.65,9.65,0,0,0-1.92.27l.14.8A9.93,9.93,0,0,1,8,24Zm-.38,3.25a.68.68,0,0,1-.61-.75A.71.71,0,0,1,7.24,26a.84.84,0,0,1,.53-.23l.42,0h.46v1.56A3.28,3.28,0,0,1,7.66,27.23Z"/><path class="cls-1" d="M10.7,28H12V24.09A4.44,4.44,0,0,1,13,24c.62,0,.9.3,1,1.16V28h1.35V25.52a2.55,2.55,0,0,0-.51-1.76A2.33,2.33,0,0,0,13,23.15a5.77,5.77,0,0,0-2,.37l-.29.11Z"/><path class="cls-2" d="M49.58,27.13a9,9,0,0,1-1.28.16c-.46,0-.73-.06-.88-.31a2.79,2.79,0,0,1-.2-1.35c0-1.34.17-1.72,1.08-1.68.27,0,.85.13,1.28.18l.13-.78a9.79,9.79,0,0,0-1.37-.19c-2-.09-2.51.76-2.51,2.47s.5,2.54,2.52,2.46a9.76,9.76,0,0,0,1.39-.17Zm4.13,0a9,9,0,0,1-1.28.16c-.46,0-.73-.06-.88-.31a2.79,2.79,0,0,1-.2-1.35c0-1.34.17-1.72,1.08-1.68.27,0,.85.13,1.28.18l.13-.78a10.07,10.07,0,0,0-1.36-.19c-2-.09-2.52.76-2.52,2.47s.49,2.54,2.52,2.46a9.76,9.76,0,0,0,1.39-.17Z"/><path class="cls-2" d="M72.6,22.14v1.13h-.82v.8h.82v2.36c0,1.12.2,1.66,1.38,1.66a5.67,5.67,0,0,0,.87-.06l.33-.06L75,27.18a3.82,3.82,0,0,1-.78,0c-.17,0-.24-.15-.26-.44V24.07h1v-.8H74V22.14ZM66.88,28H68.2V24.09a4.26,4.26,0,0,1,1-.14c.62,0,.9.3,1,1.16V28H71.5V25.52A2.5,2.5,0,0,0,71,23.76a2.3,2.3,0,0,0-1.8-.61,5.77,5.77,0,0,0-2,.37l-.29.11ZM58.7,23.15c-1.71,0-2.22.9-2.22,2.37,0,1.64.46,2.57,2.72,2.57.27,0,.52,0,.8,0L61,28V21.35H59.62V23.2A8,8,0,0,0,58.7,23.15Zm.54,4.13H59c-1-.05-1.13-.56-1.13-1.74A2.79,2.79,0,0,1,58,24.36.8.8,0,0,1,58.7,24a2.48,2.48,0,0,1,.73,0l.19,0v3.24Zm-4.75-4.76h1.33v-1H54.49Zm0,5.48h1.33V23.24H54.49ZM42.18,21.27C40,21.27,39,22.2,39,24.54a4.14,4.14,0,0,0,.65,2.7,3.07,3.07,0,0,0,2.52.84c2.35,0,3-1.06,3.11-3.09v-.42C45.3,22.25,44.17,21.27,42.18,21.27Zm0,5.87c-1.49,0-1.79-.62-1.79-2.6s.5-2.34,1.79-2.34a1.55,1.55,0,0,1,1.28.52,2.9,2.9,0,0,1,.47,1.85c0,1.72-.23,2.48-1.48,2.56Z"/><path class="cls-2" d="M58.32,12.55l8.15,8.15,8.16-8.15-1.9-1.9L66.47,16.9l-4.36-4.35,4.36-4.36L68.33,10l1.9-1.89L66.47,4.4ZM77.77,27.29c-.68,0-.91-.31-1-1l0-.31H80v-.55a2.06,2.06,0,0,0-2.36-2.31c-1.43,0-2.27.66-2.27,2.47a2.77,2.77,0,0,0,.45,1.77,2.3,2.3,0,0,0,1.94.7A9,9,0,0,0,79.28,28l.54-.1-.15-.8A12.62,12.62,0,0,1,77.77,27.29ZM77,24.23a.77.77,0,0,1,.68-.27c.57,0,.84.22.93.92l0,.32H76.77A1.79,1.79,0,0,1,77,24.23ZM64,27.28c-.68,0-.91-.3-1-1L63,26h3.23v-.55a2.05,2.05,0,0,0-2.36-2.3c-1.43,0-2.27.65-2.27,2.47a2.8,2.8,0,0,0,.45,1.77,2.32,2.32,0,0,0,1.95.7A10,10,0,0,0,65.53,28l.54-.11-.15-.8A11.46,11.46,0,0,1,64,27.28Zm-.76-3.06a.79.79,0,0,1,.67-.27c.57,0,.85.22.93.92l0,.33H63A1.76,1.76,0,0,1,63.27,24.22Z"/><polygon class="cls-2" points="74.63 8.15 66.47 0 58.31 8.15 60.21 10.05 66.47 3.79 70.83 8.15 66.47 12.51 64.61 10.65 62.71 12.55 66.47 16.3 74.63 8.15"/></g></g></svg>