<svg id="Layer_1" data-name="Layer 1" xmlns="http://www.w3.org/2000/svg" viewBox="0 0 80 47.5"><defs><style>.cls-1{fill:#01703a;}.cls-2{fill:#7bbf44;}.cls-3{fill:#7bc043;}</style></defs><title>banco-promerica</title><path class="cls-1" d="M17.6,60.1a4.31,4.31,0,0,1,1.7.3,2.44,2.44,0,0,1,1.1.9,3,3,0,0,1,.5,1.3,4.33,4.33,0,0,1-.1,1.6,4.55,4.55,0,0,1-1.7,3.1,5.4,5.4,0,0,1-3.5,1H14.4l-.9,5.1H10l2.4-13.5h5.2Zm-2.1,5.8a1.5,1.5,0,0,0,1.1-.4,2.28,2.28,0,0,0,.6-1.2c.2-1.1-.2-1.6-1.1-1.6h-.7L14.8,66h.7Z" transform="translate(-10 -26.3)"/><path class="cls-1" d="M25.1,63.3,24.8,65h0A3.33,3.33,0,0,1,26,63.6a3,3,0,0,1,1.5-.5H28l-.6,3.2a.6.6,0,0,1-.4-.1h-.4a2.41,2.41,0,0,0-1.5.4,2.37,2.37,0,0,0-.8,1.4l-1,5.6H20l1.8-10.2h3.3Z" transform="translate(-10 -26.3)"/><path class="cls-1" d="M35.6,70.4a5.56,5.56,0,0,1-.9,1.7,4.43,4.43,0,0,1-1.5,1.2,5.46,5.46,0,0,1-2.4.4,4.74,4.74,0,0,1-2.3-.4,2.35,2.35,0,0,1-1.1-1.1,4.67,4.67,0,0,1-.3-1.7,18.32,18.32,0,0,1,.2-2.1,14.62,14.62,0,0,1,.5-2,5.56,5.56,0,0,1,.9-1.7,4.43,4.43,0,0,1,1.5-1.2,5.36,5.36,0,0,1,2.4-.5,4.74,4.74,0,0,1,2.3.4A2.54,2.54,0,0,1,36,64.6a4.67,4.67,0,0,1,.3,1.7,18.32,18.32,0,0,1-.2,2.1C35.9,69.1,35.8,69.8,35.6,70.4ZM30.5,70a3.33,3.33,0,0,0,0,1,.76.76,0,0,0,.2.5.6.6,0,0,0,.4.1.75.75,0,0,0,.5-.1A2.18,2.18,0,0,0,32,71a6.21,6.21,0,0,0,.3-1,15.69,15.69,0,0,0,.3-1.6,11.55,11.55,0,0,0,.2-1.6,3.33,3.33,0,0,0,0-1,.76.76,0,0,0-.2-.5.6.6,0,0,0-.4-.1.75.75,0,0,0-.5.1,2.18,2.18,0,0,0-.4.5,6.21,6.21,0,0,0-.3,1,15.69,15.69,0,0,0-.3,1.6C30.6,69.1,30.6,69.6,30.5,70Z" transform="translate(-10 -26.3)"/><path class="cls-1" d="M42.3,65.9a.6.6,0,0,0-.6-.3.91.91,0,0,0-.7.3,1.88,1.88,0,0,0-.4.9l-1.2,6.7H36l1.8-10.2h3.3L41,64.6h0a3,3,0,0,1,2.7-1.5,2.08,2.08,0,0,1,1.5.4,3.46,3.46,0,0,1,.7,1.2,2.93,2.93,0,0,1,1.3-1.2,4,4,0,0,1,1.5-.3,3.08,3.08,0,0,1,1,.1,1.41,1.41,0,0,1,1.2,1.2,3.27,3.27,0,0,1,0,1.4l-1.4,7.7H46.1l1.2-6.7a1.35,1.35,0,0,0,0-.9.6.6,0,0,0-.6-.3.91.91,0,0,0-.7.3,1.88,1.88,0,0,0-.4.9l-1.2,6.7H41l1.2-6.7A1.23,1.23,0,0,0,42.3,65.9Z" transform="translate(-10 -26.3)"/><path class="cls-1" d="M54.6,70.4c-.1.6-.1.9.1,1.1a.86.86,0,0,0,.6.3.91.91,0,0,0,.8-.4,2.73,2.73,0,0,0,.5-1.4h3.1a4.05,4.05,0,0,1-1.5,2.8,4.89,4.89,0,0,1-3.2,1,5.62,5.62,0,0,1-2-.3,2.73,2.73,0,0,1-1.2-.9,2.86,2.86,0,0,1-.4-1.7,11.88,11.88,0,0,1,.2-2.5,12.64,12.64,0,0,1,.7-2.5,5,5,0,0,1,1.1-1.7,3.77,3.77,0,0,1,1.5-.9,6.45,6.45,0,0,1,2-.3,7.18,7.18,0,0,1,1.7.2,1.88,1.88,0,0,1,1.1.8,3.33,3.33,0,0,1,.5,1.5,6.49,6.49,0,0,1-.2,2.3l-.2,1h-5Zm2.5-4.9c-.1-.3-.3-.4-.7-.4a.81.81,0,0,0-.8.4,2.78,2.78,0,0,0-.4,1.2l-.1.5H57l.1-.5A2.4,2.4,0,0,0,57.1,65.5Z" transform="translate(-10 -26.3)"/><path class="cls-1" d="M65,63.3,64.7,65h0a3.33,3.33,0,0,1,1.2-1.4,3,3,0,0,1,1.5-.5h.5l-.6,3.2a.6.6,0,0,1-.4-.1h-.4a2.41,2.41,0,0,0-1.5.4,2.37,2.37,0,0,0-.8,1.4l-1,5.6H59.8l1.8-10.2H65Z" transform="translate(-10 -26.3)"/><path class="cls-1" d="M71.9,63.3,70.1,73.5H66.7l1.8-10.2Zm.6-3.2L72,62.6H68.6l.4-2.5Z" transform="translate(-10 -26.3)"/><path class="cls-1" d="M77.8,66.3c0-.3,0-.5-.1-.6-.1-.3-.3-.4-.7-.4a.75.75,0,0,0-.5.1,2.18,2.18,0,0,0-.4.5,6.21,6.21,0,0,0-.3,1,15.69,15.69,0,0,0-.3,1.6,10,10,0,0,0-.2,1.6v1a.76.76,0,0,0,.2.5.75.75,0,0,0,.5.1.91.91,0,0,0,.8-.4,2.69,2.69,0,0,0,.5-1.3l.1-.7h3.1a6.46,6.46,0,0,1-.6,2.1,3.73,3.73,0,0,1-4.2,2.4,9.91,9.91,0,0,1-1.8-.2,3.29,3.29,0,0,1-1.3-.7,3.35,3.35,0,0,1-.6-1.6,13,13,0,0,1,.1-2.7,9,9,0,0,1,.9-2.9A5.86,5.86,0,0,1,74.3,64a4.81,4.81,0,0,1,1.6-.8,11,11,0,0,1,1.8-.2,4.18,4.18,0,0,1,1.8.3,1.79,1.79,0,0,1,1,.9,2.84,2.84,0,0,1,.4,1.3,10.28,10.28,0,0,1-.1,1.7H77.7C77.7,66.9,77.8,66.6,77.8,66.3Z" transform="translate(-10 -26.3)"/><path class="cls-1" d="M85.5,73v-.6h0a2.13,2.13,0,0,1-1.1,1,3.34,3.34,0,0,1-1.5.3,5.07,5.07,0,0,1-1.3-.2,1.56,1.56,0,0,1-.8-.6,1.61,1.61,0,0,1-.3-.9,4.87,4.87,0,0,1,.1-1.2,3.37,3.37,0,0,1,.4-1.2,3.49,3.49,0,0,1,.6-.9,3.59,3.59,0,0,1,1-.7c.4-.2.9-.3,1.4-.5l1.4-.3c.4-.1.7-.2.8-.4a1.61,1.61,0,0,0,.4-.7c.1-.6-.1-.9-.7-.9a1.14,1.14,0,0,0-.8.3,1.93,1.93,0,0,0-.4,1.1H81.8a4.84,4.84,0,0,1,.7-1.8,2.94,2.94,0,0,1,1.2-1,5.78,5.78,0,0,1,1.4-.5,6.15,6.15,0,0,1,1.3-.1,8.08,8.08,0,0,1,1.6.1,3.34,3.34,0,0,1,1.2.5,2.55,2.55,0,0,1,.7,1,4.27,4.27,0,0,1,0,1.6l-.9,5c-.1.5-.1.9-.2,1.3a2.22,2.22,0,0,0,.1.9H85.6A1.27,1.27,0,0,1,85.5,73Zm0-1.9a3.2,3.2,0,0,0,.5-1.3l.2-1.2h0a2.19,2.19,0,0,1-.5.3,1.85,1.85,0,0,0-.7.2,1,1,0,0,0-.6.5,6.89,6.89,0,0,0-.3.8,1.06,1.06,0,0,0,.1.8.6.6,0,0,0,.6.3A.87.87,0,0,0,85.5,71.1Z" transform="translate(-10 -26.3)"/><path class="cls-2" d="M18.6,47.1a4.87,4.87,0,0,1,1.2.1,3.55,3.55,0,0,1,.9.4,2.18,2.18,0,0,1,.5.8,2.4,2.4,0,0,1,0,1.2,3,3,0,0,1-.6,1.4,2.22,2.22,0,0,1-1.3.8h0a1.47,1.47,0,0,1,1.2.7,2.31,2.31,0,0,1,.2,1.7,5.64,5.64,0,0,1-.4,1.2,3.59,3.59,0,0,1-.7,1,4.13,4.13,0,0,1-1.1.7,3.9,3.9,0,0,1-1.6.2H13.4L15.2,47h3.4Zm-2.2,8.7a2.77,2.77,0,0,0,1.3-.3,1.76,1.76,0,0,0,.7-1.2.85.85,0,0,0,0-.7.76.76,0,0,0-.2-.5,2.19,2.19,0,0,0-.5-.3c-.2,0-.4-.1-.6-.1h-.9l-.5,3.1Zm.6-4.5a2.27,2.27,0,0,0,1.3-.3,1.7,1.7,0,0,0,.6-1,1,1,0,0,0-.2-1,1.61,1.61,0,0,0-1.1-.3h-.7l-.5,2.7H17Z" transform="translate(-10 -26.3)"/><path class="cls-2" d="M22.2,51.8a2.82,2.82,0,0,1,.4-1.1,2.34,2.34,0,0,1,.7-.7,3.55,3.55,0,0,1,.9-.4,3.75,3.75,0,0,1,1.1-.1,4.64,4.64,0,0,1,1.4.2,2.18,2.18,0,0,1,.8.5,1.14,1.14,0,0,1,.3.8,3.75,3.75,0,0,1-.1,1L27,55.8a2.81,2.81,0,0,0-.1.8,1.27,1.27,0,0,0,.1.6H25.1c0-.1-.1-.3-.1-.4v-.4h0a2.17,2.17,0,0,1-.9.8,3.73,3.73,0,0,1-1.2.2,1.88,1.88,0,0,1-.8-.2,1.21,1.21,0,0,1-.5-.5,1.45,1.45,0,0,1-.2-.7v-.8a4.65,4.65,0,0,1,.3-.9,1.79,1.79,0,0,1,.5-.7,4.23,4.23,0,0,1,.7-.5l.9-.3,1.2-.3a4.88,4.88,0,0,0,.7-.3,1.63,1.63,0,0,0,.3-.6.82.82,0,0,0-.1-.7c-.1-.2-.3-.3-.7-.3a.78.78,0,0,0-.7.3,1.61,1.61,0,0,0-.4.7v.2H22.2Zm2.9,1.9a.76.76,0,0,1-.4.1,1.88,1.88,0,0,0-.9.4,2,2,0,0,0-.4.8,2.13,2.13,0,0,0,0,.8.55.55,0,0,0,.5.3.6.6,0,0,0,.4-.1.52.52,0,0,0,.4-.2c.1-.1.3-.2.4-.4s.2-.3.2-.5l.3-1.5A.91.91,0,0,1,25.1,53.7Z" transform="translate(-10 -26.3)"/><path class="cls-2" d="M31.4,49.6l-.2.9h0a1.89,1.89,0,0,1,1-.8,2.66,2.66,0,0,1,1.2-.3,2,2,0,0,1,1.4.5,1.81,1.81,0,0,1,.2,1.7l-1,5.7H32L33,52c.1-.4.1-.7-.1-.8s-.3-.2-.6-.2c-.7,0-1.1.4-1.3,1.3l-.9,5.1h-2l1.4-7.7h1.9Z" transform="translate(-10 -26.3)"/><path class="cls-2" d="M40,51.8v-.5a.76.76,0,0,0-.2-.4c-.1-.1-.2-.1-.4-.1a1.42,1.42,0,0,0-.6.2,1,1,0,0,0-.4.5,6.89,6.89,0,0,0-.3.8,3.73,3.73,0,0,0-.2,1.2c-.1.5-.1.9-.2,1.2v.8a.68.68,0,0,0,.7.7.91.91,0,0,0,.8-.4,3.17,3.17,0,0,0,.5-1.4h1.9a3.84,3.84,0,0,1-1.1,2.3,3.46,3.46,0,0,1-2.4.8,5.07,5.07,0,0,1-1.3-.2,1.56,1.56,0,0,1-.8-.6,2.27,2.27,0,0,1-.3-1.3,6.82,6.82,0,0,1,.2-1.9,5.25,5.25,0,0,1,.6-2,3.81,3.81,0,0,1,.9-1.3,4.13,4.13,0,0,1,1.1-.7,5.07,5.07,0,0,1,1.3-.2,2.14,2.14,0,0,1,1.9.8,2.63,2.63,0,0,1,.3,2.2H40Z" transform="translate(-10 -26.3)"/><path class="cls-2" d="M42.9,51.7a5.39,5.39,0,0,1,.7-1.3,4.44,4.44,0,0,1,1.1-.8,3.34,3.34,0,0,1,1.5-.3,4.64,4.64,0,0,1,1.4.2,1.56,1.56,0,0,1,.8.8,2.5,2.5,0,0,1,.3,1.3,14.05,14.05,0,0,1-.2,1.8,9.46,9.46,0,0,1-.5,1.8,5.39,5.39,0,0,1-.7,1.3,4.44,4.44,0,0,1-1.1.8,3.42,3.42,0,0,1-1.5.2,4.64,4.64,0,0,1-1.4-.2,1.85,1.85,0,0,1-.8-.7,2.5,2.5,0,0,1-.3-1.3,14.05,14.05,0,0,1,.2-1.8C42.6,52.8,42.7,52.2,42.9,51.7Zm1.4,2.9v.9a1.42,1.42,0,0,0,.2.6.76.76,0,0,0,.5.2,1,1,0,0,0,.9-.6,9.3,9.3,0,0,0,.6-2.1,5.23,5.23,0,0,0,.1-2.1.66.66,0,0,0-.7-.6,1.42,1.42,0,0,0-.6.2.92.92,0,0,0-.4.6,4.65,4.65,0,0,0-.3.9,3.59,3.59,0,0,0-.2,1.1C44.4,53.9,44.3,54.2,44.3,54.6Z" transform="translate(-10 -26.3)"/><path class="cls-1" d="M56.9,58.1S61.6,45.4,62,43.7L54.9,39s8.2-2.9,12-3.8l6.5-8.9,2.7,6.9C76.2,33.2,58.7,55,56.9,58.1Z" transform="translate(-10 -26.3)"/><polygon class="cls-1" points="59.6 22.5 69.1 15.8 73.1 30.9 59.6 22.5"/><path class="cls-3" d="M90,33.7S65.3,48.3,61.1,53.9c0,0,12.6-16,16.6-20Z" transform="translate(-10 -26.3)"/></svg>