<svg xmlns="http://www.w3.org/2000/svg" viewBox="0 0 80 30.95"><defs><style>.cls-1{fill:#0b7341;}.cls-2{fill:#6bb445;}.cls-3{fill:#69b547;}</style></defs><title>Banco-Provincia</title><g id="Layer_2" data-name="Layer 2"><g id="Banco-Provincia"><path class="cls-1" d="M34.42,20a13.37,13.37,0,0,1-2.14-.16c-.47-.09-.64-.26-.64-.84V11.2c0-.58.16-.77.62-.84a15.34,15.34,0,0,1,2.09-.14c2.21,0,3.7.64,3.7,2.69v.24a2.08,2.08,0,0,1-1,1.89,2.1,2.1,0,0,1,1,1.91v.2C38.1,19.42,36.44,20,34.42,20Zm1.7-7c0-.7-.41-1-1.62-1-.19,0-.72,0-.89,0v2.23h1.31c.93,0,1.2-.47,1.2-1Zm0,3.9c0-.62-.3-1.15-1.24-1.15H33.61v2.42h1c1.21,0,1.59-.41,1.59-1.13Z"/><path class="cls-1" d="M44.28,19.92H43a.24.24,0,0,1-.23-.26v-.2a2.45,2.45,0,0,1-1.63.58c-1,0-2-.54-2-2.22V17.7c0-1.51.88-2.18,2.88-2.18h.63v-.46c0-.74-.33-.89-.88-.89-.75,0-1.58.05-1.94.09h-.06c-.11,0-.21-.07-.21-.24V13a.29.29,0,0,1,.22-.29,9.07,9.07,0,0,1,2-.27c1.68,0,2.73.75,2.73,2.64v4.6A.24.24,0,0,1,44.28,19.92Zm-1.62-3.16H42c-.82,0-1,.31-1,.94v.12c0,.54.24.64.74.64a2.1,2.1,0,0,0,1-.28Z"/><path class="cls-1" d="M51.13,19.92H49.72a.26.26,0,0,1-.24-.27v-4.3c0-.9-.15-1.2-.86-1.2a2.3,2.3,0,0,0-1.1.42v5.08a.26.26,0,0,1-.23.27H45.87a.27.27,0,0,1-.25-.27V12.78a.25.25,0,0,1,.24-.25h1.31a.24.24,0,0,1,.23.25v.31a2.8,2.8,0,0,1,1.91-.67c1.7,0,2.07,1.31,2.07,2.93v4.3A.27.27,0,0,1,51.13,19.92Z"/><path class="cls-1" d="M57,19.84a5.75,5.75,0,0,1-1.55.2c-1.65,0-2.73-1.16-2.73-3.27V15.69c0-2.11,1.08-3.27,2.73-3.27a5.75,5.75,0,0,1,1.55.2c.18.05.25.1.25.29v1.15a.22.22,0,0,1-.22.22h0a10.33,10.33,0,0,0-1.42-.09c-.53,0-1,.35-1,1.5v1.08c0,1.15.43,1.5,1,1.5A10.33,10.33,0,0,0,57,18.18h0a.22.22,0,0,1,.22.22v1.15C57.2,19.74,57.13,19.79,57,19.84Z"/><path class="cls-1" d="M61,20c-1.9,0-2.94-1.31-2.94-3.36v-.9c0-2,1-3.36,2.94-3.36s2.92,1.31,2.92,3.36v.9C63.91,18.73,62.88,20,61,20Zm1-4.26c0-1-.36-1.58-1-1.58s-1.06.53-1.06,1.58v.9c0,1.05.38,1.59,1.06,1.59s1-.54,1-1.59Z"/><path class="cls-1" d="M34.57,27.63c-.27,0-.63,0-.91,0v3a.24.24,0,0,1-.23.24H32a.22.22,0,0,1-.23-.23V22.31c0-.42.16-.53.51-.59a14.92,14.92,0,0,1,2.29-.16c1.7,0,3.38.65,3.38,3v.11C37.93,27,36.25,27.63,34.57,27.63ZM36,24.53c0-.87-.49-1.22-1.44-1.22l-.91,0v2.52l.91,0c1,0,1.44-.41,1.44-1.25Z"/><path class="cls-1" d="M42.35,25.32h-.09a2.91,2.91,0,0,0-1.46.43v4.83a.24.24,0,0,1-.22.25H39.21a.25.25,0,0,1-.23-.25V24a.23.23,0,0,1,.22-.24h1.34a.23.23,0,0,1,.23.24v.25a2.3,2.3,0,0,1,1.52-.59.24.24,0,0,1,.23.25v1.17C42.52,25.2,42.45,25.32,42.35,25.32Z"/><path class="cls-1" d="M45.88,31c-1.83,0-2.83-1.25-2.83-3.21v-.86c0-2,1-3.21,2.83-3.21s2.81,1.25,2.81,3.21v.86C48.69,29.7,47.7,31,45.88,31Zm1-4.07c0-1-.35-1.51-1-1.51s-1,.51-1,1.51v.86c0,1,.36,1.52,1,1.52s1-.52,1-1.52Z"/><path class="cls-1" d="M55.31,24.05l-1.42,5.6a1.67,1.67,0,0,1-3.26,0l-1.4-5.6a.1.1,0,0,1,0-.07.19.19,0,0,1,.18-.21h1.49c.11,0,.21.11.24.26l1,4.83c0,.19.09.26.17.26s.14-.07.18-.26l1-4.83c0-.15.12-.26.23-.26h1.49a.2.2,0,0,1,.19.21A.17.17,0,0,1,55.31,24.05Z"/><path class="cls-1" d="M57.93,23H56.46a.24.24,0,0,1-.22-.25V21.57a.23.23,0,0,1,.22-.24h1.47a.23.23,0,0,1,.22.24v1.15A.24.24,0,0,1,57.93,23Zm0,7.86H56.51a.23.23,0,0,1-.23-.24V24a.23.23,0,0,1,.23-.24h1.37a.23.23,0,0,1,.23.24v6.58A.23.23,0,0,1,57.88,30.83Z"/><path class="cls-1" d="M64.81,30.83H63.45a.24.24,0,0,1-.22-.25V26.47c0-.87-.15-1.15-.84-1.15a2.22,2.22,0,0,0-1.06.4v4.86a.24.24,0,0,1-.22.25H59.74a.25.25,0,0,1-.23-.25V24a.23.23,0,0,1,.22-.24H61a.23.23,0,0,1,.23.24v.3a2.68,2.68,0,0,1,1.84-.64c1.63,0,2,1.25,2,2.8v4.11A.25.25,0,0,1,64.81,30.83Z"/><path class="cls-1" d="M70.36,30.76a5.46,5.46,0,0,1-1.5.19c-1.59,0-2.62-1.11-2.62-3.12v-1c0-2,1-3.12,2.62-3.12a6,6,0,0,1,1.5.18c.17,0,.24.1.24.29v1.1a.21.21,0,0,1-.22.21h0A9.65,9.65,0,0,0,69,25.36c-.51,0-.93.33-.93,1.43v1c0,1.09.42,1.43.93,1.43a9.65,9.65,0,0,0,1.37-.09h0a.21.21,0,0,1,.22.21v1.1C70.6,30.66,70.53,30.71,70.36,30.76Z"/><path class="cls-1" d="M73.44,23H72a.24.24,0,0,1-.22-.25V21.57a.23.23,0,0,1,.22-.24h1.47a.24.24,0,0,1,.23.24v1.15A.25.25,0,0,1,73.44,23Zm0,7.86H72a.23.23,0,0,1-.23-.24V24a.23.23,0,0,1,.23-.24h1.37a.23.23,0,0,1,.23.24v6.58A.23.23,0,0,1,73.39,30.83Z"/><path class="cls-1" d="M79.77,30.83H78.51a.23.23,0,0,1-.22-.24v-.2a2.33,2.33,0,0,1-1.57.56c-1,0-1.93-.52-1.93-2.13v-.11c0-1.44.85-2.08,2.78-2.08h.61v-.44c0-.71-.32-.86-.85-.86-.72,0-1.52.05-1.87.09H75.4c-.11,0-.2-.06-.2-.22v-1a.27.27,0,0,1,.21-.27,8.44,8.44,0,0,1,2-.26c1.63,0,2.64.71,2.64,2.52v4.4A.23.23,0,0,1,79.77,30.83Zm-1.56-3h-.64c-.79,0-1,.3-1,.9v.11c0,.52.24.62.71.62a1.94,1.94,0,0,0,.93-.27Z"/><path class="cls-2" d="M14.58,0H1.66A1.45,1.45,0,0,0,0,1.6V20S.07,30.38,10.09,31H24.25a2,2,0,0,0,2.07-2.06V12s-2.48,6.22-8.63,6.22l-3.09,0,0,6.08h-1.7s-5.3-.32-5.3-4.51l0-16.44h3.82A17.16,17.16,0,0,0,14.58,0Z"/><path class="cls-3" d="M14.65,6.11v6.31h3.11s2.17-.05,2.17-2.9a3.44,3.44,0,0,0-2.64-3.41Z"/></g></g></svg>