<svg id="Layer_1" data-name="Layer 1" xmlns="http://www.w3.org/2000/svg" viewBox="0 0 80 26.4"><defs><style>.cls-1{fill:#00583c;}</style></defs><title>banco-lafise-bancentro</title><path class="cls-1" d="M29.3,60.3a1.42,1.42,0,0,1,.4.2,2.27,2.27,0,0,1,.4.1l-.1.1h-.8l-.3-.1.1-.2.1-.2H11V36.9H10V61.1H35.8v-.9H29.2Z" transform="translate(-10 -36.7)"/><path class="cls-1" d="M29.1,58.3c0,.1,0,.4-.1.4s.1.3.1.3v.2h6.7v-.9H29.1" transform="translate(-10 -36.7)"/><path class="cls-1" d="M12.2,41.6s.1-.2.2-.2l.2-.2a.1.1,0,0,0,.1-.1h-.3l-.1-.1h-.2a.1.1,0,0,1,.1-.1c.1-.1,0-.1-.1-.1s-.2.1-.1,0h0v1h.1c0-.1.1-.1.1-.2" transform="translate(-10 -36.7)"/><path class="cls-1" d="M12.2,40h.3s0-.1.2,0v-.1s.1-.2.2-.2l-.1-.1-.2.1h-.2l-.1-.1v-.1l.1-.1v-.1l.1-.1h.1l.1-.1c0-.1.1,0,.1,0l.1.1v.1H13v-.4h0v-.2h-.1v-.1l.1-.1V37.2H12v3.3h0a1.19,1.19,0,0,1,.2-.5" transform="translate(-10 -36.7)"/><path class="cls-1" d="M13,59.2H27.8a.35.35,0,0,0-.1-.2s.1-.2,0-.3,0-.3,0-.3H13v-17h-.1c-.1,0-.2.1-.3.1s-.2.2-.3.3-.1.1-.2.1H12V59.3h1Z" transform="translate(-10 -36.7)"/><path class="cls-1" d="M15,57.3H27.5a.35.35,0,0,0-.1-.2.6.6,0,0,1,.1-.4v-.3H15V41.1h0l-.4-.2c-.1,0-.2-.1-.3-.1h-.2V57.4H15Z" transform="translate(-10 -36.7)"/><path class="cls-1" d="M14.1,37.7c-.1,0,.1-.1.1-.1a.1.1,0,0,1,.1.1.35.35,0,0,1,.2-.1l.1.1h.1a.1.1,0,0,1,.1.1V38l.1.1H15V37H14v.9c0-.1.2-.2.1-.2" transform="translate(-10 -36.7)"/><path class="cls-1" d="M35.7,56.4H30c.1.1.2.1.2.2a.37.37,0,0,1-.1.3,1.06,1.06,0,0,1-.5.2c-.1,0-.1.1-.1.2h6.3v-.9Z" transform="translate(-10 -36.7)"/><path class="cls-1" d="M16.2,38.5h.1v.1h.1v-.4h0c.1,0,.1.1.2,0h.2V36.7h-1v1.5l.1.1.3.2" transform="translate(-10 -36.7)"/><path class="cls-1" d="M35.8,54.5h-4c-.1,0-.1.1-.2.1s-.1.2-.1.3v.5h4.2v-.9Z" transform="translate(-10 -36.7)"/><path class="cls-1" d="M16.8,38.7h.1v-.1l-.1.1h0" transform="translate(-10 -36.7)"/><path class="cls-1" d="M17,55.4H27.3v-.9H17V45.9a.1.1,0,0,0-.1-.1l-.1-.1-.2-.1-.2-.2v-.2a.35.35,0,0,1-.1-.2l-.1-.2v-.6a4.33,4.33,0,0,1,.1-.5.31.31,0,0,0,.1-.2l.1-.1s0-.2-.1-.2-.2-.3-.3-.3-.1-.3-.2-.4V55.4Z" transform="translate(-10 -36.7)"/><path class="cls-1" d="M18,47l.4.6v.2l-.4-.3v6.1h9.3c0-.2-.3-.2-.4-.3s-.4-.1-.5-.2-.4-.3-.4-.4H19V47.6l-.2-.1-.1-.1v-.2a.35.35,0,0,0-.2-.1l-.2-.2a.35.35,0,0,0-.2-.1.1.1,0,0,0-.1-.1h0V47Z" transform="translate(-10 -36.7)"/><path class="cls-1" d="M18.2,38.7h0c0,.1.1.1.2.1h.3l.1.1h0s.1,0,0,.1h-.1l-.1.1h-.1v.1h.3V36.9h-1v1.7h0c.3,0,.4,0,.4.1" transform="translate(-10 -36.7)"/><path class="cls-1" d="M35.8,52.7H33.3a1.76,1.76,0,0,1-.1.6c0,.1-.1.2-.1.3h2.7Z" transform="translate(-10 -36.7)"/><path class="cls-1" d="M35.7,51.7v-.9H31.9l.4.1.5.1a2.27,2.27,0,0,0,.4.1c.1,0,.2.2.3.3a.6.6,0,0,0,.4.1c.1,0,.2.2.2.2v.1h1.6Z" transform="translate(-10 -36.7)"/><path class="cls-1" d="M21,51.7h4.2l-.2-.2c-.1-.1-.1-.2-.2-.3s0-.3,0-.3v-.2H21V48.4h-.1l-.4-.1a1.42,1.42,0,0,0-.2-.4c-.1,0-.1-.1-.2-.1v3.8H21Z" transform="translate(-10 -36.7)"/><path class="cls-1" d="M20.8,41.6H21V40.4h0c-.1.1-.2.1-.2.2h0l-.1.1c0,.1-.1.1-.1.2v.3h.2v.1l.1.1v.1h0c-.1-.1-.1,0-.1.1h0" transform="translate(-10 -36.7)"/><path class="cls-1" d="M20.1,39.2h0a.37.37,0,0,1,.3.1h.2a.1.1,0,0,0,.1-.1l.1-.1h0a.1.1,0,0,1-.1.1h0a.1.1,0,0,1,.1.1l-.1.1h0a.1.1,0,0,0,.1-.1l.1-.1h0V36.8h-1l.2,2.4h0" transform="translate(-10 -36.7)"/><path class="cls-1" d="M20.3,47.5l.1.2.3-.2a1.44,1.44,0,0,1,.2-.3c0-.1.1-.1.2-.1V45.9H21a.1.1,0,0,0-.1.1l-.1.1h-.5l-.2.1v1.3c.1.1.1.1.2.1-.1-.1,0-.1,0-.1" transform="translate(-10 -36.7)"/><path class="cls-1" d="M28.4,49.1h.3l.3.2.3.2h.5l.4.1a1.42,1.42,0,0,1,.4.2h5.2v-.9H28.4c.2.1,0,.2,0,.2" transform="translate(-10 -36.7)"/><path class="cls-1" d="M23,49.8h2c0-.2-.5-.3-.5-.3s-.2,0-.2-.1l-.3-.2a4.33,4.33,0,0,0-.5.1l-.1.1h-.3a.35.35,0,0,1-.2-.1h-.3l-.1-.1H22V49h0v.9h1Z" transform="translate(-10 -36.7)"/><path class="cls-1" d="M26.7,49a.1.1,0,0,0,.1-.1h-.3a.35.35,0,0,0,.2.1" transform="translate(-10 -36.7)"/><path class="cls-1" d="M24.3,49h.1l.2.1h.1a4.71,4.71,0,0,0,.5-.2h-1Z" transform="translate(-10 -36.7)"/><path class="cls-1" d="M22.3,48h.2c.1,0,0,.1,0,.1v.7a.1.1,0,0,1,.1.1c0,.1.1.1.2.1a.35.35,0,0,1,.2.1h.3a.35.35,0,0,0,.2-.1H23V44.2h0l-.1.1a.1.1,0,0,1-.1.1.1.1,0,0,0-.1.1h-.1s-.1.1,0,.1v.3l-.1.2-.1.1-.2.2a.35.35,0,0,1-.2.1v2.6h.1Z" transform="translate(-10 -36.7)"/><path class="cls-1" d="M22,42.6h.2a.1.1,0,0,0,.1-.1c.1,0,.2-.1.1-.2a.1.1,0,0,1-.1-.1v-.1l-.1-.1v-.1l.1-.1h.1l.1-.1h.1a.1.1,0,0,1,.1-.1c0-.1.1-.1.1-.2a.1.1,0,0,0-.1-.1h0v-.1h-.1l.1-.1V41h0v-.2h0s-.1-.1,0-.1l.1-.1v-.1H23V36.9H22v2.4h0l.1-.1v-.1a.1.1,0,0,1,.1-.1h.1v-.1h0s0-.1.1,0h.2a.22.22,0,0,1-.1.3.1.1,0,0,0-.1.1h.1v.1l-.1.1a.1.1,0,0,1-.1.1h-.2l-.1,3h0" transform="translate(-10 -36.7)"/><path class="cls-1" d="M25,47.9H35.8V47H25V42.2l-.1.1a1.44,1.44,0,0,0-.3.2h-.4a.31.31,0,0,0-.2.1v.6h0a.1.1,0,0,1,.1.1.1.1,0,0,0,.1.1l.1-.1h.1v.1h0l-.1.1a.1.1,0,0,0-.1.1H24v4.3Z" transform="translate(-10 -36.7)"/><path class="cls-1" d="M24.2,40.9h.1v.3h.1l.1.1a.1.1,0,0,1,0,.2c0,.1.1.1.2.1h.2V36.9h-1v4.3l.3-.3h0" transform="translate(-10 -36.7)"/><path class="cls-1" d="M24.7,42.2h0c0-.1,0-.1.1-.1h.1a.31.31,0,0,0,.2-.1v-.3h0a.1.1,0,0,1-.1.1.35.35,0,0,0-.2.1V42c-.1.1-.1.1-.1.2h0" transform="translate(-10 -36.7)"/><polygon class="cls-1" points="17 8.4 17 0.2 16 0.2 16 8.4 16 9.4 17 9.4 25.8 9.4 25.8 8.4 17 8.4"/><polygon class="cls-1" points="19 7.5 25.8 7.5 25.8 6.6 19 6.6 19 0.2 18 0.2 18 6.6 18 7.5 19 7.5"/><polygon class="cls-1" points="21 5.6 25.8 5.6 25.8 4.7 21 4.7 21 0.2 20 0.2 20 4.7 20 5.6 21 5.6"/><polygon class="cls-1" points="23 3.7 25.8 3.7 25.8 2.8 23 2.8 23 0.2 22 0.2 22 2.8 22 3.7 23 3.7"/><polygon class="cls-1" points="25 1.8 25.8 1.8 25.8 0.9 25 0.9 25 0.2 24 0.2 24 0.9 24 1.8 25 1.8"/><path class="cls-1" d="M21,40.3h0" transform="translate(-10 -36.7)"/><polygon class="cls-1" points="28.6 12.2 30.9 12.2 30.9 22.3 36.5 22.3 36.5 24.4 28.6 24.4 28.6 12.2"/><path class="cls-1" d="M51.1,56.3l1.5-4.5,1.5,4.5Zm7.2,4.8L53.8,48.9H51.4L47,61.1h2.4l.9-2.8h4.5l1,2.8Z" transform="translate(-10 -36.7)"/><polygon class="cls-1" points="49.1 12.2 56.7 12.2 56.7 14.2 51.3 14.2 51.3 17.1 56 17.1 56 19.2 51.3 19.2 51.3 24.4 49.1 24.4 49.1 12.2"/><rect class="cls-1" x="58" y="12.2" width="2.2" height="12.2"/><path class="cls-1" d="M73.3,56.9a2.36,2.36,0,0,0,2.4,2.3c1.6,0,2.2-.9,2.2-1.7,0-1-.8-1.3-2.8-1.8-1.1-.3-3.6-1-3.6-3.7,0-1.3.8-3.4,4.1-3.4,2.2,0,4.2.9,4.3,3.7l-2.3.1a1.82,1.82,0,0,0-2-1.8c-.7,0-1.9.2-1.9,1.2,0,.8.7,1.1,2.5,1.6s4,1,4,4.1a3.74,3.74,0,0,1-1.8,3.2,5.81,5.81,0,0,1-2.6.5c-1.2,0-4.2-.1-4.6-4.2Z" transform="translate(-10 -36.7)"/><polygon class="cls-1" points="71.2 12.2 79.5 12.2 79.5 14.2 73.4 14.2 73.4 17 79.1 17 79.1 19 73.4 19 73.4 22.3 79.7 22.3 79.7 24.4 71.2 24.4 71.2 12.2"/><rect class="cls-1" y="25.7" width="80" height="0.7"/><path class="cls-1" d="M38.8,40.8h2.5a3.11,3.11,0,0,1,1.1.1,1.08,1.08,0,0,1,.7.3,1,1,0,0,1,.5.6,1.88,1.88,0,0,1,.2.8,2.92,2.92,0,0,1-.2.9,1.34,1.34,0,0,1-.7.6,1.46,1.46,0,0,1,.9.6,2,2,0,0,1,.3,1.1,2.92,2.92,0,0,1-.2.9,1.34,1.34,0,0,1-.6.7,1.22,1.22,0,0,1-.9.3H38.7V40.8ZM40.1,42v1.6h1.7a.55.55,0,0,0,.5-.3.85.85,0,0,0,.2-.6.76.76,0,0,0-.2-.5,2.19,2.19,0,0,0-.5-.3H40.1Zm0,2.8v1.9h2.1c.2,0,.3-.1.5-.3a1.42,1.42,0,0,0,.2-.6.75.75,0,0,0-.1-.5c-.1-.1-.2-.3-.4-.3a3.11,3.11,0,0,0-1.1-.1H40.1Z" transform="translate(-10 -36.7)"/><path class="cls-1" d="M50.9,47.9H49.5L49,46.3H46.5L46,47.9H44.6l2.5-7.1h1.4Zm-2.3-2.8-.9-2.6-.9,2.6Z" transform="translate(-10 -36.7)"/><polygon class="cls-1" points="41.6 11.2 41.6 4.1 42.9 4.1 45.5 8.8 45.5 4.1 46.7 4.1 46.7 11.2 45.4 11.2 42.8 6.6 42.8 11.2 41.6 11.2"/><path class="cls-1" d="M62.1,45.3l1.2.4a2.6,2.6,0,0,1-1,1.7,2.35,2.35,0,0,1-1.7.6,2.64,2.64,0,0,1-2.1-1,4.14,4.14,0,0,1-.8-2.7,4.65,4.65,0,0,1,.8-2.8,2.79,2.79,0,0,1,4.1-.2,2.26,2.26,0,0,1,.6,1.3l-1.2.5a1.35,1.35,0,0,0-.5-.9,1.22,1.22,0,0,0-.9-.3,1.15,1.15,0,0,0-1.1.6,3,3,0,0,0-.4,1.8,3.16,3.16,0,0,0,.4,1.9,1.38,1.38,0,0,0,1.1.6,1.22,1.22,0,0,0,.9-.4,1.68,1.68,0,0,0,.6-1.1" transform="translate(-10 -36.7)"/><path class="cls-1" d="M64.2,44.4a4.84,4.84,0,0,1,.3-1.8,2.07,2.07,0,0,1,.6-1,1.56,1.56,0,0,1,.8-.6,3.19,3.19,0,0,1,1.4-.3,2.57,2.57,0,0,1,2.2,1,3.8,3.8,0,0,1,.8,2.7,4.55,4.55,0,0,1-.8,2.7,3,3,0,0,1-2.2,1,2.9,2.9,0,0,1-2.3-1,4,4,0,0,1-.8-2.7m1.3-.1a3,3,0,0,0,.5,1.8,1.61,1.61,0,0,0,1.3.6,1.76,1.76,0,0,0,1.3-.6,3.09,3.09,0,0,0,.5-1.9,3,3,0,0,0-.5-1.8,1.49,1.49,0,0,0-1.3-.6,1.61,1.61,0,0,0-1.3.6,2.85,2.85,0,0,0-.5,1.9" transform="translate(-10 -36.7)"/></svg>