<svg id="Layer_1" data-name="Layer 1" xmlns="http://www.w3.org/2000/svg" viewBox="0 0 80.01 13.5"><defs><style>.cls-1{fill:#727a7f;}.cls-2{fill:none;stroke:#727a7f;stroke-miterlimit:3.86;stroke-width:0.01px;}.cls-3{fill:#fff;}.cls-4{fill:#ce1f3f;}.cls-5{fill:#f18a00;}.cls-6{fill:#0b4e98;}</style></defs><title>banco-estado</title><path class="cls-1" d="M61.7,47.7c.2-1-.3-1.3-1.1-1.3h-1c-.6,0-.8,0-.9.6l-.4,2.5h1.5c.4,0,.7-.1.8-.3s.1-.2.2-.3.1-.2.1-.3v-.1h.4l-.5,2.7h-.4c.1-.7-.1-1.1-.8-1.1H58.1l-.5,2.8c-.1.7,0,.7.6.7h1.4c.7,0,1.1-.3,1.3-1.2h.4l-.4,1.9H56l1.2-6.8c.1-.6.2-.9,0-1.1s-.4-.2-.9-.3h-.1l.1-.3h6.1l-.3,1.9Z" transform="translate(-9.9 -43.3)"/><path class="cls-1" d="M64.2,50.5a2.19,2.19,0,0,0,.5.3,1.94,1.94,0,0,1,1.1,1.9c-.2,1.3-1.3,1.8-2.6,1.8a3.08,3.08,0,0,1-1-.1.85.85,0,0,1-.6-.2l.2-1a2.64,2.64,0,0,0,1.6.7,1.07,1.07,0,0,0,1.2-.8c.1-.3-.1-.5-.3-.7a1.38,1.38,0,0,0-.4-.3,2.19,2.19,0,0,0-.5-.3c-.6-.4-1.2-.9-1.1-1.7a2.19,2.19,0,0,1,2.4-1.7,2.77,2.77,0,0,1,.9.1c.2,0,.3.1.5.1h.1l-.2,1-.2-.2c-.1-.1-.2-.1-.3-.2a1.9,1.9,0,0,0-.9-.3c-.4,0-.9.1-1,.7-.1.3.1.5.3.7a1.24,1.24,0,0,0,.3.2" transform="translate(-9.9 -43.3)"/><path class="cls-1" d="M67.6,48.4l.2-1,1.5-1.2-.4,2.1h1.6l-.1.6H68.8l-.6,3.6c-.2.9-.2,1.2.8,1.2a1.09,1.09,0,0,0,.5-.1l-.1.6a2.77,2.77,0,0,1-.9.1c-1.2,0-1.9-.2-1.7-1.7l.7-3.8h-1l.1-.6h1Z" transform="translate(-9.9 -43.3)"/><path class="cls-1" d="M73.3,51l.1-.6c.1-.8.3-1.6-.5-1.6s-1,.6-1.1,1.2v.1H70.2a2.47,2.47,0,0,1,2.7-1.8c1.8,0,1.9.9,1.7,2.2l-.7,3.8H72.6l.1-.7-.2.2a1.38,1.38,0,0,1-.4.3,2.13,2.13,0,0,1-1.2.3,1.36,1.36,0,0,1-1.5-1.5c.6-1.7,3.1-1.9,3.9-1.9m-2.2,1.7q-.15.9.6.9a1.52,1.52,0,0,0,1.4-1.5l.1-.7c-.5.1-1.9.2-2.1,1.3m0,0q-.15.9.6.9a1.52,1.52,0,0,0,1.4-1.5l.1-.7c-.5.1-1.9.2-2.1,1.3M73.3,51l.1-.6c.1-.8.3-1.6-.5-1.6s-1,.6-1.1,1.2v.1H70.2a2.47,2.47,0,0,1,2.7-1.8c1.8,0,1.9.9,1.7,2.2l-.7,3.8H72.6l.1-.7-.2.2a1.38,1.38,0,0,1-.4.3,2.13,2.13,0,0,1-1.2.3,1.36,1.36,0,0,1-1.5-1.5c.6-1.7,3.1-1.9,3.9-1.9" transform="translate(-9.9 -43.3)"/><path class="cls-1" d="M81.5,45.4,80,54.2H78.7l.1-.7c-.1.1-.2.1-.3.2s-.3.2-.4.3a2.13,2.13,0,0,1-1.2.3c-1.7,0-2-1.4-1.8-3s1.2-3.2,2.9-3.2a1.45,1.45,0,0,1,1.5.9.37.37,0,0,1,.1-.3l.1-.7.2-1c.1-.8,0-1.1-.6-1.1h-.1l.1-.3Zm-2.3,5.5c.1-.7.2-2-1-2s-1.5,1.4-1.6,2.3-.3,2.4.8,2.4,1.6-1.5,1.7-2.2Z" transform="translate(-9.9 -43.3)"/><path class="cls-1" d="M84.3,48.2c1.8,0,2.5,1.3,2.2,3.1-.4,2.1-1.4,3.1-3.3,3.1s-2.5-1.3-2.2-3.1c.4-2.1,1.4-3.1,3.3-3.1m.7,3.1c.2-1.2.3-2.6-.8-2.6s-1.6,1.5-1.8,2.6-.4,2.6.8,2.6,1.6-1.3,1.8-2.6m0,0c.2-1.2.3-2.6-.8-2.6s-1.6,1.5-1.8,2.6-.4,2.6.8,2.6,1.6-1.3,1.8-2.6m-.7-3.1c1.8,0,2.5,1.3,2.2,3.1-.4,2.1-1.4,3.1-3.3,3.1s-2.5-1.3-2.2-3.1c.4-2.1,1.4-3.1,3.3-3.1" transform="translate(-9.9 -43.3)"/><path class="cls-1" d="M29,53.1c-.1.5.4.5,1.1.5a2,2,0,0,0,2.3-1.9c.2-1.2-.6-1.6-1.7-1.6H29.6Zm5.1-5.3a2.35,2.35,0,0,1-1.8,1.9A1.78,1.78,0,0,1,33.8,52,2.48,2.48,0,0,1,32,54a5,5,0,0,1-1.2.2H27.4l1.2-6.8c.1-.6.2-.9,0-1.1s-.4-.2-1-.3l.1-.3h3.8c1.4.1,2.9.4,2.6,2.1m-4.4,1.6h.8a1.9,1.9,0,0,0,2.2-1.6c.2-1.1-.4-1.5-1.5-1.5-.8,0-.9,0-1.1.6Z" transform="translate(-9.9 -43.3)"/><path class="cls-1" d="M37.5,51l.1-.6c.1-.8.3-1.6-.5-1.6s-1,.6-1.1,1.2v.1H34.4a2.47,2.47,0,0,1,2.7-1.8c1.8,0,1.9.9,1.7,2.2l-.7,3.8H37l.1-.7-.2.2a1.38,1.38,0,0,1-.4.3,2.13,2.13,0,0,1-1.2.3,1.36,1.36,0,0,1-1.5-1.5c.4-1.7,2.9-1.9,3.7-1.9m-2.1,1.7q-.15.9.6.9a1.52,1.52,0,0,0,1.4-1.5l.1-.7c-.6.1-1.9.2-2.1,1.3m0,0q-.15.9.6.9a1.52,1.52,0,0,0,1.4-1.5l.1-.7c-.6.1-1.9.2-2.1,1.3M37.5,51l.1-.6c.1-.8.3-1.6-.5-1.6s-1,.6-1.1,1.2v.1H34.4a2.47,2.47,0,0,1,2.7-1.8c1.8,0,1.9.9,1.7,2.2l-.7,3.8H37l.1-.7-.2.2a1.38,1.38,0,0,1-.4.3,2.13,2.13,0,0,1-1.2.3,1.36,1.36,0,0,1-1.5-1.5c.4-1.7,2.9-1.9,3.7-1.9" transform="translate(-9.9 -43.3)"/><path class="cls-1" d="M43.5,51c.2-1,.3-1.8-.5-1.8s-1.7,1.1-1.9,2l-.5,3.1H39.3L40,50c.1-.8,0-1-.7-1.1h-.1l.1-.3,2.4-.4-.3,1.5a3,3,0,0,1,2.4-1.5c1.2,0,1.4.8,1.2,1.8l-.7,4.2H43Z" transform="translate(-9.9 -43.3)"/><path class="cls-1" d="M48.9,50c.1-.6.1-1.3-.6-1.3s-1.2.9-1.4,2.1c-.3,1.9.4,2.8,1.5,2.8a4.3,4.3,0,0,0,1.2-.2h.1l-.1.6a1.85,1.85,0,0,1-.7.2,3.42,3.42,0,0,1-1.1.1c-1.8,0-2.6-1.3-2.3-3.2.3-1.7,1.2-3,3-3,1.4,0,2.2.7,2,1.7v.1Z" transform="translate(-9.9 -43.3)"/><path class="cls-1" d="M53.6,48.2c1.8,0,2.5,1.3,2.2,3.1-.4,2.1-1.4,3.1-3.3,3.1s-2.5-1.3-2.2-3.1c.4-2.1,1.4-3.1,3.3-3.1m.7,3.1c.2-1.2.3-2.6-.8-2.6s-1.6,1.5-1.8,2.6-.4,2.6.8,2.6,1.6-1.3,1.8-2.6m0,0c.2-1.2.3-2.6-.8-2.6s-1.6,1.5-1.8,2.6-.4,2.6.8,2.6,1.6-1.3,1.8-2.6m-.7-3.1c1.8,0,2.5,1.3,2.2,3.1-.4,2.1-1.4,3.1-3.3,3.1s-2.5-1.3-2.2-3.1c.4-2.1,1.4-3.1,3.3-3.1" transform="translate(-9.9 -43.3)"/><path class="cls-2" d="M87.9,49.2a1,1,0,1,1,1,1A.94.94,0,0,1,87.9,49.2Z" transform="translate(-9.9 -43.3)"/><path class="cls-1" d="M88.6,50h.2v-.6h.1a.27.27,0,0,1,.3.3l.1.4h.2l-.1-.4c0-.2-.1-.3-.3-.4h0a.32.32,0,0,0,.3-.3c0-.3-.3-.4-.6-.4h-.3V50Z" transform="translate(-9.9 -43.3)"/><path class="cls-3" d="M88.8,48.6h0c.3,0,.4.1.4.3a.32.32,0,0,1-.3.3h-.1Z" transform="translate(-9.9 -43.3)"/><path class="cls-3" d="M88.8,48.6h0c.3,0,.4.1.4.3a.32.32,0,0,1-.3.3h-.1Z" transform="translate(-9.9 -43.3)"/><rect class="cls-4" x="0.1" width="13.5" height="13.5"/><polygon class="cls-5" points="13.6 7.1 7.9 2.3 7.9 2.3 7.9 11.2 13.6 11.2 13.6 7.1"/><path class="cls-3" d="M17.8,46.8V45.5a5.22,5.22,0,0,1-2.6,1.4v1l-1,.4v.9L10,50.8v3.7h8.8V46.4Z" transform="translate(-9.9 -43.3)"/><path class="cls-4" d="M15.1,48.8l-.8.3a.22.22,0,0,0-.2.2v.6a.22.22,0,0,1-.2.2l-4,1.5v.9l4-1.6a.22.22,0,0,0,.2-.2v-.6a.22.22,0,0,1,.2-.2l.8-.3Z" transform="translate(-9.9 -43.3)"/><path class="cls-4" d="M15.1,50.6l-.8.3a.22.22,0,0,0-.2.2v.6a.22.22,0,0,1-.2.2l-4,1.6v.9l4-1.6a.22.22,0,0,0,.2-.2V52a.22.22,0,0,1,.2-.2l.8-.3Z" transform="translate(-9.9 -43.3)"/><rect class="cls-6" x="0.1" y="11.2" width="13.5" height="2.2"/><path class="cls-3" d="M13.7,55.6v.1c0,.1-.1.2-.2.3h-.2v-.1a.37.37,0,0,1,.1-.3c0-.1.1-.1.2-.1l.1.1m.3-.7h-.2l-.1.5h-.2a.65.65,0,0,0-.5.6c0,.2.1.2.2.2s.2,0,.2-.1l.1-.1v.1h.2Z" transform="translate(-9.9 -43.3)"/><path class="cls-3" d="M14.5,55.6h0l-.3.2a.35.35,0,0,1,.1-.2c.1-.1.1-.1.2,0h0m.2-.1a.22.22,0,0,0-.2-.2c-.3,0-.5.2-.5.6,0,.2.1.3.2.3s.2,0,.2-.1a.1.1,0,0,0,.1-.1.1.1,0,0,0,.1-.1l-.1-.1c0,.2,0,.2-.1.2h-.2v-.1l.4-.2c.1,0,.1-.1.1-.2" transform="translate(-9.9 -43.3)"/><path class="cls-3" d="M15.4,55.4h-.2c-.2,0-.3.1-.3.2v.1l.1.1.1.1.1.1a.1.1,0,0,1-.1.1h-.2l-.1.2h.3c.2,0,.3-.1.3-.2s0-.1-.2-.2l-.1-.1h0a.1.1,0,0,1,.1-.1c.1,0,.1,0,.2.1Z" transform="translate(-9.9 -43.3)"/><path class="cls-3" d="M16.1,55.6v.1c0,.1-.1.2-.2.3h-.1v-.1a.37.37,0,0,1,.1-.3c0-.1.1-.1.2-.1v.1m.4-.7h-.2l-.1.5H16a.65.65,0,0,0-.5.6c0,.2.1.2.2.2s.2,0,.2-.1L16,56v.1h.2Z" transform="translate(-9.9 -43.3)"/><path class="cls-3" d="M17,55.6h0l-.3.2a.35.35,0,0,1,.1-.2c.1-.1.1-.1.2,0h0m.2-.1a.22.22,0,0,0-.2-.2c-.3,0-.5.2-.5.6,0,.2.1.3.2.3s.2,0,.2-.1A.1.1,0,0,0,17,56a.1.1,0,0,0,.1-.1l-.1-.1c0,.2,0,.2-.1.2h-.2v-.1l.4-.2c.1,0,.1-.1.1-.2" transform="translate(-9.9 -43.3)"/><polygon class="cls-3" points="8.5 12.1 8.4 12.1 8 12.2 8 12.4 8.2 12.3 8.1 12.9 8.3 12.9 8.5 12.1"/><path class="cls-3" d="M19.1,55.9a.22.22,0,0,1-.2.2.35.35,0,0,1-.2-.1c0-.1.1-.1.1-.2l.1-.1.1.1c.1,0,.1,0,.1.1m.1-.6a.1.1,0,0,1-.1.1l-.1.1-.1-.1v-.1a.1.1,0,0,1,.1-.1c.1,0,.2,0,.2.1m.2,0c0-.1-.1-.2-.3-.2s-.4.1-.4.3,0,.1.1.2l.1.1-.1.1c-.1.1-.2.2-.2.3a.27.27,0,0,0,.3.3c.3,0,.5-.1.5-.3s0-.2-.1-.2l-.1-.1.1-.1c0-.3,0-.3.1-.4h0" transform="translate(-9.9 -43.3)"/><path class="cls-3" d="M20.2,55.3h-.5l-.1.6h.3l.1.1c0,.1-.1.3-.2.3h-.2l-.1.2h.2a.47.47,0,0,0,.5-.5.37.37,0,0,0-.1-.3h-.2v-.3h.3Z" transform="translate(-9.9 -43.3)"/><path class="cls-3" d="M20.9,55.3h-.5l-.1.6h.3l.1.1c0,.1-.1.3-.2.3h-.2l-.1.2h.2a.47.47,0,0,0,.5-.5.37.37,0,0,0-.1-.3h-.2v-.3h.3Z" transform="translate(-9.9 -43.3)"/></svg>