<svg xmlns="http://www.w3.org/2000/svg" viewBox="0 0 80 19.49"><defs><style>.cls-1{fill:#be2b37;}</style></defs><title>Banco-Popular</title><g id="Layer_2" data-name="Layer 2"><g id="Banco-Popular"><g id="_Group_" data-name="&lt;Group&gt;"><path id="_Compound_Path_" data-name="&lt;Compound Path&gt;" class="cls-1" d="M0,.24V9.8c0,5.26,0,9.59,0,9.6s4.45,0,9.84,0h9.8V.26H9.84ZM12.71.93,19,1v2.3c0,1.27,0,2.34,0,2.37s-.12,0-.39-.09L17.06,5l-1.55-.58L14.45,4l-1-.4-1.06-.41c-.38-.15-.89-.33-1.12-.41l-.84-.33-.8-.3-.69-.26-2-.73A3.18,3.18,0,0,1,6.48,1S9.1.92,12.71.93Zm-7,4.82a6.8,6.8,0,0,1,.75.3l1.08.48.81.36.87.39,1,.41.77.34.47.22.65.28a2,2,0,0,1,.45.24s0,0-.58.25l-.77.31-.76.28-.47.19L9.5,10l-.41.15c-.11.05-1.22.48-1.57.6s-.36.12-.59.22l-.32.13a1.16,1.16,0,0,0-.26.11,26.66,26.66,0,0,0,0,2.9c0,2.73,0,2.89.06,2.89S7.55,16.5,8,16.32l.51-.19c.45-.17,2.29-.93,2.46-1l.41-.15.39-.15c.16-.08,1.19-.5,1.48-.61l.45-.19.48-.19.34-.15.54-.22c.23-.09.47-.18.54-.22l.52-.21c.56-.22,2.17-.86,2.36-.95s.46-.19.5-.15,0,1.42,0,3.4v3.34l-6.63,0c-3.65,0-6.66,0-6.68,0s0-2.91,0-6.46C5.62,6.69,5.64,5.75,5.69,5.75Z"/><path id="_Path_" data-name="&lt;Path&gt;" class="cls-1" d="M51.66,8.89A4.61,4.61,0,0,1,50,8.33a4,4,0,0,1-2-2.7A6.34,6.34,0,0,1,48,3.5a4.43,4.43,0,0,1,2.78-3A6.08,6.08,0,0,1,53.11.22a6.23,6.23,0,0,1,2.58.4c.29.14.29.16.12.71l-.12.39h-.31a.75.75,0,0,1-.63-.23,2.94,2.94,0,0,0-4.67,1.07,5.09,5.09,0,0,0,0,4.05,3.34,3.34,0,0,0,2,1.57,3.62,3.62,0,0,0,3-.62.56.56,0,0,1,.46-.13h.24V7.7c0,.35-.08.47-.34.62a5.17,5.17,0,0,1-1.75.54,9,9,0,0,1-2,0Z"/><path id="_Compound_Path_2" data-name="&lt;Compound Path&gt;" class="cls-1" d="M61.79,0a5.72,5.72,0,0,0-2.31.36,3.24,3.24,0,0,0-1.3.87,4.86,4.86,0,0,0-1.33,2.25,7.39,7.39,0,0,0,0,2.05A3.4,3.4,0,0,0,58,7.6a4.68,4.68,0,0,0,2.55,1.17,8.83,8.83,0,0,0,3-.15,5.61,5.61,0,0,0,1.59-.79,3.8,3.8,0,0,0,1.64-3.3A4.62,4.62,0,0,0,65.7,1.38C64.87.41,63.72,0,61.79,0Zm-.06.56a2.06,2.06,0,0,1,.87.11,3.11,3.11,0,0,1,1.08.58A3.42,3.42,0,0,1,64.8,2.84,3.32,3.32,0,0,1,65,4.25a4.7,4.7,0,0,1-.31,1.81,3.5,3.5,0,0,1-2,2.1,3.8,3.8,0,0,1-1.28.13,3.37,3.37,0,0,1-1.35-.54,3.52,3.52,0,0,1-1.13-1.33c0-.09-.08-.2-.1-.25s-.09-.35-.18-.7a6,6,0,0,1,0-1.58,5.6,5.6,0,0,1,1.07-2.38A2.43,2.43,0,0,1,60.79.72,1.87,1.87,0,0,1,61.73.56Z"/><path id="_Compound_Path_3" data-name="&lt;Compound Path&gt;" class="cls-1" d="M33.06,10.67a6.61,6.61,0,0,0-1.43.15,3.9,3.9,0,0,0-2.15,1.28,4.3,4.3,0,0,0-1.18,3.27,3.65,3.65,0,0,0,1,2.64,4.82,4.82,0,0,0,2.81,1.41,8.5,8.5,0,0,0,3.2-.18,5.25,5.25,0,0,0,2.3-1.59,3.71,3.71,0,0,0,.69-2,4.7,4.7,0,0,0-.82-3.32,3.78,3.78,0,0,0-2.84-1.62A9.33,9.33,0,0,0,33.06,10.67Zm.15.53a3.33,3.33,0,0,1,1.64.44,4.84,4.84,0,0,1,1,.95,3.51,3.51,0,0,1,.64,1.79,4.22,4.22,0,0,1-.13,1.79,3.57,3.57,0,0,1-2.2,2.66,3.92,3.92,0,0,1-1.25.13,3.4,3.4,0,0,1-1.48-.64c-1.58-1.19-1.79-3.83-.46-5.81a2.62,2.62,0,0,1,2.22-1.31Z"/><path id="_Path_2" data-name="&lt;Path&gt;" class="cls-1" d="M50.23,19.47c-1.4-.19-2-.52-2.44-1.44a4.77,4.77,0,0,1-.35-.9c-.11-.45-.11-.47-.11-3.35v-2.9H49l0,2.95c0,2.88,0,3,.13,3.31a1.91,1.91,0,0,0,.6,1.05,2.41,2.41,0,0,0,2,.69,2.25,2.25,0,0,0,2.09-2.29,27.35,27.35,0,0,0,.07-3.06V10.86h1.28v2.91c0,2.87,0,2.91-.13,3.33a2.51,2.51,0,0,1-.15.47.21.21,0,0,0,0,.11,3.44,3.44,0,0,1-.71,1,3,3,0,0,1-1.07.61,7.79,7.79,0,0,1-1.93.18l-.92,0Z"/><path id="_Compound_Path_4" data-name="&lt;Compound Path&gt;" class="cls-1" d="M21.29.31V8.65H23c2.12,0,2.33,0,3.07-.39a2,2,0,0,0,1.28-2.12,1.56,1.56,0,0,0-.15-.87,1.67,1.67,0,0,0-.29-.44,3.72,3.72,0,0,0-1.12-.56c-.33-.1-.46-.18-.31-.18a2.32,2.32,0,0,0,1-.59,2,2,0,0,0,.59-1.81A1.27,1.27,0,0,0,26.15.54C25.6.33,25.26.31,23.21.31Zm1.59.48h.28a4.56,4.56,0,0,1,1.4.18,1.2,1.2,0,0,1,.93,1.23A1.63,1.63,0,0,1,24.1,3.84a3.7,3.7,0,0,1-.76.07h-.49V2.35Zm.23,3.69a4.5,4.5,0,0,1,1.79.35,1.76,1.76,0,0,1,.79,1.77,2,2,0,0,1-1.36,1.46,2.81,2.81,0,0,1-1.07.08l-.38,0V4.5Z"/><path id="_Compound_Path_5" data-name="&lt;Compound Path&gt;" class="cls-1" d="M32.75.08a1.21,1.21,0,0,0-.38,0,11.42,11.42,0,0,0-1.1,2.2l-.41.92-.44.92-.43,1-.41.9-.72,1.53c-.25.54-.46,1-.46,1.05s.1.08.72.08h.71l.08-.13c0-.08.16-.39.26-.67.18-.51.63-1.71.84-2.25l.13-.3h1.25l1.28,0,0,.18c0,.08.2.43.34.77s.28.68.33.79.2.48.33.82c.37.92.22.82,1.28.82.73,0,.89,0,.89-.05a3,3,0,0,0-.3-.8,3.4,3.4,0,0,1-.16-.36s-.12-.23-.25-.51S36,6.41,36,6.4s-.1-.24-.23-.52-.23-.52-.23-.53-.09-.17-.18-.36l-.23-.51c0-.09-.15-.36-.26-.59l-.2-.44-.23-.51a5.59,5.59,0,0,1-.23-.54L34,2.07l-.25-.56c-.27-.61-.43-1-.54-1.18L33.08.08Zm-.31,2.35a2.71,2.71,0,0,1,.44.84,4.45,4.45,0,0,0,.18.46c.13.3.38.9.38.93h-1a5,5,0,0,1-1,0,2.91,2.91,0,0,1,.18-.49l.46-1.07A3.55,3.55,0,0,1,32.44,2.43Z"/><path id="_Path_3" data-name="&lt;Path&gt;" class="cls-1" d="M38.36,8.62s0-1.92,0-4.22V.2h1.12l.9,1L42,2.88,43,4,44,5.12a11,11,0,0,0,.82.82,16.53,16.53,0,0,0,.07-2.85L45,.23h1.26l0,4.21V8.63h-.47l-.47,0L45,8.43c-.26-.27-2-2.19-3-3.21L40.87,3.93,40,3a2.39,2.39,0,0,0-.35-.33s-.06,1.06-.07,3l0,3H39a2.89,2.89,0,0,1-.63,0Z"/><path id="_Compound_Path_6" data-name="&lt;Compound Path&gt;" class="cls-1" d="M21.24,10.87l0,4.07c0,2.23,0,4.14,0,4.22l0,.15h.8c.78,0,.79,0,.82-.1s0-.93,0-1.92V15.5H23c.06,0,.45,0,.9-.05a4.14,4.14,0,0,0,1.91-.38,2.05,2.05,0,0,0,1.49-2.13,1.83,1.83,0,0,0-.64-1.61,2.14,2.14,0,0,0-.92-.38,10.93,10.93,0,0,0-2.48-.08Zm1.69.49h.71a3,3,0,0,1,1,.08,1.58,1.58,0,0,1,.92,1.22,2.07,2.07,0,0,1-1.18,2.1,2.16,2.16,0,0,1-.84.08H22.9l0-1.74Z"/><path id="_Compound_Path_7" data-name="&lt;Compound Path&gt;" class="cls-1" d="M39.63,10.87V15c0,2.31,0,4.23,0,4.25s.4,0,.84,0h.79l0-1.89V15.53l.15,0c.09,0,.51,0,.92-.05a4.13,4.13,0,0,0,2.44-.69,1.92,1.92,0,0,0,.56-.49,1.85,1.85,0,0,0,.36-1.38,1.69,1.69,0,0,0-.44-1.38A1.84,1.84,0,0,0,44.24,11a11.17,11.17,0,0,0-2.48-.08Zm2.28.46a2.31,2.31,0,0,1,1.41.26A1.65,1.65,0,0,1,44,12.92a2.1,2.1,0,0,1-1.07,1.79,2,2,0,0,1-.92.13l-.67,0,0-1.76V11.36Z"/><path id="_Path_4" data-name="&lt;Path&gt;" class="cls-1" d="M57.58,19.2c0-.06,0-1.95,0-4.21l0-4.11h1.56l0,3.87,0,3.87h1c.58,0,1.3,0,1.62-.05a4.51,4.51,0,0,1,.64,0s.07.09.07.38v.37h-5l0-.11Z"/><path id="_Compound_Path_8" data-name="&lt;Compound Path&gt;" class="cls-1" d="M67.49,10.72c-.18,0-.22.15-.38.51l-.39.82c-.12.27-.23.48-.23.49s-.29.61-.64,1.35l-.23.51a2.82,2.82,0,0,1-.18.41c-.1.22-.32.67-.48,1s-.34.78-.41.94-.27.57-.44.92l-.48,1a2.18,2.18,0,0,0-.18.48c0,.09,0,.1.71.1h.7l.07-.15c0-.09.15-.41.26-.69.17-.48.61-1.6.87-2.25l.1-.28,1.25,0c1.06,0,1.27,0,1.31.08s.28.61.66,1.56l.46,1.15c0,.11.14.29.18.39l.08.17H71a3.88,3.88,0,0,0,.92,0,4,4,0,0,0-.26-.69c-.16-.36-.34-.74-.38-.84s-1.15-2.52-1.38-3.05c-.05-.1-.21-.5-.39-.89s-.39-.83-.46-1l-.61-1.38a4.5,4.5,0,0,0-.34-.67,1,1,0,0,0-.38,0Zm5.76.15V15c0,2.29,0,4.17,0,4.2s.23.06.84.05h.82l0-1.89A17.54,17.54,0,0,1,75,15.5s.32.37.69.82l1.53,1.89.87,1.1,1,0a5.26,5.26,0,0,0,1,0,1,1,0,0,0-.18-.3c-.11-.14-.53-.62-.92-1.1l-.84-1c-.07-.08-.36-.47-.67-.84a6.85,6.85,0,0,1-.56-.74s0-.09.13-.11a5.4,5.4,0,0,0,.61-.15l.26-.1a3.2,3.2,0,0,0,.89-.62,1.75,1.75,0,0,0,.54-1,2,2,0,0,0-.51-1.72,1.93,1.93,0,0,0-1-.56,10,10,0,0,0-2.41-.08Zm1.71.49h.56a3.06,3.06,0,0,1,.82.1,2,2,0,0,1,.9.54,1.61,1.61,0,0,1-.49,2.38,2.3,2.3,0,0,1-1.12.38c-.47.05-.57.05-.64,0a7.1,7.1,0,0,1-.06-1.71ZM67.49,13.1s.13.18.28.56c.06.14.15.39.23.56a10.56,10.56,0,0,1,.44,1,12.21,12.21,0,0,1-1.92,0s0-.21.31-.77c0-.11.12-.29.17-.43A5.21,5.21,0,0,1,67.49,13.1Z"/></g></g></g></svg>