<svg id="Layer_1" data-name="Layer 1" xmlns="http://www.w3.org/2000/svg" viewBox="0 0 80 22.62"><defs><style>.cls-1{fill:#b31e3b;}.cls-2{fill:#231f20;}</style></defs><title>bank of china</title><g id="bank_of_china" data-name="bank of china"><g id="_Group_" data-name=" Group "><path id="_Compound_Path_" data-name=" Compound Path " class="cls-1" d="M11.31,0A11.31,11.31,0,1,0,22.62,11.31,11.31,11.31,0,0,0,11.31,0ZM2.47,11.31a9,9,0,0,1,7.58-8.78V6.69H8.13A2.26,2.26,0,0,0,5.83,8.9a1.34,1.34,0,0,0,0,.2v4.36a2.51,2.51,0,0,0,2.56,2.46H10v4.17A8.86,8.86,0,0,1,2.47,11.31Zm6.11,2.18a.32.32,0,0,1-.22-.12l-.09-.17V9.43a.66.66,0,0,1,.11-.24.43.43,0,0,1,.23-.1H14a.6.6,0,0,1,.19.06c.08,0,.13.25.13.25v3.87a.6.6,0,0,1-.09.15.35.35,0,0,1-.14.06H8.58Zm4,6.54V15.75h1.67a2.26,2.26,0,0,0,2.43-2.09,1.34,1.34,0,0,0,0-.2V9.1a2.42,2.42,0,0,0-2.44-2.4H12.61V2.52a8.85,8.85,0,0,1,0,17.51Z" transform="translate(0 0)"/><g id="g2418"><path id="path2420" class="cls-2" d="M75.62,21.64v-.11a1,1,0,0,0,.31-.19c.08-.1,1.73-3.85,1.73-3.85h.11L79.34,21a1.85,1.85,0,0,0,.23.44.71.71,0,0,0,.31.13c.06,0,0,.09,0,.09H78.24s-.11-.08,0-.13.33-.11.38-.28a1.14,1.14,0,0,0-.1-.45,1.48,1.48,0,0,0-.29-.52,2.58,2.58,0,0,0-.68,0,2.89,2.89,0,0,0-.72,0c-.14.08-.29.66-.32.74a.44.44,0,0,0,.07.35,2.06,2.06,0,0,0,.48.21v.1Zm2.53-1.71a4.32,4.32,0,0,0-.27-.7c-.15-.33-.29-.72-.35-.7a3.35,3.35,0,0,0-.32.66c-.13.29-.28.66-.22.72a1.51,1.51,0,0,0,.56.05A2,2,0,0,0,78.15,19.93Zm-46.52.82a.86.86,0,0,0-.27-.93,1.36,1.36,0,0,0-.7-.26c-.36,0-.6,0-.6.37v1c0,.56.69.5.69.5A.82.82,0,0,0,31.63,20.75Zm10.87.73a.46.46,0,0,0,.3-.19.76.76,0,0,0,.11-.44v-2.6a.55.55,0,0,0-.12-.39.59.59,0,0,0-.4-.15s-.18-.11,0-.16H44s.14,0,0,.11-.22,0-.31.12a.72.72,0,0,0-.1.43v1.28c0,.06,0,.13.07.13s.13-.09.17-.12l.68-.65a9.63,9.63,0,0,0,.71-.72.36.36,0,0,0,.06-.36c-.06-.07-.19-.07-.3-.1s-.1-.07,0-.11h1.4v.16a.89.89,0,0,0-.39.12,2.41,2.41,0,0,0-.54.41,8.57,8.57,0,0,0-1,1,16.91,16.91,0,0,0,1.06,1.41,4.51,4.51,0,0,0,.44.61c.09.07.25.22.37.22s.08.13.08.13h-.94c-.14,0-.2-.16-.2-.16C44.94,21,44,19.78,44,19.7a.69.69,0,0,0-.41.47v.76a.54.54,0,0,0,.12.41.8.8,0,0,0,.39.14c.13,0,0,.11,0,.11H42.43S42.37,21.51,42.5,21.48Zm-5.24,0a1.56,1.56,0,0,0,.4-.27c.08-.09.14-.17.14-.49V18.46a1,1,0,0,0-.2-.64.67.67,0,0,0-.38-.15s-.11-.11,0-.14h1.06l2.52,2.78s.1.12.15.09v-2a.75.75,0,0,0-.09-.51c-.15-.17-.45-.2-.54-.24s-.07-.1,0-.12h1.34c.09,0,0,.1,0,.1a.6.6,0,0,0-.38.17,1,1,0,0,0-.13.6v3.24h0s-2.76-3-2.93-3.17-.1,0-.1.13v2.06c0,.34.07.55.28.66a2.64,2.64,0,0,0,.4.12l.06.13H37.26s0-.09,0-.1Zm-4.59.12v-.12A.89.89,0,0,0,33,21.3c.08-.1,1.73-3.86,1.73-3.86h.1l1.53,3.49a1.81,1.81,0,0,0,.22.44.61.61,0,0,0,.32.13c.06,0,0,.1,0,.1H35.2a.09.09,0,0,1,0-.13h0a.51.51,0,0,0,.35-.31,1.18,1.18,0,0,0-.09-.46,1.48,1.48,0,0,0-.29-.52,2.58,2.58,0,0,0-.68,0,2.17,2.17,0,0,0-.72,0c-.14.07-.29.65-.33.74a.41.41,0,0,0,.08.35,1.44,1.44,0,0,0,.48.2v.1Zm2.53-1.72a3.92,3.92,0,0,0-.26-.69c-.15-.33-.3-.73-.36-.71a5,5,0,0,0-.31.66c-.13.3-.28.67-.22.73a1.75,1.75,0,0,0,.56.05c.27,0,.56.08.59,0ZM31.42,18.6a.85.85,0,0,0-.85-.86c-.3,0-.51,0-.51.33v1.08c0,.25.59.19.59.19C31.16,19.34,31.41,19.27,31.42,18.6Zm-2.57,2.88a1,1,0,0,0,.41-.18.49.49,0,0,0,.1-.37V18.2a.5.5,0,0,0-.14-.35c-.18-.2-.4-.07-.43-.15a.43.43,0,0,1,0-.16H30.5a2.34,2.34,0,0,1,1.11.17.85.85,0,0,1,.49.77,1,1,0,0,1-.62.87c.34.09.9.29.9.93a1.19,1.19,0,0,1-.72,1.19,3.2,3.2,0,0,1-.87.12H28.85Zm24.64,0a.85.85,0,0,0,.3-.15c.07,0,.12-.16.12-.43V18.36a.72.72,0,0,0-.1-.43c-.08-.12-.27-.14-.49-.18,0,0-.16-.12,0-.17h1.77a9.37,9.37,0,0,1,1.25,0,3,3,0,0,1,0,.73c0,.11,0,.18-.09.19s-.09-.11-.09-.19A.77.77,0,0,0,56,18a.4.4,0,0,0-.31-.13h-1a.27.27,0,0,0-.06.17v1.31a4.21,4.21,0,0,0,.71,0,.35.35,0,0,0,.25-.16,1.63,1.63,0,0,0,.19-.34c0-.08.16-.14.16,0v1.33h-.13a.71.71,0,0,0-.16-.4.47.47,0,0,0-.33-.17h-.53c-.19,0-.2.2-.21.28V21a.56.56,0,0,0,.1.33.93.93,0,0,0,.48.2c.11,0,0,.13,0,.13H53.44s-.08-.08.05-.14ZM49.25,18a2.19,2.19,0,0,1,1.47-.52,1.89,1.89,0,0,1,1.39.45,2,2,0,0,1,.62,1.53,2,2,0,0,1-.64,1.6,2.13,2.13,0,0,1-1.44.56,2,2,0,0,1-1.51-.54,2.14,2.14,0,0,1-.52-1.55A2,2,0,0,1,49.25,18Zm.53,3a1.15,1.15,0,0,0,1,.47,1.2,1.2,0,0,0,.9-.5A2.2,2.2,0,0,0,52,19.6a2.09,2.09,0,0,0-.43-1.41,1.14,1.14,0,0,0-1-.45,1.28,1.28,0,0,0-1,.37,2.11,2.11,0,0,0-.38,1.42A2.49,2.49,0,0,0,49.78,21Zm21.33.48a.8.8,0,0,0,.37-.23.81.81,0,0,0,.1-.51V18.19a.49.49,0,0,0-.23-.36.37.37,0,0,1-.3-.09c-.07-.09-.17-.13,0-.16s1,0,1,0,1.73,1.87,2.41,2.64c.22.27.3.22.29,0V18.3a.42.42,0,0,0-.19-.41,1.06,1.06,0,0,0-.45-.19s-.17-.06,0-.11H75.5c.09,0,.09.07,0,.09a.58.58,0,0,0-.34.19,1,1,0,0,0-.12.62v3.1c0,.15-.14.07-.14.07L72,18.56s0-.09-.12,0,0,0,0,.12v2.09a.88.88,0,0,0,.22.62.62.62,0,0,0,.39.14.11.11,0,0,1,.11.13H71a.16.16,0,0,1,.09-.18Zm-2.37.05a1.17,1.17,0,0,0,.27-.15c.07-.06.11-.17.11-.41V18.35c0-.17,0-.38-.09-.46a.68.68,0,0,0-.51-.19s-.11-.06,0-.11H70.2c.14,0,0,.11,0,.11a.37.37,0,0,0-.3.14.76.76,0,0,0-.09.42V21a.52.52,0,0,0,.16.44.72.72,0,0,0,.4.12c.17,0,0,.11,0,.11H68.74C68.62,21.59,68.74,21.53,68.74,21.53Zm-5.3,0a2.67,2.67,0,0,0,.31-.24.6.6,0,0,0,.11-.43V18.32a.76.76,0,0,0-.09-.42c-.06-.1-.2-.12-.43-.14,0,0-.32-.07,0-.15h1.59c.17,0,0,.11,0,.11a.35.35,0,0,0-.29.12.6.6,0,0,0-.1.43v.9s0,.21.17.2,1.5,0,1.68,0a.27.27,0,0,0,.27-.26v-.82a.69.69,0,0,0-.13-.46.83.83,0,0,0-.44-.12c-.16,0,0-.11,0-.11h1.69s.08.09,0,.11a.3.3,0,0,0-.26.12.66.66,0,0,0-.1.43V21c0,.22,0,.29.11.36a.54.54,0,0,0,.36.18c.12,0,.17.14,0,.15H66.29s-.2-.09,0-.17a.46.46,0,0,0,.24-.17,1,1,0,0,0,.08-.41V19.85c0-.15,0-.23-.17-.21s-1.66,0-1.79,0-.16,0-.16.23v1a.58.58,0,0,0,.61.61c.19,0,0,.13,0,.13H63.4s-.11-.1,0-.13ZM61.75,17.7a1.68,1.68,0,0,0,.48.2c.06,0,.11-.13.13-.2s.13.1.13.1l.07,1.14a.09.09,0,0,1-.1,0,.12.12,0,0,1-.05,0,2,2,0,0,0-.44-.73,1.53,1.53,0,0,0-1-.48,1.27,1.27,0,0,0-1.07.5,2,2,0,0,0-.34,1.16,2.14,2.14,0,0,0,.56,1.48,1.46,1.46,0,0,0,1.08.45,1.32,1.32,0,0,0,.77-.24,3.09,3.09,0,0,0,.54-.48.1.1,0,0,1,.14,0l0,0a2.13,2.13,0,0,1-.62.69,2.25,2.25,0,0,1-1,.37,2,2,0,0,1-1.62-.56,2.06,2.06,0,0,1-.51-1.48,2.19,2.19,0,0,1,.56-1.5,2,2,0,0,1,1.51-.6,2.17,2.17,0,0,1,.8.18" transform="translate(0 0)"/></g><path id="_Path_" data-name=" Path " class="cls-2" d="M45.74,2.79a.66.66,0,0,1,.28,0h.25a.7.7,0,0,1,.37.15c.31.18.54.24.61.34a.73.73,0,0,1,.08.38.65.65,0,0,1-.16.4,1.75,1.75,0,0,0-.23.24c-.06,0,0,.2-.13.23a1.22,1.22,0,0,1-.33,0c-.14,0-.25.08-.29,0l-.12-.12s-.13,0-.14-.07a1.17,1.17,0,0,0-.22-.43V3.64a.36.36,0,0,0-.05-.22v-.2c0-.06-.08-.16,0-.23S45.68,2.82,45.74,2.79Z" transform="translate(0 0)"/><path id="_Compound_Path_2" data-name=" Compound Path 2" class="cls-2" d="M49.55,5.18a12,12,0,0,0-.68-3.07A3.64,3.64,0,0,0,47.67.47.8.8,0,0,0,47.09.3h-.45a1.33,1.33,0,0,0-.34.1,3.32,3.32,0,0,0-.44.06h-.45a3.71,3.71,0,0,0-.49.14A4.68,4.68,0,0,0,43,1.79a5.85,5.85,0,0,0-.73,1,1.78,1.78,0,0,1,.21.54c0,.06.16.13.24.12a.53.53,0,0,0,.28,0c.06,0,.1-.12.06-.27a.86.86,0,0,1,0-.63,1.33,1.33,0,0,1,.25-.45,3.58,3.58,0,0,1,.56-.54A7.71,7.71,0,0,1,45,1,6.16,6.16,0,0,1,46.34.77a2.14,2.14,0,0,1,.83.11,3.32,3.32,0,0,1,1.22,1.43,18.2,18.2,0,0,1,.48,2.53c0,.21,0,.42.07.63s.07.27,0,.36S49,6,49,6a6.46,6.46,0,0,0,0,.88,2.89,2.89,0,0,1,0,.83c0,.07.07.16,0,.21s0,.21-.06.36,0,.17,0,.23-.08.17-.07.22a.41.41,0,0,1,0,.22v1.34a1.22,1.22,0,0,1-.12.4,1.42,1.42,0,0,1-.42.46c-.1.07-.24.25-.3.26a1.09,1.09,0,0,0-.24.07.6.6,0,0,0-.22-.06.66.66,0,0,1-.28,0c-.13,0-.18-.1-.31-.1s-.27-.13-.49-.14a4.54,4.54,0,0,0-.82-.07A1.11,1.11,0,0,1,45,11s0-.13.08-.16a1.17,1.17,0,0,0,.41-.1.81.81,0,0,1,.31,0c.11,0,.21-.11.46-.06s.33-.09.61,0a.53.53,0,0,0,.39,0c.12,0,.15-.19.23-.27A1,1,0,0,0,47.7,10c0-.09.13-.17,0-.33s-.22-.22-.28-.18-.38,0-.52.07-.21.19-.27.19A5.49,5.49,0,0,0,46,9.9a3.22,3.22,0,0,1-.44.14h-.23c-.07,0-.1.08-.15.1a2.57,2.57,0,0,0-.39,0l-.24.08a1.37,1.37,0,0,1-.29,0c-.13,0-.22.12-.29.12h-.37c-.1,0-.32.12-.38.06s0-.15.08-.17.2-.21.27-.3.24-.18.37-.26.18-.2.28-.3l.46-.36c.1-.1.2-.2.29-.31a1.64,1.64,0,0,1,.22-.14,2.35,2.35,0,0,1,.3-.33s.16,0,.19.08a5.07,5.07,0,0,0,.52.61,1.33,1.33,0,0,0,.55.35.31.31,0,0,0,.19,0c.09,0,.08-.07.1-.11a3.59,3.59,0,0,0,.43-.88c0-.25.25-1,.23-1.11s0-.21-.06-.28-.09-.06-.1,0a2.74,2.74,0,0,0,0,.29,7.3,7.3,0,0,1-.26.79,1.84,1.84,0,0,1-.45.68.48.48,0,0,1-.26.07,1.11,1.11,0,0,1-.48-.25,1.6,1.6,0,0,1-.29-.44s0-.14.08-.18a9,9,0,0,0,.82-1,9,9,0,0,1,.61-.77c.14-.15,0-.23.09-.29s0-.08,0-.12a.2.2,0,0,0,0-.15c0-.08-.07-.05-.09-.09s0-.1,0-.15a.08.08,0,0,0-.1,0s0,0,0,0a4.84,4.84,0,0,0-.33.46,8.73,8.73,0,0,1-.52.82,10,10,0,0,1-.7,1h-.15c-.05,0,0-.11,0-.18A2.7,2.7,0,0,1,45.72,7a.35.35,0,0,0,.06-.24.45.45,0,0,1,0-.23c.06-.1,0,0,0-.16a.25.25,0,0,0-.07-.23c-.1-.12-.25-.21-.36-.32s-.11-.21-.17-.25-.08,0-.16-.14,0-.06-.1-.16-.12-.06-.15-.17-.09-.08-.13-.16a.36.36,0,0,1,0-.35c0-.07,0,0,.13-.1s0-.11.08-.18.14-.1.17-.18a3,3,0,0,1,.2-.4c.08-.14,0-.17.09-.27s.08-.09.09-.12,0,0-.09-.08-.1-.21-.16-.25a.21.21,0,0,0-.24,0,4,4,0,0,0-.73.33.22.22,0,0,1-.19.05c-.09,0-.13-.12-.14-.18a2.08,2.08,0,0,0-.13-.3c-.08-.15-.17-.3-.26-.45s-.15-.18-.19-.16a.11.11,0,0,0,0,.15l0,0c0,.06.15.5.17.62a4.15,4.15,0,0,0,.11.48.3.3,0,0,1,0,.26,3.8,3.8,0,0,0-.42.57c-.08.17,0,.29.22.26s.37-.25.46-.25.1,0,.1.1.1.13.09.18,0,.13,0,.18.14.06.13.08,0,.15-.06.22a1,1,0,0,1-.27.34c-.09,0-.11.18-.2.28s0,.11,0,.15-.08,0-.1.08a.79.79,0,0,1-.1.27c-.1.21,0,.12,0,.21s0,.3.1.29.07-.13.17-.19.18,0,.24-.14.12,0,.13,0a.11.11,0,0,1,0,.13.76.76,0,0,1-.23.24.72.72,0,0,0-.14.24.64.64,0,0,0-.18.16c-.06.09-.38.5-.44.57s-.26.55-.36.68,0,.37-.09.51-.09.19,0,.24.11,0,.19,0a3.54,3.54,0,0,0,.53-.23c.18-.1.46-.23.66-.35l.75-.48c.25-.16.34-.34.48-.42a.09.09,0,0,1,.13,0h0a.17.17,0,0,1,0,.21c-.06.06-.41.43-.64.65s-.49.56-.62.67-.85.78-1,.88a1.17,1.17,0,0,1-.42.27,1.57,1.57,0,0,1-.61,0c-.07,0-.08,0-.16.08s0,.19-.16.19-.11-.11-.14-.23a5.85,5.85,0,0,1,0-.73.85.85,0,0,0-.05-.37.37.37,0,0,1,0-.27s-.1.25-.18.26-.08-.14-.09-.22a4.61,4.61,0,0,1,0-.91V7c0-.17-.06-.21,0-.28a1.55,1.55,0,0,0,.07-.31c0-.11-.06-.13,0-.22s0-.16,0-.23v-.2a.46.46,0,0,0,.06-.23V5.24c0-.07.08-.19.09-.26s0-.2,0-.31a5.78,5.78,0,0,1,.12-.57,3.12,3.12,0,0,0,.11-.61c0-.07,0-.25-.08-.29s-.15,0-.17.1-.22.35-.28.55a4.9,4.9,0,0,1-.26,1c0,.09-.1.77-.14,1s-.12.92-.13,1,.06.16,0,.22a.42.42,0,0,0-.06.31.81.81,0,0,1,0,.31,1.22,1.22,0,0,0,0,.27c0,.08.08.08,0,.15s0,.44-.07.57.12.21.05.36,0,.07,0,.42.14,1.07.17,1.35a6.75,6.75,0,0,0,.06.84,1.7,1.7,0,0,0,.59.69,1,1,0,0,0,.48,0c.15,0,.16-.19.11-.33s-.26-.2-.22-.31,0-.06,0-.18-.09,0-.06-.17,0-.12,0-.17,0-.12.1-.11H42a6.43,6.43,0,0,0,1.31.16,8.12,8.12,0,0,1,2.24.35,8.52,8.52,0,0,1,1.55.82c.18.19.28.36.37.37a5.39,5.39,0,0,0,.79-.64,7.69,7.69,0,0,0,1.15-1.06,4.29,4.29,0,0,0,.18-1c0-.24.06-1.48.11-2C49.57,7.86,49.59,5.92,49.55,5.18ZM44.63,3.65c.18-.09.09-.06.14.07s-.05,0-.1.2,0,.15-.16.23-.1,0-.16-.1,0,0,0-.19S44.46,3.74,44.63,3.65Zm.16,3.61c-.14.17-.34.15-.53.33s-.29.12-.47.24-.15.09-.3,0-.14-.11,0-.23l.16-.13c.08-.07-.09-.08,0-.14s.08,0,.22-.13S44,7,44,6.93a.59.59,0,0,1,.25-.27,1.6,1.6,0,0,0,.35-.28.9.9,0,0,1,.21.28A2.23,2.23,0,0,1,45,7C45,7.15,44.94,7.09,44.79,7.26Zm.39-.43c-.11.09,0,0-.13-.06s0-.27-.12-.36-.12-.1-.09-.25A.19.19,0,0,1,45,6l.15.18c.15.18.05.18.13.29s.07,0,.06.18S45.29,6.74,45.18,6.83Z" transform="translate(0 0)"/><g id="g2426"><path id="path2428" class="cls-2" d="M79.91,5.93c-.14.07-.57.56-.68.61s-.26-.07-.36-.06a11.77,11.77,0,0,0-1.25.26,5.27,5.27,0,0,0-1.08.36c-.11.06-.12.13-.05.19a4.1,4.1,0,0,1,.48.42c.1.13,0,.13-.06.27a7.13,7.13,0,0,0-.1,1.46c0,.4.26,1.58.31,1.91s.09.68.13.83a1.07,1.07,0,0,1-.1.66,5.91,5.91,0,0,1-.85.81.63.63,0,0,1-.59-.09,1.46,1.46,0,0,1-.36-.67,1.82,1.82,0,0,0-.67-.68c-.4-.29-1.28-.74-1.41-1.05V11a1.67,1.67,0,0,1,.38.24,1.73,1.73,0,0,0,.57.26l.81.23a.76.76,0,0,0,.59.06,1.06,1.06,0,0,0,.36-.64c0-.43-.07-.94-.06-1.16A11.69,11.69,0,0,1,76,8.8a4.69,4.69,0,0,0,0-.75,3.05,3.05,0,0,1,.06-.6c0-.11-.09-.11-.19-.08a6.55,6.55,0,0,0-1.09.55c-.28.13-.79.44-1,.51s-.26.25-.34.17-.23-.06-.32-.21.08-.43.23-.52a3.33,3.33,0,0,0,1-.36A11.23,11.23,0,0,1,78.22,6a3,3,0,0,0,.69-.11,2,2,0,0,1,.59-.12,1.27,1.27,0,0,1,.39,0C80,5.77,80.05,5.85,79.91,5.93ZM74.62,4.46c.18-.09.23.12.29.12a1.32,1.32,0,0,0,.56,0c.52-.25,1.06-.48,1.61-.68a10.12,10.12,0,0,1,1.8-.38c.11,0,.11.08,0,.13s-.15.23-.24.32,0,.25-.09.32a.36.36,0,0,1-.27.12H78a2.07,2.07,0,0,0-.47.18,1,1,0,0,0-.2-.09,3.68,3.68,0,0,0-1.22.37,4,4,0,0,0-1.1.67c-.1.11-.2.31-.37.22s-.22-.44-.26-.59S74.36,4.59,74.62,4.46Zm-1-4.19c.16,0,.46.76.62,1.08a1.69,1.69,0,0,1,.12.55,1.81,1.81,0,0,1,.11.65,2.35,2.35,0,0,1,0,.53c0,.08-.17.16-.17.28a.71.71,0,0,1-.18.3c-.11.1-.18.38-.25.47a2.38,2.38,0,0,1-.69.23,2.19,2.19,0,0,0-.55.28c-.18.13-.5.24-.73.39a6.65,6.65,0,0,0-.62.55c-.1.08-.2.16-.08.26s.45,0,.89.24a1.63,1.63,0,0,1,.71.56.33.33,0,0,1-.06.46h0c-.11.07-.19.26-.42.46s-.21.36-.4.52-.68.69-.88.84-.11.22.08.29A2.82,2.82,0,0,1,72,9.9a3.25,3.25,0,0,1,.3,1.3,4.17,4.17,0,0,1-.3,1.1c0,.16-.07.22-.28.19,0,0-.15-.14-.23-.23s-.3-.18-.39-.27a2.13,2.13,0,0,1-.31-.29,2.11,2.11,0,0,1,0-1,4.88,4.88,0,0,1,.12-.55c0-.13.13-.57,0-.61a2.5,2.5,0,0,0-.63.27,2,2,0,0,0-.55.36.81.81,0,0,0-.2.44c0,.14-.11.23-.17.2a.4.4,0,0,0-.34,0c-.13,0-.21-.08-.36-.14a.56.56,0,0,1-.34-.2A.87.87,0,0,1,68,9.61c.12-.31,0-.25.17-.41a12.89,12.89,0,0,0,1-1.06A10.33,10.33,0,0,1,70,7.35,1.1,1.1,0,0,0,70.2,7c0-.1.29-.28.13-.39a.61.61,0,0,0-.51-.07c-.11,0-.19-.09-.33-.17s-.27,0-.37,0l-.28-.22c-.1-.07-.29-.18-.2-.37s0-.35.16-.46.34-.3.48-.42,1-1.07,1.49-1.64,1.46-2,1.83-2.38c.08-.08.05-.26.44-.47a.94.94,0,0,1,.62-.06" transform="translate(0 0)"/></g><path id="_Compound_Path_3" data-name=" Compound Path 3" class="cls-2" d="M65.84,11.13a.77.77,0,0,0-.19-.17c-.22-.14-.9-.29-1.07-.42s-.52,0-.52-.11-.07-.09-.12-.07a.33.33,0,0,1-.14,0A7.31,7.31,0,0,1,62.69,10a.21.21,0,0,1-.07-.22c.11-.21.34-.53.41-.65a3.31,3.31,0,0,1,.64-.76c.12-.08.37-.21.47-.29s.19-.35.1-.39a.67.67,0,0,0-.63.16,4.28,4.28,0,0,1-.75.66,6.37,6.37,0,0,1-.85.36H60.93a3.21,3.21,0,0,0-.43.07.62.62,0,0,1-.38,0,2.44,2.44,0,0,0-.54,0c-.07,0-.12.15-.2.16s-.11,0-.12-.14a2.25,2.25,0,0,1,.07-.58,7.59,7.59,0,0,1,.24-.85,2,2,0,0,0,0-.43c0-.05.14-.13.15-.2a1.12,1.12,0,0,1,.2-.46c.08-.07.17,0,.26,0s.07-.15.12-.17.2-.24.27-.24,0,.19,0,.22a7.65,7.65,0,0,0-.58,1c-.21.28-.17.18-.26.43s0,.67-.06.83.08.1.14,0a9.27,9.27,0,0,1,1.3-.74c.15-.08.43-.16.5-.26a.36.36,0,0,0,.06-.37,1.7,1.7,0,0,0-.43-.6s-.08-.19,0-.25a5.82,5.82,0,0,0,.39-.79A5.8,5.8,0,0,0,61.87,5a2.61,2.61,0,0,1,.06-.43c.06-.19.18-.82.28-1.12s.24-.83.29-.93a5.89,5.89,0,0,0,.24-.58.76.76,0,0,0,0-.47.17.17,0,0,0-.22-.12h0c-.13.06-.3.28-.55.47a8.11,8.11,0,0,0-1.2.89c-.49.47-.28.36-.42.42S60.17,3,60.1,3h-.21s0,.13,0,.2a9,9,0,0,0-.84,2c-.15.64-.35,2-.44,2.4a15.85,15.85,0,0,1-.31,2.05A13.82,13.82,0,0,1,57,11a4.17,4.17,0,0,1-1.41.79c-.06,0,0-.1,0-.17a.38.38,0,0,1,.22-.15h.25c.08,0,0-.35.1-.44s1-.88,1.23-1.15.63-.65.57-.75a.65.65,0,0,0-.41-.35H57.1c-.12,0-.46.13-.48,0s.37-.35.4-.41a1.29,1.29,0,0,0,.08-.28,1.14,1.14,0,0,0-.1-.45c0-.1,0-.35-.12-.33s0,.25-.08.29l-.35.25c0,.05-.07.13-.11.13s-.19,0-.16-.07a4,4,0,0,0,0-.6,1.3,1.3,0,0,0,.18-.23l.19-.19c.13-.1.4-.15.41-.26s0-.33,0-.35a.35.35,0,0,1-.2-.18,3.79,3.79,0,0,1-.2-.34s0-.09-.19-.08a2,2,0,0,0-.65.37c-.24.16-.48.31-.5.47s.24.42.29.52.12.17,0,.27a4.09,4.09,0,0,0-.7,1,.61.61,0,0,0,0,.27A3.26,3.26,0,0,0,55,9.4a.11.11,0,0,0,.16,0h0c.06,0,.17.06.08.15a4.54,4.54,0,0,1-.48.39c-.09.07-.5.48-.59.56s-.39.23-.5.31-.15.16-.1.23.14.35.27.41a.3.3,0,0,0,.33-.08c.1-.08.39-.4.55-.57,0,0,.09,0,.14,0a.83.83,0,0,1,.06-.21,1.94,1.94,0,0,1,.57-.57c.09-.06.14.06.16.12a.48.48,0,0,1,0,.17v.19a.21.21,0,0,1-.07.14c-.12.16-.47.17-.68.2a.83.83,0,0,0,.46.11c.08,0,.17.1.13.15a3.6,3.6,0,0,1-.69.66.51.51,0,0,0-.17.49c0,.2.1.5.23.46s.58-.19.69-.24a2.22,2.22,0,0,1,.41-.2,1.68,1.68,0,0,0,.71-.28c.19-.15.45-.31.56-.42a2,2,0,0,1,.28-.3,2.42,2.42,0,0,0,.51-.5c.06-.06.12-.15.24-.07s0,.47,0,.6a3.1,3.1,0,0,0,.1.68,1.08,1.08,0,0,0,.68.54c.23,0,.51.13.66.07a4.9,4.9,0,0,0,.62-.38l.38-.35c.13-.1.34-.15.42-.27s.37-.37.45-.46l.16-.19a.28.28,0,0,1,.24-.13c.16,0,.74.49,1.07.6a4.09,4.09,0,0,0,1.2.21,5.24,5.24,0,0,0,1.79-.4S65.88,11.19,65.84,11.13ZM61.23,6.76c0,.12.05.23,0,.31a3.2,3.2,0,0,1-.79.38c-.08,0-.1.06-.13-.08s.18-.29.19-.37a.43.43,0,0,1,.17-.33c.13-.1.12.15.24.13s.14-.11.19-.17S61.19,6.54,61.23,6.76Zm-.92-2.28A2,2,0,0,0,60.42,4,2.15,2.15,0,0,1,61,3a8.28,8.28,0,0,1,1.18-.86,3.62,3.62,0,0,1-.24,1.13c-.15.46-.19.61-.32,1-.06.19-.18.1-.25.18s.1-.07-.23.25-.62.45-.73.58a.14.14,0,0,1-.18,0,.11.11,0,0,1,0-.08,1.82,1.82,0,0,1,0-.33C60.15,4.73,60.28,4.56,60.31,4.48ZM56.1,9.6c0-.06.3-.2.47-.28A1.75,1.75,0,0,1,57,9.15a.11.11,0,0,1,.13.11v0a8.9,8.9,0,0,1-.94,1s-.14-.14-.15-.26A3.56,3.56,0,0,1,56.1,9.6Zm-.7-1.11c-.06-.07,0-.13.07-.19s0-.11.1-.12.13.13.06.24S55.43,8.54,55.4,8.49Zm6.05,2.26a.87.87,0,0,1-.2.23c-.29.19-1.26.7-1.39.81a.51.51,0,0,1-.58,0,.64.64,0,0,1-.2-.39,5.57,5.57,0,0,1,0-1,2.73,2.73,0,0,1,.15-.89c0-.1.28.18.43.22l.55.16a2.91,2.91,0,0,1,.79.39,2.33,2.33,0,0,1,.5.31A.14.14,0,0,1,61.45,10.75Zm.71-1.06a2.41,2.41,0,0,1-.33-.15c-.12-.07,0-.28.1-.26A1.2,1.2,0,0,0,62.48,9c.1-.07.18,0,.13.13a3.52,3.52,0,0,0-.3.45C62.28,9.66,62.21,9.71,62.16,9.69Z" transform="translate(0 0)"/><path id="_Path_2" data-name=" Path 2" class="cls-2" d="M57.2,3.14c.06-.13.48-.16.66-.12s.37.36.44.52a.8.8,0,0,1,.08.4c-.05.11-.22.11-.39.16a1.4,1.4,0,0,0-.34.13,1.82,1.82,0,0,0-.38.29A.3.3,0,0,1,57,4.6V4.43a.92.92,0,0,0,.22-.57.53.53,0,0,1-.09-.3A1,1,0,0,1,57.2,3.14Z" transform="translate(0 0)"/><path id="_Path_3" data-name=" Path 3" class="cls-2" d="M57.14.85c.07,0,.12.1.22.15s.11.1.19.1.1.17.16.22.12.2.18.26a1.37,1.37,0,0,0,.16.18.3.3,0,0,1,0,.36.7.7,0,0,1-.32.24,2.11,2.11,0,0,0-.61.16,3.12,3.12,0,0,0-.53.43,7,7,0,0,0-.81,1.2c-.17.29-.78,1.34-1,1.76-.07.17-.46,1-.61,1.31s-.63,1.26-.72,1.5,0,.57-.13.69a.24.24,0,0,1-.33,0,.77.77,0,0,1-.27-.35,1.62,1.62,0,0,1,.07-.58A.29.29,0,0,1,53,8.3h.21a3.44,3.44,0,0,0,.42-.65c.16-.31.59-1.21.69-1.42s.31-.68.49-1a19.7,19.7,0,0,1,.93-2.1c.06-.09.35-.69.52-1A9.37,9.37,0,0,1,57.14.85" transform="translate(0 0)"/><path id="_Compound_Path_4" data-name=" Compound Path 4" class="cls-2" d="M37.45,2.66c0-.08-.33-.06-.49-.07a7.43,7.43,0,0,0-1.25.05c-.51.09-.83.37-1,.33s-.08-.24-.1-.41A1.41,1.41,0,0,0,34.4,2a7.8,7.8,0,0,0-.59-.7c-.09-.08-.34-.39-.48-.53A2.35,2.35,0,0,0,33,.47a.34.34,0,0,0-.46-.06,1.76,1.76,0,0,0-.4.67,1.1,1.1,0,0,0,0,.51,1.73,1.73,0,0,1-.09.78v.42a2.07,2.07,0,0,1-.06.5v.44A1.43,1.43,0,0,0,31.9,4s.1,0,.1.13a1.27,1.27,0,0,0-.06.28l-.58.43c-.18.14-.48.35-.57.41l-.67.46a2.7,2.7,0,0,1-.39.27c-.06,0-.21-.23-.28-.29s-.36-.33-.56-.54-.4-.61-.5-.58-.22.23-.26.39a2.74,2.74,0,0,0,.17,1.36c.15.29.47,1.79,1.39,2.39A3,3,0,0,0,31,9.24c.12-.05.09-.32.1-.44a.23.23,0,0,1,.21-.19.25.25,0,0,1,.2.28c0,.31.13,1.76.2,2.32s.14.75.22,1.23a9.47,9.47,0,0,0,.19,1.3c.05.12.3.4.43.39s.16-.13.19-.2-.18-.1-.23-.18a1,1,0,0,1-.11-.29c0-.11-.12-.11-.17-.27a5.4,5.4,0,0,1-.1-.58v-.33a7,7,0,0,0-.12-.71A1.82,1.82,0,0,1,32,11c0-.14,0-.17.11-.17s.1.06.1.15a2.09,2.09,0,0,1,0,.5,1.22,1.22,0,0,0,0,.27v.36a1.69,1.69,0,0,1,0,.45c0,.18.11.28.12.4s-.07.2,0,.37.14.12.16.24.1.09.11.12,0,.19.14.18.15-.15.22-.26.13,0,.2,0,0-.12.14-.14.21-.05.24-.13a.73.73,0,0,0,.07-.48,4.18,4.18,0,0,1,0-1c0-.15.11-.37.1-.45s.08-.16.08-.21.06-.4.07-.54.11-.16.14-.29.1-.61.13-.7A4.25,4.25,0,0,1,34.57,9c.1-.26,0-.57.19-.9.09-.18,0-.44.19-.54s.24,0,.45-.14.16-.29.26-.53.26-.29.22-.47-.34-.08-.44-.17.48-.69.78-1.08.33-.55.5-.76a2.54,2.54,0,0,0,.49-.76A1.89,1.89,0,0,0,37.45,2.66Zm-5.76,4a1.31,1.31,0,0,1,0,.28.67.67,0,0,0,0,.2v.19a.48.48,0,0,1,0,.29,1.43,1.43,0,0,1-.48.4c-.1,0,0-.15-.2-.27a1,1,0,0,1-.28-.41c-.09-.14-.07-.22-.17-.35a.33.33,0,0,1,0-.39s.25-.17.35-.25l.31-.23a2.88,2.88,0,0,1,.35-.26c.09-.06.2-.1.22.08s-.06.6,0,.73Zm1.45,6.48A.29.29,0,0,1,32.9,13a2,2,0,0,1-.13-.42,2.81,2.81,0,0,1,0-.41,2.54,2.54,0,0,0,0-.39c0-.15.17-.3.17-.44V11c0-.18.07-.27.14-.27s.08,0,.1.13v.43a1.13,1.13,0,0,1,0,.26,1.09,1.09,0,0,1,0,.44v.26c0,.11-.06.26-.07.41s.11.25.11.4,0,.1-.08.09Zm3.19-9.41a10.45,10.45,0,0,1-.74,1.13,9.68,9.68,0,0,1-.9,1c-.06,0-.12-.06-.14-.21a.71.71,0,0,1,0-.29v-.2a2.1,2.1,0,0,1-.07-.56V4.16c0-.14.32-.3.49-.41s.27-.23.4-.3a.8.8,0,0,1,.46-.07c.17,0,.38-.07.47,0s.05.24,0,.36Z" transform="translate(0 0)"/></g></g></svg>