<svg xmlns="http://www.w3.org/2000/svg" viewBox="0 0 80 28.87"><defs><style>.cls-1{fill:#352416;}.cls-2{fill:#c4d930;}</style></defs><title>Bankia</title><g id="Layer_2" data-name="Layer 2"><g id="Bankia"><g id="_Group_" data-name="&lt;Group&gt;"><rect id="_Path_" data-name="&lt;Path&gt;" class="cls-1" width="80" height="28.87"/><path id="_Path_2" data-name="&lt;Path&gt;" class="cls-2" d="M44.16,11.68A2.92,2.92,0,0,0,42,10.89a7.62,7.62,0,0,0-3.67.69l-1.53-.79v9.93h2V13.26a4.66,4.66,0,0,1,2.72-.63,1.52,1.52,0,0,1,1.1.36,1.73,1.73,0,0,1,.33,1.19v6.54h2V13.86a3,3,0,0,0-.77-2.18"/><path id="_Compound_Path_" data-name="&lt;Compound Path&gt;" class="cls-2" d="M29,18.81a1,1,0,0,1-.33-.82,1.14,1.14,0,0,1,.2-.66,2.67,2.67,0,0,1,1.29-.89,13.37,13.37,0,0,1,2.67-.68v3a6.66,6.66,0,0,1-2.28.45,5.07,5.07,0,0,1-.55,0A2,2,0,0,1,29,18.81Zm5-7a3.32,3.32,0,0,0-2.52-.88,10.15,10.15,0,0,0-3.76.7l-.21.08L28,13.28l.25-.09a8.58,8.58,0,0,1,3.1-.59,1.56,1.56,0,0,1,1.12.35A1.42,1.42,0,0,1,32.83,14v.2a11.72,11.72,0,0,0-4.66,1.44,2.92,2.92,0,0,0-1.47,2.53A2.24,2.24,0,0,0,27.5,20a3.71,3.71,0,0,0,2,.7,9.79,9.79,0,0,0,1,.06,8.64,8.64,0,0,0,2.82-.47l1.42.52v-6.7A3.34,3.34,0,0,0,34,11.76"/><path id="_Compound_Path_2" data-name="&lt;Compound Path&gt;" class="cls-2" d="M59.09,18.81a1,1,0,0,1-.33-.82,1.21,1.21,0,0,1,.19-.66,2.76,2.76,0,0,1,1.3-.89,13.37,13.37,0,0,1,2.67-.68v3a6.75,6.75,0,0,1-2.28.45,5.25,5.25,0,0,1-.56,0A1.94,1.94,0,0,1,59.09,18.81Zm5-7a3.33,3.33,0,0,0-2.53-.88,10.1,10.1,0,0,0-3.75.7l-.21.08.45,1.62.25-.09a8.68,8.68,0,0,1,3.11-.59,1.58,1.58,0,0,1,1.12.35A1.46,1.46,0,0,1,62.92,14v.2a11.67,11.67,0,0,0-4.66,1.44,2.9,2.9,0,0,0-1.47,2.53A2.23,2.23,0,0,0,57.58,20a3.75,3.75,0,0,0,2,.7,9.79,9.79,0,0,0,1,.06,8.69,8.69,0,0,0,2.82-.47l1.41.52v-6.7a3.34,3.34,0,0,0-.77-2.38"/><polyline id="_Path_3" data-name="&lt;Path&gt;" class="cls-2" points="52.23 10.98 49.71 10.98 45.47 15.92 49.56 20.72 52.07 20.72 47.98 15.93 52.23 10.98"/><rect id="_Path_4" data-name="&lt;Path&gt;" class="cls-2" x="53.4" y="10.98" width="1.98" height="9.74"/><path id="_Compound_Path_3" data-name="&lt;Compound Path&gt;" class="cls-2" d="M21.38,19a6.32,6.32,0,0,1-3.22-.4V11a4.64,4.64,0,0,1,2.51-.18c1.79.46,1.41,2-.06,3.44,1.79.17,3.28,1.1,3.28,2.46S22.66,18.8,21.38,19Zm1.87-5.57a2.57,2.57,0,0,0-1.19-4.17,12.07,12.07,0,0,0-5.86.25V20.84L18,20.32a9.93,9.93,0,0,0,3.56.44,5,5,0,0,0,3.13-1.11,4.08,4.08,0,0,0,1.19-2.81v-.05h0a3.37,3.37,0,0,0-2.6-3.34"/></g></g></g></svg>