<svg xmlns="http://www.w3.org/2000/svg" viewBox="0 0 80 11.86"><defs><style>.cls-1{fill:#f68523;}</style></defs><title>Bankinter</title><g id="Layer_2" data-name="Layer 2"><g id="Bankinter"><g id="_Group_" data-name="&lt;Group&gt;"><path id="_Compound_Path_" data-name="&lt;Compound Path&gt;" class="cls-1" d="M66.79,7.08c2.82-.12,3.26-.35,3.26-1s-.51-1.15-2.11-1.15c-2.06,0-2.32.39-2.32,2.21l1.17-.06M65.65,8.69c.14,1,.63,1.61,2.3,1.61a12.42,12.42,0,0,0,4-.64v1.46a10.33,10.33,0,0,1-4,.74c-3.49,0-4.64-.87-4.64-4.35,0-3,1-4.19,4.6-4.19,3,0,4.31,1,4.34,2.7C72.31,8.12,70.87,8.63,65.65,8.69ZM43.8,2.09H41.64V0H43.8ZM15,10.25c1.59,0,2.06-.25,2.06-1V7.93l-2,.09c-2,.11-2.41.39-2.41,1C12.65,10,12.94,10.25,15,10.25ZM43.8,11.72H41.64V3.51H43.8ZM74,6.15C74,3.93,75.57,3.29,77,3.29c.68,0,2.38.1,2.77.17V5H77.58c-1.19,0-1.48.1-1.48,1.25v5.44H74V6.15ZM4.61,10.25c-2.21,0-2.55-.39-2.55-2.87C2.06,5.26,2.75,5,4.51,5S7,5.26,7,7.38C7,9.86,6.6,10.25,4.61,10.25Zm57.51-5.1H58.54v4c0,.75.54,1,1.42,1A8.94,8.94,0,0,0,62.17,10v1.49a10,10,0,0,1-2.47.37c-2.39,0-3.28-1-3.28-2.49V.93h2.12V3.57h3.58V5.15ZM47.9,11.72V6.56c0-1.26.43-1.6,2.26-1.6s2.28.34,2.28,1.6v5.16h2.15V6.48c0-2.34-1.7-3.11-4.05-3.11h-.72c-2.37,0-4.07.77-4.07,3.11v5.24Zm-24.85,0V6.56c0-1.26.44-1.6,2.26-1.6s2.29.34,2.29,1.6v5.16h2.15V6.48c0-2.34-1.7-3.11-4.05-3.11H25c-2.37,0-4.07.77-4.07,3.11v5.24ZM33.83,8.4v3.32H31.69V0h2.15V6.54h.41A1.44,1.44,0,0,0,35.54,6l2.53-2.47h2.47L36.72,7.42l4.11,4.3H38.08L35.45,8.91A1.3,1.3,0,0,0,34.2,8.4ZM17,6.49V6.11c0-1-.62-1.15-2.26-1.15a11.64,11.64,0,0,0-3.63.58V4a10.73,10.73,0,0,1,3.71-.67c2.35,0,4.34.37,4.34,3V8.88c0,2.93-2.39,2.95-4.34,2.95-2.94,0-4.38-.82-4.38-2.49C10.45,7.1,11.89,6.66,17,6.49ZM4.64,11.83c3.06,0,4.58-.91,4.58-4.19,0-3-1.13-4.3-4.16-4.3A4.33,4.33,0,0,0,2.15,4V0H0V7.84C0,10.84,1.31,11.83,4.64,11.83ZM80,11.72H77.84V9.63H80Z"/></g></g></g></svg>