<svg xmlns="http://www.w3.org/2000/svg" viewBox="0 0 80 12.53"><defs><style>.cls-1{fill:#d71920;}.cls-2{fill:#231f20;}</style></defs><title>bank_pekao</title><g id="Layer_2" data-name="Layer 2"><g id="bank_pekao"><polygon class="cls-1" points="20.42 0 20.42 12.53 20.85 12.53 20.86 0.01 20.42 0 20.42 0 20.42 0"/><path class="cls-1" d="M15.19,8.59s2.18.82,1.91,3.93h0c.09-.2,1.36-2.91-.65-4.16a4,4,0,0,0-.71-3.85C15,3.57,13.59,2.67,11,3.05c0,0-3.21-5.35-8.18-1.84a2.28,2.28,0,0,1-.4,2.06h0c.76-.44,4.34-3.78,8.24.21,0,0,6.14-.57,4.51,5.1Z"/><path class="cls-1" d="M7.45,8.93a2.2,2.2,0,0,1,3.36-.17,2.64,2.64,0,0,1,3.1-.63c.85.39,2.09,1.64.72,4.29h0s.56-2.25-1.07-3.27c-.66-.41-1.87-.33-3.07,1,0,0-.58-1.06-1.54-.76a5.72,5.72,0,0,1-.85,3.13H8s.57-2.43-.59-3.59Z"/><path class="cls-1" d="M1.53,9.45s2-1.64,3.7-.89c1.07.48,1.35,1.8,1.15,3.85h0c.16-.36,2.14-4-.88-5.15a3.86,3.86,0,0,0-2.81.25L1.37,3.67S3.49.8,0,.14v0C.34.35,2.42,1.67.09,3.24L1.53,9.45Z"/><path class="cls-2" d="M27.32,9.4a2.62,2.62,0,0,0,.79-.1,1.73,1.73,0,0,0,.52-.3,1.17,1.17,0,0,0,.29-.44A1.67,1.67,0,0,0,29,8a1.16,1.16,0,0,0-.4-.94,2,2,0,0,0-1.29-.35h-1.7V9.4Zm-1.7-6.28V5.76H27a2.16,2.16,0,0,0,1.31-.34,1.18,1.18,0,0,0,.43-1,1.19,1.19,0,0,0-.4-1,2.12,2.12,0,0,0-1.28-.31ZM27.06,2a5.45,5.45,0,0,1,1.38.16,2.62,2.62,0,0,1,.95.44,1.74,1.74,0,0,1,.54.7,2.33,2.33,0,0,1,.17.93,1.85,1.85,0,0,1-.09.58,1.55,1.55,0,0,1-.28.52,2.27,2.27,0,0,1-.48.44,2.52,2.52,0,0,1-.68.32c1.2.26,1.8.89,1.8,1.91a2.47,2.47,0,0,1-.2,1,2.44,2.44,0,0,1-.59.77,2.7,2.7,0,0,1-.95.51,4.17,4.17,0,0,1-1.28.18h-3.1V2Z"/><path class="cls-2" d="M34.37,7.87A10,10,0,0,0,33.23,8a3.23,3.23,0,0,0-.75.22,1,1,0,0,0-.41.31.66.66,0,0,0-.13.4.8.8,0,0,0,.07.36.64.64,0,0,0,.18.25.87.87,0,0,0,.29.14,1.25,1.25,0,0,0,.35,0,1.87,1.87,0,0,0,.85-.18A2.71,2.71,0,0,0,34.37,9V7.87ZM31,5.34a3.44,3.44,0,0,1,2.42-.94,2.43,2.43,0,0,1,.92.16A1.72,1.72,0,0,1,35,5a2.14,2.14,0,0,1,.42.72,3,3,0,0,1,.14.93v3.8H35a.55.55,0,0,1-.28-.06.39.39,0,0,1-.15-.22l-.13-.49a4.88,4.88,0,0,1-.45.37,3.07,3.07,0,0,1-.46.27,2.78,2.78,0,0,1-.51.17,3.64,3.64,0,0,1-.6.05,2.15,2.15,0,0,1-.68-.1,1.3,1.3,0,0,1-.54-.3,1.43,1.43,0,0,1-.36-.5,1.68,1.68,0,0,1-.13-.7,1.41,1.41,0,0,1,.18-.68,1.73,1.73,0,0,1,.61-.59,4,4,0,0,1,1.12-.43,8,8,0,0,1,1.72-.19v-.4a1.45,1.45,0,0,0-.28-1,1,1,0,0,0-.81-.32,1.82,1.82,0,0,0-.61.09,3.45,3.45,0,0,0-.43.2l-.32.19a.47.47,0,0,1-.3.1.41.41,0,0,1-.22-.07.61.61,0,0,1-.15-.17L31,5.34Z"/><path class="cls-2" d="M37.83,5.3c.13-.13.27-.25.4-.36a2.6,2.6,0,0,1,.45-.28,2,2,0,0,1,.5-.18,2.47,2.47,0,0,1,.57-.07,2.06,2.06,0,0,1,.86.17,1.71,1.71,0,0,1,.63.46,2.08,2.08,0,0,1,.39.72,3.35,3.35,0,0,1,.13.92v3.81H40.5V6.68a1.38,1.38,0,0,0-.28-.93,1,1,0,0,0-.85-.34,1.73,1.73,0,0,0-.78.19,3,3,0,0,0-.68.53v4.36H36.65v-6h.77a.3.3,0,0,1,.32.24l.09.55Z"/><path class="cls-2" d="M44.08,1.81v5h.27a.58.58,0,0,0,.21,0,.47.47,0,0,0,.17-.15l1.68-1.92a.6.6,0,0,1,.19-.17.57.57,0,0,1,.27-.06H48L46,6.78a1.5,1.5,0,0,1-.39.37.91.91,0,0,1,.21.18c.06.07.11.15.17.23l2.15,2.93H47a.72.72,0,0,1-.27-.05.49.49,0,0,1-.19-.19L44.83,7.91a.35.35,0,0,0-.17-.17.64.64,0,0,0-.27,0h-.31v2.79H42.82V1.81Z"/><path class="cls-2" d="M53.91,6.35a2.45,2.45,0,0,0,.8-.12,1.63,1.63,0,0,0,.58-.33,1.33,1.33,0,0,0,.35-.52,1.83,1.83,0,0,0,.12-.68A1.69,1.69,0,0,0,55.64,4a1.24,1.24,0,0,0-.34-.5,1.4,1.4,0,0,0-.58-.31,2.48,2.48,0,0,0-.81-.11H52.65V6.35Zm0-4.31a4.7,4.7,0,0,1,1.43.2,2.81,2.81,0,0,1,1,.54,2.07,2.07,0,0,1,.59.84,2.92,2.92,0,0,1,.19,1.08,2.88,2.88,0,0,1-.2,1.11,2.37,2.37,0,0,1-.61.86,2.82,2.82,0,0,1-1,.56,4.2,4.2,0,0,1-1.39.2H52.65v3.06H51.28V2Z"/><path class="cls-2" d="M61.42,6.82a1.92,1.92,0,0,0-.09-.59,1.43,1.43,0,0,0-.26-.47,1.28,1.28,0,0,0-.44-.32,1.64,1.64,0,0,0-.6-.11A1.46,1.46,0,0,0,59,5.72a1.91,1.91,0,0,0-.5,1.1Zm-3,.78a3.14,3.14,0,0,0,.16.88,1.78,1.78,0,0,0,.36.62,1.45,1.45,0,0,0,.54.37,2,2,0,0,0,.7.12,2,2,0,0,0,.64-.09,3.05,3.05,0,0,0,.47-.19l.34-.18A.51.51,0,0,1,61.88,9a.26.26,0,0,1,.23.12l.36.46a2.13,2.13,0,0,1-.5.45,2.77,2.77,0,0,1-.6.29,3.66,3.66,0,0,1-.65.17,4.87,4.87,0,0,1-.65.05,3.06,3.06,0,0,1-1.15-.21A2.51,2.51,0,0,1,58,9.76a2.76,2.76,0,0,1-.61-1,3.86,3.86,0,0,1-.22-1.37,3.42,3.42,0,0,1,.19-1.17,2.59,2.59,0,0,1,.57-.93,2.48,2.48,0,0,1,.89-.63A3,3,0,0,1,61,4.59a2.15,2.15,0,0,1,.81.53,2.27,2.27,0,0,1,.53.84,3.19,3.19,0,0,1,.19,1.15.87.87,0,0,1-.06.39.27.27,0,0,1-.23.1Z"/><path class="cls-2" d="M64.58,1.81v5h.27a.66.66,0,0,0,.21,0,.73.73,0,0,0,.17-.15l1.68-1.92a.51.51,0,0,1,.19-.17.54.54,0,0,1,.27-.06h1.14l-2,2.27a1.5,1.5,0,0,1-.39.37.7.7,0,0,1,.2.18,2,2,0,0,1,.17.23l2.16,2.93H67.51a.67.67,0,0,1-.26-.05.43.43,0,0,1-.19-.19L65.33,7.91a.4.4,0,0,0-.18-.17.59.59,0,0,0-.26,0h-.31v2.79H63.32V1.81Z"/><path class="cls-2" d="M72.22,7.87A9.82,9.82,0,0,0,71.09,8a3.23,3.23,0,0,0-.75.22,1,1,0,0,0-.42.31.72.72,0,0,0-.12.4,1,1,0,0,0,.06.36.79.79,0,0,0,.19.25.92.92,0,0,0,.28.14,1.37,1.37,0,0,0,.36,0,1.8,1.8,0,0,0,.84-.18A2.41,2.41,0,0,0,72.22,9V7.87ZM68.88,5.34A3.42,3.42,0,0,1,71.3,4.4a2.43,2.43,0,0,1,.92.16,1.79,1.79,0,0,1,.67.48,2.14,2.14,0,0,1,.42.72,3,3,0,0,1,.14.93v3.8h-.56a.53.53,0,0,1-.28-.06.45.45,0,0,1-.16-.22l-.12-.49a4.88,4.88,0,0,1-.45.37,3.07,3.07,0,0,1-.46.27,2.78,2.78,0,0,1-.51.17,3.64,3.64,0,0,1-.6.05,2.11,2.11,0,0,1-.68-.1,1.3,1.3,0,0,1-.54-.3,1.22,1.22,0,0,1-.36-.5,1.68,1.68,0,0,1-.14-.7,1.43,1.43,0,0,1,.19-.68,1.73,1.73,0,0,1,.61-.59,4,4,0,0,1,1.12-.43,7.94,7.94,0,0,1,1.71-.19v-.4a1.45,1.45,0,0,0-.27-1,1,1,0,0,0-.81-.32,1.78,1.78,0,0,0-.61.09,2.89,2.89,0,0,0-.43.2l-.32.19a.47.47,0,0,1-.3.1.38.38,0,0,1-.22-.07.61.61,0,0,1-.15-.17l-.23-.41Z"/><path class="cls-2" d="M77.1,9.59a1.38,1.38,0,0,0,1.2-.54,2.56,2.56,0,0,0,.4-1.55,2.61,2.61,0,0,0-.4-1.56,1.39,1.39,0,0,0-1.2-.55,1.41,1.41,0,0,0-1.22.55,2.61,2.61,0,0,0-.4,1.56,2.56,2.56,0,0,0,.4,1.55,1.41,1.41,0,0,0,1.22.54Zm0-5.18a3.29,3.29,0,0,1,1.2.22,2.63,2.63,0,0,1,.91.62,2.57,2.57,0,0,1,.58,1A3.7,3.7,0,0,1,80,7.49a3.66,3.66,0,0,1-.21,1.28,2.7,2.7,0,0,1-.58,1,2.5,2.5,0,0,1-.91.62,3.41,3.41,0,0,1-2.41,0A2.54,2.54,0,0,1,75,9.74a2.7,2.7,0,0,1-.58-1,3.66,3.66,0,0,1-.21-1.28,3.7,3.7,0,0,1,.21-1.28,2.57,2.57,0,0,1,.58-1,2.67,2.67,0,0,1,.92-.62,3.3,3.3,0,0,1,1.21-.22Z"/></g></g></svg>