<svg xmlns="http://www.w3.org/2000/svg" xmlns:xlink="http://www.w3.org/1999/xlink" viewBox="0 0 79.6 25.51"><defs><style>.cls-1{fill:none;}.cls-2{fill:#07707a;}.cls-2,.cls-4{fill-rule:evenodd;}.cls-3{clip-path:url(#clip-path);}.cls-4{fill:#696b71;}</style><clipPath id="clip-path" transform="translate(-0.12 -0.37)"><rect class="cls-1" width="80" height="26.01"/></clipPath></defs><title>Bank-BGZ</title><g id="Layer_2" data-name="Layer 2"><g id="Bank-BGZ"><path class="cls-2" d="M53,6.94a21.62,21.62,0,0,0-3.6.24V20.12a21,21,0,0,0,3,.2q3.49,0,4.91-1.27a3.29,3.29,0,0,0,1.27-2.72A3,3,0,0,0,56,13.17v-.05a2.88,2.88,0,0,0,2-2.82,2.81,2.81,0,0,0-1.36-2.58A7,7,0,0,0,53,6.94Zm-.58,7.49h.77c1.47,0,2.19.6,2.19,1.8s-.7,1.85-2.14,1.85a4.41,4.41,0,0,1-.82,0Zm0-5.2a3.55,3.55,0,0,1,.92-.1c1.17,0,1.75.51,1.75,1.51s-.66,1.65-2,1.65h-.68Z" transform="translate(-0.12 -0.37)"/><path class="cls-2" d="M76,9.57v0l-1.7,2.88c-.66,0-1.34.06-2,.11-.15.34-.29.69-.44,1,.63,0,1.24,0,1.8,0l-2.87,4.86v1.7h9V17.64H74.56v-.05l2.16-3.69a10,10,0,0,1,1.64.34l1-1.61c-.6-.06-1.21-.1-1.84-.11l2.08-3.58V7H71.21V9.57Z" transform="translate(-0.12 -0.37)"/><path class="cls-2" d="M69.17,7.43a7,7,0,0,0-3.07-.54A6.73,6.73,0,0,0,61.34,8.6a6.57,6.57,0,0,0-2,5.1,6.89,6.89,0,0,0,1.8,5.06,6.48,6.48,0,0,0,4.62,1.56,10.67,10.67,0,0,0,3.74-.64v-7.1H65.13V15h1.55v2.77a2.28,2.28,0,0,1-.92.09q-3.26,0-3.26-4.13c0-2.82,1.24-4.23,3.7-4.23a6.42,6.42,0,0,1,2.43.44Z" transform="translate(-0.12 -0.37)"/><g class="cls-3"><path class="cls-2" d="M9.41.37C9.2.29,7.29,2.92,6.85,3.78a.1.1,0,0,0,0,.17l.48.16c-1.83,5.31-.82,9.17,1,12.16a16.12,16.12,0,0,0,3.5,4.09s.19.15.27.1,0-.1,0-.1C6.5,14.45,7.5,8.8,8.72,4.59l.49.17c.06,0,.11,0,.12-.09.16-1,.29-4.23.08-4.3Z" transform="translate(-0.12 -0.37)"/><path class="cls-2" d="M5.59,10.82c-.12-.29-1.85.28-2.45.56A5.59,5.59,0,0,0,.47,13.56a3.19,3.19,0,0,0,2.7,4.68c.3,0,.47-.07.45-.23a.2.2,0,0,0-.24-.19,1.4,1.4,0,0,1-.59-.05,2.57,2.57,0,0,1-1.59-1.3,1.92,1.92,0,0,1,0-1.61h0a4.64,4.64,0,0,1,2.66-2.2,3.11,3.11,0,0,1,.64-.19,16.81,16.81,0,0,1,.81,5.9,25.22,25.22,0,0,1-1.21,7.41.06.06,0,0,0,.09.08,6,6,0,0,0,.7-1.38c2.29-5.75,1.64-11.27.71-13.67Z" transform="translate(-0.12 -0.37)"/></g><path class="cls-2" d="M5.56,8.59A1.31,1.31,0,1,1,4.25,7.28,1.31,1.31,0,0,1,5.56,8.59Z" transform="translate(-0.12 -0.37)"/><path class="cls-4" d="M34.86,11.73c1.64,0,2.41,1,2.41,3.09v5.41h1.07V14.72c0-2.61-1.07-3.87-3.1-3.87a3,3,0,0,0-3.09,1.84h-.1V11.05h-1v9.18h1.06v-5.7a2.47,2.47,0,0,1,2.71-2.8Z" transform="translate(-0.12 -0.37)"/><path class="cls-4" d="M40.83,6.7H39.76V20.23h1.07V16.46l.87-1,3.48,4.73h1.35l-4.16-5.41,3.68-3.77H44.69L40.83,15.4Z" transform="translate(-0.12 -0.37)"/><path class="cls-4" d="M19.6,13.37v-.1a2.76,2.76,0,0,0,2.22-2.8c0-2.13-1.35-3.19-4.16-3.19a11.6,11.6,0,0,0-2.61.29V20.23a20.64,20.64,0,0,0,2.23.1c1.93,0,3.28-.39,4-1.26a3.05,3.05,0,0,0,1-2.41,3,3,0,0,0-2.7-3.29ZM16,8.24a7.4,7.4,0,0,1,1.64-.09c2,0,3.1.77,3.1,2.32s-1,2.51-3,2.51H16Zm0,5.61h1.54c2.42,0,3.68.87,3.68,2.81s-1.26,2.8-3.68,2.8L16,19.36Z" transform="translate(-0.12 -0.37)"/><path class="cls-4" d="M23.85,11.63l.29.77a3.39,3.39,0,0,1,2.22-.67c1.55,0,2.23,1,2.23,2.8-3.58,0-5.42,1.06-5.42,3.38a2.28,2.28,0,0,0,2.61,2.52A3.22,3.22,0,0,0,28.68,19l.1,1.25h1c0-.48-.1-1.16-.1-2.22V14.43c0-2.42-1.06-3.58-3.19-3.58a4.34,4.34,0,0,0-2.61.78Zm4.83,5.7c0,1.45-.87,2.23-2.7,2.23a1.54,1.54,0,0,1-1.74-1.74c0-1.65,1.45-2.42,4.44-2.42Z" transform="translate(-0.12 -0.37)"/></g></g></svg>