<svg xmlns="http://www.w3.org/2000/svg" viewBox="0 0 80 25.08"><defs><style>.cls-1,.cls-3{fill:#c92128;}.cls-2{fill:#102648;}.cls-2,.cls-3{fill-rule:evenodd;}</style></defs><title>Bank_Pocztowy</title><g id="Layer_2" data-name="Layer 2"><g id="Bank_Pocztowy"><path class="cls-1" d="M1.51,14.6a13,13,0,0,1,2.15-.18,3.91,3.91,0,0,1,2,.42,1.61,1.61,0,0,1,.94,1.45A2,2,0,0,1,5,18.18v0A1.73,1.73,0,0,1,6.28,20a2.2,2.2,0,0,1-1.12,1.88,5.76,5.76,0,0,1-3.09.65A11.75,11.75,0,0,1,0,22.33ZM2,21.11a4.47,4.47,0,0,0,.67,0c.95,0,1.81-.37,1.81-1.25s-.68-1-1.49-1H2.39Zm.7-3.48h.59c1,0,1.62-.4,1.62-1.07s-.49-.82-1.16-.82a3.54,3.54,0,0,0-.68,0Z"/><path class="cls-1" d="M10.89,22.43c0-.35,0-.74.09-1.15h0a2.24,2.24,0,0,1-2,1.27,1.81,1.81,0,0,1-1.8-2,4,4,0,0,1,4.26-4,7,7,0,0,1,2,.29l-.63,3a12.76,12.76,0,0,0-.23,2.6Zm.51-4.57a2.26,2.26,0,0,0-.47-.05c-1.14,0-2,1.35-2,2.42,0,.56.23.95.72.95s1.16-.57,1.43-2Z"/><path class="cls-1" d="M13.8,22.43l.75-3.9c.15-.73.24-1.37.32-1.88h1.55l-.12,1h0a2.53,2.53,0,0,1,2.09-1.09,1.41,1.41,0,0,1,1.52,1.58,8.33,8.33,0,0,1-.09,1l-.66,3.36H17.43l.63-3.2a4.62,4.62,0,0,0,.05-.65c0-.4-.14-.69-.58-.69s-1.24.7-1.48,2l-.5,2.57Z"/><path class="cls-1" d="M20.65,22.43l1.62-8.38H24l-1,5h0l.53-.66,1.52-1.75h2.16L24.75,19l1.65,3.4H24.46L23.41,20l-.66.61-.37,1.86Z"/><path class="cls-1" d="M30.8,14.63a9.85,9.85,0,0,1,2.14-.21,3.91,3.91,0,0,1,2.18.53A1.94,1.94,0,0,1,36,16.63a2.72,2.72,0,0,1-1.13,2.24,4.3,4.3,0,0,1-2.61.73,6.57,6.57,0,0,1-.72,0L31,22.43H29.27Zm1,3.55a3.75,3.75,0,0,0,.67.06,1.58,1.58,0,0,0,1.75-1.46c0-.76-.57-1-1.25-1a3,3,0,0,0-.71.06Z"/><path class="cls-1" d="M41.74,18.9a3.48,3.48,0,0,1-3.55,3.65,2.32,2.32,0,0,1-2.52-2.38,3.51,3.51,0,0,1,3.55-3.65A2.33,2.33,0,0,1,41.74,18.9Zm-4.26,1.24c0,.67.34,1.12,1,1.12,1,0,1.5-1.36,1.5-2.35,0-.53-.23-1.1-.94-1.1C38,17.81,37.47,19.24,37.48,20.14Z"/><path class="cls-1" d="M46.72,22.25a4.16,4.16,0,0,1-1.69.3,2.28,2.28,0,0,1-2.51-2.37,3.69,3.69,0,0,1,3.88-3.66,3.74,3.74,0,0,1,1.2.19L47.18,18a2.13,2.13,0,0,0-.8-.14,2,2,0,0,0-2,2.11,1.09,1.09,0,0,0,1.16,1.19A3.1,3.1,0,0,0,46.71,21Z"/><path class="cls-1" d="M47.71,21.4l1.93-2a15.47,15.47,0,0,1,1.46-1.33v0H48.57l.27-1.39h4.65l-.2,1.08-1.89,2A14.77,14.77,0,0,1,49.94,21v0h2.8l-.29,1.39H47.52Z"/><path class="cls-1" d="M57.25,15.09l-.31,1.56h1.27L58,17.94H56.68l-.4,2a4.84,4.84,0,0,0-.09.73.43.43,0,0,0,.49.48,4,4,0,0,0,.49,0L57,22.43a3.71,3.71,0,0,1-1,.12c-1,0-1.55-.53-1.55-1.25a5.22,5.22,0,0,1,.13-1.07L55,17.94h-.76l.25-1.29h.77l.21-1.08Z"/><path class="cls-1" d="M64.2,18.9a3.43,3.43,0,0,1-3.45,3.65,2.28,2.28,0,0,1-2.44-2.38,3.46,3.46,0,0,1,3.45-3.65A2.3,2.3,0,0,1,64.2,18.9Zm-4.13,1.24c0,.67.33,1.12.92,1.12.93,0,1.45-1.36,1.45-2.35,0-.53-.22-1.1-.91-1.1C60.55,17.81,60.05,19.24,60.07,20.14Z"/><path class="cls-1" d="M66.85,16.65V19.1c0,.66,0,1.2-.06,1.84h0c.21-.61.48-1.19.73-1.77l1.17-2.52h1.44l.15,2.44c0,.67,0,1.24,0,1.85h0c.2-.64.41-1.22.66-1.88l1-2.41h1.76l-2.89,5.78H69.25l-.17-2c0-.6-.06-1.16-.06-1.85h0c-.32.81-.46,1.25-.7,1.77l-1,2.09H65.63l-.56-5.78Z"/><path class="cls-1" d="M76,16.65l.37,2.52c.08.59.14,1,.19,1.37h0c.14-.35.27-.72.52-1.35l1.09-2.54H80l-2.13,4.14a11.48,11.48,0,0,1-2.29,3.31,4,4,0,0,1-1.91,1l-.39-1.45a4.21,4.21,0,0,0,1-.46,3.18,3.18,0,0,0,1-1,.29.29,0,0,0,0-.28l-1.18-5.23Z"/><path class="cls-2" d="M44.06,7.15c-.83.92-2,1.21-2.63.65S41,6,41.78,5.11s2-1.2,2.63-.64S44.88,6.24,44.06,7.15Z"/><path class="cls-3" d="M46.09,1.51c-1.18-1.06-3.39-.5-5,1.24s-1.87,4-.69,5.06a1.65,1.65,0,0,0,.63.35l.05,0A.17.17,0,0,0,41.31,8a.2.2,0,0,0-.1-.18l0,0c-.85-.76-.64-2.38.47-3.62s2.7-1.62,3.54-.86.66,2.2-.29,3.4a.29.29,0,0,0,0,.08.13.13,0,0,0,.13.13.22.22,0,0,0,.1,0c.09-.08.21-.22.29-.31C47,4.83,47.27,2.57,46.09,1.51Z"/><path class="cls-3" d="M50.87,3.65a.35.35,0,0,0-.3.17h0s-3.34,4.76-7.88,4.81a3.79,3.79,0,0,1-4.18-4.05A6.45,6.45,0,0,1,40.26.31a.2.2,0,0,0,.06-.13A.18.18,0,0,0,40.14,0h0A29.57,29.57,0,0,0,28.87,6a.18.18,0,0,0-.08.16.19.19,0,0,0,.18.19h.12a11.36,11.36,0,0,1,6.5,2.43A10.51,10.51,0,0,0,41.72,11s5.23.62,9.44-6.81a.81.81,0,0,0,.06-.2A.35.35,0,0,0,50.87,3.65Z"/></g></g></svg>