<svg id="Layer_1" data-name="Layer 1" xmlns="http://www.w3.org/2000/svg" viewBox="0 0 19.99 19.99"><title>bank</title><path d="M24.67,25H5.33A.33.33,0,0,1,5,24.67v-2a.33.33,0,0,1,.33-.33H24.66a.33.33,0,0,1,.33.33v2A.32.32,0,0,1,24.67,25Zm-19-.67H24.34V23H5.67Z" transform="translate(-5 -5.01)"/><path d="M24,23H6a.33.33,0,0,1-.33-.33V21.34A.34.34,0,0,1,6,21H24a.33.33,0,0,1,.33.33v1.33A.34.34,0,0,1,24,23ZM6.33,22.33H23.66v-.67H6.33Z" transform="translate(-5 -5.01)"/><path d="M10,21.67H8a.33.33,0,0,1-.33-.33V12.67A.33.33,0,0,1,8,12.34h2a.33.33,0,0,1,.33.33v8.67A.33.33,0,0,1,10,21.67ZM8.33,21H9.66V13H8.33Z" transform="translate(-5 -5.01)"/><path d="M14,21.67H12a.33.33,0,0,1-.33-.33V12.67a.33.33,0,0,1,.33-.33h2a.33.33,0,0,1,.33.33v8.67A.33.33,0,0,1,14,21.67ZM12.33,21h1.33V13H12.33Z" transform="translate(-5 -5.01)"/><path d="M18,21.67H16a.33.33,0,0,1-.33-.33V12.67a.33.33,0,0,1,.33-.33h2a.33.33,0,0,1,.33.33v8.67A.33.33,0,0,1,18,21.67ZM16.33,21h1.33V13H16.33Z" transform="translate(-5 -5.01)"/><path d="M22,21.67H20a.33.33,0,0,1-.33-.33V12.67a.33.33,0,0,1,.33-.33h2a.33.33,0,0,1,.33.33v8.67A.33.33,0,0,1,22,21.67ZM20.33,21h1.33V13H20.33Z" transform="translate(-5 -5.01)"/><path d="M24.67,11.67H5.33A.33.33,0,0,1,5,11.43a.34.34,0,0,1,.14-.37l9.33-6a.34.34,0,0,1,.35,0l10,6a.33.33,0,0,1,.15.37A.31.31,0,0,1,24.67,11.67ZM6.47,11h17L14.67,5.73Z" transform="translate(-5 -5.01)"/><path d="M23.33,13H6.67a.33.33,0,0,1-.33-.33V11.34A.33.33,0,0,1,6.67,11H23.34a.33.33,0,0,1,.33.33v1.33A.34.34,0,0,1,23.33,13ZM7,12.33H23v-.67H7Z" transform="translate(-5 -5.01)"/><path d="M21.81,11.67a.34.34,0,0,1-.17-.05l-7-4.22L8.3,11.61a.33.33,0,0,1-.37-.55l6.55-4.33a.36.36,0,0,1,.36,0L22,11.05a.33.33,0,0,1-.17.62Z" transform="translate(-5 -5.01)"/></svg>