<svg xmlns="http://www.w3.org/2000/svg" viewBox="0 0 80 16.65"><defs><style>.cls-1,.cls-2{fill-rule:evenodd;}.cls-2{fill:#00693f;}</style></defs><title>Bank-Zachodni-WBK</title><g id="Layer_2" data-name="Layer 2"><g id="Bank-Zachodni-WBK"><polygon class="cls-1" points="19.12 9.61 19.12 9.43 60.35 9.43 60.35 9.61 19.12 9.61 19.12 9.61"/><path class="cls-2" d="M37.2,3.26h-.48l.51.9.57-.9h-.38V2.47h2.82v.79h-.39l.45.9.58-.9h-.42V2.47h2.47v.79h-.59L40.85,5.61H38.5l-.34-.68h0l-.41.68H35.31L34.09,3.26h-.55V2.47H37.2v.79Zm17.59,0h-.63V4.83h.63v.78h-4V4.83h.63V3.26H50.8V2.47h4v.79Zm4.25,0H58.4l-1.2.83,1.2.74H59v.78H55V4.83h.29l-1-.76,1-.81H55V2.47H59v.79Zm-9.38.81a.81.81,0,1,0,0-1.6H43.18v.79h.48V4.83h-.48v.78h6.48c1.11,0,1.28-1.54,0-1.54Zm-2,.76h-1.1V4.44h1.1c.33,0,.32.39,0,.39Zm0-1.16h-1.1V3.26h1.1a.21.21,0,1,1,0,.41Z"/><path class="cls-2" d="M27.17,2.48c0,.37-.1.46-.56.85L24.86,4.76h1.62c.49,0,.69.17.69.68a.62.62,0,0,1-.71.68H22.8c-.55,0-.56-.33-.56-.51s.07-.47.53-.85l1.77-1.44H23c-.53,0-.79-.14-.79-.66S22.56,2,23,2h3.58a.52.52,0,0,1,.59.52Zm2.26-.15A2.59,2.59,0,0,1,28.73,4a1.86,1.86,0,0,1,.7,1.56c0,1.48-.95,2.49-2.76,2.49H20.44V0h6.23c2,0,2.76,1.15,2.76,2.33ZM28,2.36c0,1-.78,1.36-1.29,1.68.51.24,1.29.58,1.29,1.4a1.25,1.25,0,0,1-1.29,1.3H21.79V1.33h4.88c1,0,1.28.63,1.28,1Z"/><path class="cls-1" d="M0,16.56V11.47H1.91a2.46,2.46,0,0,1,.94.15,1.17,1.17,0,0,1,.55.48,1.19,1.19,0,0,1,.2.67,1.26,1.26,0,0,1-.17.62,1.3,1.3,0,0,1-.54.46,1.34,1.34,0,0,1,.71.46,1.23,1.23,0,0,1,.25.78,1.49,1.49,0,0,1-.15.66,1.25,1.25,0,0,1-.38.48,1.56,1.56,0,0,1-.55.25,3.33,3.33,0,0,1-.83.08Zm.67-2.95H1.78a2.39,2.39,0,0,0,.64-.06.78.78,0,0,0,.39-.25.8.8,0,0,0,.13-.45.84.84,0,0,0-.12-.45.62.62,0,0,0-.35-.26,2.83,2.83,0,0,0-.78-.07h-1v1.54ZM.67,16H1.94l.46,0a1.18,1.18,0,0,0,.39-.14.78.78,0,0,0,.26-.28.88.88,0,0,0,.1-.43.84.84,0,0,0-.15-.5.76.76,0,0,0-.4-.3,2.79,2.79,0,0,0-.75-.08H.67V16Zm6.44.15a2.53,2.53,0,0,1-.67.42,2,2,0,0,1-.69.12,1.34,1.34,0,0,1-.94-.3,1,1,0,0,1-.32-.76,1,1,0,0,1,.12-.49,1.14,1.14,0,0,1,.32-.37,1.82,1.82,0,0,1,.45-.2,5.5,5.5,0,0,1,.56-.09,6.07,6.07,0,0,0,1.12-.22v-.16a.67.67,0,0,0-.18-.54,1.06,1.06,0,0,0-.71-.21,1.11,1.11,0,0,0-.65.15.91.91,0,0,0-.31.55l-.62-.09a1.53,1.53,0,0,1,.28-.63,1.24,1.24,0,0,1,.55-.37,2.39,2.39,0,0,1,.84-.13A2.13,2.13,0,0,1,7,12.9a1,1,0,0,1,.43.28,1,1,0,0,1,.2.42,3.73,3.73,0,0,1,0,.58V15a8.11,8.11,0,0,0,0,1.1,1.46,1.46,0,0,0,.16.44H7.23a1.48,1.48,0,0,1-.12-.45Zm-.05-1.4A5.09,5.09,0,0,1,6,15a2.33,2.33,0,0,0-.54.12.58.58,0,0,0-.25.21.48.48,0,0,0-.09.29.55.55,0,0,0,.19.42.83.83,0,0,0,.56.17A1.35,1.35,0,0,0,6.54,16,.94.94,0,0,0,7,15.57a1.48,1.48,0,0,0,.11-.63v-.23Zm1.6,1.85V12.87h.56v.53a1.32,1.32,0,0,1,1.18-.61,1.54,1.54,0,0,1,.61.12.93.93,0,0,1,.42.31,1.16,1.16,0,0,1,.19.47,2.74,2.74,0,0,1,0,.6v2.27H11V14.32a1.61,1.61,0,0,0-.07-.57.6.6,0,0,0-.26-.31.87.87,0,0,0-.44-.11,1,1,0,0,0-.69.25,1.27,1.27,0,0,0-.29,1v2Zm4,0V11.47h.63v2.9l1.48-1.5h.81l-1.41,1.37,1.55,2.32h-.77l-1.22-1.88-.44.42v1.46Zm5.21,0v-.62l2.61-3.27c.19-.23.36-.43.53-.6H18.13v-.6h3.65v.6L18.92,15.6l-.31.36h3.25v.6Zm7.09-.45a2.53,2.53,0,0,1-.67.42,2,2,0,0,1-.69.12,1.34,1.34,0,0,1-.94-.3,1,1,0,0,1-.32-.76,1,1,0,0,1,.12-.49,1.14,1.14,0,0,1,.32-.37,1.82,1.82,0,0,1,.45-.2,5.5,5.5,0,0,1,.56-.09,5.9,5.9,0,0,0,1.12-.22v-.16a.67.67,0,0,0-.18-.54,1.06,1.06,0,0,0-.71-.21,1.11,1.11,0,0,0-.65.15A.91.91,0,0,0,23,14l-.62-.09a1.53,1.53,0,0,1,.28-.63,1.24,1.24,0,0,1,.55-.37,2.39,2.39,0,0,1,.84-.13,2.13,2.13,0,0,1,.77.11,1,1,0,0,1,.43.28.92.92,0,0,1,.2.42,3.73,3.73,0,0,1,0,.58V15a8.11,8.11,0,0,0,0,1.1,1.46,1.46,0,0,0,.16.44H25a1.48,1.48,0,0,1-.12-.45Zm-.05-1.4a5.09,5.09,0,0,1-1,.24,2.33,2.33,0,0,0-.54.12.58.58,0,0,0-.25.21.48.48,0,0,0-.09.29.55.55,0,0,0,.19.42.83.83,0,0,0,.56.17,1.35,1.35,0,0,0,.64-.16,1,1,0,0,0,.42-.43,1.69,1.69,0,0,0,.1-.63v-.23Zm4,.5.61.08a1.58,1.58,0,0,1-.51,1,1.51,1.51,0,0,1-1,.36,1.59,1.59,0,0,1-1.22-.5,2,2,0,0,1-.46-1.42,2.38,2.38,0,0,1,.2-1,1.38,1.38,0,0,1,.6-.68,1.77,1.77,0,0,1,.88-.22,1.53,1.53,0,0,1,1,.3,1.35,1.35,0,0,1,.49.87l-.6.09a1,1,0,0,0-.31-.56A.79.79,0,0,0,28,13.3a1,1,0,0,0-.76.34,1.59,1.59,0,0,0-.3,1.07,1.69,1.69,0,0,0,.29,1.09.92.92,0,0,0,.74.33.91.91,0,0,0,.62-.22,1.2,1.2,0,0,0,.31-.7ZM30,16.56V11.47h.62V13.3a1.42,1.42,0,0,1,1.11-.51,1.46,1.46,0,0,1,.71.16,1,1,0,0,1,.44.45,2.15,2.15,0,0,1,.13.82v2.34h-.63V14.22a1,1,0,0,0-.2-.68.78.78,0,0,0-.58-.21,1,1,0,0,0-.52.14.87.87,0,0,0-.35.39,1.78,1.78,0,0,0-.11.68v2Zm3.73-1.84a1.9,1.9,0,0,1,.57-1.52,1.66,1.66,0,0,1,1.16-.41,1.61,1.61,0,0,1,1.24.5,1.9,1.9,0,0,1,.49,1.38A2.5,2.5,0,0,1,37,15.79a1.51,1.51,0,0,1-.62.63,1.82,1.82,0,0,1-.89.23,1.68,1.68,0,0,1-1.26-.5,2,2,0,0,1-.47-1.43Zm.64,0a1.56,1.56,0,0,0,.31,1.06,1,1,0,0,0,.78.35,1,1,0,0,0,.77-.35,1.6,1.6,0,0,0,.31-1.08,1.5,1.5,0,0,0-.31-1,1,1,0,0,0-1.55,0,1.54,1.54,0,0,0-.31,1.06Zm6,1.84V16.1a1.17,1.17,0,0,1-1,.55,1.41,1.41,0,0,1-.81-.25,1.53,1.53,0,0,1-.57-.68,2.26,2.26,0,0,1-.21-1,2.48,2.48,0,0,1,.19-1,1.47,1.47,0,0,1,.55-.69,1.48,1.48,0,0,1,.82-.24,1.2,1.2,0,0,1,1,.51V11.47h.63v5.09Zm-2-1.84a1.6,1.6,0,0,0,.3,1.06.87.87,0,0,0,.7.35.89.89,0,0,0,.7-.33,1.58,1.58,0,0,0,.29-1,1.71,1.71,0,0,0-.3-1.11.87.87,0,0,0-.72-.35.85.85,0,0,0-.69.34,1.63,1.63,0,0,0-.28,1.07Zm3.54,1.84V12.87h.56v.53a1.33,1.33,0,0,1,1.18-.61,1.51,1.51,0,0,1,.61.12.93.93,0,0,1,.42.31,1.34,1.34,0,0,1,.2.47,4,4,0,0,1,0,.6v2.27h-.63V14.32a1.61,1.61,0,0,0-.07-.57.6.6,0,0,0-.26-.31.86.86,0,0,0-.43-.11,1,1,0,0,0-.69.25,1.24,1.24,0,0,0-.29,1v2Zm4-4.37v-.72h.63v.72Zm0,4.37V12.87h.63v3.69Zm4.53,0-1.35-5.09h.69l.78,3.34c.08.35.15.7.21,1l.23-.94,1-3.44h.81l.73,2.58a12.58,12.58,0,0,1,.4,1.8c.07-.32.15-.69.26-1.11l.79-3.27h.68l-1.39,5.09h-.66l-1.07-3.88c-.09-.32-.14-.52-.16-.6q-.07.36-.15.6l-1.08,3.88Zm5.81,0V11.47h1.91a2.38,2.38,0,0,1,.93.15,1.19,1.19,0,0,1,.56.48,1.27,1.27,0,0,1,.2.67,1.17,1.17,0,0,1-.18.62,1.3,1.3,0,0,1-.54.46,1.41,1.41,0,0,1,.72.46,1.29,1.29,0,0,1,.24.78,1.49,1.49,0,0,1-.15.66,1.23,1.23,0,0,1-.37.48,1.61,1.61,0,0,1-.56.25,3.25,3.25,0,0,1-.82.08Zm.67-2.95H58a2.48,2.48,0,0,0,.65-.06A.71.71,0,0,0,59,13.3a.73.73,0,0,0,.13-.45A.84.84,0,0,0,59,12.4a.62.62,0,0,0-.35-.26,2.8,2.8,0,0,0-.77-.07h-1v1.54Zm0,2.35h1.27l.46,0A1.38,1.38,0,0,0,59,15.8a.76.76,0,0,0,.25-.28.89.89,0,0,0,.11-.43.84.84,0,0,0-.15-.5.79.79,0,0,0-.41-.3,2.76,2.76,0,0,0-.74-.08H56.88V16Zm4.07.6V11.47h.68V14l2.53-2.52h.92l-2.14,2.06,2.23,3h-.89L62.46,14l-.83.82v1.76Zm6.53-1.63.64-.06a1.42,1.42,0,0,0,.21.63,1.16,1.16,0,0,0,.51.39,1.78,1.78,0,0,0,.78.16,1.85,1.85,0,0,0,.69-.12,1.06,1.06,0,0,0,.44-.31.79.79,0,0,0,.14-.44.68.68,0,0,0-.14-.42,1,1,0,0,0-.46-.3,9.34,9.34,0,0,0-.91-.25,4.61,4.61,0,0,1-1-.32,1.26,1.26,0,0,1-.54-.47,1.17,1.17,0,0,1-.18-.64,1.29,1.29,0,0,1,.22-.72,1.38,1.38,0,0,1,.64-.51,2.52,2.52,0,0,1,.93-.17,2.59,2.59,0,0,1,1,.18,1.44,1.44,0,0,1,.67.54,1.57,1.57,0,0,1,.25.8l-.65,0a1.08,1.08,0,0,0-.35-.73,1.77,1.77,0,0,0-1.78,0,.66.66,0,0,0-.28.54.58.58,0,0,0,.19.45,2.61,2.61,0,0,0,1,.36,7.37,7.37,0,0,1,1.13.33,1.55,1.55,0,0,1,.66.52,1.27,1.27,0,0,1,.21.72,1.42,1.42,0,0,1-.23.77,1.55,1.55,0,0,1-.67.56,2.38,2.38,0,0,1-1,.2,3,3,0,0,1-1.16-.2,1.65,1.65,0,0,1-.74-.61,1.68,1.68,0,0,1-.28-.91Zm5.08,1.63v-.71h.71v.71Zm1.32,0,2-5.09h.72l2.09,5.09h-.77L77.29,15H75.16l-.56,1.54Zm1.47-2.09h1.73l-.53-1.41A11.15,11.15,0,0,1,76.19,12a7.21,7.21,0,0,1-.28,1l-.56,1.49Zm3.94,2.09v-.71H80v.71Z"/></g></g></svg>