<svg xmlns="http://www.w3.org/2000/svg" viewBox="0 0 80 55.98"><defs><style>.cls-1{fill:#099146;}.cls-1,.cls-2{fill-rule:evenodd;}.cls-2{fill:#fff;}</style></defs><title>Bank-BPS</title><g id="Layer_2" data-name="Layer 2"><g id="Bank-BPS"><path class="cls-1" d="M16.4,0H80L63.6,56H0Z"/><path class="cls-2" d="M38.68,12.76c7.13-1,21.1-4.35,21.08,6.68l0,14.34c.05,1.28-.73,2.47-2.14,3.62-2.51,2.06-7,4-12.22,6C37.85,33.08,21.62,40.49,21,31.57l-.16-16.63c.29-6.34,7.82-6.7,11.58-5.49C39.5,11.74,44.45,6.57,44.9,6.07,29.22,7.9,31.49,4.84,24.59,6.32,18.53,7.62,14,10.67,14,17.58v15.7c3.53,13.79,22.45,3.94,30.79,16.8-.31-4.25,20.37-4.77,21.31-16.17l-.13-15.4C65.8,3.68,44.82,7,38.68,12.76Z"/></g></g></svg>