<svg xmlns="http://www.w3.org/2000/svg" viewBox="0 0 80 17.59"><defs><style>.cls-1{fill:#df1f26;}.cls-2{fill:#fff;}</style></defs><title>bank of beijing</title><g id="Layer_2" data-name="Layer 2"><g id="bank_of_beijing" data-name="bank of beijing"><path class="cls-1" d="M.6,5.61a8.87,8.87,0,0,1,16.56.19,9.22,9.22,0,0,1,.22,5.38,8.93,8.93,0,0,0-2-1.68A6.55,6.55,0,0,0,4.1,4.35a6.46,6.46,0,0,0-.46,8.37,6.78,6.78,0,0,0,7.84,2.1c.6-.25,1.31-.79,1.14-1.53-.37-.89-1.47-1.1-2.32-1.25a26,26,0,0,0-5.14,0V9.21a24,24,0,0,1,5.29,0,.9.9,0,0,0,1-.72c-.14-.77-1-1-1.64-1.17a17.78,17.78,0,0,0-4.61-.11V4.51a13.92,13.92,0,0,1,6.35.56,3.33,3.33,0,0,1,2.28,2.76,2.43,2.43,0,0,1-1.2,1.86c1.26.37,2.66,1,3.12,2.36a3.46,3.46,0,0,1-1.43,3.68A8.91,8.91,0,0,1,2.71,15.1,8.73,8.73,0,0,1,.6,5.61Z"/><path class="cls-1" d="M29.14.49l.5-.38A2.78,2.78,0,0,0,30.93,2a13.5,13.5,0,0,1,2.54.16c1.12,0,.85,1.85-.07,2s-1.81.07-2.71.18c-.43.59-.25,1.33-.26,2a1.31,1.31,0,0,0,.51,1.26,2.94,2.94,0,0,0,4-1.57,4.18,4.18,0,0,1-.1,3.59c-1,1-2.54.4-3.77.66s-1.89-.94-2-1.95c-1.55.29-2.73,1.6-4.36,1.6A1.91,1.91,0,0,1,22.5,9c0-.47-.17-1.09.26-1.42A7.37,7.37,0,0,1,25.27,7a1,1,0,0,0,.53-1.51c-.34-.28-.79-.07-1.18-.06a4.18,4.18,0,0,1-1.68-1.29c0-.6,0-1.2.06-1.79.85-.6,2-.06,2.94-.41.11-.46.24-.92.39-1.37.28.23.69.36.83.72.57,1.92.11,3.93.23,5.88A12.62,12.62,0,0,0,29,7.14c.5-2.19-.12-4.44.12-6.65Z"/><path class="cls-1" d="M67,1c.29-.58,1-.58,1.56-.49a9.11,9.11,0,0,1,2.68.79,12.47,12.47,0,0,0,.74,1A2.78,2.78,0,0,1,74.69.87,11.39,11.39,0,0,0,77.1,1c1,0,2.14.66,1.83,1.76-1.41-.11-2.82,0-4.23,0a4.88,4.88,0,0,0-1.88.37,3.13,3.13,0,0,0-3-.32c-1.16.4-3-.33-2.86-1.78Z"/><path class="cls-1" d="M67.05,4.48c1-.92,2.44-.42,3.65-.46.56,0,1,.69,1.56.39a9.39,9.39,0,0,1,4.28-.32A28.29,28.29,0,0,0,80,4.25c-.16.6-.18,1.36-.82,1.66-.8.43-1.55-.43-2.33-.3-.39.49-.08,1.15-.15,1.72-.11,1.34.52,2.75-.22,4-1.17-1.4-.72-3.4-1.12-5.05-.23-.6-.93-.62-1.47-.5A17,17,0,0,0,71.5,6a5.52,5.52,0,0,1-1,3.29c-.76.51-1.64,1.2-2.62.92-.68-.41-.42-1.26-.31-1.89a12.94,12.94,0,0,0,2-.64c.55-.43,1.14-1.24.79-1.95-.95-.24-1.93.62-2.88.34a8.84,8.84,0,0,1-.45-1.6Z"/><path class="cls-1" d="M49.45,1.55c-.65-.49-1.46-.24-2.2-.31a11.28,11.28,0,0,0-2.17.17C44.44,1,44.07,0,43.17,0s-1.12.85-1.54,1.38a28.46,28.46,0,0,0-4.13,0c-.81.29-.64,1.19-.43,1.82.68.09,1.63-.1,2,.67.51,1.31.05,2.68-.12,4,0,.5-.61.63-.94.9.23.45.41,1,1,1.19a4,4,0,0,0,2.79-.46c.06-.2.16-.61.22-.82l-1.18-.49c-.44.15-1.46.14-.93-.55a23.29,23.29,0,0,1,2.38-.47.61.61,0,0,1,.71.4c0,.73-.29,1.44-.23,2.17A5.23,5.23,0,0,0,43.19,11a2.8,2.8,0,0,0,.86-1.1c0-.84-.43-1.69-.12-2.51,1.21-.73,2.55.27,3.85.13a3.66,3.66,0,0,1-.52-1.86c.07-.58.56-1,.9-1.4a8.46,8.46,0,0,1-.29-1c.3-.35.75-.07,1.12-.06C49.43,2.87,50.29,1.94,49.45,1.55ZM45.54,5.86c-1.49.06-3,0-4.48,0l-.58-.35A2,2,0,0,1,42,4.83c1.19.06,2.37,0,3.56,0C46.14,4.85,46.21,5.87,45.54,5.86ZM47,3.58c-2-.52-4.11-.17-6.17-.26-.38.09-.36-.41-.42-.64.41-.27.93-.11,1.39-.17A29.74,29.74,0,0,1,46,2.6C46.39,2.78,47.19,3,47,3.58Z"/><path class="cls-1" d="M62.29,6.51c.2-.52.77-.62,1.19-.88a26.07,26.07,0,0,1,.16-2.94c.25-.36.57-.67.82-1-.4-.61-1.24-.66-1.89-.82a38,38,0,0,1-4.4-.15c-.36.27-.69.83-1.22.64A3.16,3.16,0,0,1,54.87.12a6,6,0,0,1-2.76,2.21,1.32,1.32,0,0,0-.43,2c.36,0,.71,0,1.07-.09l.15.55a4.33,4.33,0,0,1,1.11.4c-.27.69-1,.51-1.64.57.09.4,0,.93.36,1.2.42.09.85.11,1.27.21a1.39,1.39,0,0,1-.64,1.46c0,.44,0,.87,0,1.31l.5.36A6.88,6.88,0,0,1,57,8.45c.11.7-.09,1.66.68,2,1.05.28,1.55-1.18,2.58-1a7.59,7.59,0,0,0,2.11-.31,8.67,8.67,0,0,0,1.71,1.36,4.75,4.75,0,0,0,1.51-1.67C64.11,8.72,63.22,7.46,62.29,6.51ZM59.87,2.3a4.8,4.8,0,0,1,2.26-.07.61.61,0,0,1,.53.65c-.42.34-1,.18-1.49.21s-1.26.11-1.81-.21A1.44,1.44,0,0,1,59.87,2.3ZM58.08,7.54a.8.8,0,0,1-1.42-.06,3,3,0,0,1-1.22.1.75.75,0,0,1,.14-.82,10.2,10.2,0,0,1,1.24,0,4.61,4.61,0,0,0,.69-.89c-.69-.26-1.62,0-2.16-.55.14-1,1.3-.62,2-.56,0-.27,0-.53,0-.79a5.1,5.1,0,0,0-2.25-.46c0-.09-.12-.27-.17-.36a3.26,3.26,0,0,1,2.22-.33c.48,0,1.06.23,1,.81C58.2,4.89,58.57,6.28,58.08,7.54Zm1.26.54a2.26,2.26,0,0,1,0-1.8c.28-.14.91-.07.8.37S60.17,8.3,59.34,8.08Zm.24-2.95c-.27-.48.33-.68.71-.74a7.18,7.18,0,0,1,2.12.05l-1,.77A16.51,16.51,0,0,1,59.58,5.13Z"/><path class="cls-2" d="M61.08,7.19l.42-.27c.27.32.53.67.77,1a3.24,3.24,0,0,1-1.19.24v-1Z"/><path class="cls-1" d="M44.74,8.15c1.35.2,2.72-.27,4,.19.07.16.19.48.24.64-.12.67-.48,1.61-1.33,1.48S45.59,10.21,45,9.32c-.37-.29-.26-.76-.27-1.17Z"/><path class="cls-1" d="M31,12.88h1.44c.74.85,1.47,1.7,2.21,2.53,0-.69,0-1.39,0-2.09l-.72-.43h1.7l-.6.4c0,1.3,0,2.6,0,3.9a41.8,41.8,0,0,1-3.05-3.32c0,.92,0,1.84.05,2.76l.75.32q-.9,0-1.8,0l.69-.37c0-1,0-2.06,0-3.09L31,12.88Z"/><path class="cls-1" d="M35.73,12.85c.81,0,1.61,0,2.42.05l-.69.38c0,.53-.05,1.06-.05,1.59q.87-.78,1.68-1.62l-.8-.34c.75,0,1.5,0,2.24,0a6.06,6.06,0,0,0-2.22,1.53c.76.86,1.48,1.75,2.3,2.55-.79,0-1.58,0-2.37,0l.7-.29c-.49-.56-1-1.13-1.49-1.65,0,.53,0,1.06,0,1.59l.7.34c-.81,0-1.63,0-2.44,0l.65-.36c0-1,0-2.11,0-3.17,0-.31-.41-.39-.6-.59Z"/><path class="cls-1" d="M47.4,12.89h3.84c0,.47,0,.94,0,1.41-.24-.33-.38-.76-.73-1a5.61,5.61,0,0,0-1.29-.15c.09.49-.37,1.3.13,1.57.59.12.7-.64,1-1,0,.79,0,1.59,0,2.39-.28-.45-.49-1.19-1.15-1.1a9,9,0,0,0,0,1.64L50,17c-.85,0-1.71,0-2.57,0l.66-.34V13.28l-.69-.39Z"/><path class="cls-1" d="M57.35,12.89c1.31,0,2.61,0,3.91,0,0,.46,0,.93,0,1.39-.23-.35-.38-.79-.76-1a6.2,6.2,0,0,0-1.29-.12c0,.58,0,1.16,0,1.74.61-.12.89-.63,1.16-1.13,0,.78,0,1.56,0,2.34a1.88,1.88,0,0,0-1.15-1.2c0,.61,0,1.23,0,1.85a3.18,3.18,0,0,0,1.47-.19,8.26,8.26,0,0,0,.91-1c-.07.46-.14.92-.22,1.38-1.33,0-2.65,0-4,0l.72-.31q0-1.68,0-3.36l-.74-.39Z"/><path class="cls-1" d="M61.7,12.9a21.31,21.31,0,0,1,2.65,0l-.78.32v3.47l1.16-.09-.32-.32c.34,0,.68.1,1,.16,0,.24-.11.72-.14,1l.54-.28a32.79,32.79,0,0,0,0-3.84c-.24-.17-.49-.31-.73-.46.87,0,1.75,0,2.62.09l-.71.26c-.07,1.13.06,2.28-.1,3.4s-2.12,1.39-2.42.24c-.86.4-1.86,0-2.78.1l.71-.32c0-1.12,0-2.25,0-3.37l-.73-.36Z"/><path class="cls-1" d="M67.84,12.88c.81,0,1.61,0,2.41,0a5.57,5.57,0,0,0-.68.52c0,1.08,0,2.17,0,3.26l.75.3c-.87,0-1.74,0-2.61,0l.72-.31c0-1.17,0-2.34,0-3.5l-.56,0v-.23Z"/><path class="cls-1" d="M70.36,12.88h1.46c.76.85,1.49,1.72,2.25,2.57,0-.71,0-1.42,0-2.13l-.7-.45a17.14,17.14,0,0,1,1.76.08l-.7.29c-.06,1.33,0,2.66-.06,4-1-1.07-2-2.24-3-3.35,0,.9,0,1.8,0,2.7l.7.38c-.57,0-1.15,0-1.73,0l.66-.33V13.51l-.62-.63Z"/><path class="cls-1" d="M76.24,13.12a2.89,2.89,0,0,1,2.47,0l.47-.3c0,.51,0,1,0,1.55-.5-.54-1-1.41-1.82-1.28-.66.08-.92.82-1,1.39a2.79,2.79,0,0,0,.48,2.16,1.3,1.3,0,0,0,1.2.2c.26-.32.14-.77.15-1.15l-.75-.46a21.5,21.5,0,0,0,2.54,0l-.72.36v1.17c-1.07.35-2.39.61-3.35-.15a2.15,2.15,0,0,1,.31-3.49Z"/><path class="cls-1" d="M44,13a2.13,2.13,0,0,0-.42,3.69c1.29.94,3.56.23,3.67-1.49C47.53,13.48,45.47,12.28,44,13Zm1.78,3.42A1,1,0,0,1,44,16.06c-.2-.95-.35-2.35.6-2.95a1,1,0,0,1,1.32.77A3.64,3.64,0,0,1,45.78,16.42Z"/><path class="cls-1" d="M30.64,17a31.38,31.38,0,0,1-2.19-4.33c-.82,1.4-1.11,3.09-2.18,4.34L27.76,17l-.69-.32.28-.83,1.44,0c.1.3.21.59.31.88l-.67.28C29.16,17,29.9,17,30.64,17Zm-3.16-1.44.58-1.38.61,1.38Z"/><path class="cls-1" d="M26.21,15.66c-.05-.5-.59-.66-1-.86.52-.27,1.11-.91.57-1.47-1-.75-2.38-.33-3.55-.47a3.1,3.1,0,0,1,.61.53c.06,1.09,0,2.18,0,3.27l-.68.28a21,21,0,0,0,2.86,0C25.66,16.85,26.37,16.36,26.21,15.66Zm-1.3-1.89c.18.64-.41.94-.94,1,0-.57,0-1.14,0-1.71C24.37,13.13,25,13.2,24.91,13.77Zm.17,2.34c0,.61-.63.6-1.09.66,0-.62,0-1.24,0-1.87C24.64,14.87,25.28,15.37,25.08,16.11Z"/><path class="cls-1" d="M57.21,15.68c-.06-.52-.61-.69-1-.9.65-.22,1.14-1,.49-1.54-1.06-.61-2.37-.28-3.54-.34l.73.38c0,1.11,0,2.23,0,3.34l-.69.34a22.57,22.57,0,0,0,2.85,0C56.65,16.86,57.36,16.37,57.21,15.68ZM55,13c.51.07,1.06.36.91,1,.06.57-.53.64-.94.79C55,14.21,55,13.62,55,13Zm1.07,3.09c0,.61-.65.58-1.08.67,0-.64,0-1.28,0-1.91C55.64,14.9,56.28,15.4,56.07,16.12Z"/></g></g></svg>