<?xml version="1.0" encoding="utf-8"?>
<!-- Generator: Adobe Illustrator 22.1.0, SVG Export Plug-In . SVG Version: 6.00 Build 0)  -->
<svg version="1.1" id="Layer_1" xmlns="http://www.w3.org/2000/svg" xmlns:xlink="http://www.w3.org/1999/xlink" x="0px" y="0px"
	 viewBox="0 0 100 100" style="enable-background:new 0 0 100 100;" xml:space="preserve">
<style type="text/css">
	.st0{fill:#B32040;}
	.st1{fill:#FFFFFF;}
</style>
<g>
	<rect x="10" y="10" class="st0" width="80" height="80"/>
	<path class="st1" d="M45.1,49.4l6.2-17.1l0,17.1c0.9,0,1.8,0.1,2.8,0.1c17.1,0,30.9-4.6,30.9-10.7c0-6.2-13.9-11.2-30.9-11.2
		c-17.1,0-30.9,5-30.9,11.2C23.1,43.7,32.4,48,45.1,49.4L45.1,49.4z"/>
	<path class="st1" d="M44.6,50.7C28.1,50.9,15,55.8,15,61.8c0,5,9.1,9.2,21.6,10.6L44.6,50.7L44.6,50.7z"/>
	<path class="st1" d="M51.3,50.6v21.8c14.5-0.9,25.6-5.1,25.6-10.6C76.9,56.3,65.8,51.6,51.3,50.6L51.3,50.6z"/>
</g>
</svg>
