<svg id="Layer_1" data-name="Layer 1" xmlns="http://www.w3.org/2000/svg" viewBox="0 0 80 52.94"><defs><style>.cls-1{fill:#7bb8e4;}.cls-2{fill:#1e6cb5;}</style></defs><title>banrisul</title><path class="cls-1" d="M31.8,37.4l5.1-.1L40,41.9h.6v.2l5.8.1,2.4,3.5c.2.3.5.6.3,1.1H37.8a2,2,0,0,0-.4-1.4l-5.1-7.6Z" transform="translate(-10 -23.56)"/><path class="cls-1" d="M31.8,37.4h5.1L40,42h.6v.2l5.8.1,2.4,3.5h0a.52.52,0,0,1,.2.4.6.6,0,0,1,.1.4.37.37,0,0,1-.1.3H37.7v-.1a1.7,1.7,0,0,0-.4-1.3h0l-5.1-7.7-.4-.4h0l.6.5,5.1,7.6h0a2.14,2.14,0,0,1,.4,1.2v.1H49.3c0-.1.1-.2.1-.3s-.1-.3-.1-.4a.76.76,0,0,1-.2-.4h0l-2.4-3.6L40.9,42v-.2h-.6l-3.1-4.6-5.3.1-.1.1Z" transform="translate(-10 -23.56)"/><path class="cls-2" d="M49.2,46.9l-5.5,8.7c-.1.3-.3.3-.5.3l-11.6-.1.1-.3h.7l5.3-8c.2-.5.2-.5.2-.7H49.2Z" transform="translate(-10 -23.56)"/><path class="cls-2" d="M49.2,46.9h0l-5.6,8.7h0c-.1.1-.1.2-.2.2s-.2.1-.3.1h0l-11.5-.1.1-.2h.7l5.3-8h0c.1-.2.1-.4.2-.5v-.2h0v.2c0,.1-.1.2-.2.4h0l-5.3,8h-.7l-.2.4,11.7.1h0a.37.37,0,0,0,.3-.1c.1,0,.2-.1.2-.3h0l5.5-8.7Z" transform="translate(-10 -23.56)"/><path class="cls-2" d="M66.6,46.9l-5.5,8.7c-.1.3-.3.3-.5.3H49l.1-.3h.7l5.3-8c.2-.5.2-.5.2-.7Z" transform="translate(-10 -23.56)"/><path class="cls-2" d="M66.6,46.9h0L61,55.6h0c-.1.1-.1.2-.2.2s-.2.1-.3.1h0L49,55.8l.1-.2h.7l5.3-8h0c.1-.2.1-.4.2-.5v-.2h0v.2c0,.1-.1.2-.2.4h0l-5.3,8h-.7l-.2.4,11.7.1h0a.37.37,0,0,0,.3-.1c.1,0,.2-.1.2-.3h0l5.5-8.7Z" transform="translate(-10 -23.56)"/><path class="cls-1" d="M54.3,37.3l6.2.1a42.23,42.23,0,0,0,3.4,4.7l2.4,3.5c.2.3.5.6.3,1.1H55.3a2,2,0,0,0-.4-1.4c-1.9-2.6-3.5-4.9-5.6-7.7A16.85,16.85,0,0,1,54.3,37.3Z" transform="translate(-10 -23.56)"/><path class="cls-1" d="M54.3,37.3h0l6.2.2h0a42.23,42.23,0,0,0,3.4,4.7h0l2.4,3.5h0a.52.52,0,0,1,.2.4.6.6,0,0,1,.1.4.37.37,0,0,1-.1.3H55.2v-.1a1.7,1.7,0,0,0-.4-1.3h0c-1.9-2.6-3.5-4.9-5.6-7.7h0a7,7,0,0,1,2.9-.4h.2a9.25,9.25,0,0,0-2.9.4h-.1c2.1,2.8,3.7,5.2,5.6,7.7h0a2.14,2.14,0,0,1,.4,1.2v.1H66.7c0-.1.1-.2.1-.3s-.1-.3-.1-.4a.76.76,0,0,1-.2-.4h0L64,42.1h0c-1.9-2.5-1.9-2.5-3.4-4.7h0l-6.3-.1Z" transform="translate(-10 -23.56)"/><path class="cls-1" d="M46,23.6l6.1.1a42.23,42.23,0,0,0,3.4,4.7l2.4,3.5c.2.3.5.6.3,1.1H47.1a2,2,0,0,0-.4-1.4c-1.8-2.6-3.5-4.9-5.5-7.7C42.6,23.4,44.4,23.6,46,23.6Z" transform="translate(-10 -23.56)"/><path class="cls-1" d="M46,23.6h0l6.1.2h0a42.23,42.23,0,0,0,3.4,4.7h0L57.9,32h0a.52.52,0,0,1,.2.4.6.6,0,0,1,.1.4.37.37,0,0,1-.1.3H47V33a1.7,1.7,0,0,0-.4-1.3h0c-1.8-2.6-3.5-4.9-5.5-7.7h0a7,7,0,0,1,2.9-.4h0a9.25,9.25,0,0,0-2.9.4h0c2.1,2.8,3.7,5.2,5.5,7.7h0a2.14,2.14,0,0,1,.4,1.2V33H58.2c0-.1.1-.2.1-.3s-.1-.3-.1-.4a.76.76,0,0,1-.2-.4h0l-2.4-3.5h0c-1.8-2.5-1.9-2.5-3.4-4.7h0L46,23.6Z" transform="translate(-10 -23.56)"/><path class="cls-2" d="M58.1,33.2l-2.6,4c-2.1.1-5.3-.2-6.2.4L46.5,42H40.8v-.1c.2,0,.3,0,.4-.1l5.9-8.6Z" transform="translate(-10 -23.56)"/><path class="cls-2" d="M58.1,33.2h0l-2.6,4H52.2a10.87,10.87,0,0,0-1.8.1,3.37,3.37,0,0,0-1.2.4h0L46.5,42H40.8v-.1h0c.2,0,.3,0,.4-.1h0L47,33.2h0l-5.9,8.6h0c-.1,0-.2.1-.4.1h0v.2l5.8.1,2.8-4.4h0a1.61,1.61,0,0,1,1.1-.3,9.15,9.15,0,0,1,1.7-.1h3.3l2.7-4.2Z" transform="translate(-10 -23.56)"/><path class="cls-2" d="M10,60.2h5.8a16.12,16.12,0,0,1,2.6.2,2.63,2.63,0,0,1,1.5.7,4.1,4.1,0,0,1,1.5,3.3,3.94,3.94,0,0,1-.6,2.1,4,4,0,0,1-1.5,1.4,3.47,3.47,0,0,1,2,1.5,4,4,0,0,1,.7,2.4,5.37,5.37,0,0,1-.5,2.1,4.31,4.31,0,0,1-1.3,1.7,4,4,0,0,1-2,.8,27.54,27.54,0,0,1-3.5.1H10Zm2.9,2.7v3.7h1.9a9.85,9.85,0,0,0,2.1-.1,2.28,2.28,0,0,0,1.2-.6,1.7,1.7,0,0,0,.4-1.3,1.59,1.59,0,0,0-.4-1.2,1.68,1.68,0,0,0-1.1-.6c-.3,0-1.1-.1-2.5-.1H12.9Zm0,6.4v4.3h2.7a8.75,8.75,0,0,0,2-.1,2.38,2.38,0,0,0,1.1-.6,2,2,0,0,0,.4-1.4,2.13,2.13,0,0,0-.3-1.2,1.6,1.6,0,0,0-.9-.7,8,8,0,0,0-2.6-.2H12.9Z" transform="translate(-10 -23.56)"/><path class="cls-2" d="M31,72.9V70.3a8.87,8.87,0,0,0-1.5.2,10.38,10.38,0,0,0-1.2.3,2.18,2.18,0,0,0-.8.5,1.22,1.22,0,0,0-.3.9c0,.3,0,.5.1.6s.1.3.3.5a.85.85,0,0,0,.5.3,2.22,2.22,0,0,0,.9.1,3.55,3.55,0,0,0,1-.2,1.44,1.44,0,0,0,1-.6Zm0,1.9a4.35,4.35,0,0,1-.7.6,3.51,3.51,0,0,1-.8.5,4.18,4.18,0,0,1-1,.4,4.48,4.48,0,0,1-1.2.1,3.41,3.41,0,0,1-2.5-1.1,3.86,3.86,0,0,1-1-2.8,4.77,4.77,0,0,1,.5-2.2,3.42,3.42,0,0,1,1.5-1.4,6.93,6.93,0,0,1,2.3-.7l2.9-.3v-.1a1.42,1.42,0,0,0-.7-1.4,4.14,4.14,0,0,0-2.1-.4,4.21,4.21,0,0,0-1.8.4,12.25,12.25,0,0,0-1.3.5h-.3v-3c.4-.1.9-.2,1.7-.4a9.74,9.74,0,0,1,2.4-.2c1.9,0,3.3.3,4.1,1a4.2,4.2,0,0,1,1.3,3.3V76H31V74.8Z" transform="translate(-10 -23.56)"/><path class="cls-2" d="M46.3,76.2H43.4v-6a9.62,9.62,0,0,0-.2-2.4,1.46,1.46,0,0,0-.6-.9,1.69,1.69,0,0,0-1-.3,2.3,2.3,0,0,0-1.4.4,2,2,0,0,0-.8,1.2,14.68,14.68,0,0,0-.2,2.7v5.3H36.3V64.5H39v1.7a4.49,4.49,0,0,1,3.6-2,3.92,3.92,0,0,1,1.8.4,3.78,3.78,0,0,1,1.2.9,3.1,3.1,0,0,1,.6,1.3,10.61,10.61,0,0,1,.2,2.1v7.3Z" transform="translate(-10 -23.56)"/><path class="cls-2" d="M52,76.1H48.8V64.4h2.9v1.7A5.22,5.22,0,0,1,53,64.6a3.26,3.26,0,0,1,1.4-.4,4.2,4.2,0,0,1,2.1.6l-1,2.7A3,3,0,0,0,54,67a1.5,1.5,0,0,0-1.1.4,2,2,0,0,0-.7,1.3,15.53,15.53,0,0,0-.3,3.9v3.5Z" transform="translate(-10 -23.56)"/><path class="cls-2" d="M63.1,72.6l2.8-.5a2.65,2.65,0,0,0,.7,1.4,2.46,2.46,0,0,0,1.5.5,2.36,2.36,0,0,0,1.6-.4,1.23,1.23,0,0,0,.4-.8,1.42,1.42,0,0,0-.2-.6,1.87,1.87,0,0,0-.9-.4,12.94,12.94,0,0,1-4.2-1.5,3.09,3.09,0,0,1-1.2-2.6,3.25,3.25,0,0,1,1.1-2.5,4.5,4.5,0,0,1,3.3-1,5.58,5.58,0,0,1,3.2.8,3.64,3.64,0,0,1,1.4,2.3l-2.6.4a1.44,1.44,0,0,0-.6-1,2.5,2.5,0,0,0-1.3-.4,3.23,3.23,0,0,0-1.6.3.75.75,0,0,0,0,1.2,9.41,9.41,0,0,0,2.6.9,6.9,6.9,0,0,1,3.1,1.4,2.87,2.87,0,0,1,.9,2.3,3.78,3.78,0,0,1-1.2,2.8,4.89,4.89,0,0,1-3.6,1.2,5.11,5.11,0,0,1-3.4-1,5.05,5.05,0,0,1-1.8-2.8Z" transform="translate(-10 -23.56)"/><path class="cls-2" d="M82.1,76.2V74.5A4.63,4.63,0,0,1,80.5,76a4.06,4.06,0,0,1-2.1.5,4.23,4.23,0,0,1-2-.5,3,3,0,0,1-1.3-1.4,6.16,6.16,0,0,1-.4-2.6V64.6h3V70a15.34,15.34,0,0,0,.2,3,1.46,1.46,0,0,0,.6.9,2,2,0,0,0,1.1.3,2.3,2.3,0,0,0,1.4-.4,2.1,2.1,0,0,0,.8-1.1,17.26,17.26,0,0,0,.2-3.2V64.6h3V76.3H82.1Z" transform="translate(-10 -23.56)"/><polygon class="cls-2" points="77.2 52.64 77.2 36.54 80 36.54 80 52.64 77.2 52.64"/><ellipse class="cls-2" cx="49.8" cy="37.34" rx="1.8" ry="2.1"/><path class="cls-2" d="M59.8,58.8h0a1.74,1.74,0,0,1,1.2.6,2.5,2.5,0,0,1,0,3,1.56,1.56,0,0,1-1.2.6,1.43,1.43,0,0,1-1.2-.6,2.5,2.5,0,0,1,0-3,2.28,2.28,0,0,1,1.2-.6h0a1.61,1.61,0,0,0-1.3.6,2.5,2.5,0,0,0,0,3,1.71,1.71,0,0,0,2.6,0,2.5,2.5,0,0,0,0-3,1.61,1.61,0,0,0-1.3-.6Z" transform="translate(-10 -23.56)"/><rect class="cls-2" x="48.2" y="40.44" width="3.5" height="12.2"/><path class="cls-2" d="M58.2,64h3.4V76.1H58.2V64h0V76.2h3.5V64H58.2Z" transform="translate(-10 -23.56)"/></svg>