<svg xmlns="http://www.w3.org/2000/svg" viewBox="0 0 80 9.97"><defs><style>.cls-1,.cls-2{fill:#2e3192;}.cls-2{fill-rule:evenodd;}</style></defs><title>BBVA-Frances</title><g id="Layer_2" data-name="Layer 2"><g id="BBVA-Frances"><polygon class="cls-1" points="35.99 9.89 35.99 5.36 39.8 5.36 39.8 4.74 35.99 4.74 35.99 0.64 41.13 0.64 41.13 0 35.24 0 35.24 9.89 35.99 9.89 35.99 9.89"/><path class="cls-1" d="M43.17,3.34c0-.73-.07-.81-.38-.81h-.33V9.89h.71V4.47a3.27,3.27,0,0,1,2.44-1.39l.31,0V2.53a.6.6,0,0,0-.34-.06A3.21,3.21,0,0,0,43.17,3.8V3.34Z"/><path class="cls-1" d="M51.45,9.17c0,.6.1.72.51.72h.2V4.52c0-1.52-1-2.07-2.49-2.07a5.34,5.34,0,0,0-2.62.63v.58h.3A3.61,3.61,0,0,1,49.64,3c1.08,0,1.81.41,1.81,1.56V5.89a8,8,0,0,0-1.94-.22c-1.72,0-2.95.68-2.95,2.16A2.11,2.11,0,0,0,48.93,10a3.14,3.14,0,0,0,2.52-1.08v.28ZM49,9.41a1.53,1.53,0,0,1-1.75-1.64c0-1.13,1-1.59,2.28-1.59a9,9,0,0,1,1.89.22V8.21A2.87,2.87,0,0,1,49,9.41Z"/><path class="cls-1" d="M54.8,3.27c0-.66-.07-.74-.38-.74h-.33V9.89h.71V4.28a5.19,5.19,0,0,1,3-1.24c.83,0,1.47.28,1.47,1.45v5.4h.7V4.41c0-1.54-.87-2-1.9-2A5.26,5.26,0,0,0,54.8,3.7V3.27Z"/><path class="cls-1" d="M64.67,10a3.45,3.45,0,0,0,2.47-.88V8.54h-.32a2.7,2.7,0,0,1-2.12.85c-1.73,0-2.76-1.18-2.76-3.2S63.06,3,64.7,3a2.58,2.58,0,0,1,2,.71H67V3.15a3.47,3.47,0,0,0-2.31-.7,3.4,3.4,0,0,0-3.49,3.74c0,2.32,1.29,3.76,3.45,3.76Z"/><path class="cls-1" d="M68.56,6.23h5.55s0-.19,0-.34c0-2.4-1.22-3.44-3-3.44s-3.26,1.47-3.26,3.78S69.07,10,71.29,10A4.13,4.13,0,0,0,74,9.13V8.61h-.31a3.18,3.18,0,0,1-2.29.76c-1.84,0-2.8-1.07-2.8-3.14ZM71.1,3c1.37,0,2.28.75,2.32,2.72H68.57C68.74,3.89,69.75,3,71.1,3Zm.19-1.18L72.61.28V0h-.7L70.85,1.57V1.8Z"/><path class="cls-1" d="M77.33,10C79.17,10,80,9.12,80,7.76s-.85-1.77-2.39-2-1.92-.56-1.92-1.41S76.31,3,77.51,3a2.61,2.61,0,0,1,1.84.58h.28V3a3.73,3.73,0,0,0-2.13-.55C76,2.45,75,3.12,75,4.4s.89,1.73,2.31,2,2,.59,2,1.46-.65,1.58-2,1.58a3,3,0,0,1-2.06-.72H75v.58a3.8,3.8,0,0,0,2.38.69Z"/><path class="cls-2" d="M27.86,0c.78,0,.93.19,1.2,1l3,8.94H29.39l-.65-2.15H25.11L24.46,10H22.91L26,0Zm.43,6.34H25.55l1.36-4.54,1.38,4.54Z"/><path class="cls-2" d="M12.61,10H8.42V0h4.34c2,0,2.74,1.66,1.71,3.19L14,3.91C17.39,5.68,16.28,10,12.61,10Zm-.5-5.57.83-1.25a1.15,1.15,0,0,0,.25-.72A1.15,1.15,0,0,0,12,1.3H10.77V8.63h.7a1.92,1.92,0,0,0,2.09-2.14,1.89,1.89,0,0,0-1.45-2.1Z"/><path class="cls-2" d="M4.18,10H0V0H4.34c2,0,2.74,1.66,1.71,3.19l-.49.72C9,5.68,7.86,10,4.18,10ZM3.69,4.39l.83-1.25a1.15,1.15,0,0,0,.25-.72A1.15,1.15,0,0,0,3.62,1.3H2.34V8.63h.71A1.92,1.92,0,0,0,5.13,6.49a1.89,1.89,0,0,0-1.44-2.1Z"/><path class="cls-2" d="M22.5,0h1.57L21,10H18.65L15.39,0h1.76c.68,0,.86.18,1.21,1.3l1.89,6.27L22.5,0Z"/></g></g></svg>