<svg xmlns="http://www.w3.org/2000/svg" viewBox="0 0 80 24.89"><defs><style>.cls-1{fill:#007663;}.cls-1,.cls-2,.cls-3,.cls-4{fill-rule:evenodd;}.cls-2{fill:#fff;}.cls-3{fill:#231f20;}.cls-4{fill:#939598;}</style></defs><title>BCM</title><g id="Layer_2" data-name="Layer 2"><g id="BCM"><path class="cls-1" d="M19.66,10.64a.1.1,0,0,0-.12-.09.1.1,0,0,0-.09.11.05.05,0,0,0,0,.05.6.6,0,0,1-.2,0,.62.62,0,0,1-.47-.33,1.17,1.17,0,0,0-1-.66,1.56,1.56,0,0,0-1.07.45,1.47,1.47,0,0,1-1.09.3,3.53,3.53,0,0,1-.92-.4,1.5,1.5,0,0,0,1,.57,1.59,1.59,0,0,0,.93-.15,1.94,1.94,0,0,0,1.23.74,1,1,0,0,0,1-.49.77.77,0,0,0,.38.09.49.49,0,0,0,.37-.15l0,0h0a0,0,0,0,0,0,0Zm-1.73.49a1.46,1.46,0,0,1-1-.74h0a2.08,2.08,0,0,1,.86-.41.79.79,0,0,1,.5.14h-.12a.45.45,0,0,0-.41.48.46.46,0,0,0,.92,0l.13.13a.74.74,0,0,1-.84.45Z"/><path class="cls-1" d="M27,1.94C21.53-1.84,11.85.07,5.4,6.21,1.35,10.05-.47,14.65.1,18.47c1.62-2,2.05-1.32,2.53-1.86.05-.26-.47-.84-1.91-.74a5,5,0,0,1,3-1.3c.33-.07,1.59-1-.91-1.31,1.82-1.14,2.72-.56,3.42-1,.51-.34.81-1.09-1.09-1.25,0,0,2.1-.92,3.44-.29l.53-.08c0-.29-.25-.81-1.4-1a7.05,7.05,0,0,1,3.4.28,2.09,2.09,0,0,1,.93-.1c-.15-.44-2-.82-2-.82a6.66,6.66,0,0,1,3.8.1h.44a6.44,6.44,0,0,0-4.24-1.46c-1.49.16-.92-.92-.92-.92C8.07,6,8,5.33,8.25,5.15s1.73.6,1.73.6c-.17-1.54,1,0,1,0a4.05,4.05,0,0,0,2,1.66A23.21,23.21,0,0,1,16.25,9h0c-.19-.95-1.57-1.67-1.57-1.67a2.8,2.8,0,0,1,2.61,1.58c2.88-.42,1.85,1.22,3.2,1.45a3.83,3.83,0,0,0,2.25,0c.69-.3,1-.86,1.8-.85.36-.65-.52-1.11-2.3-1.07-2.09,0-5.56-2.1-6.43-4.2C17,6.46,20.64,8.22,23.05,8s2.5,1.46,2.5,1.46a2.26,2.26,0,0,0,.6-1.56c0-.27-.33-.68-1-.67S21.6,7,21,5.43c1.66,1.64,3.93,1.44,4.75,1.5a1,1,0,0,1,1,.94c.16.85-.58,1.46-.79,1.92A1.27,1.27,0,0,1,26.48,11a.56.56,0,0,1-.16.94.86.86,0,0,1-.68.74.44.44,0,0,0,0-.53,4.93,4.93,0,0,1-2.12-.21,5.33,5.33,0,0,0-2.34.36,5.23,5.23,0,0,1,3.15.46,2.43,2.43,0,0,0,2.42-.19c-.36,1-2.26.68-2.26.68-2.19-.7-3-.27-3-.27a4.57,4.57,0,0,1,1.41,1c1.8.86,1.87-.4,1.87-.4.3.17.24.67.24.67,1,0,.36.82.36.82a1,1,0,0,1-1,.91,2.77,2.77,0,0,1-2.06,1.62c1.57-1,1.34-1.57,1.34-1.57a2.59,2.59,0,0,1-1.28-.21,3.35,3.35,0,0,1-2,1.24c.65-1,.26-1.44-.23-1.33-.82.18-2.4,1.53-3.36,1.45,1.44-1.54.79-2.13.46-2.17-.68-.08-1.73,2.47-4.67,2.54,2.27-1.78,2.08-2.78.1-2.36A4.28,4.28,0,0,0,9.61,20c.26,3,2.86,4.79,5.82,4.92,3.73.17,7-1.53,9.84-4.2,6.45-6.13,7.25-15,1.76-18.73Z"/><path class="cls-1" d="M1.35,21.81l.06.09a6.49,6.49,0,0,1,.36-2.57c.08-.39-.35-.76-1.59-.41a8.38,8.38,0,0,0,1.17,2.89Z"/><path class="cls-2" d="M18.29,10.34a.14.14,0,0,1,.16.12.14.14,0,0,1-.13.15.15.15,0,0,1-.16-.12.13.13,0,0,1,.13-.15Z"/><path class="cls-3" d="M36.58,10.69h2.13c.6,0,1.21.18,1.21.65s-.47.78-1.29.78H36.58V10.69ZM35,13h3.39c1.65,0,2.08-.18,2.54-.48a1.38,1.38,0,0,0,.69-1.1c0-.53-.25-1.05-1.24-1.3a1.17,1.17,0,0,0,1-1.09c0-.55-.51-1.37-2.47-1.37H35V13Zm1.61-4.42H38.5c.76,0,1.23.13,1.23.57s-.53.6-1.19.6h-2V8.62Z"/><path class="cls-3" d="M48,9.45c-.13-.32-.39-.93-1.77-.93a1.8,1.8,0,0,0-2,1.87,1.76,1.76,0,0,0,2,1.83c.92,0,1.57-.35,1.77-1h1.68c-.34,1.16-1.48,2-3.49,2s-3.66-1-3.66-2.8,1.62-2.83,3.68-2.83c2.4,0,3.38,1.11,3.47,1.9Z"/><polygon class="cls-3" points="58.46 13.04 56.89 13.04 56.89 8.57 56.87 8.57 55.38 13.04 53.73 13.04 52.27 8.57 52.25 8.57 52.25 13.04 50.68 13.04 50.68 7.7 53.13 7.7 54.58 11.91 54.6 11.91 56.03 7.7 58.46 7.7 58.46 13.04 58.46 13.04"/><path class="cls-4" d="M63,10.51a3.76,3.76,0,0,1-.43,1.36c-.33.66-.7,1-1.09,1-.1,0-.17,0-.2-.07a.35.35,0,0,1,0-.13,5.81,5.81,0,0,1,.21-.73c.14-.39.25-.69.33-.88a4.12,4.12,0,0,1,.31-.6c.2-.3.4-.45.59-.45a.3.3,0,0,1,.26.12.65.65,0,0,1,.05.4Zm-2.67,2.16c0,.09.09.19.29.3a1.47,1.47,0,0,0,.67.16,2.44,2.44,0,0,0,1.83-.92,2.93,2.93,0,0,0,.82-1.73,1.07,1.07,0,0,0-.17-.76.7.7,0,0,0-.57-.25,1.07,1.07,0,0,0-.57.16,2,2,0,0,0-.52.49l.86-2.49-.8.13-.78.1,0,.2a1.34,1.34,0,0,1,.37,0c.06,0,.09.09.08.21a.39.39,0,0,1,0,.13,1.85,1.85,0,0,1-.06.2l-1.35,3.84a.71.71,0,0,0,0,.19Z"/><path class="cls-4" d="M67.66,10.21a4,4,0,0,1-.44,1.35c-.37.69-.68,1-.93,1a.26.26,0,0,1-.23-.13.56.56,0,0,1-.06-.32,4.15,4.15,0,0,1,.49-1.35c.33-.66.64-1,.91-1a.22.22,0,0,1,.24.17.65.65,0,0,1,0,.25Zm-2.58,1.92a1,1,0,0,0,.19.78.78.78,0,0,0,.54.23,1,1,0,0,0,.61-.22,2.52,2.52,0,0,0,.51-.52l.15-.2,0,0a2.71,2.71,0,0,0-.13.47.43.43,0,0,0,.13.39.47.47,0,0,0,.32.13.86.86,0,0,0,.58-.26,4.35,4.35,0,0,0,.64-.72l-.15-.11-.17.19-.13.16-.15.14a.2.2,0,0,1-.14.05l-.06,0s0-.05,0-.1a3.33,3.33,0,0,1,.14-.55c0-.14.11-.33.21-.59l.68-1.8L68,9.58l-.16.41a.93.93,0,0,0-.12-.35.45.45,0,0,0-.41-.17,2,2,0,0,0-1.46.91,3.21,3.21,0,0,0-.79,1.75Z"/><path class="cls-4" d="M70.09,13,71,10.55c0-.1.06-.18.08-.23l.06-.23c0-.09,0-.15-.08-.17a.76.76,0,0,0-.32,0l0-.21c.31,0,.56,0,.73-.07l.79-.13-.57,1.42h0l.25-.34a3.93,3.93,0,0,1,.5-.59,2.63,2.63,0,0,1,.47-.37,1,1,0,0,1,.5-.13.52.52,0,0,1,.39.14.49.49,0,0,1,.13.45,5.79,5.79,0,0,1-.43,1.3c-.27.66-.41,1-.42,1.07a.12.12,0,0,0,0,.1.13.13,0,0,0,.07,0c.07,0,.18-.09.32-.26s.16-.2.25-.33l.16.1a4.18,4.18,0,0,1-.53.67,1,1,0,0,1-.74.35.58.58,0,0,1-.36-.12.43.43,0,0,1-.13-.38,2.34,2.34,0,0,1,.12-.48c.07-.21.15-.43.24-.65L73,10.31s0-.05,0-.07,0,0,0-.06,0-.1-.05-.12a.21.21,0,0,0-.12,0q-.23,0-.54.36a5.56,5.56,0,0,0-.52.74,6.55,6.55,0,0,0-.39.8c-.11.27-.24.63-.4,1.09Z"/><path class="cls-4" d="M75.41,13l1.51-4.38a1.36,1.36,0,0,0,.06-.2.31.31,0,0,0,0-.13c0-.12,0-.19-.09-.22a1.48,1.48,0,0,0-.36,0l0-.2.77-.1.81-.13L77,11.15a9.78,9.78,0,0,0,.78-.6c.35-.29.53-.49.54-.61a.15.15,0,0,0-.1-.16,1,1,0,0,0-.27,0V9.56h1.56v.19a1.34,1.34,0,0,0-.43.12,3.5,3.5,0,0,0-.64.46l-.28.24-.18.16,0,0s0,.12,0,.4,0,.47.07.57a5.4,5.4,0,0,0,.16.65.19.19,0,0,0,.19.16.38.38,0,0,0,.26-.15,3,3,0,0,0,.23-.35l.16.09a3.51,3.51,0,0,1-.49.67.78.78,0,0,1-.59.29.51.51,0,0,1-.4-.17,1.2,1.2,0,0,1-.24-.45,3.26,3.26,0,0,1-.13-.69c0-.26,0-.4,0-.42l-.31.21L76.32,13Z"/><path class="cls-3" d="M35.25,15.92a5,5,0,0,1,.48.25l.38.27,0,0-.16.18c-.16-.12-.33-.23-.5-.34l-.36-.18a1,1,0,0,1,.15-.19l0,0Zm-.19,1.17a3.79,3.79,0,0,1,.77.61.07.07,0,0,1,0,0,2.15,2.15,0,0,1-.16.19,3.39,3.39,0,0,0-.45-.4,2.11,2.11,0,0,0-.32-.21.82.82,0,0,1,.14-.19l.05,0ZM36,18.2a0,0,0,0,1,0,0l.14.26a.09.09,0,0,1,0,.07c-.17.35-.32.65-.47.9l-.31.46a.38.38,0,0,0,0,.16s0,.06,0,.06a1.76,1.76,0,0,1-.33-.28.1.1,0,0,1,0-.05.09.09,0,0,1,0-.07,2.46,2.46,0,0,0,.3-.33,6.88,6.88,0,0,0,.42-.63c.11-.19.21-.38.3-.55s0,0,0,0Zm2-2.37.34.18a.09.09,0,0,1,.06.08s0,0-.06,0a1.48,1.48,0,0,0-.25.23H39.4c.05,0,.08,0,.08.05v2.37s0,.06-.08.06h-.22a.05.05,0,0,1-.06-.06V16.61h-2.3v2.14s0,.06-.09.06h-.21c-.05,0-.06,0-.06-.06V16.38s0-.05.06-.05h1.09a5.62,5.62,0,0,0,.35-.5Zm.83,1a2.73,2.73,0,0,1-.62.14v.64H39s0,0,0,.06v.15a0,0,0,0,1,0,0h-.63a2.11,2.11,0,0,0,.15.15,1.09,1.09,0,0,0,.3.18,1.69,1.69,0,0,0,.28.12s0,0,0,0l-.17.15s0,0,0,0a2.15,2.15,0,0,1-.35-.21,1.31,1.31,0,0,1-.27-.25l0,0v.46s0,.05-.09.05h-.17s-.08,0-.08-.05v-.35a2.09,2.09,0,0,1-.28.24,2.43,2.43,0,0,1-.35.2l-.07,0L37,18.5l0,0,.27-.13a1.79,1.79,0,0,0,.51-.43H37s0,0,0,0V17.7s0-.06,0-.06h.54a2.5,2.5,0,0,0-.34-.27.05.05,0,0,1,0,0s0,0,0,0l.11-.14h.08a3.25,3.25,0,0,1,.38.31s0,0,0,0,0,0,0,.05l-.08.1h.19V17c-.21,0-.41,0-.63,0a.06.06,0,0,1-.06,0,.66.66,0,0,0-.09-.15,0,0,0,0,1,.05,0,8.24,8.24,0,0,0,.85,0,2.12,2.12,0,0,0,.71-.16h.07s0,0,.05,0l.17.16s0,.05,0,.05l-.13,0Zm-.17.23.29.14s.06,0,.06.06,0,0-.06,0a3.07,3.07,0,0,0-.38.34l-.25-.09a3,3,0,0,0,.34-.46ZM36.24,19h1.51l0,0c0-.07,0-.15.08-.24s0,0,0,0a2.38,2.38,0,0,1,.39.15.07.07,0,0,1-.06.07.08.08,0,0,0-.05.08v0h1.62s0,0,0,.06v.14c0,.05,0,.08,0,.08H38.42a2.35,2.35,0,0,0,.33.22,2.91,2.91,0,0,0,.53.26,2.55,2.55,0,0,0,.52.15s0,0,0,0l-.18.18s0,0,0,0a2.92,2.92,0,0,1-.65-.26,2.77,2.77,0,0,1-.49-.32,2.93,2.93,0,0,1-.34-.3H38l0,.05a1.48,1.48,0,0,1-.35.36,1.58,1.58,0,0,1-.41.24,4.72,4.72,0,0,1-.71.22l-.1,0a1.21,1.21,0,0,0-.16-.16s0,0,0-.06a3.47,3.47,0,0,0,.67-.17,2.47,2.47,0,0,0,.34-.15,2.24,2.24,0,0,0,.36-.31h-1.3s0,0,0-.08v-.14s0-.06,0-.06Z"/><path class="cls-3" d="M43.37,17h1.35v.41H43.37V17ZM43,16.07v4.09s0,.06.09.06h.22c.05,0,.08,0,.08-.06v-2.5H45c.06,0,.09,0,.09-.07V16.07s0-.05-.09-.05h-2c-.06,0-.09,0-.09.05Zm.39.22h1.35v.41H43.37v-.41Zm2.08-.22v1.52c0,.05,0,.07.09.07H47V19.6a.18.18,0,0,1-.09.18,1.22,1.22,0,0,1-.52.06s0,0,0,0a.67.67,0,0,1,.12.29.07.07,0,0,0,.07.06,2.23,2.23,0,0,0,.61-.13.42.42,0,0,0,.25-.36V16.07s0-.05-.11-.05H45.54c-.06,0-.09,0-.09.05Zm.39.91H47v.41h-1.2V17Zm0-.69H47v.41h-1.2v-.41Z"/><path class="cls-3" d="M52.47,17a3.45,3.45,0,0,0-.25-.37h2a1.68,1.68,0,0,1-.21.36,2.2,2.2,0,0,1-.27.34H52.64a2.55,2.55,0,0,0-.17-.33ZM53,16v.33H50.85c-.05,0-.07,0-.07.08v.14c0,.05,0,.08.07.08h1.06s-.08,0-.08.05a2.34,2.34,0,0,1,.33.49l.08.16H51.13c-.06,0-.09,0-.09.07v2.75s0,.05.09.05h.21c.06,0,.09,0,.09-.05V17.62h1a.62.62,0,0,1-.07.27.55.55,0,0,1-.19.22,1.32,1.32,0,0,1-.29.13,1.26,1.26,0,0,1-.28.07l.26.24.39-.12a.94.94,0,0,0,.28-.16.7.7,0,0,0,.22-.29,1.26,1.26,0,0,0,.07-.36h.69v.61c0,.14.09.21.28.21h.75c.17,0,.32-.13.43-.39l-.32-.16c-.06.17-.13.26-.2.26h-.53s0,0,0-.06v-.47H55v2.06c0,.12-.19.19-.54.2a1.38,1.38,0,0,1,.09.27c0,.05,0,.07.11.07.42-.07.64-.15.65-.22a.46.46,0,0,0,.08-.32V17.39s0-.06-.09-.06h-1a4.46,4.46,0,0,0,.31-.52.08.08,0,0,1,.09-.06s.06,0,.06-.05,0-.05-.08-.07h.94s.06,0,.06-.08v-.14c0-.05,0-.08-.06-.08H53.42v-.16c0-.07,0-.1.06-.1a.07.07,0,0,0,.05-.07s-.13-.06-.41-.06c0,0-.08,0-.08.06Zm-.88,2.74V20s0,.05.08.05h.22s.08,0,.08-.05v-.19H53.9V20s0,.05.08.05h.22s.08,0,.08-.05V18.72s0-.06-.08-.06h-2a.07.07,0,0,0-.08.08Zm.38.22H53.9v.54H52.54V19Z"/><path class="cls-3" d="M60.36,17.05H62q0,.14-.09.24a2.36,2.36,0,0,1-.14.26H60.68a4.26,4.26,0,0,0-.32-.5ZM60.43,16v.78h-.34a1.61,1.61,0,0,0-.17-.28,3.32,3.32,0,0,0-.33-.43c-.18.08-.28.13-.28.16a1.83,1.83,0,0,1,.33.43.75.75,0,0,1,.07.12H58.8s0,0,0,.06V17c0,.05,0,.08,0,.08H60a4.47,4.47,0,0,1,.28.5h-1s-.06,0-.06.07v.15c0,.05,0,.07.06.07H61v.37H59.47s0,0,0,.06v.15s0,.07,0,.07H61v.37H59s-.06,0-.06.08v.15s0,.07.06.07h1.74l-.38.22a5.89,5.89,0,0,1-.77.27,8.81,8.81,0,0,1-.93.19.09.09,0,0,0,0,.06,1.66,1.66,0,0,1,.19.18.1.1,0,0,0,.07.06,4.79,4.79,0,0,0,.57-.14c.27-.08.52-.17.74-.26a3.1,3.1,0,0,0,.57-.3l.14-.08v.82s0,.05.08.05h.22c.07,0,.11,0,.11-.05v-.86l.28.18a4.73,4.73,0,0,0,.71.34,6.06,6.06,0,0,0,.94.28l.06,0a1.88,1.88,0,0,1,.2-.2s.06,0,.06-.06a6,6,0,0,1-1.55-.42l-.5-.24h1.73s.06,0,.06-.07v-.15c0-.05,0-.08-.06-.08H61.4v-.37h1.46s0,0,0-.07v-.15s0-.06,0-.06H61.4v-.37h1.72s.06,0,.06-.07v-.15c0-.05,0-.07-.06-.07h-1a4.34,4.34,0,0,0,.2-.5h1.2s0,0,0-.08v-.14s0-.06,0-.06H62.8a3.07,3.07,0,0,0,.26-.43s0,0,.09-.05a0,0,0,0,0,.05,0s0,0-.05-.05l-.34-.15s0,0-.05,0a2.93,2.93,0,0,1-.16.39,1.82,1.82,0,0,1-.21.3h-.46v-.63c0-.06,0-.09,0-.09A.07.07,0,0,0,62,16s-.14-.05-.41-.05c-.06,0-.09,0-.09.05v.8h-.72v-.61c0-.06,0-.09,0-.1s.05,0,.05-.07-.13-.05-.4-.05c-.06,0-.09,0-.09.05Z"/><path class="cls-3" d="M69.57,16.33H71v.55H69.57v-.55Zm-1.68-.44a3.9,3.9,0,0,1-.19.35,3.09,3.09,0,0,1-.25.31A2.7,2.7,0,0,1,67,17a2.47,2.47,0,0,1-.41.24s0,0,0,0,0,0,.06,0a1.29,1.29,0,0,1,.16.17.09.09,0,0,0,.08,0,2.72,2.72,0,0,0,.29-.19l0,0v.14s0,.07.06.07h.49v.58h-.81s-.07,0-.07.07v.15c0,.05,0,.07.07.07h.81v1.32l-1,.16c.12.27.19.41.22.41s.09,0,.15-.13c.61-.11,1.21-.23,1.8-.37,0,0,0-.11,0-.28s0-.06,0-.06l0,0-.74.17V18.34h.7s.07,0,.07-.07v-.15c0-.05,0-.07-.07-.07h-.7v-.58h.51a.06.06,0,0,0,.07-.07v-.15c0-.05,0-.07-.07-.07H67.29l.22-.2a2.29,2.29,0,0,0,.3-.34l.17-.2a3.31,3.31,0,0,0,.41.42,1.56,1.56,0,0,0,.36.23h0l.25-.16a.1.1,0,0,0,0-.08,2.42,2.42,0,0,1-.53-.34,2.26,2.26,0,0,1-.36-.35.17.17,0,0,1,.12-.05c.07,0,.1,0,.1-.06s0,0,0,0l-.4-.17s0,0,0,.05Zm-1.08,2.84a3.4,3.4,0,0,1,.2.34,1.57,1.57,0,0,1,.16.49,1,1,0,0,0,.29-.07c.05,0,.08,0,.08,0a1,1,0,0,0-.11-.32,2.53,2.53,0,0,0-.28-.44.06.06,0,0,0-.06,0,.8.8,0,0,0-.28.07Zm1.73-.16a1.46,1.46,0,0,1-.1.34,2.45,2.45,0,0,1-.14.29v0l0,0,.2.08.08,0s0,0,0,0a3,3,0,0,0,.21-.54s0,0,0,0a.06.06,0,0,0,0,0s0,0-.07-.06l-.29-.1s0,0,0,0Zm1-1.39H71v.55H69.57v-.55Zm.55.83a5.15,5.15,0,0,0,.15.7,1.91,1.91,0,0,0,.19.5,2.4,2.4,0,0,0,.26.42,1.93,1.93,0,0,0,.33.31l.27.18.06,0s0,0,.06-.05l.19-.16s0,0,0-.05,0,0,0,0a1.45,1.45,0,0,1-.41-.26,1.24,1.24,0,0,1-.29-.32l-.12-.17a3.67,3.67,0,0,0,.72-.49h.11s.06,0,.06,0-.1-.11-.3-.26l-.05,0a2.09,2.09,0,0,1-.42.34,2,2,0,0,1-.25.14,3.68,3.68,0,0,1-.13-.43,3.08,3.08,0,0,1-.07-.39h.77c.06,0,.08,0,.08-.07V16.1s0-.05-.08-.05h-2s-.08,0-.08.05v3.67l-.41.09c.11.27.18.41.22.41s.09-.05.15-.13c.4-.11.81-.23,1.2-.37a.73.73,0,0,0,0-.28s0-.06,0-.06l0,0c-.23.08-.47.15-.73.22V18Z"/><path class="cls-3" d="M76.09,15.94l.33.2s.08.06.08.1,0,0-.09,0a.24.24,0,0,0-.18.06,5.93,5.93,0,0,1-1.24.78.09.09,0,0,1-.08,0,.91.91,0,0,0-.16-.13l0-.05s0,0,0,0a1.59,1.59,0,0,0,.4-.18,2.6,2.6,0,0,0,.51-.32A2.23,2.23,0,0,0,76,16s0,0,.06,0Zm.3,1a3,3,0,0,1,.36.25s0,.07-.08.08a.31.31,0,0,0-.14.06,4.59,4.59,0,0,1-.6.49v2.35s0,.05-.08.05h-.22s-.08,0-.08-.05v-2.1l-.73.39a1.55,1.55,0,0,0-.24-.2s0,0,0-.06l0,0a5.22,5.22,0,0,0,1.07-.6,4.31,4.31,0,0,0,.69-.61.09.09,0,0,1,.06,0Zm.68-.75H79.2a.06.06,0,0,1,.07.07v.15a.07.07,0,0,1-.07.07H77.07s-.06,0-.06-.07v-.15s0-.07.06-.07Zm-.28,1.25H79.5s.06,0,.06.08v.14c0,.05,0,.08-.06.08h-.82v2.15c0,.23-.22.35-.66.35l-.45,0s0,0,0-.09a.55.55,0,0,0-.09-.24v0a2.74,2.74,0,0,0,.56.06c.2,0,.3,0,.3-.16v-2H76.79s-.06,0-.06-.08V17.5c0-.05,0-.08.06-.08Z"/><polygon class="cls-1" points="34.85 14.28 80 14.28 80 14.48 34.85 14.48 34.85 14.28 34.85 14.28"/></g></g></svg>