<svg id="Layer_1" data-name="Layer 1" xmlns="http://www.w3.org/2000/svg" viewBox="0 0 80.01 20.44"><defs><style>.cls-1{fill:#0d4d8d;}.cls-2{fill:#f47d30;}</style></defs><title>bcp</title><path class="cls-1" d="M47.6,41.9a11,11,0,0,1,9.5-1.7c1.2.3,2.6.9,2.9,2.1a15,15,0,0,1-.6,2.9,8.18,8.18,0,0,0-5.8-1.4,6.32,6.32,0,0,0-4.5,3.7,8,8,0,0,0-.5,6.4,4,4,0,0,0,2.8,2.4,6.92,6.92,0,0,0,5.9-1.4c-.3,1.2-.5,2.5-.9,3.7-.4,1-1.7,1.3-2.7,1.5-2.8.4-6.1-.1-8.1-2s-2.4-4.5-2.3-7A11.53,11.53,0,0,1,47.6,41.9Z" transform="translate(-10 -39.79)"/><path class="cls-1" d="M28.6,40.6a44.57,44.57,0,0,1,6.3-.5,9.67,9.67,0,0,1,5.5,1.7,4,4,0,0,1,.4,5.6,6.21,6.21,0,0,1-3.4,2,5.34,5.34,0,0,1,2.7,1.9,5.36,5.36,0,0,1-1.6,6.8c-1.7,1.4-4,1.8-6.3,2a16.66,16.66,0,0,1-5-.4,2.62,2.62,0,0,1-1.8-1.6,5.32,5.32,0,0,1,0-3.3C26.6,50,27.5,45.3,28.6,40.6Zm3.9,2.8c-.3,1.4-.6,2.7-.9,4.1-.1.4.5.5.8.5a6.46,6.46,0,0,0,4.1-1c.9-.9,1.1-2.6-.3-3.2C35.2,43.2,33.8,43.4,32.5,43.4Zm-1.6,7.7c-.4,1.3-.6,2.6-.9,3.9-.1.6-.4,1.2.1,1.7,1.5,0,3.1.1,4.4-.7,1.6-.8,2.1-3,.8-4.1S32.4,51.1,30.9,51.1Z" transform="translate(-10 -39.79)"/><path class="cls-1" d="M63.1,40.7a23.15,23.15,0,0,1,4.6-.5c2.1,0,4.4,0,6.2,1a4.72,4.72,0,0,1,2.5,3.5,7.62,7.62,0,0,1-4.5,7.9,14.94,14.94,0,0,1-7,1c-.4,1.5-.6,3.1-1.1,4.6A2.39,2.39,0,0,1,62.1,60c-1.1.1-2.2,0-3.3,0C60.3,53.6,61.6,47.1,63.1,40.7Zm4.2,2.9c-.4,1.9-.8,3.7-1.2,5.6-.1.4.2.7.6.9a5.7,5.7,0,0,0,3.4-.5,3.81,3.81,0,0,0,1.8-5C71,43.2,68.9,43.5,67.3,43.6Z" transform="translate(-10 -39.79)"/><path class="cls-1" d="M78.5,45a6.45,6.45,0,0,1,3.2-3.5,2.05,2.05,0,0,1,2.2.7,8.65,8.65,0,0,1,0,6.7A16.66,16.66,0,0,0,78.5,45Z" transform="translate(-10 -39.79)"/><path class="cls-2" d="M84,42.2c1.9.8,3.2,2.4,4.5,3.8A5.34,5.34,0,0,1,90,49.9a5.75,5.75,0,0,1-1.6,3.2,24.75,24.75,0,0,1-5.8,4.8,4.24,4.24,0,0,1-3.1.7,4.51,4.51,0,0,1-3-2.7c3.2-1.6,6.2-3.8,7.5-6.9A9.39,9.39,0,0,0,84,42.2Z" transform="translate(-10 -39.79)"/><path class="cls-1" d="M12.1,45a6.45,6.45,0,0,1,3.2-3.5,2.05,2.05,0,0,1,2.2.7,8.65,8.65,0,0,1,0,6.7A17.81,17.81,0,0,0,12.1,45Z" transform="translate(-10 -39.79)"/><path class="cls-2" d="M17.5,42.2c1.9.8,3.2,2.4,4.5,3.8a5.34,5.34,0,0,1,1.5,3.9,5.75,5.75,0,0,1-1.6,3.2,24.75,24.75,0,0,1-5.8,4.8,4.24,4.24,0,0,1-3.1.7,4.51,4.51,0,0,1-3-2.7c3.2-1.6,6.2-3.8,7.5-6.9A8.9,8.9,0,0,0,17.5,42.2Z" transform="translate(-10 -39.79)"/></svg>