<svg xmlns="http://www.w3.org/2000/svg" xmlns:xlink="http://www.w3.org/1999/xlink" viewBox="0 0 80 42.09"><defs><style>.cls-1{fill:url(#Gradient_bez_nazwy_47);}.cls-2{fill:#fff;}.cls-3{fill:url(#Gradient_bez_nazwy_15);}</style><linearGradient id="Gradient_bez_nazwy_47" x1="40" y1="42.09" x2="40" gradientUnits="userSpaceOnUse"><stop offset="0" stop-color="#262626"/><stop offset="1" stop-color="#010101"/></linearGradient><radialGradient id="Gradient_bez_nazwy_15" cx="20.48" cy="4.53" r="15.86" gradientUnits="userSpaceOnUse"><stop offset="0" stop-color="#ed2224"/><stop offset="0.49" stop-color="#e7404a"/><stop offset="1" stop-color="#b9539f"/></radialGradient></defs><title>Belfius copy 2</title><g id="Layer_2" data-name="Layer 2"><g id="Belfius_copy_2" data-name="Belfius copy 2"><rect class="cls-1" width="80" height="42.09" rx="6.64" ry="6.64"/><rect class="cls-2" x="32.94" y="6.3" width="5.42" height="30.39"/><rect class="cls-2" x="43.01" y="16.56" width="5.42" height="20.13"/><polygon class="cls-2" points="72.75 36.69 64.59 26.04 64.59 26.04 72.09 16.56 65.69 16.56 58.5 25.75 58.5 6.3 53.07 6.3 53.07 36.69 58.5 36.69 58.5 26.35 65.69 36.69 72.75 36.69"/><path class="cls-2" d="M19.12,16.33a10.25,10.25,0,0,0-4.87,1.22V6.3H8.82V26.62a10.3,10.3,0,1,0,10.3-10.29Zm0,15.16A4.87,4.87,0,1,1,24,26.62,4.87,4.87,0,0,1,19.12,31.49Z"/><circle class="cls-3" cx="24.41" cy="9.63" r="4.84"/></g></g></svg>