<svg xmlns="http://www.w3.org/2000/svg" viewBox="0 0 80 17.17"><defs><style>.cls-1{fill:#ce0e4a;}.cls-2{fill:#fff;}.cls-3{fill:#425c6c;}</style></defs><title>Belfius</title><g id="Layer_2" data-name="Layer 2"><g id="Belfius"><path class="cls-1" d="M0,13.85A3.13,3.13,0,0,0,3.12,17H16.78V3.32A3.12,3.12,0,0,0,13.66.2H3.12A3.12,3.12,0,0,0,0,3.32Z"/><path class="cls-2" d="M3.85,6.24a1.17,1.17,0,0,1,1.2-1.19h6.68a1.16,1.16,0,0,1,1.19,1.19,1.17,1.17,0,0,1-1.19,1.2H5.05A1.18,1.18,0,0,1,3.85,6.24Z"/><path class="cls-2" d="M3.85,10.93a1.18,1.18,0,0,1,1.2-1.2h6.68a1.2,1.2,0,0,1,0,2.39H5.05A1.17,1.17,0,0,1,3.85,10.93Z"/><path class="cls-3" d="M26.89,17H22.72a1.18,1.18,0,0,1-1.17-1.16V1.36A1.18,1.18,0,0,1,22.72.2h4.17a4.62,4.62,0,0,1,3.12,8A4.92,4.92,0,0,1,26.89,17Zm-3-2.32h3a2.6,2.6,0,1,0,0-5.2h-3Zm0-7.53h3a2.3,2.3,0,0,0,2.29-2.3V4.53a2.31,2.31,0,0,0-2.29-2h-3Z"/><path class="cls-3" d="M37.85,17.17a4.63,4.63,0,0,1-4.67-4.47V9a4.48,4.48,0,1,1,9,0v1.4A1.19,1.19,0,0,1,41,11.56H35.51V12.7a2.34,2.34,0,0,0,2.34,2.15,2.37,2.37,0,0,0,1.82-.71,1.12,1.12,0,0,1,.93-.52,1.24,1.24,0,0,1,1.21,1.17,1.18,1.18,0,0,1-.23.67h0a2,2,0,0,1-.28.34A4.69,4.69,0,0,1,37.85,17.17ZM35.51,9.23H39.8V9a2.15,2.15,0,1,0-4.29,0Z"/><path class="cls-3" d="M45.09,17a1.13,1.13,0,0,1-1.17-1.16V1.36a1.17,1.17,0,0,1,2.33,0V15.81A1.13,1.13,0,0,1,45.09,17Z"/><path class="cls-3" d="M50.78,17a1.13,1.13,0,0,1-1.17-1.16V7h-.88a1.12,1.12,0,0,1-1.17-1.16,1.13,1.13,0,0,1,1.17-1.17h.88V3.39A3.43,3.43,0,0,1,53.22,0C55,0,55.81.85,55.81,1.69a1,1,0,0,1-1,1.1,1.24,1.24,0,0,1-.69-.21,2,2,0,0,0-.9-.25c-.94,0-1.28.57-1.28,1.06V4.71h2.45a1.13,1.13,0,0,1,1.16,1.17A1.12,1.12,0,0,1,54.39,7H51.94v8.77A1.12,1.12,0,0,1,50.78,17Z"/><path class="cls-3" d="M58.18,17A1.12,1.12,0,0,1,57,15.81V5.88a1.16,1.16,0,1,1,2.32,0v9.93A1.12,1.12,0,0,1,58.18,17Zm0-13.61A1.12,1.12,0,0,1,57,2.2V1.36a1.16,1.16,0,0,1,2.32,0V2.2A1.12,1.12,0,0,1,58.18,3.36Z"/><path class="cls-3" d="M65.94,17.17a4.47,4.47,0,0,1-4.47-4.47V5.88a1.17,1.17,0,1,1,2.33,0V12.7a2.15,2.15,0,1,0,4.29,0V5.88a1.17,1.17,0,1,1,2.33,0V12.7A4.48,4.48,0,0,1,65.94,17.17Z"/><path class="cls-3" d="M75.71,17.17a4.49,4.49,0,0,1-3.53-1.61,1.21,1.21,0,0,1-.23-.69,1.24,1.24,0,0,1,1.21-1.17,1.19,1.19,0,0,1,.93.51l0,.06a2.16,2.16,0,0,0,1.58.58c1.29,0,2-.71,2-1.41,0-1-1-1.38-2.22-1.84C73.93,11,72,10.26,72,8a3.54,3.54,0,0,1,3.82-3.44,4.39,4.39,0,0,1,3.52,1.84,1.18,1.18,0,0,1-1,1.82,1.06,1.06,0,0,1-.93-.55,2,2,0,0,0-1.57-.78c-.91,0-1.49.44-1.49,1.11s.93,1.11,2,1.53c1.62.64,3.64,1.43,3.64,4S77.79,17.17,75.71,17.17Z"/></g></g></svg>