<svg xmlns="http://www.w3.org/2000/svg" viewBox="0 0 80 14.97"><defs><style>.cls-1{fill:#ea1c2e;}.cls-1,.cls-2{fill-rule:evenodd;}.cls-2{fill:#fff;}.cls-3{fill:#0069b1;}</style></defs><title>FB_Farmacias Benavides</title><g id="Layer_2" data-name="Layer 2"><g id="FB_Farmacias_Benavides" data-name="FB_Farmacias Benavides"><polygon class="cls-1" points="0 0 22.68 0 22.68 14.96 0 14.96 0 0 0 0"/><path class="cls-2" d="M13.5,4.71a.45.45,0,0,0-.24.42,28.65,28.65,0,0,0,0,3.82l-.11.6a.91.91,0,0,0,.15.58c.07.08.09,0,.06-.08-.17-.39-.09-.53,0-.52,0,.22.08.28.13.17a1.89,1.89,0,0,0,0-.77c.27-1,.12-1.59.37-3.09.05-.06.09-.09.14,0a7.09,7.09,0,0,1,0,1.38c-.67,2.89,0,2.93.12,4.66a14.42,14.42,0,0,0,.22,2.39,1,1,0,0,0-.25.65h2.19c-.09-.07,0-.14-.27-.22s-.7-.28-.68-.52c.44-1.52.14-1.82.42-2.89a7,7,0,0,0,.1-4,6.15,6.15,0,0,1,.12-1.53l.57-.52c.05-.34,0-.65-1.17-1l0-.31c.17,0,.3,0,.32-.16a1.51,1.51,0,0,1,0-.3c0-.14.29,0-.07-.42.09-.87-.83-.68-1-.58-.4.24-.39.75,0,1.22a1,1,0,0,1,0,.59,2.91,2.91,0,0,0-1,.42Zm1.29,4.47a.11.11,0,0,1,.11,0A13.51,13.51,0,0,0,15,11.39a16.72,16.72,0,0,0-.07,2.92c-.09.23-.17.23-.23,0a25.83,25.83,0,0,0,0-2.59c.05-.72.1-1.79.1-2.53Z"/><path class="cls-2" d="M16.56,5.49l-.49.34a4.88,4.88,0,0,0,0,1.27,5.85,5.85,0,0,0,.16,1.79c0,.6,0,.54-.05.77s.1,0,.14-.07l0-.09c.22,0,.06.42,0,.59s0,.12.05.06a1,1,0,0,0,.18-.64l-.11-.63a5.57,5.57,0,0,0,.07-1.78,7.86,7.86,0,0,0,0-1.61Z"/><path class="cls-2" d="M16.7,5.44v.74h0a5,5,0,0,0,.8.73,6.05,6.05,0,0,0,1.38,1.15c.45.4.4.37.51.58.1,0,.07-.08.06-.15l-.05-.09c.19-.13.34.25.4.44s.08.08.08,0a1,1,0,0,0-.33-.57L19,7.9a5.77,5.77,0,0,0-1.21-1.31A7.66,7.66,0,0,0,16.7,5.44Z"/><path class="cls-2" d="M16.47,4.69l.26.53h.12a5.58,5.58,0,0,0,1.09,0A6.11,6.11,0,0,0,19.72,5c.61,0,.55,0,.77,0s0-.1-.06-.14l-.1,0c.05-.23.42-.06.59,0s.12,0,.06,0a1,1,0,0,0-.63-.18l-.63.11a5.63,5.63,0,0,0-1.79-.07,6.45,6.45,0,0,0-1.46,0Z"/><path class="cls-3" d="M26.54,12a1.69,1.69,0,0,0,.37,1.17,1.46,1.46,0,0,0,2.05,0A1.69,1.69,0,0,0,29.33,12,1.74,1.74,0,0,0,29,10.78a1.33,1.33,0,0,0-1-.43,1.28,1.28,0,0,0-1,.44A1.73,1.73,0,0,0,26.54,12Zm-1.47,2.78V6h1.54V9.15a4.43,4.43,0,0,1,0,.52c0,.17,0,.33-.05.5a2.72,2.72,0,0,1,.85-.87A2,2,0,0,1,28.45,9a2.3,2.3,0,0,1,1.85.78A3.28,3.28,0,0,1,31,12a3.26,3.26,0,0,1-.67,2.16,2.18,2.18,0,0,1-1.76.82,2.29,2.29,0,0,1-1.12-.25,2.07,2.07,0,0,1-.79-.77v.8ZM36,11.4a1.17,1.17,0,0,0-.38-.79,1.26,1.26,0,0,0-.85-.27,1.33,1.33,0,0,0-.87.27,1.28,1.28,0,0,0-.41.79Zm1.59,1H33.43a1.42,1.42,0,0,0,.43.89,1.34,1.34,0,0,0,.92.3,1.64,1.64,0,0,0,.76-.17,1.36,1.36,0,0,0,.53-.51l1.3.64a2.91,2.91,0,0,1-1.1,1.08,3,3,0,0,1-1.52.36,2.87,2.87,0,0,1-2.13-.8A3,3,0,0,1,31.84,12a2.93,2.93,0,0,1,.82-2.14A2.86,2.86,0,0,1,34.76,9a2.78,2.78,0,0,1,2.08.79A2.94,2.94,0,0,1,37.61,12a.92.92,0,0,1,0,.16c0,.06,0,.15,0,.26Zm1.21,2.37V9.21h1.58v.87a3,3,0,0,1,.93-.8A2.39,2.39,0,0,1,42.41,9a2.46,2.46,0,0,1,1.07.22,1.63,1.63,0,0,1,.69.66,1.53,1.53,0,0,1,.18.52,5,5,0,0,1,.06.91v3.41H42.8V12a2.52,2.52,0,0,0-.24-1.34.92.92,0,0,0-.81-.33,1.4,1.4,0,0,0-.61.14,1.23,1.23,0,0,0-.46.39,1.17,1.17,0,0,0-.21.45,3,3,0,0,0-.07.77v2.66ZM50,12a1.73,1.73,0,0,0-.37-1.17,1.27,1.27,0,0,0-1-.44,1.31,1.31,0,0,0-1,.43A1.74,1.74,0,0,0,47.21,12a1.74,1.74,0,0,0,.37,1.17,1.3,1.3,0,0,0,1,.42,1.31,1.31,0,0,0,1-.42A1.74,1.74,0,0,0,50,12Zm1.47,2.78H49.91l0-.8a2.05,2.05,0,0,1-.78.77A2.29,2.29,0,0,1,48,15a2.2,2.2,0,0,1-1.77-.82A3.29,3.29,0,0,1,45.58,12a3.28,3.28,0,0,1,.67-2.18A2.27,2.27,0,0,1,48.09,9a2.08,2.08,0,0,1,1.07.28,2.13,2.13,0,0,1,.78.82V9.21h1.53v5.53Zm2.87,0L52.09,9.21h1.85l.94,2.87c.07.24.13.45.18.65s.07.4.09.59c.05-.29.09-.54.14-.74a3.6,3.6,0,0,1,.16-.55l.94-2.82h1.82l-2.27,5.53Zm4.48-7.8a.94.94,0,0,1,.28-.66A.91.91,0,0,1,59.76,6a.94.94,0,0,1,.67.27.91.91,0,0,1,.28.66,1,1,0,0,1-.28.67.94.94,0,0,1-.67.27.88.88,0,0,1-.66-.28.94.94,0,0,1-.28-.66Zm.15,7.8V9.21h1.6v5.53ZM66.27,12a1.73,1.73,0,0,0-.38-1.17,1.25,1.25,0,0,0-1-.44,1.31,1.31,0,0,0-1,.43A1.7,1.7,0,0,0,63.48,12a1.74,1.74,0,0,0,.37,1.18,1.3,1.3,0,0,0,1,.42,1.28,1.28,0,0,0,1-.42A1.69,1.69,0,0,0,66.27,12Zm1.46,2.78H66.18l0-.8a2.12,2.12,0,0,1-.78.77A2.29,2.29,0,0,1,64.3,15a2.2,2.2,0,0,1-1.77-.82A3.29,3.29,0,0,1,61.85,12a3.28,3.28,0,0,1,.66-2.18A2.28,2.28,0,0,1,64.35,9a2,2,0,0,1,1.06.28,2.74,2.74,0,0,1,.86.87c0-.13,0-.28,0-.45s0-.35,0-.56V6h1.52v8.73Zm5.38-3.34a1.17,1.17,0,0,0-.38-.79,1.26,1.26,0,0,0-.85-.27,1.33,1.33,0,0,0-.87.27,1.28,1.28,0,0,0-.41.79Zm1.59,1H70.55a1.42,1.42,0,0,0,.43.89,1.34,1.34,0,0,0,.92.3,1.64,1.64,0,0,0,.76-.17,1.36,1.36,0,0,0,.53-.51l1.3.64A3,3,0,0,1,73.4,14.6a3.09,3.09,0,0,1-1.53.36,2.87,2.87,0,0,1-2.13-.8A3,3,0,0,1,69,12a2.93,2.93,0,0,1,.82-2.14A2.86,2.86,0,0,1,71.88,9,2.78,2.78,0,0,1,74,9.81,2.94,2.94,0,0,1,74.73,12a.92.92,0,0,1,0,.16c0,.06,0,.15,0,.26Zm.68,1.4,1.23-.64a.79.79,0,0,0,.33.51,1.17,1.17,0,0,0,.67.18,1.1,1.1,0,0,0,.62-.14.45.45,0,0,0,.23-.4c0-.26-.27-.49-.8-.67l-.4-.14a4,4,0,0,1-1.35-.73,1.25,1.25,0,0,1-.37-.92,1.57,1.57,0,0,1,.64-1.31A2.58,2.58,0,0,1,77.85,9a2.62,2.62,0,0,1,1.29.3,1.76,1.76,0,0,1,.79.85l-1.17.58a.92.92,0,0,0-.34-.47,1,1,0,0,0-.59-.16,1,1,0,0,0-.57.15.43.43,0,0,0-.22.38c0,.27.36.53,1.09.77l.2.06a3.32,3.32,0,0,1,1.29.69,1.44,1.44,0,0,1,.38,1,1.55,1.55,0,0,1-.64,1.31,2.76,2.76,0,0,1-1.71.49,3.19,3.19,0,0,1-1.47-.32,1.57,1.57,0,0,1-.8-.87Z"/><path class="cls-3" d="M28.79,7.15V5.86h-.26V5.11h.26V4.88A.89.89,0,0,1,29,4.23.89.89,0,0,1,29.67,4l.22,0,.22,0v.77H30c-.07,0-.12,0-.14.06a.31.31,0,0,0,0,.19v.06h.33v.75h-.33V7.15Zm3-1a.28.28,0,0,0,.07.21.21.21,0,0,0,.18.08.25.25,0,0,0,.19-.07.38.38,0,0,0,.07-.22.35.35,0,0,0-.07-.21.26.26,0,0,0-.19-.08.23.23,0,0,0-.18.08.31.31,0,0,0-.07.21Zm.54,1V6.84a1,1,0,0,1-.31.29.65.65,0,0,1-.36.1.72.72,0,0,1-.59-.3,1.31,1.31,0,0,1-.23-.78,1.31,1.31,0,0,1,.23-.8.71.71,0,0,1,.59-.3.69.69,0,0,1,.35.08.92.92,0,0,1,.28.25V5.11h.95v2Zm1.89,0v-2h1V5.4a.92.92,0,0,1,.29-.27.67.67,0,0,1,.35-.08h.07V6L35.75,6l-.12,0a.4.4,0,0,0-.29.1.4.4,0,0,0-.11.29v.81Zm2.53,0v-2h.95V5.4A.82.82,0,0,1,38,5.13a.59.59,0,0,1,.32-.08.57.57,0,0,1,.36.1.7.7,0,0,1,.23.33.91.91,0,0,1,.29-.32.63.63,0,0,1,.38-.11.58.58,0,0,1,.47.19.78.78,0,0,1,.18.54V7.15h-1v-1a.51.51,0,0,0,0-.21.11.11,0,0,0-.1,0,.14.14,0,0,0-.12.06.5.5,0,0,0,0,.2v1H38v-1a.43.43,0,0,0,0-.2.1.1,0,0,0-.1-.06.14.14,0,0,0-.12.06.53.53,0,0,0,0,.2v1Zm5.28-1a.28.28,0,0,0,.07.21.22.22,0,0,0,.18.08.25.25,0,0,0,.19-.07.32.32,0,0,0,.07-.22.3.3,0,0,0-.07-.21.26.26,0,0,0-.19-.08.25.25,0,0,0-.18.08.31.31,0,0,0-.07.21Zm.54,1V6.84a1,1,0,0,1-.31.29.65.65,0,0,1-.36.1.73.73,0,0,1-.59-.3,1.31,1.31,0,0,1-.23-.78,1.31,1.31,0,0,1,.23-.8.71.71,0,0,1,.59-.3.69.69,0,0,1,.35.08.82.82,0,0,1,.28.25V5.11h1v2ZM46,6a.75.75,0,0,0-.17-.1.47.47,0,0,0-.17,0,.36.36,0,0,0-.24.08.29.29,0,0,0-.09.22.25.25,0,0,0,.09.2.29.29,0,0,0,.22.08.39.39,0,0,0,.18,0A.58.58,0,0,0,46,6.27v.81a1.6,1.6,0,0,1-.3.11,1.45,1.45,0,0,1-.28,0A1.16,1.16,0,0,1,45,7.15a1,1,0,0,1-.35-.22,1.41,1.41,0,0,1-.24-.36,1.22,1.22,0,0,1-.08-.43,1,1,0,0,1,0-.3,1.39,1.39,0,0,1,.12-.28,1.18,1.18,0,0,1,.39-.38,1.08,1.08,0,0,1,.54-.13l.27,0,.31.09V6ZM48,4.48a.42.42,0,0,1-.15.34.53.53,0,0,1-.39.13A.56.56,0,0,1,47,4.82a.42.42,0,0,1-.15-.34A.44.44,0,0,1,47,4.13.59.59,0,0,1,47.43,4a.57.57,0,0,1,.39.12.44.44,0,0,1,.15.35Zm-1,2.67v-2h1v2Zm2.86-1a.33.33,0,0,0,.07.21.22.22,0,0,0,.19.08.23.23,0,0,0,.18-.07.32.32,0,0,0,.07-.22.3.3,0,0,0-.07-.21.25.25,0,0,0-.18-.08.26.26,0,0,0-.19.08.38.38,0,0,0-.07.21Zm.54,1V6.84a1,1,0,0,1-.31.29.6.6,0,0,1-.35.1.71.71,0,0,1-.59-.3,1.25,1.25,0,0,1-.24-.78,1.31,1.31,0,0,1,.23-.8.71.71,0,0,1,.6-.3.66.66,0,0,1,.34.08,1,1,0,0,1,.29.25V5.11h.95v2ZM52,7l.26-.63a1.58,1.58,0,0,0,.3.17.6.6,0,0,0,.23.06.17.17,0,0,0,.12,0,.11.11,0,0,0,0-.09c0-.05-.06-.09-.18-.11l-.09,0a.92.92,0,0,1-.42-.21.49.49,0,0,1-.13-.37.64.64,0,0,1,.26-.52,1.12,1.12,0,0,1,.7-.2,1.78,1.78,0,0,1,.41,0,1.15,1.15,0,0,1,.37.12l-.24.61-.25-.14a.5.5,0,0,0-.19,0,.18.18,0,0,0-.11,0,.09.09,0,0,0,0,.08s.08.09.23.13l.09,0a.9.9,0,0,1,.44.2.51.51,0,0,1,.14.36.69.69,0,0,1-.28.56,1.12,1.12,0,0,1-.73.22A2.13,2.13,0,0,1,52,7Z"/></g></g></svg>