<svg xmlns="http://www.w3.org/2000/svg" viewBox="0 0 63.72 80"><defs><style>.cls-1{fill:#f3922a;}</style></defs><title>Bitcoin</title><g id="Layer_2" data-name="Layer 2"><g id="Bitcoin"><path class="cls-1" d="M62.34,47.27c-1.82-3.9-6-6.78-11.53-8.17,7.69-3.24,9.37-8.17,9.37-14.18C59.9,14,52.11,9.81,42.76,8.56V0h-7V8.1H27.81V0h-7V8.11H0V20.24H7.63a4.07,4.07,0,0,1,4.26,4.14V55.5a4.32,4.32,0,0,1-4.32,4.38H0v12H20.78V80h7V71.89h7.93V80h7V71.89h.84s10.93,0,15.74-6.12C63.65,61.56,65,53.05,62.34,47.27Zm-36.15-27h7.56c5,0,11.54.21,11.54,6.94s-6.07,6.93-11.66,6.93H26.19ZM36.05,60H26.19V45.14h9.55c3.26.08,13.15-.86,13.15,7.43S38.75,60,36.05,60Z"/></g></g></svg>