<svg id="Layer_1" data-name="Layer 1" xmlns="http://www.w3.org/2000/svg" viewBox="0 0 1024.19 801.24"><title>bitWallet</title>
<path d="M345-4c16,4.76,25.72,17.88,37.22,28.43q73.41,67.44,146.32,135.43c10.2,9.46,12.74,21,7.43,32.56a27.65,27.65,0,0,1-6.55,8.73q-72.15,67-144.27,134c-2.81,2.61-4,2.87-6.16-1.05-18.06-32.16-46.44-46.92-82.5-44.46-35.27,2.41-61.28,20.13-74.24,54-11.28,29.55.08,64.92,26.58,85.14a81.23,81.23,0,0,0,19,10.9c2.26.91,2.68,1.41.73,3.2C256.62,453.81,245,465,232.88,475.73c-12.68,11.28-31.08,10.55-44-1.4q-41.3-38.15-82.51-76.37Q64,358.75,21.66,319.53c-13.12-12.14-12.92-29.2.31-41.44Q121.33,186.1,220.63,94,269.2,49,317.77,4c4.43-4.12,10-5.63,15.23-8Z" transform="translate(205.1 4.09)" style="fill:#144396"/>
<path d="M-205,629c7.66,0,15.32.12,23-.14,3.54-.12,4.49,1.06,4.46,4.52-.16,18.65-.08,37.29-.09,55.94v3.48c2.4-2.8,3.85-4.73,5.54-6.43,17.42-17.66,38.44-20.8,61.26-14.13,27.51,8,44.67,33.66,42.51,65.18-1.56,22.87-12,40.47-32.18,51.88a55.88,55.88,0,0,1-19.29,6.45c-1.45.23-3,0-4.18,1.25h-15c-11.68-.77-21.63-5.43-30.28-13.21a51.24,51.24,0,0,1-6.25-6.85c-.26,4.68.1,8.95-.18,13.2-.29,4.59-1.53,5.77-6.17,5.83-6.29.08-12.59,0-18.89,0-1.48,0-3,.2-4.23-1Z" transform="translate(205.1 4.09)" style="fill:#144397"/>
<path d="M359,797a2.36,2.36,0,0,0-2.1-1.08c-27.7-3-53.52-27.46-53-64.1.73-52.92,51.37-73,86.69-57.75a53,53,0,0,1,12.24,7.61c3.61,2.91,6.55,6.46,10.63,9.9,0-5.38.13-10.75-.05-16.12-.1-3.06,1.05-4,4.06-4a166.83,166.83,0,0,0,17.47-.37c4.35-.38,5.66.72,5.62,5.3-.25,24.15-.13,48.31-.12,72.46,0,13.66-.1,27.33.12,41,.06,3.57-.54,5-4.55,4.83-6.47-.37-13-.16-19.48,0-2.55.06-3.52-.7-3.44-3.39.19-5.94.06-11.88.06-17.79-2.07-.34-2.09,1.23-2.72,2a52.81,52.81,0,0,1-32.26,20.18c-1.44.29-3,0-4.16,1.3Z" transform="translate(205.1 4.09)" style="fill:#333"/>
<path d="M649,797c-3.16-2-7-1.84-10.38-2.94-27.66-8.84-44.52-34-42.91-64.24,2.06-38.52,30.76-63.09,70.63-60.65,21.3,1.3,39.11,9.18,51.36,27.21,8.1,11.93,10.18,25.42,9,39.61-.34,3.92-1.69,5.15-5.78,5.13-30.64-.15-61.28.09-91.92-.11-5.09,0-5.33,1.88-4.49,5.85,3.54,16.63,14.41,26.49,31.87,28.07,14.4,1.29,27.24-1.77,35.58-15a3.82,3.82,0,0,1,3.7-1.93c8.63,0,17.27,0,26.59,0a56.56,56.56,0,0,1-17.62,24.71c-9.41,7.74-20.31,11.86-32.37,13.06-1.8.18-3.68,0-5.23,1.25Z" transform="translate(205.1 4.09)" style="fill:#333"/>
<path d="M819,795c-8.77-1.1-17.59-.17-26.38-.56a50.38,50.38,0,0,1-14.17-2.6C766.21,787.66,759,777,758.9,762.9c-.11-21.8-.14-43.6.08-65.4,0-4.37-.8-6-5.61-5.84-10.44.39-10.45.1-10.46-10.61,0-9.59,0-9.59,9.66-9.6,6.32,0,6.31,0,6.3-6.47,0-7,.1-14,0-21-.06-2.61.77-3.48,3.4-3.42,6.82.16,13.65.22,20.46,0,2.95-.09,3.68,1,3.63,3.71-.15,7.32.18,14.66-.15,22-.19,4.3,1.33,5.32,5.41,5.14,9.13-.4,18.28-.31,27.42-.42v21c-1.94,1.7-4.33,1.52-6.64,1.54q-9.5.09-19,0c-3.36,0-4.82,1.39-4.82,4.76,0,21.15-.17,42.3.12,63.44.1,6.51,3.08,9.23,9.69,9.6,4.82.27,9.66,0,14.49.11,2.16,0,4.36,0,6.14,1.54Z" transform="translate(205.1 4.09)" style="fill:#333"/>
<path d="M194.45,704.6c-2.16,7.21-4.12,13.64-6,20.08-6.44,22-12.91,44.07-19.2,66.16-.77,2.69-1.72,3.89-4.64,3.86-7.16-.07-14.34,0-21.49.38-3,.15-4.05-1.13-4.9-3.63q-19.65-58.17-39.48-116.26c-1.07-3.11-.77-4.11,2.74-4,6.32.21,12.67.24,19-.1,3.68-.2,5.21,1,6.19,4.58,7.52,27.43,15.25,54.81,22.92,82.2a51.69,51.69,0,0,0,4.15,11.18q2.24-7.77,4.48-15.54c7.38-25.75,14.83-51.49,22.05-77.28,1.08-3.84,2.6-5.41,6.81-5.11a169.25,169.25,0,0,0,19,0c3.3-.13,4.5,1,5.36,4.2,8.36,31,16.93,62,25.46,92.93a10.15,10.15,0,0,0,1.24,1.83c1.29-4.48,2.46-8.35,3.52-12.24,7.4-27.14,14.87-54.25,22.06-81.44,1.1-4.15,2.82-5.6,7.07-5.31a139.57,139.57,0,0,0,17,0c3.77-.19,4,.76,2.89,4.17q-18.53,55.1-36.77,110.3c-3,8.89-3,8.88-12.48,8.88-5.16,0-10.33-.14-15.49.09-3.06.14-4.21-1-5.09-3.94-8.22-27.93-16.65-55.8-25-83.68A18.74,18.74,0,0,0,194.45,704.6Z" transform="translate(205.1 4.09)" style="fill:#333"/>
<path d="M461.5,446.38c-21.94-.42-38.9-9.51-48.31-29.79-10.34-22.31-.33-48.95,22.25-60.08,21.8-10.75,42.64-8.5,61.54,6.82,23.65,19.18,21.17,57.28-4.51,73.56C480.72,444.34,474.44,446.25,461.5,446.38Z" transform="translate(205.1 4.09)" style="fill:#49bded"/>
<path d="M27.42,730.11c0-11.49-.09-23,.07-34.47,0-3.1-1-4-4-3.95-3.76,0-8.63,1.79-11-.82s-.67-7.34-.71-11.14c-.09-8.27,0-8.27,8.5-8.28,7.28,0,7.29,0,7.28-7.52,0-6.49.05-13-.12-19.48-.07-2.63.37-3.94,3.48-3.84,6.82.22,13.66.18,20.48,0,3-.09,3.62,1.11,3.57,3.81-.15,7.66.06,15.32-.12,23-.07,3,.88,4,4,4,8.15-.19,16.32,0,24.48-.13,3.09-.06,4.63.59,4.4,4.1-.35,5.29,1.65,12.13-1,15.49-2.78,3.56-9.93.87-15.16,1.14-4.32.22-8.66.16-13,0-2.54-.08-3.5.71-3.48,3.39.11,22.15,0,44.29.17,66.44,0,6.66,3.18,9.92,9.72,11.25,6.12,1.24,12.29.59,18.43.56,3.34,0,4.41,1.09,4.24,4.3-.29,5.3,1.66,12.14-1,15.5-2.81,3.6-10,1-15.21,1.12-6.81.23-13.64.12-20.36-1.43C37.71,790,29.07,780.34,28,766.57c-.5-6.13-.33-12.31-.39-18.47,0-6,0-12,0-18Z" transform="translate(205.1 4.09)" style="fill:#144396"/>
<path d="M302.77,446.37a82.76,82.76,0,0,1-27.1-3.92c-3.34-1.06-4.71-2.11-1.36-5.12,21.24-19.1,41.8-38.93,63.16-57.9,13.39-11.91,26.26-24.43,39.31-36.72,4.16-3.92,4.58-4,6.4,1.44,7.48,22.52,5.05,44.1-8,63.86C358.14,433.84,333.39,445.87,302.77,446.37Z" transform="translate(205.1 4.09)" style="fill:#49bded"/>
<path d="M569,711.49c0,26-.1,52,.1,78,0,4.26-1.17,5.37-5.29,5.13-6.31-.37-12.66-.23-19,0-3,.1-4-.55-4-3.79q.15-79,0-157.94c0-3.21.8-4.35,4.19-4.2,6.49.29,13,.34,19.48,0,4-.21,4.61,1.36,4.6,4.89C569,659.51,569,685.5,569,711.49Z" transform="translate(205.1 4.09)" style="fill:#333"/>
<path d="M476.75,712c0-26.15.08-52.3-.09-78.45,0-4,1-5.18,5-4.91a132.42,132.42,0,0,0,17.48,0c4.51-.3,5.9.94,5.86,5.68-.22,32.32-.11,64.63-.11,97,0,19.49-.13,39,.11,58.46.06,4.15-1.25,5.07-5.09,4.86a161,161,0,0,0-18,0c-4,.23-5.31-.82-5.28-5.08C476.86,763.64,476.76,737.82,476.75,712Z" transform="translate(205.1 4.09)" style="fill:#333"/>
<path d="M-40.88,733c0-19,.1-38-.09-57,0-3.71.88-5,4.72-4.77,6.48.32,13,.16,19.49,0,2.52,0,3.48.7,3.47,3.41q-.11,58.23,0,116.47c0,2.58-.77,3.54-3.41,3.49-6.66-.12-13.33-.23-20,.07-3.83.17-4.27-1.56-4.25-4.75C-40.83,771-40.88,752-40.88,733Z" transform="translate(205.1 4.09)" style="fill:#144495"/>
<path d="M570.23,446.25c-20,.06-33.68-13.19-33-31.61.42-11.55,10-24.17,25.19-27.08,15.89-3.05,31.62,4.87,37,19.13,5.56,14.65-2.32,31.83-17,37.29C578.19,445.56,573.91,446.65,570.23,446.25Z" transform="translate(205.1 4.09)" style="fill:#49bded"/>
<path d="M-44.31,638.36c.07-9.22,7.56-16.28,17.21-16.22,9.93.06,17.94,7.48,17.75,16.44s-8.28,16.42-18,16.33C-36.91,654.83-44.38,647.54-44.31,638.36Z" transform="translate(205.1 4.09)" style="fill:#144497"/>
<path d="M-95.93,732.62c-.15,24.32-18.17,42.66-41.68,42.4-21.91-.23-39.86-18.78-40.39-40.19-.77-30.52,22-43.91,41.95-43.85C-112.38,691.05-95.79,708.3-95.93,732.62Z" transform="translate(205.1 4.09)" style="fill:#fff"/>
<path d="M413.52,732.57c-.21,24.59-18,42.95-41.43,42.47-20.45-.43-41.52-16.18-40.73-44.93.62-22.38,18.24-39.52,41.23-39.16C396.7,691.33,413.74,708.65,413.52,732.57Z" transform="translate(205.1 4.09)" style="fill:#fff"/>
<path d="M661,724.19c-11.14,0-22.29-.07-33.43,0-3.08,0-4-.64-3.35-4,3.79-21.15,23.94-33.8,46.35-28.78,14.18,3.17,23.85,11.28,27.27,25.82,1.62,6.93,1.45,7.05-5.4,7H661Z" transform="translate(205.1 4.09)" style="fill:#fff"/></svg>