<svg id="Layer_1" data-name="Layer 1" xmlns="http://www.w3.org/2000/svg" xmlns:xlink="http://www.w3.org/1999/xlink" viewBox="0 0 79.99 42.09"><defs><style>.cls-1{fill:url(#linear-gradient);}.cls-2{fill:#fff;}.cls-3{fill:url(#radial-gradient);}</style><linearGradient id="linear-gradient" x1="50" y1="30.95" x2="50" y2="73.04" gradientTransform="matrix(1, 0, 0, -1, 0, 102)" gradientUnits="userSpaceOnUse"><stop offset="0" stop-color="#262626"/><stop offset="1"/></linearGradient><radialGradient id="radial-gradient" cx="30.48" cy="68.51" r="15.86" gradientTransform="matrix(1, 0, 0, -1, -10, 73.04)" gradientUnits="userSpaceOnUse"><stop offset="0" stop-color="#ec2024"/><stop offset="0.49" stop-color="#e63f4a"/><stop offset="1" stop-color="#b8529e"/></radialGradient></defs><title>Blik</title><path class="cls-1" d="M83.36,71.05H16.64A6.64,6.64,0,0,1,10,64.41V35.6A6.64,6.64,0,0,1,16.64,29H83.35A6.64,6.64,0,0,1,90,35.6V64.4A6.64,6.64,0,0,1,83.36,71.05Z" transform="translate(-10 -28.96)"/><rect class="cls-2" x="32.94" y="6.29" width="5.42" height="30.39"/><rect class="cls-2" x="43.01" y="16.55" width="5.42" height="20.13"/><polygon class="cls-2" points="72.75 36.68 64.59 26.03 64.59 26.03 72.09 16.55 65.69 16.55 58.5 25.75 58.5 6.29 53.07 6.29 53.07 36.68 58.5 36.68 58.5 26.35 65.69 36.68 72.75 36.68"/><path class="cls-2" d="M29.12,45.28a10.25,10.25,0,0,0-4.87,1.22V35.25H18.83V55.58a10.29,10.29,0,1,0,10.29-10.3Zm0,15.17A4.87,4.87,0,1,1,34,55.58,4.87,4.87,0,0,1,29.12,60.45Z" transform="translate(-10 -28.96)"/><circle class="cls-3" cx="24.41" cy="9.62" r="4.84"/></svg>