<svg id="Layer_1" data-name="Layer 1" xmlns="http://www.w3.org/2000/svg" viewBox="0 0 80 11.28"><defs><style>.cls-1{fill:#aa2b3c;}.cls-1,.cls-2{fill-rule:evenodd;}.cls-2{fill:#313883;}</style></defs><title>BnB-NORD</title><polygon class="cls-1" points="49.53 10.6 49.68 10.73 49.81 10.85 49.95 10.91 50.08 10.97 50.3 11.04 50.43 11.06 51.98 11.06 51.98 0.24 49.84 0.24 49.84 7.86 43.11 0.68 42.96 0.57 42.83 0.46 42.69 0.39 42.56 0.33 42.34 0.26 42.22 0.24 40.35 0.24 40.35 11.06 42.52 11.06 42.52 3.18 49.53 10.6"/><path class="cls-2" d="M16,44.6l.64,0,.59.07.55.11.53.16.27.09.24.11.22.11.22.13.22.13.2.15.17.15L20,46l.18.18.15.2.15.2.13.2.13.22.13.22.11.24.09.24.09.26.06.26.11.55.07.59,0,.64,0,.59-.07.57-.11.55-.18.53-.19.48-.11.22-.13.22-.13.2-.15.22-.15.17L20,54l-.18.15-.17.17-.2.15-.22.13L19,54.7l-.22.13-.24.11L18.3,55l-.24.09-.24.09-.55.11-.55.09-.59,0H10V44.6Zm-3.79,2v6.84h4.21l.37,0,.35-.07.31-.09.29-.11L18,53l.24-.15.22-.2.18-.24.15-.24.13-.29.11-.3.09-.35.07-.35,0-.41,0-.42,0-.44,0-.42-.07-.37L19,48.45l-.09-.31-.13-.29-.15-.24-.17-.22-.22-.2L18,47l-.26-.13-.31-.11-.31-.09-.35-.06-.37,0-.42,0H12.17Z" transform="translate(-10 -44.36)"/><polygon class="cls-2" points="17.96 2.63 17.31 2.65 16.93 2.65 16.54 2.69 16.12 2.74 15.71 2.83 15.27 2.93 14.85 3.09 14.46 3.26 14.28 3.4 14.11 3.5 13.93 3.63 13.76 3.79 13.6 3.97 13.47 4.14 13.34 4.34 13.23 4.56 13.12 4.77 13.06 5.04 12.99 5.3 12.92 5.58 12.91 5.89 12.88 6.2 12.88 11.06 15.25 11.06 15.25 6.02 15.27 5.8 15.33 5.58 15.42 5.41 15.55 5.26 15.71 5.13 15.88 5.01 16.08 4.91 16.3 4.82 16.52 4.75 16.76 4.71 17.2 4.64 17.61 4.6 18.31 4.6 18.75 4.64 19.19 4.71 19.43 4.75 19.65 4.82 19.85 4.91 20.05 5.01 20.24 5.13 20.39 5.26 20.53 5.41 20.61 5.58 20.68 5.8 20.7 6.02 20.7 11.06 23.05 11.06 23.05 5.89 23 5.58 22.96 5.3 22.89 5.04 22.81 4.77 22.72 4.56 22.61 4.34 22.48 4.14 22.32 3.97 22.17 3.79 22.02 3.63 21.84 3.5 21.67 3.4 21.47 3.26 21.07 3.09 20.66 2.93 20.24 2.83 19.83 2.74 19.41 2.69 19.01 2.65 18.62 2.65 17.96 2.63"/><path class="cls-1" d="M70.28,53.71h-.55l-.63,0-.33,0-.33-.07-.33-.07-.33-.09-.31-.13-.29-.13L66.92,53l-.22-.2-.22-.22-.06-.11-.09-.13-.07-.15,0-.13,0-.15,0-.17-.09-.85L66,50l0-.88.09-.86,0-.15,0-.15,0-.15.07-.13.06-.13.09-.13.22-.22.22-.17.26-.17.29-.13.31-.11.33-.09.33-.09.33-.05.33,0,.63,0,.55,0,.55,0,.63,0,.33,0,.33.05.33.09.31.09.31.11.31.13.26.17.22.17.2.22.09.13.09.13.07.13,0,.15,0,.15,0,.15.07.86,0,.88,0,.86-.07.85,0,.17,0,.15,0,.13-.07.15-.09.13-.09.11-.2.22-.22.2-.26.15-.31.13-.31.13-.31.09-.33.07-.33.07-.33,0-.63,0Zm0,1.93h.83l.48,0,.48,0,.5-.06.5-.09.48-.13.5-.18.24-.09.22-.13.22-.11.22-.15.22-.15.2-.15.17-.2.18-.2.16-.22.15-.22.13-.26.11-.26.11-.31.06-.3.07-.33,0-.35,0-.68,0-1,0-1,0-.68,0-.35-.07-.35-.06-.3-.11-.29-.11-.28-.13-.24-.15-.24-.16-.22-.18-.2-.17-.17-.2-.18L75,45.37l-.22-.13-.22-.13L74.32,45l-.24-.11-.5-.15-.48-.13-.5-.09-.5-.07-.5-.05-.48,0-.83,0-.83,0-.46,0-.48,0-.51.07-.5.09-.51.13-.48.15-.24.12-.22.11-.24.13-.2.13-.22.15-.2.18-.17.17-.17.2-.18.22-.13.24-.13.24-.13.28-.09.29-.09.3,0,.35,0,.35V49l0,1,0,1,0,.68,0,.35.05.33.09.3.09.31.13.26.13.26.13.22.18.22.17.2.17.2.2.15.22.15.2.15.24.11.22.13.24.09.47.18.5.13.5.09.51.06.48,0,.46,0Z" transform="translate(-10 -44.36)"/><path class="cls-2" d="M42.11,44.62h.44l.41,0,.4.07.37.09.35.11.31.13.31.15.26.15.22.2.22.22.17.24.13.26.13.26.07.31.07.31v.33l0,.35-.07.33-.11.31-.18.29-.2.26-.24.24-.28.2-.33.18.22.09.2.11.2.11.2.13.17.13.15.13.15.15.13.15.11.18.12.17.09.17.07.2.07.2,0,.2,0,.22v.44l0,.2,0,.22,0,.17,0,.2-.08.18-.07.15-.11.17-.22.28-.26.26-.29.24-.31.2-.35.17L44.3,55l-.37.13-.39.09-.39.09-.39.05-.39,0-.39,0H35.1V44.62Zm-4.86,8.83h5l.5-.05.24,0,.2,0,.2,0,.15-.09.16-.06.13-.09.11-.11.09-.13.07-.13.06-.15,0-.17,0-.2,0-.17,0-.18-.06-.15-.07-.15L44,51.38l-.11-.11-.13-.09-.16-.09L43.41,51l-.2-.06-.2,0-.24,0-.5,0-.59,0H37.26v2.62Zm0-4.62h4.86l.44,0,.37-.06.15,0,.13-.06.13-.07.11-.07.09-.11.09-.09.07-.13,0-.13,0-.13v-.33l0-.15,0-.13-.07-.11-.09-.11L43.44,47l-.11-.09-.13-.06-.13,0-.15-.07-.37-.06-.44,0-.5,0H37.25v2.22Z" transform="translate(-10 -44.36)"/><path class="cls-1" d="M90,55.42l-3.3-4.34L87,51l.28-.06.24-.09.26-.11.24-.11.22-.15.2-.15.2-.18.17-.2.15-.22.14-.24.13-.26.09-.29.06-.32,0-.35v-.63l0-.24,0-.24,0-.22-.05-.2-.06-.2-.09-.2L89,46.17,88.91,46l-.11-.15-.11-.13-.13-.13-.26-.22-.31-.2L87.66,45l-.35-.13-.37-.11-.39-.07-.39-.07-.39,0-.42,0-.41,0H78.61V55.41h2.15V51.2h3.35l3.13,4.21H90Zm-9.27-8.83h3.88l.61,0,.51,0,.24,0,.2,0,.2,0,.18.07.15.09.13.09.11.11.09.13.07.13,0,.15,0,.18v.39l0,.18,0,.15-.07.13-.09.13-.11.11-.13.09-.16.08-.18.06-.2.07-.2,0-.24,0-.51,0-.61,0H80.72V46.59Z" transform="translate(-10 -44.36)"/></svg>