<svg xmlns="http://www.w3.org/2000/svg" xmlns:xlink="http://www.w3.org/1999/xlink" viewBox="0 0 80 21.97"><defs><style>.cls-1{fill:none;}.cls-2{clip-path:url(#clip-path);}.cls-3{fill:url(#linear-gradient);}.cls-4{clip-path:url(#clip-path-2);}.cls-5{fill:url(#linear-gradient-2);}.cls-6{clip-path:url(#clip-path-3);}.cls-7{fill:url(#linear-gradient-3);}.cls-8{clip-path:url(#clip-path-4);}.cls-9{fill:url(#linear-gradient-4);}.cls-10{clip-path:url(#clip-path-5);}.cls-11{fill:url(#linear-gradient-5);}.cls-12{clip-path:url(#clip-path-6);}.cls-13{fill:url(#linear-gradient-6);}.cls-14{fill:#fff;}.cls-15{fill:#e9402f;}.cls-16{fill:#231f20;}</style><clipPath id="clip-path" transform="translate(0 0)"><rect class="cls-1" width="21.97" height="21.97"/></clipPath><linearGradient id="linear-gradient" x1="-249.58" y1="436.19" x2="-249.1" y2="436.19" gradientTransform="matrix(0, 47.87, 47.87, 0, -20869.21, 11946.79)" gradientUnits="userSpaceOnUse"><stop offset="0" stop-color="#008259"/><stop offset="0.13" stop-color="#188f68"/><stop offset="0.41" stop-color="#54b090"/><stop offset="0.6" stop-color="#80c7ac"/><stop offset="0.85" stop-color="#31ae85"/><stop offset="1" stop-color="#07a170"/></linearGradient><clipPath id="clip-path-2" transform="translate(0 0)"><path class="cls-1" d="M1.72.39C1.29.39,1,.75,1,1.25a54,54,0,0,0-.55,9A82.19,82.19,0,0,0,1,20.39c.05.49.34.87.77.87h19a.8.8,0,0,0,.77-.87s-.21-4.69-.21-9.28.21-9.86.21-9.86a.81.81,0,0,0-.77-.86Z"/></clipPath><linearGradient id="linear-gradient-2" x1="-250.19" y1="435.73" x2="-249.71" y2="435.73" gradientTransform="matrix(0, 53.79, 53.79, 0, -23427.71, 13452.78)" gradientUnits="userSpaceOnUse"><stop offset="0" stop-color="#07a170"/><stop offset="0.1" stop-color="#2ead83"/><stop offset="0.3" stop-color="#80c7ac"/><stop offset="0.46" stop-color="#31ae85"/><stop offset="0.55" stop-color="#07a170"/><stop offset="0.84" stop-color="#008259"/><stop offset="0.89" stop-color="#00895f"/><stop offset="0.96" stop-color="#019b70"/><stop offset="1" stop-color="#02a97d"/></linearGradient><clipPath id="clip-path-3" transform="translate(0 0)"><path class="cls-1" d="M12.4,2.59a16.65,16.65,0,0,1,3.3,2A19.9,19.9,0,0,0,10.83,6l-.08.15a33,33,0,0,1,4.75-.55,14.82,14.82,0,0,1-1.62,1.94l-.07.17c1.48-.89,1.89-.95,3.25-1.75a8.89,8.89,0,0,1,.66,3.9A12.74,12.74,0,0,0,18.47,5c.9-.62,1-1.12,1-1.12a8.21,8.21,0,0,0-1.73.23,15.65,15.65,0,0,0-5.3-1.71Z"/></clipPath><linearGradient id="linear-gradient-3" x1="-264.23" y1="426.32" x2="-263.75" y2="426.32" gradientTransform="matrix(0, -34.81, -34.81, 0, 14855.07, -9178.63)" gradientUnits="userSpaceOnUse"><stop offset="0" stop-color="#01b086"/><stop offset="1" stop-color="#07a170"/></linearGradient><clipPath id="clip-path-4" transform="translate(0 0)"><path class="cls-1" d="M3.4,12.88a9.24,9.24,0,0,0,0,2.78,8.4,8.4,0,0,0-1.2.3l-.07.15A15,15,0,0,0,3.81,17a5.56,5.56,0,0,0,1.28,1.82l.07-.15A3.39,3.39,0,0,1,5,17.46a7.87,7.87,0,0,0,2.16.35l.07-.15a5.74,5.74,0,0,1-2-1.05,5.64,5.64,0,0,1,.73-1.42L6,15c-.61.1-1.18.32-1.71.43a9.82,9.82,0,0,1-.8-2.73Z"/></clipPath><linearGradient id="linear-gradient-4" x1="-264.23" y1="426" x2="-263.74" y2="426" gradientTransform="matrix(0, -34.82, -34.82, 0, 14837.99, -9181.33)" xlink:href="#linear-gradient-3"/><clipPath id="clip-path-5" transform="translate(0 0)"><path class="cls-1" d="M7.07,7.85a9.27,9.27,0,0,0-1.23,0,12.3,12.3,0,0,0-2.08.22l-.07.15a3.92,3.92,0,0,1,2.16.63A12,12,0,0,0,3.59,12.1,23.15,23.15,0,0,1,6.52,9.71S7,11.25,7.3,12l.07-.15A12.68,12.68,0,0,1,8.06,9.2a2.35,2.35,0,0,1,.78-.14,12.11,12.11,0,0,1,3.34.21l.07-.15A12.31,12.31,0,0,0,8.56,8h0a8.18,8.18,0,0,1,.53-1.19A6.07,6.07,0,0,0,7.07,7.85"/></clipPath><linearGradient id="linear-gradient-5" x1="-264.23" y1="426.09" x2="-263.75" y2="426.09" gradientTransform="matrix(0, -34.8, -34.8, 0, 14834.81, -9175.48)" xlink:href="#linear-gradient-3"/><clipPath id="clip-path-6" transform="translate(0 0)"><path class="cls-1" d="M11.35,17.31c0-.3,0-.56-.06-.89-.36.48-.66.86-1,1.3a4.84,4.84,0,0,1-1.32.1H8.43L8.36,18a5.19,5.19,0,0,0,1.22.42,9.65,9.65,0,0,1-1.12.76l-.07.15a8.62,8.62,0,0,0,2.27-.85,3.58,3.58,0,0,0,.91-.06l.08-.15c-.05-.15-.19-.25-.23-.46A16.49,16.49,0,0,0,13,16.32l.07-.16a13.68,13.68,0,0,1-1.76,1.15"/></clipPath><linearGradient id="linear-gradient-6" x1="-264.23" y1="426.18" x2="-263.75" y2="426.18" gradientTransform="matrix(0, -34.81, -34.81, 0, 14845.87, -9178.48)" xlink:href="#linear-gradient-3"/></defs><title>BNP Paribas Fortis</title><g id="Layer_2" data-name="Layer 2"><g id="BNP_Paribas_Fortis" data-name="BNP Paribas Fortis"><g class="cls-2"><rect class="cls-3" width="21.97" height="21.97"/></g><g class="cls-4"><rect class="cls-5" x="0.4" y="0.39" width="21.12" height="20.87"/></g><g class="cls-6"><rect class="cls-7" x="10.75" y="2.44" width="8.74" height="7.39"/></g><g class="cls-8"><rect class="cls-9" x="2.12" y="12.73" width="5.08" height="6.12"/></g><g class="cls-10"><rect class="cls-11" x="3.59" y="6.78" width="8.66" height="5.32"/></g><g class="cls-12"><rect class="cls-13" x="8.36" y="16.16" width="4.75" height="3.15"/></g><path class="cls-14" d="M17.13,5.78c-1.36.8-1.77.86-3.25,1.74a14.77,14.77,0,0,0,1.69-2.1A31.33,31.33,0,0,0,10.83,6a18.63,18.63,0,0,1,4.94-1.56,16.65,16.65,0,0,0-3.3-2A14.27,14.27,0,0,1,17.84,4a9.22,9.22,0,0,1,1.73-.22,2.25,2.25,0,0,1-1,1.11,12.68,12.68,0,0,1-.75,4.79c0-1.38-.14-3.13-.66-3.89" transform="translate(0 0)"/><path class="cls-14" d="M7.2,17.66a5.41,5.41,0,0,1-2-1.21A6.1,6.1,0,0,1,6,15c-.64.1-1.11.17-1.65.27a8,8,0,0,1-.87-2.57,9.24,9.24,0,0,0,0,2.78A7.52,7.52,0,0,0,2.19,16a16,16,0,0,0,1.69.92A5.67,5.67,0,0,0,5.16,18.7a3.43,3.43,0,0,1-.11-1.39,8.2,8.2,0,0,0,2.15.35" transform="translate(0 0)"/><path class="cls-14" d="M9.23,6.64h0a4.87,4.87,0,0,0-.6,1.18,10,10,0,0,1,3.62,1.3,11.71,11.71,0,0,0-3.34-.21,2.35,2.35,0,0,0-.78.14,14.26,14.26,0,0,0-.76,2.82c-.32-.77-.78-2.32-.78-2.32A23.6,23.6,0,0,0,3.67,12,11.7,11.7,0,0,1,5.92,8.68a3.84,3.84,0,0,0-2.16-.63,8.53,8.53,0,0,1,2.15-.38,12.4,12.4,0,0,1,1.24,0A6.26,6.26,0,0,1,9.23,6.64" transform="translate(0 0)"/><path class="cls-14" d="M11.36,16.27a16.4,16.4,0,0,1-1,1.29,6.51,6.51,0,0,1-1.88.26,4.81,4.81,0,0,0,1.22.43,8.38,8.38,0,0,1-1.19.91,8.62,8.62,0,0,0,2.27-.85,4.21,4.21,0,0,0,.92-.06,5,5,0,0,1-.16-.62,14.42,14.42,0,0,0,1.62-1.46,10.36,10.36,0,0,1-1.69,1c0-.29,0-.55-.06-.88" transform="translate(0 0)"/><rect class="cls-15" x="27.72" y="11.17" width="51.99" height="0.78"/><path class="cls-16" d="M27.74,4.68c0,.54.07,1.87.07,2.37s0,2-.08,2.6v.06h2.35c1.15,0,2.39-.37,2.39-1.39,0-.65-.47-1.13-1.34-1.39A1.27,1.27,0,0,0,32.2,5.81c0-.84-1-1.16-1.86-1.18H27.73v0m1.82.52c1,0,1.35.2,1.35.74a.57.57,0,0,1-.13.38,1.28,1.28,0,0,1-1,.32h0l-.27.71h.27A1.56,1.56,0,0,1,31,7.8a.7.7,0,0,1,.16.46c0,.56-.49.85-1.46.85h-.6c0-.74,0-1.75,0-2s0-1.15,0-1.82a3,3,0,0,1,.46,0" transform="translate(0 0)"/><path class="cls-16" d="M37.9,4.63H36.76l.05,1.28c0,.63,0,1.28.08,1.91a4.12,4.12,0,0,0-.48-.8s-1.2-1.86-1.62-2.38H33.45v0c0,.53.07,1.87.07,2.36s0,2-.08,2.61v0h1.18v0c-.07-1.24-.07-2.49-.07-3.69h0a1.87,1.87,0,0,0,.28.56s2.06,3,2.16,3.17v0h1v0C37.88,9,37.87,7.49,37.87,7s0-1.83.07-2.36v0h0" transform="translate(0 0)"/><path class="cls-16" d="M39.28,4.68c0,.54.07,1.87.07,2.36s0,2-.08,2.61v0h1.41v0c-.05-.46-.06-1.35-.07-2h.46c1.86,0,2.76-.5,2.76-1.53s-1.27-1.45-2.33-1.47H39.28v0M41,5.24a1.72,1.72,0,0,1,1.35.4.73.73,0,0,1,.15.46c0,.74-.82.89-1.51.89h-.39c0-.17,0-.39,0-.65s0-.69,0-1a1.87,1.87,0,0,1,.39,0" transform="translate(0 0)"/><path class="cls-16" d="M46.52,4.68c0,.54.07,1.87.07,2.36s0,2-.08,2.61v0h1.41v0c0-.46-.06-1.35-.07-2h.46c1.86,0,2.76-.5,2.76-1.53S49.8,4.65,48.73,4.63H46.52v0m1.73.56a1.7,1.7,0,0,1,1.35.4.73.73,0,0,1,.15.46c0,.74-.82.89-1.51.89h-.39c0-.17,0-.39,0-.65s0-.69,0-1a1.87,1.87,0,0,1,.39,0" transform="translate(0 0)"/><path class="cls-16" d="M53,4.63h0v0c-.26.72-2,4.41-2.21,5l0,.07h1.21v0c.11-.35.24-.74.4-1.17h2c.22.55.38,1,.45,1.17v0h1.4L53.9,4.63H53m.35,1.5c.11.23.4.92.73,1.72H53.3l-.75,0c.27-.64.53-1.22.75-1.71" transform="translate(0 0)"/><path class="cls-16" d="M56.72,4.68c0,.53.07,1.87.07,2.36s0,2-.08,2.61v0h1.41v0C58,9,58,7.49,58,7s0-1.14,0-1.77l.38,0a1.7,1.7,0,0,1,1.35.4A.73.73,0,0,1,60,6.1,1,1,0,0,1,58.9,7a1.58,1.58,0,0,1-.3,0l-.1,0,.06.09c.5.73,1.25,2,1.57,2.61v0h1.51l0-.08c-.06-.08-1-1.53-1.47-2.16l0,0c.77-.24,1.14-.67,1.14-1.34,0-1.17-1.27-1.44-2.33-1.47H56.72v0" transform="translate(0 0)"/><path class="cls-16" d="M63.66,4.63H62.3v0c0,.53.07,1.87.07,2.36s0,2-.08,2.61v0h1.41v0C63.63,9,63.63,7.49,63.63,7s0-1.83.06-2.36v0h0" transform="translate(0 0)"/><path class="cls-16" d="M65,4.68c0,.54.07,1.87.07,2.37s0,2-.08,2.6v.06h2.35c1.16,0,2.39-.37,2.39-1.39,0-.65-.47-1.13-1.34-1.39a1.27,1.27,0,0,0,1.07-1.12c0-.84-1-1.16-1.86-1.18H65v0m1.82.52h0c1,0,1.35.2,1.35.74a.57.57,0,0,1-.13.38,1.28,1.28,0,0,1-1,.32h0l-.27.71H67a1.55,1.55,0,0,1,1.26.45.7.7,0,0,1,.16.46c0,.56-.49.85-1.46.85h-.6c0-.74,0-1.75,0-2s0-1.15,0-1.82a3,3,0,0,1,.46,0" transform="translate(0 0)"/><path class="cls-16" d="M73.18,4.63h-1v0c-.28.76-2.07,4.65-2.22,5l0,.07h1.21v0c.1-.34.24-.74.4-1.16l1,0h1c.22.55.38,1,.45,1.16v0h1.4L73.2,4.63h0M72.6,6.12c.11.24.4.92.72,1.72H71.85c.26-.65.52-1.22.75-1.72" transform="translate(0 0)"/><path class="cls-16" d="M75.85,6c0,.89.9,1.25,1.69,1.57.62.25,1.25.51,1.25.93a.45.45,0,0,1-.1.31c-.14.18-.44.25-.92.23a4.6,4.6,0,0,1-1.59-.45l-.25-.11v1.1l.16,0,.1,0a6.42,6.42,0,0,0,1.43.2C79.11,9.79,80,9.2,80,8.22s-.92-1.28-1.73-1.6c-.6-.24-1.21-.49-1.21-.88,0-.11,0-.45.76-.45a3.82,3.82,0,0,1,1.44.36l.29.12V4.65l-.29-.05A7.25,7.25,0,0,0,78,4.45c-1.28,0-2.14.6-2.14,1.5" transform="translate(0 0)"/><path class="cls-16" d="M44,13.28V14c-.66,0-1.83-.05-1.83-.05h-.3c0,.39,0,.87,0,1.18l1.49,0v.68H41.89v.09c0,.52,0,1.25.08,1.75H40.53c.07-.66.07-1.9.07-2.27s0-1.57-.05-2.06H44" transform="translate(0 0)"/><path class="cls-16" d="M47.08,17.73a2.29,2.29,0,1,1,2.35-2.28,2.24,2.24,0,0,1-2.35,2.28m0-4c-.63,0-1,.61-1,1.73s.39,1.71,1,1.71,1-.6,1-1.71-.38-1.73-1-1.73" transform="translate(0 0)"/><path class="cls-16" d="M52.59,13.28c.94,0,2.08.34,2.08,1.34,0,.54-.4.92-1,1.17.13.23,1.18,1.59,1.39,1.82H53.48c-.28-.52-.8-1.42-1.31-2.19.62.08,1.16-.21,1.16-.81s-.66-.74-1-.74h-.51c0,.53,0,1.17,0,1.45s0,1.62.07,2.28H50.42a19.41,19.41,0,0,0,.09-2.28,17.38,17.38,0,0,0-.07-2.05h2.15" transform="translate(0 0)"/><path class="cls-16" d="M59.44,13.28V14c-.64-.06-.88-.09-1.39-.1,0,.51,0,1.17,0,1.45s0,1.62.08,2.28H56.65c.07-.66.08-1.91.08-2.28s0-1,0-1.45a12.93,12.93,0,0,0-1.39.1v-.7h4.13" transform="translate(0 0)"/><path class="cls-16" d="M61.86,13.28c0,.49-.06,1.65-.06,2.06s0,1.67.06,2.27H60.43c.07-.66.08-1.9.08-2.27s0-1.57-.06-2.06h1.41" transform="translate(0 0)"/><path class="cls-16" d="M64.94,13.16a5.32,5.32,0,0,1,1.43.19v1.1a3,3,0,0,0-1.56-.51c-.49,0-.52.2-.52.34,0,.73,2.47.74,2.47,2,0,.85-.8,1.39-2.12,1.39a4.76,4.76,0,0,1-1.55-.26V16.41A4.3,4.3,0,0,0,64.9,17c.34,0,.59-.15.59-.44,0-.83-2.46-.75-2.46-2.15,0-.77.77-1.22,1.91-1.22" transform="translate(0 0)"/></g></g></svg>