<svg id="Layer_1" data-name="Layer 1" xmlns="http://www.w3.org/2000/svg" xmlns:xlink="http://www.w3.org/1999/xlink" viewBox="0 0 79.99 21.97"><defs><style>.cls-1{fill:none;}.cls-2{clip-path:url(#clip-path);}.cls-3{fill:url(#linear-gradient);}.cls-4{clip-path:url(#clip-path-2);}.cls-5{fill:url(#linear-gradient-2);}.cls-6{clip-path:url(#clip-path-3);}.cls-7{fill:url(#linear-gradient-3);}.cls-8{clip-path:url(#clip-path-4);}.cls-9{fill:url(#linear-gradient-4);}.cls-10{clip-path:url(#clip-path-5);}.cls-11{fill:url(#linear-gradient-5);}.cls-12{clip-path:url(#clip-path-6);}.cls-13{fill:url(#linear-gradient-6);}.cls-14{fill:#fff;}.cls-15{fill:#e83f2e;}.cls-16{fill:#221f1f;}</style><clipPath id="clip-path" transform="translate(-10 -39.02)"><rect class="cls-1" x="10" y="39.02" width="21.97" height="21.97"/></clipPath><linearGradient id="linear-gradient" x1="-679.2" y1="66.41" x2="-678.72" y2="66.41" gradientTransform="translate(3190.1 32512.36) rotate(90) scale(47.87)" gradientUnits="userSpaceOnUse"><stop offset="0" stop-color="#008158"/><stop offset="0.13" stop-color="#188e67"/><stop offset="0.41" stop-color="#54af8f"/><stop offset="0.6" stop-color="#80c6ab"/><stop offset="0.86" stop-color="#2cad83"/><stop offset="1" stop-color="#02a06f"/></linearGradient><clipPath id="clip-path-2" transform="translate(-10 -39.02)"><path class="cls-1" d="M11.72,39.4c-.43,0-.7.36-.77.86a54,54,0,0,0-.55,9A82.47,82.47,0,0,0,11,59.41c.05.48.34.86.77.86h19a.79.79,0,0,0,.77-.86s-.21-4.7-.21-9.28.21-9.86.21-9.86a.82.82,0,0,0-.77-.86h-19Z"/></clipPath><linearGradient id="linear-gradient-2" x1="-680.84" y1="67.91" x2="-680.36" y2="67.91" gradientTransform="translate(3663.83 36618.33) rotate(90) scale(53.79)" gradientUnits="userSpaceOnUse"><stop offset="0" stop-color="#02a06f"/><stop offset="0.1" stop-color="#29ac82"/><stop offset="0.3" stop-color="#80c6ab"/><stop offset="0.46" stop-color="#2cad83"/><stop offset="0.55" stop-color="#02a06f"/><stop offset="0.84" stop-color="#008158"/><stop offset="0.89" stop-color="#00885e"/><stop offset="0.96" stop-color="#009a70"/><stop offset="1" stop-color="#00a77c"/></linearGradient><clipPath id="clip-path-3" transform="translate(-10 -39.02)"><path class="cls-1" d="M22.4,41.61a17,17,0,0,1,3.31,2A20.31,20.31,0,0,0,20.84,45l-.07.15a34.26,34.26,0,0,1,4.75-.55,15.69,15.69,0,0,1-1.62,2l-.07.16c1.47-.88,1.89-.95,3.25-1.74a8.87,8.87,0,0,1,.66,3.89,12.74,12.74,0,0,0,.75-4.79c.9-.62,1-1.12,1-1.12a8.31,8.31,0,0,0-1.73.23,15.88,15.88,0,0,0-5.3-1.71Z"/></clipPath><linearGradient id="linear-gradient-3" x1="-716.13" y1="98.57" x2="-715.64" y2="98.57" gradientTransform="translate(-3415.97 -24909.09) rotate(-90) scale(34.81)" gradientUnits="userSpaceOnUse"><stop offset="0" stop-color="#00af84"/><stop offset="1" stop-color="#02a06f"/></linearGradient><clipPath id="clip-path-4" transform="translate(-10 -39.02)"><path class="cls-1" d="M13.4,51.9a9.25,9.25,0,0,0,0,2.78,10.09,10.09,0,0,0-1.2.29l-.07.15a16.86,16.86,0,0,0,1.69.93,5.7,5.7,0,0,0,1.29,1.82l.07-.15A3.39,3.39,0,0,1,15,56.48a8.27,8.27,0,0,0,2.16.35l.07-.15a5.87,5.87,0,0,1-2-1,5.69,5.69,0,0,1,.74-1.42l.07-.15c-.62.09-1.18.32-1.72.42a10.17,10.17,0,0,1-.8-2.73Z"/></clipPath><linearGradient id="linear-gradient-4" x1="-716.12" y1="98.88" x2="-715.64" y2="98.88" gradientTransform="translate(-3438.43 -24916.4) rotate(-90) scale(34.82)" xlink:href="#linear-gradient-3"/><clipPath id="clip-path-5" transform="translate(-10 -39.02)"><path class="cls-1" d="M17.07,46.86a12.11,12.11,0,0,0-1.23,0,11.41,11.41,0,0,0-2.09.23l-.07.15a3.82,3.82,0,0,1,2.17.63,11.58,11.58,0,0,0-2.26,3.27,24.07,24.07,0,0,1,2.93-2.39S17,50.27,17.3,51l.07-.15a12.46,12.46,0,0,1,.69-2.66,2.39,2.39,0,0,1,.79-.14,11.78,11.78,0,0,1,3.33.22l.07-.15A12,12,0,0,0,18.56,47h.06a8,8,0,0,1,.52-1.2,5.77,5.77,0,0,0-2.07,1"/></clipPath><linearGradient id="linear-gradient-5" x1="-716.14" y1="98.79" x2="-715.65" y2="98.79" gradientTransform="translate(-3429.88 -24900.5) rotate(-90) scale(34.8)" xlink:href="#linear-gradient-3"/><clipPath id="clip-path-6" transform="translate(-10 -39.02)"><path class="cls-1" d="M21.35,56.32c0-.3,0-.55-.06-.89-.36.48-.66.86-1.05,1.3a5.28,5.28,0,0,1-1.32.11h-.49l-.07.15a4.65,4.65,0,0,0,1.22.42,8.54,8.54,0,0,1-1.12.76l-.07.15a8.43,8.43,0,0,0,2.26-.85,3.67,3.67,0,0,0,.92-.06l.07-.15c0-.15-.18-.25-.22-.47A16.49,16.49,0,0,0,23,55.32l.07-.15a12.7,12.7,0,0,1-1.76,1.15"/></clipPath><linearGradient id="linear-gradient-6" x1="-716.13" y1="98.7" x2="-715.64" y2="98.7" gradientTransform="translate(-3424.96 -24908.77) rotate(-90) scale(34.81)" xlink:href="#linear-gradient-3"/></defs><title>BNP-Parinas-Fortis</title><g class="cls-2"><rect class="cls-3" width="21.97" height="21.97"/></g><g class="cls-4"><rect class="cls-5" x="0.4" y="0.38" width="21.12" height="20.87"/></g><g class="cls-6"><rect class="cls-7" x="10.75" y="2.43" width="8.74" height="7.39"/></g><g class="cls-8"><rect class="cls-9" x="2.12" y="12.73" width="5.08" height="6.12"/></g><g class="cls-10"><rect class="cls-11" x="3.59" y="6.77" width="8.66" height="5.32"/></g><g class="cls-12"><rect class="cls-13" x="8.36" y="16.16" width="4.75" height="3.15"/></g><path class="cls-14" d="M27.13,44.79c-1.36.8-1.77.86-3.25,1.75a14.78,14.78,0,0,0,1.69-2.11,32.66,32.66,0,0,0-4.74.55,19,19,0,0,1,5-1.56,17,17,0,0,0-3.31-2A14.21,14.21,0,0,1,27.84,43a8.56,8.56,0,0,1,1.74-.22,2.3,2.3,0,0,1-1,1.11,12.76,12.76,0,0,1-.76,4.79c0-1.38-.14-3.13-.66-3.89" transform="translate(-10 -39.02)"/><path class="cls-14" d="M17.2,56.67a5.52,5.52,0,0,1-2-1.2A6.44,6.44,0,0,1,16,54.05c-.63.09-1.1.17-1.65.27a8.45,8.45,0,0,1-.87-2.57,9.24,9.24,0,0,0,0,2.78,7.84,7.84,0,0,0-1.27.45,16,16,0,0,0,1.69.93,5.7,5.7,0,0,0,1.29,1.82A3.43,3.43,0,0,1,15,56.34a8.34,8.34,0,0,0,2.16.33" transform="translate(-10 -39.02)"/><path class="cls-14" d="M19.23,45.66h0a4.7,4.7,0,0,0-.6,1.18,10,10,0,0,1,3.62,1.3,11.71,11.71,0,0,0-3.34-.21,2.35,2.35,0,0,0-.78.14,14.26,14.26,0,0,0-.76,2.82c-.32-.77-.78-2.31-.78-2.31A22.86,22.86,0,0,0,13.67,51a11.78,11.78,0,0,1,2.26-3.27,3.87,3.87,0,0,0-2.17-.63,8.62,8.62,0,0,1,2.16-.38,12.11,12.11,0,0,1,1.23,0,6.07,6.07,0,0,1,2.08-1.05" transform="translate(-10 -39.02)"/><path class="cls-14" d="M21.36,55.28a16.56,16.56,0,0,1-1.05,1.3,6.44,6.44,0,0,1-1.87.26,4.65,4.65,0,0,0,1.22.42,8.38,8.38,0,0,1-1.19.91,8.43,8.43,0,0,0,2.26-.85,4.21,4.21,0,0,0,.92-.06,5.67,5.67,0,0,1-.15-.62,15.32,15.32,0,0,0,1.62-1.47,11.19,11.19,0,0,1-1.69,1c0-.29-.05-.54-.07-.88" transform="translate(-10 -39.02)"/><rect class="cls-15" x="27.72" y="11.17" width="51.99" height="0.78"/><path class="cls-16" d="M37.74,43.7c0,.53.07,1.87.07,2.36s0,1.95-.07,2.61v0h2.36c1.15,0,2.38-.36,2.38-1.39,0-.64-.47-1.12-1.34-1.38a1.29,1.29,0,0,0,1.08-1.13c0-.84-1-1.16-1.87-1.17h-2.6v.05m1.82.51c1,0,1.35.21,1.35.74a.54.54,0,0,1-.13.37,1.25,1.25,0,0,1-1,.32h0l-.27.71h.28A1.52,1.52,0,0,1,41,46.8a.73.73,0,0,1,.17.46c0,.56-.49.85-1.46.85h-.6c0-.74,0-1.75,0-2.05s0-1.14,0-1.82l.46,0" transform="translate(-10 -39.02)"/><path class="cls-16" d="M47.9,43.65H46.76l.05,1.27c0,.64,0,1.29.08,1.92a4.12,4.12,0,0,0-.48-.8s-1.2-1.86-1.61-2.37H43.46v.05c0,.53.07,1.87.07,2.36s0,2-.07,2.61v0h1.18v0c-.07-1.24-.07-2.49-.07-3.7h0a1.74,1.74,0,0,0,.28.55s2,3,2.16,3.18h1v0c-.07-.65-.08-2.16-.08-2.61s0-1.83.07-2.36v-.05h0" transform="translate(-10 -39.02)"/><path class="cls-16" d="M49.28,43.69c0,.54.07,1.87.07,2.36s0,2-.07,2.61v.05h1.41v-.05c0-.46-.07-1.35-.07-2h.46c1.86,0,2.76-.5,2.76-1.53s-1.27-1.45-2.33-1.47H49.28v0m1.73.57a1.7,1.7,0,0,1,1.35.4.73.73,0,0,1,.15.46c0,.73-.82.89-1.51.89h-.28l-.11,0c0-.17,0-.39,0-.64s0-.7,0-1.05a2,2,0,0,1,.39,0" transform="translate(-10 -39.02)"/><path class="cls-16" d="M56.52,43.69c0,.54.07,1.87.07,2.36s0,2-.08,2.61v.05h1.41v-.05c0-.46-.07-1.35-.07-2h.46c1.86,0,2.77-.5,2.77-1.53s-1.27-1.45-2.33-1.47H56.52v0m1.73.57a1.7,1.7,0,0,1,1.35.4.73.73,0,0,1,.15.46c0,.73-.82.89-1.51.89H58l-.11,0c0-.17,0-.39,0-.64s0-.69,0-1.05a2,2,0,0,1,.39,0" transform="translate(-10 -39.02)"/><path class="cls-16" d="M63,43.65h0v0c-.26.72-2,4.41-2.22,5l0,.07h1.21v0c.11-.35.24-.74.4-1.16l1,0h1c.22.55.38,1,.45,1.17v0h1.4L63.9,43.66H63m.35,1.48c.11.24.4.92.73,1.72H62.56c.26-.64.52-1.22.74-1.72" transform="translate(-10 -39.02)"/><path class="cls-16" d="M66.72,43.7c0,.53.07,1.87.07,2.36s0,2-.08,2.61v0h1.41v0C68,48,68,46.51,68,46.06s0-1.14,0-1.77l.38,0a1.7,1.7,0,0,1,1.35.4.71.71,0,0,1,.15.46,1,1,0,0,1-1.06.91,1.17,1.17,0,0,1-.3,0l-.1,0,.06.09c.5.73,1.25,2,1.56,2.61v0h1.51l0-.08-1.46-2.16,0,0a1.35,1.35,0,0,0,1.15-1.33c0-1.18-1.27-1.45-2.33-1.47H66.69l0,.07" transform="translate(-10 -39.02)"/><path class="cls-16" d="M73.66,43.64H72.3v0c0,.54.07,1.88.07,2.37s0,1.95-.07,2.61v0h1.41v0c-.07-.65-.07-2.16-.07-2.61s0-1.83.07-2.37v0h0" transform="translate(-10 -39.02)"/><path class="cls-16" d="M75,43.7c0,.53.07,1.87.07,2.36S75,48,75,48.67v0h2.36c1.15,0,2.38-.36,2.38-1.39,0-.64-.47-1.12-1.34-1.38a1.29,1.29,0,0,0,1.08-1.13c0-.84-1-1.16-1.86-1.17H75v.05m1.82.51h0c1,0,1.35.21,1.35.74a.59.59,0,0,1-.13.37,1.23,1.23,0,0,1-1,.32h0l-.27.71H77a1.52,1.52,0,0,1,1.25.45.73.73,0,0,1,.17.46c0,.56-.49.85-1.46.85h-.6c0-.74,0-1.75,0-2.05s0-1.15,0-1.82l.46,0" transform="translate(-10 -39.02)"/><path class="cls-16" d="M83.18,43.64h-1v0c-.28.77-2.07,4.66-2.22,5l0,.07h1.21v0c.11-.35.24-.74.4-1.16h2c.22.55.38,1,.45,1.17v0h1.4L83.2,43.66h0m-.58,1.48c.11.24.4.92.73,1.72H81.86c.25-.65.51-1.23.74-1.72" transform="translate(-10 -39.02)"/><path class="cls-16" d="M85.85,45c0,.89.9,1.25,1.69,1.57.62.25,1.25.51,1.25.93a.45.45,0,0,1-.1.31,1.13,1.13,0,0,1-.93.22,4.2,4.2,0,0,1-1.59-.45l-.25-.11v1.11l.16,0,.1,0a6.42,6.42,0,0,0,1.43.2c1.49,0,2.38-.59,2.38-1.58s-.92-1.28-1.73-1.6c-.6-.24-1.22-.48-1.22-.87,0-.11,0-.45.77-.45a3.87,3.87,0,0,1,1.44.36l.29.12V43.66l-.29,0A6.4,6.4,0,0,0,88,43.46c-1.27,0-2.13.61-2.13,1.5" transform="translate(-10 -39.02)"/><path class="cls-16" d="M54,52.29V53c-.66,0-1.82-.06-1.83-.06h-.3c0,.39,0,.88,0,1.18l1.49,0v.68H51.89v.09c0,.52,0,1.25.08,1.75H50.53c.06-.66.06-1.9.06-2.27s0-1.57-.05-2.06H54" transform="translate(-10 -39.02)"/><path class="cls-16" d="M57.08,56.74a2.28,2.28,0,1,1,2.36-2.28,2.24,2.24,0,0,1-2.36,2.28m0-4c-.63,0-1,.61-1,1.73s.39,1.71,1,1.71,1-.59,1-1.71-.38-1.73-1-1.73" transform="translate(-10 -39.02)"/><path class="cls-16" d="M62.59,52.29c.95,0,2.08.34,2.08,1.34,0,.54-.4.92-1,1.17.13.23,1.18,1.59,1.39,1.82H63.48c-.27-.52-.8-1.42-1.31-2.19.62.08,1.16-.22,1.16-.81s-.66-.74-1-.74h-.51c0,.53,0,1.17,0,1.45s0,1.62.07,2.27H60.43a21.77,21.77,0,0,0,.09-2.27,20.19,20.19,0,0,0-.07-2.06h2.14" transform="translate(-10 -39.02)"/><path class="cls-16" d="M69.44,52.29V53a12.59,12.59,0,0,0-1.38-.1c0,.51,0,1.17,0,1.45s0,1.62.08,2.27H66.66c.07-.66.08-1.9.08-2.27s0-1,0-1.45a13.1,13.1,0,0,0-1.4.1v-.71h4.12" transform="translate(-10 -39.02)"/><path class="cls-16" d="M71.86,52.29c0,.49-.06,1.65-.06,2.06s0,1.67.06,2.27H70.43c.07-.66.08-1.9.08-2.27s0-1.57-.06-2.06h1.41" transform="translate(-10 -39.02)"/><path class="cls-16" d="M74.94,52.18a5,5,0,0,1,1.43.19v1.1A3,3,0,0,0,74.81,53c-.49,0-.52.19-.52.34,0,.73,2.47.74,2.47,2.05,0,.85-.79,1.39-2.12,1.39a4.7,4.7,0,0,1-1.54-.26v-1a4.3,4.3,0,0,0,1.81.56c.34,0,.59-.15.59-.44,0-.83-2.46-.75-2.46-2.15,0-.78.76-1.22,1.9-1.22" transform="translate(-10 -39.02)"/></svg>