<svg xmlns="http://www.w3.org/2000/svg" xmlns:xlink="http://www.w3.org/1999/xlink" viewBox="0 0 80 17.46"><defs><style>.cls-1{fill:url(#linear-gradient);}.cls-2{fill:url(#linear-gradient-2);}.cls-3{fill:url(#linear-gradient-3);}.cls-4{fill:url(#linear-gradient-4);}.cls-5{fill:url(#linear-gradient-5);}.cls-6{fill:url(#linear-gradient-6);}.cls-7{fill:#fff;}.cls-8{fill:#010101;}</style><linearGradient id="linear-gradient" x1="-204.72" y1="263.12" x2="-204.39" y2="263.12" gradientTransform="matrix(0, 56.11, 56.11, 0, -14755.07, 11486.91)" gradientUnits="userSpaceOnUse"><stop offset="0" stop-color="#047449"/><stop offset="0.6" stop-color="#8ec9ab"/><stop offset="1" stop-color="#01925c"/></linearGradient><linearGradient id="linear-gradient-2" x1="-205.06" y1="262.75" x2="-204.72" y2="262.75" gradientTransform="matrix(0, 63.05, 63.05, 0, -16558.83, 12925.48)" gradientUnits="userSpaceOnUse"><stop offset="0" stop-color="#01925c"/><stop offset="0.3" stop-color="#8ec9ab"/><stop offset="0.55" stop-color="#01925c"/><stop offset="0.84" stop-color="#047449"/><stop offset="1" stop-color="#019c6e"/></linearGradient><linearGradient id="linear-gradient-3" x1="-214.12" y1="255.22" x2="-213.78" y2="255.22" gradientTransform="matrix(0, -40.8, -40.8, 0, 10426.28, -8721.34)" gradientUnits="userSpaceOnUse"><stop offset="0" stop-color="#00a679"/><stop offset="1" stop-color="#01925c"/></linearGradient><linearGradient id="linear-gradient-4" x1="-214.11" y1="254.82" x2="-213.78" y2="254.82" gradientTransform="matrix(0, -40.82, -40.82, 0, 10404.34, -8723.74)" xlink:href="#linear-gradient-3"/><linearGradient id="linear-gradient-5" x1="-214.1" y1="254.95" x2="-213.77" y2="254.95" gradientTransform="matrix(0, -40.79, -40.79, 0, 10405.78, -8717.62)" xlink:href="#linear-gradient-3"/><linearGradient id="linear-gradient-6" x1="-214.11" y1="255.06" x2="-213.78" y2="255.06" gradientTransform="matrix(0, -40.8, -40.8, 0, 10415.9, -8720.9)" xlink:href="#linear-gradient-3"/></defs><title>BNP_Paribas</title><g id="Layer_2" data-name="Layer 2"><g id="BNP_Paribas"><g id="_Group_" data-name="&lt;Group&gt;"><g id="g41"><g id="g47"><g id="g49"><path id="path59" class="cls-1" d="M0,17.46H17.75V0H0Z"/></g></g></g><g id="g63"><g id="g69"><g id="g71"><path id="path85" class="cls-2" d="M1.39.31C1,.31.82.6.76,1h0A44.14,44.14,0,0,0,.32,8.29h0a67.26,67.26,0,0,0,.44,8.19h0a.69.69,0,0,0,.63.7H16.75a.65.65,0,0,0,.63-.7h0S17.2,12.69,17.2,9h0c0-3.71.18-8,.18-8h0a.67.67,0,0,0-.63-.7H1.39Z"/></g></g></g><g id="g89"><g id="g95"><g id="g97"><path id="path105" class="cls-3" d="M10,2.09a13.78,13.78,0,0,1,2.67,1.6h0A16.56,16.56,0,0,0,8.75,4.82h0l-.06.12a27.06,27.06,0,0,1,3.84-.44h0a12.63,12.63,0,0,1-1.31,1.57h0l-.06.13c1.19-.71,1.53-.76,2.63-1.41h0a7.29,7.29,0,0,1,.53,3.15h0a10.55,10.55,0,0,0,.61-3.87h0c.73-.5.82-.9.82-.9h0a7.27,7.27,0,0,0-1.39.18h0A12.88,12.88,0,0,0,10.07,2h0Z"/></g></g></g><g id="g109"><g id="g115"><g id="g117"><path id="path125" class="cls-4" d="M2.74,10.41a7.69,7.69,0,0,0,0,2.25h0a9.29,9.29,0,0,0-1,.23h0L1.71,13a12.69,12.69,0,0,0,1.37.74h0a4.8,4.8,0,0,0,1,1.48h0l.06-.13a2.76,2.76,0,0,1-.15-1H4a6.47,6.47,0,0,0,1.74.28h0l.06-.12a4.84,4.84,0,0,1-1.64-.85h0a4.88,4.88,0,0,1,.6-1.15h0l.06-.12c-.5.07-1,.26-1.39.34h0a8.22,8.22,0,0,1-.65-2.2h0Z"/></g></g></g><g id="g129"><g id="g135"><g id="g137"><path id="path145" class="cls-5" d="M5.72,6.34a10,10,0,0,0-1,0h0A9.32,9.32,0,0,0,3,6.51H3l0,.12a3.15,3.15,0,0,1,1.75.51h0A9.36,9.36,0,0,0,2.9,9.78h0A18.75,18.75,0,0,1,5.27,7.85h0s.37,1.24.63,1.86h0L6,9.59a10.28,10.28,0,0,1,.55-2.15h0a1.85,1.85,0,0,1,.64-.12h0a9.78,9.78,0,0,1,2.69.17h0l.06-.12a10.06,10.06,0,0,0-3-.93H7a6.54,6.54,0,0,1,.42-1h0a4.86,4.86,0,0,0-1.66.86"/></g></g></g><g id="g149"><g id="g155"><g id="g157"><path id="path165" class="cls-6" d="M9.17,14c0-.25,0-.45-.05-.72h0a12.18,12.18,0,0,1-.85,1.05h0a3.74,3.74,0,0,1-1.06.08H6.82l-.06.13a3.93,3.93,0,0,0,1,.34h0a6.5,6.5,0,0,1-.9.61h0l-.06.13a7.3,7.3,0,0,0,1.83-.69h0a3.26,3.26,0,0,0,.74-.05h0l.06-.12h0c0-.13-.15-.2-.18-.38h0a12.46,12.46,0,0,0,1.31-1.18h0l.06-.13A13,13,0,0,1,9.17,14"/></g></g></g><g id="g169"><g id="g175"><path id="path177" class="cls-7" d="M13.84,4.67c-1.09.64-1.43.7-2.62,1.41a11.56,11.56,0,0,0,1.36-1.7,27.09,27.09,0,0,0-3.83.44,15.22,15.22,0,0,1,4-1.26A13.55,13.55,0,0,0,10.07,2a11.47,11.47,0,0,1,4.35,1.26,6.46,6.46,0,0,1,1.4-.18A1.89,1.89,0,0,1,15,4a10.14,10.14,0,0,1-.61,3.87,7,7,0,0,0-.53-3.15"/></g><g id="g179"><path id="path181" class="cls-7" d="M5.82,14.27a4.39,4.39,0,0,1-1.58-1,4.7,4.7,0,0,1,.6-1.15c-.52.07-.89.13-1.33.22a6.79,6.79,0,0,1-.71-2.08,7.64,7.64,0,0,0,0,2.24,6.39,6.39,0,0,0-1,.36,11.06,11.06,0,0,0,1.36.75,4.62,4.62,0,0,0,1,1.47A2.64,2.64,0,0,1,4.08,14a6.47,6.47,0,0,0,1.74.28"/></g><g id="g183"><path id="path185" class="cls-7" d="M7.46,5.37h0a3.75,3.75,0,0,0-.49,1,8.09,8.09,0,0,1,2.93,1A9.44,9.44,0,0,0,7.2,7.2a2.14,2.14,0,0,0-.63.11A11.38,11.38,0,0,0,6,9.59C5.7,9,5.32,7.72,5.32,7.72A19.23,19.23,0,0,0,3,9.65,9.56,9.56,0,0,1,4.79,7,3.08,3.08,0,0,0,3,6.51,6.92,6.92,0,0,1,4.78,6.2a7.85,7.85,0,0,1,1,0,5,5,0,0,1,1.69-.85"/></g><g id="g187"><path id="path189" class="cls-7" d="M9.18,13.14a12.56,12.56,0,0,1-.85,1,5,5,0,0,1-1.51.21,3.57,3.57,0,0,0,1,.34,6.7,6.7,0,0,1-1,.74,7.16,7.16,0,0,0,1.83-.68,3.26,3.26,0,0,0,.74-.05,4.11,4.11,0,0,1-.12-.5,13.75,13.75,0,0,0,1.31-1.19,9.27,9.27,0,0,1-1.37.8c0-.24,0-.44-.05-.72"/></g></g><g id="g249"><g id="g353"><path id="path355" class="cls-8" d="M24.23,6.69c1.09,0,1.48.23,1.48.82a.64.64,0,0,1-.14.42,1.36,1.36,0,0,1-1.13.35h0l-.3.79h.3a1.72,1.72,0,0,1,1.39.5.83.83,0,0,1,.19.51c0,.62-.55.94-1.62.94h-.66c0-.82-.05-1.94-.05-2.28s0-1.25.05-2a3.55,3.55,0,0,1,.52,0m-2-.57c0,.59.06,2.07.06,2.61s0,2.17-.08,2.89v.06H24.8c1.28,0,2.63-.4,2.63-1.54,0-.71-.51-1.24-1.48-1.53a1.42,1.42,0,0,0,1.2-1.24c0-.93-1.07-1.28-2.07-1.3H22.2Z"/></g><g id="g357"><path id="path359" class="cls-8" d="M33.45,6.07H32.18l0,1.41c0,.7.05,1.42.1,2.12a4.06,4.06,0,0,0-.54-.89S30.47,6.66,30,6.08H28.52v0c.05.59.07,2.07.07,2.61s0,2.17-.07,2.89v.06h1.31v-.06c-.08-1.37-.08-2.75-.08-4.09a2.27,2.27,0,0,0,.31.61s2.28,3.32,2.39,3.51v0h1v-.06c-.08-.72-.09-2.39-.09-2.89s0-2,.07-2.61l0,0Z"/></g><g id="g361"><path id="path363" class="cls-8" d="M36.89,6.75a1.78,1.78,0,0,1,1.48.44.76.76,0,0,1,.18.5c0,.81-.92,1-1.68,1l-.31,0h-.13V7.94c0-.35,0-.77,0-1.16a2.72,2.72,0,0,1,.45,0M35,6.12c.05.59.07,2.07.07,2.61s0,2.17-.08,2.89v.06h1.56v-.06c0-.52-.08-1.51-.08-2.26l.29,0h.22C39,9.38,40,8.84,40,7.69c0-1.3-1.4-1.6-2.56-1.62H35Z"/></g><g id="g365"><path id="path367" class="cls-8" d="M44.89,6.75a1.81,1.81,0,0,1,1.49.44.76.76,0,0,1,.17.5c0,.81-.91,1-1.67,1l-.3,0h-.13c0-.19,0-.44,0-.71s0-.77,0-1.16a2.59,2.59,0,0,1,.44,0M43,6.12c.05.59.08,2.07.08,2.61s0,2.17-.09,2.89v.06h1.56v-.06c-.05-.52-.08-1.51-.08-2.26l.28,0h.22C47,9.38,48,8.84,48,7.69c0-1.3-1.41-1.6-2.58-1.62H43Z"/></g><g id="g369"><path id="path371" class="cls-8" d="M50.47,7.72c.12.27.45,1,.81,1.9H49.64c.3-.71.59-1.35.83-1.9m-.38-1.65h0v0c-.29.8-2.16,4.88-2.46,5.51l0,.07H48.9l0,0c.11-.38.27-.81.44-1.28h2.22c.24.61.42,1.06.5,1.29v0h1.54L51.14,6.07h-1Z"/></g><g id="g373"><path id="path375" class="cls-8" d="M54.26,6.12c0,.59.06,2.07.06,2.61s0,2.17-.08,2.89v.06h1.57v-.06c-.08-.73-.09-2.39-.09-2.89s0-1.25,0-2l.43,0a1.79,1.79,0,0,1,1.48.44.77.77,0,0,1,.16.5,1.1,1.1,0,0,1-1.16,1,1.39,1.39,0,0,1-.33,0l-.11,0,.06.11c.56.81,1.39,2.22,1.73,2.88v0h1.68l0-.08c-.07-.09-1.16-1.7-1.63-2.39l0,0c.86-.26,1.28-.74,1.28-1.48,0-1.29-1.4-1.59-2.58-1.62H54.25Z"/></g><g id="g377"><path id="path379" class="cls-8" d="M61.93,6.07h-1.5v0c0,.59.07,2.07.07,2.61s0,2.16-.08,2.89v.06H62v-.06c-.06-.73-.08-2.39-.08-2.89s0-2,.08-2.61v0Z"/></g><g id="g381"><path id="path383" class="cls-8" d="M65.4,6.69h0c1.1,0,1.5.23,1.5.82a.6.6,0,0,1-.15.42,1.36,1.36,0,0,1-1.14.35h0l-.3.79h.3a1.72,1.72,0,0,1,1.39.5.77.77,0,0,1,.19.51c0,.62-.55.94-1.63.94h-.65c0-.82,0-1.94,0-2.28s0-1.25,0-2a3.52,3.52,0,0,1,.51,0m-2-.57c0,.59.07,2.07.07,2.61s0,2.17-.08,2.89v.06H66c1.28,0,2.64-.4,2.64-1.54,0-.71-.52-1.24-1.49-1.53a1.42,1.42,0,0,0,1.2-1.24c0-.93-1.07-1.28-2.06-1.3H63.38Z"/></g><g id="g385"><path id="path387" class="cls-8" d="M71.81,7.72c.13.26.45,1,.81,1.9H71c.29-.72.58-1.36.82-1.9m.65-1.65h-1v0c-.31.84-2.29,5.14-2.46,5.5l0,.08h1.33v0c.11-.38.27-.81.44-1.28l1.1,0h1.12c.24.6.42,1.06.5,1.28v0H75L72.49,6.07Z"/></g><g id="g389"><path id="path391" class="cls-8" d="M75.41,7.52c0,1,1,1.38,1.86,1.74.68.27,1.4.56,1.4,1a.47.47,0,0,1-.11.34c-.17.2-.5.28-1,.25a4.84,4.84,0,0,1-1.77-.49l-.26-.12v1.22l.18,0,.1,0a6.93,6.93,0,0,0,1.58.23C79,11.78,80,11.12,80,10s-1-1.42-1.91-1.78c-.66-.26-1.34-.53-1.34-1,0-.12,0-.49.85-.49a4.61,4.61,0,0,1,1.59.39l.31.13V6.09l-.31,0a6.85,6.85,0,0,0-1.41-.17c-1.42,0-2.37.67-2.37,1.65"/></g></g></g></g></g></svg>