<svg id="Layer_1" data-name="Layer 1" xmlns="http://www.w3.org/2000/svg" viewBox="0 0 80 22.62"><defs><style>.cls-1{fill:#b21e3b;}.cls-2{fill:#221f1f;}</style></defs><title>BOC</title><path class="cls-1" d="M21.31,38.69A11.31,11.31,0,1,0,32.62,50,11.31,11.31,0,0,0,21.31,38.69ZM12.47,50a9,9,0,0,1,7.58-8.77v4.15H18.13a2.25,2.25,0,0,0-2.3,2.41v4.35a2.51,2.51,0,0,0,2.56,2.46H20l0,4.17A8.86,8.86,0,0,1,12.47,50Zm6.11,2.18a.29.29,0,0,1-.22-.12,1.73,1.73,0,0,1-.08-.16V48.12a.55.55,0,0,1,.11-.24.43.43,0,0,1,.23-.1H24a.54.54,0,0,1,.18.06c.08,0,.13.25.13.25V52a.71.71,0,0,1-.09.15.42.42,0,0,1-.13.07H18.58Zm4,6.54V54.44h1.67a2.28,2.28,0,0,0,2.45-2.29V47.8a2.42,2.42,0,0,0-2.51-2.4H22.62V41.22a8.84,8.84,0,0,1,0,17.5Z" transform="translate(-10 -38.69)"/><g id="g2418"><path id="path2420" class="cls-2" d="M85.61,60.34l0-.12s.24-.08.31-.18,1.74-3.85,1.74-3.85l.1,0,1.53,3.49a2.4,2.4,0,0,0,.22.44.61.61,0,0,0,.31.12c.07,0,0,.09,0,.09H88.22s-.11-.09,0-.13.34-.11.38-.27a1,1,0,0,0-.1-.46,1.66,1.66,0,0,0-.29-.53,3.35,3.35,0,0,0-.67,0,2.54,2.54,0,0,0-.73,0c-.14.08-.29.65-.32.74a.43.43,0,0,0,.07.35,1.82,1.82,0,0,0,.48.2l0,.1Zm2.54-1.72s-.11-.36-.26-.7-.3-.72-.37-.7a4.6,4.6,0,0,0-.31.67c-.12.28-.29.66-.22.72a1.44,1.44,0,0,0,.56,0A2,2,0,0,0,88.15,58.62Zm-46.53.83a.88.88,0,0,0-.26-.94,1.35,1.35,0,0,0-.7-.25c-.36,0-.6,0-.6.36v1c0,.55.69.49.69.49A.8.8,0,0,0,41.62,59.45Zm10.88.72a.45.45,0,0,0,.31-.2.65.65,0,0,0,.11-.43v-2.6a.47.47,0,0,0-.53-.54s-.18-.11,0-.16H54s.15,0,0,.11-.21,0-.3.12a.73.73,0,0,0-.1.43v1.29c0,.05,0,.12.07.12s.13-.1.17-.12.44-.43.68-.65c.42-.42.63-.62.71-.72a.36.36,0,0,0,.06-.36c-.06-.06-.19-.06-.3-.1s-.1-.06,0-.11h1.4s.05.12,0,.16a.72.72,0,0,0-.39.13,3,3,0,0,0-.55.41s-1,.89-1,1,.65.85,1,1.41a6.88,6.88,0,0,0,.44.61.76.76,0,0,0,.38.21c.15,0,.07.14.07.14s-.8,0-.94,0-.21-.16-.21-.16c-.31-.42-1.2-1.67-1.27-1.74s-.4.25-.42.47v.75a.54.54,0,0,0,.13.42.61.61,0,0,0,.39.13c.12,0,0,.13,0,.13H52.39S52.37,60.2,52.5,60.17Zm-5.24,0a1.38,1.38,0,0,0,.4-.26c.08-.09.14-.17.14-.49,0,0,0-2,0-2.26a1,1,0,0,0-.2-.64.88.88,0,0,0-.39-.15s-.11-.12,0-.15h1.06L50.79,59s.1.12.15.09L51,59c0-.21,0-1.85,0-1.85,0-.18,0-.38-.09-.51s-.45-.2-.55-.24-.06-.1,0-.13h1.33c.09,0,0,.1,0,.1a.71.71,0,0,0-.38.18,1,1,0,0,0-.12.6v3.24h-.11l-2.93-3.17c-.07-.07-.1,0-.1.13s0,2.06,0,2.06c0,.34.06.55.29.66a1.69,1.69,0,0,0,.4.12s.06.12.06.12H47.25S47.21,60.19,47.26,60.17Zm-4.59.13,0-.11S43,60.1,43,60s1.73-3.85,1.73-3.85l.1,0,1.53,3.49a1.68,1.68,0,0,0,.22.44.69.69,0,0,0,.32.12c.06,0,0,.09,0,.09l-1.69,0a.09.09,0,0,1,0-.14c.08,0,.32-.15.35-.31a.92.92,0,0,0-.08-.46,1.56,1.56,0,0,0-.29-.53,3.48,3.48,0,0,0-.68,0,2.49,2.49,0,0,0-.72,0c-.14.08-.29.65-.33.74a.43.43,0,0,0,.08.35,1.78,1.78,0,0,0,.47.2l0,.1Zm2.53-1.71a2.07,2.07,0,0,0-.26-.7c-.12-.25-.3-.73-.37-.7a3.85,3.85,0,0,0-.31.66c-.12.3-.29.66-.22.72a1.26,1.26,0,0,0,.56,0A2.09,2.09,0,0,0,45.2,58.59Zm-3.78-1.3a1,1,0,0,0-.33-.68.83.83,0,0,0-.52-.19c-.31,0-.51,0-.51.34v1.08c0,.25.59.18.59.18C41.16,58,41.41,58,41.42,57.29Zm-2.57,2.88a1,1,0,0,0,.41-.18.56.56,0,0,0,.1-.37V56.9a.45.45,0,0,0-.14-.36c-.18-.2-.4-.07-.43-.15a.41.41,0,0,1,0-.17h1.72a2.54,2.54,0,0,1,1.11.17.87.87,0,0,1,.49.77,1,1,0,0,1-.63.88c.34.08.9.28.9.92a1.19,1.19,0,0,1-.71,1.19,3.17,3.17,0,0,1-.88.12H38.86v-.1Zm24.64,0a.71.71,0,0,0,.3-.15c.06-.05.12-.16.12-.44V57.05a.72.72,0,0,0-.1-.44c-.07-.11-.26-.15-.48-.17,0,0-.17-.13-.05-.17l1.77,0c.6,0,1.19,0,1.25,0s0,.63,0,.73a.22.22,0,0,1-.09.19c-.06,0-.08-.12-.08-.19a.75.75,0,0,0-.17-.38.38.38,0,0,0-.31-.12H64.8a.26.26,0,0,0-.14,0,.46.46,0,0,0-.06.18v1.12c0,.07,0,.17,0,.18a4.36,4.36,0,0,0,.7,0,.39.39,0,0,0,.26-.16,2.06,2.06,0,0,0,.19-.34c0-.07.16-.13.16,0s0,1.33,0,1.33-.12,0-.12,0a.68.68,0,0,0-.17-.4.46.46,0,0,0-.33-.17l-.53,0c-.2,0-.2.2-.21.28v1.09a.53.53,0,0,0,.1.32.76.76,0,0,0,.47.2c.11,0,0,.14,0,.14H63.44S63.36,60.27,63.49,60.21Zm-4.24-3.47a2.06,2.06,0,0,1,1.47-.52,1.89,1.89,0,0,1,1.39.45,2.07,2.07,0,0,1,.63,1.53,2.12,2.12,0,0,1-.64,1.6,2.17,2.17,0,0,1-1.45.56,2,2,0,0,1-1.5-.54,2.1,2.1,0,0,1-.53-1.55A2,2,0,0,1,59.25,56.74Zm.54,2.95a1.13,1.13,0,0,0,1,.46,1.21,1.21,0,0,0,.9-.49A2.11,2.11,0,0,0,62,58.29a2.19,2.19,0,0,0-.44-1.43,1.11,1.11,0,0,0-1-.44,1.26,1.26,0,0,0-1,.37,2.25,2.25,0,0,0-.39,1.42A2.69,2.69,0,0,0,59.79,59.69Zm21.32.48a.66.66,0,0,0,.38-.23.85.85,0,0,0,.1-.52l0-2.53a.46.46,0,0,0-.23-.37,1.67,1.67,0,0,1-.3-.08s-.17-.13,0-.15a9,9,0,0,1,1,0c.11.07,1.73,1.87,2.41,2.65.22.26.3.22.3,0V57a.44.44,0,0,0-.2-.41,1,1,0,0,0-.44-.19s-.17-.06,0-.11h1.34c.09,0,.09.07,0,.1a.57.57,0,0,0-.34.18,1.13,1.13,0,0,0-.11.62V60.3c0,.15-.15.06-.15.06S82.32,57.6,82,57.26c0,0,0-.09-.12,0s-.05.05-.05.13v2.09a.86.86,0,0,0,.21.62.62.62,0,0,0,.39.15c.14,0,.11.14.11.14H81A.14.14,0,0,1,81.11,60.17Zm-2.36,0a1,1,0,0,0,.26-.14c.08-.06.11-.17.11-.41l0-2.62a1.15,1.15,0,0,0-.09-.47.7.7,0,0,0-.51-.18s-.12-.07,0-.12h1.68c.14,0,0,.12,0,.12a.4.4,0,0,0-.3.13,1.09,1.09,0,0,0-.09.43v2.71a.57.57,0,0,0,.15.44.8.8,0,0,0,.42.12c.16,0,0,.12,0,.12H78.75C78.61,60.29,78.75,60.21,78.75,60.21Zm-5.31,0s.25-.18.31-.24.11-.16.11-.44V57a.82.82,0,0,0-.1-.43c-.06-.1-.2-.11-.42-.14,0,0-.33-.07,0-.15h1.59c.18,0,0,.12,0,.12a.41.41,0,0,0-.3.12.53.53,0,0,0-.1.43v.9s0,.21.17.2,1.5,0,1.69,0,.26-.15.26-.25,0-.83,0-.83a.76.76,0,0,0-.12-.45.86.86,0,0,0-.44-.12c-.16,0,0-.11,0-.11h1.69s.08.1,0,.11a.32.32,0,0,0-.27.12.71.71,0,0,0-.1.43v2.7c0,.22,0,.29.12.36a.51.51,0,0,0,.36.19c.12,0,.17.14,0,.15l-1.55,0s-.2-.09,0-.18a.47.47,0,0,0,.25-.17,1,1,0,0,0,.08-.42s0-.93,0-1.08,0-.24-.18-.22H74.69c-.09,0-.15,0-.15.23v1.07a.57.57,0,0,0,.6.61c.2,0,0,.13,0,.13H73.37S73.3,60.24,73.44,60.2Zm-1.69-3.8a1.5,1.5,0,0,0,.49.2c.06,0,.1-.13.12-.2s.13.1.13.1l.07,1.15a.08.08,0,0,1-.15,0,1.8,1.8,0,0,0-.44-.73,1.59,1.59,0,0,0-1-.48,1.22,1.22,0,0,0-1.07.5,1.93,1.93,0,0,0-.34,1.16,2.21,2.21,0,0,0,.55,1.47,1.48,1.48,0,0,0,1.09.45,1.36,1.36,0,0,0,.76-.23,4.51,4.51,0,0,0,.54-.49.1.1,0,0,1,.17,0c0,.08-.33.46-.62.68a2.14,2.14,0,0,1-1,.37,2,2,0,0,1-1.61-.55,2.32,2.32,0,0,1,0-3,2,2,0,0,1,1.55-.64,2.09,2.09,0,0,1,.81.19" transform="translate(-10 -38.69)"/></g><path class="cls-2" d="M55.74,41.48a.64.64,0,0,1,.28,0c.07,0-.05,0,.25,0a.6.6,0,0,1,.37.15,2.78,2.78,0,0,1,.61.35.57.57,0,0,1,.08.37.67.67,0,0,1-.16.41,1.6,1.6,0,0,0-.23.24c0,.05,0,.2-.12.24s-.19,0-.33,0-.26.08-.3,0a.67.67,0,0,0-.12-.12s-.13,0-.14-.07a1.39,1.39,0,0,0-.22-.44s0-.21,0-.27,0-.15-.05-.21a1,1,0,0,1,0-.18c0-.06-.08-.15,0-.23S55.68,41.51,55.74,41.48Z" transform="translate(-10 -38.69)"/><path class="cls-2" d="M59.55,43.87a12.53,12.53,0,0,0-.67-3.07,3.75,3.75,0,0,0-1.2-1.64A.91.91,0,0,0,57.1,39c-.13,0-.31-.05-.45,0a1.69,1.69,0,0,0-.34.11s-.29,0-.43.05-.38,0-.46,0l-.49.14A4.71,4.71,0,0,0,53,40.48c-.55.69-.76,1-.72,1a2.48,2.48,0,0,1,.21.55c0,.06.16.13.24.12a.58.58,0,0,0,.32-.09c.06,0,.1-.13,0-.27a.87.87,0,0,1,0-.64,1.42,1.42,0,0,1,.24-.45,3.67,3.67,0,0,1,.57-.54A8.09,8.09,0,0,1,55,39.71a5.43,5.43,0,0,1,1.31-.26,2.27,2.27,0,0,1,.83.1A3.26,3.26,0,0,1,58.39,41a15.88,15.88,0,0,1,.48,2.53c0,.18.06.47.08.63s.07.26,0,.36.07.13.07.2a5.51,5.51,0,0,0,0,.87,3.6,3.6,0,0,1,0,.83c0,.08.07.16,0,.21s0,.21,0,.36,0,.17,0,.23-.08.18-.07.23a.37.37,0,0,1,0,.22,1.42,1.42,0,0,0,0,.2c0,.14,0,.49,0,.71s0,.27,0,.42-.07.25-.12.4a1.42,1.42,0,0,1-.42.46c-.09.07-.23.24-.3.26l-.24.06s-.12-.06-.22,0a.66.66,0,0,1-.28,0c-.13,0-.18-.1-.3-.1s-.27-.13-.5-.14a4.25,4.25,0,0,0-.81-.07,1.22,1.22,0,0,1-.62-.13c-.05,0,0-.13.08-.16a1.14,1.14,0,0,0,.41-.11,1.07,1.07,0,0,1,.31,0c.12,0,.22-.12.47-.06s.32-.09.61,0a.46.46,0,0,0,.38,0c.13,0,.15-.19.23-.27a.94.94,0,0,0,.21-.42c0-.09.13-.18,0-.34s-.22-.21-.29-.17-.38,0-.52.07-.21.18-.27.19-.52.12-.66.17-.35.11-.44.14-.16,0-.23,0l-.15.11c-.08,0-.26,0-.39,0l-.24.08c-.06,0-.15,0-.29,0s-.22.12-.29.12-.27,0-.37,0-.32.11-.38.06,0-.15.08-.18.2-.21.28-.29a2.89,2.89,0,0,1,.37-.27c.07,0,.18-.2.28-.29s.39-.3.46-.37a4,4,0,0,0,.29-.3,1.91,1.91,0,0,1,.21-.14c.07-.05.21-.26.3-.34s.16,0,.19.09a5.71,5.71,0,0,0,.52.61,1.53,1.53,0,0,0,.55.35.49.49,0,0,0,.19,0c.09,0,.08-.07.1-.12a3.71,3.71,0,0,0,.44-.88c0-.25.25-1,.23-1.11a2.3,2.3,0,0,0-.06-.28c0-.05-.09-.06-.1,0s0,.17,0,.29a7.75,7.75,0,0,1-.26.79,1.89,1.89,0,0,1-.44.67.35.35,0,0,1-.26.07,1.17,1.17,0,0,1-.48-.25,1.76,1.76,0,0,1-.29-.44.21.21,0,0,1,.08-.19c.09-.08.64-.73.83-1s.47-.62.6-.77,0-.23.09-.29,0-.09,0-.12,0-.08,0-.15-.07,0-.09-.09,0-.09,0-.15a.07.07,0,0,0-.12,0c0,.06-.26.32-.33.45a7.68,7.68,0,0,1-.52.82c-.28.35-.6.88-.71,1s-.1,0-.14,0,0-.11,0-.18.21-.3.27-.39a.36.36,0,0,0,.06-.25s0-.15,0-.23,0,0,0-.16a.25.25,0,0,0-.07-.23c-.1-.12-.24-.21-.35-.32s-.12-.21-.17-.25-.08,0-.16-.14a1.21,1.21,0,0,0-.1-.16c0-.06-.12-.06-.15-.17s-.09-.08-.13-.15a.41.41,0,0,1,0-.35c0-.07,0-.06.14-.11s0-.11.08-.18.14-.09.17-.18a4.41,4.41,0,0,1,.19-.4c.09-.14,0-.17.1-.27s.07-.08.09-.12,0,0-.08-.08-.1-.21-.16-.25a.25.25,0,0,0-.25,0,3.91,3.91,0,0,0-.73.33.2.2,0,0,1-.19.05c-.09,0-.13-.12-.14-.18a2.07,2.07,0,0,0-.12-.3,4.09,4.09,0,0,0-.27-.45c-.06-.09-.14-.18-.19-.16s-.06.14,0,.18a3.5,3.5,0,0,1,.17.61c0,.21.1.4.11.49a.28.28,0,0,1-.05.25,3.41,3.41,0,0,0-.41.57c-.09.17,0,.29.22.26s.37-.24.46-.25.1,0,.1.1.1.13.09.18,0,.13,0,.18.14.06.13.09a1.74,1.74,0,0,0,0,.22,1.05,1.05,0,0,1-.28.34c-.09.05-.11.18-.2.28s0,.11,0,.15-.08,0-.1.08,0,.06-.1.28,0,.12,0,.2,0,.3.11.29.07-.12.16-.18a.81.81,0,0,0,.25-.14c.06-.08.12,0,.13,0s0,.09,0,.13a.81.81,0,0,1-.23.23.93.93,0,0,0-.15.25s-.12.07-.17.16a7.07,7.07,0,0,1-.44.57c-.16.2-.26.55-.36.68s-.05.36-.09.51-.09.19,0,.24.11,0,.19,0a4.06,4.06,0,0,0,.53-.23c.18-.1.46-.23.66-.35s.5-.32.75-.48.33-.34.48-.42a.09.09,0,0,1,.14,0,.18.18,0,0,1,0,.21c0,.07-.41.43-.64.65s-.49.55-.62.66-.85.78-1,.89a1,1,0,0,1-.42.27,1.71,1.71,0,0,1-.61,0c-.07-.05-.08,0-.16.07s0,.19-.16.19-.11-.11-.14-.23,0-.5,0-.73,0-.18,0-.37,0-.26,0-.27-.1.26-.18.27-.07-.14-.09-.22a5.62,5.62,0,0,1,0-.92c0-.19,0-1.15,0-1.32s-.06-.21,0-.28a2.86,2.86,0,0,0,.06-.31c0-.11-.06-.13,0-.22s0-.16,0-.23,0-.13,0-.2a.86.86,0,0,0,.06-.23c0-.07,0-.21,0-.28a1.61,1.61,0,0,0,.09-.26c0-.08,0-.2,0-.3a2.92,2.92,0,0,1,.12-.57,3.22,3.22,0,0,0,.11-.62c0-.07,0-.25-.08-.28s-.15,0-.17.1-.22.34-.28.55a5.2,5.2,0,0,1-.26,1c-.05.09-.1.76-.14,1s-.12.92-.13,1,.06.16,0,.22a.49.49,0,0,0-.06.31,1,1,0,0,1,0,.31,1.28,1.28,0,0,0,0,.27c0,.08.08.08,0,.15s0,.43-.07.57.12.21.05.36,0,.07,0,.42.13,1.07.16,1.34,0,.64.07.85.46.64.59.69a1.1,1.1,0,0,0,.48,0c.15,0,.15-.19.11-.33s-.26-.2-.22-.31,0-.06,0-.18-.08,0-.06-.17,0-.12,0-.17,0-.12.09-.12.13,0,.16,0a6.14,6.14,0,0,0,1.31.16,8,8,0,0,1,2.24.35,8.56,8.56,0,0,1,1.55.82c.19.18.28.36.37.36a6,6,0,0,0,.8-.64,7.28,7.28,0,0,0,1.14-1.06,4,4,0,0,0,.18-1c0-.24.06-1.48.11-2C59.57,46.56,59.59,44.62,59.55,43.87Zm-4.92-1.53c.17-.09.09-.07.14.07s-.05,0-.1.19,0,.15-.16.24-.1,0-.16-.1,0,0,0-.19S54.46,42.44,54.63,42.34ZM54.79,46c-.15.17-.34.15-.54.32s-.28.12-.46.25-.15.08-.31,0-.14-.1,0-.23.09-.06.16-.12-.09-.08,0-.14.08,0,.21-.12.1-.18.15-.27a.56.56,0,0,1,.26-.27,2.4,2.4,0,0,0,.34-.28c.05,0,.14.12.21.28a2.23,2.23,0,0,1,.12.31C55,45.87,54.94,45.78,54.79,46Zm.39-.43c-.11.09,0,0-.13-.06s0-.27-.12-.37-.12-.09-.09-.24.13-.12.16-.17,0,0,.16.18.05.18.12.29.08.05.06.18S55.29,45.43,55.18,45.52Z" transform="translate(-10 -38.69)"/><g id="g2426"><path id="path2428" class="cls-2" d="M89.92,44.62c-.14.07-.58.56-.69.61s-.26-.08-.35,0l-1.25.25a4.94,4.94,0,0,0-1.09.36c-.11.06-.11.14-.05.2a5.06,5.06,0,0,1,.49.43c.06.08,0,.12-.06.27a6.5,6.5,0,0,0-.1,1.46c.05.39.25,1.58.31,1.9s.09.69.12.84a1,1,0,0,1-.1.66,4,4,0,0,1-.85.8.61.61,0,0,1-.58-.08,1.53,1.53,0,0,1-.37-.68,1.7,1.7,0,0,0-.66-.67c-.4-.29-1.27-.74-1.41-1.05a.11.11,0,0,1,0-.18c.17-.06.26.16.37.24a1.86,1.86,0,0,0,.58.26c.25.09.7.2.81.23a.9.9,0,0,0,.59.06,1,1,0,0,0,.36-.64c0-.44-.07-.94-.06-1.15a9.35,9.35,0,0,1,.09-1.19,3.07,3.07,0,0,0,0-.75,2.77,2.77,0,0,1,.06-.6c0-.11-.1-.11-.2-.07a6.18,6.18,0,0,0-1.09.55c-.28.14-.78.44-1,.51s-.27.25-.34.18-.23-.07-.31-.22.07-.43.22-.52.39,0,1-.35,1.3-.71,1.8-.91,1.84-.6,2-.64.62-.08.69-.11a1.64,1.64,0,0,1,.58-.13,2.38,2.38,0,0,1,.39,0C90,44.45,90.05,44.54,89.92,44.62Zm-5.3-1.47c.17-.08.22.13.28.13a1.67,1.67,0,0,0,.57-.05c.17-.06,1.25-.6,1.61-.69a9.88,9.88,0,0,1,1.8-.37c.1,0,.11.07,0,.13s-.15.23-.24.33,0,.25-.08.31a.31.31,0,0,1-.27.13H88c-.12,0-.37.16-.47.17s-.13-.06-.2-.09a3.53,3.53,0,0,0-1.21.37,4.11,4.11,0,0,0-1.1.67c-.1.11-.22.31-.38.21s-.21-.43-.25-.58A.63.63,0,0,1,84.62,43.15Zm-1-4.18c.16,0,.46.75.62,1.07a2.09,2.09,0,0,1,.13.55,2.6,2.6,0,0,1,.1.65,3.08,3.08,0,0,1,0,.53c0,.08-.17.16-.17.28a.66.66,0,0,1-.19.3c-.11.1-.18.39-.25.48s-.45.16-.69.22a2.26,2.26,0,0,0-.55.29c-.17.13-.5.24-.72.39a7.73,7.73,0,0,0-.63.55c-.07.06-.19.15-.07.25s.45,0,.9.25a1.52,1.52,0,0,1,.7.56.31.31,0,0,1-.08.46c-.11.07-.19.27-.42.47s-.22.36-.4.52-.68.69-.88.84-.11.22.08.29a2.78,2.78,0,0,1,.86.68,3.15,3.15,0,0,1,.3,1.3A3.89,3.89,0,0,1,82,51c0,.16-.07.23-.28.19,0,0-.15-.14-.24-.23s-.3-.17-.39-.27-.24-.18-.31-.29a2.18,2.18,0,0,1,0-1,3.91,3.91,0,0,1,.13-.54c.05-.14.12-.58,0-.61a2.31,2.31,0,0,0-.64.26,1.87,1.87,0,0,0-.55.36,1,1,0,0,0-.2.45c0,.14-.11.23-.17.19s-.25,0-.34,0-.21-.09-.35-.14-.14,0-.35-.2-.44-.55-.32-.86,0-.25.17-.4c.41-.39.58-.6,1-1.06a10.92,10.92,0,0,1,.84-.83,1.13,1.13,0,0,0,.25-.37c0-.1.29-.29.14-.39a.62.62,0,0,0-.52-.07c-.12.05-.2-.09-.33-.17s-.27,0-.37,0-.17-.15-.28-.22-.29-.18-.2-.36,0-.35.16-.47.34-.3.47-.41a22.15,22.15,0,0,0,1.49-1.64c.51-.58,1.46-2,1.84-2.37a.9.9,0,0,1,.44-.48.82.82,0,0,1,.65-.08" transform="translate(-10 -38.69)"/></g><path class="cls-2" d="M75.83,49.82a.53.53,0,0,0-.18-.16c-.22-.14-.9-.29-1.07-.42s-.51-.05-.52-.11-.07-.09-.12-.08-.11,0-.14,0a7,7,0,0,1-1.11-.39.22.22,0,0,1-.07-.23c.11-.2.34-.52.41-.64a2.89,2.89,0,0,1,.65-.76l.47-.29c.13-.1.18-.35.1-.39a.68.68,0,0,0-.63.16,3.81,3.81,0,0,1-.75.65,6.65,6.65,0,0,1-.85.36H70.94a2.58,2.58,0,0,0-.43.07.59.59,0,0,1-.38-.06,1.59,1.59,0,0,0-.53,0c-.08,0-.13.14-.21.16s-.11,0-.12-.15a2.56,2.56,0,0,1,.07-.58c0-.2.22-.67.24-.85a3.35,3.35,0,0,1,0-.42s.15-.13.16-.2A1,1,0,0,1,70,45c.08-.07.17,0,.26,0s.07-.15.12-.17.17-.12.24-.07,0,.19,0,.22a7.44,7.44,0,0,0-.59,1c-.21.29-.17.19-.26.44s0,.66,0,.82.08.1.14,0a8.94,8.94,0,0,1,1.3-.74c.16-.08.44-.16.5-.26a.35.35,0,0,0,.06-.37,1.83,1.83,0,0,0-.43-.6c0-.05-.08-.19,0-.25s.3-.61.39-.78a4.86,4.86,0,0,0,.24-.55c.07-.2,0-.25.05-.43s.19-.82.29-1.12.24-.83.28-.94c.11-.27.21-.45.24-.57a.75.75,0,0,0,0-.47.17.17,0,0,0-.24-.11c-.13.06-.3.28-.56.47a7.71,7.71,0,0,0-1.2.89c-.48.47-.28.36-.41.41s-.16-.09-.22-.12-.17,0-.21,0,0,.13,0,.19A9.68,9.68,0,0,0,69,44c-.14.64-.35,2-.44,2.4a16.14,16.14,0,0,1-.31,2.05A14,14,0,0,1,67,49.73a4.23,4.23,0,0,1-1.4.79c-.07,0-.06-.09,0-.17a.32.32,0,0,1,.22-.14c.09,0,.16,0,.25,0s0-.35.1-.44,1-.88,1.23-1.15S68,48,68,47.85a.67.67,0,0,0-.41-.35c-.11,0-.33,0-.45,0s-.46.13-.48,0,.37-.35.4-.42,0-.18.08-.28a1.25,1.25,0,0,0-.11-.48c0-.1,0-.35-.12-.33s0,.25-.08.3l-.35.25c-.05.05-.07.13-.11.13s-.19,0-.16-.07,0-.53,0-.6a1,1,0,0,0,.18-.23.68.68,0,0,1,.19-.19c.13-.1.4-.15.41-.26s0-.33,0-.35-.14-.11-.2-.18a3.29,3.29,0,0,1-.2-.34s0-.09-.19-.08a1.77,1.77,0,0,0-.65.37c-.24.17-.48.31-.5.48s.24.42.29.51.12.17,0,.27a3.94,3.94,0,0,0-.7,1,.81.81,0,0,0,0,.27,3.48,3.48,0,0,0,.25.84.1.1,0,0,0,.16,0c.06,0,.17.06.08.15s-.33.26-.48.39-.5.48-.59.56-.39.23-.5.31-.15.16-.1.24.14.35.27.41a.32.32,0,0,0,.33-.09c.13-.11.39-.39.55-.56,0,0,.09,0,.14,0a.67.67,0,0,1,.06-.21,2.06,2.06,0,0,1,.57-.57c.09,0,.14.07.16.12s0,.13,0,.18a.69.69,0,0,1,0,.19.21.21,0,0,1-.08.14c-.12.15-.47.16-.67.2a.83.83,0,0,0,.46.11c.08,0,.17.11.13.15a4.27,4.27,0,0,1-.69.66.5.5,0,0,0-.17.48c0,.2.1.5.23.46a6.3,6.3,0,0,0,.68-.24c.12,0,.33-.18.41-.2a1.78,1.78,0,0,0,.72-.28c.18-.15.44-.31.56-.42s.15-.21.28-.3a2.63,2.63,0,0,0,.51-.5c.06-.06.12-.15.24-.07s0,.47,0,.61a4.09,4.09,0,0,0,.1.68,1.14,1.14,0,0,0,.68.54c.23,0,.51.13.66.07a6.65,6.65,0,0,0,.61-.37c.11-.07.29-.28.39-.35s.33-.15.42-.27.36-.38.45-.46.13-.17.16-.19.09-.13.24-.13.74.49,1.08.61a4.36,4.36,0,0,0,1.19.2A5.38,5.38,0,0,0,76,50C76,49.87,75.88,49.88,75.83,49.82Zm-4.6-4.37c0,.12,0,.23,0,.31a3.17,3.17,0,0,1-.79.38c-.07,0-.1.06-.13-.09s.18-.29.19-.37a.44.44,0,0,1,.17-.33c.13-.09.12.15.24.13s.14-.11.19-.17S71.19,45.23,71.23,45.45Zm-.92-2.28a2.54,2.54,0,0,0,.12-.51,2,2,0,0,1,.55-1,7.62,7.62,0,0,1,1.18-.87A3.81,3.81,0,0,1,71.92,42c-.15.46-.18.61-.32,1-.06.18-.18.1-.25.18s.09-.07-.23.25-.61.45-.73.58-.19,0-.21-.1,0-.16,0-.33S70.28,43.25,70.31,43.17ZM66.1,48.29c0-.06.31-.2.48-.28a1.41,1.41,0,0,1,.46-.16.12.12,0,0,1,.13.15,9.68,9.68,0,0,1-.94,1s-.14-.14-.15-.26A3.77,3.77,0,0,1,66.1,48.29Zm-.7-1.1c-.06-.07,0-.14.08-.19s0-.11.09-.12.13.13.06.24S65.43,47.23,65.4,47.19Zm6,2.25a1.07,1.07,0,0,1-.21.23c-.29.2-1.26.71-1.38.81a.53.53,0,0,1-.58,0,.67.67,0,0,1-.21-.38,6,6,0,0,1,0-1,2.81,2.81,0,0,1,.15-.89c0-.09.28.18.43.22l.55.17a7.89,7.89,0,0,1,1.29.69C71.53,49.29,71.5,49.38,71.45,49.44Zm.71-1.06a2,2,0,0,1-.33-.15c-.12-.07,0-.28.1-.26a1.23,1.23,0,0,0,.56-.26c.09-.07.18,0,.13.13a4.4,4.4,0,0,0-.3.45C72.28,48.35,72.21,48.4,72.16,48.38Z" transform="translate(-10 -38.69)"/><path class="cls-2" d="M67.2,41.83c.06-.13.48-.16.66-.12s.37.36.43.52a.87.87,0,0,1,.08.4c0,.11-.22.11-.39.16a2.19,2.19,0,0,0-.33.13,2,2,0,0,0-.39.29.27.27,0,0,1-.24.08s0-.11,0-.17a1,1,0,0,0,.22-.57.6.6,0,0,1-.09-.3A1.19,1.19,0,0,1,67.2,41.83Z" transform="translate(-10 -38.69)"/><path class="cls-2" d="M67.14,39.54c.07,0,.11.1.22.15s.11.1.19.1.11.16.17.21.12.2.18.26.09.14.16.19a.3.3,0,0,1,0,.36.71.71,0,0,1-.33.24,2.4,2.4,0,0,0-.6.15,2.86,2.86,0,0,0-.53.43,7.16,7.16,0,0,0-.81,1.2c-.17.29-.78,1.34-1,1.75l-.61,1.32c-.18.4-.63,1.26-.72,1.49s0,.58-.14.69a.22.22,0,0,1-.32,0,.82.82,0,0,1-.28-.35,1.73,1.73,0,0,1,.08-.58A.32.32,0,0,1,63,47s.14,0,.21,0a3.16,3.16,0,0,0,.42-.66c.16-.3.59-1.2.69-1.42s.31-.68.49-1,.67-1.73.93-2.1c.06-.08.35-.69.52-1a11.06,11.06,0,0,1,.88-1.24" transform="translate(-10 -38.69)"/><path class="cls-2" d="M47.45,41.35c0-.08-.34-.06-.5-.06a8.61,8.61,0,0,0-1.25,0c-.51.1-.82.37-1,.34s-.08-.24-.1-.41a1.51,1.51,0,0,0-.22-.58c-.18-.22-.45-.57-.59-.7s-.35-.4-.48-.54a2.8,2.8,0,0,0-.35-.27.34.34,0,0,0-.46-.06,1.7,1.7,0,0,0-.4.68,1.2,1.2,0,0,0,0,.51,1.86,1.86,0,0,1-.09.78,3.32,3.32,0,0,0,0,.42A3.71,3.71,0,0,1,42,42s0,.31,0,.44a1.39,1.39,0,0,0,0,.23s.09.07,0,.17a.69.69,0,0,0,0,.28s-.41.29-.59.43-.47.35-.57.41l-.67.46c-.16.11-.35.27-.38.27s-.22-.24-.28-.3a7.66,7.66,0,0,1-.56-.54c-.2-.21-.4-.61-.51-.58s-.22.23-.26.39A2.84,2.84,0,0,0,38.24,45c.15.29.48,1.79,1.39,2.39a3.11,3.11,0,0,0,1.38.53c.12,0,.1-.33.1-.45a.23.23,0,0,1,.21-.19c.07,0,.21.07.2.28s.13,1.76.19,2.32.14.75.22,1.23c0,.29.11,1.08.19,1.3s.3.4.43.39.16-.13.19-.19-.18-.1-.23-.19a1.79,1.79,0,0,1-.11-.29c0-.11-.12-.11-.17-.27a3.53,3.53,0,0,1-.1-.58c0-.24,0-.16,0-.34s-.1-.56-.12-.71a2.15,2.15,0,0,1,0-.57c0-.13.06-.17.11-.16s.1.06.1.15a2.15,2.15,0,0,1,0,.5,1.83,1.83,0,0,0,0,.27c0,.05,0,.18,0,.36a1.9,1.9,0,0,1,0,.45c0,.18.11.28.12.4s-.07.21,0,.37.13.12.16.24.1.08.11.12.05.19.14.18.15-.15.22-.26.13,0,.2,0,0-.12.14-.14.21,0,.24-.12a.7.7,0,0,0,.07-.48,3.8,3.8,0,0,1,0-1,4.31,4.31,0,0,0,.1-.45c0-.09.09-.16.08-.21s.06-.4.08-.54.11-.16.14-.29.1-.61.13-.7a4.6,4.6,0,0,1,.25-.65c.11-.26,0-.58.19-.9s0-.44.19-.54.25-.05.45-.15.16-.28.26-.53.27-.29.23-.47-.35-.08-.45-.17.48-.69.78-1.08.34-.54.51-.76a2.5,2.5,0,0,0,.49-.75A1.85,1.85,0,0,0,47.45,41.35Zm-5.76,4a1.18,1.18,0,0,1,0,.28.54.54,0,0,0,0,.2c0,.06,0,.08,0,.18s0,.17,0,.29a1.47,1.47,0,0,1-.49.41c-.1,0,0-.15-.2-.27a1,1,0,0,1-.28-.41c-.09-.15-.06-.22-.17-.35a.35.35,0,0,1,0-.4s.25-.17.35-.25l.32-.23a2.24,2.24,0,0,1,.35-.26c.08-.06.2-.1.22.08S41.68,45.23,41.69,45.37Zm1.45,6.47a.29.29,0,0,1-.23-.15,2,2,0,0,1-.13-.42,2.91,2.91,0,0,1,0-.4,2.64,2.64,0,0,0,0-.4c0-.14.17-.29.17-.44s0-.16,0-.34.07-.28.14-.28.08,0,.1.13a2,2,0,0,1,0,.22c0,.1,0,.13,0,.21a2.28,2.28,0,0,1,0,.26,1.3,1.3,0,0,1,0,.45c0,.11,0,.14,0,.25s-.06.26-.07.41.11.26.11.41S43.22,51.85,43.14,51.84Zm3.19-9.41a8.31,8.31,0,0,1-.74,1.13c-.24.29-.84,1-.9,1s-.12-.06-.14-.2a.78.78,0,0,1,0-.3c0-.08,0-.12,0-.19a2.26,2.26,0,0,1-.08-.57,3.37,3.37,0,0,0,0-.44c0-.09.33-.3.49-.41s.27-.24.4-.31a.73.73,0,0,1,.46-.06c.17,0,.37-.08.46,0S46.35,42.31,46.33,42.43Z" transform="translate(-10 -38.69)"/></svg>