<svg xmlns="http://www.w3.org/2000/svg" xmlns:xlink="http://www.w3.org/1999/xlink" viewBox="0 0 79.99 50.96"><defs><style>.cls-1{fill:none;}.cls-2{clip-path:url(#clip-path);}.cls-3{fill:#fff;}</style><clipPath id="clip-path"><rect class="cls-1" x="0.01" y="0.01" width="80" height="50.96"/></clipPath></defs><title>Boleto (2)</title><g id="Layer_2" data-name="Layer 2"><g id="Boleto"><g class="cls-2"><path d="M0,0H1.23V46.31H0ZM1.75,0H3V46.31H1.75ZM3.51,0h.7V46.31h-.7ZM20.17,0h3.69V46.31H20.17ZM5.26,0H9V46.31H5.26Zm21.4,0h3.69V46.31H26.66ZM42.1,0h3.68V46.31H42.1Zm17,0H62.8V46.31H59.12ZM73.68,0h1.93V46.31H73.68ZM33.86,0h2.63V46.31H33.86ZM11.75,0H13V46.31H11.75Zm3.16,0h1.23V46.31H14.91Zm1.75,0h1.23V46.31H16.66ZM37,0h1.23V46.31H37Zm1.58,0h1.23V46.31H38.59Zm9.83,0h1.22V46.31H48.42Zm3.5,0h1.23V46.31H51.92ZM53.5,0h1.23V46.31H53.5Zm1.76,0h1.23V46.31H55.26Zm10,0h1.22V46.31H65.26Zm3.33,0h1.23V46.31H68.59Zm8.77,0h.7V46.31h-.7ZM70.87,0h.7V46.31h-.7Zm1.4,0H73V46.31h-.7Zm7,0H80V46.31h-.7ZM57,0h.7V46.31H57ZM40.17,0h.7V46.31h-.7ZM32.45,0h.7V46.31h-.7Zm-1.4,0h.7V46.31h-.7ZM24.21,0h.7V46.31h-.7ZM11.4,0h1V46.31h-1Z"/></g><path class="cls-3" d="M61.46,38.66a6.64,6.64,0,0,0-4.27,1.5,1.35,1.35,0,0,0-.3-.81,1.33,1.33,0,0,0-1-.48h-.39l.18-.93A1.32,1.32,0,0,0,54,36.42l-2.8.76a1.29,1.29,0,0,0-.94,1l-.14.67H50a1.32,1.32,0,0,0-1.3,1.07,4.73,4.73,0,0,0-3.38-1.26,6.42,6.42,0,0,0-5,2.28l0,.06.91-4.74A1.34,1.34,0,0,0,41,35.19a1.32,1.32,0,0,0-1-.47H37.25A1.31,1.31,0,0,0,36,35.78l-1.15,6A5,5,0,0,0,30,38.66a6.65,6.65,0,0,0-6.36,4.45l-.22-.3a4.14,4.14,0,0,0,1.45-3.19,3.89,3.89,0,0,0-2.16-3.5,7.26,7.26,0,0,0-3.78-.82,18.58,18.58,0,0,0-3.61.33,1.3,1.3,0,0,0-1,1L11.92,49.06a1.31,1.31,0,0,0,1,1.53,18.22,18.22,0,0,0,3.49.26A9.67,9.67,0,0,0,22,49.59a5.3,5.3,0,0,0,1.6-1.6c-.09-.22.15-.23,0,0a5,5,0,0,0,4.8,3,6.65,6.65,0,0,0,5.15-2.35l-.12.58a1.32,1.32,0,0,0,1.3,1.57h2.72a1.32,1.32,0,0,0,1.29-1.07L39,47.93A4.88,4.88,0,0,0,44,51a9.36,9.36,0,0,0,4-.88,1.32,1.32,0,0,0,.71-1.3l0-.37C49,50,50.38,51,52.34,51a6.5,6.5,0,0,0,2.06-.29,1.3,1.3,0,0,0,.85-1.05l.14-1A5.05,5.05,0,0,0,59.86,51a6.85,6.85,0,0,0,6.83-7.17,5,5,0,0,0-5.23-5.13Zm-12.62,7a9.05,9.05,0,0,0-.23,1.93l-.08-.78a1.22,1.22,0,0,0-.35-.77,4.29,4.29,0,0,0,.56-.46l.15-.16Zm5.79.14c0,.08,0,.16,0,.24a1.4,1.4,0,0,0-.54,0l.06-.35.41-2.07H55a7.76,7.76,0,0,0-.32,2.23Z"/><path d="M15.56,36.92a16.94,16.94,0,0,1,3.34-.3,6,6,0,0,1,3.15.66,2.6,2.6,0,0,1,1.48,2.34,3.19,3.19,0,0,1-2.57,3v.06a2.75,2.75,0,0,1,2,2.77,3.56,3.56,0,0,1-1.74,3,8.61,8.61,0,0,1-4.79,1,18,18,0,0,1-3.21-.22Zm.68,10.44a8.37,8.37,0,0,0,1,0c1.47,0,2.81-.59,2.81-2S19,43.76,17.77,43.76h-.85Zm1.09-5.59h.91c1.49,0,2.51-.64,2.51-1.74,0-.9-.74-1.3-1.77-1.3a6.32,6.32,0,0,0-1.08.08Zm16.54,2a5.52,5.52,0,0,1-5.51,5.86,3.66,3.66,0,0,1-3.91-3.84A5.55,5.55,0,0,1,30,40a3.67,3.67,0,0,1,3.9,3.81Zm-6.6,2c0,1.07.52,1.79,1.49,1.79,1.45,0,2.3-2.19,2.3-3.76,0-.85-.38-1.75-1.45-1.75-1.57,0-2.34,2.28-2.34,3.72Zm7.42,3.66L37.25,36H40L37.41,49.44Zm12.72-.53a7.9,7.9,0,0,1-3.45.74c-2.63,0-4-1.49-4-3.91A5.54,5.54,0,0,1,45.36,40c1.87,0,3.21,1,3.21,2.77,0,2.34-2.29,3.19-6,3.1a2,2,0,0,0,.3.94,2.13,2.13,0,0,0,1.78.72A5.82,5.82,0,0,0,47.23,47ZM45,42a2.32,2.32,0,0,0-2.19,1.91c2.13,0,3.19-.27,3.19-1.14,0-.45-.38-.77-1-.77Zm9.34-4.29-.47,2.5h2l-.41,2.07h-2l-.62,3.14a7.21,7.21,0,0,0-.15,1.17c0,.45.19.77.79.77a6.11,6.11,0,0,0,.74,0L54,49.44a5.62,5.62,0,0,1-1.61.21c-1.64,0-2.42-.83-2.42-2a8.05,8.05,0,0,1,.21-1.72l.7-3.67H49.66L50,40.19h1.19l.34-1.74Zm11,6.1a5.52,5.52,0,0,1-5.51,5.86A3.66,3.66,0,0,1,56,45.81,5.55,5.55,0,0,1,61.46,40a3.67,3.67,0,0,1,3.91,3.81Zm-6.61,2c0,1.07.53,1.79,1.49,1.79,1.46,0,2.31-2.19,2.31-3.76,0-.85-.38-1.75-1.46-1.75-1.56,0-2.34,2.28-2.34,3.72Z"/></g></g></svg>