<svg id="Layer_1" data-name="Layer 1" xmlns="http://www.w3.org/2000/svg" viewBox="0 0 79.98 46.65"><defs><style>.cls-1{fill:#fff;}</style></defs><title>Boleto</title><rect x="79.28" width="0.7" height="46.3"/><rect x="16.66" width="1.23" height="31.48"/><rect x="20.16" width="3.68" height="31.48"/><rect x="14.9" width="1.23" height="31.48"/><rect x="5.25" width="3.68" height="46.3"/><rect x="31.04" width="0.7" height="31.48"/><rect x="32.44" width="0.7" height="31.48"/><rect x="26.65" width="3.68" height="31.48"/><rect x="24.2" width="0.7" height="31.48"/><rect x="72.26" width="0.7" height="46.3"/><rect x="73.67" width="1.93" height="46.3"/><rect width="1.22" height="46.3"/><rect x="68.58" width="1.23" height="46.3"/><rect x="70.86" width="0.7" height="46.3"/><rect x="1.75" width="1.23" height="46.3"/><rect x="3.5" width="0.7" height="46.3"/><rect x="65.25" width="1.23" height="31.48"/><rect x="51.92" width="1.23" height="31.48"/><rect x="11.39" width="1.58" height="31.48"/><rect x="53.49" width="1.23" height="31.48"/><rect x="57" width="0.7" height="31.48"/><rect x="59.11" width="3.68" height="31.48"/><rect x="55.25" width="1.23" height="31.48"/><rect x="48.41" width="1.23" height="31.48"/><rect x="38.58" width="1.23" height="31.48"/><rect x="37" width="1.23" height="31.48"/><rect x="33.85" width="2.63" height="31.48"/><rect x="42.09" width="3.68" height="31.48"/><rect x="77.35" width="0.7" height="46.3"/><rect x="40.16" width="0.7" height="31.48"/><path class="cls-1" d="M39.61,65.73c-1.57,0-2.34,2.29-2.34,3.72,0,1.08.53,1.79,1.49,1.79,1.45,0,2.3-2.19,2.3-3.76C41.06,66.64,40.68,65.73,39.61,65.73Z" transform="translate(-10.01 -26.68)"/><path class="cls-1" d="M55,65.65a2.33,2.33,0,0,0-2.19,1.91C55,67.58,56,67.3,56,66.43,56,66,55.64,65.65,55,65.65Z" transform="translate(-10.01 -26.68)"/><path class="cls-1" d="M71.1,65.73c-1.57,0-2.34,2.29-2.34,3.72,0,1.08.53,1.79,1.49,1.79,1.45,0,2.3-2.19,2.3-3.76C72.56,66.64,72.18,65.73,71.1,65.73Z" transform="translate(-10.01 -26.68)"/><path class="cls-1" d="M29,62.41a6.42,6.42,0,0,0-1.08.08l-.57,3h.91c1.49,0,2.51-.64,2.51-1.74C30.75,62.8,30,62.41,29,62.41Z" transform="translate(-10.01 -26.68)"/><path class="cls-1" d="M27.77,67.43h-.85L26.24,71a8.37,8.37,0,0,0,1,0c1.47,0,2.81-.59,2.81-2S29,67.43,27.77,67.43Z" transform="translate(-10.01 -26.68)"/><path d="M71.46,63.65A5.54,5.54,0,0,0,66,69.49a3.66,3.66,0,0,0,3.91,3.83,5.51,5.51,0,0,0,5.51-5.85A3.67,3.67,0,0,0,71.46,63.65Zm-1.21,7.59c-1,0-1.49-.72-1.49-1.79,0-1.44.77-3.72,2.34-3.72,1.08,0,1.45.91,1.45,1.76C72.56,69.05,71.71,71.24,70.25,71.24Z" transform="translate(-10.01 -26.68)"/><path d="M40,63.65a5.54,5.54,0,0,0-5.51,5.84,3.66,3.66,0,0,0,3.91,3.83,5.51,5.51,0,0,0,5.51-5.85A3.68,3.68,0,0,0,40,63.65Zm-1.21,7.59c-1,0-1.49-.72-1.49-1.79,0-1.44.77-3.72,2.34-3.72,1.08,0,1.45.91,1.45,1.76C41.06,69.05,40.21,71.24,38.76,71.24Z" transform="translate(-10.01 -26.68)"/><path d="M55.36,63.67A5.55,5.55,0,0,0,50,69.41c0,2.42,1.36,3.91,4,3.91a8,8,0,0,0,3.46-.74l-.19-2a5.82,5.82,0,0,1-2.59.59,2.16,2.16,0,0,1-1.78-.72,2,2,0,0,1-.3-.94c3.72.09,6-.76,6-3.1C58.57,64.73,57.23,63.67,55.36,63.67Zm-2.53,3.89A2.33,2.33,0,0,1,55,65.65c.62,0,1,.32,1,.77C56,67.3,55,67.58,52.83,67.56Z" transform="translate(-10.01 -26.68)"/><path d="M33.53,63.29A2.59,2.59,0,0,0,32.06,61a6,6,0,0,0-3.15-.66,16.94,16.94,0,0,0-3.34.3L23.23,73a17.81,17.81,0,0,0,3.21.23,8.56,8.56,0,0,0,4.8-1,3.53,3.53,0,0,0,1.74-3,2.75,2.75,0,0,0-2-2.78v-.06A3.17,3.17,0,0,0,33.53,63.29Zm-6.25,7.78a8.37,8.37,0,0,1-1,0l.68-3.61h.85c1.27,0,2.32.38,2.32,1.64C30.09,70.49,28.75,71.07,27.28,71.07Zm1-5.62h-.91l.57-3A6.32,6.32,0,0,1,29,62.41c1,0,1.77.4,1.77,1.3C30.75,64.8,29.73,65.45,28.24,65.45Z" transform="translate(-10.01 -26.68)"/><path d="M64.36,61.37l-2.79.76-.34,1.74H60L59.66,66h1.17l-.7,3.66a8.2,8.2,0,0,0-.21,1.72c0,1.17.77,2,2.42,2A5.62,5.62,0,0,0,64,73.12l.3-2.13a4.59,4.59,0,0,1-.74,0c-.6,0-.79-.32-.79-.77a7.21,7.21,0,0,1,.15-1.17L63.49,66h2l.42-2.08h-2Z" transform="translate(-10.01 -26.68)"/><polygon points="39.96 33.02 37.25 33.02 34.68 46.43 37.4 46.43 39.96 33.02"/></svg>