<svg xmlns="http://www.w3.org/2000/svg" viewBox="0 0 80 35.76"><defs><style>.cls-1,.cls-3{fill:#231f20;}.cls-1,.cls-2{fill-rule:evenodd;}.cls-2{fill:#fff;}</style></defs><title>Boleto</title><g id="Layer_2" data-name="Layer 2"><g id="Boleto"><polygon class="cls-1" points="5.5 0 9.31 0 9.31 35.68 5.5 35.68 5.5 0 5.5 0"/><polygon class="cls-1" points="10.51 0 11.69 0 11.69 35.68 10.51 35.68 10.51 0 10.51 0"/><polygon class="cls-1" points="12.72 0 14.84 0 14.84 35.68 12.72 35.68 12.72 0 12.72 0"/><polygon class="cls-1" points="16.88 0 18.05 0 18.05 35.68 16.88 35.68 16.88 0 16.88 0"/><polygon class="cls-1" points="18.57 0 19.48 0 19.48 35.68 18.57 35.68 18.57 0 18.57 0"/><polygon class="cls-1" points="2.6 0 3.79 0 3.79 35.68 2.6 35.68 2.6 0 2.6 0"/><polygon class="cls-1" points="0 0 2.11 0 2.11 35.68 0 35.68 0 0 0 0"/><polygon class="cls-1" points="25.79 0 29.6 0 29.6 35.68 25.79 35.68 25.79 0 25.79 0"/><polygon class="cls-1" points="30.8 0 31.98 0 31.98 35.68 30.8 35.68 30.8 0 30.8 0"/><polygon class="cls-1" points="33.01 0 35.13 0 35.13 35.68 33.01 35.68 33.01 0 33.01 0"/><polygon class="cls-1" points="37.16 0 38.34 0 38.34 35.68 37.16 35.68 37.16 0 37.16 0"/><polygon class="cls-1" points="38.86 0 39.77 0 39.77 35.68 38.86 35.68 38.86 0 38.86 0"/><polygon class="cls-1" points="22.89 0 24.07 0 24.07 35.68 22.89 35.68 22.89 0 22.89 0"/><polygon class="cls-1" points="20.29 0 22.4 0 22.4 35.68 20.29 35.68 20.29 0 20.29 0"/><polygon class="cls-1" points="41.26 0 43.38 0 43.38 35.68 41.26 35.68 41.26 0 41.26 0"/><polygon class="cls-1" points="45.42 0 46.6 0 46.6 35.68 45.42 35.68 45.42 0 45.42 0"/><polygon class="cls-1" points="47.11 0 48.02 0 48.02 35.68 47.11 35.68 47.11 0 47.11 0"/><polygon class="cls-1" points="51.43 0 52.61 0 52.61 35.68 51.43 35.68 51.43 0 51.43 0"/><polygon class="cls-1" points="48.83 0 50.94 0 50.94 35.68 48.83 35.68 48.83 0 48.83 0"/><polygon class="cls-1" points="54.18 0 55.37 0 55.37 35.68 54.18 35.68 54.18 0 54.18 0"/><polygon class="cls-1" points="55.88 0 56.79 0 56.79 35.68 55.88 35.68 55.88 0 55.88 0"/><polygon class="cls-1" points="60.2 0 61.38 0 61.38 35.68 60.2 35.68 60.2 0 60.2 0"/><polygon class="cls-1" points="57.6 0 59.71 0 59.71 35.68 57.6 35.68 57.6 0 57.6 0"/><polygon class="cls-1" points="62.41 0 66.22 0 66.22 35.68 62.41 35.68 62.41 0 62.41 0"/><polygon class="cls-1" points="67.42 0 68.6 0 68.6 35.68 67.42 35.68 67.42 0 67.42 0"/><polygon class="cls-1" points="69.63 0 71.75 0 71.75 35.68 69.63 35.68 69.63 0 69.63 0"/><polygon class="cls-1" points="73.78 0 74.97 0 74.97 35.68 73.78 35.68 73.78 0 73.78 0"/><polygon class="cls-1" points="75.48 0 76.39 0 76.39 35.68 75.48 35.68 75.48 0 75.48 0"/><polygon class="cls-1" points="77.89 0 80 0 80 35.68 77.89 35.68 77.89 0 77.89 0"/><polygon class="cls-2" points="4.31 35.76 77.35 35.76 77.35 15.76 4.31 15.76 4.31 35.76 4.31 35.76"/><path class="cls-3" d="M5.69,35V16.9h6.79a8.29,8.29,0,0,1,3.32.55,4.2,4.2,0,0,1,2,1.69,4.38,4.38,0,0,1,.71,2.39,4.17,4.17,0,0,1-.62,2.18A4.58,4.58,0,0,1,16,25.37,4.57,4.57,0,0,1,18.47,27a4.36,4.36,0,0,1,.89,2.73,5.25,5.25,0,0,1-.54,2.37,4.62,4.62,0,0,1-1.33,1.69,5.57,5.57,0,0,1-2,.89,12.14,12.14,0,0,1-2.92.3Zm2.4-10.48H12a9.16,9.16,0,0,0,2.28-.21,2.39,2.39,0,0,0,1.84-2.49,2.87,2.87,0,0,0-.43-1.59,2.15,2.15,0,0,0-1.23-.94A10.24,10.24,0,0,0,11.71,19H8.09v5.49Zm0,8.36h4.5a10.12,10.12,0,0,0,1.64-.09,3.93,3.93,0,0,0,1.38-.49,2.64,2.64,0,0,0,.91-1,3.14,3.14,0,0,0,.36-1.53A3,3,0,0,0,16.36,28a2.75,2.75,0,0,0-1.44-1.05,9,9,0,0,0-2.65-.3H8.09v6.24Z"/><path class="cls-3" d="M21.53,28.43c0-2.42.67-4.21,2-5.38a6.08,6.08,0,0,1,4.12-1.45,5.9,5.9,0,0,1,4.42,1.77,6.7,6.7,0,0,1,1.71,4.88,8.57,8.57,0,0,1-.76,4,5.27,5.27,0,0,1-2.21,2.25,6.45,6.45,0,0,1-3.16.8,5.9,5.9,0,0,1-4.45-1.76,7.05,7.05,0,0,1-1.7-5.08Zm2.27,0a5.55,5.55,0,0,0,1.1,3.76,3.69,3.69,0,0,0,5.54,0,5.72,5.72,0,0,0,1.1-3.83,5.33,5.33,0,0,0-1.11-3.67,3.52,3.52,0,0,0-2.75-1.26,3.56,3.56,0,0,0-2.78,1.25,5.54,5.54,0,0,0-1.1,3.75Z"/><polygon class="cls-3" points="36.37 34.99 36.37 16.9 38.59 16.9 38.59 34.99 36.37 34.99 36.37 34.99"/><path class="cls-3" d="M51,30.75l2.3.3a5.52,5.52,0,0,1-2,3.11,6,6,0,0,1-3.74,1.11A6,6,0,0,1,43,33.5a6.9,6.9,0,0,1-1.68-5A7.21,7.21,0,0,1,43,23.42a5.76,5.76,0,0,1,4.41-1.82,5.56,5.56,0,0,1,4.28,1.79,7.07,7.07,0,0,1,1.66,5c0,.13,0,.33,0,.59H43.57a5.11,5.11,0,0,0,1.22,3.31,3.65,3.65,0,0,0,2.74,1.14,3.36,3.36,0,0,0,2.08-.64A4.36,4.36,0,0,0,51,30.75ZM43.7,27.18H51a4.41,4.41,0,0,0-.84-2.48,3.39,3.39,0,0,0-2.74-1.28,3.52,3.52,0,0,0-2.57,1,4.11,4.11,0,0,0-1.15,2.74Z"/><path class="cls-3" d="M60.91,33l.3,2a8.29,8.29,0,0,1-1.67.2,3.87,3.87,0,0,1-1.87-.38,2.17,2.17,0,0,1-.94-1,8,8,0,0,1-.27-2.63V23.6H54.82V21.88h1.64V18.64l2.23-1.34v4.58h2.22V23.6H58.69v7.68a3.78,3.78,0,0,0,.12,1.22.93.93,0,0,0,.37.44,1.56,1.56,0,0,0,.76.16,6.8,6.8,0,0,0,1-.09Z"/><path class="cls-3" d="M62.27,28.43q0-3.63,2-5.38a6.08,6.08,0,0,1,4.12-1.45,5.9,5.9,0,0,1,4.42,1.77,6.7,6.7,0,0,1,1.71,4.88,8.57,8.57,0,0,1-.76,4,5.27,5.27,0,0,1-2.21,2.25,6.45,6.45,0,0,1-3.16.8A5.9,5.9,0,0,1,64,33.51a7.05,7.05,0,0,1-1.7-5.08Zm2.28,0a5.5,5.5,0,0,0,1.1,3.76,3.68,3.68,0,0,0,5.53,0,5.72,5.72,0,0,0,1.1-3.83,5.33,5.33,0,0,0-1.11-3.67,3.66,3.66,0,0,0-5.52,0,5.49,5.49,0,0,0-1.1,3.75Z"/></g></g></svg>