<svg xmlns="http://www.w3.org/2000/svg" viewBox="0 0 80 42.68"><defs><style>.cls-1{fill:#009366;fill-rule:evenodd;}</style></defs><title>BOS</title><g id="Layer_2" data-name="Layer 2"><g id="BOS"><path class="cls-1" d="M78.25,8.48a35.32,35.32,0,0,0-6.15-.69,13.31,13.31,0,0,0-6.71,1.39,6.5,6.5,0,0,0-3,4.55,6.52,6.52,0,0,0,1.18,3.5,13.38,13.38,0,0,0,2.07,2.45c.71.73,5.42,4.2,5.92,4.67,1.25,1.16,1.94,2.13,1.94,3.32a2.31,2.31,0,0,1-1.42,1.9,7.14,7.14,0,0,1-3.52.75,10.36,10.36,0,0,1-6.47-1.94h0l.79,5h0a27.87,27.87,0,0,0,7.44,1.21,15.1,15.1,0,0,0,5.2-.88,7.13,7.13,0,0,0,3.17-2.21A5.34,5.34,0,0,0,80,28.19a7.41,7.41,0,0,0-1.75-4.54,16.68,16.68,0,0,0-1.56-1.59c-.76-.55-4.09-3.13-4.88-3.63a13.83,13.83,0,0,1-2-1.62,4,4,0,0,1-1-2.4,2.37,2.37,0,0,1,1.26-2,8.8,8.8,0,0,1,3.45-.57,13.05,13.05,0,0,1,5.19.92h0l-.46-4.26Z"/><polygon class="cls-1" points="70.99 3.86 69.55 7.05 72.79 7.05 75.47 3.86 70.99 3.86 70.99 3.86 70.99 3.86"/><path class="cls-1" d="M33.69,35.25h1.49c1.19-1.71,3.28-3.36,5-5.07A9.28,9.28,0,0,0,44.36,34c.23-1.69,1.38-2.67,3.66-1.07,1.11-1.56,2.07-1.6,3.64-1.37a3.86,3.86,0,0,1-.5-3.7c-2.87-.78-3.93-2.58.5-3.83-.46-1.07,1.11-1.9,2.18-2.13-.15-.79.23-2.41,2.16-3.66a1.87,1.87,0,0,1-2.21-1.34c-1.11.65-2.59.75-2.68-2.68-2.63,3.19-5,1.43-2.46-1.9-1-.14-2-.79-1-2.26-2-.14-2.36-1.39-2.82-3.24A3,3,0,0,1,42.2,8.48c-.82,1.25-1.71,1.35-3.28,1,.92,2.72-1.2,5.91-2.78,2.3-1.24.56-2.12.88-3.37-.4-1,1.15-2.13.46-3.37.23.92,2.21.88,3.32-.29,4.43,1.53,1.48,1,2.59.05,3.37,3.51,2.28,1.9,4.12-1.85,5.1,2.18,1.11,3,1.76,3.75,3.64,1.85-1.28,2.92.06,3.38,2.05,2.68-2.83,5.86-1.44,3.24.6a15.93,15.93,0,0,0-4,4.47Z"/><path class="cls-1" d="M40.85,0h0a21.34,21.34,0,0,1,0,42.68h0V38.39h0a17.07,17.07,0,0,0,0-34.13h0V0ZM19.5,21.35A21.35,21.35,0,0,1,40.85,0h0V4.26h0a17.07,17.07,0,1,0,0,34.13h0v4.29h0A21.37,21.37,0,0,1,19.5,21.35Z"/><path class="cls-1" d="M9.47,8.13h1.47a7.63,7.63,0,0,1,4.12,1.1,5,5,0,0,1,2.15,2.21A6.75,6.75,0,0,1,18,14.51a7.38,7.38,0,0,1-.63,3.34,4.21,4.21,0,0,1-3.76,3.2c1.89-.1,4,1.65,4.62,3a7.49,7.49,0,0,1,.85,3.06,8.62,8.62,0,0,1-.39,3.35,5.28,5.28,0,0,1-1.5,2.13,8.59,8.59,0,0,1-2.61,1.56,10,10,0,0,1-3.68.49H9.47V31H10a4.79,4.79,0,0,0,3.18-1.17A4.41,4.41,0,0,0,14.07,27a3.82,3.82,0,0,0-.94-2.64A5,5,0,0,0,10,23.26H9.47v-4.1h.15a4.1,4.1,0,0,0,2.66-1.22,4.25,4.25,0,0,0,1-2.72,3.11,3.11,0,0,0-1-2.29,4.35,4.35,0,0,0-2.69-1H9.47V8.13ZM0,8.13H9.47V12H4.85v7.21H9.47v4.1H4.88V31H9.47v3.66H0V8.13Z"/></g></g></svg>