<?xml version="1.0" encoding="utf-8"?>
<!-- Generator: Adobe Illustrator 24.1.1, SVG Export Plug-In . SVG Version: 6.00 Build 0)  -->
<svg version="1.1" id="Layer_1" xmlns="http://www.w3.org/2000/svg" xmlns:xlink="http://www.w3.org/1999/xlink" x="0px" y="0px"
	 viewBox="0 0 100 100" style="enable-background:new 0 0 100 100;" xml:space="preserve">
<style type="text/css">
	.st0{clip-path:url(#SVGID_2_);fill:url(#SVGID_3_);}
	.st1{clip-path:url(#SVGID_5_);fill:url(#SVGID_6_);}
	.st2{fill:#59585A;}
</style>
<g>
	<g>
		<g>
			<defs>
				<path id="SVGID_1_" d="M54.53,32.12C49.29,43.56,37.06,55.27,27.2,58.25c-9.88,2.99-13.58-3.9-8.29-15.37l-5.22,1.58
					C5.6,61.97,11.25,72.5,26.33,67.93C41.37,63.36,60.04,45.48,68,28.05h0L54.53,32.12z"/>
			</defs>
			<clipPath id="SVGID_2_">
				<use xlink:href="#SVGID_1_"  style="overflow:visible;"/>
			</clipPath>
			
				<linearGradient id="SVGID_3_" gradientUnits="userSpaceOnUse" x1="-348.654" y1="661.7393" x2="-348.044" y2="661.7393" gradientTransform="matrix(90.5061 -63.373 -63.373 -90.5061 73504.6953 37863.1602)">
				<stop  offset="0" style="stop-color:#A31E22"/>
				<stop  offset="0.2733" style="stop-color:#BC1E25"/>
				<stop  offset="0.5564" style="stop-color:#D01F28"/>
				<stop  offset="0.75" style="stop-color:#D71F29"/>
				<stop  offset="1" style="stop-color:#D71F29"/>
			</linearGradient>
			<polygon class="st0" points="-15.28,42.68 47.47,-1.26 88.89,57.88 26.13,101.82 			"/>
		</g>
		<g>
			<defs>
				<path id="SVGID_4_" d="M21.27,42.16c-2.7,5.85-0.81,9.36,4.22,7.84c5.03-1.52,11.28-7.49,13.96-13.33L21.27,42.16z"/>
			</defs>
			<clipPath id="SVGID_5_">
				<use xlink:href="#SVGID_4_"  style="overflow:visible;"/>
			</clipPath>
			
				<linearGradient id="SVGID_6_" gradientUnits="userSpaceOnUse" x1="-356.2047" y1="660.0269" x2="-355.5947" y2="660.0269" gradientTransform="matrix(30.2718 -21.1965 -21.1965 -30.2718 24794.2637 12479.5859)">
				<stop  offset="0" style="stop-color:#A31E22"/>
				<stop  offset="0.2733" style="stop-color:#BC1E25"/>
				<stop  offset="0.5564" style="stop-color:#D01F28"/>
				<stop  offset="0.75" style="stop-color:#D71F29"/>
				<stop  offset="1" style="stop-color:#D71F29"/>
			</linearGradient>
			<polygon class="st1" points="11.6,41.56 32.58,26.87 46.43,46.64 25.44,61.33 			"/>
		</g>
	</g>
	<path class="st2" d="M62.53,68.91c-0.49,0-1.04-0.09-1.33-0.17v3.21h-2.33V61.4c0.69-0.3,1.98-0.56,3.37-0.56
		c2.97,0,4.59,1.51,4.59,4.04C66.83,67.29,65.35,68.91,62.53,68.91 M62.27,62.37c-0.42,0-0.87,0.07-1.07,0.16v4.72
		c0.18,0.08,0.68,0.15,1.09,0.15c1.45,0,2.2-1.04,2.2-2.52C64.49,63.29,63.7,62.37,62.27,62.37 M72.16,69C69.49,69,68,67.24,68,64.9
		c0-2.34,1.49-4.07,4.16-4.07c2.68,0,4.17,1.74,4.17,4.07C76.33,67.24,74.84,69,72.16,69 M72.16,62.38c-1.23,0-1.84,0.94-1.84,2.51
		c0,1.56,0.61,2.49,1.84,2.49c1.24,0,1.85-0.93,1.85-2.49C74.01,63.33,73.4,62.38,72.16,62.38 M80.19,69c-1.16,0-2.3-0.26-2.98-0.57
		l0.75-1.51c0.46,0.24,1.49,0.51,2.15,0.51c0.85,0,1.38-0.33,1.38-0.86c0-0.58-0.59-0.83-1.42-1.08c-1.16-0.36-2.63-0.83-2.63-2.36
		c0-1.38,1.23-2.3,3.38-2.3c1.19,0,2.14,0.24,2.84,0.56l-0.72,1.35c-0.38-0.21-1.21-0.45-1.83-0.45c-0.81,0-1.3,0.35-1.3,0.81
		c0,0.6,0.6,0.83,1.41,1.08c1.21,0.38,2.7,0.81,2.7,2.39C83.92,68.04,82.64,69,80.19,69 M88.61,68.94c-1.78,0-2.62-0.83-2.62-2.47
		v-3.99H84.8V61h1.18v-1.74l2.29-0.56V61H90v1.48h-1.73v3.86c0,0.64,0.47,0.86,1.06,0.86c0.24,0,0.5-0.06,0.66-0.12v1.64
		C89.72,68.84,89.16,68.94,88.61,68.94 M57.38,64.87c0,2.53-1.62,4.05-4.6,4.05c-1.39,0-2.68-0.26-3.36-0.57V57.81h2.32v3.21
		c0.29-0.09,0.84-0.17,1.32-0.17C55.89,60.84,57.38,62.47,57.38,64.87 M55.04,64.87c0-1.48-0.75-2.52-2.2-2.52
		c-0.41,0-0.9,0.07-1.09,0.14v4.73c0.2,0.09,0.65,0.16,1.07,0.16C54.26,67.39,55.04,66.46,55.04,64.87"/>
</g>
</svg>
