<svg id="Layer_1" data-name="Layer 1" xmlns="http://www.w3.org/2000/svg" viewBox="0 0 79.99 66.72"><defs><style>.cls-1{fill:#cc2031;}</style></defs><title>Bradesco_brazil</title><g id="PROPORÃ__x2DC_AO_E_REGRAS" data-name="PROPORÃ‡_x2DC_AO_E_REGRAS"><g id="svg_1" data-name="svg 1"><path id="svg_2" data-name="svg 2" class="cls-1" d="M33.07,71.7a12.12,12.12,0,0,0-3.2.36,5.14,5.14,0,0,0,0,2.34,10.41,10.41,0,0,1,2.71-.31c1.52,0,2.27.62,2.27,1.88v.11c-.46,0-1-.09-1.39-.09-2.53,0-4.7.9-4.7,3.33,0,2.74,2,3.67,4.79,3.67a14.73,14.73,0,0,0,4.12-.64V76.18c0-3-1.58-4.42-4.6-4.48Zm1.79,8.86a8,8,0,0,1-1.26.11c-1.36,0-2.1-.4-2.1-1.36S32.23,78,33.6,78c.46,0,1,0,1.26.07v2.52Z" transform="translate(-10.1 -16.29)"/><path id="svg_3" data-name="svg 3" class="cls-1" d="M27.61,71.83a3.44,3.44,0,0,0-3,1.52,8.2,8.2,0,0,0-.33-1.41,4.84,4.84,0,0,0-1.21-.11,6.52,6.52,0,0,0-1.19.11v10.8a7.14,7.14,0,0,0,1.48.11,9.86,9.86,0,0,0,1.48-.11V77.47c0-2.1,1.1-3.22,2.58-3.22a6.31,6.31,0,0,1,1,0,6.16,6.16,0,0,0,.05-2.38A6.93,6.93,0,0,0,27.61,71.83Z" transform="translate(-10.1 -16.29)"/><path id="svg_4" data-name="svg 4" class="cls-1" d="M15.26,71.74a5.08,5.08,0,0,0-2.21.46V66.91a8.28,8.28,0,0,0-2.45,1.34,1.23,1.23,0,0,0-.5,1.08V82.39A12,12,0,0,0,14,83c3.86,0,6.08-2.36,6.08-5.77S18.5,71.74,15.26,71.74Zm-1.09,8.84a3.94,3.94,0,0,1-1.12-.11V74.54a3.62,3.62,0,0,1,1.72-.33c1.48,0,2.27,1,2.27,3S16.1,80.58,14.17,80.58Z" transform="translate(-10.1 -16.29)"/><path id="svg_5" data-name="svg 5" class="cls-1" d="M46.29,69.31v2.6a6.13,6.13,0,0,0-1.55-.17c-3.26,0-5.49,2.19-5.49,5.69S41.41,83,44.8,83a14.52,14.52,0,0,0,4.43-.66V66.91a8.28,8.28,0,0,0-2.45,1.34A1.21,1.21,0,0,0,46.29,69.31Zm0,11.1a4.3,4.3,0,0,1-1.26.17c-2,0-2.71-1.28-2.71-3.15,0-2.07.77-3.33,2.69-3.33a4.3,4.3,0,0,1,1.28.17v6.14Z" transform="translate(-10.1 -16.29)"/><path id="svg_6" data-name="svg 6" class="cls-1" d="M67.43,76.35l-1.19-.5c-.69-.29-1.1-.53-1.1-1,0-.69.62-.84,1.43-.84a8.44,8.44,0,0,1,2.78.46,5.86,5.86,0,0,0,0-2.21,7.87,7.87,0,0,0-3.22-.57c-2.29,0-4,1.24-4,3.09,0,1.67.71,2.5,2.71,3.31l.93.38c.88.36,1.15.57,1.15,1.15,0,.86-.86,1-1.57,1A9.12,9.12,0,0,1,62.08,80a4.75,4.75,0,0,0,0,2.31A8,8,0,0,0,65.8,83c2.27,0,4.08-1.19,4.08-3.33,0-1.79-.76-2.62-2.45-3.33Z" transform="translate(-10.1 -16.29)"/><path id="svg_7" data-name="svg 7" class="cls-1" d="M76.63,80.56c-1.48,0-2.45-1.17-2.45-3.22s.79-3.22,2.47-3.22a4.55,4.55,0,0,1,1.88.38,6.33,6.33,0,0,1,1-2.07,6.57,6.57,0,0,0-3.31-.73c-3.26,0-5.14,2.31-5.14,5.65S73.07,83,76.4,83a6.82,6.82,0,0,0,3.24-.71,7,7,0,0,1-1.12-2.07A4.31,4.31,0,0,1,76.63,80.56Z" transform="translate(-10.1 -16.29)"/><path id="svg_8" data-name="svg 8" class="cls-1" d="M84.89,71.7c-3.31,0-5.17,2.27-5.17,5.67s2,5.62,5.17,5.62,5.2-2.21,5.2-5.62S88.23,71.7,84.89,71.7Zm0,8.91c-1.65,0-2.14-1.34-2.14-3.24s.5-3.29,2.14-3.29,2.16,1.39,2.16,3.29S86.52,80.61,84.89,80.61Z" transform="translate(-10.1 -16.29)"/><path id="svg_9" data-name="svg 9" class="cls-1" d="M56.06,71.7c-3.2,0-5.14,2.14-5.14,5.72S53,83,56.54,83a8.47,8.47,0,0,0,3.36-.62,5.2,5.2,0,0,0,0-2.29,10.91,10.91,0,0,1-3,.5c-1.65,0-2.78-.62-3-2.36h6.72a7.83,7.83,0,0,0,.11-1.5c0-3.22-1.81-5-4.6-5Zm-2.24,4.36A2.2,2.2,0,0,1,56,74c1.34,0,1.86.9,1.9,2.1Z" transform="translate(-10.1 -16.29)"/><path id="svg_10" data-name="svg 10" class="cls-1" d="M48.84,25.71a51.93,51.93,0,0,0-8.52.74A16.18,16.18,0,0,1,53.1,20.24a16.44,16.44,0,0,1,10.24,3.6c.47.39.82.42,1.18.07s.32-.71-.07-1.17A18.06,18.06,0,0,0,33.73,28a32.29,32.29,0,0,0-6.16,2.58c-.5.29-.68.63-.5,1a.79.79,0,0,0,1,.39c1.58-.46,3.18-.85,4.87-1.2a13.71,13.71,0,0,0-.29,2.75,17.75,17.75,0,0,0,8.23,15.22c.5.32.93.32,1.21-.07s.25-.74-.18-1.12a15.55,15.55,0,0,1-5-11.45A15.28,15.28,0,0,1,38.18,30c1.68-.14,3.5-.25,5.52-.25,13,0,24,4.29,24,9.94,0,2.85-3.62,5.7-7.91,7.62-1,.46-1.15.78-1,1.24s.61.56,1.15.39c7.52-2.46,13.22-6.52,13.22-11.42,0-6.68-10.73-11.82-24.34-11.82Z" transform="translate(-10.1 -16.29)"/><path id="svg_11" data-name="svg 11" class="cls-1" d="M55.06,59.59V45.32a.6.6,0,0,0-1-.49l-3.63,2.08V60.28h3.89A.69.69,0,0,0,55.06,59.59Z" transform="translate(-10.1 -16.29)"/><path id="svg_12" data-name="svg 12" class="cls-1" d="M46.06,50v9.87a.44.44,0,0,0,.45.45h2.75V47.61l-2.75,1.58A.84.84,0,0,0,46.06,50Z" transform="translate(-10.1 -16.29)"/></g></g></svg>