<svg xmlns="http://www.w3.org/2000/svg" viewBox="0 0 80 63.32"><defs><style>.cls-1{fill:#58595b;}.cls-2{fill:#e3173e;}.cls-3{fill:#fff;}</style></defs><title>Bradesco</title><g id="Layer_2" data-name="Layer 2"><g id="Bradesco"><path class="cls-1" d="M68.05,60.37c0-.11-.06-.19-.08-.18s-.1.05-.15.06a3.1,3.1,0,0,1-1.48.36,2.54,2.54,0,0,1-2.52-2.69c0-1.81,1-2.79,2.33-2.79a2.94,2.94,0,0,1,1.76.52A7.11,7.11,0,0,1,69,53.39a7.45,7.45,0,0,0-1-.56h0a5.32,5.32,0,0,0-2.23-.46c-3,0-5.23,2-5.23,5.48s2.26,5.46,5.23,5.46a7.33,7.33,0,0,0,2.54-.46l.79-.36a8.26,8.26,0,0,1-1.12-2.13"/><path class="cls-1" d="M0,49.06H5.83c2.24,0,3.92,1.15,3.92,3.56a3.13,3.13,0,0,1-2.13,3.27v0A2.87,2.87,0,0,1,10.06,59c0,3.36-2.54,4.06-4.7,4.06H0v-14ZM3.21,60.43H4.45c1.17,0,2.4-.2,2.4-1.63s-1.26-1.66-2.37-1.66H3.21v3.29Zm0-5.82H4.39c1.06,0,2.15-.31,2.15-1.49s-1-1.4-2.11-1.4H3.21v2.89Z"/><path class="cls-1" d="M39.56,63.08H36.7V61.51h0a3.38,3.38,0,0,1-3.09,1.81c-2.67,0-4.11-2.57-4.11-5.66,0-2.57,1.37-5.28,3.86-5.28A3.4,3.4,0,0,1,36.41,54h0V49h3.12v14Zm-5-2.53c1,0,1.9-1.15,1.9-2.67s-.76-2.73-1.9-2.73-1.88,1.2-1.88,2.59c0,1.66.7,2.81,1.88,2.81"/><path class="cls-1" d="M69.53,57.86c0-3.47,2.27-5.48,5.24-5.48s5.23,2,5.23,5.48-2.26,5.46-5.23,5.46-5.24-2-5.24-5.46m7.26,0c0-1.57-.59-3-2-3s-2,1.38-2,3,.58,2.93,2,2.93,2-1.39,2-2.93"/><path class="cls-1" d="M28,63.08a14.73,14.73,0,0,1-.17-2.47v-3.9c0-3.19-2-4.33-4.28-4.33A8.1,8.1,0,0,0,20,53.1v2.47a5.19,5.19,0,0,1,2.87-.78c1.12,0,2,.38,2.05,1.8a7.93,7.93,0,0,0-1.45-.14c-1.66,0-4.65.38-4.65,3.58a3.11,3.11,0,0,0,3.37,3.29A3,3,0,0,0,25,61.7v1.38ZM25,59.76A2.11,2.11,0,0,1,23,60.84a1.15,1.15,0,0,1-1.28-1.14c0-1,.83-1.39,1.89-1.39.46,0,.93,0,1.33.06v1.39Z"/><path class="cls-1" d="M17.34,52.38c-1.35,0-2.13.84-2.66,2.16h0V52.62H11.81V63.08h3.11V58.66c0-2,.8-3.28,2.25-3.38a3,3,0,0,1,1.07.17V52.54a2.8,2.8,0,0,0-.9-.16"/><path class="cls-1" d="M50.53,58.24c0-3.11-1.21-5.86-4.54-5.86-2.8,0-4.82,2-4.82,5.46s2.26,5.48,5.23,5.48a7.91,7.91,0,0,0,3.3-.66V60.11a5.19,5.19,0,0,1-2.74.8c-1.52,0-2.47-.56-2.65-2h6.22v-.66Zm-6.25-1.39c.07-1.2.6-2.18,1.73-2.18s1.72,1,1.72,2.18Z"/><path class="cls-1" d="M55.75,52.38c-1.79,0-3.83,1-3.83,3.39,0,3.78,4.42,2.53,4.42,4.3,0,.72-.62.84-1.26.84a6.85,6.85,0,0,1-2.92-.72v2.49a7.86,7.86,0,0,0,3.09.64c2,0,4.2-.7,4.2-3.49,0-4-4.63-2.69-4.63-4.32,0-.58.76-.74,1.44-.72a5,5,0,0,1,2.48.78V53a7.63,7.63,0,0,0-3-.62"/><path class="cls-2" d="M60.78,42.06H27.93s-9.21,0-9.21-9.21V0H51.57s9.21,0,9.21,9.21V42.06Z"/><polygon class="cls-3" points="37.85 36.15 35.78 36.15 35.78 25.54 37.85 25.54 37.85 36.15 37.85 36.15"/><polygon class="cls-3" points="43.13 36.15 39.73 36.15 39.73 21.58 43.13 21.58 43.13 36.15 43.13 36.15"/><path class="cls-3" d="M33.92,11.44A10.69,10.69,0,0,1,43.11,9.2a9.74,9.74,0,0,1,4.47,2.12s.29.27.52,0c0,0,.28-.22,0-.56a10.3,10.3,0,0,0-5-3.34A13.08,13.08,0,0,0,33.91,8a9.64,9.64,0,0,0-4.46,4.42,26.57,26.57,0,0,0-4,1.69s-.5.2-.31.59c0,0,.16.28.6.07,0,0,1.58-.54,3.1-.88A11.7,11.7,0,0,0,32.12,26a.45.45,0,0,0,.54.09.35.35,0,0,0,.07-.47A13.5,13.5,0,0,1,31,21a11.07,11.07,0,0,1,1.31-7.67,25.28,25.28,0,0,1,10.8,1.06s8.45,2.75,6.32,7.86a7.74,7.74,0,0,1-2.95,3.38s-.39.23-.18.56a.47.47,0,0,0,.58.09s3.57-1.16,5.11-4c0,0,3.12-4.78-4.24-8.68a19.88,19.88,0,0,0-4.64-1.66,26.82,26.82,0,0,0-9.17-.49"/></g></g></svg>