<svg xmlns="http://www.w3.org/2000/svg" viewBox="0 0 80 80"><defs><style>.cls-1{fill:#258748;}.cls-2{fill:#329b47;}.cls-3{fill:#63b64d;}.cls-4{fill:#8bc755;}.cls-5{fill:#3db8ad;}.cls-6{fill:#3b94d1;}.cls-7{fill:#2d72ba;}.cls-8{fill:#1f5d85;}.cls-9{fill:#9a3334;}.cls-10{fill:#e13230;}.cls-11{fill:#f18823;}.cls-12{fill:#f5c936;}.cls-13{fill:#fff;fill-rule:evenodd;}</style></defs><title>bunq</title><g id="Layer_2" data-name="Layer 2"><g id="bunq"><rect class="cls-1" width="13.33" height="80"/><rect class="cls-2" x="6.67" width="13.33" height="80"/><rect class="cls-3" x="13.33" width="13.33" height="80"/><rect class="cls-4" x="20" width="13.33" height="80"/><rect class="cls-5" x="26.67" width="13.33" height="80"/><rect class="cls-6" x="33.33" width="13.33" height="80"/><rect class="cls-7" x="40" width="13.33" height="80"/><rect class="cls-8" x="46.67" width="13.33" height="80"/><rect class="cls-9" x="53.33" width="13.33" height="80"/><rect class="cls-10" x="60" width="13.33" height="80"/><rect class="cls-11" x="66.67" width="13.33" height="80"/><rect class="cls-12" x="73.33" width="6.67" height="80"/><path class="cls-13" d="M36,33.67h2.67v7a6,6,0,0,1-12,0v-7h2.66v7a3.51,3.51,0,0,0,3.34,3.66A3.51,3.51,0,0,0,36,40.67Z"/><path class="cls-13" d="M50.68,46.33h2.67v-7a6,6,0,0,0-12,0v7H44v-7a3.35,3.35,0,1,1,6.67,0Z"/><path class="cls-13" d="M13,46.33H10.67v-6h0V28h2.66v6.67a6.67,6.67,0,1,1-.2,10.5Zm4.17-10.66A4.33,4.33,0,1,1,13,40a4.25,4.25,0,0,1,4.17-4.33Z"/><path class="cls-13" d="M67,33.67h2.33v6h0c0,.11,0,.22,0,.33V52H66.67V45.33a6.67,6.67,0,1,1,.2-10.5ZM62.83,44.33A4.33,4.33,0,1,1,67,40a4.25,4.25,0,0,1-4.17,4.33Z"/></g></g></svg>