<svg id="Layer_1" data-name="Layer 1" xmlns="http://www.w3.org/2000/svg" viewBox="0 0 79.9 24.6"><defs><style>.cls-1{fill:#0270b8;}.cls-1,.cls-2{fill-rule:evenodd;}.cls-2{fill:#f5822b;}</style></defs><title>caixa-economica-federal</title><path class="cls-1" d="M23.5,44.8A7.89,7.89,0,0,0,22,43.6a3.29,3.29,0,0,0-1.7-.4,3.66,3.66,0,0,0-2.5.9,4.06,4.06,0,0,0-1.3,2.4,2.76,2.76,0,0,0,.5,2.3,2.58,2.58,0,0,0,2.1.9,3.92,3.92,0,0,0,1.8-.4A7.8,7.8,0,0,0,23,48.1l-1,6.3a8.93,8.93,0,0,1-2,.6,13.55,13.55,0,0,1-2,.2,8.52,8.52,0,0,1-2.3-.3,5.45,5.45,0,0,1-1.9-.8A6.64,6.64,0,0,1,11,50.9a8.31,8.31,0,0,1-.4-4.5,11.18,11.18,0,0,1,1.2-3.5,8.86,8.86,0,0,1,2.3-2.8,12.3,12.3,0,0,1,3.1-1.9,11.33,11.33,0,0,1,3.6-.6,13.55,13.55,0,0,1,2,.2,6.36,6.36,0,0,1,1.8.6l-1.1,6.4Zm8.3,3.9h2.5L34,46.9c-.1-1-.2-1.7-.2-2.2a6.15,6.15,0,0,1,.1-1.4h-.1a10.26,10.26,0,0,1-.4,1.4c-.2.5-.5,1.3-.9,2.2l-.7,1.8Zm-8.9,6.1,8.5-16.6h6.7l3.2,16.6H34.9l-.2-2.1H30.2l-.8,2.1Zm19.9,0,2.6-16.6h6.1L49,54.8Z" transform="translate(-10.1 -37.6)"/><path class="cls-1" d="M79.7,48.7h2.5L82,46.8c-.1-1-.2-1.7-.2-2.2a6.15,6.15,0,0,1,.1-1.4h-.1a10.26,10.26,0,0,1-.4,1.4c-.2.5-.5,1.3-.9,2.2l-.8,1.9Zm-8.9,6.1,8.5-16.6H86l3.2,16.6H82.8l-.2-2.1H78.1l-.8,2.1Z" transform="translate(-10.1 -37.6)"/><path class="cls-1" d="M13.8,58.7a1.79,1.79,0,0,0-.7-.5,1.88,1.88,0,0,0-.8-.2,1.7,1.7,0,0,0-.7.1,1.84,1.84,0,0,0-1,1,1.7,1.7,0,0,0-.1.7,1.27,1.27,0,0,0,.1.6c.1.2.1.3.2.5a4.35,4.35,0,0,0,.7.6,2.35,2.35,0,0,0,.8.2,2.35,2.35,0,0,0,.8-.2,3,3,0,0,0,.7-.5v.7a2.51,2.51,0,0,1-.7.4,2.2,2.2,0,0,1-.8.1,1.7,1.7,0,0,1-.7-.1l-.6-.3a1.78,1.78,0,0,1-.7-.8,2,2,0,0,1-.2-1.1,2.39,2.39,0,0,1,.2-.9,3.51,3.51,0,0,1,.5-.8,3,3,0,0,1,.7-.5,2.92,2.92,0,0,1,.9-.2,1.7,1.7,0,0,1,.7.1,2.51,2.51,0,0,1,.7.4v.7Zm2.4-.1-.7,1.6h1.4l-.7-1.6Zm0-1.2,2,4.6h-.6L17,60.7H15.3L14.8,62h-.6l2-4.6ZM18.8,62V57.6h.5V62Zm1.1,0,1.4-2.4-1.3-2h.6l.9,1.7.9-1.7H23l-1.2,2.1L23.2,62h-.6l-1.1-1.9-1,1.9Zm5.3-3.4-.7,1.6H26l-.8-1.6Zm0-1.2,2,4.6h-.6L26,60.6H24.3L23.8,62h-.6l2-4.6Z" transform="translate(-10.1 -37.6)"/><path class="cls-1" d="M29.5,62V57.6h2.3v.5H30v1.3h1.8v.5H30v1.7h1.8V62ZM36,58.7a1.79,1.79,0,0,0-.7-.5,1.88,1.88,0,0,0-.8-.2,1.7,1.7,0,0,0-.7.1,1.84,1.84,0,0,0-1,1,1.7,1.7,0,0,0-.1.7,1.27,1.27,0,0,0,.1.6c.1.2.1.3.2.5l.6.6a3.09,3.09,0,0,0,.8.2,1.88,1.88,0,0,0,.8-.2,3,3,0,0,0,.7-.5v.7a2.51,2.51,0,0,1-.7.4,2,2,0,0,1-.8.1,1.7,1.7,0,0,1-.7-.1l-.6-.3a1.78,1.78,0,0,1-.7-.8,2,2,0,0,1-.2-1.1,2.39,2.39,0,0,1,.2-.9,3.51,3.51,0,0,1,.5-.8,2.18,2.18,0,0,1,.8-.5,2.92,2.92,0,0,1,.9-.2,1.48,1.48,0,0,1,.7.1,2.51,2.51,0,0,1,.7.4v.7Zm2.8,3c.2,0,.5-.1.7-.1a1.84,1.84,0,0,0,1-1,2.5,2.5,0,0,0,0-1.4,1.84,1.84,0,0,0-1-1,1,1,0,0,0-.7-.2,1.7,1.7,0,0,0-.7.1,1.84,1.84,0,0,0-1,1,2,2,0,0,0-.1.7c0,.2.1.5.1.7a1.84,1.84,0,0,0,1,1,1.45,1.45,0,0,0,.7.2Zm2.4-1.9a2.92,2.92,0,0,1-.2.9,1.79,1.79,0,0,1-.5.7,2.18,2.18,0,0,1-.8.5,2.13,2.13,0,0,1-1.8,0,2.18,2.18,0,0,1-.8-.5,3,3,0,0,1-.5-.7,2.12,2.12,0,0,1,0-1.8,1.79,1.79,0,0,1,.5-.7,2.18,2.18,0,0,1,.8-.5,2.12,2.12,0,0,1,1.8,0,3.51,3.51,0,0,1,.8.5,3,3,0,0,1,.5.7,2.92,2.92,0,0,1,.2.9Zm.5,2.2V57.4L45,61V57.6h.5v4.6l-3.2-3.5V62Zm6.7-.3c.2,0,.5-.1.7-.1a1.84,1.84,0,0,0,1-1,1.7,1.7,0,0,0,.1-.7c0-.2-.1-.5-.1-.7a1.84,1.84,0,0,0-1-1,.84.84,0,0,0-.7-.2,1.7,1.7,0,0,0-.7.1,1.84,1.84,0,0,0-1,1,2.5,2.5,0,0,0,0,1.4,1.84,1.84,0,0,0,1,1,2.54,2.54,0,0,0,.7.2Zm2.4-1.9a2.92,2.92,0,0,1-.2.9,1.79,1.79,0,0,1-.5.7,2.18,2.18,0,0,1-.8.5,2.13,2.13,0,0,1-1.8,0,3.51,3.51,0,0,1-.8-.5,3,3,0,0,1-.5-.7,2.12,2.12,0,0,1,0-1.8,1.79,1.79,0,0,1,.5-.7,2.18,2.18,0,0,1,.8-.5,2.12,2.12,0,0,1,1.8,0,3.51,3.51,0,0,1,.8.5,3,3,0,0,1,.5.7,2.92,2.92,0,0,1,.2.9Zm-3.3-2.6.6-1h.6l.6,1h-.4l-.5-.7-.5.7Zm5.9,5L52.1,59l-.5,3H51l.9-4.6,1.5,3.7,1.5-3.7.9,4.6h-.5l-.6-3-1.3,3.2Zm2.9-.2V57.6h.5V62Zm4.9-3.3a1.79,1.79,0,0,0-.7-.5,1.88,1.88,0,0,0-.8-.2,1.7,1.7,0,0,0-.7.1,1.84,1.84,0,0,0-1,1v.7a1.27,1.27,0,0,0,.1.6c.1.2.1.3.2.5a4.35,4.35,0,0,0,.7.6,1.7,1.7,0,0,0,1.6,0,3,3,0,0,0,.7-.5v.7a2.51,2.51,0,0,1-.7.4,2,2,0,0,1-.8.1,1.7,1.7,0,0,1-.7-.1l-.6-.3a1.78,1.78,0,0,1-.7-.8,2,2,0,0,1-.3-1.1,2.39,2.39,0,0,1,.2-.9,3.51,3.51,0,0,1,.5-.8,3,3,0,0,1,.7-.5,2.92,2.92,0,0,1,.9-.2,1.7,1.7,0,0,1,.7.1,2.51,2.51,0,0,1,.7.4v.7Zm2-.1-.7,1.6h1.4l-.7-1.6Zm0-1.2,2,4.6h-.6L64,60.6H62.3L61.8,62h-.6l2-4.6Z" transform="translate(-10.1 -37.6)"/><path class="cls-1" d="M67.4,62V57.6h2.3v.5H67.9v1.3h1.8v.5H67.9V62Zm3,0V57.6h2.3v.5H70.9v1.3h1.8v.5H70.9v1.7h1.8V62Zm3.6-.5h.3a2.81,2.81,0,0,0,1.1-.1.76.76,0,0,0,.5-.2,1.27,1.27,0,0,0,.4-.6,2,2,0,0,0,.1-.8c0-.3-.1-.6-.1-.8a2.09,2.09,0,0,0-.4-.6.76.76,0,0,0-.5-.2,3.11,3.11,0,0,0-1.1-.1H74v3.4Zm-.5.5V57.6h.9a4.15,4.15,0,0,1,1.3.1,4.88,4.88,0,0,1,.7.3,4.35,4.35,0,0,1,.6.7,3.55,3.55,0,0,1,.2,1,3,3,0,0,1-.2,1,1.06,1.06,0,0,1-.6.7,4.88,4.88,0,0,1-.7.3,1.56,1.56,0,0,1-1.2.3h-1Zm4.3,0V57.6h2.3v.5H78.3v1.3h1.8v.5H78.3v1.7h1.8V62Zm3.1,0V57.6h1c.3,0,.5,0,.6.1a.76.76,0,0,1,.4.2,1.38,1.38,0,0,1,.3.4,1.27,1.27,0,0,1,.1.6,1,1,0,0,1-.3.8,1.22,1.22,0,0,1-.9.3H82l1.7,2.1H83L81.4,60h-.1v2Zm.5-3.9v1.5h.4a1.29,1.29,0,0,0,.8-.2.76.76,0,0,0,.2-.5.85.85,0,0,0-.2-.6,1.29,1.29,0,0,0-.8-.2Zm4.1.5-.7,1.6h1.4l-.7-1.6Zm0-1.2,2,4.6h-.6l-.6-1.4H84.6L84,62h-.6l2.1-4.6ZM87.8,62V57.6h.5v3.9H90V62Z" transform="translate(-10.1 -37.6)"/><polygon class="cls-1" points="59.4 17.4 52 17.4 47.7 9.3 55.2 9.3 59.4 17.4"/><polygon class="cls-2" points="63.4 0.4 56 0.4 48.4 8.5 55.8 8.5 63.4 0.4"/><polygon class="cls-1" points="44 0.4 51.5 0.4 55.7 8.5 48.3 8.5 44 0.4"/><polygon class="cls-2" points="40 17.4 47.4 17.4 55.1 9.3 47.7 9.3 40 17.4"/></svg>