<svg id="Layer_1" data-name="Layer 1" xmlns="http://www.w3.org/2000/svg" xmlns:xlink="http://www.w3.org/1999/xlink" viewBox="0 0 79.77 36.38"><defs><style>.cls-1{fill:none;}.cls-2{clip-path:url(#clip-path);}.cls-3{fill:#29367d;}.cls-3,.cls-4{fill-rule:evenodd;}.cls-4{fill:#ee7d22;}</style><clipPath id="clip-path" transform="translate(-10.03 -31.72)"><rect class="cls-1" x="10" y="31.7" width="80" height="36.6"/></clipPath></defs><title>caixa-lotericas</title><g class="cls-2"><path class="cls-3" d="M18.4,40.1h4.4c1.2,0,1.8,0,2.6.9,1.7,1.8.5,4.5-2.6,3.8.7,3-2.6,4.1-4,2a4.34,4.34,0,0,1-.5-2.5Z" transform="translate(-10.03 -31.72)"/></g><g class="cls-2"><path class="cls-4" d="M17.8,40.1H13.4c-1.2,0-1.8,0-2.6.9-1.7,1.8-.5,4.5,2.6,3.8-.7,3,2.6,4.1,4,2a4.34,4.34,0,0,0,.5-2.5Z" transform="translate(-10.03 -31.72)"/></g><g class="cls-2"><path class="cls-3" d="M17.8,39.5H13.4c-1.2,0-1.8,0-2.6-.9-1.7-1.8-.5-4.5,2.6-3.8-.7-3,2.6-4.1,4-2a4.34,4.34,0,0,1,.5,2.5Z" transform="translate(-10.03 -31.72)"/></g><g class="cls-2"><path class="cls-4" d="M18.4,39.5h4.4c1.2,0,1.8,0,2.6-.9,1.7-1.8.5-4.5-2.6-3.8.7-3-2.6-4.1-4-2a4.34,4.34,0,0,0-.5,2.5Z" transform="translate(-10.03 -31.72)"/></g><path class="cls-4" d="M59.9,58.7h7.3l6.3-7.9H66.2Z" transform="translate(-10.03 -31.72)"/><path class="cls-4" d="M52.7,67.9H60l6.3-8H59Z" transform="translate(-10.03 -31.72)"/><path class="cls-3" d="M35.1,56.3l-2,5.1h2.8l-.8-5.1ZM24.3,68l8.4-17.2H39L42.5,68H37l-.4-2.3H31.2L29.9,68Zm20.9,0,2.4-17.2h5.6L50.8,68ZM82.4,56.3l-2.1,5.1h2.8ZM71.6,68,80,50.7h6.3L89.8,68H84.2l-.4-2.3H78.4L77.2,68Z" transform="translate(-10.03 -31.72)"/><path class="cls-3" d="M59.2,59.9h7l4.8,8H64Z" transform="translate(-10.03 -31.72)"/><path class="cls-3" d="M55.3,50.6h6.8l4.6,8H59.9Z" transform="translate(-10.03 -31.72)"/><path class="cls-3" d="M24.5,51.3,24,56.4c-2.1-2.8-6.8-.9-7.2,2.7-.5,4.5,4.1,5.6,6.6,2.9l-.6,5a6.52,6.52,0,0,1-2.2.8,7.8,7.8,0,0,1-2.2.3,8.75,8.75,0,0,1-2.4-.3,5.38,5.38,0,0,1-2-1,7.19,7.19,0,0,1-2.5-3.2,8.94,8.94,0,0,1-.5-4.4,10.68,10.68,0,0,1,1-3.6,8.64,8.64,0,0,1,2.1-2.9,9.92,9.92,0,0,1,2.8-1.9,8.84,8.84,0,0,1,3.3-.7,14.92,14.92,0,0,1,2.1.2c.8.4,1.5.7,2.2,1Z" transform="translate(-10.03 -31.72)"/><path class="cls-3" d="M27.1,46.4,29.2,35h4.2L32,42.9h3.5l-.7,3.5ZM40,41.3a.91.91,0,0,0-.8.4,1.61,1.61,0,0,0-.3.9.85.85,0,0,0,.2.6.73.73,0,0,0,.6.2.91.91,0,0,0,.8-.4,1.4,1.4,0,0,0,.3-.9.71.71,0,0,0-.8-.8Zm-4.7,1.6a4.84,4.84,0,0,1,.3-1.8,4,4,0,0,1,1-1.5,5.72,5.72,0,0,1,1.6-1.1,4.48,4.48,0,0,1,2-.4,4,4,0,0,1,3,1,3.76,3.76,0,0,1,1.1,2.8,4.53,4.53,0,0,1-.3,1.6,6.38,6.38,0,0,1-.8,1.4,4.31,4.31,0,0,1-1.7,1.3,5.45,5.45,0,0,1-2.2.5,4,4,0,0,1-2.9-1.1,3.69,3.69,0,0,1-1.1-2.7Zm9.5,3.5,1-5.1h-1l.5-2.9h1l.4-2.2h3.8l-.4,2.2h1.2l-.6,2.9H49.5l-1,5.1Zm9.6-5.1h1.9v-.1a1.07,1.07,0,0,0-.2-.6.85.85,0,0,0-.6-.2,1.45,1.45,0,0,0-.7.2,4.35,4.35,0,0,0-.4.7Zm5.2,1.5H54.2a1.22,1.22,0,0,0,.3.9.91.91,0,0,0,.7.3,1.42,1.42,0,0,0,.6-.2,1.7,1.7,0,0,0,.6-.6l2.9.6a5.06,5.06,0,0,1-1.8,2,5.28,5.28,0,0,1-2.6.7,4,4,0,0,1-2.9-1,3.34,3.34,0,0,1-1.1-2.7,5.23,5.23,0,0,1,.3-1.8,3.07,3.07,0,0,1,1-1.5,5.72,5.72,0,0,1,1.6-1.1,4.48,4.48,0,0,1,2-.4,4,4,0,0,1,2.9,1,3.14,3.14,0,0,1,1.1,2.6v.6a.73.73,0,0,0-.2.6Zm-.2,3.6,1.5-8h3.5l-.3,1.1a2.4,2.4,0,0,1,1-1,2.77,2.77,0,0,1,1.3-.3h.4c.2,0,.3.1.5.1l-.6,3.3a2.54,2.54,0,0,0-.7-.2c-.2,0-.4-.1-.6-.1a1.49,1.49,0,0,0-1,.3,2.25,2.25,0,0,0-.5,1.2l-.7,3.6ZM70,38a2.17,2.17,0,0,1-1.4-.5,1.61,1.61,0,0,1-.6-1.3,1.75,1.75,0,0,1,.7-1.4,2.45,2.45,0,0,1,1.6-.6,2,2,0,0,1,1.4.5,1.73,1.73,0,0,1-.1,2.7A2.11,2.11,0,0,1,70,38Zm-3.6,8.4,1.5-8h3.8l-1.5,8Zm10.2-5a.91.91,0,0,0-.8.4,1.22,1.22,0,0,0-.3.9,1.45,1.45,0,0,0,.2.7c.1.2.3.2.6.2a1.14,1.14,0,0,0,.8-.3,1.22,1.22,0,0,0,.3-.9,1.45,1.45,0,0,0-.2-.7c-.1-.3-.3-.3-.6-.3Zm1.6-3h3.7l-1.5,8H76.8l.3-1.1a2.59,2.59,0,0,1-1.1,1,2.77,2.77,0,0,1-1.3.3,2.39,2.39,0,0,1-2.1-1,3.69,3.69,0,0,1-.8-2.6,5.66,5.66,0,0,1,.3-1.8,8,8,0,0,1,.8-1.6,5.26,5.26,0,0,1,1.4-1.2,2.93,2.93,0,0,1,1.6-.4,2.5,2.5,0,0,1,1.3.3,2.71,2.71,0,0,1,1,1.1Zm2.9,6.9,1.4-2.4a4.7,4.7,0,0,0,1.2.9,2.24,2.24,0,0,0,1,.3A.37.37,0,0,0,85,44c.1-.1.1-.1.1-.2s-.2-.3-.6-.5h-.1l-.5-.3a3.33,3.33,0,0,1-1.1-.9,2.13,2.13,0,0,1-.3-1.2,2.33,2.33,0,0,1,1-2,3.94,3.94,0,0,1,2.5-.8,8.75,8.75,0,0,1,1.6.2,11.11,11.11,0,0,1,1.6.7l-1.3,2.1a4.17,4.17,0,0,0-.8-.6,2.54,2.54,0,0,0-.7-.2.37.37,0,0,0-.3.1c-.1.1-.1.1-.1.2s.2.3.5.4a.35.35,0,0,1,.2.1l.5.2a2.42,2.42,0,0,1,1.1.8,2.5,2.5,0,0,1,.4,1.3,2.7,2.7,0,0,1-1,2.2,4,4,0,0,1-2.7.8,5.66,5.66,0,0,1-1.8-.3,3.44,3.44,0,0,1-2.1-.8Z" transform="translate(-10.03 -31.72)"/></svg>