<svg id="Layer_1" data-name="Layer 1" xmlns="http://www.w3.org/2000/svg" viewBox="0 0 80 51.6"><defs><style>.cls-1{fill:#ed1a3d;}.cls-2{fill:#f18a00;}.cls-3{fill:#fff;}.cls-4{fill:#005193;}.cls-5{fill:#f68526;}</style></defs><title>caja-vecina</title><rect class="cls-1" x="50.5" width="29.5" height="29.5"/><polygon class="cls-2" points="80 15.6 67.5 5.1 67.5 5.1 67.5 24.7 80 24.7 80 15.6"/><path class="cls-3" d="M77.5,32.1V29.3a10.48,10.48,0,0,1-5.8,3v2.2l-2.1.9v1.9l-9.1,3.5v8.1H79.7V31.2Z" transform="translate(-10 -24.2)"/><path class="cls-1" d="M71.7,36.5l-1.7.6a.66.66,0,0,0-.4.5v1.3a.66.66,0,0,1-.4.5l-8.8,3.4v2.1l8.8-3.4a.66.66,0,0,0,.4-.5V39.7a.85.85,0,0,1,.3-.5l1.7-.7v-2Z" transform="translate(-10 -24.2)"/><path class="cls-1" d="M71.7,40.4l-1.7.7a.66.66,0,0,0-.4.5v1.3a.66.66,0,0,1-.4.5l-8.8,3.4v2l8.8-3.5a.66.66,0,0,0,.4-.5V43.5a.85.85,0,0,1,.3-.5l1.7-.7V40.4Z" transform="translate(-10 -24.2)"/><rect class="cls-4" x="50.5" y="24.7" width="29.5" height="4.9"/><path class="cls-3" d="M68.5,51.2v.2c0,.2-.2.4-.4.6s-.2.2-.3.2-.1-.1-.1-.2a1.07,1.07,0,0,1,.2-.6.54.54,0,0,1,.4-.3.31.31,0,0,1,.2.1m.7-1.4-.5.1-.2,1c-.2-.1-.2-.1-.3-.1-.5,0-1,.6-1,1.4,0,.3.1.5.3.5a1.69,1.69,0,0,0,.5-.2c.1-.1.2-.1.2-.2l.1-.1-.1.5h.4Z" transform="translate(-10 -24.2)"/><path class="cls-3" d="M70.4,51.2v.1l-.6.3c.1-.3.1-.4.2-.5a.37.37,0,0,1,.3-.1c.1.1.1.1.1.2m.4-.1a.46.46,0,0,0-.5-.4c-.6,0-1,.5-1,1.2,0,.4.2.6.5.6a.9.9,0,0,0,.5-.1c.1,0,.1-.1.2-.1a.77.77,0,0,1,.3-.2l-.2-.3c-.2.2-.3.2-.4.3H70c-.1,0-.1,0-.2-.1v-.2l.8-.4c.1.1.2-.1.2-.3" transform="translate(-10 -24.2)"/><path class="cls-3" d="M72.4,50.9a.9.9,0,0,0-.5-.1c-.4,0-.7.2-.7.5a.37.37,0,0,0,.1.3.35.35,0,0,1,.1.2l.2.2c.1.1.1.1.1.2a.22.22,0,0,1-.2.2.76.76,0,0,1-.4-.1l-.1.2c.1,0,.2.1.3.1h.3c.4,0,.6-.2.6-.5s-.1-.3-.3-.5-.2-.2-.3-.2v-.1c0-.1.1-.1.2-.1a.76.76,0,0,1,.4.1Z" transform="translate(-10 -24.2)"/><path class="cls-3" d="M73.9,51.2v.2c0,.2-.2.4-.4.6s-.2.2-.3.2-.1-.1-.1-.2a1.07,1.07,0,0,1,.2-.6.54.54,0,0,1,.4-.3c.1,0,.1,0,.2.1m.7-1.4-.5.1-.2,1c-.2-.1-.2-.1-.3-.1-.5,0-1,.6-1,1.4,0,.3.1.5.3.5a1.69,1.69,0,0,0,.5-.2c.1-.1.2-.1.2-.2l.1-.1-.1.5H74Z" transform="translate(-10 -24.2)"/><path class="cls-3" d="M75.8,51.2v.1l-.6.3c.1-.3.1-.4.2-.5a.37.37,0,0,1,.3-.1c.1.1.1.1.1.2m.5-.1a.46.46,0,0,0-.5-.4c-.6,0-1,.5-1,1.2,0,.4.2.6.5.6a.9.9,0,0,0,.5-.1c.1,0,.1-.1.2-.1a.77.77,0,0,1,.3-.2l-.3-.2c-.2.2-.3.2-.4.3h-.2c-.1,0-.1,0-.2-.1v-.2l.8-.4c.2,0,.3-.2.3-.4" transform="translate(-10 -24.2)"/><polygon class="cls-3" points="68.8 26.5 68.6 26.5 67.7 26.9 67.8 27.2 68.3 27.1 68 28.4 68.5 28.4 68.8 26.5"/><path class="cls-3" d="M80.4,51.9a.46.46,0,0,1-.5.4c-.2,0-.4-.1-.4-.3a.54.54,0,0,1,.3-.4l.2-.1.2.2c.2,0,.2.1.2.2m.1-1.3a.35.35,0,0,1-.1.2l-.2.2-.1-.2c0-.1-.1-.1-.1-.2a.32.32,0,0,1,.3-.3c.2.1.3.2.2.3m.5-.1c0-.3-.2-.5-.6-.5s-.9.2-.9.6a.52.52,0,0,0,.2.4l.2.2-.3.2a.82.82,0,0,0-.4.6c0,.4.2.6.7.6s1-.3,1-.7a.55.55,0,0,0-.3-.5l-.2-.2.2-.2q.3-.15.3-.3c.1,0,.1-.1.1-.2" transform="translate(-10 -24.2)"/><path class="cls-3" d="M82.7,50.6H81.5l-.2,1.3h.2c.1,0,.3,0,.3.1s.1.2.1.3a.56.56,0,0,1-.5.6.76.76,0,0,1-.4-.1l-.1.4a.9.9,0,0,0,.5.1,1,1,0,0,0,1-1,.6.6,0,0,0-.3-.6c-.1,0-.2-.1-.4-.1l.1-.6h.7Z" transform="translate(-10 -24.2)"/><path class="cls-3" d="M84.3,50.6H83.1L83,51.9h.2c.1,0,.3,0,.3.1s.1.2.1.3a.56.56,0,0,1-.5.6.76.76,0,0,1-.4-.1l-.1.4a.9.9,0,0,0,.5.1,1,1,0,0,0,1-1,.6.6,0,0,0-.3-.6c-.1,0-.2-.1-.4-.1l.1-.6h.7Z" transform="translate(-10 -24.2)"/><path class="cls-5" d="M10,39c0-4.6,3-8.8,9.1-8.8a9.25,9.25,0,0,1,5.3,1.4l-2.1,3.5a6.16,6.16,0,0,0-3.3-.9c-2.5,0-3.9,1.9-3.9,4.6s1.3,4.9,3.9,4.9a6.08,6.08,0,0,0,3.6-1.2l1.9,3.4a8.94,8.94,0,0,1-5.6,1.9C12.9,47.7,10,43.6,10,39Z" transform="translate(-10 -24.2)"/><path class="cls-5" d="M25.5,44.1c0-3.2,3.1-4.5,6.7-4.5h.4v-.4c0-.7-.3-1.1-1.7-1.1a5.42,5.42,0,0,0-3.1,1.1L26,36.5a8.46,8.46,0,0,1,5.5-1.9c4,0,5.6,1.3,5.6,5v3.5a20,20,0,0,0,.4,4.3H33c-.1-.3-.2-.8-.3-1.2a4,4,0,0,1-3.3,1.5C27.2,47.7,25.5,46.5,25.5,44.1Zm7-.1V42.2h-.4c-1.4,0-2.4.5-2.4,1.4,0,.6.5,1,1.2,1A2.17,2.17,0,0,0,32.5,44Z" transform="translate(-10 -24.2)"/><path class="cls-5" d="M36.7,53l.8-3.5a2.68,2.68,0,0,0,1.1.2c1,0,1.3-.5,1.3-2.4V34.9h4.6V47.7c0,3.5-1.4,5.7-4.9,5.7A8.08,8.08,0,0,1,36.7,53Zm2.9-21.7a2.56,2.56,0,0,1,2.6-2.5,2.5,2.5,0,0,1,2.6,2.5,2.56,2.56,0,0,1-2.6,2.5A2.5,2.5,0,0,1,39.6,31.3Z" transform="translate(-10 -24.2)"/><path class="cls-5" d="M46.7,44.1c0-3.2,3.1-4.5,6.7-4.5h.4v-.4c0-.7-.3-1.1-1.7-1.1A5.42,5.42,0,0,0,49,39.2l-1.8-2.7a8.46,8.46,0,0,1,5.5-1.9c4,0,5.6,1.3,5.6,5v3.5a20,20,0,0,0,.4,4.3H54.2c-.1-.3-.2-.8-.3-1.2a4,4,0,0,1-3.3,1.5C48.5,47.7,46.7,46.5,46.7,44.1Zm7-.1V42.2h-.4c-1.4,0-2.4.5-2.4,1.4,0,.6.5,1,1.2,1A2,2,0,0,0,53.7,44Z" transform="translate(-10 -24.2)"/><path class="cls-5" d="M10,58h5.3l2.9,9.2c.4,1.3.7,2.7.8,2.8h.1c0-.1.4-1.5.8-2.8L22.7,58h4.9L21.2,75.5H16.6Z" transform="translate(-10 -24.2)"/><path class="cls-5" d="M26.7,68.9a6.4,6.4,0,0,1,6.7-6.7c3.9,0,5.9,2.4,5.9,6.8a8.08,8.08,0,0,1-.1,1.5H31.6a2.29,2.29,0,0,0,2.6,1.9,6.05,6.05,0,0,0,3.1-.7l1.4,2.8a9.36,9.36,0,0,1-5,1.2C29.4,75.8,26.7,73.2,26.7,68.9Zm8.1-1.5c0-1.2-.4-2-1.5-2s-1.6.6-1.8,2Z" transform="translate(-10 -24.2)"/><path class="cls-5" d="M40.6,69c0-4.3,2.9-6.8,7.2-6.8a7,7,0,0,1,3.9.9l-1.3,3.1a4.77,4.77,0,0,0-2.4-.5c-1.6,0-2.6,1.1-2.6,3.2s.9,3.4,2.7,3.4a4.73,4.73,0,0,0,2.4-.6l1.3,3a6.83,6.83,0,0,1-4.1,1C43.5,75.8,40.6,73.3,40.6,69Z" transform="translate(-10 -24.2)"/><path class="cls-5" d="M53.4,58.8A2.58,2.58,0,0,1,56,56.2a2.52,2.52,0,0,1,2.6,2.6,2.6,2.6,0,0,1-5.2,0Zm.3,3.7h4.7V75.4H53.7Z" transform="translate(-10 -24.2)"/><path class="cls-5" d="M61.2,62.5h4.5V64a5,5,0,0,1,3.9-1.8c2.8,0,3.8,1.8,3.8,4.3v8.9H68.8V67.5c0-1-.4-1.4-1.3-1.4a2.61,2.61,0,0,0-1.8,1v8.3H61.1V62.5Z" transform="translate(-10 -24.2)"/><path class="cls-5" d="M75.4,72c0-3.3,3.2-4.7,6.7-4.7h.4v-.4c0-.7-.3-1.1-1.7-1.1a6.17,6.17,0,0,0-3.2,1.1l-1.8-2.8a8,8,0,0,1,5.6-1.9c4,0,5.7,1.4,5.7,5.2V71a22.26,22.26,0,0,0,.4,4.5H83c-.1-.3-.2-.9-.3-1.3a4.08,4.08,0,0,1-3.4,1.6A3.64,3.64,0,0,1,75.4,72Zm7.1-.1V70h-.4c-1.5,0-2.4.5-2.4,1.5,0,.6.5,1,1.3,1A1.92,1.92,0,0,0,82.5,71.9Z" transform="translate(-10 -24.2)"/></svg>