<svg id="Layer_1" data-name="Layer 1" xmlns="http://www.w3.org/2000/svg" viewBox="0 0 80 40.2"><defs><style>.cls-1{fill:#e21e26;}.cls-1,.cls-2,.cls-3,.cls-5{fill-rule:evenodd;}.cls-2{fill:#f3c417;}.cls-3{fill:#fdfeff;}.cls-4,.cls-5{fill:#fff;}</style></defs><title>caja-trujillo</title><polygon class="cls-1" points="0 0 80 0 80 40.2 0 40.2 0 0"/><path class="cls-2" d="M33.3,39.7a1.7,1.7,0,1,1-1.7,1.7,1.75,1.75,0,0,1,1.7-1.7Z" transform="translate(-10 -29.9)"/><path class="cls-3" d="M28.9,55.8h-4c-.4-.3-.4-.5-.4-1.1V46.2a2.43,2.43,0,0,1,2-2H40.2c1.1.2,1.5.9,1.8,1.9V55c0,.3.1.7-.3.8h-4c.9-.8,1-1.8.8-3.4H28c0,2,0,2.8.9,3.4Z" transform="translate(-10 -29.9)"/><path class="cls-1" d="M28.1,49.5V47.6a1.41,1.41,0,0,1,1.3-1h8.2c.6-.1,1,.2,1,.9v2.1l-10.5-.1Z" transform="translate(-10 -29.9)"/><path class="cls-2" d="M25.1,58.2c-1.1-.2-.1-.8.5-.9,5.4-.5,11.4-1.1,17,.1.9.2,1.6.9.2.6-.8-.1-.7.3-.4.3,1,0,2.3.7,1.1.8-.4,0-.9-.9-1.4-.5-.1.1.1.2.1.2.8.2.4.6-.7.2a63.18,63.18,0,0,0-16.4-.8Z" transform="translate(-10 -29.9)"/><path class="cls-4" d="M54.1,48.7H52.4l-.2.9H50.7l1.8-5.2h1.7L56,49.6H54.4l-.3-.9Zm-.3-1.2-.5-1.9-.5,1.9Zm4.7-3.2H60v2.8c0,.6-.1,1.1-.1,1.4a1.56,1.56,0,0,1-.6.8,2.13,2.13,0,0,1-1.2.3,3.73,3.73,0,0,1-1.2-.2,1.17,1.17,0,0,1-.6-.6c-.1-.3-.2-.6-.3-1l1.4-.2a.75.75,0,0,0,.1.5c0,.1.1.2.2.3s.1.1.2.1a.52.52,0,0,0,.4-.2c.1-.1.1-.4.1-.7V44.3Zm5.4,4.4H62.2l-.2.9H60.5l1.8-5.2H64l1.8,5.2H64.2l-.3-.9Zm-.4-1.2L63,45.7l-.5,1.9h1Z" transform="translate(-10 -29.9)"/><path class="cls-4" d="M45.6,50.7h4.3V52H48.5v3.9H47V52H45.6V50.7Zm4.9,5.2V50.7h2.4a2.79,2.79,0,0,1,1,.1,1.33,1.33,0,0,1,.6.5,1.88,1.88,0,0,1,.2.8,2.35,2.35,0,0,1-.2.8,2.18,2.18,0,0,1-.4.5.76.76,0,0,1-.5.2c.2.1.3.1.4.2s.1.1.2.3.2.2.2.3l.7,1.5H53.5l-.8-1.6a1.38,1.38,0,0,0-.3-.4.37.37,0,0,0-.3-.1H52v2.1Zm1.4-3.1h.6a.76.76,0,0,0,.4-.1.22.22,0,0,0,.2-.2.37.37,0,0,0,.1-.3c0-.2,0-.3-.1-.4a.75.75,0,0,0-.5-.1H52v1.1Zm6.5-2.1h1.4v3.1a2.77,2.77,0,0,1-.1.9,1.61,1.61,0,0,1-.4.7,2.09,2.09,0,0,1-.6.4,3,3,0,0,1-1,.2,1.7,1.7,0,0,1-.7-.1,1.45,1.45,0,0,1-.7-.2c-.2-.1-.3-.3-.5-.5l-.3-.6a2.77,2.77,0,0,1-.1-.9V50.6h1.4v3.2a1.45,1.45,0,0,0,.2.7c.1.2.3.2.6.2a1.42,1.42,0,0,0,.6-.2,1.45,1.45,0,0,0,.2-.7V50.7Zm4.2,0H64v2.8a5.31,5.31,0,0,1-.1,1.4,1.56,1.56,0,0,1-.6.8,1.8,1.8,0,0,1-1.1.3,3.09,3.09,0,0,1-1.1-.2,1.17,1.17,0,0,1-.6-.6,3,3,0,0,1-.2-1l1.4-.2a.75.75,0,0,0,.1.5c0,.1.1.2.2.3s.1.1.2.1.3-.1.3-.2.1-.4.1-.7V50.7Zm2.4,0h1.4v5.2H65V50.7Zm2.5,0h1.4v3.9h2.2v1.3H67.5V50.7Zm4.2,0h1.4v3.9h2.2v1.3H71.7V50.7Zm4,2.6a3,3,0,0,1,.6-2,2.06,2.06,0,0,1,1.7-.7,2.14,2.14,0,0,1,1.8.7,3,3,0,0,1,.6,2,3.34,3.34,0,0,1-.3,1.5,1.76,1.76,0,0,1-.8.9A2.5,2.5,0,0,1,78,56a2.77,2.77,0,0,1-1.3-.3,2.36,2.36,0,0,1-.8-.9,6.05,6.05,0,0,1-.2-1.5Zm1.4,0a1.61,1.61,0,0,0,.3,1.1,1,1,0,0,0,1.4,0,1.74,1.74,0,0,0,.3-1.2,1.61,1.61,0,0,0-.3-1.1,1,1,0,0,0-1.4,0,2.13,2.13,0,0,0-.3,1.2Z" transform="translate(-10 -29.9)"/><path class="cls-5" d="M49.5,45.9V44.3c-5.8-1.2-4.8,7,0,5.1V47.7c-3.4,2.2-3.3-3.5,0-1.8Z" transform="translate(-10 -29.9)"/></svg>