<?xml version="1.0" encoding="utf-8"?>
<!-- Generator: Adobe Illustrator 24.1.3, SVG Export Plug-In . SVG Version: 6.00 Build 0)  -->
<svg version="1.1" id="Layer_1" xmlns="http://www.w3.org/2000/svg" xmlns:xlink="http://www.w3.org/1999/xlink" x="0px" y="0px"
	 viewBox="0 0 100 100" style="enable-background:new 0 0 100 100;" xml:space="preserve">
<style type="text/css">
	.st0{fill:#ED262F;}
</style>
<g id="XMLID_927_">
	<path id="XMLID_928_" class="st0" d="M12.39,10.04c-1.35,0-2.39,1.1-2.39,2.46v75c0,1.35,1.04,2.46,2.39,2.46h75.15
		c1.35,0,2.45-1.11,2.45-2.46v-75c0-1.37-1.1-2.46-2.45-2.46H12.39z M14.59,13.06h70.7c0.87,0,1.61,0.72,1.61,1.62v70.63
		c0,0.91-0.7,1.69-1.61,1.69h-70.7c-0.93,0-1.63-0.78-1.63-1.69V14.68C12.96,13.78,13.66,13.06,14.59,13.06z M63.63,52.29
		c-1.35-2.23-1.32-2.33,0.08-4.58c1.41-2.23,17.3-27.95,17.89-28.97c0.7-1.15-0.08-1.68-0.9-1.68H49.63c-3.89,0-3.92-0.01-5.38,2.44
		c-1.49,2.45-16.37,26.54-17.49,28.37c-1.35,2.22-1.35,2.23,0,4.42c1.35,2.21,16,26.03,17.49,28.48c1.46,2.44,1.49,2.44,5.38,2.44
		H80.7c0.82,0,1.61-0.54,0.9-1.7C81.18,80.81,64.99,54.53,63.63,52.29"/>
</g>
</svg>
