<svg xmlns="http://www.w3.org/2000/svg" viewBox="0 0 80 42.08"><defs><style>.cls-1{fill:#80bc00;}.cls-2{fill:#fff;}</style></defs><title>Carulla</title><g id="Layer_2" data-name="Layer 2"><g id="Carulla"><path class="cls-1" d="M40,0C17.91,0,0,9.42,0,21c0,12.8,17.91,21,40,21s40-9.42,40-21C80,8.25,62.09,0,40,0Z"/><path class="cls-2" d="M75.84,25.09a.74.74,0,0,0-1,0,1.67,1.67,0,0,1-1.46.56,1.92,1.92,0,0,1-1.4-1.14,4.68,4.68,0,0,1-.19-.45A9,9,0,0,0,72,21.77c0-2.11-.47-2.4-1-2.4a.89.89,0,0,0-.73.44,3.68,3.68,0,0,0-3.2-.14,4.14,4.14,0,0,0-2.31,3,4.86,4.86,0,0,0,.09,2.26,2.84,2.84,0,0,1-2.86.65,1.92,1.92,0,0,1-.5-.28,25.6,25.6,0,0,0,.78-10c-.3-3.2-1.24-5-2.56-5h0c-1.35,0-2.17,1.92-2.26,5.17-.13,4.81.72,8.41,2.37,10.31a7.85,7.85,0,0,1-1.44,2.37,4.35,4.35,0,0,1-3.32,1.54,4.47,4.47,0,0,1-3.37-1.54,7.45,7.45,0,0,1-1.43-2.49c1.58-1.79,2.63-5,2.85-9.23.18-3.31-.66-5.6-2.1-5.71s-2.51,2-2.91,6a23.17,23.17,0,0,0,.48,8.53,2.52,2.52,0,0,1-1.49.52A2.44,2.44,0,0,1,45,24.58a4.61,4.61,0,0,1-.56-1.28,11.06,11.06,0,0,0,.29-2.44c0-.53,0-1.95-1-1.95-.72,0-1,.72-1,2.31a9.18,9.18,0,0,0,.24,2.1,5.56,5.56,0,0,1-.71,1.62,1.63,1.63,0,0,1-1.34.84,1.59,1.59,0,0,1-1.4-.74,3.6,3.6,0,0,1-.44-.95,9.57,9.57,0,0,0,.3-2.45c0-1.67-.32-2.42-1-2.42-.35,0-1,0-1,2.68a8.36,8.36,0,0,0,.27,2.27,2,2,0,0,1-1.83,1.55c-1.48,0-1.8-1.46-1.87-2.09a10.21,10.21,0,0,1,0-2.41c.07-.56.11-1.06-.28-1.41a1.16,1.16,0,0,0-1.06-.17,6.09,6.09,0,0,1-2.65.1,2.45,2.45,0,0,0-.45-.83,1,1,0,0,0-1.36-.21,1.09,1.09,0,0,0-.44,1.37,1.93,1.93,0,0,0,1,.85A5.43,5.43,0,0,1,27.84,25a1.74,1.74,0,0,1-3-.48,2.25,2.25,0,0,1-.19-.45,9.41,9.41,0,0,0,.29-2.32c0-2.12-.48-2.41-1-2.41a.91.91,0,0,0-.73.44A3.7,3.7,0,0,0,20,19.67a4.1,4.1,0,0,0-2.3,3,4.9,4.9,0,0,0,.09,2.3c0,.13.1.26.15.38a5.9,5.9,0,0,1-4.75,2.29,5.12,5.12,0,0,1-4.95-3.06,7.85,7.85,0,0,1,.87-8c1.74-2.14,4-2.65,5.47-2.22a2.29,2.29,0,0,1,1.75,2A3.25,3.25,0,0,1,15.2,19a.74.74,0,0,0-.11,1,.75.75,0,0,0,1.05.11,4.71,4.71,0,0,0,1.67-4.07A3.77,3.77,0,0,0,15,12.86c-2-.59-4.86,0-7,2.7a9.41,9.41,0,0,0-1.18,9.67,6.83,6.83,0,0,0,6.42,4,7.28,7.28,0,0,0,5.65-2.67,3.14,3.14,0,0,0,2.06.76,3.49,3.49,0,0,0,3-1.5,3.17,3.17,0,0,0,2.18,1.35A3.3,3.3,0,0,0,29,26a6.65,6.65,0,0,0,1.21-4.73,8.15,8.15,0,0,0,2-.06c.18,0,.25,0,.22.21a11.92,11.92,0,0,0,0,2.37c.23,2.1,1.51,3.4,3.33,3.4a2.94,2.94,0,0,0,2.52-1.35,3,3,0,0,0,2.63,1.41,3.15,3.15,0,0,0,2.83-1.94,3.91,3.91,0,0,0,3.41,1.85,3.79,3.79,0,0,0,2-.57,8.48,8.48,0,0,0,1.53,2.46,5.87,5.87,0,0,0,8.87,0A9.37,9.37,0,0,0,61,26.68a3.58,3.58,0,0,0,.48.24,4.05,4.05,0,0,0,4.08-.76A3.19,3.19,0,0,0,68,27.3a3.45,3.45,0,0,0,3-1.5,3.23,3.23,0,0,0,2.15,1.34,3.12,3.12,0,0,0,2.75-1A.73.73,0,0,0,75.84,25.09Zm-53.15-.18a2,2,0,0,1-1.79.92,1.68,1.68,0,0,1-1.32-.62,2.75,2.75,0,0,1-.44-2.3A2.63,2.63,0,0,1,20.6,21a2.25,2.25,0,0,1,.91-.19,2.84,2.84,0,0,1,1.36.37,8.27,8.27,0,0,0,.23,2.91A3.25,3.25,0,0,1,22.69,24.91Zm26.88-8.12a10.22,10.22,0,0,1,1-4.31c.16-.27.41-.26.56,0a8.24,8.24,0,0,1,.46,3.77,16.49,16.49,0,0,1-1.88,7.54A23.48,23.48,0,0,1,49.57,16.79ZM60.4,24c-.93-1.58-1.59-4.33-1.48-8.53a8.9,8.9,0,0,1,.56-3.3c.15-.3.41-.31.57,0a8.81,8.81,0,0,1,.8,3.27A25.72,25.72,0,0,1,60.4,24Zm9.41.95a2,2,0,0,1-1.8.92,1.71,1.71,0,0,1-1.32-.62,2.75,2.75,0,0,1-.43-2.3A2.63,2.63,0,0,1,67.72,21a2.23,2.23,0,0,1,.92-.19,2.87,2.87,0,0,1,1.35.37,8.27,8.27,0,0,0,.23,2.91A3.62,3.62,0,0,1,69.81,24.91Z"/></g></g></svg>