<?xml version="1.0" encoding="utf-8"?>
<!-- Generator: Adobe Illustrator 22.1.0, SVG Export Plug-In . SVG Version: 6.00 Build 0)  -->
<svg version="1.1" id="Layer_1" xmlns="http://www.w3.org/2000/svg" xmlns:xlink="http://www.w3.org/1999/xlink" x="0px" y="0px"
	 viewBox="0 0 100 100" style="enable-background:new 0 0 100 100;" xml:space="preserve">
<style type="text/css">
	.st0{fill:#51BA67;}
	.st1{fill:#FFFFFF;}
</style>
<g>
	<rect x="10" y="10" class="st0" width="80" height="80"/>
	<g>
		<path class="st1" d="M10858,26958.1l-3.1,29.4c-0.2,1.9,1.4,3.5,3.7,3.5h27.4c2.2,0,3.9-1.6,3.7-3.5l-3.1-29.4H10858z
			 M10872.3,26959.5c0.8,0,1.4,0.4,1.4,1l0,0.6c0.9,0.1,1.8,0.3,2.6,0.6c1.5,0.6,2.8,1.5,3.5,2.6c0.3,0.4,0.5,0.9,0.5,1.3
			c0.1,0.9-0.9,1.7-2.2,1.7c-0.9,0-1.7-0.3-2-0.8c-0.4-0.7-0.5-1.4-1-2c-0.5-0.5-1.2-0.9-2-1c-1.4-0.2-2.8,0.2-3.6,1
			c-0.9,0.9-1,2.1-0.2,3c1.1,1.4,2.7,1.4,4.6,1.9c0.9,0.2,1.9,0.4,2.8,0.7c1.4,0.4,2.7,1.2,3.6,2.2c0.8,0.8,1.2,1.9,1.3,3.3
			c0.1,1.8-0.5,3.3-1.9,4.5c-1.5,1.3-3.6,2-5.8,2.2l0,0.8c0,0.8-0.7,1.4-1.6,1.4s-1.6-0.6-1.6-1.4l0-0.8c-1.2-0.1-2.4-0.4-3.5-0.8
			c-1.6-0.6-3.1-1.9-3.9-3.3c-0.2-0.5-0.4-1-0.4-1.6c0-1.1,1.2-2,2.5-2c1,0,1.7,0.3,2,0.9c0.7,1.2,1.1,2.8,3.4,3.4
			c1.4,0.4,3.4,0.5,5.1-1c0.4-0.3,0.9-1.1,0.9-2c0-0.8-0.3-1.4-0.9-1.8c-0.6-0.4-1.4-0.8-2.6-1.1c-3-0.7-6.5-1.5-8.2-3.6
			c-0.7-0.8-0.9-1.8-0.9-3c0.1-1.6,0.8-2.8,2.1-3.8c1.3-0.9,2.8-1.5,4.5-1.7l0-0.6C10870.9,26960,10871.5,26959.5,10872.3,26959.5
			L10872.3,26959.5z"/>
		<path class="st1" d="M10843.7,26950.3c-0.8,0-1.5,0.6-1.5,1.5v12c0,0.8,0.6,1.5,1.5,1.5h11.6c0.2-1.5,0.3-3,0.5-4.6h-4.1
			c-1.6,0-2.9-1.3-2.9-2.9c0-1.6,1.3-2.9,2.9-2.9h41.1c1.6,0,2.9,1.3,2.9,2.9c0,1.6-1.3,2.9-2.9,2.9h-4.1c0.2,1.5,0.4,3,0.5,4.6
			h11.6c0.8,0,1.5-0.6,1.5-1.5v-12c0-0.8-0.6-1.5-1.5-1.5H10843.7L10843.7,26950.3z"/>
	</g>
</g>
</svg>
