<svg xmlns="http://www.w3.org/2000/svg" viewBox="0 0 80 16.7"><defs><style>.cls-1{fill:#29abe2;}.cls-2{fill:#e93d27;}.cls-3{fill:#ffc72b;}</style></defs><title>CashU</title><g id="Layer_2" data-name="Layer 2"><g id="CashU"><path class="cls-1" d="M61.19.85h-.32a2.26,2.26,0,0,0-1.59.78,2.37,2.37,0,0,0-.46.78,2.42,2.42,0,0,0-.15.93L59.19,15a1.8,1.8,0,0,0,.2.78,1.85,1.85,0,0,0,.49.58,1.74,1.74,0,0,0,.7.33,2,2,0,0,0,.82,0l2.45-.43,3.23-.56,2.37-.41-.27,0-.26-.05-.25-.08a1.17,1.17,0,0,1-.24-.09,3.88,3.88,0,0,1-.46-.22,2.8,2.8,0,0,1-.4-.27,3.65,3.65,0,0,1-.36-.31,2.11,2.11,0,0,1-.31-.36,6.61,6.61,0,0,1-.44-.65c-.15-.25-.3-.54-.46-.85s-.33-.66-.5-1-.35-.8-.54-1.26Z"/><path class="cls-2" d="M72.59.29,65.3.65l3,7.83.36.93c.11.28.21.52.3.73s.17.39.25.54.14.27.19.36a2.2,2.2,0,0,0,.3.37,2.34,2.34,0,0,0,.35.29,1.79,1.79,0,0,0,.39.2,2.2,2.2,0,0,0,.44.12L71,12h.35l.18,0,.34-.07.36-.12.36-.15.39-.2c.2-.12.39-.24.56-.36a4.57,4.57,0,0,0,.47-.38,3.44,3.44,0,0,0,.37-.4,4.94,4.94,0,0,0,.27-.42c.07-.15.13-.29.18-.43A4,4,0,0,0,75,9.06a2,2,0,0,0,0-.43,2,2,0,0,0,0-.42q0-.21-.09-.48c0-.19-.09-.39-.15-.61s-.13-.47-.21-.74-.17-.56-.27-.87Z"/><path class="cls-3" d="M78.46,0,76,.12l1,3.42c.14.48.26.91.37,1.32s.2.77.27,1.1.14.63.19.9.08.5.09.71a4,4,0,0,1,0,.6,5.68,5.68,0,0,1,0,.59,5,5,0,0,1-.1.56,4.5,4.5,0,0,1-.37,1.08c-.08.18-.17.35-.27.53s-.22.34-.34.51-.26.34-.4.51a4.48,4.48,0,0,1-.48.5,7.26,7.26,0,0,1-.57.5c-.21.16-.43.32-.68.49s-.5.32-.77.48l-.46.26-.43.23-.41.2-.4.18,5.54-1a1.77,1.77,0,0,0,.61-.24,2.33,2.33,0,0,0,.52-.47,3,3,0,0,0,.37-.62,2.51,2.51,0,0,0,.16-.72L80,1.92a2.33,2.33,0,0,0-.09-.76A1.72,1.72,0,0,0,79.6.54,1.35,1.35,0,0,0,78.46,0"/><path class="cls-1" d="M11.38,5.41a7.9,7.9,0,0,0-1.73-.76,6.76,6.76,0,0,0-1.9-.27,3.92,3.92,0,0,0-3,1.17A4.47,4.47,0,0,0,3.67,8.76,4.68,4.68,0,0,0,4.75,12a3.86,3.86,0,0,0,3,1.19,6.24,6.24,0,0,0,2-.32A7.35,7.35,0,0,0,11.56,12l.76,3.24a8.53,8.53,0,0,1-2.15.74,11.8,11.8,0,0,1-2.55.29,9.29,9.29,0,0,1-3.12-.49,6.58,6.58,0,0,1-2.4-1.44A6.27,6.27,0,0,1,.55,12.05,8.55,8.55,0,0,1,0,8.85,8.65,8.65,0,0,1,.54,5.71,6.59,6.59,0,0,1,2.09,3.32,6.8,6.8,0,0,1,4.53,1.81a9.26,9.26,0,0,1,3.2-.53,10.7,10.7,0,0,1,2.54.3,11.25,11.25,0,0,1,2.21.78Z"/><path class="cls-1" d="M20.56,4.45l-1.91,5.62h3.74ZM27.88,16H24.25L23.2,12.91H17.87l-1,3.06H13.21l5.1-14.34h4.56Z"/><path class="cls-1" d="M34.18,13.3A3.19,3.19,0,0,0,35.76,13a1.1,1.1,0,0,0,.6-1,1,1,0,0,0-.19-.62,1.73,1.73,0,0,0-.56-.45,5.2,5.2,0,0,0-.92-.36l-1.26-.38a14.24,14.24,0,0,1-1.6-.53,6.89,6.89,0,0,1-1.49-.81,4,4,0,0,1-1.1-1.24,3.7,3.7,0,0,1-.42-1.83,4,4,0,0,1,1.42-3.21,6.11,6.11,0,0,1,4.08-1.21,12,12,0,0,1,3,.34,9.76,9.76,0,0,1,2.35.92l-.71,3a11.57,11.57,0,0,0-2.32-.92,9,9,0,0,0-2.31-.34c-1.26,0-1.89.41-1.89,1.22a.88.88,0,0,0,.23.6,1.93,1.93,0,0,0,.65.46,6.44,6.44,0,0,0,1,.37l1.19.36a13.58,13.58,0,0,1,1.63.55,5.83,5.83,0,0,1,1.45.81,3.79,3.79,0,0,1,1,1.22A3.62,3.62,0,0,1,40,11.65a4.42,4.42,0,0,1-.39,1.88A4.06,4.06,0,0,1,38.46,15a5.14,5.14,0,0,1-1.83,1,8.38,8.38,0,0,1-2.51.34,12.3,12.3,0,0,1-3.07-.37A9.72,9.72,0,0,1,28.59,15l.68-3a13.09,13.09,0,0,0,2.33,1,9,9,0,0,0,2.58.37"/><polygon class="cls-1" points="51.76 15.97 51.76 10.28 46 10.28 46 15.97 42.35 15.97 42.35 1.63 46 1.63 46 7.2 51.76 7.2 51.76 1.63 55.41 1.63 55.41 15.97 51.76 15.97"/></g></g></svg>