<svg id="Layer_1" data-name="Layer 1" xmlns="http://www.w3.org/2000/svg" viewBox="0 0 20 13.33"><title>cc</title><path d="M23,21.67H7a2,2,0,0,1-2-2V10.34a2,2,0,0,1,2-2H23a2,2,0,0,1,2,2v9.33A2,2,0,0,1,23,21.67ZM7,9a1.33,1.33,0,0,0-1.33,1.33v9.33A1.33,1.33,0,0,0,7,21H23a1.33,1.33,0,0,0,1.33-1.33V10.34A1.33,1.33,0,0,0,23,9Z" transform="translate(-5 -8.34)"/><path d="M11.33,17H8a.33.33,0,1,1,0-.66h3.33a.33.33,0,0,1,.33.33A.32.32,0,0,1,11.33,17Z" transform="translate(-5 -8.34)"/><path d="M15.33,19H8a.33.33,0,1,1,0-.66h7.33a.33.33,0,0,1,.33.33A.32.32,0,0,1,15.33,19Z" transform="translate(-5 -8.34)"/><path d="M9.33,15H8a.33.33,0,0,1,0-.66H9.33a.33.33,0,0,1,.33.33A.32.32,0,0,1,9.33,15Z" transform="translate(-5 -8.34)"/><path d="M12.67,15H11.34a.33.33,0,1,1,0-.66h1.33a.33.33,0,0,1,.33.33A.32.32,0,0,1,12.67,15Z" transform="translate(-5 -8.34)"/><path d="M16,15H14.67a.33.33,0,0,1,0-.66H16A.33.33,0,0,1,16,15Z" transform="translate(-5 -8.34)"/><path d="M20.67,19a1.67,1.67,0,1,1,1.67-1.67A1.67,1.67,0,0,1,20.67,19Zm0-2.67a1,1,0,1,0,1,1A1,1,0,0,0,20.67,16.33Z" transform="translate(-5 -8.34)"/><path d="M19.33,19a1.67,1.67,0,1,1,0-3.34,1.59,1.59,0,0,1,.8.21.33.33,0,0,1-.32.58,1,1,0,1,0-.48,1.88,1,1,0,0,0,.47-.12.33.33,0,0,1,.45.14.33.33,0,0,1-.14.45A1.59,1.59,0,0,1,19.33,19Z" transform="translate(-5 -8.34)"/></svg>