<svg id="Layer_1" data-name="Layer 1" xmlns="http://www.w3.org/2000/svg" viewBox="0 0 80.03 14.62"><defs><style>.cls-1,.cls-5{fill:#221f1f;}.cls-2{fill:#354a9e;}.cls-3,.cls-4{fill:none;}.cls-3,.cls-4,.cls-5{stroke:#221f1f;stroke-miterlimit:3.86;}.cls-3,.cls-5{stroke-width:0.06px;}.cls-4{stroke-width:0.07px;}</style></defs><title>CCB</title><g id="layer1"><path id="path248" class="cls-1" d="M71.54,54.13h1c.48,0,1,.06,1,.55a.6.6,0,0,1-.68.6H71.54V54.13Zm0-1.44h.87c.79,0,.91.37.91.56s-.13.5-.72.5H71.54Zm-.51,3h2a1,1,0,0,0,1-1,.87.87,0,0,0-.69-.81.75.75,0,0,0,.52-.71c0-.66-.72-.86-1.06-.86H71v3.34" transform="translate(-10 -42.68)"/><path id="path250" class="cls-1" d="M76.05,54.88a.93.93,0,0,1-.93.47c-.25,0-.52-.12-.51-.41a.41.41,0,0,1,.27-.32c.27-.1.79-.09,1.16-.22v.48Zm.48-1.28c0-.24-.31-.39-.67-.46a2.15,2.15,0,0,0-.49,0,1.51,1.51,0,0,0-.59.11.78.78,0,0,0-.48.47l0,.21h.43c0-.11,0-.44.59-.44.31,0,.71.08.75.25V54c0,.13-.17.17-.23.18-.27.06-.54,0-1.06.14a.69.69,0,0,0-.61.63c0,.47.36.75,1,.75a1.78,1.78,0,0,0,.92-.35.46.46,0,0,0,.43.35,1.28,1.28,0,0,0,.36,0v-.3h-.1c-.12,0-.22-.07-.22-.14V53.6" transform="translate(-10 -42.68)"/><path id="path252" class="cls-1" d="M77,53.22v2.41h.46V54.35a.75.75,0,0,1,.79-.85c.32,0,.58.16.58.45v1.67h.46V53.75a.67.67,0,0,0-.46-.54,1.51,1.51,0,0,0-.47-.06,1,1,0,0,0-.57.11,1,1,0,0,0-.32.26h0v-.3H77" transform="translate(-10 -42.68)"/><path id="path254" class="cls-1" d="M79.66,52.28v3.34h.46v-.9l.46-.38,1,1.28h.57l-1.17-1.57,1-.83h-.59l-1.22,1V52.28h-.46" transform="translate(-10 -42.68)"/><path id="path256" class="cls-1" d="M31.35,53.32a1.57,1.57,0,0,0-1.63-1.09,2.1,2.1,0,0,0-1.11.34A1.81,1.81,0,0,0,28,54a1.76,1.76,0,0,0,.64,1.41,1.93,1.93,0,0,0,1.11.34,1.66,1.66,0,0,0,1.71-1.33H30.9a1.13,1.13,0,0,1-1.15.94,1.25,1.25,0,0,1-.86-.32A1.45,1.45,0,0,1,28.51,54a1.47,1.47,0,0,1,.38-1,1.21,1.21,0,0,1,.86-.32,1.09,1.09,0,0,1,1.07.7h.53" transform="translate(-10 -42.68)"/><path id="path258" class="cls-1" d="M31.72,55.63h.46V54.07a.39.39,0,0,1,.18-.36,1.33,1.33,0,0,1,.46-.21,1,1,0,0,1,.49.06.36.36,0,0,1,.24.42v1.64H34V53.79a.6.6,0,0,0-.47-.56,1.33,1.33,0,0,0-.47-.08,1.59,1.59,0,0,0-.39.06,1.34,1.34,0,0,0-.49.29V52.28h-.46v3.35" transform="translate(-10 -42.68)"/><path id="path260" class="cls-1" d="M34.41,52.76h.46v-.48h-.46Zm0,2.87h.46V53.22h-.46Z" transform="translate(-10 -42.68)"/><path id="path262" class="cls-1" d="M35.31,53.22v2.41h.46V54.35a.74.74,0,0,1,.79-.85c.32,0,.58.16.58.45v1.67h.46V53.75a.67.67,0,0,0-.46-.54,1.51,1.51,0,0,0-.47-.06,1,1,0,0,0-.57.11,1,1,0,0,0-.32.26h0v-.3h-.46" transform="translate(-10 -42.68)"/><path id="path264" class="cls-1" d="M39.77,54.89a.93.93,0,0,1-.93.47c-.25,0-.52-.11-.51-.41a.45.45,0,0,1,.27-.33c.27-.1.79-.09,1.16-.22v.49Zm.48-1.28c0-.24-.31-.39-.67-.46a2.15,2.15,0,0,0-.49,0,1.51,1.51,0,0,0-.59.11.78.78,0,0,0-.48.47l0,.21h.43c0-.11,0-.45.59-.45.31,0,.71.08.75.25V54c0,.13-.17.17-.23.18a10.06,10.06,0,0,0-1.06.14.69.69,0,0,0-.61.63c0,.47.36.75,1,.75a1.78,1.78,0,0,0,.92-.35.46.46,0,0,0,.43.35,1.28,1.28,0,0,0,.36,0v-.3h-.1c-.12,0-.22-.07-.22-.14v-1.6" transform="translate(-10 -42.68)"/><path id="path266" class="cls-1" d="M45.75,53.32a1.58,1.58,0,0,0-1.63-1.09,2.1,2.1,0,0,0-1.11.34A1.81,1.81,0,0,0,42.37,54,1.79,1.79,0,0,0,43,55.39a1.93,1.93,0,0,0,1.11.34,1.66,1.66,0,0,0,1.71-1.33H45.3a1.13,1.13,0,0,1-1.15.94,1.25,1.25,0,0,1-.86-.32A1.41,1.41,0,0,1,42.91,54a1.47,1.47,0,0,1,.38-1,1.21,1.21,0,0,1,.86-.32,1.09,1.09,0,0,1,1.07.7h.53" transform="translate(-10 -42.68)"/><path id="path268" class="cls-1" d="M48.06,54.44a.83.83,0,1,1-.83-.9A.84.84,0,0,1,48.06,54.44Zm.47,0a1.3,1.3,0,1,0-1.3,1.29,1.18,1.18,0,0,0,1.3-1.29" transform="translate(-10 -42.68)"/><path id="path270" class="cls-1" d="M48.83,53.22v2.41h.46V54.35a.75.75,0,0,1,.79-.85c.32,0,.58.16.58.45v1.67h.46V53.75a.68.68,0,0,0-.45-.54,1.51,1.51,0,0,0-.47-.06,1,1,0,0,0-.57.11,1,1,0,0,0-.32.26h0v-.3h-.47" transform="translate(-10 -42.68)"/><path id="path272" class="cls-1" d="M51.35,54.92c0,.23.06.66.73.78a3.2,3.2,0,0,0,.55,0,2.08,2.08,0,0,0,.53-.1.77.77,0,0,0,.52-.58.56.56,0,0,0-.31-.6,1.85,1.85,0,0,0-.66-.18,3.09,3.09,0,0,1-.68-.18.23.23,0,0,1-.14-.33.64.64,0,0,1,.56-.26c.64,0,.66.26.66.39h.45c0-.27-.12-.74-1.07-.74-.56,0-1.06.26-1.06.72a.57.57,0,0,0,.42.59,7.49,7.49,0,0,0,1.07.24c.23.06.31.18.31.31a.35.35,0,0,1-.18.29,1.28,1.28,0,0,1-.36.11,1.76,1.76,0,0,1-.41,0c-.32-.08-.48-.23-.5-.47h-.43" transform="translate(-10 -42.68)"/><path id="path274" class="cls-1" d="M54.5,52.57H54v.65h-.4v.35H54v1.82a.41.41,0,0,0,.42.34,2.13,2.13,0,0,0,.5,0v-.34c-.26,0-.46,0-.46-.12V53.57H55v-.35H54.5v-.65" transform="translate(-10 -42.68)"/><path id="path276" class="cls-1" d="M55.13,55.63h.46V54.38a.72.72,0,0,1,.48-.77,1.48,1.48,0,0,1,.44,0v-.4h-.26a.9.9,0,0,0-.65.44h0v-.38h-.46v2.41" transform="translate(-10 -42.68)"/><path id="path278" class="cls-1" d="M59,55.63V53.22h-.46v1.31a.75.75,0,0,1-.57.82.91.91,0,0,1-.32,0,.66.66,0,0,1-.26-.06.41.41,0,0,1-.22-.39v-1.7h-.46v1.92a.77.77,0,0,0,.46.54,1.49,1.49,0,0,0,.46.06,1.47,1.47,0,0,0,.58-.1,1,1,0,0,0,.32-.26h0v.26H59" transform="translate(-10 -42.68)"/><path id="path280" class="cls-1" d="M61.19,54.8a.93.93,0,0,1-.14.31.67.67,0,0,1-.55.26.76.76,0,0,1-.71-.37,1.11,1.11,0,0,1-.1-.65,1,1,0,0,1,.23-.6.87.87,0,0,1,.57-.25.91.91,0,0,1,.39.08c.19.08.26.2.31.45h.46a.78.78,0,0,0-.36-.66,1.46,1.46,0,0,0-.81-.22,1.28,1.28,0,0,0-.87.33,1.31,1.31,0,0,0-.41.93,1.56,1.56,0,0,0,.2.82,1.2,1.2,0,0,0,1,.51,1.3,1.3,0,0,0,1.09-.45.92.92,0,0,0,.15-.49h-.46" transform="translate(-10 -42.68)"/><path id="path282" class="cls-1" d="M62.55,52.57h-.46v.65h-.4v.35h.4v1.82a.41.41,0,0,0,.42.34,2.13,2.13,0,0,0,.5,0v-.34c-.26,0-.46,0-.46-.12V53.57H63v-.35h-.46v-.65" transform="translate(-10 -42.68)"/><path id="path284" class="cls-1" d="M63.26,52.76h.46v-.48h-.46Zm0,2.87h.46V53.22h-.46Z" transform="translate(-10 -42.68)"/><path id="path286" class="cls-1" d="M66.1,54.44a.83.83,0,1,1-.83-.9A.84.84,0,0,1,66.1,54.44Zm.47,0a1.3,1.3,0,1,0-1.3,1.29,1.18,1.18,0,0,0,1.3-1.29" transform="translate(-10 -42.68)"/><path id="path288" class="cls-1" d="M66.87,53.22v2.41h.46V54.35a.75.75,0,0,1,.79-.85c.32,0,.58.16.58.45v1.67h.46V53.75a.67.67,0,0,0-.46-.54,1.51,1.51,0,0,0-.47-.06,1,1,0,0,0-.57.11,1,1,0,0,0-.32.26h0v-.3h-.46" transform="translate(-10 -42.68)"/><path id="path298" class="cls-2" d="M22.31,48.41l-4.2-4.2a2.68,2.68,0,0,0-2.29-.76,7,7,0,1,0,8.09,7.13.29.29,0,0,0-.1-.23.62.62,0,0,0-.33,0H20.79a1.15,1.15,0,0,0-.33,0,.58.58,0,0,0-.12.08l-3.28,3.29a.14.14,0,0,1-.19,0l-3.3-3.31a.14.14,0,0,1,0-.19l3.3-3.3a.14.14,0,0,1,.19,0l3,3a1,1,0,0,0,.31.18c.14,0,.34-.1.34-.1l1.57-1.62" transform="translate(-10 -42.68)"/><path id="path300" class="cls-2" d="M23.84,46.25,21.59,44a4.63,4.63,0,0,0-5.42-.76s1.24-.66,2.81,1L22.7,48l1.1-1.09a1,1,0,0,0,.16-.32c0-.13-.12-.33-.12-.33" transform="translate(-10 -42.68)"/><path id="path302" class="cls-1" d="M32.87,49.6H35V46H32.87ZM36.37,46v4.27H32.88V51H31.51v-.8H28V46a.61.61,0,0,1,.61-.61H31.5v-.67h1.36v.67h2.88A.61.61,0,0,1,36.37,46Zm-7,3.63h2.11V46H29.4Z" transform="translate(-10 -42.68)"/><path id="path304" class="cls-3" d="M32.87,49.6H35V46H32.87ZM36.37,46v4.27H32.88V51H31.51v-.8H28V46a.61.61,0,0,1,.61-.61H31.5v-.67h1.36v.67h2.88A.61.61,0,0,1,36.37,46Zm-7,3.63h2.11V46H29.4Z" transform="translate(-10 -42.68)"/><path id="path306" class="cls-1" d="M45.29,49.32h-1.8V47.83h1.7V47.2h-1.7v-.8h1.79v-.62h-5v.62h1.76v.8H40.43v.63h1.66v1.49H40.33v.62h5Zm1.05-4.7H39.26a.61.61,0,0,0-.61.61V51h8.29V45.23a.6.6,0,0,0-.6-.61Zm-6.3.61h5.55v5.2H40Zm4.64,2.83h-1l.35.63a.78.78,0,0,0,.31.35,1,1,0,0,0,.44.07h.43v-.58H45l-.27-.47" transform="translate(-10 -42.68)"/><path id="path308" class="cls-3" d="M45.29,49.32h-1.8V47.83h1.7V47.2h-1.7v-.8h1.79v-.62h-5v.62h1.76v.8H40.43v.63h1.66v1.49H40.33v.62h5Zm1.05-4.7H39.26a.61.61,0,0,0-.61.61V51h8.29V45.23a.6.6,0,0,0-.6-.61Zm-6.3.61h5.55v5.2H40Zm4.64,2.83h-1l.35.63a.78.78,0,0,0,.31.35,1,1,0,0,0,.44.07h.43v-.58H45l-.27-.47Z" transform="translate(-10 -42.68)"/><path id="path310" class="cls-1" d="M57.8,46h-.5v-.48a.63.63,0,0,0-.63-.63H55v-.37H53.68v.37H52v.65h1.71V46H51.76v.65h1.92v.44H52v.64h1.71v.47H51.83v.65h1.85v.45h-2V50h2v.46H52.35A2.62,2.62,0,0,1,50.94,50a2.36,2.36,0,0,0,.42-1.33V47h-.8a2.42,2.42,0,0,0,1-2.11H49v.66H50.5A1.79,1.79,0,0,1,49.09,47v.64h1.33v.94a1.74,1.74,0,0,1-.2.78,2.6,2.6,0,0,1-.43-1h-.71a3,3,0,0,0,.63,1.57,1.67,1.67,0,0,1-.72.28v.88a2.34,2.34,0,0,0,1.44-.49,3.1,3.1,0,0,0,1.73.53h5.56v-.66H55V50h2.35v-.66H55v-.45h2.35v-.65H55v-.47h2.37V46.68h.48V46ZM55,46.68h1v.44H55Zm0-1.12h1V46H55Z" transform="translate(-10 -42.68)"/><path id="path312" class="cls-4" d="M57.8,46h-.5v-.48a.63.63,0,0,0-.63-.63H55v-.37H53.68v.37H52v.65h1.71V46H51.76v.65h1.92v.44H52v.64h1.71v.47H51.83v.65h1.85v.45h-2V50h2v.46H52.35A2.62,2.62,0,0,1,50.94,50a2.36,2.36,0,0,0,.42-1.33V47h-.8a2.42,2.42,0,0,0,1-2.11H49v.66H50.5A1.79,1.79,0,0,1,49.09,47v.64h1.33v.94a1.74,1.74,0,0,1-.2.78,2.6,2.6,0,0,1-.43-1h-.71a3,3,0,0,0,.63,1.57,1.67,1.67,0,0,1-.72.28v.88a2.34,2.34,0,0,0,1.44-.49,3.1,3.1,0,0,0,1.73.53h5.56v-.66H55V50h2.35v-.66H55v-.45h2.35v-.65H55v-.47h2.37V46.68h.48V46ZM55,46.68h1v.44H55Zm0-1.12h1V46H55Z" transform="translate(-10 -42.68)"/><path id="path314" class="cls-5" d="M84.51,44.74H89.8v.66H84.51Z" transform="translate(-10 -42.68)"/><path id="path316" class="cls-5" d="M83.4,47.46v3.65H82.11V48.45a6.73,6.73,0,0,1-.76.38L80.81,48a6.22,6.22,0,0,0,2.81-2.56l.79.69a6.64,6.64,0,0,1-1,1.34Z" transform="translate(-10 -42.68)"/><path id="path318" class="cls-5" d="M87.88,51.1A1.13,1.13,0,0,0,89,50V47.43h1v-.66H84.19v.66h3.42v2.65a.38.38,0,0,1-.37.38H85.72v.65Z" transform="translate(-10 -42.68)"/><path id="path320" class="cls-5" d="M83.33,44.93A5.68,5.68,0,0,1,81,47.32l-.49-.87a5.76,5.76,0,0,0,2-2.19Z" transform="translate(-10 -42.68)"/><path id="path322" class="cls-1" d="M62.59,48.65a10.31,10.31,0,0,1-1.12.92V46.21l-2.35,0v.64h1v3.31l-.66.18.66.82a7.05,7.05,0,0,0,1.34-.51,4.86,4.86,0,0,0,1.1-.78V48.65Zm2-2.6v-.8h1.85V46c0,.3-.08,1.05,1.2,1.05h.8v-.6h-.21c-.51,0-.46-.18-.46-.33V45.2a.6.6,0,0,0-.61-.6H63.25v1.55c0,.12,0,.36-.46.33h-.22v.62h.78c1.32.09,1.18-.74,1.19-1Zm2.23,3.66a7.8,7.8,0,0,0,1.6-1.49V47.4H62.48v.74h4.4a6.71,6.71,0,0,1-1.36,1.06,8.76,8.76,0,0,1-1.33-.84H62.61a8.56,8.56,0,0,0,1.7,1.41,6.26,6.26,0,0,1-1.89.35v1a7.61,7.61,0,0,0,3.13-.67,8.4,8.4,0,0,0,3.17.66v-1a9.48,9.48,0,0,1-2-.38Zm-7.19-4.25h2.61v-.69H59.58Z" transform="translate(-10 -42.68)"/><path id="path324" class="cls-3" d="M62.59,48.65a10.31,10.31,0,0,1-1.12.92V46.21l-2.35,0v.64h1v3.31l-.66.18.66.82a7.05,7.05,0,0,0,1.34-.51,4.86,4.86,0,0,0,1.1-.78V48.65Zm2-2.6v-.8h1.85V46c0,.3-.08,1.05,1.2,1.05h.8v-.6h-.21c-.51,0-.46-.18-.46-.33V45.2a.6.6,0,0,0-.61-.6H63.25v1.55c0,.12,0,.36-.46.33h-.22v.62h.78c1.32.09,1.18-.74,1.19-1Zm2.23,3.66a7.8,7.8,0,0,0,1.6-1.49V47.4H62.48v.74h4.4a6.71,6.71,0,0,1-1.36,1.06,8.76,8.76,0,0,1-1.33-.84H62.61a8.56,8.56,0,0,0,1.7,1.41,6.26,6.26,0,0,1-1.89.35v1a7.61,7.61,0,0,0,3.13-.67,8.4,8.4,0,0,0,3.17.66v-1a9.48,9.48,0,0,1-2-.38Zm-7.19-4.25h2.61v-.69H59.58Z" transform="translate(-10 -42.68)"/><path id="path326" class="cls-1" d="M76.66,49.79a2.47,2.47,0,0,1-1,.35V47.81H79v-2.6a.63.63,0,0,0-.62-.63h-4v5.63h-.26v.89h.63a5.44,5.44,0,0,0,1.88-.34v-1Zm1.53,0a4.77,4.77,0,0,0,1.09-1.57h-1a3.65,3.65,0,0,1-.78,1l-.16-.2a2.32,2.32,0,0,1-.38-.79H76a6.26,6.26,0,0,0,.46,1.08,3.51,3.51,0,0,0,2.84,1.8V50.2a2.44,2.44,0,0,1-1.12-.41Zm-2.58-2.62h2.15v-.64H75.61Zm0-1.29h2.15v-.66H75.61Z" transform="translate(-10 -42.68)"/><path id="path328" class="cls-3" d="M76.66,49.79a2.47,2.47,0,0,1-1,.35V47.81H79v-2.6a.63.63,0,0,0-.62-.63h-4v5.63h-.26v.89h.63a5.44,5.44,0,0,0,1.88-.34v-1Zm1.53,0a4.77,4.77,0,0,0,1.09-1.57h-1a3.65,3.65,0,0,1-.78,1l-.16-.2a2.32,2.32,0,0,1-.38-.79H76a6.26,6.26,0,0,0,.46,1.08,3.51,3.51,0,0,0,2.84,1.8V50.2a2.44,2.44,0,0,1-1.12-.41Zm-2.58-2.62h2.15v-.64H75.61Zm0-1.29h2.15v-.66H75.61Z" transform="translate(-10 -42.68)"/><path id="path330" class="cls-5" d="M72.5,50V48.49H74v-.65H72.5v-.73h1.37v-.65h-2.5a7.68,7.68,0,0,0,.5-.63H74v-.62H72.26a4.92,4.92,0,0,0,.3-.61l-1-.34a4.59,4.59,0,0,1-1.83,2.29l.63.75.28-.19h.71v.74h-.94v.65h1v1.81c-.21,0-.43,0-.65.06l.63.79a5,5,0,0,0,2.56-1V49.1A4.74,4.74,0,0,1,72.5,50Z" transform="translate(-10 -42.68)"/></g></svg>