<svg xmlns="http://www.w3.org/2000/svg" viewBox="0 0 80.03 14.62"><defs><style>.cls-1,.cls-5{fill:#231f20;}.cls-2{fill:#364a9f;}.cls-3,.cls-4{fill:none;}.cls-3,.cls-4,.cls-5{stroke:#231f20;stroke-miterlimit:3.86;}.cls-3,.cls-5{stroke-width:0.06px;}.cls-4{stroke-width:0.07px;}</style></defs><title>CCB_China_Constraction_Bank</title><g id="Layer_2" data-name="Layer 2"><g id="CCB_China_Constraction_Bank"><g id="layer1"><path id="path248" class="cls-1" d="M61.54,11.44h1c.48,0,1,.06,1,.55a.6.6,0,0,1-.68.6H61.54Zm0-1.43h.88c.79,0,.9.36.9.55s-.13.5-.72.5H61.54ZM61,13h2a1,1,0,0,0,1-1,.87.87,0,0,0-.68-.81.75.75,0,0,0,.51-.71c0-.66-.72-.86-1.06-.86H61V13"/><path id="path250" class="cls-1" d="M66.05,12.19a.94.94,0,0,1-.93.47c-.25,0-.51-.12-.5-.41s.19-.3.27-.33c.27-.1.79-.09,1.16-.21v.48Zm.48-1.28c0-.24-.31-.39-.67-.46a2.2,2.2,0,0,0-.5,0,1.53,1.53,0,0,0-.59.1.79.79,0,0,0-.48.48v.21h.43c0-.11,0-.45.59-.45.3,0,.71.08.74.25v.28c0,.13-.17.18-.23.19a7.92,7.92,0,0,0-1.06.14.69.69,0,0,0-.61.63c0,.47.37.75,1,.75a1.78,1.78,0,0,0,.92-.35.45.45,0,0,0,.43.35,1.2,1.2,0,0,0,.35,0v-.31a.18.18,0,0,1-.1,0c-.12,0-.22-.07-.22-.14V10.91"/><path id="path252" class="cls-1" d="M67,10.53v2.41h.46V11.66a.75.75,0,0,1,.79-.85c.32,0,.58.16.58.46v1.67h.46V11.07a.67.67,0,0,0-.46-.54,1.79,1.79,0,0,0-.47-.07,1.23,1.23,0,0,0-.57.11,1,1,0,0,0-.32.26h0v-.3H67"/><path id="path254" class="cls-1" d="M69.66,9.6v3.34h.46V12l.46-.38,1,1.28h.56l-1.17-1.57,1-.84h-.59l-1.22,1V9.6h-.46"/><path id="path256" class="cls-1" d="M21.35,10.63a1.58,1.58,0,0,0-1.63-1.09,2,2,0,0,0-1.11.35,1.86,1.86,0,0,0,0,2.81,1.93,1.93,0,0,0,1.11.34,1.65,1.65,0,0,0,1.7-1.33H20.9a1.15,1.15,0,0,1-1.16.95,1.27,1.27,0,0,1-.86-.32,1.52,1.52,0,0,1-.38-1.05,1.47,1.47,0,0,1,.38-1,1.23,1.23,0,0,1,.86-.32,1.09,1.09,0,0,1,1.08.7h.53"/><path id="path258" class="cls-1" d="M21.72,12.94h.46V11.38a.37.37,0,0,1,.17-.36,1,1,0,0,1,.46-.21,1,1,0,0,1,.49.07.36.36,0,0,1,.24.42v1.64H24V11.11a.6.6,0,0,0-.47-.56,1.44,1.44,0,0,0-.47-.09,1.23,1.23,0,0,0-.39.07,1.34,1.34,0,0,0-.49.29V9.6h-.46v3.34"/><path id="path260" class="cls-1" d="M24.4,10.07h.47V9.6H24.4Zm0,2.87h.47V10.53H24.4Z"/><path id="path262" class="cls-1" d="M25.3,10.53v2.41h.47V11.66a.74.74,0,0,1,.79-.85c.31,0,.58.16.57.46v1.67h.46V11.07a.68.68,0,0,0-.45-.54,1.87,1.87,0,0,0-.47-.07,1.21,1.21,0,0,0-.57.11,1,1,0,0,0-.32.26h0v-.3H25.3"/><path id="path264" class="cls-1" d="M29.77,12.2a.93.93,0,0,1-.93.47c-.25,0-.52-.11-.5-.41s.19-.29.27-.33c.27-.1.78-.09,1.16-.21Zm.48-1.27c0-.24-.31-.4-.67-.47a3.13,3.13,0,0,0-.5,0,1.51,1.51,0,0,0-.59.11A.78.78,0,0,0,28,11v.21h.43c0-.11,0-.45.59-.45.3,0,.7.08.74.25v.29c0,.13-.17.17-.23.18a10.06,10.06,0,0,0-1.06.14.7.7,0,0,0-.61.63c0,.47.37.75,1,.75a1.78,1.78,0,0,0,.92-.35.44.44,0,0,0,.42.35,1.23,1.23,0,0,0,.36,0v-.3h-.1c-.12,0-.22-.07-.22-.14v-1.6"/><path id="path266" class="cls-1" d="M35.75,10.63a1.58,1.58,0,0,0-1.63-1.09A2,2,0,0,0,33,9.89a1.86,1.86,0,0,0,0,2.81,1.93,1.93,0,0,0,1.11.34,1.66,1.66,0,0,0,1.71-1.33H35.3a1.14,1.14,0,0,1-1.15.95,1.28,1.28,0,0,1-.87-.32,1.52,1.52,0,0,1-.38-1.05,1.47,1.47,0,0,1,.38-1,1.23,1.23,0,0,1,.87-.32,1.09,1.09,0,0,1,1.07.7h.53"/><path id="path268" class="cls-1" d="M38.06,11.75a.83.83,0,1,1-1.66,0,.83.83,0,1,1,1.66,0Zm.47,0a1.3,1.3,0,0,0-2.6,0,1.3,1.3,0,0,0,2.6,0"/><path id="path270" class="cls-1" d="M38.83,10.53v2.41h.46V11.66a.75.75,0,0,1,.79-.85c.32,0,.58.16.58.46v1.67h.46V11.07a.67.67,0,0,0-.46-.54,1.79,1.79,0,0,0-.47-.07,1.23,1.23,0,0,0-.57.11,1,1,0,0,0-.32.26h0v-.3h-.46"/><path id="path272" class="cls-1" d="M41.34,12.23c0,.22.06.65.73.78a3.32,3.32,0,0,0,.56,0,1.6,1.6,0,0,0,.52-.1.76.76,0,0,0,.52-.57.54.54,0,0,0-.31-.6,2,2,0,0,0-.67-.18,3.88,3.88,0,0,1-.67-.18.23.23,0,0,1-.14-.33.64.64,0,0,1,.56-.26c.64,0,.66.26.66.39h.45c0-.27-.12-.75-1.07-.75-.57,0-1.06.26-1.06.72a.56.56,0,0,0,.42.59,7.49,7.49,0,0,0,1.07.24c.23.07.32.19.32.31a.37.37,0,0,1-.19.29,1.1,1.1,0,0,1-.36.11,2.42,2.42,0,0,1-.4,0c-.33-.09-.49-.24-.5-.47h-.44"/><path id="path274" class="cls-1" d="M44.5,9.88H44v.65h-.4v.35H44v1.83a.4.4,0,0,0,.42.33,2.14,2.14,0,0,0,.5,0v-.34c-.26,0-.46,0-.46-.13V10.88H45v-.35H44.5V9.88"/><path id="path276" class="cls-1" d="M45.12,12.94h.47V11.69a.71.71,0,0,1,.48-.77,1.48,1.48,0,0,1,.44-.05v-.41h-.26a.92.92,0,0,0-.65.45h0v-.38h-.47v2.41"/><path id="path278" class="cls-1" d="M49,12.94V10.53h-.46v1.31a.73.73,0,0,1-.57.81.91.91,0,0,1-.32,0,.66.66,0,0,1-.26-.06.41.41,0,0,1-.22-.39v-1.7h-.46v1.92a.77.77,0,0,0,.45.54,1.57,1.57,0,0,0,.46,0,1.36,1.36,0,0,0,.59-.1.69.69,0,0,0,.31-.26h0v.26H49"/><path id="path280" class="cls-1" d="M51.19,12.11a1.19,1.19,0,0,1-.14.31.67.67,0,0,1-.55.26.76.76,0,0,1-.71-.37,1.11,1.11,0,0,1-.11-.65.94.94,0,0,1,.23-.59.82.82,0,0,1,.56-.25,1,1,0,0,1,.4.07c.19.08.26.2.31.45h.45a.79.79,0,0,0-.36-.66,1.43,1.43,0,0,0-.81-.22,1.35,1.35,0,0,0-.87.33,1.29,1.29,0,0,0-.41.93,1.65,1.65,0,0,0,.2.82,1.2,1.2,0,0,0,1,.5,1.27,1.27,0,0,0,1.09-.45,1,1,0,0,0,.15-.48h-.44"/><path id="path282" class="cls-1" d="M52.55,9.88h-.46v.65h-.41v.35h.41v1.83c0,.09.09.31.41.33a2.12,2.12,0,0,0,.5,0v-.34c-.26,0-.45,0-.45-.13V10.88H53v-.35h-.45V9.88"/><path id="path284" class="cls-1" d="M53.26,10.07h.46V9.6h-.46Zm0,2.87h.46V10.53h-.46Z"/><path id="path286" class="cls-1" d="M56.1,11.75a.83.83,0,1,1-1.66,0,.83.83,0,1,1,1.66,0Zm.47,0a1.3,1.3,0,0,0-2.6,0,1.3,1.3,0,0,0,2.6,0"/><path id="path288" class="cls-1" d="M56.87,10.53v2.41h.46V11.66a.75.75,0,0,1,.79-.85c.32,0,.58.16.58.46v1.67h.46V11.07a.68.68,0,0,0-.46-.54,1.79,1.79,0,0,0-.47-.07,1.21,1.21,0,0,0-.57.11,1,1,0,0,0-.32.26h0v-.3h-.46"/><path id="path298" class="cls-2" d="M12.31,5.72l-4.2-4.2A2.66,2.66,0,0,0,5.82.77a7,7,0,1,0,8.09,7.12.3.3,0,0,0-.11-.23.62.62,0,0,0-.33,0H10.78a1.25,1.25,0,0,0-.34,0,.58.58,0,0,0-.12.08L7,11a.12.12,0,0,1-.19,0l-3.3-3.3a.13.13,0,0,1,0-.2l3.3-3.3a.12.12,0,0,1,.19,0l3,3a.86.86,0,0,0,.3.18c.14,0,.34-.1.34-.1l1.6-1.61"/><path id="path300" class="cls-2" d="M13.84,3.57,11.59,1.32A4.65,4.65,0,0,0,6.16.56S7.4-.1,9,1.56L12.7,5.31l1.1-1.09A1,1,0,0,0,14,3.9c0-.14-.12-.33-.12-.33"/><path id="path302" class="cls-1" d="M22.87,6.91H25V3.3H22.87Zm3.49-3.63V7.55H22.88v.79H21.51V7.55H18V3.28a.61.61,0,0,1,.61-.62h2.88V2h1.36v.67h2.88A.61.61,0,0,1,26.36,3.28Zm-7,3.63h2.12V3.3H19.39Z"/><path id="path304" class="cls-3" d="M22.87,6.91H25V3.3H22.87Zm3.49-3.63V7.55H22.88v.79H21.51V7.55H18V3.28a.61.61,0,0,1,.61-.62h2.88V2h1.36v.67h2.88A.61.61,0,0,1,26.36,3.28Zm-7,3.63h2.12V3.3H19.39Z"/><path id="path306" class="cls-1" d="M35.28,6.63h-1.8V5.14h1.7V4.51h-1.7v-.8h1.8V3.08h-5v.63h1.76v.8H30.42v.63h1.66V6.63H30.32v.62h5Zm1.06-4.7H29.26a.61.61,0,0,0-.61.62V8.34H37V2.55a.61.61,0,0,0-.61-.62ZM30,2.54h5.56v5.2H30Zm4.65,2.83h-1l.35.64a.79.79,0,0,0,.3.35,1,1,0,0,0,.45.07h.43V5.85H35l-.27-.48"/><path id="path308" class="cls-3" d="M35.28,6.63h-1.8V5.14h1.7V4.51h-1.7v-.8h1.8V3.08h-5v.63h1.76v.8H30.42v.63h1.66V6.63H30.32v.62h5Zm1.06-4.7H29.26a.61.61,0,0,0-.61.62V8.34H37V2.55a.61.61,0,0,0-.61-.62ZM30,2.54h5.56v5.2H30Zm4.65,2.83h-1l.35.64a.79.79,0,0,0,.3.35,1,1,0,0,0,.45.07h.43V5.85H35l-.27-.48Z"/><path id="path310" class="cls-1" d="M47.8,3.34h-.5V2.86a.63.63,0,0,0-.63-.63H45V1.86H43.67v.37H42v.64h1.71v.47H41.75V4h1.92v.44H42v.64h1.71v.47H41.82v.65h1.85v.45h-2V7.3h2v.45H42.34a2.56,2.56,0,0,1-1.4-.41A2.35,2.35,0,0,0,41.35,6V4.28h-.79a2.43,2.43,0,0,0,1-2.11H39v.66h1.51a1.78,1.78,0,0,1-1.41,1.47v.64h1.33v.94a1.66,1.66,0,0,1-.2.77,2.49,2.49,0,0,1-.43-1h-.71a3.1,3.1,0,0,0,.62,1.58,1.61,1.61,0,0,1-.72.27v.88a2.4,2.4,0,0,0,1.44-.48,3.12,3.12,0,0,0,1.73.52H47.7V7.75H45V7.3H47.3V6.64H45V6.19H47.3V5.54H45V5.07h2.36V4h.48V3.34ZM45,4h1v.44H45Zm0-1.12h1v.47H45Z"/><path id="path312" class="cls-4" d="M47.8,3.34h-.5V2.86a.63.63,0,0,0-.63-.63H45V1.86H43.67v.37H42v.64h1.71v.47H41.75V4h1.92v.44H42v.64h1.71v.47H41.82v.65h1.85v.45h-2V7.3h2v.45H42.34a2.56,2.56,0,0,1-1.4-.41A2.35,2.35,0,0,0,41.35,6V4.28h-.79a2.43,2.43,0,0,0,1-2.11H39v.66h1.51a1.78,1.78,0,0,1-1.41,1.47v.64h1.33v.94a1.66,1.66,0,0,1-.2.77,2.49,2.49,0,0,1-.43-1h-.71a3.1,3.1,0,0,0,.62,1.58,1.61,1.61,0,0,1-.72.27v.88a2.4,2.4,0,0,0,1.44-.48,3.12,3.12,0,0,0,1.73.52H47.7V7.75H45V7.3H47.3V6.64H45V6.19H47.3V5.54H45V5.07h2.36V4h.48V3.34ZM45,4h1v.44H45Zm0-1.12h1v.47H45Z"/><path id="path314" class="cls-5" d="M74.51,2.05H79.8v.66H74.51Z"/><path id="path316" class="cls-5" d="M73.4,4.77V8.42H72.11V5.76a6.73,6.73,0,0,1-.76.38l-.53-.84a6.22,6.22,0,0,0,2.8-2.55l.79.68a6.64,6.64,0,0,1-1,1.34Z"/><path id="path318" class="cls-5" d="M77.87,8.42A1.14,1.14,0,0,0,79,7.28V4.74h1V4.08H74.19v.66h3.42V7.39a.36.36,0,0,1-.37.37H75.72v.66Z"/><path id="path320" class="cls-5" d="M73.33,2.25A5.71,5.71,0,0,1,71,4.63l-.5-.87a5.81,5.81,0,0,0,2-2.18Z"/><path id="path322" class="cls-1" d="M52.59,6a9.8,9.8,0,0,1-1.12.93V3.52l-2.36,0v.64h1V7.49c-.36.11-.66.18-.66.18l.66.82A6.79,6.79,0,0,0,51.49,8a4.86,4.86,0,0,0,1.1-.78V6Zm1.95-2.6V2.57h1.85v.8c0,.3-.09,1.05,1.2,1.05h.8v-.6h-.21c-.51,0-.47-.18-.47-.33v-1a.6.6,0,0,0-.61-.6H53.24V3.47c0,.13,0,.37-.46.33h-.23v.61h.78c1.34.08,1.2-.75,1.21-1.05ZM56.76,7a7.8,7.8,0,0,0,1.6-1.49V4.71H52.48v.74h4.4a6.71,6.71,0,0,1-1.36,1.06,8.1,8.1,0,0,1-1.33-.85H52.61a8.56,8.56,0,0,0,1.7,1.41,6.59,6.59,0,0,1-1.89.35v1a7.56,7.56,0,0,0,3.12-.67,8.4,8.4,0,0,0,3.17.66v-1a8.86,8.86,0,0,1-2-.37ZM49.57,2.77h2.62V2.08H49.57Z"/><path id="path324" class="cls-3" d="M52.59,6a9.8,9.8,0,0,1-1.12.93V3.52l-2.36,0v.64h1V7.49c-.36.11-.66.18-.66.18l.66.82A6.79,6.79,0,0,0,51.49,8a4.86,4.86,0,0,0,1.1-.78V6Zm1.95-2.6V2.57h1.85v.8c0,.3-.09,1.05,1.2,1.05h.8v-.6h-.21c-.51,0-.47-.18-.47-.33v-1a.6.6,0,0,0-.61-.6H53.24V3.47c0,.13,0,.37-.46.33h-.23v.61h.78c1.34.08,1.2-.75,1.21-1.05ZM56.76,7a7.8,7.8,0,0,0,1.6-1.49V4.71H52.48v.74h4.4a6.71,6.71,0,0,1-1.36,1.06,8.1,8.1,0,0,1-1.33-.85H52.61a8.56,8.56,0,0,0,1.7,1.41,6.59,6.59,0,0,1-1.89.35v1a7.56,7.56,0,0,0,3.12-.67,8.4,8.4,0,0,0,3.17.66v-1a8.86,8.86,0,0,1-2-.37ZM49.57,2.77h2.62V2.08H49.57Z"/><path id="path326" class="cls-1" d="M66.65,7.11a2.57,2.57,0,0,1-1,.35V5.12H69V2.52a.62.62,0,0,0-.62-.62h-4V7.53h-.25v.88h.63a5.48,5.48,0,0,0,1.88-.34v-1Zm1.54,0a4.92,4.92,0,0,0,1.09-1.57h-1a3.65,3.65,0,0,1-.78,1l-.16-.21A2.36,2.36,0,0,1,67,5.54H66a6.62,6.62,0,0,0,.46,1.08,3.55,3.55,0,0,0,2.85,1.8V7.51a2.26,2.26,0,0,1-1.13-.41ZM65.61,4.48h2.14V3.84H65.61Zm0-1.29h2.14V2.54H65.61Z"/><path id="path328" class="cls-3" d="M66.65,7.11a2.57,2.57,0,0,1-1,.35V5.12H69V2.52a.62.62,0,0,0-.62-.62h-4V7.53h-.25v.88h.63a5.48,5.48,0,0,0,1.88-.34v-1Zm1.54,0a4.92,4.92,0,0,0,1.09-1.57h-1a3.65,3.65,0,0,1-.78,1l-.16-.21A2.36,2.36,0,0,1,67,5.54H66a6.62,6.62,0,0,0,.46,1.08,3.55,3.55,0,0,0,2.85,1.8V7.51a2.26,2.26,0,0,1-1.13-.41ZM65.61,4.48h2.14V3.84H65.61Zm0-1.29h2.14V2.54H65.61Z"/><path id="path330" class="cls-5" d="M62.49,7.32V5.81H64V5.16h-1.5V4.43h1.38V3.78H61.36a5.12,5.12,0,0,0,.5-.63H64V2.52H62.25a4.32,4.32,0,0,0,.3-.61l-.95-.34a4.56,4.56,0,0,1-1.83,2.28l.63.76c.1-.07.2-.12.29-.19h.71v.74h-.94v.65h1V7.62c-.21,0-.43,0-.65.06l.64.79a5,5,0,0,0,2.56-1V6.42a4.81,4.81,0,0,1-1.47.9Z"/></g></g></g></svg>