<svg id="Layer_1" data-name="Layer 1" xmlns="http://www.w3.org/2000/svg" viewBox="0 0 80 13.24"><defs><style>.cls-1{fill:#231f20;}.cls-2{fill:#6f2c90;}.cls-3{fill:#d1ab2b;}</style></defs><title>CEB</title><polygon class="cls-1" points="79.06 11.58 79.85 10.43 79.32 10.43 78.42 11.71 78.42 10.43 77.98 10.43 77.98 13.17 78.42 13.17 78.42 12.4 78.78 11.96 79.47 13.17 80 13.17 79.06 11.58"/><polygon class="cls-1" points="77.17 12.16 76.16 10.43 75.71 10.43 75.71 13.17 76.14 13.17 76.14 11.38 77.17 13.16 77.63 13.16 77.63 10.43 77.17 10.43 77.17 12.16"/><path class="cls-1" d="M83.94,47.58c-.62.7-1.22,1.28-1.22,1.28l.44,1,.57-.75v2.83h1V48.13l.77-1.06-.62-.73a15.09,15.09,0,0,1-1,1.24" transform="translate(-10 -43.37)"/><path class="cls-1" d="M84.21,46.49c.53-.51,1-1.09,1-1.09l-.59-.7s-.27.34-.82.9a8.76,8.76,0,0,1-1.14,1l.59.71s.63-.53.94-.83" transform="translate(-10 -43.37)"/><rect class="cls-1" x="76.17" y="1.88" width="3.28" height="0.91"/><path class="cls-1" d="M79.5,48.47a8.7,8.7,0,0,0,.7,1.86,9.34,9.34,0,0,0,1.51,1.56l.58-1.06a2.81,2.81,0,0,1-.93-.54.92.92,0,0,1-.25-.3l.88-.8-.74-.57-.54.66a1.08,1.08,0,0,1-.15-.35,2.35,2.35,0,0,1-.09-.44h1.09V45.2H78.2v5.89l-.21.12.52.76,1.64-1-.23-.83-.71.5V48.47ZM79.21,46h1.35v.51H79.21Zm0,1.29h1.35v.51H79.21Z" transform="translate(-10 -43.37)"/><polygon class="cls-1" points="67.79 6.49 67.08 7.01 67.08 6.21 67.99 6.21 67.99 5.37 67.08 5.37 67.08 4.83 67.73 4.83 67.73 3.99 65.68 3.99 65.68 4.83 66.14 4.83 66.14 5.37 65.26 5.37 65.26 6.21 66.14 6.21 66.14 7.46 65.82 7.64 66.24 8.6 67.99 7.35 67.79 6.49"/><path class="cls-1" d="M76.1,46.74h1.8v-.8H76.49l.58-.82-1-.41a4.17,4.17,0,0,1-.49,1.15,7.23,7.23,0,0,1-.8,1.13l.49,1Z" transform="translate(-10 -43.37)"/><path class="cls-1" d="M73.71,51.85l.82-.94a5.47,5.47,0,0,1-1.93-1.26,4.4,4.4,0,0,1-1-1.68h2.55V47H71.48V44.8H70.29V47H67.64V48h2.57a3.79,3.79,0,0,1-.92,1.89,6.27,6.27,0,0,1-2,1.28l.81.75A3.89,3.89,0,0,0,70,50.8a4.84,4.84,0,0,0,1-1.61,7.43,7.43,0,0,0,1,1.45,4.73,4.73,0,0,0,1.75,1.21" transform="translate(-10 -43.37)"/><polygon class="cls-1" points="52.34 3.54 51.12 1.83 50.29 2.41 51.52 4.11 52.34 3.54"/><polygon class="cls-1" points="55.98 2.41 55.16 1.83 53.93 3.54 54.75 4.12 55.98 2.41"/><path class="cls-1" d="M65.74,50a2.88,2.88,0,0,1-.17.58.38.38,0,0,1-.36.26h-.34a.26.26,0,0,1-.19-.09.27.27,0,0,1-.05-.2V48.7h1.79v-1h-2.7v-3H62.56v3H59.8v1h1.93a2.09,2.09,0,0,1-.44,1.59,3,3,0,0,1-1.76.7l.61,1a5.75,5.75,0,0,0,2-.87c.85-.6.81-2.42.81-2.42h.52v2.4a1.45,1.45,0,0,0,.24.51.92.92,0,0,0,.46.21h1.26a1.11,1.11,0,0,0,.82-.33,3.26,3.26,0,0,0,.38-.89Z" transform="translate(-10 -43.37)"/><path class="cls-1" d="M89,51.29V48.21h1v-1H85.72v1h2v2.53a.4.4,0,0,1-.1.23.24.24,0,0,1-.2.07h-.63l.32.94h.71a2.55,2.55,0,0,0,.86-.13c.2-.13.28-.56.28-.56" transform="translate(-10 -43.37)"/><path class="cls-1" d="M84,53.8l-.84,2.74h.46l.2-.58h.95l.17.58h.47L84.6,53.8Zm0,1.67.37-1.14.34,1.14Z" transform="translate(-10 -43.37)"/><path class="cls-1" d="M82.7,55.28a1.2,1.2,0,0,0-.16-.15l.06-.07.09-.13a.64.64,0,0,0,.08-.19.85.85,0,0,0,0-.23.91.91,0,0,0,0-.31.57.57,0,0,0-.15-.21.59.59,0,0,0-.19-.13.68.68,0,0,0-.27,0H80.78v2.73H82a1.15,1.15,0,0,0,.41-.06.58.58,0,0,0,.25-.17,1.23,1.23,0,0,0,.14-.25,1.31,1.31,0,0,0,.06-.27.78.78,0,0,0,0-.32l-.12-.19m-1.51-1h.89a.21.21,0,0,1,.16.06l.08.12a.58.58,0,0,1,0,.15.39.39,0,0,1-.06.2.23.23,0,0,1-.2.09h-.89v-.62Zm1.12,1.65a.19.19,0,0,1-.18.1h-.94V55.4h.94a.23.23,0,0,1,.18.09.32.32,0,0,1,.07.22.52.52,0,0,1-.07.23" transform="translate(-10 -43.37)"/><path class="cls-1" d="M65.79,54a.48.48,0,0,0-.24-.18.76.76,0,0,0-.3-.05H64v2.74h.46V55.47h.68l.15,0,.11.06.08.11,0,.15a1.12,1.12,0,0,1,0,.2v.52h.39V56a1.27,1.27,0,0,0,0-.2.88.88,0,0,0,0-.17l-.05-.16-.08-.12-.12-.1.13-.1a.47.47,0,0,0,.16-.22.63.63,0,0,0,0-.31,3,3,0,0,0,0-.33.67.67,0,0,0-.13-.27m-.27.73,0,.12-.12.1a.54.54,0,0,1-.24.05h-.69v-.74h.7l.19,0,.15.11a.33.33,0,0,1,.07.23Z" transform="translate(-10 -43.37)"/><polygon class="cls-1" points="66.58 10.95 67.36 10.95 67.36 13.17 67.81 13.17 67.81 10.95 68.61 10.95 68.61 10.43 66.58 10.43 66.58 10.95"/><polygon class="cls-1" points="65.81 11.47 64.65 11.47 64.65 10.43 64.23 10.43 64.23 13.17 64.65 13.17 64.65 11.97 65.81 11.97 65.81 13.17 66.22 13.17 66.22 10.43 65.81 10.43 65.81 11.47"/><path class="cls-1" d="M72.49,54.46a.64.64,0,0,1,.23-.16.71.71,0,0,1,.26,0,.63.63,0,0,1,.26.05.43.43,0,0,1,.16.14l.08.16,0,.16h.43l0-.2a.66.66,0,0,0-.08-.24,1,1,0,0,0-.2-.28,1,1,0,0,0-.29-.19,1.1,1.1,0,0,0-.84,0,1,1,0,0,0-.34.26,1.39,1.39,0,0,0-.29.67,1.42,1.42,0,0,0,0,.29,2.58,2.58,0,0,0,0,.42,1.14,1.14,0,0,0,.12.34c0,.1.11.19.16.27a.64.64,0,0,0,.19.18,1,1,0,0,0,.25.13.9.9,0,0,0,.34.06.47.47,0,0,0,.17,0l.19-.07.16-.09.08-.08v.27h.38V55.13h-.88v.43h.49l0,.1-.06.13-.1.12a.83.83,0,0,1-.17.11.68.68,0,0,1-.27,0,.55.55,0,0,1-.28-.07.55.55,0,0,1-.22-.23,1.1,1.1,0,0,1-.12-.31,1.22,1.22,0,0,1,0-.34,1.93,1.93,0,0,1,.06-.36,1,1,0,0,1,.17-.3" transform="translate(-10 -43.37)"/><rect class="cls-1" x="61.05" y="10.43" width="0.49" height="2.73"/><path class="cls-1" d="M70.52,54a.48.48,0,0,0-.24-.18A.81.81,0,0,0,70,53.8H68.68v2.74h.46V55.47h.68l.15,0,.11.06.08.11,0,.15a1.21,1.21,0,0,1,0,.2v.52h.39V56a1.27,1.27,0,0,0,0-.2.88.88,0,0,0,0-.17l0-.16-.08-.12-.12-.1.13-.1a.47.47,0,0,0,.16-.22.63.63,0,0,0,0-.31,3,3,0,0,0,0-.33.52.52,0,0,0-.11-.27m-.27.73,0,.12-.12.1a.54.54,0,0,1-.24.05h-.69v-.74h.7l.19,0,.15.11a.33.33,0,0,1,.07.23Z" transform="translate(-10 -43.37)"/><path class="cls-1" d="M68.22,55.28a2.11,2.11,0,0,0-.15-.15l.06-.07.08-.13a1.08,1.08,0,0,0,.08-.19.85.85,0,0,0,0-.23.91.91,0,0,0,0-.31.57.57,0,0,0-.15-.21.59.59,0,0,0-.19-.13.68.68,0,0,0-.27,0H66.3v2.73h1.22a1.15,1.15,0,0,0,.41-.06.58.58,0,0,0,.25-.17.85.85,0,0,0,.13-.25,1.31,1.31,0,0,0,.06-.27.78.78,0,0,0,0-.32.56.56,0,0,0-.11-.19m-1.51-1h.89a.2.2,0,0,1,.16.06l.07.12a.58.58,0,0,1,0,.15.39.39,0,0,1-.06.2.21.21,0,0,1-.19.09H66.7v-.62Zm1.13,1.65a.2.2,0,0,1-.18.1h-.94V55.4h.94a.23.23,0,0,1,.18.09.32.32,0,0,1,.07.22.52.52,0,0,1-.07.23" transform="translate(-10 -43.37)"/><polygon class="cls-1" points="50.26 12.56 49.57 10.43 49.07 10.43 49.98 13.17 50.54 13.17 51.28 10.43 50.78 10.43 50.26 12.56"/><polygon class="cls-1" points="46.7 13.17 48.72 13.17 48.72 12.69 47.13 12.69 47.13 12.02 48.52 12.02 48.52 11.53 47.13 11.53 47.13 10.91 48.72 10.91 48.72 10.43 46.7 10.43 46.7 13.17"/><path class="cls-1" d="M53.31,53.8l-.84,2.74h.45l.2-.58h1l.17.58h.47l-.79-2.74Zm-.06,1.67.37-1.14L54,55.47Z" transform="translate(-10 -43.37)"/><polygon class="cls-1" points="41.69 12.16 40.68 10.43 40.23 10.43 40.23 13.17 40.66 13.17 40.66 11.38 41.69 13.16 42.15 13.16 42.15 10.43 41.69 10.43 41.69 12.16"/><rect class="cls-1" x="39.39" y="10.43" width="0.48" height="2.74"/><polygon class="cls-1" points="38.6 11.48 37.44 11.48 37.44 10.43 37.02 10.43 37.02 13.18 37.44 13.18 37.44 11.98 38.6 11.98 38.6 13.18 39.02 13.18 39.02 10.43 38.6 10.43 38.6 11.48"/><path class="cls-1" d="M46.26,55.56a.76.76,0,0,1-.06.18,1.18,1.18,0,0,1-.11.19.69.69,0,0,1-.2.17.61.61,0,0,1-.34.06.67.67,0,0,1-.39-.15.76.76,0,0,1-.24-.36,1.25,1.25,0,0,1-.07-.45,1.51,1.51,0,0,1,.08-.45,1.13,1.13,0,0,1,.22-.36.59.59,0,0,1,.39-.17.6.6,0,0,1,.35.08.76.76,0,0,1,.23.17l.09.14.06.11h.48l0-.17a1,1,0,0,0-.1-.25,1.4,1.4,0,0,0-.16-.22,1.16,1.16,0,0,0-.2-.16,1.22,1.22,0,0,0-.28-.14,1.18,1.18,0,0,0-.4-.05,1.28,1.28,0,0,0-.43.1,1,1,0,0,0-.37.26,1.35,1.35,0,0,0-.26.38,1.69,1.69,0,0,0-.13.42,2,2,0,0,0,0,.36,2.18,2.18,0,0,0,0,.42,1.31,1.31,0,0,0,.17.4,2.32,2.32,0,0,0,.24.28,1.17,1.17,0,0,0,.3.19,1.11,1.11,0,0,0,.43.07,1.42,1.42,0,0,0,.42-.06,1,1,0,0,0,.35-.2,1.21,1.21,0,0,0,.34-.55c0-.07,0-.13.05-.18l0-.19h-.47Z" transform="translate(-10 -43.37)"/><path class="cls-1" d="M48.18,52V49.44h1.41v.25h1.2V46.21h-2.6V44.7H47v1.52H44.37v3.45h1.21v-.22H47V52h1.19Zm0-4.85h1.41v1.48H48.18Zm-2.61,0H47v1.48H45.57Z" transform="translate(-10 -43.37)"/><path class="cls-1" d="M53.27,51.58h4.31v.23h1V45H52.27v6.85h1Zm0-5.8h4.32v5H53.27Z" transform="translate(-10 -43.37)"/><polygon class="cls-1" points="45.81 5.07 47.09 5.07 47.09 4.24 45.81 4.24 45.81 3.62 47.27 3.62 47.27 2.8 43.59 2.8 43.59 3.62 44.92 3.62 44.92 4.24 43.77 4.24 43.77 5.07 44.92 5.07 44.92 6.23 43.39 6.23 43.39 7.06 47.47 7.06 47.47 6.23 45.81 6.23 45.81 5.07"/><polygon class="cls-1" points="46.18 5.52 46.6 6.16 47.27 5.75 46.85 5.11 46.18 5.52"/><polygon class="cls-1" points="51.61 13.16 53.64 13.16 53.64 12.68 52.05 12.68 52.05 12.01 53.43 12.01 53.43 11.53 52.05 11.53 52.05 10.9 53.64 10.9 53.64 10.42 51.61 10.42 51.61 13.16"/><path class="cls-2" d="M26.84,55.76V52.37a6.39,6.39,0,0,0-.06-1,1.91,1.91,0,0,0-.27-.69,1.85,1.85,0,0,0-.51-.49,2.23,2.23,0,0,0-.82-.31,5.19,5.19,0,0,0-1.09-.1,5.91,5.91,0,0,0-1.22.14,2.65,2.65,0,0,0-1,.48,1.5,1.5,0,0,0-.49.63,3.06,3.06,0,0,0-.21,1h1.79a.79.79,0,0,1,.19-.49,1.22,1.22,0,0,1,.71-.27,1.48,1.48,0,0,1,1,.25.57.57,0,0,1,.17.41.51.51,0,0,1-.2.43,4.41,4.41,0,0,1-.95.19,14.58,14.58,0,0,0-1.58.29,2.19,2.19,0,0,0-.84.4,1.47,1.47,0,0,0-.5.62,2.78,2.78,0,0,0-.15.95A1.67,1.67,0,0,0,21.34,56a1.94,1.94,0,0,0,1.52.6,4.57,4.57,0,0,0,1.37-.15,2.28,2.28,0,0,0,.81-.56l.11.71h2a2.26,2.26,0,0,1-.29-.83M25,54.18a1.24,1.24,0,0,1-.13.41,1.07,1.07,0,0,1-.38.35,3.79,3.79,0,0,1-1.23.39.69.69,0,0,1-.51-.16.57.57,0,0,1-.16-.43.63.63,0,0,1,.13-.41.9.9,0,0,1,.5-.26c.37-.09,1.35-.43,1.48-.48l.33-.13s0,.62,0,.72" transform="translate(-10 -43.37)"/><path class="cls-2" d="M27.54,50v6.6h1.78V52.94a1.68,1.68,0,0,1,.23-1,1.39,1.39,0,0,1,.81-.51c.24,0,.92,0,1.19.48a2.69,2.69,0,0,1,.09,1v3.65h1.79V52.46a3.18,3.18,0,0,0-.55-2,1.85,1.85,0,0,0-1.54-.68,2.17,2.17,0,0,0-1.13.25,2.39,2.39,0,0,0-.89.79V50Z" transform="translate(-10 -43.37)"/><polygon class="cls-2" points="25.9 9.12 28.03 6.42 30.16 6.42 28.14 9.1 30.42 13.22 28.33 13.22 26.92 10.56 25.9 11.8 25.9 13.22 24.15 13.22 24.15 4.01 25.91 4.01 25.9 9.12"/><path class="cls-3" d="M17.06,43.37H10V56.59h7.06a3.29,3.29,0,0,0,1.59-.4h-1.6v-.4h2.22a3.87,3.87,0,0,0,.41-.4H17.05V55H20l.23-.4H12v-.4h8.36c.05-.13.08-.26.12-.4H12v-.4h8.54c0-.12,0-.24,0-.36v0H12v-.4h8.53c0-.13,0-.27-.07-.4H12v-.4h8.33a2.87,2.87,0,0,0-.18-.4H12V51h7.91a4.31,4.31,0,0,0-.32-.4H16.17v-.4h3a3.21,3.21,0,0,0-.67-.4H16.17v-.4h1.52a2.92,2.92,0,0,0,1-.4H12v-.4h7.13a4.47,4.47,0,0,0,.34-.4H12v-.4h7.71c.06-.13.12-.26.17-.4H12V47h8a2.73,2.73,0,0,0,.05-.4H12v-.4h8c0-.14,0-.27-.05-.4H12v-.4h7.85a2.4,2.4,0,0,0-.17-.4H17.06v-.4h2.38a2.79,2.79,0,0,0-.37-.4h-2v-.4h1.4a2.38,2.38,0,0,0-1.39-.42" transform="translate(-10 -43.37)"/></svg>