<svg xmlns="http://www.w3.org/2000/svg" viewBox="0 0 80 13.25"><defs><style>.cls-1{fill:#231f20;}.cls-2{fill:#6f2c91;}.cls-3{fill:#d2ac2b;}</style></defs><title>CEB_china everbright_bank</title><g id="Layer_2" data-name="Layer 2"><g id="CEB_china_everbright_bank" data-name="CEB_china everbright_bank"><polygon class="cls-1" points="79.06 11.58 79.85 10.43 79.32 10.43 78.42 11.71 78.42 10.43 77.98 10.43 77.98 13.17 78.42 13.17 78.42 12.39 78.78 11.96 79.47 13.17 80 13.17 79.06 11.58"/><polygon class="cls-1" points="77.17 12.16 76.16 10.42 75.71 10.42 75.71 13.17 76.14 13.17 76.14 11.38 77.17 13.16 77.63 13.16 77.63 10.42 77.17 10.42 77.17 12.16"/><path class="cls-1" d="M73.94,4.21c-.62.7-1.22,1.28-1.22,1.28l.44,1,.57-.75V8.53h1V4.75l.77-1.06L74.91,3a11.08,11.08,0,0,1-1,1.25"/><path class="cls-1" d="M74.21,3.12c.53-.51,1-1.09,1-1.09l-.59-.71s-.27.34-.82.9a9.9,9.9,0,0,1-1.14,1l.59.71s.63-.52.94-.82"/><rect class="cls-1" x="76.17" y="1.88" width="3.28" height="0.91"/><path class="cls-1" d="M69.51,5.09A8.7,8.7,0,0,0,70.21,7a9.34,9.34,0,0,0,1.51,1.56l.57-1.06a2.81,2.81,0,0,1-.93-.54.92.92,0,0,1-.25-.3L72,5.8l-.74-.57-.54.66a1.08,1.08,0,0,1-.15-.35,3,3,0,0,1-.1-.45h1.1V1.83H68.19V7.72l-.2.12.52.77,1.64-1-.23-.84-.71.5V5.09Zm-.3-2.48h1.35v.52H69.21Zm0,1.29h1.35v.52H69.21Z"/><polygon class="cls-1" points="67.79 6.49 67.08 7.01 67.08 6.2 67.99 6.2 67.99 5.37 67.08 5.37 67.08 4.83 67.73 4.83 67.73 3.99 65.68 3.99 65.68 4.83 66.14 4.83 66.14 5.37 65.26 5.37 65.26 6.2 66.14 6.2 66.14 7.46 65.83 7.64 66.24 8.6 67.99 7.34 67.79 6.49"/><path class="cls-1" d="M66.1,3.36h1.8v-.8H66.49l.58-.82-1-.41a4.17,4.17,0,0,1-.49,1.15,7.23,7.23,0,0,1-.8,1.13l.49,1Z"/><path class="cls-1" d="M63.71,8.48l.82-.94A5.47,5.47,0,0,1,62.6,6.28a4.4,4.4,0,0,1-1-1.68h2.55V3.66H61.48V1.43H60.29V3.66H57.64V4.6H60.2a3.69,3.69,0,0,1-.92,1.89,6.27,6.27,0,0,1-2,1.28l.81.75A4,4,0,0,0,60,7.43a4.84,4.84,0,0,0,1-1.61,8.22,8.22,0,0,0,1,1.44,4.76,4.76,0,0,0,1.76,1.22"/><polygon class="cls-1" points="52.34 3.53 51.12 1.82 50.29 2.4 51.52 4.11 52.34 3.53"/><polygon class="cls-1" points="55.98 2.4 55.16 1.82 53.93 3.53 54.75 4.12 55.98 2.4"/><path class="cls-1" d="M55.74,6.63a3.51,3.51,0,0,1-.16.58.37.37,0,0,1-.36.25h-.34a.26.26,0,0,1-.19-.09.27.27,0,0,1,0-.2V5.33h1.79v-1h-2.7v-3H52.57v3H49.81v1h1.93a2,2,0,0,1-.44,1.59,3,3,0,0,1-1.77.71l.61,1a5.75,5.75,0,0,0,2-.87c.85-.59.81-2.41.81-2.41h.52V7.72a1.55,1.55,0,0,0,.24.52,1,1,0,0,0,.47.21h1.25a1.1,1.1,0,0,0,.82-.34,3.23,3.23,0,0,0,.38-.88Z"/><path class="cls-1" d="M79,7.92V4.84h1v-1H75.71v1h2V7.38a.36.36,0,0,1-.1.22.25.25,0,0,1-.2.07h-.63l.31.94h.71a2.55,2.55,0,0,0,.86-.13c.22-.13.3-.56.3-.56"/><path class="cls-1" d="M74,10.42l-.83,2.75h.45l.2-.58h.95l.18.58h.46l-.78-2.75Zm0,1.68L74.28,11l.35,1.14Z"/><path class="cls-1" d="M72.7,11.91l-.16-.16.06-.06.08-.13a.82.82,0,0,0,.09-.19.93.93,0,0,0,0-.24.71.71,0,0,0-.06-.31.93.93,0,0,0-.14-.22,1,1,0,0,0-.19-.12.54.54,0,0,0-.27-.05H70.78v2.73H72a1.53,1.53,0,0,0,.41-.05.57.57,0,0,0,.24-.17,1,1,0,0,0,.14-.25,1.31,1.31,0,0,0,.06-.27.74.74,0,0,0,0-.32.65.65,0,0,0-.1-.19m-1.51-1h.89a.21.21,0,0,1,.16.06l.08.12a.71.71,0,0,1,0,.16.33.33,0,0,1-.06.19.21.21,0,0,1-.2.09h-.88Zm1.12,1.65a.2.2,0,0,1-.18.1h-.94V12h.93a.25.25,0,0,1,.18.08.33.33,0,0,1,.07.23.44.44,0,0,1-.06.23"/><path class="cls-1" d="M55.79,10.66a.5.5,0,0,0-.23-.18,1.06,1.06,0,0,0-.31-.05H54v2.74h.45V12.1h.68l.15,0,.12.06.08.1,0,.16a1.21,1.21,0,0,1,0,.2v.52h.39v-.73a1,1,0,0,0,0-.17l-.05-.15L55.74,12l-.11-.09.13-.11a.57.57,0,0,0,.15-.21.68.68,0,0,0,.05-.32,1.66,1.66,0,0,0,0-.33.61.61,0,0,0-.13-.27m-.27.72,0,.13-.13.09a.43.43,0,0,1-.24.05h-.69v-.74h.71l.18,0,.15.11a.32.32,0,0,1,.07.23Z"/><polygon class="cls-1" points="66.58 10.95 67.36 10.95 67.36 13.17 67.81 13.17 67.81 10.95 68.61 10.95 68.61 10.43 66.58 10.43 66.58 10.95"/><polygon class="cls-1" points="65.81 11.47 64.65 11.47 64.64 10.42 64.23 10.42 64.23 13.17 64.64 13.17 64.65 11.97 65.81 11.97 65.81 13.17 66.22 13.17 66.22 10.42 65.81 10.42 65.81 11.47"/><path class="cls-1" d="M62.49,11.09a.51.51,0,0,1,.23-.16.75.75,0,0,1,.26,0,.65.65,0,0,1,.26,0,.54.54,0,0,1,.16.14l.08.16,0,.15h.43l0-.2a.62.62,0,0,0-.08-.23.92.92,0,0,0-.19-.28.75.75,0,0,0-.3-.18.9.9,0,0,0-.37-.07,1.35,1.35,0,0,0-.46.11,1,1,0,0,0-.34.26,1.08,1.08,0,0,0-.2.34,1.17,1.17,0,0,0-.09.33,1.43,1.43,0,0,0,0,.29,1.87,1.87,0,0,0,0,.42,1.13,1.13,0,0,0,.11.34,1.78,1.78,0,0,0,.17.27.8.8,0,0,0,.19.18.89.89,0,0,0,.24.13.93.93,0,0,0,.34.06h.17a1.32,1.32,0,0,0,.19-.08.45.45,0,0,0,.16-.09l.09-.08v.27h.38V11.75h-.88v.43h.48l0,.1-.06.14-.1.12a.74.74,0,0,1-.16.11.57.57,0,0,1-.27,0,.55.55,0,0,1-.28-.07.49.49,0,0,1-.22-.23,1.58,1.58,0,0,1-.13-.31,1.23,1.23,0,0,1,0-.34,1,1,0,0,1,.06-.36.81.81,0,0,1,.16-.29"/><rect class="cls-1" x="61.05" y="10.43" width="0.49" height="2.73"/><path class="cls-1" d="M60.52,10.66a.48.48,0,0,0-.24-.18.94.94,0,0,0-.3-.05H58.69v2.74h.46V12.1h.68l.15,0,.12.06.08.1,0,.16a.62.62,0,0,1,0,.2v.52h.39v-.53a1.27,1.27,0,0,0,0-.2,1,1,0,0,0,0-.17l-.06-.15L60.47,12l-.12-.09.13-.11a.49.49,0,0,0,.16-.21.83.83,0,0,0,0-.32,1.66,1.66,0,0,0,0-.33.75.75,0,0,0-.13-.27m-.27.72,0,.13-.12.09a.43.43,0,0,1-.24.05h-.69v-.74h.7l.19,0,.15.11a.32.32,0,0,1,.07.23Z"/><path class="cls-1" d="M58.22,11.91a.71.71,0,0,0-.15-.16l.06-.06.08-.13.09-.19a1.72,1.72,0,0,0,0-.24.72.72,0,0,0-.21-.53.76.76,0,0,0-.19-.12.54.54,0,0,0-.27-.05H56.3v2.73h1.22a1.55,1.55,0,0,0,.42-.05.74.74,0,0,0,.24-.17,1,1,0,0,0,.14-.25.86.86,0,0,0,0-.27.63.63,0,0,0,0-.32.48.48,0,0,0-.11-.19m-1.51-1h.9a.21.21,0,0,1,.16.06l.07.12a.63.63,0,0,1,0,.16.42.42,0,0,1-.06.19.21.21,0,0,1-.2.09h-.89Zm1.13,1.65a.21.21,0,0,1-.18.1h-.95V12h.94a.25.25,0,0,1,.18.08.33.33,0,0,1,.07.23.44.44,0,0,1-.06.23"/><polygon class="cls-1" points="50.26 12.56 49.57 10.42 49.07 10.42 49.98 13.17 50.54 13.17 51.28 10.42 50.78 10.42 50.26 12.56"/><polygon class="cls-1" points="46.7 13.17 48.72 13.17 48.72 12.68 47.13 12.68 47.13 12.02 48.52 12.02 48.52 11.53 47.13 11.53 47.13 10.91 48.72 10.91 48.72 10.42 46.7 10.42 46.7 13.17"/><path class="cls-1" d="M43.31,10.42l-.84,2.75h.46l.2-.58h.95l.17.58h.47l-.79-2.75Zm-.06,1.68L43.62,11,44,12.1Z"/><polygon class="cls-1" points="41.69 12.16 40.68 10.42 40.23 10.42 40.23 13.17 40.66 13.17 40.66 11.38 41.69 13.16 42.15 13.16 42.15 10.42 41.69 10.42 41.69 12.16"/><rect class="cls-1" x="39.39" y="10.42" width="0.48" height="2.74"/><polygon class="cls-1" points="38.6 11.47 37.44 11.47 37.44 10.42 37.02 10.42 37.02 13.18 37.44 13.18 37.44 11.97 38.6 11.97 38.6 13.18 39.02 13.18 39.02 10.42 38.6 10.42 38.6 11.47"/><path class="cls-1" d="M36.26,12.18a.82.82,0,0,1-.06.19,1.18,1.18,0,0,1-.11.19.69.69,0,0,1-.2.17.55.55,0,0,1-.34.06.65.65,0,0,1-.39-.15.76.76,0,0,1-.24-.36,1.07,1.07,0,0,1-.06-.45,1.25,1.25,0,0,1,.07-.45,1,1,0,0,1,.22-.35.6.6,0,0,1,.39-.18.6.6,0,0,1,.35.08.8.8,0,0,1,.23.17l.09.14,0,.12h.49l0-.18a.54.54,0,0,0-.1-.24.83.83,0,0,0-.15-.22,1.16,1.16,0,0,0-.2-.16,1.22,1.22,0,0,0-.28-.14,1,1,0,0,0-.4-.05,1.28,1.28,0,0,0-.43.1,1.1,1.1,0,0,0-.36.26,1.26,1.26,0,0,0-.27.38,1.87,1.87,0,0,0-.13.42c0,.11,0,.23,0,.36a2.37,2.37,0,0,0,.05.43,1.15,1.15,0,0,0,.17.39,1.11,1.11,0,0,0,.24.28,1.17,1.17,0,0,0,.3.19,1.14,1.14,0,0,0,.43.07,1.42,1.42,0,0,0,.42-.06.81.81,0,0,0,.35-.2,1,1,0,0,0,.23-.29.86.86,0,0,0,.11-.26.7.7,0,0,0,0-.18l0-.19h-.47Z"/><path class="cls-1" d="M38.18,8.61V6.07h1.41v.25h1.2V2.84h-2.6V1.32H37V2.84H34.37V6.29h1.2V6.07H37V8.61Zm0-4.85h1.41V5.23H38.18Zm-2.61,0H37V5.23H35.57Z"/><path class="cls-1" d="M43.27,8.21h4.32v.23h1V1.59H42.28V8.44h1Zm0-5.8h4.32v5H43.27Z"/><polygon class="cls-1" points="45.81 5.06 47.09 5.06 47.09 4.24 45.81 4.24 45.81 3.62 47.27 3.62 47.27 2.8 43.59 2.8 43.59 3.62 44.92 3.62 44.92 4.24 43.77 4.24 43.77 5.06 44.92 5.06 44.92 6.23 43.39 6.23 43.39 7.05 47.47 7.05 47.47 6.23 45.81 6.23 45.81 5.06"/><polygon class="cls-1" points="46.18 5.52 46.59 6.16 47.27 5.75 46.85 5.11 46.18 5.52"/><polygon class="cls-1" points="51.61 13.16 53.64 13.16 53.64 12.67 52.05 12.67 52.05 12.01 53.43 12.01 53.43 11.52 52.05 11.52 52.05 10.9 53.64 10.9 53.64 10.41 51.61 10.41 51.61 13.16"/><path class="cls-2" d="M16.84,12.39V9a5.34,5.34,0,0,0-.06-1,1.91,1.91,0,0,0-.27-.69A1.69,1.69,0,0,0,16,6.82a2.42,2.42,0,0,0-.82-.32,5.87,5.87,0,0,0-1.09-.1,5.43,5.43,0,0,0-1.22.15,2.57,2.57,0,0,0-1,.47,1.69,1.69,0,0,0-.5.63,2.84,2.84,0,0,0-.2,1h1.79a.69.69,0,0,1,.19-.49,1.29,1.29,0,0,1,.7-.27,1.53,1.53,0,0,1,1,.24.54.54,0,0,1,.17.41.5.5,0,0,1-.2.43,4.41,4.41,0,0,1-.95.19,11.82,11.82,0,0,0-1.58.3,2.19,2.19,0,0,0-.84.39,1.51,1.51,0,0,0-.5.63,2.74,2.74,0,0,0-.14.95,1.61,1.61,0,0,0,.52,1.18,1.92,1.92,0,0,0,1.51.61,4.54,4.54,0,0,0,1.37-.15,2.31,2.31,0,0,0,.82-.56l.1.71h2a2.53,2.53,0,0,1-.28-.83M15,10.81a.9.9,0,0,1-.13.41,1,1,0,0,1-.37.35,4,4,0,0,1-1.23.4.7.7,0,0,1-.51-.17.57.57,0,0,1-.16-.42.69.69,0,0,1,.12-.41.94.94,0,0,1,.5-.27c.37-.09,1.35-.43,1.48-.47l.33-.14s0,.61,0,.72"/><path class="cls-2" d="M17.54,6.62v6.6h1.78V9.57a1.63,1.63,0,0,1,.22-1,1.47,1.47,0,0,1,.82-.52c.24,0,.91,0,1.19.48a2.69,2.69,0,0,1,.09,1v3.65h1.78V9.09a3.11,3.11,0,0,0-.55-2,1.85,1.85,0,0,0-1.53-.68,2.19,2.19,0,0,0-1.13.25,2.48,2.48,0,0,0-.89.79V6.62Z"/><polygon class="cls-2" points="25.9 9.12 28.03 6.41 30.16 6.42 28.14 9.1 30.41 13.22 28.33 13.22 26.92 10.55 25.9 11.8 25.9 13.22 24.15 13.22 24.15 4 25.91 4 25.9 9.12"/><path class="cls-3" d="M7.06,0H0V13.22H7.06a3.41,3.41,0,0,0,1.59-.4H7.06v-.41H9.27a2.59,2.59,0,0,0,.41-.4H7.06v-.4H10a2.6,2.6,0,0,0,.23-.4H2v-.4h8.36c0-.13.08-.26.12-.4H2V10h8.54c0-.12,0-.24,0-.36v0H2v-.4h8.53c0-.13,0-.27-.07-.4H2v-.4h8.33a2.87,2.87,0,0,0-.18-.4H2v-.4H9.94a4.31,4.31,0,0,0-.32-.4H6.18v-.4h3a3.49,3.49,0,0,0-.67-.4H6.18V6H7.69a3.15,3.15,0,0,0,1-.4H2v-.4H9.16a4.12,4.12,0,0,0,.33-.4H2v-.4H9.74A2.9,2.9,0,0,0,9.9,4H2V3.6h8a2.85,2.85,0,0,0,0-.41H2V2.8h8A2.76,2.76,0,0,0,10,2.4H2V2H9.87a2.28,2.28,0,0,0-.17-.4H7.06V1.2H9.44A2.79,2.79,0,0,0,9.07.8h-2V.4H8.45A2.52,2.52,0,0,0,7.06,0"/></g></g></svg>