<svg id="Layer_1" data-name="Layer 1" xmlns="http://www.w3.org/2000/svg" viewBox="0 0 80 13.92"><defs><style>.cls-1{fill:#e7b809;}.cls-2,.cls-5{fill:#007639;}.cls-3{fill:#0060ae;}.cls-4{fill:#f26f21;}.cls-5{fill-rule:evenodd;}</style></defs><title>CIB</title><path class="cls-1" d="M22.44,47h0a.41.41,0,0,0-.3,0,14.72,14.72,0,0,0-1.63,0h-.9l-2.33-.05c-.55,0-1.15,0-1.73,0l-1.29,0-2.15,0h-.54a.21.21,0,0,0-.17.2.11.11,0,0,0,.11.11H13.7c.53-.05,1.06-.05,1.57-.05h1.06a.55.55,0,0,0,.22,0h0l.1,0a1.1,1.1,0,0,0,.26,0,1.23,1.23,0,0,1,.27,0h0a.37.37,0,0,1,.21,0h.11a22,22,0,0,1,2.32.08l.43,0h0a6.55,6.55,0,0,1,1.17,0h0c.29,0,.56,0,.84,0h0l.14-.12h0a.2.2,0,0,0,0-.26" transform="translate(-10 -43.04)"/><path class="cls-2" d="M18.59,51.92h0V51h0a3.24,3.24,0,0,1,0-.45,4.45,4.45,0,0,0,0-.53,3.66,3.66,0,0,0-.1-.73l0-.17v0h0a.22.22,0,0,1-.06-.13.35.35,0,0,0-.05-.13,1.83,1.83,0,0,0-.24-.31h0s-.05,0-.07-.06l0,0,0,0h0a.8.8,0,0,0-.23-.11h0a.13.13,0,0,0-.1,0h0l-.2,0h0l0,0h-.05l-.06,0h-.05l-.11,0v0l-.1,0h-.25v.05h0a.15.15,0,0,0-.12,0h0l-.09,0h-.05v0l-.11.06-.07,0h0l0,0h-.07v.05h0l0,0,0,0a1.14,1.14,0,0,1-.15.17,1.92,1.92,0,0,0-.18.22l0,0v0a.16.16,0,0,0,0,.06.11.11,0,0,0,0,.09v0a.18.18,0,0,0,0,.09s0,0,0,0l0,0h0a.17.17,0,0,0,0,.07v0h0v0a.55.55,0,0,1,0,.18.59.59,0,0,0,0,.19.11.11,0,0,0,0,.11v0l0,0,0,0s0,.08,0,.12a.22.22,0,0,0,0,.14h0s0,0,0,0v0l0,0v0l0,0v.08s0,0,0,.06l0,0,0,0h0a.16.16,0,0,0,0,.09v0h-.05l0,.07v0a.09.09,0,0,0,0,.1.11.11,0,0,0,0,.1s0,0,0,0,0,.11,0,.15a.12.12,0,0,0,0,.1l-.06,0,.06.07a.11.11,0,0,0,0,0l0,0h0l0,.06h0a.1.1,0,0,0,0,.09,0,0,0,0,0,0,0l0,0,0,0s0,.06,0,.12a.25.25,0,0,0,0,.17l0,0,0,0h0a.11.11,0,0,0,0,.1h0s0,.05,0,.09a.38.38,0,0,0,0,.18v.06h0a.07.07,0,0,0,0,.06h0v0a.76.76,0,0,1,0,.16.42.42,0,0,0,.1.33l0,0h0a.13.13,0,0,0,.08-.13v0h0a1,1,0,0,1,0-.35s0-.06,0-.09h0a.19.19,0,0,1,0-.13.34.34,0,0,0,0-.14,5.29,5.29,0,0,0,0-.69c0-.09,0-.18,0-.26h0c0-.11,0-.22,0-.33a2.8,2.8,0,0,0,0-.29,1.62,1.62,0,0,0,0-.31V50.3h0a.09.09,0,0,0,0-.08.45.45,0,0,0,0-.11.15.15,0,0,1,0-.07h0s0,0,0-.08a.14.14,0,0,0,0-.11.82.82,0,0,0,.06-.27v0a.07.07,0,0,0,0-.06h0a.21.21,0,0,1,0-.12.44.44,0,0,0,.07-.17h0s.05,0,.05-.08v0a.35.35,0,0,0,.08-.1.18.18,0,0,1,.11-.1h0v0s0-.05.08-.08a.35.35,0,0,0,.1-.08.1.1,0,0,0,.07,0,.39.39,0,0,0,.11-.06c.05,0,.06,0,.09,0h0l0,0h0a.06.06,0,0,0,.05,0H17a.54.54,0,0,1,.38,0l0,0,0,0,0,0s.08.09.15.08l0,0h0a.14.14,0,0,0,.11.05.56.56,0,0,1,.17.27V49h0a.37.37,0,0,0,.09.2.27.27,0,0,0,0,.09v.06l0,0h0a.14.14,0,0,0,0,.09s0,0,0,0v0c0,.09,0,.13,0,.16h0s0,0,0,.07v0l0,0h0s0,0,0,0l0,0v0l0,0h0a.43.43,0,0,0,0,.05h0v0a.35.35,0,0,0,0,.28h0a.1.1,0,0,0,0,.09v.08h0v.08h0v.06a.15.15,0,0,1,0,.07h0s0,.11,0,.15v0a.05.05,0,0,0,0,0h0v0a0,0,0,0,0,0,0h0v0h0l0,0a.07.07,0,0,0,0,.06l0,0a0,0,0,0,0,0,0,.15.15,0,0,0,.06.15l0,0h0l0,.07h0l0,0v.06h0a.06.06,0,0,0,0,.06h0a.08.08,0,0,0,0,.07v0h0s0,0,0,0l0,0h0l.07,0a.17.17,0,0,0,0,.05s0,0,0,0H18.3v.07s0,0,0,0a.06.06,0,0,0,0,0v.11h0v.12l-.05,0,.05.06h0s0,0,0,.06H18.2l.07.08s0,0,0,0h0s0,.07,0,.09v0h0l0,0,0,0a.09.09,0,0,0,0,0h-.07l.05,0-.05,0,0,0v.13s0,0,0,0h0a.08.08,0,0,0,.08,0v.06l.06,0a.26.26,0,0,1,.12,0h.05v0a3.9,3.9,0,0,0,0-.59,3.09,3.09,0,0,1,0-.53c0-.05,0-.09,0-.1" transform="translate(-10 -43.04)"/><path class="cls-3" d="M14.73,51.92h0V51h0a3.24,3.24,0,0,1,0-.45,4.45,4.45,0,0,0,0-.53,3.66,3.66,0,0,0-.1-.73l0-.17v0h0a.22.22,0,0,1-.06-.13.35.35,0,0,0-.05-.13,1.83,1.83,0,0,0-.24-.31h0s0,0-.07-.06l0,0,0,0h0a.8.8,0,0,0-.23-.11h0a.13.13,0,0,0-.1,0h0l-.2,0h0l0,0h-.05l-.06,0h-.05l-.08,0v0l-.1,0h-.28v0h0a.15.15,0,0,0-.12,0h0l-.09,0h-.05v0l-.11.06-.07,0h0l0,0h-.07v0h0l0,0,0,0a1.14,1.14,0,0,1-.15.17,1.92,1.92,0,0,0-.18.22l0,0v0a.16.16,0,0,0-.05.06.18.18,0,0,0,0,.09v0a.18.18,0,0,0,0,.09s0,0,0,0l0,0h0a.17.17,0,0,0,0,.07v0h0v0a.55.55,0,0,1,0,.18.59.59,0,0,0,0,.19.14.14,0,0,0,0,.11v0l0,0,0,0s0,.08,0,.12a.22.22,0,0,0,0,.14h0s0,0,0,0v0l0,.05v0l0,0v.08s0,.05,0,.06l0,0,0,0h0a.16.16,0,0,0,0,.09v0h0l0,.07v0a.12.12,0,0,0,0,.1.33.33,0,0,0,0,.1v0a.12.12,0,0,0,0,.15.12.12,0,0,0,0,.1l-.06,0,.06.07a.11.11,0,0,0,0,0l0,0h0l0,.06h0a.1.1,0,0,0,0,.09,0,0,0,0,0,0,0l0,0,0,0s0,.06,0,.12a.25.25,0,0,0,0,.17l0,0,0,0h0a.09.09,0,0,0,0,.1h0s0,.05,0,.09a.38.38,0,0,0,0,.18v.06h0a.07.07,0,0,0,0,.06h0v0a.7.7,0,0,1,0,.16.42.42,0,0,0,.1.33l0,0h0a.13.13,0,0,0,.08-.13v0h0a1,1,0,0,1,0-.35s0-.06,0-.09h0a.19.19,0,0,1,0-.13.23.23,0,0,0,0-.14,5.29,5.29,0,0,0,0-.69c0-.09,0-.18,0-.26h0a1.82,1.82,0,0,1,0-.33v-.29a1.62,1.62,0,0,0,0-.31v-.14h0a.09.09,0,0,0,0-.08.45.45,0,0,0,0-.11.15.15,0,0,1,0-.07h0a.12.12,0,0,1,0-.08.14.14,0,0,0,0-.11.82.82,0,0,0,.06-.27v0a.07.07,0,0,0,0-.06h0a.21.21,0,0,1,0-.12.44.44,0,0,0,.07-.17h0s.05,0,.05-.08v0l.08-.1a.18.18,0,0,1,.11-.1h0v0s0,0,.08-.08a.35.35,0,0,0,.1-.08.1.1,0,0,0,.07,0,.39.39,0,0,0,.11-.06s.06,0,.09,0h0l0,0h0a.07.07,0,0,0,.06,0h.22a.54.54,0,0,1,.38,0l0,0,0,0s0,0,0,0,.08.09.15.08l.05,0h0a.14.14,0,0,0,.11,0,.56.56,0,0,1,.17.27v0h0a.36.36,0,0,0,.08.2s0,.07,0,.09v.06l0,0h0a.24.24,0,0,0,0,.09s0,0,0,0v0c0,.09,0,.13,0,.16h0s0,0,0,.07v0l0,0h0v0l0,0h0l0,0h0a.43.43,0,0,0,0,0h0v0a.39.39,0,0,0,0,.28h0a.1.1,0,0,0,0,.09v.08h0v.08h0s0,0,0,.06a.15.15,0,0,1,0,.07h0a.36.36,0,0,0,0,.15,0,0,0,0,0,0,0,.05.05,0,0,0,0,0h0v0s0,0,0,0h0v0h0l0,0a.07.07,0,0,0,0,.06l0,0a0,0,0,0,0,0,0,.15.15,0,0,0,.06.15l0,0h0l0,.07h0l0,0v.06h0a.06.06,0,0,0,0,.06h0s0,0,0,.07v.05h0s0,0,0,0l0,0h0l.07,0s0,0,0,.05v0h-.07v.07a0,0,0,0,0,0,0,.06.06,0,0,0,0,0v.11h0v.12l0,0,.06.06h0a.13.13,0,0,0,0,.06h0l.07.08s0,0,0,0h0a.12.12,0,0,0,0,.09,0,0,0,0,1,0,0h0l0,0,0,0a0,0,0,0,0,0,0H14.3l0,.05,0,0,0,0v.13s0,0,0,0h0a.08.08,0,0,0,.08,0v.06l.06,0a.26.26,0,0,1,.12,0h0v0a3.92,3.92,0,0,0,0-.59,3.05,3.05,0,0,1,0-.53.06.06,0,0,0,0-.07" transform="translate(-10 -43.04)"/><path class="cls-4" d="M22.39,52h0V51h0a3.24,3.24,0,0,1,0-.45,4.58,4.58,0,0,0,0-.53,3.66,3.66,0,0,0-.1-.73l0-.17v0h0a.22.22,0,0,1-.06-.14.35.35,0,0,0-.05-.13,1.83,1.83,0,0,0-.24-.31h0s-.05,0-.07-.06,0,0,0,0l0,0h0a.61.61,0,0,0-.23-.11h0a.14.14,0,0,0-.1,0v0h0l-.2,0h0l0,0s0,0-.05,0l-.06,0H20.8v0l-.1,0h-.25l0,.05h0a.15.15,0,0,0-.12,0h0l-.09,0h0v0l-.11.06-.07,0h0l0,0h-.07v.05h0l0,0,0,0a1.14,1.14,0,0,1-.15.17,1.92,1.92,0,0,0-.18.22l0,0v0a.16.16,0,0,0-.05.06.18.18,0,0,0,0,.09v0s0,.07,0,.09,0,0,0,0l0,0h0a.17.17,0,0,0,0,.07v0h0v0a.62.62,0,0,1,0,.19,1.15,1.15,0,0,0,0,.19.14.14,0,0,0,0,.11v0l0,0,0,0s0,.08,0,.12a.23.23,0,0,0,0,.14h0s0,0,0,0,0,0,0,0l0,.05v0l0,0v.08s0,.05,0,.06l0,0,0,0h0a.16.16,0,0,0,0,.09v0H19.2l.06.08v0a.15.15,0,0,0,0,.09s0,.08,0,.11v0c-.05,0,0,.11,0,.15a.12.12,0,0,0,0,.1l-.06,0,.06.06a.11.11,0,0,0,0,0l0,0h0l0,.06h0a.12.12,0,0,0,0,.1,0,0,0,0,0,0,0l0,0,0,0s0,.06,0,.12a.25.25,0,0,0,0,.17l0,0,0,0h0a.11.11,0,0,0,0,.1h0s0,0,0,.09a.33.33,0,0,0,0,.17v.06h0a.06.06,0,0,0,0,.06h0v0a.81.81,0,0,1,0,.16.42.42,0,0,0,.1.33l0,0h0a.12.12,0,0,0,.08-.13v0h0a1,1,0,0,1,0-.35s0-.06,0-.09h0a.28.28,0,0,1,0-.13.33.33,0,0,0,0-.14,5.14,5.14,0,0,0,0-.68c0-.09,0-.18,0-.26h0c0-.1,0-.22,0-.33a2.8,2.8,0,0,0,0-.29,1.56,1.56,0,0,0,0-.31v-.15h0a.09.09,0,0,0,0-.08.45.45,0,0,0,0-.11.15.15,0,0,1,0-.07h0a.12.12,0,0,1,0-.08.14.14,0,0,0,0-.11.82.82,0,0,0,.06-.27v0a.14.14,0,0,0,0-.06h0a.24.24,0,0,1,0-.12.44.44,0,0,0,.07-.17h0s.05,0,.05-.08v0a.35.35,0,0,0,.08-.1.19.19,0,0,1,.1-.1h0v0s0,0,.08-.08a.35.35,0,0,0,.1-.08.1.1,0,0,0,.07,0,.39.39,0,0,0,.11-.06c.05,0,.06,0,.09,0h0l0,0h0a.09.09,0,0,0,.06,0h.22a.6.6,0,0,1,.38,0l0,0,0,0v0s.08.09.15.08,0,0,.05,0h0s.07,0,.11,0a.65.65,0,0,1,.17.27v0h0a.36.36,0,0,0,.08.2.27.27,0,0,0,0,.09s0,0,0,0v0l0,0h0a.24.24,0,0,0,0,.09s0,0,0,0v0a.12.12,0,0,0,0,.16h0s0,0,0,.07v0l0,0h0s0,0,0,0l0,0v0H22a.43.43,0,0,0,0,.05h0v0a.39.39,0,0,0,0,.28h0a.18.18,0,0,0,0,.1v.08h0v.08h0v.06a.15.15,0,0,1,0,.07h0a.19.19,0,0,0,0,.15,0,0,0,0,0,0,0,.05.05,0,0,0,0,0h0v0a0,0,0,0,0,0,0h0v0h0l0,0a.07.07,0,0,0,0,.06l0,0a0,0,0,0,0,0,0,.15.15,0,0,0,.06.15l0,0h0l0,.06h0l0,0v.06h0a.06.06,0,0,0,0,.06h0s0,0,0,.07v0h0v0l0,.05h0l.07,0a.17.17,0,0,0,0,.05v0H22v.07a0,0,0,0,0,0,0,.06.06,0,0,0,0,0v.1h0v.12l-.05,0,.06.06h0a.11.11,0,0,0,0,.06H22l.07.08,0,0h0s0,.07,0,.09v0h0l0,0,0,0a.09.09,0,0,0,0,.05H22l.06,0L22,53l0,0v.14a.05.05,0,0,0,0,0h0a.08.08,0,0,0,.08,0v.06l.07,0a.26.26,0,0,1,.12,0h.05v-.05a3.92,3.92,0,0,0,0-.59,3.11,3.11,0,0,1,0-.53.09.09,0,0,0,0-.08" transform="translate(-10 -43.04)"/><path class="cls-4" d="M23.18,56.22H10.73V43.78H23.18ZM23.92,43H10V57H23.92Z" transform="translate(-10 -43.04)"/><path class="cls-2" d="M59.68,52.69a1.51,1.51,0,0,1-1.57,1.66,2.23,2.23,0,0,1-1-.16c-.42-.17-.45-.39-.45-1.25V49.86c0-.07,0-.09.07-.09h.56a1.93,1.93,0,0,1,1.08.31,3.14,3.14,0,0,1,1.26,2.6m-4.53-1.56c0,1.2,0,2.22-.06,2.77-.05.38-.12.66-.37.72a2.59,2.59,0,0,1-.47.05c-.16,0-.21,0-.21.1s.09.13.26.13c.52,0,1.34,0,1.63,0s1.57.08,1.88.08c2.39,0,3.47-1.44,3.47-2.83a3.18,3.18,0,0,0-2.37-2.81A2.82,2.82,0,0,0,60.24,47c0-.69-.41-2-2.77-2-.44,0-.95,0-1.58,0-.26,0-1.08,0-1.77,0-.2,0-.29,0-.29.12s.08.12.22.12a2.45,2.45,0,0,1,.51,0c.43.09.53.3.56.74s0,.78,0,2.76Zm1.56-5.27c0-.14,0-.19.12-.22a1.85,1.85,0,0,1,.43,0c1.12,0,1.62,1.14,1.62,2A1.72,1.72,0,0,1,58.35,49a1.35,1.35,0,0,1-.94.25,2.85,2.85,0,0,1-.61,0s-.09,0-.09-.14Z" transform="translate(-10 -43.04)"/><path class="cls-2" d="M79.55,45.18c-.64,0-1.13,0-1.27,0s-.89,0-1.56,0c-.19,0-.34,0-.34.12s.05.12.2.12a2.1,2.1,0,0,1,.69.08c.31.13.43.37.44,1.16l.13,5.8h-.06c-.22-.2-2-2.07-2.84-2.94-1.89-1.87-3.85-4-4-4.15s-.33-.4-.48-.4-.17.18-.17.44l-.12,7.65c0,1.12-.14,1.6-.4,1.6-.49,0-.64-.32-1.08-1.39-.83-2-2.89-7.23-3.21-7.94-.13-.3-.21-.41-.32-.41s-.21.14-.36.52l-3.24,8.11c-.26.64-.51,1.08-1.1,1.16a1.52,1.52,0,0,1-.23,0c-.1,0-.15,0-.15.11s.08.13.25.13c.67,0,1.21,0,1.35,0,.4,0,1,0,1.37,0,.14,0,.22,0,.22-.13s0-.11-.19-.11h-.19c-.4,0-.52-.17-.52-.4a2.71,2.71,0,0,1,.19-.79l.7-1.85c0-.08.05-.1.12-.1h2.88a.14.14,0,0,1,.13.09l1,2.74a.22.22,0,0,1-.12.3c-.13,0-.18,0-.18.12s.16.09.39.1c1,0,2,0,2.44,0h2.32c.18,0,.3,0,.3-.13s-.08-.1-.22-.1a2,2,0,0,1-.67-.09c-.26-.09-.43-.43-.45-1.44l-.14-5.42h0c.23.25,1.66,1.86,3.07,3.26s3,3,3.81,3.8c.14.14.3.28.44.28s.17-.11.17-.4l.14-8.15c0-.72.12-1,.48-1.1a1.4,1.4,0,0,1,.39,0c.15,0,.23,0,.23-.12s-.15-.12-.31-.12M66,50.94H63.62s-.07,0,0-.09l1.19-3.18c0-.05,0-.12.08-.12s0,.07.06.12l1.16,3.19S66.07,50.94,66,50.94Z" transform="translate(-10 -43.04)"/><path class="cls-5" d="M82.49,48.9c0-2,0-2.32,0-2.74s.13-.67.48-.74a2.47,2.47,0,0,1,.36,0c.1,0,.18,0,.18-.12s-.09-.12-.27-.12c-.44,0-1.25,0-1.56,0s-1.12,0-1.81,0c-.19,0-.28,0-.28.12s.08.12.22.12a2.29,2.29,0,0,1,.5,0c.43.09.53.3.56.74s0,.78,0,2.74v2.27c0,1.19,0,2.21-.06,2.75-.05.38-.12.66-.37.71a2.59,2.59,0,0,1-.47,0c-.15,0-.21,0-.21.1s.09.13.26.13c.52,0,1.33,0,1.63,0s1.14,0,1.86,0c.14,0,.24,0,.24-.13s-.06-.1-.17-.1-.45,0-.63,0-.44-.34-.47-.7c0-.55,0-1.58,0-2.76V50h.06l.14.19c.27.37,2.81,3.36,3.38,3.86a2.55,2.55,0,0,0,1.6.84,7.7,7.7,0,0,0,.89,0h1.12c.25,0,.31,0,.31-.13s-.08-.1-.17-.1a2.36,2.36,0,0,1-.8-.19,6.13,6.13,0,0,1-1.85-1.39c-.5-.48-3-3.2-3.5-3.81.44-.46,2.39-2.4,2.79-2.79a4.31,4.31,0,0,1,1.4-1,2.51,2.51,0,0,1,.75-.14c.13,0,.19,0,.19-.12s-.09-.12-.22-.12c-.4,0-1.11,0-1.51,0s-1.06,0-1.33,0-.21,0-.21.12,0,.1.17.13.18.11.18.26-.29.54-.65,1S83,49,82.54,49.48h-.06V48.9" transform="translate(-10 -43.04)"/><path class="cls-5" d="M33.93,55a7.72,7.72,0,0,0,2.32-.29.44.44,0,0,0,.33-.37,12.09,12.09,0,0,0,.28-1.71c0-.1,0-.19-.12-.19s-.13.05-.17.26a2.1,2.1,0,0,1-.44.85,2.79,2.79,0,0,1-2.35.72,4.33,4.33,0,0,1-4.05-4.58,4.28,4.28,0,0,1,1.18-3.33,3.39,3.39,0,0,1,2.42-.8,3.83,3.83,0,0,1,2.61.8,1.81,1.81,0,0,1,.5,1.18c0,.18,0,.28.13.28s.14-.1.15-.3,0-1,0-1.39.06-.6.06-.71,0-.14-.19-.15c-.39,0-.8-.15-1.29-.22A12.35,12.35,0,0,0,33.47,45a5.67,5.67,0,0,0-4.07,1.36,5.1,5.1,0,0,0,.1,7.32A6.49,6.49,0,0,0,33.93,55" transform="translate(-10 -43.04)"/><path class="cls-5" d="M44.1,51.13c0,1.18,0,2.2-.06,2.74,0,.37-.12.66-.37.71a1.83,1.83,0,0,1-.46.05c-.16,0-.21,0-.21.1s.09.13.26.13.59,0,.89,0h.73c.19,0,.58,0,1,0l.9,0c2.37,0,3.44-1.43,3.44-2.8a3.14,3.14,0,0,0-2.34-2.78,2.8,2.8,0,0,0,1.31-2.25c0-.68-.41-1.93-2.74-1.93-.44,0-.94,0-1.57,0-.26,0-1.07,0-1.75,0-.19,0-.28,0-.28.12s.08.11.22.11a2.29,2.29,0,0,1,.5,0c.42.09.53.3.55.73s0,.77,0,2.73v2.26m1.53-5.22c0-.14,0-.19.12-.22a1.76,1.76,0,0,1,.42,0c1.11,0,1.61,1.13,1.61,2A1.65,1.65,0,0,1,47.27,49a1.33,1.33,0,0,1-.93.24,2.69,2.69,0,0,1-.6,0c-.05,0-.09,0-.09-.14Zm2.94,6.77A1.5,1.5,0,0,1,47,54.33a2.33,2.33,0,0,1-.94-.15c-.41-.17-.45-.39-.45-1.23V49.9c0-.06,0-.09.08-.09h.55a1.84,1.84,0,0,1,1.07.31A3,3,0,0,1,48.59,52.68Z" transform="translate(-10 -43.04)"/><path class="cls-5" d="M39.17,51.13c0,1.25,0,2.26-.06,2.81,0,.37-.12.59-.37.64a1.89,1.89,0,0,1-.46.05c-.15,0-.2,0-.2.1s.09.13.26.13c.51,0,1.33,0,1.62,0s1.16,0,2,0c.14,0,.24,0,.24-.13s-.06-.1-.21-.1-.48,0-.65-.05c-.39,0-.48-.28-.52-.63,0-.55,0-1.57,0-2.82V48.87c0-2,0-2.32,0-2.73s.13-.67.48-.73a1.84,1.84,0,0,1,.39,0c.13,0,.2,0,.2-.13s-.1-.1-.27-.1c-.49,0-1.25,0-1.57,0s-1.18,0-1.67,0c-.21,0-.31,0-.31.1s.08.13.21.13a1.75,1.75,0,0,1,.46.05c.28.06.41.28.44.72s0,.77,0,2.73v2.26" transform="translate(-10 -43.04)"/></svg>