<svg id="Layer_1" data-name="Layer 1" xmlns="http://www.w3.org/2000/svg" viewBox="0 0 79.98 13.92"><defs><style>.cls-1{fill:#e8b909;}.cls-2,.cls-5{fill:#007638;}.cls-3{fill:#0061af;}.cls-4{fill:#f37021;}.cls-5{fill-rule:evenodd;}</style></defs><title>CIB_Bank</title><g id="CIB_Bank" data-name="CIB Bank"><path class="cls-1" d="M12.44,3.93h0a.36.36,0,0,0-.3-.05H1.58a.22.22,0,0,0-.17.19.11.11,0,0,0,.11.11H6.27a.81.81,0,0,0,.22,0h.1a.57.57,0,0,0,.26,0h.27a.38.38,0,0,1,.21,0h.09a22.47,22.47,0,0,1,2.32.07h.44a7.75,7.75,0,0,1,1.18,0h.84l.14-.12h0a.2.2,0,0,0,0-.25"/><path class="cls-2" d="M8.59,8.88h0v-1h0V7a5.83,5.83,0,0,0-.1-.73V6h0a.37.37,0,0,1-.07-.14.29.29,0,0,0-.05-.13A2,2,0,0,0,8,5.45H8V5.38H8a.7.7,0,0,0-.23-.11h0a.09.09,0,0,0-.1,0H7.12L7,5.09H6.43a.24.24,0,0,1-.11.06H6.11V5.5h0A.8.8,0,0,1,6,5.67a1.24,1.24,0,0,0-.18.22h0a.09.09,0,0,0,0,.07V6h0a.14.14,0,0,0,0,.09h0v.06h0a.54.54,0,0,1,0,.18.67.67,0,0,0,0,.2v.11h0V6.8a.17.17,0,0,0,0,.14h0V7a.06.06,0,0,1,0,.06h0a.14.14,0,0,0,0,.09h0v.06h0a.09.09,0,0,0,0,.1.17.17,0,0,0,0,.1h0v.15a.17.17,0,0,0,0,.1H5.66l.07.07h0v.06h0a.14.14,0,0,0,0,.09h0V8a.25.25,0,0,0,0,.17h0a.09.09,0,0,0,0,.1h0a.11.11,0,0,1,0,.08.54.54,0,0,0,0,.18v.06h0a.06.06,0,0,0,0,.06h0a.43.43,0,0,1,0,.16.47.47,0,0,0,.09.33h0a.42.42,0,0,0-.08.84h0a1,1,0,0,1,0-.35v-.1h0a.29.29,0,0,1,0-.13.29.29,0,0,0,0-.13v-1h0a1.71,1.71,0,0,1,0-.32,1.41,1.41,0,0,0,0-.29,1.61,1.61,0,0,0,0-.31.33.33,0,0,1,0-.14h0a.14.14,0,0,0,0-.09V7h0V6.92a.21.21,0,0,0,0-.11.86.86,0,0,0,0-.27h0V6.48h0a.24.24,0,0,1,0-.12.38.38,0,0,0,.08-.17h0A.12.12,0,0,0,6,6H6a.39.39,0,0,0,.08-.1.17.17,0,0,1,.1-.1h0a.18.18,0,0,1,.07-.08.39.39,0,0,0,.1-.08h.07a.24.24,0,0,0,.11-.06H7a.65.65,0,0,1,.39,0h0s.08.09.15.08h.11A.7.7,0,0,1,8,5.89v.05H8a.72.72,0,0,0,.09.2.14.14,0,0,0,0,.09V6.3h0v.09h0a.12.12,0,0,0,0,.16h0v.13h0v.05h0V7a.45.45,0,0,0,0,.28h0a.17.17,0,0,0,0,.1v.08h0v.06h0v.12h0a.38.38,0,0,0,0,.15h0V8h0a.06.06,0,0,0,0,.06h0a.14.14,0,0,0,.06.15h0v.06h0v.06h0a.06.06,0,0,0,0,.06h0v.07h.07v0h0V9h0v.1h0a.06.06,0,0,1,0,.06h0l0,.06h0v.06h0l.07.08h0a.14.14,0,0,0,0,.09H8.16l.06.05H8.17v.55h.08v0h.24V10a5.61,5.61,0,0,0,0-.58A2.37,2.37,0,0,1,8.6,9a.11.11,0,0,0,0-.08"/><path class="cls-3" d="M4.73,8.88h0v-1h0V7.48a2.35,2.35,0,0,0,0-.53,4.41,4.41,0,0,0-.09-.73V6h0a.35.35,0,0,1-.06-.14V5.73a1.48,1.48,0,0,0-.25-.31h0l-.07-.06H4a.7.7,0,0,0-.23-.11h0a.11.11,0,0,0-.11,0H2.77a.13.13,0,0,0-.12,0H2.56l-.11.06h-.2V5.5h0c0,.06-.1.11-.15.17a1.24,1.24,0,0,0-.18.22h0A.14.14,0,0,0,1.79,6a.11.11,0,0,0,0,.08h0a.14.14,0,0,0,0,.09h0v.06h0a.54.54,0,0,1,0,.18.67.67,0,0,0,0,.2.11.11,0,0,0,0,.11h0v.12a.17.17,0,0,0,0,.14h0v.08a.06.06,0,0,1,0,.06h0a.14.14,0,0,0,0,.09h0v.06h0a.17.17,0,0,0,0,.1.17.17,0,0,0,0,.1h0a.11.11,0,0,0,0,.15.17.17,0,0,0,0,.1H1.73l.06.07h0v.06h0a.14.14,0,0,0,0,.09h0v.12a.25.25,0,0,0,0,.17h0a.07.07,0,0,0,0,.1h0v.08a.28.28,0,0,0,0,.18v.06h0v.06h0a.43.43,0,0,1,0,.16.4.4,0,0,0,.1.33h0a.39.39,0,0,0-.4.4.39.39,0,0,0,.39.4h0a1,1,0,0,1,0-.35V9.57h0a.15.15,0,0,1,0-.13.29.29,0,0,0,0-.13q0-.35,0-.69V8.36h0V8a1.41,1.41,0,0,0,0-.29,1.61,1.61,0,0,0,0-.31V7.23h0a.08.08,0,0,0,0-.09V7h0V6.93a.11.11,0,0,0,0-.11A.82.82,0,0,0,2,6.48H2a.06.06,0,0,0,0-.06H2a.22.22,0,0,1,0-.16.36.36,0,0,0,.07-.17h0L2.12,6h0a.36.36,0,0,0,.07-.1.18.18,0,0,1,.11-.1h0l.08-.08a.39.39,0,0,0,.1-.08,0,0,0,0,0,.07,0,.21.21,0,0,0,.1-.06H3.1a.62.62,0,0,1,.38,0h0a.21.21,0,0,0,.16.08h0a.11.11,0,0,0,.11,0,.56.56,0,0,1,.17.26V6h0a.4.4,0,0,0,.09.2.14.14,0,0,0,0,.09v0H4v.09H4a.11.11,0,0,0,0,.16H4v.07H4v0H4V7a.45.45,0,0,0,0,.28H4v.1H4v0H4v.06H4v.12H4a.2.2,0,0,0,0,.15H4V8H4a.06.06,0,0,0,0,.06H4a.14.14,0,0,0,.06.15h0v.06h0v.06h0a.06.06,0,0,0,0,.06h0a.09.09,0,0,0,0,.07h.07v0h.22V9h0v.1h0v.12h0l.06.06h0a.06.06,0,0,0,0,.06h0l.07.08h0v.09H4.3v.05h0v.49h.08v0h.19V10a5.61,5.61,0,0,0,0-.58,2.35,2.35,0,0,1,0-.53.11.11,0,0,0,0-.08"/><path class="cls-4" d="M12.39,9h0V8h0a3.38,3.38,0,0,1,0-.45,4.69,4.69,0,0,0,0-.53,4.41,4.41,0,0,0-.09-.73V6.13h0A.31.31,0,0,1,12.13,6a.29.29,0,0,0-.05-.13,1.83,1.83,0,0,0-.24-.31h0l-.06-.06h0a.7.7,0,0,0-.23-.11h0a.09.09,0,0,0-.1,0h-1a.12.12,0,0,0-.11.07H9.91v.06h0a.8.8,0,0,1-.15.17A1.89,1.89,0,0,0,9.51,6h0v.15h0v.14h0v.06h0a.54.54,0,0,1,0,.18v.19a.21.21,0,0,0,0,.11V7h0v.12a.33.33,0,0,0,0,.14h0v0h0V7.4a.06.06,0,0,1,0,.06h0a.14.14,0,0,0,0,.09h0V8a.14.14,0,0,0,0,.09.21.21,0,0,0,0,.11h0v.15a.17.17,0,0,0,0,.1H9.44l.07.07v.05h0v.06h0a.14.14,0,0,0,0,.09h0v.12a.22.22,0,0,0,0,.16h0a.09.09,0,0,0,0,.1h0a.11.11,0,0,1,0,.08.54.54,0,0,0,0,.18v.06h0a.06.06,0,0,0,0,.06h0a.43.43,0,0,1,0,.16.4.4,0,0,0,.1.33h0c.08,0,.08-.1.08-.14h0a.69.69,0,0,1,0-.35v.14h0a.15.15,0,0,1,0-.13.33.33,0,0,0,0-.14,3.86,3.86,0,0,0,0-.68,1.13,1.13,0,0,0,0-.26h0a1.82,1.82,0,0,1,0-.33V7.79a.76.76,0,0,0,0-.3V7.31h0a.14.14,0,0,0,0-.09V7h0V6.93a.21.21,0,0,0,0-.11,1.31,1.31,0,0,0,0-.28h0a.06.06,0,0,0,0-.06h0a.19.19,0,0,1,.05-.12.28.28,0,0,0,.07-.17h0a.11.11,0,0,0,0-.08V6l.08-.1a.13.13,0,0,1,.1-.1h0l.08-.07a.39.39,0,0,0,.1-.08h.07a.24.24,0,0,0,.11-.06h.35a.65.65,0,0,1,.39,0h0s.08.09.15.08h.11a.56.56,0,0,1,.17.26V6h0a.72.72,0,0,0,.09.2v.09h0a.14.14,0,0,0,0,.09h0a.12.12,0,0,0,.05.16h0V6.6h0v.06h0a.34.34,0,0,0,0,.28h0a.17.17,0,0,0,0,.1v.08h0V7.2h0v.12h0a.2.2,0,0,0,0,.15h0V8h0a.09.09,0,0,0,0,.07h0a.14.14,0,0,0,.06.15h0v.06h0v.13h0a.09.09,0,0,0,0,.07h.07a0,0,0,0,0,0,0V9H12v.06h0v.1h0v.05h0l.05.06h0v.06h0l.06.08h0a.14.14,0,0,0,0,.09H12v.4h0V10a0,0,0,0,0,0,.05h.08v.05h.19v-.06a5.61,5.61,0,0,0,0-.58,2.35,2.35,0,0,1,0-.53.11.11,0,0,0,0-.08"/><path class="cls-4" d="M13.18,13.18H.73V.73H13.18ZM13.92,0H0V13.92H13.92Z"/><path class="cls-2" d="M49.68,9.65a1.52,1.52,0,0,1-1.36,1.66h-.21a2.44,2.44,0,0,1-1-.16c-.42-.17-.45-.39-.45-1.25V6.83c0-.06,0-.09.07-.09h.56a1.82,1.82,0,0,1,1.08.32,3.08,3.08,0,0,1,1.26,2.58M45.15,8.09c0,1.2,0,2.23-.07,2.77,0,.38-.12.66-.37.72a2.42,2.42,0,0,1-.47.05c-.16,0-.21,0-.21.1s.09.13.26.13h1.63c.29,0,1.58.08,1.89.08,2.39,0,3.47-1.44,3.47-2.83A3.17,3.17,0,0,0,48.91,6.3,2.82,2.82,0,0,0,50.24,4c0-.69-.41-1.95-2.77-1.95H44.12c-.2,0-.29,0-.29.12s.08.11.23.11a2.09,2.09,0,0,1,.5,0c.43.09.53.3.56.74s0,.78,0,2.76Zm1.56-5.27c0-.15,0-.2.11-.22a1.55,1.55,0,0,1,.43,0c1.12,0,1.62,1.14,1.62,2A1.68,1.68,0,0,1,48.34,6a1.3,1.3,0,0,1-.93.25,3.21,3.21,0,0,1-.62,0s-.08,0-.08-.15Z"/><path class="cls-2" d="M69.55,2.13H66.72c-.2,0-.34,0-.34.12s.05.12.21.12a2.22,2.22,0,0,1,.68.07c.31.14.43.38.44,1.17l.13,5.79h-.06c-.23-.2-2-2.06-2.85-2.94-1.88-1.87-3.84-4-4-4.15s-.33-.39-.48-.39-.16.17-.16.43L60.17,10c0,1.12-.14,1.6-.4,1.6-.49,0-.64-.32-1.08-1.38-.83-2-2.9-7.24-3.21-8-.13-.29-.2-.41-.32-.41S55,2,54.8,2.38l-3.24,8.11c-.26.64-.51,1.08-1.1,1.16h-.23c-.11,0-.16,0-.16.11s.08.13.25.13H53c.14,0,.22,0,.22-.13s0-.11-.19-.11h-.2c-.4,0-.51-.16-.51-.39a2.4,2.4,0,0,1,.19-.79l.7-1.85c0-.08,0-.1.12-.1h2.87a.13.13,0,0,1,.14.09l1,2.73a.2.2,0,0,1-.08.28l0,0c-.13,0-.18,0-.18.12s.16.09.39.1h4.76c.18,0,.3,0,.3-.13s-.08-.1-.22-.1a2.52,2.52,0,0,1-.67-.09c-.26-.09-.43-.43-.46-1.44L61,4.68h0c.31.32,1.74,1.9,3.15,3.32s3,3,3.81,3.8c.14.14.29.28.43.28s.17-.11.17-.4l.14-8.15c0-.72.12-1,.48-1.09a1.27,1.27,0,0,1,.39,0c.15,0,.23,0,.23-.12s-.13-.12-.29-.12M56,7.89H53.62s-.06,0,0-.09l1.19-3.18s0-.11.08-.11,0,.06.06.11l1.17,3.19S56.07,7.89,56,7.89Z"/><path class="cls-5" d="M72.49,5.86V3.13c0-.41.13-.68.48-.74a2.16,2.16,0,0,1,.36,0c.1,0,.18,0,.18-.12s-.09-.11-.27-.11H69.87c-.19,0-.28,0-.28.11s.07.12.22.12a2.09,2.09,0,0,1,.5,0c.43.09.53.3.55.74s0,.77,0,2.73V8.13c0,1.19,0,2.21-.06,2.75-.06.38-.12.66-.38.72a2.4,2.4,0,0,1-.46.05c-.16,0-.21,0-.21.1s.09.13.26.13h3.48c.15,0,.25,0,.25-.13s-.07-.1-.17-.1a3,3,0,0,1-.63-.05.84.84,0,0,1-.47-.7V7h.06l.14.19c.27.38,2.82,3.36,3.38,3.86a2.52,2.52,0,0,0,1.61.84,6.61,6.61,0,0,0,.89,0h1.12c.25,0,.31,0,.31-.13s-.08-.1-.17-.1a2.19,2.19,0,0,1-.8-.2,6,6,0,0,1-1.85-1.39c-.5-.48-3-3.2-3.49-3.81.43-.46,2.38-2.4,2.78-2.79a4.37,4.37,0,0,1,1.4-1,2.69,2.69,0,0,1,.75-.14c.13,0,.19,0,.19-.12s-.09-.11-.22-.11H75.73c-.27,0-.21,0-.21.11s.06.11.17.13a.24.24,0,0,1,.18.26,3.32,3.32,0,0,1-.64,1C74.87,4.06,73,6,72.55,6.43h-.06V5.86"/><path class="cls-5" d="M23.93,12a7.58,7.58,0,0,0,2.32-.29.47.47,0,0,0,.34-.38,13.85,13.85,0,0,0,.28-1.71c0-.1,0-.19-.12-.19s-.13.05-.16.26a2.46,2.46,0,0,1-.44.85c-.52.59-1.21.71-2.36.71a4.32,4.32,0,0,1-4.05-4.57h0a4.31,4.31,0,0,1,1.18-3.33,3.39,3.39,0,0,1,2.42-.8,3.83,3.83,0,0,1,2.61.8,1.84,1.84,0,0,1,.51,1.19c0,.18,0,.28.13.28s.14-.1.15-.3,0-1,0-1.39a6,6,0,0,1,.06-.7c0-.1-.05-.15-.19-.16A10.9,10.9,0,0,1,25.32,2a12.92,12.92,0,0,0-1.86-.13,5.61,5.61,0,0,0-4.07,1.37,4.87,4.87,0,0,0-1.5,3.52,4.85,4.85,0,0,0,1.59,3.8A6.5,6.5,0,0,0,23.93,12"/><path class="cls-5" d="M34.1,8.09c0,1.18,0,2.2-.06,2.74,0,.37-.12.66-.38.71a2.4,2.4,0,0,1-.46.05c-.15,0-.21,0-.21.1s.09.13.26.13h3.52c2.37,0,3.43-1.43,3.43-2.8a3.12,3.12,0,0,0-2.34-2.78A2.8,2.8,0,0,0,39.15,4c0-.69-.42-1.94-2.75-1.94H33.08c-.19,0-.28,0-.28.12s.08.12.22.12h.5c.43.09.53.3.56.74s0,.77,0,2.73V8.09m1.55-5.22c0-.14,0-.2.11-.22a1.55,1.55,0,0,1,.43,0c1.1,0,1.6,1.13,1.6,2A1.7,1.7,0,0,1,37.27,6a1.34,1.34,0,0,1-.93.24,3,3,0,0,1-.6,0c-.06,0-.09,0-.09-.15Zm2.94,6.76a1.5,1.5,0,0,1-1.34,1.64H37a2.45,2.45,0,0,1-.93-.15c-.42-.17-.45-.39-.45-1.24V6.84c0-.06,0-.09.07-.09h.55a1.85,1.85,0,0,1,1.07.3,3.07,3.07,0,0,1,1.28,2.58Z"/><path class="cls-5" d="M29.17,8.09c0,1.25,0,2.26-.06,2.8,0,.38-.12.6-.38.65a2.4,2.4,0,0,1-.46.05c-.15,0-.21,0-.21.1s.09.13.26.13h3.62c.14,0,.24,0,.24-.13s-.06-.1-.2-.1a3.12,3.12,0,0,1-.66-.05c-.38,0-.47-.29-.51-.63,0-.56,0-1.57,0-2.82v-5c0-.41.13-.67.48-.74h.38c.13,0,.21,0,.21-.13s-.1-.11-.27-.11H28.32c-.21,0-.31,0-.31.11s.08.13.2.13a1.85,1.85,0,0,1,.47,0c.28.06.41.28.44.72s0,.77,0,2.73V8.09"/></g></svg>