<?xml version="1.0" encoding="utf-8"?>
<!-- Generator: Adobe Illustrator 24.1.1, SVG Export Plug-In . SVG Version: 6.00 Build 0)  -->
<svg version="1.1" id="Layer_1" xmlns="http://www.w3.org/2000/svg" xmlns:xlink="http://www.w3.org/1999/xlink" x="0px" y="0px"
	 viewBox="0 0 100 100" style="enable-background:new 0 0 100 100;" xml:space="preserve">
<style type="text/css">
	.st0{fill:#1B3E6E;}
	.st1{fill:#D82927;}
	.st2{font-family:'MrEavesModOT-Book';}
	.st3{font-size:13.6009px;}
</style>
<g>
	<g id="layer1_6_" transform="translate(-297.9885,-472.70039)">
		<g id="g4940" transform="matrix(2.4662885,0,0,-2.4662885,-772.5069,719.18727)">
			<path id="path1274" class="st0" d="M442.06,79.73l-0.02-0.02c-0.38-0.38-0.81-0.59-1.27-0.59c-0.94,0-1.62,0.71-1.62,1.68
				c0,0.97,0.68,1.68,1.62,1.68c0.45,0,0.89-0.2,1.27-0.59l0.02-0.02l0.6,0.73l-0.02,0.02c-0.5,0.59-1.11,0.88-1.85,0.88
				c-0.74,0-1.42-0.25-1.92-0.7c-0.53-0.49-0.81-1.18-0.81-2c0-0.82,0.28-1.51,0.81-2c0.49-0.45,1.17-0.7,1.92-0.7
				c0.74,0,1.35,0.29,1.85,0.88l0.02,0.02L442.06,79.73z"/>
			<path id="path1276" class="st0" d="M443.27,78.19h1.07v5.21h-1.07V78.19L443.27,78.19z"/>
			<path id="path1278" class="st0" d="M448.52,79.33c-0.29-0.17-0.55-0.26-0.79-0.26c-0.35,0-0.5,0.18-0.5,0.59v2.77h1.09v0.98
				h-1.09v1.62l-1.05-0.56V83.4h-0.9v-0.98h0.9v-2.94c0-0.8,0.48-1.35,1.18-1.36c0.48-0.01,0.77,0.13,0.95,0.24l0.01,0.01l0.26,1.01
				L448.52,79.33L448.52,79.33z"/>
			<path id="path1280" class="st0" d="M449.41,78.19h1.07v5.21h-1.07V78.19L449.41,78.19z"/>
			<path id="path1282" class="st0" d="M467.52,85.39v-4.97l0.33,0.52c0,0,1.5,2.16,1.69,2.44h0.67c-0.14-0.19-1.32-1.81-1.32-1.81
				s1.53-3.19,1.62-3.37h-0.65c-0.04,0.07-1.35,2.86-1.35,2.86l-0.98-1.38v-1.48h-0.61v6.85C466.96,85.07,467.37,85.31,467.52,85.39
				L467.52,85.39z M462.51,82.76c0.31,0.47,0.81,0.73,1.38,0.73c1.15,0,1.76-0.73,1.76-2.12v-3.17h-0.61v3.04
				c0,1.18-0.41,1.73-1.3,1.73c-0.85,0-1.36-0.65-1.36-1.73v-3.04h-0.61v5.18h0.61v-0.8L462.51,82.76z M458.76,83.48
				c1.18,0,1.76-0.54,1.76-1.65v-3.64h-0.61v0.76l-0.12-0.13c-0.45-0.5-0.96-0.74-1.58-0.74c-0.48,0-1.6,0.16-1.6,1.63
				c0,1.21,1,1.63,1.93,1.63c0.47,0,0.93-0.11,1.27-0.3l0.1-0.06v0.74c0,0.82-0.4,1.24-1.2,1.24c-0.49,0-0.93-0.12-1.39-0.38
				c-0.04,0.09-0.18,0.4-0.22,0.49C457.58,83.34,458.16,83.48,458.76,83.48L458.76,83.48z M457.21,79.76c0-0.77,0.4-1.2,1.13-1.2
				c0.62,0,1.17,0.29,1.55,0.83l0.01,0.02v1.14l-0.03,0.02c-0.39,0.22-0.79,0.31-1.37,0.31C457.69,80.87,457.21,80.46,457.21,79.76z
				 M452.5,85.39v-2.77l0.12,0.13c0.45,0.5,0.95,0.74,1.52,0.74c1.14,0,1.8-0.95,1.8-2.62c0-1.69-0.75-2.79-1.9-2.79
				c-0.56,0-1.01,0.22-1.42,0.69l-0.12,0.14v-0.71h-0.61v6.85C451.95,85.07,452.36,85.31,452.5,85.39L452.5,85.39z M452.52,82.17
				l-0.01-0.02v-2.7l0.01-0.02c0.34-0.52,0.88-0.83,1.47-0.83c0.9,0,1.36,0.76,1.36,2.26c0,1.34-0.51,2.1-1.39,2.1
				C453.42,82.96,452.93,82.69,452.52,82.17"/>
			<path id="path1284" class="st1" d="M451.12,84.33c-0.98,1.39-2.6,2.21-4.25,2.21c-1.65,0-3.28-0.83-4.25-2.21l-0.05-0.07h1.23
				l0.01,0.01c0.84,0.86,1.93,1.32,3.06,1.32c1.13,0,2.22-0.46,3.06-1.32l0.01-0.01h1.23L451.12,84.33z"/>
		</g>
	</g>
	<text transform="matrix(1 0 0 1 44.3167 63.2812)" class="st0 st2 st3">handlowy</text>
</g>
</svg>
