<svg id="Layer_1" data-name="Layer 1" xmlns="http://www.w3.org/2000/svg" viewBox="0 0 80.01 18.11"><defs><style>.cls-1{fill:#1b3e6e;}.cls-2{fill:#d82927;}</style></defs><title>Citi-Handlowy</title><g id="layer1"><g id="g4940"><path id="path1274" class="cls-1" d="M17.06,53l0,.05a3.09,3.09,0,0,1-2.24,1,3,3,0,0,1,0-6,3.19,3.19,0,0,1,2.24,1l0,.05,1.06-1.31,0,0a4.05,4.05,0,0,0-3.28-1.56,5.07,5.07,0,0,0-3.4,1.24,5.06,5.06,0,0,0,0,7,4.9,4.9,0,0,0,3.4,1.23,4.16,4.16,0,0,0,3.28-1.55l0,0Z" transform="translate(-9.99 -40.95)"/><path id="path1276" class="cls-1" d="M19.21,55.74h1.9V46.5h-1.9v9.24Z" transform="translate(-9.99 -40.95)"/><path id="path1278" class="cls-1" d="M28.53,53.72a2.8,2.8,0,0,1-1.4.47c-.62,0-.89-.32-.89-1v-4.9h1.92V46.5H26.24V43.61l-1.85,1v1.87h-1.6v1.75h1.6v5.21a2.16,2.16,0,0,0,2.1,2.41,2.89,2.89,0,0,0,1.67-.42l0,0,.44-1.78-.1.1Z" transform="translate(-9.99 -40.95)"/><path id="path1280" class="cls-1" d="M30.09,55.74H32V46.5H30.09v9.24Z" transform="translate(-9.99 -40.95)"/><path id="path1284" class="cls-2" d="M33.12,44.87A9.37,9.37,0,0,0,25.57,41a9.25,9.25,0,0,0-7.52,3.92L18,45h2.17l0,0A7.44,7.44,0,0,1,31,45l0,0h2.17Z" transform="translate(-9.99 -40.95)"/></g></g><path class="cls-1" d="M38.05,55.71V52.33c0-1.41-.58-1.91-1.56-1.91a2.18,2.18,0,0,0-2.06,2v3.28h-.88V45.41h.88v5.51a2.72,2.72,0,0,1,2.3-1.29c1.49,0,2.2,1,2.2,2.59V55.7h-.88Z" transform="translate(-9.99 -40.95)"/><path class="cls-1" d="M46.1,55.71l-.05-1.06a2.68,2.68,0,0,1-2.37,1.29,3.16,3.16,0,0,1,0-6.3,2.66,2.66,0,0,1,2.37,1.29l.05-1.06h.75v5.85H46.1Zm-4.46-2.93a2.21,2.21,0,1,0,2.2-2.4A2.19,2.19,0,0,0,41.64,52.78Z" transform="translate(-9.99 -40.95)"/><path class="cls-1" d="M53.56,55.71V52.33c0-1.41-.58-1.91-1.56-1.91a2.18,2.18,0,0,0-2.06,2v3.28h-.88V49.86h.77l.05,1.1a2.79,2.79,0,0,1,2.35-1.32c1.49,0,2.2,1,2.2,2.59v3.48Z" transform="translate(-9.99 -40.95)"/><path class="cls-1" d="M61.61,55.71l0-1.06a2.68,2.68,0,0,1-2.37,1.29,3.16,3.16,0,0,1,0-6.3,2.7,2.7,0,0,1,2.3,1.17V45.42h.88v10.3h-.76Zm-4.46-2.93a2.21,2.21,0,1,0,2.2-2.4A2.19,2.19,0,0,0,57.15,52.78Z" transform="translate(-9.99 -40.95)"/><path class="cls-1" d="M64.57,55.71V45.41h.88v10.3Z" transform="translate(-9.99 -40.95)"/><path class="cls-1" d="M70.4,56a3.17,3.17,0,1,1,3.18-3.18A3.14,3.14,0,0,1,70.4,56Zm0-5.58a2.41,2.41,0,1,0,2.3,2.4A2.28,2.28,0,0,0,70.4,50.37Z" transform="translate(-9.99 -40.95)"/><path class="cls-1" d="M81.41,55.76h-.65l-1.7-4.57-1.73,4.57h-.65l-2.25-5.91h.88L77,54.49l1.7-4.64h.65l1.75,4.64,1.68-4.64h.84Z" transform="translate(-9.99 -40.95)"/><path class="cls-1" d="M86.12,59.06h-.88l1.44-3.42-2.44-5.78h.91l2,4.89,2-4.89H90Z" transform="translate(-9.99 -40.95)"/></svg>