<svg xmlns="http://www.w3.org/2000/svg" viewBox="0 0 80 51.56"><defs><style>.cls-1{fill:#33347e;}.cls-1,.cls-2,.cls-3{fill-rule:evenodd;}.cls-2{fill:#ed1b2e;}.cls-3{fill:#eb2e2e;}</style></defs><title>CitiBank</title><g id="Layer_2" data-name="Layer 2"><g id="CitiBank"><polygon class="cls-1" points="38.37 19.06 31.85 19.06 31.85 50.97 38.37 50.97 38.37 19.06 38.37 19.06"/><path class="cls-1" d="M44.36,19.12v6h5.49v18a8.81,8.81,0,0,0,2,6,6.77,6.77,0,0,0,5.27,2.38A10.32,10.32,0,0,0,62.88,50l.1,0v-.1l1.56-6.07-.39.24a9.35,9.35,0,0,1-4.82,1.59c-2,0-3.06-1.2-3.06-3.58V25.1h6.66v-6H56.27v-10l-6.42,3.44v6.53Z"/><polygon class="cls-1" points="75.92 19.06 69.35 19.06 69.35 50.97 75.92 50.97 75.92 19.06 75.92 19.06"/><path class="cls-1" d="M28.11,24.08,28,24a14,14,0,0,0-11.28-5.44A16.58,16.58,0,0,0,5,22.86Q0,27.41,0,35.07c0,5.1,1.66,9.15,5,12.21a16.51,16.51,0,0,0,11.72,4.28A14.07,14.07,0,0,0,28,46.16l.14-.11-3.69-4.46-.14.14a10.89,10.89,0,0,1-7.73,3.6,9.57,9.57,0,0,1-7.16-2.92,9.94,9.94,0,0,1-2.81-7.34,10.13,10.13,0,0,1,2.81-7.4,9.72,9.72,0,0,1,7.16-2.87c2.76,0,5.33,1.23,7.73,3.6l.14.14,3.69-4.46Z"/><path class="cls-2" d="M35.07,13.82a27.14,27.14,0,0,1,8.71-6,25,25,0,0,1,10-2,25.57,25.57,0,0,1,10,2,27.64,27.64,0,0,1,8.64,6l.1.08H80l-.28-.43a32,32,0,0,0-11.44-9.9,31.39,31.39,0,0,0-29.08,0,31.89,31.89,0,0,0-11.43,9.9l-.29.43H35l0-.08Z"/><polygon class="cls-1" points="38.37 19.06 31.85 19.06 31.85 50.97 38.37 50.97 38.37 19.06 38.37 19.06"/><path class="cls-1" d="M44.36,19.12v6h5.49v18a8.81,8.81,0,0,0,2,6,6.77,6.77,0,0,0,5.27,2.38A10.32,10.32,0,0,0,62.88,50l.1,0v-.1l1.56-6.07-.39.24a9.35,9.35,0,0,1-4.82,1.59c-2,0-3.06-1.2-3.06-3.58V25.1h6.66v-6H56.27v-10l-6.42,3.44v6.53Z"/><polygon class="cls-1" points="75.92 19.06 69.35 19.06 69.35 50.97 75.92 50.97 75.92 19.06 75.92 19.06"/><path class="cls-1" d="M28.11,24.08,28,24a14,14,0,0,0-11.28-5.44A16.58,16.58,0,0,0,5,22.86Q0,27.41,0,35.07c0,5.1,1.66,9.15,5,12.21a16.51,16.51,0,0,0,11.72,4.28A14.07,14.07,0,0,0,28,46.16l.14-.11-3.69-4.46-.14.14a10.89,10.89,0,0,1-7.73,3.6,9.57,9.57,0,0,1-7.16-2.92,9.94,9.94,0,0,1-2.81-7.34,10.13,10.13,0,0,1,2.81-7.4,9.72,9.72,0,0,1,7.16-2.87c2.76,0,5.33,1.23,7.73,3.6l.14.14,3.69-4.46Z"/><path class="cls-3" d="M35.07,13.82a27.14,27.14,0,0,1,8.71-6,25,25,0,0,1,10-2,25.57,25.57,0,0,1,10,2,27.64,27.64,0,0,1,8.64,6l.1.08H80l-.28-.43a32,32,0,0,0-11.44-9.9,31.39,31.39,0,0,0-29.08,0,31.89,31.89,0,0,0-11.43,9.9l-.29.43H35l0-.08Z"/></g></g></svg>