<svg id="Layer_1" data-name="Layer 1" xmlns="http://www.w3.org/2000/svg" viewBox="0 0 91.89 34.64"><defs><style>.cls-1,.cls-3{fill:#1b3e6e;}.cls-2{fill:#d82927;}.cls-3{isolation:isolate;font-size:13.6px;font-family:ArialMT, Arial;}</style></defs><title>Citibank-Handlowy</title><g id="layer1"><g id="g4940"><path id="path1274" class="cls-1" d="M19.75,49.85l-.05,0a4.38,4.38,0,0,1-3.13,1.45,4.14,4.14,0,0,1,0-8.28,4.36,4.36,0,0,1,3.13,1.45l.05,0,1.48-1.8-.05-.05a5.72,5.72,0,0,0-4.56-2.17,7,7,0,0,0-4.74,1.73,6.52,6.52,0,0,0-2,4.93,6.52,6.52,0,0,0,2,4.93,7,7,0,0,0,4.74,1.73,5.73,5.73,0,0,0,4.56-2.17l.05-.05Z" transform="translate(-9.89 -33.05)"/><path id="path1276" class="cls-1" d="M22.74,53.65h2.64V40.8H22.74V53.65Z" transform="translate(-9.89 -33.05)"/><path id="path1278" class="cls-1" d="M35.68,50.84a3.89,3.89,0,0,1-1.94.64c-.87,0-1.24-.45-1.24-1.46V43.19h2.69V40.77H32.5v-4l-2.59,1.38V40.8H27.69v2.42h2.22v7.25c0,2,1.19,3.33,2.91,3.35a4.08,4.08,0,0,0,2.35-.59l0,0,.64-2.49-.15.13Z" transform="translate(-9.89 -33.05)"/><path id="path1280" class="cls-1" d="M37.88,53.65h2.64V40.8H37.88V53.65Z" transform="translate(-9.89 -33.05)"/><path id="path1282" class="cls-1" d="M82.54,35.89V48.15l.82-1.28s3.7-5.33,4.17-6h1.65l-3.26,4.46s3.78,7.87,4,8.31H88.31c-.09-.17-3.32-7-3.32-7L82.57,50v3.65H81.06V36.73l1.48-.84ZM70.19,42.38a4,4,0,0,1,3.4-1.8c2.84,0,4.34,1.8,4.34,5.22v7.82h-1.5V46.13c0-2.91-1-4.27-3.21-4.27s-3.35,1.6-3.35,4.27v7.49H68.36V40.85h1.51v2ZM60.94,40.6c2.91,0,4.34,1.33,4.34,4.07v9h-1.5V51.77l-.3.32a5,5,0,0,1-3.9,1.83,3.65,3.65,0,0,1-3.94-4c0-3,2.46-4,4.76-4a6.58,6.58,0,0,1,3.13.74l.25.15V44.94c0-2-1-3.06-3-3.06a6.72,6.72,0,0,0-3.43.94c-.1-.22-.45-1-.54-1.21a8.43,8.43,0,0,1,4.09-1Zm-3.82,9.18c0,1.89,1,3,2.78,3a4.61,4.61,0,0,0,3.83-2.05l0,0V47.83l-.07,0A6.46,6.46,0,0,0,60.3,47C58.3,47,57.12,48.05,57.12,49.78ZM45.5,35.89v6.83l.3-.32a4.9,4.9,0,0,1,3.74-1.82C52.36,40.58,54,42.92,54,47s-1.85,6.88-4.68,6.88a4.41,4.41,0,0,1-3.5-1.7l-.3-.35v1.75H44V36.73c.14,0,1.15-.64,1.5-.84Zm0,7.94,0,.05v6.66l0,.05a4.34,4.34,0,0,0,3.62,2c2.22,0,3.36-1.88,3.36-5.58,0-3.3-1.26-5.18-3.43-5.18a4.51,4.51,0,0,0-3.55,1.95" transform="translate(-9.89 -33.05)"/><path id="path1284" class="cls-2" d="M42.1,38.5a12.81,12.81,0,0,0-21,0l-.12.18h3l0,0a10.38,10.38,0,0,1,15.09,0l0,0h3Z" transform="translate(-9.89 -33.05)"/></g></g><text class="cls-3" transform="translate(34.43 30.23)">handlowy</text></svg>