<svg xmlns="http://www.w3.org/2000/svg" viewBox="0 0 80 12.26"><defs><style>.cls-1{fill:#144984;}.cls-2{fill:#dd1f26;}</style></defs><title>CitiBanamex</title><g id="Layer_2" data-name="Layer 2"><g id="CitiBanamex"><path class="cls-1" d="M5.37,8.87A2.16,2.16,0,0,1,1.54,7.48,2.12,2.12,0,0,1,3.7,5.37a2.16,2.16,0,0,1,1.65.77l.94-1A3.52,3.52,0,0,0,3.59,4,3.61,3.61,0,0,0,0,7.58a3.55,3.55,0,0,0,3.59,3.56A3.56,3.56,0,0,0,6.29,9.9Z"/><rect class="cls-1" x="6.94" y="4.4" width="1.41" height="6.74"/><path class="cls-1" d="M10.75,2.94l1.42-.88V4.29H13.6v1.3H12.17V9.41s.29,1.12,1.75,0l-.27,1.33a1.7,1.7,0,0,1-1.17.4,1.61,1.61,0,0,1-1.73-1.5v-4H9.58V4.29h1.17Z"/><rect class="cls-1" x="14.98" y="4.4" width="1.41" height="6.74"/><path class="cls-1" d="M21.92,4a2.35,2.35,0,0,0-1.84.84V2l-1.42.82v8.35h1.41v-.81a2.19,2.19,0,0,0,1.8.81c1.1,0,2.81-.88,2.86-3.61S23.17,4,21.92,4ZM21.7,9.9a2.45,2.45,0,0,1-1.67-1V6.15c1-1.08,1.67-.87,1.67-.87.8,0,1.66.69,1.65,2.25S22.64,9.9,21.7,9.9Z"/><path class="cls-2" d="M17.32,3.09A6.71,6.71,0,0,0,11.65,0,6.6,6.6,0,0,0,6.89,2,10.55,10.55,0,0,0,6,3.09H7.65a5,5,0,0,1,4-1.82,5.89,5.89,0,0,1,4.15,1.82Z"/><path class="cls-1" d="M28.27,4.08a5.22,5.22,0,0,0-2.33.64l.56,1a4.05,4.05,0,0,1,1.8-.49,1.55,1.55,0,0,1,1.37.94V7a2.31,2.31,0,0,0-1.57-.4c-1.13,0-2.83.48-2.81,2.26a2.27,2.27,0,0,0,2.51,2.27,2.42,2.42,0,0,0,1.87-.81v.81h1.39V6.08S30.92,4.11,28.27,4.08Zm1.4,5.1a2.69,2.69,0,0,1-1.78.81A1.28,1.28,0,0,1,26.57,8.8c0-.52.4-1.06,1.55-1.06a2.19,2.19,0,0,1,1.55.41Z"/><path class="cls-1" d="M32.26,11.14h1.41V6.61a1.37,1.37,0,0,1,1.42-1.43,1.38,1.38,0,0,1,1.44,1.43v4.53h1.4V6.31A2.34,2.34,0,0,0,35.55,4s-1.44-.1-1.83.79V4.08H32.26Z"/><path class="cls-1" d="M41.64,4.08a5.2,5.2,0,0,0-2.32.64l.55,1a4.12,4.12,0,0,1,1.81-.49,1.55,1.55,0,0,1,1.37.94V7a2.35,2.35,0,0,0-1.57-.4c-1.14,0-2.83.48-2.81,2.26a2.26,2.26,0,0,0,2.5,2.27,2.43,2.43,0,0,0,1.88-.81v.81h1.38V6.08S44.29,4.11,41.64,4.08Zm1.41,5.1a2.73,2.73,0,0,1-1.79.81A1.26,1.26,0,0,1,40,8.8c0-.52.39-1.06,1.55-1.06a2.22,2.22,0,0,1,1.55.41Z"/><path class="cls-1" d="M50.69,5a1.74,1.74,0,0,0-1.84-1s-1.39-.1-1.77.79V4.08H45.67v7.06H47V6.61a1.34,1.34,0,0,1,1.37-1.43A1.39,1.39,0,0,1,49.8,6.46v4.68h1.32V6.31a1.21,1.21,0,0,1,1.26-1.13,1.37,1.37,0,0,1,1.39,1.43v4.53h1.35V6.31A2.31,2.31,0,0,0,52.82,4s-1.65-.19-2.13,1"/><path class="cls-1" d="M62.11,8V6.92S61.88,4,59.21,4A3.12,3.12,0,0,0,56,7.32c0,1.14.48,3.75,3.06,3.75a3.79,3.79,0,0,0,2.49-.87l-.72-.88s-.4.51-1.77.52A1.74,1.74,0,0,1,57.39,8Zm-3-2.8a1.75,1.75,0,0,1,1.72,1.73H57.39A1.76,1.76,0,0,1,59.1,5.19Z"/><polygon class="cls-1" points="62.26 4.15 63.65 4.15 65.05 6.46 66.39 4.15 67.9 4.15 65.9 7.53 67.9 10.96 66.39 10.96 65.03 8.46 63.65 10.96 62.12 10.96 64.24 7.53 62.26 4.15"/><path class="cls-2" d="M79.41,6.53c-.23-.06-.75-.17-1.25-.27h0a10.85,10.85,0,0,0,1.11-1.74c.16-.33-.18-.88-.18-.88l0,0a6,6,0,0,0-2.49-2,.87.87,0,0,0-.83.34c-.14.21-.42.7-.69,1.16a.52.52,0,0,0,0-.14,11.62,11.62,0,0,0-1.29-1.6c-.26-.26-.9-.11-.9-.11h0A6,6,0,0,0,70.13,3a.85.85,0,0,0,.06.9c.15.19.53.62.87,1a.33.33,0,0,0-.1,0,10.29,10.29,0,0,0-1.91.76c-.32.18-.37.83-.37.83v0a6.12,6.12,0,0,0,.85,3.08.87.87,0,0,0,.88.21l1.22-.54a13.14,13.14,0,0,0,0,1.95c0,.36.64.64.64.64l0,0a6,6,0,0,0,3.18.33.85.85,0,0,0,.51-.74c0-.25,0-.81,0-1.33a.35.35,0,0,0,.1.08,10.45,10.45,0,0,0,2,.51c.36,0,.79-.46.79-.46l0,0a6,6,0,0,0,1.12-3A.86.86,0,0,0,79.41,6.53ZM72.19,3.86a3.59,3.59,0,0,1,2.2-.75,5.82,5.82,0,0,1,.64.06L74.55,4a1,1,0,0,0-.17.47c0-.09,0-.27-.32-.44s-.83.17-1.26.24-.73,0-.6-.42Zm-.47,2.27c-.35.31-.08.84-.14,1.28s-.22.69-.58.45h0a3.63,3.63,0,0,1-.07-2.33c0-.16.17-.43.23-.57l.62.7a1.15,1.15,0,0,0,.31.27A.65.65,0,0,0,71.72,6.13Zm2.74,4.06h0a3.56,3.56,0,0,1-2.19-.78,4.57,4.57,0,0,1-.34-.31l.68-.31a1.13,1.13,0,0,0,.48-.38.61.61,0,0,0,0,.48c.16.44.75.38,1.14.59S74.82,9.94,74.46,10.19ZM75.61,8.3a.74.74,0,0,0-.36-.14s-1.56-.24-2.07.14l-.05.06a.71.71,0,0,0,.05-.51,4.55,4.55,0,0,0-.8-1.8.72.72,0,0,0,.45-.11s1.38-.78,1.54-1.39v0a.71.71,0,0,0,.26.57,4.61,4.61,0,0,0,1.7,1,.74.74,0,0,0-.29.35A5,5,0,0,0,75.61,8.3Zm.9,1.35A4.62,4.62,0,0,1,76,10c0-.51,0-1,0-1a1.2,1.2,0,0,0-.06-.34.73.73,0,0,0,.35,0c.46,0,.56-.63.86-1s.59-.43.74,0h0A3.57,3.57,0,0,1,76.51,9.65ZM77,6a1,1,0,0,0-.39,0,.71.71,0,0,0,.17-.36c.11-.45-.42-.73-.63-1.12s-.22-.69.21-.7h0a3.67,3.67,0,0,1,1.41,1.85,4.43,4.43,0,0,1,.13.55Z"/></g></g></svg>