<svg xmlns="http://www.w3.org/2000/svg" viewBox="0 0 80 20.85"><defs><style>.cls-1{fill:#231f20;}</style></defs><title>Clientis-Bank</title><g id="Layer_2" data-name="Layer 2"><g id="Clientis-Bank"><path class="cls-1" d="M16.46,3.81A2.16,2.16,0,0,1,16.14,5a1.84,1.84,0,0,1-1.55.79,2,2,0,0,1-.94-.22,2.6,2.6,0,0,1-1.21-2.47A3,3,0,0,1,13.31.74,1.94,1.94,0,0,1,14.63.28,1.7,1.7,0,0,1,16,.81l.27-.52h.16V2h-.22A2.74,2.74,0,0,0,16,1.36,1.29,1.29,0,0,0,14.76.59,1.21,1.21,0,0,0,14,.85,3.05,3.05,0,0,0,13.36,3a4.53,4.53,0,0,0,.21,1.37,1.39,1.39,0,0,0,.58.76,1.16,1.16,0,0,0,.63.16,1.37,1.37,0,0,0,1.3-.87,2.41,2.41,0,0,0,.11-.59Z"/><path class="cls-1" d="M18.28,5c0,.21,0,.29.11.36s.23.08.46.09v.19c-.33,0-.65,0-1,0s-.66,0-1,0V5.47c.27,0,.41,0,.5-.13s.06-.15.07-.33V1.22c0-.21,0-.3-.07-.4S17.12.71,16.87.7V.52A7.9,7.9,0,0,0,18.28.27Z"/><path class="cls-1" d="M20.73,5c0,.21,0,.29.11.36s.23.08.45.09v.19c-.33,0-.66,0-1,0s-.66,0-1,0V5.47c.26,0,.41,0,.49-.13s.07-.15.07-.33V2.73c0-.21,0-.3-.07-.4s-.23-.12-.49-.12V2a7.85,7.85,0,0,0,1.41-.25Zm-1-4.21a.53.53,0,0,1,.5-.54.52.52,0,0,1,.51.54.51.51,0,1,1-1,0Z"/><path class="cls-1" d="M24.77,4.46a1.38,1.38,0,0,1-1.46,1.28,1.86,1.86,0,0,1-.66-.12,1.8,1.8,0,0,1-1-1.84,2,2,0,0,1,.73-1.69,1.59,1.59,0,0,1,.9-.27,1.45,1.45,0,0,1,.8.22c.41.26.7.72.72,1.71H22.49a4.46,4.46,0,0,0,.05.77,1.47,1.47,0,0,0,.21.56.83.83,0,0,0,.72.37c.82,0,1-.8,1-1Zm-.86-1a3.18,3.18,0,0,0-.14-1,.58.58,0,0,0-.33-.4A.52.52,0,0,0,23.23,2a.54.54,0,0,0-.29.09c-.37.25-.42,1-.44,1.35Z"/><path class="cls-1" d="M25.23,2.05a10.31,10.31,0,0,0,1.19-.23,1,1,0,0,1,.06.16,3.62,3.62,0,0,1,.07.5,1.24,1.24,0,0,1,1.12-.63,1.11,1.11,0,0,1,1.09.66,2,2,0,0,1,.09.66V5a.41.41,0,0,0,.11.36c.09.08.23.08.45.09v.19c-.3,0-.62,0-.93,0s-.62,0-.92,0V5.48l.24,0c.19-.07.19-.23.19-.4v-2a.82.82,0,0,0-.25-.74.75.75,0,0,0-.37-.1.77.77,0,0,0-.45.14.84.84,0,0,0-.27.72V5.05c0,.34.1.41.43.43v.18c-.3,0-.61,0-.92,0s-.61,0-.93,0V5.47c.26,0,.4,0,.49-.13s.07-.15.07-.33V2.76c0-.23,0-.38-.08-.46s-.38-.08-.49-.08Z"/><path class="cls-1" d="M31.8,5.43a1.44,1.44,0,0,1-.86.28.92.92,0,0,1-.8-.39A1.43,1.43,0,0,1,30,4.48L30,2.22h-.49V2A.94.94,0,0,0,30,1.8a1.63,1.63,0,0,0,.59-1h.27l0,1.15h.84v.29h-.85V4.54c0,.34,0,.53.1.66a.34.34,0,0,0,.32.16.87.87,0,0,0,.52-.22Z"/><path class="cls-1" d="M33.62,5c0,.21,0,.29.11.36s.23.08.46.09v.19c-.33,0-.66,0-1,0s-.66,0-1,0V5.47c.26,0,.4,0,.49-.13s.07-.15.07-.33V2.73c0-.21,0-.3-.07-.4s-.24-.12-.49-.12V2a7.69,7.69,0,0,0,1.4-.25Zm-1-4.21a.51.51,0,1,1,1,0,.53.53,0,0,1-.51.55A.52.52,0,0,1,32.66.81Z"/><path class="cls-1" d="M34.76,4.38H35a1.69,1.69,0,0,0,.12.48.92.92,0,0,0,.85.6.9.9,0,0,0,.3-.06.63.63,0,0,0,.43-.59c0-.35-.28-.48-.79-.74l-.39-.2-.25-.14a.94.94,0,0,1-.46-.84,1.13,1.13,0,0,1,1.26-1,1.29,1.29,0,0,1,.85.29l.16-.38h.15V3H37a2.19,2.19,0,0,0-.07-.37.77.77,0,0,0-.76-.55.72.72,0,0,0-.61.3.52.52,0,0,0-.09.28c0,.34.36.48.61.6.09,0,.17.09.26.12a5.58,5.58,0,0,1,.54.29A1.72,1.72,0,0,1,37.2,4a.93.93,0,0,1,.2.6,1.18,1.18,0,0,1-.12.52,1.32,1.32,0,0,1-1.19.64,1.43,1.43,0,0,1-1-.37l-.2.41h-.15Z"/><path class="cls-1" d="M15.55,13.2h-3.3V13c.16,0,.46,0,.57-.17a.72.72,0,0,0,0-.32V8.88a1.14,1.14,0,0,0,0-.26c-.07-.22-.43-.22-.6-.24V8.2h3.26l.14,1.13h-.18c-.08-.3-.18-.7-.51-.83a.83.83,0,0,0-.37-.06H13.5v2.05h1.08a.31.31,0,0,0,.16,0c.21-.05.26-.24.28-.6h.18v1.47H15a1.45,1.45,0,0,0,0-.3.41.41,0,0,0-.18-.28.58.58,0,0,0-.26,0h-1v2c.05.27.29.27.5.28h.54l.29,0a.68.68,0,0,0,.54-.47,2.56,2.56,0,0,0,.11-.24,2.33,2.33,0,0,0,.07-.25h.17Z"/><path class="cls-1" d="M17.4,11.75l-.25.7a1.56,1.56,0,0,0-.09.34.24.24,0,0,0,0,.12c.07.1.22.12.46.12v.19c-.24,0-.48,0-.72,0s-.48,0-.71,0V13a1.37,1.37,0,0,0,.34,0c.24-.08.29-.27.38-.48L18.56,8,20.1,12.6a1,1,0,0,0,.12.24.74.74,0,0,0,.57.19v.19a6.84,6.84,0,0,0-.91-.06,7,7,0,0,0-.91.06V13a1,1,0,0,0,.41-.08.23.23,0,0,0,.07-.16s0-.12-.05-.23l-.25-.81Zm1.67-.24-.72-2.29-.86,2.29Z"/><path class="cls-1" d="M24.34,12.21a1.78,1.78,0,0,1-.49.65,1.74,1.74,0,0,1-1.19.43,1.84,1.84,0,0,1-1.59-.86,3.28,3.28,0,0,1-.43-1.74,2.84,2.84,0,0,1,.87-2.2,1.75,1.75,0,0,1,1.14-.38,1.86,1.86,0,0,1,1.12.37,2.18,2.18,0,0,1,.78,1.32,3.42,3.42,0,0,1,.1.86A3.49,3.49,0,0,1,24.34,12.21Zm-.82-3.45a1.06,1.06,0,0,0-.86-.44,1.08,1.08,0,0,0-.49.12c-.74.37-.85,1.54-.85,2.24a3.76,3.76,0,0,0,.43,1.89,1.07,1.07,0,0,0,.91.51,1.1,1.1,0,0,0,.75-.3A3.1,3.1,0,0,0,24,10.66,3.57,3.57,0,0,0,23.52,8.76Z"/><path class="cls-1" d="M30.57,13.2H27.11V13c.16,0,.48,0,.59-.18a.66.66,0,0,0,.06-.34V8.66a.83.83,0,0,0,0-.27c-.07-.23-.45-.24-.62-.25V8h3.42l.15,1.18h-.19c-.08-.32-.19-.74-.53-.88a1,1,0,0,0-.4-.06H28.42v2.15h1.3c.22-.06.27-.26.29-.64h.2v1.54H30a1.45,1.45,0,0,0,0-.31.44.44,0,0,0-.2-.3.77.77,0,0,0-.27,0H28.42v2.07c0,.28.31.29.52.3h.57l.3,0a.76.76,0,0,0,.58-.49c0-.09.08-.17.11-.26a2.5,2.5,0,0,0,.07-.26h.19Z"/><path class="cls-1" d="M31.37,9.54a5.8,5.8,0,0,0,1-.18c0,.14,0,.27.05.41s0,.22,0,.33a.67.67,0,0,1,.09-.19,1,1,0,0,1,.83-.52.63.63,0,0,1,.68.63.33.33,0,0,1-.33.38.29.29,0,0,1-.32-.26.75.75,0,0,1,0-.17s0,0,0-.06a.21.21,0,0,0-.24-.19.46.46,0,0,0-.34.14A1.58,1.58,0,0,0,32.55,11v1.65a.49.49,0,0,0,0,.24c.06.15.24.17.53.18v.16c-.28,0-.57-.05-.87-.05s-.59,0-.88.05v-.16c.28,0,.45,0,.52-.15a.48.48,0,0,0,.05-.27V10.05a.37.37,0,0,0-.09-.31.94.94,0,0,0-.47-.06Z"/><path class="cls-1" d="M34.55,12h.17a1.84,1.84,0,0,0,.12.44,1,1,0,0,0,.9.62.83.83,0,0,0,.72-.37.71.71,0,0,0,.09-.35.55.55,0,0,0-.32-.5c-.14-.08-.44-.21-.83-.39a3.67,3.67,0,0,1-.39-.2,1,1,0,0,1-.33-1.17,1.17,1.17,0,0,1,1.1-.64,1.39,1.39,0,0,1,.81.25l.13-.32h.14v1.22h-.18a1.49,1.49,0,0,0-.11-.46.74.74,0,0,0-.72-.47.7.7,0,0,0-.74.65.52.52,0,0,0,.06.26,1.21,1.21,0,0,0,.59.39l.35.16a3.92,3.92,0,0,1,.36.16.9.9,0,0,1,.62.88,1.41,1.41,0,0,1-.12.52,1.23,1.23,0,0,1-1.15.61,1.55,1.55,0,0,1-1-.32l-.18.35h-.14Z"/><path class="cls-1" d="M37.67,9.53l.57,0,.47-.09a4.26,4.26,0,0,1,.1.66,1.07,1.07,0,0,1,1-.64,1.28,1.28,0,0,1,.66.18,1.93,1.93,0,0,1,.83,1.75,2.21,2.21,0,0,1-.6,1.58,1.16,1.16,0,0,1-.87.34,1,1,0,0,1-.77-.33,3.11,3.11,0,0,1-.19-.28v1.54a.43.43,0,0,0,0,.25c.09.17.37.17.52.17v.16a8.49,8.49,0,0,0-.88,0,8.65,8.65,0,0,0-.88,0v-.16c.14,0,.44,0,.52-.16a.54.54,0,0,0,.05-.26v-4a.5.5,0,0,0-.1-.37c-.08-.09-.23-.09-.47-.09Zm1.25,2.57c.11.55.34.81.59.9a.81.81,0,0,0,.26.05c.23,0,.54-.09.72-.59a3.65,3.65,0,0,0,.14-1.12,4.38,4.38,0,0,0-.08-.87,1.66,1.66,0,0,0-.13-.38.76.76,0,0,0-.68-.47.81.81,0,0,0-.76.66,3.39,3.39,0,0,0-.12,1.05A5.91,5.91,0,0,0,38.92,12.1Z"/><path class="cls-1" d="M45.09,13.2a2.48,2.48,0,0,1-.46.05.59.59,0,0,1-.22,0c-.28-.1-.34-.37-.37-.63a2.13,2.13,0,0,1-.16.25,1,1,0,0,1-.9.43,1.39,1.39,0,0,1-.42-.06,1,1,0,0,1-.67-.95,1,1,0,0,1,.55-.9A4,4,0,0,1,44,10.88v-.47a.86.86,0,0,0,0-.16.61.61,0,0,0-.27-.55.81.81,0,0,0-.37-.08c-.2,0-.55.09-.63.31a1,1,0,0,0,0,.32c0,.19,0,.27-.13.32a.3.3,0,0,1-.19,0,.24.24,0,0,1-.26-.27.78.78,0,0,1,.1-.35,1.39,1.39,0,0,1,1.19-.58,1.17,1.17,0,0,1,1.14.65,2,2,0,0,1,.08.65v1.6a1.39,1.39,0,0,0,.08.59.24.24,0,0,0,.23.12l.2,0ZM44,11.08a2.25,2.25,0,0,0-1.17.48.91.91,0,0,0-.25.66.64.64,0,0,0,.66.71.69.69,0,0,0,.46-.16,1.28,1.28,0,0,0,.3-1Z"/><path class="cls-1" d="M45.49,9.54a5.8,5.8,0,0,0,1-.18c0,.14,0,.27,0,.41s0,.22,0,.33a.67.67,0,0,1,.09-.19,1,1,0,0,1,.84-.52.63.63,0,0,1,.67.63.33.33,0,0,1-.33.38.28.28,0,0,1-.31-.26.62.62,0,0,1,0-.17s0,0,0-.06-.13-.19-.24-.19a.46.46,0,0,0-.34.14A1.63,1.63,0,0,0,46.67,11v1.65a.49.49,0,0,0,0,.24c.07.15.24.17.53.18v.16c-.29,0-.58-.05-.88-.05s-.59,0-.88.05v-.16c.28,0,.46,0,.52-.15a.48.48,0,0,0,0-.27V10.05A.41.41,0,0,0,46,9.74a1,1,0,0,0-.48-.06Z"/><path class="cls-1" d="M48.49,9.58a5.22,5.22,0,0,0,1-.24,3.69,3.69,0,0,1,.08.68,1.43,1.43,0,0,1,.25-.3,1.17,1.17,0,0,1,.82-.31,1.15,1.15,0,0,1,.91.41,1.5,1.5,0,0,1,.24.92v1.9a.8.8,0,0,0,0,.24c.06.14.26.17.54.18v.16c-.29,0-.59-.05-.89-.05s-.54,0-.82.05v-.16c.14,0,.39,0,.48-.16a.51.51,0,0,0,0-.25V10.72a3,3,0,0,0,0-.5.65.65,0,0,0-.67-.46.82.82,0,0,0-.48.15.89.89,0,0,0-.33.84v1.9a.52.52,0,0,0,0,.25c.09.15.34.15.47.16v.16c-.27,0-.55-.05-.82-.05s-.59,0-.88.05v-.16c.28,0,.45,0,.52-.16a.47.47,0,0,0,0-.26V10.2a1.47,1.47,0,0,0,0-.27c0-.23-.21-.21-.54-.22Z"/><path class="cls-1" d="M54,12.64c0,.33.08.4.57.42v.16c-.3,0-.59-.05-.89-.05s-.59,0-.87.05v-.16H53s.26,0,.32-.16a.42.42,0,0,0,0-.25v-2.5c0-.2,0-.29-.1-.37s-.22-.08-.46-.08V9.55A7.46,7.46,0,0,0,54,9.34Zm-.76-4.27a.41.41,0,0,1,.42-.43.42.42,0,0,1,.42.43.42.42,0,1,1-.84,0Z"/><path class="cls-1" d="M55.17,12h.18a1.35,1.35,0,0,0,.11.44,1,1,0,0,0,.9.62.82.82,0,0,0,.72-.37.71.71,0,0,0,.09-.35.54.54,0,0,0-.32-.5c-.14-.08-.44-.21-.83-.39a3.67,3.67,0,0,1-.39-.2,1,1,0,0,1-.33-1.17,1.17,1.17,0,0,1,1.1-.64,1.39,1.39,0,0,1,.81.25l.13-.32h.14v1.22H57.3a1.49,1.49,0,0,0-.11-.46.74.74,0,0,0-.72-.47.7.7,0,0,0-.74.65.52.52,0,0,0,.06.26,1.21,1.21,0,0,0,.59.39l.35.16a3.92,3.92,0,0,1,.36.16.9.9,0,0,1,.62.88,1.13,1.13,0,0,1-1.27,1.13,1.55,1.55,0,0,1-.95-.32l-.18.35h-.14Z"/><path class="cls-1" d="M61.61,13.2a2.4,2.4,0,0,1-.46.05.59.59,0,0,1-.22,0c-.28-.1-.34-.37-.37-.63a1.32,1.32,0,0,1-.16.25,1,1,0,0,1-.89.43,1.4,1.4,0,0,1-.43-.06,1,1,0,0,1-.67-.95,1,1,0,0,1,.55-.9,4,4,0,0,1,1.51-.47v-.47a.86.86,0,0,0,0-.16.61.61,0,0,0-.27-.55.81.81,0,0,0-.37-.08c-.2,0-.55.09-.63.31a1,1,0,0,0,0,.32c0,.19-.05.27-.13.32a.3.3,0,0,1-.19,0,.24.24,0,0,1-.26-.27A.71.71,0,0,1,58.7,10a1.36,1.36,0,0,1,1.18-.58,1.17,1.17,0,0,1,1.14.65,2,2,0,0,1,.08.65v1.6a1.39,1.39,0,0,0,.08.59.24.24,0,0,0,.23.12l.2,0Zm-1.14-2.12a2.25,2.25,0,0,0-1.17.48.91.91,0,0,0-.25.66.64.64,0,0,0,.66.71.69.69,0,0,0,.46-.16,1.28,1.28,0,0,0,.3-1Z"/><path class="cls-1" d="M62,9.58a5.22,5.22,0,0,0,1-.24,4.51,4.51,0,0,1,.09.68,1.46,1.46,0,0,1,.24-.3,1.22,1.22,0,0,1,.83-.31,1.13,1.13,0,0,1,.9.41,1.51,1.51,0,0,1,.25.92v1.9a.8.8,0,0,0,0,.24c.06.14.25.17.53.18v.16c-.29,0-.58-.05-.88-.05s-.55,0-.82.05v-.16c.14,0,.39,0,.47-.16a.49.49,0,0,0,0-.25V10.72a2.45,2.45,0,0,0,0-.5A.65.65,0,0,0,64,9.76a.8.8,0,0,0-.48.15.88.88,0,0,0-.34.84v1.9a.43.43,0,0,0,0,.25c.09.15.33.15.47.16v.16c-.28,0-.55-.05-.83-.05s-.58,0-.87.05v-.16c.27,0,.45,0,.52-.16a.57.57,0,0,0,0-.26V10.2c0-.13,0-.22,0-.27,0-.23-.22-.21-.55-.22Z"/><path class="cls-1" d="M66.47,12h.17a1.84,1.84,0,0,0,.12.44,1,1,0,0,0,.9.62.83.83,0,0,0,.72-.37.71.71,0,0,0,.09-.35.55.55,0,0,0-.32-.5c-.14-.08-.44-.21-.83-.39a3.67,3.67,0,0,1-.39-.2,1,1,0,0,1-.33-1.17,1.17,1.17,0,0,1,1.1-.64,1.42,1.42,0,0,1,.81.25l.12-.32h.15v1.22H68.6a1.49,1.49,0,0,0-.11-.46.74.74,0,0,0-.72-.47.7.7,0,0,0-.74.65.52.52,0,0,0,.06.26,1.21,1.21,0,0,0,.59.39l.35.16a3.92,3.92,0,0,1,.36.16.9.9,0,0,1,.62.88,1.41,1.41,0,0,1-.12.52,1.23,1.23,0,0,1-1.15.61,1.55,1.55,0,0,1-.95-.32l-.18.35h-.14Z"/><path class="cls-1" d="M71.75,13a1.43,1.43,0,0,1-.78.23,1,1,0,0,1-.54-.15c-.35-.26-.32-.77-.32-1.14l0-2.21h-.51V9.53A.9.9,0,0,0,70,9.45c.41-.19.54-.72.62-1.1h.19V9.48h.92v.28h-.92v2.3a4.09,4.09,0,0,0,0,.51.42.42,0,0,0,.43.39,1,1,0,0,0,.52-.17Z"/><path class="cls-1" d="M75.34,13.2a2.32,2.32,0,0,1-.45.05.53.53,0,0,1-.22,0c-.29-.1-.35-.37-.37-.63a2.13,2.13,0,0,1-.16.25,1,1,0,0,1-.9.43,1.35,1.35,0,0,1-.42-.06,1,1,0,0,1-.67-.95,1,1,0,0,1,.55-.9,4,4,0,0,1,1.51-.47v-.47a.86.86,0,0,0,0-.16.61.61,0,0,0-.28-.55.75.75,0,0,0-.36-.08c-.21,0-.55.09-.63.31s0,.14,0,.32a.33.33,0,0,1-.14.32.26.26,0,0,1-.18,0,.24.24,0,0,1-.26-.27.67.67,0,0,1,.1-.35,1.38,1.38,0,0,1,1.19-.58,1.18,1.18,0,0,1,1.14.65,2,2,0,0,1,.08.65v1.6a1.39,1.39,0,0,0,.08.59.23.23,0,0,0,.22.12,1,1,0,0,0,.2,0Zm-1.13-2.12a2.22,2.22,0,0,0-1.17.48.91.91,0,0,0-.25.66.63.63,0,0,0,.65.71.64.64,0,0,0,.46-.16,1.25,1.25,0,0,0,.31-1Z"/><path class="cls-1" d="M76.91,12.64a.63.63,0,0,0,0,.14.29.29,0,0,0,.25.25l.31,0v.16c-.29,0-.58-.05-.88-.05s-.59,0-.88.05v-.16h.2s.26,0,.33-.16a.51.51,0,0,0,0-.25v-4c0-.16,0-.35-.19-.42a1.39,1.39,0,0,0-.37,0V8.07a6.73,6.73,0,0,0,1.19-.21Z"/><path class="cls-1" d="M80,13a1.4,1.4,0,0,1-.78.23.9.9,0,0,1-.53-.15c-.36-.26-.33-.77-.32-1.14l0-2.21h-.51V9.53a1,1,0,0,0,.33-.08c.4-.19.53-.72.62-1.1H79V9.48h.91v.28H79v2.3a4.09,4.09,0,0,0,0,.51.43.43,0,0,0,.44.39,1.07,1.07,0,0,0,.52-.17Z"/><path class="cls-1" d="M16.28,19.72a2.1,2.1,0,0,1-.52.67,1.86,1.86,0,0,1-1.25.46,1.92,1.92,0,0,1-1.67-.91,3.4,3.4,0,0,1-.46-1.83,3,3,0,0,1,.92-2.31,1.83,1.83,0,0,1,1.19-.4,1.93,1.93,0,0,1,1.18.4,2.27,2.27,0,0,1,.83,1.38,3.83,3.83,0,0,1,.1.9A3.79,3.79,0,0,1,16.28,19.72Zm-.87-3.63a1.13,1.13,0,0,0-.9-.47,1.17,1.17,0,0,0-.51.13c-.78.39-.9,1.62-.9,2.36a3.9,3.9,0,0,0,.45,2,1.14,1.14,0,0,0,1,.53,1.19,1.19,0,0,0,.79-.32,3.25,3.25,0,0,0,.59-2.23A3.67,3.67,0,0,0,15.41,16.09Z"/><path class="cls-1" d="M17.61,16.09a.28.28,0,0,0-.2-.3,1.54,1.54,0,0,0-.36,0v-.14a7.39,7.39,0,0,0,1.18-.2v2.15a1.43,1.43,0,0,1,.29-.36A.9.9,0,0,1,19.2,17a1.28,1.28,0,0,1,.63.17,1.9,1.9,0,0,1,.83,1.77A2.55,2.55,0,0,1,20.43,20a1.43,1.43,0,0,1-1.27.84,1,1,0,0,1-.83-.37,1.56,1.56,0,0,1-.19-.32l-.34.71h-.19Zm.69,3.72a1.3,1.3,0,0,0,.12.31.75.75,0,0,0,.69.48.73.73,0,0,0,.27-.06,1,1,0,0,0,.55-.84,5.55,5.55,0,0,0,.07-.84,5.63,5.63,0,0,0,0-.58c-.11-.79-.41-1.1-.84-1.1a.65.65,0,0,0-.57.29,2.55,2.55,0,0,0-.34,1.43A4.72,4.72,0,0,0,18.3,19.81Z"/><path class="cls-1" d="M24.37,19.55a1.53,1.53,0,0,1-.45,1,1.31,1.31,0,0,1-.91.33,1.41,1.41,0,0,1-1.11-.42,2,2,0,0,1-.51-1.51,2.24,2.24,0,0,1,.45-1.48,1.37,1.37,0,0,1,1.09-.49,1.34,1.34,0,0,1,1.15.59,2.39,2.39,0,0,1,.28,1.27H22a3,3,0,0,0,.27,1.36.83.83,0,0,0,.77.41,1,1,0,0,0,.54-.15,1.17,1.17,0,0,0,.45-.87Zm-.63-1a2.83,2.83,0,0,0-.18-.91.68.68,0,0,0-1.18-.2A2.2,2.2,0,0,0,22,18.51Z"/><path class="cls-1" d="M24.92,17.1a7.36,7.36,0,0,0,1-.19c0,.14,0,.27.05.42s0,.21,0,.32a.59.59,0,0,1,.09-.18,1,1,0,0,1,.83-.53.64.64,0,0,1,.68.64.34.34,0,0,1-.33.38.29.29,0,0,1-.32-.27.61.61,0,0,1,0-.16s0-.05,0-.07a.22.22,0,0,0-.24-.19.48.48,0,0,0-.34.15,1.55,1.55,0,0,0-.33,1.12v1.65a.54.54,0,0,0,0,.25c.06.14.24.16.53.18v.15c-.28,0-.57,0-.87,0s-.59,0-.88,0v-.15c.28,0,.45-.05.52-.16a.46.46,0,0,0,0-.27V17.6c0-.1,0-.24-.09-.3s-.25-.06-.47-.07Z"/><path class="cls-1" d="M27.8,17.1A8,8,0,0,0,29,16.9v2.62a1.75,1.75,0,0,0,.06.53.62.62,0,0,0,.65.41.75.75,0,0,0,.65-.32,1.29,1.29,0,0,0,.16-.73V17.7a.54.54,0,0,0-.07-.35c-.09-.11-.23-.11-.49-.11V17.1a6.24,6.24,0,0,0,1.18-.2v3.2c0,.15,0,.29.17.35a1.44,1.44,0,0,0,.41,0v.14a6.19,6.19,0,0,0-1.08.21,5.78,5.78,0,0,1-.05-.71,1.17,1.17,0,0,1-1.08.7,1.07,1.07,0,0,1-1.08-.71,1.77,1.77,0,0,1-.07-.6v-2a.3.3,0,0,0-.19-.29,1.52,1.52,0,0,0-.37,0Z"/><path class="cls-1" d="M34.29,17.24h-.88a.84.84,0,0,0-.51.12,1.61,1.61,0,0,0-.4.69h-.16l.18-1h2.61L33,20.55h.93a2,2,0,0,0,.3,0,.81.81,0,0,0,.5-.47,1.23,1.23,0,0,0,.12-.26l.07-.18h.15l-.2,1.13h-2.7Z"/><path class="cls-1" d="M37.48,20.16c-.08.23-.15.46-.22.69h-.21c-.07-.25-.14-.49-.22-.74L36,17.56a1.35,1.35,0,0,0-.11-.24c-.1-.12-.18-.14-.44-.15V17c.26,0,.53,0,.8,0s.53,0,.79,0v.16a1,1,0,0,0-.37.06.14.14,0,0,0-.07.13,1.16,1.16,0,0,0,0,.18l.67,2.24,1-2.85h.22l.92,2.88.69-2.26a1.29,1.29,0,0,0,0-.19.19.19,0,0,0,0-.09c0-.09-.2-.09-.4-.1V17l.63,0A5.49,5.49,0,0,0,41,17v.16a.59.59,0,0,0-.47.17.6.6,0,0,0-.1.2l-.8,2.57c-.08.25-.15.49-.22.74h-.21L39,20.16l-.71-2.25Z"/><path class="cls-1" d="M42.42,20.19c0,.33.07.4.56.43v.15c-.29,0-.58,0-.88,0s-.59,0-.88,0v-.15l.2,0s.26,0,.33-.15a.45.45,0,0,0,0-.26V17.7c0-.2,0-.3-.1-.37s-.22-.09-.46-.09V17.1a7.79,7.79,0,0,0,1.18-.2Zm-.77-4.27a.41.41,0,0,1,.43-.43.42.42,0,0,1,.41.43.42.42,0,0,1-.42.44A.43.43,0,0,1,41.65,15.92Z"/><path class="cls-1" d="M44.62,20.19a.63.63,0,0,0,0,.14.29.29,0,0,0,.25.26l.31,0v.15c-.29,0-.58,0-.87,0s-.59,0-.88,0v-.15l.2,0s.25,0,.33-.15a.56.56,0,0,0,0-.26v-4c0-.16,0-.36-.19-.42a1.1,1.1,0,0,0-.37,0v-.14a7.64,7.64,0,0,0,1.19-.2Z"/><path class="cls-1" d="M3.48,0,2.72.49A15,15,0,0,0,6.33,4l-.61.33A16.21,16.21,0,0,1,2.09.9l-.74.48A16.78,16.78,0,0,0,5,4.76l-.58.36A17.65,17.65,0,0,1,.73,1.78L0,2.26a18.76,18.76,0,0,0,3.74,3.3A18.48,18.48,0,0,0,0,8.87l.73.47A17.35,17.35,0,0,1,4.41,6L5,6.37A16.61,16.61,0,0,0,1.35,9.75l.74.48A15.84,15.84,0,0,1,5.73,6.79l.61.33a14.84,14.84,0,0,0-3.62,3.52l.76.49a16.89,16.89,0,0,1,7-5.57A16.79,16.79,0,0,1,3.48,0Zm4.8,5.18L9,5.56,8.28,6l-.71-.39ZM7,4.42l.63.39L7,5.18l-.63-.39Zm-1.34.77.6.37-.6.38-.6-.38ZM7,5.94l.68.37L7,6.71l-.68-.37Z"/></g></g></svg>