<svg id="Layer_1" data-name="Layer 1" xmlns="http://www.w3.org/2000/svg" viewBox="0 0 80.03 19.75"><defs><style>.cls-1{fill:#ec2024;}.cls-2{stroke:#000;stroke-miterlimit:10;stroke-width:0.07px;}.cls-3{isolation:isolate;}</style></defs><title>CMB</title><path id="path3978" class="cls-1" d="M29.33,52.9l.11-.49H27.23l.2.49Zm.2-.89.1-.49H26.86l.2.49Zm-9.9-11.88a9.88,9.88,0,0,0-5.46,17.94h0a9.88,9.88,0,0,0,13.76-2.36,9.52,9.52,0,0,0,1.21-2.32H27.61l.25.6-2,3.06H14.13l-2.08-3,5.14-12.84,2.87,6.82,2.67-6.92,2.45,6.12h4.2a9.86,9.86,0,0,0-9.75-7.14Zm5.74,7.63.2.49h4c0-.17-.06-.33-.1-.49Zm.35.89.2.49h3.8c0-.16,0-.33,0-.49Zm.39,1,.21.49h3.42v-.49Zm.36.89.2.49h3c0-.17,0-.33,0-.49Z" transform="translate(-10 -40.13)"/><path id="path3960" class="cls-1" d="M16.3,47.17,19.07,54l2.77-6.82,2.86,6.92H13.53Z" transform="translate(-10 -40.13)"/><path id="path2830" class="cls-2" d="M83.28,42.73h.1v.1l.2.1h.1l.1.1v.1l.1.2v.1l.1.1v.1l-.1.2-.1.2v.4l.1.1-.1.4.1.3v.49l-.1.2v.3l-.2.1h-.2l-.2.1-.1.1v.4l.1.1h.1l.2.1.1.1.2.2v.1h.1l.1.1v.1l.1.1.1-.1h.1v-.59h3l.89-.1,1-.1h.1l.2-.1h.2l.1-.1.1-.1h.1v-.1H90v1.58l-.1.49.1.2v.1h-.1l-.1-.1-.1.1h-.89l-.3-.1-.4.1h-.4V50l-.1.4.1.2v.89l.1,1.28v1.58l-.1.1h-.2v.1l-.59-.1H85.73l-.49-.1-.2-.1h-.1l-.1-.2h-.1l-.1-.1-.1-.2v-.3l.1-.1v-.2h.2l.2.1h.3l.3-.2.2-.3.1-.1-.1-.3.1-.4v-.3l.1-.3-.1-.3v-.69L86,50v-.69l-.1-.3H85l-.3.1-.4-.1H84v-.3l.1-.1v-.1l-.1-.1h-.2l-.1.1-.1.1h-.2v.2h-.1l-.1.2v.59l.1.1.1.2-.1.2v1.58l-.1.2v1.48l-.1.49-.1.1-.1.1-.2.1-.1.1v.1h-.1l-.3.1-.2-.1-.3-.1-.3-.1-.1-.1h-.1l-.1-.1h-.2l-.1-.1h-.2v-.2l.2-.1.2-.1.1-.2h.1v-.1h.1v-.59l.1-.1V50.63l.1-.3-.1-.1-.1-.1-.1-.1-.2.2-.2.1-.3.4-.2.2-.3-.1h-.3l-.2-.2h-.2l-.1-.2-.1-.1v-.1H79v-.1h-.1L79,50l-.1-.1v-.1H79l.1-.1.1-.1h.2l.1-.1.2-.1.2-.1h.2l.1-.2.1-.1.2-.1.2-.1.2-.2.1-.1.1-.2.3-.3.1-.2v-.1l.1-.1v-.2l-.1-.1-.1-.1-.1-.1h-.1l-.1.1-.1.1-.2.2v.1h-.3v.1h-.4l-.1-.1h-.1l-.1-.1-.1-.1-.1-.1v-.1l-.1-.1v-.89l.4-.2.3-.1.1-.1.1-.1h.3l.2-.2.2-.1.2-.2.2-.2.1-.1.1-.2.2-.1.1-.2v-.1l.1-.2.1-.1v-.3l.1-.1.2-.2.1-.2.1-.2.2-.2.2-.1Z" transform="translate(-10 -40.13)"/><path id="path2832" class="cls-2" d="M89,43.61h.3v.1l.1.1V44l-.1.49v1.19l-.1.1v.1l-.1.2v.1H89l-.2.1-.1-.1H86.64l-.69.1H84.57l-.1.1-.1-.2V45.5l-.1-.89v-.2l-.1-.1v-.2h.69l.3.1h.3l.4-.1h.4l.49.1h.89L88,44l.4-.1.4-.2.1-.1Z" transform="translate(-10 -40.13)"/><path id="path2870" class="cls-2" d="M55.12,50.92V51h-.59v.89l.1.1h.1l.2.1.1.1h.1l.1-.1.1-.1.1-.1.1-.1.1-.1v-.2l-.1-.2V51h-.1l-.1-.1h-.21m1.68-1-.2.1v1.48l-.1.2v1.09l.1.1h.2l.1-.1H57v-1l.1-.1V50.53L57,50l-.2-.1M55,48.46h-.3V49l.1.2.1.3-.1.2-.1.2V50h.89v-.2l-.1-.1v-.1l-.1-.59v-.4l-.1-.1H55m-1.77,0h-.1l-.2.1h-.2V49l-.1.1-.1.2v.1l.1.1v.1h.1l.3-.1.3-.1.1-.1.1-.2v-.49l-.1-.1h-.2m3.26-.11h-.3v.1l-.1.1v.3l.1.1v.1h.2l.1.1.1.1h.2v-.1h.1l.1-.1V49l.1-.2.1-.1v-.2H57l-.1-.1h-.39M55,45.79h-.1l-.2.1-.3.3v.3l.1.1.1.1.1.1.1.1h.49l.1-.1V46.3l.1-.1v-.3h-.2l-.1-.1H55M54.92,42h.79l.3.2.1.1h.2l.1.1-.1.1v.1l-.1.1v.1L56,43l-.2.3-.1.2-.1.2V44h2.07l.69-.1h.3l.3-.2h.69l.3.1.1.2.1.2v.69l-.1.3-.1.3-.1.1v.3l-.1.1h-.49l-.1-.1H59l-.3.1h-.3l-.59-.1H57.2l-.1.2-.1.2v.4l.1.1.1.1.1-.1h.2l.1-.1h.3l.3.1h.3l.3.2v.59l.1.49v.59h-.1V50l.1,1.09v1.09l.1.59v.4l-.1.4-.1.4v.2l-.1.2v.1h-1l-.4-.1h-.89l-.4-.1-.3-.2h-.2l-.1-.1h-.1l.2-.2.1-.1.1-.2v-.1l-.1-.1-.1-.1H53.75l-.1-.1h-.1v-.1h-.1v-.79l-.1-.2v-.2l.1-.2v-.2l-.1-.1v-.79l-.2-.2h-.3v.79l.1.79v1.48l-.1.2-.1.2-.1.2h-.2l-.2.1h-.1l-.49-.1-.4-.1V53.2l-.1-.2V48.16l-.1-.69.1-.3v-.3l.1-.1h1l.49.1h.2l.1-.1h.1v-.2l-.1-.2-.1-.1-.1-.2h-.1V46l-.2.1-.1.1h-.69l-.89.1-.4.1h-.1l-.1-.1-.1-.1-.1-.2-.1-.2v-.3l-.2-.3-.1-.3v-.69l.1-.4v-.1l.2.1.3.2h.3l.79.1H52l.69.1h.69l.69-.1h.2V44l-.1-.2-.3-.3-.1-.1-.2-.2v-.3l-.1-.3-.1-.2.1-.2.1-.1.3-.1h.2l.2.1h.3l.1-.1h.21Z" transform="translate(-10 -40.13)"/><path id="path2872" class="cls-2" d="M41.29,50.83l-.2.2v.89l.1.4.79-.1.3.1h.59l.2-.1.1-1.19v-.1h-.1l-.1-.1H41.29m.1-3.07-.1.1-.2.2-.2.3-.1.3-.1.3.1.1h1.09l.4-.1h.1v-.1l-.1-.1-.1-.2H42l-.1-.1-.2-.1-.1-.2-.1-.2v-.1h-.1v-.1m1.78-2.47h-.69l-.2.1v.1l-.1.1v.69l-.1.2-.3.49-.1.2v.2l.1.1.1.1h.3l.1-.1.2-.1.1-.2.1-.1V47h.1l.1-.4.2-.3.1-.2.2-.3v-.4l-.1-.1-.11,0m-3.36-.1v.2l-.1.1-.2.69-.1.3-.2.2-.2.1h-.3l-.1.1v.3h.1l.2.2.2.2.1.2h.4l.1-.2.1-.2v-.2l.4-.59.3-.69.1-.2-.1-.2v-.1h-.1v-.1h-.3l-.3-.11m-2.67-3.26h.2l.3.2.4.1h.59l.1.1V44.7l.1.2h.59l.1-.1h.1l.1-.2-.1-.2v-.3l-.1-.2-.1-.2v-.79l.69.2h.69l.59.1.69.1h.2l.1.1H43l.4-.1.49-.2.4-.1h.4l.2.1h.79l.1.2.1.1-.1.2v.2l-.1.1v.3l-.2.59-.2.69-.2.59-.2.69-.1.2-.1.2v.2l-.1.3-.4.4-.3.4h-.2l-.1.1h-.1V49h.1l.3.1h.3l.3-.1h.2v-.1H45V49l.1.1v.2l-.1.59-.1.3v1.78l.1.79.1.69v.3l-.1.1v.49h-.3v.1h-.1l-.1-.1-.3-.1h-.79l-.69.1-.3-.1H39.9l-.1.1h-.1l-.1-.1v-.1l-.1-.1-.1-.1V50.16l-.1-.3-.1-.2-.2-.2-.2-.1h-.2v.1h-.1v.2l-.1.1v1.68l.1.1v.4l.1.4-.1.4v1.09l-.1.2-.1.1h-1l-.2.1h-.49l-.3-.1-.2-.1-.2-.3-.1-.2.1-.3.3-.3.3-.2h.3v-.1h.1V51.05l-.1-.3-.1-.2-.1-.1-.2.2-.2.1L36,51h-.2v.1l-.4.2-.1.1-.1.1-.1.1-.1-.2-.1-.3-.2-.4-.2-.4-.1-.4-.1-.4V49h.5l.2-.1.2-.1H36l.3-.1.2-.1.2-.2.2-.1.1-.2.1-.3v-.2l-.1-.3v-.1l-.1-.1-.1-.1h-.3l-.1.1h-.69l-.1-.1h-.1l-.1-.1v-.59l-.2-.4-.2-.4V44.9h.1l.2.1h.2l.89-.1.49-.1.2-.1.1-.1V44l-.1-.4-.1-.4-.1-.4v-.49l.1-.4Z" transform="translate(-10 -40.13)"/><path id="path2874" class="cls-2" d="M68.56,50.73l-.2.1-.1.1-.1.1v.1l.1.1h.1l.1.1h.1v.1h.1v-.1h.2v.1h.3l.1-.1v-.1l-.1-.1V51h-.1v-.1H69v-.1l-.2-.1h-.2m2.67-.5h-.1v.5l-.1.1v.49l.1.4h.3l.1-.1.2-.2v-.1l.1-.1V51l-.1-.2-.1-.1-.1-.2-.1-.2-.1-.1h-.1m1.68-.89h-.49l-.2.1h-.49v.3l.2.3.2.3h.1l.2-.1.2-.2.2-.1.2-.1.3-.2h.1v-.2h-.2l-.1-.1h-.22m-4.15-.19h-.2l-.1.1-.1.2v.2l.1.1h.4v-.2H69v-.1h.1v-.2l-.1-.1h-.2m3.55-1.68h-.2l-.2.1-.4.1-.2-.1-.1.1v.4l.1.1v.1h.59l.49-.1.1-.2.1-.1v-.2l-.2-.2h-.08m-5.23-.4v.2H67v.2h.1l.1-.1h.1l.1-.1v-.1l-.1-.1h-.2m2.56-.89-.1.2-.1.2-.1.1-.1.2v.3H69l-.1-.1h-.3l-.1.1h-.1l-.1.1v.1l.1.1.1.1.79.1.1.1v.1l.1.1v1h-.1v.1l-.1.2V50l.1.2h.1v.1h-.1v1.29l-.1.2-.1.2-.2.1v.2l.1.2.1.2h.2l.1-.1.1-.1v-.1l.1-.2V52l.1-.1v-.1h.1v-.2l.1-.4-.1-.1v-.59l.1-.69-.1-.4V48l-.1-.4V46.21h-.1l-.09,0m2.67-.59h-.4l-.1.1h-.49l-.1.1v.4h.69l.1.1h.1l.2-.1.1-.1.1-.1.2-.2v-.2h-.4m-4-.59-.1.1-.1.1v.1l-.1.1v.1H68v.2h.1v.1l.49.2.1-.1.1-.2.1-.1v-.3h-.1v-.1h-.1l-.1-.1h-.1l-.09-.1m-.89-3h.2l.2.2.1.2.2.2.1.2.2.2.1.2.1.1.1.1.1.1.1.2.1.1v.3l-.1.1v.2l.1.1v.1h.5l.2-.1V43.34l.1-.2.4.2.3.3.3.2h.89l.2.1.3-.1.3.1H73l.2-.1h.1l.2-.1.2-.1.2-.1h.4l.1.1v1.68l-.1.1v.1l-.1.2v.4l-.1.49-.1.49V48l.1.3-.1.2-.2.49v.1l.1.1-.1.1.1.1h.2l.1-.1.2-.1v-.1l.1-.1.1-.2h.1l.1.1.1.1H75v.1l.1.1-.1.1v.89l.1.1.1.1-.1.1h-.2l-.2.2-.3.1-1.09-.1v.1l-.1.1v.2l.3.2.3.1.3.1.3.1.3.1h.2l.2.1h.2l.3-.1V52l-.1.2-.1.2v.3l-.1.1-.1.3-.4.49-.2.1-.1.1-.2.2-.1.1h-.1L74,54h-.2v-.1l-.2-.1-.1-.1-.1-.1h-.1l-.1-.1L73,53.3l-.2-.3-.2-.3-.1-.2-.2-.2h-.1l-.1.2-.1.1-.1.1h-.1l-.2.2-.1.2-.2.2-.2.2-.2.2h-.2l-.2.1h-.1l-.1.1L70,54h-.2l-.3.1-.3.1H69l-.1-.2-.1-.4v-.3l-.1-.2-.2-.1-.2-.1-.1.1-.1.1-.1.1-.2.1-.1.1-.2.1-.3.1-.2.1-.2.2-.2.1-.2-.2-.1-.1-.1-.2-.2-.2-.1-.1-.1-.1-.1-.1-.1-.1v-.2h-.1v-.3l-.1-.1-.1-.3v-.2h.3l.3.1.2-.1.3-.1.3-.1.2-.1.1-.1.1-.1v-.4l-.1-.1h-.3V51l-.2.2-.3.1-.2.1-.1-.4-.1-.4v-.49l-.1-.2v-.1H67l.1-.1v-.4l-.1-.1h-.1l-.1.1H66.2l-.1-.1L66,49l-.1-.1v-.1h-.1l-.1.2v.1l-.1.1v.2h-.1v.1h-.1v.2l-.1.1-.1.2-.1.1v.2l-.1.1h-.2l-.1-.1-.1-.1-.1-.1V50l-.1-.1h-.3l-.2-.1-.2-.2V49l.1-.1H64v-.1l.69-.1.3-.2.2-.3.59-1.09.4-.79.4-.89.1-.49.1-.49L67,44l.1-.4.1-.49.1-.49.19-.57Z" transform="translate(-10 -40.13)"/><g class="cls-3"><path d="M37.23,57v.84h-.08a.88.88,0,0,0-.34-.51,1,1,0,0,0-1-.05.8.8,0,0,0-.32.34,1.32,1.32,0,0,0-.13.6,1.89,1.89,0,0,0,.09.6.79.79,0,0,0,.3.41.91.91,0,0,0,.52.14,1.06,1.06,0,0,0,.48-.1,1.52,1.52,0,0,0,.46-.35v.21a1.55,1.55,0,0,1-.49.31,1.78,1.78,0,0,1-.59.1,1.8,1.8,0,0,1-.79-.16,1.2,1.2,0,0,1-.54-.45,1.08,1.08,0,0,1-.19-.62,1.17,1.17,0,0,1,.21-.66,1.37,1.37,0,0,1,.56-.48,1.65,1.65,0,0,1,.75-.17,2,2,0,0,1,.62.11l.24.06a.15.15,0,0,0,.11,0,.23.23,0,0,0,.06-.13Z" transform="translate(-10 -40.13)"/><path d="M38.61,58.27V59a.92.92,0,0,0,0,.23.18.18,0,0,0,.09.08.49.49,0,0,0,.19,0H39v.07H37.54v-.07h.09a.4.4,0,0,0,.2,0,.18.18,0,0,0,.08-.09.57.57,0,0,0,0-.23v-1.6a.92.92,0,0,0,0-.23.18.18,0,0,0-.09-.08.49.49,0,0,0-.19,0h-.09V57H39v.07h-.09a.4.4,0,0,0-.2,0,.18.18,0,0,0-.08.09.57.57,0,0,0,0,.23v.69h1v-.69a.92.92,0,0,0,0-.23.24.24,0,0,0-.09-.08.49.49,0,0,0-.19,0h-.09V57h1.46v.07h-.09a.4.4,0,0,0-.2,0,.18.18,0,0,0-.08.09.57.57,0,0,0,0,.23V59a.92.92,0,0,0,0,.23.24.24,0,0,0,.09.08.49.49,0,0,0,.19,0h.09v.07H39.21v-.07h.09a.4.4,0,0,0,.2,0,.18.18,0,0,0,.08-.09.57.57,0,0,0,0-.23v-.75Z" transform="translate(-10 -40.13)"/><path d="M42.29,59.37v.07H40.83v-.07h.09a.4.4,0,0,0,.2,0,.18.18,0,0,0,.08-.09.57.57,0,0,0,0-.23v-1.6a.92.92,0,0,0,0-.23.24.24,0,0,0-.09-.08.49.49,0,0,0-.19,0h-.09V57h1.46v.07H42.2a.4.4,0,0,0-.2,0,.18.18,0,0,0-.08.09.57.57,0,0,0,0,.23V59a.92.92,0,0,0,0,.23.24.24,0,0,0,.09.08.49.49,0,0,0,.19,0h.09Z" transform="translate(-10 -40.13)"/><path d="M43.43,57l1.38,1.51v-1a.46.46,0,0,0-.07-.3.45.45,0,0,0-.33-.1V57h.92v.07a.73.73,0,0,0-.24,0,.22.22,0,0,0-.09.1.7.7,0,0,0,0,.24v2H44.9l-1.89-2V59a.32.32,0,0,0,.11.28.43.43,0,0,0,.25.07h.07v.07h-1v-.07a.51.51,0,0,0,.32-.08.35.35,0,0,0,.09-.27V57.29l-.06-.06a.57.57,0,0,0-.16-.13.53.53,0,0,0-.2,0V57Z" transform="translate(-10 -40.13)"/><path d="M47.18,58.74h-1l-.12.24a.45.45,0,0,0-.06.2.16.16,0,0,0,.09.15.94.94,0,0,0,.27,0v.07h-.93v-.07a.44.44,0,0,0,.25-.11,1.66,1.66,0,0,0,.24-.37l1-1.94h0l1,2a1.33,1.33,0,0,0,.24.36.3.3,0,0,0,.2.06v.07H47.08v-.07h.06a.45.45,0,0,0,.23,0,.1.1,0,0,0,.05-.08.2.2,0,0,0,0-.07.53.53,0,0,0-.06-.13Zm-.07-.13-.42-.84-.43.84Z" transform="translate(-10 -40.13)"/><path d="M51.31,58.61l.76-1.6h1.14v.07h-.09a.4.4,0,0,0-.2,0,.2.2,0,0,0-.08.08.53.53,0,0,0,0,.22V59a.92.92,0,0,0,0,.23.24.24,0,0,0,.09.08.49.49,0,0,0,.19,0h.09v.07H51.75v-.07h.09a.4.4,0,0,0,.2,0,.24.24,0,0,0,.08-.09.57.57,0,0,0,0-.23v-1.8l-1.07,2.22h0l-1.09-2.2v1.71a1,1,0,0,0,0,.22.29.29,0,0,0,.12.15.51.51,0,0,0,.28.06v.07h-1v-.07h0a.47.47,0,0,0,.17,0,.35.35,0,0,0,.12-.07.23.23,0,0,0,.06-.13V57.42a.92.92,0,0,0,0-.23.24.24,0,0,0-.09-.08.49.49,0,0,0-.19,0h-.09V57h1.14Z" transform="translate(-10 -40.13)"/><path d="M54.43,57.14v1h.06a.44.44,0,0,0,.38-.15.81.81,0,0,0,.15-.43h.08v1.27H55a1,1,0,0,0-.1-.34.39.39,0,0,0-.18-.18.78.78,0,0,0-.3,0v.69a1.07,1.07,0,0,0,0,.25.16.16,0,0,0,.07.07.37.37,0,0,0,.17,0h.17a1.09,1.09,0,0,0,.63-.16.9.9,0,0,0,.34-.48h.08l-.13.77H53.38v-.07h.09a.4.4,0,0,0,.2,0,.18.18,0,0,0,.08-.09.57.57,0,0,0,0-.23v-1.6a.82.82,0,0,0,0-.2.19.19,0,0,0-.08-.1.41.41,0,0,0-.21-.05h-.09v0h2.34v.72h-.08a.84.84,0,0,0-.17-.38.61.61,0,0,0-.31-.17,2,2,0,0,0-.43,0Z" transform="translate(-10 -40.13)"/><path d="M57.21,58.33V59a.65.65,0,0,0,0,.25.21.21,0,0,0,.1.08.75.75,0,0,0,.26,0v.07H56.17v-.07a.72.72,0,0,0,.26,0,.21.21,0,0,0,.1-.08.62.62,0,0,0,0-.25V57.43a.65.65,0,0,0,0-.25.21.21,0,0,0-.1-.08.75.75,0,0,0-.26,0V57h1.3a3.28,3.28,0,0,1,.74.06.74.74,0,0,1,.38.23.56.56,0,0,1-.07.83,1.07,1.07,0,0,1-.4.17l.67.82a1.26,1.26,0,0,0,.19.2.34.34,0,0,0,.2.06v.07H58.3l-.9-1.11Zm0-1.2V58.2h.12a1.53,1.53,0,0,0,.43-.05A.41.41,0,0,0,58,58a.57.57,0,0,0,.08-.31.51.51,0,0,0-.15-.41.71.71,0,0,0-.48-.13Z" transform="translate(-10 -40.13)"/><path d="M62,57v.84h-.08a.88.88,0,0,0-.34-.51,1,1,0,0,0-1-.05.8.8,0,0,0-.32.34,1.32,1.32,0,0,0-.13.6,1.89,1.89,0,0,0,.09.6.79.79,0,0,0,.3.41.91.91,0,0,0,.52.14,1.06,1.06,0,0,0,.48-.1,1.52,1.52,0,0,0,.46-.35v.21a1.55,1.55,0,0,1-.49.31,1.78,1.78,0,0,1-.59.1,1.8,1.8,0,0,1-.79-.16,1.2,1.2,0,0,1-.54-.45,1.08,1.08,0,0,1-.19-.62,1.17,1.17,0,0,1,.21-.66,1.37,1.37,0,0,1,.56-.48,1.65,1.65,0,0,1,.75-.17,2,2,0,0,1,.62.11l.24.06a.15.15,0,0,0,.11,0,.23.23,0,0,0,.06-.13Z" transform="translate(-10 -40.13)"/><path d="M63.34,58.27V59a.92.92,0,0,0,0,.23.18.18,0,0,0,.09.08.49.49,0,0,0,.19,0h.09v.07H62.27v-.07h.09a.4.4,0,0,0,.2,0,.18.18,0,0,0,.08-.09.57.57,0,0,0,0-.23v-1.6a.92.92,0,0,0,0-.23.18.18,0,0,0-.09-.08.49.49,0,0,0-.19,0h-.09V57h1.46v.07h-.09a.4.4,0,0,0-.2,0,.18.18,0,0,0-.08.09.57.57,0,0,0,0,.23v.69h1v-.69a.92.92,0,0,0,0-.23.24.24,0,0,0-.09-.08.49.49,0,0,0-.19,0h-.09V57H65.4v.07h-.1a.4.4,0,0,0-.2,0,.18.18,0,0,0-.08.09.57.57,0,0,0,0,.23V59a.92.92,0,0,0,0,.23.24.24,0,0,0,.09.08.49.49,0,0,0,.19,0h.09v.07H63.93v-.07H64a.4.4,0,0,0,.2,0,.18.18,0,0,0,.08-.09.57.57,0,0,0,0-.23v-.75Z" transform="translate(-10 -40.13)"/><path d="M67.22,58.74h-1l-.12.24a.45.45,0,0,0-.06.2.16.16,0,0,0,.09.15.94.94,0,0,0,.27,0v.07H65.5v-.07a.44.44,0,0,0,.25-.11,1.37,1.37,0,0,0,.24-.37L67,57h0l1,2a1.13,1.13,0,0,0,.24.36.3.3,0,0,0,.2.06v.07H67.13v-.07h.06a.45.45,0,0,0,.23,0,.1.1,0,0,0,0-.08.2.2,0,0,0,0-.07.53.53,0,0,0-.06-.13Zm-.07-.13-.42-.84-.43.84Z" transform="translate(-10 -40.13)"/><path d="M69.56,57l1.38,1.51v-1a.46.46,0,0,0-.07-.3.45.45,0,0,0-.33-.1V57h.92v.07a.73.73,0,0,0-.24,0,.22.22,0,0,0-.09.1.7.7,0,0,0,0,.24v2H71l-1.89-2V59a.32.32,0,0,0,.11.28.43.43,0,0,0,.25.07h.07v.07h-1v-.07a.51.51,0,0,0,.32-.08A.35.35,0,0,0,69,59V57.29l-.06-.06a.57.57,0,0,0-.16-.13.53.53,0,0,0-.2,0V57Z" transform="translate(-10 -40.13)"/><path d="M74.22,57v.66h-.07a.85.85,0,0,0-.15-.33.52.52,0,0,0-.22-.16.82.82,0,0,0-.27,0H73.3V59a.92.92,0,0,0,0,.23.24.24,0,0,0,.09.08.49.49,0,0,0,.19,0h.09v.07H72.23v-.07h.09a.4.4,0,0,0,.2,0,.18.18,0,0,0,.08-.09.57.57,0,0,0,0-.23V57.13h-.2a.65.65,0,0,0-.41.1.73.73,0,0,0-.23.41H71.7V57Z" transform="translate(-10 -40.13)"/><path d="M76.35,57l0,.81h-.08a.84.84,0,0,0-.8-.68.48.48,0,0,0-.33.1.28.28,0,0,0-.12.23.23.23,0,0,0,0,.14.65.65,0,0,0,.19.17,3.48,3.48,0,0,0,.45.21,1.84,1.84,0,0,1,.66.4.63.63,0,0,1,.17.43.68.68,0,0,1-.27.53,1,1,0,0,1-.69.22l-.25,0a1.55,1.55,0,0,1-.29-.09.73.73,0,0,0-.16,0,.17.17,0,0,0-.11,0,.27.27,0,0,0-.1.11H74.6v-.92h.08a1,1,0,0,0,.35.59.86.86,0,0,0,.56.2.6.6,0,0,0,.37-.11A.33.33,0,0,0,76.1,59a.37.37,0,0,0,0-.17.58.58,0,0,0-.16-.15,2.59,2.59,0,0,0-.38-.19,3.36,3.36,0,0,1-.55-.28A.92.92,0,0,1,74.7,58a.56.56,0,0,1-.09-.31.63.63,0,0,1,.25-.5.91.91,0,0,1,.62-.2,1.09,1.09,0,0,1,.26,0l.24.08a.62.62,0,0,0,.19.06.1.1,0,0,0,.08,0,.38.38,0,0,0,.06-.14Z" transform="translate(-10 -40.13)"/><path d="M79.64,58.14a1.47,1.47,0,0,1,.56.2.51.51,0,0,1,.23.42.53.53,0,0,1-.25.45,1.61,1.61,0,0,1-.9.22H77.86v-.07a.72.72,0,0,0,.26,0,.21.21,0,0,0,.1-.08.62.62,0,0,0,0-.25V57.42a.65.65,0,0,0,0-.25.16.16,0,0,0-.1-.08.75.75,0,0,0-.26,0V57H79.2a2.17,2.17,0,0,1,.68.07.74.74,0,0,1,.32.22.48.48,0,0,1,.12.31.4.4,0,0,1-.15.31A1,1,0,0,1,79.64,58.14Zm-.75.1v.87a.2.2,0,0,0,.06.15.26.26,0,0,0,.17.05.73.73,0,0,0,.3-.06.46.46,0,0,0,.21-.18.5.5,0,0,0,.07-.27.56.56,0,0,0-.09-.31.48.48,0,0,0-.25-.19A1.16,1.16,0,0,0,78.89,58.24Zm0-.14a1.16,1.16,0,0,0,.43-.06.49.49,0,0,0,.21-.16.56.56,0,0,0,0-.54.49.49,0,0,0-.21-.16,1.22,1.22,0,0,0-.44,0v1Z" transform="translate(-10 -40.13)"/><path d="M82.33,58.74h-1l-.12.24a.45.45,0,0,0-.06.2.16.16,0,0,0,.09.15.94.94,0,0,0,.27,0v.07h-.93v-.07a.44.44,0,0,0,.25-.11,1.37,1.37,0,0,0,.24-.37l1-1.94h0l1,2a1.13,1.13,0,0,0,.24.36.3.3,0,0,0,.2.06v.07H82.22v-.07h.06a.45.45,0,0,0,.23,0,.1.1,0,0,0,0-.08.2.2,0,0,0,0-.07.53.53,0,0,0-.06-.13Zm-.07-.13-.42-.84-.43.84Z" transform="translate(-10 -40.13)"/><path d="M84.68,57l1.38,1.51v-1a.46.46,0,0,0-.07-.3.45.45,0,0,0-.33-.1V57h.92v.07a.73.73,0,0,0-.24,0,.22.22,0,0,0-.09.1.7.7,0,0,0,0,.24v2h-.07l-1.89-2V59a.32.32,0,0,0,.11.28.43.43,0,0,0,.25.07h.07v.07h-1v-.07a.51.51,0,0,0,.32-.08.35.35,0,0,0,.09-.27V57.29l-.06-.06a.57.57,0,0,0-.16-.13.53.53,0,0,0-.2,0V57Z" transform="translate(-10 -40.13)"/><path d="M88.43,57.93l1,1.07a1.76,1.76,0,0,0,.36.31.46.46,0,0,0,.23.06v.07H88.55v-.07a.48.48,0,0,0,.18,0,.08.08,0,0,0,0-.07s-.06-.14-.19-.28l-.64-.7-.1.08V59a1,1,0,0,0,0,.24.24.24,0,0,0,.09.08.61.61,0,0,0,.22,0v.07H86.76v-.07h.09a.4.4,0,0,0,.2,0,.18.18,0,0,0,.08-.09.57.57,0,0,0,0-.23v-1.6a.92.92,0,0,0,0-.23A.24.24,0,0,0,87,57.1a.49.49,0,0,0-.19,0h-.09V57h1.39v.07a.46.46,0,0,0-.22,0,.16.16,0,0,0-.08.08.59.59,0,0,0,0,.23v.76l1-.73c.14-.1.22-.18.22-.24s0-.08-.09-.11l-.22,0V57h1.09v.07a.66.66,0,0,0-.23,0,2.7,2.7,0,0,0-.38.25Z" transform="translate(-10 -40.13)"/></g></svg>