<svg xmlns="http://www.w3.org/2000/svg" viewBox="0 0 80.03 19.75"><defs><style>.cls-1{fill:#ed2224;}.cls-2,.cls-4{fill:#010101;}.cls-2{stroke:#010101;stroke-miterlimit:10;stroke-width:0.07px;}.cls-3{isolation:isolate;}</style></defs><title>CMB_China_Merchants_Bank</title><g id="Layer_2" data-name="Layer 2"><g id="CMB_China_Merchants_Bank"><g id="_Group_" data-name="&lt;Group&gt;"><path id="path3978" class="cls-1" d="M19.33,12.77l.11-.49H17.22l.2.49Zm.2-.88.1-.49H16.87l.19.49ZM9.63,0A9.88,9.88,0,0,0,4.17,17.94h0a9.88,9.88,0,0,0,13.76-2.36,9.64,9.64,0,0,0,1.21-2.31H17.61l.24.6-2,3.05H4.13L2.05,14,7.18,1.11l2.87,6.83L12.72,1l2.45,6.13h4.2A9.85,9.85,0,0,0,9.63,0Zm5.74,7.64.19.49h4c0-.16-.06-.33-.1-.49Zm.35.88.2.5h3.8c0-.17,0-.33-.06-.5Zm.39,1,.2.5h3.43v-.5Zm.36.9.2.49h3c0-.16,0-.33,0-.49Z"/><path id="path3960" class="cls-1" d="M6.3,7l2.77,6.83L11.83,7,14.69,14H3.53Z"/><path id="path2830" class="cls-2" d="M73.28,2.6h.1v.1l.19.1h.1l.1.1V3l.1.19v.1l.1.1v.1l-.1.2-.1.2v.39l.1.1-.1.39.1.3v.49l-.1.2v.3l-.2.1h-.19l-.2.1-.1.09v.4l.1.1h.1l.2.1.09.1.2.19v.1h.1l.1.1v.1l.1.1.1-.1h.1V7h3l.89-.1,1-.1h.1l.19-.1h.2l.1-.1.1-.1h.1v-.1H80V7.94l-.1.49.1.2v.1h-.1l-.1-.1-.1.1h-.89l-.3-.1-.39.1h-.4V9.81l-.09.4.09.2v.88l.1,1.29v1.58l-.1.1h-.19v.1l-.6-.1H75.75l-.5-.1-.19-.1H75l-.1-.2h-.1l-.1-.1-.1-.19v-.3l.1-.1V13h.2l.2.1h.29l.3-.19.2-.3.1-.1-.1-.3.1-.39v-.3L76,11.2,76,10.9v-.69l.09-.4V9.12L76,8.82H75l-.3.1-.39-.1H74V8.53l.1-.1v-.1l-.1-.1h-.2l-.1.1-.1.1h-.19v.2h-.1l-.1.19v.6l.1.1.1.19-.1.2v1.58l-.1.2v1.48l-.1.5-.1.09-.1.1-.19.1-.1.1v.1h-.1l-.3.1-.2-.1-.29-.1-.3-.1-.1-.1h-.1l-.1-.1h-.19l-.1-.09h-.2v-.2l.2-.1.2-.1.09-.2h.1V13h.1v-.59l.1-.1V10.5l.1-.29-.1-.1-.1-.1-.1-.1-.19.2-.2.1-.3.39-.2.2L70,10.7h-.3l-.2-.2h-.19l-.1-.19-.1-.1v-.1H69V10h-.1l.1-.1-.1-.1v-.1H69l.1-.1.1-.09h.2l.09-.1.2-.1.2-.1h.2l.1-.2.09-.1.2-.1.2-.09.2-.2.1-.1.09-.2.3-.29.1-.2v-.1l.1-.1v-.2l-.1-.1-.1-.09-.1-.1h-.1l-.1.1L71,7.24l-.2.2v.1h-.3v.1h-.39l-.1-.1h-.1l-.1-.1-.1-.1-.1-.1V7.15l-.1-.1V6.16l.4-.2.3-.1.09-.1.1-.1h.3l.2-.19.19-.1.2-.2.2-.2.1-.1.1-.19.2-.1.09-.2v-.1l.1-.2.1-.1V3.69l.1-.1.2-.2.1-.2.1-.19.19-.2.2-.1.2-.1Z"/><path id="path2832" class="cls-2" d="M79,3.49h.29v.1l.1.1v.2l-.1.49V5.56l-.09.1v.1l-.1.2v.1H79l-.2.1-.1-.1H76.64l-.69.1H74.56l-.1.1-.09-.2V5.37l-.1-.89v-.2l-.1-.1V4h.69l.3.1h.29l.4-.1h.39l.5.1h.89L78,3.89l.4-.1.39-.2.1-.1Z"/><path id="path2870" class="cls-2" d="M45.12,10.8v.1h-.59v.89l.1.1h.1l.19.1.1.09h.1l.1-.09.1-.1.1-.1.1-.1.1-.1v-.2l-.1-.19v-.3h-.1l-.1-.1h-.2m1.68-1-.2.1v1.48l-.09.2v1.09l.09.1h.2l.1-.1H47v-1l.1-.1V10.41l-.1-.5-.2-.1M45,8.33h-.29v.49l.1.2.09.3-.09.2-.1.19v.1h.89v-.2l-.1-.09v-.1l-.1-.6V8.43l-.1-.1H45m-1.77,0h-.1l-.2.1h-.2v.39l-.1.1-.1.2v.1l.1.1v.1h.1l.3-.1.29-.1.1-.1.1-.2V8.43l-.1-.1h-.19m3.26-.1h-.3v.1l-.1.1v.3l.1.09v.1h.2l.1.1.09.1h.2V9h.1l.1-.1v-.1l.1-.19.1-.1v-.2H47l-.1-.1h-.39M45,5.66h-.1l-.19.1-.3.3v.29l.1.1.1.1.1.1.1.1h.49l.1-.1V6.16l.1-.1v-.3h-.2l-.1-.1H45m-.1-3.75h.8l.29.2.1.1h.2l.1.09-.1.1v.1l-.1.1v.1l-.2.2-.2.29-.09.2-.1.2v.29h2.07l.69-.09h.3l.3-.2h.69l.29.1.1.19.1.2v.69l-.1.3-.1.3-.1.1v.29l-.09.1h-.5l-.1-.1H49l-.3.1h-.3l-.59-.1H47.2l-.1.2-.1.2v.39l.1.1.1.1.1-.1h.19l.1-.1h.3l.29.1h.3l.3.2v.59l.1.5v.59h-.1V9.81l.1,1.09V12l.1.59V13l-.1.4-.1.39V14l-.1.2v.1h-1l-.39-.1h-.89l-.4-.1-.29-.2h-.2l-.1-.1h-.1l.2-.19.1-.1.1-.2v-.1l-.1-.1-.1-.1H43.74l-.1-.09h-.1v-.1h-.1V12l-.1-.2v-.2l.1-.2V11.2l-.1-.1v-.79l-.19-.2h-.3v.79l.1.79v1.48l-.1.2-.1.2-.1.19h-.2l-.19.1h-.1l-.5-.1-.39-.09v-.6l-.1-.19V8l-.1-.69.1-.29v-.3l.1-.1h1l.49.1H43l.1-.1h.1v-.2l-.1-.19-.1-.1-.1-.2h-.1v-.1l-.2.1-.1.1h-.69l-.89.1-.39.1h-.1l-.1-.1-.1-.1-.1-.2L40,5.66V5.37l-.2-.3-.1-.3V4.08l.1-.39v-.1l.2.1.29.19h.3l.79.1h.69l.69.1h.69l.69-.1h.2v-.1l-.1-.19-.29-.3-.1-.1-.2-.2V2.8l-.1-.3-.1-.2.1-.19.1-.1.3-.1h.19l.2.1h.3l.1-.1Z"/><path id="path2872" class="cls-2" d="M31.29,10.7l-.2.2v.89l.1.39.79-.1.3.1h.59l.2-.1.1-1.18v-.1h-.1l-.1-.1H31.29m.1-3.06-.1.1-.2.2-.19.29-.1.3-.1.29.1.1h1.08l.4-.1h.1V8.73l-.1-.1-.1-.2H32l-.1-.1-.19-.1-.1-.2-.1-.19v-.1h-.1v-.1m1.78-2.47h-.69l-.2.1v.1l-.1.1v.69l-.1.19-.29.5-.1.2v.19l.1.1.09.1h.3l.1-.1.2-.1.1-.19.09-.1v-.1h.1l.1-.4.2-.29.1-.2.2-.3V5.27l-.1-.1h-.1m-3.36-.1v.2l-.1.1-.2.69-.1.29-.19.2-.2.1h-.3l-.1.1v.3h.1l.2.19.2.2.1.2h.39l.1-.2.1-.2V7.05l.39-.6.3-.69.1-.2-.1-.19v-.1h-.1v-.1h-.29l-.3-.1M27.14,1.81h.2l.3.2.39.1h.59l.1.1V4.58l.1.19h.59l.1-.09h.1l.1-.2-.1-.2V4l-.1-.19-.1-.2V2.8l.7.2h.69l.59.09.69.1h.2l.1.1H33l.4-.1L33.86,3l.4-.1h.39l.2.1h.79l.1.19.1.1-.1.2v.2l-.1.1v.29l-.2.6-.2.69L35.05,6l-.2.69-.1.2-.1.2v.19l-.1.3-.39.4-.3.39h-.2l-.1.1h-.1v.39h.1l.3.1h.3l.29-.1h.2V8.73H35v.09l.1.1v.2l-.1.59-.1.3v1.78l.1.79.1.69v.3l-.1.1v.49h-.3v.1h-.1l-.1-.1-.29-.1h-.79l-.7.1-.29-.1H29.91l-.1.1h-.1l-.1-.1V14l-.1-.1-.1-.1V10l-.09-.3-.1-.19-.2-.2-.2-.1h-.2v.1h-.09v.2l-.1.09v1.68l.1.1v.4l.09.39-.09.4v1.09l-.1.19-.1.1h-1l-.2.1h-.49l-.3-.1-.2-.1L26,13.57l-.1-.2.1-.3.29-.29.3-.2h.3v-.1h.09V10.9l-.09-.3-.1-.19-.1-.1-.2.19-.2.1-.19.2h-.2v.1l-.4.2-.1.1-.09.09-.1.1-.1-.19-.1-.3-.2-.4-.2-.39-.1-.4-.09-.39v-.5h.49l.2-.09.2-.1h.79l.29-.1.2-.1.2-.2.19-.1.1-.19.1-.3v-.2L27,7.15v-.1l-.1-.1-.09-.1h-.3l-.1.1h-.69l-.1-.1h-.1l-.1-.1V6.16l-.19-.4-.2-.39v-.6h.1l.19.1h.2l.89-.1.49-.09.2-.1.1-.1v-.6l-.1-.39-.1-.4-.1-.39V2.21l.1-.4Z"/><path id="path2874" class="cls-2" d="M58.56,10.6l-.2.1-.1.1-.1.1V11l.1.1h.1l.1.1h.1v.09h.1V11.2h.19v.09h.3l.1-.09v-.1l-.1-.1v-.1h-.1v-.1H59v-.1l-.19-.1h-.2m2.67-.49h-.1v.49l-.1.1v.5l.1.39h.29l.1-.1.2-.2V11.2l.1-.1v-.2l-.1-.2-.1-.1-.1-.19-.1-.2-.1-.1h-.09m1.68-.89h-.5l-.2.1h-.49v.29l.2.3.19.3h.1l.2-.1.2-.2.2-.1.19-.1.3-.19h.1v-.2h-.2l-.1-.1h-.19M58.76,9h-.2l-.1.1-.1.2v.2l.1.09h.39V9.42H59v-.1h.1v-.2L59,9h-.19m3.55-1.68h-.2l-.19.1-.4.1-.2-.1-.09.1v.4l.09.09v.1h.6l.49-.1.1-.19.1-.1v-.2l-.2-.2h-.1M57.08,7v.2H57v.19h.1l.1-.1h.09l.1-.09v-.1l-.1-.1h-.19m2.56-.89-.09.2-.1.19-.1.1-.1.2v.3h-.2L59,7h-.29l-.1.1h-.1l-.1.1v.09l.1.1.1.1.79.1.1.1v.1l.1.1v1h-.1v.1l-.1.2v.69l.1.2h.1v.1h-.1v1.28l-.1.2-.1.2-.2.1v.19l.1.2.1.2h.2l.1-.1.09-.1v-.1l.1-.19v-.2l.1-.1v-.1h.1v-.2L60,11l-.1-.1v-.59l.1-.7-.1-.39V7.84l-.1-.4V6.06h-.2m2.67-.59h-.39l-.1.09h-.5l-.09.1v.4h.69l.1.1h.09l.2-.1.1-.1.1-.1.2-.2V5.47h-.4m-4-.6-.1.1-.1.1v.1l-.1.1v.1H58v.19h.09v.1l.5.2.1-.1.1-.2.09-.09v-.3h-.09v-.1h-.1l-.1-.1h-.1l-.1-.1m-.89-3h.2l.2.2.1.19.19.2.1.2.2.2.1.19.1.1.1.1.09.1.1.2.1.1V4l-.1.1v.2l.1.1v.1h.5l.19-.1V3.19l.1-.19.4.19.29.3.3.2h.89l.2.1.29-.1.3.1h.39l.2-.1h.1l.2-.1.2-.1.19-.1h.4l.1.1V5.17l-.1.1v.1l-.1.19V6l-.1.49-.1.5v.89l.1.29-.1.2-.19.49v.1l.09.1-.09.1.09.1H64l.1-.1.2-.1v-.1l.1-.1.1-.19h.09l.1.1.1.09h.1v.1L65,9l-.1.1V10l.1.1.1.1-.1.1h-.2l-.2.19-.29.1-1.09-.1v.1l-.1.1v.2l.3.2.3.1.29.09.3.1.29.1h.2l.2.1h.2l.29-.1v.3l-.1.2-.09.19v.3l-.1.1-.1.3-.4.49-.19.1-.1.1-.2.19-.1.1H64l-.1-.1H63.7v-.09l-.2-.1-.1-.1-.1-.1h-.1l-.1-.1-.1-.1-.19-.29-.2-.3-.1-.2-.2-.2h-.1l-.1.2-.09.1-.1.1h-.1l-.2.2-.1.19-.2.2-.19.2-.2.2h-.2l-.2.1h-.09l-.1.09-.3.1h-.2l-.29.1-.3.1h-.2l-.1-.2-.1-.39v-.3l-.09-.2-.2-.09-.2-.1-.1.1-.1.09-.1.1-.19.1-.1.1-.2.1-.3.1-.19.1-.2.19-.2.1-.2-.19-.1-.1-.09-.2-.2-.2-.1-.1-.1-.1-.1-.09-.1-.1v-.2h-.1v-.3l-.09-.1-.1-.29v-.2h.29l.3.1.2-.1.29-.1.3-.1.2-.1.1-.1.1-.09v-.4l-.1-.1h-.3v.2l-.2.2-.29.1-.2.09L56,10.9l-.1-.4V10l-.1-.2v-.1h1.29l.1-.09v-.4l-.1-.1H57l-.1.1h-.59l-.1-.1-.1-.2-.1-.1V8.73h-.1l-.1.19V9l-.1.1v.2h-.1v.1H55.5v.2l-.1.09-.1.2-.1.1v.2l-.1.1h-.2l-.1-.1-.09-.1-.1-.1v-.1l-.1-.1h-.3l-.2-.1-.19-.19v-.6l.1-.1h.19V8.73l.69-.1.3-.2.2-.3.59-1.08.4-.79.39-.89.1-.5.1-.49.2-.49.1-.4L57.27,3l.1-.5.1-.59Z"/><g id="_Group_2" data-name="&lt;Group&gt;" class="cls-3"><path id="_Compound_Path_" data-name="&lt;Compound Path&gt;" class="cls-4" d="M27.23,16.82v.84h-.08a.86.86,0,0,0-.34-.5.91.91,0,0,0-.56-.18,1,1,0,0,0-.48.13.89.89,0,0,0-.32.35,1.47,1.47,0,0,0-.13.6,1.78,1.78,0,0,0,.1.59.75.75,0,0,0,.3.41.89.89,0,0,0,.52.14,1.25,1.25,0,0,0,.48-.1,1.7,1.7,0,0,0,.46-.35V19a1.44,1.44,0,0,1-.49.31,1.69,1.69,0,0,1-.59.1,2,2,0,0,1-.79-.16,1.2,1.2,0,0,1-.54-.45,1.16,1.16,0,0,1-.19-.62,1.17,1.17,0,0,1,.21-.66,1.44,1.44,0,0,1,.57-.49,1.72,1.72,0,0,1,.75-.17,2,2,0,0,1,.62.11A.93.93,0,0,0,27,17a.17.17,0,0,0,.12-.05.2.2,0,0,0,.06-.13Z"/><path id="_Compound_Path_2" data-name="&lt;Compound Path&gt;" class="cls-4" d="M28.61,18.14v.75a.56.56,0,0,0,0,.24.18.18,0,0,0,.09.08.5.5,0,0,0,.19,0H29v.07H27.55v-.07h.09a.56.56,0,0,0,.2,0,.24.24,0,0,0,.08-.09.57.57,0,0,0,0-.23v-1.6a.59.59,0,0,0,0-.23.15.15,0,0,0-.09-.08.36.36,0,0,0-.19,0h-.09v-.06H29v.06h-.09a.54.54,0,0,0-.2,0,.24.24,0,0,0-.08.09.48.48,0,0,0,0,.22V18h1v-.69a.92.92,0,0,0,0-.23.24.24,0,0,0-.09-.08.36.36,0,0,0-.19,0h-.09v-.06h1.46v.06h-.09a.5.5,0,0,0-.2,0,.18.18,0,0,0-.08.09.48.48,0,0,0,0,.22v1.6a.56.56,0,0,0,0,.24.15.15,0,0,0,.09.08.47.47,0,0,0,.19,0h.09v.07H29.21v-.07h.09a.47.47,0,0,0,.19,0,.2.2,0,0,0,.09-.09.86.86,0,0,0,0-.23v-.75Z"/><path id="_Compound_Path_3" data-name="&lt;Compound Path&gt;" class="cls-4" d="M32.29,19.24v.07H30.83v-.07h.09a.47.47,0,0,0,.19,0,.2.2,0,0,0,.09-.09.86.86,0,0,0,0-.23v-1.6a.92.92,0,0,0,0-.23.24.24,0,0,0-.09-.08.36.36,0,0,0-.19,0h-.09v-.06h1.46v.06h-.1A.49.49,0,0,0,32,17a.2.2,0,0,0-.09.09.82.82,0,0,0,0,.22v1.6a.56.56,0,0,0,0,.24.15.15,0,0,0,.09.08.45.45,0,0,0,.18,0Z"/><path id="_Compound_Path_4" data-name="&lt;Compound Path&gt;" class="cls-4" d="M33.43,16.88l1.38,1.51V17.34a.46.46,0,0,0-.07-.3.45.45,0,0,0-.33-.1v-.06h.92v.06a1.16,1.16,0,0,0-.24,0,.24.24,0,0,0-.09.11.61.61,0,0,0,0,.24v2h-.07l-1.88-2v1.55c0,.14,0,.23.11.28a.41.41,0,0,0,.25.07h.06v.07h-1v-.07a.44.44,0,0,0,.32-.08.34.34,0,0,0,.1-.27V17.17l-.06-.07a.66.66,0,0,0-.16-.12.77.77,0,0,0-.2,0v-.06Z"/><path id="_Compound_Path_5" data-name="&lt;Compound Path&gt;" class="cls-4" d="M37.18,18.62h-1l-.12.23a.49.49,0,0,0-.06.2.15.15,0,0,0,.1.15.64.64,0,0,0,.27,0v.07h-.93v-.07a.43.43,0,0,0,.25-.1,2,2,0,0,0,.24-.37l1-1.94h0l1,2a1.33,1.33,0,0,0,.24.36.3.3,0,0,0,.2.06v.07H37.08v-.07h.05a.6.6,0,0,0,.23,0,.11.11,0,0,0,0-.09.14.14,0,0,0,0-.06.71.71,0,0,0-.06-.14Zm-.07-.13-.41-.84-.43.84Z"/><path id="_Compound_Path_6" data-name="&lt;Compound Path&gt;" class="cls-4" d="M41.31,18.48l.75-1.6H43.2v.06h-.09a.54.54,0,0,0-.2,0,.24.24,0,0,0-.08.09.76.76,0,0,0,0,.22v1.6a1,1,0,0,0,0,.24.24.24,0,0,0,.09.08.5.5,0,0,0,.19,0h.09v.07H41.74v-.07h.09a.53.53,0,0,0,.2,0,.18.18,0,0,0,.08-.09.5.5,0,0,0,0-.23v-1.8l-1.07,2.22h0l-1.09-2.2v1.71a1,1,0,0,0,0,.22.29.29,0,0,0,.12.15.52.52,0,0,0,.28,0v.07h-1v-.07h0a.32.32,0,0,0,.17,0,.18.18,0,0,0,.12-.08.32.32,0,0,0,.07-.13V17.29a.92.92,0,0,0,0-.23.24.24,0,0,0-.09-.08.36.36,0,0,0-.19,0h-.09v-.06h1.14Z"/><path id="_Compound_Path_7" data-name="&lt;Compound Path&gt;" class="cls-4" d="M44.43,17v1h0a.47.47,0,0,0,.39-.15.78.78,0,0,0,.15-.43h.08v1.28H45a1,1,0,0,0-.1-.34.46.46,0,0,0-.19-.18.78.78,0,0,0-.3-.05v.69a.63.63,0,0,0,0,.24.13.13,0,0,0,.07.08.34.34,0,0,0,.17,0h.17a1.17,1.17,0,0,0,.63-.16.89.89,0,0,0,.33-.48h.08l-.12.77H43.36v-.07h.09a.53.53,0,0,0,.2,0,.18.18,0,0,0,.08-.09.5.5,0,0,0,0-.23v-1.6a.69.69,0,0,0,0-.2.17.17,0,0,0-.07-.1.42.42,0,0,0-.22,0h-.09v-.06H45.7v.72h-.08a.71.71,0,0,0-.17-.38.55.55,0,0,0-.3-.17,2.08,2.08,0,0,0-.44,0Z"/><path id="_Compound_Path_8" data-name="&lt;Compound Path&gt;" class="cls-4" d="M47.21,18.2v.68a.58.58,0,0,0,0,.25.16.16,0,0,0,.1.08.72.72,0,0,0,.26,0v.07H46.17v-.07a.72.72,0,0,0,.26,0,.21.21,0,0,0,.1-.08.58.58,0,0,0,0-.25V17.3a.56.56,0,0,0,0-.24.18.18,0,0,0-.1-.09.75.75,0,0,0-.26,0v-.06h1.3a3.34,3.34,0,0,1,.74.06.77.77,0,0,1,.38.22.56.56,0,0,1,.15.39.54.54,0,0,1-.22.44,1,1,0,0,1-.4.17l.67.82a.92.92,0,0,0,.19.2.31.31,0,0,0,.19.06v.07h-.88l-.9-1.11Zm0-1.19v1.06h.12a1.6,1.6,0,0,0,.43,0,.41.41,0,0,0,.22-.17.57.57,0,0,0,.08-.31.53.53,0,0,0-.15-.41.71.71,0,0,0-.48-.13Z"/><path id="_Compound_Path_9" data-name="&lt;Compound Path&gt;" class="cls-4" d="M52,16.82v.84h-.08a.86.86,0,0,0-.34-.5A.91.91,0,0,0,51,17a1,1,0,0,0-.48.13.89.89,0,0,0-.32.35,1.47,1.47,0,0,0-.13.6,1.78,1.78,0,0,0,.1.59.75.75,0,0,0,.3.41.89.89,0,0,0,.52.14,1.25,1.25,0,0,0,.48-.1,1.7,1.7,0,0,0,.46-.35V19a1.51,1.51,0,0,1-.48.31,1.79,1.79,0,0,1-.6.1,2,2,0,0,1-.79-.16,1.2,1.2,0,0,1-.54-.45,1.16,1.16,0,0,1-.19-.62,1.17,1.17,0,0,1,.21-.66,1.44,1.44,0,0,1,.57-.49,1.72,1.72,0,0,1,.75-.17,2,2,0,0,1,.62.11.93.93,0,0,0,.24.07.17.17,0,0,0,.12-.05.2.2,0,0,0,.06-.13Z"/><path id="_Compound_Path_10" data-name="&lt;Compound Path&gt;" class="cls-4" d="M53.34,18.14v.75a.63.63,0,0,0,0,.24.18.18,0,0,0,.09.08.5.5,0,0,0,.19,0h.09v.07H52.27v-.07h.09a.56.56,0,0,0,.2,0,.24.24,0,0,0,.08-.09.57.57,0,0,0,0-.23v-1.6a.59.59,0,0,0,0-.23.15.15,0,0,0-.09-.08.36.36,0,0,0-.19,0h-.09v-.06h1.46v.06h-.09a.54.54,0,0,0-.2,0,.24.24,0,0,0-.08.09.53.53,0,0,0,0,.22V18h1v-.69a.92.92,0,0,0,0-.23.24.24,0,0,0-.09-.08.36.36,0,0,0-.19,0h-.09v-.06h1.46v.06H55.3a.5.5,0,0,0-.2,0,.18.18,0,0,0-.08.09.48.48,0,0,0,0,.22v1.6a.56.56,0,0,0,0,.24.15.15,0,0,0,.09.08.5.5,0,0,0,.19,0h.09v.07H53.93v-.07H54a.47.47,0,0,0,.19,0,.2.2,0,0,0,.09-.09.86.86,0,0,0,0-.23v-.75Z"/><path id="_Compound_Path_11" data-name="&lt;Compound Path&gt;" class="cls-4" d="M57.22,18.62h-1l-.12.23a.45.45,0,0,0,0,.2.16.16,0,0,0,.09.15.68.68,0,0,0,.27,0v.07H55.5v-.07a.38.38,0,0,0,.24-.1,1.3,1.3,0,0,0,.24-.37l1-1.94h0l1,2a1.16,1.16,0,0,0,.23.36.32.32,0,0,0,.2.06v.07H57.11v-.07h.06a.57.57,0,0,0,.22,0,.11.11,0,0,0,0-.09.13.13,0,0,0,0-.06.74.74,0,0,1-.06-.14Zm-.07-.13-.42-.84-.43.84Z"/><path id="_Compound_Path_12" data-name="&lt;Compound Path&gt;" class="cls-4" d="M59.56,16.88l1.38,1.51V17.34a.45.45,0,0,0-.08-.3.42.42,0,0,0-.33-.1v-.06h.93v.06a1.16,1.16,0,0,0-.24,0,.36.36,0,0,0-.1.11.66.66,0,0,0,0,.24v2H61l-1.89-2v1.55a.32.32,0,0,0,.11.28.43.43,0,0,0,.25.07h.07v.07h-1v-.07a.46.46,0,0,0,.32-.08.34.34,0,0,0,.09-.27V17.17l-.06-.07a.51.51,0,0,0-.16-.12.69.69,0,0,0-.19,0v-.06Z"/><path id="_Compound_Path_13" data-name="&lt;Compound Path&gt;" class="cls-4" d="M64.22,16.88v.66h-.08a.73.73,0,0,0-.15-.33.47.47,0,0,0-.22-.16.82.82,0,0,0-.27,0h-.21v1.87a.56.56,0,0,0,0,.24.15.15,0,0,0,.09.08.47.47,0,0,0,.19,0h.09v.07H62.23v-.07h.09a.56.56,0,0,0,.2,0,.24.24,0,0,0,.08-.09.57.57,0,0,0,0-.23V17h-.2a.65.65,0,0,0-.41.1.72.72,0,0,0-.23.42h-.07v-.66Z"/><path id="_Compound_Path_14" data-name="&lt;Compound Path&gt;" class="cls-4" d="M66.35,16.82l0,.81h-.08a.82.82,0,0,0-.3-.49.79.79,0,0,0-.5-.18.54.54,0,0,0-.33.09.28.28,0,0,0-.13.23.24.24,0,0,0,0,.14.65.65,0,0,0,.19.17,3.84,3.84,0,0,0,.44.21,2,2,0,0,1,.67.4.6.6,0,0,1,.16.42.66.66,0,0,1-.27.53,1,1,0,0,1-.69.22l-.25,0-.3-.09a.37.37,0,0,0-.16,0,.19.19,0,0,0-.11,0,.27.27,0,0,0-.1.11h-.07v-.92h.07A1,1,0,0,0,65,19a.91.91,0,0,0,.56.2.56.56,0,0,0,.37-.11.3.3,0,0,0,.13-.25.28.28,0,0,0,0-.17.59.59,0,0,0-.16-.15,2.59,2.59,0,0,0-.38-.19,3.85,3.85,0,0,1-.55-.28.88.88,0,0,1-.25-.26.56.56,0,0,1-.09-.31.62.62,0,0,1,.24-.49.93.93,0,0,1,.62-.21,1.09,1.09,0,0,1,.26,0,1,1,0,0,1,.24.08.62.62,0,0,0,.19.06.12.12,0,0,0,.09,0,.38.38,0,0,0,.06-.14Z"/><path id="_Compound_Path_15" data-name="&lt;Compound Path&gt;" class="cls-4" d="M69.64,18a1.41,1.41,0,0,1,.56.2.47.47,0,0,1,.23.42.53.53,0,0,1-.25.45,1.55,1.55,0,0,1-.91.22H67.86v-.07a.75.75,0,0,0,.26,0,.27.27,0,0,0,.1-.08,1,1,0,0,0,0-.25V17.3a1,1,0,0,0,0-.24.22.22,0,0,0-.1-.09.79.79,0,0,0-.26,0v-.06h1.33a2.17,2.17,0,0,1,.68.07.76.76,0,0,1,.32.22.5.5,0,0,1,.11.32.39.39,0,0,1-.14.31A1.1,1.1,0,0,1,69.64,18Zm-.75.09V19a.18.18,0,0,0,.06.15.26.26,0,0,0,.17.05.6.6,0,0,0,.3-.07.46.46,0,0,0,.21-.18.5.5,0,0,0,.08-.27.56.56,0,0,0-.09-.31.53.53,0,0,0-.25-.19A1.9,1.9,0,0,0,68.89,18.11Zm0-.14a1.22,1.22,0,0,0,.44-.06.42.42,0,0,0,.21-.16.44.44,0,0,0,.07-.26.45.45,0,0,0-.07-.27.41.41,0,0,0-.21-.15,1.18,1.18,0,0,0-.44-.06Z"/><path id="_Compound_Path_16" data-name="&lt;Compound Path&gt;" class="cls-4" d="M72.33,18.62h-1l-.12.23a.49.49,0,0,0-.06.2.16.16,0,0,0,.1.15.68.68,0,0,0,.27,0v.07h-.93v-.07a.4.4,0,0,0,.25-.1,1.56,1.56,0,0,0,.24-.37l1-1.94h0l1,2a1.33,1.33,0,0,0,.24.36.3.3,0,0,0,.2.06v.07H72.23v-.07h0a.6.6,0,0,0,.23,0,.11.11,0,0,0,0-.09.14.14,0,0,0,0-.06.71.71,0,0,0-.06-.14Zm-.07-.13-.41-.84-.43.84Z"/><path id="_Compound_Path_17" data-name="&lt;Compound Path&gt;" class="cls-4" d="M74.68,16.88l1.37,1.51V17.34A.46.46,0,0,0,76,17a.42.42,0,0,0-.33-.1v-.06h.92v.06a1.19,1.19,0,0,0-.23,0,.21.21,0,0,0-.1.11.66.66,0,0,0,0,.24v2h-.07l-1.89-2v1.55c0,.14,0,.23.11.28a.43.43,0,0,0,.25.07h.07v.07h-1v-.07a.46.46,0,0,0,.32-.08.34.34,0,0,0,.09-.27V17.17L74,17.1a.51.51,0,0,0-.16-.12.69.69,0,0,0-.19,0v-.06Z"/><path id="_Compound_Path_18" data-name="&lt;Compound Path&gt;" class="cls-4" d="M78.43,17.81l1,1.07a1.76,1.76,0,0,0,.36.31.46.46,0,0,0,.23,0v.07H78.55v-.07a.42.42,0,0,0,.17,0,.08.08,0,0,0,0-.07c0-.05-.06-.14-.19-.28l-.64-.71-.1.08v.66a.56.56,0,0,0,0,.24.15.15,0,0,0,.09.08.63.63,0,0,0,.23,0v.07H76.77v-.07h.09a.47.47,0,0,0,.19,0,.2.2,0,0,0,.09-.09.86.86,0,0,0,0-.23v-1.6a.92.92,0,0,0,0-.23.24.24,0,0,0-.09-.08.36.36,0,0,0-.19,0h-.09v-.06h1.39v.06a.57.57,0,0,0-.22,0,.16.16,0,0,0-.08.08.53.53,0,0,0,0,.23v.76l1-.73q.21-.15.21-.24A.12.12,0,0,0,79,17l-.23,0v-.06h1.09v.06a.66.66,0,0,0-.23,0,2.7,2.7,0,0,0-.38.25Z"/></g></g></g></g></svg>