<svg xmlns="http://www.w3.org/2000/svg" viewBox="0 0 80 13.8"><defs><style>.cls-1{fill:#2e61ae;}.cls-2{fill:#039958;}</style></defs><title>CMBC_China Minsheng Banking</title><g id="Layer_2" data-name="Layer 2"><g id="CMBC_China_Minsheng_Banking" data-name="CMBC_China Minsheng Banking"><path class="cls-1" d="M54.43.82a5.83,5.83,0,0,1,.84.05c.27.29.1.75.16,1.1h3.28a4.25,4.25,0,0,1-.07.8c-.12.19-.39.17-.59.18-.87,0-1.75,0-2.63,0V4.43h3.19c-.07.32.11.8-.26,1-1,.06-2,0-2.93,0V7.1c1.35,0,2.71.06,4-.06a2.08,2.08,0,0,1-.25.89.87.87,0,0,1-.61.16H51.06c-.23,0-.52,0-.64-.23s0-.51-.06-.76h4.07V5.4c-.93,0-1.87,0-2.81,0-.4-.09-.26-.64-.32-1h3.13V2.94c-.82,0-1.65,0-2.47,0-.23.2-.41.53-.74.53s-.82-.3-1.16-.55a5.54,5.54,0,0,0,1.74-1.7,7.3,7.3,0,0,1,.94-.05c-.07.26-.15.52-.22.78.64,0,1.28,0,1.92,0C54.43,1.58,54.43,1.21,54.43.82Z"/><path class="cls-1" d="M59.78,2.52A4.41,4.41,0,0,0,61.45.87h.93c-.07.23-.14.46-.22.68h1.66v.86q-1.05,0-2.1,0c-.17.2-.35.41-.53.6h2.63v.87H62.49v.75h1.32v.86H62.49V7l1.25-.45c-.05.38.07.92-.34,1.14a5.82,5.82,0,0,1-1.35.46.44.44,0,0,1-.52-.42c0-.76,0-1.53,0-2.29a3.74,3.74,0,0,1-.95-.08,3.52,3.52,0,0,1-.07-.79h1c0-.24,0-.47,0-.72A4.81,4.81,0,0,1,61,3.81a4.35,4.35,0,0,1-.1-.63A1.94,1.94,0,0,1,59.78,2.52Z"/><path class="cls-1" d="M72.87,1.09c.28-.38.78-.16,1.18-.21A4.38,4.38,0,0,1,72,3c-.53.22-.9-.31-1.26-.59A5.11,5.11,0,0,0,72.87,1.09Z"/><path class="cls-1" d="M74.76,1.28H79.5c0,.32.1.92-.36,1q-2,0-4,0C74.66,2.21,74.8,1.61,74.76,1.28Z"/><path class="cls-1" d="M30.49,1.07h8.44c0,2,0,4,0,6a1.16,1.16,0,0,1-.22.9c-.18.23-.49.2-.75.21H30.49Zm1,6.15c2.14,0,4.26,0,6.39,0L38,7.1C38,5.41,38,3.73,38,2H31.47C31.47,3.77,31.47,5.5,31.48,7.22Zm.67-4.58c0,.25,0,.51.05.76.72,0,1.42,0,2.14,0v.81h-2c0,.24-.08.59.18.75.6.06,1.2,0,1.81,0V6H31.91v.66A5.32,5.32,0,0,0,33,6.7c1.39,0,2.77,0,4.15,0,.42,0,.4-.51.51-.79L37,6c-.09-.17-.16-.34-.26-.5a3.69,3.69,0,0,0-.81-.06c0,.18.12.37.17.56h-.78c0-.33,0-.65,0-1a11.65,11.65,0,0,0,1.67,0c.13-.21.06-.49.1-.72-.59,0-1.18,0-1.76,0,0-.27,0-.55,0-.82.6,0,1.21,0,1.82,0,.21-.17.13-.47.18-.71C35.59,2.59,33.87,2.67,32.15,2.64Z"/><path class="cls-1" d="M24.06.82a4.57,4.57,0,0,1,1,.06,2.9,2.9,0,0,1,.09.88c1.25,0,2.5,0,3.76,0,0,1.3,0,2.58,0,3.88a.73.73,0,0,1-.62.8c-1,0-2.07,0-3.11,0,0,.55,0,1.12-.08,1.67a2.65,2.65,0,0,1-1,.12V6.46c-1,0-2,0-3,0a.74.74,0,0,1-.61-.8c0-1.3,0-2.59,0-3.89h3.67Zm-2.6,1.93V5.51h2.6c0-.91,0-1.84,0-2.76Zm3.65,0c0,.88,0,1.77,0,2.64a.53.53,0,0,1,.09.11c.87,0,1.72,0,2.58,0,0-.92,0-1.84,0-2.76Z"/><path class="cls-1" d="M70.71,4.41A5,5,0,0,0,73,2.89h1c-.22.49-.74.89-.71,1.47,0,1,0,2.09,0,3.14a2.35,2.35,0,0,1-.13.74h-.86c0-1.13,0-2.26,0-3.39-.28.11-.59.3-.9.17A5.64,5.64,0,0,1,70.71,4.41Z"/><path class="cls-1" d="M74.19,3.28c1.94,0,3.87.05,5.81,0a2.37,2.37,0,0,1-.26.87c-.35.24-.81.12-1.21.15,0,1.08,0,2.16,0,3.24a.71.71,0,0,1-.67.74,11,11,0,0,1-1.72,0c-.4-.14-.33-.67-.47-1,.63,0,1.26,0,1.88,0,0-1,0-2,0-3-1,0-2.09,0-3.14,0C74.12,4,74.24,3.59,74.19,3.28Z"/><path class="cls-1" d="M68.45,6.64a5.1,5.1,0,0,0,1-.47c.2-.29.09-.67.13-1l-2,.74-.73-1c.66,0,1.34,0,2,0a.78.78,0,0,0,.6-.86c0-1,0-2,0-3.05-1.53,0-3,0-4.57,0a.55.55,0,0,0-.62.61c0,2,0,3.91,0,5.85,0,.3.12.69.47.68a5,5,0,0,0,1.42-.41c.36-.25.24-.76.29-1.13L65.24,7V4.93H66a6.87,6.87,0,0,0,2.91,3.27c.63.28,1-.41,1.39-.79A3.81,3.81,0,0,1,68.45,6.64Zm-3.2-4.77h3.23V2.6H65.24C65.25,2.36,65.25,2.12,65.25,1.87Zm0,2.23V3.46c1.08,0,2.15,0,3.24,0,0,.21,0,.42,0,.64Z"/><path class="cls-1" d="M4.56,4.35C6,3.68,7.39,3.09,8.78,2.43l4.29,1.92-2.28,1a12.34,12.34,0,0,1,5.29,1.76,3,3,0,0,1,1.48,2.34,3.36,3.36,0,0,1-1.8,2.6A13.45,13.45,0,0,1,9,13.8a14.09,14.09,0,0,1-6.9-1.53A3.69,3.69,0,0,1,0,9.39c1,0,2,0,3,0A3.25,3.25,0,0,0,5.15,12a9.76,9.76,0,0,0,6,.45,5.56,5.56,0,0,0,2.94-1.59,2,2,0,0,0,.41-2A3.73,3.73,0,0,0,12.41,7a8.78,8.78,0,0,0-3.23-.69,3.05,3.05,0,0,1-1.24-.39C6.82,5.36,5.69,4.86,4.56,4.35Zm2.5,0c.58.25,1.16.5,1.73.78.59-.26,1.17-.53,1.76-.78L8.79,3.56C8.22,3.84,7.63,4.09,7.06,4.35Z"/><path class="cls-1" d="M40.78,1.34c-.08-.29.27-.28.44-.27,2.37,0,4.73,0,7.1,0,0,.67,0,1.35,0,2a.73.73,0,0,1-.67.76c-.75,0-1.51,0-2.27,0,.17.27.33.55.49.82H49a3.37,3.37,0,0,1-.07.84c-.2.18-.49.14-.73.16h-1.8a2.86,2.86,0,0,0,.87,1,4.67,4.67,0,0,0,2.2.5c-.34.41-.64,1.1-1.28,1.06A2.91,2.91,0,0,1,46,6.89c-.23-.4-.44-.81-.67-1.22-1.18,0-2.36,0-3.55,0V7.19L44,6.56c0,.42,0,1.09-.49,1.23-.7.21-1.42.41-2.14.58-.33.1-.61-.26-.58-.57C40.78,5.64,40.79,3.49,40.78,1.34Zm1,.71c0,.27,0,.55,0,.83h5.58c0-.28,0-.56,0-.83Zm0,1.8v.82h3c-.15-.27-.29-.54-.43-.81C43.48,3.84,42.63,3.85,41.77,3.85Z"/><path class="cls-2" d="M3.57.86A16.36,16.36,0,0,1,11.46.2a10.47,10.47,0,0,1,4.92,2A3.1,3.1,0,0,1,17.6,4.4c-1,0-2,0-3,0a2.71,2.71,0,0,0-1.37-2.13A8.74,8.74,0,0,0,7.91,1.16,7.21,7.21,0,0,0,4,2.56a2.18,2.18,0,0,0-.91,2.21,3.51,3.51,0,0,0,2.09,2,10.29,10.29,0,0,0,3.69.74c1.42.58,2.82,1.26,4.23,1.89-1.37.6-2.73,1.23-4.09,1.83-.17.1-.36,0-.53-.07-1.3-.59-2.6-1.18-3.91-1.75.74-.35,1.5-.7,2.26-1a13.37,13.37,0,0,1-5-1.62A3.62,3.62,0,0,1,.14,4.91,2.31,2.31,0,0,1,.7,2.71,6.63,6.63,0,0,1,3.57.86Zm3.5,8.59c.46.2.91.42,1.38.61.16,0,.34.18.51.08.54-.22,1-.47,1.58-.69-.58-.27-1.18-.52-1.76-.78Z"/><path class="cls-1" d="M20.92,10.11a3,3,0,0,1,2.25-.29c0,.16,0,.47,0,.63a2.51,2.51,0,0,0-1.69.11.94.94,0,0,0,0,1.47,2.38,2.38,0,0,0,1.72.22v.6a3.08,3.08,0,0,1-2.25-.3A1.55,1.55,0,0,1,20.92,10.11Z"/><path class="cls-1" d="M23.77,9.79h.76V11h1.53V9.78h.76v3.06h-.77V11.6H24.53v1.25h-.77C23.77,11.83,23.77,10.81,23.77,9.79Z"/><path class="cls-1" d="M27.65,9.79h.78c0,1,0,2,0,3h-.77Z"/><path class="cls-1" d="M29.22,9.79H30c.54.62,1.09,1.24,1.63,1.87V9.79h.76v3.08c-.25,0-.57.07-.75-.14-.55-.59-1.05-1.23-1.59-1.83v2h-.78Z"/><path class="cls-1" d="M38.08,9.8h.7l1,1.12c.32-.38.64-.75,1-1.12h.69c0,1,0,2,0,3h-.78V10.93c-.29.36-.59.69-.91,1-.29-.34-.57-.69-.87-1,0,.65,0,1.28,0,1.92h-.78C38.08,11.83,38.08,10.81,38.08,9.8Z"/><path class="cls-1" d="M42.2,9.8H43c0,1,0,2.05,0,3.06H42.2C42.21,11.83,42.21,10.81,42.2,9.8Z"/><path class="cls-1" d="M43.78,9.8h.73c.53.63,1.1,1.25,1.63,1.89q0-.94,0-1.89h.76v3h-.63c-.58-.65-1.14-1.3-1.71-2v2h-.77C43.79,11.83,43.79,10.81,43.78,9.8Z"/><path class="cls-1" d="M48,9.93a2.59,2.59,0,0,1,1.86,0v.6c-.46-.11-1-.33-1.44-.07a2.83,2.83,0,0,1,0,.29,6.82,6.82,0,0,1,1.32.67.84.84,0,0,1-.18,1.31,2.84,2.84,0,0,1-2,0V12a2,2,0,0,0,1.58.2c.06-.16.09-.35-.12-.41-.39-.24-.89-.29-1.22-.63A.82.82,0,0,1,48,9.93Z"/><path class="cls-1" d="M50.63,9.8h.78V11H53V9.79h.76c0,1,0,2,0,3H53c0-.41,0-.84,0-1.25H51.41v1.25h-.76C50.65,11.84,50.67,10.82,50.63,9.8Z"/><path class="cls-1" d="M54.4,9.79h2.27c0,.18,0,.4-.11.55-.47,0-.93,0-1.39,0V11h1.4c0,.14,0,.42,0,.57H55.17v.72h1.51v.57H54.41C54.4,11.84,54.4,10.81,54.4,9.79Z"/><path class="cls-1" d="M57.37,9.79h.71c.55.63,1.1,1.25,1.64,1.88V9.79h.77v3h-.65c-.57-.65-1.15-1.3-1.7-2v2h-.76C57.37,11.83,57.37,10.81,57.37,9.79Z"/><path class="cls-1" d="M61.62,10.09A2.69,2.69,0,0,1,64.06,10v.67a2.14,2.14,0,0,0-1.91-.05.91.91,0,0,0,.18,1.57c.37.15,1.1.21,1.07-.37h-.48c0-.18,0-.37,0-.56h1.2v1.31a2.3,2.3,0,0,1-2.69-.16A1.53,1.53,0,0,1,61.62,10.09Z"/><path class="cls-1" d="M73.11,9.8h.71l1.65,1.88c0-.62,0-1.25,0-1.88h.76v3.07h-.65l-1.69-2c0,.65,0,1.3,0,1.95h-.78C73.12,11.85,73.12,10.82,73.11,9.8Z"/><path class="cls-1" d="M78.74,9.8h.85c-.34.47-.66,1-1,1.43.45.55.9,1.1,1.36,1.64H79c-.4-.49-.81-1-1.21-1.45,0,.49,0,1,0,1.45H77V9.81h.76v1.41Z"/><path class="cls-1" d="M34,9.8h.89c.47,1,.91,2.05,1.38,3.06H35.4c-.09-.2-.17-.4-.25-.6H33.78c-.08.21-.16.41-.23.61h-.82C33.15,11.84,33.55,10.82,34,9.8Zm0,1.91h1c-.17-.39-.33-.79-.51-1.18Z"/><path class="cls-1" d="M70.49,9.8h.88l1.37,3.06h-.83l-.26-.61H70.29l-.24.6h-.81C69.66,11.85,70.07,10.82,70.49,9.8Zm.44.76-.44,1.17h1C71.28,11.33,71.11,11,70.93,10.56Z"/><path class="cls-1" d="M66.37,9.8a10.27,10.27,0,0,1,1.84.07c.35.1.48.47.61.77-.15.18-.28.36-.42.54a.86.86,0,0,1,0,1.6,10.22,10.22,0,0,1-2.07.08Zm.76.55V11a3.17,3.17,0,0,0,.69-.08.32.32,0,0,0,0-.53A3.1,3.1,0,0,0,67.13,10.35Zm0,2c.34-.06,1.05.14,1-.41s-.69-.29-1-.34Z"/></g></g></svg>