<svg id="Layer_1" data-name="Layer 1" xmlns="http://www.w3.org/2000/svg" viewBox="0 0 79.99 13.8"><defs><style>.cls-1{fill:#2d61ac;}.cls-2{fill:#009858;}</style></defs><title>CMBC</title><path class="cls-1" d="M64.43,43.93a4.74,4.74,0,0,1,.84,0c.27.29.1.75.16,1.1h3.28a4.25,4.25,0,0,1-.06.8c-.13.19-.39.16-.59.18-.88,0-1.76,0-2.64,0v1.49h3.19c-.07.31.11.8-.27,1-1,.06-2,0-2.93,0V50.2c1.35,0,2.71.06,4-.05a2.08,2.08,0,0,1-.25.89.87.87,0,0,1-.61.16c-2.52,0-5,0-7.55,0-.23,0-.52,0-.64-.23a6.47,6.47,0,0,1,0-.76h4.07V48.52c-.93,0-1.87,0-2.81,0-.41-.09-.27-.64-.32-1h3.13V46.06c-.82,0-1.65,0-2.47,0-.23.2-.41.53-.75.53s-.82-.3-1.15-.56a5.72,5.72,0,0,0,1.74-1.69,7.25,7.25,0,0,1,.93-.05c-.07.26-.15.52-.22.78h1.92Z" transform="translate(-10.01 -43.1)"/><path class="cls-1" d="M69.78,45.62A4.41,4.41,0,0,0,71.45,44h.93l-.21.67h1.65v.86h-2.1c-.17.2-.35.41-.53.6h2.63V47H72.49v.75h1.32v.85H72.49V50.1l1.25-.45c0,.38.07.92-.34,1.14a5.46,5.46,0,0,1-1.36.46.44.44,0,0,1-.52-.42c0-.76,0-1.53,0-2.29a3.86,3.86,0,0,1-1-.08,4.22,4.22,0,0,1-.07-.79h1c0-.24,0-.48,0-.72L71,46.89a4.28,4.28,0,0,1-.1-.64A1.75,1.75,0,0,1,69.78,45.62Z" transform="translate(-10.01 -43.1)"/><path class="cls-1" d="M82.87,44.19c.27-.38.78-.16,1.18-.21a4.38,4.38,0,0,1-2,2.13c-.53.21-.89-.31-1.25-.6A5.11,5.11,0,0,0,82.87,44.19Z" transform="translate(-10.01 -43.1)"/><path class="cls-1" d="M84.76,44.38H89.5c0,.32.1.93-.36,1-1.33,0-2.67,0-4,0C84.66,45.31,84.8,44.71,84.76,44.38Z" transform="translate(-10.01 -43.1)"/><path class="cls-1" d="M40.49,44.17h8.43c0,2,0,4,0,6a1.23,1.23,0,0,1-.22.9c-.18.23-.49.2-.75.21H40.49Zm1,6.16c2.13,0,4.26,0,6.39,0L48,50.2c0-1.69,0-3.37,0-5.06H41.47C41.47,46.87,41.47,48.6,41.48,50.33Zm.67-4.58c0,.25,0,.5.05.75.71,0,1.42,0,2.13,0v.81h-2c0,.24-.08.59.18.75.6.06,1.21,0,1.81,0v1H41.9v.66a6.32,6.32,0,0,0,1.06.09c1.38,0,2.76,0,4.14,0,.42,0,.41-.51.51-.79l-.62.07c-.09-.17-.16-.35-.26-.5a3.69,3.69,0,0,0-.81-.06c0,.19.12.38.17.56h-.78c0-.33,0-.65,0-1a11.61,11.61,0,0,0,1.67,0c.13-.21.06-.49.1-.72-.59,0-1.18,0-1.76,0,0-.27,0-.55,0-.82.6,0,1.22,0,1.82,0,.21-.17.13-.47.18-.71C45.59,45.69,43.87,45.77,42.15,45.75Z" transform="translate(-10.01 -43.1)"/><path class="cls-1" d="M34.06,43.92A5.32,5.32,0,0,1,35,44a3.28,3.28,0,0,1,.09.89c1.25,0,2.5,0,3.76,0,0,1.29,0,2.58,0,3.87a.73.73,0,0,1-.62.8c-1,.05-2.07,0-3.11,0,0,.55,0,1.11-.09,1.66a2.42,2.42,0,0,1-1,.12V49.57c-1,0-2,0-3.05,0a.73.73,0,0,1-.61-.8c0-1.29,0-2.59,0-3.88h3.67Zm-2.6,1.93v2.76h2.6c0-.92,0-1.84,0-2.76Zm3.65,0c0,.88,0,1.76,0,2.64l.09.11c.86,0,1.72,0,2.58,0,0-.92,0-1.84,0-2.76C36.92,45.86,36,45.85,35.11,45.86Z" transform="translate(-10.01 -43.1)"/><path class="cls-1" d="M80.71,47.51A5,5,0,0,0,83.05,46h1c-.23.49-.75.89-.71,1.47,0,1,0,2.09,0,3.14a1.9,1.9,0,0,1-.13.74h-.85c0-1.13,0-2.26,0-3.38-.28.1-.59.29-.89.16A4.47,4.47,0,0,1,80.71,47.51Z" transform="translate(-10.01 -43.1)"/><path class="cls-1" d="M84.19,46.38c1.94,0,3.87,0,5.81,0a2.37,2.37,0,0,1-.26.87c-.35.24-.82.12-1.22.15,0,1.08,0,2.16,0,3.24a.73.73,0,0,1-.67.75,11.1,11.1,0,0,1-1.73,0c-.4-.13-.33-.67-.46-1,.63,0,1.25,0,1.87,0,0-1,0-2,0-3-1.05,0-2.09,0-3.15,0C84.12,47.12,84.24,46.69,84.19,46.38Z" transform="translate(-10.01 -43.1)"/><path class="cls-1" d="M78.45,49.74a5.06,5.06,0,0,0,1-.46c.2-.29.09-.67.13-1l-2,.74c-.25-.31-.49-.63-.74-1,.67,0,1.34,0,2,0a.78.78,0,0,0,.6-.85c0-1,0-2,0-3-1.53,0-3,0-4.57,0a.56.56,0,0,0-.62.61c0,2,0,3.91,0,5.85,0,.3.12.69.47.68a4.74,4.74,0,0,0,1.42-.42c.36-.25.24-.75.29-1.13l-1.2.39V48H76a7,7,0,0,0,2.91,3.27c.63.28,1-.41,1.39-.79A3.92,3.92,0,0,1,78.45,49.74ZM75.25,45h3.23v.73H75.24C75.25,45.46,75.25,45.22,75.25,45Zm0,2.23v-.64h3.24c0,.21,0,.42,0,.64Z" transform="translate(-10.01 -43.1)"/><path class="cls-1" d="M14.56,47.45c1.4-.67,2.83-1.26,4.23-1.92l4.28,1.92-2.27,1a12.52,12.52,0,0,1,5.29,1.76,3,3,0,0,1,1.48,2.34,3.36,3.36,0,0,1-1.8,2.6A13.41,13.41,0,0,1,19,56.9a14,14,0,0,1-6.89-1.53A3.69,3.69,0,0,1,10,52.49c1,0,2,0,3,0A3.2,3.2,0,0,0,15.15,55a9.72,9.72,0,0,0,6,.45,5.56,5.56,0,0,0,2.94-1.59,2,2,0,0,0,.41-2,3.73,3.73,0,0,0-2.06-1.84,8.78,8.78,0,0,0-3.23-.69A2.89,2.89,0,0,1,18,49Zm2.5,0c.58.24,1.16.5,1.73.78.59-.26,1.17-.53,1.76-.78-.58-.26-1.17-.53-1.76-.78C18.22,46.94,17.63,47.19,17.06,47.45Z" transform="translate(-10.01 -43.1)"/><path class="cls-1" d="M50.78,44.44c-.09-.29.27-.28.44-.27,2.37,0,4.73,0,7.1,0,0,.67,0,1.35,0,2a.74.74,0,0,1-.67.76c-.75,0-1.51,0-2.27,0l.49.82H59a3.33,3.33,0,0,1-.07.83,1.1,1.1,0,0,1-.73.16h-1.8a2.76,2.76,0,0,0,.87,1,4.76,4.76,0,0,0,2.2.49c-.35.42-.64,1.1-1.28,1.06A2.88,2.88,0,0,1,56,50c-.24-.4-.45-.81-.67-1.22-1.18,0-2.36,0-3.55,0v1.53L54,49.64c0,.42,0,1.09-.49,1.23-.71.21-1.42.42-2.14.58-.33.1-.61-.26-.58-.56C50.78,48.74,50.79,46.59,50.78,44.44Zm1,.71c0,.27,0,.55,0,.83h5.58c0-.27,0-.56,0-.83Zm0,1.8v.82q1.5,0,3,0c-.15-.27-.29-.54-.43-.82Z" transform="translate(-10.01 -43.1)"/><path class="cls-2" d="M13.57,44a16.36,16.36,0,0,1,7.89-.66,10.47,10.47,0,0,1,4.92,2A3.1,3.1,0,0,1,27.6,47.5c-1,0-2,0-3,0a2.72,2.72,0,0,0-1.36-2.13,8.75,8.75,0,0,0-5.35-1.12A7.24,7.24,0,0,0,14,45.66a2.2,2.2,0,0,0-.91,2.21,3.48,3.48,0,0,0,2.09,2,10.3,10.3,0,0,0,3.69.75c1.43.58,2.82,1.25,4.24,1.89-1.37.6-2.73,1.22-4.09,1.83-.17.1-.36,0-.53-.07-1.3-.59-2.6-1.18-3.91-1.75.75-.35,1.5-.7,2.26-1a13.27,13.27,0,0,1-5-1.62A3.57,3.57,0,0,1,10.16,48a2.31,2.31,0,0,1,.56-2.2A6.39,6.39,0,0,1,13.57,44Zm3.5,8.59c.46.2.92.42,1.38.61.16.05.35.18.52.08.53-.22,1-.47,1.58-.69-.58-.27-1.18-.53-1.76-.78Z" transform="translate(-10.01 -43.1)"/><path class="cls-1" d="M30.92,53.21a3,3,0,0,1,2.25-.29c0,.16,0,.47,0,.63a2.58,2.58,0,0,0-1.69.11.94.94,0,0,0,0,1.47,2.38,2.38,0,0,0,1.72.22V56a3,3,0,0,1-2.25-.3A1.55,1.55,0,0,1,30.92,53.21Z" transform="translate(-10.01 -43.1)"/><path class="cls-1" d="M33.77,52.89h.75v1.23h1.54V52.88h.75V56h-.76V54.71H34.52V56h-.76C33.77,54.93,33.77,53.91,33.77,52.89Z" transform="translate(-10.01 -43.1)"/><path class="cls-1" d="M37.65,52.89l.78,0c0,1,0,2,0,3.05h-.78C37.65,54.93,37.65,53.91,37.65,52.89Z" transform="translate(-10.01 -43.1)"/><path class="cls-1" d="M39.22,52.89h.72c.54.63,1.09,1.25,1.64,1.87,0-.63,0-1.25,0-1.88h.76V56c-.24-.05-.56.07-.75-.14-.54-.58-1-1.23-1.58-1.82v2h-.78Z" transform="translate(-10.01 -43.1)"/><path class="cls-1" d="M48.08,52.9h.7c.32.38.65.75,1,1.12.32-.38.64-.75,1-1.12h.69q0,1.53,0,3.06h-.78V54c-.28.36-.59.69-.9,1-.29-.35-.57-.69-.87-1,0,.64,0,1.28,0,1.92H48.1C48.08,54.93,48.08,53.91,48.08,52.9Z" transform="translate(-10.01 -43.1)"/><path class="cls-1" d="M52.2,52.9H53c0,1,0,2,0,3.07H52.2C52.21,54.93,52.21,53.91,52.2,52.9Z" transform="translate(-10.01 -43.1)"/><path class="cls-1" d="M53.78,52.9h.73c.53.64,1.1,1.25,1.63,1.89q0-.95,0-1.89h.76V56h-.64c-.58-.65-1.14-1.31-1.7-2v2l-.78,0C53.79,54.93,53.79,53.91,53.78,52.9Z" transform="translate(-10.01 -43.1)"/><path class="cls-1" d="M58,53a2.59,2.59,0,0,1,1.86,0c0,.2,0,.4,0,.6-.46-.11-1-.34-1.44-.07a2.64,2.64,0,0,1,0,.28,7.79,7.79,0,0,1,1.32.67.85.85,0,0,1-.18,1.31,2.84,2.84,0,0,1-2,0v-.67a2.08,2.08,0,0,0,1.58.2c.06-.16.09-.35-.12-.41-.39-.24-.89-.29-1.22-.63A.81.81,0,0,1,58,53Z" transform="translate(-10.01 -43.1)"/><path class="cls-1" d="M60.63,52.91l.78,0v1.23H63V52.89h.76c0,1,0,2,0,3.06H63c0-.42,0-.84,0-1.25H61.41V56h-.76C60.65,54.94,60.67,53.92,60.63,52.91Z" transform="translate(-10.01 -43.1)"/><path class="cls-1" d="M64.4,52.89h2.27c0,.18,0,.4-.12.55-.46,0-.93,0-1.39,0v.64h1.4c0,.14,0,.42,0,.56H65.16v.73h1.51v.56H64.4Z" transform="translate(-10.01 -43.1)"/><path class="cls-1" d="M67.37,52.89h.71c.55.63,1.1,1.25,1.64,1.88V52.89h.78V56h-.66c-.56-.66-1.15-1.31-1.69-2v2h-.76C67.37,54.93,67.37,53.91,67.37,52.89Z" transform="translate(-10.01 -43.1)"/><path class="cls-1" d="M71.62,53.19a2.66,2.66,0,0,1,2.44-.1v.67a2.14,2.14,0,0,0-1.91,0,.92.92,0,0,0,.18,1.58c.37.15,1.1.21,1.07-.37h-.48c0-.19,0-.38,0-.56h1.2v1.31a2.3,2.3,0,0,1-2.69-.16A1.55,1.55,0,0,1,71.62,53.19Z" transform="translate(-10.01 -43.1)"/><path class="cls-1" d="M83.11,52.91h.71l1.65,1.88c0-.63,0-1.25,0-1.88h.76V56h-.64L83.9,54c0,.65,0,1.3,0,1.95h-.78C83.12,55,83.12,53.93,83.11,52.91Z" transform="translate(-10.01 -43.1)"/><path class="cls-1" d="M88.74,52.91h.85c-.35.47-.67,1-1,1.43.45.55.9,1.1,1.36,1.64H89c-.4-.49-.82-1-1.21-1.45,0,.49,0,1,0,1.45H87V52.92h.76v1.4C88.09,53.84,88.42,53.38,88.74,52.91Z" transform="translate(-10.01 -43.1)"/><path class="cls-1" d="M44,52.9h.89c.46,1,.91,2,1.37,3.07h-.83c-.09-.2-.16-.41-.24-.6H43.78c-.08.2-.16.41-.23.61h-.82C43.15,54.94,43.55,53.92,44,52.9Zm0,1.91h1c-.16-.39-.33-.79-.5-1.18C44.27,54,44.12,54.41,44,54.81Z" transform="translate(-10.01 -43.1)"/><path class="cls-1" d="M80.49,52.91h.89L82.74,56h-.82c-.09-.2-.17-.41-.26-.61H80.3c-.08.2-.16.41-.24.6h-.82C79.66,55,80.07,53.93,80.49,52.91Zm.44.76-.45,1.16h1C81.28,54.44,81.11,54.05,80.93,53.67Z" transform="translate(-10.01 -43.1)"/><path class="cls-1" d="M76.37,52.91a9.42,9.42,0,0,1,1.84.07c.35.09.48.46.61.76-.15.18-.28.36-.42.54a.86.86,0,0,1,0,1.6,11,11,0,0,1-2.07.09Zm.76.54v.69a2.66,2.66,0,0,0,.69-.08.32.32,0,0,0,0-.53A3.1,3.1,0,0,0,77.13,53.45Zm0,2c.35-.06,1.05.14,1-.41s-.69-.29-1-.35Z" transform="translate(-10.01 -43.1)"/></svg>