<svg id="Layer_1" data-name="Layer 1" xmlns="http://www.w3.org/2000/svg" viewBox="0 0 80.02 19.05"><defs><style>.cls-1{fill:#d61f27;}.cls-2{fill:#144a95;}</style></defs><title>CNCB</title><path class="cls-1" d="M15.18,43.85V58.48a9.64,9.64,0,0,0,1.83.71V46.76a3.23,3.23,0,0,0-1.83-2.91" transform="translate(-10 -40.48)"/><path class="cls-1" d="M23.86,43.85V58.48a9.64,9.64,0,0,1-1.83.71V46.76a3.23,3.23,0,0,1,1.83-2.91" transform="translate(-10 -40.48)"/><path class="cls-1" d="M23.88,41.8a.42.42,0,0,0-.24-.38,9.54,9.54,0,0,0-8.26,0h0a.42.42,0,0,0-.24.38.41.41,0,0,0,.3.4h0a4.18,4.18,0,0,1,2.93,4V59.45a10.57,10.57,0,0,0,1.14.07,8.51,8.51,0,0,0,1.14-.07V46.19a4.18,4.18,0,0,1,2.93-4h0a.41.41,0,0,0,.3-.4" transform="translate(-10 -40.48)"/><path class="cls-1" d="M13,49.38a.6.6,0,0,0,.72-.25V42.44a9.53,9.53,0,0,0,0,15.12V50.87a.6.6,0,0,0-.72-.25,1.47,1.47,0,0,0-.91,1v0a.15.15,0,0,1-.15.11.16.16,0,0,1-.11-.05,2.62,2.62,0,0,1,0-3.4.14.14,0,0,1,.11,0,.16.16,0,0,1,.15.12h0l0-.07A1.45,1.45,0,0,0,13,49.38" transform="translate(-10 -40.48)"/><path class="cls-1" d="M28.16,50.62a1.45,1.45,0,0,0-.91,1h0a.16.16,0,0,1-.15.12.17.17,0,0,1-.13-.07,2.66,2.66,0,0,1-.6-1.67,2.62,2.62,0,0,1,.6-1.67.17.17,0,0,1,.13-.07.16.16,0,0,1,.15.11h0a1.44,1.44,0,0,0,.91,1,.61.61,0,0,0,.78-.36.53.53,0,0,0,0-.12,9.52,9.52,0,0,0-3.67-6.45V57.56A9.56,9.56,0,0,0,29,51.11l0-.12a.6.6,0,0,0-.78-.37" transform="translate(-10 -40.48)"/><path class="cls-2" d="M38.8,58.6l.18.13a1.62,1.62,0,0,1-.56.6,1.54,1.54,0,0,1-.79.2,1.63,1.63,0,0,1-.59-.1,1.68,1.68,0,0,1-.5-.29A1.6,1.6,0,0,1,36,57.88a1.72,1.72,0,0,1,.1-.6,1.8,1.8,0,0,1,.28-.53,1.68,1.68,0,0,1,.56-.47,1.45,1.45,0,0,1,.68-.16,1.52,1.52,0,0,1,.55.1l.3.09a.15.15,0,0,0,.11,0,.27.27,0,0,0,.09-.12h.15l0,1h-.17a1.22,1.22,0,0,0-.38-.6.93.93,0,0,0-.62-.21,1,1,0,0,0-.83.4,1.7,1.7,0,0,0-.32,1.07,1.53,1.53,0,0,0,.33,1,1.08,1.08,0,0,0,.86.39,1.1,1.1,0,0,0,.57-.15,1.51,1.51,0,0,0,.52-.49" transform="translate(-10 -40.48)"/><path class="cls-2" d="M42,57.61v-.89a.31.31,0,0,0-.1-.27.59.59,0,0,0-.33-.09V56.2h1.33v.16a.43.43,0,0,0-.31.09.34.34,0,0,0-.09.27v2.2a.34.34,0,0,0,.09.27.54.54,0,0,0,.31.09v.17H41.61v-.16a.52.52,0,0,0,.33-.09.34.34,0,0,0,.09-.27v-1H40.4v1a.31.31,0,0,0,.1.27.65.65,0,0,0,.33.09v.16H39.5v-.17a.43.43,0,0,0,.31-.09.34.34,0,0,0,.09-.27v-2.2a.34.34,0,0,0-.09-.27.57.57,0,0,0-.31-.09V56.2h1.33v.16a.47.47,0,0,0-.33.09.31.31,0,0,0-.1.27v.89H42" transform="translate(-10 -40.48)"/><path class="cls-2" d="M44.41,58.92a.31.31,0,0,0,.1.27.59.59,0,0,0,.33.09v.17H43.48v-.17a.47.47,0,0,0,.33-.09.34.34,0,0,0,.1-.27v-2.2a.31.31,0,0,0-.1-.27.59.59,0,0,0-.33-.09V56.2h1.36v.16a.47.47,0,0,0-.33.09.34.34,0,0,0-.1.27v2.2" transform="translate(-10 -40.48)"/><path class="cls-2" d="M46.05,58.9a.37.37,0,0,0,.1.29.41.41,0,0,0,.3.09h0v.17H45.36v-.17h0a.33.33,0,0,0,.38-.38V56.55a.37.37,0,0,0-.17-.13.77.77,0,0,0-.24-.06V56.2h.86l1.93,2.38V56.75a.43.43,0,0,0-.1-.3.49.49,0,0,0-.32-.09V56.2h1.12v.16a.46.46,0,0,0-.31.1.4.4,0,0,0-.1.29V59.5h-.18L46,56.77V58.9" transform="translate(-10 -40.48)"/><path class="cls-2" d="M50.23,59.44v-.17a.66.66,0,0,1-.3-.09.19.19,0,0,1-.08-.16.45.45,0,0,1,0-.11.56.56,0,0,1,0-.12l.18-.42h1.35l.19.42a.5.5,0,0,1,0,.13.49.49,0,0,1,0,.12.17.17,0,0,1-.09.16.66.66,0,0,1-.3.07v.17h1.43v-.17a.54.54,0,0,1-.3-.1.8.8,0,0,1-.22-.31L51,56.2h-.2l-1.25,2.69a1,1,0,0,1-.19.29.52.52,0,0,1-.25.11v.17h1.12m.55-2.61.53,1.26H50.2Z" transform="translate(-10 -40.48)"/><path class="cls-2" d="M58.44,58.6l.18.13a1.62,1.62,0,0,1-.56.6,1.54,1.54,0,0,1-.79.2,1.63,1.63,0,0,1-.59-.1,1.68,1.68,0,0,1-.5-.29,1.57,1.57,0,0,1-.57-1.26,1.72,1.72,0,0,1,.1-.6,2.07,2.07,0,0,1,.28-.53,1.68,1.68,0,0,1,.56-.47,1.45,1.45,0,0,1,.68-.16,1.52,1.52,0,0,1,.55.1l.3.09a.15.15,0,0,0,.11,0,.27.27,0,0,0,.09-.12h.15l0,1H58.3a1.28,1.28,0,0,0-.37-.6.93.93,0,0,0-.62-.21,1,1,0,0,0-.84.4,1.7,1.7,0,0,0-.32,1.07,1.53,1.53,0,0,0,.33,1,1.08,1.08,0,0,0,.86.39,1.17,1.17,0,0,0,.58-.15,1.6,1.6,0,0,0,.52-.49" transform="translate(-10 -40.48)"/><path class="cls-2" d="M60.05,58.92a.31.31,0,0,0,.1.27.59.59,0,0,0,.33.09v.17H59.12v-.17a.47.47,0,0,0,.33-.09.34.34,0,0,0,.1-.27v-2.2a.31.31,0,0,0-.1-.27.59.59,0,0,0-.33-.09V56.2h1.36v.16a.47.47,0,0,0-.33.09.31.31,0,0,0-.1.27v2.2" transform="translate(-10 -40.48)"/><path class="cls-2" d="M63.79,56.2l.05.8h-.17a.68.68,0,0,0-.22-.44.82.82,0,0,0-.5-.12h-.33v2.49a.31.31,0,0,0,.1.27.52.52,0,0,0,.33.09v.17H61.69V59.3a.47.47,0,0,0,.33-.09.33.33,0,0,0,.1-.27V56.45h-.34a.82.82,0,0,0-.5.12.79.79,0,0,0-.22.44H60.9l0-.8h2.85" transform="translate(-10 -40.48)"/><path class="cls-2" d="M65.2,58.92a.34.34,0,0,0,.09.27.62.62,0,0,0,.33.09v.17H64.26v-.17a.47.47,0,0,0,.33-.09.34.34,0,0,0,.1-.27v-2.2a.31.31,0,0,0-.1-.27.65.65,0,0,0-.33-.09V56.2h1.36v.16a.47.47,0,0,0-.33.09.34.34,0,0,0-.1.27v2.2" transform="translate(-10 -40.48)"/><path class="cls-2" d="M69,58.6l.18.13a1.62,1.62,0,0,1-.56.6,1.54,1.54,0,0,1-.79.2,1.63,1.63,0,0,1-.59-.1,1.68,1.68,0,0,1-.5-.29,1.59,1.59,0,0,1-.42-.56,1.75,1.75,0,0,1-.14-.7,1.72,1.72,0,0,1,.1-.6,1.8,1.8,0,0,1,.28-.53,1.68,1.68,0,0,1,.56-.47,1.45,1.45,0,0,1,.68-.16,1.52,1.52,0,0,1,.55.1l.3.09a.15.15,0,0,0,.11,0,.27.27,0,0,0,.09-.12H69l0,1H68.9a1.28,1.28,0,0,0-.37-.6,1,1,0,0,0-.62-.21,1,1,0,0,0-.83.4,1.7,1.7,0,0,0-.32,1.07,1.53,1.53,0,0,0,.33,1,1.08,1.08,0,0,0,.86.39,1.1,1.1,0,0,0,.57-.15A1.48,1.48,0,0,0,69,58.6" transform="translate(-10 -40.48)"/><path class="cls-2" d="M73.55,59.44a1.36,1.36,0,0,0,.85-.25.78.78,0,0,0,.34-.64.72.72,0,0,0-.23-.55,1.33,1.33,0,0,0-.68-.28,1.18,1.18,0,0,0,.57-.29.64.64,0,0,0,.19-.47.65.65,0,0,0-.29-.57,1.51,1.51,0,0,0-.84-.2H71.91v.16a.43.43,0,0,1,.31.09.34.34,0,0,1,.09.27v2.2a.34.34,0,0,1-.09.27.48.48,0,0,1-.31.09v.17h1.64m-.75-3h.5a1,1,0,0,1,.57.14.5.5,0,0,1,.19.43.55.55,0,0,1-.21.46,1,1,0,0,1-.6.16H72.8Zm.59,1.44a.89.89,0,0,1,.59.18.61.61,0,0,1,.21.49A.56.56,0,0,1,74,59a1.25,1.25,0,0,1-.7.17.74.74,0,0,1-.37-.06.38.38,0,0,1-.08-.29v-1h.59Z" transform="translate(-10 -40.48)"/><path class="cls-2" d="M76.14,59.44v-.17a.66.66,0,0,1-.3-.09.19.19,0,0,1-.08-.16.45.45,0,0,1,0-.11.56.56,0,0,1,0-.12l.19-.41h1.35l.19.42a.5.5,0,0,1,0,.13.49.49,0,0,1,0,.12.17.17,0,0,1-.09.16.66.66,0,0,1-.3.07v.17h1.43v-.17a.56.56,0,0,1-.3-.1.7.7,0,0,1-.21-.31l-1.2-2.67h-.2l-1.25,2.69a1,1,0,0,1-.19.29.48.48,0,0,1-.25.11v.17h1.11m.55-2.61.53,1.26H76.11Z" transform="translate(-10 -40.48)"/><path class="cls-2" d="M79.64,58.9a.4.4,0,0,0,.09.29.41.41,0,0,0,.3.09h0v.17H78.94v-.17h0a.45.45,0,0,0,.3-.09.4.4,0,0,0,.09-.29V56.55a.37.37,0,0,0-.17-.13.7.7,0,0,0-.24-.06V56.2h.87l1.93,2.38V56.75a.39.39,0,0,0-.1-.3.49.49,0,0,0-.32-.09V56.2h1.12v.16a.46.46,0,0,0-.31.1.4.4,0,0,0-.1.29V59.5h-.18l-2.21-2.73V58.9" transform="translate(-10 -40.48)"/><path class="cls-2" d="M83.84,57.92,85,56.83l.16-.16a.21.21,0,0,0,0-.12.16.16,0,0,0-.08-.14.78.78,0,0,0-.31-.06V56.2h1.37v.16a1.12,1.12,0,0,0-.31.1,1.37,1.37,0,0,0-.29.2l-.88.79.88,1.35a1.25,1.25,0,0,0,.32.37.58.58,0,0,0,.32.1v.17H84.83v-.17a.88.88,0,0,0,.26,0,.11.11,0,0,0,.09-.1.26.26,0,0,0,0-.11L85,58.84l-.68-1-.52.47v.64a.34.34,0,0,0,.09.27.54.54,0,0,0,.31.09v.17H82.93v-.17a.43.43,0,0,0,.31-.09.34.34,0,0,0,.09-.27v-2.2a.34.34,0,0,0-.09-.27.54.54,0,0,0-.31-.09V56.2h1.31v.16a.54.54,0,0,0-.31.09.34.34,0,0,0-.09.27v1.2" transform="translate(-10 -40.48)"/><path class="cls-2" d="M40.63,44.63a.54.54,0,0,1,0,.17,3.79,3.79,0,0,1-.09.7,2.37,2.37,0,0,1-.42,1.1,14.07,14.07,0,0,1-2.28.37c0-.42,0-1.92,0-2.25a11.75,11.75,0,0,1,2.72-.09m-4,.26c0,.42,0,1.89,0,2.22l-2.22.21c0-.37-.15-1.78-.18-2.13l2.42-.3m0-4.41c-.55,0-.54.11-.54.21s.11.24.19.55a5,5,0,0,1,.28,1.57c0,.47,0,.86,0,1.18l-2.72.26c-1-.36-1.64-.3-1.71,0s0,.26.13.49a9.16,9.16,0,0,1,.79,2.81h0a2.58,2.58,0,0,0,.49,1.37c.12.1.22.2.42.1s.29-.24.42-.69l2.11-.18a34.55,34.55,0,0,0,.23,5.81c.06.33.16.62.33.49s.36-.49.52-1.75c.06-.58.13-1.22.18-2.17l0-1.37c0-.41,0-.78,0-1.14,1.27-.07,2.35-.11,2.79-.11s1.09.12,1.22,0,.07-.36,0-.57a5.65,5.65,0,0,0-.31-.54,8.67,8.67,0,0,1,1.21-1.65l.16-.15c.23-.21.27-.28.29-.36s-.1-.24-.1-.24a4.61,4.61,0,0,0-1.8-1.15l-.1,0a1.45,1.45,0,0,0-.35.13h0a23,23,0,0,1-2.87.46,5.82,5.82,0,0,1,.25-2,1.2,1.2,0,0,1,.08-.15.46.46,0,0,0,.08-.21.32.32,0,0,0-.07-.19,2.13,2.13,0,0,0-1.62-.8" transform="translate(-10 -40.48)"/><path class="cls-2" d="M52.32,41.51c-.27.08-.13.24-.13.24a5.6,5.6,0,0,0,2,1.67h.14c.19,0,.5-.22.49-.83h0a1.23,1.23,0,0,0-.48-.89,1.83,1.83,0,0,0-1-.31h0a3.12,3.12,0,0,0-1,.12" transform="translate(-10 -40.48)"/><path class="cls-2" d="M48.38,41.55c0,.06,0,.16,0,.41a1.59,1.59,0,0,1,0,.33,11.12,11.12,0,0,1-1,2.39,19.69,19.69,0,0,1-2,2.92,8.59,8.59,0,0,1-.64.68c-.12.12-.3.25-.22.33s.6,0,1.34-.5a9,9,0,0,0,2-2c0,.38.08.81.1,1.3,0,.26,0,.51,0,.75v.23c0,.3,0,.58,0,.83a12.36,12.36,0,0,1-.39,2.45l0,.18h0a2,2,0,0,0,.78,1.57c.15,0,.36-.3.36-.3A2.4,2.4,0,0,0,49,51.94v0c.05-4.47.1-5.41.12-5.53h0v-.31a1.54,1.54,0,0,0-.52-1l0,0c.31-.42.51-.75.66-1s.43-.62.65-.92.23-.31.26-.42a.43.43,0,0,0,0-.12,1.84,1.84,0,0,0-1.54-1.24s-.25-.06-.25.17" transform="translate(-10 -40.48)"/><path class="cls-2" d="M55.62,43.68a55.28,55.28,0,0,1-5.6.81,1.49,1.49,0,0,0-.57.1c-.09.08-.23.19,0,.39a3.34,3.34,0,0,0,1.06.65h.09a4.59,4.59,0,0,0,.79-.19,8,8,0,0,1,.79-.14A15.84,15.84,0,0,1,57,44.86s.53,0,.73,0,.52,0,.65-.22-.07-.47-.24-.63a2.1,2.1,0,0,0-1.59-.56,6.89,6.89,0,0,0-.88.18" transform="translate(-10 -40.48)"/><path class="cls-2" d="M54.93,45.77h0a10.05,10.05,0,0,0-1.55.26,13.34,13.34,0,0,1-1.71.31c-.17,0-.49.06-.58.18s0,.26.21.43a1.46,1.46,0,0,0,1.05.31s1.11-.12,2.55-.33l.51-.07c.31-.06.62,0,.74-.16s0-.38-.23-.56a1.36,1.36,0,0,0-1-.37" transform="translate(-10 -40.48)"/><path class="cls-2" d="M54.58,47.63a10.86,10.86,0,0,0-1.64.33,10.66,10.66,0,0,1-1,.23c-.42.06-.71,0-.74.23a.43.43,0,0,0,.05.15,1,1,0,0,0,.25.26l0,0a1.33,1.33,0,0,0,.89.19h0a24.73,24.73,0,0,0,2.86-.4l.21,0c.23,0,.43,0,.43-.24a.88.88,0,0,0-.32-.52l0,0a1.23,1.23,0,0,0-1-.2" transform="translate(-10 -40.48)"/><path class="cls-2" d="M52.8,50.9a7.65,7.65,0,0,1,2.1-.24A6.89,6.89,0,0,1,54.61,52c-.42.07-1.11.16-2,.29L52.39,51a4,4,0,0,1,.41-.08m1.83-1.36a11.86,11.86,0,0,1-2.64.52l-.32,0c-.55-.08-.79-.06-.87,0h0c-.17.17,0,.31,0,.4l.1.23c0,.13.14.37.58,2.15a1.57,1.57,0,0,0,.44.91l.13.06a.29.29,0,0,0,.27-.12,2.84,2.84,0,0,0,.24-.48c1.1-.1,1.9-.17,2.39-.2,1-.07,1.17-.12,1.22-.31a1.34,1.34,0,0,0-.27-.66c.42-.6.4-.61.57-.82s.46-.39.49-.61-.56-.81-1.68-1.23H55.2a1.61,1.61,0,0,0-.57.18" transform="translate(-10 -40.48)"/><path class="cls-2" d="M80.68,41.14a.38.38,0,0,0-.34.06.87.87,0,0,0-.11.58c0,.16,0,.29-.37.81A16,16,0,0,1,78,44.69c-.3.27-.76.7-.69.82s.56.08,1.12-.18a10.48,10.48,0,0,0,2.21-1.71c.27-.25.58-.51.9-.78s.43-.42.45-.49a.43.43,0,0,0,0-.2,2.16,2.16,0,0,0-1.27-1" transform="translate(-10 -40.48)"/><path class="cls-2" d="M86,42.52a5.27,5.27,0,0,0-.72.26h0a12.36,12.36,0,0,1-1.81.56c-.4.09-.75.12-.76.28s.13.31.31.45a1.73,1.73,0,0,0,1.49.21,21.28,21.28,0,0,0,3.06-.82.28.28,0,0,0,.14-.16c0-.18-.35-.49-.47-.58A1.65,1.65,0,0,0,86,42.52" transform="translate(-10 -40.48)"/><path class="cls-2" d="M80.36,44.43a.77.77,0,0,0-.28.47,4.35,4.35,0,0,1-.91,1.69,16.34,16.34,0,0,1-2.67,2.59c-.56.42-.79.62-.62.73a2.57,2.57,0,0,0,1.4-.32,7.11,7.11,0,0,0,2.06-1.54c0,.28,0,.55,0,.82a8.31,8.31,0,0,1-.19,2.56l-.12.35A1.68,1.68,0,0,0,79,52a1.49,1.49,0,0,0,.16.59,3.82,3.82,0,0,0,.46.68c.13.15.29.29.46.24s.36-.77.38-1.5,0-2,0-2.69a3.44,3.44,0,0,1,0-.51c0-.2.06-.4.06-.53a1.49,1.49,0,0,0-.48-1c.16-.16.38-.39.66-.71a3.81,3.81,0,0,1,.64-.6.8.8,0,0,0,.23-.29.21.21,0,0,0,0-.19,2.33,2.33,0,0,0-.9-1.05.37.37,0,0,0-.37,0" transform="translate(-10 -40.48)"/><path class="cls-2" d="M86.79,45.51c-.38.13-2.56.64-5.2,1.08-.31,0-.6.06-.66.21s.08.34.21.43a2.09,2.09,0,0,0,1,.36h0a3,3,0,0,0,.67-.13h0a11.29,11.29,0,0,1,1.9-.39,13.56,13.56,0,0,1,.29,2.8v.37A7.14,7.14,0,0,1,84.9,52c-.08,0-.23,0-.51-.09-.68-.16-1.39-.55-1.32-.25a7.92,7.92,0,0,0,.8,1,4.88,4.88,0,0,1,.63.9c.2.37.29.7.61.59a2.17,2.17,0,0,0,1-.79,1.72,1.72,0,0,0,.34-.84,15.67,15.67,0,0,0-.2-1.75c0-.7,0-1.26,0-1.53v-.7a2.72,2.72,0,0,1,.1-.67.82.82,0,0,0,.09-.33.76.76,0,0,0,0-.21,1,1,0,0,0-.36-.47,17,17,0,0,1,2-.12l1.09,0c.2,0,.75,0,.88-.21s0-.7-.51-1a2,2,0,0,0-1.54-.24c-.13,0-.81.18-1.11.28" transform="translate(-10 -40.48)"/><path class="cls-2" d="M63.64,41a.5.5,0,0,0-.26,0c-.13.08-.08.49-.1.81a4.34,4.34,0,0,1-.2,1.07,14,14,0,0,1-2.65,4.8c-.23.28-.62.63-.31.62A3.07,3.07,0,0,0,60.9,48a6.32,6.32,0,0,0,1.47-1.22,10,10,0,0,0,1.26-1.91c.33.09.74,0,2.24-.4.2-.06.48-.11.55-.26a.6.6,0,0,0-.23-.49.88.88,0,0,0-.65-.3,5.28,5.28,0,0,0-1.3.36l-.08,0c0-.1.1-.2.15-.32a4.8,4.8,0,0,1,.61-1.14c.13-.17.23-.23.23-.36a1,1,0,0,0-.47-.59,2.57,2.57,0,0,0-1-.45" transform="translate(-10 -40.48)"/><path class="cls-2" d="M69.34,44.93a.65.65,0,0,0,.15-.1q-.09.54-.21,1.17a2.57,2.57,0,0,0-.55,0,6.09,6.09,0,0,0-.8.23v-.94c.49-.16,1.32-.34,1.41-.39m.32-1.9s0,.08,0,.14a6.25,6.25,0,0,1,0,.7c0,.13,0,.28-.05.43h0l0,0a.84.84,0,0,0-.61-.28s-.71.25-1,.37h0v-.85a6.79,6.79,0,0,1,1.75-.5m0-1.36c-.1,0-.15.13-.3.23l-.06.05h0a11,11,0,0,1-1.78.76,1.53,1.53,0,0,0-1.12-.1c-.21.13,0,.55.11.73a4.28,4.28,0,0,1,.3,1.47l.06,5.57c-.06.83-.07.95-.37,1.3s-.31.34-.25.68.32,1,.59,1.06.52-.22.76-.49.64-.66,1.13-1.21c.8-.89,1.14-1.23,1.1-1.37s-.37-.09-2,.57h0c0-.55,0-2.27,0-3L69,49.05c.56.6,1.18,1.25,1.85,1.93s1.37.76,3.12,0c.38-.16.76-.39.69-.54s-.35-.15-.79-.24a9.39,9.39,0,0,1-3.66-1.56,12.2,12.2,0,0,0,1-.9c.13-.13.28-.26.46-.42s.35-.13.36-.31-.28-.53-.5-.68h0a1,1,0,0,0-.93-.2c-.15.1-.1.1-.1.16l0,.34a4.05,4.05,0,0,1-.87,1.58c-.23-.17-.66-.54-1-.81-.14-.12-.26-.23-.38-.32l.35-.09.65-.16a2.36,2.36,0,0,0,.25.15c.15.07.34-.1.44-.22a2.44,2.44,0,0,0,.4-.74h0c.12-.44.25-1,.39-1.75.06-.31.1-.49.12-.56a3.56,3.56,0,0,1,.34-.63c.12-.24.26-.4.26-.55l-.07-.11a2.69,2.69,0,0,0-1.62-.77Z" transform="translate(-10 -40.48)"/><path class="cls-2" d="M65,45.44l-.72.22c-.88.28-1.22.43-1.67.53-.08,0-.25,0-.31.12a.42.42,0,0,0,0,.38.64.64,0,0,0,.45.32,1.58,1.58,0,0,0,.46,0,2.68,2.68,0,0,1,.09.46,3.89,3.89,0,0,1,0,.68c-.52.14-1.11.28-1.8.43-.23.06-.53.06-.56.23s.07.27.31.5a1,1,0,0,0,.66.31,6.36,6.36,0,0,0,.78-.2l.6-.18c0,.29,0,.56,0,.8,0,0,0,.19,0,.25a1.3,1.3,0,0,1-.45.93c-.19.13-.3.19-.35.28s0,0,0,.18a3.2,3.2,0,0,0,.33,1.06.56.56,0,0,0,.16.19c.23.1.46-.1.74-.4s.37-.37.52-.5l1.18-1.08c.46-.44.7-.67.81-.79s.3-.28.28-.38-.36,0-2,.72c0-.48,0-1.38,0-1.62l.21-.07L66,48.33c.13,0,.34,0,.36-.21a1,1,0,0,0-.37-.56.72.72,0,0,0-.71-.16l-.22.08-.35.15-.31.11a.32.32,0,0,1,0-.18c0-.13.07-.27.1-.36a.36.36,0,0,0-.18-.41,12.1,12.1,0,0,0,1.2-.4c.14-.08.42-.14.47-.3s-.07-.27-.25-.45a.79.79,0,0,0-.86-.2" transform="translate(-10 -40.48)"/></svg>