<svg xmlns="http://www.w3.org/2000/svg" viewBox="0 0 80 19.04"><defs><style>.cls-1{fill:#d71f27;}.cls-2{fill:#134b96;}</style></defs><title>CNCB_China Citic Bank</title><g id="Layer_2" data-name="Layer 2"><g id="CNCB_China_Citic_Bank" data-name="CNCB_China Citic Bank"><path class="cls-1" d="M5.18,3.37V18A9.61,9.61,0,0,0,7,18.7V6.28A3.23,3.23,0,0,0,5.18,3.37"/><path class="cls-1" d="M13.86,3.37V18a9.61,9.61,0,0,1-1.83.7V6.28a3.23,3.23,0,0,1,1.83-2.91"/><path class="cls-1" d="M13.88,1.32a.42.42,0,0,0-.23-.38,9.54,9.54,0,0,0-8.26,0h0a.42.42,0,0,0,.06.78h0a4.18,4.18,0,0,1,2.93,4V19A8.51,8.51,0,0,0,9.52,19,8.51,8.51,0,0,0,10.66,19V5.71a4.18,4.18,0,0,1,2.93-4h0a.41.41,0,0,0,.29-.4"/><path class="cls-1" d="M3,8.9a.61.61,0,0,0,.72-.24V2a9.53,9.53,0,0,0,0,15.12V10.39A.6.6,0,0,0,3,10.14a1.45,1.45,0,0,0-.91,1v0a.16.16,0,0,1-.26.07,2.64,2.64,0,0,1,0-3.4.21.21,0,0,1,.11,0,.16.16,0,0,1,.15.11h0l0-.07A1.45,1.45,0,0,0,3,8.9"/><path class="cls-1" d="M18.16,10.14a1.45,1.45,0,0,0-.91,1h0a.14.14,0,0,1-.15.11.12.12,0,0,1-.12-.07,2.59,2.59,0,0,1,0-3.34.14.14,0,0,1,.12-.07.16.16,0,0,1,.15.11h0a1.42,1.42,0,0,0,.91,1,.6.6,0,0,0,.78-.36.27.27,0,0,0,0-.12A9.51,9.51,0,0,0,15.31,2V17.08A9.51,9.51,0,0,0,19,10.63a.35.35,0,0,0,0-.13.61.61,0,0,0-.78-.36"/><path class="cls-2" d="M28.8,18.12l.18.13a1.44,1.44,0,0,1-1.35.79,1.63,1.63,0,0,1-.59-.1,1.36,1.36,0,0,1-.49-.29,1.65,1.65,0,0,1-.43-.56,1.75,1.75,0,0,1-.14-.7,1.72,1.72,0,0,1,.1-.6,1.59,1.59,0,0,1,.28-.53,1.68,1.68,0,0,1,.56-.47,1.58,1.58,0,0,1,.68-.16,1.62,1.62,0,0,1,.56.1l.3.09a.17.17,0,0,0,.11,0,.27.27,0,0,0,.09-.12h.16l0,1h-.17a1.21,1.21,0,0,0-.37-.6,1,1,0,0,0-.62-.21,1,1,0,0,0-.83.4,1.71,1.71,0,0,0-.32,1.08,1.55,1.55,0,0,0,.33,1,1.14,1.14,0,0,0,1.44.23,1.58,1.58,0,0,0,.49-.48"/><path class="cls-2" d="M32,17.13v-.89a.34.34,0,0,0-.1-.28.53.53,0,0,0-.33-.08v-.16h1.33v.16a.44.44,0,0,0-.31.09.34.34,0,0,0-.09.27v2.2a.35.35,0,0,0,.09.27.57.57,0,0,0,.31.09V19H31.61V18.8a.58.58,0,0,0,.34-.09.34.34,0,0,0,.09-.27V17.39H30.4v1.05a.34.34,0,0,0,.1.27.57.57,0,0,0,.33.09V19H29.5V18.8a.54.54,0,0,0,.31-.09.35.35,0,0,0,.09-.27v-2.2a.34.34,0,0,0-.09-.27.43.43,0,0,0-.31-.09v-.16h1.33v.16a.57.57,0,0,0-.33.08.38.38,0,0,0-.1.28v.89H32"/><path class="cls-2" d="M34.41,18.44a.34.34,0,0,0,.09.27.65.65,0,0,0,.33.09V19H33.47v-.17a.58.58,0,0,0,.34-.08.35.35,0,0,0,.09-.27v-2.2a.38.38,0,0,0-.09-.28.58.58,0,0,0-.34-.08v-.16h1.36v.16a.57.57,0,0,0-.33.08.38.38,0,0,0-.09.28v2.2"/><path class="cls-2" d="M36.05,18.42a.42.42,0,0,0,.1.29.41.41,0,0,0,.3.09h0V19H35.36V18.8h0a.4.4,0,0,0,.29-.09.42.42,0,0,0,.1-.29V16.06a.76.76,0,0,0-.17-.13.85.85,0,0,0-.24,0v-.16h.87l1.93,2.38V16.27a.41.41,0,0,0-.1-.3.5.5,0,0,0-.33-.09v-.16h1.12v.16a.41.41,0,0,0-.31.1.4.4,0,0,0-.09.29V19h-.18l-2.22-2.73v2.14"/><path class="cls-2" d="M40.23,19V18.8a.78.78,0,0,1-.3-.1.17.17,0,0,1-.08-.16.38.38,0,0,1,0-.1.61.61,0,0,1,0-.12l.17-.42h1.36l.19.42a.65.65,0,0,1,0,.13.49.49,0,0,1,0,.12.18.18,0,0,1-.09.16.64.64,0,0,1-.29.07V19h1.44V18.8a.5.5,0,0,1-.31-.11.72.72,0,0,1-.21-.3L41,15.72h-.19L39.55,18.4a.76.76,0,0,1-.19.29.52.52,0,0,1-.25.11V19h1.12m.55-2.59.53,1.26H40.2Z"/><path class="cls-2" d="M48.44,18.12l.18.13a1.6,1.6,0,0,1-.56.59,1.54,1.54,0,0,1-.79.2,1.63,1.63,0,0,1-.59-.1,1.4,1.4,0,0,1-.5-.29,1.5,1.5,0,0,1-.42-.56,1.75,1.75,0,0,1-.14-.7,2,2,0,0,1,.09-.6,1.83,1.83,0,0,1,.29-.53,1.75,1.75,0,0,1,.55-.47,1.66,1.66,0,0,1,.69-.16,1.56,1.56,0,0,1,.55.1l.3.09a.19.19,0,0,0,.12,0,.62.62,0,0,0,.09-.12h.15l0,1h-.17a1.28,1.28,0,0,0-.37-.6,1,1,0,0,0-.62-.21,1,1,0,0,0-.84.4,1.71,1.71,0,0,0-.31,1.08,1.5,1.5,0,0,0,.33,1,1.05,1.05,0,0,0,.86.39A1.08,1.08,0,0,0,48,18.6a1.7,1.7,0,0,0,.49-.48"/><path class="cls-2" d="M50.05,18.44a.34.34,0,0,0,.09.27.66.66,0,0,0,.34.09V19H49.11v-.17a.57.57,0,0,0,.33-.08.35.35,0,0,0,.09-.27v-2.2a.38.38,0,0,0-.09-.28.57.57,0,0,0-.33-.08v-.16h1.37v.16a.53.53,0,0,0-.33.08.34.34,0,0,0-.1.28v2.2"/><path class="cls-2" d="M53.79,15.72l.05.8h-.17a.71.71,0,0,0-.22-.45A.8.8,0,0,0,53,16h-.34v2.49a.34.34,0,0,0,.1.27.52.52,0,0,0,.33.09V19H51.69V18.8a.57.57,0,0,0,.33-.09.31.31,0,0,0,.1-.27V16h-.34a.84.84,0,0,0-.5.12.76.76,0,0,0-.21.45H50.9l.05-.8h2.84"/><path class="cls-2" d="M55.2,18.44a.34.34,0,0,0,.09.27.66.66,0,0,0,.34.09V19H54.26v-.17a.55.55,0,0,0,.33-.08.35.35,0,0,0,.1-.27v-2.2a.38.38,0,0,0-.1-.28.57.57,0,0,0-.33-.08v-.16h1.37v.16a.53.53,0,0,0-.33.08.34.34,0,0,0-.1.28v2.2"/><path class="cls-2" d="M59,18.12l.18.13a1.5,1.5,0,0,1-.55.59,1.57,1.57,0,0,1-.79.2,1.63,1.63,0,0,1-.59-.1,1.4,1.4,0,0,1-.5-.29,1.5,1.5,0,0,1-.42-.56,1.6,1.6,0,0,1-.15-.7,2,2,0,0,1,.1-.6,1.73,1.73,0,0,1,.84-1,1.66,1.66,0,0,1,.69-.16,1.56,1.56,0,0,1,.55.1l.3.09a.15.15,0,0,0,.11,0,.4.4,0,0,0,.1-.12h.15l0,1h-.17a1.22,1.22,0,0,0-.38-.6.93.93,0,0,0-.62-.21,1,1,0,0,0-.83.4,1.71,1.71,0,0,0-.32,1.08,1.55,1.55,0,0,0,.33,1,1.08,1.08,0,0,0,.87.39,1,1,0,0,0,.57-.16,1.48,1.48,0,0,0,.49-.48"/><path class="cls-2" d="M63.55,19a1.36,1.36,0,0,0,.85-.25.77.77,0,0,0,.33-.64.7.7,0,0,0-.23-.55,1.22,1.22,0,0,0-.68-.27,1.27,1.27,0,0,0,.57-.29.64.64,0,0,0,.19-.47.65.65,0,0,0-.29-.57,1.43,1.43,0,0,0-.84-.2H61.89v.16a.47.47,0,0,1,.32.09.34.34,0,0,1,.09.27v2.2a.35.35,0,0,1-.09.27.58.58,0,0,1-.32.09V19h1.66m-.75-3h.5a.87.87,0,0,1,.56.15.49.49,0,0,1,.19.43.57.57,0,0,1-.2.46,1,1,0,0,1-.61.15H62.8Zm.59,1.44a.89.89,0,0,1,.59.18.63.63,0,0,1,.21.5.55.55,0,0,1-.24.48,1.22,1.22,0,0,1-.7.17.69.69,0,0,1-.37-.06c-.06-.05-.08-.14-.08-.29v-1Z"/><path class="cls-2" d="M66.14,19V18.8a.78.78,0,0,1-.3-.1.17.17,0,0,1-.08-.16.44.44,0,0,1,0-.1.56.56,0,0,1,0-.12L66,17.9h1.35l.19.42a.65.65,0,0,1,0,.13.5.5,0,0,1,0,.12.18.18,0,0,1-.09.16.66.66,0,0,1-.3.07V19h1.43V18.8a.5.5,0,0,1-.3-.11.83.83,0,0,1-.22-.3l-1.2-2.67h-.2L65.46,18.4a.76.76,0,0,1-.19.29.48.48,0,0,1-.25.11V19h1.12m.55-2.59.54,1.26H66.11Z"/><path class="cls-2" d="M69.64,18.42a.42.42,0,0,0,.09.29.41.41,0,0,0,.3.09h0V19H68.94V18.8h0a.4.4,0,0,0,.29-.09.42.42,0,0,0,.1-.29V16.06a.76.76,0,0,0-.17-.13.78.78,0,0,0-.24,0v-.16h.87l1.93,2.38V16.27a.38.38,0,0,0-.1-.3.5.5,0,0,0-.33-.09v-.16h1.12v.16a.41.41,0,0,0-.31.1.4.4,0,0,0-.09.29V19h-.18l-2.21-2.73v2.14"/><path class="cls-2" d="M73.84,17.44,75,16.36a.78.78,0,0,0,.16-.17.21.21,0,0,0,0-.11.15.15,0,0,0-.08-.14.82.82,0,0,0-.31-.06v-.16h1.38v.16a.87.87,0,0,0-.31.1,1.31,1.31,0,0,0-.3.2l-.88.79.88,1.35a1.41,1.41,0,0,0,.32.37.59.59,0,0,0,.32.11V19H74.84V18.8a.57.57,0,0,0,.25,0q.09,0,.09-.09a.43.43,0,0,0,0-.11,1.31,1.31,0,0,0-.12-.19l-.68-1-.52.47v.64a.35.35,0,0,0,.09.27.57.57,0,0,0,.31.09V19H72.94V18.8a.54.54,0,0,0,.31-.09.35.35,0,0,0,.09-.27v-2.2a.34.34,0,0,0-.09-.27.44.44,0,0,0-.31-.09v-.16h1.31v.16a.44.44,0,0,0-.31.09.34.34,0,0,0-.09.27v1.2"/><path class="cls-2" d="M30.63,4.15a.45.45,0,0,1,0,.17,3.79,3.79,0,0,1-.09.7,2.49,2.49,0,0,1-.42,1.1,13.74,13.74,0,0,1-2.27.37c0-.41,0-1.92,0-2.25a11.75,11.75,0,0,1,2.72-.09m-4,.26c0,.42,0,1.89,0,2.22l-2.22.21c0-.37-.16-1.78-.19-2.13l2.43-.3m0-4.41c-.55,0-.54.11-.54.21s.11.25.2.55a5.84,5.84,0,0,1,.28,1.57c0,.47,0,.86,0,1.18l-2.72.26c-1-.37-1.64-.31-1.71,0s0,.27.14.5A9,9,0,0,1,23.12,7h0a2.63,2.63,0,0,0,.48,1.37c.13.1.22.2.43.09s.29-.23.42-.69l2.11-.18a34.55,34.55,0,0,0,.23,5.81c.05.33.16.62.33.5s.36-.5.52-1.75c.05-.59.13-1.23.18-2.17l0-1.38c0-.4,0-.78,0-1.13,1.26-.08,2.35-.12,2.79-.12s1.09.12,1.22,0,.07-.35,0-.56a5,5,0,0,0-.3-.54,9.48,9.48,0,0,1,1.2-1.65l.16-.14c.23-.22.27-.28.29-.37s-.1-.23-.1-.23a4.73,4.73,0,0,0-1.8-1.16l-.09,0a1.38,1.38,0,0,0-.35.14h0A23.88,23.88,0,0,1,28,3.31a6.79,6.79,0,0,1,.24-2s0-.08.09-.15A.62.62,0,0,0,28.37,1,.4.4,0,0,0,28.3.8,2.19,2.19,0,0,0,26.66,0"/><path class="cls-2" d="M42.32,1c-.27.08-.13.24-.13.24a5.57,5.57,0,0,0,2,1.67h.15c.19,0,.5-.22.49-.83h0a1.23,1.23,0,0,0-.48-.89,1.86,1.86,0,0,0-1-.31h0a3.36,3.36,0,0,0-1,.13"/><path class="cls-2" d="M38.38,1.07c0,.06,0,.17,0,.41a1.58,1.58,0,0,1,0,.33,11.12,11.12,0,0,1-1,2.39,20.17,20.17,0,0,1-2,2.91,8.64,8.64,0,0,1-.64.68c-.12.12-.3.25-.22.33s.6,0,1.35-.5a9.22,9.22,0,0,0,2-1.95c0,.38.07.81.09,1.3,0,.26,0,.51,0,.75V8c0,.3,0,.58-.05.82a13.38,13.38,0,0,1-.39,2.46l0,.18h0A2.08,2.08,0,0,0,38.29,13c.16,0,.36-.3.36-.3A2.44,2.44,0,0,0,39,11.47v0C39,7,39.08,6,39.1,5.92h0v0l0-.23v0a1.58,1.58,0,0,0-.52-1l0,0c.31-.41.51-.74.65-1s.43-.62.65-.92.23-.31.26-.42a.53.53,0,0,0,0-.13A1.83,1.83,0,0,0,38.64.91s-.26-.07-.26.16"/><path class="cls-2" d="M45.62,3.2A54.18,54.18,0,0,1,40,4a1.31,1.31,0,0,0-.57.1c-.09.08-.23.19,0,.39a3.34,3.34,0,0,0,1.06.65h.09A3.66,3.66,0,0,0,41.37,5c.26-.07.79-.14.79-.14A15.91,15.91,0,0,1,47,4.38s.52,0,.72,0,.52,0,.66-.21-.08-.48-.24-.64A2.1,2.1,0,0,0,46.51,3a6.69,6.69,0,0,0-.89.18"/><path class="cls-2" d="M44.93,5.29h0a8.86,8.86,0,0,0-1.54.26,13.34,13.34,0,0,1-1.71.31c-.17,0-.49.06-.58.18s0,.26.2.43a1.49,1.49,0,0,0,1.05.3s1.11-.12,2.55-.32l.51-.07c.31-.06.62,0,.75-.16s0-.38-.24-.56a1.32,1.32,0,0,0-1-.37"/><path class="cls-2" d="M44.58,7.15a10.57,10.57,0,0,0-1.64.34,10.66,10.66,0,0,1-1,.23c-.42.06-.71,0-.74.23a.86.86,0,0,0,.05.15,1.16,1.16,0,0,0,.24.26l.05,0a1.37,1.37,0,0,0,.89.2h0a22.69,22.69,0,0,0,2.86-.4l.21,0c.23,0,.42,0,.42-.23s-.18-.38-.31-.52l0,0a1.11,1.11,0,0,0-1-.22"/><path class="cls-2" d="M42.8,10.42a7.65,7.65,0,0,1,2.1-.24,6.63,6.63,0,0,1-.29,1.37c-.42.07-1.1.17-2,.29l-.18-1.35.41-.07m1.83-1.35A11.51,11.51,0,0,1,42,9.58l-.32,0c-.54-.08-.79-.06-.87,0h0c-.17.18,0,.31,0,.4l.1.23a21,21,0,0,1,.58,2.15,1.57,1.57,0,0,0,.44.91l.13.06c.1,0,.19,0,.27-.11a2.7,2.7,0,0,0,.23-.48l2.39-.21c1-.06,1.17-.11,1.22-.31a1.34,1.34,0,0,0-.27-.66,6.84,6.84,0,0,1,.57-.81c.18-.22.46-.4.49-.62s-.56-.81-1.68-1.23h-.07a1.54,1.54,0,0,0-.56.19"/><path class="cls-2" d="M70.68.66a.36.36,0,0,0-.34.06.94.94,0,0,0-.11.58c0,.16,0,.29-.37.81A15.67,15.67,0,0,1,68,4.22c-.3.27-.77.69-.69.81s.56.08,1.11-.18a10.45,10.45,0,0,0,2.22-1.71q.4-.37.9-.78c.34-.29.43-.43.44-.5a.43.43,0,0,0,0-.2,2.22,2.22,0,0,0-1.27-1"/><path class="cls-2" d="M76,2a7.24,7.24,0,0,0-.72.26h0a11.49,11.49,0,0,1-1.81.55c-.4.09-.75.13-.77.29s.14.31.32.44a1.73,1.73,0,0,0,1.49.21A21.39,21.39,0,0,0,77.58,3a.28.28,0,0,0,.13-.16c0-.18-.35-.49-.47-.58A1.62,1.62,0,0,0,76,2"/><path class="cls-2" d="M70.36,4a.77.77,0,0,0-.28.48,4.35,4.35,0,0,1-.91,1.69,16.4,16.4,0,0,1-2.68,2.59c-.56.42-.79.62-.62.73a2.66,2.66,0,0,0,1.41-.33,7.11,7.11,0,0,0,2.06-1.54,7.63,7.63,0,0,1,0,.82A8.26,8.26,0,0,1,69.19,11l-.12.35c0,.08,0,.16-.06.24a1.47,1.47,0,0,0,.17.59,3.93,3.93,0,0,0,.46.69c.13.14.29.29.46.24s.36-.77.38-1.5,0-2,0-2.69c0-.14,0-.31,0-.51s.06-.41.06-.53a1.53,1.53,0,0,0-.48-1l.66-.71a5,5,0,0,1,.64-.61.89.89,0,0,0,.23-.28.21.21,0,0,0,0-.19A2.32,2.32,0,0,0,70.73,4a.37.37,0,0,0-.37,0"/><path class="cls-2" d="M76.79,5c-.38.13-2.56.64-5.2,1.08-.31.06-.6.06-.67.21s.08.34.21.43a2.09,2.09,0,0,0,1,.36h0A3.53,3.53,0,0,0,72.79,7h0a9.63,9.63,0,0,1,1.9-.4A13,13,0,0,1,75,9.38c0,.13,0,.25,0,.37a6.14,6.14,0,0,1-.14,1.78,3.35,3.35,0,0,1-.51-.09c-.68-.16-1.39-.55-1.32-.24a12.18,12.18,0,0,0,.8,1,4.81,4.81,0,0,1,.63.89c.2.37.3.7.61.59a2.25,2.25,0,0,0,1-.79,1.69,1.69,0,0,0,.34-.83,15.67,15.67,0,0,0-.2-1.75c0-.71,0-1.26,0-1.53v-.7a2.87,2.87,0,0,1,.1-.68.76.76,0,0,0,.08-.32.78.78,0,0,0,0-.22A.94.94,0,0,0,76,6.37a17.12,17.12,0,0,1,2-.12l1.09,0c.19,0,.75,0,.88-.21s-.05-.7-.51-1a2,2,0,0,0-1.54-.24c-.11,0-.79.17-1.09.27"/><path class="cls-2" d="M53.64.52a.5.5,0,0,0-.26,0c-.12.08-.07.49-.1.81a3.58,3.58,0,0,1-.2,1.07,13.78,13.78,0,0,1-2.65,4.8c-.23.27-.62.62-.3.61a2.42,2.42,0,0,0,.77-.29,6.07,6.07,0,0,0,1.47-1.22,10,10,0,0,0,1.26-1.91c.33.09.74,0,2.24-.4.2-.06.48-.11.56-.27a.6.6,0,0,0-.23-.49.92.92,0,0,0-.66-.3,5.56,5.56,0,0,0-1.29.36l-.09,0c.05-.1.1-.2.15-.32a4.54,4.54,0,0,1,.61-1.14c.13-.17.23-.23.23-.37a1,1,0,0,0-.47-.59,2.89,2.89,0,0,0-1-.42"/><path class="cls-2" d="M59.34,4.45l.15-.1c-.05.36-.12.75-.21,1.18a1.64,1.64,0,0,0-.54,0,5.68,5.68,0,0,0-.8.23V4.85c.48-.17,1.31-.35,1.4-.4m.32-1.9a.53.53,0,0,1,0,.14,6.12,6.12,0,0,1-.05.69c0,.14,0,.28,0,.43h0l0,0a.9.9,0,0,0-.61-.28s-.71.25-1,.37h0V3.05a7.33,7.33,0,0,1,1.75-.5m0-1.36c-.1,0-.14.14-.29.24l-.06.05h0a11,11,0,0,1-1.78.76,1.51,1.51,0,0,0-1.13-.1c-.2.13,0,.55.11.73a4.19,4.19,0,0,1,.3,1.46l.07,5.58c-.07.83-.07.95-.37,1.29s-.31.34-.25.68.32,1,.59,1.06.52-.22.76-.49.64-.66,1.14-1.21c.8-.89,1.14-1.23,1.1-1.37s-.37-.09-2,.57h0c0-.55,0-2.27,0-3L59,8.57c.56.61,1.18,1.26,1.85,1.94s1.38.76,3.13,0c.38-.17.76-.39.69-.54s-.35-.15-.79-.23A9.69,9.69,0,0,1,60.25,8.2q.66-.54,1-.9c.13-.13.28-.26.46-.42s.34-.13.35-.31-.28-.54-.5-.69h0c-.4-.25-.78-.31-.93-.2s-.1.1-.1.16l0,.34a4.05,4.05,0,0,1-.87,1.58c-.22-.17-.66-.54-1-.81l-.38-.33.35-.08.65-.16a1.28,1.28,0,0,0,.25.14c.14.08.34-.09.43-.22a2.65,2.65,0,0,0,.41-.74h0c.12-.44.25-1,.39-1.74.06-.31.1-.5.12-.56a3.56,3.56,0,0,1,.34-.63c.12-.24.26-.4.26-.55L61.44,2a2.69,2.69,0,0,0-1.63-.77Z"/><path class="cls-2" d="M55,5l-.72.22c-.88.28-1.22.43-1.67.53-.08,0-.25,0-.31.12a.39.39,0,0,0,0,.38.61.61,0,0,0,.45.31,2,2,0,0,0,.46,0,2.6,2.6,0,0,1,.08.45,4,4,0,0,1,0,.68c-.51.14-1.11.29-1.79.43-.24.06-.54.07-.57.23s.07.28.31.5a.92.92,0,0,0,.66.31,5.92,5.92,0,0,0,.78-.2l.61-.18c0,.29,0,.56,0,.81,0,0,0,.19,0,.25a1.34,1.34,0,0,1-.44.93,1.16,1.16,0,0,0-.35.28s0,0,0,.19a3.41,3.41,0,0,0,.33,1.05.69.69,0,0,0,.16.2c.23.09.46-.1.74-.4a5.82,5.82,0,0,1,.52-.5l1.17-1.08c.47-.44.7-.68.81-.79s.3-.28.28-.39-.36,0-2,.72c0-.48,0-1.37,0-1.61l.21-.07L56,7.86c.13,0,.34,0,.37-.21A1,1,0,0,0,56,7.09a.72.72,0,0,0-.71-.16L55.1,7a3.05,3.05,0,0,1-.35.15l-.3.11a.35.35,0,0,1,0-.18c0-.13.07-.28.1-.37a.36.36,0,0,0-.18-.41,9.24,9.24,0,0,0,1.2-.4c.14-.07.42-.14.47-.3s-.07-.27-.24-.44A.8.8,0,0,0,55,5"/></g></g></svg>