<svg xmlns="http://www.w3.org/2000/svg" viewBox="0 0 80.03 39.15"><defs><style>.cls-1{fill:#2e286d;stroke:#2e286d;}.cls-1,.cls-10,.cls-11,.cls-12,.cls-13,.cls-14,.cls-15,.cls-16,.cls-17,.cls-18,.cls-19,.cls-2,.cls-20,.cls-21,.cls-22,.cls-23,.cls-24,.cls-25,.cls-26,.cls-27,.cls-28,.cls-29,.cls-3,.cls-30,.cls-31,.cls-4,.cls-5,.cls-6,.cls-7,.cls-8,.cls-9{stroke-miterlimit:10;stroke-width:0.02px;}.cls-2{fill:#f3d211;stroke:#f3d211;}.cls-3{fill:#f3d310;stroke:#f3d310;}.cls-4{fill:#2e286c;stroke:#2e286c;}.cls-5{fill:#2a276b;stroke:#2a276b;}.cls-6{fill:#2a276a;stroke:#2a276a;}.cls-7{fill:#fffffd;stroke:#fffffd;}.cls-8{fill:#fdfdfc;stroke:#fdfdfc;}.cls-9{fill:#fdfefb;stroke:#fdfefb;}.cls-10{fill:#fdfefd;stroke:#fdfefd;}.cls-11{fill:#fdfefc;stroke:#fdfefc;}.cls-12{fill:#2d286e;stroke:#2d286e;}.cls-13{fill:#2c276b;stroke:#2c276b;}.cls-14{fill:#fcfcf9;stroke:#fcfcf9;}.cls-15{fill:#fbf9fc;stroke:#fbf9fc;}.cls-16{fill:#f8f6fa;stroke:#f8f6fa;}.cls-17{fill:#faf8f6;stroke:#faf8f6;}.cls-18{fill:#fffbfd;stroke:#fffbfd;}.cls-19{fill:#faf9f9;stroke:#faf9f9;}.cls-20{fill:#fefaf0;stroke:#fefaf0;}.cls-21{fill:#fdf9f7;stroke:#fdf9f7;}.cls-22{fill:#fbf8fa;stroke:#fbf8fa;}.cls-23{fill:#faf8fa;stroke:#faf8fa;}.cls-24{fill:#fbfbf3;stroke:#fbfbf3;}.cls-25{fill:#fefcf4;stroke:#fefcf4;}.cls-26{fill:#f8faf3;stroke:#f8faf3;}.cls-27{fill:#2d2455;stroke:#2d2455;}.cls-28{fill:#2b2973;stroke:#2b2973;}.cls-29{fill:#433877;stroke:#433877;}.cls-30{fill:#322b70;stroke:#322b70;}.cls-31{fill:#2c2972;stroke:#2c2972;}</style></defs><title>cobro_express</title><g id="Layer_2" data-name="Layer 2"><g id="cobro_express"><path class="cls-1" d="M0,0C3.65.69,7.24,1.54,10.84,2.29Q45.43,9.73,80,17.16a.77.77,0,0,1-.42.29Q51.06,28.07,22.53,38.68a4.3,4.3,0,0,1-1.45.46c-.89-2.56-1.92-5-3-7.52A153.2,153.2,0,0,0,1.32,1.9,12.25,12.25,0,0,1,0,0Z"/><path class="cls-2" d="M8.49,8.08a4.39,4.39,0,0,1,3.73-2.65,10.67,10.67,0,0,1,2.7.17c-.06.44.13,1-.2,1.36a5.65,5.65,0,0,0-3.61.27c-1.36.78-1.85,3.11-.42,4a3.3,3.3,0,0,0,3.51-.55,5.11,5.11,0,0,1-.27,1.69A4.08,4.08,0,0,1,9.11,12a3.91,3.91,0,0,1-.62-3.88Z"/><path class="cls-3" d="M20,5.58c.79,0,1.58-.09,2.37,0a20.45,20.45,0,0,1-.25,2.59c.7-.25,1.6-.6,2.24,0a2.53,2.53,0,0,1,.75,2.57,2.46,2.46,0,0,1-1.69,2,7.15,7.15,0,0,1-3.44.15c.19-2.26.65-4.48.94-6.74.13-.56-.6-.35-.94-.39l0-.11Z"/><path class="cls-2" d="M16.87,7.84A2.9,2.9,0,0,1,19,8.15c1.44.89,1.27,3.2,0,4.16-1.05.93-3,.95-3.78-.37a2.86,2.86,0,0,1,1.69-4.1Z"/><path class="cls-3" d="M27.32,8.47c.32-.26.59-.7,1.07-.67a2.18,2.18,0,0,1,.86.21,5,5,0,0,1-.58,1.54c-.32-.09-.61-.35-1-.26a1.17,1.17,0,0,0-.72.94c-.12.86-.27,1.75-.35,2.61-.45,0-.93,0-1.39,0a12.16,12.16,0,0,1,.27-2.39,9.21,9.21,0,0,0,.17-2.56,8.56,8.56,0,0,1,1.6,0c0,.13,0,.41,0,.54Z"/><path class="cls-3" d="M31.2,7.84a2.45,2.45,0,0,1,2,.39,2.58,2.58,0,0,1,.26,3.71,2.8,2.8,0,0,1-3.64.59,2.63,2.63,0,0,1-.7-2.93A2.72,2.72,0,0,1,31.2,7.84Z"/><path class="cls-4" d="M17.05,9.11a.89.89,0,0,1,1.29.4,1.64,1.64,0,0,1-1,2.26c-1.38,0-1.27-2.13-.3-2.66Z"/><path class="cls-5" d="M21.85,9.7a1.29,1.29,0,0,1,1.5-.61,1.87,1.87,0,0,1,0,2.08,2.32,2.32,0,0,1-1.8.64,7.86,7.86,0,0,1,.31-2.11Z"/><path class="cls-6" d="M31.2,9.11a1.09,1.09,0,0,1,1.09.05,1.78,1.78,0,0,1-.5,2.56c-.4.09-.94.07-1.14-.37a1.85,1.85,0,0,1,.55-2.24Z"/><path class="cls-7" d="M18.26,14c2.5.1,5,0,7.5,0-.13.53-.14,1.1-.29,1.62-1.25.22-2.59-.06-3.86.13-.06.7-.2,1.38-.26,2.07,1.1.06,2.21,0,3.33,0-.06.53-.13,1.05-.19,1.58-1.14.06-2.29,0-3.43,0,0,.81-.28,1.6-.28,2.42,1.6,0,3.2,0,4.82,0,0,.52-.13,1-.22,1.55H18.47c.35-2.43.71-4.85,1.08-7.28a9.18,9.18,0,0,0,.22-1.87A3.93,3.93,0,0,1,18.26,14Z"/><path class="cls-7" d="M31.92,16.06C33,16,34.12,16,35.23,16a7,7,0,0,1-.06,1.12,4.62,4.62,0,0,1,2.28.11A2.54,2.54,0,0,1,39,19.69a3.74,3.74,0,0,1-2.29,3.57,6.42,6.42,0,0,1-2.58.33c-.09,1-.27,2-.46,3h-1.8c.11-1,.39-2.06.41-3.12-.55,0-1.11,0-1.68,0-.38-.79-.73-1.58-1.17-2.34A5.17,5.17,0,0,0,28,23.5H25.82a9.88,9.88,0,0,1,1.69-3c.27-.36.68-.6.9-1-.41-.75-1-1.4-1.42-2.11a10.51,10.51,0,0,0-1.69-.15v-.09a22.51,22.51,0,0,1,3.18,0c.42.51.81,1,1.22,1.58a12.82,12.82,0,0,1,3.52-1,5.18,5.18,0,0,0,.11-1.51,11,11,0,0,0-1.41-.07v-.11Z"/><path class="cls-8" d="M44.07,19a3.47,3.47,0,0,1,4.81-1.63A3.22,3.22,0,0,1,50,20.56a32.69,32.69,0,0,0-4.32.09A1.39,1.39,0,0,0,46.47,22c1.05.42,2.12-.11,3.07-.46a6.7,6.7,0,0,1-.27,1.6A4.48,4.48,0,0,1,44.88,23a3.5,3.5,0,0,1-.81-4Z"/><path class="cls-9" d="M51.44,17.4a3.13,3.13,0,0,1,2.77-.17c.24.09.57.15.68.44s0,.87-.09,1.31c-.66-.11-1.29-.59-2-.46-.33.07-.25.51-.05.68a10,10,0,0,1,1.71,1.6,1.94,1.94,0,0,1-1.18,2.66,4.06,4.06,0,0,1-3.12-.38,3,3,0,0,1,.09-1.4c.74.05,1.42.53,2.17.42a.37.37,0,0,0,.24-.6c-.57-.65-1.42-1.05-1.86-1.82a1.73,1.73,0,0,1,.63-2.28Z"/><path class="cls-10" d="M56.31,17.32c1-.64,2.29-.24,3.32.17a3.07,3.07,0,0,1-.2,1.51,3.08,3.08,0,0,0-2.06-.44.74.74,0,0,0,.26.75,6.13,6.13,0,0,1,1.67,1.62,2,2,0,0,1-.55,2.13,3.24,3.24,0,0,1-3,.35c-.29-.13-.66-.19-.85-.44A6.08,6.08,0,0,1,55,21.68c.73.07,1.41.57,2.17.4.31,0,.36-.47.16-.66a8.28,8.28,0,0,1-1.85-1.84,1.77,1.77,0,0,1,.79-2.26Z"/><path class="cls-11" d="M39.71,17.12c.68,0,1.36,0,2,0,0,.28-.07.57-.11.86.48-.4.9-1.06,1.62-1,.33,0,.84.09,1,.46-.22.62-.53,1.21-.81,1.82a2.3,2.3,0,0,0-.9-.48,1.5,1.5,0,0,0-1.1.9c-.28,1.25-.37,2.52-.59,3.77-.6,0-1.19,0-1.8,0,.06-1.05.26-2.06.41-3.09a10.31,10.31,0,0,0,.27-3.31Z"/><path class="cls-4" d="M35,18.41c.66-.15,1.51-.19,1.87.49a2.4,2.4,0,0,1-.64,2.76,2.24,2.24,0,0,1-1.78.26c.18-1.18.27-2.37.55-3.51Z"/><path class="cls-12" d="M46,19.46a1.26,1.26,0,0,1,1.64-1.09c.51.07.46.68.51,1.09Z"/><path class="cls-13" d="M30.61,20.1A7.8,7.8,0,0,1,33,18.92c-.1,1.51-.43,3-.61,4.45-.33-.17-.4-.55-.55-.86-.35-.83-.85-1.58-1.2-2.41Z"/><path class="cls-14" d="M17.93,27.28h.48c0,.59-.16,1.18-.15,1.77s.72.5,1,.26a5.59,5.59,0,0,0,.44-2l.57-.07a6.38,6.38,0,0,1-.44,2.24,1.31,1.31,0,0,1-2.06-.11,5.28,5.28,0,0,1,.18-2.12Z"/><path class="cls-15" d="M29.88,27.45c.27-.24.57.28.27.44s-.53-.26-.27-.44Z"/><path class="cls-16" d="M32.43,27.43a4.55,4.55,0,0,1,.52,0,.52.52,0,0,1-.5.48c0-.13,0-.39,0-.52Z"/><path class="cls-17" d="M20.54,28.19c.46.07.9-.08,1.34,0,.46.48.1,1.21,0,1.78h-.45c.05-.48.11-.95.14-1.41-.79-.08-.6.91-.79,1.41a3.54,3.54,0,0,1-.46,0c.06-.57.15-1.16.22-1.72Z"/><path class="cls-18" d="M23.41,28.39c.26-.37,1.25-.44,1.1.18-.24,0-.48,0-.71,0,.22.28.69.44.66.87,0,.64-1.31.77-1.23,0a4.69,4.69,0,0,0,.75,0c-.22-.33-.75-.6-.57-1.06Z"/><path class="cls-19" d="M24.75,28.57a1.06,1.06,0,0,1,1.34-.35,1.11,1.11,0,0,1,.28.83c-.39,0-.77,0-1.16,0-.11.62.63.36,1,.36,0,.55-.66.48-1,.44s-.59-.86-.41-1.32Z"/><path class="cls-17" d="M26.74,28.19c.55,0,1.08,0,1.63-.06.09.26.09.61.33.79.2-.33.3-.9.81-.79A3.31,3.31,0,0,1,29,29.32c-.15.24-.24.65-.61.56A4.68,4.68,0,0,1,28,28.53c-.25.1-.58.06-.79.26a5.68,5.68,0,0,0-.2,1.14h-.44a10,10,0,0,1,.17-1.74Z"/><path class="cls-20" d="M29.7,28.17a4.43,4.43,0,0,0,.51,0c-.06.6-.15,1.19-.26,1.78h-.44a17.21,17.21,0,0,1,.19-1.76Z"/><path class="cls-21" d="M30.74,28.31a1.65,1.65,0,0,1,1.16-.16c.2.59-.51.37-.83.49a.94.94,0,0,0-.13.78c.3,0,.61,0,.92,0,0,.59-.62.48-1,.42a1,1,0,0,1-.09-1.58Z"/><path class="cls-17" d="M32.3,28.19l.5,0c0,.57-.13,1.12-.22,1.67l-.42.07c0-.57.09-1.14.14-1.7Z"/><path class="cls-22" d="M33.55,28.19a.84.84,0,0,1,1.22.84,1,1,0,0,1-1.64.64,1,1,0,0,1,.42-1.48Z"/><path class="cls-23" d="M36,28.44c.16-.48.77-.25,1.16-.25.07.45-.41.4-.7.36.2.3.58.5.58.88-.05.54-.8.63-1.17.35s.38-.31.61-.35c-.15-.33-.67-.58-.48-1Z"/><path class="cls-15" d="M37.4,28.57c.16-.48.79-.51,1.21-.37s.35.52.4.83c-.42,0-.84.06-1.27.07.12.56.68.37,1.11.35,0,.11-.09.32-.13.43-.37,0-.81.16-1.14-.1a1,1,0,0,1-.18-1.21Z"/><path class="cls-24" d="M39.4,28.35c.42-.35,1-.15,1.52-.2a4.06,4.06,0,0,1-.36,1c-.15.29-.54.24-.81.33.26.31,1,.17,1,.7-.05.81-1.12.61-1.65.5-.17-.41.15-.78.22-1.16s-.24-.87.13-1.16Z"/><path class="cls-25" d="M41.26,28.19l.38-.08c0,.48,0,.94-.07,1.4,1,.2.25-1.51,1.17-1.4a5,5,0,0,1-.25,1.8c-.46-.16-1.22.3-1.44-.31a3.39,3.39,0,0,1,.21-1.41Z"/><path class="cls-26" d="M43.17,28.24c.35-.18.79,0,1.17-.07a3.15,3.15,0,0,1-.09.42l-.61.15c-.14.42,0,1.32-.71,1.12.09-.54.13-1.09.24-1.62Z"/><path class="cls-16" d="M45,28.19c.49-.24,1.3.07,1.23.71a1,1,0,0,1-1.47.9A1,1,0,0,1,45,28.19Z"/><path class="cls-27" d="M25.47,28.55c.57-.29.05.61,0,0Z"/><path class="cls-28" d="M33.76,28.55c.6-.2.64.85.13,1s-.5-.77-.13-1Z"/><path class="cls-29" d="M38,28.55c.22-.14.37-.11.41.13-.24.17-.37.13-.41-.13Z"/><path class="cls-30" d="M39.8,28.57c.3-.22.55.26.3.44s-.55-.27-.3-.44Z"/><path class="cls-31" d="M45,29.42c-.07-.41,0-.87.5-.94.45.37.12,1.29-.5.94Z"/><path class="cls-6" d="M39.64,30.06c.18-.09.55,0,.44.28s-.94-.06-.44-.28Z"/></g></g></svg>