<svg xmlns="http://www.w3.org/2000/svg" viewBox="0 0 80 23.9"><defs><style>.cls-1{fill:#f15722;}.cls-2{fill:#f6871f;}.cls-3{fill:#db3726;}</style></defs><title>Coop</title><g id="Layer_2" data-name="Layer 2"><g id="Coop"><g id="layer1"><g id="g2001"><path id="_46823448" data-name=" 46823448" class="cls-1" d="M30.24,14.58a5.09,5.09,0,1,1,5.08-5.09,5.09,5.09,0,0,1-5.08,5.09m8.6-12A15.52,15.52,0,0,0,30.24.24c-5.61,0-12.17,2.41-12.17,9.19a12.6,12.6,0,0,0,.28,2.44,7.67,7.67,0,0,1-5.61,2.66c-3.21,0-5.49-2-5.49-5.2a5,5,0,0,1,5.2-5.08,5.77,5.77,0,0,1,3.2.92L18,1.42A14.92,14.92,0,0,0,11.48,0C5.71,0,0,3.11,0,9.37s5.14,9.46,11.3,9.46a12.09,12.09,0,0,0,8.8-3.91c2.3,2.49,6.18,3.68,10.14,3.68a15.63,15.63,0,0,0,8.6-2.32V2.58Z"/><path id="_47521032" data-name=" 47521032" class="cls-2" d="M68.09,14.88H68a5.23,5.23,0,0,1-5.17-5.43A5.22,5.22,0,0,1,68,4.15h.06a5.11,5.11,0,0,1,5.12,5.26,5.32,5.32,0,0,1-5.12,5.47m-20.61-.39a5.09,5.09,0,1,1,5.08-5.08,5.07,5.07,0,0,1-5.08,5.08M69.39.61c-.47,0-.91,0-1.36.08a11,11,0,0,0-5,1.89V.92H57.38v2.7C55,1.22,50.79.24,47.49.24h0A15.44,15.44,0,0,0,38.84,2.6V16.25a15.51,15.51,0,0,0,8.64,2.35h0a15.34,15.34,0,0,0,9.77-3.23V23.9H63V16.32a9.09,9.09,0,0,0,5,2.18,12.25,12.25,0,0,0,1.52.1C74.08,18.6,80,15.88,80,9.47,80,3.52,75.22.61,69.39.61Z"/><path id="_92386648" data-name=" 92386648" class="cls-3" d="M38.86,16.26a7.91,7.91,0,0,1-3.54-6.83,8,8,0,0,1,3.54-6.85A8,8,0,0,1,42.4,9.43a7.89,7.89,0,0,1-3.54,6.83Z"/></g></g></g></g></svg>