<svg xmlns="http://www.w3.org/2000/svg" viewBox="0 0 80 56.18"><defs><style>.cls-1{fill:#00704f;}.cls-2{fill:#ec2227;}.cls-3{fill:#039b9d;}</style></defs><title>Credit-Agricole</title><g id="Layer_2" data-name="Layer 2"><g id="Credit-Agricole"><g id="_Group_" data-name="&lt;Group&gt;"><path id="_Path_" data-name="&lt;Path&gt;" class="cls-1" d="M52.6,26.18l-5-12.75L41.19,27.5c-2.18,4.43-9.32,5.71-14.31,6.42L27.79,32,42.24,4.32H53.5l8.07,16.81,3.54,8,7.29,16h-5l-3.91,0c-1.65,0-3.26-.1-4-1.87l-1.39-3.41L55.8,34l-3.2-7.83"/><rect id="_Path_2" data-name="&lt;Path&gt;" class="cls-1" y="49.69" width="74.39" height="6.5"/><path id="_Path_3" data-name="&lt;Path&gt;" class="cls-2" d="M76.88,1.61,66.3,7.26a29.57,29.57,0,0,1-6,2.5L62,13.57A2.55,2.55,0,0,0,65.66,15L79.87,7.23V0l-3,1.61"/><path id="_Path_4" data-name="&lt;Path&gt;" class="cls-3" d="M61.67,21.13l-9,5C41.47,32.39,26.84,38.43,14.18,37.35c-5.35-.45-8.57-2.5-8.27-6,.36-3.95,3.73-8.11,9.64-12.27A46.66,46.66,0,0,1,26.1,13.44a24.86,24.86,0,0,1,7.35-1.52,6.15,6.15,0,0,1,1.76.18c0-.08,0-.23,0-.23h0c-1.14-7.31-3-8.37-6-8.27-8.38.27-18.91,6.16-24.49,13A19.76,19.76,0,0,0,.09,27.75C0,32.54,1.86,39.06,7.62,42.39c6.39,3.7,15.54,3.46,23.86,1.54,8.94-2,16.74-6,24.41-9.92l9.32-4.91,14.73-8.59L80,11.17Z"/></g></g></g></svg>