<svg xmlns="http://www.w3.org/2000/svg" viewBox="0 0 80 17.8"><defs><style>.cls-1{fill:#163861;}.cls-2{fill:none;}</style></defs><title>Credit-Suisse</title><g id="Layer_2" data-name="Layer 2"><g id="Credit-Suisse"><g id="_Group_" data-name="&lt;Group&gt;"><path id="_Path_" data-name="&lt;Path&gt;" class="cls-1" d="M35.42,10.9H30.14v1.2l.17,0v0a.84.84,0,0,1,.75-.52h1.17v6.15h1.15V11.55h1.2a.7.7,0,0,1,.71.42v0h.17V10.9Z"/><path id="_Path_2" data-name="&lt;Path&gt;" class="cls-1" d="M1.2,10.49l0,0,0,0a4.35,4.35,0,0,0-1.2,3,4.16,4.16,0,0,0,1.4,3.15A4.83,4.83,0,0,0,4.63,17.8,6.18,6.18,0,0,0,7.75,17l0,0,.14-1.73-.22,0,0,.07a2.87,2.87,0,0,1-2.83,1.87c-2.37,0-3.45-2-3.45-3.8A3.33,3.33,0,0,1,4.86,9.76a2.87,2.87,0,0,1,2.76,1.85l0,.08.22-.06L7.74,9.82l-.06,0a7.06,7.06,0,0,0-2.91-.7A4.81,4.81,0,0,0,1.2,10.49Z"/><path class="cls-1" d="M9.08,10.9h0v.16h0a.84.84,0,0,1,.2.61v6H10.4V14.6h.49c.44,0,.62.32.84.69l0,0,.14.24c.24.4.57,1,.92,1.47a1.37,1.37,0,0,0,.94.65,3,3,0,0,0,1,0l.24-.06.1,0-.34-.11a1.35,1.35,0,0,1-.65-.48,15.51,15.51,0,0,1-.92-1.38l-.44-.71h0a2,2,0,0,0-.65-.63,1.74,1.74,0,0,0,1.26-1.65,1.52,1.52,0,0,0-.48-1.11,2.78,2.78,0,0,0-2-.61Zm1.93.61a1.13,1.13,0,0,1,1.19,1.14A1.26,1.26,0,0,1,10.85,14H10.4V11.52A5.28,5.28,0,0,1,11,11.51Z"/><path class="cls-1" d="M20.64,10.9h0l0,.17h0a.66.66,0,0,1,.19.5v6.12h1.93a4.12,4.12,0,0,0,3.06-1.15,3.3,3.3,0,0,0,.27-4.32A3.69,3.69,0,0,0,23,10.9Zm1.34.65h.6a5.91,5.91,0,0,1,.86.06,2.41,2.41,0,0,1,2.11,2.58,3.19,3.19,0,0,1-.58,2,2.57,2.57,0,0,1-2.16.91c-.23,0-.52,0-.83,0Z"/><path id="_Path_3" data-name="&lt;Path&gt;" class="cls-1" d="M29.11,10.9H27.78v.16h0c.12.06.2.28.2.56v6.06h1.13V10.9Z"/><path id="_Path_4" data-name="&lt;Path&gt;" class="cls-1" d="M51.93,10.9H50.59l0,.15h0c.12.06.2.29.2.57v6.06H52V10.9Z"/><path id="_Path_5" data-name="&lt;Path&gt;" class="cls-1" d="M19.17,10.9H15.38l0,.16h0a.75.75,0,0,1,.21.61v6h3.79l.28-1.2-.15-.06-.05.07c-.31.49-.63.56-1.73.56a9,9,0,0,1-1,0V14.24h1.92v-.61H16.75V11.51l1.55,0a.9.9,0,0,1,.77.54v0h.15l0-1.19Z"/><path id="_Path_6" data-name="&lt;Path&gt;" class="cls-1" d="M67.72,10.9H63.93v.17h0a.7.7,0,0,1,.21.59v6H68l.28-1.2-.18-.06,0,.07c-.31.49-.63.56-1.71.56a9.08,9.08,0,0,1-1,0V14.24h1.92v-.61H65.29V11.51l1.56,0a.74.74,0,0,1,.75.54v0h.18l0-1.19Z"/><path id="_Path_7" data-name="&lt;Path&gt;" class="cls-1" d="M38.72,9.63a2.05,2.05,0,0,0-.89,1.7v0c0,1.09.7,1.66,1.82,2.23h0l.43.22c.94.47,1.61.81,1.61,1.77a1.65,1.65,0,0,1-.47,1.14,1.56,1.56,0,0,1-1.15.42A2.22,2.22,0,0,1,38,15.33l0-.09-.24,0,.07,1.77,0,0a4.51,4.51,0,0,0,2.31.72A3,3,0,0,0,42.23,17,2.37,2.37,0,0,0,43,15.24c0-1.44-1-2-2.13-2.56l-.2-.1C39.51,12,39,11.67,39,11A1.24,1.24,0,0,1,40.3,9.74a1.91,1.91,0,0,1,1.84,1.36l0,.09.24,0-.08-1.54,0,0a3.3,3.3,0,0,0-1.79-.5A3,3,0,0,0,38.72,9.63Z"/><path id="_Path_8" data-name="&lt;Path&gt;" class="cls-1" d="M53.76,12.62h0c0,.94.55,1.41,1.47,1.88l.34.17c.72.37,1.2.61,1.2,1.28a1.19,1.19,0,0,1-.34.84,1.21,1.21,0,0,1-.9.32,1.66,1.66,0,0,1-1.61-1.35l0-.09-.23,0,.05,1.43.06,0a3.53,3.53,0,0,0,1.82.57,2.34,2.34,0,0,0,1.67-.67,1.88,1.88,0,0,0,.58-1.37c0-1.19-.82-1.62-1.69-2.07L56,13.53c-.93-.47-1.26-.68-1.25-1.2a.93.93,0,0,1,1-.91,1.4,1.4,0,0,1,1.39,1l0,.09.23,0-.06-1.24-.05,0a2.68,2.68,0,0,0-1.42-.39A1.92,1.92,0,0,0,53.76,12.62Z"/><path id="_Path_9" data-name="&lt;Path&gt;" class="cls-1" d="M58.84,12.62c0,.94.56,1.41,1.47,1.88l.35.17c.72.37,1.2.61,1.2,1.28a1.24,1.24,0,0,1-.34.84,1.21,1.21,0,0,1-.9.32A1.67,1.67,0,0,1,59,15.76l0-.09-.23,0,0,1.43.05,0a3.54,3.54,0,0,0,1.83.57,2.36,2.36,0,0,0,1.67-.67,1.88,1.88,0,0,0,.58-1.37c0-1.19-.83-1.62-1.7-2.07l-.15-.09c-.94-.47-1.26-.68-1.26-1.2a1,1,0,0,1,.27-.64,1.06,1.06,0,0,1,.75-.27,1.4,1.4,0,0,1,1.39,1l0,.09.23,0-.07-1.24,0,0A2.69,2.69,0,0,0,61,10.84,1.93,1.93,0,0,0,58.84,12.62Z"/><path id="_Path_10" data-name="&lt;Path&gt;" class="cls-1" d="M49.11,10.89h-.89v.15h0s.19.13.19.56v3.86a1.44,1.44,0,0,1-1.58,1.64c-1.23,0-1.49-.74-1.49-1.85V10.9H44v.15h0a.65.65,0,0,1,.24.59v3.62c0,2.25,1.48,2.51,2.59,2.51a2.14,2.14,0,0,0,2.31-2.29v-4.6Z"/><path id="_Path_11" data-name="&lt;Path&gt;" class="cls-1" d="M77.47,9A14.16,14.16,0,0,1,80,10.07,35,35,0,0,0,70.09,0a11.37,11.37,0,0,1,3,5.43A46.2,46.2,0,0,1,77.47,9Z"/><path id="_Path_12" data-name="&lt;Path&gt;" class="cls-1" d="M77.46,9a11.33,11.33,0,0,0-4.65-.51,5.2,5.2,0,0,0,.28-3A49.72,49.72,0,0,0,63.93.25c2.25,1.52,4.74,5.93,5.78,10.65a16.32,16.32,0,0,1,10.05.37A31.25,31.25,0,0,0,77.46,9Z"/><path id="_Path_13" data-name="&lt;Path&gt;" class="cls-2" d="M73.09,5.44a5.2,5.2,0,0,1-.28,3A11.39,11.39,0,0,1,77.47,9,44.61,44.61,0,0,0,73.09,5.44Z"/></g></g></g></svg>