<svg xmlns="http://www.w3.org/2000/svg" viewBox="0 0 80 38.91"><defs><style>.cls-1{fill:#6b6e66;}.cls-2{fill:#fff;}.cls-3{fill:#ec2227;}.cls-4{fill:#f58220;}.cls-5{fill:#ffcc04;}.cls-6{fill:#06a64f;}.cls-7{fill:#2bace2;}.cls-8{fill:#9e77b5;}.cls-9{fill:#a64786;}</style></defs><title>Credicoop</title><g id="Layer_2" data-name="Layer 2"><g id="Credicoop"><g id="_Group_" data-name="&lt;Group&gt;"><rect id="_Path_" data-name="&lt;Path&gt;" class="cls-1" width="80" height="30.68"/><path id="_Compound_Path_" data-name="&lt;Compound Path&gt;" class="cls-2" d="M11.41,12.45v2.18H10.35v-.12A1.53,1.53,0,0,0,10,13.35,1.78,1.78,0,0,0,8.72,13a2.29,2.29,0,0,0-1.91.85,3.81,3.81,0,0,0-.67,2.42,3.84,3.84,0,0,0,.69,2.43,2.3,2.3,0,0,0,1.91.89A1.66,1.66,0,0,0,10,19.17a1.92,1.92,0,0,0,.38-1.33h1v2.32a11.31,11.31,0,0,1-1.46.33,9.09,9.09,0,0,1-1.47.11,4.2,4.2,0,0,1-3.16-1.12,4.46,4.46,0,0,1-1.1-3.24,4.19,4.19,0,0,1,1.15-3.15A4.4,4.4,0,0,1,8.6,12a7.78,7.78,0,0,1,1.31.12,13.58,13.58,0,0,1,1.5.37Zm3.95.69v2.74H16a2.14,2.14,0,0,0,1.31-.31,1.24,1.24,0,0,0,.4-1,1.37,1.37,0,0,0-.38-1.08A2,2,0,0,0,16,13.14Zm-2.83-1H16a5.15,5.15,0,0,1,2.65.52,1.88,1.88,0,0,1,.81,1.7A2,2,0,0,1,19,15.61a1.82,1.82,0,0,1-1.08.66,1.24,1.24,0,0,1,.73.33,2.32,2.32,0,0,1,.45,1c0,.13.08.31.13.53a3.58,3.58,0,0,0,.43,1.2.93.93,0,0,0,.36.26,1.28,1.28,0,0,0,.5.09h.06v.71H18.15a8,8,0,0,1-.51-1.66,10.42,10.42,0,0,0-.29-1.23,1,1,0,0,0-.46-.58,1.82,1.82,0,0,0-.89-.18h-.64v1.88a1.31,1.31,0,0,0,.19.83.85.85,0,0,0,.67.23h.17v.71l-.73,0H13.27l-.74,0V19.7h.15a.86.86,0,0,0,.68-.23,1.31,1.31,0,0,0,.19-.83V13.91a1.28,1.28,0,0,0-.19-.82.86.86,0,0,0-.68-.23h-.15v-.71Zm8.5,0h6.7v2.28H27v-.37a.85.85,0,0,0-.31-.74,2.28,2.28,0,0,0-1.14-.2H23.86v2.57h.47a1.38,1.38,0,0,0,.92-.21,1.27,1.27,0,0,0,.21-.87h.73v3h-.72a1.35,1.35,0,0,0-.23-.85,1.23,1.23,0,0,0-.85-.21h-.53v2.86h1.51a2.05,2.05,0,0,0,1.37-.3,2.09,2.09,0,0,0,.3-1.31h.76v2.58H21V19.7h.16a.88.88,0,0,0,.67-.22,1.33,1.33,0,0,0,.19-.84V13.92a1.31,1.31,0,0,0-.19-.83.85.85,0,0,0-.67-.23H21v-.68Zm10.59.94v6.32h.86a3,3,0,0,0,2.33-.8,3.66,3.66,0,0,0,.73-2.53,3,3,0,0,0-.78-2.27,3.56,3.56,0,0,0-2.47-.72Zm-2.83-1h3.69a5.92,5.92,0,0,1,3.77,1,3.71,3.71,0,0,1,1.22,3.05,4.09,4.09,0,0,1-1.14,3.17,5,5,0,0,1-3.45,1.05H28.79V19.7H29a.85.85,0,0,0,.67-.23,1.31,1.31,0,0,0,.19-.83V13.91a1.28,1.28,0,0,0-.19-.82.85.85,0,0,0-.67-.23h-.16v-.71Zm9.83,0,1.2,0h1.47l1.2,0v.71h-.18a.85.85,0,0,0-.67.23,1.28,1.28,0,0,0-.19.82v4.73a1.38,1.38,0,0,0,.19.83.86.86,0,0,0,.67.23h.18v.71l-.74,0H39.36l-.74,0V19.7h.16a.85.85,0,0,0,.67-.23,1.31,1.31,0,0,0,.19-.83V13.91a1.28,1.28,0,0,0-.19-.82.85.85,0,0,0-.67-.23h-.16v-.71Zm12.1.3v2.18h-1v-.12a1.53,1.53,0,0,0-.39-1.16A1.78,1.78,0,0,0,48,13a2.28,2.28,0,0,0-1.91.85,3.81,3.81,0,0,0-.68,2.42,3.78,3.78,0,0,0,.7,2.43,2.29,2.29,0,0,0,1.9.89,1.65,1.65,0,0,0,1.25-.41,1.87,1.87,0,0,0,.39-1.33h1v2.32a11.09,11.09,0,0,1-1.47.33,8.93,8.93,0,0,1-1.47.11,4.22,4.22,0,0,1-3.16-1.12,4.46,4.46,0,0,1-1.09-3.24,4.19,4.19,0,0,1,1.15-3.15A4.38,4.38,0,0,1,47.92,12a7.57,7.57,0,0,1,1.3.12A12.56,12.56,0,0,1,50.72,12.45Zm5.43.52a1.86,1.86,0,0,0-1.65.85,4.33,4.33,0,0,0-.57,2.44,4.24,4.24,0,0,0,.58,2.43,1.84,1.84,0,0,0,1.64.85,1.87,1.87,0,0,0,1.64-.84,4.33,4.33,0,0,0,.57-2.44,4.37,4.37,0,0,0-.57-2.45A1.87,1.87,0,0,0,56.15,13Zm0-1a4,4,0,0,1,3.06,1.13,4.41,4.41,0,0,1,1.09,3.18,4.45,4.45,0,0,1-1.09,3.19,4.69,4.69,0,0,1-6.13,0A4.41,4.41,0,0,1,52,16.27a4.37,4.37,0,0,1,1.09-3.18A4,4,0,0,1,56.15,12Zm9.51,1a1.85,1.85,0,0,0-1.64.85,4.33,4.33,0,0,0-.57,2.44A4.32,4.32,0,0,0,64,18.69a2,2,0,0,0,3.29,0,4.33,4.33,0,0,0,.57-2.44,4.37,4.37,0,0,0-.57-2.45A1.87,1.87,0,0,0,65.66,13Zm0-1a4.06,4.06,0,0,1,3.07,1.13,4.41,4.41,0,0,1,1.09,3.18,4.45,4.45,0,0,1-1.09,3.19,4.69,4.69,0,0,1-6.13,0,4.41,4.41,0,0,1-1.09-3.19,4.37,4.37,0,0,1,1.09-3.18A4,4,0,0,1,65.66,12Zm8,1.15v2.95h.71a1.59,1.59,0,0,0,1.17-.39,1.61,1.61,0,0,0,.39-1.16,1.3,1.3,0,0,0-.42-1,1.7,1.7,0,0,0-1.16-.36Zm-2.85-1h3.44a4.71,4.71,0,0,1,2.65.57,2.1,2.1,0,0,1,.8,1.84A2.22,2.22,0,0,1,77,16.38a3.5,3.5,0,0,1-2.23.58h-1.1v1.68a1.31,1.31,0,0,0,.19.83.85.85,0,0,0,.67.23h.16v.71l-.74,0H71.55l-.74,0V19.7H71a.86.86,0,0,0,.67-.23,1.31,1.31,0,0,0,.19-.83V13.91a1.28,1.28,0,0,0-.19-.82.85.85,0,0,0-.67-.23h-.18v-.71Z"/><path id="_Compound_Path_2" data-name="&lt;Compound Path&gt;" class="cls-2" d="M29.35,6.31V8h.57a1.19,1.19,0,0,0,.75-.21.75.75,0,0,0,.26-.6.84.84,0,0,0-.26-.66,1.19,1.19,0,0,0-.78-.22Zm0-2V5.79h.52a1,1,0,0,0,.67-.2A.74.74,0,0,0,30.76,5a.68.68,0,0,0-.22-.56,1.05,1.05,0,0,0-.67-.18Zm-1.67-.6h2.37A2.34,2.34,0,0,1,31.37,4a1.09,1.09,0,0,1,.44.95,1.1,1.1,0,0,1-.22.69,1.27,1.27,0,0,1-.67.4,1.29,1.29,0,0,1,.8.39,1.17,1.17,0,0,1,.27.81,1.22,1.22,0,0,1-.45,1,2.32,2.32,0,0,1-1.39.34H27.68V8.17h.1a.51.51,0,0,0,.4-.14.81.81,0,0,0,.11-.5V4.71a.84.84,0,0,0-.11-.49.51.51,0,0,0-.4-.13h-.1V3.66Zm7.39.6-.74,2.06h1.39Zm-.61-.6h1.32L37.2,7.39a2.15,2.15,0,0,0,.33.62.6.6,0,0,0,.35.16v.42H35.59V8.17a1,1,0,0,0,.48-.1.3.3,0,0,0,.13-.27,1.15,1.15,0,0,0,0-.14l-.06-.22-.18-.53H34.13l-.21.63c0,.06,0,.11,0,.15a.74.74,0,0,0,0,.12.28.28,0,0,0,.11.26,1.14,1.14,0,0,0,.48.1v.42H32.3V8.17A.56.56,0,0,0,32.66,8,2.35,2.35,0,0,0,33,7.41l1.49-3.75Zm3.57,0h2l1.89,4,0-3a.76.76,0,0,0-.12-.5.49.49,0,0,0-.4-.13h-.1V3.66h0l1,0,1,0h0v.43h-.1a.51.51,0,0,0-.4.13.86.86,0,0,0-.11.5V8.59H41.38l-1.89-4,0,3a.77.77,0,0,0,.11.5.51.51,0,0,0,.4.14h.1v.42H38V8.17h.1A.53.53,0,0,0,38.54,8a.86.86,0,0,0,.11-.5V4.72a.82.82,0,0,0-.11-.49.5.5,0,0,0-.41-.14H38V3.66Zm10.17.18v1.3h-.63V5.07a.9.9,0,0,0-.24-.69,1,1,0,0,0-.74-.22,1.37,1.37,0,0,0-1.14.51,2.26,2.26,0,0,0-.4,1.44,2.35,2.35,0,0,0,.41,1.46,1.39,1.39,0,0,0,1.14.53,1,1,0,0,0,.75-.25,1.13,1.13,0,0,0,.23-.79h.62V8.44a5.84,5.84,0,0,1-.88.2,5.1,5.1,0,0,1-.87.07A2.56,2.56,0,0,1,44.56,8a2.64,2.64,0,0,1-.65-1.93,2.56,2.56,0,0,1,.68-1.89,2.64,2.64,0,0,1,1.93-.67,4.42,4.42,0,0,1,.78.07A7.32,7.32,0,0,1,48.2,3.84Zm3.23.31a1.11,1.11,0,0,0-1,.51,2.55,2.55,0,0,0-.34,1.45,2.58,2.58,0,0,0,.34,1.46,1.13,1.13,0,0,0,1,.5,1.12,1.12,0,0,0,1-.5,2.56,2.56,0,0,0,.34-1.46,2.53,2.53,0,0,0-.34-1.45,1.1,1.1,0,0,0-1-.51Zm0-.6a2.44,2.44,0,0,1,1.83.67,2.65,2.65,0,0,1,.65,1.9A2.68,2.68,0,0,1,53.26,8,2.8,2.8,0,0,1,49.6,8,2.68,2.68,0,0,1,49,6.12a2.65,2.65,0,0,1,.65-1.9A2.44,2.44,0,0,1,51.43,3.55Z"/><path id="_Compound_Path_3" data-name="&lt;Compound Path&gt;" class="cls-2" d="M22.12,25v.57h-.27v0a.38.38,0,0,0-.1-.3.49.49,0,0,0-.32-.1.62.62,0,0,0-.5.22,1,1,0,0,0-.17.63,1,1,0,0,0,.18.64.59.59,0,0,0,.49.22.41.41,0,0,0,.32-.1.49.49,0,0,0,.1-.35h.27V27a2.51,2.51,0,0,1-.76.12,1.11,1.11,0,0,1-.82-.29,1.17,1.17,0,0,1-.28-.84,1.09,1.09,0,0,1,.3-.82,1.13,1.13,0,0,1,.84-.29l.33,0Zm1.41.14a.48.48,0,0,0-.43.22A1.11,1.11,0,0,0,23,26a1.09,1.09,0,0,0,.14.63.48.48,0,0,0,.43.22.49.49,0,0,0,.43-.21A1.24,1.24,0,0,0,24.1,26a1.18,1.18,0,0,0-.14-.63A.48.48,0,0,0,23.53,25.1Zm0-.26a1,1,0,0,1,.79.29,1.15,1.15,0,0,1,.29.83,1.12,1.12,0,0,1-.29.82,1,1,0,0,1-.79.3,1.06,1.06,0,0,1-.8-.3,1.16,1.16,0,0,1-.28-.82,1.19,1.19,0,0,1,.28-.83A1.05,1.05,0,0,1,23.53,24.84ZM26,25.1a.48.48,0,0,0-.43.22,1.11,1.11,0,0,0-.14.63,1.18,1.18,0,0,0,.14.63.54.54,0,0,0,.86,0,1.24,1.24,0,0,0,.14-.64,1.09,1.09,0,0,0-.14-.63A.48.48,0,0,0,26,25.1Zm0-.26a1,1,0,0,1,.79.29,1.15,1.15,0,0,1,.29.83,1.12,1.12,0,0,1-.29.82,1.19,1.19,0,0,1-1.58,0,1.12,1.12,0,0,1-.29-.82,1.19,1.19,0,0,1,.28-.83,1.05,1.05,0,0,1,.8-.29Zm2.08.29v.77h.18a.35.35,0,0,0,.4-.4.33.33,0,0,0-.1-.27.5.5,0,0,0-.31-.1Zm-.74-.24h.89a1.32,1.32,0,0,1,.69.14.69.69,0,0,1,0,.95.87.87,0,0,1-.58.16h-.28v.43a.33.33,0,0,0,.05.22.21.21,0,0,0,.17.06h0V27h-1v-.18h0a.24.24,0,0,0,.18-.06.4.4,0,0,0,.05-.22V25.34a.36.36,0,0,0-.05-.21.24.24,0,0,0-.18-.06h0v-.18Zm2,0H31.1v.6h-.19v-.1a.23.23,0,0,0-.08-.19.56.56,0,0,0-.3-.05H30.1v.66h.12c.12,0,.2,0,.24,0a.32.32,0,0,0,.06-.23h.19v.78h-.19a.45.45,0,0,0-.06-.22.37.37,0,0,0-.22-.05H30.1v.74h.39a.55.55,0,0,0,.36-.08.57.57,0,0,0,.08-.34h.19V27H29.37v-.18h0a.21.21,0,0,0,.17-.06.37.37,0,0,0,.05-.22V25.35a.37.37,0,0,0-.05-.22.21.21,0,0,0-.17-.06h0v-.18Zm2.74.25v.72h.16a.5.5,0,0,0,.34-.09.3.3,0,0,0,.11-.26.38.38,0,0,0-.1-.28.5.5,0,0,0-.33-.08h-.18Zm-.73-.25h.89A1.33,1.33,0,0,1,33,25a.49.49,0,0,1,.21.44.59.59,0,0,1-.1.33.53.53,0,0,1-.28.17A.33.33,0,0,1,33,26a.77.77,0,0,1,.12.27s0,.08,0,.14a.89.89,0,0,0,.11.3.29.29,0,0,0,.22.1h0V27h-.64a1.84,1.84,0,0,1-.13-.43,2.73,2.73,0,0,0-.08-.32.23.23,0,0,0-.12-.15.46.46,0,0,0-.23-.05h-.17v.49a.4.4,0,0,0,0,.22.23.23,0,0,0,.18.06h0V27h-1v-.18h0a.21.21,0,0,0,.17-.06.33.33,0,0,0,.05-.22V25.34a.3.3,0,0,0-.05-.21.21.21,0,0,0-.17-.06h0v-.18Zm3.17.26-.32.89h.6Zm-.27-.26h.58l.62,1.62a.79.79,0,0,0,.14.27.26.26,0,0,0,.15.07V27h-1v-.18A.46.46,0,0,0,35,26.8a.11.11,0,0,0,.06-.11.2.2,0,0,0,0-.07.32.32,0,0,0,0-.09l-.07-.23h-.79l-.09.27a.25.25,0,0,0,0,.07.43.43,0,0,1,0,.05.12.12,0,0,0,0,.11.39.39,0,0,0,.21.05V27h-.94v-.18a.25.25,0,0,0,.16-.08,1,1,0,0,0,.14-.25l.64-1.63Zm1.37,0h1.91v.64h-.23v-.05a.38.38,0,0,0-.07-.27.4.4,0,0,0-.27-.07h-.15v1.43a.4.4,0,0,0,0,.22.21.21,0,0,0,.17.06h.08V27H36.07v-.18h.07a.23.23,0,0,0,.18-.06.37.37,0,0,0,0-.22V25.14h-.19a.37.37,0,0,0-.25.07.33.33,0,0,0-.07.23v.09h-.22v-.64Zm2.12,0h1v.18h-.05a.21.21,0,0,0-.17.06.3.3,0,0,0-.05.21v1.23a.4.4,0,0,0,.05.22.21.21,0,0,0,.17.06h.05V27h-1v-.18h0a.22.22,0,0,0,.18-.06.4.4,0,0,0,0-.22V25.34a.36.36,0,0,0,0-.21.22.22,0,0,0-.18-.06h0v-.18Zm1.14,0h.91v.18l-.21,0a.11.11,0,0,0,0,.09v0l0,.05.47,1.37.45-1.36V25.2a.1.1,0,0,0-.06-.1.44.44,0,0,0-.19,0v-.18h.88v.18a.21.21,0,0,0-.14.07.45.45,0,0,0-.09.16l-.63,1.77h-.51l-.65-1.76a.49.49,0,0,0-.09-.18.26.26,0,0,0-.13-.06v-.18Zm3.42.21a.47.47,0,0,0-.42.22,1.11,1.11,0,0,0-.15.63,1.08,1.08,0,0,0,.15.63.47.47,0,0,0,.42.22.49.49,0,0,0,.43-.21,1.14,1.14,0,0,0,.15-.64,1.08,1.08,0,0,0-.15-.63A.48.48,0,0,0,42.33,25.1Zm0-.26a1.05,1.05,0,0,1,.8.29,1.14,1.14,0,0,1,.28.83,1.12,1.12,0,0,1-.28.82,1.06,1.06,0,0,1-.8.3,1,1,0,0,1-.79-.3,1.12,1.12,0,0,1-.29-.82,1.15,1.15,0,0,1,.29-.83A1,1,0,0,1,42.33,24.84Zm2.36.05h1.05v.18h-.1a.21.21,0,0,0-.17.06.36.36,0,0,0,0,.21v1.43h.3c.18,0,.3,0,.35-.08a.49.49,0,0,0,.08-.33h.2V27H44.69v-.18h0a.21.21,0,0,0,.17-.06.37.37,0,0,0,.05-.22V25.34a.36.36,0,0,0-.05-.21.21.21,0,0,0-.17-.06h0v-.18Zm1.84,0h1v.18h0a.23.23,0,0,0-.18.06.36.36,0,0,0-.05.21v1.23a.4.4,0,0,0,.05.22.24.24,0,0,0,.18.06h0V27h-1v-.18h0a.21.21,0,0,0,.17-.06.33.33,0,0,0,0-.22V25.34a.3.3,0,0,0,0-.21.21.21,0,0,0-.17-.06h0v-.18Zm1.25,0h.95l.44,1.43,0,.14a.85.85,0,0,1,0,.17.77.77,0,0,1,0-.15,1.42,1.42,0,0,1,.05-.16l.44-1.43h.93v.18h0a.21.21,0,0,0-.17.06s-.05.1-.05.19v0l0,1.23a.37.37,0,0,0,0,.22.21.21,0,0,0,.17.06h.05V27h-.93v-.18h0a.23.23,0,0,0,.18-.06.4.4,0,0,0,0-.22V25.09L49.43,27H49l-.58-1.92v1.46a.33.33,0,0,0,0,.22.21.21,0,0,0,.17.06h0V27h-.91v-.18h0a.21.21,0,0,0,.17-.06.37.37,0,0,0,.05-.22l0-1.23h0a.27.27,0,0,0-.06-.2.21.21,0,0,0-.17-.06h0v-.18Zm3.17,0h1v.18h0a.23.23,0,0,0-.18.06.36.36,0,0,0,0,.21v1.23a.4.4,0,0,0,0,.22.23.23,0,0,0,.18.06h0V27H51v-.18h0a.21.21,0,0,0,.17-.06.33.33,0,0,0,.05-.22V25.34a.3.3,0,0,0-.05-.21.21.21,0,0,0-.17-.06h0v-.18Zm1.2,0h1.91v.64h-.23v-.05a.38.38,0,0,0-.07-.27.4.4,0,0,0-.27-.07h-.15v1.43a.4.4,0,0,0,0,.22.21.21,0,0,0,.17.06h.08V27H52.57v-.18h.07a.24.24,0,0,0,.18-.06.37.37,0,0,0,0-.22V25.14h-.19a.37.37,0,0,0-.25.07.29.29,0,0,0-.07.23v.09h-.23v-.64Zm3,.26-.32.89h.61Zm-.26-.26h.57l.62,1.62a1,1,0,0,0,.14.27.26.26,0,0,0,.16.07V27h-1v-.18a.46.46,0,0,0,.21-.05.11.11,0,0,0,.06-.11s0,0,0-.07l0-.09-.08-.23h-.78l-.09.27a.25.25,0,0,0,0,.07.11.11,0,0,0,0,.05.12.12,0,0,0,0,.11.39.39,0,0,0,.21.05V27H54v-.18a.27.27,0,0,0,.16-.08,1.1,1.1,0,0,0,.13-.25l.65-1.63Zm2.33.25v1.64h.22a.75.75,0,0,0,.6-.21.94.94,0,0,0,.2-.65.74.74,0,0,0-.21-.59.89.89,0,0,0-.64-.19Zm-.74-.25h1a1.55,1.55,0,0,1,1,.25,1,1,0,0,1,.32.8,1.06,1.06,0,0,1-.3.82,1.31,1.31,0,0,1-.9.27H56.48v-.18h0a.23.23,0,0,0,.18-.06.37.37,0,0,0,0-.22V25.34a.36.36,0,0,0,0-.21.23.23,0,0,0-.18-.06h0v-.18Zm3.66.21a.48.48,0,0,0-.43.22,1.11,1.11,0,0,0-.15.63,1.08,1.08,0,0,0,.15.63.48.48,0,0,0,.43.22.49.49,0,0,0,.42-.21,1.14,1.14,0,0,0,.15-.64,1.08,1.08,0,0,0-.15-.63A.46.46,0,0,0,60.14,25.1Zm0-.26a1,1,0,0,1,.79.29,1.14,1.14,0,0,1,.28.83,1.12,1.12,0,0,1-.28.82,1,1,0,0,1-.79.3,1.06,1.06,0,0,1-.8-.3,1.12,1.12,0,0,1-.28-.82,1.14,1.14,0,0,1,.28-.83A1,1,0,0,1,60.14,24.84Z"/><rect id="_Path_2" data-name="&lt;Path&gt;" class="cls-3" y="30.68" width="11.43" height="8.23"/><rect id="_Path_3" data-name="&lt;Path&gt;" class="cls-4" x="11.43" y="30.68" width="11.43" height="8.23"/><rect id="_Path_4" data-name="&lt;Path&gt;" class="cls-5" x="22.86" y="30.68" width="11.43" height="8.23"/><rect id="_Path_5" data-name="&lt;Path&gt;" class="cls-6" x="34.29" y="30.68" width="11.43" height="8.23"/><rect id="_Path_6" data-name="&lt;Path&gt;" class="cls-7" x="45.71" y="30.68" width="11.43" height="8.23"/><rect id="_Path_7" data-name="&lt;Path&gt;" class="cls-8" x="57.14" y="30.68" width="11.43" height="8.23"/><rect id="_Path_8" data-name="&lt;Path&gt;" class="cls-9" x="68.57" y="30.68" width="11.43" height="8.23"/></g></g></g></svg>