<svg xmlns="http://www.w3.org/2000/svg" viewBox="0 0 80 21.71"><defs><style>.cls-1{fill:#c2d52f;}.cls-2{fill:#84be41;}.cls-3{fill:#04ae53;}.cls-4{fill:#006342;}</style></defs><title>Crelan</title><g id="Layer_2" data-name="Layer 2"><g id="Crelan"><path class="cls-1" d="M12.85,0a3.89,3.89,0,0,1-1.6,1.56C10.56,2,9.07,2.89,9,4.14V8h.24a3.48,3.48,0,0,1,1.49-1.39c.46-.28,1.78-1,1.9-2.22L13.1,0ZM3.61,4.41c.13,1.22,1.51,1.94,2,2.22A3.53,3.53,0,0,1,7.15,8h.26V4.14c0-1.25-1.58-2.17-2.3-2.58A4,4,0,0,1,3.43,0L3.17,0Z"/><path class="cls-2" d="M7.23,14.87h.26V11c0-1.66-2.39-2.63-3.71-3.38C1.9,6.56.66,5.89.27,5L0,5S.35,7.89.5,9.49c.12,1.24,2,2.13,3.26,2.89C5.63,13.44,6.85,14,7.23,14.87m1.62,0h.26c.38-.91,1.61-1.43,3.47-2.49,1.31-.76,3.14-1.65,3.27-2.89C16,7.89,16.34,5,16.34,5l-.27,0c-.39.93-1.63,1.6-3.51,2.66C11.24,8.37,8.85,9.38,8.85,11Z"/><path class="cls-3" d="M8.85,21.71h.26c.38-.95,1.59-1.44,3.47-2.49,1.34-.78,3.17-1.67,3.3-2.9.15-1.61.46-4.5.46-4.5l-.24,0c-.38.91-1.65,1.6-3.52,2.62-1.34.75-3.73,1.74-3.73,3.41Zm-1.62,0h.26V17.83c0-1.67-2.39-2.66-3.73-3.41C1.89,13.4.62,12.71.24,11.8l-.24,0s.31,2.89.46,4.5c.13,1.23,2,2.12,3.3,2.9,1.87,1.05,3.09,1.54,3.47,2.49"/><path class="cls-4" d="M73.22,17.39H71.1V10.54c0-1.15,0-1.44-1-1.4V7.71C71.46,7.47,73,7.38,73,9.22A3.6,3.6,0,0,1,76.26,7.5C79,7.5,80,9.1,80,11.81v5.58H77.88V11.92c0-1.93-.74-2.64-2.14-2.66a2.54,2.54,0,0,0-2.52,2.64ZM48,9.21a2.38,2.38,0,0,0-2.52,2.21h5A2.22,2.22,0,0,0,48,9.21Zm-19.61,8.4c-3.3,0-6.63-1.87-6.63-6.63s3.33-6.62,6.63-6.62,5.87,1.72,6,4.79H32.19c-.27-1.61-1.4-2.65-3.68-2.65-2.43,0-4.22,1.57-4.24,4.48s1.81,4.49,4.24,4.49c2.28,0,3.41-1,3.68-2.66h2.28c-.18,3.08-2.84,4.8-6,4.8Zm14.77-5.23A4.63,4.63,0,0,1,48.07,7.5c3.37,0,4.87,2.28,4.24,5.48H45.46c0,1.76,1.23,2.78,3.12,2.78a7.73,7.73,0,0,0,3.24-.69l.31,1.7a8,8,0,0,1-3.67.84c-3.15,0-5.38-2-5.27-5.23Zm11,1.79V3.93h2.12V14.11c0,1.45.23,1.83,2,1.65l.09,1.65c-2.84.64-4.22-.2-4.22-3.24Zm11.78,0v-.8a4.21,4.21,0,0,0-2.29-.66c-1.28,0-2.11.64-2.11,1.68s.7,1.56,2,1.56A2.42,2.42,0,0,0,66,14.13Zm-3,3.48c-1.9,0-3.55-1.06-3.55-3.22s1.72-3.24,4-3.24a5.25,5.25,0,0,1,2.63.73v-.79c0-1.46-1.07-1.88-2.47-1.88a6.63,6.63,0,0,0-3.06.73l-.31-1.67A8.6,8.6,0,0,1,63.8,7.5c2.54,0,4.33.85,4.33,3.5v3.64c0,1.12,0,1.49,1,1.41l0,1.32c-1.5.39-2.72.17-2.72-1.61A3.74,3.74,0,0,1,63,17.61Zm-24.07-.22H36.79V10.54c0-1.15,0-1.44-1-1.4V7.71c1.39-.24,2.93-.33,2.93,1.51A2.85,2.85,0,0,1,41.29,7.5a2.7,2.7,0,0,1,1.9.59l-.52,1.79a2.6,2.6,0,0,0-1.56-.49,2.32,2.32,0,0,0-2.2,2.51Z"/></g></g></svg>