<?xml version="1.0" encoding="utf-8"?>
<!-- Generator: Adobe Illustrator 25.0.0, SVG Export Plug-In . SVG Version: 6.00 Build 0)  -->
<svg version="1.1" id="Layer_1" xmlns="http://www.w3.org/2000/svg" xmlns:xlink="http://www.w3.org/1999/xlink" x="0px" y="0px"
	 viewBox="0 0 100 100" style="enable-background:new 0 0 100 100;" xml:space="preserve">
<style type="text/css">
	.st0{fill:#5FBA49;}
	.st1{fill:#FFFFFF;}
	.st2{fill:#F79420;}
	.st3{fill:#6679BA;}
	.st4{fill:#8A8A8A;}
	.st5{fill:#EC1C24;}
</style>
<g>
	<g>
		<g>
			<circle class="st0" cx="22.5" cy="22.5" r="12.5"/>
			<path class="st1" d="M25.83,21.02c0.49-0.47,0.86-1.23,0.57-2.28c-0.37-1.4-2.07-2.14-3.61-1.73c-0.11,0.03-0.03,0.01-0.15,0.04
				L22.09,15l-1.28,0.34l0.55,2.06l-1,0.27l-0.6-2.04l-1.27,0.34l0.55,2.06l-2.59,0.69l0.43,1.59l1.2-0.32
				c0.28-0.08,0.57,0.11,0.65,0.41l1.53,5.7c0.08,0.3-0.08,0.61-0.36,0.68l-0.88,0.24l0.1,1.63l2.59-0.69L22.27,30l1.31-0.35
				l-0.55-2.06l1-0.27l0.55,2.05l1.28-0.34l-0.55-2.05c1.9-0.51,3.72-1.87,3.11-4.15C28.04,21.43,26.83,20.98,25.83,21.02
				 M20.79,19.25c0.01,0,0.14-0.04,1.45-0.39c0.77-0.21,1.34,0.15,1.5,0.75c0.17,0.6-0.14,1.19-0.93,1.4
				c-0.63,0.17-1.45,0.39-1.45,0.39L20.79,19.25z M24.36,25.58c-0.84,0.22-1.75,0.47-1.75,0.47s-0.8-2.93-0.8-2.93
				c0,0,0.4-0.11,1.76-0.47c1.02-0.27,1.82,0.14,2.06,1.02C25.88,24.54,25.41,25.3,24.36,25.58"/>
		</g>
	</g>
	<g>
		<circle class="st2" cx="50" cy="50" r="17.5"/>
		<path class="st1" d="M56.59,50.91c1.1-0.27,2.26-1.06,2.72-2.81c0.62-2.33-1.21-4.82-3.77-5.5c-0.19-0.05-0.05-0.01-0.25-0.07
			l0.92-3.42l-2.13-0.57l-0.92,3.43l-1.67-0.45l0.84-3.45l-2.11-0.57l-0.92,3.43L45,39.77l-0.71,2.64l1.99,0.53
			c0.47,0.13,0.74,0.63,0.6,1.14l-2.55,9.51c-0.13,0.5-0.62,0.81-1.09,0.68l-1.47-0.39l-1.21,2.44l4.32,1.16l-0.92,3.42l2.19,0.59
			l0.92-3.43l1.67,0.45l-0.92,3.42l2.13,0.57l0.92-3.42c3.16,0.85,6.93,0.4,7.95-3.4C59.44,53.34,58.06,51.68,56.59,50.91
			 M50.79,44.16c0.02,0,0.24,0.06,2.42,0.65c1.28,0.34,1.81,1.33,1.55,2.33c-0.26,1-1.19,1.6-2.51,1.24
			c-1.05-0.28-2.42-0.65-2.42-0.65L50.79,44.16z M50.67,56.26c-1.39-0.37-2.91-0.78-2.91-0.78s1.29-4.9,1.29-4.9
			c0,0,0.67,0.18,2.93,0.79c1.7,0.45,2.5,1.72,2.12,3.19C53.72,56.03,52.42,56.73,50.67,56.26"/>
	</g>
	<g>
		<g>
			<circle class="st3" cx="22.5" cy="77.5" r="12.5"/>
			<g>
				<polygon class="st1" points="22.62,80.19 27.03,77.54 22.62,74.9 				"/>
				<polygon class="st1" points="17.97,77.54 22.38,80.19 22.38,74.9 				"/>
				<polygon class="st1" points="22.38,70 18.09,77.19 22.38,74.61 22.38,74.46 				"/>
				<polygon class="st1" points="26.91,77.19 22.62,70 22.62,74.46 22.62,74.61 				"/>
				<polygon class="st1" points="26.84,78.92 22.62,81.46 22.62,85 				"/>
				<polygon class="st1" points="22.38,85 22.38,81.46 18.16,78.92 				"/>
			</g>
		</g>
	</g>
	<g>
		<g>
			<circle class="st4" cx="77.5" cy="22.5" r="12.5"/>
			<polygon class="st1" points="76.82,27.01 77.76,23.44 80.05,22.66 80.63,20.43 78.35,21.22 79.99,15 75.29,15 73.1,23.03 
				71.18,23.69 70.47,25.92 72.5,25.22 71.2,30 76.03,30 83.72,30 84.53,27.01 			"/>
		</g>
	</g>
	<g>
		<g>
			<circle class="st5" cx="77.5" cy="77.5" r="12.5"/>
		</g>
		<g>
			<path class="st1" d="M83.95,74.05l-5.77,2.71l3.86-4.07L83.95,74.05z M81.55,72.51l-4.38,4.63L71.13,70L81.55,72.51z
				 M71.05,70.63l5.86,6.93L76.15,85L71.05,70.63z M76.62,85l0.76-7.36l6.3-2.96L76.62,85z"/>
		</g>
	</g>
</g>
</svg>
