<svg xmlns="http://www.w3.org/2000/svg" viewBox="0 0 80 79.88"><defs><style>.cls-1{fill:#e92a34;}.cls-1,.cls-2{fill-rule:evenodd;}.cls-2{fill:#fff;stroke:#00558f;stroke-miterlimit:2.61;stroke-width:1.11px;}</style></defs><title>CU_Circle K</title><g id="Layer_2" data-name="Layer 2"><g id="CU_Circle_K" data-name="CU_Circle K"><polygon class="cls-1" points="0 79.88 80 79.88 80 0 0 0 0 79.88 0 79.88"/><path class="cls-2" d="M58.93,27A7.93,7.93,0,0,0,57.26,15.6,7.84,7.84,0,0,0,46,17.26L36.31,30.12V21.79a8,8,0,0,0-8.1-8.1A8.05,8.05,0,0,0,20,21.79V58.1a8.05,8.05,0,0,0,8.21,8.09,7.88,7.88,0,0,0,8.1-8.09V47.26l19.4,21.79A31.8,31.8,0,0,1,40,73.1,33.16,33.16,0,1,1,73.1,39.88,33.77,33.77,0,0,1,67.74,58.1L50.36,38.57,58.93,27Z"/></g></g></svg>