<svg id="Layer_1" data-name="Layer 1" xmlns="http://www.w3.org/2000/svg" viewBox="0 0 79.99 50.04"><defs><style>.cls-1{fill:#ce0e2d;}.cls-2{fill:#002856;}.cls-3{fill:#007078;}.cls-4,.cls-5{fill:#fff;}.cls-4{fill-rule:evenodd;}</style></defs><title>CUP-eng</title><path class="cls-1" d="M25.67,25h20a3.89,3.89,0,0,1,3.87,5.07L40.21,70A6.79,6.79,0,0,1,34,75H14A3.89,3.89,0,0,1,10.14,70l9.3-39.91A6.77,6.77,0,0,1,25.67,25Z" transform="translate(-10 -24.98)"/><path class="cls-2" d="M44,25h23c2.79,0,1.53,2.27.87,5.07L58.51,70c-.65,2.79-.45,5.06-3.24,5.06h-23A3.89,3.89,0,0,1,28.44,70l9.29-39.91A6.8,6.8,0,0,1,44,25Z" transform="translate(-10 -24.98)"/><path class="cls-3" d="M66,25H86a3.89,3.89,0,0,1,3.87,5.07L80.57,70A6.79,6.79,0,0,1,74.33,75h-20A3.89,3.89,0,0,1,50.5,70l9.3-39.91A6.74,6.74,0,0,1,66,25Z" transform="translate(-10 -24.98)"/><path class="cls-4" d="M62.69,62.52h1.88l.54-1.81H63.23Zm1.51-5-.65,2.14a8.83,8.83,0,0,1,1.1-.48c.39-.09,1-.16,1-.16l.46-1.5H64.2m.93-3.07-.63,2.06a9.42,9.42,0,0,1,1.08-.42,6.72,6.72,0,0,1,1-.14l.45-1.5H65.13m4.17,0-2.44,8.06h.66L67,64.17h-.65l-.15.51H63.89l.16-.51h-4.7l.47-1.54h.48l2.47-8.18.49-1.65h2.36l-.25.83A4.56,4.56,0,0,1,66.6,53c.6-.16,4-.21,4-.21l-.51,1.64H69.3" transform="translate(-10 -24.98)"/><path class="cls-5" d="M70.34,52.81h2.52l0,.94c0,.16.12.23.41.23h.51l-.47,1.55H72c-1.18.08-1.63-.42-1.6-1Z" transform="translate(-10 -24.98)"/><path class="cls-5" d="M70.67,60.17h-2.4l.41-1.38h2.75l.39-1.26H69.11L69.57,56h7.55l-.47,1.56H74.12l-.4,1.26h2.54l-.42,1.38H73.1l-.49.58h1.11L74,62.49c0,.17,0,.29.09.36a1.45,1.45,0,0,0,.59.09H75l-.52,1.69h-.86l-.6,0a1.54,1.54,0,0,1-.61-.26.8.8,0,0,1-.45-.59L71.69,62l-1.25,1.71a2.13,2.13,0,0,1-1.84,1H66.85l.46-1.51H68a1.18,1.18,0,0,0,.49-.14.73.73,0,0,0,.37-.31Z" transform="translate(-10 -24.98)"/><path class="cls-5" d="M44.35,56.39h6.37l-.47,1.52H47.7l-.4,1.3h2.6l-.48,1.57h-2.6l-.63,2.11c-.08.23.62.26.87.26l1.3-.18-.52,1.74H44.91a2.69,2.69,0,0,1-.67-.09.68.68,0,0,1-.47-.34.66.66,0,0,1-.16-.68l.84-2.79H43l.48-1.59h1.45l.39-1.3H43.87Z" transform="translate(-10 -24.98)"/><path class="cls-5" d="M48.63,53.66h2.61l-.47,1.59H47.2l-.39.33c-.17.16-.22.1-.44.21a2.58,2.58,0,0,1-1.17.3H44.06l.46-1.52h.34a1.3,1.3,0,0,0,.59-.09,1.4,1.4,0,0,0,.38-.5l.66-1.19h2.59Z" transform="translate(-10 -24.98)"/><path class="cls-4" d="M53.64,56.27a4.08,4.08,0,0,1,1.93-.86c.28,0,2,0,2,0l.26-.87H54.17Zm3.45.66H53.45l-.22.73h3.16a4.27,4.27,0,0,1,.48,0l.22-.72m-4.73-4.12h2.22l-.33,1.12a6.31,6.31,0,0,1,1.2-.76,11.36,11.36,0,0,1,1.6-.34l3.6,0L59.42,56.9a4.89,4.89,0,0,1-.6,1.36,1.53,1.53,0,0,1-.61.56,2.39,2.39,0,0,1-.83.28c-.24,0-.6,0-1.11,0H52.8l-1,3.23c-.09.32-.14.48-.08.56a.42.42,0,0,0,.33.16l1.53-.14-.52,1.77H51.37c-.55,0-.94,0-1.22,0a1.43,1.43,0,0,1-.73-.14c-.16-.14-.4-.33-.4-.52a7,7,0,0,1,.2-.87l3.14-10.34" transform="translate(-10 -24.98)"/><path class="cls-5" d="M58.85,59.4l-.21,1a1.26,1.26,0,0,1-.4.73,1.59,1.59,0,0,1-1.2.42l-1.24,0v1.11c0,.31.07.28.12.33a.41.41,0,0,0,.16.1l.39,0L57.64,63l-.49,1.62H55.8a4.37,4.37,0,0,1-1.88-.2c-.23-.14-.26-.33-.25-.64l.09-4.32h2.16l0,.88h.52a.8.8,0,0,0,.37-.06.38.38,0,0,0,.14-.22l.22-.69h1.71Z" transform="translate(-10 -24.98)"/><path class="cls-5" d="M28,37.72c-.07.35-1.46,6.75-1.46,6.75-.3,1.29-.52,2.21-1.25,2.81a2.21,2.21,0,0,1-1.47.51,1.36,1.36,0,0,1-1.53-1.31l0-.29.28-1.74s1.45-5.83,1.71-6.6a.51.51,0,0,0,0-.09,21,21,0,0,1-3.37,0c0,.06-.09.42-.09.42l-1.48,6.56-.13.56L19,47.07a2.67,2.67,0,0,0,.32,1.35c.68,1.18,2.61,1.36,3.7,1.36a7.23,7.23,0,0,0,3.62-.84,5.33,5.33,0,0,0,2.31-3.61l.17-.65s1.5-6,1.75-6.84c0,0,0-.07,0-.09A18.94,18.94,0,0,1,28,37.72Z" transform="translate(-10 -24.98)"/><path class="cls-5" d="M36.32,49.74a24.59,24.59,0,0,0-2.53,0l0-.09c.1-.45.21-.89.31-1.34l.14-.61a22.67,22.67,0,0,0,.45-2.39c0-.2.09-.71-.49-.71a2,2,0,0,0-.76.24c-.14.51-.43,1.93-.56,2.57-.29,1.36-.31,1.52-.44,2.19l-.08.09a25.7,25.7,0,0,0-2.59,0l-.05-.1c.2-.81.4-1.63.59-2.44A33.18,33.18,0,0,0,31,43.09l.1-.06c1.16-.16,1.44-.2,2.7-.45l.11.12-.19.7.63-.37A4,4,0,0,1,36,42.65a1.37,1.37,0,0,1,1.41.79c.24.57.08,1.27-.23,2.64l-.16.7c-.32,1.53-.37,1.81-.56,2.86Z" transform="translate(-10 -24.98)"/><path class="cls-5" d="M40.4,49.74c-.61,0-1,0-1.38,0s-.75,0-1.31,0l0,0,0-.05a9.71,9.71,0,0,1,.31-1,6.94,6.94,0,0,0,.29-1c.18-.77.29-1.31.36-1.78s.13-.84.19-1.29l0,0,.05,0,1.38-.2c.4,0,.79-.13,1.42-.25l0,0,0,.06c-.11.48-.23,1-.35,1.43s-.23,1-.33,1.43c-.22,1-.32,1.39-.37,1.66s-.07.4-.15.92l-.06.05Z" transform="translate(-10 -24.98)"/><path class="cls-5" d="M46.79,46.17a5.21,5.21,0,0,1-.59,1.64,1,1,0,0,1-.75.49c-.08,0-.58,0-.59-.74A5.21,5.21,0,0,1,45,46.42c.26-1.17.58-2.15,1.37-2.15C47,44.27,47.06,45,46.79,46.17Zm2.63.11c.35-1.54.08-2.26-.27-2.7a3,3,0,0,0-2.41-.88,4.41,4.41,0,0,0-3,1,4.9,4.9,0,0,0-1.34,2.61c-.22.94-.47,2.65,1.1,3.28a4.52,4.52,0,0,0,1.63.26,4.29,4.29,0,0,0,3.21-1.25,5.77,5.77,0,0,0,1.1-2.37" transform="translate(-10 -24.98)"/><path class="cls-5" d="M74,49.84c-1.21,0-1.56,0-2.68,0l-.07-.09c.3-1.15.61-2.3.88-3.47a26.78,26.78,0,0,0,.55-3l.09-.07C74,43,74.28,43,75.53,42.76l0,.1c-.23,1-.45,1.9-.68,2.85-.46,2-.63,3-.8,4Z" transform="translate(-10 -24.98)"/><path class="cls-5" d="M72.15,46.3a5.63,5.63,0,0,1-.6,1.64,1.38,1.38,0,0,1-1,.47c-.08,0-.57,0-.59-.73a5.38,5.38,0,0,1,.16-1.14c.27-1.15.58-2.12,1.37-2.12C72.15,44.42,72.42,45.13,72.15,46.3Zm2.4.12c.35-1.53-1.07-.14-1.29-.64-.35-.79-.13-2.39-1.52-2.93a3.36,3.36,0,0,0-2.88,1,4.83,4.83,0,0,0-1.33,2.59c-.22.93-.47,2.63,1.09,3.24A3.09,3.09,0,0,0,70,50c1.56-.08,2.76-2.45,3.64-3.38.67-.75.79.27.9-.18" transform="translate(-10 -24.98)"/><path class="cls-5" d="M56.28,49.74a24.59,24.59,0,0,0-2.53,0l0-.09c.1-.45.21-.89.32-1.34l.14-.61a22.67,22.67,0,0,0,.45-2.39c0-.2.09-.71-.48-.71a1.92,1.92,0,0,0-.76.24c-.14.51-.43,1.93-.57,2.57-.28,1.36-.3,1.52-.43,2.19l-.09.09a25.51,25.51,0,0,0-2.58,0l-.05-.1c.2-.81.4-1.63.59-2.44A35.18,35.18,0,0,0,51,43.09l.09-.06c1.16-.16,1.45-.2,2.7-.45l.1.12-.18.7.63-.37A4,4,0,0,1,56,42.65a1.37,1.37,0,0,1,1.41.79c.23.57.07,1.27-.24,2.64l-.16.7c-.33,1.53-.38,1.81-.56,2.86Z" transform="translate(-10 -24.98)"/><path class="cls-5" d="M65,37.72h-.84c-2.17,0-3,0-3.4,0,0,.16-.09.44-.09.44l-.78,3.61s-1.86,7.66-1.95,8c1.9,0,2.67,0,3,0,.07-.36.51-2.5.52-2.5s.37-1.57.4-1.63a1,1,0,0,1,.24-.23h.17c1.64,0,3.48,0,4.93-1.06a5.28,5.28,0,0,0,2-3.12,4.59,4.59,0,0,0,.13-1.09,2.31,2.31,0,0,0-.39-1.39C68.14,37.74,66.67,37.72,65,37.72Zm1.08,3.75a2.67,2.67,0,0,1-1.36,1.8,4.25,4.25,0,0,1-1.92.3h-.45l0-.18s.83-3.6.82-3.58l0-.18v-.14l.33,0,1.75.15a1.4,1.4,0,0,1,.76,1.8" transform="translate(-10 -24.98)"/><path class="cls-5" d="M83.89,42.75l-.1-.11c-1.24.25-1.46.29-2.6.44l-.08.08a.43.43,0,0,0,0,.05v0c-.85,2-.82,1.53-1.51,3.07a1.28,1.28,0,0,0,0-.19l-.17-3.34-.11-.11c-1.3.25-1.33.29-2.53.44l-.09.08s0,.08,0,.13v0a17.4,17.4,0,0,1,.26,1.8c.07.59.16,1.19.23,1.78.12,1,.18,1.46.33,3-.81,1.34-1,1.84-1.78,3l.05.11c1.17,0,1.44,0,2.31,0l.19-.21C78.9,51.31,83.89,42.75,83.89,42.75Z" transform="translate(-10 -24.98)"/><path class="cls-5" d="M41.5,43.58c.67-.46.75-1.1.19-1.43a2.3,2.3,0,0,0-2.23.23c-.67.45-.74,1.1-.18,1.43A2.28,2.28,0,0,0,41.5,43.58Z" transform="translate(-10 -24.98)"/><path class="cls-5" d="M78.16,52.84l-1,1.67a1.91,1.91,0,0,1-1.79,1l-1.55,0,.45-1.5h.3a.89.89,0,0,0,.36,0,.43.43,0,0,0,.2-.18l.58-.91Z" transform="translate(-10 -24.98)"/></svg>