<svg xmlns="http://www.w3.org/2000/svg" viewBox="0 0 80 37.85"><defs><style>.cls-1,.cls-8{fill:#ed1c27;}.cls-1,.cls-2,.cls-3,.cls-4,.cls-7{fill-rule:evenodd;}.cls-2,.cls-5{fill:#0081c3;}.cls-3{fill:#ffe01b;}.cls-4{fill:#f8991d;}.cls-5{stroke:#231f20;stroke-miterlimit:3.86;stroke-width:0.17px;}.cls-6,.cls-7{fill:#231f20;}</style></defs><title>Davivienda</title><g id="Layer_2" data-name="Layer 2"><g id="Davivienda"><path class="cls-1" d="M28.89,12c.06.58,0,3-2.21,6.28C24.38,22,28,28,35.36,26.49a13.25,13.25,0,0,0,4.48.65,13.3,13.3,0,0,0,4.49-.64C51.67,28,55.29,22,53,18.32c-2.22-3.3-2.27-5.7-2.21-6.28Z"/><path class="cls-2" d="M39.84,27.11c-7.18-.19-8.48-3.48-6.5-4.18,1.15-.4,2.67-1.07,2.67-1.07-.77-3.73.5-8.48,3.85-8.48s4.56,4.9,3.81,8.55c0,0,1.52.56,2.66,1C48.19,23.66,47,26.92,39.84,27.11Z"/><path class="cls-3" d="M37.13,24.51c-1.9-5.33-.23-10.32,2.71-10.31,2.79,0,4.69,4.85,2.72,10.3a14.41,14.41,0,0,0-2.82-.21A16.37,16.37,0,0,0,37.13,24.51Z"/><path class="cls-4" d="M39.84,27.16c2.89,0,5.16-.62,5.16-1.48s-2.27-1.48-5.16-1.48-5.17.62-5.17,1.48S37,27.16,39.84,27.16Z"/><path class="cls-5" d="M30.29,14.67h3.47a1,1,0,0,1,1,1V18a1,1,0,0,1-1,1H30.29a1,1,0,0,1-1-1V15.66A1,1,0,0,1,30.29,14.67Z"/><rect class="cls-6" x="29.94" y="15.23" width="4.25" height="3.21" rx="0.75" ry="0.75"/><path class="cls-3" d="M34.18,17.26c-1.24-.13-1.67-1.58-1.77-2h1a.75.75,0,0,1,.75.75Z"/><path class="cls-3" d="M31.73,15.23c-.08.41-.47,2-1.79,2V16a.75.75,0,0,1,.75-.75Z"/><rect class="cls-5" x="44.92" y="14.67" width="5.46" height="4.33" rx="1" ry="1"/><rect class="cls-6" x="45.56" y="15.23" width="4.25" height="3.21" rx="0.75" ry="0.75"/><path class="cls-3" d="M49.81,17.26c-1.24-.13-1.67-1.58-1.78-2h1a.76.76,0,0,1,.75.75Z"/><path class="cls-3" d="M47.35,15.23c-.08.41-.47,2-1.79,2V16a.76.76,0,0,1,.75-.75Z"/><path class="cls-1" d="M47,3c-.36-1.24-.43-1.87.71-1.87h2.52c1.52,0,.89,1.16.74,2.32-.19,1.54-.19,2-.19,2S47,3.05,47,3Z"/><path class="cls-4" d="M39.82,11.92c-3.73,0-8.88.33-12.18.58-2.54.2-4.5-1.73-2.81-3.56,3.59-3.89,12.36-8.8,15-8.8,2.82,0,11.43,4.91,15,8.8,1.69,1.83,0,3.56-2.56,3.56C49.47,12.5,43.56,11.93,39.82,11.92Z"/><path class="cls-7" d="M41.85,20.64a.49.49,0,1,1,1,0,.49.49,0,1,1-1,0Z"/><path class="cls-7" d="M39.84,24.12a16.83,16.83,0,0,0-2.7.22c-1.77-5.17-.14-10,2.7-10s4.47,4.88,2.69,10.06A15.19,15.19,0,0,0,39.84,24.12Zm2.63.41c1.47.23,2.45.66,2.45,1.15,0,.75-2.27,1.36-5.08,1.36s-5.09-.61-5.09-1.36c0-.49,1-.92,2.46-1.15,0,0,1.6-.2,2.63-.2S42.47,24.53,42.47,24.53Zm.22-.16c1.86-5.37.05-10.31-2.85-10.3S35.13,19,37,24.37c-1.44.28-2.39.76-2.39,1.31a.65.65,0,0,0,.28.5c-2.42-1.06-2.64-2.79-1.32-3.26,1.15-.41,2.54-1,2.54-1-.74-3.62.4-8.48,3.74-8.47s4.47,4.85,3.73,8.47c0,0,1.39.56,2.55,1s1.11,2.17-1.3,3.25a.67.67,0,0,0,.26-.49C45.08,25.13,44.13,24.65,42.69,24.37ZM47.2,3c-.29-1.14-.3-1.61.68-1.61H50c1.43,0,.84,1.08.71,2.18-.08.67-.13,1.2-.15,1.61C49.45,4.35,48.3,3.61,47.2,3ZM44.69,26.45c6.89,1.17,10.25-4.61,8-8.1a11.82,11.82,0,0,1-2.16-5.73c-4.52-.24-7.62-.46-10.73-.5s-6.22.26-10.73.5a11.76,11.76,0,0,1-2.17,5.73c-2.21,3.49,1.16,9.27,8.05,8.1-2.93-1.1-3.28-3-1.72-3.6l2.66-1c-.76-3.73.56-8.64,3.91-8.64s4.67,4.91,3.9,8.64l2.67,1C48,23.46,47.61,25.35,44.69,26.45Zm-4.85-14.8c-3.87.06-7.55.33-11.88.61-2.69.17-4.2-1.62-2.51-3.47C28,6.06,36.46.44,39.84.44S51.73,6.06,54.22,8.79c1.7,1.85.19,3.64-2.5,3.47C47.39,12,43.72,11.71,39.84,11.65Zm6.85-9a3.37,3.37,0,0,0-.09-.34c-.18-.67,0-1.41,1.14-1.41h2.51c1.48,0,1.31,1,1.06,2a14.32,14.32,0,0,0-.39,2.44S53,6.89,54.11,7.85c3.6,3,1.26,5-2.17,4.84l-1,0a8.69,8.69,0,0,0,1.9,5c4,4.76-1.29,10.73-8.73,9.05a15.42,15.42,0,0,1-8.52,0c-7.44,1.68-12.71-4.29-8.73-9a8.69,8.69,0,0,0,1.9-5l-1,0c-3.43.17-5.77-1.81-2.18-4.84C30.9,3.35,37.35,0,39.84,0,41.21,0,43.78,1,46.69,2.68Z"/><path class="cls-8" d="M1.92,36.76c1.51.32,5.24.22,5.33-2.22,0-1-1.27-1.9-2.47-2.16a8,8,0,0,0-3.91,0c-.92.35-1.21-.55-.37-.86,1.59-.58,7.78-.7,8.07,3C8.32,38.21,2.91,38,1.69,37.7c-.48-.09-.85-.31-.85-.93V33.71a.54.54,0,1,1,1.08,0Z"/><path class="cls-8" d="M13.55,32.45c-1.2,0-3.23,3.67-3.83,5a.63.63,0,1,1-1.13-.56c.64-1.42,3.06-5.7,4.95-5.66s4.31,4.24,5,5.66a.63.63,0,1,1-1.13.56C16.77,36.12,14.76,32.45,13.55,32.45Z"/><path class="cls-8" d="M22,36.6c1.2,0,3.24-3.68,3.83-5a.63.63,0,1,1,1.13.56c-.64,1.42-3.06,5.7-4.95,5.67s-4.31-4.25-4.95-5.67a.63.63,0,1,1,1.13-.56C18.77,32.92,20.78,36.6,22,36.6Z"/><path class="cls-8" d="M29,31.85v5.36a.61.61,0,0,1-1.21,0V31.84A.61.61,0,1,1,29,31.85Z"/><path class="cls-8" d="M34.77,36.6c1.21,0,3.24-3.68,3.83-5a.63.63,0,1,1,1.13.56c-.64,1.42-3,5.7-4.95,5.67s-4.31-4.25-5-5.67A.63.63,0,1,1,31,31.6C31.56,32.92,33.57,36.6,34.77,36.6Z"/><path class="cls-8" d="M44.08,35.07a3.52,3.52,0,0,0,2.34,1.58,8.12,8.12,0,0,0,3.92,0c.89-.29,1.2.57.36.86-1.66.55-7.74.75-8.1-3,.2-3.55,5.06-3.46,6.91-3.22.91.12.72,1.08-.22.88C48,32,44.67,31.84,44,34.08h3.46c.54,0,.54,1,0,1Z"/><path class="cls-8" d="M63.35,36.76c1.51.32,5.24.22,5.33-2.22,0-1-1.26-1.9-2.47-2.16a8,8,0,0,0-3.91,0c-.92.35-1.21-.55-.37-.86,1.59-.58,7.79-.7,8.08,3-.26,3.67-5.67,3.41-6.89,3.16a.87.87,0,0,1-.84-.93V33.71a.54.54,0,1,1,1.07,0Z"/><path class="cls-8" d="M75,32.45c-1.2,0-3.24,3.67-3.83,5A.63.63,0,1,1,70,36.88c.64-1.42,3.06-5.7,5-5.66s4.31,4.24,5,5.66a.63.63,0,1,1-1.13.56C78.21,36.12,76.2,32.45,75,32.45Z"/><path class="cls-8" d="M41.76,31.85v5.36a.61.61,0,0,1-1.21,0V31.84A.61.61,0,1,1,41.76,31.85Z"/><path class="cls-8" d="M56.32,35.62c-.75-1.38-1.57-3.19-2.14-3.23-1.39,0-.76,2.75-.79,4.9a.61.61,0,0,1-1.21-.08c0-2.75-.59-6,2-6,.77,0,1.49,1.14,2.15,2.22.74,1.37,1.64,3.19,2.2,3.23,1.4,0,.73-2.69.76-4.84a.61.61,0,0,1,1.21.08c0,2.74.62,6-2,6C57.77,37.85,57,36.7,56.32,35.62Z"/></g></g></svg>