<?xml version="1.0" encoding="utf-8"?>
<!-- Generator: Adobe Illustrator 24.1.3, SVG Export Plug-In . SVG Version: 6.00 Build 0)  -->
<svg version="1.1" id="Layer_1" xmlns="http://www.w3.org/2000/svg" xmlns:xlink="http://www.w3.org/1999/xlink" x="0px" y="0px"
	 viewBox="0 0 100 100" style="enable-background:new 0 0 100 100;" xml:space="preserve">
<g>
	<g>
		<g>
			<path d="M49.67,67.93c-6.89,0-12.09-4.15-12.09-9.66c0-0.76,0.62-1.38,1.38-1.38c0.76,0,1.38,0.62,1.38,1.38
				c0,4,3.92,6.9,9.33,6.9c4.8,0,9.98-2.64,9.98-6.9c0-4.25-4.85-8.27-9.98-8.27c-6.65,0-12.06-4.64-12.06-10.35
				c0-5.7,5.41-10.34,12.06-10.34c6.26,0,12.74,3.61,12.74,9.66c0,0.76-0.62,1.38-1.38,1.38c-0.76,0-1.38-0.62-1.38-1.38
				c0-4.26-5.18-6.9-9.98-6.9c-5.13,0-9.3,3.4-9.3,7.59c0,4.18,4.17,7.59,9.3,7.59c6.67,0,12.74,5.26,12.74,11.03
				C62.41,64.32,55.94,67.93,49.67,67.93z"/>
		</g>
		<g>
			<path d="M50,70.69c-0.76,0-1.38-0.62-1.38-1.38V27.93c0-0.76,0.62-1.38,1.38-1.38c0.76,0,1.38,0.62,1.38,1.38v41.38
				C51.38,70.07,50.76,70.69,50,70.69z"/>
		</g>
	</g>
	<g>
		<path d="M50,90c-22.06,0-40-17.94-40-40c0-22.06,17.94-40,40-40c22.06,0,40,17.94,40,40C90,72.06,72.06,90,50,90z M50,12.76
			c-20.54,0-37.24,16.71-37.24,37.24c0,20.53,16.71,37.24,37.24,37.24c20.54,0,37.24-16.71,37.24-37.24
			C87.24,29.47,70.54,12.76,50,12.76z"/>
	</g>
</g>
</svg>
