<svg xmlns="http://www.w3.org/2000/svg" viewBox="0 0 80 56"><defs><style>.cls-1{fill:#ec2227;}.cls-2{fill:#fff;}</style></defs><title>Deutsche_Bahn</title><g id="Layer_2" data-name="Layer 2"><g id="Deutsche_Bahn"><g id="layer1"><path id="path54" class="cls-1" d="M72,0H8A8,8,0,0,0,0,8v40A8.05,8.05,0,0,0,8,56H72a8,8,0,0,0,8-8.06V8a8,8,0,0,0-8-8"/><path id="path58" class="cls-2" d="M74.15,47.94A2.14,2.14,0,0,1,72,50.23H8a2.2,2.2,0,0,1-2.19-2.29V8A2.2,2.2,0,0,1,8,5.68H72A2.14,2.14,0,0,1,74.15,8v40"/><path id="path62" class="cls-1" d="M11,9.67V46.35H24.45C35.63,46.26,39,38.44,39,27.83,39,15.62,33.93,9.67,24.45,9.67Zm31.93,0V46.35H57.13C63.74,46.35,70,43.19,70,35.72c0-4.58-3.05-7.31-7.54-8.58,3.22-1.62,6.19-4.13,6.19-7.69,0-6.88-3.8-9.78-10.83-9.78Zm8.73,5.69h2.45c2.87,0,5.59.91,5.59,4.39,0,3.14-2.12,4.44-5,4.44h-3Zm-31.83.1H21.6c8,0,8.69,5.74,8.69,13.12,0,8.07-2.67,11.83-7.34,11.83H19.81V15.46ZM51.64,31h3.2c3.47,0,5.84.86,5.84,4.59s-2.76,4.84-5.89,4.84H51.64V31Z"/></g></g></g></svg>