<svg id="Layer_1" data-name="Layer 1" xmlns="http://www.w3.org/2000/svg" viewBox="0 0 79.99 56"><defs><style>.cls-1{fill:#eb2027;}.cls-2{fill:#fff;}</style></defs><title>Deutsche-Ban</title><g id="layer1"><path id="path54" class="cls-1" d="M82,22H18a8,8,0,0,0-8,8v40A8.05,8.05,0,0,0,18,78H82a8,8,0,0,0,8-8.06V30a7.94,7.94,0,0,0-8-8" transform="translate(-10 -22)"/><path id="path58" class="cls-2" d="M84.15,69.94A2.14,2.14,0,0,1,82,72.23H18a2.2,2.2,0,0,1-2.2-2.29V30A2.2,2.2,0,0,1,18,27.68H82A2.14,2.14,0,0,1,84.15,30v40" transform="translate(-10 -22)"/><path id="path62" class="cls-1" d="M21,31.67V68.35H34.44C45.62,68.26,49,60.44,49,49.84c0-12.22-5.09-18.16-14.57-18.16Zm31.94,0V68.35H67.13C73.74,68.35,80,65.19,80,57.72c0-4.57-3-7.31-7.53-8.58,3.21-1.61,6.19-4.12,6.19-7.68,0-6.88-3.8-9.78-10.83-9.78Zm8.73,5.69h2.45c2.87,0,5.59.91,5.59,4.39,0,3.14-2.12,4.44-5,4.44h-3V37.36Zm-31.83.1h1.8c7.94,0,8.68,5.74,8.68,13.12,0,8.06-2.66,11.83-7.34,11.83H29.81V37.46ZM61.64,53h3.19c3.47,0,5.84.86,5.84,4.59s-2.75,4.84-5.89,4.84H61.64V53Z" transform="translate(-10 -22)"/></g></svg>