<svg id="Layer_1" data-name="Layer 1" xmlns="http://www.w3.org/2000/svg" viewBox="0 0 80 11.3"><defs><style>.cls-1{fill:#419444;}.cls-2{fill:#174885;}</style></defs><title>Dinero_Mail</title><path class="cls-1" d="M10,55.45l2.36-11.1h3c.84,0,1.38,0,1.62,0a5,5,0,0,1,1.25.28,3.47,3.47,0,0,1,1,.59,3.69,3.69,0,0,1,.78.92,4.18,4.18,0,0,1,.5,1.24A6.17,6.17,0,0,1,20.72,49,7,7,0,0,1,20,52.13a6.32,6.32,0,0,1-1.75,2.21,5.33,5.33,0,0,1-2.08.94,10.76,10.76,0,0,1-2.22.17Zm2.69-1.78h1.17a7.48,7.48,0,0,0,1.85-.16,2.6,2.6,0,0,0,1.05-.58,4.76,4.76,0,0,0,1.15-1.64,5.76,5.76,0,0,0,.47-2.41A3.29,3.29,0,0,0,18,47.1a1.86,1.86,0,0,0-1-.79,5,5,0,0,0-1.42-.14H14.27Z" transform="translate(-10 -44.35)"/><path class="cls-1" d="M22.75,47.41h2.31l-1.78,8H21Zm.68-3h2.31l-.43,2H23Z" transform="translate(-10 -44.35)"/><path class="cls-1" d="M26.93,47.41h2l-.21,1a5.75,5.75,0,0,1,1.42-1,3.45,3.45,0,0,1,1.39-.28,1.95,1.95,0,0,1,2.1,2.08,9.09,9.09,0,0,1-.25,1.6l-.93,4.55H30.34l.94-4.56a10.1,10.1,0,0,0,.21-1.22.85.85,0,0,0-.24-.65.92.92,0,0,0-.67-.24,1.85,1.85,0,0,0-1,.4,2.82,2.82,0,0,0-.9,1.06,8.93,8.93,0,0,0-.54,1.92l-.68,3.3H25.28Z" transform="translate(-10 -44.35)"/><path class="cls-1" d="M42.92,52.11H37.23a1.64,1.64,0,0,0,0,.2,1.76,1.76,0,0,0,.48,1.29,1.56,1.56,0,0,0,1.17.49A1.94,1.94,0,0,0,40.63,53l2,.33a4.14,4.14,0,0,1-1.59,1.76,4.29,4.29,0,0,1-2.23.59,3.75,3.75,0,0,1-2.75-1A3.59,3.59,0,0,1,35,51.91,4.8,4.8,0,0,1,36,49a4.37,4.37,0,0,1,3.72-1.74,3.28,3.28,0,0,1,2.45.91,3.44,3.44,0,0,1,.91,2.55A5.2,5.2,0,0,1,42.92,52.11ZM41,50.78a2,2,0,0,0,0-.22,1.89,1.89,0,0,0-.42-1.34,1.45,1.45,0,0,0-1.12-.45,1.81,1.81,0,0,0-1.26.51,2.74,2.74,0,0,0-.76,1.5Z" transform="translate(-10 -44.35)"/><path class="cls-1" d="M45.36,47.41h2L47.06,49a3.08,3.08,0,0,1,2.45-1.75,2.62,2.62,0,0,1,1,.23l-.83,1.78a1.84,1.84,0,0,0-.62-.11,1.91,1.91,0,0,0-1.13.42,2.9,2.9,0,0,0-.9,1.13,11,11,0,0,0-.64,2.24l-.53,2.52H43.7Z" transform="translate(-10 -44.35)"/><path class="cls-1" d="M49.56,52.12a4.92,4.92,0,0,1,1.28-3.56,4.42,4.42,0,0,1,3.35-1.33,3.87,3.87,0,0,1,2.81,1,3.51,3.51,0,0,1,1,2.64,4.94,4.94,0,0,1-1.26,3.38,4.29,4.29,0,0,1-3.39,1.42,4.44,4.44,0,0,1-2-.45A3,3,0,0,1,50,53.91,3.84,3.84,0,0,1,49.56,52.12Zm6.27-1.56a1.68,1.68,0,0,0-.46-1.24,1.58,1.58,0,0,0-1.18-.47,2,2,0,0,0-1.26.44,2.83,2.83,0,0,0-.86,1.26,4.53,4.53,0,0,0-.31,1.53,2,2,0,0,0,.47,1.37,1.58,1.58,0,0,0,1.2.51A1.91,1.91,0,0,0,55,53.2,4,4,0,0,0,55.83,50.56Z" transform="translate(-10 -44.35)"/><path class="cls-2" d="M65.67,55.45H63.35l-.43-9.27L61,55.45H58.82l2.49-11.1H64.8l.37,7.77,4.06-7.77h3.53l-2.49,11.1H68l2.35-9.2Z" transform="translate(-10 -44.35)"/><path class="cls-2" d="M75.93,49.69l-2.22-.18A3.18,3.18,0,0,1,75,47.83a4.64,4.64,0,0,1,2.51-.61,3.85,3.85,0,0,1,2.4.62,1.89,1.89,0,0,1,.78,1.53,4.24,4.24,0,0,1-.07.77c0,.27-.2,1-.47,2.15a10.69,10.69,0,0,0-.33,2,3.87,3.87,0,0,0,.19,1.14H77.84a4.57,4.57,0,0,1-.17-.91,3.54,3.54,0,0,1-1.15.81,3.22,3.22,0,0,1-1.31.28A2.43,2.43,0,0,1,73.48,55a2.25,2.25,0,0,1-.68-1.68,2.37,2.37,0,0,1,.75-1.84,4.44,4.44,0,0,1,2.67-.83,11.49,11.49,0,0,0,2.17-.31,2.4,2.4,0,0,0,.14-.73.72.72,0,0,0-.29-.58,1.37,1.37,0,0,0-.87-.23,1.66,1.66,0,0,0-1,.24A1.25,1.25,0,0,0,75.93,49.69Zm2.16,2a4,4,0,0,1-.55.1,5.21,5.21,0,0,0-2.23.58.86.86,0,0,0-.37.73.81.81,0,0,0,.29.64A1.09,1.09,0,0,0,76,54a2,2,0,0,0,1-.24,1.69,1.69,0,0,0,.68-.61A4.2,4.2,0,0,0,78,52Z" transform="translate(-10 -44.35)"/><path class="cls-2" d="M83.21,47.41h2.08l-1.61,8H81.6Zm.61-3H85.9l-.39,2H83.43Z" transform="translate(-10 -44.35)"/><path class="cls-2" d="M85.71,55.45l2.22-11.1H90l-2.22,11.1Z" transform="translate(-10 -44.35)"/></svg>