<svg xmlns="http://www.w3.org/2000/svg" viewBox="0 0 80 11.29"><defs><style>.cls-1{fill:#429544;}.cls-2{fill:#164886;}</style></defs><title>DineroMail</title><g id="Layer_2" data-name="Layer 2"><g id="DineroMail"><path class="cls-1" d="M0,11.1,2.36,0h3C6.23,0,6.77,0,7,0A4.68,4.68,0,0,1,8.26.32a3.56,3.56,0,0,1,1,.59,3.88,3.88,0,0,1,.78.92,4.47,4.47,0,0,1,.5,1.24,6.17,6.17,0,0,1,.18,1.53A6.89,6.89,0,0,1,10,7.78,6.21,6.21,0,0,1,8.27,10a5.19,5.19,0,0,1-2.08.94A10.76,10.76,0,0,1,4,11.1ZM2.69,9.31H3.87a8,8,0,0,0,1.84-.15,2.66,2.66,0,0,0,1-.58A4.85,4.85,0,0,0,7.91,6.94a5.6,5.6,0,0,0,.47-2.41A3.27,3.27,0,0,0,8,2.76,1.8,1.8,0,0,0,7,2a5,5,0,0,0-1.42-.14H4.28Z"/><path class="cls-1" d="M12.75,3.06h2.31l-1.79,8H11ZM13.43,0h2.3L15.3,2H13Z"/><path class="cls-1" d="M16.93,3.06h2l-.21,1a5.75,5.75,0,0,1,1.42-.95,3.45,3.45,0,0,1,1.39-.28,2.08,2.08,0,0,1,1.54.57,2,2,0,0,1,.56,1.5,9.87,9.87,0,0,1-.24,1.61l-.93,4.55H20.34l.94-4.57a11.45,11.45,0,0,0,.2-1.22.88.88,0,0,0-.24-.65.9.9,0,0,0-.67-.24,1.85,1.85,0,0,0-1,.4,2.76,2.76,0,0,0-.91,1.06,9.78,9.78,0,0,0-.53,1.92l-.68,3.3H15.27Z"/><path class="cls-1" d="M32.92,7.75H27.23a1.64,1.64,0,0,0,0,.2,1.77,1.77,0,0,0,.48,1.29,1.56,1.56,0,0,0,1.17.49,1.94,1.94,0,0,0,1.76-1.12l2,.33a4.12,4.12,0,0,1-1.58,1.76,4.35,4.35,0,0,1-2.23.59,3.79,3.79,0,0,1-2.75-1A3.59,3.59,0,0,1,25,7.55a4.8,4.8,0,0,1,1-2.94,4.36,4.36,0,0,1,3.72-1.74,3.3,3.3,0,0,1,2.45.91,3.45,3.45,0,0,1,.91,2.56A5.58,5.58,0,0,1,32.92,7.75ZM31,6.43c0-.1,0-.17,0-.22a1.87,1.87,0,0,0-.42-1.34,1.48,1.48,0,0,0-1.13-.45,1.83,1.83,0,0,0-1.26.51,2.67,2.67,0,0,0-.75,1.5Z"/><path class="cls-1" d="M35.36,3.06h2l-.32,1.56A3.08,3.08,0,0,1,39.5,2.87a2.62,2.62,0,0,1,1,.23l-.83,1.78a1.89,1.89,0,0,0-.63-.1,1.93,1.93,0,0,0-1.13.42A2.9,2.9,0,0,0,37,6.33a11.58,11.58,0,0,0-.64,2.25l-.52,2.52H33.68Z"/><path class="cls-1" d="M39.56,7.76A4.91,4.91,0,0,1,40.83,4.2a4.44,4.44,0,0,1,3.36-1.33,3.87,3.87,0,0,1,2.81,1,3.51,3.51,0,0,1,1,2.64,4.92,4.92,0,0,1-1.26,3.37,4.33,4.33,0,0,1-3.39,1.43,4.44,4.44,0,0,1-2-.46A2.94,2.94,0,0,1,40,9.54,3.67,3.67,0,0,1,39.56,7.76Zm6.27-1.55A1.71,1.71,0,0,0,45.37,5a1.58,1.58,0,0,0-1.18-.47,2,2,0,0,0-1.26.44,2.83,2.83,0,0,0-.86,1.26,4.55,4.55,0,0,0-.3,1.53,1.92,1.92,0,0,0,.47,1.37,1.58,1.58,0,0,0,1.2.51A1.87,1.87,0,0,0,45,8.84,4,4,0,0,0,45.83,6.21Z"/><path class="cls-2" d="M55.67,11.1H53.35l-.43-9.28L51,11.1H48.82L51.3,0h3.5l.36,7.77L59.22,0h3.54l-2.5,11.1H58l2.35-9.21Z"/><path class="cls-2" d="M65.93,5.34l-2.22-.19A3.3,3.3,0,0,1,65,3.47a4.64,4.64,0,0,1,2.51-.6,3.85,3.85,0,0,1,2.4.62A1.92,1.92,0,0,1,70.72,5a5.3,5.3,0,0,1-.06.77c0,.27-.21,1-.48,2.15a10.69,10.69,0,0,0-.33,2A3.88,3.88,0,0,0,70,11.1H67.83a4,4,0,0,1-.16-.91,3.65,3.65,0,0,1-1.15.81,3.27,3.27,0,0,1-1.31.29,2.39,2.39,0,0,1-1.73-.66A2.25,2.25,0,0,1,62.8,9a2.37,2.37,0,0,1,.75-1.84,4.51,4.51,0,0,1,2.67-.84A9.89,9.89,0,0,0,68.39,6a2.42,2.42,0,0,0,.15-.72.7.7,0,0,0-.3-.58,1.33,1.33,0,0,0-.87-.24,1.71,1.71,0,0,0-1,.24A1.22,1.22,0,0,0,65.93,5.34Zm2.16,2a3.79,3.79,0,0,1-.54.1A5.46,5.46,0,0,0,65.31,8a.89.89,0,0,0-.37.74.85.85,0,0,0,.29.64,1.09,1.09,0,0,0,.75.26,2,2,0,0,0,1-.24,1.69,1.69,0,0,0,.68-.61A4.2,4.2,0,0,0,68,7.64Z"/><path class="cls-2" d="M73.21,3.06h2.08l-1.61,8H71.6ZM73.82,0H75.9l-.4,2H73.43Z"/><path class="cls-2" d="M75.71,11.1,77.93,0H80L77.78,11.1Z"/></g></g></svg>