<?xml version="1.0" encoding="utf-8"?>
<!-- Generator: Adobe Illustrator 24.1.1, SVG Export Plug-In . SVG Version: 6.00 Build 0)  -->
<svg version="1.1" id="Layer_1" xmlns="http://www.w3.org/2000/svg" xmlns:xlink="http://www.w3.org/1999/xlink" x="0px" y="0px"
	 viewBox="0 0 100 100" style="enable-background:new 0 0 100 100;" xml:space="preserve">
<style type="text/css">
	.st0{fill:#D7D7D7;}
	.st1{fill:#036094;}
	.st2{fill:#FFFFFF;}
</style>
<g>
	<path class="st0" d="M86.36,77.27H13.64c-2.01,0-3.64-1.63-3.64-3.64V26.36c0-2.01,1.63-3.64,3.64-3.64h72.73
		c2.01,0,3.64,1.63,3.64,3.64v47.27C90,75.64,88.37,77.27,86.36,77.27z"/>
	<g>
		<path class="st1" d="M76.73,71.37c3.56,0.02,6.81-2.9,6.81-6.44c0-3.88-3.25-6.56-6.81-6.56h-3.06c-3.6,0-6.57,2.68-6.57,6.56
			c0,3.55,2.97,6.46,6.57,6.44H76.73"/>
		<path class="st2" d="M75.03,68.38v-7.04c1.42,0.54,2.43,1.91,2.43,3.52C77.46,66.47,76.45,67.83,75.03,68.38 M69.9,64.86
			c0-1.61,1.01-2.98,2.43-3.52v7.04C70.91,67.83,69.9,66.46,69.9,64.86 M73.68,58.91c-3.29,0-5.96,2.66-5.96,5.95
			c0,3.29,2.67,5.95,5.96,5.95c3.29,0,5.96-2.66,5.96-5.95C79.64,61.57,76.97,58.91,73.68,58.91"/>
	</g>
</g>
</svg>
