<svg id="Layer_1" data-name="Layer 1" xmlns="http://www.w3.org/2000/svg" viewBox="0 0 80 20.83"><defs><style>.cls-1{fill:#036094;}.cls-2{fill:#fff;}.cls-3{fill:#1a1918;}</style></defs><title>Diners</title><path class="cls-1" d="M25.44,60.41c5.71,0,10.91-4.64,10.91-10.32A10.66,10.66,0,0,0,25.44,39.58H20.53A10.29,10.29,0,0,0,10,50.09,10.44,10.44,0,0,0,20.53,60.41h4.91" transform="translate(-10 -39.58)"/><path class="cls-2" d="M22.72,55.62V44.34a6,6,0,0,1,0,11.28M14.49,50a6.07,6.07,0,0,1,3.89-5.64V55.62A6.06,6.06,0,0,1,14.49,50m6.06-9.53A9.54,9.54,0,1,0,30.1,50a9.54,9.54,0,0,0-9.55-9.54" transform="translate(-10 -39.58)"/><path class="cls-3" d="M39.69,44.07c0-1-.52-.92-1-.93v-.28c.43,0,.87,0,1.3,0l1.9,0c2.84,0,4.39,1.89,4.39,3.83,0,1.08-.64,3.81-4.52,3.81l-1.59,0-1.47,0v-.28c.66-.07,1-.09,1-.83V44.07Zm1.08,5.13c0,.84.6.94,1.14.94,2.37,0,3.15-1.79,3.15-3.42a3.3,3.3,0,0,0-3.44-3.53c-.45,0-.66,0-.86,0v6Zm5.88,1h.21c.31,0,.53,0,.53-.36v-3c0-.48-.16-.55-.57-.77v-.18A12.17,12.17,0,0,0,48,45.54a.45.45,0,0,1,.2-.06c.05,0,.08.07.08.15v4.21c0,.36.24.36.55.36H49v.28l-1.15,0-1.2,0Zm1.18-6.41a.54.54,0,1,1,0-1.08.54.54,0,0,1,.54.53A.55.55,0,0,1,47.83,43.8ZM50.05,47c0-.41-.12-.51-.64-.72V46a14.55,14.55,0,0,0,1.45-.53s.06,0,.06.11v.71a3.21,3.21,0,0,1,1.9-.82c.93,0,1.26.68,1.26,1.53v2.83c0,.36.24.36.55.36h.2v.28l-1.16,0-1.19,0v-.28h.2c.31,0,.53,0,.53-.36V47c0-.63-.38-.93-1-.93a2.82,2.82,0,0,0-1.27.53v3.24c0,.36.24.36.55.36h.2v.28l-1.16,0-1.19,0v-.28h.2c.31,0,.53,0,.53-.36V47Zm5.62.52a3.06,3.06,0,0,0,0,.64A1.82,1.82,0,0,0,57.28,50a2.11,2.11,0,0,0,1.48-.73l.15.15a2.58,2.58,0,0,1-2,1.24,2.2,2.2,0,0,1-2.1-2.39c0-2.15,1.45-2.78,2.22-2.78a1.75,1.75,0,0,1,1.86,1.72,1.34,1.34,0,0,1,0,.2l-.1.07H55.67Zm1.94-.35c.27,0,.31-.14.31-.27a.93.93,0,0,0-1-1c-.67,0-1.13.49-1.26,1.28Zm1.5,3.09h.3c.31,0,.53,0,.53-.36V46.77c0-.34-.41-.41-.57-.49v-.16c.8-.34,1.24-.63,1.34-.63s.1,0,.1.14v1h0c.27-.43.74-1.13,1.4-1.13a.61.61,0,0,1,.63.58.53.53,0,0,1-.52.56c-.34,0-.34-.26-.73-.26a.92.92,0,0,0-.8.91v2.57c0,.36.22.36.53.36H62v.28l-1.54,0-1.31,0v-.28ZM63.34,49a1.45,1.45,0,0,0,1.38,1.34c.65,0,.89-.39.89-.78,0-1.29-2.39-.88-2.39-2.64a1.51,1.51,0,0,1,1.7-1.4,2.89,2.89,0,0,1,1.25.32l.08,1.12H66a1.12,1.12,0,0,0-1.2-1.08.77.77,0,0,0-.86.72c0,1.28,2.55.89,2.55,2.61,0,.72-.58,1.49-1.89,1.49a2.9,2.9,0,0,1-1.34-.37L63.14,49ZM76.4,44.83h-.27A2.09,2.09,0,0,0,73.78,43a3.13,3.13,0,0,0-3.1,3.47A3.57,3.57,0,0,0,74,50.3a2.23,2.23,0,0,0,2.21-1.9l.25.07-.25,1.6a6.08,6.08,0,0,1-2.43.58,3.9,3.9,0,0,1-4.19-4.12,4,4,0,0,1,4.16-3.86,8,8,0,0,1,2.59.58Zm.4,5.38H77c.31,0,.53,0,.53-.36v-6.1c0-.71-.16-.73-.58-.85v-.18a6.9,6.9,0,0,0,1.13-.47,1,1,0,0,1,.24-.12c.07,0,.09.07.09.15v7.57c0,.36.24.36.55.36h.19v.28l-1.15,0-1.2,0Zm7-.32c0,.2.12.21.31.21h.44v.23a10.24,10.24,0,0,0-1.58.34l-.06,0v-.89a3,3,0,0,1-1.94.92,1.18,1.18,0,0,1-1.21-1.3V46.55c0-.28,0-.56-.66-.61v-.21c.4,0,1.27-.08,1.42-.08s.12.08.12.32V48.8c0,.33,0,1.27.95,1.27A2.42,2.42,0,0,0,83,49.4V46.45c0-.22-.53-.34-.92-.45v-.2c1-.07,1.6-.15,1.71-.15s.09.08.09.2ZM86,46.28a2.79,2.79,0,0,1,1.64-.79,2.14,2.14,0,0,1,2,2.3,2.76,2.76,0,0,1-2.62,2.87,3.3,3.3,0,0,1-1.53-.38l-.33.25L85,50.41a12.61,12.61,0,0,0,.15-1.95V43.75c0-.71-.17-.73-.58-.85v-.18a6.9,6.9,0,0,0,1.13-.47,1,1,0,0,1,.24-.12c.07,0,.09.07.09.15Zm0,3a1.17,1.17,0,0,0,1.13,1.12c1.17,0,1.67-1.15,1.67-2.13a2.09,2.09,0,0,0-1.76-2.17,1.63,1.63,0,0,0-1,.52ZM38.67,56.87h.08c.21,0,.44,0,.44-.34V53.4c0-.31-.23-.34-.44-.34h-.08v-.18l.88,0,.94,0v.18h-.08c-.21,0-.44,0-.44.34v3.12c0,.31.23.34.44.34h.08V57l-.94,0-.88,0Zm5.93-1h0V53.63a.49.49,0,0,0-.52-.56H44v-.18l.84,0,.73,0v.18h-.09c-.25,0-.53,0-.53.76v2.71a3.78,3.78,0,0,0,0,.6h-.23l-3.08-3.42v2.46c0,.52.1.7.56.7h.1v.18l-.77,0-.81,0v-.18h.08c.41,0,.54-.28.54-.76V53.6a.54.54,0,0,0-.54-.54h-.08v-.18l.69,0,.53,0Zm1.82-2.69c-.45,0-.47.11-.56.54h-.18c0-.17,0-.33.07-.51a4.21,4.21,0,0,0,0-.51h.14c0,.18.2.17.36.17h3.08c.16,0,.31,0,.32-.18l.14,0c0,.16,0,.32-.07.48s0,.32,0,.48l-.18.07c0-.22,0-.57-.44-.57h-1v3.17c0,.46.21.51.5.51h.11V57l-1,0-1,0v-.18h.11c.33,0,.5,0,.5-.5V53.17h-1ZM50,56.87h.08c.21,0,.44,0,.44-.34V53.4c0-.31-.23-.34-.44-.34H50v-.18l1.49,0,1.53,0c0,.26,0,.65,0,.91l-.18.05c0-.39-.1-.7-.73-.7h-.83V54.7H52c.36,0,.44-.2.47-.52h.18c0,.23,0,.47,0,.7s0,.45,0,.68l-.18,0c0-.36,0-.59-.47-.59h-.72V56.4c0,.39.34.39.73.39.72,0,1,0,1.21-.73l.17,0c-.08.32-.15.63-.2.95l-1.61,0-1.59,0v-.18Zm4.2-3.35c0-.43-.24-.45-.42-.45h-.11v-.18l.93,0,1,0c.75,0,1.42.2,1.42,1A1.13,1.13,0,0,1,56.19,55l1,1.52a.69.69,0,0,0,.58.36v.18l-.59,0-.56,0a15.89,15.89,0,0,1-1.24-1.93H55V56.4c0,.46.21.48.49.48h.11v.18l-1,0-.87,0v-.18h.11c.22,0,.42-.1.42-.32ZM55,54.9h.29c.6,0,.92-.23.92-.93a.81.81,0,0,0-.87-.87c-.18,0-.26,0-.34,0Zm6.83,1h0V53.63a.49.49,0,0,0-.52-.56H61.2v-.18l.84,0,.74,0v.18h-.09c-.25,0-.53,0-.53.76v2.71a3.78,3.78,0,0,0,0,.6H62l-3.08-3.42v2.46c0,.52.1.7.56.7h.1v.18l-.77,0-.81,0v-.18h.08c.41,0,.54-.28.54-.76V53.6a.54.54,0,0,0-.54-.54H58v-.18l.69,0,.53,0Zm1.9.32a2.42,2.42,0,0,0-.13.46c0,.18.25.21.45.21h.07V57l-.72,0-.64,0v-.18h0a.55.55,0,0,0,.52-.39l1-2.73a4.15,4.15,0,0,0,.22-.74,2.27,2.27,0,0,0,.54-.26h0s0,0,0,0l0,.15L66.29,56c.07.21.14.43.22.61a.38.38,0,0,0,.4.24h0v.18l-.82,0-.9,0v-.18h.07c.14,0,.37,0,.37-.17a1.69,1.69,0,0,0-.12-.43l-.23-.69H64Zm.87-2.64h0L64,55.24h1.12Zm2.57-.37c-.45,0-.47.11-.56.54h-.18c0-.17,0-.33.07-.51a4.24,4.24,0,0,0,0-.51h.14c0,.18.2.17.36.17h3.08c.16,0,.31,0,.32-.18l.14,0c0,.16,0,.32-.06.48s0,.32,0,.48l-.18.07c0-.22,0-.57-.44-.57h-1v3.17c0,.46.21.51.5.51h.11V57l-1,0-1,0v-.18h.11c.33,0,.5,0,.5-.5V53.17h-1Zm3.64,3.69h.08c.22,0,.44,0,.44-.34V53.4c0-.31-.23-.34-.44-.34h-.08v-.18l.88,0,.94,0v.18h-.08c-.22,0-.44,0-.44.34v3.12c0,.31.23.34.44.34h.08V57l-.94,0-.88,0ZM75,52.8a2.1,2.1,0,0,1,2.29,2.06,2.19,2.19,0,0,1-2.26,2.28A2.1,2.1,0,0,1,72.83,55,2.16,2.16,0,0,1,75,52.8Zm.09,4.07c1.16,0,1.36-1,1.36-1.89S76,53.05,75,53.05s-1.36.93-1.36,1.73C73.66,55.85,74.15,56.87,75.12,56.87Zm6.22-1h0V53.63a.49.49,0,0,0-.52-.56H80.7v-.18l.83,0,.74,0v.18h-.09c-.25,0-.53,0-.53.76v2.71a3.78,3.78,0,0,0,0,.6h-.23l-3.08-3.42v2.46c0,.52.1.7.56.7H79v.18l-.77,0-.81,0v-.18h.08c.41,0,.54-.28.54-.76V53.6a.54.54,0,0,0-.54-.54h-.08v-.18l.69,0,.53,0Zm1.89.32a2.42,2.42,0,0,0-.13.46c0,.18.25.21.45.21h.07V57l-.72,0-.64,0v-.18h0a.55.55,0,0,0,.52-.39l1-2.73A4.15,4.15,0,0,0,84,53a2.27,2.27,0,0,0,.54-.26h0s0,0,0,0a.88.88,0,0,1,0,.15L85.77,56c.07.21.14.43.22.61a.38.38,0,0,0,.39.24h0v.18l-.83,0-.9,0v-.18h.07c.14,0,.37,0,.37-.17a1.69,1.69,0,0,0-.12-.43l-.23-.69H83.42Zm.88-2.64h0l-.56,1.69h1.12Zm3.81,2.91c0,.24.17.31.36.33a4.21,4.21,0,0,0,.79,0,.83.83,0,0,0,.57-.32,1.35,1.35,0,0,0,.19-.43H90c-.07.34-.15.67-.22,1L88.2,57l-1.58,0v-.18h.08c.22,0,.45,0,.45-.4V53.4c0-.31-.23-.34-.45-.34h-.08v-.18l.94,0,.91,0v.18h-.15c-.23,0-.4,0-.4.32Z" transform="translate(-10 -39.58)"/></svg>