<svg id="Layer_1" data-name="Layer 1" xmlns="http://www.w3.org/2000/svg" xmlns:xlink="http://www.w3.org/1999/xlink" viewBox="0 0 80 13.65"><defs><style>.cls-1{fill:#221f1f;}.cls-2{fill:url(#linear-gradient);}.cls-3{opacity:0.65;isolation:isolate;fill:url(#linear-gradient-2);}</style><linearGradient id="linear-gradient" x1="55.86" y1="46.53" x2="51.13" y2="53.93" gradientTransform="matrix(1, 0, 0, -1, 0, 102)" gradientUnits="userSpaceOnUse"><stop offset="0" stop-color="#f79e20"/><stop offset="0.25" stop-color="#f79920"/><stop offset="0.53" stop-color="#f58c20"/><stop offset="0.62" stop-color="#f58620"/><stop offset="0.71" stop-color="#f48121"/><stop offset="1" stop-color="#f17522"/></linearGradient><linearGradient id="linear-gradient-2" x1="55.11" y1="46.63" x2="48.2" y2="60.13" gradientTransform="matrix(1, 0, 0, -1, 0, 102)" gradientUnits="userSpaceOnUse"><stop offset="0" stop-color="#f58620"/><stop offset="0.34" stop-color="#e27026"/><stop offset="0.7" stop-color="#d5612a"/><stop offset="0.98" stop-color="#d05c2c"/></linearGradient></defs><title>Discover_brazil</title><path class="cls-1" d="M13.67,43.54H10V56.37h3.65a6.7,6.7,0,0,0,4.58-1.48A6.45,6.45,0,0,0,20.56,50C20.56,46.18,17.73,43.54,13.67,43.54Zm2.93,9.64a4.75,4.75,0,0,1-3.42,1H12.5V45.72h.67a4.61,4.61,0,0,1,3.42,1A4.3,4.3,0,0,1,18,50,4.41,4.41,0,0,1,16.6,53.18Z" transform="translate(-10 -43.18)"/><rect class="cls-1" x="11.71" y="0.36" width="2.5" height="12.83"/><path class="cls-1" d="M30.33,48.46c-1.5-.56-1.94-.92-1.94-1.62s.79-1.42,1.86-1.42a2.59,2.59,0,0,1,2,1l1.31-1.71a5.62,5.62,0,0,0-3.77-1.42,3.77,3.77,0,0,0-4,3.68c0,1.77.81,2.67,3.16,3.52a10.77,10.77,0,0,1,1.73.73,1.54,1.54,0,0,1,.75,1.33,1.83,1.83,0,0,1-1.94,1.81,3,3,0,0,1-2.73-1.71l-1.62,1.56a5,5,0,0,0,4.44,2.44A4.14,4.14,0,0,0,34,52.48C34,50.43,33.18,49.5,30.33,48.46Z" transform="translate(-10 -43.18)"/><path class="cls-1" d="M34.81,50a6.65,6.65,0,0,0,6.77,6.7,6.88,6.88,0,0,0,3.14-.75V53a4,4,0,0,1-3,1.41,4.2,4.2,0,0,1-4.31-4.43,4.27,4.27,0,0,1,4.19-4.41A4.23,4.23,0,0,1,44.72,47V44a6.36,6.36,0,0,0-3.08-.79A6.76,6.76,0,0,0,34.81,50Z" transform="translate(-10 -43.18)"/><polygon class="cls-1" points="54.57 8.98 51.15 0.36 48.41 0.36 53.86 13.52 55.2 13.52 60.75 0.36 58.03 0.36 54.57 8.98"/><polygon class="cls-1" points="61.88 13.19 68.97 13.19 68.97 11.02 64.38 11.02 64.38 7.56 68.81 7.56 68.81 5.38 64.38 5.38 64.38 2.53 68.97 2.53 68.97 0.36 61.88 0.36 61.88 13.19"/><path class="cls-1" d="M88.88,47.33c0-2.4-1.65-3.79-4.54-3.79H80.63V56.37h2.5V51.22h.33l3.46,5.15H90L86,51A3.4,3.4,0,0,0,88.88,47.33Zm-5,2.12h-.73V45.56h.77c1.56,0,2.41.65,2.41,1.9S85.46,49.45,83.86,49.45Z" transform="translate(-10 -43.18)"/><path class="cls-2" d="M59.19,50a6.83,6.83,0,1,1-6.83-6.82A6.83,6.83,0,0,1,59.19,50Z" transform="translate(-10 -43.18)"/><path class="cls-3" d="M59.19,50a6.83,6.83,0,1,1-6.83-6.82A6.83,6.83,0,0,1,59.19,50Z" transform="translate(-10 -43.18)"/></svg>