<?xml version="1.0" encoding="utf-8"?>
<!-- Generator: Adobe Illustrator 24.1.1, SVG Export Plug-In . SVG Version: 6.00 Build 0)  -->
<svg version="1.1" id="Layer_1" xmlns="http://www.w3.org/2000/svg" xmlns:xlink="http://www.w3.org/1999/xlink" x="0px" y="0px"
	 viewBox="0 0 100 100" style="enable-background:new 0 0 100 100;" xml:space="preserve">
<style type="text/css">
	.st0{fill:#D7D7D7;}
	.st1{fill:#221F1F;}
	.st2{fill:url(#XMLID_2_);}
	.st3{filter:url(#Adobe_OpacityMaskFilter);}
	.st4{filter:url(#Adobe_OpacityMaskFilter_1_);}
	.st5{mask:url(#XMLID_3_);fill:url(#XMLID_4_);}
	.st6{opacity:0.65;fill:url(#XMLID_7_);}
</style>
<g>
	<path class="st0" d="M86.36,77.27H13.64c-2.01,0-3.64-1.63-3.64-3.64V26.36c0-2.01,1.63-3.64,3.64-3.64h72.73
		c2.01,0,3.64,1.63,3.64,3.64v47.27C90,75.64,88.37,77.27,86.36,77.27z"/>
	<g id="XMLID_1284_">
		<path class="st1" d="M53.35,65.95h-1.47v5.13h1.46c0.78,0,1.34-0.18,1.83-0.59c0.59-0.48,0.93-1.21,0.93-1.97
			C56.11,67,54.98,65.95,53.35,65.95z M54.52,69.8c-0.31,0.28-0.72,0.41-1.37,0.41h-0.27v-3.39h0.27c0.65,0,1.04,0.12,1.37,0.42
			c0.35,0.31,0.55,0.79,0.55,1.28C55.08,69,54.87,69.49,54.52,69.8z"/>
		<rect id="XMLID_1296_" x="56.57" y="65.95" class="st1" width="1" height="5.13"/>
		<path id="XMLID_1295_" class="st1" d="M60.02,67.91c-0.6-0.22-0.78-0.37-0.78-0.65c0-0.32,0.31-0.57,0.75-0.57
			c0.3,0,0.55,0.12,0.81,0.42l0.52-0.69c-0.43-0.38-0.95-0.57-1.51-0.57c-0.91,0-1.6,0.63-1.6,1.47c0,0.71,0.32,1.07,1.26,1.41
			c0.39,0.14,0.59,0.23,0.69,0.29c0.2,0.13,0.3,0.32,0.3,0.53c0,0.42-0.33,0.72-0.78,0.72c-0.48,0-0.86-0.24-1.09-0.68l-0.65,0.62
			c0.46,0.68,1.02,0.98,1.78,0.98c1.04,0,1.77-0.69,1.77-1.69C61.49,68.7,61.15,68.33,60.02,67.91z"/>
		<path id="XMLID_1294_" class="st1" d="M61.81,68.52c0,1.51,1.18,2.68,2.71,2.68c0.43,0,0.8-0.08,1.26-0.3v-1.18
			c-0.4,0.4-0.75,0.56-1.21,0.56c-1.01,0-1.72-0.73-1.72-1.77c0-0.99,0.74-1.76,1.68-1.76c0.48,0,0.84,0.17,1.26,0.58v-1.18
			c-0.44-0.22-0.8-0.32-1.23-0.32C63.02,65.83,61.81,67.02,61.81,68.52z"/>
		<polygon id="XMLID_1293_" class="st1" points="73.71,69.39 72.34,65.95 71.25,65.95 73.42,71.21 73.96,71.21 76.18,65.95 
			75.1,65.95 		"/>
		<polygon id="XMLID_1292_" class="st1" points="76.63,71.08 79.47,71.08 79.47,70.21 77.63,70.21 77.63,68.82 79.4,68.82 
			79.4,67.95 77.63,67.95 77.63,66.82 79.47,66.82 79.47,65.95 76.63,65.95 		"/>
		<path class="st1" d="M83.44,67.46c0-0.96-0.66-1.52-1.82-1.52h-1.48v5.13h1v-2.06h0.13l1.39,2.06h1.23l-1.62-2.16
			C83.02,68.76,83.44,68.25,83.44,67.46z M81.43,68.31h-0.29v-1.55h0.31c0.62,0,0.96,0.26,0.96,0.76
			C82.41,68.03,82.07,68.31,81.43,68.31z"/>
		<g>
			<g>
				<linearGradient id="XMLID_2_" gradientUnits="userSpaceOnUse" x1="70.2265" y1="70.7174" x2="68.3362" y2="67.7577">
					<stop  offset="0" style="stop-color:#F79E20"/>
					<stop  offset="0.2502" style="stop-color:#F79920"/>
					<stop  offset="0.5331" style="stop-color:#F58C20"/>
					<stop  offset="0.6196" style="stop-color:#F58620"/>
					<stop  offset="0.7103" style="stop-color:#F48121"/>
					<stop  offset="1" style="stop-color:#F17522"/>
				</linearGradient>
				<path id="XMLID_1289_" class="st2" d="M71.56,68.53c0,1.51-1.22,2.73-2.73,2.73c-1.51,0-2.73-1.22-2.73-2.73
					c0-1.51,1.22-2.73,2.73-2.73C70.34,65.8,71.56,67.02,71.56,68.53z"/>
				<defs>
					<filter id="Adobe_OpacityMaskFilter" filterUnits="userSpaceOnUse" x="66.1" y="65.8" width="5.46" height="5.46">
						<feFlood  style="flood-color:white;flood-opacity:1" result="back"/>
						<feBlend  in="SourceGraphic" in2="back" mode="normal"/>
					</filter>
				</defs>
				<mask maskUnits="userSpaceOnUse" x="66.1" y="65.8" width="5.46" height="5.46" id="XMLID_3_">
					<g id="XMLID_5_" class="st3">
						<defs>
							<filter id="Adobe_OpacityMaskFilter_1_" filterUnits="userSpaceOnUse" x="66.1" y="65.8" width="5.46" height="5.46">
								<feFlood  style="flood-color:white;flood-opacity:1" result="back"/>
								<feBlend  in="SourceGraphic" in2="back" mode="normal"/>
							</filter>
						</defs>
						<mask maskUnits="userSpaceOnUse" x="66.1" y="65.8" width="5.46" height="5.46" id="XMLID_3_">
							<g id="XMLID_21_" class="st4">
							</g>
						</mask>
						<linearGradient id="XMLID_4_" gradientUnits="userSpaceOnUse" x1="69.9279" y1="70.6771" x2="67.1652" y2="65.2772">
							<stop  offset="0" style="stop-color:#000000"/>
							<stop  offset="0.0264" style="stop-color:#080808"/>
							<stop  offset="0.2097" style="stop-color:#3F3F3F"/>
							<stop  offset="0.3886" style="stop-color:#6C6C6C"/>
							<stop  offset="0.5591" style="stop-color:#8F8F8F"/>
							<stop  offset="0.7189" style="stop-color:#A8A8A8"/>
							<stop  offset="0.8642" style="stop-color:#B7B7B7"/>
							<stop  offset="0.9816" style="stop-color:#BDBDBD"/>
						</linearGradient>
						<path id="XMLID_6_" class="st5" d="M71.56,68.53c0,1.51-1.22,2.73-2.73,2.73c-1.51,0-2.73-1.22-2.73-2.73
							c0-1.51,1.22-2.73,2.73-2.73C70.34,65.8,71.56,67.02,71.56,68.53z"/>
					</g>
				</mask>
				<linearGradient id="XMLID_7_" gradientUnits="userSpaceOnUse" x1="69.9279" y1="70.6771" x2="67.1652" y2="65.2772">
					<stop  offset="0" style="stop-color:#F58620"/>
					<stop  offset="0.3419" style="stop-color:#E27026"/>
					<stop  offset="0.6952" style="stop-color:#D5612A"/>
					<stop  offset="0.9816" style="stop-color:#D05C2C"/>
				</linearGradient>
				<path id="XMLID_1285_" class="st6" d="M71.56,68.53c0,1.51-1.22,2.73-2.73,2.73c-1.51,0-2.73-1.22-2.73-2.73
					c0-1.51,1.22-2.73,2.73-2.73C70.34,65.8,71.56,67.02,71.56,68.53z"/>
			</g>
		</g>
	</g>
</g>
</svg>
