<svg xmlns="http://www.w3.org/2000/svg" viewBox="0 0 80 54.98"><defs><style>.cls-1{fill:#017d86;}</style></defs><title>DNB</title><g id="Layer_2" data-name="Layer 2"><g id="DNB"><path class="cls-1" d="M48.71,0c1,0,1.94,0,2.9,0a7.76,7.76,0,0,0,0,1.36V42.09a.88.88,0,0,1-1.55.42Q40.66,30.6,31.31,18.68q0,18.13,0,36.3c-1,0-1.91,0-2.87,0V15.9c0-1,0-2.09,0-3.13a.88.88,0,0,1,1.56-.4c6.23,7.93,12.45,15.9,18.68,23.82C48.73,24.16,48.7,12.08,48.71,0Z"/><path class="cls-1" d="M9.78,12.3A13.06,13.06,0,0,1,17.51,15a12.84,12.84,0,0,1,4.16,6.09,21,21,0,0,1,1,8.44,17,17,0,0,1-2.14,7,12.1,12.1,0,0,1-3.94,4.14,13.51,13.51,0,0,1-7.18,2H1a1,1,0,0,1-1-1V13.38a1,1,0,0,1,.44-.94,1.44,1.44,0,0,1,.8-.15C4.08,12.3,6.94,12.26,9.78,12.3Zm-6.9,2.86V39.87c2.2,0,4.4,0,6.62,0a10.11,10.11,0,0,0,6.5-2.3,10.75,10.75,0,0,0,3.19-5.12,17.43,17.43,0,0,0,.32-8.37,11.79,11.79,0,0,0-2.85-6,9.88,9.88,0,0,0-7-2.92Z"/><path class="cls-1" d="M68.33,12.29a12.27,12.27,0,0,1,6.4,1.55,6.65,6.65,0,0,1,3,4.29,9.63,9.63,0,0,1-.56,6,7.22,7.22,0,0,1-1.71,2.24,8.27,8.27,0,0,1,4,4.16,9.39,9.39,0,0,1,.28,5.72,7.68,7.68,0,0,1-3.09,4.54,12.62,12.62,0,0,1-7,1.9H59.48a1,1,0,0,1-1.11-1V13.26a.93.93,0,0,1,1-1Zm-7.09,2.87c0,3.37,0,6.74,0,10.12h9.18a4.52,4.52,0,0,0,3.87-1.88,6.43,6.43,0,0,0,.63-4.49,3.92,3.92,0,0,0-2-2.82,11.66,11.66,0,0,0-5.63-.93Zm0,13v11.7c2.88,0,5.77,0,8.65,0a8.79,8.79,0,0,0,5.59-1.78A5.38,5.38,0,0,0,77.14,34a5,5,0,0,0-1.76-4.19,7.56,7.56,0,0,0-5.08-1.61Q65.77,28.16,61.24,28.17Z"/></g></g></svg>