<svg xmlns="http://www.w3.org/2000/svg" viewBox="0 0 80 23.14"><defs><style>.cls-1{fill:#9e1a1d;}.cls-2{fill:#231f20;}.cls-3{fill:none;}</style></defs><title>Dotpay</title><g id="Layer_2" data-name="Layer 2"><g id="Dotpay"><path class="cls-1" d="M9.89,5H6.62A6.82,6.82,0,0,0,2.36,6.15,7,7,0,0,0,0,11.83,7,7,0,0,0,1.86,17c1.16,1.11,2.43,1.5,5,1.5H13V0H9.89V5Zm0,11h-3c-2.46,0-3.66-1.41-3.66-4.37,0-2.8,1.31-4.19,3.88-4.19h2.8V16Z"/><path class="cls-1" d="M29.3,5H26.84V7.45H29.3V14c0,1.94.28,2.89,1,3.63s1.5.89,3.19.89h2.66V16H34.65c-1.88,0-2.22-.36-2.22-2.46V7.45h3.75V5H32.43V0H29.3V5Z"/><path class="cls-2" d="M37,5V23.14h3.13V18.48H43c2.58,0,3.77-.36,4.91-1.44a7.41,7.41,0,0,0,1.91-5.24,7,7,0,0,0-2-5.4C46.66,5.32,45.55,5,43,5Zm3.13,2.47H42.7c2.63,0,3.88,1.33,3.88,4.13a5.12,5.12,0,0,1-1,3.52,4,4,0,0,1-3,.91H40.12V7.45Z"/><path class="cls-2" d="M55.5,10.25a8,8,0,0,0-3.19.44,4,4,0,0,0-2.1,3.74,4,4,0,0,0,1.47,3.25c.88.66,1.63.8,4.37.8h7.26V10.36c0-2.13-.25-3.1-1-4S60.38,5,57.55,5H50.93V7.45h6.31c1.56,0,2.14.2,2.55.78s.39.86.39,2Zm4.68,2.47V16h-4.4c-1.69,0-2.36-.44-2.36-1.6a1.53,1.53,0,0,1,.89-1.53,3.59,3.59,0,0,1,1.47-.16Z"/><path class="cls-2" d="M73,16H69.76c-1.94,0-2.49-.72-2.49-3.32V5H64.14v7.48c0,2.66.17,3.46.94,4.43.94,1.14,2.16,1.58,4.38,1.58H73c0,1.11-.13,1.42-.55,1.69s-.77.36-2.13.36H64.14V23H70.4c2.47,0,3.55-.3,4.43-1.19s1.31-2.44,1.31-4.66V5H73V16Z"/><path class="cls-3" d="M21.89,8.89a.24.24,0,0,0-.18-.09H19.34a.26.26,0,0,0-.19.09.32.32,0,0,0-.09.23v2H22v-2A.32.32,0,0,0,21.89,8.89Z"/><path class="cls-3" d="M21.89,8.89a.24.24,0,0,0-.18-.09H19.34a.26.26,0,0,0-.19.09.32.32,0,0,0-.09.23v2H22v-2A.32.32,0,0,0,21.89,8.89Z"/><path class="cls-3" d="M21.71,8.8H19.34a.26.26,0,0,0-.19.09.32.32,0,0,0-.09.23v2H22v-2a.32.32,0,0,0-.09-.23A.24.24,0,0,0,21.71,8.8Z"/><path class="cls-3" d="M21.71,8.8H19.34a.26.26,0,0,0-.19.09.32.32,0,0,0-.09.23v2H22v-2a.32.32,0,0,0-.09-.23A.24.24,0,0,0,21.71,8.8Z"/><path class="cls-3" d="M23,11.2V9.12a1.34,1.34,0,0,0-1.31-1.35H19.34A1.32,1.32,0,0,0,18,9.12V11.2a.93.93,0,0,0-.57.85v2.78a.93.93,0,0,0,.93.93h4.28a.93.93,0,0,0,.92-.93V12.05A.93.93,0,0,0,23,11.2Zm-1-.07H19.06v-2a.32.32,0,0,1,.09-.23.26.26,0,0,1,.19-.09h2.37a.24.24,0,0,1,.18.09.32.32,0,0,1,.09.23Z"/><path class="cls-3" d="M23,11.2V9.12a1.34,1.34,0,0,0-1.31-1.35H19.34A1.32,1.32,0,0,0,18,9.12V11.2a.93.93,0,0,0-.57.85v2.78a.93.93,0,0,0,.93.93h4.28a.93.93,0,0,0,.92-.93V12.05A.93.93,0,0,0,23,11.2Zm-1-.07H19.06v-2a.32.32,0,0,1,.09-.23.26.26,0,0,1,.19-.09h2.37a.24.24,0,0,1,.18.09.32.32,0,0,1,.09.23Z"/><path class="cls-3" d="M23,11.24V9.16a1.32,1.32,0,0,0-1.31-1.35H19.28A1.33,1.33,0,0,0,18,9.16v2.08a.92.92,0,0,0-.56.85v2.78a.93.93,0,0,0,.92.93h4.28a.93.93,0,0,0,.93-.93V12.09A.92.92,0,0,0,23,11.24Zm-1-.11H19.06v-2a.32.32,0,0,1,.09-.23.26.26,0,0,1,.19-.09h2.37a.24.24,0,0,1,.18.09.32.32,0,0,1,.09.23Z"/><path class="cls-1" d="M21.71,8.8H19.34a.26.26,0,0,0-.19.09.32.32,0,0,0-.09.23v2H22v-2a.32.32,0,0,0-.09-.23A.24.24,0,0,0,21.71,8.8Z"/><path class="cls-1" d="M20.53,5.08a6.69,6.69,0,1,0,6.68,6.68A6.69,6.69,0,0,0,20.53,5.08Zm3,9.79a.93.93,0,0,1-.93.93H18.33a.93.93,0,0,1-.92-.93V12.09a.92.92,0,0,1,.56-.85V9.16a1.33,1.33,0,0,1,1.31-1.35h2.37A1.32,1.32,0,0,1,23,9.16v2.08a.92.92,0,0,1,.58.85Z"/><path class="cls-2" d="M78.07,0a1.9,1.9,0,1,1-1.95,1.89A1.89,1.89,0,0,1,78.07,0Zm0,.38A1.46,1.46,0,0,0,76.6,1.92a1.46,1.46,0,1,0,2.92,0A1.47,1.47,0,0,0,78.06.41ZM77.76,2.9h-.43V1A4,4,0,0,1,78.05,1a1.09,1.09,0,0,1,.66.15.53.53,0,0,1,.18.41A.48.48,0,0,1,78.5,2V2c.19.06.29.21.35.46A1,1,0,0,0,79,2.9h-.48a1.88,1.88,0,0,1-.15-.45c0-.21-.15-.3-.39-.3h-.21Zm0-1.06H78c.24,0,.44-.08.44-.28s-.13-.28-.4-.28l-.24,0Z"/></g></g></svg>