<svg id="Layer_1" data-name="Layer 1" xmlns="http://www.w3.org/2000/svg" viewBox="0 0 79.99 18.91"><defs><style>.cls-1{fill:#8bc13f;}.cls-2{fill:#193863;}</style></defs><title>ecopayzVoucher</title><path class="cls-1" d="M23.79,40.54C16.17,40.54,10,44.15,10,48.63c0,1.9,1.12,3.64,3,5a6,6,0,0,1-1.46-3.8c0-4.64,6-8.41,13.48-8.41,4.8,0,9,1.56,11.4,3.92C34.29,42.53,29.43,40.54,23.79,40.54Z" transform="translate(-10 -40.54)"/><path class="cls-2" d="M22.57,50.92a2.37,2.37,0,0,0,1.35-.35,1.27,1.27,0,0,0,.59-1.14,4.09,4.09,0,0,0-.9-2.55,5.61,5.61,0,0,0-2.32-1.77,5.73,5.73,0,0,0-2.19-.41,5.43,5.43,0,0,0-4,1.58,5.22,5.22,0,0,0-1.57,3.82,5,5,0,0,0,1.64,3.79,5.74,5.74,0,0,0,4.1,1.54,8.44,8.44,0,0,0,2.52-.37,4.09,4.09,0,0,0,2.09-1.25,1.4,1.4,0,0,0,.37-.9c0-.78-.44-1.17-1.31-1.17a6,6,0,0,0-1.48.49,5.44,5.44,0,0,1-2,.49,3,3,0,0,1-1.7-.47,1.77,1.77,0,0,1-.8-1.34h5.65Zm-4.92-3.27a2.24,2.24,0,0,1,1.48-.49,2.28,2.28,0,0,1,1.47.5A1.81,1.81,0,0,1,21.27,49H16.9A2.17,2.17,0,0,1,17.65,47.65Z" transform="translate(-10 -40.54)"/><path class="cls-2" d="M26.37,53.87a5.38,5.38,0,0,0,4,1.55,6.11,6.11,0,0,0,2.5-.45c.93-.42,1.39-.94,1.39-1.55a1.28,1.28,0,0,0-.36-.92,1.24,1.24,0,0,0-.93-.38,2.83,2.83,0,0,0-1,.22,3.64,3.64,0,0,1-1.29.22,2.34,2.34,0,0,1-1.85-.75A2.67,2.67,0,0,1,28.3,50a2.77,2.77,0,0,1,.55-1.77,2.09,2.09,0,0,1,1.74-.78,3.86,3.86,0,0,1,1.32.23,3,3,0,0,0,1,.23,1.34,1.34,0,0,0,1-.37,1.21,1.21,0,0,0,.39-.91c0-.7-.45-1.22-1.35-1.57a6.76,6.76,0,0,0-2.36-.37,5.72,5.72,0,0,0-4.14,1.5,5.59,5.59,0,0,0-.08,7.66Z" transform="translate(-10 -40.54)"/><path class="cls-2" d="M35.93,53.89A5.55,5.55,0,0,0,40,55.47a5.52,5.52,0,0,0,4.08-1.57,5.58,5.58,0,0,0,0-7.68A5.49,5.49,0,0,0,40,44.67a5.51,5.51,0,0,0-4,1.56,5.2,5.2,0,0,0-1.57,3.85,5.14,5.14,0,0,0,1.54,3.81Zm2.4-5.56a2,2,0,0,1,1.68-.8,1.93,1.93,0,0,1,1.66.82,2.73,2.73,0,0,1,.53,1.72,2.82,2.82,0,0,1-.51,1.73,2,2,0,0,1-1.68.82,1.93,1.93,0,0,1-1.66-.82,3.15,3.15,0,0,1,0-3.47Z" transform="translate(-10 -40.54)"/><path class="cls-1" d="M50.26,44.41h1.48q2.34,0,2.34,1.77c0,1.21-.78,1.81-2.34,1.81H50.26Zm0,8.72V50.81h2.3a5.63,5.63,0,0,0,3.82-1.21,4.28,4.28,0,0,0,1.39-3.41,4.16,4.16,0,0,0-1.54-3.45,6.1,6.1,0,0,0-3.94-1.17H49.21a2.74,2.74,0,0,0-1.85.48,2.28,2.28,0,0,0-.51,1.69v9.39c0,1.46.57,2.2,1.7,2.2s1.71-.74,1.71-2.2Z" transform="translate(-10 -40.54)"/><path class="cls-1" d="M61.92,48.39a1.92,1.92,0,0,1,1.61-.76,1.89,1.89,0,0,1,1.61.76,2.72,2.72,0,0,1,.49,1.66,2.8,2.8,0,0,1-.49,1.68,1.88,1.88,0,0,1-1.61.78,1.93,1.93,0,0,1-1.63-.78,2.75,2.75,0,0,1-.51-1.68,2.6,2.6,0,0,1,.53-1.66Zm5.43,6.93c1.09,0,1.64-.73,1.64-2.2V47.05c0-1.46-.55-2.19-1.64-2.19a1.77,1.77,0,0,0-1.58,1,3.47,3.47,0,0,0-2.67-1.08,4.76,4.76,0,0,0-3.75,1.68A5.33,5.33,0,0,0,58,50.08a5.42,5.42,0,0,0,1.33,3.64A4.67,4.67,0,0,0,63,55.4a3.55,3.55,0,0,0,2.79-1.14,1.65,1.65,0,0,0,1.58,1.06Z" transform="translate(-10 -40.54)"/><path class="cls-1" d="M76.69,46.05l-2,4.81-1.89-4.55a3.94,3.94,0,0,0-.55-1,1.47,1.47,0,0,0-1.13-.43,1.62,1.62,0,0,0-1.16.43,1.39,1.39,0,0,0-.46,1.06,2,2,0,0,0,.18.84L73,54.28,71.62,57a2.43,2.43,0,0,0-.27,1,1.33,1.33,0,0,0,.45,1.06,1.76,1.76,0,0,0,1.19.39c.59,0,1.07-.4,1.46-1.21l5.07-10.91a2.51,2.51,0,0,0,.27-1c0-1-.55-1.44-1.64-1.44-.64,0-1.12.41-1.46,1.2Z" transform="translate(-10 -40.54)"/><path class="cls-1" d="M87.93,52.38H84.65l4.4-5.14a2.21,2.21,0,0,0,.67-1.33.71.71,0,0,0-.51-.76A5.6,5.6,0,0,0,87.63,45H82.32c-1.41,0-2.11.45-2.11,1.36s.7,1.38,2.09,1.38h2.85L80.6,53.08a1.79,1.79,0,0,0-.49,1.16q0,.93,1.74.93H87.9c1.39,0,2.09-.46,2.09-1.38s-.68-1.41-2.06-1.41Z" transform="translate(-10 -40.54)"/></svg>