<svg id="Layer_1" data-name="Layer 1" xmlns="http://www.w3.org/2000/svg" viewBox="0 0 79.95 18.9"><defs><style>.cls-1{fill:#8dc23f;}.cls-2{fill:#193863;}</style></defs><title>ecoPayz</title><g id="ecoPayz"><g id="_Group_" data-name=" Group "><path id="_Compound_Path_" data-name=" Compound Path " class="cls-1" d="M13.79,0C6.17,0,0,3.61,0,8.09a6.46,6.46,0,0,0,3,5.05,6,6,0,0,1-1.46-3.8C1.55,4.7,7.59.93,15,.93c4.8,0,9,1.56,11.4,3.93C24.29,2,19.43,0,13.79,0Z"/><path id="_Compound_Path_2" data-name=" Compound Path 2" class="cls-2" d="M12.57,10.38A2.41,2.41,0,0,0,13.93,10a1.28,1.28,0,0,0,.59-1.14,4.07,4.07,0,0,0-.9-2.55A5.41,5.41,0,0,0,11.3,4.57a5.48,5.48,0,0,0-2.19-.42,5.38,5.38,0,0,0-4,1.59A5.22,5.22,0,0,0,3.53,9.56a5,5,0,0,0,1.64,3.8,5.79,5.79,0,0,0,4.1,1.54,8.67,8.67,0,0,0,2.53-.38,4,4,0,0,0,2.09-1.25,1.45,1.45,0,0,0,.37-.89c0-.79-.44-1.18-1.32-1.18a5.94,5.94,0,0,0-1.47.5,5.55,5.55,0,0,1-2,.49,3,3,0,0,1-1.71-.46A1.82,1.82,0,0,1,7,10.38ZM7.65,7.11a2.21,2.21,0,0,1,1.48-.49,2.19,2.19,0,0,1,1.47.5,1.81,1.81,0,0,1,.66,1.29H6.89A2.23,2.23,0,0,1,7.65,7.11Z"/><path id="_Compound_Path_3" data-name=" Compound Path 3" class="cls-2" d="M16.37,13.33a5.38,5.38,0,0,0,4,1.55,6.09,6.09,0,0,0,2.5-.45c.93-.42,1.4-.94,1.4-1.55a1.27,1.27,0,0,0-.36-.92,1.2,1.2,0,0,0-.94-.38,2.9,2.9,0,0,0-1,.22,3.54,3.54,0,0,1-1.29.22,2.33,2.33,0,0,1-1.85-.74,2.69,2.69,0,0,1-.57-1.79,2.74,2.74,0,0,1,.55-1.77,2.07,2.07,0,0,1,1.74-.79,3.77,3.77,0,0,1,1.33.24,3.16,3.16,0,0,0,1,.23,1.37,1.37,0,0,0,1-.37,1.23,1.23,0,0,0,.39-.92c0-.69-.45-1.22-1.36-1.56a6.56,6.56,0,0,0-2.36-.38,5.74,5.74,0,0,0-4.14,1.5,5.16,5.16,0,0,0-1.56,3.87,5.16,5.16,0,0,0,1.48,3.79Z"/><path id="_Compound_Path_4" data-name=" Compound Path 4" class="cls-2" d="M25.93,13.35A5.55,5.55,0,0,0,30,14.93a5.53,5.53,0,0,0,4.08-1.56A5.22,5.22,0,0,0,35.6,9.54a5.26,5.26,0,0,0-1.54-3.86A5.46,5.46,0,0,0,30,4.14a5.51,5.51,0,0,0-4,1.55,5.2,5.2,0,0,0-1.57,3.85A5.14,5.14,0,0,0,26,13.35Zm2.4-5.56A2,2,0,0,1,30,7a1.92,1.92,0,0,1,1.66.82,2.72,2.72,0,0,1,.53,1.72,2.88,2.88,0,0,1-.51,1.73,2,2,0,0,1-1.68.82,1.92,1.92,0,0,1-1.66-.82,2.76,2.76,0,0,1-.54-1.73,2.85,2.85,0,0,1,.52-1.74Z"/><path id="_Compound_Path_5" data-name=" Compound Path 5" class="cls-1" d="M40.26,3.88h1.48q2.34,0,2.34,1.77c0,1.2-.78,1.81-2.34,1.81H40.26Zm0,8.71V10.27h2.3a5.61,5.61,0,0,0,3.82-1.21,4.3,4.3,0,0,0,1.39-3.41A4.15,4.15,0,0,0,46.23,2.2,6.06,6.06,0,0,0,42.29,1H39.22a2.64,2.64,0,0,0-1.85.49,2.25,2.25,0,0,0-.51,1.69v9.39c0,1.46.57,2.19,1.7,2.19s1.7-.73,1.7-2.19Z"/><path id="_Compound_Path_6" data-name=" Compound Path 6" class="cls-1" d="M51.92,7.85a1.92,1.92,0,0,1,1.61-.77,1.9,1.9,0,0,1,1.61.77,2.72,2.72,0,0,1,.49,1.66,2.77,2.77,0,0,1-.49,1.67,1.86,1.86,0,0,1-1.61.79,1.9,1.9,0,0,1-1.63-.79,2.71,2.71,0,0,1-.51-1.67A2.61,2.61,0,0,1,51.92,7.85Zm5.43,6.93c1.1,0,1.64-.73,1.64-2.2V6.51c0-1.46-.54-2.19-1.64-2.19a1.78,1.78,0,0,0-1.58.95,3.47,3.47,0,0,0-2.66-1.08,4.81,4.81,0,0,0-3.76,1.68A5.33,5.33,0,0,0,48,9.54a5.4,5.4,0,0,0,1.33,3.64A4.69,4.69,0,0,0,53,14.86a3.56,3.56,0,0,0,2.78-1.14,1.65,1.65,0,0,0,1.58,1.06Z"/><path id="_Compound_Path_7" data-name=" Compound Path 7" class="cls-1" d="M66.69,5.52l-2,4.81L62.77,5.78a3.75,3.75,0,0,0-.55-1,1.53,1.53,0,0,0-1.13-.43,1.66,1.66,0,0,0-1.16.43,1.39,1.39,0,0,0-.46,1.06,2,2,0,0,0,.18.84L63,13.75l-1.36,2.71a2.34,2.34,0,0,0-.28,1,1.31,1.31,0,0,0,.45,1.05A1.78,1.78,0,0,0,63,18.9c.59,0,1.08-.4,1.46-1.21L69.52,6.8a2.64,2.64,0,0,0,.26-1c0-1-.54-1.44-1.64-1.44-.63,0-1.11.4-1.45,1.2Z"/><path id="_Compound_Path_8" data-name=" Compound Path 8" class="cls-1" d="M77.93,11.84H74.66l4.4-5.15a2.24,2.24,0,0,0,.67-1.32.72.72,0,0,0-.51-.76,6,6,0,0,0-1.58-.16H72.33c-1.41,0-2.11.46-2.11,1.36s.69,1.38,2.09,1.38h2.85l-4.55,5.36a1.78,1.78,0,0,0-.5,1.15c0,.62.58.93,1.75.93h6c1.39,0,2.09-.46,2.09-1.38s-.69-1.41-2.07-1.41Z"/></g></g></svg>