<svg xmlns="http://www.w3.org/2000/svg" xmlns:xlink="http://www.w3.org/1999/xlink" viewBox="0 0 80 53.4"><defs><style>.cls-1{fill:#00aeef;}.cls-2{fill:#8dc63f;}.cls-3{fill:url(#linear-gradient);}.cls-4{fill:url(#linear-gradient-2);}.cls-5{fill:url(#linear-gradient-3);}.cls-6{fill:#f7941d;}</style><linearGradient id="linear-gradient" x1="37.5" y1="-16333.83" x2="74.91" y2="-16333.83" gradientTransform="matrix(1, 0, 0, -1, 0, -16328.6)" gradientUnits="userSpaceOnUse"><stop offset="0.84" stop-color="#8dc63f"/><stop offset="1" stop-color="#f7941d"/></linearGradient><linearGradient id="linear-gradient-2" x1="42.92" y1="-16343.24" x2="74.91" y2="-16343.24" gradientTransform="matrix(1, 0, 0, -1, 0, -16328.6)" gradientUnits="userSpaceOnUse"><stop offset="0.84" stop-color="#39b54a"/><stop offset="1" stop-color="#f7941d"/></linearGradient><linearGradient id="linear-gradient-3" x1="57.3" y1="-16345.55" x2="74.91" y2="-16345.55" gradientTransform="matrix(1, 0, 0, -1, 0, -16328.6)" gradientUnits="userSpaceOnUse"><stop offset="0.84" stop-color="#00a68a"/><stop offset="1" stop-color="#f7941d"/></linearGradient></defs><title>EDEQ</title><g id="Layer_2" data-name="Layer 2"><g id="EDEQ"><path class="cls-1" d="M15,37.45H8.54a5.28,5.28,0,0,1-5.09-4.22H17.12V30a8,8,0,0,0-8-8H8a8,8,0,0,0-8,8v3.23a8,8,0,0,0,8,8h7a1.87,1.87,0,1,0,0-3.73ZM8.56,25.68a5.29,5.29,0,0,1,5,3.87h-10A5.27,5.27,0,0,1,8.56,25.68Z"/><path class="cls-1" d="M55.72,37.45H49.24a5.28,5.28,0,0,1-5.09-4.22H57.82V30a8,8,0,0,0-8-8H48.7a8,8,0,0,0-8,8v3.23a8,8,0,0,0,8,8h7a1.87,1.87,0,1,0,0-3.73ZM49.26,25.68a5.29,5.29,0,0,1,5,3.87H44.23A5.29,5.29,0,0,1,49.26,25.68Z"/><path class="cls-1" d="M35.79,2.11h-.41a1.47,1.47,0,0,0-1.47,1.47V22h-5.5a8,8,0,0,0-8,8v2.7a8,8,0,0,0,8,8h.85a8,8,0,0,0,8-8V3.58A1.47,1.47,0,0,0,35.79,2.11ZM33.91,32.65a4.66,4.66,0,0,1-4.65,4.65h-.85a4.65,4.65,0,0,1-4.64-4.65V30a4.65,4.65,0,0,1,4.64-4.65h5.5Z"/><path class="cls-1" d="M78,51.93v-22a8,8,0,0,0-8-8h-.84a8,8,0,0,0-8,8v2.7a8,8,0,0,0,8,8h5.49V51.93a1.47,1.47,0,0,0,1.47,1.47h.41A1.47,1.47,0,0,0,78,51.93ZM74.65,37.26H69.16a4.65,4.65,0,0,1-4.65-4.65v-2.7a4.65,4.65,0,0,1,4.65-4.64H70a4.65,4.65,0,0,1,4.65,4.64Z"/><path class="cls-2" d="M3.75,43.71v3.9H3.19v-3.9Z"/><path class="cls-2" d="M5.34,44.83a1.41,1.41,0,0,1,.54.11,1.32,1.32,0,0,1,.44.3,1.66,1.66,0,0,1,.3.43,1.42,1.42,0,0,1,.1.55v1.39H5.34a1.41,1.41,0,0,1-.54-.11,1.38,1.38,0,0,1-.75-.75,1.32,1.32,0,0,1-.11-.53,1.42,1.42,0,0,1,.11-.55,1.28,1.28,0,0,1,.3-.43,1.37,1.37,0,0,1,.45-.3A1.41,1.41,0,0,1,5.34,44.83Zm.83,2.23v-.84a.88.88,0,0,0-.06-.33,1,1,0,0,0-.18-.26.8.8,0,0,0-.27-.18.71.71,0,0,0-.32-.07.72.72,0,0,0-.33.07.8.8,0,0,0-.27.18.68.68,0,0,0-.18.26.79.79,0,0,0,0,.65.64.64,0,0,0,.18.27A.8.8,0,0,0,5,47a.72.72,0,0,0,.33.07Z"/><path class="cls-2" d="M12.16,46.63l.39.39-.19.19a1.35,1.35,0,0,1-.45.31,1.4,1.4,0,0,1-.54.1,1.39,1.39,0,0,1-.53-.1,1.25,1.25,0,0,1-.45-.31,1.15,1.15,0,0,1-.3-.46,1.4,1.4,0,0,1,0-1,1.22,1.22,0,0,1,.3-.46,1.29,1.29,0,0,1,.46-.31,1.6,1.6,0,0,1,.52-.1,1.66,1.66,0,0,1,.53.1,1.38,1.38,0,0,1,.46.31l.19.19L11,47a.77.77,0,0,0,.5.08.79.79,0,0,0,.46-.24Zm-1.38-1a.82.82,0,0,0-.25.6.74.74,0,0,0,.09.36l.22-.22.33-.32.32-.33.25-.24a.79.79,0,0,0-.5-.08A.75.75,0,0,0,10.78,45.63Z"/><path class="cls-2" d="M12.84,45.68a1.49,1.49,0,0,1,.3-.44,1.71,1.71,0,0,1,.44-.3,1.4,1.4,0,0,1,.54-.1,1.33,1.33,0,0,1,.54.1,1.77,1.77,0,0,1,.45.3,1.71,1.71,0,0,1,.3.44,1.4,1.4,0,0,1,.1.54v1.4H15v-1.4a.87.87,0,0,0-.06-.32.83.83,0,0,0-.45-.45.88.88,0,0,0-.33-.06.87.87,0,0,0-.32.06.83.83,0,0,0-.45.45.87.87,0,0,0-.06.32v1.4h-.55v-1.4A1.4,1.4,0,0,1,12.84,45.68Z"/><path class="cls-2" d="M17.88,46.63l.39.39-.19.19a1.25,1.25,0,0,1-.45.31,1.4,1.4,0,0,1-.54.1,1.39,1.39,0,0,1-.53-.1,1.25,1.25,0,0,1-.45-.31,1.15,1.15,0,0,1-.3-.46,1.4,1.4,0,0,1,0-1,1.22,1.22,0,0,1,.3-.46,1.38,1.38,0,0,1,.46-.31,1.43,1.43,0,0,1,1.05,0,1.38,1.38,0,0,1,.46.31l.19.19L16.73,47a.79.79,0,0,0,.5.08.79.79,0,0,0,.46-.24Zm-1.38-1a.82.82,0,0,0-.25.6.74.74,0,0,0,.09.36l.22-.22.33-.32.32-.33.25-.24a.83.83,0,0,0-1,.15Z"/><path class="cls-2" d="M20.13,44.83v.55h-.28a.72.72,0,0,0-.33.07.88.88,0,0,0-.44.44.72.72,0,0,0-.07.33v1.39h-.55V46.22a1.42,1.42,0,0,1,.1-.55,1.66,1.66,0,0,1,.3-.43,1.37,1.37,0,0,1,.45-.3,1.41,1.41,0,0,1,.54-.11Z"/><path class="cls-2" d="M21.68,44.83a1.41,1.41,0,0,1,.54.11,1.43,1.43,0,0,1,.44.3,1.42,1.42,0,0,1,.29.43,1.26,1.26,0,0,1,.11.55v1.11a1.22,1.22,0,0,1-.11.54,1.51,1.51,0,0,1-.29.45,1.9,1.9,0,0,1-.44.3,1.4,1.4,0,0,1-.54.1H21.4v-.55h.28a.78.78,0,0,0,.49-.16.85.85,0,0,0,.3-.4h-.79a1.41,1.41,0,0,1-.54-.11,1.38,1.38,0,0,1-.75-.75,1.32,1.32,0,0,1-.11-.53,1.42,1.42,0,0,1,.11-.55,1.28,1.28,0,0,1,.3-.43,1.37,1.37,0,0,1,.45-.3A1.41,1.41,0,0,1,21.68,44.83Zm-.85,1.39a.71.71,0,0,0,.07.32.83.83,0,0,0,.45.45.72.72,0,0,0,.33.07h.84v-.84a.72.72,0,0,0-.07-.33.68.68,0,0,0-.18-.26.64.64,0,0,0-.27-.18.71.71,0,0,0-.32-.07.72.72,0,0,0-.33.07.64.64,0,0,0-.27.18.68.68,0,0,0-.18.26A.72.72,0,0,0,20.83,46.22Z"/><path class="cls-2" d="M23.79,44.83v2.78h-.55V44.83Z"/><path class="cls-2" d="M25.35,44.83a1.33,1.33,0,0,1,.54.11,1.23,1.23,0,0,1,.44.3,1.28,1.28,0,0,1,.3.43,1.42,1.42,0,0,1,.11.55v1.39H25.35a1.41,1.41,0,0,1-.54-.11,1.32,1.32,0,0,1-.44-.3,1.37,1.37,0,0,1-.3-.45,1.32,1.32,0,0,1-.11-.53,1.42,1.42,0,0,1,.11-.55,1.28,1.28,0,0,1,.3-.43,1.32,1.32,0,0,1,.44-.3A1.41,1.41,0,0,1,25.35,44.83Zm.84,2.23v-.84a.72.72,0,0,0-.07-.33.88.88,0,0,0-.44-.44.72.72,0,0,0-.33-.07.78.78,0,0,0-.33.07.88.88,0,0,0-.44.44.72.72,0,0,0-.07.33.71.71,0,0,0,.07.32.64.64,0,0,0,.18.27A.68.68,0,0,0,25,47a.78.78,0,0,0,.33.07Z"/><path class="cls-2" d="M32.78,43.71v2.51a1.17,1.17,0,0,1-.11.53,1.51,1.51,0,0,1-.29.45,1.42,1.42,0,0,1-1,.41,1.41,1.41,0,0,1-.54-.11,1.38,1.38,0,0,1-.75-.75,1.32,1.32,0,0,1-.11-.53,1.42,1.42,0,0,1,.11-.55,1.28,1.28,0,0,1,.3-.43,1.37,1.37,0,0,1,.45-.3,1.41,1.41,0,0,1,.54-.11h.83V43.71ZM31.4,47.06a.71.71,0,0,0,.32-.07.8.8,0,0,0,.27-.18.91.91,0,0,0,.18-.27.87.87,0,0,0,.06-.32v-.84H31.4a.72.72,0,0,0-.33.07.64.64,0,0,0-.27.18.68.68,0,0,0-.18.26.79.79,0,0,0,0,.65.83.83,0,0,0,.45.45A.72.72,0,0,0,31.4,47.06Z"/><path class="cls-2" d="M35.15,46.63l.39.39-.19.19a1.25,1.25,0,0,1-.45.31,1.39,1.39,0,0,1-.53.1,1.4,1.4,0,0,1-.54-.1,1.35,1.35,0,0,1-.45-.31,1.41,1.41,0,0,1-.3-.46,1.4,1.4,0,0,1,0-1,1.52,1.52,0,0,1,.3-.46,1.38,1.38,0,0,1,.46-.31,1.66,1.66,0,0,1,.53-.1,1.6,1.6,0,0,1,.52.1,1.29,1.29,0,0,1,.46.31l.19.19L34,47a.79.79,0,0,0,.5.08.77.77,0,0,0,.46-.24Zm-1.38-1a.85.85,0,0,0-.24.6.73.73,0,0,0,.08.36l.23-.22.32-.32.33-.33.24-.24a.83.83,0,0,0-1,.15Z"/><path class="cls-2" d="M38.93,45.68a1.49,1.49,0,0,1,.3-.44,1.71,1.71,0,0,1,.44-.3,1.4,1.4,0,0,1,.54-.1,1.33,1.33,0,0,1,.54.1,1.77,1.77,0,0,1,.45.3,1.71,1.71,0,0,1,.3.44,1.4,1.4,0,0,1,.1.54v1.4h-.55v-1.4A.87.87,0,0,0,41,45.9a.83.83,0,0,0-.45-.45.88.88,0,0,0-.33-.06.87.87,0,0,0-.32.06.83.83,0,0,0-.45.45.87.87,0,0,0-.06.32v1.4h-.56v-1.4A1.41,1.41,0,0,1,38.93,45.68Z"/><path class="cls-2" d="M44.58,44.83v1.39a1.32,1.32,0,0,1-.11.53,1.38,1.38,0,0,1-.75.75,1.33,1.33,0,0,1-.54.11,1.41,1.41,0,0,1-.54-.11,1.43,1.43,0,0,1-.44-.3,1.77,1.77,0,0,1-.3-.45,1.32,1.32,0,0,1-.1-.53V44.83h.55v1.39a.87.87,0,0,0,.06.32.91.91,0,0,0,.18.27.8.8,0,0,0,.27.18.71.71,0,0,0,.32.07.72.72,0,0,0,.33-.07.8.8,0,0,0,.27-.18.64.64,0,0,0,.18-.27.88.88,0,0,0,.07-.32V44.83Z"/><path class="cls-2" d="M46.92,46.63l.39.39-.2.19a1.25,1.25,0,0,1-.45.31,1.45,1.45,0,0,1-1.06,0,1.25,1.25,0,0,1-.45-.31,1.29,1.29,0,0,1-.31-.46,1.4,1.4,0,0,1,0-1,1.38,1.38,0,0,1,.31-.46,1.29,1.29,0,0,1,.46-.31,1.4,1.4,0,0,1,1,0,1.29,1.29,0,0,1,.46.31l.2.19L45.76,47a.8.8,0,0,0,.5.08.77.77,0,0,0,.46-.24Zm-1.38-1a.82.82,0,0,0-.25.6.86.86,0,0,0,.08.36l.23-.22.32-.32.33-.33.25-.24a.8.8,0,0,0-.5-.08A.75.75,0,0,0,45.54,45.63Z"/><path class="cls-2" d="M50,44.83v.55H48.32a.28.28,0,0,0-.2.08.24.24,0,0,0-.08.2.26.26,0,0,0,.08.2.24.24,0,0,0,.2.08h1.11a.93.93,0,0,1,.33.07.88.88,0,0,1,.44.44.79.79,0,0,1,0,.65.88.88,0,0,1-.44.44.75.75,0,0,1-.33.07H47.76v-.55h1.67a.28.28,0,0,0,.2-.08.27.27,0,0,0,.09-.21.25.25,0,0,0-.09-.19.25.25,0,0,0-.2-.09H48.32a.88.88,0,0,1-.33-.06.68.68,0,0,1-.26-.18.71.71,0,0,1-.18-.27.87.87,0,0,1-.06-.32.92.92,0,0,1,.06-.33.76.76,0,0,1,.18-.26,1,1,0,0,1,.26-.18.88.88,0,0,1,.33-.06Z"/><path class="cls-2" d="M52.11,47.06v.55h-.28a1.41,1.41,0,0,1-.54-.11,1.32,1.32,0,0,1-.44-.3,1.37,1.37,0,0,1-.3-.45,1.32,1.32,0,0,1-.11-.53V43.71H51v1.68h1.12v.55H51v.28a.71.71,0,0,0,.07.32.64.64,0,0,0,.18.27.68.68,0,0,0,.26.18.78.78,0,0,0,.33.07Z"/><path class="cls-2" d="M54,44.83v.55H53.7a.72.72,0,0,0-.33.07.8.8,0,0,0-.27.18.78.78,0,0,0-.17.26.72.72,0,0,0-.07.33v1.39H52.3V46.22a1.42,1.42,0,0,1,.11-.55,1.28,1.28,0,0,1,.3-.43,1.37,1.37,0,0,1,.45-.3,1.41,1.41,0,0,1,.54-.11Z"/><path class="cls-2" d="M55.52,44.83a1.33,1.33,0,0,1,.54.11,1.23,1.23,0,0,1,.44.3,1.28,1.28,0,0,1,.3.43,1.42,1.42,0,0,1,.11.55v1.39H55.52A1.41,1.41,0,0,1,55,47.5a1.32,1.32,0,0,1-.44-.3,1.37,1.37,0,0,1-.3-.45,1.32,1.32,0,0,1-.11-.53,1.42,1.42,0,0,1,.11-.55,1.28,1.28,0,0,1,.3-.43,1.32,1.32,0,0,1,.44-.3A1.41,1.41,0,0,1,55.52,44.83Zm.84,2.23v-.84a.72.72,0,0,0-.07-.33.88.88,0,0,0-.44-.44.72.72,0,0,0-.33-.07.78.78,0,0,0-.33.07.8.8,0,0,0-.27.18.78.78,0,0,0-.17.26.72.72,0,0,0-.07.33.71.71,0,0,0,.07.32.73.73,0,0,0,.17.27.8.8,0,0,0,.27.18.78.78,0,0,0,.33.07Z"/><path class="cls-2" d="M61.55,44.83a1.33,1.33,0,0,1,.54.11,1.23,1.23,0,0,1,.44.3,1.28,1.28,0,0,1,.3.43,1.42,1.42,0,0,1,.11.55v1.11a1.42,1.42,0,0,1-.41,1,1.55,1.55,0,0,1-.44.3,1.33,1.33,0,0,1-.54.1h-.28v-.55h.28a.81.81,0,0,0,.5-.16.85.85,0,0,0,.3-.4h-.8A1.41,1.41,0,0,1,61,47.5a1.32,1.32,0,0,1-.44-.3,1.37,1.37,0,0,1-.3-.45,1.32,1.32,0,0,1-.11-.53,1.42,1.42,0,0,1,.11-.55,1.28,1.28,0,0,1,.3-.43,1.32,1.32,0,0,1,.44-.3A1.41,1.41,0,0,1,61.55,44.83Zm-.84,1.39a.71.71,0,0,0,.07.32.64.64,0,0,0,.18.27.68.68,0,0,0,.26.18.78.78,0,0,0,.33.07h.84v-.84a.88.88,0,0,0-.06-.33.68.68,0,0,0-.18-.26.8.8,0,0,0-.27-.18.72.72,0,0,0-.33-.07.78.78,0,0,0-.33.07.88.88,0,0,0-.44.44A.72.72,0,0,0,60.71,46.22Z"/><path class="cls-2" d="M65.29,46.63l.39.39-.19.19a1.25,1.25,0,0,1-.45.31,1.39,1.39,0,0,1-.53.1,1.4,1.4,0,0,1-.54-.1,1.41,1.41,0,0,1-.75-.77,1.4,1.4,0,0,1,0-1,1.35,1.35,0,0,1,.3-.46,1.38,1.38,0,0,1,.46-.31,1.43,1.43,0,0,1,1.05,0,1.38,1.38,0,0,1,.46.31l.19.19L64.14,47a.79.79,0,0,0,.5.08.79.79,0,0,0,.46-.24Zm-1.38-1a.86.86,0,0,0-.25.6.74.74,0,0,0,.09.36l.23-.22.32-.32.33-.33.24-.24a.83.83,0,0,0-1,.15Z"/><path class="cls-2" d="M66,45.68a1.46,1.46,0,0,1,.29-.44,1.77,1.77,0,0,1,.45-.3,1.35,1.35,0,0,1,.53-.1,1.42,1.42,0,0,1,.55.1,1.9,1.9,0,0,1,.44.3,1.32,1.32,0,0,1,.3.44,1.41,1.41,0,0,1,.11.54v1.4H68.1v-1.4A.88.88,0,0,0,68,45.9a.8.8,0,0,0-.18-.27.64.64,0,0,0-.27-.18.88.88,0,0,0-.33-.06.87.87,0,0,0-.32.06.8.8,0,0,0-.27.18,1.27,1.27,0,0,0-.18.27.87.87,0,0,0-.06.32v1.4h-.55v-1.4A1.24,1.24,0,0,1,66,45.68Z"/><path class="cls-2" d="M70.5,47.06v.55h-.27a1.41,1.41,0,0,1-.54-.11,1.38,1.38,0,0,1-.75-.75,1.32,1.32,0,0,1-.11-.53V43.71h.55v1.68H70.5v.55H69.38v.28a.88.88,0,0,0,.07.32.64.64,0,0,0,.18.27.8.8,0,0,0,.27.18.72.72,0,0,0,.33.07Z"/><path class="cls-2" d="M72.88,46.63l.39.39-.2.19a1.25,1.25,0,0,1-.45.31,1.45,1.45,0,0,1-1.06,0,1.25,1.25,0,0,1-.45-.31,1.29,1.29,0,0,1-.31-.46,1.4,1.4,0,0,1,0-1,1.38,1.38,0,0,1,.31-.46,1.29,1.29,0,0,1,.46-.31,1.4,1.4,0,0,1,1,0,1.29,1.29,0,0,1,.46.31l.2.19L71.72,47a.8.8,0,0,0,.5.08.77.77,0,0,0,.46-.24Zm-1.38-1a.82.82,0,0,0-.25.6.86.86,0,0,0,.08.36l.23-.22.32-.32.33-.33.25-.24a.8.8,0,0,0-.5-.08A.75.75,0,0,0,71.5,45.63Z"/><rect class="cls-2" x="23.35" y="43.79" width="0.99" height="0.38" transform="translate(-24.7 31.88) rotate(-47.55)"/><path class="cls-3" d="M74.91,9.31c-11.79.12-34.73-11.85-37-8.82-1.77,2.33,3,6,7.24,8.3,6.51,3.55,25.38.13,29.79,1.17Z"/><path class="cls-4" d="M74.91,10.45c-7.47,0-16.84,9-25.53,8.86-5.33-.11-10.32-2.45-2.12-4.72s24-4.46,27.65-4.63Z"/><path class="cls-5" d="M59,19.06c3.27-2.64,10.36-7.89,16-8.61V11a19.36,19.36,0,0,0-4.17,2.65C69,15,67.12,21.25,61.63,23.07,57.33,24.49,55.84,21.59,59,19.06Z"/><path class="cls-6" d="M74.91,9.31V11c3.15.85-6.93,5.39-1.73,8.36,3.16,1.8,6.82-.62,6.82-5C80,12.56,78.3,9.16,74.91,9.31Z"/></g></g></svg>