<svg xmlns="http://www.w3.org/2000/svg" viewBox="0 0 80 80"><defs><style>.cls-1{fill:#f8ed3b;}.cls-2{fill-rule:evenodd;}</style></defs><title>efecty</title><g id="Layer_2" data-name="Layer 2"><g id="efecty"><rect class="cls-1" width="80" height="80"/><path class="cls-2" d="M50.93,59.37l0,6.56a3.9,3.9,0,0,0,.26,1.24c.89,1.93,3.95,1.75,5.74.6l-.79-1.65a3.08,3.08,0,0,1-2.11.45c-.74-.22-.69-1.09-.69-1.95v-5.3h5l4,9.08a6.65,6.65,0,0,1-1,2.22c-1.37,1.93-2.65,1.11-3.76.87l-.54,2a5,5,0,0,0,5.52-.83,14,14,0,0,0,2.39-4.7l3.82-10.55H66.18L63.5,65.49c-.27-.3-2.34-5.49-2.72-6.38a2.68,2.68,0,0,0-2.86-1.73c-1.5,0-3,0-4.56,0V54.13a18.27,18.27,0,0,0-2.43.77v2.44l-2,0,0,2ZM46,6.1c12.52,0,20.75,10.07,18.38,22.51s-14.45,22.51-27,22.51S16.59,41.05,19,28.61,33.42,6.1,46,6.1Zm6,2.92c7.76,2.71,12.25,10.46,10.51,19.59C60.41,39.25,50.63,48,40,49.13c-.84,0-.86-.51-.89-1.21,0-1.48.1-3,.14-4.43,0-.22-.07-.29-.16-.32a15.75,15.75,0,0,1-3.23-.68,19.78,19.78,0,0,1-3.46-1.85c-.53-.26-.47-1.48-.45-2,.09-.87.73-2.9,1.77-3,1.24-.07,1.82.59,3.05,1.19,2.15,1,5.16,1.62,7.4.57A1.89,1.89,0,0,0,45,34.78c-.87-1.82-5-3.32-7-4.24C33.51,28.61,31,24.69,31.78,20c.6-3.44,3.83-6.06,7.21-6.54V11.83a24,24,0,0,0-10.19,6.4A22,22,0,0,0,22,33.87c.33,8,4.47,11.5,8.8,14.14-7.43-2.87-11.68-10.48-10-19.4C22.94,17.68,33.19,8.75,44.16,8c.43.26.46.3.69.89-.1,1.38-.18,2.75-.27,4.13a12.52,12.52,0,0,1,5.86,2.45c.05,3.16-2.32,4.48-3.22,4a32.92,32.92,0,0,0-4.32-1.33,4.56,4.56,0,0,0-2.71.32c-1.06.5-1.57,1.25-1.06,2.42a4.92,4.92,0,0,0,1.95,1.94l6.82,3.69a10.36,10.36,0,0,1,4.27,4.26A9.12,9.12,0,0,1,52.59,36a8.51,8.51,0,0,1-4.1,5.32A11.47,11.47,0,0,1,45,42.71c0,.74-.07,1.46-.11,2.19a.35.35,0,0,0,.3,0A25.47,25.47,0,0,0,52.21,41c2.86-2.52,5.53-5.16,6.93-8.58a20.93,20.93,0,0,0,2-6.5C62,19,59.43,12.45,51.93,9ZM23.13,57.38l0-2.42A3.33,3.33,0,0,1,25,52.28a4.73,4.73,0,0,1,3.78.12l-.45,1.92c-2.77-.61-2.76-.1-2.76,3.06h3l-.78,1.92-2.24,0v9.05a12.09,12.09,0,0,1-2.41,0v-9l-1.21,0-.75-1.9ZM39.4,63.17c.15,6.48,7.18,6.12,9.07,4.4a7.86,7.86,0,0,0-.7-1.64c-1.3.53-2.57,1.13-4.13.35-2.44-1.2-2.26-5.74.2-6.87a4.35,4.35,0,0,1,3.27,0c.36.16.61.34.9.46V57.81a6.31,6.31,0,0,0-4.32-.55,5.73,5.73,0,0,0-4.29,5.91ZM13.76,61.73c.18-1.47.74-2.68,2.3-2.71s2.24,1.23,2.31,2.74Zm6.76,5.84L19.84,66a16.13,16.13,0,0,1-1.87.64C15.8,67,13.84,66,13.8,63.5h7c0-2.46-.43-5.3-3.18-6.16a5,5,0,0,0-3.87.37C10,60,10.16,68.71,16.85,68.62a6.2,6.2,0,0,0,3.67-1.05Zm10.54-5.81c.13-1.49.81-2.73,2.33-2.74s2.22,1.28,2.24,2.74Zm-2.45,1.58c.26,4.07,3.42,6,7.3,5.08a15.58,15.58,0,0,0,1.91-.75L37.14,66c-1,.3-2.25,1.15-4,.53a3.05,3.05,0,0,1-2-3h7.06c0-3.21-1-6.36-4.68-6.39s-5,3-4.86,6.23Z"/></g></g></svg>