<svg xmlns="http://www.w3.org/2000/svg" viewBox="0 0 80 77.73"><defs><style>.cls-1{fill:#fff;}.cls-2{fill:#048162;}.cls-3{fill:#f58220;}.cls-4{fill:#ec2030;}</style></defs><title>EN_7_Eleven</title><g id="Layer_2" data-name="Layer 2"><g id="EN_7_Eleven"><g id="_Group_" data-name="&lt;Group&gt;"><rect id="_Path_" data-name="&lt;Path&gt;" class="cls-1" x="0.41" y="0.59" width="79.26" height="76.76"/><rect id="_Path_2" data-name="&lt;Path&gt;" class="cls-2" width="80" height="77.73"/><path id="_Path_3" data-name="&lt;Path&gt;" class="cls-1" d="M49.32,72.62v3.11H30.14V72.61H15.62C14.2,72.61,13,71.13,13,69.3L7,7.86a3.25,3.25,0,0,1,3.17-3.32H68.81A3.25,3.25,0,0,1,72,7.86L66,69.3c0,1.83-1.15,3.31-2.57,3.31Z"/><path id="_Path_4" data-name="&lt;Path&gt;" class="cls-3" d="M17.65,13.54H56.93C53.07,15,41.29,23,38.35,28.32H17.69l0-14.78Z"/><path id="_Path_5" data-name="&lt;Path&gt;" class="cls-4" d="M49,55.89c-.56,5.35-.58,11.87-.58,18.72h-17a186,186,0,0,1,.85-18.72Z"/><polygon id="_Path_6" data-name="&lt;Path&gt;" class="cls-2" points="22.62 48.16 22.62 50.23 19.9 50.23 19.9 52.3 22.62 52.3 22.62 54.68 16.4 54.68 16.4 43.62 22.62 43.62 22.62 46.08 19.9 46.08 19.9 48.16 22.62 48.16"/><polygon id="_Path_7" data-name="&lt;Path&gt;" class="cls-2" points="37.09 48.16 37.09 50.23 34.38 50.23 34.38 52.3 37.09 52.3 37.09 54.68 30.88 54.68 30.88 43.62 37.09 43.62 37.09 46.08 34.38 46.08 34.38 48.16 37.09 48.16"/><polygon id="_Path_8" data-name="&lt;Path&gt;" class="cls-2" points="53.04 48.16 53.04 50.23 50.32 50.23 50.32 52.3 53.04 52.3 53.04 54.68 46.82 54.68 46.82 43.62 53.04 43.62 53.04 46.08 50.32 46.08 50.32 48.16 53.04 48.16"/><polygon id="_Path_9" data-name="&lt;Path&gt;" class="cls-2" points="27.29 43.62 27.29 52.3 30.01 52.3 30.01 54.68 23.79 54.68 23.79 43.62 27.29 43.62"/><polygon id="_Path_10" data-name="&lt;Path&gt;" class="cls-2" points="42.12 51.1 40.79 43.62 37.73 43.62 39.47 54.68 43.97 54.68 46.08 43.62 43.48 43.62 42.12 51.1"/><rect id="_Path_11" data-name="&lt;Path&gt;" class="cls-2" x="54.52" y="43.62" width="3.36" height="11.06"/><path id="_Path_12" data-name="&lt;Path&gt;" class="cls-2" d="M57.88,46.9c.19-1.21,1.9-.88,1.9-.19v8h3.38V45.3c0-2-2.81-2.78-5.25-1l0,2.63Z"/><path id="_Path_13" data-name="&lt;Path&gt;" class="cls-4" d="M50.54,42.06c.34-4.23,6.14-11.15,11.76-13V12.76C46.84,19.67,36.8,30.13,34.62,42l15.92,0Z"/></g></g></g></svg>