<svg xmlns="http://www.w3.org/2000/svg" viewBox="0 0 80 80"><defs><style>.cls-1{fill:#111113;}.cls-2{fill:#fff;}.cls-3{fill:#2292c3;}.cls-4{fill:#f9ec31;}.cls-5{fill:#d0372a;}</style></defs><title>Elo</title><g id="Layer_2" data-name="Layer 2"><g id="Elo"><path class="cls-1" d="M40,0A40,40,0,1,1,0,40,40,40,0,0,1,40,0"/><path class="cls-2" d="M22.86,29.49A12.27,12.27,0,0,0,12.64,48.57l12.14-5.31L29.85,41h0l4.95-2.17A12.28,12.28,0,0,0,22.86,29.49Zm-7,12.92c0-.21,0-.43,0-.64a7,7,0,0,1,12.3-4.65Z"/><path class="cls-2" d="M31.44,50.55C27,54.73,21.23,55.14,16.11,52L19,47.64q4.37,2.61,8.77-.85Z"/><path class="cls-2" d="M36.44,47.51l0-23.22h4.4v22.6a.46.46,0,0,0,.31.51L45,48.89l-1.72,4.49-4.49-1.9C37,50.76,36.45,49.72,36.44,47.51Z"/><path class="cls-3" d="M53,47.12a7,7,0,0,1-.52-10.62l-2.85-4.6a12.35,12.35,0,0,0,.69,19.88L53,47.12"/><path class="cls-4" d="M54.94,35a6.9,6.9,0,0,1,2.37-.41,7,7,0,0,1,6.56,4.54l5.45-.46a12.37,12.37,0,0,0-12-9.43,12.15,12.15,0,0,0-4.64.91L54.94,35"/><path class="cls-5" d="M64.31,41.93a7,7,0,0,1-7,6.67,7.41,7.41,0,0,1-1.71-.21l-2.13,4.94a12.21,12.21,0,0,0,3.84.62A12.37,12.37,0,0,0,69.66,42.1l-5.35-.17"/></g></g></svg>