<svg id="Layer_1" data-name="Layer 1" xmlns="http://www.w3.org/2000/svg" viewBox="0 0 80 80"><defs><style>.cls-1{fill:#101013;}.cls-2{fill:#fff;}.cls-3{fill:#2091c2;}.cls-4{fill:#f8eb30;}.cls-5{fill:#cf3629;}</style></defs><title>elo_brazil</title><path class="cls-1" d="M50,10A40,40,0,1,1,10,50,40,40,0,0,1,50,10" transform="translate(-10 -10)"/><path class="cls-2" d="M32.86,39.49A12.28,12.28,0,0,0,22.64,58.58l12.15-5.31L39.85,51h0l4.95-2.16A12.28,12.28,0,0,0,32.86,39.49Zm-7,12.92c0-.21,0-.43,0-.64a7,7,0,0,1,12.3-4.65Z" transform="translate(-10 -10)"/><path class="cls-2" d="M41.44,60.55C37,64.72,31.22,65.13,26.11,62L29,57.64q4.37,2.61,8.77-.85Z" transform="translate(-10 -10)"/><path class="cls-2" d="M46.44,57.51l0-23.23h4.4v22.6a.47.47,0,0,0,.31.52L55,58.89l-1.72,4.48-4.48-1.9C47,60.76,46.45,59.72,46.44,57.51Z" transform="translate(-10 -10)"/><path class="cls-3" d="M63,57.12a7,7,0,0,1-.52-10.62l-2.84-4.61a12.36,12.36,0,0,0,.69,19.89L63,57.12" transform="translate(-10 -10)"/><path class="cls-4" d="M64.94,45a6.9,6.9,0,0,1,2.37-.41,7,7,0,0,1,6.56,4.54l5.45-.46a12.36,12.36,0,0,0-12-9.43,12.23,12.23,0,0,0-4.65.91L64.94,45" transform="translate(-10 -10)"/><path class="cls-5" d="M74.31,51.93a7,7,0,0,1-7,6.67,6.91,6.91,0,0,1-1.71-.21l-2.14,5A12.21,12.21,0,0,0,67.3,64,12.37,12.37,0,0,0,79.65,52.1l-5.34-.17" transform="translate(-10 -10)"/></svg>