<svg id="Layer_1" data-name="Layer 1" xmlns="http://www.w3.org/2000/svg" xmlns:xlink="http://www.w3.org/1999/xlink" viewBox="0 0 80 53.4"><defs><style>.cls-1{fill:#00adee;}.cls-2{fill:#8bc53f;}.cls-3{fill:url(#linear-gradient);}.cls-4{fill:url(#linear-gradient-2);}.cls-5{fill:url(#linear-gradient-3);}.cls-6{fill:#f6921e;}</style><linearGradient id="linear-gradient" x1="47.49" y1="17310.52" x2="84.91" y2="17310.52" gradientTransform="translate(0 -17282)" gradientUnits="userSpaceOnUse"><stop offset="0.84" stop-color="#8bc53f"/><stop offset="1" stop-color="#f6921e"/></linearGradient><linearGradient id="linear-gradient-2" x1="52.91" y1="17319.94" x2="84.91" y2="17319.94" gradientTransform="translate(0 -17282)" gradientUnits="userSpaceOnUse"><stop offset="0.84" stop-color="#37b34a"/><stop offset="1" stop-color="#f6921e"/></linearGradient><linearGradient id="linear-gradient-3" x1="67.3" y1="17322.25" x2="84.91" y2="17322.25" gradientTransform="translate(0 -17282)" gradientUnits="userSpaceOnUse"><stop offset="0.84" stop-color="#00a589"/><stop offset="1" stop-color="#f6921e"/></linearGradient></defs><title>empresa-de-energia-de-quindio</title><path class="cls-1" d="M25,60.75H18.54a5.29,5.29,0,0,1-5.09-4.22H27.13V53.25a8,8,0,0,0-8-8H18a8,8,0,0,0-8,8v3.23a8,8,0,0,0,8,8h7a1.87,1.87,0,1,0,0-3.73ZM18.56,49a5.29,5.29,0,0,1,5,3.87h-10A5.27,5.27,0,0,1,18.56,49Z" transform="translate(-10 -23.3)"/><path class="cls-1" d="M65.72,60.75H59.24a5.29,5.29,0,0,1-5.09-4.22H67.82V53.25a8,8,0,0,0-8-8H58.7a8,8,0,0,0-8,8v3.23a8,8,0,0,0,8,8h7a1.87,1.87,0,1,0,0-3.73ZM59.26,49a5.29,5.29,0,0,1,5,3.87H54.23A5.29,5.29,0,0,1,59.26,49Z" transform="translate(-10 -23.3)"/><path class="cls-1" d="M45.79,25.41h-.41a1.47,1.47,0,0,0-1.47,1.47V45.25H38.42a8,8,0,0,0-8,8V56a8,8,0,0,0,8,8h.85a8,8,0,0,0,8-8V26.88A1.49,1.49,0,0,0,45.79,25.41ZM43.91,56a4.66,4.66,0,0,1-4.65,4.65h-.85A4.66,4.66,0,0,1,33.76,56v-2.7a4.66,4.66,0,0,1,4.65-4.65H43.9V56Z" transform="translate(-10 -23.3)"/><path class="cls-1" d="M88,75.23v-22a8,8,0,0,0-8-8h-.84a8,8,0,0,0-8,8v2.7a8,8,0,0,0,8,8h5.49V75.23a1.47,1.47,0,0,0,1.47,1.47h.41A1.47,1.47,0,0,0,88,75.23ZM84.65,60.56H79.16a4.66,4.66,0,0,1-4.65-4.65v-2.7a4.66,4.66,0,0,1,4.65-4.65H80a4.66,4.66,0,0,1,4.65,4.65Z" transform="translate(-10 -23.3)"/><path class="cls-2" d="M13.75,67v3.89H13.2V67Z" transform="translate(-10 -23.3)"/><path class="cls-2" d="M15.34,68.13a1.41,1.41,0,0,1,.54.11,1.32,1.32,0,0,1,.44.3,1.49,1.49,0,0,1,.3.44,1.41,1.41,0,0,1,.11.54v1.39H15.34a1.41,1.41,0,0,1-.54-.11,1.38,1.38,0,0,1-.75-.75,1.38,1.38,0,0,1,0-1.08,1.32,1.32,0,0,1,.3-.44,1.54,1.54,0,0,1,.45-.3A1.62,1.62,0,0,1,15.34,68.13Zm.83,2.23v-.84a.83.83,0,0,0-.06-.32.83.83,0,0,0-.45-.45.88.88,0,0,0-.33-.07.72.72,0,0,0-.33.07.83.83,0,0,0-.45.45.88.88,0,0,0-.07.32.75.75,0,0,0,.07.33.83.83,0,0,0,.45.45.88.88,0,0,0,.33.06Z" transform="translate(-10 -23.3)"/><path class="cls-2" d="M22.16,69.93l.39.39-.19.19a1.37,1.37,0,0,1-.45.3,1.4,1.4,0,0,1-.53.11,1.42,1.42,0,0,1-1-.41,1.22,1.22,0,0,1-.3-.46,1.37,1.37,0,0,1-.1-.52,1.34,1.34,0,0,1,.1-.52,1.52,1.52,0,0,1,.3-.46,1.35,1.35,0,0,1,1-.41,1.34,1.34,0,0,1,.52.1,1.29,1.29,0,0,1,.46.31l.19.19L21,70.28a.86.86,0,0,0,.5.08.82.82,0,0,0,.46-.24Zm-1.38-1a.79.79,0,0,0-.25.59.81.81,0,0,0,.09.37c.05-.05.12-.13.23-.23l.32-.32L21.5,69a2.65,2.65,0,0,0,.24-.24.79.79,0,0,0-.5-.08A.77.77,0,0,0,20.78,68.94Z" transform="translate(-10 -23.3)"/><path class="cls-2" d="M22.84,69a1.32,1.32,0,0,1,.3-.44,1.49,1.49,0,0,1,.44-.3,1.38,1.38,0,0,1,1.08,0,1.43,1.43,0,0,1,.74.74,1.41,1.41,0,0,1,.11.54v1.39H25V69.52a.83.83,0,0,0-.06-.32.83.83,0,0,0-.45-.45.88.88,0,0,0-.33-.07.75.75,0,0,0-.33.07.83.83,0,0,0-.45.45.88.88,0,0,0-.07.32v1.39h-.55V69.52A1.93,1.93,0,0,1,22.84,69Z" transform="translate(-10 -23.3)"/><path class="cls-2" d="M27.88,69.93l.39.39-.19.19a1.37,1.37,0,0,1-.45.3,1.4,1.4,0,0,1-.53.11,1.42,1.42,0,0,1-1-.41,1.22,1.22,0,0,1-.3-.46,1.37,1.37,0,0,1-.1-.52,1.34,1.34,0,0,1,.1-.52,1.52,1.52,0,0,1,.3-.46,1.35,1.35,0,0,1,1-.41,1.34,1.34,0,0,1,.52.1,1.29,1.29,0,0,1,.46.31l.19.19-1.54,1.54a.86.86,0,0,0,.5.08.82.82,0,0,0,.46-.24Zm-1.38-1a.79.79,0,0,0-.25.59.81.81,0,0,0,.09.37c.05-.05.12-.13.23-.23l.32-.32.33-.33a2.65,2.65,0,0,0,.24-.24.79.79,0,0,0-.5-.08A.79.79,0,0,0,26.5,68.94Z" transform="translate(-10 -23.3)"/><path class="cls-2" d="M30.13,68.13v.55h-.28a.75.75,0,0,0-.33.07.83.83,0,0,0-.45.45.87.87,0,0,0-.06.32v1.39h-.56V69.52a1.41,1.41,0,0,1,.11-.54,1.32,1.32,0,0,1,.3-.44,1.54,1.54,0,0,1,.45-.3,1.41,1.41,0,0,1,.54-.11Z" transform="translate(-10 -23.3)"/><path class="cls-2" d="M31.68,68.13a1.41,1.41,0,0,1,.54.11,1.32,1.32,0,0,1,.44.3A1.49,1.49,0,0,1,33,69a1.41,1.41,0,0,1,.11.54v1.11a1.41,1.41,0,0,1-.11.54,1.43,1.43,0,0,1-.74.74,1.41,1.41,0,0,1-.54.11H31.4v-.55h.28a.76.76,0,0,0,.49-.16.88.88,0,0,0,.3-.41h-.79a1.41,1.41,0,0,1-.54-.11,1.38,1.38,0,0,1-.75-.75,1.38,1.38,0,0,1,0-1.08,1.32,1.32,0,0,1,.3-.44,1.54,1.54,0,0,1,.45-.3A1.91,1.91,0,0,1,31.68,68.13Zm-.85,1.39a.75.75,0,0,0,.07.33.83.83,0,0,0,.45.45.88.88,0,0,0,.33.06h.84v-.84a.83.83,0,0,0-.06-.32.83.83,0,0,0-.45-.45.88.88,0,0,0-.33-.07.72.72,0,0,0-.33.07.8.8,0,0,0-.27.18.68.68,0,0,0-.18.26A.72.72,0,0,0,30.83,69.52Z" transform="translate(-10 -23.3)"/><path class="cls-2" d="M33.79,68.13v2.78h-.54V68.13Z" transform="translate(-10 -23.3)"/><path class="cls-2" d="M35.35,68.13a1.41,1.41,0,0,1,.54.11,1.32,1.32,0,0,1,.44.3,1.49,1.49,0,0,1,.3.44,1.41,1.41,0,0,1,.11.54v1.39H35.35a1.41,1.41,0,0,1-.54-.11,1.38,1.38,0,0,1-.75-.75,1.38,1.38,0,0,1,0-1.08,1.32,1.32,0,0,1,.3-.44,1.54,1.54,0,0,1,.45-.3A1.62,1.62,0,0,1,35.35,68.13Zm.84,2.23v-.84a.83.83,0,0,0-.06-.32.83.83,0,0,0-.45-.45.88.88,0,0,0-.33-.07.72.72,0,0,0-.33.07.83.83,0,0,0-.45.45.88.88,0,0,0-.07.32.75.75,0,0,0,.07.33.83.83,0,0,0,.45.45.88.88,0,0,0,.33.06Z" transform="translate(-10 -23.3)"/><path class="cls-2" d="M42.78,67v2.5a1.41,1.41,0,0,1-.11.54,1.37,1.37,0,0,1-.3.45,1.32,1.32,0,0,1-.44.3,1.38,1.38,0,0,1-1.08,0,1.38,1.38,0,0,1-.75-.75,1.62,1.62,0,0,1-.1-.54,1.41,1.41,0,0,1,.11-.54,1.32,1.32,0,0,1,.3-.44,1.54,1.54,0,0,1,.45-.3,1.24,1.24,0,0,1,.54-.11h.84V67ZM41.4,70.36a.92.92,0,0,0,.33-.06.83.83,0,0,0,.45-.45.88.88,0,0,0,.06-.33v-.84H41.4a.72.72,0,0,0-.33.07.83.83,0,0,0-.45.45.87.87,0,0,0-.06.32.92.92,0,0,0,.06.33.83.83,0,0,0,.45.45A.88.88,0,0,0,41.4,70.36Z" transform="translate(-10 -23.3)"/><path class="cls-2" d="M45.15,69.93l.39.39-.19.19a1.37,1.37,0,0,1-.45.3,1.4,1.4,0,0,1-.53.11,1.42,1.42,0,0,1-1-.41,1.22,1.22,0,0,1-.3-.46,1.37,1.37,0,0,1-.1-.52,1.34,1.34,0,0,1,.1-.52,1.52,1.52,0,0,1,.3-.46,1.35,1.35,0,0,1,1-.41,1.34,1.34,0,0,1,.52.1,1.29,1.29,0,0,1,.46.31l.19.19L44,70.29a.86.86,0,0,0,.5.08.82.82,0,0,0,.46-.24Zm-1.38-1a.79.79,0,0,0-.25.59.81.81,0,0,0,.09.37c0-.05.12-.13.23-.23l.32-.32.33-.33a2.65,2.65,0,0,0,.24-.24.79.79,0,0,0-.5-.08A.79.79,0,0,0,43.77,68.94Z" transform="translate(-10 -23.3)"/><path class="cls-2" d="M48.93,69a1.32,1.32,0,0,1,.3-.44,1.49,1.49,0,0,1,.44-.3,1.38,1.38,0,0,1,1.08,0,1.43,1.43,0,0,1,.74.74,1.41,1.41,0,0,1,.11.54v1.39h-.55V69.52A.68.68,0,0,0,51,69.2a.83.83,0,0,0-.45-.45.88.88,0,0,0-.33-.07.68.68,0,0,0-.32.07.83.83,0,0,0-.45.45.88.88,0,0,0-.07.32v1.39h-.55V69.52A1.63,1.63,0,0,1,48.93,69Z" transform="translate(-10 -23.3)"/><path class="cls-2" d="M54.58,68.13v1.39a1.41,1.41,0,0,1-.11.54,1.37,1.37,0,0,1-.3.45,1.43,1.43,0,0,1-.44.3,1.38,1.38,0,0,1-1.08,0,1.23,1.23,0,0,1-.44-.3,1.54,1.54,0,0,1-.3-.45,1.41,1.41,0,0,1-.11-.54V68.13h.55v1.39a.92.92,0,0,0,.06.33.83.83,0,0,0,.45.45.88.88,0,0,0,.33.06.92.92,0,0,0,.33-.06.83.83,0,0,0,.45-.45.88.88,0,0,0,.07-.33V68.13Z" transform="translate(-10 -23.3)"/><path class="cls-2" d="M56.92,69.93l.39.39-.19.19a1.37,1.37,0,0,1-.45.3,1.4,1.4,0,0,1-.53.11,1.42,1.42,0,0,1-1-.41,1.22,1.22,0,0,1-.3-.46,1.37,1.37,0,0,1-.1-.52,1.34,1.34,0,0,1,.1-.52,1.52,1.52,0,0,1,.3-.46,1.35,1.35,0,0,1,1-.41,1.34,1.34,0,0,1,.52.1,1.29,1.29,0,0,1,.46.31l.19.19-1.54,1.54a.86.86,0,0,0,.5.08.82.82,0,0,0,.46-.24Zm-1.38-1a.79.79,0,0,0-.25.59.81.81,0,0,0,.09.37c0-.05.12-.13.23-.23l.32-.32.33-.33a2.65,2.65,0,0,0,.24-.24.79.79,0,0,0-.5-.08A.77.77,0,0,0,55.54,68.94Z" transform="translate(-10 -23.3)"/><path class="cls-2" d="M60,68.13v.55H58.31a.3.3,0,0,0-.2.08.29.29,0,0,0,0,.4.24.24,0,0,0,.2.08h1.11a.75.75,0,0,1,.33.07.8.8,0,0,1,.27.18.68.68,0,0,1,.18.26.88.88,0,0,1,.07.33.68.68,0,0,1-.07.32.83.83,0,0,1-.45.45.88.88,0,0,1-.33.07H57.75v-.55h1.67a.27.27,0,0,0,.28-.28.3.3,0,0,0-.08-.2.28.28,0,0,0-.2-.08H58.31a.83.83,0,0,1-.58-.25,1.27,1.27,0,0,1-.18-.27.88.88,0,0,1-.07-.32.75.75,0,0,1,.07-.33.68.68,0,0,1,.18-.26A1,1,0,0,1,58,68.2a.88.88,0,0,1,.32-.07Z" transform="translate(-10 -23.3)"/><path class="cls-2" d="M62.11,70.36v.55h-.27a1.41,1.41,0,0,1-.54-.11,1.38,1.38,0,0,1-.75-.75,1.41,1.41,0,0,1-.11-.54V67H61v1.67H62.1v.55H61v.28a.92.92,0,0,0,.06.33.83.83,0,0,0,.45.45.88.88,0,0,0,.33.06h.28Z" transform="translate(-10 -23.3)"/><path class="cls-2" d="M64,68.13v.55H63.7a.75.75,0,0,0-.33.07.83.83,0,0,0-.45.45.87.87,0,0,0-.06.32v1.39H62.3V69.52a1.41,1.41,0,0,1,.11-.54,1.32,1.32,0,0,1,.3-.44,1.54,1.54,0,0,1,.45-.3,1.41,1.41,0,0,1,.54-.11Z" transform="translate(-10 -23.3)"/><path class="cls-2" d="M65.52,68.13a1.41,1.41,0,0,1,.54.11,1.32,1.32,0,0,1,.44.3,1.49,1.49,0,0,1,.3.44,1.41,1.41,0,0,1,.11.54v1.39H65.52A1.41,1.41,0,0,1,65,70.8a1.38,1.38,0,0,1-.75-.75,1.38,1.38,0,0,1,0-1.08,1.32,1.32,0,0,1,.3-.44,1.54,1.54,0,0,1,.45-.3A1.62,1.62,0,0,1,65.52,68.13Zm.84,2.23v-.84a.68.68,0,0,0-.07-.32.8.8,0,0,0-.18-.27.71.71,0,0,0-.27-.18.88.88,0,0,0-.32-.07.75.75,0,0,0-.33.07.83.83,0,0,0-.45.45.87.87,0,0,0-.06.32.92.92,0,0,0,.06.33.83.83,0,0,0,.45.45.88.88,0,0,0,.33.06Z" transform="translate(-10 -23.3)"/><path class="cls-2" d="M71.55,68.13a1.41,1.41,0,0,1,.54.11,1.32,1.32,0,0,1,.44.3,1.49,1.49,0,0,1,.3.44,1.41,1.41,0,0,1,.11.54v1.11a1.41,1.41,0,0,1-.11.54,1.43,1.43,0,0,1-.74.74,1.41,1.41,0,0,1-.54.11h-.28v-.55h.28a.76.76,0,0,0,.49-.16.88.88,0,0,0,.3-.41h-.79a1.41,1.41,0,0,1-.54-.11,1.38,1.38,0,0,1-.75-.75,1.38,1.38,0,0,1,0-1.08,1.32,1.32,0,0,1,.3-.44,1.54,1.54,0,0,1,.45-.3A1.91,1.91,0,0,1,71.55,68.13Zm-.84,1.39a.92.92,0,0,0,.06.33.83.83,0,0,0,.45.45.88.88,0,0,0,.33.06h.84v-.84a.68.68,0,0,0-.07-.32.83.83,0,0,0-.45-.45.88.88,0,0,0-.33-.07.75.75,0,0,0-.33.07.83.83,0,0,0-.45.45A1,1,0,0,0,70.71,69.52Z" transform="translate(-10 -23.3)"/><path class="cls-2" d="M75.29,69.93l.39.39-.19.19a1.37,1.37,0,0,1-.45.3,1.4,1.4,0,0,1-.53.11,1.42,1.42,0,0,1-1-.41,1.22,1.22,0,0,1-.3-.46,1.37,1.37,0,0,1-.1-.52,1.34,1.34,0,0,1,.1-.52,1.52,1.52,0,0,1,.3-.46,1.35,1.35,0,0,1,1-.41,1.34,1.34,0,0,1,.52.1,1.29,1.29,0,0,1,.46.31l.19.19-1.54,1.54a.86.86,0,0,0,.5.08.82.82,0,0,0,.46-.24Zm-1.38-1a.79.79,0,0,0-.25.59.81.81,0,0,0,.09.37c0-.05.12-.13.23-.23l.32-.32.33-.33a2.65,2.65,0,0,0,.24-.24.79.79,0,0,0-.5-.08A.79.79,0,0,0,73.91,68.94Z" transform="translate(-10 -23.3)"/><path class="cls-2" d="M76,69a1.32,1.32,0,0,1,.3-.44,1.49,1.49,0,0,1,.44-.3,1.38,1.38,0,0,1,1.08,0,1.43,1.43,0,0,1,.74.74,1.41,1.41,0,0,1,.11.54v1.39H78.1V69.52A.68.68,0,0,0,78,69.2a.83.83,0,0,0-.45-.45.88.88,0,0,0-.33-.07.75.75,0,0,0-.33.07.83.83,0,0,0-.45.45.87.87,0,0,0-.06.32v1.39h-.55V69.52A1.42,1.42,0,0,1,76,69Z" transform="translate(-10 -23.3)"/><path class="cls-2" d="M80.5,70.36v.55h-.27a1.41,1.41,0,0,1-.54-.11,1.38,1.38,0,0,1-.75-.75,1.41,1.41,0,0,1-.11-.54V67h.55v1.67h1.11v.55H79.38v.28a.92.92,0,0,0,.06.33.83.83,0,0,0,.45.45.88.88,0,0,0,.33.06h.28Z" transform="translate(-10 -23.3)"/><path class="cls-2" d="M82.88,69.93l.39.39-.19.19a1.37,1.37,0,0,1-.45.3,1.4,1.4,0,0,1-.53.11,1.42,1.42,0,0,1-1-.41,1.22,1.22,0,0,1-.3-.46,1.37,1.37,0,0,1-.1-.52,1.34,1.34,0,0,1,.1-.52,1.52,1.52,0,0,1,.3-.46,1.35,1.35,0,0,1,1-.41,1.34,1.34,0,0,1,.52.1,1.29,1.29,0,0,1,.46.31l.19.19-1.54,1.54a.86.86,0,0,0,.5.08.82.82,0,0,0,.46-.24Zm-1.38-1a.79.79,0,0,0-.25.59.81.81,0,0,0,.09.37c0-.05.12-.13.23-.23l.32-.32.33-.33a2.65,2.65,0,0,0,.24-.24.79.79,0,0,0-.5-.08A.77.77,0,0,0,81.5,68.94Z" transform="translate(-10 -23.3)"/><rect class="cls-2" x="33.35" y="67.08" width="0.99" height="0.38" transform="translate(-48.64 23.54) rotate(-47.55)"/><path class="cls-3" d="M84.91,32.61c-11.8.12-34.73-11.85-37-8.82-1.76,2.32,3,6,7.24,8.3,6.51,3.55,25.38.13,29.8,1.17Z" transform="translate(-10 -23.3)"/><path class="cls-4" d="M84.91,33.75c-7.47,0-16.84,9-25.53,8.86-5.34-.11-10.33-2.45-2.12-4.72s24-4.46,27.65-4.63Z" transform="translate(-10 -23.3)"/><path class="cls-5" d="M69,42.36c3.26-2.65,10.35-7.89,16-8.61v.5a19.08,19.08,0,0,0-4.17,2.65c-1.74,1.38-3.62,7.64-9.11,9.47C67.33,47.79,65.84,44.89,69,42.36Z" transform="translate(-10 -23.3)"/><path class="cls-6" d="M84.91,32.61v1.64c3.15.85-6.94,5.39-1.73,8.36,3.16,1.8,6.82-.62,6.82-5C90,35.86,88.3,32.47,84.91,32.61Z" transform="translate(-10 -23.3)"/></svg>