<svg xmlns="http://www.w3.org/2000/svg" viewBox="0 0 80 14.74"><defs><style>.cls-1{fill:#5a5e62;}.cls-2{fill:#f36e35;}</style></defs><title>entropay</title><g id="Layer_2" data-name="Layer 2"><g id="entropay"><path class="cls-1" d="M29.61,4.78a3.36,3.36,0,0,0-3.33,3.55v0a3.4,3.4,0,0,0,3.49,3.54,3.46,3.46,0,0,0,2.79-1.28l0,0-1-.89,0,0a2.35,2.35,0,0,1-1.76.78A1.79,1.79,0,0,1,28,8.94h4.89v-.1c0-.14,0-.27,0-.4C32.88,6.62,31.87,4.78,29.61,4.78Zm0,1.39a1.66,1.66,0,0,1,1.61,1.62H28A1.72,1.72,0,0,1,29.6,6.17Z"/><path class="cls-1" d="M37.59,4.78a2.45,2.45,0,0,0-2,1V4.92H33.9v6.82h1.67V7.9A1.42,1.42,0,0,1,37,6.31c.88,0,1.36.56,1.36,1.56v3.87H40V7.4A2.35,2.35,0,0,0,37.59,4.78Z"/><path class="cls-1" d="M43.35,3.08H41.67V4.92H40.44V6.38h1.23V9.82a1.78,1.78,0,0,0,2,2,2.73,2.73,0,0,0,1.41-.35l0,0V10.07l-.11,0a2,2,0,0,1-.91.22c-.52,0-.75-.24-.75-.76V6.38h1.79V4.92H43.35Z"/><path class="cls-1" d="M50,4.79a2.33,2.33,0,0,0-2.17,1.38V4.92H46.17v6.82h1.68V9.12c0-1.63.8-2.57,2.2-2.57h.16V4.79H50Z"/><path class="cls-1" d="M54.13,4.78a3.56,3.56,0,0,0-3.64,3.56v0a3.63,3.63,0,0,0,7.26,0v0A3.54,3.54,0,0,0,54.13,4.78Zm-2,3.53A1.93,1.93,0,0,1,54.1,6.26a2,2,0,0,1,2,2.08v0a1.93,1.93,0,0,1-1.95,2,2,2,0,0,1-2-2.06Z"/><path class="cls-2" d="M62.59,4.78a2.67,2.67,0,0,0-2.2,1.1v-1H58.71v9.64h1.68V10.83a2.74,2.74,0,0,0,2.2,1,3.25,3.25,0,0,0,3.17-3.53v0A3.25,3.25,0,0,0,62.59,4.78Zm1.47,3.53v0a1.89,1.89,0,0,1-1.84,2.06,1.93,1.93,0,0,1-1.87-2.06v0a1.87,1.87,0,1,1,3.71,0Z"/><path class="cls-2" d="M69.54,4.83A5.67,5.67,0,0,0,67,5.38l-.06,0,.45,1.34.07,0a4.51,4.51,0,0,1,1.88-.41c1,0,1.58.48,1.58,1.38v.07a5.55,5.55,0,0,0-1.72-.26c-1.77,0-2.83.83-2.83,2.23v0a2.21,2.21,0,0,0,2.44,2.13,2.83,2.83,0,0,0,2.1-.85v.72h1.64v-4a2.81,2.81,0,0,0-.74-2.11A3.07,3.07,0,0,0,69.54,4.83Zm-.3,5.79c-.75,0-1.23-.37-1.23-.94v0c0-.65.56-1,1.49-1A4,4,0,0,1,71,8.86v.4C71,10.05,70.23,10.62,69.24,10.62Z"/><path class="cls-2" d="M78.25,4.92,76.57,9.73,74.74,4.92H72.93l2.81,6.75-.39.95c-.23.5-.46.69-.87.69a1.75,1.75,0,0,1-.86-.25l-.07,0L73,14.3l.06,0a3.2,3.2,0,0,0,1.62.41c1.07,0,1.68-.45,2.19-1.67h0L80,4.92Z"/><path class="cls-1" d="M17,0a6.11,6.11,0,0,0-5.5,3.47h0L9.36,8A3.77,3.77,0,1,1,6.09,2.32a3.65,3.65,0,0,1,1.68.4L8.65.57A5.93,5.93,0,0,0,6.09,0a6.1,6.1,0,1,0,5.08,9.46c.11-.23.24-.45.37-.67l2.05-4.36A3.77,3.77,0,1,1,17,9.86a3.73,3.73,0,0,1-2-.55l-.89,2.16a6,6,0,0,0,2.85.72A6.1,6.1,0,1,0,17,0Z"/><polygon class="cls-2" points="8.72 0.41 5.75 7.62 8.12 7.62 11.09 0.41 8.72 0.41"/><polygon class="cls-2" points="13.61 6.94 10.65 14.14 13.02 14.14 15.98 6.94 13.61 6.94"/></g></g></svg>