<svg id="Layer_1" data-name="Layer 1" xmlns="http://www.w3.org/2000/svg" viewBox="0 0 20 18.99"><title>epayment</title><path d="M22.15,24.49H7.85A2.86,2.86,0,0,1,5,21.64V13.23a2.89,2.89,0,0,1,3-2.74H22a2.82,2.82,0,0,1,3,2.67v8.33A3,3,0,0,1,22.15,24.49ZM8,11.16a2.21,2.21,0,0,0-2.33,2.07v8.41a2.19,2.19,0,0,0,2.19,2.19H22.15a2.32,2.32,0,0,0,2.19-2.33V13.17a2.18,2.18,0,0,0-2.33-2H8Z" transform="translate(-5 -5.5)"/><path d="M24.67,20.49H21.34a3.12,3.12,0,0,1-3-3,3.12,3.12,0,0,1,3-3h3.33a.33.33,0,0,1,.33.33v5.33A.33.33,0,0,1,24.67,20.49Zm-3.34-5.33A2.45,2.45,0,0,0,19,17.49a2.45,2.45,0,0,0,2.33,2.33h3V15.15h-3Z" transform="translate(-5 -5.5)"/><path d="M21.67,11.16a.31.31,0,0,1-.3-.2L19.7,7.3a2.07,2.07,0,0,0-1.25-1,2.56,2.56,0,0,0-2,.16L7.82,11.12a.33.33,0,1,1-.31-.59l8.67-4.67a3.25,3.25,0,0,1,2.47-.21A2.75,2.75,0,0,1,20.3,7L22,10.69a.33.33,0,0,1-.17.44A.31.31,0,0,1,21.67,11.16Z" transform="translate(-5 -5.5)"/><path d="M14,11.16a.32.32,0,0,1-.29-.17.33.33,0,0,1,.13-.45l6-3.33a.32.32,0,0,1,.45.12.33.33,0,0,1-.13.45l-6,3.33A.24.24,0,0,1,14,11.16Z" transform="translate(-5 -5.5)"/><path d="M5.33,13.57A.34.34,0,0,1,5,13.23v-.74A4.46,4.46,0,0,1,9.33,7.82h3a.33.33,0,0,1,0,.66h-3a3.81,3.81,0,0,0-3.67,4v.74A.33.33,0,0,1,5.33,13.57Z" transform="translate(-5 -5.5)"/><path d="M24.67,13.49a.33.33,0,0,1-.33-.33v-.84a3.67,3.67,0,0,0-3.67-3.83.33.33,0,1,1,0-.66A4.31,4.31,0,0,1,25,12.32v.84A.33.33,0,0,1,24.67,13.49Z" transform="translate(-5 -5.5)"/><path d="M21.33,18.49a1,1,0,1,1,1-1A1,1,0,0,1,21.33,18.49Zm0-1.33a.33.33,0,1,0,.33.33A.32.32,0,0,0,21.33,17.16Z" transform="translate(-5 -5.5)"/></svg>