<svg xmlns="http://www.w3.org/2000/svg" viewBox="0 0 80 26.67"><defs><style>.cls-1{fill:#003764;}.cls-2{fill:#fff;}</style></defs><title>ePay.bg</title><g id="Layer_2" data-name="Layer 2"><g id="ePay.bg"><rect class="cls-1" width="80" height="26.67"/><path class="cls-2" d="M12.54,13.74v.65c0,1.64.24,2.44,1.16,2.44s1.07-.6,1.15-1.93h2.93c-.06,2.62-1.48,3.89-4.1,3.89-4,0-4.3-2.8-4.3-5.95,0-3,.86-5.17,4.3-5.17,3.92,0,4.2,2.48,4.2,6.07Zm2.29-1.83c0-1.49-.2-2.29-1.08-2.29s-1.21.86-1.21,2.29Z"/><path class="cls-2" d="M19.27,4.56h5.08c3.46,0,4.12,2.5,4.12,4.24,0,2.5-1.19,4.26-4.48,4.26H22.55v5.45H19.27Zm3.28,6.08h.9c1.31,0,1.62-.82,1.62-1.76S24.72,7,23.39,7h-.84Z"/><path class="cls-2" d="M29.21,11.18A3.21,3.21,0,0,1,30.4,8.35a5,5,0,0,1,3-.68c2.59,0,3.75.9,3.75,3.12v5.44a4.3,4.3,0,0,0,.37,2.28h-3a4.78,4.78,0,0,1-.18-1.21h0a2.7,2.7,0,0,1-2.49,1.49c-1.77,0-2.81-.94-2.81-3.23a3,3,0,0,1,1.29-2.7A13.87,13.87,0,0,1,33,12c1-.25,1.14-.41,1.14-1.21a.92.92,0,0,0-1-1c-.88,0-1.13.53-1.15,1.44Zm3.68,5.42c.66,0,1.27-.39,1.27-1.45,0-.88,0-1.43,0-1.86-1,.53-1.43.55-1.72.79A1.28,1.28,0,0,0,32,15.25C32,16.09,32.3,16.6,32.89,16.6Z"/><path class="cls-2" d="M38,7.94h3.28l1.29,7.41h0l1.23-7.41H47L44.18,18.59C43.46,21.31,42.72,22,40.25,22c-.5,0-1,0-1.36,0V19.68a5,5,0,0,0,.78.08A1.25,1.25,0,0,0,41,18.59Z"/><path class="cls-2" d="M47.15,15H50.2v3.52H47.15Z"/><path class="cls-2" d="M52.1,4.56h3.16V9.09h0a2.42,2.42,0,0,1,2.37-1.42c2.59,0,3.06,2.36,3.06,5.64,0,4-1.13,5.48-3.26,5.48a2.23,2.23,0,0,1-2.29-1.57h0v1.29h-3Zm4.24,11.92c1.19,0,1.23-1.62,1.23-3.32,0-1.92-.06-3.19-1.21-3.19s-1.16,1.45-1.16,3.32C55.2,15.35,55.4,16.48,56.34,16.48Z"/><path class="cls-2" d="M67.69,7.94h2.93v10.2c0,2.39-1.05,4-4.39,4-3.07,0-4-1.35-4-2.93h2.93a1.06,1.06,0,0,0,.33.64,1.31,1.31,0,0,0,.78.22c1.06,0,1.27-.69,1.27-2.7v-.65h0A2.36,2.36,0,0,1,65,18.26c-2.28,0-3-2.27-3-5.18,0-2.5.33-5.41,3.09-5.41a2.44,2.44,0,0,1,2.5,1.7h0Zm-1.31,8c.86,0,1.19-.62,1.19-3,0-1.93-.23-2.85-1.15-2.85S65.23,11.3,65.23,13C65.23,15.25,65.52,16,66.38,16Z"/></g></g></svg>