<svg id="Layer_1" data-name="Layer 1" xmlns="http://www.w3.org/2000/svg" viewBox="0 0 80 26.67"><defs><style>.cls-1{fill:#003764;}.cls-2{fill:#fff;}</style></defs><title>ePay-bg</title><rect class="cls-1" width="80" height="26.67"/><path class="cls-2" d="M22.54,50.41v.65c0,1.64.23,2.44,1.15,2.44s1.07-.61,1.15-1.93h2.93c-.06,2.62-1.49,3.89-4.1,3.89-4,0-4.3-2.79-4.3-5.94,0-3,.86-5.18,4.3-5.18,3.93,0,4.2,2.48,4.2,6.08H22.54Zm2.29-1.84c0-1.49-.2-2.29-1.07-2.29-1,0-1.21.86-1.21,2.29Z" transform="translate(-10 -36.67)"/><path class="cls-2" d="M29.27,41.23h5.08c3.46,0,4.12,2.5,4.12,4.24,0,2.5-1.19,4.26-4.48,4.26H32.54v5.45H29.26v-14Zm3.28,6.07h.9c1.31,0,1.62-.82,1.62-1.76s-.35-1.9-1.68-1.9h-.84Z" transform="translate(-10 -36.67)"/><path class="cls-2" d="M39.21,47.85A3.18,3.18,0,0,1,40.4,45a5,5,0,0,1,3-.68c2.6,0,3.75.9,3.75,3.13V52.9a4.34,4.34,0,0,0,.37,2.29h-3A4.78,4.78,0,0,1,44.24,54h0a2.69,2.69,0,0,1-2.48,1.49c-1.78,0-2.81-.94-2.81-3.22a3,3,0,0,1,1.29-2.7A13.27,13.27,0,0,1,43,48.69c1-.25,1.13-.41,1.13-1.21,0-.64-.29-1.06-1-1.06-.88,0-1.13.53-1.15,1.45h-2.8Zm3.68,5.41c.66,0,1.27-.39,1.27-1.45,0-.88,0-1.43,0-1.86-1,.53-1.43.55-1.72.78A1.31,1.31,0,0,0,42,51.9C42,52.76,42.3,53.26,42.89,53.26Z" transform="translate(-10 -36.67)"/><path class="cls-2" d="M48,44.61h3.28L52.58,52h0l1.23-7.41H57L54.19,55.26c-.72,2.72-1.47,3.36-3.93,3.36-.51,0-1,0-1.37,0V56.35a5.16,5.16,0,0,0,.78.08A1.24,1.24,0,0,0,51,55.26Z" transform="translate(-10 -36.67)"/><path class="cls-2" d="M57.15,51.66H60.2v3.52H57.15Z" transform="translate(-10 -36.67)"/><path class="cls-2" d="M62.1,41.23h3.17v4.53h0a2.42,2.42,0,0,1,2.36-1.43c2.6,0,3.07,2.36,3.07,5.65,0,4-1.13,5.47-3.26,5.47a2.24,2.24,0,0,1-2.29-1.56h0v1.29H62.1Zm4.24,11.92c1.19,0,1.23-1.62,1.23-3.32,0-1.92-.06-3.19-1.21-3.19S65.21,48.09,65.21,50C65.2,52,65.4,53.15,66.34,53.15Z" transform="translate(-10 -36.67)"/><path class="cls-2" d="M77.69,44.61h2.93v10.2c0,2.38-1.06,4-4.4,4-3.07,0-4-1.35-4-2.93h2.93a1,1,0,0,0,.33.64,1.31,1.31,0,0,0,.78.21c1.06,0,1.27-.68,1.27-2.7v-.65h0A2.37,2.37,0,0,1,75,54.91c-2.29,0-3-2.27-3-5.18,0-2.5.33-5.41,3.09-5.41a2.44,2.44,0,0,1,2.5,1.7h0V44.61Zm-1.31,8c.86,0,1.19-.63,1.19-3,0-1.93-.23-2.85-1.15-2.85s-1.19,1.21-1.19,3C75.23,51.92,75.52,52.62,76.38,52.62Z" transform="translate(-10 -36.67)"/></svg>