<svg xmlns="http://www.w3.org/2000/svg" viewBox="0 0 80 22.59"><defs><style>.cls-1,.cls-2{fill:#0054a6;}.cls-1{fill-rule:evenodd;}.cls-3{fill:#8dc63f;}</style></defs><title>ePay</title><g id="Layer_2" data-name="Layer 2"><g id="ePay"><path class="cls-1" d="M41.87,10.3c-2.06,4.07-5.8,5.23-9.7,5.23C28,15.53,28.81,15,28,18.15c-.56,2.24-.58,2.8-2.15,2.94-.48,0-4.18,0-4.18,0s.26-1.57.64-3.28c1.17-5.23,2.31-10.48,3.38-15.73C26,.69,26,.19,27.61.18h8.9c4.94,0,7.51,4.34,5.81,9-.14.39-.33.77-.49,1.16ZM29.44,11.69a7.75,7.75,0,0,0,3.56.17c3.88-.75,5.71-4.48,3.89-6.93-1.59-2.15-5.67-1.88-5.8-1.16C30.64,6.28,30,9,29.44,11.69Z"/><path class="cls-2" d="M63.62.21c.75,0,3,0,3,0L68.2,10.63l5.29-9.17a2.8,2.8,0,0,1,.82-1A3.24,3.24,0,0,1,75.67.22H80L71,15c-1.44,2.33-3.49,5.5-6.84,7.61a32.81,32.81,0,0,1-2.3-2.74,1.08,1.08,0,0,1-.33-1.17c.11-.47.38-.56.87-1,.84-.68,2-1.76,2-2.91-.21-2-1.71-11-2.08-13.42C62.28,1.24,62,.17,63.62.21Z"/><path class="cls-2" d="M57.48.31C55.12-.08,51-.33,48,1.05a3.38,3.38,0,0,0-1.59,1.68l-.61,2.09a23.82,23.82,0,0,1,6.83-1.77c1.27-.09,2.77-.2,2.63,1-.09.78-.14,1.19-.14,1.19s-5-.08-8.56,2.07a5.51,5.51,0,0,0-2.88,5c-.06,1.36,1,3.09,3.68,3.73a16.67,16.67,0,0,0,11.16-1.43c.38-1.83,2.06-9.86,2.06-9.86S61.27.94,57.48.31ZM53.76,12.12l0,.12a3.06,3.06,0,0,1-2.55,1.22,2.17,2.17,0,0,1-2-2.7C50,7.57,54.43,8,54.43,8Z"/><path class="cls-3" d="M13.19,3.05h6.63c2.26,0,2.56-.22,3-2.83C16.55.21,12.18.2,9.3.18,5,.16,4.12,1,3.12,5.62,3,6,3,6.14,3,6.49H0l2.32,3c-.07.48-.17,1-.27,1.46-.47,2.31.1,4.62,2.74,4.62H18.31a1.3,1.3,0,0,0,1.46-1.12c.09-.35.36-1.72.36-1.72H10.46a2.26,2.26,0,0,1-1.86-.83h0a1.61,1.61,0,0,1,1.53-2.39h8.94a3.76,3.76,0,0,0,1.43-.2,1.48,1.48,0,0,0,.57-.85l.43-1.92H11.85C9.66,6.35,9.67,4.85,9.67,4.85h0a1.76,1.76,0,0,1,1.79-1.8C12,3.06,12.17,3.05,13.19,3.05Z"/></g></g></svg>