<svg id="Layer_1" data-name="Layer 1" xmlns="http://www.w3.org/2000/svg" viewBox="0 0 79.99 62.99"><defs><style>.cls-1{fill:#3d2e80;}.cls-1,.cls-2{fill-rule:evenodd;}.cls-2{fill:#ce157e;}</style></defs><title>eps-e-payment-standard</title><path class="cls-1" d="M50.63,18.51l5.79,8.77H44.84q1.41-2.16,2.84-4.3t3-4.47ZM70.48,67.66a.57.57,0,0,1,.78.13.77.77,0,0,1,.11.51v4a.56.56,0,0,1-.57.57.56.56,0,0,1-.51-.29,1.27,1.27,0,0,1-1.06.32,1.62,1.62,0,0,1-1.11-.72A2.3,2.3,0,0,1,68,69.91a1.51,1.51,0,0,1,1.1-.83,1.57,1.57,0,0,1,1.1.21V68.16a.59.59,0,0,1,.24-.5Zm-1.09,2.51a.91.91,0,0,0-.47.9,1,1,0,0,0,.38.76.57.57,0,0,0,.75-.18,1.21,1.21,0,0,0,0-1.23.59.59,0,0,0-.69-.25Zm12.08-2.54a.56.56,0,0,1,.73.17.62.62,0,0,1,.11.37v4.18a.57.57,0,0,1-.39.54.59.59,0,0,1-.69-.26,1.41,1.41,0,0,1-1.92-.1A2.22,2.22,0,0,1,79,70a1.54,1.54,0,0,1,1-.84,1.58,1.58,0,0,1,1.18.2V68.17a.61.61,0,0,1,.3-.54Zm-1.14,2.54a.68.68,0,0,0-.4.47,1.1,1.1,0,0,0,.19,1.09.56.56,0,0,0,.85,0,1.17,1.17,0,0,0,0-1.26.57.57,0,0,0-.69-.25ZM50.64,68.23a.57.57,0,0,1,.89.06c.17.25.09.57.11.86a.87.87,0,0,1,.59.14.52.52,0,0,1-.12.82,1.09,1.09,0,0,1-.47.06v2.14a.65.65,0,0,1-.18.46.58.58,0,0,1-.83,0,.77.77,0,0,1-.15-.51v-2c-.11,0-.24,0-.34-.06a.52.52,0,0,1-.11-.86.73.73,0,0,1,.46-.13c0-.3-.07-.66.15-.91Zm7.43,0a.57.57,0,0,1,.89,0c.2.25.11.59.13.89a.84.84,0,0,1,.56.12.53.53,0,0,1-.06.83.94.94,0,0,1-.5.07v2.14a.68.68,0,0,1-.14.41.58.58,0,0,1-.85,0,.69.69,0,0,1-.16-.43c0-.71,0-1.43,0-2.14a.59.59,0,0,1-.43-.09.54.54,0,0,1,0-.85.82.82,0,0,1,.41-.09c0-.29-.06-.63.13-.88Zm-17.63.81a1.42,1.42,0,0,1,1.21.47,1.52,1.52,0,0,1,.29,1V72.3a.61.61,0,0,1-.27.53.57.57,0,0,1-.68-.06.61.61,0,0,1-.19-.48V70.64a.67.67,0,0,0-.13-.44.46.46,0,0,0-.65,0,.58.58,0,0,0-.16.43c0,.58,0,1.17,0,1.75a.57.57,0,0,1-1.14,0c0-.57,0-1.13,0-1.7a.68.68,0,0,0-.14-.46.5.5,0,0,0-.64,0,.58.58,0,0,0-.17.45v1.66a.66.66,0,0,1-.17.49.58.58,0,0,1-.87-.07.63.63,0,0,1-.11-.38V69.82a.67.67,0,0,1,.17-.54.57.57,0,0,1,.89.1,1.33,1.33,0,0,1,1.84.12,1.58,1.58,0,0,1,.92-.43Zm-22.59.63a1.7,1.7,0,0,1,1.09-.61,1.72,1.72,0,0,1,1.33.36A1.9,1.9,0,0,1,21,71a.45.45,0,0,1-.45.41h-2a.86.86,0,0,0,1.23.4,2.37,2.37,0,0,1,.61-.27.49.49,0,0,1,.51.56.88.88,0,0,1-.48.54,2.42,2.42,0,0,1-1.56.27,1.76,1.76,0,0,1-1.17-.74,2.15,2.15,0,0,1,.15-2.5Zm.69.9h1.3a.66.66,0,0,0-.73-.54.68.68,0,0,0-.57.54Zm6.93-1.2a1.35,1.35,0,0,1,1.14-.31,1.48,1.48,0,0,1,1,.68A2.41,2.41,0,0,1,28,71.39a1.89,1.89,0,0,1-.93,1.4,1.5,1.5,0,0,1-1.52-.06v1.06a.57.57,0,0,1-.53.55.55.55,0,0,1-.54-.29.92.92,0,0,1-.07-.49V69.7a.57.57,0,0,1,.43-.56.56.56,0,0,1,.66.26Zm.51.77a.69.69,0,0,0-.39.43,1.21,1.21,0,0,0,.1,1,.54.54,0,0,0,.5.28.61.61,0,0,0,.53-.35,1.15,1.15,0,0,0-.11-1.22.61.61,0,0,0-.63-.14Zm3.24-.85a1.38,1.38,0,0,1,1.69.09.6.6,0,0,1,.88-.17.78.78,0,0,1,.18.64v2.21a1,1,0,0,1-.16.71.58.58,0,0,1-.89-.17,1.22,1.22,0,0,1-.82.35,1.56,1.56,0,0,1-1.27-.58A2.11,2.11,0,0,1,28.38,71a2,2,0,0,1,.84-1.67Zm.76.85a.78.78,0,0,0-.44.62,1,1,0,0,0,.27,1,.56.56,0,0,0,.78-.06,1.13,1.13,0,0,0,0-1.35.54.54,0,0,0-.63-.18ZM42.9,69.4a1.74,1.74,0,0,1,1.45-.27A1.92,1.92,0,0,1,45.73,71a.44.44,0,0,1-.42.46c-.68,0-1.35,0-2,0a.85.85,0,0,0,1.14.44,3.64,3.64,0,0,1,.7-.31.5.5,0,0,1,.51.61.7.7,0,0,1-.28.37,2.35,2.35,0,0,1-.91.38,2,2,0,0,1-1.72-.41,2.08,2.08,0,0,1,.18-3.12Zm.64.78a.9.9,0,0,0-.28.43h1.31a.89.89,0,0,0-.21-.38.65.65,0,0,0-.82,0Zm3.72-.82a1.4,1.4,0,0,1,1.17-.27,1.27,1.27,0,0,1,1,.65,1.62,1.62,0,0,1,.17.87v1.65a.7.7,0,0,1-.22.55.58.58,0,0,1-.82-.13.9.9,0,0,1-.11-.56V70.65a.58.58,0,0,0-.16-.46.56.56,0,0,0-.71,0,.57.57,0,0,0-.17.43v1.65a.7.7,0,0,1-.18.5.58.58,0,0,1-.83,0,.65.65,0,0,1-.14-.46V69.73a.63.63,0,0,1,.16-.44.58.58,0,0,1,.89.07Zm8.17-.25a2.06,2.06,0,0,1,1.27.15.67.67,0,0,1,.43.6.49.49,0,0,1-.57.49,3.8,3.8,0,0,0-.78-.27c-.1,0-.22,0-.23.15s.1.15.17.19a3.77,3.77,0,0,1,1.24.65,1.09,1.09,0,0,1-.09,1.49,1.74,1.74,0,0,1-1.63.32,1.47,1.47,0,0,1-.83-.49.53.53,0,0,1,.29-.76.78.78,0,0,1,.64.15.81.81,0,0,0,.69.12.14.14,0,0,0,0-.24,7.17,7.17,0,0,0-.8-.35,1.35,1.35,0,0,1-.74-.65,1.13,1.13,0,0,1,.19-1.13,1.36,1.36,0,0,1,.73-.42Zm4.5,1a1.7,1.7,0,0,1,1.27-1,1.21,1.21,0,0,1,1.07.33.59.59,0,0,1,.88-.17c.18.15.17.41.18.63v2.26a.92.92,0,0,1-.17.67.59.59,0,0,1-.89-.18,1.2,1.2,0,0,1-.89.35,1.58,1.58,0,0,1-1.31-.72,2.34,2.34,0,0,1-.14-2.18Zm1.42.1a.82.82,0,0,0-.47.81,1,1,0,0,0,.3.8A.57.57,0,0,0,62,71.7a1.18,1.18,0,0,0,0-1.3.56.56,0,0,0-.66-.23Zm3.85-.81a1.42,1.42,0,0,1,1.2-.26,1.29,1.29,0,0,1,1,.79,1.73,1.73,0,0,1,.1.68v1.74a.57.57,0,0,1-1,.36,1.36,1.36,0,0,1-.09-.72c0-.49,0-1,0-1.47a.52.52,0,0,0-.86-.29.65.65,0,0,0-.17.52v1.66a.56.56,0,0,1-.55.56.57.57,0,0,1-.59-.56V69.75a.58.58,0,0,1,.28-.54.55.55,0,0,1,.76.15Zm7,.66a1.66,1.66,0,0,1,1.23-.93,1.25,1.25,0,0,1,1.08.32.6.6,0,0,1,.83-.21.55.55,0,0,1,.22.49v2.38a1,1,0,0,1-.13.68.57.57,0,0,1-.92-.15,1.21,1.21,0,0,1-.86.35,1.63,1.63,0,0,1-1.39-.79A2.31,2.31,0,0,1,72.15,70Zm1.38.15a.75.75,0,0,0-.43.53,1.09,1.09,0,0,0,.19,1,.57.57,0,0,0,.86,0,1.14,1.14,0,0,0,0-1.31.56.56,0,0,0-.66-.22Zm-40.86-.9a.58.58,0,0,1,.92.19c.2.53.39,1.07.59,1.61.19-.39.32-.81.49-1.22.1-.24.15-.53.4-.66a.58.58,0,0,1,.8.24.71.71,0,0,1-.06.6c-.49,1.21-1,2.43-1.47,3.64a1.39,1.39,0,0,1-.27.51.58.58,0,0,1-.94-.23,1,1,0,0,1,.13-.63l.33-.82c-.35-.85-.69-1.71-1-2.57a.58.58,0,0,1,.11-.66Zm43.65.32a.6.6,0,0,1,1.1-.2.74.74,0,0,1,1-.1.6.6,0,0,1,.09.65c-.13.2-.39.24-.59.34s-.5.23-.5.51c0,.53,0,1.07,0,1.6a.57.57,0,0,1-1.14,0c0-.92,0-1.84,0-2.76Zm-54.52.76c.5,0,1,0,1.49,0a.49.49,0,0,1,.49.5.47.47,0,0,1-.44.52H21.87a.49.49,0,0,1-.46-.53.52.52,0,0,1,.39-.48Zm-9,7c1-1.54,2-3.09,3.05-4.62l5.79,8.78H10c.92-1.38,1.83-2.78,2.75-4.16Zm68.39,0,3.06-4.65L90,81.5H78.41c.92-1.38,1.81-2.77,2.73-4.14Z" transform="translate(-10 -18.51)"/><path class="cls-2" d="M26.66,37.09a12.4,12.4,0,0,1,5.25.09,9.41,9.41,0,0,1,7,6.62,10.74,10.74,0,0,1,.37,3.29,19,19,0,0,1-.49,2.81H24.41a4.59,4.59,0,0,0,.87,2.24,4.3,4.3,0,0,0,2,1.43,7,7,0,0,0,7.44-1.68l.45.9c.65,1.23,1.28,2.51,1.9,3.75a8.72,8.72,0,0,1-2,1.27,14,14,0,0,1-5.31,1.12,13,13,0,0,1-5.42-.78,9.09,9.09,0,0,1-4-3,10.53,10.53,0,0,1-1.95-5.21,14.2,14.2,0,0,1,.47-5.76,10.54,10.54,0,0,1,7.76-7.08ZM27.85,42a3.77,3.77,0,0,0-2.1,1.21,5.56,5.56,0,0,0-1.1,2.13h8.73A4.25,4.25,0,0,0,32,42.77,5.21,5.21,0,0,0,27.85,42Zm22-4.72a7.76,7.76,0,0,1,3.21-.38,10.59,10.59,0,0,1,5.26,1.51,8.05,8.05,0,0,1,3.07,3.7,15.53,15.53,0,0,1,1,6.33A12.45,12.45,0,0,1,61.17,54a8.78,8.78,0,0,1-3.31,3.5,11.05,11.05,0,0,1-5.21,1.45,10.57,10.57,0,0,1-4.28-.6v8.2c-1.92,0-3.85,0-5.77,0V37.28h5.09a3.38,3.38,0,0,1,.71,0,4.34,4.34,0,0,0,0,.72,6.58,6.58,0,0,1,1.49-.77ZM50.18,42a3.69,3.69,0,0,0-1.8,1c0,3.39,0,6.78,0,10.18a5.7,5.7,0,0,0,4.69.56,5.4,5.4,0,0,0,1.16-.43,3.43,3.43,0,0,0,1.43-1.37,7.25,7.25,0,0,0,.81-3.27,12.47,12.47,0,0,0-.29-3.5,4.52,4.52,0,0,0-.76-1.65A3.43,3.43,0,0,0,54,42.4,8.13,8.13,0,0,0,50.18,42Zm18.56-4.26a9.47,9.47,0,0,1,3.59-.83,12.74,12.74,0,0,1,3,.18,13.88,13.88,0,0,1,4.28,1.49c-.48,1.33-1,2.64-1.47,4-.11.28-.21.57-.32.85a12.07,12.07,0,0,0-1-.84,6.74,6.74,0,0,0-4.45-.75,1.32,1.32,0,0,0-.86.59,1.63,1.63,0,0,0-.14,1,1.68,1.68,0,0,0,.8.94,14.28,14.28,0,0,0,2,1c.8.35,1.63.63,2.41,1a9.28,9.28,0,0,1,2.28,1.55,5.62,5.62,0,0,1,1.32,1.88,6.51,6.51,0,0,1,.53,2.68,6.21,6.21,0,0,1-.75,3.1,6.36,6.36,0,0,1-3,2.65,9.85,9.85,0,0,1-2.44.69,16.31,16.31,0,0,1-4.68,0,10.63,10.63,0,0,1-2.78-1c-.56-.27-1.1-.55-1.65-.85.73-1.61,1.43-3.23,2.16-4.84.33.26.65.53,1,.78A6.9,6.9,0,0,0,71.07,54,5.13,5.13,0,0,0,74,53.84a1.11,1.11,0,0,0,.58-.78,2.06,2.06,0,0,0-.35-1.58,3.66,3.66,0,0,0-1-.78,20.84,20.84,0,0,0-2.61-1.25,10.86,10.86,0,0,1-3.85-2.59,5.85,5.85,0,0,1-1.43-2.94,6.47,6.47,0,0,1,.09-2.44,5.15,5.15,0,0,1,1.3-2.39,6.48,6.48,0,0,1,2-1.38Z" transform="translate(-10 -18.51)"/></svg>