<svg xmlns="http://www.w3.org/2000/svg" viewBox="0 0 80 23.2"><defs><style>.cls-1{fill:#db3029;}.cls-1,.cls-2{fill-rule:evenodd;}.cls-2{fill:#224084;}</style></defs><title>eurobank</title><g id="Layer_2" data-name="Layer 2"><g id="eurobank"><path class="cls-1" d="M15.2,12.34l-4-4.58L9.84,9.59H7l4.23-5.71,4.58,5.64-.63,2.82m-11,.77H3.63L3.56,13H3.42L3.28,13H3.21l-.07-.07H3.07l-.14-.07-.07-.07-.07-.07-.14-.07-.07-.07-.08-.07-.07-.07-.07-.14-.07-.07-.21-.42v-.15L2,11.56v-.84c.24-.47,0-.56.42-1.06l.07-.14V9.45l5.15-7h2.54L4.76,10.86h6.91l1.76,2.25ZM8.92,0H8.43L8,.07C-2.91,1.53-2.56,16.81,8.43,17.84h.91A8.91,8.91,0,0,0,9.77.07L9.34,0Z"/><path class="cls-2" d="M72.67,20.31l-2-2.68v2.75H69.28V11.92h1.34v5l2-2.25h1.48l-2,2.46,2.33,3.25-1.69-.07m-5.57,0H65.47V16.57l-.07-.14v-.21l-.07-.14L65.26,16v-.07h-.07v-.07h-.07l-.07-.08H65l-.07-.07h-.28l-.14-.07H64v.07h-.21v.07h-.14v.08h-.07l-.14.14v.07h-.07v.07l-.07.07v.14h-.07v.28l-.07.14v3.53H61.53V14.6h1.55v.84l.14-.14.07-.07.07-.14.07-.07.14-.07.07-.14.14-.07h.07l.28-.14.07-.07h.29l.14-.08h.7l.07.08h.28l.08.07h.14l.14.07h.07l.14.07h.07l.07.07.07.07.07.07.28.28v.07l.07.07v.07l.07.14v.07l.08.14v.36l.07.07Zm-8.75,0-.07-.21v-.5l-.14.07-.07.14-.07.07-.14.07-.07.15-.14.07-.07.07-.14.07h-.07l-.29.14h-.21l-.14.07h-.56l-.07-.07h-.29c-.2-.18-.3,0-.56-.35h-.07L55.11,20V20L55,19.88l-.14-.14v-.07l-.07-.07v-.07l-.07-.07v-.14l-.07-.07v-.14L54.61,19v-.5l.08-.14v-.21l.07-.07v-.14l.14-.14.07-.14v-.07l.07-.07.14-.07.07-.07.07-.08.07-.07.14-.07.07-.07.14-.07h.14l.07-.07.15-.07h.14l.14-.07h.28l.21-.07h1.2v-.07c0-.31.08-.68-.14-.92v-.07h-.07v-.07h-.07v-.07h-.14l-.07-.07H57l-.07.07h-.07l-.07.07h-.07v.07l-.07.07-.07.07v.15l-.07.07v.21H54.9v-.5l.07-.07v-.07l.07-.14v-.07l.07-.07.07-.07.07-.07v-.07l.07-.07h.07l.07-.07.07-.07.07-.07h.14l.07-.07.07-.07h.22l.14-.07h.14l.07-.07H58l.14.07h.07l.14.07h.14l.07.07.14.07.07.07h.15L59,15l.07.07.07.07.07.07.07.07.07.07v.07l.07.07.07.14v.07l.07.07v.22l.07.14v2.75l.07.21v1.13l.07.14ZM52.5,19.6l-.21.21a2.61,2.61,0,0,1-1.55.64h-.5l-.14-.07H50l-.07-.07h-.14l-.14-.07a1.69,1.69,0,0,0-.5-.36L49,19.74,49,19.67l-.07-.14-.07.78H47.21V20.1l.07-.15V11.78H48.9v3.66L49,15.3l.14-.07.08-.07.07-.14.07-.07.14-.07.07-.07h.14l.07-.07.14-.07H50l.14-.07h.28l.07-.07h.29l.14.07h.28l.14.07h.14l.14.07h.14l.14.07.08.07.28.14.07.07.14.07v.07h.07l.07.07v.07a2.36,2.36,0,0,1,.35.57L53,16v.14c.13.22.09.48.22.7v.64c0,.6-.05.4-.08.77l-.07.14v.14c-.15.39,0,.25-.35.71l-.14.28Zm-7.62-.14-.14.14-.07.07-.14.07-.07.07-.56.29-.07.07h-.14l-.22.07h-.28l-.14.07h-.63l-.15-.07h-.35l-.14-.07h-.14l-.14-.07L41.43,20,41,19.81l-.08-.07-.14-.07-.28-.28a3.38,3.38,0,0,1-.14-4l.42-.42.14-.07.08-.07.42-.21.07-.07.14-.08h.14l.14-.07h.35l.15-.07h.63l.14.07h.28l.22.07h.14l.07.08.56.28.07.07.14.07.07.07.14.14.07.07.08.14.14.07.07.14.07.14.07.15v.07l.21.42v.28l.07.21v.92l-.07.21v.28a5,5,0,0,0-.28.64l-.07.14-.07.14-.14.07-.08.14Zm-6.41-3.38h-.85l-.07.07h-.14v.07h-.14l-.07.07h-.07v.07h-.07l-.14.14v.07h-.07v.14l-.08.07v.07l-.07.07v3.39H35V14.74l-.07-.14v-.22h1.62v.85h.07c.35-.31.06-.26.57-.7v-.08h.07l.07-.07h.14l.07-.07h.7l.08.07h.07l.07.07h.07l.14.08.21.21.14.07v.07Zm-7.12,4.23-.08-.85-.07.14-.07.14-.07.07a1.49,1.49,0,0,1-.91.57l-.07.07H29l-.07-.07h-.07l-.07-.07-.08-.07h-.07l-.42-.43v-.07l-.07-.14v-.07L28,19.46v-.07L28,19.25v-.07L27.89,19V14.38H29.3v4.24l.07.14v.14h.07V19h.07V19l.07.07h.07v.07h.14l.07.07h.64l.07-.07h.07l.07-.07h.07L31,18.9l.14-.07.07-.14.07-.07.22-.22v-.14l.07-.07V14.38H33V20.1l.07.14v.07Zm-5.22-.21H21.9V20h-.14c-.17-.18,0,.09-.36-.28V19.6l-.07-.07v-.21l-.07-.07v-7h4.23v1.13H23v2h2.4v1.2H23v2h.07v.08c0,.23.05.15.22.35h.07V19h.14V19h2.61ZM42.7,15.44h-.35l-.08.07H42.2l-.07.07h-.07l-.07.07-.07.07-.07.07v.08h-.07l-.07.07V16l-.07.07v.14l-.07.07v.21l-.07.07v.49l-.07.14v.22l.07.14v.49l.07.07v.14l.07.07v.21h.07v.08l.07.07.07.07v.07l.07.07H42V19h.07l.07.07h.07v.07h.15l.07.07H43l.07-.07h.14l.07-.07h.07l.14-.14h.07v-.07l.08-.07.07-.07v-.07l.14-.15v-.21l.07-.07v-.14l.07-.14V16.64l-.07-.07v-.14l-.07-.14v-.14l-.07-.07V16l-.07-.07v-.07h-.07l-.08-.08v-.07l-.07-.07H43.4v-.07h-.07l-.07-.07h-.14l-.07-.07Zm7.4.21h-.35l-.07.07h-.07l-.14.15H49.4v.07h-.07l-.07.07c0,.18-.19.31-.22.49l-.07.07v.14l-.07.07v.64l-.07.07.07.14v.56l.07.07v.14l.07.07c0,.18.19.32.22.5l.07.07h.07v.07l.07.07h.07c.27.22.35.12.7.14h.21l.08-.07h.21l.07-.07h.07l.07-.07h.14l.07-.07V19l.07-.07.14-.14v-.07l.07-.07v-.15l.07-.14v-.21l.07-.14V17l-.07-.07v-.28l-.07-.07v-.21l-.07-.07v-.07H51.3v-.07L51.16,16v-.07h-.07L51,15.87l-.07-.08h-.07l-.07-.07h-.21l-.08-.07Zm8,2h-.14a3,3,0,0,0-.92.07h-.07v.07h-.07a.59.59,0,0,0-.35.21h-.07v.07l-.07.07v.07l-.07.07v.14l-.07.07v.29l.07.07V19l.07.07.07.07v.07h.07l.07.07.07.07h.14l.07.07h.35l.07-.07h.15l.07-.07h.07l.07-.07.07-.07.07-.07V19h.07V18.9l.07-.07v-.07l.07-.07v-.15l.07-.07v-.84ZM76,9.17H18.58l-.07.35c-.28,3.93-3.94,8-7.76,9l-.42.08.42,1v.21a3.55,3.55,0,0,0,1.13,2.33l.14.07.22.14A4.38,4.38,0,0,0,15,23.2H80V12.76l-.07-.21v-.21l-.07-.21L79.79,12v-.21l-.07-.22-.14-.14-.07-.21-.07-.14-.15-.14-.07-.14-.14-.21-.14-.14-.14-.15-.14-.07c-.32-.28-.33-.46-.78-.56l-.14-.14-.21-.07a3.61,3.61,0,0,0-.91-.28Z"/></g></g></svg>