<?xml version="1.0" encoding="utf-8"?>
<!-- Generator: Adobe Illustrator 22.1.0, SVG Export Plug-In . SVG Version: 6.00 Build 0)  -->
<svg version="1.1" id="Layer_1" xmlns="http://www.w3.org/2000/svg" xmlns:xlink="http://www.w3.org/1999/xlink" x="0px" y="0px"
	 viewBox="0 0 80 80" style="enable-background:new 0 0 80 80;" xml:space="preserve">
<style type="text/css">
	.st0{fill-rule:evenodd;clip-rule:evenodd;fill:#FAC90E;}
	.st1{fill-rule:evenodd;clip-rule:evenodd;fill:#D7AD28;}
	.st2{fill-rule:evenodd;clip-rule:evenodd;fill:#FCEB88;}
	.st3{fill-rule:evenodd;clip-rule:evenodd;fill:#D8CC71;}
	.st4{fill-rule:evenodd;clip-rule:evenodd;fill:#63AEB6;}
	.st5{fill-rule:evenodd;clip-rule:evenodd;fill:#424A4D;}
	.st6{fill-rule:evenodd;clip-rule:evenodd;fill:#FDF8DD;}
	.st7{fill-rule:evenodd;clip-rule:evenodd;fill:#589FA8;}
</style>
<g>
	<path class="st0" d="M22.6,10.5l51,23.8c1.3,0.6,1.8,2.1,1.2,3.4l-14,29.9c-0.6,1.3-2.1,1.8-3.4,1.2L6.5,45
		c-1.3-0.6-1.8-2.1-1.2-3.4l14-29.9C19.8,10.5,21.3,9.9,22.6,10.5L22.6,10.5z"/>
	<path class="st1" d="M28.5,35c3.1,1.4,6.3,2.9,9.4,4.4c-0.7,1.4-1.3,2.8-2,4.2c-3.1-1.4-6.3-2.9-9.4-4.4
		C27.1,37.8,27.8,36.4,28.5,35L28.5,35z M41.8,41.2c3.1,1.5,6.3,2.9,9.4,4.4c-0.7,1.4-1.3,2.8-2,4.2c-3.1-1.4-6.3-2.9-9.4-4.4
		C40.5,44,41.2,42.6,41.8,41.2L41.8,41.2z M15.1,28.7l9.4,4.4l-2,4.2l-9.4-4.4L15.1,28.7z M55.2,47.5l9.4,4.4l-2,4.2l-9.4-4.4
		L55.2,47.5z"/>
	<path class="st2" d="M22.4,19.4l8.1,3.8c0.5,0.2,0.7,0.8,0.4,1.2l-2.2,4.7c-0.2,0.5-0.8,0.7-1.2,0.4l-8.1-3.8
		c-0.5-0.2-0.7-0.8-0.4-1.2l2.2-4.7C21.4,19.4,21.9,19.2,22.4,19.4L22.4,19.4z"/>
	<path class="st2" d="M46.3,26.1l24.2,11.3c0.1,0.1,0.2,0.2,0.1,0.4l-1.9,4C68.7,42,68.5,42,68.4,42L44.2,30.7
		c-0.1-0.1-0.2-0.3-0.1-0.4l1.9-4.1C46,26.1,46.2,26,46.3,26.1L46.3,26.1z"/>
	<polygon class="st3" points="20.1,22.1 22.7,23.3 24.1,20.2 24.6,20.4 23.2,23.5 29.9,26.7 29.7,27.1 26.4,25.6 25.1,28.4 
		24.5,28.1 25.8,25.4 19.9,22.6 	"/>
	<path class="st4" d="M12.7,31.6h56.2c1.4,0,2.5,1.2,2.5,2.5v33c0,1.4-1.2,2.5-2.5,2.5H12.7c-1.4,0-2.5-1.1-2.5-2.5v-33
		C10.1,32.8,11.3,31.6,12.7,31.6L12.7,31.6z"/>
	<rect x="10.1" y="39.4" class="st5" width="61.3" height="6.1"/>
	<rect x="23.4" y="49.8" class="st6" width="34.7" height="4.6"/>
	<path class="st7" d="M15.6,62.1h15.6v1.8H15.6V62.1z M15.6,65.2h15.6V67H15.6V65.2z"/>
</g>
</svg>
