<svg xmlns="http://www.w3.org/2000/svg" viewBox="0 0 80 34.4"><defs><style>.cls-1{fill:#e92725;}.cls-2{fill:#003a7d;}.cls-3,.cls-4{fill:#fff;}.cls-4,.cls-5{fill-rule:evenodd;}.cls-5,.cls-6{fill:#ed1c24;}</style></defs><title>giropay</title><g id="Layer_2" data-name="Layer 2"><g id="giropay"><path class="cls-1" d="M0,6.17A6.19,6.19,0,0,1,6.2,0H73.8A6.19,6.19,0,0,1,80,6.17V28.23a6.19,6.19,0,0,1-6.2,6.17H6.2A6.19,6.19,0,0,1,0,28.23V6.17Z"/><path class="cls-2" d="M0,6.17A6.19,6.19,0,0,1,6.2,0H73.8A6.19,6.19,0,0,1,80,6.17V28.23a6.19,6.19,0,0,1-6.2,6.17H6.2A6.19,6.19,0,0,1,0,28.23V6.17Z"/><path class="cls-3" d="M2.55,6.38V28a3.86,3.86,0,0,0,3.87,3.86H41.84V2.52H6.42A3.86,3.86,0,0,0,2.55,6.38Z"/><path class="cls-4" d="M44.36,25h3V20.3h0a3,3,0,0,0,2.73,1.41c2.58,0,4-2.13,4-4.68,0-2.09-1.31-4.37-3.7-4.37a3.41,3.41,0,0,0-3.22,1.76h0V12.86H44.36V25ZM51,17.09c0,1.38-.69,2.33-1.81,2.33a2,2,0,0,1-1.83-2.21c0-1.3.73-2.26,1.83-2.26A1.92,1.92,0,0,1,51,17.09Z"/><path class="cls-4" d="M64.18,21.51a10.81,10.81,0,0,1-.17-2V16.25c0-2.64-1.91-3.59-4.11-3.59a8.84,8.84,0,0,0-3.46.62l.05,2a5.7,5.7,0,0,1,2.76-.65c1.08,0,2,.32,2,1.5a8.5,8.5,0,0,0-1.4-.12c-1.59,0-4.47.32-4.47,3,0,1.87,1.53,2.72,3.24,2.72a3,3,0,0,0,2.74-1.56h0c0,.45.05.9.07,1.36Zm-6-2.74c0-.83.8-1.15,1.81-1.15.45,0,.88,0,1.27.05a2,2,0,0,1-1.85,2c-.7,0-1.23-.35-1.23-.95Z"/><path class="cls-3" d="M65.52,25a8.34,8.34,0,0,0,1.86.2c2.74,0,3.39-2.1,4.24-4.28l3.16-8h-3L70,18.51h0l-1.86-5.65H64.91l3.5,8.85A1.52,1.52,0,0,1,66.9,22.9a3.68,3.68,0,0,1-1.18-.18L65.52,25Z"/><path class="cls-5" d="M16.33,12.86h-2.7v1.56h0a3.37,3.37,0,0,0-2.93-1.76c-2.69,0-3.9,1.93-3.9,4.5s1.47,4.35,3.85,4.35A3.35,3.35,0,0,0,13.51,20h0v.47c0,1.69-.92,2.5-2.65,2.5A5.9,5.9,0,0,1,8,22.29l-.15,2.36a10.33,10.33,0,0,0,3.3.54c3.49,0,5.21-1.14,5.21-4.69V12.86ZM9.84,17.11c0-1.18.58-2.16,1.7-2.16a1.9,1.9,0,0,1,1.91,2,2,2,0,0,1-1.91,2.23c-.9,0-1.7-.76-1.7-2.11Z"/><path class="cls-5" d="M18.4,21.51h3V12.86h-3v8.65Zm3-12.25h-3v2.19h3V9.26Z"/><path class="cls-6" d="M29.7,12.76a6.28,6.28,0,0,0-1-.1,2.69,2.69,0,0,0-2.56,1.79h0V12.86H23.38v8.65h3V17.86c0-1.7.78-2.71,2.17-2.71a3.4,3.4,0,0,1,1,.1l.15-2.49Z"/><path class="cls-5" d="M34.85,21.71c2.85,0,5-1.66,5-4.52s-2.18-4.53-5-4.53-5,1.66-5,4.53,2.17,4.52,5,4.52Zm0-2.09c-1.38,0-2-1.15-2-2.43s.57-2.44,2-2.44,1.94,1.15,1.94,2.44-.56,2.43-1.94,2.43Z"/></g></g></svg>