<svg id="Layer_1" data-name="Layer 1" xmlns="http://www.w3.org/2000/svg" viewBox="0 0 80 27.6"><defs><style>.cls-1{fill:#ffcd00;}.cls-2{fill:#717274;}.cls-3{fill:#010101;}</style></defs><title>grupo-mutual</title><polygon class="cls-1" points="0 16.7 0 0.9 25.8 0.9 25.8 16.7 12.6 12.2 0 16.7"/><polygon class="cls-1" points="0 18.5 12.8 14.2 25.9 18.8 25.9 27.4 0 27.4 0 18.5"/><path class="cls-2" d="M50.9,37.4v4.1h-.3A6.07,6.07,0,0,0,49,38.9a3.58,3.58,0,0,0-2.4-.9,3.14,3.14,0,0,0-2.1.7,5.28,5.28,0,0,0-1.2,2.1,12.41,12.41,0,0,0-.3,2.7,9.48,9.48,0,0,0,.4,3,3.68,3.68,0,0,0,1.2,1.9,3.38,3.38,0,0,0,2,.6,2.2,2.2,0,0,0,.8-.1,3.18,3.18,0,0,0,.9-.3V46.2c0-.5,0-.8-.1-.9s-.2-.3-.4-.4a1.45,1.45,0,0,0-.7-.2h-.3v-.3h5.4v.3a1.29,1.29,0,0,0-.8.2.78.78,0,0,0-.4.4,5.38,5.38,0,0,0-.1.8v2.4a14.27,14.27,0,0,1-2.2.8,9.86,9.86,0,0,1-2.4.3,6.69,6.69,0,0,1-2.6-.5,5.67,5.67,0,0,1-1.8-1.2,5.23,5.23,0,0,1-1.2-1.7,6,6,0,0,1-.6-2.7A6.44,6.44,0,0,1,41.8,39a5.88,5.88,0,0,1,4.4-1.8,7.57,7.57,0,0,1,1.5.1,7.87,7.87,0,0,1,1.2.4,4.18,4.18,0,0,0,.9.3.52.52,0,0,0,.4-.2,3.22,3.22,0,0,0,.4-.7h.3Z" transform="translate(-10 -36.2)"/><path class="cls-2" d="M56,41.3v1.8a6.68,6.68,0,0,1,1.3-1.7,1.67,1.67,0,0,1,1.1-.4.91.91,0,0,1,.7.3,1.14,1.14,0,0,1,.3.8,1.22,1.22,0,0,1-.3.9.86.86,0,0,1-.6.3.91.91,0,0,1-.7-.3c-.2-.2-.3-.3-.4-.3s-.1-.1-.2-.1a.52.52,0,0,0-.4.2,2.18,2.18,0,0,0-.5.8,5.82,5.82,0,0,0-.3,1.9v2.4c0,.3,0,.5.1.6s.2.3.3.3.3.1.6.1v.3H52.9v-.3a.78.78,0,0,0,.7-.3,3.09,3.09,0,0,0,.2-1.3V43c0-.5,0-.8-.1-.9s-.1-.3-.2-.4-.3-.1-.5-.2v-.3h3Z" transform="translate(-10 -36.2)"/><path class="cls-2" d="M67.6,41.3v6.3a2.87,2.87,0,0,0,.2,1.2c.1.2.3.2.7.3v.3H65.4V48.3a3.33,3.33,0,0,1-1.1,1,2.66,2.66,0,0,1-1.2.3,1.5,1.5,0,0,1-1.1-.4,2.29,2.29,0,0,1-.7-1,8.09,8.09,0,0,1-.2-2V43a2,2,0,0,0-.2-1.1,1.54,1.54,0,0,0-.7-.3v-.3h3.1v5.5a2.81,2.81,0,0,0,.1,1.1c.1.2.1.3.2.4s.2.1.4.1a.76.76,0,0,0,.5-.2,3.78,3.78,0,0,0,.8-.9V43a2,2,0,0,0-.2-1.1,1.54,1.54,0,0,0-.7-.3v-.3Z" transform="translate(-10 -36.2)"/><path class="cls-2" d="M72.5,48.5v3c0,.4,0,.7.1.8s.2.3.3.3.4.1.8.1V53H69.4v-.3a.78.78,0,0,0,.7-.3,1.85,1.85,0,0,0,.2-1V43a2.33,2.33,0,0,0-.2-1.1c-.1-.2-.4-.2-.7-.3v-.3h3.2v1.1a3.63,3.63,0,0,1,.8-.9,2,2,0,0,1,1.3-.4,2,2,0,0,1,1.5.6,2.94,2.94,0,0,1,1,1.6,7.79,7.79,0,0,1,.4,2.1,5.09,5.09,0,0,1-.4,2.2,2.49,2.49,0,0,1-1.1,1.5,2.35,2.35,0,0,1-1.6.5,2.66,2.66,0,0,1-1.2-.3A2.94,2.94,0,0,1,72.5,48.5Zm0-.8c.5.7,1,1.1,1.5,1.1.3,0,.5-.2.7-.5a6.06,6.06,0,0,0,.4-2.8,6.54,6.54,0,0,0-.5-2.9,1,1,0,0,0-.8-.5c-.5,0-1,.4-1.3,1.3Z" transform="translate(-10 -36.2)"/><path class="cls-2" d="M82.4,41a3.45,3.45,0,0,1,1.8.5A3.74,3.74,0,0,1,85.5,43a5.38,5.38,0,0,1,.4,2.2,5.47,5.47,0,0,1-.8,2.9,3.32,3.32,0,0,1-2.7,1.4,2.93,2.93,0,0,1-2.6-1.3,5.07,5.07,0,0,1-.9-3,4.86,4.86,0,0,1,.9-3A3.39,3.39,0,0,1,82.4,41Zm0,.7a.91.91,0,0,0-.7.3,2.83,2.83,0,0,0-.4,1.3,21,21,0,0,0-.1,2.7,9.15,9.15,0,0,0,.1,1.7,1.88,1.88,0,0,0,.4.9.91.91,0,0,0,.7.3,1.42,1.42,0,0,0,.6-.2,1.23,1.23,0,0,0,.4-.8,20.59,20.59,0,0,0,.2-3.3,7.47,7.47,0,0,0-.2-2,1.58,1.58,0,0,0-.5-.8A.75.75,0,0,0,82.4,41.7Z" transform="translate(-10 -36.2)"/><path class="cls-3" d="M46.4,60l2.7-6.9h4v.3h-.3a1.45,1.45,0,0,0-.7.2,1.38,1.38,0,0,0-.3.4c-.1.1-.1.4-.1,1v6.9a2.24,2.24,0,0,0,.1,1l.3.3a1.48,1.48,0,0,0,.7.1H53v.3H47.9v-.3h.3a1.45,1.45,0,0,0,.7-.2,1.38,1.38,0,0,0,.3-.4c.1-.1.1-.4.1-1V54l-3.7,9.5h-.2l-3.8-9.4v8.2a.92.92,0,0,0,.4.6c.2.2.5.2,1,.2v.3H39.7v-.3h.1a1.27,1.27,0,0,0,.6-.1,1.38,1.38,0,0,0,.4-.3.85.85,0,0,0,.2-.6V54.7a2.24,2.24,0,0,0-.1-1l-.3-.3a1.48,1.48,0,0,0-.7-.1h-.3V53h4Z" transform="translate(-10 -36.2)"/><path class="cls-3" d="M60.3,56.4V62a2.24,2.24,0,0,0,.1,1,1.63,1.63,0,0,0,.6.3v.3H58.3v-1a2.84,2.84,0,0,1-1,.9,2,2,0,0,1-1.1.3,1.28,1.28,0,0,1-1-.4,1.46,1.46,0,0,1-.6-.9,5.94,5.94,0,0,1-.2-1.7V58a2.24,2.24,0,0,0-.1-1,1.63,1.63,0,0,0-.6-.3v-.3h2.7v4.9a2.51,2.51,0,0,0,.1,1c0,.1.1.3.2.3a.37.37,0,0,0,.3.1.9.9,0,0,0,.5-.1,3,3,0,0,0,.7-.8V58a2.24,2.24,0,0,0-.1-1,1.63,1.63,0,0,0-.6-.3v-.3Z" transform="translate(-10 -36.2)"/><path class="cls-3" d="M64.7,53.8v2.6h1.6v.8H64.7v4.4c0,.4,0,.7.1.8s.1.2.2.3a.37.37,0,0,0,.3.1c.3,0,.6-.3.9-.8l.2.2a2,2,0,0,1-1.9,1.5,1.5,1.5,0,0,1-1.1-.4,2.1,2.1,0,0,1-.6-.8,13.8,13.8,0,0,1-.1-1.4V57.2h-.9v-.3a10.28,10.28,0,0,0,1.5-1.4,9.91,9.91,0,0,0,1.1-1.7Z" transform="translate(-10 -36.2)"/><path class="cls-3" d="M73.4,56.4V62a2.24,2.24,0,0,0,.1,1,1.63,1.63,0,0,0,.6.3v.3H71.4v-1a2.84,2.84,0,0,1-1,.9,2,2,0,0,1-1.1.3,1.28,1.28,0,0,1-1-.4,1.46,1.46,0,0,1-.6-.9,5.94,5.94,0,0,1-.2-1.7V58a2.24,2.24,0,0,0-.1-1,1.63,1.63,0,0,0-.6-.3v-.3h2.7v4.9a2.51,2.51,0,0,0,.1,1c0,.1.1.3.2.3a.37.37,0,0,0,.3.1.9.9,0,0,0,.5-.1,3,3,0,0,0,.7-.8V58a2.24,2.24,0,0,0-.1-1,1.63,1.63,0,0,0-.6-.3v-.3Z" transform="translate(-10 -36.2)"/><path class="cls-3" d="M78.9,62.5a3.47,3.47,0,0,1-2.2,1.2,1.37,1.37,0,0,1-1.4-1.4,2.08,2.08,0,0,1,.7-1.5,12,12,0,0,1,2.9-1.7v-.7a2.24,2.24,0,0,0-.1-1c-.1-.1-.2-.3-.3-.4s-.3-.2-.5-.2a1.88,1.88,0,0,0-.8.2c-.1.1-.2.2-.2.3s.1.2.2.4a.86.86,0,0,1,.3.6.6.6,0,0,1-.3.6.91.91,0,0,1-.7.3,1.14,1.14,0,0,1-.8-.3.91.91,0,0,1-.3-.7,1.67,1.67,0,0,1,.4-1.1,2.84,2.84,0,0,1,1.1-.8,4,4,0,0,1,1.5-.3,2.41,2.41,0,0,1,1.5.4,1.85,1.85,0,0,1,.7.9,5,5,0,0,1,.1,1.5v3.4c0,.1.1.1.1.2a.35.35,0,0,0,.2.1.54.54,0,0,0,.4-.3l.2.2a1.9,1.9,0,0,1-.7.8,1.4,1.4,0,0,1-.9.3,1.22,1.22,0,0,1-.9-.3C79,63.2,78.9,62.9,78.9,62.5Zm0-.5V59.6a5.12,5.12,0,0,0-1.3,1.2,1.6,1.6,0,0,0-.3.8,1.42,1.42,0,0,0,.2.6.76.76,0,0,0,.5.2A1.22,1.22,0,0,0,78.9,62Z" transform="translate(-10 -36.2)"/><path class="cls-3" d="M85.2,53.2v8.9a2.15,2.15,0,0,0,.2,1,.85.85,0,0,0,.6.2v.3H82.4v-.3a.91.91,0,0,0,.7-.3c.1-.1.1-.4.1-.9V54.7a2.15,2.15,0,0,0-.2-1,.85.85,0,0,0-.6-.2v-.3Z" transform="translate(-10 -36.2)"/><path class="cls-2" d="M87.7,36.2a2,2,0,0,1,1.1.3,2,2,0,0,1,.9.9,2.55,2.55,0,0,1,0,2.4,2,2,0,0,1-.9.9,2.55,2.55,0,0,1-2.4,0,2,2,0,0,1-.9-.9,2.55,2.55,0,0,1,0-2.4,2,2,0,0,1,.9-.9A3.45,3.45,0,0,1,87.7,36.2Zm0,.3a1.93,1.93,0,0,0-1,.3,3,3,0,0,0-.8.8,2,2,0,0,0-.3,1.1,2.28,2.28,0,0,0,.3,1.1,2,2,0,0,0,.8.8,1.93,1.93,0,0,0,1,.3,1.69,1.69,0,0,0,1-.3,3,3,0,0,0,.8-.8,2,2,0,0,0,.3-1.1,2.28,2.28,0,0,0-.3-1.1,2,2,0,0,0-.8-.8A1.93,1.93,0,0,0,87.7,36.5Zm-1.3.7h1.2a1.29,1.29,0,0,1,.8.2.6.6,0,0,1,.3.6c0,.2,0,.3-.1.4a1.38,1.38,0,0,1-.4.3l.4.9c.1.1.1.2.2.3l.1.1h-.8l-.7-1.3h-.2v.7c0,.2,0,.3.1.4s.2.1.3.1V40H86.2v-.1a.37.37,0,0,0,.3-.1c.1-.1.1-.2.1-.4V37.8c0-.2,0-.3-.1-.4s-.1-.1-.2-.1v-.1Zm1,1.4h.2a.69.69,0,0,0,.6-.7c0-.2,0-.3-.1-.4a.52.52,0,0,0-.4-.2h-.1v1.3Z" transform="translate(-10 -36.2)"/></svg>