<svg xmlns="http://www.w3.org/2000/svg" viewBox="0 0 80 14.1"><defs><style>.cls-1{fill:#1a1818;}.cls-2{fill:#fff;}.cls-3{fill:#e52525;}</style></defs><title>HSBC</title><g id="Layer_2" data-name="Layer 2"><g id="HSBC"><path id="_Path_" data-name="&lt;Path&gt;" class="cls-1" d="M10.35,7.59s0,4.87,0,4.87a1.19,1.19,0,0,1-1.22,1.16H8.47v.24h5.59v-.24H13.4a1.2,1.2,0,0,1-1.21-1.16V1.6A1.2,1.2,0,0,1,13.4.45h.66V.2H8.47V.45h.66A1.2,1.2,0,0,1,10.35,1.6V6.9H3.72V1.6A1.2,1.2,0,0,1,4.93.45h.66V.2H0V.45H.66A1.21,1.21,0,0,1,1.88,1.6V12.46A1.2,1.2,0,0,1,.66,13.62H0v.24H5.59v-.24H4.93a1.2,1.2,0,0,1-1.21-1.16s0-4.87,0-4.87Z"/><path id="_Path_2" data-name="&lt;Path&gt;" class="cls-1" d="M23.65,10.29a3.81,3.81,0,0,1-1.14,2.64,4.19,4.19,0,0,1-2.87,1.12,7.68,7.68,0,0,1-3.12-.93,1,1,0,0,0-.85,0,1.09,1.09,0,0,0-.46.87H15V9.28h.21a5,5,0,0,0,1.3,2.8,3.61,3.61,0,0,0,3.24,1,2.48,2.48,0,0,0,2-2.58A2.22,2.22,0,0,0,20.57,8.7L18.19,7.14a16.43,16.43,0,0,1-2.32-1.79,2.8,2.8,0,0,1-.8-1.94,3.27,3.27,0,0,1,1-2.34A3.9,3.9,0,0,1,18.82,0a5.29,5.29,0,0,1,2.55.82,1,1,0,0,0,.89,0c.2-.11.34-.28.4-.74h.21V4.56h-.21a5.28,5.28,0,0,0-1.27-2.95A2.9,2.9,0,0,0,18.8.9c-1.23.24-1.83.8-1.94,1.78a1.86,1.86,0,0,0,.56,1.5c.47.57,3.51,2.29,4.89,3.48a3.48,3.48,0,0,1,1.34,2.63"/><path class="cls-1" d="M28.11,13.09a4.85,4.85,0,0,0,4-.38,3.07,3.07,0,0,0-.3-5.09,6.66,6.66,0,0,0-3.7-.34Zm0-6.58a6.21,6.21,0,0,0,3.41-.27,2.91,2.91,0,0,0,1.39-3.07A2.62,2.62,0,0,0,31.84,1.5a4.64,4.64,0,0,0-3.73-.42Zm4.4.38c2.44.83,3.13,2.55,2.68,4.32-.53,2.09-2.88,2.51-3.64,2.61-.34,0-1.22,0-2.09,0H24.38v-.25h.81a1.12,1.12,0,0,0,1.1-1.08V1.62A1.13,1.13,0,0,0,25.19.53h-.8V.28h4.86a10.71,10.71,0,0,1,2.21.19c.69.13,2.7.73,3.18,2.6a3.17,3.17,0,0,1-2.13,3.82"/><path id="_Path_3" data-name="&lt;Path&gt;" class="cls-1" d="M48,.44l.19,4.63h-.27a4.08,4.08,0,0,0-1.14-2.53,4.73,4.73,0,0,0-.9-.74,4.34,4.34,0,0,0-3.1-.64A4.42,4.42,0,0,0,39.35,4a8.27,8.27,0,0,0,0,6.29A4.87,4.87,0,0,0,43.11,13a5.43,5.43,0,0,0,5.23-2.32l.28.19a6.63,6.63,0,0,1-5.38,3.22A6.94,6.94,0,0,1,38,11.69a7.15,7.15,0,0,1-1.47-4.27,8.71,8.71,0,0,1,.8-3.82,6.53,6.53,0,0,1,5-3.3,6.19,6.19,0,0,1,3.9.73c.49.29.77.32,1,.21a.79.79,0,0,0,.48-.8Z"/><path id="_Path_4" data-name="&lt;Path&gt;" class="cls-2" d="M73.17,13.86H59.52V.22H73.17Z"/><path id="_Path_5" data-name="&lt;Path&gt;" class="cls-3" d="M52.7,7l6.82,6.82V.21Z"/><path id="_Path_6" data-name="&lt;Path&gt;" class="cls-3" d="M59.52,13.86H73.17L66.35,7Z"/><path id="_Path_7" data-name="&lt;Path&gt;" class="cls-3" d="M66.35,7,73.17.21H59.52Z"/><path id="_Path_8" data-name="&lt;Path&gt;" class="cls-3" d="M73.17.21V13.86L80,7Z"/></g></g></svg>