<svg xmlns="http://www.w3.org/2000/svg" viewBox="0 0 80 20.1"><defs><style>.cls-1{fill:#ec1654;}.cls-2{fill:#9c9a9b;}.cls-3{fill:#010101;}</style></defs><title>Huaxia_Bank</title><g id="Layer_2" data-name="Layer 2"><g id="Huaxia_Bank"><path class="cls-1" d="M1.15,4.93s.3,1.87,2.79.65A26.19,26.19,0,0,0,7.11,2.83,10.49,10.49,0,0,1,14.29,0c.13,0,.34.21.4.51s.15.61.74.56a2,2,0,0,1,1.49.3,1,1,0,0,1,.15.82c0,.21,0,.54.82.73a3.68,3.68,0,0,0,1.7.15.78.78,0,0,1,.88.4c.21.32.5.71-.21,1.11S18.7,5.5,18.7,6a6.46,6.46,0,0,0-6.23-1.32A6.7,6.7,0,0,0,7.86,9.61c-.14,1.09-.57,7.21,6.36,8,1.51.17,3.84-.43,6.56-3.35l-.31.72s.52.05,1-1a.53.53,0,0,1,0,.37,6.7,6.7,0,0,1-1.17,1.75,1.72,1.72,0,0,0,1.07-.89,7.09,7.09,0,0,1-7.49,4.91,10.34,10.34,0,0,1-9-6,11.3,11.3,0,0,1-.82-5.32S1.68,10.14.59,8.56c-.44-.65-1.31-1.49.56-3.63"/><path class="cls-2" d="M18.4,12.43a1.15,1.15,0,0,1-1.06,1.22h-4.7a1.15,1.15,0,0,1-1.06-1.22V9.86a1.14,1.14,0,0,1,1.06-1.21h4.7A1.15,1.15,0,0,1,18.4,9.86v2.57"/><path class="cls-3" d="M30.93,8.56c-.91,1.93-3.46,1.83-3.46,1.83v1.07a9.23,9.23,0,0,0,1.42-.19V14.2H30.6V10.58a4,4,0,0,0,1.73-2Zm2.51,0v2.74a11.38,11.38,0,0,1-1.42.29v1a10.38,10.38,0,0,0,1.42-.18v.64a1,1,0,0,0,1.17,1.07h5v-.95H35.68c-.66,0-.64-.21-.64-.39V12a8.94,8.94,0,0,0,4.14-2.87H37.53A7.49,7.49,0,0,1,35,10.8V8.6Zm-1,6v.53h-5v1h5V17.9h1.83V16.09h5.31v-1H34.28v-.53Z"/><path class="cls-3" d="M49.58,16.66c2.93-1,3-2.2,3-2.2H44.48l.37-.49h6.76a.84.84,0,0,0,.94-.76V11a.81.81,0,0,0-.76-.82H47.65l.17-.62h5.1V8.79H41.24v.74h4.92l-.21.62H42.39a.67.67,0,0,0-.7.67v2.24c0,.58.64.91,1.19.91h.18A4.18,4.18,0,0,1,41,15.9l.62.85a4.68,4.68,0,0,0,1.92-1.23c.55.34,2.23,1.18,2.23,1.18a37.32,37.32,0,0,1-3.85.19v.9a36.94,36.94,0,0,0,5.71-.62,21,21,0,0,0,5.34.62v-.92A25.83,25.83,0,0,1,49.58,16.66Zm-6.26-3.74h6.62v-.68H43.29v-.35h6.65v-.68H43.29c0-.24.11-.45.39-.45H50.5c.2,0,.39.23.39.54V13c0,.21-.09.35-.44.35H43.77C43.58,13.35,43.39,13.31,43.32,12.92Zm4.27,3.35a12.46,12.46,0,0,1-2.22-1h4.47a4.65,4.65,0,0,1-2.25,1"/><path class="cls-3" d="M54.4,12.43h1.28v1H54.4v.87h1.28v3.49s.78.5,3.19-1v-1s-1,.72-1.17.82-.39,0-.39-.47V14.28h1.56v-.87H57.31v-1h1.56v-.87H54.4ZM58,8.61H56.42a4,4,0,0,1-2,1.78v1a3.66,3.66,0,0,0,1.87-.78h2.6V9.67H57.25A8.85,8.85,0,0,0,58,8.61Zm3,3h3.11V10.7H61v-.6c0-.28.16-.55.66-.55h2.59a.56.56,0,0,1,.56.64v2.05c0,.25-.15.45-.58.45H61Zm0,5v-3h3.87c1.25,0,1.52-.47,1.52-.86V9.92c0-1-.84-1.13-1.36-1.13H60.56c-.56,0-1.11.41-1.11.86v7c0,1,.53,1.26,1.19,1.26h2.24V17H61.52C61.13,17,61.05,16.81,61.05,16.62Zm3.8-.17a6,6,0,0,0,1.45-2.23H64.67c.16.59-.51,1.3-.82,1.59A4.4,4.4,0,0,1,62.53,14l-.8.41c1.09,3.33,5.06,3.52,5.06,3.52l0-1a5.35,5.35,0,0,1-2-.52"/><path class="cls-3" d="M67.94,12.55v1a6.34,6.34,0,0,0,1.2-.17v4.54h1.64V12.7A3.39,3.39,0,0,0,72.14,11H70.6S70.21,12.2,67.94,12.55ZM79.53,9H72.82v.85h6.71ZM67.92,10.23v1a5.3,5.3,0,0,0,4.26-2.68H70.49A3.2,3.2,0,0,1,67.92,10.23Zm4.53,1.17v.86h4.71v4a.85.85,0,0,1-.78.76H73.66v1h3.69c.61,0,1.35-.5,1.35-1.75v-4H80V11.4H72.45"/><polyline class="cls-3" points="43.77 7.66 43.46 7.66 43.46 6.5 41.8 6.5 41.8 7.66 41.49 7.66 41.49 5.18 41.8 5.18 41.8 6.28 43.46 6.28 43.46 5.18 43.77 5.18 43.77 7.66"/><path class="cls-3" d="M47.45,6.68a1.48,1.48,0,0,1-.05.39.69.69,0,0,1-.19.31.93.93,0,0,1-.37.23,1.22,1.22,0,0,1-.47.08,1.1,1.1,0,0,1-.75-.21,1,1,0,0,1-.28-.4,1.25,1.25,0,0,1-.05-.4V5.18h.31v1.5a1.29,1.29,0,0,0,0,.29.68.68,0,0,0,.12.24.75.75,0,0,0,.26.18,1,1,0,0,0,.36.07,1,1,0,0,0,.33-.06A.65.65,0,0,0,47,7.23.51.51,0,0,0,47.1,7a1.42,1.42,0,0,0,0-.31V5.18h.32v1.5"/><polyline class="cls-3" points="55.27 7.66 54.9 7.66 53.99 6.61 53.09 7.66 52.72 7.66 53.8 6.4 52.78 5.18 53.16 5.18 53.99 6.18 54.84 5.18 55.21 5.19 54.18 6.4 55.27 7.66"/><rect class="cls-3" x="56.71" y="5.18" width="0.32" height="2.48"/><polyline class="cls-3" points="75.53 7.66 75.21 7.66 73.31 5.48 73.31 7.66 73 7.66 73 5.18 73.43 5.18 75.21 7.23 75.21 5.18 75.53 5.18 75.53 7.66"/><polyline class="cls-3" points="79.23 7.66 78.83 7.66 77.77 6.59 77.36 6.98 77.36 7.66 77.04 7.66 77.04 5.18 77.36 5.18 77.36 6.62 78.82 5.18 79.23 5.18 77.97 6.39 79.23 7.66"/><polyline class="cls-3" points="51.1 6.9 50.2 5.18 49.87 5.18 48.58 7.66 48.9 7.66 49.34 6.83 50.55 6.83 50.47 6.61 49.45 6.61 50.04 5.47 50.61 6.61 51.17 7.66 51.49 7.66 51.1 6.9"/><polyline class="cls-3" points="60.91 6.9 60.01 5.18 59.68 5.18 58.39 7.66 58.71 7.66 59.15 6.83 60.36 6.83 60.28 6.61 59.26 6.61 59.85 5.47 60.42 6.61 60.98 7.66 61.3 7.66 60.91 6.9"/><polyline class="cls-3" points="71.63 6.9 70.74 5.18 70.41 5.18 69.11 7.66 69.44 7.66 69.87 6.83 71.08 6.83 71 6.61 69.98 6.61 70.57 5.47 71.15 6.61 71.7 7.66 72.03 7.66 71.63 6.9"/><path class="cls-3" d="M67.8,6.58a.77.77,0,0,0-.39-.24.71.71,0,0,0,.26-.22.4.4,0,0,0,.1-.28.54.54,0,0,0-.1-.3.75.75,0,0,0-.27-.23,1,1,0,0,0-.33-.1,2.41,2.41,0,0,0-.4,0h-.74V7.66h.74l.5,0a1.51,1.51,0,0,0,.38-.12.76.76,0,0,0,.29-.24.63.63,0,0,0,.1-.32A.59.59,0,0,0,67.8,6.58ZM66.24,5.4h.45l.28,0a.84.84,0,0,1,.24.06.5.5,0,0,1,.17.15.28.28,0,0,1,.07.19.35.35,0,0,1-.07.21.55.55,0,0,1-.17.14.79.79,0,0,1-.22.06l-.33,0H66.4v.22h.5a1.21,1.21,0,0,1,.34,0,.53.53,0,0,1,.27.16.45.45,0,0,1,.1.27.38.38,0,0,1-.09.24.43.43,0,0,1-.2.15.84.84,0,0,1-.24.07l-.37,0h-.47"/></g></g></svg>