<svg id="Layer_1" data-name="Layer 1" xmlns="http://www.w3.org/2000/svg" viewBox="0 0 80 20.1"><defs><style>.cls-1{fill:#eb1654;}.cls-2{fill:#9a989a;}</style></defs><title>HXB</title><path class="cls-1" d="M11.15,44.88s.3,1.87,2.79.65a24.71,24.71,0,0,0,3.17-2.75A10.51,10.51,0,0,1,24.29,40a.62.62,0,0,1,.4.52c.06.31.15.61.74.55a2,2,0,0,1,1.49.3,1,1,0,0,1,.15.82c0,.21,0,.53.82.73a3.54,3.54,0,0,0,1.7.15.8.8,0,0,1,.88.4c.21.32.5.71-.21,1.11s-1.57.92-1.57,1.41a6.49,6.49,0,0,0-6.23-1.32,6.71,6.71,0,0,0-4.61,4.92c-.14,1.09-.57,7.21,6.36,8,1.51.16,3.84-.43,6.56-3.35l-.31.71s.52.06,1-1a.53.53,0,0,1,0,.37A6.61,6.61,0,0,1,30.35,56a1.72,1.72,0,0,0,1.08-.89A7.1,7.1,0,0,1,23.94,60a10.39,10.39,0,0,1-9-6,11.37,11.37,0,0,1-.82-5.32s-2.48,1.41-3.57-.17c-.44-.64-1.31-1.49.56-3.63" transform="translate(-10 -39.95)"/><path class="cls-2" d="M28.4,52.39a1.15,1.15,0,0,1-1.06,1.21h-4.7a1.14,1.14,0,0,1-1.06-1.21V49.82a1.15,1.15,0,0,1,1.06-1.21h4.7a1.14,1.14,0,0,1,1.06,1.21v2.57" transform="translate(-10 -39.95)"/><path d="M40.93,48.51c-.91,1.93-3.46,1.83-3.46,1.83v1.07a8.09,8.09,0,0,0,1.42-.2v2.93H40.6V50.52a4,4,0,0,0,1.73-2Zm2.51,0v2.74a11.38,11.38,0,0,1-1.42.29v1a12.22,12.22,0,0,0,1.42-.18v.63a1.05,1.05,0,0,0,1.17,1.07h5v-1H45.68c-.66,0-.64-.2-.64-.39V52a9,9,0,0,0,4.14-2.88H47.53A7.34,7.34,0,0,1,45,50.75V48.56h-1.6Zm-1,6v.53h-5v1h5v1.81h1.83V56h5.31v-1H44.28v-.53Z" transform="translate(-10 -39.95)"/><path d="M59.58,56.61c2.93-1,3-2.19,3-2.19H54.48l.37-.49h6.76a.84.84,0,0,0,1-.76V50.93a.81.81,0,0,0-.76-.82H57.66l.18-.62h5.1v-.74H51.24v.74h4.92l-.2.62H52.39a.68.68,0,0,0-.7.68V53c0,.58.64.91,1.19.91h.18A4.23,4.23,0,0,1,51,55.87l.62.84a4.63,4.63,0,0,0,1.93-1.22c.54.34,2.23,1.18,2.23,1.18-.82.16-3.85.19-3.85.19v.91a36.94,36.94,0,0,0,5.7-.62,21.57,21.57,0,0,0,5.35.62v-.93A27.44,27.44,0,0,1,59.58,56.61Zm-6.26-3.74h6.62v-.68H53.29v-.35h6.65v-.68H53.29c0-.25.1-.45.39-.45h6.81c.21,0,.39.23.39.53V53c0,.2-.08.35-.43.35H53.76C53.58,53.31,53.39,53.26,53.32,52.87Zm4.27,3.35a12.46,12.46,0,0,1-2.22-1h4.46a4.42,4.42,0,0,1-2.24,1" transform="translate(-10 -39.95)"/><path d="M64.4,52.38h1.28v1H64.4v.86h1.28v3.5s.78.49,3.19-1v-1s-1,.72-1.17.82-.39,0-.39-.47V54.23h1.56v-.86H67.31v-1h1.56v-.86H64.4ZM68,48.57H66.42a4,4,0,0,1-2,1.78v1a3.66,3.66,0,0,0,1.87-.78h2.6v-.91H67.25A8.85,8.85,0,0,0,68,48.57Zm3,3h3.11v-.93H71v-.6c0-.29.16-.56.66-.56h2.59a.56.56,0,0,1,.56.64v2.06c0,.25-.14.45-.58.45H71Zm0,5v-3h3.87c1.26,0,1.52-.47,1.52-.86v-2.8c0-1-.84-1.13-1.36-1.13H70.55c-.56,0-1.11.41-1.11.86v7c0,1,.54,1.25,1.19,1.25h2.24V57H71.51C71.13,57,71.05,56.76,71.05,56.57Zm3.8-.16a5.84,5.84,0,0,0,1.45-2.24H74.67c.16.59-.51,1.31-.82,1.6A4.4,4.4,0,0,1,72.53,54l-.8.41c1.09,3.33,5.06,3.52,5.06,3.52l0-1a5.77,5.77,0,0,1-2-.52" transform="translate(-10 -39.95)"/><path d="M77.94,52.5v1a6.2,6.2,0,0,0,1.19-.17v4.54h1.65V52.65a3.35,3.35,0,0,0,1.36-1.75H80.6S80.21,52.15,77.94,52.5Zm11.59-3.57H82.82v.84h6.71ZM77.92,50.18v1a5.27,5.27,0,0,0,4.26-2.67H80.49A3.21,3.21,0,0,1,77.92,50.18Zm4.53,1.17v.86h4.71v3.95a.85.85,0,0,1-.78.76H83.66v1h3.68c.62,0,1.36-.49,1.36-1.75V52.21H90v-.86H82.45" transform="translate(-10 -39.95)"/><polyline points="43.77 7.66 43.46 7.66 43.46 6.5 41.8 6.5 41.8 7.66 41.49 7.66 41.49 5.18 41.8 5.18 41.8 6.28 43.46 6.28 43.46 5.18 43.77 5.18 43.77 7.66"/><path d="M57.45,46.64a1.48,1.48,0,0,1-.05.39.69.69,0,0,1-.19.31.93.93,0,0,1-.37.23,1.5,1.5,0,0,1-.47.08,1,1,0,0,1-.74-.22.92.92,0,0,1-.28-.4,1.25,1.25,0,0,1-.05-.4v-1.5h.32v1.5a1.2,1.2,0,0,0,0,.28.68.68,0,0,0,.12.24.55.55,0,0,0,.26.18.86.86,0,0,0,.36.07,1,1,0,0,0,.33-.06.68.68,0,0,0,.26-.16.61.61,0,0,0,.15-.24,1.42,1.42,0,0,0,0-.31v-1.5h.32v1.51" transform="translate(-10 -39.95)"/><polyline points="55.27 7.66 54.9 7.66 53.99 6.61 53.09 7.66 52.71 7.66 53.8 6.4 52.78 5.19 53.15 5.18 53.99 6.18 54.84 5.19 55.21 5.19 54.18 6.41 55.27 7.66"/><rect x="56.71" y="5.18" width="0.32" height="2.48"/><polyline points="75.53 7.66 75.21 7.66 73.31 5.48 73.31 7.66 73 7.66 73 5.18 73.43 5.18 75.21 7.24 75.21 5.18 75.53 5.18 75.53 7.66"/><polyline points="79.23 7.66 78.83 7.66 77.77 6.59 77.36 6.99 77.36 7.66 77.04 7.66 77.04 5.18 77.36 5.18 77.36 6.62 78.82 5.19 79.23 5.18 77.97 6.4 79.23 7.66"/><polyline points="51.1 6.9 50.2 5.18 49.87 5.18 48.58 7.66 48.9 7.66 49.34 6.83 50.55 6.83 50.47 6.61 49.45 6.61 50.04 5.47 50.61 6.61 51.17 7.66 51.49 7.66 51.1 6.9"/><polyline points="60.91 6.9 60.01 5.18 59.68 5.18 58.39 7.66 58.71 7.66 59.15 6.83 60.36 6.83 60.28 6.61 59.26 6.61 59.85 5.47 60.42 6.61 60.98 7.66 61.3 7.66 60.91 6.9"/><polyline points="71.63 6.9 70.74 5.18 70.4 5.18 69.11 7.66 69.44 7.66 69.87 6.83 71.08 6.83 71 6.61 69.98 6.61 70.57 5.47 71.15 6.61 71.7 7.66 72.03 7.66 71.63 6.9"/><path d="M77.8,46.54a.77.77,0,0,0-.39-.24.82.82,0,0,0,.26-.22.49.49,0,0,0,0-.58.78.78,0,0,0-.26-.22,1.07,1.07,0,0,0-.33-.11,2.42,2.42,0,0,0-.4,0h-.74v2.48h.75l.49,0a1,1,0,0,0,.38-.11.76.76,0,0,0,.29-.24.55.55,0,0,0,.1-.32A.59.59,0,0,0,77.8,46.54Zm-1.56-1.18h.45l.29,0a.61.61,0,0,1,.24.07.39.39,0,0,1,.17.14.32.32,0,0,1,0,.4.44.44,0,0,1-.17.14l-.21.06-.33,0H76.4v.22h.49a1.84,1.84,0,0,1,.35.05.5.5,0,0,1,.26.16.4.4,0,0,1,.1.28.35.35,0,0,1-.09.23.51.51,0,0,1-.2.16l-.24.06-.37,0h-.47" transform="translate(-10 -39.95)"/></svg>