<svg xmlns="http://www.w3.org/2000/svg" viewBox="0 0 80 10.63"><defs><style>.cls-1{fill:#201e1d;}.cls-2{fill:#ca2026;}.cls-3{fill:#231f20;}</style></defs><title>ICBC</title><g id="Layer_2" data-name="Layer 2"><g id="ICBC"><g id="_Group_" data-name="&lt;Group&gt;"><path id="path2828" class="cls-1" d="M37.74,4.54H39V6.35h1V4.54h1.18v.3h1V1.26H40V.41l0,0,0,0h0v0h0v0h0v0h0l-1,0V1.26H36.77V4.84h1v-.3M40,3.61V2.24h1.18V3.61H40m-2.21,0V2.24H39V3.61H37.74M48,4.07l.24-.15-.09-.12-.09-.12L48,3.62,48,3.56l-.05-.06-.07-.06h-.51l-.27.16.1.09.12.11.06.06.06.06.06.08.06.07H47V3.44h1V2.75H47V2.3h1.16V1.6H45.1v.7h1.14v.45h-1v.69h1v.63H45v.84h3.25V4.07H48M44.81,6h3.61v.25h.88V.54H44V6.23h.82V6m0-.89V1.35h3.61V5.09H44.81M53.37,5h-2.2V6h5.46V5H54.45V1.68h1.9V.7h-5v1h2V5m8.47.39h-.47v.27l0,0,0,0v.06l0,.06,0,0,0,.12v.12h1l0,0,.05,0,0,0,0,0,0,0,0,0,0-.05,0,0,0,0,0,0V2.11l-.25,0h-.93l0-.08,0-.08,0-.08,0-.08,0-.08,0-.07V1.59l0-.08h1.27V.77H60.82V.31h0v0h-1l0,.53H57.53v.74H58.7l.06.11.05.1,0,.08,0,.07,0,.06L59,2l0,.07,0,.07H57.75V6.18h.81V2.85h3.51V5.34h0v0h-.18M60,2.13v0l0,0,0,0,0,0-.05-.08,0-.08,0-.07,0-.08,0,0v0l0,0v0h1.28l0,.07,0,.07,0,.08,0,.08,0,.07,0,.09,0,.08,0,.09H60m.7,3.53h.71V4l-.53-.38H59V5.66h.66V5.54h1v.12m0-.79h-1V4.24h1v.63m-.24-1.54.06,0,.07,0,.06,0,.08.05.15.1.16.12.17.12.16.13.18.12.16.12.42-.34V3.63l-.14-.12L61.8,3.4l-.13-.11-.13-.1-.06,0-.07,0-.07-.05-.07,0L61.2,3l-.07,0-.08,0-.07,0h-.23l-.34.48m-.86-.48-.1.07L59.36,3l-.11.08-.12.07L59,3.21l-.13.08-.15.08-.17.09v.42l.21.35.06,0,.07,0H59l0,0h0V3.6h.87l0,0,0,0,.05,0,.11-.1.09-.07-.36-.47h-.28m6.53-1.18h1.17V1H66.16l0-.1,0-.07,0-.06,0-.05,0,0,0,0h0l0,0,0,0,0,0h0l0,0,0,0,0,0L65.75.16l-.09.18L65.58.5l-.06.12,0,.1,0,.1-.06.09L65.3,1l-.07.12-.08.11-.08.12-.1.12-.1.12-.1.13-.12.13L64.53,2l-.13.15.55.51L65,2.59l.06-.1.08-.09.06-.09v.45h.42v.48h-.71V4.1h.71V5.26l-.52.23.17.74,1.94-.77-.35-.65L66.5,5V4.1h.63V3.24h-.63V2.76h.54V2.11H65.42l.06-.06,0-.07,0,0,0-.05,0,0,0-.05,0-.06.06-.07h.31m3.71,3,.14-.1.1-.08.09-.06.07-.06.08-.06.06-.06.08-.07.09-.09-.41-.53L70,3.6,70,3.66l0,.06,0,.06-.06.05-.07.07-.1.07-.13.09,0-.09,0-.05,0,0,0,0,0-.05,0-.06,0-.1,0-.14h.88v-3H67.4v5l-.41.2.32.69,1.82-.73-.22-.8-.7.49V3.48l.26,0,0,.16,0,.14,0,.14,0,.11,0,.11,0,.1,0,.09,0,.08,0,.08,0,.07,0,.07,0,.06L69,4.8l.09.14,0,.08.06.08.06.08.06.08.13.16.14.16.15.16.15.17.16.17.16.18.65-.73-.17-.12-.15-.1-.08-.06-.07-.06-.06-.05-.07,0,0-.06-.06,0-.06-.05L70,4.87l0-.06,0-.06,0-.06,0-.06m-.28-2.29v.42H68.2V2.34h1.31m-1.31-.7V1.19h1.31v.45H68.2M74,.45l-.07.11-.09.12L73.7.8l-.11.12-.1.11-.11.1-.1.1-.1.09-.08.06L73,1.44,73,1.49l-.08.06-.09.05-.09,0-.1.06-.11.06.26.81.1-.05.1-.06.1-.06.12-.07.11-.08.11-.08.06-.05.06,0,0,0,0-.05.1-.09.11-.09.12-.1.12-.1.13-.12.13-.12.06-.06.06-.07.06-.06.05-.07h.14V1l0,0L74,.45m-.67,3.48V6.27h.88V3.08L74.25,3l.1-.12.12-.13.12-.15.12-.13.12-.15,0-.08.06-.06,0-.07L75,2l-.55-.52,0,.07,0,.07,0,.07-.06.08-.1.13-.11.14L74,2.18l-.12.12-.1.12-.11.12-.1.11-.12.12-.14.14L73.12,3,73,3.17l-.15.13-.08.07-.06,0-.08.05-.06,0,.2.84.08-.05.07,0,.06,0,0,0,.06,0,.06,0L73.2,4l.08-.07M75,.6v.85h3V.6H75m.73,4.79.09.18.06.15,0,.06,0,.06,0,0v.39l0,.06h.95l.07,0,.07,0,.06,0,.06,0,0,0h0l0,0,0,0,0,0V6l0,0V5.83l0-2.61h.83V2.41H74.74v.81H76.5V5.35h0l0,0h-.76"/><path id="path2836" class="cls-2" d="M80,7.88H36.19V7.63H80v.25Z"/><path id="path2838" class="cls-3" d="M37,10.54V9.29h.26v1.25Z"/><path id="path2840-1" class="cls-3" d="M37.45,10.54V9.29h.24l.52.84V9.29h.23v1.25h-.25l-.51-.82v.82Z"/><path id="path2842" class="cls-3" d="M38.7,9.29h.46a.7.7,0,0,1,.24,0,.45.45,0,0,1,.19.11.67.67,0,0,1,.12.2.87.87,0,0,1,0,.3.68.68,0,0,1,0,.26.48.48,0,0,1-.13.22.35.35,0,0,1-.18.1.65.65,0,0,1-.22,0H38.7V9.29M39,9.5v.83h.34a.21.21,0,0,0,.1-.06.22.22,0,0,0,.07-.12,1.18,1.18,0,0,0,0-.22,1.3,1.3,0,0,0,0-.23.36.36,0,0,0-.08-.12l-.11-.05-.21,0Z"/><path id="path2844" class="cls-3" d="M40,9.29h.25V10a1,1,0,0,0,0,.21.2.2,0,0,0,.08.12.26.26,0,0,0,.17,0,.25.25,0,0,0,.16,0,.15.15,0,0,0,.06-.1,1.28,1.28,0,0,0,0-.22V9.29H41V10a2.21,2.21,0,0,1,0,.32.36.36,0,0,1-.08.15.31.31,0,0,1-.15.1.55.55,0,0,1-.24,0,.64.64,0,0,1-.27,0,.31.31,0,0,1-.14-.11.28.28,0,0,1-.07-.13A1.33,1.33,0,0,1,40,10V9.29Z"/><path id="path2846" class="cls-3" d="M41.16,10.13l.24,0a.38.38,0,0,0,.09.18.28.28,0,0,0,.18.06.33.33,0,0,0,.19,0,.17.17,0,0,0,.06-.12.11.11,0,0,0,0-.08.15.15,0,0,0-.09,0L41.6,10a.61.61,0,0,1-.28-.12.32.32,0,0,1-.12-.25.37.37,0,0,1,.21-.31.62.62,0,0,1,.25,0,.52.52,0,0,1,.35.1.35.35,0,0,1,.12.28h-.25a.19.19,0,0,0-.07-.14.24.24,0,0,0-.16,0,.29.29,0,0,0-.17,0,.1.1,0,0,0,0,.16.91.91,0,0,0,.23.08,1.39,1.39,0,0,1,.27.09.29.29,0,0,1,.14.13.39.39,0,0,1,.05.2.39.39,0,0,1-.06.2.39.39,0,0,1-.17.14.7.7,0,0,1-.27,0,.49.49,0,0,1-.36-.11.43.43,0,0,1-.15-.32Z"/><path id="path2848" class="cls-3" d="M42.66,10.54v-1H42.3V9.29h1V9.5h-.36v1Z"/><path id="path2850" class="cls-3" d="M43.45,10.54V9.29H44a.71.71,0,0,1,.29,0,.27.27,0,0,1,.14.12.3.3,0,0,1,.05.19.3.3,0,0,1-.08.23.35.35,0,0,1-.24.12l.13.1a1.24,1.24,0,0,1,.14.21l.16.24h-.3l-.19-.27a.68.68,0,0,0-.13-.18.19.19,0,0,0-.07-.06H43.7v.52h-.25m.25-.72h.18a.86.86,0,0,0,.23,0,.12.12,0,0,0,.07-.05.12.12,0,0,0,0-.09.15.15,0,0,0,0-.1.11.11,0,0,0-.09-.05H43.7v.32Z"/><path id="path2852" class="cls-3" d="M44.7,10.54V9.29H45v1.25Z"/><path id="path2854-7" class="cls-3" d="M46.31,10.54H46l-.11-.28h-.5l-.1.28h-.27l.48-1.25h.27l.5,1.25m-.46-.5-.17-.46-.17.46Z"/><path id="path2856" class="cls-3" d="M46.45,10.54V9.3h.25v1h.63v.21Z"/><path id="path2858" class="cls-3" d="M49,10.54h-.27l-.11-.28h-.5l-.1.28h-.27l.48-1.25h.27l.5,1.25m-.46-.5-.17-.46-.17.46Z"/><path id="path2860" class="cls-3" d="M49.16,10.54V9.29h.24l.52.84V9.29h.23v1.25H49.9l-.51-.82v.82Z"/><path id="path2862" class="cls-3" d="M50.41,9.29h.46a.7.7,0,0,1,.24,0,.45.45,0,0,1,.19.11.67.67,0,0,1,.12.2.87.87,0,0,1,0,.3.68.68,0,0,1,0,.26.58.58,0,0,1-.13.22.4.4,0,0,1-.18.1.69.69,0,0,1-.22,0h-.48V9.29m.26.21v.83H51a.21.21,0,0,0,.1-.06.17.17,0,0,0,.06-.12.65.65,0,0,0,0-.22.71.71,0,0,0,0-.23.24.24,0,0,0-.07-.12L51,9.52l-.21,0h-.11Z"/><path id="path2864" class="cls-3" d="M53,10.08l.25.08a.58.58,0,0,1-.19.3.52.52,0,0,1-.33.1.55.55,0,0,1-.41-.17.67.67,0,0,1-.16-.46.74.74,0,0,1,.16-.49.57.57,0,0,1,.42-.17.53.53,0,0,1,.38.13.62.62,0,0,1,.12.23l-.25.06a.24.24,0,0,0-.09-.15.25.25,0,0,0-.17-.06.29.29,0,0,0-.22.1.5.5,0,0,0-.09.33.47.47,0,0,0,.09.33.27.27,0,0,0,.22.11.28.28,0,0,0,.17-.07.34.34,0,0,0,.1-.2Z"/><path id="path2866" class="cls-3" d="M53.36,9.92a.79.79,0,0,1,.06-.32.66.66,0,0,1,.12-.17.36.36,0,0,1,.16-.11A.68.68,0,0,1,54,9.27a.6.6,0,0,1,.44.17.65.65,0,0,1,.16.48.64.64,0,0,1-.16.47.6.6,0,0,1-.44.17.55.55,0,0,1-.44-.17.64.64,0,0,1-.17-.47m.26,0a.47.47,0,0,0,.1.33.33.33,0,0,0,.25.11.34.34,0,0,0,.25-.11.5.5,0,0,0,.09-.33.49.49,0,0,0-.09-.32A.33.33,0,0,0,54,9.48a.31.31,0,0,0-.25.11.44.44,0,0,0-.1.32Z"/><path id="path2868" class="cls-3" d="M54.77,10.54V9.29h.37l.23.85.22-.85H56v1.25h-.23v-1l-.24,1h-.25l-.24-1v1Z"/><path id="path2870" class="cls-3" d="M56.22,10.54V9.29h.37l.23.85L57,9.29h.38v1.25h-.23v-1l-.25,1H56.7l-.25-1v1Z"/><path id="path2872" class="cls-3" d="M57.67,10.54V9.29h.93V9.5h-.68v.28h.63V10h-.63v.34h.7v.21Z"/><path id="path2874" class="cls-3" d="M58.83,10.54V9.29h.53a.68.68,0,0,1,.29,0,.29.29,0,0,1,.15.12.38.38,0,0,1,.05.19.34.34,0,0,1-.08.23.4.4,0,0,1-.25.12.85.85,0,0,1,.14.1,2.45,2.45,0,0,1,.14.21l.15.24h-.3l-.18-.27a1,1,0,0,0-.13-.18.21.21,0,0,0-.08-.06h-.17v.52h-.26m.26-.72h.18a.92.92,0,0,0,.23,0,.12.12,0,0,0,.07-.05.2.2,0,0,0,0-.09.15.15,0,0,0,0-.1.12.12,0,0,0-.1-.05h-.37Z"/><path id="path2876" class="cls-3" d="M60.89,10.08l.24.08a.64.64,0,0,1-.18.3.59.59,0,0,1-.74-.07.63.63,0,0,1-.16-.46.69.69,0,0,1,.16-.49.54.54,0,0,1,.42-.17A.51.51,0,0,1,61,9.4a.52.52,0,0,1,.13.23l-.25.06a.38.38,0,0,0-.09-.15.27.27,0,0,0-.17-.06.31.31,0,0,0-.23.1.5.5,0,0,0-.08.33.47.47,0,0,0,.08.33.28.28,0,0,0,.22.11.24.24,0,0,0,.17-.07.35.35,0,0,0,.11-.2Z"/><path id="path2878" class="cls-3" d="M61.34,10.54V9.29h.25v1.25Z"/><path id="path2880" class="cls-3" d="M63,10.54h-.28l-.11-.28h-.49l-.1.28h-.27l.48-1.25h.27l.5,1.25m-.47-.5-.17-.46-.17.46Z"/><path id="path2882" class="cls-3" d="M63.1,10.54V9.3h.25v1H64v.21Z"/><path id="path2884" class="cls-3" d="M64.61,9.29h.72a.31.31,0,0,1,.13.06.29.29,0,0,1,.09.1.24.24,0,0,1,0,.15.33.33,0,0,1,0,.16.43.43,0,0,1-.12.11.34.34,0,0,1,.17.11.29.29,0,0,1,.06.19.32.32,0,0,1,0,.16.24.24,0,0,1-.11.13.38.38,0,0,1-.16.06h-.73V9.29m.25.21v.29h.35a.18.18,0,0,0,.1,0,.17.17,0,0,0,0-.1.12.12,0,0,0,0-.09.13.13,0,0,0-.09-.05h-.36m0,.49v.34h.41a.2.2,0,0,0,.09-.05.18.18,0,0,0,0-.11.29.29,0,0,0,0-.09.16.16,0,0,0-.08-.06,1,1,0,0,0-.23,0Z"/><path id="path2886" class="cls-3" d="M67,10.54h-.28l-.1-.28h-.5l-.1.28h-.27l.48-1.25h.27l.5,1.25m-.46-.5-.18-.46-.16.46Z"/><path id="path2888" class="cls-3" d="M67.12,10.54V9.29h.25l.51.84V9.29h.23v1.25h-.25l-.5-.82v.82Z"/><path id="path2890" class="cls-3" d="M68.38,10.54V9.29h.25v.56l.52-.56h.34L69,9.78l.5.76h-.33L68.84,10l-.21.21v.38Z"/><path id="path2892" class="cls-3" d="M70.07,9.92a.79.79,0,0,1,.06-.32.62.62,0,0,1,.11-.17.45.45,0,0,1,.17-.11.67.67,0,0,1,.26-.05.61.61,0,0,1,.45.17.65.65,0,0,1,.16.48.64.64,0,0,1-.16.47.6.6,0,0,1-.44.17.57.57,0,0,1-.45-.17.68.68,0,0,1-.16-.47m.26,0a.47.47,0,0,0,.1.33.33.33,0,0,0,.25.11.3.3,0,0,0,.24-.11.45.45,0,0,0,.1-.33.49.49,0,0,0-.09-.32.34.34,0,0,0-.25-.11.31.31,0,0,0-.25.11.44.44,0,0,0-.1.32Z"/><path id="path2894" class="cls-3" d="M71.48,10.54V9.29h.85V9.5h-.6v.3h.52V10h-.52v.53Z"/><path id="path2896" class="cls-3" d="M73.82,10.08l.25.08a.58.58,0,0,1-.19.3.52.52,0,0,1-.33.1.55.55,0,0,1-.41-.17A.63.63,0,0,1,73,9.93a.69.69,0,0,1,.16-.49.57.57,0,0,1,.42-.17.53.53,0,0,1,.38.13.62.62,0,0,1,.12.23l-.25.06a.24.24,0,0,0-.09-.15.25.25,0,0,0-.17-.06.29.29,0,0,0-.22.1.5.5,0,0,0-.09.33.47.47,0,0,0,.09.33.27.27,0,0,0,.22.11.28.28,0,0,0,.17-.07.34.34,0,0,0,.1-.2Z"/><path id="path2898" class="cls-3" d="M74.29,10.54V9.29h.25v.49H75V9.29h.25v1.25H75V10h-.49v.55Z"/><path id="path2900" class="cls-3" d="M75.53,10.54V9.29h.25v1.25Z"/><path id="path2902" class="cls-3" d="M76,10.54V9.29h.24l.51.84V9.29H77v1.25h-.25l-.51-.82v.82Z"/><path id="path2904" class="cls-3" d="M78.41,10.54h-.28l-.1-.28h-.5l-.1.28h-.27l.48-1.25h.27l.5,1.25m-.47-.5-.17-.46L77.6,10Z"/><polygon id="_Path_" data-name="&lt;Path&gt;" class="cls-2" points="27.02 7.37 27.02 8.19 29.67 8.19 29.67 5.74 28.04 5.74 28.04 4.92 29.67 4.92 29.67 2.47 27.02 2.47 27.02 3.29 28.85 3.29 28.85 4.1 27.22 4.1 27.22 6.55 28.85 6.55 28.85 7.37 27.02 7.37"/><path id="_Compound_Path_" data-name="&lt;Compound Path&gt;" class="cls-2" d="M26.8,0a5.32,5.32,0,1,0,5.32,5.31A5.31,5.31,0,0,0,26.8,0Zm0,9.8a4.49,4.49,0,1,1,4.5-4.49A4.49,4.49,0,0,1,26.8,9.8Z"/><polyline id="_Path_2" data-name="&lt;Path&gt;" class="cls-2" points="26.61 3.28 26.61 2.47 23.96 2.47 23.96 4.92 25.58 4.92 25.58 5.73 23.96 5.73 23.96 8.18 26.61 8.18 26.61 7.37 24.77 7.37 24.77 6.55 26.41 6.55 26.41 4.1 24.77 4.1 24.77 3.28"/><g id="g2931"><path id="path2933" class="cls-1" d="M8.93,5.78h2a1.14,1.14,0,0,1,.64.17.61.61,0,0,1,.3.56.65.65,0,0,1-.16.45,1.1,1.1,0,0,1-.77.19h-2V5.78Zm0-1.06V3.52h1.8c.32,0,.85,0,.85.63a.51.51,0,0,1-.3.49,1.35,1.35,0,0,1-.55.09H8.93ZM11,8.2a2.1,2.1,0,0,0,1.53-.49,1.48,1.48,0,0,0,.42-1.08,1.38,1.38,0,0,0-.83-1.38h0l0,0c.25-.13.57-.39.57-1.19a1.48,1.48,0,0,0-.46-1.1,2,2,0,0,0-1.38-.47h-3V8.2"/><path id="path2935" class="cls-1" d="M0,8.2H1.13V2.46H0Z"/><path id="path2937" class="cls-1" d="M2.06,5.28a3.09,3.09,0,0,0,.28,1.4,2.5,2.5,0,0,0,.71.86,3.31,3.31,0,0,0,2.13.61H6.73V7.07H5.26A2.22,2.22,0,0,1,3.5,6.46a1.72,1.72,0,0,1-.38-1.14,1.66,1.66,0,0,1,.42-1.2,2.36,2.36,0,0,1,1.72-.54H6.73V2.5H5.23a4.46,4.46,0,0,0-1.29.16A2.36,2.36,0,0,0,3,3.13a2.76,2.76,0,0,0-1,2.15"/><path id="path2939" class="cls-1" d="M13.6,5.28a3.46,3.46,0,0,0,.29,1.46,2.47,2.47,0,0,0,.71.9,3.24,3.24,0,0,0,2.12.56h1.64V7.12H16.81a2.18,2.18,0,0,1-1.76-.63,1.77,1.77,0,0,1-.38-1.17,1.68,1.68,0,0,1,.43-1.24,2.34,2.34,0,0,1,1.71-.54h1.55V2.46H16.78a4.53,4.53,0,0,0-1.3.16,2.43,2.43,0,0,0-.92.47,2.82,2.82,0,0,0-1,2.19"/></g></g></g></g></svg>