<svg xmlns="http://www.w3.org/2000/svg" viewBox="0 0 80 12.28"><defs><style>.cls-1{fill:#1e9cd8;}</style></defs><title>IdeaBank</title><g id="Layer_2" data-name="Layer 2"><g id="IdeaBank"><path class="cls-1" d="M46.06.22h4.21a5.6,5.6,0,0,1,1.66.23,3.33,3.33,0,0,1,1.19.65,2.77,2.77,0,0,1,.73,1,3.43,3.43,0,0,1,.24,1.31A2.65,2.65,0,0,1,54,4.3a2.22,2.22,0,0,1-.34.69,2.74,2.74,0,0,1-.51.51,3.55,3.55,0,0,1-.61.37v0a2.36,2.36,0,0,1,.75.32,2.43,2.43,0,0,1,.63.57,2.5,2.5,0,0,1,.43.79,3,3,0,0,1,.16,1,3.43,3.43,0,0,1-.3,1.46,3.16,3.16,0,0,1-.84,1.08,3.94,3.94,0,0,1-1.3.69,5.86,5.86,0,0,1-1.67.23h-4.3Zm3.79,4.86a2.27,2.27,0,0,0,1.37-.37,1.26,1.26,0,0,0,.51-1.08,1.21,1.21,0,0,0-.48-1.07,2.06,2.06,0,0,0-1.19-.33H48.42V5.08ZM50,10a2.28,2.28,0,0,0,1.58-.43A1.41,1.41,0,0,0,52,8.55,1.77,1.77,0,0,0,51.92,8a1.31,1.31,0,0,0-.31-.5A1.91,1.91,0,0,0,51,7.13,2.7,2.7,0,0,0,50.17,7H48.42v3Z"/><path class="cls-1" d="M60.42,11l0,0a2.94,2.94,0,0,1-1.31,1,4.31,4.31,0,0,1-1.46.27,3.7,3.7,0,0,1-1-.13,2.61,2.61,0,0,1-.93-.42,2.15,2.15,0,0,1-.67-.76,2.4,2.4,0,0,1-.26-1.16,3.23,3.23,0,0,1,.09-.73,1.68,1.68,0,0,1,.44-.77,3,3,0,0,1,1-.64,6.41,6.41,0,0,1,1.87-.35l2.09-.13V6.81a1.3,1.3,0,0,0-.41-1.07,1.75,1.75,0,0,0-1.18-.36,1.68,1.68,0,0,0-1.1.33,1.16,1.16,0,0,0-.42.88H55a3.16,3.16,0,0,1,.22-1,2.79,2.79,0,0,1,.64-.92A3.37,3.37,0,0,1,57.05,4a5.05,5.05,0,0,1,1.78-.27,6.44,6.44,0,0,1,1.42.15,3.66,3.66,0,0,1,1.16.46,2.38,2.38,0,0,1,.8.81,2.36,2.36,0,0,1,.29,1.19V11a4.61,4.61,0,0,0,0,.56,3.25,3.25,0,0,0,.08.45H60.42Zm-.09-2.45-1.89.17A2.25,2.25,0,0,0,57.35,9a.81.81,0,0,0-.3.68.79.79,0,0,0,.12.45.86.86,0,0,0,.31.29,1.57,1.57,0,0,0,.45.16,3.12,3.12,0,0,0,.54,0,2.19,2.19,0,0,0,.59-.08,2.22,2.22,0,0,0,.6-.24,1.47,1.47,0,0,0,.47-.42,1,1,0,0,0,.19-.63Z"/><path class="cls-1" d="M68.6,7.13a2,2,0,0,0-.12-.74,1.19,1.19,0,0,0-.32-.48,1.24,1.24,0,0,0-.46-.26,1.82,1.82,0,0,0-.52-.08,1.27,1.27,0,0,0-1.08.53,2.22,2.22,0,0,0-.4,1.36v4.59H63.44V4h2.17V5h0a2.63,2.63,0,0,1,1.1-1A3.07,3.07,0,0,1,68,3.75,3.17,3.17,0,0,1,69.29,4a2.35,2.35,0,0,1,1.41,1.5,3.55,3.55,0,0,1,.16,1.09v5.49H68.6Z"/><path class="cls-1" d="M74,8.09h0v4H71.74V.22H74V7.51h0L76.48,4h2.63L76.4,7.61l2.82,4.44H76.44Z"/><path class="cls-1" d="M5.54,2.77A2.77,2.77,0,1,1,2.77,0,2.77,2.77,0,0,1,5.54,2.77m6.74,0A2.77,2.77,0,1,0,9.51,5.54a2.77,2.77,0,0,0,2.77-2.77M5.54,9.51a2.77,2.77,0,1,0-2.77,2.77A2.77,2.77,0,0,0,5.54,9.51m6.74,0a2.77,2.77,0,1,0-2.77,2.77,2.77,2.77,0,0,0,2.77-2.77"/><path class="cls-1" d="M77.76,8a1.27,1.27,0,0,1,.08-.44,1.13,1.13,0,0,1,.24-.36,1.26,1.26,0,0,1,.36-.24,1.08,1.08,0,0,1,.44-.09,1.12,1.12,0,0,1,.44.09,1.21,1.21,0,0,1,.35.24A1.15,1.15,0,0,1,80,8a1.12,1.12,0,0,1-.09.44,1,1,0,0,1-.24.35,1.21,1.21,0,0,1-.35.24,1.12,1.12,0,0,1-.44.09A1.08,1.08,0,0,1,78.44,9a1.26,1.26,0,0,1-.36-.24,1.21,1.21,0,0,1-.24-.35A1.32,1.32,0,0,1,77.76,8Zm2.08,0a1,1,0,0,0-.08-.39,1.1,1.1,0,0,0-.2-.31,1.21,1.21,0,0,0-.3-.2A1,1,0,0,0,78.88,7a1,1,0,0,0-.38.08.9.9,0,0,0-.5.51,1.12,1.12,0,0,0,0,.78.88.88,0,0,0,.2.3.9.9,0,0,0,.3.21,1.17,1.17,0,0,0,.38.07,1.22,1.22,0,0,0,.38-.07.81.81,0,0,0,.3-.21,1,1,0,0,0,.2-.3A1,1,0,0,0,79.84,8Zm-1,.09h-.27v.57h-.17V7.3H79a.51.51,0,0,1,.34.09.34.34,0,0,1,.12.28.35.35,0,0,1,0,.16.36.36,0,0,1-.08.12A.41.41,0,0,1,79.2,8l-.13,0,.37.57h-.19Zm0-.15h.15l.11,0,.07-.07a.37.37,0,0,0,0-.12.36.36,0,0,0,0-.11.12.12,0,0,0-.06-.08.24.24,0,0,0-.09,0h-.47v.46Z"/><path class="cls-1" d="M14.72.22h2.36V12.05H14.72Zm9.63,10.7h0a2.85,2.85,0,0,1-1.16,1,3.5,3.5,0,0,1-1.47.32,3.27,3.27,0,0,1-1.54-.36A3.76,3.76,0,0,1,19,11a4.44,4.44,0,0,1-.77-1.36A4.92,4.92,0,0,1,17.92,8a5.09,5.09,0,0,1,.25-1.62A4.41,4.41,0,0,1,18.91,5a3.48,3.48,0,0,1,1.18-.93,3.33,3.33,0,0,1,1.57-.35A3.38,3.38,0,0,1,23.05,4a3.29,3.29,0,0,1,1.18,1h0V.22h2.26V12.05H24.35Zm0-2.89a2.88,2.88,0,0,0-.12-.88,2.38,2.38,0,0,0-.39-.76,1.81,1.81,0,0,0-.64-.52,2,2,0,0,0-.92-.2,1.82,1.82,0,0,0-.86.2,2,2,0,0,0-.62.54,2.26,2.26,0,0,0-.38.76,3.36,3.36,0,0,0-.13.89,2.93,2.93,0,0,0,.14.9,2.43,2.43,0,0,0,.39.77,1.91,1.91,0,0,0,.64.52,1.79,1.79,0,0,0,.88.2,1.82,1.82,0,0,0,.86-.19,1.85,1.85,0,0,0,.63-.52A2.43,2.43,0,0,0,24.2,9,3.14,3.14,0,0,0,24.33,8Zm5.24.62a2.46,2.46,0,0,0,.17.71,2.08,2.08,0,0,0,.36.59,1.65,1.65,0,0,0,.57.43,1.77,1.77,0,0,0,.79.16,1.79,1.79,0,0,0,.95-.24,1.62,1.62,0,0,0,.67-.72l2.2.18a3.32,3.32,0,0,1-1.45,1.88,4.71,4.71,0,0,1-2.48.63A4.51,4.51,0,0,1,29.68,12a3.69,3.69,0,0,1-1.31-.86,3.93,3.93,0,0,1-.85-1.34A4.83,4.83,0,0,1,27.21,8a4.94,4.94,0,0,1,.31-1.77,4,4,0,0,1,.85-1.36,3.54,3.54,0,0,1,1.31-.85,4.51,4.51,0,0,1,1.67-.3,4.56,4.56,0,0,1,1.68.3,3.5,3.5,0,0,1,1.3.85,4,4,0,0,1,.85,1.35A4.77,4.77,0,0,1,35.49,8v.63Zm3.65-1.44a2.27,2.27,0,0,0-.15-.61A2.19,2.19,0,0,0,32.72,6a1.84,1.84,0,0,0-.54-.41,1.66,1.66,0,0,0-.72-.15A1.86,1.86,0,0,0,30.12,6a1.82,1.82,0,0,0-.37.56,2.48,2.48,0,0,0-.18.66ZM41.63,11l0,0a2.89,2.89,0,0,1-1.31,1,4.27,4.27,0,0,1-1.46.27,3.7,3.7,0,0,1-1-.13,2.57,2.57,0,0,1-.92-.42,2.09,2.09,0,0,1-.68-.76A2.4,2.4,0,0,1,36,9.81a3.23,3.23,0,0,1,.09-.73,1.62,1.62,0,0,1,.45-.77,3,3,0,0,1,1-.64,6.42,6.42,0,0,1,1.88-.35l2.09-.13V6.81a1.31,1.31,0,0,0-.42-1.07A1.74,1.74,0,0,0,40,5.38a1.72,1.72,0,0,0-1.1.32,1.16,1.16,0,0,0-.43.89H36.25a3.18,3.18,0,0,1,.23-1,2.52,2.52,0,0,1,.64-.92A3.13,3.13,0,0,1,38.27,4,5,5,0,0,1,40,3.75a6.38,6.38,0,0,1,1.42.15,3.58,3.58,0,0,1,1.17.46,2.35,2.35,0,0,1,.79.81,2.26,2.26,0,0,1,.3,1.19V11a4.33,4.33,0,0,0,0,.55,3.4,3.4,0,0,0,.07.46H41.64Zm-.09-2.45-1.89.17A2.29,2.29,0,0,0,38.56,9a.84.84,0,0,0-.3.68.79.79,0,0,0,.12.45.86.86,0,0,0,.31.29,1.69,1.69,0,0,0,.45.16,3.12,3.12,0,0,0,.54,0,2.14,2.14,0,0,0,.59-.08,2,2,0,0,0,.6-.24,1.5,1.5,0,0,0,.48-.42,1,1,0,0,0,.19-.63Z"/></g></g></svg>