<svg xmlns="http://www.w3.org/2000/svg" viewBox="0 0 80 69.57"><defs><style>.cls-1{fill:#4a4a4a;}.cls-2{fill:#010101;}.cls-3{fill:#cd1c6a;}.cls-4{fill:#ed2d88;}.cls-5{fill:#b51f65;}</style></defs><title>iDEAL</title><g id="Layer_2" data-name="Layer 2"><g id="iDEAL"><rect class="cls-1" x="9.02" y="38.65" width="12.88" height="21.9"/><polyline class="cls-2" points="21.9 38.65 21.9 60.55 9.02 60.55"/><circle class="cls-1" cx="15.46" cy="28.6" r="7.21"/><path class="cls-2" d="M20.48,23.45a7.28,7.28,0,0,1-10.3,10.3"/><path class="cls-2" d="M46.38,0H0V69.57H46.38c9-.13,17.77-2.58,23.44-7.48C76.65,56.3,80,47,80,34.65a42.29,42.29,0,0,0-2.83-15.71A28.39,28.39,0,0,0,69.82,8C64,3,55.39.13,46.38,0ZM45.09,5.15c8.89,0,16.36,2.19,21.51,6.7,5.8,5.15,8.76,12.5,8.76,22.8-.13,20.36-10,29.76-30.27,29.76H5.15V5.15Z"/><path class="cls-3" d="M53.2,29.63h2.32c-.25,0-.77-2.19-1.16-3.22A32.48,32.48,0,0,1,53.2,29.63Z"/><path class="cls-3" d="M30.4,33.11a5.12,5.12,0,0,0,.9-.52,2.57,2.57,0,0,0,.52-1,9.15,9.15,0,0,0,.26-2.19,8,8,0,0,0-.26-2.06,2.9,2.9,0,0,0-.64-1c-.26-.26-.65-.26-1-.39H26.92v7.73h1.94C29.63,33.49,30.14,33.11,30.4,33.11Z"/><path class="cls-4" d="M61.84,36.07V23.19H65.7v9H71c-1.16-18-14.94-21.9-27.82-21.9H27.05V23.19h2.19a7.12,7.12,0,0,1,2.45.13,3.63,3.63,0,0,1,1.93,1.16,6.23,6.23,0,0,1,1.29,2.06,9.61,9.61,0,0,1,.39,3,8.56,8.56,0,0,1-.39,2.71,5.32,5.32,0,0,1-1.42,2.31,6.2,6.2,0,0,1-1.8,1.29,7.7,7.7,0,0,1-2.32.52H27.05V60.81H43.16c13.52,0,27.82-3.87,28-24.48H61.84Zm-14.17,0H37.36V23.19h9v2.57H39.94v1.29h6.44v3.87H39.94v2.57h7.73Zm9.91,0a21.33,21.33,0,0,0-1-2.58H52.17a23.1,23.1,0,0,0-1,2.58H47.79l5-12.88h3.09l5.15,12.88Z"/><path class="cls-3" d="M27.05,23.19h2.19a7.12,7.12,0,0,1,2.45.13,3.63,3.63,0,0,1,1.93,1.16,6.23,6.23,0,0,1,1.29,2.06,9.61,9.61,0,0,1,.39,3,8.56,8.56,0,0,1-.39,2.71,5.32,5.32,0,0,1-1.42,2.31,6.2,6.2,0,0,1-1.8,1.29,7.7,7.7,0,0,1-2.32.52H27.05V60.81H43.16c13.52,0,27.82-3.87,28-24.48H61.84V23.19H65.7v9H71c-1.16-18-15.2-21.52-28.08-21.52m3.48,25.38h-9V23.19h9v2.57H39.94v2.58h6.44v2.58H39.94v2.57h6.44Zm11.2,0a21.33,21.33,0,0,0-1-2.58H52.17a23.1,23.1,0,0,0-1,2.58H47.79l5-12.88h3.09l5.15,12.88Z"/><path class="cls-5" d="M65.7,23.19v9H71c-.38-5.16-1.29-8.51-3.35-11.6l-2.7,2.58Z"/><path class="cls-5" d="M61.84,25.64l-3.61,4,2.7,6.44H57.58a21.33,21.33,0,0,0-1-2.58H55l-28,26.8v.26H43.16c13.52,0,27.82-3.87,28-24.48H61.84Z"/><path class="cls-1" d="M0,0V69.57l5.15-5.16V5.15H45.09A39.86,39.86,0,0,1,61.45,8.37l3.74-3.6C59.9,1.67,52.82.13,46.38,0H0Z"/></g></g></svg>