<svg xmlns="http://www.w3.org/2000/svg" viewBox="0 0 80 12.16"><defs><style>.cls-1{fill:#003976;}.cls-1,.cls-2,.cls-3{fill-rule:evenodd;}.cls-2{fill:#fff;}.cls-3{fill:#f58220;}</style></defs><title>ING Bank</title><g id="Layer_2" data-name="Layer 2"><g id="ING_Bank" data-name="ING Bank"><path class="cls-1" d="M.25,4.35a.81.81,0,0,1,.63.21,1.15,1.15,0,0,1,.21.83v5.28c0,.73-.14,1.06-1,1.06H0v.32H3.76v-.32H3.65c-.83,0-1-.34-1-1.06V5.39a1.17,1.17,0,0,1,.21-.83.85.85,0,0,1,.65-.21h.22V4H0v.33Z"/><path class="cls-1" d="M11.71,9.38s-.06-.33-.07-.52V6.46c0-1.4.16-2.1-.93-2.1V4.05h2.5v.31c-1.12,0-1,.7-1,2.1v5.62h-.36L6.47,5.7a5.13,5.13,0,0,1,.07.51v3.94c0,1.43.13,1.61,1,1.59v.33H4.88v-.33c.82,0,1-.12,1-1.71V5.63c0-.8-.23-1.26-1-1.26V4.06h2.4l4.48,5.32Z"/><path class="cls-1" d="M21.45,4h-.29l0,.1c0,.16-.07.42-.24.42a.71.71,0,0,1-.3-.09,5.08,5.08,0,0,0-2-.43,4.32,4.32,0,0,0-3.18,1.32,4.31,4.31,0,0,0-1.13,3,3.61,3.61,0,0,0,1.25,2.79,4.38,4.38,0,0,0,3.18,1.09,4.87,4.87,0,0,0,2.82-.75l.18-.1V9.25c0-.88.1-1,.78-1.05h.11V7.89H19.32V8.2h.11c.75,0,.9.18.9.9V11a2.4,2.4,0,0,1-1.48.53,2.66,2.66,0,0,1-2-.85A3.78,3.78,0,0,1,16,8.06a3.91,3.91,0,0,1,.88-2.73,2.44,2.44,0,0,1,1.81-.78,3.1,3.1,0,0,1,1.88.72,2.33,2.33,0,0,1,.79,1.27l0,.09h.29L21.45,4Z"/><path class="cls-1" d="M69.32,9.35s-.06-.33-.07-.52V6.43c0-1.41.16-2.1-.93-2.1V4h2.5v.31c-1.12,0-1,.69-1,2.1v5.62h-.36l-5.4-6.38s.06.33.07.52v3.94c0,1.43.13,1.61.95,1.59V12H62.49v-.33c.82,0,1-.12,1-1.71V5.6c0-.8-.23-1.26-1-1.26V4h2.4l4.48,5.32Z"/><path class="cls-1" d="M58.14,12.06v-.17c.49,0,.77-.17.77-.46a3.2,3.2,0,0,0-.32-.93l-.37-1H55.57l-.37,1.05a2.92,2.92,0,0,0-.28.89c0,.25.2.42.61.42v.17H53.29v-.17c.28,0,.77-.12,1.22-1.31L57,4.2h.57l2.56,6.21c.25.55.62,1.48,1.19,1.48v.17Z"/><polygon class="cls-2" points="56.88 5.89 55.77 8.94 58.02 8.94 56.88 5.89 56.88 5.89"/><path class="cls-1" d="M45.63,4v.32s.92-.06.92.32v6.82a1.78,1.78,0,0,1-.92.24V12H50.2a2.1,2.1,0,0,0,.29-4.16c2.17-1,1.67-3.32-.29-3.86C48.62,4,45.63,4,45.63,4Z"/><path class="cls-2" d="M48,4.66v3h1.29a1.53,1.53,0,0,0,0-3Z"/><path class="cls-2" d="M48,8.11v3.37h1.29c2.19-.44,1.52-2.91,0-3.37Z"/><path class="cls-1" d="M72.11,4v.32s1.1-.07,1.1.32v6.82s-.13.24-1.1.24V12h3.17v-.32s-.73.06-.94-.24V8.31l2.92,2.93s.48.48-.73.48V12H80v-.32a1,1,0,0,1-.88-.24c-.37-.36-3.62-3.62-3.62-3.62l3-3.05a1.55,1.55,0,0,1,1.13-.47V4h-3v.32s1,0,.61.79-3,2.93-3,2.93V4.66c0-.12.27-.32,1.09-.32V4Z"/><path class="cls-3" d="M41.78,10.9a2.6,2.6,0,0,1-2,.8H39.4a1.46,1.46,0,0,1-.63.21h-2c0-.21.08-.25.08-.38s.17-.33.25-.33l.17.37a.23.23,0,0,0,.17-.25c0-.17-.21-.37-.21-.37l.16-.17c.09,0,.13.17.17.17s.25-.09.25-.13-.12-.13-.21-.21a.45.45,0,0,0-.33-.17c-.25,0-.59.59-.63.88l-.08.59h-.34c0-.3,0-.51,0-.76,0,0,.12,0,.2.09s.13-.17.09-.29-.21-.17-.21-.17l.12-.29s.34.12.3.08-.09-.08,0-.17.21.09.3,0v-.12a1.06,1.06,0,0,0-.46-.13c-.29.05-.25.09-.29.17-.34,0-.55.13-.71.13l-.38.46a3,3,0,0,0,.08.62,1.35,1.35,0,0,0,.17.34h-3.8c.08-.13.12-.3.25-.38s0,0,.08.08h.25c.13,0,.21,0,.25-.08-.12-.08-.33-.13-.46-.21s0-.25,0-.37a.38.38,0,0,0-.42-.38c-.13,0-.34.08-.38.21a1.21,1.21,0,0,0-.33-.21v-.33c.25-.13.46,0,.67.08h.16s-.08,0-.08-.08c-.17-.3-.5-.34-.88-.3-.12,0-.12.34-.25.17-.17,0-.25.08-.37.08l-.21.09c-.09,0,0,0-.09.12s-.21.38-.29.55-.08.45,0,.62l.21.34H24.82a1.2,1.2,0,0,1-.21-.76.74.74,0,0,1,.21-.46.62.62,0,0,1,.29-.58.5.5,0,0,1,.55-.08.71.71,0,0,1,.54-.25.75.75,0,0,1,.58.16s.13-.5.21-.75A8.46,8.46,0,0,1,27.49,8,13,13,0,0,1,27,6.06a.5.5,0,0,1,0-.13l.09-.08c.08-.13.08-.29.16-.38-.08,0-.16.09-.21.09s-.12.12-.12.16,0-.08,0-.16,0-.25,0-.34A.27.27,0,0,1,27,5c0-.12,0-.33,0-.46l-.3.29V4.26A.46.46,0,0,0,27,4.09a6,6,0,0,1,.21-1.79c0-.17.17-.25.25-.38V1.46c.13-.08.21-.21.33-.25a.3.3,0,0,0-.2,0A1.51,1.51,0,0,1,28,.54a1.21,1.21,0,0,1,.25-.21c.08,0,.08,0,.08,0,.21,0,.34.08.59.08a.56.56,0,0,0-.34-.17l0,0a1.13,1.13,0,0,1,.46-.17c.09.17.21.25.25.38l.13.08c0-.16,0-.37-.13-.54A2.78,2.78,0,0,1,30,.29c.13,0,.25-.12.38-.12a2.36,2.36,0,0,0-.13.58c.09-.08.13-.21.21-.29s.13-.21.17-.38a1.22,1.22,0,0,1,.54,0c-.16.09-.12.21-.12.3h0a1.13,1.13,0,0,0,.33-.13.57.57,0,0,1,.38.13c-.13,0-.25.08-.29.16h.54l0-.08a2.23,2.23,0,0,1,.75,1.21.42.42,0,0,0-.21-.08c0,.08,0,.25.13.25s.21.12.29.21.46.33.54.62A4.6,4.6,0,0,1,34,3.8c-.08-.08-.25,0-.33-.17a.55.55,0,0,0,.21.38.57.57,0,0,0,.25.08,1.87,1.87,0,0,1,.21.63c-.09,0-.13-.08-.26-.12v0c0,.21.09.29.3.37v.46a2.27,2.27,0,0,0,1.21.46,2.83,2.83,0,0,0,1-.25.6.6,0,0,1,.21-.58.73.73,0,0,1,.5-.17,1.78,1.78,0,0,1,1.17.63,9.45,9.45,0,0,1,.88,1.37,6.07,6.07,0,0,1,.42,2.3,6,6,0,0,1-.17,1.38.91.91,0,0,0,.54.13,1.94,1.94,0,0,0,1.3-.63,3.91,3.91,0,0,0,.92-2.76A4.71,4.71,0,0,0,41,4.14a3.41,3.41,0,0,0-1.17-.84c-.38-.08-.75.13-1.21,0a2,2,0,0,1-.75-.5l0,0c.08.12.25.08.42.12s0-.12,0-.16a1,1,0,0,1,.51-.09c-.13-.25-.38-.12-.51-.21a.2.2,0,0,0-.21,0s.09.13.09.21-.17-.08-.25-.08h-.21c-.17-.17-.25-.54-.54-.67V1.84a4.22,4.22,0,0,1,1.5-.25c.08,0,.17,0,.21,0l-.13.12a.76.76,0,0,0,.46.21h.05c-.05-.12-.13-.21-.13-.29a1.19,1.19,0,0,1,.46.38,3.92,3.92,0,0,0,1.13,1.21,4.91,4.91,0,0,1,.67.54A5.27,5.27,0,0,1,43,7.69a4.26,4.26,0,0,1-1.25,3.21Zm-11.65,1c-.09-.3-.34-.46-.25-.8.08,0,.29,0,.29-.25,0,0,0-.08-.13-.08l-.12,0a.38.38,0,0,1,.12-.21l.34-.12a1.2,1.2,0,0,0-.09.58,2.32,2.32,0,0,0,.21.84Zm5.76-.8a4.59,4.59,0,0,0,.13.8h-.34a1.85,1.85,0,0,1-.21-.71c0-.09.05-.25.09-.25s.08.2.16.25.09-.13.09-.25a.35.35,0,0,0-.09-.26l.3,0c0,.13-.13.3-.13.46Zm-4.89.8h-.25a3.48,3.48,0,0,1-.16-.88c0-.08.08-.21.16-.25h0L31,11h.05c0,.29-.05.54-.05.88Zm.46,0h-.25s.13-.71.13-.84a.27.27,0,0,1,.21-.21.21.21,0,0,1,.21.21,4.92,4.92,0,0,1-.3.84ZM38.27,1.84c-.17.08-.25.21-.46.21.13,0,.17.08.25.08a.19.19,0,0,1,.21,0,1,1,0,0,0,.34,0c-.09-.08-.21-.13-.34-.25ZM27.7,2.05a2,2,0,0,0-.21.29v.17l.21-.09V2.05Zm11.83.54a3.55,3.55,0,0,1-.21-.38.8.8,0,0,0-.38.13c.13,0,.25.12.34.25s.2.08.33.21l-.08-.21Zm-6.9,2a2.4,2.4,0,0,0-1.29-.34V4.18a.67.67,0,0,0,.42-.46c.12-.13.25-.29.2-.46a.14.14,0,0,1,0-.09s0-.12,0-.12-.13.08-.17.12a1.35,1.35,0,0,0,0-.79c.08,0,.13,0,.21,0l.17-.21c.16-.08.08-.38.16-.54-.08-.21-.12-.38-.25-.46S31.84,1,31.71.88s-.37.12-.54.21,0,.08-.08,0L31,1.5a1.21,1.21,0,0,0-.79.13,1.6,1.6,0,0,0-.42-.13.73.73,0,0,1-.29,0c-.09-.17-.09-.33-.25-.37S29.08,1,29.08.92a.8.8,0,0,0-.33-.08c-.17-.09-.3,0-.46.08a.17.17,0,0,1-.17.08,1.47,1.47,0,0,0-.25.5c0,.17.08.25.13.42a1.08,1.08,0,0,0,.45.38,1.61,1.61,0,0,0,0,.87l-.08.05a1.26,1.26,0,0,0,.34.67c.08,0,.08.12.12.16v.13a2,2,0,0,0-1.21.29c-.08,0,0,.13,0,.25a2.65,2.65,0,0,1,.75-.38h.42V4.6a4.09,4.09,0,0,0-1,.58c0,.08,0,.17,0,.21a2.44,2.44,0,0,1,.25-.17,4.32,4.32,0,0,1,.79-.5,2,2,0,0,0,.21.29,3.22,3.22,0,0,0,.59-.29c.12,0,.25,0,.37-.08v-.3A.29.29,0,0,1,29.83,4s-.08,0-.16,0-.13,0-.13-.08,0-.17,0-.17.34-.08.55-.08.58,0,.58.17,0,.16-.08.2-.13,0-.13,0a.35.35,0,0,1-.33.29l0,.17c0,.09,0,.21.12.21a2,2,0,0,1,.76.38.59.59,0,0,1,.16-.25,2.2,2.2,0,0,1,1.13.71V5.31a4.31,4.31,0,0,0-1-.67V4.43a2.6,2.6,0,0,1,1.29.42V4.6ZM27.49,3a1.83,1.83,0,0,0-.12.46l.12.46c0-.26.17-.46.13-.84l.12-.17L27.49,3Zm5.06.08-.17.71.25-.08,0-.25a1.29,1.29,0,0,0-.12-.38Zm.71,1.59s0-.17-.13-.13-.08-.17-.12-.25a1.18,1.18,0,0,0,0,.38c.08.21.17.29.37.29a.89.89,0,0,0-.12-.29Zm-2.51.46a2,2,0,0,0-1.54,0,.89.89,0,0,0,.16.58l.17-.21v.38a.47.47,0,0,0,.29.08c0-.08.09-.16.13-.21s0-.16.08-.16h0a.33.33,0,0,0,.09.29v.08c.12.09.25,0,.33,0,0-.16,0-.25,0-.37V5.47a.52.52,0,0,1,.17.3c.21-.09.25-.42.29-.59a.23.23,0,0,0-.21-.08Zm2.63.33a.48.48,0,0,0-.33,0c0,.09,0,.09.08.21h.25c.09,0,.17.09.25,0-.12,0-.16-.12-.25-.25Zm4.31.13c-.09-.09-.34,0-.34-.17s-.12-.08-.25,0-.29.33-.21.42a1.38,1.38,0,0,1,.42-.13,3.22,3.22,0,0,1,.54.13.76.76,0,0,0-.16-.25Zm-4.93.29-.21.21c.08.16.29.08.5.08l-.29-.29Zm-.67.37c0-.29-.25-.29-.38-.41.05.12.05.33.13.5s.25.25.46.21c-.13-.13-.21-.21-.21-.3Zm-3.3-.29a1.37,1.37,0,0,0,.25.63l0-.42-.29-.21Zm-.42.13V6a.68.68,0,0,0-.29-.21,1.49,1.49,0,0,0,.08.41.81.81,0,0,0,.55.42c-.05-.25-.26-.42-.34-.58Zm9,0a.79.79,0,0,0-.42.2.75.75,0,0,0,0,.3.79.79,0,0,1,.46-.25c.16,0,.21,0,.37,0,0-.13-.21-.29-.41-.29ZM34,6.22l-.25.17a.56.56,0,0,0,.59,0A.49.49,0,0,1,34,6.22Zm-2.42.42a1.22,1.22,0,0,0-.13-.54.77.77,0,0,0,0,.79c.09.13.3.09.42,0,0-.08-.25-.16-.29-.29Zm-3.93-.16h0s-.17.12-.17.2.05.21.05.3c.08-.21.25-.3.37-.42-.08,0-.17,0-.25-.08Zm5.77.08a.67.67,0,0,1-.3.12.77.77,0,0,0,.67.25l.17,0a1.83,1.83,0,0,1-.54-.33ZM31,6.48a.83.83,0,0,0-.25.29c0,.16.25.21.42.29A1.3,1.3,0,0,1,31,6.48Zm7.27.12c-.08,0-.13,0-.21,0s-.08-.16-.21-.16-.12.08-.21.08-.2,0-.29,0-.12.17-.33.17l0,.33a1.39,1.39,0,0,1,.67-.33,2.41,2.41,0,0,1,.87.25c0-.17-.16-.42-.33-.42Zm-8.56,0a.48.48,0,0,0-.3-.08,1,1,0,0,0,.34.54c0-.17,0-.29,0-.46Zm.37.25.13.29c.21-.08.21-.37.21-.58a1.19,1.19,0,0,1-.34.29Zm6.1.21A.55.55,0,0,0,36,6.89c-.16,0-.29-.29-.54-.29a6.46,6.46,0,0,0,.71.75V7.06Zm-1.63-.13a.68.68,0,0,0,0,.3.7.7,0,0,0,.13.25c.08-.09.12-.13.12-.21s-.12-.25-.21-.34Zm-1.79,0a3.46,3.46,0,0,0-.38.13,2.77,2.77,0,0,0,.33.29,1,1,0,0,0,.51.09,1.63,1.63,0,0,1-.46-.51Zm-4.64.13c0,.17-.08.33-.08.54l.12-.12A.85.85,0,0,0,28.37,7a.35.35,0,0,0-.29,0Zm10.48.33c-.12,0-.16-.16-.33-.16s0,.08-.21.08-.21-.08-.33-.08-.17.12-.59.12v.34a.41.41,0,0,0,.21,0,.28.28,0,0,0,.29-.25c0-.09.17,0,.25,0A.31.31,0,0,1,38,7.39c.13,0,.08.13.17.21s.25.17.46.17c0-.17-.09-.29-.09-.38ZM32.3,7.6l-.13-.21h-.08a3.54,3.54,0,0,1-.5.09,1.16,1.16,0,0,0,1,.33h.08a.76.76,0,0,0-.33-.21Zm-3.68-.16a1,1,0,0,1-.54.54c.17,0,.37.08.54-.08l.17-.46c-.08,0-.08-.05-.17,0Zm6.44.29V7.48a.19.19,0,0,1-.13,0,1.19,1.19,0,0,0-.08.37.63.63,0,0,0,.21.25A.14.14,0,0,0,35.18,8c0-.08,0-.17-.12-.25Zm-3.85,0s-.08,0-.08-.13l-.5-.12s0,.12,0,.12c.21.13.21.38.46.46.08,0,.29,0,.37-.08a1.49,1.49,0,0,0-.29-.25Zm-1.79-.21-.3.29a.7.7,0,0,0-.29.17c.17.08.33,0,.46,0s.25-.25.38-.46Zm6.39.54s0-.12.08-.12A.08.08,0,0,1,36,7.85c-.16-.16-.16-.46-.37-.46s-.13-.12-.13-.2a.73.73,0,0,0-.41-.13.67.67,0,0,1,.29.29,6.4,6.4,0,0,1,.37.8c.09.16.09.37.17.54s0,.21.08.21c0-.21.05-.46.05-.67a.5.5,0,0,0-.21-.17Zm-5.93-.21a1.25,1.25,0,0,1-.21.38.83.83,0,0,0-.21.21l.5-.17a1.11,1.11,0,0,0,.29-.46,1.3,1.3,0,0,0-.37,0ZM38.19,8c0-.13-.25-.13-.5-.13-.09,0-.34.13-.42.13a1.19,1.19,0,0,0,.13.25,2.38,2.38,0,0,1,.41-.08c.17,0,.25,0,.25.16s.21.13.3.13c0-.29-.17-.38-.17-.46ZM36.35,8c0-.08-.08-.08-.17-.08L36.1,8h0a3.49,3.49,0,0,1,.29.58c0-.12,0-.25,0-.37S36.39,8,36.35,8Zm-1.59.67a.49.49,0,0,0,0-.21c0-.21-.12-.29-.12-.25s-.21.17-.21.33.21.21.21.21,0,.08,0,.17a.63.63,0,0,1,.21.5c0-.21.08-.38.08-.59s-.21-.08-.17-.16Zm3.43,0c-.13,0-.17-.08-.29-.13s-.13-.12-.38-.12a.32.32,0,0,0-.17.25v.25c.13,0,.17-.21.3-.21.45,0,.33.42.54.42V8.69ZM31,8.61c-.08,0-.12,0-.25,0a.4.4,0,0,0,0,.16.82.82,0,0,0,.34.17h0L31,8.61Zm2,.12c-.09,0-.21,0-.25,0-.21-.25-.38.21-.59.12-.08.09-.21.17-.21.26l0,0a.86.86,0,0,0,.33-.17c.21,0,.38.17.5,0S33,9,33,9s.21.13.37.13c-.12-.13-.16-.34-.37-.42ZM35.56,9a.69.69,0,0,0,0-.41c0-.13,0-.3-.05-.42,0,.12-.29.17-.29.37s.13.13.13.25-.05.21-.05.3.13,0,.17,0,.09.33,0,.5c.09-.13.29-.33.29-.5s-.16,0-.16-.13Zm-5.35-.21h-.46l.17.26A.38.38,0,0,0,30.29,9l-.08-.21ZM28.71,9V8.9c-.09-.09-.26-.17-.34-.25s-.37-.13-.63-.21l-.25.29v.08A1,1,0,0,1,28,8.73c.13.08.21,0,.3.08a.55.55,0,0,0,.25.3c.21,0,.33.21.41.46,0,0,.05-.42.05-.5S28.75,9,28.71,9Zm9.23.29c-.13,0-.25-.16-.38-.12s-.21,0-.29,0-.08.08,0,.29c.17,0,.42-.12.54,0s0,.3.29.34c0-.17,0-.21,0-.34s-.08-.16-.16-.25Zm-4.51.3a1.34,1.34,0,0,0-1-.3h-.29c-.13,0-.21.13-.33.13l-.17.38c.21-.21.42-.21.58-.3s0,.09.09.09a1.15,1.15,0,0,0,.41-.05,1,1,0,0,1,.38.05c.08.16.25.16.42.25l0-.25Zm5.43-.21c-.09.12-.09.29-.21.37l.25.25A.55.55,0,0,0,39,9.61s-.08-.25-.12-.25Zm-10.28.42s-.13-.13-.08-.21a1.25,1.25,0,0,1-.38-.3c-.12,0-.17-.16-.29-.16A.44.44,0,0,0,27.49,9c-.16,0-.16.17-.25.25a.19.19,0,0,0,.05.13c.12,0,.2-.13.37-.13a1.9,1.9,0,0,0,.42.38,3.7,3.7,0,0,1,.42.17s-.05.08-.05.12.05.3.13.38l.21-.21c-.08-.17,0-.33-.21-.33Zm5.51-.13c0-.17-.2-.33-.33-.5v.12a1.92,1.92,0,0,1,.17,1s.08.08.16.16h0a3.74,3.74,0,0,0,0-.75ZM37.6,10c-.08,0-.16,0-.25,0a.25.25,0,0,0,0-.16c-.09,0-.13,0-.21-.13s-.09,0-.13.08l-.29.25c.17,0,.12-.08.33-.08s.13.17.13.25a.8.8,0,0,1,.46.17l.08-.08A.29.29,0,0,0,37.6,10Zm-9.35.34-.34-.13a.38.38,0,0,1,0-.21c0-.16-.21-.16-.33-.25l-.17-.08h-.21A.38.38,0,0,0,27,9.9c.13,0,.13,0,.21,0a2,2,0,0,1,.76.42l.2.54.09-.29,0-.25Zm10.4,0v-.17a.29.29,0,0,0-.21-.29l-.13.21c.13.29.34.38.34.54,0,0,0-.08.12-.16s-.12-.09-.12-.13Zm-5.1,0a.37.37,0,0,0-.17-.33,2.09,2.09,0,0,0-.75-.21l-.25,0c-.12,0-.29,0-.42.08l-.12.3c.12-.13.33,0,.5-.13s.08.08.17.13.16.33.33.25c.25.12.21.37.21.58l.21-.12c0-.09,0-.21,0-.3s-.17-.16-.3-.25c.13-.16-.08-.21-.12-.29h.29a.31.31,0,0,1,.17.29c.25,0,.29.29.37.46,0-.12.09-.25.13-.37s-.13-.09-.21-.13Zm-1,.29s-.17,0-.21,0-.08-.12-.12-.21a.21.21,0,0,0-.17,0l-.08.09c.08,0,.16.16.33.16s.08.3.21.42l.08-.12a.4.4,0,0,0,0-.3Zm-5.51-.16.12-.17-.17,0a.68.68,0,0,0-.46.21,1.73,1.73,0,0,0-.25,1.08v0c.09-.16.25-.37.34-.54s0-.21.12-.25a.48.48,0,0,1,.3.13,2.26,2.26,0,0,0-.09.58s.42-.38.42-.67-.21-.29-.33-.37Zm-1,0c0-.13,0-.25.13-.3l-.38.05a1.32,1.32,0,0,0-.21.37,1.41,1.41,0,0,0-.12.59,1.12,1.12,0,0,0,.08.5.85.85,0,0,1,.25-.17.79.79,0,0,1,0-.75c.17,0,.26.17.3.29a.68.68,0,0,0,.12-.38.21.21,0,0,0-.21-.2Zm-.83.08L24.9,11v.5c.09.12.21.25.25.25a.91.91,0,0,0,.05-.17c0-.21-.09-.38,0-.58.08,0,.16.12.2.12a.4.4,0,0,0-.16-.5ZM28.58,2c-.13-.21-.33,0-.42-.29s.09-.5.38-.54h.08c.21.08.59.12.59.46a2.59,2.59,0,0,0-.63.37Zm3.3.17H31.8a1.08,1.08,0,0,0-.59-.54.4.4,0,0,1,.21-.38l.25-.08a2.74,2.74,0,0,1,.42.25,1,1,0,0,1,0,.67c0,.08-.13,0-.21.08Zm-1.17.08c-.12,0,0-.25-.21-.25s-.08,0,0,0,.13,0,.21,0,.12.17.29.17,0,0,0,.12Zm-1,0h-.34c0-.08.09-.16.21-.2s.29-.17.38-.09c-.09.09-.17.21-.25.29Zm-.13,1.3c-.12.12-.21.21-.21.29s-.25.09-.33.17c-.09-.08,0-.29,0-.34s.33-.12.38-.33V2.88c0-.08-.05,0-.13,0a.2.2,0,0,1-.21,0c-.08,0-.17-.08-.17-.21s-.2-.08-.2-.16h.79c.08,0,.17.08.17.16,0,.3-.13.59-.13.84Zm1.84-.84c-.08,0-.08.17-.17.21s-.21,0-.33,0-.13-.08-.13-.12l0,0a2,2,0,0,1,0,.5l.21.09c0,.29.25.2.42.33,0,.13-.08.21-.17.25-.08-.12-.21-.12-.33-.21a.31.31,0,0,0-.29-.29,2.55,2.55,0,0,0-.09-.84h.09c0-.12.16-.12.25-.16l.71,0s0,0,0,0a.18.18,0,0,1-.17.08Zm-2.3,1.84c-.08,0,0-.17,0-.17.17,0,.29-.08.38,0a1.29,1.29,0,0,0-.34.17Zm1.67-.08,0-.09h.34v.21l-.38-.12Z"/></g></g></svg>