<svg id="Layer_1" data-name="Layer 1" xmlns="http://www.w3.org/2000/svg" viewBox="0 0 80.01 20.35"><defs><style>.cls-1{fill:#202457;}.cls-2{fill:#fff;}.cls-3{fill:#f16622;}</style></defs><title>ING-PLAC-Z</title><g id="g9"><g id="g11"><path id="path13" class="cls-1" d="M10.49,45.47a1.79,1.79,0,0,1,1.29.39,2.15,2.15,0,0,1,.42,1.55v9.82c0,1.36-.29,2-2,2H10v.61h7.56v-.59h-.23c-1.67,0-1.95-.62-1.95-2V47.42a2.07,2.07,0,0,1,.42-1.54,1.77,1.77,0,0,1,1.31-.39h.45v-.61H10v.61l.49,0Z" transform="translate(-10 -39.83)"/><path id="path15" class="cls-1" d="M34.68,54.78a8.12,8.12,0,0,1-.15-1V49.34c0-2.62.33-3.92-2-3.9v-.59h5.26v.59c-2.35,0-2,1.29-2.08,3.9V59.8H35L23.64,47.92a6.66,6.66,0,0,1,.15.95v7.34c-.07,2.67.26,3,2,3v.61H20.29v-.61c1.73,0,2.07-.23,2.07-3.19V47.78c.07-1.49-.49-2.36-2.17-2.33v-.59h5.06Z" transform="translate(-10 -39.83)"/><path id="path17" class="cls-1" d="M53.74,44.57h-.58l0,.2c0,.3-.15.8-.5.8A1.88,1.88,0,0,1,52,45.4a10.61,10.61,0,0,0-4-.82,8.89,8.89,0,0,0-6.37,2.52,8,8,0,0,0-2.29,5.72,6.69,6.69,0,0,0,2.54,5.28,9,9,0,0,0,6.39,2.08A10.2,10.2,0,0,0,54,58.75l.35-.19V54.65c0-1.67.21-1.93,1.56-2h.22v-.58H49.47v.58h.22c1.51.06,1.8.33,1.8,1.72V58a5,5,0,0,1-3,1,5.49,5.49,0,0,1-3.93-1.63,6.89,6.89,0,0,1-1.81-5,7.19,7.19,0,0,1,1.76-5.2,5,5,0,0,1,3.62-1.47A6.56,6.56,0,0,1,52,47.08a4.49,4.49,0,0,1,1.58,2.42l0,.17h.57Z" transform="translate(-10 -39.83)"/></g><g id="g19"><path id="path21" class="cls-2" d="M82.84,59.76a1.86,1.86,0,0,0,1-.32,4.88,4.88,0,0,0,3.49-.81,7.08,7.08,0,0,0,1.36-1.43,4.83,4.83,0,0,0,.76-1.41,5.65,5.65,0,0,0,.3-1,9.53,9.53,0,0,0-.35-5c-.1-.28-.21-.56-.33-.83a8.65,8.65,0,0,0-2.93-3.68,5.83,5.83,0,0,1-1.94-2c-.24-.21-.46-.49-.77-.55a1.25,1.25,0,0,1,.2.44l0,0a1.11,1.11,0,0,1-.8-.38l.24-.22a1,1,0,0,0-.3-.09,6.85,6.85,0,0,0-2.55.54v.05c.5.23.61.79.91,1.17.08-.09.2,0,.3,0s.29.13.43.08a1.24,1.24,0,0,0-.09-.33c.09,0,.2,0,.3,0,.27.15.71,0,.88.33a5.18,5.18,0,0,0-.89.16c0,.12.13.21.12.33a2.89,2.89,0,0,0-.78-.2v0a2.75,2.75,0,0,0,1.32.8c.71.16,1.33-.18,2-.06a7.8,7.8,0,0,1,3.72,4.18c0,.08.06.17.09.24a8.11,8.11,0,0,1,.1,5,5.81,5.81,0,0,1-1.07,1.81,4.4,4.4,0,0,1-.61.61,2.77,2.77,0,0,1-2.45.54c-.06,0-.17,0-.15-.15s.06-.26.09-.39a10.31,10.31,0,0,0,.18-2.36v-.1a8.9,8.9,0,0,0-.71-3.2,11.29,11.29,0,0,0-1-1.77,4.13,4.13,0,0,0-1.87-1.54,1.4,1.4,0,0,0-1.42.25,1,1,0,0,0-.33.86,3,3,0,0,1-1.35.43c-.12,0-.25.05-.37.05h-.35a3.37,3.37,0,0,1-1.65-.75c0-.24,0-.47,0-.73a.84.84,0,0,1-.5-.69l0,0a2.71,2.71,0,0,1,.42.2,3.2,3.2,0,0,0-.31-1,4.12,4.12,0,0,1-.5-.21.9.9,0,0,1-.33-.54c.17.16.44.1.58.27a9.12,9.12,0,0,0-.59-2c-.18-.44-.66-.64-1-1-.12-.16-.18-.37-.41-.4s-.2-.25-.23-.39c.12,0,.21.09.31.11a3.55,3.55,0,0,0-1.24-2l-.13.07a5,5,0,0,1-.87.07,1.15,1.15,0,0,1,.53-.35,1.28,1.28,0,0,0-.63-.24,1.35,1.35,0,0,1-.61.27l0,0c0-.17,0-.38.21-.42a1.43,1.43,0,0,0-.89,0c-.07.17-.27.34-.26.56-.14.14-.24.35-.4.45a4.81,4.81,0,0,1,.21-1c-.21.08-.42.19-.63.29a7.82,7.82,0,0,0-1-.53s-.1,0-.09,0c.3.22.19.63.23.94l-.19-.16c-.09-.24-.37-.41-.41-.67a3.46,3.46,0,0,0-.82.28l0,0a.61.61,0,0,1,.5.34,6,6,0,0,1-1-.14.14.14,0,0,0-.11-.07,2.09,2.09,0,0,0-.44.29,3.27,3.27,0,0,0-.81,1.08c.11,0,.25,0,.32.08-.17.11-.33.29-.5.38a3.42,3.42,0,0,0-.07.79,4.16,4.16,0,0,0-.41.62,8.94,8.94,0,0,0-.32,3c-.09.09-.22.14-.3.21v1h0c0-.2.28-.31.42-.44h.05c0,.21-.06.43-.06.65l-.26.22c-.28.24-.05.6-.07.89,0,.08,0,.2.09.21a.84.84,0,0,1,.2-.29c.12,0,.22-.13.33-.14-.07.23-.14.47-.23.69a.51.51,0,0,0-.25.3A21.76,21.76,0,0,0,64,53.2c-.25.44-.4.95-.62,1.4a1.51,1.51,0,0,1-.09.18,15.5,15.5,0,0,1-.54,1.67,1.54,1.54,0,0,0-.34-.17,1.39,1.39,0,0,0-1.46.33,1.26,1.26,0,0,0-.92.16,1.21,1.21,0,0,0-.41.5,1.27,1.27,0,0,0-.07.44,1,1,0,0,0-.39.6,1.84,1.84,0,0,0,.36,1.41l23.3,0Z" transform="translate(-10 -39.83)"/><path id="path23" class="cls-2" d="M79.75,49.26c0,.12-.09.25,0,.36.11-.12.3-.12.45-.17a3.82,3.82,0,0,1,1.21.18c-.1-.15-.17-.33-.27-.46s-.54.09-.57-.22c-.14-.11-.35,0-.48,0a.87.87,0,0,0-.33.33Z" transform="translate(-10 -39.83)"/><path id="path25" class="cls-2" d="M65.46,45.24Z" transform="translate(-10 -39.83)"/><path id="path27" class="cls-2" d="M67.16,49.38l.28-.26a.07.07,0,0,1,.06,0l0,.52a.76.76,0,0,0,.48.17c0-.14.12-.24.19-.36s0-.24.12-.31l0,0a1.46,1.46,0,0,0,.1.47l0,.23a1.28,1.28,0,0,0,.56-.12,2.63,2.63,0,0,1,.07-.49c0-.05,0-.15.07-.15s.18.28.24.43a1.88,1.88,0,0,0,.46-1c-.08-.11-.2-.11-.3-.18a3.59,3.59,0,0,0-2.58.09A1.24,1.24,0,0,0,67.16,49.38Z" transform="translate(-10 -39.83)"/><path id="path29" class="cls-2" d="M59.74,58.14a7.31,7.31,0,0,0,0,1,.52.52,0,0,0,.35.27l0-.24c0-.34-.12-.69.07-1l.37.17a.8.8,0,0,0-.32-.85Z" transform="translate(-10 -39.83)"/><path id="path31" class="cls-2" d="M60.89,57.64a2.81,2.81,0,0,0-.1,1.79,3.27,3.27,0,0,0,.37-.28,1.89,1.89,0,0,1,.18-1.27.82.82,0,0,1,.47.51.82.82,0,0,0,.14-.73c0-.21-.22-.16-.33-.25s0-.37.21-.47l-.56.05A2.51,2.51,0,0,0,60.89,57.64Z" transform="translate(-10 -39.83)"/><path id="path33" class="cls-2" d="M62,59.25s0,.12.05.12c.06-.39.38-.64.56-1,.09-.13.08-.28.21-.37s.31.13.49.15,0,.07,0,.12a5.58,5.58,0,0,0-.13.9h0a4.39,4.39,0,0,0,.59-.84l0-.25c0-.32-.3-.52-.53-.65l.19-.26-.27-.1a1.33,1.33,0,0,0-.85.42A3.87,3.87,0,0,0,62,59.25Z" transform="translate(-10 -39.83)"/><path id="path35" class="cls-2" d="M63.3,56.48c.11,0,.21-.06.31,0a2.83,2.83,0,0,1,1.21.69l.39,1,.18-.59-.12-.34c-.11-.23-.4-.21-.61-.22s0-.2,0-.28c.1-.34-.31-.31-.48-.45,0-.2-.23-.13-.36-.15l0-.06s-.1,0-.13,0,0,0,0,0l-.1,0a.6.6,0,0,0-.26.48Z" transform="translate(-10 -39.83)"/><path id="path37" class="cls-2" d="M63.57,55.4a.25.25,0,0,0,.1.16c.21-.06.41-.2.65-.11a4,4,0,0,0,1,.72l.13,0c.09,0,.18,0,.23.13s-.07.19-.12.29c.21.16.12.43.26.62l.33-.45c-.08-.2,0-.53-.3-.55a.31.31,0,0,1-.17-.28c-.2-.18-.44-.26-.65-.44s-.26-.33-.47-.38a1.8,1.8,0,0,0-.48-.15C63.81,54.88,63.78,55.26,63.57,55.4Z" transform="translate(-10 -39.83)"/><path id="path39" class="cls-2" d="M64,54.49l.06.08c.23,0,.44-.12.67-.11s.36.09.51.17a2.06,2.06,0,0,0,.44.49c.38.05.59.46.72.76v-.15a1,1,0,0,0-.07-.61c-.09-.09-.24-.16-.34-.25a.23.23,0,0,1,0-.14,2.18,2.18,0,0,0-.54-.35c-.24-.37-.73-.27-1.1-.37l-.36.48Z" transform="translate(-10 -39.83)"/><path id="path41" class="cls-2" d="M64,51.06a3.51,3.51,0,0,1,.12.49c.14-.29.39-.42.62-.66a1.21,1.21,0,0,0-.44-.15h0A1,1,0,0,0,64,51.06Z" transform="translate(-10 -39.83)"/><path id="path43" class="cls-2" d="M64.86,52.6l.21-.21a1.33,1.33,0,0,0,.42-.74.54.54,0,0,0-.48,0,4.52,4.52,0,0,0-.15.93Z" transform="translate(-10 -39.83)"/><path id="path45" class="cls-2" d="M65,53.26a1.28,1.28,0,0,0,.89-.1l.27-.84c-.09,0-.17,0-.24,0A2.22,2.22,0,0,1,65,53.26Z" transform="translate(-10 -39.83)"/><path id="path47" class="cls-2" d="M65.11,50.28A1.89,1.89,0,0,0,66,51c0-.39-.37-.67-.55-1v-.11a1.67,1.67,0,0,0-.44-.29,2.76,2.76,0,0,0,.09.65Z" transform="translate(-10 -39.83)"/><path id="path49" class="cls-2" d="M66.25,53.29a1.7,1.7,0,0,0,.74-.06c.33-.08.52-.45.63-.73H67.2l-.46.44a5,5,0,0,0-.49.35Z" transform="translate(-10 -39.83)"/><path id="path51" class="cls-2" d="M66.2,49.86a2.69,2.69,0,0,0,.43,1l.06-.69Z" transform="translate(-10 -39.83)"/><path id="path53" class="cls-2" d="M67.73,51.67a3.14,3.14,0,0,0-.1-.74c-.15-.09-.34-.09-.49-.18A1.43,1.43,0,0,0,67.73,51.67Z" transform="translate(-10 -39.83)"/><path id="path55" class="cls-2" d="M67.31,54a3.87,3.87,0,0,0,.85-.34,1.86,1.86,0,0,0,.47-.76c-.21.05-.39,0-.59.09a1.65,1.65,0,0,1-.43.63C67.56,53.8,67.38,53.91,67.31,54Z" transform="translate(-10 -39.83)"/><path id="path57" class="cls-2" d="M67.76,54.62l.35.45A.68.68,0,0,0,68.7,55l-.12-.42A1.75,1.75,0,0,1,67.76,54.62Z" transform="translate(-10 -39.83)"/><path id="path59" class="cls-2" d="M68.35,51.3l.13.62a1.22,1.22,0,0,0,.39-1.06,1.51,1.51,0,0,1-.52.44Z" transform="translate(-10 -39.83)"/><path id="path61" class="cls-2" d="M69.26,52.4a.49.49,0,0,0,.08.24c.37.13.4.58.74.74a.83.83,0,0,0,.67-.11c-.15-.17-.31-.28-.46-.45s-.2-.1-.18-.22l-.85-.2Z" transform="translate(-10 -39.83)"/><path id="path63" class="cls-2" d="M69.56,54.6a1.27,1.27,0,0,0,.6.33c0-.06,0,0,0,0l-.27-.62c-.15,0-.29,0-.42,0a1,1,0,0,0,.06.3Z" transform="translate(-10 -39.83)"/><path id="path65" class="cls-2" d="M70.05,51.72a3.31,3.31,0,0,1-.22-1c-.14.16-.29.27-.42.44C69.35,51.51,69.85,51.59,70.05,51.72Z" transform="translate(-10 -39.83)"/><path id="path67" class="cls-2" d="M70.63,51.4c.16.22.54.15.74.08-.1-.17-.42-.26-.48-.45a4.17,4.17,0,0,0-.2-.93A1.37,1.37,0,0,0,70.63,51.4Z" transform="translate(-10 -39.83)"/><path id="path69" class="cls-2" d="M70.91,52.4c.47.34.93.74,1.58.59.05,0,.13,0,.14-.08-.19-.13-.4-.21-.6-.34l-.22-.33h-.1a4.2,4.2,0,0,1-.8.16Z" transform="translate(-10 -39.83)"/><path id="path71" class="cls-2" d="M70.92,56.18h0a2.62,2.62,0,0,1,.94-.4c.09,0,0,.13.11.16s.44-.06.65-.13a1.4,1.4,0,0,1,.65.12c.16.21.46.19.67.34l0-.34a2.15,2.15,0,0,0-1.73-.54v-.06a1,1,0,0,0-.46.1,3.14,3.14,0,0,0-.58.16C71.07,55.79,71,56,70.92,56.18Z" transform="translate(-10 -39.83)"/><path id="path73" class="cls-2" d="M71.3,50.44a.81.81,0,0,0,.76.37c-.15-.16-.34-.32-.35-.55,0-.42-.41-.45-.63-.66A3.14,3.14,0,0,0,71.3,50.44Z" transform="translate(-10 -39.83)"/><path id="path75" class="cls-2" d="M71.26,57h0c.24-.16.61,0,.85-.2s.15.12.25.16.25.57.57.47c.39.2.29.67.3,1l.36-.22c0-.17.07-.4,0-.56s-.33-.22-.44-.39c.14-.24-.18-.35-.25-.52l0,0,.49.07a.66.66,0,0,1,.28.46c.39.07.49.51.62.79.08-.19.11-.4.19-.59s-.2-.15-.3-.22a.83.83,0,0,0-.34-.61,5,5,0,0,0-1.29-.34l-.39.12c-.21.06-.45,0-.61.13s-.28.29-.33.46Z" transform="translate(-10 -39.83)"/><path id="path77" class="cls-2" d="M71.5,55.08l.09.05c.19-.09.38-.19.58-.27s.56.27.82,0c.1-.07.18,0,.26.08.11.21.37.19.57.25-.1-.27-.22-.63-.56-.68a1.87,1.87,0,0,1-.42-.13c-.37-.4-.6.33-1,.14C71.71,54.73,71.53,54.88,71.5,55.08Z" transform="translate(-10 -39.83)"/><path id="path79" class="cls-2" d="M71.59,57.36c.14.12.3.34.53.31.29.13.16.52.33.72l.17-.16h0l0,0h0a.93.93,0,0,0-.1-.55c-.11-.08-.23,0-.33-.07s-.11-.22-.21-.32-.18,0-.26,0l-.15.08Z" transform="translate(-10 -39.83)"/><path id="path81" class="cls-2" d="M72.17,51.67a2.5,2.5,0,0,0,.7.59,1.07,1.07,0,0,0,.66.07,4.68,4.68,0,0,1-.55-.54c-.07-.09-.08-.21-.16-.3a1.18,1.18,0,0,0-.65.18Z" transform="translate(-10 -39.83)"/><path id="path83" class="cls-2" d="M72.43,50c.21.26.54.15.85.17v0l-.46-.4a1.44,1.44,0,0,0-.39.27Z" transform="translate(-10 -39.83)"/><path id="path85" class="cls-2" d="M63.83,45.6l.27.84c0-.47.21-.87.17-1.36l.19-.3-.43.14A1.86,1.86,0,0,0,63.83,45.6Z" transform="translate(-10 -39.83)"/><path id="path87" class="cls-2" d="M64,44.14l.37-.21v-.54c-.16.09-.25.26-.37.38Z" transform="translate(-10 -39.83)"/><path id="path89" class="cls-2" d="M71.59,45a.49.49,0,0,1-.33.17,1.65,1.65,0,0,0,.13-1.27,1.63,1.63,0,0,0,.31-.11h0l.25-.22c.34-.24.21-.68.33-1a3.2,3.2,0,0,0-.46-.8h0c-.19-.24-.54-.21-.8-.33s-.6.12-.86.28c-.11,0,0,.15-.15.15a3.69,3.69,0,0,0-.19.56,1.84,1.84,0,0,0-1.33.24,1.75,1.75,0,0,0-.66-.24c-.17,0-.37,0-.48-.07s-.22-.56-.52-.62c-.11,0-.13-.15-.13-.25-.2,0-.38-.13-.58-.17s-.53.08-.76.22-.21.06-.3.11a4.59,4.59,0,0,0-.43.82,1.54,1.54,0,0,0,.26.65,1.32,1.32,0,0,0,.73.66,2.7,2.7,0,0,0,0,1.49h0a.29.29,0,0,1-.13,0h0a2.16,2.16,0,0,0,.62,1.17c.12,0,.09.18.14.27a.18.18,0,0,1,0,.17,3.54,3.54,0,0,0-2,.49c-.15.07-.09.27-.1.42a3.6,3.6,0,0,1,1.35-.57,2.36,2.36,0,0,1,.65,0l0,.4a6,6,0,0,0-1.64.93,2,2,0,0,0,0,.43l.42-.35a5.7,5.7,0,0,1,1.31-.75,1.36,1.36,0,0,0,.43.4,3.26,3.26,0,0,1,.92-.4c.18-.1.44,0,.57-.21l.07-.42a.05.05,0,0,0,0,0,.61.61,0,0,1-.34-.61.55.55,0,0,1-.25.07c-.07,0-.14,0-.17-.11s-.06-.23,0-.3a1.7,1.7,0,0,1,1.08-.16c.29,0,.7,0,.8.36,0,.1,0,.21-.1.27a.35.35,0,0,1-.31-.05c-.08.23-.2.49-.45.56v.29c0,.12,0,.32.23.28a4.19,4.19,0,0,1,1.23.58,2.65,2.65,0,0,0,.33-.42,6.34,6.34,0,0,1,1.86,1.23l0-.39a6.53,6.53,0,0,0-1.77-1.08,2.13,2.13,0,0,0,.06-.39,4.65,4.65,0,0,1,2,.63v-.33A4.63,4.63,0,0,0,70.45,47a.27.27,0,0,1,0-.15,1.05,1.05,0,0,0,.73-.78c.18-.22.46-.45.39-.79a.19.19,0,0,0,0-.08A.33.33,0,0,0,71.59,45Z" transform="translate(-10 -39.83)"/><path id="path91" class="cls-2" d="M72.24,46.19l.39-.12,0-.21c.11-.31-.12-.55-.23-.8l-.2,1.13Z" transform="translate(-10 -39.83)"/><path id="path93" class="cls-2" d="M73.21,47.67c.18.2.37.52.69.42a2.35,2.35,0,0,0-.14-.37c-.09-.1-.12-.37-.28-.27a1.27,1.27,0,0,1-.24-.33A2,2,0,0,0,73.21,47.67Z" transform="translate(-10 -39.83)"/><path id="path95" class="cls-2" d="M73.28,49c.07.1.09.22.15.31a.74.74,0,0,0,.47,0c.14,0,.23.12.36,0-.16-.1-.26-.29-.42-.42S73.47,49,73.28,49Z" transform="translate(-10 -39.83)"/><path id="path97" class="cls-2" d="M73.52,51.2a1.77,1.77,0,0,0,1.16.31s.13,0,.14-.07c-.27-.09-.55-.37-.83-.42-.16-.25-.36.06-.56,0A.42.42,0,0,0,73.52,51.2Z" transform="translate(-10 -39.83)"/><path id="path99" class="cls-2" d="M74.5,55.33l.06.15c.07.49.38.93.21,1.47.15.1.19.27.28.39h0a3.23,3.23,0,0,0,0-1.24C75.08,55.73,74.72,55.51,74.5,55.33Z" transform="translate(-10 -39.83)"/><path id="path101" class="cls-2" d="M74.57,50.55a1,1,0,0,0,.91.11,3.3,3.3,0,0,1-.52-.33Z" transform="translate(-10 -39.83)"/><path id="path103" class="cls-2" d="M75.72,52a.49.49,0,0,0,.25.45,1.11,1.11,0,0,0,.14-.34.84.84,0,0,0-.33-.52A1.35,1.35,0,0,0,75.72,52Z" transform="translate(-10 -39.83)"/><path id="path105" class="cls-2" d="M75.75,54.11c0,.22.21.24.31.37s-.06.17-.06.26a1.26,1.26,0,0,1,.28.8c.06-.29.17-.56.22-.85s-.34-.17-.3-.39a1.06,1.06,0,0,0-.08-.68s-.06-.1-.1-.07C75.93,53.75,75.72,53.88,75.75,54.11Z" transform="translate(-10 -39.83)"/><path id="path107" class="cls-2" d="M76.38,53l.24.48c.11,0,.18-.12.26-.19s-.11-.32-.15-.48,0-.27-.08-.37-.13-.1-.2-.08l-.07.64Z" transform="translate(-10 -39.83)"/><path id="path109" class="cls-2" d="M76.7,51.76a1.47,1.47,0,0,1,.51.48c.16.48.43.91.62,1.37s.12.61.21.93c0,.08,0,.24.14.23,0-.35.11-.69.11-1.06a1.52,1.52,0,0,0-.42-.31v0c0-.08.09-.18.19-.16s.16-.08.11-.17c-.25-.25-.23-.67-.62-.74a.37.37,0,0,1-.18-.33A1.08,1.08,0,0,0,76.7,51.76Z" transform="translate(-10 -39.83)"/><path id="path111" class="cls-2" d="M76.92,54.29c.24.22.15.54.13.83s.19.07.26.16,0,.53,0,.76a3.67,3.67,0,0,0,.36-.57c0-.08.1-.12.09-.21s-.12-.08-.18-.09-.12-.05-.1-.12c.12-.23,0-.51,0-.75s0-.45-.07-.62c-.14.21-.58.25-.47.61Z" transform="translate(-10 -39.83)"/><path id="path113" class="cls-2" d="M77.35,51c.42.42.72.84,1.17,1.25a4.7,4.7,0,0,0,0-.53,1.42,1.42,0,0,0-.29-.31C77.88,51.35,77.7,50.91,77.35,51Z" transform="translate(-10 -39.83)"/><path id="path115" class="cls-2" d="M78.44,53.19a1,1,0,0,1,0,.12,8.25,8.25,0,0,1,.49.93c0-.34.19-.77-.12-1,0-.11-.17-.07-.27-.06Z" transform="translate(-10 -39.83)"/><path id="path117" class="cls-2" d="M79.56,56.61c.13,0,.3,0,.42-.12s.21,0,.3.1,0,.14,0,.21a2.59,2.59,0,0,1,.81.34l.08-.08c0-.2-.15-.34-.29-.45s-.24,0-.31-.11a.63.63,0,0,0,0-.27.61.61,0,0,1-.37-.12c-.08,0-.15-.09-.21,0-.24.16-.26.39-.48.5Z" transform="translate(-10 -39.83)"/><path id="path119" class="cls-2" d="M79.89,50.73a.94.94,0,0,0,.34-.14c.3-.29.76-.09,1.12-.1a1.85,1.85,0,0,0-.25-.37,1.14,1.14,0,0,0-.4-.11c-.32-.19-.53.12-.77.28A.53.53,0,0,0,79.89,50.73Z" transform="translate(-10 -39.83)"/><path id="path121" class="cls-2" d="M79.89,51.69s0,0,0,0,0,.12.07.14a1.79,1.79,0,0,0,.34-.22c.31,0,.5-.3.81-.3a4.82,4.82,0,0,1,1.47.44A1,1,0,0,0,82,51c-.16-.06-.27,0-.38.11-.31.19-.14-.29-.36-.3a2.11,2.11,0,0,1-.9.15c-.19.07-.32.25-.53.22a1.58,1.58,0,0,0,0,.5Z" transform="translate(-10 -39.83)"/><path id="path123" class="cls-2" d="M80.11,52.74c.1.1.27.09.4.1l.41-.16c0-.07-.12-.09-.09-.17s.27,0,.41-.09.4-.22.6-.08c0,0,0,.06,0,.08s0,.23.15.29.45.25.68.15a5.41,5.41,0,0,0-.12-.55c-.19,0-.34-.19-.51-.26a.37.37,0,0,1-.28.13c-.36-.09-.78-.31-1.15-.08-.13.15-.36.11-.54.18A1.41,1.41,0,0,0,80.11,52.74Z" transform="translate(-10 -39.83)"/><path id="path125" class="cls-2" d="M80.27,55.51c0,.08-.11.21,0,.25.3,0,.69-.15.92.09.08.06,0,.18,0,.26l.39.33a3.71,3.71,0,0,0,.11-.58.65.65,0,0,0-.23-.39c-.26,0-.41-.3-.69-.27s-.26.1-.42.1-.09.14-.14.21Z" transform="translate(-10 -39.83)"/><path id="path127" class="cls-2" d="M80.38,53.3c.06.13.13.34.24.35a1.3,1.3,0,0,1,1-.07c.1,0,.1.13.07.21.16.09.36.17.52.27l0-.28c0-.3-.4-.33-.42-.63a2,2,0,0,0-1-.06.68.68,0,0,1-.39.11S80.38,53.27,80.38,53.3Z" transform="translate(-10 -39.83)"/><path id="path129" class="cls-2" d="M80.46,54.82c.17-.06.3-.26.49-.27a.89.89,0,0,1,.76.39c.11.08.09.26.23.26a5,5,0,0,1,0-.67c-.2-.33-.68-.08-.86-.45l-.34,0c-.25.07-.18.35-.23.54s-.07.11-.07.18Z" transform="translate(-10 -39.83)"/><path id="path131" class="cls-2" d="M82.17,56.86c.15.29.47.51.5.84a1.75,1.75,0,0,0,.18-.29c0-.08-.11-.08-.16-.16a.53.53,0,0,1,0-.33.93.93,0,0,0-.37-.44Z" transform="translate(-10 -39.83)"/><path id="path133" class="cls-2" d="M82.75,56.12l.33.45a1.26,1.26,0,0,0,.09-.84s-.09-.13-.18-.09-.14.34-.24.48Z" transform="translate(-10 -39.83)"/><path id="path135" class="cls-2" d="M81.38,43.35a.85.85,0,0,0,.38.12.47.47,0,0,1,.35-.06c.17.11.38,0,.58,0a2.34,2.34,0,0,0-.58-.36C81.85,43.09,81.64,43.28,81.38,43.35Z" transform="translate(-10 -39.83)"/><path id="path137" class="cls-2" d="M83.21,43.79c.24,0,.42.24.6.42a.89.89,0,0,1,.5.33l-.08-.24a1.55,1.55,0,0,0-.37-.63A1.67,1.67,0,0,0,83.21,43.79Z" transform="translate(-10 -39.83)"/><path id="path139" class="cls-3" d="M65.77,41.74l.13,0c.37.17.95.27,1,.8a3,3,0,0,0-1,.64c-.22-.23-.68-.1-.75-.51s.21-.85.65-.95Z" transform="translate(-10 -39.83)"/><path id="path141" class="cls-3" d="M66.12,44.11c.42,0,.84,0,1.28,0a.47.47,0,0,1,.26.24c0,.51-.16,1-.19,1.5a.74.74,0,0,0-.42.46,3.12,3.12,0,0,0-.49.23.49.49,0,0,1,.06-.53c.18-.26.65-.2.62-.61.12-.2,0-.45,0-.65s-.09,0-.16,0a.56.56,0,0,1-.44,0c-.09-.1-.22-.19-.24-.33a.79.79,0,0,1-.35-.3Z" transform="translate(-10 -39.83)"/><path id="path143" class="cls-3" d="M66.63,47.15c.2,0,.41-.07.59,0,0,.07-.13.09-.21.11l-.31.15C66.58,47.41,66.64,47.23,66.63,47.15Z" transform="translate(-10 -39.83)"/><path id="path145" class="cls-3" d="M67.45,43.25a1.1,1.1,0,0,1,.63-.14,3.63,3.63,0,0,0-.39.55h-.64A1,1,0,0,1,67.45,43.25Z" transform="translate(-10 -39.83)"/><path id="path147" class="cls-3" d="M69.33,43.1c.27,0,.26.3.5.31,0,.06.1.11.08.19a4.18,4.18,0,0,1-.51.07c-.21-.12-.08-.49-.41-.46,0,0-.06-.08,0-.1a.69.69,0,0,1,.35,0Z" transform="translate(-10 -39.83)"/><path id="path149" class="cls-3" d="M69.15,44.35a.73.73,0,0,1,.47-.21l1.2,0c.06.05,0,.09,0,.15s-.19.09-.24.15-.15.19-.26.27-.42.09-.63.06a.61.61,0,0,1-.17-.19l-.06,0a7.64,7.64,0,0,1,.1.82l.29.19c0,.43.51.31.73.55a1.58,1.58,0,0,1-.27.42,1.51,1.51,0,0,0-.6-.37c0-.25-.29-.39-.45-.53,0-.45,0-.92-.12-1.37Z" transform="translate(-10 -39.83)"/><path id="path151" class="cls-3" d="M69.6,47.23h.56l-.07.29-.56-.24s0-.05.07-.05Z" transform="translate(-10 -39.83)"/><path id="path153" class="cls-3" d="M70.6,41.94l.42-.13a3.69,3.69,0,0,1,.69.41,1.66,1.66,0,0,1,.07,1.1c-.13.15-.4,0-.51.23h0a2,2,0,0,0-1-1,.93.93,0,0,1,.35-.58Z" transform="translate(-10 -39.83)"/><path id="path155" class="cls-2" d="M80.35,59.72h2.49a1.72,1.72,0,0,0,1-.32,4.87,4.87,0,0,0,3.49-.8,7.65,7.65,0,0,0,1.36-1.43,4.83,4.83,0,0,0,.76-1.41,5.51,5.51,0,0,0,.3-1,9.5,9.5,0,0,0-.35-5c-.1-.29-.21-.56-.33-.83a8.54,8.54,0,0,0-2.93-3.68,5.92,5.92,0,0,1-1.94-2c-.24-.21-.46-.5-.77-.55a1.17,1.17,0,0,1,.2.44l0,0a1.1,1.1,0,0,1-.8-.37l.24-.22a1,1,0,0,0-.3-.09,6.85,6.85,0,0,0-2.55.54v0c.51.23.62.8.92,1.17.07-.09.19,0,.29,0s.29.12.44.08a1.78,1.78,0,0,0-.09-.33c.09,0,.2,0,.3,0,.26.15.7,0,.87.33a6.36,6.36,0,0,0-.89.15c0,.12.14.21.13.33a3.39,3.39,0,0,0-.79-.2v.05a2.66,2.66,0,0,0,1.32.79c.7.17,1.32-.17,2-.05a7.83,7.83,0,0,1,3.73,4.18c0,.07,0,.16.08.24a8.07,8.07,0,0,1,.1,5,5.81,5.81,0,0,1-1.07,1.81,3.91,3.91,0,0,1-.61.61,2.73,2.73,0,0,1-2.45.54c-.06,0-.17,0-.16-.14s.06-.27.09-.4a10.81,10.81,0,0,0,.18-2.35v-.1a9,9,0,0,0-.71-3.21,11.68,11.68,0,0,0-1-1.76,4.07,4.07,0,0,0-1.87-1.54,1.45,1.45,0,0,0-1.42.24,1,1,0,0,0-.33.86,2.88,2.88,0,0,1-1.35.44c-.12,0-.25,0-.37,0h-.34A3.51,3.51,0,0,1,75.59,49l0-.73a.87.87,0,0,1-.5-.7l0,0a1.79,1.79,0,0,1,.42.2,3.06,3.06,0,0,0-.31-1,4.25,4.25,0,0,1-.49-.21.82.82,0,0,1-.33-.54c.17.15.45.1.58.28a8.8,8.8,0,0,0-.59-2c-.17-.45-.66-.64-1-1-.12-.15-.18-.36-.41-.38s-.2-.26-.23-.39c.12,0,.21.09.31.11a3.64,3.64,0,0,0-1.24-2l-.12.08a5.22,5.22,0,0,1-.88.07,1.26,1.26,0,0,1,.53-.36,1.37,1.37,0,0,0-.63-.23,1.26,1.26,0,0,1-.6.27l0,0c0-.16,0-.37.21-.42a1.5,1.5,0,0,0-.89,0c-.07.18-.27.35-.26.57a2.94,2.94,0,0,1-.39.45,4.23,4.23,0,0,1,.21-1,5.92,5.92,0,0,0-.64.28c-.33-.18-.68-.38-1-.53,0,0-.1,0-.09,0,.3.22.18.63.22.94l-.19-.16c-.09-.24-.37-.41-.41-.67a3.43,3.43,0,0,0-.82.27l0,0a.64.64,0,0,1,.51.34,5,5,0,0,1-1-.15s-.06-.06-.11-.06a2.08,2.08,0,0,0-.46.29,3.27,3.27,0,0,0-.81,1.08c.11,0,.25,0,.32.08-.17.11-.33.28-.5.38a4.07,4.07,0,0,0-.07.79,3.7,3.7,0,0,0-.41.62,9.17,9.17,0,0,0-.32,3c-.09.08-.21.14-.3.21v1h0c0-.2.28-.31.42-.46h0c0,.21-.06.43-.06.65l-.27.23c-.27.24-.05.59-.07.89,0,.08,0,.2.09.21a1,1,0,0,1,.2-.3c.12,0,.22-.12.33-.13a5.44,5.44,0,0,1-.23.68.87.87,0,0,0-.15.13.59.59,0,0,0-.1.17A21.88,21.88,0,0,0,64,53.17c-.25.43-.4.95-.62,1.39a1.11,1.11,0,0,1-.09.19,16.25,16.25,0,0,1-.54,1.67,2.27,2.27,0,0,0-.34-.19,1.45,1.45,0,0,0-1.46.33,1.27,1.27,0,0,0-.92.17,1.21,1.21,0,0,0-.41.5,1.23,1.23,0,0,0-.07.44,1,1,0,0,0-.39.6,1.86,1.86,0,0,0,.36,1.41l20.81,0Z" transform="translate(-10 -39.83)"/><path id="path157" class="cls-3" d="M89.46,49.79c-.1-.29-.21-.56-.33-.83a8.46,8.46,0,0,0-2.93-3.68,6,6,0,0,1-1.94-2c-.24-.21-.46-.5-.77-.55a1.17,1.17,0,0,1,.2.44l0,0a1.1,1.1,0,0,1-.8-.37l.24-.23a1.47,1.47,0,0,0-.3-.08,6.85,6.85,0,0,0-2.55.54v0c.51.23.62.8.92,1.17.07-.09.19,0,.29,0s.29.12.44.08a1.78,1.78,0,0,0-.09-.33c.09,0,.2,0,.3,0,.26.15.7,0,.87.33a6.36,6.36,0,0,0-.89.15c0,.12.14.21.13.33a3.39,3.39,0,0,0-.79-.2v.05a2.66,2.66,0,0,0,1.32.79c.7.17,1.32-.17,2-.05a7.83,7.83,0,0,1,3.73,4.18c0,.07,0,.16.08.24a8.07,8.07,0,0,1,.1,5,5.81,5.81,0,0,1-1.07,1.81,3.91,3.91,0,0,1-.61.61,2.73,2.73,0,0,1-2.45.54c-.06,0-.17,0-.16-.14s.06-.27.09-.4a10.81,10.81,0,0,0,.18-2.35v-.1a9,9,0,0,0-.71-3.21,11.68,11.68,0,0,0-1-1.76,4.07,4.07,0,0,0-1.87-1.54,1.45,1.45,0,0,0-1.42.24,1,1,0,0,0-.33.86,2.88,2.88,0,0,1-1.35.44c-.12,0-.25,0-.37,0h-.34A3.51,3.51,0,0,1,75.59,49l0-.73a.87.87,0,0,1-.5-.7l0,0a1.79,1.79,0,0,1,.42.2,3.06,3.06,0,0,0-.31-1,4.25,4.25,0,0,1-.49-.21.82.82,0,0,1-.33-.54c.17.15.45.1.58.28a8.8,8.8,0,0,0-.59-2c-.17-.45-.66-.64-1-1-.12-.15-.18-.36-.41-.38s-.2-.26-.23-.39c.12,0,.21.09.31.11a3.64,3.64,0,0,0-1.24-2l-.12.08a5.22,5.22,0,0,1-.88.07,1.26,1.26,0,0,1,.53-.36,1.37,1.37,0,0,0-.63-.23,1.26,1.26,0,0,1-.6.27l0,0c0-.16,0-.37.21-.42a1.5,1.5,0,0,0-.89,0c-.07.18-.27.35-.26.57a2.94,2.94,0,0,1-.39.45,4.23,4.23,0,0,1,.21-1,5.92,5.92,0,0,0-.64.28c-.33-.18-.68-.38-1-.53,0,0-.1,0-.09,0,.3.22.18.63.22.94l-.19-.16c-.09-.24-.37-.41-.41-.67a3.43,3.43,0,0,0-.82.27l0,0a.64.64,0,0,1,.51.34,5,5,0,0,1-1-.15s-.06-.06-.11-.06a2.08,2.08,0,0,0-.46.29,3.27,3.27,0,0,0-.81,1.08c.11,0,.25,0,.32.08-.17.11-.33.28-.5.38a4.07,4.07,0,0,0-.07.79,3.7,3.7,0,0,0-.41.62,9.17,9.17,0,0,0-.32,3c-.09.08-.21.14-.3.21v1h0c0-.2.28-.31.42-.46h0c0,.21-.06.43-.06.65l-.27.23c-.27.24-.05.59-.07.89,0,.08,0,.2.09.21a1,1,0,0,1,.2-.3c.12,0,.22-.12.33-.13a5.44,5.44,0,0,1-.23.68.87.87,0,0,0-.15.13.59.59,0,0,0-.1.17A21.88,21.88,0,0,0,64,53.17c-.25.43-.4.95-.62,1.39a1.11,1.11,0,0,1-.09.19,16.25,16.25,0,0,1-.54,1.67,2.27,2.27,0,0,0-.34-.19,1.45,1.45,0,0,0-1.46.33,1.27,1.27,0,0,0-.92.17,1.21,1.21,0,0,0-.41.5,1.23,1.23,0,0,0-.07.44,1,1,0,0,0-.39.6,1.86,1.86,0,0,0,.36,1.41h8.25a2.68,2.68,0,0,1-.32-.52c-.17-.26,0-.64-.07-.95.16-.34.34-.68.53-1,0-.06.07-.13.12-.2l.37-.14c.2,0,.37-.14.57-.09.25.26.25-.25.51-.27A1.4,1.4,0,0,1,71,57c0,.07.1.07.08.12s-.15,0-.22,0c-.36-.09-.78-.31-1.12-.11a1.84,1.84,0,0,1,0,.25,2.51,2.51,0,0,0,0,.27,1.5,1.5,0,0,1,.6.41,1,1,0,0,1,.58-.41,1.3,1.3,0,0,1,.57.17c.3.27.14.73.12,1.08.26.14.56.23.83.37a1.12,1.12,0,0,1-.44.21l-.46-.08c-.05,0-.14,0-.15-.1a2,2,0,0,0-.42.57h6.4a3.88,3.88,0,0,0-.3-.52,2.56,2.56,0,0,1-.09-1l.6-.91a6.05,6.05,0,0,1,1-.06.11.11,0,0,1,.06,0c.14-.1.19-.35.41-.31a1.18,1.18,0,0,1,1,.24l0,.07c-.12.19-.36,0-.52,0s0,.16,0,.24-.06.08-.1.09a.29.29,0,0,1-.27-.09s0-.05,0-.05a1.27,1.27,0,0,0-.24.42,1.15,1.15,0,0,1,.3.33c.11.15-.09.26-.12.41s-.06,0-.07,0-.18-.2-.29-.16c-.09.42,0,.83,0,1.25a3,3,0,0,0,.6,0l.07-.87a2.88,2.88,0,0,1,.82-1.48c.43-.29.71.28,1,.48.06,0,0,.07.06.1s-.1.14-.17.16-.34-.15-.47-.28c-.12.12-.16.3-.29.4h0a1.07,1.07,0,0,1,.34.52.6.6,0,0,1-.27.46,3.67,3.67,0,0,1-.31-.67v0c-.26.07-.32.36-.37.6s-.15.32-.11.55h3.33a1.72,1.72,0,0,0,1.05-.32,4.83,4.83,0,0,0,3.49-.81,7.66,7.66,0,0,0,1.37-1.42,5.28,5.28,0,0,0,.76-1.42,8.1,8.1,0,0,0,.3-1A9.77,9.77,0,0,0,89.46,49.79Z" transform="translate(-10 -39.83)"/><path id="path159" class="cls-3" d="M68,58.45c.17-.12.47-.14.51-.42a.74.74,0,0,0-.22-.14l-.18.06a1.5,1.5,0,0,1,.11-.36l.62-.2a4.1,4.1,0,0,0-.15,1,3.33,3.33,0,0,0,.37,1.38h-.67c-.07-.44-.53-.76-.39-1.27Z" transform="translate(-10 -39.83)"/><path id="path161" class="cls-3" d="M69.45,57.89h0l.44.41H70c0,.47,0,.94-.06,1.43h-.49a5.78,5.78,0,0,1-.24-1.44c.1-.12.15-.29.25-.39Z" transform="translate(-10 -39.83)"/><path id="path163" class="cls-3" d="M70.45,58.34c.09-.12.12-.31.3-.33a.48.48,0,0,1,.34.11c.17.21,0,.47-.06.68a6.55,6.55,0,0,1-.27.92h-.48l.17-1.38Z" transform="translate(-10 -39.83)"/><path id="path165" class="cls-3" d="M77.54,58.2c.1.13.13.31.29.42a.9.9,0,0,0,.09-.72l-.13-.13a5.34,5.34,0,0,1,.53-.09,1.94,1.94,0,0,0-.19.76c0,.42.08.84.12,1.28h-.51a2.8,2.8,0,0,1-.37-1.28c.06-.07.1-.17.17-.24Z" transform="translate(-10 -39.83)"/><path id="path167" class="cls-2" d="M79.75,49.23c0,.12-.09.25,0,.36.11-.12.3-.12.45-.18a3.83,3.83,0,0,1,1.21.19,5.11,5.11,0,0,0-.28-.46c-.21-.06-.54.09-.57-.22-.14-.11-.34,0-.48,0a1,1,0,0,0-.32.34Z" transform="translate(-10 -39.83)"/><path id="path169" class="cls-2" d="M65.47,45.2Z" transform="translate(-10 -39.83)"/><path id="path171" class="cls-2" d="M67.17,49.35l.28-.27s0,0,.06,0l0,.52a.72.72,0,0,0,.48.18c0-.14.12-.24.19-.36s0-.25.12-.31l0,0a7.3,7.3,0,0,1,.14.7,1.09,1.09,0,0,0,.55-.13,1.93,1.93,0,0,1,.08-.48c0-.06-.06-.16.06-.16s.18.29.25.43a1.82,1.82,0,0,0,.44-1c-.08-.11-.2-.11-.3-.18a3.54,3.54,0,0,0-2.58.09A1.21,1.21,0,0,0,67.17,49.35Z" transform="translate(-10 -39.83)"/><path id="path173" class="cls-2" d="M59.74,58.11a7.31,7.31,0,0,0,0,1,.58.58,0,0,0,.35.27l0-.25c0-.33-.12-.68.07-1l.37.17a.79.79,0,0,0-.32-.85Z" transform="translate(-10 -39.83)"/><path id="path175" class="cls-2" d="M60.9,57.6a2.81,2.81,0,0,0-.1,1.79,2.51,2.51,0,0,0,.37-.27,1.88,1.88,0,0,1,.18-1.27.78.78,0,0,1,.47.5.84.84,0,0,0,.15-.73c0-.21-.23-.15-.34-.24s0-.37.21-.47l-.56.05A3,3,0,0,0,60.9,57.6Z" transform="translate(-10 -39.83)"/><path id="path177" class="cls-2" d="M62.05,59.22s0,.12.05.12c.06-.4.39-.64.56-1,.09-.11.08-.27.21-.36s.31.13.49.14,0,.08,0,.12a4.78,4.78,0,0,0-.14.91h0a4.73,4.73,0,0,0,.59-.84l0-.25c0-.32-.3-.52-.53-.66l.19-.25-.27-.1a1.29,1.29,0,0,0-.85.42,4,4,0,0,0-.35,1.75Z" transform="translate(-10 -39.83)"/><path id="path179" class="cls-2" d="M63.31,56.44c.12,0,.21,0,.31,0a2.77,2.77,0,0,1,1.21.69l.39,1,.19-.61-.13-.32c-.11-.23-.39-.21-.6-.22s0-.2,0-.29c.1-.33-.31-.31-.48-.45,0-.2-.23-.13-.36-.14l0-.06a.09.09,0,0,0-.13,0,.06.06,0,0,1,0-.05l-.1,0a.59.59,0,0,0-.26.47Z" transform="translate(-10 -39.83)"/><path id="path181" class="cls-2" d="M63.58,55.37a.34.34,0,0,0,.1.16c.21-.06.41-.2.65-.12a3.57,3.57,0,0,0,1,.72l.13,0c.09,0,.18,0,.23.12s-.07.2-.12.3c.21.16.12.43.26.62l.33-.44c-.08-.2,0-.53-.3-.56a.28.28,0,0,1-.17-.26c-.19-.18-.44-.27-.65-.45s-.26-.33-.47-.38a1.5,1.5,0,0,0-.48-.15C63.81,54.85,63.79,55.23,63.58,55.37Z" transform="translate(-10 -39.83)"/><path id="path183" class="cls-2" d="M64,54.45l.06.09c.23,0,.44-.12.67-.11s.36.09.51.17a2,2,0,0,0,.44.48c.38.06.59.47.72.77V55.7a1,1,0,0,0-.07-.62,4,4,0,0,0-.34-.23.16.16,0,0,1,0-.14,2.94,2.94,0,0,0-.55-.37c-.24-.36-.72-.26-1.1-.36l-.36.47Z" transform="translate(-10 -39.83)"/><path id="path185" class="cls-2" d="M64,51a3.74,3.74,0,0,1,.12.48c.14-.28.39-.42.62-.66a1,1,0,0,0-.44-.15v0C64.22,50.78,64.06,50.88,64,51Z" transform="translate(-10 -39.83)"/><path id="path187" class="cls-2" d="M64.87,52.56l.21-.21a1.3,1.3,0,0,0,.42-.74.58.58,0,0,0-.48,0,3.85,3.85,0,0,0-.15.92Z" transform="translate(-10 -39.83)"/><path id="path189" class="cls-2" d="M65,53.23a1.33,1.33,0,0,0,.89-.1l.27-.84c-.09,0-.17,0-.24,0A2.27,2.27,0,0,1,65,53.23Z" transform="translate(-10 -39.83)"/><path id="path191" class="cls-2" d="M65.12,50.24A1.87,1.87,0,0,0,66,51c-.05-.39-.38-.66-.56-1v-.11A1.67,1.67,0,0,0,65,49.6a2.3,2.3,0,0,0,.09.64Z" transform="translate(-10 -39.83)"/><path id="path193" class="cls-2" d="M66.26,53.26a1.69,1.69,0,0,0,.74-.07c.33-.07.51-.44.63-.73h-.42l-.44.45a2.89,2.89,0,0,0-.51.35Z" transform="translate(-10 -39.83)"/><path id="path195" class="cls-2" d="M66.21,49.82a2.67,2.67,0,0,0,.43,1l.06-.7Z" transform="translate(-10 -39.83)"/><path id="path197" class="cls-2" d="M67.74,51.64a3.22,3.22,0,0,0-.1-.75c-.14-.08-.33-.08-.49-.17A1.48,1.48,0,0,0,67.74,51.64Z" transform="translate(-10 -39.83)"/><path id="path199" class="cls-2" d="M67.32,54a5.2,5.2,0,0,0,.85-.34,2.07,2.07,0,0,0,.48-.76c-.23.05-.4,0-.61.08a1.51,1.51,0,0,1-.43.63C67.56,53.77,67.4,53.88,67.32,54Z" transform="translate(-10 -39.83)"/><path id="path201" class="cls-2" d="M67.77,54.59l.36.45a.74.74,0,0,0,.58-.07l-.12-.42A1.74,1.74,0,0,1,67.77,54.59Z" transform="translate(-10 -39.83)"/><path id="path203" class="cls-2" d="M68.36,51.28l.13.62a1.22,1.22,0,0,0,.39-1.06,1.77,1.77,0,0,1-.52.44Z" transform="translate(-10 -39.83)"/><path id="path205" class="cls-2" d="M69.28,52.36a.43.43,0,0,0,.07.25c.37.13.4.57.74.74a.83.83,0,0,0,.67-.11c-.15-.17-.31-.28-.44-.44s-.2-.1-.19-.23l-.85-.21Z" transform="translate(-10 -39.83)"/><path id="path207" class="cls-2" d="M69.56,54.56a1,1,0,0,0,.6.32c0-.05,0,0,0,0l-.27-.62a3.1,3.1,0,0,1-.42,0A1.13,1.13,0,0,0,69.56,54.56Z" transform="translate(-10 -39.83)"/><path id="path209" class="cls-2" d="M70.06,51.69a3.37,3.37,0,0,1-.22-1c-.14.17-.29.28-.42.45C69.36,51.48,69.85,51.56,70.06,51.69Z" transform="translate(-10 -39.83)"/><path id="path211" class="cls-2" d="M70.63,51.37c.16.22.54.14.74.08-.1-.17-.42-.27-.48-.44a3.83,3.83,0,0,0-.2-.93A1.34,1.34,0,0,0,70.63,51.37Z" transform="translate(-10 -39.83)"/><path id="path213" class="cls-2" d="M70.92,52.36a1.93,1.93,0,0,0,1.59.6s.12,0,.13-.09c-.19-.12-.4-.21-.6-.33l-.22-.33h-.1a3.43,3.43,0,0,1-.8.15Z" transform="translate(-10 -39.83)"/><path id="path215" class="cls-2" d="M70.93,56.14h0a2.42,2.42,0,0,1,.94-.38c.09,0,0,.13.11.16s.44-.06.65-.13a1.4,1.4,0,0,1,.65.12c.16.21.46.19.67.33l0-.33a2.11,2.11,0,0,0-1.73-.54V55.3a1.23,1.23,0,0,0-.46.1,2.55,2.55,0,0,0-.58.17A5.37,5.37,0,0,0,70.93,56.14Z" transform="translate(-10 -39.83)"/><path id="path217" class="cls-2" d="M71.31,50.41a.78.78,0,0,0,.76.36c-.15-.15-.34-.32-.35-.54,0-.42-.41-.45-.63-.66A2.54,2.54,0,0,0,71.31,50.41Z" transform="translate(-10 -39.83)"/><path id="path219" class="cls-2" d="M71.27,57h0c.25-.15.61,0,.85-.2s.15.13.25.17.25.56.57.46c.39.2.29.68.3,1l.37-.22c0-.18.06-.4,0-.56s-.33-.23-.45-.39c.14-.24-.18-.35-.25-.52l0,0,.49.06a.68.68,0,0,1,.28.47c.39.06.48.51.62.78.08-.19.11-.4.19-.58s-.2-.16-.3-.22a.78.78,0,0,0-.34-.61,5,5,0,0,0-1.29-.34l-.38.12c-.21,0-.45,0-.61.13S71.32,56.81,71.27,57Z" transform="translate(-10 -39.83)"/><path id="path221" class="cls-2" d="M71.51,55.05l.09,0,.58-.26c.31-.09.56.26.82,0,.1-.06.18,0,.26.09.11.21.37.19.57.24-.1-.26-.22-.63-.56-.67a2,2,0,0,1-.42-.13c-.37-.4-.6.33-1,.15A1.07,1.07,0,0,0,71.51,55.05Z" transform="translate(-10 -39.83)"/><path id="path223" class="cls-2" d="M71.6,57.33c.14.12.3.34.54.31.29.13.17.52.32.71l.17-.15h0l0,0h0a1,1,0,0,0-.1-.56c-.11-.07-.23,0-.33-.06s-.11-.22-.21-.32-.18,0-.26,0Z" transform="translate(-10 -39.83)"/><path id="path225" class="cls-2" d="M72.18,51.64a2.68,2.68,0,0,0,.7.59,1.15,1.15,0,0,0,.66.07c-.19-.17-.38-.36-.55-.54a2.19,2.19,0,0,0-.16-.3,1.15,1.15,0,0,0-.65.18Z" transform="translate(-10 -39.83)"/><path id="path227" class="cls-2" d="M72.44,50c.21.26.54.15.85.16v0l-.46-.39A1.11,1.11,0,0,0,72.44,50Z" transform="translate(-10 -39.83)"/><path id="path229" class="cls-2" d="M63.83,45.57l.27.84c0-.48.21-.88.17-1.36l.19-.3-.42.13A2.07,2.07,0,0,0,63.83,45.57Z" transform="translate(-10 -39.83)"/><path id="path231" class="cls-2" d="M64,44.11l.37-.21v-.54a1.85,1.85,0,0,0-.37.37Z" transform="translate(-10 -39.83)"/><path id="path233" class="cls-2" d="M71.6,45a.53.53,0,0,1-.33.17,1.59,1.59,0,0,0,.13-1.26c.1,0,.21-.06.31-.11v0l.25-.22c.35-.23.21-.67.33-1a3,3,0,0,0-.46-.8h0c-.19-.24-.54-.21-.8-.33s-.6.12-.86.28c-.11,0,0,.15-.15.15a4,4,0,0,0-.19.55,1.9,1.9,0,0,0-1.33.25,2,2,0,0,0-.66-.25c-.17,0-.37,0-.48-.06s-.22-.57-.52-.62c-.11,0-.13-.16-.13-.26-.2,0-.38-.12-.57-.16s-.55.08-.77.22a1.54,1.54,0,0,0-.3.11,4.92,4.92,0,0,0-.43.82,1.74,1.74,0,0,0,.26.65,1.32,1.32,0,0,0,.73.66,2.66,2.66,0,0,0,0,1.48h0s-.08,0-.13,0h0a2,2,0,0,0,.62,1.17c.12.05.09.19.14.28a.22.22,0,0,1,0,.17,3.57,3.57,0,0,0-2,.48c-.15.08-.09.28-.1.42a3.58,3.58,0,0,1,1.35-.56,2,2,0,0,1,.65,0l0,.4a5.74,5.74,0,0,0-1.63.92,1.59,1.59,0,0,0,0,.44l.43-.35a5.23,5.23,0,0,1,1.32-.75,1.37,1.37,0,0,0,.43.4,2.84,2.84,0,0,1,.91-.4c.18-.1.46,0,.57-.21l.08-.42s0,0,0,0a.62.62,0,0,1-.34-.6.55.55,0,0,1-.24.07c-.08,0-.15,0-.18-.11s-.06-.23,0-.3a1.8,1.8,0,0,1,1.09-.17c.28,0,.69,0,.79.37,0,.1,0,.21-.1.28a.35.35,0,0,1-.31-.05.76.76,0,0,1-.45.56l0,.27c0,.12,0,.32.24.28a4,4,0,0,1,1.22.58,2.24,2.24,0,0,0,.34-.42,5.79,5.79,0,0,1,1.85,1.24l0-.4a6.29,6.29,0,0,0-1.77-1.08,2.18,2.18,0,0,0,0-.39,4.82,4.82,0,0,1,2.06.63v-.33A4.77,4.77,0,0,0,70.5,47a.22.22,0,0,1,0-.14,1,1,0,0,0,.73-.78c.19-.22.46-.46.4-.79a.2.2,0,0,0,0-.09.93.93,0,0,0,0-.24Z" transform="translate(-10 -39.83)"/><path id="path235" class="cls-2" d="M72.25,46.15l.39-.12,0-.21c.11-.31-.12-.54-.23-.79Z" transform="translate(-10 -39.83)"/><path id="path237" class="cls-2" d="M73.21,47.63c.18.2.37.52.69.42a2.24,2.24,0,0,0-.14-.36c-.09-.1-.12-.38-.28-.28-.12-.08-.16-.22-.24-.33a3.38,3.38,0,0,0,0,.55Z" transform="translate(-10 -39.83)"/><path id="path239" class="cls-2" d="M73.28,49c.07.1.09.23.15.31a.75.75,0,0,0,.47.06c.14,0,.23.12.35,0-.16-.1-.26-.28-.42-.42S73.47,49,73.28,49Z" transform="translate(-10 -39.83)"/><path id="path241" class="cls-2" d="M73.53,51.17a1.78,1.78,0,0,0,1.17.31s.12,0,.13-.08c-.27-.09-.54-.36-.83-.42-.16-.24-.36.07-.55.05A.37.37,0,0,0,73.53,51.17Z" transform="translate(-10 -39.83)"/><path id="path243" class="cls-2" d="M74.5,55.29l.06.15c.07.48.38.92.21,1.47.15.1.18.26.28.39h0a3.19,3.19,0,0,0,0-1.23c0-.37-.33-.59-.55-.78Z" transform="translate(-10 -39.83)"/><path id="path245" class="cls-2" d="M74.58,50.52a1,1,0,0,0,.91.11A3.84,3.84,0,0,1,75,50.3Z" transform="translate(-10 -39.83)"/><path id="path247" class="cls-2" d="M75.73,51.94a.53.53,0,0,0,.25.46,1.07,1.07,0,0,0,.14-.35.85.85,0,0,0-.33-.51,1.34,1.34,0,0,0-.06.4Z" transform="translate(-10 -39.83)"/><path id="path249" class="cls-2" d="M75.75,54.08c0,.22.21.24.31.36s-.06.18-.06.28a1.23,1.23,0,0,1,.28.79c.06-.28.17-.55.21-.85s-.35-.16-.3-.38a1.05,1.05,0,0,0-.08-.68s-.07-.1-.1-.08C75.94,53.71,75.73,53.85,75.75,54.08Z" transform="translate(-10 -39.83)"/><path id="path251" class="cls-2" d="M76.39,53l.24.48c.11,0,.18-.13.27-.19s-.11-.32-.16-.49,0-.26-.08-.35-.13-.1-.2-.08l-.07.63Z" transform="translate(-10 -39.83)"/><path id="path253" class="cls-2" d="M76.7,51.72a1.74,1.74,0,0,1,.52.49c.16.47.42.91.62,1.37s.12.61.21.93c0,.09,0,.24.14.23,0-.35.11-.7.11-1.06a1.15,1.15,0,0,0-.42-.31v0c0-.08.09-.18.18-.16s.16-.09.11-.17c-.25-.25-.23-.67-.62-.75a.34.34,0,0,1-.18-.33,1.07,1.07,0,0,0-.67-.21Z" transform="translate(-10 -39.83)"/><path id="path255" class="cls-2" d="M76.93,54.25c.23.23.15.55.13.83s.19.08.26.17a1,1,0,0,1,0,.76,5.5,5.5,0,0,0,.36-.57c0-.08.1-.12.09-.21s-.12-.08-.19-.09-.12-.06-.1-.12a1.2,1.2,0,0,0,0-.75c-.06-.19,0-.46-.07-.62C77.26,53.86,76.81,53.9,76.93,54.25Z" transform="translate(-10 -39.83)"/><path id="path257" class="cls-2" d="M77.36,50.94c.42.42.72.84,1.17,1.25a4.52,4.52,0,0,0,0-.53,1.42,1.42,0,0,0-.29-.31c-.34,0-.51-.48-.86-.41Z" transform="translate(-10 -39.83)"/><path id="path259" class="cls-2" d="M78.44,53.16a.61.61,0,0,1,0,.12,8.25,8.25,0,0,1,.49.93c0-.34.19-.77-.12-1,0-.11-.17-.08-.26-.07l-.16.06Z" transform="translate(-10 -39.83)"/><path id="path261" class="cls-2" d="M79.57,56.57c.14.07.3,0,.42-.12a.37.37,0,0,1,.3.1c0,.08,0,.15,0,.21a2.76,2.76,0,0,1,.81.35l.08-.08c0-.2-.15-.34-.29-.46s-.24,0-.31-.11a.59.59,0,0,0,0-.27.68.68,0,0,1-.37-.12c-.08,0-.16-.09-.21,0-.25.16-.26.39-.48.5Z" transform="translate(-10 -39.83)"/><path id="path263" class="cls-2" d="M79.89,50.7a.82.82,0,0,0,.34-.16c.3-.29.76-.09,1.12-.1a2.12,2.12,0,0,0-.25-.36,1,1,0,0,0-.4-.11c-.32-.19-.53.12-.77.27a.58.58,0,0,0,0,.46Z" transform="translate(-10 -39.83)"/><path id="path265" class="cls-2" d="M79.9,51.66s0,0,0,0,0,.13.06.15l.34-.22c.31,0,.5-.3.81-.3a4.5,4.5,0,0,1,1.47.45A1.06,1.06,0,0,0,82,51a.43.43,0,0,0-.38.11c-.31.2-.14-.28-.36-.29a2.47,2.47,0,0,1-.9.15c-.19.07-.32.24-.53.22A1.56,1.56,0,0,0,79.9,51.66Z" transform="translate(-10 -39.83)"/><path id="path267" class="cls-2" d="M80.13,52.71a.59.59,0,0,0,.39.1l.41-.16c0-.08-.12-.09-.09-.18s.27,0,.41-.08.4-.22.6-.08c0,0,0,0,0,.08s0,.23.15.28.45.26.68.16a4.88,4.88,0,0,0-.12-.55A3.5,3.5,0,0,1,82,52a.37.37,0,0,1-.28.12c-.36-.09-.78-.31-1.15-.07-.13.15-.36.11-.54.17A1.27,1.27,0,0,0,80.13,52.71Z" transform="translate(-10 -39.83)"/><path id="path269" class="cls-2" d="M80.27,55.48c0,.08-.11.21,0,.24.3,0,.69-.14.92.09.08.07,0,.19,0,.27l.39.33a3.84,3.84,0,0,0,.11-.59.6.6,0,0,0-.24-.38c-.26,0-.41-.3-.69-.27s-.26.1-.42.1a.86.86,0,0,1-.13.21Z" transform="translate(-10 -39.83)"/><path id="path271" class="cls-2" d="M80.39,53.27c.06.12.13.33.24.34a1.3,1.3,0,0,1,1-.06c.1,0,.1.13.08.21.15.09.35.16.52.26l0-.27c0-.3-.39-.34-.42-.63a1.85,1.85,0,0,0-1-.06.7.7,0,0,1-.39.11.14.14,0,0,0,0,.1Z" transform="translate(-10 -39.83)"/><path id="path273" class="cls-2" d="M80.47,54.78c.18-.05.3-.25.5-.27a.89.89,0,0,1,.75.39c.11.07.09.26.23.26a5,5,0,0,1,0-.67c-.2-.34-.68-.08-.86-.46l-.34,0c-.25.06-.18.35-.21.55,0,0-.1.11-.09.17Z" transform="translate(-10 -39.83)"/><path id="path275" class="cls-2" d="M82.18,56.83c.15.29.47.51.5.84a1.75,1.75,0,0,0,.18-.29c0-.09-.11-.09-.16-.16a.55.55,0,0,1,0-.34,1,1,0,0,0-.37-.44l-.2.39Z" transform="translate(-10 -39.83)"/><path id="path277" class="cls-2" d="M82.76,56.09l.33.45a1.26,1.26,0,0,0,.09-.84c0-.05-.09-.13-.18-.1S82.86,55.94,82.76,56.09Z" transform="translate(-10 -39.83)"/><path id="path279" class="cls-2" d="M81.39,43.31a.75.75,0,0,0,.38.13.47.47,0,0,1,.35-.06c.17.11.38,0,.58,0a1.79,1.79,0,0,0-.58-.37C81.85,43.06,81.64,43.25,81.39,43.31Z" transform="translate(-10 -39.83)"/><path id="path281" class="cls-2" d="M83.21,43.76c.24,0,.43.24.6.42a.84.84,0,0,1,.5.33l-.08-.25a1.62,1.62,0,0,0-.37-.63A2,2,0,0,0,83.21,43.76Z" transform="translate(-10 -39.83)"/><path id="path283" class="cls-3" d="M65.78,41.71h.13c.37.18,1,.28,1,.81a2.75,2.75,0,0,0-1,.64c-.22-.23-.67-.1-.75-.51S65.34,41.81,65.78,41.71Z" transform="translate(-10 -39.83)"/><path id="path285" class="cls-3" d="M66.12,44.08c.42,0,.84,0,1.28,0a.47.47,0,0,1,.26.24c0,.51-.16,1-.19,1.5a.76.76,0,0,0-.43.45,4.59,4.59,0,0,0-.5.24.53.53,0,0,1,.07-.53c.18-.26.65-.2.62-.61.12-.2,0-.46,0-.65s-.09,0-.16,0a.66.66,0,0,1-.44,0c-.1-.1-.22-.19-.24-.33a.79.79,0,0,1-.35-.3Z" transform="translate(-10 -39.83)"/><path id="path287" class="cls-3" d="M66.64,47.12c.2,0,.41-.07.59,0,0,.06-.13.09-.21.11l-.31.14C66.58,47.38,66.64,47.19,66.64,47.12Z" transform="translate(-10 -39.83)"/><path id="path289" class="cls-3" d="M67.46,43.23a1.1,1.1,0,0,1,.63-.14,3.29,3.29,0,0,0-.38.54h-.65A.84.84,0,0,1,67.46,43.23Z" transform="translate(-10 -39.83)"/><path id="path291" class="cls-3" d="M69.33,43.07c.27,0,.26.3.5.31,0,.06.1.11.08.19a4.18,4.18,0,0,1-.51.06c-.21-.12-.08-.48-.41-.45,0,0-.06-.09,0-.1A.7.7,0,0,1,69.33,43.07Z" transform="translate(-10 -39.83)"/><path id="path293" class="cls-3" d="M69.17,44.32a.6.6,0,0,1,.46-.21l1.21,0s0,.09,0,.15-.18.08-.24.15-.15.19-.26.28-.43.08-.63.06a.7.7,0,0,1-.18-.2l-.06.06a7.35,7.35,0,0,1,.1.82l.29.18c0,.44.51.31.73.56a1.76,1.76,0,0,1-.27.42,1.51,1.51,0,0,0-.6-.37c0-.25-.29-.4-.44-.53,0-.45,0-.93-.12-1.37Z" transform="translate(-10 -39.83)"/><path id="path295" class="cls-3" d="M69.61,47.19h.56l-.06.3-.57-.24s0-.06.07-.06Z" transform="translate(-10 -39.83)"/><path id="path297" class="cls-3" d="M70.61,41.91l.42-.13a3.69,3.69,0,0,1,.69.41,1.66,1.66,0,0,1,.07,1.1c-.13.15-.4,0-.51.22h0a2.09,2.09,0,0,0-1-1,.85.85,0,0,1,.35-.57Z" transform="translate(-10 -39.83)"/></g></g></svg>