<svg xmlns="http://www.w3.org/2000/svg" viewBox="0 0 80 10.52"><defs><style>.cls-1{fill:#00205c;}.cls-1,.cls-2,.cls-3{fill-rule:evenodd;}.cls-2{fill:#fff;}.cls-3{fill:#ff671d;}</style></defs><title>ING Direct</title><g id="Layer_2" data-name="Layer 2"><g id="ING_Direct" data-name="ING Direct"><path class="cls-1" d="M18.56,8V9.71a5.15,5.15,0,0,1-2.79.76,3.44,3.44,0,0,1-3.65-3.41A3.53,3.53,0,0,1,15.74,3.6a4.38,4.38,0,0,1,1.36.19,4.5,4.5,0,0,0,.78.19c.22,0,.35-.25.38-.33h.13a14,14,0,0,0,.17,2.09l-.17,0a2.64,2.64,0,0,0-2.57-1.73c-1.54,0-2.35,1.38-2.38,2.89,0,1.68.92,3,2.44,3,.54,0,1.24-.05,1.51-.43V8c0-.82-.43-1-.75-1v-.1h2.7V7c-.32,0-.78.19-.78,1ZM10.25,5.57v4.85H9.93L5.36,5a1.3,1.3,0,0,1,0,.43V8.82c0,1.14.27,1.46.89,1.46v.14H4v-.14c.6,0,.87-.32.87-1.46V4.65a1,1,0,0,0-1.06-.86V3.65h2L9.77,8.33a1.19,1.19,0,0,1-.06-.46V5.57c0-.83,0-1.78-.86-1.78V3.65h2.24v.14c-.81,0-.84,1-.84,1.78ZM1.92,4.76V9.14c0,.38-.08,1.14.76,1.14v.14H0v-.14c.84,0,.7-.76.75-1.14V4.76c0-.81-.46-1-.78-1V3.65H2.73v.14c-.35,0-.81.16-.81,1Z"/><path class="cls-1" d="M42.1,10.46H39.05v-.13a1.05,1.05,0,0,0,.67-.27c.19-.19.25-.38.25-1V4.78a1,1,0,0,0-.27-.73,1.2,1.2,0,0,0-.65-.19V3.7h2.84a3.73,3.73,0,0,1,3,.94,3.36,3.36,0,0,1,1,2.3c0,2.2-1.44,3.52-3.74,3.52ZM42,4.18a4.56,4.56,0,0,0-.89.09V9.62c0,.38.49.35.89.35,1.68,0,2.46-1.21,2.46-2.89s-.92-2.9-2.46-2.9Z"/><path class="cls-1" d="M49.24,4.81V9.19c0,.38-.08,1.14.76,1.14v.13H47.35v-.13c.84,0,.7-.76.75-1.14V4.81c0-.82-.46-1-.78-1V3.7h2.73v.13c-.35,0-.81.16-.81,1Z"/><path class="cls-1" d="M56.22,10.46,54.29,7.27h-.64V9.08c0,.49,0,1.22.75,1.25v.13H51.78v-.13c.81,0,.73-.76.73-1.22V4.81c0-.82-.46-1-.81-1V3.7l3,0c1.57,0,2.28.6,2.28,1.71a1.66,1.66,0,0,1-1.44,1.73l1.68,2.65a1.07,1.07,0,0,0,.84.54v.16ZM54.35,4.1a5.36,5.36,0,0,0-.7.06V6.81a2.44,2.44,0,0,0,.62.05A1.31,1.31,0,0,0,55.7,5.48,1.21,1.21,0,0,0,54.35,4.1Z"/><path class="cls-1" d="M64.33,10.46H58.92V10.3a.9.9,0,0,0,1-1V5c0-.51,0-1.19-.89-1.19V3.7h5.2c0,.29,0,1.16.08,1.68h-.17c-.16-1-1-1.2-1.94-1.2A8.74,8.74,0,0,0,61,4.24V6.67h1.52a1,1,0,0,0,1-.89h.17a13.71,13.71,0,0,0,0,2.22h-.17a.89.89,0,0,0-1-.84H61V9.3c0,.54,0,.65.81.65h.76c1.08,0,1.6-.25,2-1.14l.16.08a10.68,10.68,0,0,0-.43,1.57Z"/><path class="cls-1" d="M68.88,10.52a3.07,3.07,0,0,1-3.14-3.33A3.31,3.31,0,0,1,69,3.64a4.25,4.25,0,0,1,1.4.27,1.42,1.42,0,0,0,.33.11c.11,0,.22-.13.3-.32l.13,0a19.74,19.74,0,0,0,.22,2.2s-.11,0-.16,0A2.23,2.23,0,0,0,69.2,4.1c-1.49,0-2.11,1.38-2.11,2.93s.65,3,2.16,3a1.92,1.92,0,0,0,2.11-1.9l.22.06a2.48,2.48,0,0,1-2.7,2.33Z"/><path class="cls-1" d="M77.72,5.7A1.61,1.61,0,0,0,76,4.18h-.32V9c0,.75,0,1.29.73,1.4v.11H73.74v-.13c.89-.06.81-.71.81-1.36V4.18H74.2c-1,0-1.49.52-1.7,1.52l-.19,0c0-.16.16-2,.16-2h5.28s.13,1.78.16,2l-.19,0Z"/><path class="cls-2" d="M27.11,10.43l.2-.27a.48.48,0,0,0,.56,0,3.23,3.23,0,0,0-.42-.2c0-.21.1-.49-.13-.61a.43.43,0,0,0-.48.07l-.06.07a1.17,1.17,0,0,0-.3-.19,2.3,2.3,0,0,1,0-.26c.25-.13.48.07.72.05a.67.67,0,0,0-.6-.32.39.39,0,0,0-.42.19.78.78,0,0,0-.59.11l-.35.63a.92.92,0,0,0,.2.75Z"/><path class="cls-2" d="M31.59,10.44A4,4,0,0,1,31.7,10c0-.05.08-.12.14-.12a2.53,2.53,0,0,0,.16.33.28.28,0,0,0,.16-.24A.52.52,0,0,0,32,9.67l.13-.2c.08.06.15.17.26.13s.11,0,.07-.12-.3-.41-.54-.29a1.67,1.67,0,0,0-.49,1.25c-.1,0-.27-.65-.27-.65s.1.1.16.1.16-.17.07-.26-.21-.16-.1-.25a.34.34,0,0,0,.07-.11.18.18,0,0,0,.21.07c0-.05,0-.11,0-.17s.24.09.29-.05A.6.6,0,0,0,31.23,9c-.08.23-.32.14-.5.13l-.07-.06c-.22.33-.55.72-.39,1.15l.14.22Z"/><path class="cls-2" d="M33.45,1.44l-.1.13a.61.61,0,0,0,.42.19c0-.09,0-.16-.09-.23l-.23-.09Z"/><path class="cls-2" d="M32.59,2.5a1.45,1.45,0,0,1,.41.1c0-.07,0-.12,0-.18s.29-.06.44-.07,0-.09-.09-.12a4.17,4.17,0,0,0-.49-.08c0,.05,0,.11,0,.18s-.26-.06-.39,0l.15.2Z"/><path class="cls-3" d="M25.76.27l.32-.13a1.71,1.71,0,0,0-.1.5.64.64,0,0,0,.25-.36l.11-.16a.63.63,0,0,1,.43,0c-.05,0-.08,0-.09.09V.33c.21.06.32-.25.54-.07l.12.06a.71.71,0,0,0-.27.18h0a1.38,1.38,0,0,0,.5-.07,1.74,1.74,0,0,1,.63,1,.43.43,0,0,0-.13-.05.26.26,0,0,0,0,.17s.1,0,.15.06c.17.36.65.44.72.84s.14.58.21.87c0-.06-.19-.06-.27-.11a.38.38,0,0,0,.21.31l.21.08a2.23,2.23,0,0,1,.15.52c-.06,0-.16-.13-.23-.05a.58.58,0,0,0,.26.35l0,.38a1.59,1.59,0,0,0,1.55.32A1.09,1.09,0,0,0,31.49,5a.54.54,0,0,1,.31-.54c.56-.23,1.05.22,1.42.61a5,5,0,0,1,.89,4.32,1.32,1.32,0,0,0,1,0,3,3,0,0,0,1.42-2.87,4.17,4.17,0,0,0-2.24-3.57c-.47,0-1,.2-1.41-.12a1,1,0,0,1-.32-.27,1.45,1.45,0,0,1,.41.1c0-.07,0-.12,0-.18a3.11,3.11,0,0,1,.44-.07c0-.05,0-.09-.09-.12a4.17,4.17,0,0,0-.49-.08c0,.05,0,.11,0,.18s-.26-.07-.39,0c-.14-.21-.21-.48-.46-.61a2.54,2.54,0,0,1,1.47-.26l-.1.14a.6.6,0,0,0,.42.18c0-.09,0-.16-.09-.23.39.12.5.54.77.81.39.46.92.61,1.28,1.07a5,5,0,0,1,1,5.25,2.94,2.94,0,0,1-2,1.61,2.6,2.6,0,0,1-.88,0,1,1,0,0,1-.63.16H31.59A3.57,3.57,0,0,1,31.7,10c0-.05.08-.12.14-.12a2.53,2.53,0,0,0,.16.33.28.28,0,0,0,.16-.24A.52.52,0,0,0,32,9.67l.13-.2c.08.06.15.17.26.13s.11,0,.07-.12-.3-.41-.54-.29a1.66,1.66,0,0,0-.49,1.25c-.1,0-.19,0-.28,0V9.79c.07,0,.1.1.16.1s.16-.17.07-.26-.21-.16-.1-.26a.23.23,0,0,0,.07-.1.19.19,0,0,0,.22.06s0-.1,0-.16.24.09.29-.05A.6.6,0,0,0,31.23,9c-.08.23-.32.14-.5.13l-.07-.06c-.22.33-.54.72-.39,1.15l.14.22H27.09l.21-.27a.48.48,0,0,0,.55,0,2.71,2.71,0,0,0-.42-.2c0-.21.11-.49-.12-.61a.43.43,0,0,0-.48.07l-.07.07a1,1,0,0,0-.3-.19,1.36,1.36,0,0,1,0-.27c.25-.12.47.07.71.06a.68.68,0,0,0-.59-.33.4.4,0,0,0-.42.2.82.82,0,0,0-.59.1l-.36.63a.91.91,0,0,0,.21.76H21.13A.93.93,0,0,1,21,9.67c0-.19.28-.26.21-.46a.64.64,0,0,1,.31-.36.69.69,0,0,1,.4,0,.74.74,0,0,1,.81-.16l.15.07a8.69,8.69,0,0,0,.29-.86L23.5,7A10.69,10.69,0,0,1,23,5.31c0-.09.12-.11.14-.19s.11-.22.08-.33A.47.47,0,0,0,23,5c0-.19-.11-.38,0-.55s.11-.11.18-.15.05-.22,0-.34a.83.83,0,0,0-.24.22c.07-.2-.16-.48.16-.59A4.73,4.73,0,0,1,23.23,2l.2-.3a1.72,1.72,0,0,1,0-.39l.26-.21s-.1,0-.15-.05A1.4,1.4,0,0,1,24.22.3a1.6,1.6,0,0,0,.39.11h.15c0-.08-.14-.19-.24-.19A1.53,1.53,0,0,1,25,.09a2,2,0,0,0,.3.42.83.83,0,0,0,0-.35,1.12,1.12,0,0,0-.1-.16,4.47,4.47,0,0,1,.59.27Z"/><path class="cls-2" d="M24.91.82c0,.12.1.14.17.18s.11.31.29.31a.89.89,0,0,1,.5.13,1,1,0,0,1,.69-.13A.67.67,0,0,1,27,.79c.21-.05.36.09.54.11a1.09,1.09,0,0,1,.31.51.72.72,0,0,1-.35.66l-.11,0a.91.91,0,0,1-.07.65.17.17,0,0,0,.16-.06c0,.09,0,.18,0,.29s-.27.3-.3.49a.45.45,0,0,1-.28.2.06.06,0,0,0,0,.09,2.22,2.22,0,0,1,1.08.3v.17a2.63,2.63,0,0,0-1.07-.33,1.38,1.38,0,0,0,0,.2,3.59,3.59,0,0,1,.9.57.34.34,0,0,1,0,.2,3.46,3.46,0,0,0-1-.63c-.1.08-.17.33-.31.14A1.3,1.3,0,0,0,26,4.14a.47.47,0,0,1-.07-.27.4.4,0,0,0,.23-.29c.07,0,.2.06.23-.06a.2.2,0,0,0-.12-.21,1.17,1.17,0,0,0-.9.06c0,.06,0,.17.07.19a.27.27,0,0,0,.15,0,.36.36,0,0,0,.21.32c0,.11,0,.28-.14.3a1.86,1.86,0,0,0-.68.25c-.11,0-.15-.13-.24-.21a3.9,3.9,0,0,0-.9.57.45.45,0,0,1,0-.23,2.86,2.86,0,0,1,.83-.47V3.84a1,1,0,0,0-.48,0l0,0a3.78,3.78,0,0,0-.53.27.19.19,0,0,1,.12-.26,1.94,1.94,0,0,1,.94-.21c.05-.21-.18-.3-.26-.46a1.3,1.3,0,0,1-.14-.39h.07a2.1,2.1,0,0,1,0-.79,1,1,0,0,1-.51-.64A1.52,1.52,0,0,1,24.05.9c.19,0,.32-.24.54-.18l.32.1Z"/><path class="cls-3" d="M25,1.39a1.7,1.7,0,0,0-.52.33c-.12-.1-.44-.05-.38-.31s.11-.39.32-.44.54.13.58.42Z"/><path class="cls-3" d="M27.59,1.33a1.24,1.24,0,0,1,0,.47c-.07.08-.22,0-.26.12a1.23,1.23,0,0,0-.53-.55A.47.47,0,0,1,27,1.08c.19-.16.39,0,.55.14l.06.11Z"/><path class="cls-2" d="M33.24,1.85c-.17.1-.33-.07-.49,0l-.18-.06A3.35,3.35,0,0,1,33,1.65a1.15,1.15,0,0,1,.29.2Z"/><path class="cls-3" d="M26.36,1.69c.08.05.11.17.21.18a.07.07,0,0,1,0,.08c-.07,0-.17,0-.25,0s-.06-.25-.22-.24,0,0,.05-.05Z"/><path class="cls-3" d="M25.43,2H25.1a.63.63,0,0,1,.52-.28L25.43,2Z"/><path class="cls-2" d="M23.5,2.23a.39.39,0,0,1,.15-.37l0,0v.28l-.19.11Z"/><path class="cls-2" d="M34.09,2.42h0a.42.42,0,0,0-.25-.16c-.09-.09-.15-.19-.28-.22A.62.62,0,0,1,33.86,2a.86.86,0,0,1,.23.43Z"/><path class="cls-3" d="M25.28,2.22s.13.07.13.13c0,.27-.09.51-.11.77-.08.06-.2.12-.21.23s-.17.09-.26.12a.29.29,0,0,1,0-.24c.1-.12.26-.11.34-.24a.69.69,0,0,0,0-.47c-.06.07-.18.06-.28,0s-.13-.22-.28-.27l-.05-.06,0,0Z"/><path class="cls-3" d="M27.09,2.26c-.05.14-.26.11-.29.28a.41.41,0,0,1-.34,0c-.05,0-.06-.13-.12-.07s-.06.48.21.54c0,.21.25.18.38.28a.67.67,0,0,1-.13.21c-.11-.13-.34-.12-.37-.31l-.18-.14-.05-.71c.22-.25.58-.07.89-.11Z"/><path class="cls-2" d="M23.73,2.58c-.18.11-.05.34-.13.48l-.07.36c0-.21-.22-.41-.1-.62l.09-.16.21-.06Z"/><path class="cls-2" d="M28,3.25a.76.76,0,0,0-.18.06,2.71,2.71,0,0,1,.09-.57.49.49,0,0,1,.09.51Z"/><path class="cls-3" d="M25.17,3.83a1,1,0,0,1-.29.13s0-.1,0-.14.18,0,.29,0Z"/><path class="cls-2" d="M28.51,4a1.48,1.48,0,0,1,.17.33.16.16,0,0,1-.15,0,.73.73,0,0,1-.19-.2V3.81c.06,0,.06.2.17.16Z"/><path class="cls-3" d="M26.69,4a1.31,1.31,0,0,1-.28-.12l0,0h.29l0,.13Z"/><path class="cls-2" d="M26.56,4.55a.82.82,0,0,1-.24.52,1.64,1.64,0,0,0-.14-.22,2.37,2.37,0,0,0-.08.34.6.6,0,0,1-.27.06,1.45,1.45,0,0,1-.08-.36l0,0s-.05.1-.06.16l-.11.19c-.09,0-.2,0-.25-.1s0-.19,0-.28L25.15,5A.54.54,0,0,1,25,4.5a1.78,1.78,0,0,1,1.53,0Z"/><path class="cls-2" d="M32.13,4.78c0,.06.06.08.1.09.19-.07.26.11.32.23v0c-.26-.06-.6-.19-.83,0,0-.05,0-.15,0-.21A.28.28,0,0,1,32,4.73c.06,0,.12,0,.15,0Z"/><path class="cls-2" d="M28.85,5s-.09,0-.15,0-.24,0-.29-.09l-.05-.1c.08,0,.17-.07.26,0a1.75,1.75,0,0,1,.23.24Z"/><path class="cls-2" d="M27.57,5.54l.14.19a.31.31,0,0,1-.3-.09.81.81,0,0,1-.19-.52c.16.09.38.18.35.42Z"/><path class="cls-2" d="M24.28,5.38a1.09,1.09,0,0,1,.26.47.86.86,0,0,1-.48-.42,1.05,1.05,0,0,1,0-.3c.1,0,.26.11.25.25Z"/><path class="cls-2" d="M28.36,5.4c-.14,0-.34,0-.43-.09a.37.37,0,0,1,.2-.13,1.61,1.61,0,0,1,.23.22Z"/><path class="cls-2" d="M24.89,5.41l0,.34a1.08,1.08,0,0,1-.23-.51,2.2,2.2,0,0,1,.25.17Z"/><path class="cls-2" d="M32.54,5.57c-.23,0-.5-.07-.67.11l-.07,0a.26.26,0,0,1,0-.21c.11-.09.24-.27.41-.17a.4.4,0,0,1,.33.23v0Z"/><path class="cls-2" d="M27.34,6.07l0,0a.65.65,0,0,1-.34,0c-.16-.13-.13-.37-.07-.56L27,5.38c.13.22,0,.59.32.69Z"/><path class="cls-2" d="M29.5,5.66a.44.44,0,0,1-.45-.07l.19-.1.26.17Z"/><path class="cls-2" d="M23.86,5.77c-.08.14-.24.19-.3.34h0c0-.15-.11-.32.09-.41a.45.45,0,0,1,.23.07Z"/><path class="cls-2" d="M26.56,5.7a1.41,1.41,0,0,0,.12.5l0,0c-.11-.07-.34-.11-.32-.3s.15-.15.22-.22Z"/><path class="cls-2" d="M25.45,6.17a.59.59,0,0,1-.31-.45l.25.08.06.37Z"/><path class="cls-2" d="M32.63,5.93c.11,0,.19-.14.3-.07a.55.55,0,0,1,.27.35A2.57,2.57,0,0,0,32.41,6c-.14,0-.25.15-.4.16a.62.62,0,0,1-.17.11c-.08-.07-.06-.19-.06-.3s.19-.09.28-.13c.21.12.5-.28.55.08l0,0Z"/><path class="cls-2" d="M25.85,6.31A1.55,1.55,0,0,1,25.78,6,.68.68,0,0,0,26,5.78c0,.18,0,.43-.19.53Z"/><path class="cls-2" d="M29.16,6.08c-.22.11-.44,0-.63-.1a.22.22,0,0,1-.09-.1c.11,0,.22-.16.31,0a3.23,3.23,0,0,1,.41.22Z"/><path class="cls-2" d="M30.93,6.05c.17.09.15.26.15.42a5.69,5.69,0,0,1-.58-.64c.17,0,.26.2.43.22Z"/><path class="cls-2" d="M28.28,6.34l.19.19c-.29.1-.51-.15-.68-.34.09-.08.21-.06.32-.09l.17.24Z"/><path class="cls-2" d="M24.26,6.19a.85.85,0,0,1-.32.47A1.8,1.8,0,0,1,24,6.21a.22.22,0,0,1,.26,0Z"/><path class="cls-2" d="M29.84,6.43c0,.05-.05.16-.1.15s-.1-.28-.08-.43a.38.38,0,0,1,.18.28Z"/><path class="cls-2" d="M30.5,6.41c0,.17.24.11.28.28s.11.18.11.27-.15,0-.14.14a.71.71,0,0,1,.21.17,3.41,3.41,0,0,1-.05.55c-.05,0-.07-.05-.07-.08a4.84,4.84,0,0,0-.46-1.29l-.22-.21c.13,0,.3,0,.34.17Z"/><path class="cls-2" d="M30.65,6.34v0h0v0s0,0,0,0Z"/><path class="cls-2" d="M32.9,6.4l.26.14.07.27c-.15.07-.28-.08-.42-.11s0-.17-.07-.19-.26.11-.42.09l0,0s0,0,0,.09a.45.45,0,0,1-.39.06.45.45,0,0,1-.05-.25c.09-.06.24,0,.32-.14s.39.06.6.07l.1-.06Z"/><path class="cls-2" d="M27.71,6.66a3.21,3.21,0,0,1,.31.19c-.31.16-.64-.08-.88-.27a2.83,2.83,0,0,0,.4-.08c.1,0,.12.1.17.16Z"/><path class="cls-2" d="M24.6,6.53a1.63,1.63,0,0,1-.11.42A.51.51,0,0,1,24,7a1.19,1.19,0,0,0,.47-.5Z"/><path class="cls-2" d="M30.24,7c0,.09,0,.14-.1.18h0A.61.61,0,0,1,30,6.56c.2,0,.08.29.22.39Z"/><path class="cls-2" d="M26.69,6.68c.09.11.24.24.34.35a.44.44,0,0,1-.32.07c-.19-.07-.21-.33-.41-.4,0,0-.05-.07,0-.12l.42.1Z"/><path class="cls-2" d="M25.37,6.62a.57.57,0,0,1-.25.36.85.85,0,0,1-.45.06,4.84,4.84,0,0,0,.5-.42Z"/><path class="cls-2" d="M25.39,7.38l-.16,0c.11-.17.3-.31.36-.51s.23,0,.32-.06a.72.72,0,0,1-.52.52Z"/><path class="cls-2" d="M32.79,7.08a.35.35,0,0,1,.19.37l-.26-.14a.09.09,0,0,0-.09-.12.73.73,0,0,0-.46,0c-.09,0-.11-.15-.14-.23a1.18,1.18,0,0,1,.59-.07.17.17,0,0,1,.17.14Z"/><path class="cls-2" d="M31.32,7.1a1,1,0,0,1,0,.43A5,5,0,0,0,31,7a.17.17,0,0,1,.28.09Z"/><path class="cls-2" d="M29.88,7.35c.09.15-.1.33.14.39a1.79,1.79,0,0,1-.09.46,1,1,0,0,0-.15-.4s.07-.11,0-.15-.14-.05-.15-.14.11-.21.15-.32.07.1.09.16Z"/><path class="cls-2" d="M30.53,7.6a.55.55,0,0,1,0,.4.13.13,0,0,0,.14,0c0,.13-.11.26-.17.38l-.05.06c0-.14.07-.31,0-.41s-.09,0-.1,0,.06-.35-.08-.49.17-.18.26-.28c.05.09,0,.23,0,.34Z"/><path class="cls-2" d="M24.26,7.61a1.38,1.38,0,0,1,.28.19.09.09,0,0,0,.05.12.26.26,0,0,1,.16.19v.27c-.08-.14-.18-.35-.36-.38a.63.63,0,0,1-.25-.26,1,1,0,0,0-.62,0c0-.08.07-.15.12-.22l.06-.07c.18.08.45,0,.56.19Z"/><path class="cls-2" d="M32.59,7.58a.36.36,0,0,1,.28.12c0,.11,0,.25,0,.35a.7.7,0,0,0-.49-.35c-.1,0-.17.12-.27.14.09-.12,0-.42.24-.38s.14.13.27.12Z"/><path class="cls-2" d="M26.74,7.88a.29.29,0,0,1-.18,0,.29.29,0,0,1-.18-.27c.07,0,.15,0,.21,0l.15.32Z"/><path class="cls-2" d="M28.17,7.67c.14,0,.32,0,.39.22l.07.17c-.24.09-.31-.33-.52-.12a.51.51,0,0,0-.52,0c-.05,0-.1.07-.15,0s.1-.17.17-.26c.22.09.36-.33.56-.06Z"/><path class="cls-2" d="M25.89,7.73A.79.79,0,0,1,26,8a.37.37,0,0,1-.31,0l-.17-.21a1.51,1.51,0,0,0,.42,0Z"/><path class="cls-2" d="M24.35,8.4c0,.19.24.12.24.3s-.09.27-.14.38c-.08-.07,0-.23-.13-.3s.11-.12,0-.2-.15,0-.22,0a3.77,3.77,0,0,1-.52-.37.57.57,0,0,0-.31.07l-.06-.08c.1-.08.11-.22.25-.26.37,0,.53.39.85.5Z"/><path class="cls-2" d="M32.64,8.2c.16.11.11.33.06.48a.81.81,0,0,1-.2-.14.26.26,0,0,0,0-.15c-.13-.13-.34,0-.51-.06s0-.15.08-.21.2-.1.31-.06.17.14.28.14Z"/><path class="cls-2" d="M27.79,8.13a0,0,0,0,0,0,0,1,1,0,0,1,.89.3v.15c-.13-.08-.28-.09-.39-.2a1.39,1.39,0,0,0-.64,0s0-.11-.09-.07a1.22,1.22,0,0,0-.45.2,1,1,0,0,1,.1-.29,1.66,1.66,0,0,1,.55-.15Z"/><path class="cls-2" d="M29.31,9a.9.9,0,0,1,0,.16c0-.11-.24-.2-.12-.34a4.18,4.18,0,0,0-.16-.7c.37.16.26.56.31.88Z"/><path class="cls-2" d="M33.51,8.36a.69.69,0,0,1,0,.4c-.05-.06-.18-.15-.16-.26s.11-.36.21-.14Z"/><path class="cls-2" d="M23.56,8.53c0,.16.32.08.28.29,0,0-.05.08,0,.14s.22,0,.3.08.05.36,0,.53C24,9.35,24,9,23.66,8.88s-.35-.21-.55-.17c0-.1.07-.19.14-.25s.18.1.31.07Z"/><path class="cls-2" d="M32.16,8.58c.06.07-.09.17.05.19s.18.09.23.17,0,.06,0,.09l0,0L32,8.89c0-.09,0-.14-.11-.17s-.17.12-.26.07c.11-.08.18-.33.35-.26a.27.27,0,0,0,.18.05Z"/><path class="cls-2" d="M28.67,8.82c.2.07.06.36.29.36l0,0a1.7,1.7,0,0,1-.1.32c-.07-.14-.12-.35-.31-.4,0-.07-.06-.18-.15-.24a.63.63,0,0,0-.27,0c.05.09.19.16.14.29s.2.1.24.21v.26l-.18.11c0-.18,0-.42-.16-.52S28,9,27.81,8.89c-.15.08-.35,0-.5.1,0-.08,0-.2.14-.23s.38,0,.53-.13a2.36,2.36,0,0,1,.69.19Z"/><path class="cls-2" d="M33.27,9c0,.06-.05.1,0,.17s.09.14,0,.21l0,0A2.26,2.26,0,0,0,33,8.94l.09-.22a.5.5,0,0,1,.2.23Z"/><path class="cls-2" d="M22.32,9c-.08.06-.06.15-.09.23s.14,0,.18.11,0,.32-.09.39a.39.39,0,0,0-.23-.24,1,1,0,0,0-.1.66.66.66,0,0,1-.2.14A1.44,1.44,0,0,1,22,9l.28,0Z"/><path class="cls-2" d="M23.22,9.08a1.1,1.1,0,0,1-.09.14.59.59,0,0,1,.27.27c0,.27-.18.46-.34.65a1.55,1.55,0,0,1,.08-.53c-.11,0-.26-.2-.32,0s-.3.39-.35.63l0,0a1.9,1.9,0,0,1,.19-1,.5.5,0,0,1,.58-.17Z"/><path class="cls-2" d="M27.78,9.25s0,.09.06.09.16.07.18.15a.18.18,0,0,1-.09.23c-.09-.14,0-.44-.3-.41l-.15-.12c.09,0,.25-.09.3.06Z"/><path class="cls-3" d="M26,9.72a1.92,1.92,0,0,0,.19.71H25.8c0-.22-.28-.39-.21-.65.09-.06.24-.07.27-.2a.13.13,0,0,0-.18-.09h0c0-.24.24-.19.36-.27,0,.14-.06.32-.06.49Z"/><path class="cls-2" d="M21.68,9.72c-.07,0-.13-.06-.2-.07-.12.2,0,.42-.05.63a.29.29,0,0,1-.18-.13,1.88,1.88,0,0,1,0-.58l.25-.27a.39.39,0,0,1,.18.42Z"/><path class="cls-3" d="M31,9.38c-.18.31-.05.72,0,1h-.24a1.34,1.34,0,0,1-.2-.64.34.34,0,0,1,.09-.15c.06.06.06.18.15.21a.41.41,0,0,0,.06-.37l-.07-.07c.09,0,.16,0,.25,0Z"/><path class="cls-3" d="M26.63,9.7l0,.74h-.24a2.79,2.79,0,0,1-.11-.76l.11-.18.26.21Z"/><path class="cls-3" d="M27.2,9.6c.06.05,0,.17,0,.24l-.19.59h-.24l.1-.73s.06-.13.13-.15a.27.27,0,0,1,.18,0Z"/><path class="cls-1" d="M78.65,4.31a.6.6,0,0,1,.61-.62.63.63,0,1,1-.61.62Zm-.13,0a.74.74,0,1,0,.74-.73.73.73,0,0,0-.74.73Zm.45.44h.14V4.37h.14l.23.38h.15l-.25-.39c.13,0,.23-.07.23-.23s-.1-.25-.3-.25H79v.87ZM79.11,4h.17c.09,0,.19,0,.19.13s-.11.15-.22.15h-.14V4Z"/></g></g></svg>