<svg xmlns="http://www.w3.org/2000/svg" viewBox="0 0 80 20.31"><defs><style>.cls-1{fill:#202458;}.cls-2{fill:#fff;}.cls-3{fill:#f26722;}</style></defs><title>ING</title><g id="Layer_2" data-name="Layer 2"><g id="ING"><g id="g9"><g id="g11"><path id="path13" class="cls-1" d="M.5,5.62A1.75,1.75,0,0,1,1.78,6,2.13,2.13,0,0,1,2.2,7.57v9.81c0,1.36-.29,2-2,2H0V20H7.56v-.6H7.33c-1.66,0-1.94-.62-1.94-2V7.57A2.13,2.13,0,0,1,5.81,6a1.79,1.79,0,0,1,1.3-.39h.45V5H0v.61Z"/><path id="path15" class="cls-1" d="M24.68,14.94a8.63,8.63,0,0,1-.15-.95V9.5c0-2.61.33-3.91-2-3.9V5h5.26V5.6c-2.35,0-2.06,1.29-2.07,3.9V20H25L13.64,8.08a8.52,8.52,0,0,1,.15,1v7.34c-.07,2.68.27,3,2,3V20H10.29v-.61c1.73,0,2.07-.23,2.07-3.19V8c.06-1.48-.49-2.35-2.16-2.33V5h5.05Z"/><path id="path17" class="cls-1" d="M43.74,4.72h-.58l0,.2c0,.3-.16.79-.49.79A1.74,1.74,0,0,1,42,5.55a10.7,10.7,0,0,0-4-.83,8.91,8.91,0,0,0-6.38,2.52A8,8,0,0,0,29.39,13a6.68,6.68,0,0,0,2.53,5.28,9,9,0,0,0,6.38,2.08A10.33,10.33,0,0,0,44,18.89l.35-.2V14.78c0-1.67.21-1.93,1.57-2h.22V12.2H39.47v.58h.22c1.51.06,1.8.33,1.8,1.71v3.63a5,5,0,0,1-3,1,5.49,5.49,0,0,1-3.93-1.63,7,7,0,0,1-1.81-5,7.25,7.25,0,0,1,1.76-5.2,5.06,5.06,0,0,1,3.64-1.46A6.5,6.5,0,0,1,42,7.22a4.43,4.43,0,0,1,1.58,2.42l.05.16h.57Z"/></g><g id="g19"><path id="path21" class="cls-2" d="M72.84,19.91a1.83,1.83,0,0,0,1-.32,4.85,4.85,0,0,0,3.5-.8,7.67,7.67,0,0,0,1.36-1.43,5.14,5.14,0,0,0,.76-1.42,6.44,6.44,0,0,0,.3-1,9.4,9.4,0,0,0-.36-5,7.5,7.5,0,0,0-.32-.83,8.62,8.62,0,0,0-2.94-3.68,6,6,0,0,1-1.93-2c-.24-.21-.47-.5-.77-.55a1.46,1.46,0,0,1,.2.44l0,0A1.12,1.12,0,0,1,72.86,3l.25-.23a1.57,1.57,0,0,0-.31-.08,6.84,6.84,0,0,0-2.55.53v0c.51.23.62.79.92,1.18.07-.09.2,0,.3,0s.29.12.43.08a1,1,0,0,0-.09-.33c.09,0,.2,0,.3,0,.27.15.7,0,.87.33a4.9,4.9,0,0,0-.88.16c0,.11.13.21.12.32a3.44,3.44,0,0,0-.78-.2l0,0a2.6,2.6,0,0,0,1.32.8c.71.17,1.33-.17,2-.05a7.77,7.77,0,0,1,3.73,4.17,2.41,2.41,0,0,1,.08.25,8,8,0,0,1,.1,5,6,6,0,0,1-1.07,1.82,3.83,3.83,0,0,1-.61.6,2.73,2.73,0,0,1-2.46.54c-.06,0-.17,0-.15-.14l.09-.4A10.22,10.22,0,0,0,74.62,15V14.9a9,9,0,0,0-.71-3.2,11.6,11.6,0,0,0-1-1.76A4.21,4.21,0,0,0,71,8.4a1.4,1.4,0,0,0-1.42.24,1,1,0,0,0-.33.86,2.84,2.84,0,0,1-1.34.44c-.12,0-.25.05-.37.05a2,2,0,0,1-.35,0,3.43,3.43,0,0,1-1.65-.76c0-.24,0-.47,0-.73a.85.85,0,0,1-.49-.69l0,0a2.26,2.26,0,0,1,.42.19,3.4,3.4,0,0,0-.32-1,4.25,4.25,0,0,1-.49-.21.78.78,0,0,1-.33-.54c.16.16.45.11.57.27a9.41,9.41,0,0,0-.58-2c-.18-.44-.66-.64-1-1-.12-.16-.17-.37-.4-.39s-.2-.26-.23-.4c.11,0,.21.1.31.12a3.55,3.55,0,0,0-1.24-2l-.13.08c-.29,0-.59.06-.87.07a1.2,1.2,0,0,1,.52-.35,1.23,1.23,0,0,0-.63-.23,1.28,1.28,0,0,1-.61.26l0,0c0-.16,0-.37.21-.41a1.46,1.46,0,0,0-.9,0c-.07.18-.27.34-.25.56a4.72,4.72,0,0,1-.4.46,5.05,5.05,0,0,1,.21-1c-.21.08-.42.2-.63.29a8.28,8.28,0,0,0-1-.52s-.1,0-.09,0c.3.22.19.63.22.94L57.2.86c-.1-.24-.37-.41-.41-.67A3.94,3.94,0,0,0,56,.46l0,0a.65.65,0,0,1,.51.35,5.21,5.21,0,0,1-.95-.15s-.06-.07-.11-.06a1.82,1.82,0,0,0-.45.29A3.14,3.14,0,0,0,54.13,2a.59.59,0,0,1,.32.08c-.18.1-.33.29-.5.39a3.33,3.33,0,0,0-.07.78,3.5,3.5,0,0,0-.41.62,9.2,9.2,0,0,0-.32,3,2.86,2.86,0,0,1-.3.22v1h0c0-.2.28-.31.43-.45h0c0,.22-.05.43-.05.65L53,8.5c-.28.24-.05.6-.07.9,0,.08,0,.2.09.21a1.12,1.12,0,0,1,.2-.3c.12,0,.22-.12.33-.13a4.23,4.23,0,0,1-.24.68L53.2,10a.33.33,0,0,0-.1.17A23.17,23.17,0,0,0,54,13.39c-.25.43-.4.95-.61,1.39l-.09.2c-.21.54-.28,1.14-.54,1.67a1.7,1.7,0,0,0-.35-.19,1.43,1.43,0,0,0-1.46.33,1.27,1.27,0,0,0-.92.17,1.31,1.31,0,0,0-.41.5,1,1,0,0,0-.07.44,1.1,1.1,0,0,0-.39.59,1.84,1.84,0,0,0,.37,1.42Z"/><path id="path23" class="cls-2" d="M69.74,9.42c0,.12-.09.25,0,.36.11-.13.3-.13.45-.18a3.51,3.51,0,0,1,1.2.19,5.26,5.26,0,0,0-.27-.47c-.22-.06-.54.09-.58-.23-.13-.11-.34,0-.47,0a1.07,1.07,0,0,0-.32.35Z"/><path id="path25" class="cls-2" d="M55.46,5.39h0Z"/><path id="path27" class="cls-2" d="M57.16,9.53l.28-.27a.06.06,0,0,1,.06,0l0,.52A.74.74,0,0,0,58,10c0-.14.12-.23.18-.36s0-.24.12-.31l0,0a1.79,1.79,0,0,0,.11.47l0,.23A1.23,1.23,0,0,0,59,9.92a2,2,0,0,1,.08-.49s-.05-.16.06-.15.19.28.25.43a1.77,1.77,0,0,0,.45-1c-.08-.1-.2-.1-.29-.17A3.53,3.53,0,0,0,57,8.61,1.19,1.19,0,0,0,57.16,9.53Z"/><path id="path29" class="cls-2" d="M49.74,18.29a7.34,7.34,0,0,0,0,1.05.55.55,0,0,0,.35.27l0-.24c.06-.33-.12-.69.07-1l.37.17a.81.81,0,0,0-.32-.85Z"/><path id="path31" class="cls-2" d="M50.89,17.79a2.75,2.75,0,0,0-.1,1.79,1.64,1.64,0,0,0,.37-.28A2,2,0,0,1,51.34,18a.82.82,0,0,1,.47.51.86.86,0,0,0,.15-.73c0-.21-.23-.16-.34-.25s0-.37.22-.47l-.57.06A2.77,2.77,0,0,0,50.89,17.79Z"/><path id="path33" class="cls-2" d="M52.05,19.4s0,.12,0,.13c.07-.39.39-.65.56-1,.09-.12.08-.28.22-.37s.31.13.49.14,0,.08,0,.13a4.66,4.66,0,0,0-.14.91h0a4.86,4.86,0,0,0,.6-.85l0-.26c0-.32-.3-.53-.52-.66l.2-.25-.28-.1a1.26,1.26,0,0,0-.85.42,3.66,3.66,0,0,0-.35,1.75Z"/><path id="path35" class="cls-2" d="M53.3,16.63c.11,0,.21-.05.31,0a2.86,2.86,0,0,1,1.21.68l.38,1,.19-.6-.13-.33c-.1-.23-.4-.21-.6-.22s0-.21,0-.29c.09-.33-.31-.32-.48-.45,0-.2-.23-.13-.37-.15l0-.06a.11.11,0,0,0-.14,0s0,0,0,0l-.1,0a.71.71,0,0,0-.25.48Z"/><path id="path37" class="cls-2" d="M53.57,15.56a.34.34,0,0,0,.1.16c.21-.06.41-.2.66-.12a3.67,3.67,0,0,0,1,.72l.14,0c.08,0,.18,0,.23.12s-.08.2-.12.3c.21.16.13.43.26.62l.34-.45c-.08-.19,0-.53-.31-.55a.3.3,0,0,1-.17-.27c-.2-.18-.44-.26-.65-.45s-.26-.33-.47-.38a1.73,1.73,0,0,0-.47-.15C53.81,15,53.78,15.41,53.57,15.56Z"/><path id="path39" class="cls-2" d="M54,14.64l.06.09a5.2,5.2,0,0,1,.67-.11c.16.09.36.08.51.16a1.92,1.92,0,0,0,.45.49c.38.05.59.46.72.76v-.15a.92.92,0,0,0-.08-.61c-.09-.09-.23-.16-.32-.24a.17.17,0,0,1,0-.14,2.82,2.82,0,0,0-.54-.36c-.24-.36-.72-.26-1.1-.36l-.38.47Z"/><path id="path41" class="cls-2" d="M54,11.21a2.7,2.7,0,0,1,.12.49c.13-.29.39-.42.62-.66a1.17,1.17,0,0,0-.44-.16h0C54.21,11,54.05,11.08,54,11.21Z"/><path id="path43" class="cls-2" d="M54.86,12.75l.21-.21a1.36,1.36,0,0,0,.42-.74.6.6,0,0,0-.49,0,6.94,6.94,0,0,0-.14.93Z"/><path id="path45" class="cls-2" d="M55,13.41a1.34,1.34,0,0,0,.89-.1l.27-.84c-.09,0-.17,0-.25,0A2,2,0,0,1,55,13.41Z"/><path id="path47" class="cls-2" d="M55.11,10.43a1.87,1.87,0,0,0,.92.75c0-.39-.38-.66-.55-1v-.11A1.67,1.67,0,0,0,55,9.78a2.32,2.32,0,0,0,.08.65Z"/><path id="path49" class="cls-2" d="M56.25,13.45a1.67,1.67,0,0,0,.74-.07c.34-.08.52-.45.63-.73H57.2l-.44.44a3,3,0,0,0-.51.36Z"/><path id="path51" class="cls-2" d="M56.2,10a2.56,2.56,0,0,0,.44,1l0-.69Z"/><path id="path53" class="cls-2" d="M57.73,11.82a3.83,3.83,0,0,0-.09-.74c-.14-.09-.34-.08-.49-.18A1.38,1.38,0,0,0,57.73,11.82Z"/><path id="path55" class="cls-2" d="M57.31,14.19a4.44,4.44,0,0,0,.85-.34c.17-.25.43-.47.47-.76-.22.06-.4,0-.6.09a1.65,1.65,0,0,1-.43.62C57.56,14,57.39,14.07,57.31,14.19Z"/><path id="path57" class="cls-2" d="M57.76,14.77l.35.45a.68.68,0,0,0,.59-.06l-.13-.42A1.58,1.58,0,0,1,57.76,14.77Z"/><path id="path59" class="cls-2" d="M58.35,11.46l.13.62A1.25,1.25,0,0,0,58.87,11a1.44,1.44,0,0,1-.52.45Z"/><path id="path61" class="cls-2" d="M59.27,12.55a.41.41,0,0,0,.08.24c.36.13.4.58.74.74a.81.81,0,0,0,.66-.11c-.14-.16-.31-.27-.45-.45s-.19-.1-.19-.22l-.84-.2Z"/><path id="path63" class="cls-2" d="M59.56,14.75a1,1,0,0,0,.6.33c0-.05,0,0,0,0l-.28-.62a3,3,0,0,1-.42,0,1.32,1.32,0,0,0,.07.3Z"/><path id="path65" class="cls-2" d="M60.05,11.88a3.79,3.79,0,0,1-.22-1c-.14.17-.28.28-.41.45C59.35,11.66,59.85,11.75,60.05,11.88Z"/><path id="path67" class="cls-2" d="M60.62,11.56c.17.22.54.14.75.08-.1-.17-.42-.27-.47-.45a4.81,4.81,0,0,0-.2-.93A1.31,1.31,0,0,0,60.62,11.56Z"/><path id="path69" class="cls-2" d="M60.92,12.55c.47.34.92.74,1.58.59,0,0,.12,0,.13-.09-.19-.12-.39-.21-.59-.32l-.22-.33h-.11a4.09,4.09,0,0,1-.79.15Z"/><path id="path71" class="cls-2" d="M60.93,16.34h0a2.53,2.53,0,0,1,.94-.4c.09,0,0,.13.12.17s.44-.06.65-.13a1.4,1.4,0,0,1,.65.12c.15.21.45.18.66.32l0-.32a2.11,2.11,0,0,0-1.74-.54l0-.06a1.2,1.2,0,0,0-.45.09,2.48,2.48,0,0,0-.59.17A4.07,4.07,0,0,0,60.93,16.34Z"/><path id="path73" class="cls-2" d="M61.3,10.6a.8.8,0,0,0,.76.36c-.15-.16-.34-.32-.35-.54,0-.41-.41-.45-.63-.66A2.67,2.67,0,0,0,61.3,10.6Z"/><path id="path75" class="cls-2" d="M61.26,17.16h.05c.25-.15.61,0,.85-.2s.15.12.24.17.26.56.58.46c.39.2.29.67.3,1l.36-.23c0-.18.07-.4,0-.56s-.33-.21-.44-.38c.14-.24-.18-.35-.25-.52l0,0,.5.07a.72.72,0,0,1,.28.46c.39.07.48.51.62.79.07-.19.11-.4.19-.59s-.2-.15-.31-.22a.85.85,0,0,0-.34-.61,5.49,5.49,0,0,0-1.28-.34l-.4.12c-.21.05-.44,0-.6.13s-.26.29-.32.46Z"/><path id="path77" class="cls-2" d="M61.5,15.24l.09,0c.19-.09.38-.19.59-.27s.55.27.81.05c.1-.07.18,0,.26.09s.37.19.57.24c-.1-.26-.22-.63-.56-.67a3.09,3.09,0,0,1-.43-.14c-.36-.39-.59.33-1,.15A1.17,1.17,0,0,0,61.5,15.24Z"/><path id="path79" class="cls-2" d="M61.59,17.51c.15.13.3.34.54.31.29.14.17.52.33.72l.16-.15h0l0,0h0a.87.87,0,0,0-.1-.55c-.1-.07-.23,0-.33-.06a.49.49,0,0,0-.22-.32c-.07-.06-.17,0-.25,0l-.15.06Z"/><path id="path81" class="cls-2" d="M62.18,11.82a2.19,2.19,0,0,0,.69.59,1.07,1.07,0,0,0,.66.07,4.08,4.08,0,0,1-.55-.55c-.07-.09-.08-.21-.17-.29a1.29,1.29,0,0,0-.63.18Z"/><path id="path83" class="cls-2" d="M62.43,10.15c.22.27.55.16.85.17v0l-.46-.4a1.56,1.56,0,0,0-.39.26Z"/><path id="path85" class="cls-2" d="M53.83,5.75l.27.84a12.32,12.32,0,0,0,.17-1.36l.2-.3-.42.13A1.52,1.52,0,0,0,53.83,5.75Z"/><path id="path87" class="cls-2" d="M54,4.29l.37-.21V3.53a2.16,2.16,0,0,0-.36.38Z"/><path id="path89" class="cls-2" d="M61.59,5.14a.49.49,0,0,1-.33.17,1.58,1.58,0,0,0,.13-1.26,1.66,1.66,0,0,0,.31-.12h0L62,3.7c.34-.23.21-.68.34-1-.17-.26-.22-.58-.46-.8h0c-.19-.25-.54-.22-.8-.34s-.61.12-.86.28S60.14,2,60,2c-.06.18-.14.36-.19.55a1.91,1.91,0,0,0-1.33.25,2.28,2.28,0,0,0-.66-.24c-.17,0-.36,0-.49-.06s-.21-.57-.51-.62c-.11,0-.13-.15-.13-.26-.21,0-.38-.12-.58-.16s-.54.08-.76.22a2.65,2.65,0,0,0-.3.11,4.32,4.32,0,0,0-.44.82,1.68,1.68,0,0,0,.26.65,1.32,1.32,0,0,0,.73.66,2.66,2.66,0,0,0,0,1.48h0a.29.29,0,0,1-.13,0h0a2,2,0,0,0,.61,1.17c.13,0,.1.18.15.28a.19.19,0,0,1,0,.16,3.69,3.69,0,0,0-2,.49c-.15.08-.08.29-.1.43a3.65,3.65,0,0,1,1.35-.56,2,2,0,0,1,.65,0l0,.4a5.86,5.86,0,0,0-1.64.94,2,2,0,0,0,0,.43L55,8.77A5,5,0,0,1,56.32,8a1.63,1.63,0,0,0,.43.4,3.29,3.29,0,0,1,.92-.4c.17-.1.45,0,.56-.21l.08-.43s0,0-.05,0a.63.63,0,0,1-.34-.6.54.54,0,0,1-.25.06c-.08,0-.15,0-.18-.11s-.05-.23,0-.3a1.79,1.79,0,0,1,1.08-.17c.29,0,.7,0,.8.36,0,.1,0,.21-.11.27s-.22,0-.31,0a.75.75,0,0,1-.46.56l0,.27c0,.13,0,.33.23.28A4.05,4.05,0,0,1,60,8.52a2.53,2.53,0,0,0,.33-.42,6.27,6.27,0,0,1,1.86,1.23l0-.39a6.41,6.41,0,0,0-1.77-1.09,2.16,2.16,0,0,0,.06-.38,4.56,4.56,0,0,1,2.06.63V7.77a4.55,4.55,0,0,0-2.12-.59.18.18,0,0,1,0-.14,1,1,0,0,0,.73-.79c.19-.22.46-.45.4-.78,0,0,0-.06,0-.08A.37.37,0,0,0,61.59,5.14Z"/><path id="path91" class="cls-2" d="M62.24,6.34l.39-.12,0-.21c.11-.32-.12-.55-.24-.8l-.19,1.13Z"/><path id="path93" class="cls-2" d="M63.21,7.82c.18.2.36.53.68.43a2,2,0,0,0-.14-.37c-.09-.1-.12-.38-.28-.28-.13-.09-.16-.23-.24-.34A2.63,2.63,0,0,0,63.21,7.82Z"/><path id="path95" class="cls-2" d="M63.27,9.19c.07.1.09.22.16.31a.75.75,0,0,0,.47.06c.14,0,.23.12.36,0-.16-.1-.26-.29-.42-.42S63.47,9.15,63.27,9.19Z"/><path id="path97" class="cls-2" d="M63.52,11.36a1.77,1.77,0,0,0,1.16.31s.13,0,.14-.07a7.18,7.18,0,0,0-.83-.42c-.15-.24-.35.06-.55,0C63.45,11.28,63.5,11.32,63.52,11.36Z"/><path id="path99" class="cls-2" d="M64.49,15.48l.07.15c.07.49.38.93.21,1.47.14.09.19.26.27.39h0a3.18,3.18,0,0,0,0-1.23C65.09,15.89,64.71,15.67,64.49,15.48Z"/><path id="path101" class="cls-2" d="M64.57,10.7a1,1,0,0,0,.91.11,2.48,2.48,0,0,1-.51-.33Z"/><path id="path103" class="cls-2" d="M65.73,12.13a.49.49,0,0,0,.24.46.87.87,0,0,0,.15-.34.86.86,0,0,0-.34-.52A1,1,0,0,0,65.73,12.13Z"/><path id="path105" class="cls-2" d="M65.74,14.26c0,.22.21.25.31.37s0,.17,0,.27a1.32,1.32,0,0,1,.28.8,6.59,6.59,0,0,0,.21-.85c0-.21-.34-.17-.29-.4a1,1,0,0,0-.08-.67s-.06-.1-.1-.08C65.94,13.89,65.73,14,65.74,14.26Z"/><path id="path107" class="cls-2" d="M66.38,13.15l.24.47c.11,0,.18-.11.26-.19s-.1-.32-.15-.48,0-.26-.08-.36-.14-.1-.2-.08l-.07.64Z"/><path id="path109" class="cls-2" d="M66.69,11.91a1.53,1.53,0,0,1,.52.49c.16.48.42.91.61,1.37s.13.61.22.92c0,.09,0,.25.14.24,0-.36.11-.7.12-1.07a1.52,1.52,0,0,0-.42-.31v0c0-.08.08-.17.18-.16s.17-.09.11-.18c-.24-.24-.22-.66-.61-.73a.35.35,0,0,1-.18-.33A1.15,1.15,0,0,0,66.69,11.91Z"/><path id="path111" class="cls-2" d="M66.92,14.44c.24.22.15.54.13.83s.19.08.26.17a1,1,0,0,1,0,.76,4.28,4.28,0,0,0,.37-.57c0-.08.1-.12.09-.21s-.11-.08-.18-.09-.12-.06-.1-.13a1.14,1.14,0,0,0,0-.75c0-.19,0-.44-.06-.61-.15.2-.59.25-.48.6Z"/><path id="path113" class="cls-2" d="M67.35,11.13c.42.42.72.84,1.17,1.24a4.43,4.43,0,0,0,0-.52,1.47,1.47,0,0,0-.29-.32C67.88,11.5,67.7,11.06,67.35,11.13Z"/><path id="path115" class="cls-2" d="M68.44,13.35a.61.61,0,0,0,0,.12,6.82,6.82,0,0,1,.48.93c0-.34.2-.77-.11-1,0-.11-.19-.07-.27-.07Z"/><path id="path117" class="cls-2" d="M69.56,16.76c.13.06.3-.05.43-.12a.38.38,0,0,1,.3.1c0,.07,0,.14,0,.21a2.65,2.65,0,0,1,.81.35l.08-.08a.55.55,0,0,0-.29-.46c-.1-.06-.25,0-.31-.11a.63.63,0,0,0,0-.27.69.69,0,0,1-.38-.12c-.08,0-.15-.09-.22,0-.23.15-.24.39-.47.5Z"/><path id="path119" class="cls-2" d="M69.89,10.89a1,1,0,0,0,.34-.15c.31-.29.76-.1,1.13-.1a2.36,2.36,0,0,0-.26-.36,1.08,1.08,0,0,0-.4-.11c-.32-.19-.54.12-.78.28A.52.52,0,0,0,69.89,10.89Z"/><path id="path121" class="cls-2" d="M69.9,11.85s0,0,0,0,0,.12.07.14a2.46,2.46,0,0,0,.34-.22c.32,0,.5-.31.81-.31a4.92,4.92,0,0,1,1.47.45,1,1,0,0,0-.56-.71c-.15-.06-.26,0-.37.11-.31.19-.15-.29-.37-.3a2.28,2.28,0,0,1-.9.16c-.18.07-.32.24-.53.23a1.29,1.29,0,0,0,0,.48Z"/><path id="path123" class="cls-2" d="M70.11,12.89c.1.1.26.08.41.1l.4-.16c0-.07-.12-.09-.09-.17s.26,0,.4-.09.4-.23.6-.08c0,0,0,0,0,.08s0,.23.15.29.45.25.68.15a5.47,5.47,0,0,0-.13-.55c-.19,0-.32-.19-.5-.25a.39.39,0,0,1-.28.12c-.36-.09-.79-.31-1.16-.08-.13.16-.36.11-.54.18A2.32,2.32,0,0,0,70.11,12.89Z"/><path id="path125" class="cls-2" d="M70.27,15.66c0,.08-.11.21,0,.25.3,0,.69-.14.92.09.08.06,0,.19,0,.27l.39.32a2.71,2.71,0,0,0,.11-.58.62.62,0,0,0-.24-.39c-.25,0-.4-.3-.68-.27s-.27.1-.41.1a1.06,1.06,0,0,0-.16.21Z"/><path id="path127" class="cls-2" d="M70.38,13.46c.06.13.13.33.25.35a1.32,1.32,0,0,1,1-.07c.11,0,.11.14.08.21.16.1.35.17.52.27l0-.28c0-.3-.39-.33-.41-.63a1.88,1.88,0,0,0-1-.05c-.1.1-.26.08-.39.11S70.37,13.43,70.38,13.46Z"/><path id="path129" class="cls-2" d="M70.46,15c.18-.05.3-.25.49-.27a.94.94,0,0,1,.76.39c.11.07.09.26.23.26a5,5,0,0,1,0-.67c-.19-.33-.68-.07-.86-.46l-.35,0c-.24.06-.18.35-.21.54s-.09.11-.08.18Z"/><path id="path131" class="cls-2" d="M72.17,17c.15.29.47.51.5.84a2.82,2.82,0,0,0,.18-.29c0-.1-.12-.1-.16-.17s0-.23,0-.34a.92.92,0,0,0-.37-.44Z"/><path id="path133" class="cls-2" d="M72.75,16.28l.34.46a1.21,1.21,0,0,0,.08-.84c0-.06-.09-.14-.17-.1s-.15.33-.25.48Z"/><path id="path135" class="cls-2" d="M71.38,3.5a1,1,0,0,0,.38.13.53.53,0,0,1,.35-.06c.17.12.38,0,.58,0a2.27,2.27,0,0,0-.58-.37C71.85,3.25,71.64,3.43,71.38,3.5Z"/><path id="path137" class="cls-2" d="M73.21,3.94a1.07,1.07,0,0,1,.59.43.8.8,0,0,1,.49.33l-.07-.24a1.65,1.65,0,0,0-.37-.64A1.87,1.87,0,0,0,73.21,3.94Z"/><path id="path139" class="cls-3" d="M55.77,1.89l.14,0c.36.18,1,.27,1,.8a3,3,0,0,0-1,.64c-.22-.23-.67-.1-.75-.5.07-.38.21-.86.65-1Z"/><path id="path141" class="cls-3" d="M56.12,4.26c.43,0,.84,0,1.28,0a.57.57,0,0,1,.27.24c0,.51-.17,1-.19,1.51a.69.69,0,0,0-.43.45,3.12,3.12,0,0,0-.49.23.47.47,0,0,1,.07-.53c.18-.26.65-.19.61-.6.12-.2,0-.45,0-.65s-.09,0-.17,0a.63.63,0,0,1-.43,0,.73.73,0,0,1-.25-.33.79.79,0,0,1-.35-.3Z"/><path id="path143" class="cls-3" d="M56.64,7.3c.2,0,.41-.06.58,0,0,.07-.14.09-.22.11l-.31.15C56.57,7.57,56.64,7.38,56.64,7.3Z"/><path id="path145" class="cls-3" d="M57.45,3.41a1.1,1.1,0,0,1,.63-.14,4.11,4.11,0,0,0-.39.54h-.64A.89.89,0,0,1,57.45,3.41Z"/><path id="path147" class="cls-3" d="M59.33,3.25c.26,0,.25.3.49.32,0,.05.1.1.08.19s-.34,0-.5.06-.08-.48-.41-.46c0,0-.06-.08,0-.1a1,1,0,0,1,.35,0Z"/><path id="path149" class="cls-3" d="M59.16,4.5c.11-.16.29-.17.46-.21l1.21,0c.05,0,0,.09,0,.14s-.18.09-.24.16-.15.19-.26.27-.43.09-.63.06a.49.49,0,0,1-.18-.2l0,.06c.07.26,0,.55.1.81l.29.2c0,.42.51.31.73.55a1.33,1.33,0,0,1-.27.41,1.74,1.74,0,0,0-.59-.36c0-.25-.3-.4-.45-.53,0-.45,0-.92-.13-1.36Z"/><path id="path151" class="cls-3" d="M59.6,7.38h.56l-.07.3-.56-.24c0-.05,0-.06.07-.06Z"/><path id="path153" class="cls-3" d="M60.61,2.1,61,2a5.11,5.11,0,0,1,.68.41,1.62,1.62,0,0,1,.07,1.11c-.13.14-.4,0-.5.22h0a2.09,2.09,0,0,0-1-1,.83.83,0,0,1,.36-.57Z"/><path id="path155" class="cls-2" d="M70.35,19.88h2.49a1.86,1.86,0,0,0,1.06-.32,4.87,4.87,0,0,0,3.49-.8,7.07,7.07,0,0,0,1.36-1.43,5.32,5.32,0,0,0,.77-1.42,8.25,8.25,0,0,0,.3-1,9.53,9.53,0,0,0-.36-5c-.1-.28-.21-.56-.33-.82A8.6,8.6,0,0,0,76.2,5.44a6,6,0,0,1-1.93-2c-.24-.22-.47-.5-.78-.55a1,1,0,0,1,.2.44v0A1.12,1.12,0,0,1,72.87,3l.25-.23c-.1,0-.21-.06-.31-.09a7,7,0,0,0-2.55.54l0,.05c.52.23.62.79.92,1.17.08-.09.2,0,.31,0s.29.12.43.08a1.31,1.31,0,0,0-.09-.34c.09,0,.2,0,.3,0,.27.16.7,0,.87.34a5.17,5.17,0,0,0-.89.15c0,.12.14.21.13.33a3,3,0,0,0-.79-.2v0a2.75,2.75,0,0,0,1.32.8c.71.16,1.33-.17,2-.06A7.84,7.84,0,0,1,78.47,9.7l.09.24a8.11,8.11,0,0,1,.1,5,6.19,6.19,0,0,1-1.07,1.82,3.9,3.9,0,0,1-.62.6,2.76,2.76,0,0,1-2.45.54c-.06,0-.17-.05-.15-.15s.06-.26.08-.39A9.74,9.74,0,0,0,74.63,15v-.1a8.9,8.9,0,0,0-.71-3.2,10.47,10.47,0,0,0-1-1.76A4.14,4.14,0,0,0,71,8.36a1.42,1.42,0,0,0-1.42.25,1,1,0,0,0-.33.86,3,3,0,0,1-1.35.44c-.12,0-.24.05-.37.05a1.94,1.94,0,0,1-.34,0,3.46,3.46,0,0,1-1.65-.75c0-.24,0-.47,0-.73a.88.88,0,0,1-.5-.69l0,0a2,2,0,0,1,.41.2,3.13,3.13,0,0,0-.31-1,4.4,4.4,0,0,1-.5-.21.77.77,0,0,1-.32-.54c.16.16.45.1.57.27a9.41,9.41,0,0,0-.58-2c-.19-.44-.66-.64-1-1-.13-.16-.18-.37-.41-.4s-.2-.25-.23-.39c.12,0,.22.09.31.11a3.52,3.52,0,0,0-1.24-2l-.12.08a8.69,8.69,0,0,1-.88.07,1.15,1.15,0,0,1,.53-.35,1.32,1.32,0,0,0-.63-.24,1.29,1.29,0,0,1-.61.27l0,0c0-.17,0-.37.21-.41a1.43,1.43,0,0,0-.89,0c-.07.18-.27.34-.26.56a2.94,2.94,0,0,1-.39.45,3.78,3.78,0,0,1,.21-1c-.21.08-.42.19-.63.29a10,10,0,0,0-1-.53s-.11,0-.09,0c.3.22.18.63.21,1L57.2.83c-.09-.24-.36-.41-.41-.67A3.35,3.35,0,0,0,56,.43l0,0a.64.64,0,0,1,.51.35,7.52,7.52,0,0,1-1-.15s-.06-.07-.11-.06a1.44,1.44,0,0,0-.45.29A3,3,0,0,0,54.13,2a.84.84,0,0,1,.33.08c-.18.11-.34.29-.51.4a3.92,3.92,0,0,0-.06.78,3.17,3.17,0,0,0-.41.62,9.14,9.14,0,0,0-.32,3c-.1.09-.22.14-.31.21v1h0c0-.21.28-.32.42-.45h0c0,.21,0,.43-.06.65L53,8.47c-.27.24,0,.6-.06.9,0,.08,0,.19.09.21a1,1,0,0,1,.2-.3c.11,0,.22-.12.32-.14a6.2,6.2,0,0,1-.23.69l-.14.11a.36.36,0,0,0-.1.18A21,21,0,0,0,54,13.36c-.26.43-.4.94-.62,1.39,0,.06,0,.13-.08.19a16.31,16.31,0,0,1-.55,1.67,1.83,1.83,0,0,0-.34-.18,1.4,1.4,0,0,0-1.46.33,1.26,1.26,0,0,0-.92.16,1.3,1.3,0,0,0-.41.5,1.12,1.12,0,0,0-.07.45,1.07,1.07,0,0,0-.39.59,1.87,1.87,0,0,0,.36,1.42Z"/><path id="path157" class="cls-3" d="M79.46,10c-.1-.29-.21-.57-.33-.83A8.6,8.6,0,0,0,76.2,5.44a6,6,0,0,1-1.93-2c-.24-.22-.47-.5-.78-.55a1,1,0,0,1,.2.44v0A1.12,1.12,0,0,1,72.87,3l.25-.23c-.1,0-.21-.06-.31-.09a7,7,0,0,0-2.55.54l0,.05c.52.23.62.79.92,1.17.08-.09.2,0,.31,0s.29.12.43.08a1.31,1.31,0,0,0-.09-.34c.09,0,.2,0,.3,0,.27.16.7,0,.87.34a5.17,5.17,0,0,0-.89.15c0,.12.14.21.13.33a3,3,0,0,0-.79-.2v0a2.67,2.67,0,0,0,1.32.8c.71.16,1.33-.17,2-.06A7.84,7.84,0,0,1,78.47,9.7l.09.24a8.11,8.11,0,0,1,.1,5,6.19,6.19,0,0,1-1.07,1.82,3.9,3.9,0,0,1-.62.6,2.76,2.76,0,0,1-2.45.54c-.06,0-.17-.05-.15-.14s.06-.27.08-.4A9.74,9.74,0,0,0,74.63,15v-.1a8.9,8.9,0,0,0-.71-3.2,10.88,10.88,0,0,0-1-1.76A4.14,4.14,0,0,0,71,8.36a1.42,1.42,0,0,0-1.42.25,1,1,0,0,0-.33.86,3,3,0,0,1-1.35.44c-.12,0-.24.05-.37.05a1.94,1.94,0,0,1-.34,0,3.46,3.46,0,0,1-1.65-.75c0-.24,0-.47,0-.73a.88.88,0,0,1-.5-.69l0,0a2,2,0,0,1,.41.2,3.13,3.13,0,0,0-.31-1,4.4,4.4,0,0,1-.5-.21.77.77,0,0,1-.32-.54c.16.16.45.1.57.27a9.41,9.41,0,0,0-.58-2c-.19-.44-.66-.64-1-1-.13-.16-.18-.37-.41-.4s-.2-.25-.23-.39c.12,0,.22.1.31.11a3.52,3.52,0,0,0-1.24-2l-.12.08a8.69,8.69,0,0,1-.88.07,1.15,1.15,0,0,1,.53-.35A1.21,1.21,0,0,0,60.69.4a1.28,1.28,0,0,1-.61.26l0,0c0-.16,0-.37.21-.41a1.43,1.43,0,0,0-.89,0c-.07.18-.27.34-.26.56a2.94,2.94,0,0,1-.39.45,3.87,3.87,0,0,1,.21-1c-.21.08-.42.19-.63.29a10,10,0,0,0-1-.53s-.11,0-.09,0c.3.22.18.63.21,1L57.2.83c-.09-.24-.36-.41-.41-.67A3.35,3.35,0,0,0,56,.43l0,0a.64.64,0,0,1,.51.35,6.06,6.06,0,0,1-1-.15s-.06-.07-.11-.06a1.44,1.44,0,0,0-.45.29A3,3,0,0,0,54.13,2a.84.84,0,0,1,.33.08c-.18.11-.34.29-.51.4a3.92,3.92,0,0,0-.06.78,3.5,3.5,0,0,0-.41.62,9.14,9.14,0,0,0-.32,3c-.1.09-.22.14-.31.21v1h0c0-.21.28-.32.42-.45h0c0,.21,0,.43-.06.65L53,8.47c-.27.24,0,.6-.06.9,0,.08,0,.19.09.21a1,1,0,0,1,.2-.3c.11,0,.22-.12.32-.14a5.58,5.58,0,0,1-.23.69l-.14.11a.41.41,0,0,0-.1.18A21,21,0,0,0,54,13.36c-.26.43-.4.94-.62,1.39,0,.06,0,.13-.08.19a15.54,15.54,0,0,1-.55,1.67,1.83,1.83,0,0,0-.34-.18,1.4,1.4,0,0,0-1.46.33,1.13,1.13,0,0,0-1.33.67,1,1,0,0,0-.07.44,1.07,1.07,0,0,0-.39.59,1.87,1.87,0,0,0,.36,1.42h8.26a3.46,3.46,0,0,1-.32-.52c-.17-.27-.05-.64-.07-.95.17-.34.34-.68.53-1l.12-.2.38-.15c.2,0,.37-.14.56-.09.25.26.25-.26.5-.28a1.43,1.43,0,0,1,1.48.47c0,.07.11.07.08.13s-.14,0-.22,0c-.36-.08-.77-.31-1.12-.11,0,.09,0,.17,0,.25a1.27,1.27,0,0,0,0,.26,1.4,1.4,0,0,1,.59.41,1,1,0,0,1,.58-.41,1.52,1.52,0,0,1,.57.17c.29.27.14.74.12,1.08.26.15.56.23.83.38a1.32,1.32,0,0,1-.45.21l-.45-.08s-.14,0-.16-.11a2.21,2.21,0,0,0-.42.58h6.4a3.35,3.35,0,0,0-.3-.52,2.58,2.58,0,0,1-.09-1l.59-.91a5.2,5.2,0,0,1,1-.07l.06,0c.14-.1.19-.33.41-.3a1.2,1.2,0,0,1,1,.24.16.16,0,0,1,0,.06c-.12.2-.35,0-.52,0s0,.16,0,.25-.06.07-.1.09a.35.35,0,0,1-.29-.09s0-.05,0-.06a1.82,1.82,0,0,0-.24.43c.11.1.26.2.31.33s-.09.27-.12.41-.06,0-.07,0-.19-.2-.29-.16c-.1.42,0,.83,0,1.25a4,4,0,0,0,.6,0l.08-.88a2.86,2.86,0,0,1,.81-1.48c.43-.29.71.28,1,.48.05,0,0,.07.05.1s-.1.13-.17.16-.34-.14-.46-.27a2.37,2.37,0,0,1-.3.39l0,0a.93.93,0,0,1,.34.52.57.57,0,0,1-.28.46,4.49,4.49,0,0,1-.31-.67l0,0c-.25.07-.32.36-.36.6s-.16.32-.12.55h3.33a1.86,1.86,0,0,0,1.06-.32,4.87,4.87,0,0,0,3.49-.8,7.07,7.07,0,0,0,1.36-1.43,5.32,5.32,0,0,0,.77-1.42,8.25,8.25,0,0,0,.3-1A9.49,9.49,0,0,0,79.46,10Z"/><path id="path159" class="cls-3" d="M58,18.61c.18-.12.48-.15.52-.42a.79.79,0,0,0-.23-.14l-.19.05c0-.11.08-.23.11-.36l.62-.2a4.72,4.72,0,0,0-.14,1,3.26,3.26,0,0,0,.37,1.38h-.67c-.07-.44-.53-.76-.39-1.27Z"/><path id="path161" class="cls-3" d="M59.45,18.05h0l.45.4H60c0,.48-.06.94-.06,1.44h-.49a5.79,5.79,0,0,1-.24-1.45,2,2,0,0,1,.24-.38Z"/><path id="path163" class="cls-3" d="M60.45,18.5c.09-.12.13-.32.31-.34a.44.44,0,0,1,.33.11c.17.21,0,.47-.05.67a9.31,9.31,0,0,1-.28.94h-.47l.16-1.38Z"/><path id="path165" class="cls-3" d="M67.54,18.35c.1.13.14.31.29.43a.86.86,0,0,0,.1-.72l-.13-.13a4.51,4.51,0,0,1,.53-.09,2,2,0,0,0-.2.76c0,.42.08.84.12,1.28h-.52a3,3,0,0,1-.36-1.28,1.56,1.56,0,0,1,.17-.25Z"/><path id="path167" class="cls-2" d="M69.75,9.38c0,.13-.09.26,0,.36.11-.12.3-.12.45-.17a3.76,3.76,0,0,1,1.2.18c-.1-.15-.17-.32-.28-.46s-.54.09-.57-.23c-.13-.11-.34,0-.48,0a1.12,1.12,0,0,0-.31.34Z"/><path id="path169" class="cls-2" d="M55.47,5.35h0Z"/><path id="path171" class="cls-2" d="M57.17,9.5l.28-.27.06,0,0,.52A.74.74,0,0,0,58,10c0-.14.13-.24.19-.36s0-.24.12-.31l0,0a1.35,1.35,0,0,0,.1.46c0,.08,0,.17,0,.24A1.12,1.12,0,0,0,59,9.88a1.93,1.93,0,0,1,.08-.48c0-.06-.06-.16.06-.15s.18.28.25.43a1.87,1.87,0,0,0,.45-1c-.08-.11-.2-.11-.3-.18A3.59,3.59,0,0,0,57,8.58,1.2,1.2,0,0,0,57.17,9.5Z"/><path id="path173" class="cls-2" d="M49.74,18.26a7.33,7.33,0,0,0,0,1,.49.49,0,0,0,.34.26l0-.23c0-.34-.12-.69.06-1a2.59,2.59,0,0,1,.38.17.85.85,0,0,0-.32-.86Z"/><path id="path175" class="cls-2" d="M50.9,17.76a2.75,2.75,0,0,0-.1,1.79,1.64,1.64,0,0,0,.37-.28A2,2,0,0,1,51.35,18a.83.83,0,0,1,.47.5.86.86,0,0,0,.14-.72c0-.21-.22-.16-.33-.25s0-.37.21-.47l-.56.06A2.58,2.58,0,0,0,50.9,17.76Z"/><path id="path177" class="cls-2" d="M52.05,19.37s0,.12.05.13c.07-.4.39-.65.56-1,.08-.11.08-.28.22-.37s.31.14.49.15,0,.08,0,.13a4.54,4.54,0,0,0-.13.9h0a4.44,4.44,0,0,0,.6-.84l0-.26c0-.32-.3-.53-.53-.66l.2-.26-.28-.09a1.26,1.26,0,0,0-.85.42,3.86,3.86,0,0,0-.35,1.75Z"/><path id="path179" class="cls-2" d="M53.31,16.6c.11,0,.21-.06.31,0a2.82,2.82,0,0,1,1.2.68l.39,1,.19-.61-.13-.32c-.11-.24-.4-.22-.6-.23s0-.2,0-.29c.1-.33-.31-.31-.47-.44,0-.2-.23-.13-.37-.15l0-.06s-.09,0-.13,0,0,0,0,0l-.1,0a.62.62,0,0,0-.25.48Z"/><path id="path181" class="cls-2" d="M53.58,15.53a.23.23,0,0,0,.1.15c.21,0,.41-.2.65-.11a3.72,3.72,0,0,0,1,.72l.14,0c.08,0,.17,0,.23.13s-.08.2-.12.3c.21.16.13.43.26.62l.33-.45c-.08-.2,0-.53-.3-.55a.3.3,0,0,1-.17-.27c-.2-.18-.45-.26-.65-.45s-.26-.33-.47-.38a1.86,1.86,0,0,0-.47-.16C53.81,15,53.79,15.38,53.58,15.53Z"/><path id="path183" class="cls-2" d="M54,14.61l.06.09c.23,0,.44-.12.67-.12s.35.09.51.17a1.91,1.91,0,0,0,.45.49c.38,0,.59.46.72.76v-.15a1.06,1.06,0,0,0-.08-.61A2.52,2.52,0,0,0,56,15c0-.06,0-.09,0-.15a4.22,4.22,0,0,0-.54-.36c-.25-.36-.72-.26-1.1-.36l-.38.48Z"/><path id="path185" class="cls-2" d="M54,11.18c0,.15.09.33.12.48.13-.29.39-.42.62-.65a1.07,1.07,0,0,0-.44-.16h0C54.22,10.94,54.06,11,54,11.18Z"/><path id="path187" class="cls-2" d="M54.87,12.72l.21-.22a1.37,1.37,0,0,0,.42-.73.6.6,0,0,0-.49,0,4.63,4.63,0,0,0-.14.93Z"/><path id="path189" class="cls-2" d="M55,13.38a1.43,1.43,0,0,0,.9-.1l.26-.84a.67.67,0,0,0-.24,0A2.08,2.08,0,0,1,55,13.38Z"/><path id="path191" class="cls-2" d="M55.12,10.4a1.87,1.87,0,0,0,.92.75c0-.39-.38-.66-.55-1V10A1.85,1.85,0,0,0,55,9.75a2.36,2.36,0,0,0,.08.65Z"/><path id="path193" class="cls-2" d="M56.26,13.41a1.54,1.54,0,0,0,.74-.07c.33-.08.51-.44.63-.72h-.42l-.45.43a5.74,5.74,0,0,0-.5.36Z"/><path id="path195" class="cls-2" d="M56.21,10a2.67,2.67,0,0,0,.43,1l.06-.69Z"/><path id="path197" class="cls-2" d="M57.74,11.79a3.14,3.14,0,0,0-.1-.74c-.14-.1-.33-.09-.48-.18A1.38,1.38,0,0,0,57.74,11.79Z"/><path id="path199" class="cls-2" d="M57.31,14.16a4.22,4.22,0,0,0,.85-.35c.18-.24.44-.47.48-.76-.22.06-.41,0-.61.09a1.48,1.48,0,0,1-.43.63C57.57,13.93,57.39,14,57.31,14.16Z"/><path id="path201" class="cls-2" d="M57.77,14.73l.35.46a.76.76,0,0,0,.59-.06l-.13-.42A1.58,1.58,0,0,1,57.77,14.73Z"/><path id="path203" class="cls-2" d="M58.36,11.43l.13.62A1.27,1.27,0,0,0,58.88,11a1.44,1.44,0,0,1-.52.45Z"/><path id="path205" class="cls-2" d="M59.28,12.52a.4.4,0,0,0,.07.24c.37.13.41.57.74.74a.83.83,0,0,0,.67-.11c-.15-.16-.31-.28-.45-.45s-.2-.1-.19-.22l-.84-.2Z"/><path id="path207" class="cls-2" d="M59.57,14.72a1.06,1.06,0,0,0,.59.33c0-.05,0,0,0,0l-.28-.61c-.14,0-.29,0-.42,0A1,1,0,0,0,59.57,14.72Z"/><path id="path209" class="cls-2" d="M60.06,11.85a3.88,3.88,0,0,1-.22-1c-.14.17-.29.27-.42.44C59.36,11.63,59.86,11.71,60.06,11.85Z"/><path id="path211" class="cls-2" d="M60.63,11.53c.17.22.54.14.74.08-.09-.17-.41-.27-.47-.45a3.58,3.58,0,0,0-.2-.93A1.34,1.34,0,0,0,60.63,11.53Z"/><path id="path213" class="cls-2" d="M60.92,12.52a2,2,0,0,0,1.58.59s.13,0,.14-.09c-.19-.12-.4-.21-.59-.33l-.23-.32h-.1a4.93,4.93,0,0,1-.8.15Z"/><path id="path215" class="cls-2" d="M60.93,16.3h0a2.51,2.51,0,0,1,.94-.39c.09,0,0,.13.11.17s.45-.07.65-.14a1.51,1.51,0,0,1,.65.12c.16.21.46.19.67.33l0-.33a2.08,2.08,0,0,0-1.73-.53l0-.07a1.06,1.06,0,0,0-.46.1,2.41,2.41,0,0,0-.58.17C61.07,15.91,61,16.12,60.93,16.3Z"/><path id="path217" class="cls-2" d="M61.31,10.57a.8.8,0,0,0,.76.36.9.9,0,0,1-.35-.54c.05-.42-.41-.45-.63-.66A2.67,2.67,0,0,0,61.31,10.57Z"/><path id="path219" class="cls-2" d="M61.26,17.13h.06c.24-.16.6,0,.85-.2s.14.11.24.17.25.56.58.46c.38.2.29.67.3,1l.36-.22c0-.18.07-.4,0-.56s-.33-.22-.45-.38c.14-.24-.17-.35-.24-.52l0,0,.5.07a.82.82,0,0,1,.28.46c.38.07.48.5.61.78.08-.19.11-.39.19-.58s-.2-.15-.3-.22a.84.84,0,0,0-.35-.61,4.94,4.94,0,0,0-1.28-.35l-.39.13c-.21.05-.44,0-.61.13S61.32,17,61.26,17.13Z"/><path id="path221" class="cls-2" d="M61.51,15.21l.09,0c.19-.09.38-.19.58-.27s.56.27.82,0c.1-.07.18,0,.26.09.11.21.37.19.57.25-.1-.27-.22-.63-.56-.67a3.09,3.09,0,0,1-.43-.14c-.36-.39-.59.33-1,.15C61.72,14.86,61.54,15,61.51,15.21Z"/><path id="path223" class="cls-2" d="M61.6,17.48c.15.12.3.34.54.31.29.14.16.52.32.72l.17-.15h0l0,0h0a.86.86,0,0,0-.1-.55c-.11-.07-.23,0-.34-.07s-.1-.22-.21-.31-.17,0-.26,0Z"/><path id="path225" class="cls-2" d="M62.18,11.79a2.6,2.6,0,0,0,.69.59,1.19,1.19,0,0,0,.67.07A4.08,4.08,0,0,1,63,11.9c-.07-.09-.08-.21-.17-.29a1.26,1.26,0,0,0-.64.18Z"/><path id="path227" class="cls-2" d="M62.44,10.12c.21.26.55.16.85.17v0l-.47-.39A1.17,1.17,0,0,0,62.44,10.12Z"/><path id="path229" class="cls-2" d="M53.84,5.72l.27.84c0-.48.22-.88.17-1.36l.2-.3L54.05,5A1.64,1.64,0,0,0,53.84,5.72Z"/><path id="path231" class="cls-2" d="M54,4.26l.37-.21V3.5a1.86,1.86,0,0,0-.36.38Z"/><path id="path233" class="cls-2" d="M61.6,5.11a.49.49,0,0,1-.34.17A1.61,1.61,0,0,0,61.4,4a1.28,1.28,0,0,0,.31-.11h0L62,3.67c.34-.24.21-.68.33-1-.16-.26-.21-.58-.46-.8h0c-.2-.24-.54-.21-.8-.33s-.61.12-.86.28S60.15,2,60,2a3.24,3.24,0,0,0-.19.55,1.88,1.88,0,0,0-1.33.25,2,2,0,0,0-.67-.24c-.17,0-.36,0-.48-.07s-.21-.56-.52-.61c-.11,0-.13-.16-.13-.26a5.36,5.36,0,0,1-.57-.17c-.3-.13-.54.08-.76.23a1.92,1.92,0,0,0-.31.11,4.27,4.27,0,0,0-.43.82,1.79,1.79,0,0,0,.25.65,1.35,1.35,0,0,0,.73.66,2.86,2.86,0,0,0,0,1.48h0l0,0a.3.3,0,0,1-.13,0h0a2,2,0,0,0,.61,1.17c.12.05.09.19.15.28a.26.26,0,0,1,0,.17,3.69,3.69,0,0,0-2,.49c-.15.08-.09.28-.1.43a3.61,3.61,0,0,1,1.34-.56,1.78,1.78,0,0,1,.65,0l0,.4a5.93,5.93,0,0,0-1.64.93,2.1,2.1,0,0,0,0,.44L55,8.74A5,5,0,0,1,56.33,8a1.76,1.76,0,0,0,.42.4,3.26,3.26,0,0,1,.92-.4c.18-.1.45,0,.57-.21l.07-.43s0,0,0,0a.66.66,0,0,1-.35-.61.52.52,0,0,1-.25.07c-.07,0-.14,0-.17-.11s0-.24,0-.31a1.85,1.85,0,0,1,1.08-.16c.28,0,.69,0,.79.36,0,.09,0,.2-.1.27s-.22,0-.31,0a.79.79,0,0,1-.46.56l0,.27c0,.12,0,.32.24.28A4.41,4.41,0,0,1,60,8.48a4,4,0,0,0,.33-.41A6.08,6.08,0,0,1,62.22,9.3l0-.39a6.41,6.41,0,0,0-1.77-1.09c0-.12.05-.25.06-.38a4.52,4.52,0,0,1,2,.63V7.73a4.67,4.67,0,0,0-2.12-.58.26.26,0,0,1,0-.15,1,1,0,0,0,.73-.78c.19-.22.47-.46.4-.78l0-.09a.33.33,0,0,0,0-.24Z"/><path id="path235" class="cls-2" d="M62.25,6.31l.38-.12,0-.22c.11-.31-.12-.54-.23-.79Z"/><path id="path237" class="cls-2" d="M63.22,7.79c.18.2.36.52.68.42a2.87,2.87,0,0,0-.15-.37c-.08-.09-.11-.37-.28-.27a1.31,1.31,0,0,1-.24-.34,3.49,3.49,0,0,0,0,.56Z"/><path id="path239" class="cls-2" d="M63.28,9.16c.07.09.09.22.16.31a.82.82,0,0,0,.47.06c.14,0,.23.12.36,0-.17-.1-.26-.29-.42-.43S63.47,9.12,63.28,9.16Z"/><path id="path241" class="cls-2" d="M63.53,11.33a1.77,1.77,0,0,0,1.16.31s.13,0,.14-.07a7.18,7.18,0,0,0-.83-.42c-.15-.24-.35.06-.55,0C63.45,11.25,63.51,11.29,63.53,11.33Z"/><path id="path243" class="cls-2" d="M64.5,15.45l.07.15c.07.48.38.93.21,1.46.14.1.18.26.27.4h0a3,3,0,0,0,0-1.24c0-.37-.33-.58-.55-.77Z"/><path id="path245" class="cls-2" d="M64.58,10.67a1,1,0,0,0,.91.11,3.06,3.06,0,0,1-.52-.33Z"/><path id="path247" class="cls-2" d="M65.73,12.1a.52.52,0,0,0,.25.46,1.19,1.19,0,0,0,.15-.35.88.88,0,0,0-.34-.51,1.29,1.29,0,0,0-.06.4Z"/><path id="path249" class="cls-2" d="M65.75,14.23c0,.22.21.25.31.37s-.06.17-.06.27a1.25,1.25,0,0,1,.28.79,7.55,7.55,0,0,0,.22-.85c0-.2-.35-.16-.3-.39a1,1,0,0,0-.07-.67s-.07-.1-.1-.08C65.94,13.86,65.73,14,65.75,14.23Z"/><path id="path251" class="cls-2" d="M66.39,13.12l.24.47c.11,0,.18-.12.26-.19s-.11-.32-.16-.48,0-.26-.08-.36-.13-.1-.2-.08l-.06.64Z"/><path id="path253" class="cls-2" d="M66.7,11.88a1.27,1.27,0,0,1,.51.49c.17.47.43.9.62,1.36s.13.61.21.93c0,.09,0,.25.15.23a9.05,9.05,0,0,0,.11-1.06,1.35,1.35,0,0,0-.41-.31v0c0-.08.08-.18.18-.16s.17-.1.11-.18c-.24-.24-.23-.66-.62-.74-.13-.05-.16-.19-.18-.32a1,1,0,0,0-.68-.21Z"/><path id="path255" class="cls-2" d="M66.92,14.41c.24.22.16.53.14.83s.19.07.26.17a1,1,0,0,1,0,.76c.12-.2.27-.36.37-.57s.09-.12.09-.22-.12-.07-.18-.09-.12,0-.1-.12a1.14,1.14,0,0,0,0-.75c0-.19,0-.45-.06-.62C67.26,14,66.81,14.06,66.92,14.41Z"/><path id="path257" class="cls-2" d="M67.36,11.09c.42.42.72.85,1.17,1.25a4.41,4.41,0,0,0,0-.52,1.1,1.1,0,0,0-.29-.32c-.33,0-.5-.48-.85-.41Z"/><path id="path259" class="cls-2" d="M68.45,13.32s0,.08,0,.12a5.91,5.91,0,0,1,.49.93c0-.35.19-.78-.12-1,0-.12-.18-.08-.27-.07l-.14.06Z"/><path id="path261" class="cls-2" d="M69.57,16.73c.13.06.3-.05.42-.12a.38.38,0,0,1,.31.09c0,.08,0,.15,0,.22a2.84,2.84,0,0,1,.8.34l.08-.08c0-.2-.14-.34-.29-.45s-.24,0-.31-.11a.45.45,0,0,0,0-.28.61.61,0,0,1-.37-.12c-.08,0-.15-.09-.22,0-.23.16-.25.4-.47.51Z"/><path id="path263" class="cls-2" d="M69.9,10.85a.76.76,0,0,0,.33-.15c.32-.28.77-.09,1.13-.09a2.53,2.53,0,0,0-.25-.36,1.21,1.21,0,0,0-.41-.12c-.31-.18-.53.13-.77.28a.49.49,0,0,0,0,.44Z"/><path id="path265" class="cls-2" d="M69.9,11.82s0,0,0,0,0,.13.06.15a2.12,2.12,0,0,0,.35-.23c.31,0,.5-.3.81-.3a4.65,4.65,0,0,1,1.47.45,1,1,0,0,0-.56-.72.37.37,0,0,0-.37.12c-.32.19-.15-.29-.37-.3a2.28,2.28,0,0,1-.9.16c-.19.07-.32.24-.53.22A1.33,1.33,0,0,0,69.9,11.82Z"/><path id="path267" class="cls-2" d="M70.12,12.86c.1.1.26.08.4.1l.41-.16c0-.07-.12-.09-.1-.18s.27,0,.41-.09.4-.22.59-.08c0,0,0,.06,0,.08s.05.24.16.29.44.26.67.16a3.37,3.37,0,0,0-.12-.55c-.19,0-.33-.19-.5-.26a.43.43,0,0,1-.28.13c-.36-.09-.8-.31-1.16-.08-.13.16-.36.11-.54.18A2.32,2.32,0,0,0,70.12,12.86Z"/><path id="path269" class="cls-2" d="M70.27,15.63c0,.08-.1.21,0,.25.3,0,.68-.15.92.09.08.06,0,.18,0,.26l.4.33a3.84,3.84,0,0,0,.11-.59.68.68,0,0,0-.24-.39c-.26,0-.41-.3-.68-.26s-.27.1-.42.1-.1.14-.16.21Z"/><path id="path271" class="cls-2" d="M70.39,13.43c.06.13.13.33.24.34a1.35,1.35,0,0,1,1-.06c.1,0,.1.13.08.21.16.09.35.17.52.27l0-.28c0-.3-.39-.33-.41-.63a1.89,1.89,0,0,0-1-.06.78.78,0,0,1-.39.12s0,.06,0,.09Z"/><path id="path273" class="cls-2" d="M70.47,14.94c.18,0,.3-.25.49-.27a.91.91,0,0,1,.75.39c.12.07.09.26.24.26a3.75,3.75,0,0,1,0-.67c-.2-.33-.68-.08-.86-.46l-.35,0c-.25.07-.18.35-.21.55s-.09.11-.08.18Z"/><path id="path275" class="cls-2" d="M72.18,17c.15.29.46.51.5.84a1.38,1.38,0,0,0,.17-.29c0-.09-.11-.09-.15-.16a.65.65,0,0,1,0-.34.93.93,0,0,0-.37-.44l-.19.39Z"/><path id="path277" class="cls-2" d="M72.76,16.25l.33.45a1.14,1.14,0,0,0,.09-.84s-.09-.13-.18-.09S72.86,16.1,72.76,16.25Z"/><path id="path279" class="cls-2" d="M71.39,3.47a1,1,0,0,0,.38.13.52.52,0,0,1,.35-.06c.17.11.38,0,.58,0a2.27,2.27,0,0,0-.58-.37C71.85,3.21,71.64,3.4,71.39,3.47Z"/><path id="path281" class="cls-2" d="M73.21,3.91c.25,0,.43.24.6.42a.9.9,0,0,1,.49.34l-.08-.25a1.44,1.44,0,0,0-.37-.63A1.73,1.73,0,0,0,73.21,3.91Z"/><path id="path283" class="cls-3" d="M55.78,1.86l.13,0c.37.18,1,.27,1,.8a2.75,2.75,0,0,0-1,.64c-.22-.23-.68-.1-.75-.51S55.33,2,55.78,1.86Z"/><path id="path285" class="cls-3" d="M56.13,4.23c.42,0,.83,0,1.27,0a.55.55,0,0,1,.27.25c0,.51-.16,1-.19,1.5a.67.67,0,0,0-.42.45,3.8,3.8,0,0,0-.5.24.51.51,0,0,1,.07-.53c.19-.26.66-.2.62-.6.12-.2,0-.45,0-.66s-.09,0-.17,0a.63.63,0,0,1-.43,0c-.1-.11-.22-.19-.25-.33a.79.79,0,0,1-.35-.3l.07,0Z"/><path id="path287" class="cls-3" d="M56.64,7.27c.2,0,.41-.06.59,0a.38.38,0,0,1-.22.11l-.31.15C56.58,7.54,56.65,7.35,56.64,7.27Z"/><path id="path289" class="cls-3" d="M57.46,3.37c.2-.06.42-.2.63-.13a3.11,3.11,0,0,0-.39.54h-.64A1,1,0,0,1,57.46,3.37Z"/><path id="path291" class="cls-3" d="M59.33,3.22c.27-.05.25.3.5.31,0,.06.1.11.08.19a3.92,3.92,0,0,1-.51.07c-.21-.12-.07-.48-.4-.46,0,0-.06-.08,0-.1A.78.78,0,0,1,59.33,3.22Z"/><path id="path293" class="cls-3" d="M59.17,4.47a.62.62,0,0,1,.46-.21l1.21,0s-.05.09-.05.15-.18.09-.25.15-.14.19-.25.27-.43.1-.63.07a.49.49,0,0,1-.18-.2l-.06,0c.07.27,0,.56.11.82l.29.19c0,.43.5.31.72.55a1.23,1.23,0,0,1-.26.42,1.55,1.55,0,0,0-.6-.36c0-.25-.29-.4-.44-.53-.05-.46-.06-.92-.13-1.37Z"/><path id="path295" class="cls-3" d="M59.6,7.35h.57l-.07.29-.57-.23s0-.06.07-.06Z"/><path id="path297" class="cls-3" d="M60.61,2.06,61,1.93a4,4,0,0,1,.68.41,1.66,1.66,0,0,1,.07,1.1c-.13.14-.41,0-.51.23h0a2,2,0,0,0-1-1,.9.9,0,0,1,.36-.58Z"/></g></g></g></g></svg>