<svg id="Layer_1" data-name="Layer 1" xmlns="http://www.w3.org/2000/svg" viewBox="0 0 80 14"><defs><style>.cls-1{fill:#314a9f;}.cls-1,.cls-2{fill-rule:evenodd;}.cls-2{fill:#00a64f;}</style></defs><title>interbank</title><path class="cls-1" d="M10,57H22.4a1.71,1.71,0,0,0,1.7-1.8V43H11.7A1.71,1.71,0,0,0,10,44.8V57Zm3.3-2.2,7.4-1.3V45.8l-7.4,1.3v7.7Z" transform="translate(-10 -43)"/><path class="cls-2" d="M61.6,48.7c1.2,0,2.1,1,2.1,2.6S62.8,54,61.6,54a2.09,2.09,0,0,1-1.6-.8,2.62,2.62,0,0,1-.5-1.7,3.58,3.58,0,0,1,.4-1.9,2,2,0,0,1,1.7-.9Zm-2-3.7v3.4a3.34,3.34,0,0,1,3.4-.9c1.5.4,2.4,1.9,2.4,3.9a3.82,3.82,0,0,1-3.8,4.1,3.73,3.73,0,0,1-3.9-3.9V45Zm-3.4,2.1h.5v1.8h-.5a1.53,1.53,0,0,0-1,.4,1.28,1.28,0,0,0-.4,1h0v5H53v-5h0A3.26,3.26,0,0,1,54,48a2.79,2.79,0,0,1,2.2-.9Zm-7.1,5.1H46.5c0,.1.1.2.1.3a2.37,2.37,0,0,0,1.8,1.4H49a4,4,0,0,0,1.9-.5,4.74,4.74,0,0,1,0,1.2c-.2.8-1.5.8-2,.8h-.5a.9.9,0,0,1-.5-.1h0a3.93,3.93,0,0,1-3.2-4.2h0a3.91,3.91,0,0,1,2.6-3.7h0a3.43,3.43,0,0,1,3.3.7,1,1,0,0,1,.4.5c.1.2.2.3.3.5h0a2.28,2.28,0,0,1,.3,1.1,1.5,1.5,0,0,1-.4,1.1,1.56,1.56,0,0,1-.8.6h0a2.27,2.27,0,0,1-1.3.3Zm-2.7-1.3h2.7c.6,0,1.3-.3,1-1.1h0c0-.1-.1-.2-.1-.3s-.1-.2-.2-.3a2,2,0,0,0-1.9-.5h0c-.1,0-.2.1-.4.2s-.2.1-.3.2a3.36,3.36,0,0,0-.8,1.8ZM41.7,45v2.1h3l-.1.7c-.1.6-.4.8-1.1.8H41.7v3.9h0V53a.89.89,0,0,0,1,.8,3.85,3.85,0,0,0,1.9-.2c.1.7,0,1.5-.4,1.7a7.77,7.77,0,0,1-1.6.2,2.49,2.49,0,0,1-.8-.1,3.29,3.29,0,0,1-1.3-.7,2.74,2.74,0,0,1-.6-2.1h0V45Zm-7.1,2.1h.7a3.64,3.64,0,0,1,2.3.9,3.26,3.26,0,0,1,1,2.3h0v5H36.8v-5h0a1.53,1.53,0,0,0-.4-1,1.28,1.28,0,0,0-1-.4h-.7a1.53,1.53,0,0,0-1,.4,1.28,1.28,0,0,0-.4,1h0v5H31.5v-5h0a3.26,3.26,0,0,1,1-2.3,2.34,2.34,0,0,1,2.1-.9Zm-6.8-2.2h1.8V55.4H27.8V44.9Zm49.5,2.2h.6a3.64,3.64,0,0,1,2.3.9,3.26,3.26,0,0,1,1,2.3h0v5H79.4v-5h0a1.53,1.53,0,0,0-.4-1,1.28,1.28,0,0,0-1-.4h-.6a1.53,1.53,0,0,0-1,.4,1.28,1.28,0,0,0-.4,1h0v5H74v-5h0A3.26,3.26,0,0,1,75,48a3.17,3.17,0,0,1,2.3-.9Zm5.4-2.2h1.8V55.4H82.7V44.9Zm6.9,2.5H87.8l-3.3,3.7,3.7,4.2H90l-3.7-4.2,3.3-3.7ZM71.2,51.8H70a5.42,5.42,0,0,0-1.5.2.94.94,0,0,0-.6.8h0v.1h0a1,1,0,0,0,.9,1.2h0a3,3,0,0,0,1.7-.2,1.32,1.32,0,0,0,.7-1V51.8Zm-2.3-4.7a3.25,3.25,0,0,1,3.5,1.5,5.77,5.77,0,0,1,.3,1.4v2.4a2.89,2.89,0,0,1-2.9,3.1c-2.1.1-3.6-1-3.4-2.9.1-1.4,1.3-1.9,2.6-2a16.08,16.08,0,0,0,2.2,0,3.73,3.73,0,0,0-.2-1.2,1.17,1.17,0,0,0-.6-.6,3.64,3.64,0,0,0-1.5-.2,3.29,3.29,0,0,0-1.8.5v-.7a1.7,1.7,0,0,1,.1-.7c.2-.4,1.2-.5,1.7-.6Z" transform="translate(-10 -43)"/></svg>