<svg xmlns="http://www.w3.org/2000/svg" viewBox="0 0 80 22.4"><defs><style>.cls-1{fill:#ed2024;}.cls-2{fill:#fff;}</style></defs><title>iSantander</title><g id="Layer_2" data-name="Layer 2"><g id="iSantander"><rect id="_Path_" data-name="&lt;Path&gt;" class="cls-1" width="80" height="22.4"/><path id="_Path_2" data-name="&lt;Path&gt;" class="cls-2" d="M12.6,4.25c0,1.53,2.6,3.22,2.6,5a1,1,0,0,1-.07.34c2.42.51,4.14,1.7,4.14,3.09,0,1.88-3.06,3.41-6.86,3.43,0,0-.05,0-.07,0-3.76,0-6.81-1.49-6.81-3.36,0-1.39,1.86-2.52,4.11-3.12,0,.77,2.56,3.21,2.62,4.19,0,0,0,.09,0,.18a.76.76,0,0,1,0,.15c.55-.29.55-1.19.55-1.19,0-2.14-2.49-3.09-2.49-5.19a1.81,1.81,0,0,1,.73-1.59v.59c0,1.53,2.7,3.23,2.7,4.63v.45c.62-.24.62-1.38.62-1.38,0-1.92-2.5-3-2.5-5.19a1.81,1.81,0,0,1,.73-1.59v.59"/><path id="_Path_3" data-name="&lt;Path&gt;" class="cls-2" d="M24.74,15.49a6.68,6.68,0,0,1-2.26-.38V12.84h.32A2.32,2.32,0,0,0,24.93,15c1.05,0,1.78-.58,1.78-1.49s-1-1.42-1.62-1.74l-.94-.47a2.53,2.53,0,0,1-1.61-2.18c0-1.26.94-2.34,2.73-2.34a6.6,6.6,0,0,1,2.23.41v2h-.32a2,2,0,0,0-2-1.93,1.33,1.33,0,0,0-1.45,1.26c0,.83.57,1.2,1.25,1.53l.93.47a2.9,2.9,0,0,1,1.91,2.38c0,1.56-1.08,2.6-3.06,2.6"/><path class="cls-2" d="M30.79,13a1,1,0,0,0-.69.89.78.78,0,0,0,.8.82,1.84,1.84,0,0,0,1-.41V12.53L30.79,13m-.49,2.43A1.27,1.27,0,0,1,29,14.09c0-.57.42-1,1.34-1.35l1.62-.59v-.51c0-.75-.34-1.22-.87-1.22a1.07,1.07,0,0,0-.9.47.63.63,0,0,0-.09.38,1.13,1.13,0,0,0,.13.44l-.79.37a1.44,1.44,0,0,1-.22-.68c0-.05,0-.09,0-.13.06-.43.43-.72.93-1a2.41,2.41,0,0,1,1.22-.39,1.64,1.64,0,0,1,1.78,1.6V14c0,.4,0,.65.36.65a.64.64,0,0,0,.28,0l.29-.1v.36l-1.68.63a1.24,1.24,0,0,1-.42-.78A3.06,3.06,0,0,1,30.3,15.44Z"/><path id="_Path_4" data-name="&lt;Path&gt;" class="cls-2" d="M34.44,15.32V15l.39-.07a.48.48,0,0,0,.41-.47V11.28c0-.27-.13-.42-.37-.42a.72.72,0,0,0-.28.05l-.15.06v-.36l1.73-.75h.25v.89a2.39,2.39,0,0,1,1.7-.89,1.75,1.75,0,0,1,1.82,1.9v2.73a.48.48,0,0,0,.42.47l.41.07v.29H37.91V15L38.3,15a.51.51,0,0,0,.44-.47V11.77a1,1,0,0,0-1.06-1.16,2,2,0,0,0-1.24.56v3.32a.5.5,0,0,0,.43.47l.4.07v.29H34.44"/><path id="_Path_5" data-name="&lt;Path&gt;" class="cls-2" d="M44.91,10.6H43.23v3c0,.66.35,1,.85,1a1.77,1.77,0,0,0,.83-.23l.13.29L44,15.34a2.38,2.38,0,0,1-.32,0c-1,0-1.61-.61-1.61-1.91V10.6h-.88v-.3A3.58,3.58,0,0,0,43,8.55h.24v1.53h1.9l-.22.52"/><path class="cls-2" d="M47.43,13a1,1,0,0,0-.69.89.78.78,0,0,0,.8.82,1.84,1.84,0,0,0,1-.41V12.53L47.43,13m-.49,2.43a1.27,1.27,0,0,1-1.35-1.35c0-.57.42-1,1.35-1.35l1.62-.59v-.51c0-.75-.35-1.22-.88-1.22a1.07,1.07,0,0,0-.9.47.71.71,0,0,0-.08.38,1.13,1.13,0,0,0,.13.44l-.79.37a1.44,1.44,0,0,1-.22-.68c0-.05,0-.09,0-.13.06-.43.44-.72.94-1A2.35,2.35,0,0,1,48,9.86a1.63,1.63,0,0,1,1.78,1.6V14c0,.4,0,.65.36.65a.66.66,0,0,0,.29,0l.29-.1v.36L49,15.44a1.24,1.24,0,0,1-.42-.78,3.06,3.06,0,0,1-1.66.78Z"/><path id="_Path_6" data-name="&lt;Path&gt;" class="cls-2" d="M51.07,15.32V15l.4-.07a.48.48,0,0,0,.41-.47V11.28c0-.27-.13-.42-.37-.42a.72.72,0,0,0-.28.05l-.16.06v-.36l1.73-.75h.26v.89a2.37,2.37,0,0,1,1.7-.89,1.75,1.75,0,0,1,1.82,1.9v2.73A.48.48,0,0,0,57,15l.4.07v.29H54.54V15l.4-.07a.5.5,0,0,0,.43-.47V11.77a1,1,0,0,0-1-1.16,1.92,1.92,0,0,0-1.24.56v3.32a.5.5,0,0,0,.43.47l.4.07v.29H51.07"/><path class="cls-2" d="M61,10.37c-.87,0-1.76.55-1.76,2.16,0,1.35.68,2.16,1.73,2.16a1.29,1.29,0,0,0,1.13-.56V11a1.13,1.13,0,0,0-1.1-.64m-.54,5.07A2.51,2.51,0,0,1,58,12.77a2.87,2.87,0,0,1,2.89-2.91,3.14,3.14,0,0,1,1.24.23V7.34c0-.29-.15-.37-.35-.37a1,1,0,0,0-.33.06l-.24.08V6.75L63.05,6h.25v7.92c0,.45.08.72.4.72a.66.66,0,0,0,.29,0l.29-.1v.36l-1.69.63a1.3,1.3,0,0,1-.45-.79,2.33,2.33,0,0,1-1.68.79Z"/><path class="cls-2" d="M68.49,11.73v0c0-.9-.5-1.33-1.1-1.33s-1.18.44-1.32,1.36h2.42M66,12.22v.06c0,1.6.9,2.4,2,2.4a2.48,2.48,0,0,0,1.53-.54v.48a3.08,3.08,0,0,1-2.11.82,2.6,2.6,0,0,1-2.71-2.74,2.77,2.77,0,0,1,2.73-2.84,2.16,2.16,0,0,1,2.25,2.2v.16Z"/><path id="_Path_7" data-name="&lt;Path&gt;" class="cls-2" d="M70.46,15.32V15l.4-.07a.49.49,0,0,0,.41-.47V11.28c0-.27-.13-.42-.37-.42a.72.72,0,0,0-.28.05l-.16.06v-.36l1.71-.75h.25V11c.44-.84,1-1.19,1.54-1.19s.6.12.6.12v1.27h-.24a.59.59,0,0,0-.65-.5,1.24,1.24,0,0,0-1.2.8v3a.54.54,0,0,0,.47.47l.58.07v.29H70.46"/></g></g></svg>