<svg xmlns="http://www.w3.org/2000/svg" viewBox="0 0 80 79.91"><defs><style>.cls-1{fill:#2e3192;}.cls-1,.cls-2{fill-rule:evenodd;}.cls-2{fill:#fff200;}</style></defs><title>itau</title><g id="Layer_2" data-name="Layer 2"><g id="itau"><path class="cls-1" d="M13.35,0h53.3A12.76,12.76,0,0,1,76,3.89a12.7,12.7,0,0,1,4,9.46v53.3A13.44,13.44,0,0,1,66.65,79.91H13.35A12.92,12.92,0,0,1,3.89,76,12.89,12.89,0,0,1,0,66.65V13.35A13,13,0,0,1,3.89,3.89,13,13,0,0,1,13.35,0Z"/><path class="cls-2" d="M61.08,45.35h4.33L70.72,40H64.88l-3.8,5.39Zm-1.59,1.32H53.3V58.25c0,3.1.8,5.4,2.3,6.9a7.18,7.18,0,0,0,5.31,1.94,7.36,7.36,0,0,0,6.8-3.62h.09v3.18h5.48v-20H67.09V58.34a4.13,4.13,0,0,1-.17,1.24,3.83,3.83,0,0,1-3.8,2.56c-2.39,0-3.63-1.68-3.63-5V46.67ZM43.58,53.3c-4.07,0-7.16.62-9.28,2a6.43,6.43,0,0,0-3.36,5.83,5.77,5.77,0,0,0,1.77,4.16,7.1,7.1,0,0,0,5,1.85,7.6,7.6,0,0,0,6.18-2.56h.18v2.12h5.66V54.89a9,9,0,0,0-2-6.18c-1.59-1.68-4-2.57-7.16-2.57a15.14,15.14,0,0,0-8.13,2L33.59,52a11.22,11.22,0,0,1,5.92-1.59c2.74,0,4.07.88,4.07,2.74v.17ZM28.46,46.67h-3.8V40h-6v6.71H15.82v4.6h2.83v8c0,2.75.53,4.78,1.68,5.93a6.42,6.42,0,0,0,4.86,1.85,9.41,9.41,0,0,0,3.36-.53l-.09-4.68c-.17.18-.53.26-1.15.26a2.32,2.32,0,0,1-2.12-1.06,5.14,5.14,0,0,1-.53-2.74V51.27h3.8v-4.6Zm8.23,13.88c0-2.38,2.38-3.45,7.07-3.36v2.12l-.09,1.15a3.5,3.5,0,0,1-1.5,1.86,3.79,3.79,0,0,1-2.57.88c-1.94,0-2.91-.88-2.91-2.65ZM6.63,40V66.65h6.28V40Z"/></g></g></svg>