<svg id="Layer_1" data-name="Layer 1" xmlns="http://www.w3.org/2000/svg" viewBox="0 0 79.98 25"><defs><style>.cls-1,.cls-2{fill:#25395e;}.cls-2{fill-rule:evenodd;}</style></defs><title>iWallet</title><path class="cls-1" d="M30.54,46.38h1.31l1.67,7.42L38,46.38h.22L40,53.8l4.34-7.42h1.33l-6,10.11h-.24l-1.82-7.33-4.42,7.33h-.24Z" transform="translate(-10.02 -37.5)"/><path class="cls-1" d="M56.44,46.38l-1.72,9.77H53.49l.29-1.67a6,6,0,0,1-4.27,2A3.93,3.93,0,0,1,46.24,55a4.38,4.38,0,0,1-.83-3.67,6.17,6.17,0,0,1,2.13-3.64,5.76,5.76,0,0,1,3.84-1.52,3.77,3.77,0,0,1,3.53,2l.31-1.79h1.22Zm-2,4.93a3.39,3.39,0,0,0-.62-2.83,3.06,3.06,0,0,0-2.54-1.15,4.37,4.37,0,0,0-3,1.19,4.77,4.77,0,0,0-1.61,2.79,3.44,3.44,0,0,0,.64,2.83,3.06,3.06,0,0,0,2.53,1.19,4.46,4.46,0,0,0,2.93-1.14A4.74,4.74,0,0,0,54.41,51.31Z" transform="translate(-10.02 -37.5)"/><path class="cls-1" d="M59.3,42.61h1.25L58.16,56.16H56.91Z" transform="translate(-10.02 -37.5)"/><path class="cls-1" d="M62.52,42.61h1.25L61.38,56.16H60.13Z" transform="translate(-10.02 -37.5)"/><path class="cls-1" d="M72.33,53l1,.55a6.21,6.21,0,0,1-5.19,2.94A4,4,0,0,1,64.73,55a4.44,4.44,0,0,1-.8-3.64A6.23,6.23,0,0,1,66,47.64a5.61,5.61,0,0,1,3.83-1.53,4.11,4.11,0,0,1,3.33,1.42A4.65,4.65,0,0,1,74,51.4h-8.8a3.52,3.52,0,0,0,.61,2.84,2.89,2.89,0,0,0,2.38,1.08A4.88,4.88,0,0,0,72.33,53Zm.47-2.67a2.84,2.84,0,0,0-.9-2.19,3.22,3.22,0,0,0-2.23-.79q-2.76,0-4.13,3Z" transform="translate(-10.02 -37.5)"/><path class="cls-1" d="M78.54,42.61h1.27l-.67,3.77h2l-.19,1.07H79l-1.53,8.71H76.15l1.54-8.71H76l.19-1.07h1.73Z" transform="translate(-10.02 -37.5)"/><path class="cls-1" d="M84.26,54.5a1.65,1.65,0,1,1-1.65-1.65A1.65,1.65,0,0,1,84.26,54.5Z" transform="translate(-10.02 -37.5)"/><path class="cls-1" d="M89.81,54.5a1.65,1.65,0,1,1-1.65-1.65A1.65,1.65,0,0,1,89.81,54.5Z" transform="translate(-10.02 -37.5)"/><path class="cls-2" d="M20.51,40.77a2.32,2.32,0,0,0,2.42,2.54,3.75,3.75,0,0,0,3.34-5.54C24.11,36.71,20.7,39,20.51,40.77Z" transform="translate(-10.02 -37.5)"/><path class="cls-2" d="M23.85,55.18A11.1,11.1,0,0,1,19.12,58c-1.72.4-3.63.16-3.8-1.27-.31-2.55,4.17-3.73,6.34-6,2.63-2.74,1.19-7.78-3.46-7.26a9.61,9.61,0,0,0-5.65,3.23c-.05.06-.7.52-.23.69.76.67,1.26-.34,1.85-.69a2.36,2.36,0,0,1,2.31-.35c.12,2.16-1.36,3.87-2.65,5.54s-2.94,3-3.57,5a3.37,3.37,0,0,0,2.88,4.73c3,.42,5.4-.85,7.49-2.31.9-.62,2-1.33,2.88-2.08s2.26-1.64,1.62-2.88C24.6,54.28,24.27,54.81,23.85,55.18Z" transform="translate(-10.02 -37.5)"/><path class="cls-2" d="M26.27,37.77a3.75,3.75,0,0,1-3.34,5.54,2.32,2.32,0,0,1-2.42-2.54C20.7,39,24.11,36.71,26.27,37.77Z" transform="translate(-10.02 -37.5)"/><path class="cls-1" d="M30.91,61.53l.7-3.32H34l-.08.39H32l-.22,1h1.83L33.5,60H31.67l-.24,1.13h2l-.08.39Z" transform="translate(-10.02 -37.5)"/><path class="cls-1" d="M34,60.53l.09-.41h1.25l-.09.41Z" transform="translate(-10.02 -37.5)"/><path class="cls-1" d="M37.24,60.65l.39.05a1.37,1.37,0,0,1-.47.65,1.14,1.14,0,0,1-.71.23.83.83,0,0,1-.72-.32,1.14,1.14,0,0,1-.1-.92,2.2,2.2,0,0,1,.27-.68,1.29,1.29,0,0,1,.49-.44,1.33,1.33,0,0,1,.6-.15.85.85,0,0,1,.6.2.73.73,0,0,1,.2.56l-.41.06a.49.49,0,0,0-.12-.36.44.44,0,0,0-.32-.12.79.79,0,0,0-.55.22,1.31,1.31,0,0,0-.34.7.92.92,0,0,0,0,.7.47.47,0,0,0,.44.22A.68.68,0,0,0,37,61.1,1.09,1.09,0,0,0,37.24,60.65Z" transform="translate(-10.02 -37.5)"/><path class="cls-1" d="M37.91,60.32a1.59,1.59,0,0,1,.58-1,1.34,1.34,0,0,1,.81-.27.88.88,0,0,1,.74.32,1.06,1.06,0,0,1,.12.9,2,2,0,0,1-.29.73,1.3,1.3,0,0,1-.49.41,1.34,1.34,0,0,1-.61.15.89.89,0,0,1-.75-.32A1.11,1.11,0,0,1,37.91,60.32Zm.42,0a.89.89,0,0,0,.05.69.51.51,0,0,0,.46.23.8.8,0,0,0,.55-.23,1.29,1.29,0,0,0,.35-.7.92.92,0,0,0-.06-.68.51.51,0,0,0-.45-.23.84.84,0,0,0-.56.23A1.32,1.32,0,0,0,38.33,60.32Z" transform="translate(-10.02 -37.5)"/><path class="cls-1" d="M40.38,61.53l.51-2.4h.36l-.07.34a1.09,1.09,0,0,1,.36-.28,1,1,0,0,1,.45-.11.67.67,0,0,1,.41.11.45.45,0,0,1,.18.31,1.11,1.11,0,0,1,.83-.42.61.61,0,0,1,.51.2.74.74,0,0,1,.06.61l-.35,1.65h-.4L43.55,60a1,1,0,0,0,0-.35.25.25,0,0,0-.11-.17.42.42,0,0,0-.23-.07.73.73,0,0,0-.46.17.87.87,0,0,0-.28.54l-.3,1.4h-.41L42.12,60a.68.68,0,0,0,0-.41.31.31,0,0,0-.3-.14.72.72,0,0,0-.34.09.75.75,0,0,0-.27.26,1.52,1.52,0,0,0-.17.5l-.27,1.25h-.38Z" transform="translate(-10.02 -37.5)"/><path class="cls-1" d="M44.24,61.53l.51-2.4h.36l-.07.34a1.09,1.09,0,0,1,.36-.28,1,1,0,0,1,.45-.11.67.67,0,0,1,.41.11.45.45,0,0,1,.18.31,1.11,1.11,0,0,1,.83-.42.61.61,0,0,1,.51.2.74.74,0,0,1,.06.61l-.35,1.65h-.4L47.41,60a1,1,0,0,0,0-.35.25.25,0,0,0-.11-.17.42.42,0,0,0-.23-.07.73.73,0,0,0-.46.17.87.87,0,0,0-.28.54l-.3,1.4h-.41L46,60a.68.68,0,0,0,0-.41.31.31,0,0,0-.3-.14.72.72,0,0,0-.34.09.75.75,0,0,0-.27.26,1.52,1.52,0,0,0-.17.5l-.27,1.25h-.4Z" transform="translate(-10.02 -37.5)"/><path class="cls-1" d="M49.91,60.75l.41,0a1.31,1.31,0,0,1-.49.57,1.27,1.27,0,0,1-.73.2.91.91,0,0,1-.77-.32,1.12,1.12,0,0,1-.12-.91,1.72,1.72,0,0,1,.51-.94,1.32,1.32,0,0,1,.88-.33.83.83,0,0,1,.72.33,1.14,1.14,0,0,1,.11.92s0,.06,0,.11H48.61a.78.78,0,0,0,.1.61.54.54,0,0,0,.46.21.75.75,0,0,0,.41-.12A1.15,1.15,0,0,0,49.91,60.75Zm-1.2-.66h1.34a.68.68,0,0,0-.06-.45.5.5,0,0,0-.45-.24.75.75,0,0,0-.51.19A1,1,0,0,0,48.71,60.09Z" transform="translate(-10.02 -37.5)"/><path class="cls-1" d="M50.67,61.53l.51-2.4h.37l-.08.36a1.53,1.53,0,0,1,.33-.34.57.57,0,0,1,.28-.08.63.63,0,0,1,.39.13l-.22.38a.49.49,0,0,0-.28-.09.52.52,0,0,0-.26.08.61.61,0,0,0-.2.22,1.7,1.7,0,0,0-.17.48l-.27,1.26Z" transform="translate(-10.02 -37.5)"/><path class="cls-1" d="M54,60.65l.39.05a1.37,1.37,0,0,1-.47.65,1.14,1.14,0,0,1-.71.23.83.83,0,0,1-.72-.32,1.14,1.14,0,0,1-.1-.92,2,2,0,0,1,.27-.68,1.29,1.29,0,0,1,.49-.44,1.33,1.33,0,0,1,.6-.15.85.85,0,0,1,.6.2.73.73,0,0,1,.2.56l-.41.06a.49.49,0,0,0-.12-.36.44.44,0,0,0-.32-.12.79.79,0,0,0-.55.22,1.31,1.31,0,0,0-.34.7.92.92,0,0,0,0,.7.47.47,0,0,0,.44.22.68.68,0,0,0,.43-.15A1.09,1.09,0,0,0,54,60.65Z" transform="translate(-10.02 -37.5)"/><path class="cls-1" d="M56.35,60.75l.41,0a1.31,1.31,0,0,1-.49.57,1.27,1.27,0,0,1-.73.2.91.91,0,0,1-.77-.32,1.12,1.12,0,0,1-.12-.91,1.72,1.72,0,0,1,.51-.94,1.32,1.32,0,0,1,.88-.33.83.83,0,0,1,.72.33,1.14,1.14,0,0,1,.11.92.36.36,0,0,1,0,.11H55.05a.83.83,0,0,0,.09.61.54.54,0,0,0,.46.21.73.73,0,0,0,.41-.12A1.06,1.06,0,0,0,56.35,60.75Zm-1.2-.66h1.34a.68.68,0,0,0-.06-.45A.5.5,0,0,0,56,59.4a.75.75,0,0,0-.51.19A1,1,0,0,0,55.15,60.09Z" transform="translate(-10.02 -37.5)"/><path class="cls-1" d="M58.53,60.46l.42,0a.75.75,0,0,0,0,.41.55.55,0,0,0,.28.26,1.07,1.07,0,0,0,.49.1,1.35,1.35,0,0,0,.46-.07.88.88,0,0,0,.33-.2.59.59,0,0,0,.15-.28.41.41,0,0,0,0-.27.51.51,0,0,0-.26-.2,5.44,5.44,0,0,0-.56-.16,2.19,2.19,0,0,1-.6-.21.66.66,0,0,1-.29-.31.7.7,0,0,1,0-.41,1.17,1.17,0,0,1,.24-.47,1.12,1.12,0,0,1,.49-.33,1.67,1.67,0,0,1,.63-.11,1.51,1.51,0,0,1,.63.12.72.72,0,0,1,.36.35.82.82,0,0,1,.05.52l-.43,0a.54.54,0,0,0-.13-.47.74.74,0,0,0-.54-.16,1,1,0,0,0-.61.15.58.58,0,0,0-.26.35.29.29,0,0,0,.07.29,1.35,1.35,0,0,0,.61.24,3.67,3.67,0,0,1,.69.21.8.8,0,0,1,.36.34.74.74,0,0,1,0,.47,1.1,1.1,0,0,1-.26.5,1.25,1.25,0,0,1-.51.36,1.67,1.67,0,0,1-.67.13,1.7,1.7,0,0,1-.73-.13.78.78,0,0,1-.39-.39A1.18,1.18,0,0,1,58.53,60.46Z" transform="translate(-10.02 -37.5)"/><path class="cls-1" d="M61.28,62.45l0-.38a1,1,0,0,0,.23,0,.41.41,0,0,0,.23,0,.48.48,0,0,0,.16-.13,2.87,2.87,0,0,0,.19-.3.64.64,0,0,1,.06-.1l-.4-2.41h.44l.2,1.39a4.8,4.8,0,0,1,.06.56c.09-.19.18-.37.28-.55l.81-1.4H64l-1.43,2.44c-.15.26-.27.45-.34.55a1.24,1.24,0,0,1-.31.3.73.73,0,0,1-.35.09A.82.82,0,0,1,61.28,62.45Z" transform="translate(-10.02 -37.5)"/><path class="cls-1" d="M63.8,60.81l.42-.06a.44.44,0,0,0,.11.37.55.55,0,0,0,.41.13.79.79,0,0,0,.44-.11.44.44,0,0,0,.19-.27.21.21,0,0,0-.07-.22,1.5,1.5,0,0,0-.39-.14,3,3,0,0,1-.58-.2.47.47,0,0,1-.21-.23.49.49,0,0,1,0-.32.69.69,0,0,1,.14-.3,1,1,0,0,1,.53-.35,1.49,1.49,0,0,1,.36,0,1.34,1.34,0,0,1,.48.08.51.51,0,0,1,.27.22.69.69,0,0,1,.06.37l-.41.05a.33.33,0,0,0-.1-.29.49.49,0,0,0-.35-.1.77.77,0,0,0-.42.09.36.36,0,0,0-.17.22.22.22,0,0,0,0,.14.29.29,0,0,0,.13.11l.34.1a4.24,4.24,0,0,1,.56.19.45.45,0,0,1,.22.21.57.57,0,0,1,0,.35.88.88,0,0,1-.2.38,1.07,1.07,0,0,1-.4.28,1.32,1.32,0,0,1-.53.1.94.94,0,0,1-.67-.19A.68.68,0,0,1,63.8,60.81Z" transform="translate(-10.02 -37.5)"/><path class="cls-1" d="M67.09,61.16l0,.36a2,2,0,0,1-.32,0,.58.58,0,0,1-.33-.07.28.28,0,0,1-.13-.18,1.38,1.38,0,0,1,0-.48l.29-1.38h-.3l.07-.32h.3l.13-.6.46-.24-.18.84h.41l-.07.32H67l-.3,1.41a1.94,1.94,0,0,0,0,.22.14.14,0,0,0,.05.08.23.23,0,0,0,.13,0Z" transform="translate(-10.02 -37.5)"/><path class="cls-1" d="M69.22,60.75l.41,0a1.31,1.31,0,0,1-.49.57,1.35,1.35,0,0,1-.73.2.91.91,0,0,1-.77-.32,1.12,1.12,0,0,1-.12-.91A1.72,1.72,0,0,1,68,59.4a1.32,1.32,0,0,1,.88-.33.83.83,0,0,1,.72.33,1.14,1.14,0,0,1,.11.92.36.36,0,0,1,0,.11H67.92A.83.83,0,0,0,68,61a.54.54,0,0,0,.46.21.73.73,0,0,0,.41-.12A1.06,1.06,0,0,0,69.22,60.75ZM68,60.09h1.34a.68.68,0,0,0-.06-.45.5.5,0,0,0-.45-.24.75.75,0,0,0-.51.19A.89.89,0,0,0,68,60.09Z" transform="translate(-10.02 -37.5)"/><path class="cls-1" d="M70,61.53l.51-2.4h.36l-.07.34a1.09,1.09,0,0,1,.36-.28,1,1,0,0,1,.45-.11.67.67,0,0,1,.41.11.45.45,0,0,1,.18.31,1.11,1.11,0,0,1,.83-.42.61.61,0,0,1,.51.2.74.74,0,0,1,.06.61l-.35,1.65h-.41L73.15,60a1,1,0,0,0,0-.35.25.25,0,0,0-.11-.17.42.42,0,0,0-.23-.07.73.73,0,0,0-.46.17.87.87,0,0,0-.28.54l-.3,1.4h-.41L71.72,60a.68.68,0,0,0,0-.41.31.31,0,0,0-.3-.14.72.72,0,0,0-.34.09.75.75,0,0,0-.27.26,1.52,1.52,0,0,0-.17.5l-.27,1.25H70Z" transform="translate(-10.02 -37.5)"/><path class="cls-1" d="M74.88,60.51l.42,0a.75.75,0,0,0,0,.41.55.55,0,0,0,.28.26,1.07,1.07,0,0,0,.49.1,1.35,1.35,0,0,0,.46-.07.88.88,0,0,0,.33-.2.59.59,0,0,0,.15-.28.41.41,0,0,0,0-.27.51.51,0,0,0-.26-.2,5.44,5.44,0,0,0-.56-.16,2.19,2.19,0,0,1-.6-.21.66.66,0,0,1-.29-.31.7.7,0,0,1,0-.41,1.17,1.17,0,0,1,.24-.47,1.07,1.07,0,0,1,.49-.33,1.67,1.67,0,0,1,.63-.11,1.51,1.51,0,0,1,.63.12.72.72,0,0,1,.36.35.82.82,0,0,1,0,.52l-.43,0a.54.54,0,0,0-.13-.47.74.74,0,0,0-.54-.16,1,1,0,0,0-.61.15.58.58,0,0,0-.26.35.29.29,0,0,0,.07.29,1.35,1.35,0,0,0,.61.24,3.67,3.67,0,0,1,.69.21.8.8,0,0,1,.36.34.74.74,0,0,1,0,.47,1.1,1.1,0,0,1-.26.5,1.25,1.25,0,0,1-.51.36,1.67,1.67,0,0,1-.67.13,1.7,1.7,0,0,1-.73-.13.78.78,0,0,1-.39-.39A1,1,0,0,1,74.88,60.51Z" transform="translate(-10.02 -37.5)"/><path class="cls-1" d="M79.65,60.8l.41.05a1.31,1.31,0,0,1-.49.57,1.27,1.27,0,0,1-.73.2.91.91,0,0,1-.77-.32,1.12,1.12,0,0,1-.12-.91,1.72,1.72,0,0,1,.51-.94,1.32,1.32,0,0,1,.88-.33.83.83,0,0,1,.72.33,1.14,1.14,0,0,1,.11.92.36.36,0,0,1,0,.11H78.35a.83.83,0,0,0,.09.61.54.54,0,0,0,.46.21.73.73,0,0,0,.41-.12A1,1,0,0,0,79.65,60.8Zm-1.2-.65h1.34a.68.68,0,0,0-.06-.45.5.5,0,0,0-.45-.24.75.75,0,0,0-.51.19A.91.91,0,0,0,78.45,60.15Z" transform="translate(-10.02 -37.5)"/><path class="cls-1" d="M80.41,61.58l.51-2.4h.37l-.08.36a1.53,1.53,0,0,1,.33-.34.57.57,0,0,1,.28-.08.63.63,0,0,1,.39.13l-.22.38a.49.49,0,0,0-.28-.09.52.52,0,0,0-.26.08.61.61,0,0,0-.2.22,1.7,1.7,0,0,0-.17.48l-.27,1.26Z" transform="translate(-10.02 -37.5)"/><path class="cls-1" d="M82.62,61.58l-.4-2.4h.43l.21,1.44c0,.16,0,.32,0,.48.06-.13.15-.28.25-.46L84,59.17h.42L83,61.58Z" transform="translate(-10.02 -37.5)"/><path class="cls-1" d="M84.28,61.58l.51-2.4h.41l-.51,2.4Zm.6-2.85.1-.47h.41l-.1.47Z" transform="translate(-10.02 -37.5)"/><path class="cls-1" d="M87.06,60.7l.39,0a1.37,1.37,0,0,1-.47.65,1.14,1.14,0,0,1-.71.23.83.83,0,0,1-.72-.32,1.14,1.14,0,0,1-.1-.92,2,2,0,0,1,.27-.68,1.29,1.29,0,0,1,.49-.44,1.33,1.33,0,0,1,.6-.15.85.85,0,0,1,.6.2.73.73,0,0,1,.2.56l-.41.06a.49.49,0,0,0-.12-.36.44.44,0,0,0-.32-.12.79.79,0,0,0-.55.22,1.31,1.31,0,0,0-.34.7.92.92,0,0,0,0,.7.47.47,0,0,0,.44.22.68.68,0,0,0,.43-.15A1.09,1.09,0,0,0,87.06,60.7Z" transform="translate(-10.02 -37.5)"/><path class="cls-1" d="M89.43,60.8l.41.05a1.31,1.31,0,0,1-.49.57,1.27,1.27,0,0,1-.73.2.91.91,0,0,1-.77-.32,1.12,1.12,0,0,1-.12-.91,1.72,1.72,0,0,1,.51-.94,1.32,1.32,0,0,1,.88-.33.83.83,0,0,1,.72.33,1.14,1.14,0,0,1,.11.92.36.36,0,0,1,0,.11H88.13a.83.83,0,0,0,.09.61.54.54,0,0,0,.46.21.73.73,0,0,0,.41-.12A1,1,0,0,0,89.43,60.8Zm-1.2-.65h1.34a.68.68,0,0,0-.06-.45.5.5,0,0,0-.45-.24.75.75,0,0,0-.51.19A1,1,0,0,0,88.23,60.15Z" transform="translate(-10.02 -37.5)"/></svg>