<svg xmlns="http://www.w3.org/2000/svg" xmlns:xlink="http://www.w3.org/1999/xlink" viewBox="0 0 80 59.94"><defs><style>.cls-1{fill:url(#linear-gradient);}.cls-2{fill:url(#linear-gradient-2);}.cls-3{fill:url(#linear-gradient-3);}.cls-4{fill:url(#linear-gradient-4);}.cls-5{fill:url(#linear-gradient-5);}.cls-6{fill:url(#linear-gradient-6);}</style><linearGradient id="linear-gradient" x1="0.01" y1="29.97" x2="24.64" y2="29.97" gradientUnits="userSpaceOnUse"><stop offset="0" stop-color="#313678"/><stop offset="1" stop-color="#0678be"/></linearGradient><linearGradient id="linear-gradient-2" x1="0" y1="36.82" x2="0.02" y2="36.82" xlink:href="#linear-gradient"/><linearGradient id="linear-gradient-3" x1="27.76" y1="29.97" x2="52.38" y2="29.97" gradientUnits="userSpaceOnUse"><stop offset="0" stop-color="#773238"/><stop offset="1" stop-color="#ee1f47"/></linearGradient><linearGradient id="linear-gradient-4" x1="60.22" y1="33.84" x2="68.74" y2="33.84" gradientUnits="userSpaceOnUse"><stop offset="0" stop-color="#028249"/><stop offset="1" stop-color="#64bc46"/></linearGradient><linearGradient id="linear-gradient-5" x1="60.19" y1="25.79" x2="68.02" y2="25.79" xlink:href="#linear-gradient-4"/><linearGradient id="linear-gradient-6" x1="55.38" y1="29.97" x2="80" y2="29.97" xlink:href="#linear-gradient-4"/></defs><title>JCB</title><g id="Layer_2" data-name="Layer 2"><g id="JCB"><path class="cls-1" d="M9.71,0A10,10,0,0,0,0,9.68v25A27.25,27.25,0,0,0,7.2,36.87c3.93.28,6.36-1,6.74-4.29l0-12.16h8.69V32.3C22.16,39.11,16.18,40.49,7.1,40A42,42,0,0,1,0,38.91c0,11.09,0,21,0,21H15.14c4.12,0,9.5-3.86,9.5-9.72V0Z"/><path class="cls-2" d="M0,34.72v4.19H0V34.73Z"/><path class="cls-3" d="M37.45,0a10,10,0,0,0-9.68,9.68V22.93c3-2.37,7.93-3.53,14.15-3.05a39.83,39.83,0,0,1,7.6,1.19v4.21a22.32,22.32,0,0,0-7.28-2.15c-5.87-.42-9,2.33-9,6.78,0,4,2.38,7.43,8.92,7a26.65,26.65,0,0,0,7.29-2.13l0,4.08a38.76,38.76,0,0,1-9.27,1.34c-5.8,0-9.9-1.19-12.48-3.19,0,11.84,0,23,0,23H42.88c4.13,0,9.5-3.86,9.5-9.72V0Z"/><path class="cls-4" d="M66.15,31.19c-1.66,0-5.27,0-5.92,0v5.29l5.92,0a2.69,2.69,0,0,0,2.6-2.7A2.59,2.59,0,0,0,66.15,31.19Z"/><path class="cls-5" d="M68,25.87a2.4,2.4,0,0,0-2.35-2.52c-1.71,0-4.79,0-5.46,0l0,4.82,5.59,0A2.39,2.39,0,0,0,68,25.87Z"/><path class="cls-6" d="M65.07,0a10,10,0,0,0-9.68,9.68V20.34H69.76c2.86,0,6.23,1.22,6.23,4.7,0,1.86-1,4-4.57,4.66v.08c2.09,0,5.71,1.22,5.71,4.91s-3.91,4.87-6,4.87l-15.74,0V59.94H70.5c4.13,0,9.5-3.86,9.5-9.72V0Z"/></g></g></svg>