<?xml version="1.0" encoding="utf-8"?>
<!-- Generator: Adobe Illustrator 24.1.1, SVG Export Plug-In . SVG Version: 6.00 Build 0)  -->
<svg version="1.1" id="Layer_1" xmlns="http://www.w3.org/2000/svg" xmlns:xlink="http://www.w3.org/1999/xlink" x="0px" y="0px"
	 viewBox="0 0 100 100" style="enable-background:new 0 0 100 100;" xml:space="preserve">
<style type="text/css">
	.st0{fill:#D7D7D7;}
	.st1{fill:url(#SVGID_1_);}
	.st2{fill:url(#SVGID_2_);}
	.st3{fill:url(#SVGID_3_);}
	.st4{fill:url(#SVGID_4_);}
	.st5{fill:url(#SVGID_5_);}
	.st6{fill:url(#SVGID_6_);}
</style>
<g>
	<path class="st0" d="M86.36,77.27H13.64c-2.01,0-3.64-1.63-3.64-3.64V26.36c0-2.01,1.63-3.64,3.64-3.64h72.73
		c2.01,0,3.64,1.63,3.64,3.64v47.27C90,75.64,88.37,77.27,86.36,77.27z"/>
	<g>
		<g>
			<linearGradient id="SVGID_1_" gradientUnits="userSpaceOnUse" x1="65.5824" y1="64.2959" x2="71.1783" y2="64.2959">
				<stop  offset="0" style="stop-color:#303678"/>
				<stop  offset="1" style="stop-color:#0278BD"/>
			</linearGradient>
			<path class="st1" d="M67.79,57.48c-1.15,0-2.2,1.04-2.2,2.2c0,0.64,0,3.17,0,5.69c0.21,0.13,1.22,0.46,1.63,0.49
				c0.89,0.06,1.45-0.23,1.53-0.98l0-2.76h1.98v2.7c-0.1,1.55-1.46,1.86-3.53,1.76c-0.53-0.03-1.26-0.16-1.61-0.26
				c0,2.52,0,4.78,0,4.78s2.58,0,3.44,0c0.94,0,2.16-0.88,2.16-2.21c0-2.24,0-11.41,0-11.41S68.66,57.48,67.79,57.48z"/>
			<linearGradient id="SVGID_2_" gradientUnits="userSpaceOnUse" x1="65.5793" y1="65.8521" x2="65.5837" y2="65.8521">
				<stop  offset="0" style="stop-color:#303678"/>
				<stop  offset="1" style="stop-color:#0278BD"/>
			</linearGradient>
			<path class="st2" d="M65.58,65.38v0.95c0,0,0,0,0,0C65.58,66.01,65.58,65.7,65.58,65.38C65.58,65.38,65.58,65.38,65.58,65.38z"/>
		</g>
		<g>
			<linearGradient id="SVGID_3_" gradientUnits="userSpaceOnUse" x1="71.8885" y1="64.2959" x2="77.4844" y2="64.2959">
				<stop  offset="0" style="stop-color:#763138"/>
				<stop  offset="1" style="stop-color:#ED1D47"/>
			</linearGradient>
			<path class="st3" d="M74.09,57.48c-1.15,0-2.2,1.04-2.2,2.2c0,0.41,0,1.57,0,3.01c0.69-0.54,1.8-0.8,3.22-0.69
				c0.81,0.06,1.4,0.17,1.73,0.27v0.96c-0.36-0.18-1.06-0.44-1.65-0.49c-1.33-0.1-2.04,0.53-2.04,1.54c0,0.91,0.54,1.69,2.03,1.58
				c0.49-0.03,1.31-0.32,1.66-0.49l0,0.93c-0.3,0.09-1.23,0.3-2.11,0.3c-1.32,0.01-2.25-0.27-2.84-0.72c0,2.69,0,5.22,0,5.22
				s2.58,0,3.44,0c0.94,0,2.16-0.88,2.16-2.21c0-2.24,0-11.41,0-11.41S74.97,57.48,74.09,57.48z"/>
		</g>
		<linearGradient id="SVGID_4_" gradientUnits="userSpaceOnUse" x1="79.2655" y1="65.176" x2="81.2022" y2="65.176">
			<stop  offset="0" style="stop-color:#008049"/>
			<stop  offset="1" style="stop-color:#63BB46"/>
		</linearGradient>
		<path class="st4" d="M80.61,64.57c-0.38,0-1.2,0-1.35,0l0,1.2l1.35,0c0.26,0,0.59-0.22,0.59-0.61
			C81.2,64.82,80.92,64.57,80.61,64.57z"/>
		<linearGradient id="SVGID_5_" gradientUnits="userSpaceOnUse" x1="79.2587" y1="63.3466" x2="81.0387" y2="63.3466">
			<stop  offset="0" style="stop-color:#008049"/>
			<stop  offset="1" style="stop-color:#63BB46"/>
		</linearGradient>
		<path class="st5" d="M81.04,63.36c0-0.35-0.26-0.58-0.54-0.57c-0.39,0.01-1.09-0.01-1.24,0l0,1.1l1.27,0.01
			C80.74,63.9,81.04,63.7,81.04,63.36z"/>
		<linearGradient id="SVGID_6_" gradientUnits="userSpaceOnUse" x1="78.1653" y1="64.2959" x2="83.7611" y2="64.2959">
			<stop  offset="0" style="stop-color:#008049"/>
			<stop  offset="1" style="stop-color:#63BB46"/>
		</linearGradient>
		<path class="st6" d="M80.37,57.48c-1.15,0-2.2,1.04-2.2,2.2c0,0.35,0,1.26,0,2.42h3.27c0.65,0,1.42,0.28,1.42,1.07
			c0,0.42-0.23,0.9-1.04,1.06v0.02c0.47,0,1.3,0.28,1.3,1.12c0,0.87-0.89,1.11-1.37,1.11l-3.58,0c0,2.46,0,4.63,0,4.63
			s2.58,0,3.44,0c0.94,0,2.16-0.88,2.16-2.21c0-2.24,0-11.41,0-11.41S81.25,57.48,80.37,57.48z"/>
	</g>
</g>
</svg>
