<svg id="Layer_1" data-name="Layer 1" xmlns="http://www.w3.org/2000/svg" viewBox="0 0 80 23"><defs><style>.cls-1{fill:#f37021;}</style></defs><title>jeton</title><path class="cls-1" d="M41.45,46.73A6.93,6.93,0,0,0,38.92,45a8.77,8.77,0,0,0-3.32-.6,7.51,7.51,0,0,0-3,.62,8,8,0,0,0-2.53,1.73,8.32,8.32,0,0,0-1.75,2.66,8.93,8.93,0,0,0-.65,3.46,9.32,9.32,0,0,0,.68,3.63,8.36,8.36,0,0,0,1.81,2.71,7.65,7.65,0,0,0,2.64,1.69,8.76,8.76,0,0,0,3.15.58,8.3,8.3,0,0,0,2.66-.4A7.68,7.68,0,0,0,40.78,60a6.92,6.92,0,0,0,1.59-1.65l.48-.7-4.51-1.25-.25.22a3.16,3.16,0,0,1-2.11.6A3.41,3.41,0,0,1,34.66,57a3.36,3.36,0,0,1-1.09-.69,3.62,3.62,0,0,1-.76-1,3,3,0,0,1-.24-.69H43.22l.17-.34a1.73,1.73,0,0,0,.12-.6q0-.36,0-.81a10.41,10.41,0,0,0-.53-3.4A7.51,7.51,0,0,0,41.45,46.73Zm-8.74,4a2,2,0,0,1,.13-.31,3.08,3.08,0,0,1,.62-.9,2.94,2.94,0,0,1,.93-.63,3,3,0,0,1,1.24-.24,3.74,3.74,0,0,1,1.37.23,2.81,2.81,0,0,1,.94.6,2.45,2.45,0,0,1,.55.84,2.8,2.8,0,0,1,.13.41Z" transform="translate(-10 -38.51)"/><path class="cls-1" d="M19.23,38.66V53.83a1.54,1.54,0,0,1-3.08,0H10a7.69,7.69,0,0,0,15.38,0V38.51H19.23Z" transform="translate(-10 -38.51)"/><path class="cls-1" d="M89.63,48.5a6.27,6.27,0,0,0-1.11-2.09A5.16,5.16,0,0,0,86.62,45,6.43,6.43,0,0,0,84,44.46a6.51,6.51,0,0,0-2.74.62,4.76,4.76,0,0,0-1.08.7v-.89H75.44V61h4.8V51.82a3.4,3.4,0,0,1,.66-2.13,2.68,2.68,0,0,1,3.71-.07,3.35,3.35,0,0,1,.58,2v9.44H90V51A8.36,8.36,0,0,0,89.63,48.5Z" transform="translate(-10 -38.51)"/><path class="cls-1" d="M53.49,56.8c-.22,0-.44,0-.66,0a1.56,1.56,0,0,1-1-.27,1.37,1.37,0,0,1-.27-1V49.27h3.11V44.89H51.54V40.33H46.77v4.56H44.93v4.38h1.84v6.9a5,5,0,0,0,1.39,3.72,5.13,5.13,0,0,0,3.72,1.34,6.71,6.71,0,0,0,1.67-.16c.5-.13.66-.19.75-.22l.39-.15V56.55l-.77.19Z" transform="translate(-10 -38.51)"/><path class="cls-1" d="M70.84,46.86a8.26,8.26,0,0,0-2.66-1.79,8.91,8.91,0,0,0-6.68,0,8,8,0,0,0-2.66,1.79,8.2,8.2,0,0,0-1.74,2.7,9.46,9.46,0,0,0,0,6.79,8.47,8.47,0,0,0,1.75,2.72,8,8,0,0,0,2.66,1.79,8.91,8.91,0,0,0,6.68,0,8.26,8.26,0,0,0,2.66-1.79,8,8,0,0,0,1.76-2.72,9,9,0,0,0,.63-3.4,9.13,9.13,0,0,0-.63-3.39A8.44,8.44,0,0,0,70.84,46.86ZM68.1,54.78a3.66,3.66,0,0,1-.79,1.27,3.44,3.44,0,0,1-1.13.77,3.64,3.64,0,0,1-1.35.26,3.7,3.7,0,0,1-1.36-.26,3.24,3.24,0,0,1-1.11-.76,3.83,3.83,0,0,1-.8-1.29,5.08,5.08,0,0,1-.31-1.83,4.87,4.87,0,0,1,.31-1.8,4,4,0,0,1,.8-1.28,2.93,2.93,0,0,1,1.1-.74,3.85,3.85,0,0,1,2.73,0,3.07,3.07,0,0,1,1.12.75,3.71,3.71,0,0,1,.79,1.26,5,5,0,0,1,.3,1.81A5.14,5.14,0,0,1,68.1,54.78Z" transform="translate(-10 -38.51)"/></svg>