<svg xmlns="http://www.w3.org/2000/svg" viewBox="0 0 80 62.4"><defs><style>.cls-1{fill:#2bace2;}.cls-2{fill:#1a3a67;}</style></defs><title>KBC</title><g id="Layer_2" data-name="Layer 2"><g id="KBC"><g id="_Group_" data-name="&lt;Group&gt;"><path id="_Path_" data-name="&lt;Path&gt;" class="cls-1" d="M40.46,27.62A13.81,13.81,0,1,0,26.65,13.81,13.81,13.81,0,0,0,40.46,27.62"/><path id="_Path_2" data-name="&lt;Path&gt;" class="cls-1" d="M50.65,25A18.22,18.22,0,0,1,26.29,26.9C11.21,28.48,0,30.73,0,30.73v6.1H80V24.23s-13.71-.08-29.35.76"/><polyline id="_Path_3" data-name="&lt;Path&gt;" class="cls-2" points="9.5 54.69 9.5 62.13 0 62.13 0 42.33 9.5 42.33 9.5 51.24 9.56 51.24 15.15 42.33 26.55 42.33 18.2 52.56 26.07 62.13 15.2 62.13 9.57 54.69 9.5 54.69"/><path id="_Path_4" data-name="&lt;Path&gt;" class="cls-2" d="M80,61.31a28.7,28.7,0,0,1-7.83,1.09c-9.4,0-16.3-2.67-16.3-10.45,0-7,6.69-10.07,15.84-10.07A29.07,29.07,0,0,1,80,43v6.8a11.6,11.6,0,0,0-6.43-1.84c-3.49,0-7,1.72-7,4.21s3.47,4.21,7,4.21A12.12,12.12,0,0,0,80,54.54v6.77"/><path class="cls-2" d="M28.1,42.33H47.31c5,0,6.63,1.94,6.63,5,0,3.39-3,4.85-6.13,5v.06c3.19.25,6.3.61,6.3,4.6,0,2.61-1.64,5.16-7.13,5.16H28.1V42.33M37.61,58.1h5c1.86,0,2.49-.77,2.49-1.9s-.64-2-2.47-2h-5Zm0-7.38h4.73c1.83,0,2.55-.74,2.55-1.88,0-1.3-.73-2-2.42-2H37.61Z"/></g></g></g></svg>