<svg xmlns="http://www.w3.org/2000/svg" viewBox="0 0 80 18.5"><defs><style>.cls-1{fill-rule:evenodd;}</style></defs><title>Klarna</title><g id="Layer_2" data-name="Layer 2"><g id="Klarna"><path class="cls-1" d="M17,18.16h3.87V0H17Zm24.5-10.5V6H37.9V18.16h3.66V11.81c0-1.85,2.08-2.66,3.51-2.25h0V6a4.53,4.53,0,0,0-3.59,1.63ZM29.07,15.35a3.35,3.35,0,0,1-3.43-3.25,3.43,3.43,0,0,1,6.86,0,3.34,3.34,0,0,1-3.43,3.25Zm3.4-8.48A6.4,6.4,0,1,0,28.78,18.5a6.36,6.36,0,0,0,3.69-1.18v.84h3.16V6H32.47ZM54.16,5.71A4.42,4.42,0,0,0,50.42,7.4V6H46.81V18.16h3.65V11.53a2.56,2.56,0,0,1,2.73-2.75c1.6,0,2.51,1,2.51,2.72v6.66h3.63V10.45c0-2.82-2.24-4.74-5.17-4.74Zm23.56,8.15A2.28,2.28,0,1,0,80,16.14a2.28,2.28,0,0,0-2.28-2.28ZM67.31,15.35a3.34,3.34,0,0,1-3.43-3.25,3.43,3.43,0,0,1,6.86,0,3.35,3.35,0,0,1-3.43,3.25ZM70.7,6.87A6.4,6.4,0,1,0,67,18.5a6.34,6.34,0,0,0,3.69-1.18v.84h3.17V6H70.7Zm5.46-.61h.18c.11,0,.16,0,.16.13s0,.15-.16.15h-.18Zm0,.42h.17l.15.34h.18l-.17-.36a.27.27,0,0,0,.16-.27.29.29,0,0,0-.32-.28H76V7h.17ZM0,18.16H4V0H0ZM14.38,0H10.47A10.78,10.78,0,0,1,4.59,9.39l6,8.77h4.92l-5.47-8A14.43,14.43,0,0,0,14.38,0ZM76.3,5.88a.7.7,0,1,1-.69.7.69.69,0,0,1,.69-.7Zm0,1.57a.87.87,0,1,0-.86-.87.86.86,0,0,0,.86.87Z"/></g></g></svg>