<svg xmlns="http://www.w3.org/2000/svg" viewBox="0 0 80 26.04"><defs><style>.cls-1{fill:#002a3a;}</style></defs><title>Knab</title><g id="Layer_2" data-name="Layer 2"><g id="Knab"><path class="cls-1" d="M30.44,6.93a5.89,5.89,0,0,0-5.27,3H25.1l0-2.62h-5c-.45,0-.87.55-.87,1.09v16a1,1,0,0,0,.89,1.06h5v-9c0-2.62.7-4.69,3.24-4.69s2.8,1.81,2.8,4.21v8.4A1,1,0,0,0,32,25.43h5V14.7C37.08,10.32,35.71,6.93,30.44,6.93Z"/><path class="cls-1" d="M69.32,6.93a7.29,7.29,0,0,0-5,1.73c0-.65,0-1.6,0-2.54V0h-5c-.44,0-.87.56-.87,1.08V24.36a1,1,0,0,0,.89,1.07h4.71l0-1.49a7.36,7.36,0,0,0,5.22,1.89c5.27,0,8.59-4.13,8.59-9.47S74.55,6.93,69.32,6.93ZM68,20.9c-2.47,0-4.16-1.91-4.16-4.71s1.69-4.72,4.16-4.72,4.12,1.91,4.12,4.72S70.52,20.9,68,20.9Z"/><path class="cls-1" d="M18.21,7.26H12.13a1.77,1.77,0,0,0-1.23.58l-5,5.43V0h-5C.43,0,0,.56,0,1.07v23.3a1,1,0,0,0,.87,1.06h5V19.94l1.62-1.59,4,6.4a1.7,1.7,0,0,0,1.5.68h5.71L11.57,14.08Z"/><path class="cls-1" d="M54.07,9c-1.44-1.33-3.39-2.1-6.78-2.1a17.82,17.82,0,0,0-7,1.49,1,1,0,0,0-.42,1.19l1.21,3A11.58,11.58,0,0,1,46.62,11c2.36,0,3.72,1,3.72,2.91v.41l-4.56.18c-3.36.15-7.08,1.51-7.08,5.57s3.39,5.78,6.59,5.78a6.79,6.79,0,0,0,5.2-2.32l.08,1.24a.78.78,0,0,0,.8.68h4.87V15.18C56.24,12.12,55.47,10.35,54.07,9ZM50.38,20.41a3.62,3.62,0,0,1-3,1.67c-1.62,0-2.76-.85-2.76-2.25s1.06-2.14,2.87-2.21l2.91-.19Z"/><path class="cls-1" d="M78.48,26A1.52,1.52,0,1,1,80,24.53,1.5,1.5,0,0,1,78.48,26Zm0-2.8a1.29,1.29,0,1,0,1.29,1.29A1.27,1.27,0,0,0,78.48,23.24Zm.75,2.18H78.8l-.37-.7h-.18v.7h-.36V23.64h.63c.39,0,.63.2.63.54a.48.48,0,0,1-.36.5Zm-.77-1.48h-.21v.49h.21c.17,0,.32-.05.32-.24S78.63,23.94,78.46,23.94Z"/></g></g></svg>