<svg xmlns="http://www.w3.org/2000/svg" viewBox="0 0 80 18.12"><defs><style>.cls-1{fill:#0671b0;}.cls-1,.cls-2{fill-rule:evenodd;}.cls-2{fill:#f5832a;}</style></defs><title>caixa</title><g id="Layer_2" data-name="Layer 2"><g id="caixa"><path class="cls-1" d="M24.47,6,22.4,11.18h2.87L24.48,6Zm-11,11.85L22,.37h6.42L32,17.86H26.36L26,15.53H20.47l-1.26,2.33Zm21.17,0L37.14.37h5.68L40.36,17.86ZM72.48,6,70.4,11.18h2.86Zm-11,11.87L70,.37h6.43L80,17.86H74.36l-.42-2.33H68.47l-1.26,2.33Z"/><path class="cls-1" d="M48.93,9.68h7.12l4.88,8.09H53.81Z"/><path class="cls-2" d="M49.67,8.44H57l6.39-8H56.06Z"/><path class="cls-2" d="M42.31,17.82h7.36l6.39-8.15H48.7Z"/><path class="cls-1" d="M45,.3h6.87l4.71,8.14H49.67Z"/><path class="cls-1" d="M13.66,1l-.54,5.15c-2.1-2.89-6.95-.9-7.33,2.7-.49,4.57,4.18,5.64,6.73,2.95L12,17a12.9,12.9,0,0,1-2.23.86,9.18,9.18,0,0,1-2.19.31,8.81,8.81,0,0,1-2.48-.28,6.27,6.27,0,0,1-2-1,7.16,7.16,0,0,1-2.49-3.2,9.25,9.25,0,0,1-.5-4.42,10.83,10.83,0,0,1,1-3.62,10.52,10.52,0,0,1,2.18-3A9.3,9.3,0,0,1,6.11.7,9.09,9.09,0,0,1,9.48,0a8.43,8.43,0,0,1,2.13.23A9.28,9.28,0,0,1,13.66,1Z"/></g></g></svg>