<svg xmlns="http://www.w3.org/2000/svg" viewBox="0 0 80 78.5"><defs><style>.cls-1{fill:#4090ce;}.cls-1,.cls-2,.cls-3,.cls-4{fill-rule:evenodd;}.cls-2{fill:#ffc226;}.cls-3{fill:#f04924;}.cls-4{fill:#231f20;}.cls-5{fill:none;stroke:#231f20;stroke-miterlimit:2.61;stroke-width:0.72px;}</style></defs><title>La_Caixa</title><g id="Layer_2" data-name="Layer 2"><g id="La_Caixa"><path class="cls-1" d="M56.2,18.35s34.4,43.89,7.38,25.14c0,0-13.63-11.26-20.88-15.76,0,0-25.77,57.28-10-2.38,0,0-54.9-7.25-.25-9.63,0,0-15.76-21.51,11.26-3.75,0,0,44.27-30.64,11.75,6.13l.75.25Z"/><path class="cls-2" d="M26.94,29.35c0,1.75-1.75,3.13-3.88,3.13s-3.75-1.38-3.75-3.13,1.62-3,3.75-3,3.88,1.38,3.88,3Z"/><path class="cls-3" d="M25.31,43.61c0,3.75-2.5,6.88-5.5,6.88s-5.5-3.13-5.5-6.88,2.37-6.75,5.5-6.75,5.5,3,5.5,6.75Z"/><path class="cls-4" d="M11.43,75.88c0,1.25.12,1.5,1.63,1.62v.63H7.43V77.5c1.37-.12,1.5-.37,1.5-1.62V64.25c0-1.38,0-1.38-1.5-1.51v-.62a29.31,29.31,0,0,0,4-.88V75.88Z"/><path class="cls-4" d="M18.43,76.13a4.53,4.53,0,0,1-1.62.75c-.63,0-1.38-.63-1.38-1.88a1.78,1.78,0,0,1,1.13-1.75c.37-.25,1.37-.75,1.87-1v3.88Zm3.88.37a2.54,2.54,0,0,1-.87.38c-.38,0-.76-.38-.76-1.38V70.37a2.35,2.35,0,0,0-1-2.25,2.94,2.94,0,0,0-2-.62,12.05,12.05,0,0,0-4,1.75,1.31,1.31,0,0,0-.62,1.12,1.09,1.09,0,0,0,1.12,1c.38,0,.75-.12.75-.5a3.79,3.79,0,0,1,.88-1.75,1,1,0,0,1,.87-.37c1.13,0,1.75.62,1.75,2v.62A18.69,18.69,0,0,1,14.56,73a2.61,2.61,0,0,0-1.75,2.5,2.9,2.9,0,0,0,2.87,2.88,10.46,10.46,0,0,0,2.75-1.5,1.78,1.78,0,0,0,1.75,1.5l2.38-1.25-.25-.63Z"/><path class="cls-4" d="M39.07,65.5c-.88-3-2.5-4-5-4-4.26,0-6.26,3.63-6.26,7.63,0,4.88,2.38,8.26,6.26,8.26,2.87,0,4.25-1.5,5.62-4.25l.75.12c-.37,1.25-1,3.38-1.37,4.38a19.19,19.19,0,0,1-5,.87c-6.88,0-9.63-4.62-9.63-8.75,0-5.5,4.25-9.26,10.13-9.26a22.29,22.29,0,0,1,4.75.63c.25,1.5.37,2.75.5,4.25l-.75.13Z"/><path class="cls-4" d="M46.45,75.63a2.71,2.71,0,0,1-1.63.75c-.5,0-1.25-.5-1.25-1.75a1.62,1.62,0,0,1,1-1.63,13.23,13.23,0,0,1,1.88-.88v3.51Zm3.62.5a2.39,2.39,0,0,1-.87.25c-.25,0-.63-.38-.63-1.25V70.25a2.52,2.52,0,0,0-.87-2.13,3.49,3.49,0,0,0-2-.62A11.54,11.54,0,0,0,42,69.25c-.5.37-.75.62-.75,1s.75,1,1.25,1c.25,0,.62-.25.62-.5a3.9,3.9,0,0,1,.75-1.63,1.55,1.55,0,0,1,1-.5c1,0,1.63.63,1.63,2v.63a39.43,39.43,0,0,1-3.75,1.5,2.39,2.39,0,0,0-1.63,2.38,2.69,2.69,0,0,0,2.75,2.75c.5,0,1.63-.88,2.63-1.38a1.63,1.63,0,0,0,1.62,1.38l2.25-1.25-.25-.5Z"/><path class="cls-4" d="M54,75.5c0,1.25.25,1.38,1.5,1.5v.63H50.32V77c1.38-.12,1.51-.25,1.51-1.5V70.62c0-1.25-.13-1.37-1.38-1.5v-.5a18.66,18.66,0,0,0,3.5-.75V75.5Zm.25-11.25a1.38,1.38,0,0,1-2.75,0,1.38,1.38,0,1,1,2.75,0Z"/><path class="cls-4" d="M65.21,68.62v.5a2.78,2.78,0,0,0-2.5,1.25c-.13.25-.75,1-1.5,2l2.12,3.12c.75,1.25,1.13,1.38,2.25,1.5v.63h-5V77l.63-.12c.37,0,.37-.25.12-.75l-1.38-2c-.37.62-.87,1.37-1.25,2s-.25.75,0,.75l.63.12v.63H55.45V77a2.71,2.71,0,0,0,2.38-1.37c.5-.5,1-1.38,1.75-2.25l-2-3a2,2,0,0,0-1.88-1.25v-.5h4.5v.5l-.5.13c-.37,0-.37.25-.12.62l1.13,1.75A6.31,6.31,0,0,0,61.83,70c.38-.5.5-.75,0-.75l-.5-.13v-.5Z"/><path class="cls-4" d="M71.21,75.75a2.43,2.43,0,0,1-1.63.75,1.72,1.72,0,0,1-1.37-1.87,2,2,0,0,1,1.12-1.75c.5-.25,1.38-.63,1.88-.88v3.75Zm4,.5a3.63,3.63,0,0,1-1,.25c-.37,0-.62-.37-.62-1.37v-5a2.75,2.75,0,0,0-1-2.37,3.55,3.55,0,0,0-2.13-.5A8,8,0,0,0,66.58,69c-.5.37-.75.75-.75,1a1.24,1.24,0,0,0,1.25,1.12.78.78,0,0,0,.75-.62,2.89,2.89,0,0,1,.75-1.75,1.82,1.82,0,0,1,1-.38c1,0,1.63.63,1.63,2.13v.62c-.75.38-2.63,1.13-3.75,1.63a2.52,2.52,0,0,0-1.88,2.5,2.94,2.94,0,0,0,3,2.88,22.19,22.19,0,0,0,2.76-1.5A1.85,1.85,0,0,0,73,78.13l2.5-1.38-.25-.5Z"/><path class="cls-4" d="M79.84,62.24A4.07,4.07,0,0,1,80,63.75a8.17,8.17,0,0,1-2,3.37h-.75A3.56,3.56,0,0,0,78,63.87c-.12-1-.75-1.25-.87-1.88a.76.76,0,0,1,.25-.87,1.23,1.23,0,0,1,1-.38,1.14,1.14,0,0,1,.87.38,3.23,3.23,0,0,1,.63,1.12Z"/><path class="cls-4" d="M76.09,62.12a2.18,2.18,0,0,1,.12,1.63,7.52,7.52,0,0,1-2,3.37h-.62a4.79,4.79,0,0,0,.75-3.25c-.25-1-.88-1.37-1-1.88a1.31,1.31,0,0,1,.25-1,1.41,1.41,0,0,1,1-.37,1,1,0,0,1,.87.37,3.35,3.35,0,0,1,.63,1.13Z"/><path class="cls-4" d="M6.43,62.74a2.18,2.18,0,0,1,.12,1.63,7.11,7.11,0,0,1-1.87,3.38H3.93a3.74,3.74,0,0,0,.75-3.25c-.13-1-.88-1.38-1-2a1.33,1.33,0,0,1,.37-.88,1.14,1.14,0,0,1,.88-.38,1.23,1.23,0,0,1,1,.38,1.86,1.86,0,0,1,.5,1.12Z"/><path class="cls-4" d="M2.8,62.74a4.47,4.47,0,0,1,.13,1.51,8.17,8.17,0,0,1-2,3.37H.17a3.91,3.91,0,0,0,.88-3.12c-.25-1.13-.88-1.38-1-2a.77.77,0,0,1,.25-.88,1.23,1.23,0,0,1,1-.38,1.14,1.14,0,0,1,.88.38,3.21,3.21,0,0,1,.62,1.12Z"/><line class="cls-5" x1="8.05" y1="56.37" x2="74.71" y2="56.37"/></g></g></svg>