<svg id="Layer_1" data-name="Layer 1" xmlns="http://www.w3.org/2000/svg" viewBox="0 0 80 62.11"><defs><style>.cls-1{fill:#6e6bb0;}.cls-2{fill:#d12627;}.cls-3{fill:#2397d3;}.cls-4{fill:#12110f;}</style></defs><title>Maestro</title><rect class="cls-1" x="29.18" y="5.3" width="21.63" height="38.88"/><path class="cls-2" d="M40.56,43.68A24.68,24.68,0,0,1,50,24.24a24.73,24.73,0,1,0,0,38.87,24.65,24.65,0,0,1-9.44-19.43" transform="translate(-10 -18.94)"/><path class="cls-3" d="M90,43.68A24.72,24.72,0,0,1,50,63.11a24.74,24.74,0,0,0,0-38.88A24.72,24.72,0,0,1,90,43.68" transform="translate(-10 -18.94)"/><path class="cls-4" d="M68.14,74.1a3.18,3.18,0,0,1,1,.18l-.44,1.35a2.38,2.38,0,0,0-.89-.17c-.93,0-1.4.6-1.4,1.69v3.68H65V74.27h1.41v.8A1.93,1.93,0,0,1,68.14,74.1Zm-5.28,1.47H60.53v3c0,.66.23,1.1.95,1.1a2.58,2.58,0,0,0,1.26-.37l.41,1.22a3.44,3.44,0,0,1-1.79.51c-1.69,0-2.28-.91-2.28-2.43v-3H57.75v-1.3h1.33v-2h1.44v2h2.33v1.29ZM44.58,77a1.69,1.69,0,0,1,1.74-1.59A1.63,1.63,0,0,1,48,77Zm4.89.58a3.15,3.15,0,0,0-3.12-3.45,3.45,3.45,0,0,0,.1,6.9,4,4,0,0,0,2.69-.92L48.44,79a3.13,3.13,0,0,1-1.91.69,1.82,1.82,0,0,1-2-1.61h4.87C49.45,77.92,49.47,77.74,49.47,77.55Zm6.27-1.61a4.21,4.21,0,0,0-2-.56c-.78,0-1.25.29-1.25.77s.49.56,1.11.64l.67.1c1.43.21,2.29.81,2.29,2s-1.1,2.14-3,2.14a4.77,4.77,0,0,1-2.84-.85L51.36,79a3.51,3.51,0,0,0,2.18.69c1,0,1.5-.29,1.5-.8s-.37-.58-1.15-.69l-.67-.1c-1.47-.21-2.27-.87-2.27-1.94,0-1.3,1.07-2.1,2.73-2.1a4.87,4.87,0,0,1,2.68.69Zm17.62-.48a2.21,2.21,0,0,0-.82.15,1.94,1.94,0,0,0-.65.43,2,2,0,0,0-.43.67,2.25,2.25,0,0,0,.43,2.39,1.8,1.8,0,0,0,.65.43,2.32,2.32,0,0,0,1.64,0,2.09,2.09,0,0,0,.66-.43,2.05,2.05,0,0,0,.44-.67,2.16,2.16,0,0,0,.16-.86,2.2,2.2,0,0,0-.16-.86,2.05,2.05,0,0,0-.44-.67,1.76,1.76,0,0,0-.66-.43A2.25,2.25,0,0,0,73.36,75.46Zm0-1.36a3.64,3.64,0,0,1,2.54,1,3.33,3.33,0,0,1,.74,1.1,3.47,3.47,0,0,1,.27,1.38,3.36,3.36,0,0,1-2.14,3.21,3.65,3.65,0,0,1-1.41.26A3.8,3.8,0,0,1,72,80.79a3.45,3.45,0,0,1-1.12-.73,3.52,3.52,0,0,1,0-5A3.45,3.45,0,0,1,72,74.37,3.58,3.58,0,0,1,73.36,74.1ZM36.23,77.55a2,2,0,1,1,2,2.1A2,2,0,0,1,36.23,77.55Zm5.32,0V74.27H40.12v.8a2.48,2.48,0,0,0-2.07-1,3.45,3.45,0,0,0,0,6.9,2.48,2.48,0,0,0,2.07-1v.8h1.43Zm-8,3.28V76.71a2.44,2.44,0,0,0-2.58-2.61,2.56,2.56,0,0,0-2.31,1.17,2.41,2.41,0,0,0-2.17-1.17,2.18,2.18,0,0,0-1.92,1v-.81H23.09v6.56h1.44V77.18a1.53,1.53,0,0,1,1.61-1.74c.95,0,1.43.62,1.43,1.73v3.65H29V77.18a1.55,1.55,0,0,1,1.61-1.74c1,0,1.44.62,1.44,1.73v3.65H33.5Z" transform="translate(-10 -18.94)"/></svg>