<?xml version="1.0" encoding="utf-8"?>
<!-- Generator: Adobe Illustrator 24.1.1, SVG Export Plug-In . SVG Version: 6.00 Build 0)  -->
<svg version="1.1" id="Layer_1" xmlns="http://www.w3.org/2000/svg" xmlns:xlink="http://www.w3.org/1999/xlink" x="0px" y="0px"
	 viewBox="0 0 100 100" style="enable-background:new 0 0 100 100;" xml:space="preserve">
<style type="text/css">
	.st0{fill:#D7D7D7;}
	.st1{fill:#6E6BB0;}
	.st2{fill:#D12627;}
	.st3{fill:#2397D3;}
	.st4{fill:#12110F;}
</style>
<g>
	<path class="st0" d="M86.36,77.27H13.64c-2.01,0-3.64-1.63-3.64-3.64V26.36c0-2.01,1.63-3.64,3.64-3.64h72.73
		c2.01,0,3.64,1.63,3.64,3.64v47.27C90,75.64,88.37,77.27,86.36,77.27z"/>
	<g>
		<rect x="71.18" y="57.38" class="st1" width="5.41" height="9.72"/>
		<path class="st2" d="M71.52,62.24c0-1.97,0.92-3.73,2.36-4.86c-1.05-0.83-2.38-1.32-3.82-1.32c-3.41,0-6.18,2.77-6.18,6.18
			c0,3.41,2.77,6.18,6.18,6.18c1.44,0,2.77-0.49,3.82-1.32C72.44,65.97,71.52,64.22,71.52,62.24"/>
		<path class="st3" d="M83.88,62.24c0,3.41-2.77,6.18-6.18,6.18c-1.44,0-2.77-0.49-3.82-1.32c1.44-1.13,2.36-2.89,2.36-4.86
			s-0.92-3.73-2.36-4.86c1.05-0.83,2.38-1.32,3.82-1.32C81.12,56.06,83.88,58.83,83.88,62.24"/>
		<path class="st4" d="M78.42,69.85c0.07,0,0.18,0.01,0.25,0.04l-0.11,0.34c-0.08-0.03-0.15-0.04-0.22-0.04
			c-0.23,0-0.35,0.15-0.35,0.42v0.92h-0.36v-1.64h0.35v0.2C78.08,69.95,78.21,69.85,78.42,69.85z M77.1,70.22h-0.58v0.74
			c0,0.16,0.06,0.27,0.24,0.27c0.09,0,0.21-0.03,0.32-0.09l0.1,0.31c-0.11,0.08-0.29,0.13-0.45,0.13c-0.42,0-0.57-0.23-0.57-0.61
			v-0.75h-0.33v-0.33h0.33v-0.5h0.36v0.5h0.58V70.22z M72.53,70.57c0.04-0.24,0.18-0.4,0.44-0.4c0.23,0,0.38,0.14,0.42,0.4H72.53z
			 M73.75,70.71c0-0.51-0.32-0.86-0.78-0.86c-0.48,0-0.82,0.35-0.82,0.86c0,0.52,0.35,0.86,0.84,0.86c0.25,0,0.47-0.06,0.67-0.23
			l-0.18-0.26c-0.14,0.11-0.31,0.17-0.48,0.17c-0.23,0-0.44-0.11-0.49-0.4h1.22C73.75,70.8,73.75,70.76,73.75,70.71z M75.32,70.31
			c-0.1-0.06-0.3-0.14-0.51-0.14c-0.2,0-0.31,0.07-0.31,0.19c0,0.11,0.12,0.14,0.28,0.16l0.17,0.02c0.36,0.05,0.57,0.2,0.57,0.49
			c0,0.31-0.27,0.54-0.75,0.54c-0.27,0-0.52-0.07-0.71-0.21l0.17-0.28c0.12,0.09,0.3,0.17,0.55,0.17c0.24,0,0.37-0.07,0.37-0.2
			c0-0.09-0.09-0.14-0.29-0.17l-0.17-0.02c-0.37-0.05-0.57-0.22-0.57-0.48c0-0.33,0.27-0.53,0.68-0.53c0.26,0,0.5,0.06,0.67,0.17
			L75.32,70.31z M79.72,70.19c-0.07,0-0.14,0.01-0.2,0.04c-0.06,0.03-0.12,0.06-0.16,0.11c-0.05,0.05-0.08,0.1-0.11,0.17
			c-0.03,0.06-0.04,0.14-0.04,0.21c0,0.08,0.01,0.15,0.04,0.21s0.06,0.12,0.11,0.17c0.05,0.05,0.1,0.08,0.16,0.11
			c0.06,0.03,0.13,0.04,0.2,0.04s0.14-0.01,0.2-0.04c0.06-0.03,0.12-0.06,0.16-0.11c0.05-0.05,0.08-0.1,0.11-0.17
			c0.03-0.06,0.04-0.14,0.04-0.21c0-0.08-0.01-0.15-0.04-0.21c-0.03-0.06-0.06-0.12-0.11-0.17c-0.05-0.05-0.1-0.08-0.16-0.11
			C79.86,70.2,79.79,70.19,79.72,70.19z M79.72,69.85c0.13,0,0.25,0.02,0.35,0.07c0.11,0.04,0.2,0.1,0.28,0.18
			c0.08,0.08,0.14,0.17,0.19,0.27c0.04,0.11,0.07,0.22,0.07,0.34s-0.02,0.24-0.07,0.34c-0.04,0.11-0.11,0.2-0.19,0.27
			c-0.08,0.08-0.17,0.14-0.28,0.18c-0.11,0.04-0.23,0.07-0.35,0.07c-0.13,0-0.25-0.02-0.35-0.07c-0.11-0.04-0.2-0.1-0.28-0.18
			c-0.08-0.08-0.14-0.17-0.19-0.27c-0.04-0.11-0.07-0.22-0.07-0.34s0.02-0.24,0.07-0.34c0.04-0.11,0.11-0.2,0.19-0.27
			c0.08-0.08,0.17-0.14,0.28-0.18C79.48,69.87,79.59,69.85,79.72,69.85z M70.44,70.71c0-0.29,0.19-0.53,0.5-0.53
			c0.3,0,0.49,0.23,0.49,0.53s-0.2,0.53-0.49,0.53C70.63,71.24,70.44,71,70.44,70.71z M71.77,70.71v-0.82h-0.36v0.2
			c-0.11-0.15-0.28-0.24-0.52-0.24c-0.46,0-0.82,0.36-0.82,0.86c0,0.5,0.36,0.86,0.82,0.86c0.23,0,0.4-0.09,0.52-0.24v0.2h0.36
			V70.71z M69.76,71.53V70.5c0-0.39-0.25-0.65-0.65-0.65c-0.21,0-0.43,0.06-0.58,0.29c-0.11-0.18-0.29-0.29-0.54-0.29
			c-0.17,0-0.35,0.05-0.48,0.24v-0.2h-0.36v1.64h0.36v-0.91c0-0.28,0.16-0.44,0.4-0.44c0.24,0,0.36,0.15,0.36,0.43v0.91h0.36v-0.91
			c0-0.28,0.17-0.44,0.4-0.44c0.24,0,0.36,0.15,0.36,0.43v0.91H69.76z"/>
	</g>
</g>
</svg>
