<svg id="Layer_1" data-name="Layer 1" xmlns="http://www.w3.org/2000/svg" viewBox="0 0 80 62.08"><defs><style>.cls-1{fill:#f06022;}.cls-2{fill:#e91d25;}.cls-3{fill:#f59d1e;}</style></defs><title>mastercard_brazil</title><path d="M24.56,80.9V76.78A2.42,2.42,0,0,0,22,74.17a2.68,2.68,0,0,0-2.33,1.17,2.4,2.4,0,0,0-2.2-1.17,2.22,2.22,0,0,0-1.92,1v-.82H14.06V80.9H15.5V77.26c0-1.17.62-1.72,1.58-1.72s1.44.62,1.44,1.72V80.9H20V77.26a1.52,1.52,0,0,1,1.58-1.72c1,0,1.44.62,1.44,1.72V80.9Zm21.35-6.59H43.58v-2H42.14v2h-1.3v1.3h1.3v3c0,1.51.62,2.4,2.27,2.4a3.94,3.94,0,0,0,1.79-.48l-.41-1.24a2.29,2.29,0,0,1-1.24.34c-.69,0-1-.41-1-1.1v-3h2.33V74.31Zm12.23-.14a2,2,0,0,0-1.72,1v-.82H55V80.9h1.44V77.19c0-1.1.48-1.72,1.37-1.72a3.93,3.93,0,0,1,.89.14l.41-1.37A4.35,4.35,0,0,0,58.14,74.17Zm-18.47.69A4.73,4.73,0,0,0,37,74.17c-1.65,0-2.75.82-2.75,2.13,0,1.1.82,1.72,2.27,1.92l.69.07c.76.14,1.17.34,1.17.69s-.55.82-1.51.82a3.75,3.75,0,0,1-2.2-.69L34,80.21a4.87,4.87,0,0,0,2.82.82c1.92,0,3-.89,3-2.13s-.89-1.79-2.27-2l-.69-.07c-.62-.07-1.1-.21-1.1-.62s.48-.76,1.24-.76a4.9,4.9,0,0,1,2.06.55ZM78,74.17a2,2,0,0,0-1.72,1v-.82H74.82V80.9h1.44V77.19c0-1.1.48-1.72,1.37-1.72a3.93,3.93,0,0,1,.89.14l.41-1.37A4.26,4.26,0,0,0,78,74.17Zm-18.4,3.44A3.29,3.29,0,0,0,63.08,81a3.4,3.4,0,0,0,2.33-.76l-.69-1.17a2.8,2.8,0,0,1-1.72.62,2,2,0,0,1-2-2.13,2,2,0,0,1,2-2.13,2.8,2.8,0,0,1,1.72.62l.69-1.17a3.41,3.41,0,0,0-2.33-.76A3.31,3.31,0,0,0,59.58,77.61Zm13.32,0v-3.3H71.46v.82a2.48,2.48,0,0,0-2.06-1,3.43,3.43,0,0,0,0,6.86,2.31,2.31,0,0,0,2.06-1v.82H72.9Zm-5.29,0a2,2,0,1,1,4,0,2,2,0,1,1-4,0ZM50.38,74.17A3.43,3.43,0,0,0,50.44,81a4.2,4.2,0,0,0,2.68-.89l-.69-1a3.31,3.31,0,0,1-1.92.69,1.85,1.85,0,0,1-2-1.58H53.4v-.55C53.47,75.55,52.23,74.17,50.38,74.17Zm0,1.24A1.61,1.61,0,0,1,52,77H48.6A1.72,1.72,0,0,1,50.38,75.41Zm35.77,2.2V71.7H84.71v3.43a2.48,2.48,0,0,0-2.06-1,3.43,3.43,0,0,0,0,6.86,2.31,2.31,0,0,0,2.06-1v.82h1.44Zm-5.28,0a2,2,0,1,1,4,0,2,2,0,1,1-4,0Zm-48.21,0v-3.3H31.22v.82a2.48,2.48,0,0,0-2.06-1,3.43,3.43,0,0,0,0,6.86,2.31,2.31,0,0,0,2.06-1v.82h1.44Zm-5.36,0a2,2,0,1,1,4,0,2,2,0,1,1-4,0Z" transform="translate(-10 -18.96)"/><rect class="cls-1" x="29.18" y="5.29" width="21.63" height="38.87"/><path class="cls-2" d="M40.56,43.68A24.77,24.77,0,0,1,50,24.25a24.72,24.72,0,1,0,0,38.86A24.69,24.69,0,0,1,40.56,43.68Z" transform="translate(-10 -18.96)"/><path class="cls-3" d="M90,43.68A24.69,24.69,0,0,1,50,63.11a24.76,24.76,0,0,0,0-38.86A24.69,24.69,0,0,1,90,43.68Z" transform="translate(-10 -18.96)"/></svg>