<?xml version="1.0" encoding="utf-8"?>
<!-- Generator: Adobe Illustrator 24.1.1, SVG Export Plug-In . SVG Version: 6.00 Build 0)  -->
<svg version="1.1" id="Layer_1" xmlns="http://www.w3.org/2000/svg" xmlns:xlink="http://www.w3.org/1999/xlink" x="0px" y="0px"
	 viewBox="0 0 100 100" style="enable-background:new 0 0 100 100;" xml:space="preserve">
<style type="text/css">
	.st0{fill:#D7D7D7;}
	.st1{fill:#F06022;}
	.st2{fill:#E91D25;}
	.st3{fill:#F59D1E;}
</style>
<g>
	<path class="st0" d="M86.36,77.27H13.64c-2.01,0-3.64-1.63-3.64-3.64V26.36c0-2.01,1.63-3.64,3.64-3.64h72.73
		c2.01,0,3.64,1.63,3.64,3.64v47.27C90,75.64,88.37,77.27,86.36,77.27z"/>
	<g>
		<path d="M67.58,71.49v-1.03c0-0.39-0.24-0.65-0.65-0.65c-0.21,0-0.43,0.07-0.58,0.29c-0.12-0.19-0.29-0.29-0.55-0.29
			c-0.17,0-0.34,0.05-0.48,0.24v-0.21h-0.36v1.65h0.36v-0.91c0-0.29,0.15-0.43,0.39-0.43c0.24,0,0.36,0.15,0.36,0.43v0.91h0.36
			v-0.91c0-0.29,0.17-0.43,0.39-0.43c0.24,0,0.36,0.15,0.36,0.43v0.91H67.58z M72.92,69.84h-0.58v-0.5h-0.36v0.5h-0.33v0.33h0.33
			v0.76c0,0.38,0.15,0.6,0.57,0.6c0.15,0,0.33-0.05,0.45-0.12l-0.1-0.31c-0.1,0.07-0.22,0.09-0.31,0.09c-0.17,0-0.24-0.1-0.24-0.27
			v-0.74h0.58V69.84z M75.98,69.81c-0.21,0-0.34,0.1-0.43,0.24v-0.21h-0.36v1.65h0.36v-0.93c0-0.27,0.12-0.43,0.34-0.43
			c0.07,0,0.15,0.02,0.22,0.03l0.1-0.34C76.15,69.81,76.04,69.81,75.98,69.81z M71.36,69.98c-0.17-0.12-0.41-0.17-0.67-0.17
			c-0.41,0-0.69,0.21-0.69,0.53c0,0.27,0.21,0.43,0.57,0.48l0.17,0.02c0.19,0.03,0.29,0.09,0.29,0.17c0,0.12-0.14,0.21-0.38,0.21
			c-0.24,0-0.43-0.09-0.55-0.17l-0.17,0.27c0.19,0.14,0.45,0.21,0.7,0.21c0.48,0,0.76-0.22,0.76-0.53c0-0.29-0.22-0.45-0.57-0.5
			l-0.17-0.02c-0.15-0.02-0.27-0.05-0.27-0.15c0-0.12,0.12-0.19,0.31-0.19c0.21,0,0.41,0.09,0.52,0.14L71.36,69.98z M80.94,69.81
			c-0.21,0-0.34,0.1-0.43,0.24v-0.21h-0.36v1.65h0.36v-0.93c0-0.27,0.12-0.43,0.34-0.43c0.07,0,0.15,0.02,0.22,0.03l0.1-0.34
			C81.11,69.81,81.01,69.81,80.94,69.81z M76.34,70.67c0,0.5,0.34,0.86,0.88,0.86c0.24,0,0.41-0.05,0.58-0.19l-0.17-0.29
			c-0.14,0.1-0.27,0.15-0.43,0.15c-0.29,0-0.5-0.21-0.5-0.53c0-0.31,0.21-0.52,0.5-0.53c0.15,0,0.29,0.05,0.43,0.15L77.8,70
			c-0.17-0.14-0.34-0.19-0.58-0.19C76.68,69.81,76.34,70.17,76.34,70.67z M79.67,70.67v-0.82h-0.36v0.21
			c-0.12-0.15-0.29-0.24-0.52-0.24c-0.46,0-0.82,0.36-0.82,0.86c0,0.5,0.36,0.86,0.82,0.86c0.24,0,0.41-0.09,0.52-0.24v0.21h0.36
			V70.67z M78.34,70.67c0-0.29,0.19-0.53,0.5-0.53c0.29,0,0.5,0.22,0.5,0.53c0,0.29-0.21,0.53-0.5,0.53
			C78.53,71.18,78.34,70.96,78.34,70.67z M74.04,69.81c-0.48,0-0.82,0.34-0.82,0.86s0.34,0.86,0.84,0.86c0.24,0,0.48-0.07,0.67-0.22
			l-0.17-0.26c-0.14,0.1-0.31,0.17-0.48,0.17c-0.22,0-0.45-0.1-0.5-0.39h1.22v-0.14C74.81,70.15,74.5,69.81,74.04,69.81z
			 M74.04,70.12c0.22,0,0.38,0.14,0.41,0.39h-0.86C73.62,70.29,73.78,70.12,74.04,70.12z M82.98,70.67v-1.48h-0.36v0.86
			c-0.12-0.15-0.29-0.24-0.52-0.24c-0.46,0-0.82,0.36-0.82,0.86c0,0.5,0.36,0.86,0.82,0.86c0.24,0,0.41-0.09,0.52-0.24v0.21h0.36
			V70.67z M81.66,70.67c0-0.29,0.19-0.53,0.5-0.53c0.29,0,0.5,0.22,0.5,0.53c0,0.29-0.21,0.53-0.5,0.53
			C81.85,71.18,81.66,70.96,81.66,70.67z M69.61,70.67v-0.82h-0.36v0.21c-0.12-0.15-0.29-0.24-0.52-0.24
			c-0.46,0-0.82,0.36-0.82,0.86c0,0.5,0.36,0.86,0.82,0.86c0.24,0,0.41-0.09,0.52-0.24v0.21h0.36V70.67z M68.27,70.67
			c0-0.29,0.19-0.53,0.5-0.53c0.29,0,0.5,0.22,0.5,0.53c0,0.29-0.21,0.53-0.5,0.53C68.46,71.18,68.27,70.96,68.27,70.67z"/>
		<rect x="71.24" y="57.33" class="st1" width="5.41" height="9.72"/>
		<path class="st2" d="M71.58,62.19c0-1.97,0.93-3.73,2.35-4.86c-1.05-0.82-2.37-1.32-3.81-1.32c-3.42,0-6.18,2.76-6.18,6.18
			c0,3.42,2.76,6.18,6.18,6.18c1.44,0,2.76-0.5,3.81-1.32C72.51,65.93,71.58,64.16,71.58,62.19z"/>
		<path class="st3" d="M83.94,62.19c0,3.42-2.76,6.18-6.18,6.18c-1.44,0-2.76-0.5-3.81-1.32c1.44-1.13,2.35-2.88,2.35-4.86
			c0-1.97-0.93-3.73-2.35-4.86c1.05-0.82,2.37-1.32,3.81-1.32C81.18,56.01,83.94,58.79,83.94,62.19z"/>
	</g>
</g>
</svg>
