<svg xmlns="http://www.w3.org/2000/svg" viewBox="0 0 80 30.78"><defs><style>.cls-1{fill:#e21e26;}.cls-2{fill:#f29220;}.cls-3{fill:#cc2027;}.cls-4{fill:#23a149;}.cls-5{fill:#0d76bd;}.cls-6{fill:#1f1b16;}.cls-7{fill:#fff;}</style></defs><title>mBank</title><g id="Layer_2" data-name="Layer 2"><g id="mBank"><rect class="cls-1" width="22.51" height="30.77"/><rect class="cls-2" x="25.76" width="18.07" height="30.78"/><rect class="cls-3" x="43.62" width="12.8" height="30.78"/><rect class="cls-4" x="59.52" width="20.48" height="30.78"/><rect class="cls-5" x="56.42" width="3.12" height="30.78"/><rect class="cls-6" x="22.5" width="3.26" height="30.78"/><path class="cls-7" d="M30.52,14.74h1.31a2.35,2.35,0,0,0,1.7-.44A1.66,1.66,0,0,0,34,13a1.61,1.61,0,0,0-.46-1.22,2.5,2.5,0,0,0-1.74-.41H30.52Zm0,5.53h1.6c1.8,0,2.47-.51,2.47-1.87A1.68,1.68,0,0,0,34.11,17a2.83,2.83,0,0,0-2-.48H30.52Zm-3,2.18V11.36H26.26V9.2h6c1.88,0,3,.28,3.71,1a3.15,3.15,0,0,1,1,2.41,2.94,2.94,0,0,1-1.53,2.7l-.07,0,.07,0a3.08,3.08,0,0,1,2.32,3.23,3.35,3.35,0,0,1-1.88,3.31,7.74,7.74,0,0,1-3.49.59Zm29.23,0v-6.2a2.37,2.37,0,0,0-.32-1.44,1.52,1.52,0,0,0-1.26-.53,1.64,1.64,0,0,0-1.36.62,2.76,2.76,0,0,0-.4,1.72v5.83H50.53V14.34h-1.2V12.27h2.94l.47,1.22,0,0a4,4,0,0,1,3.17-1.37,3.79,3.79,0,0,1,2.8,1,3.71,3.71,0,0,1,.89,2.73v6.64Zm13,.12a2.53,2.53,0,0,1-2.41-1.5L65.48,18H64.6v4.48H61.72V10.22h-1.2V8.14H64.6v7.67h1l2.06-3.54h2.87l-2.64,4.54,2,3.26c.25.42.44.55.77.55a1.47,1.47,0,0,0,.78-.25l.1-.08-.09,1.79,0,0a2.86,2.86,0,0,1-1.66.47m-45.65,0a2.08,2.08,0,0,1-1.81-.73,2.81,2.81,0,0,1-.39-1.65V16.25a2.24,2.24,0,0,0-.3-1.44,1.49,1.49,0,0,0-1.21-.53,1.62,1.62,0,0,0-1.3.6,2.65,2.65,0,0,0-.4,1.7v5.87H15.8v-6.2a2.24,2.24,0,0,0-.3-1.44,1.49,1.49,0,0,0-1.21-.53,1.6,1.6,0,0,0-1.3.6,2.64,2.64,0,0,0-.41,1.7v5.87H9.7V14.34H8.5V12.27h2.95l.47,1.22,0-.05a3.86,3.86,0,0,1,3.12-1.36,3.45,3.45,0,0,1,3,1.3l0,0,0,0a3.86,3.86,0,0,1,3-1.3,3.52,3.52,0,0,1,3,1.29,4,4,0,0,1,.59,2.46v4.24c0,.49.22.56.44.56a1.57,1.57,0,0,0,.75-.26l.11-.08L26,22h0a3.4,3.4,0,0,1-1.86.53m19.41-5.1a1.52,1.52,0,0,0-1.7,1.64,1.43,1.43,0,0,0,1.51,1.62,1.57,1.57,0,0,0,1.16-.46,1.76,1.76,0,0,0,.4-1.22V17.7h0a4.74,4.74,0,0,0-1.35-.22m-1,5.16c-2.23,0-3.62-1.3-3.62-3.4s1.49-3.46,4-3.46a6.78,6.78,0,0,1,1.93.3h0V15.9a1.87,1.87,0,0,0-.38-1.39A2.08,2.08,0,0,0,42.86,14a6.63,6.63,0,0,0-3,.74l-.09,0v-2l0,0a8.54,8.54,0,0,1,3.46-.67,5,5,0,0,1,3.55,1.08,3.34,3.34,0,0,1,.91,2.61v4.29c0,.4.12.56.41.56a1.71,1.71,0,0,0,.77-.25l.11-.08L48.92,22l0,0a3.41,3.41,0,0,1-1.88.53,1.82,1.82,0,0,1-1.78-.95l0-.05,0,0a3.59,3.59,0,0,1-2.67,1"/></g></g></svg>