<svg xmlns="http://www.w3.org/2000/svg" xmlns:xlink="http://www.w3.org/1999/xlink" viewBox="0 0 79.98 14.57"><defs><style>.cls-1{fill:none;}.cls-2{clip-path:url(#clip-path);}.cls-3{fill:#279c48;}.cls-4{fill:#cf3d51;}.cls-5{fill:#909697;}</style><clipPath id="clip-path"><rect class="cls-1" x="0.01" width="80" height="14.63"/></clipPath></defs><title>Migros_Bank</title><g id="Layer_2" data-name="Layer 2"><g id="Migros_Bank"><g class="cls-2"><path d="M48,.16a.36.36,0,0,0-.37.37V8.29h3.31c1.86,0,3.22-.59,3.22-2.24a1.85,1.85,0,0,0-1.53-2,1.7,1.7,0,0,0,1.2-1.88c0-1.55-1.35-2-2.85-2Zm9.44,0a.38.38,0,0,0-.4.28L54.57,8.29h2.17l.39-1.37h2.8l.4,1.37h2.18L60.05.16Zm6.11,0V8.29h2.06V3.16L69,8.29h2V.16H69v5c-.47-.84-3.28-5-3.28-5Zm9.56,0a.35.35,0,0,0-.38.31V8.29H74.8V4.58l2.69,3.71H80L76.82,3.94,79.87.16H77.52L74.8,3.63V.16ZM49.52,1.64H50.7c.76,0,1.15.28,1.15.89s-.35.89-1.19.89H49.52Zm9,.07h.11l1,3.64H57.49Zm-9,3.15h1.34c.85,0,1.27.29,1.27,1s-.5,1-1.34,1H49.52Z"/><path class="cls-3" d="M0,10.54v4H69l.08-.07V10.61L69,10.54Z"/><rect class="cls-4" x="68.97" y="10.54" width="11.01" height="4.04"/><path class="cls-5" d="M7.2,8.3V3.6l-2,4.7H4.07l-2-4.7V8.3H0V.16H2.79L4.7,4.75l2-4.59H9.28V8.3Zm3.69,0V.16h1.78A.33.33,0,0,1,13,.48V8.3Zm7.87-4.69h2.65a.34.34,0,0,1,.33.37V8.19A14.41,14.41,0,0,1,19,8.46c-3,0-4.64-1.45-4.64-4.24A4,4,0,0,1,18.6,0a5.22,5.22,0,0,1,2.86.76l-.82,1.4a5.27,5.27,0,0,0-1.89-.43c-1.53,0-2.25,1-2.25,2.49a2.24,2.24,0,0,0,2.36,2.54,6.94,6.94,0,0,0,.91,0V5.28h-1ZM27.92,8.3,27,6.06c-.2-.46-.34-.68-.76-.68h-.84V8.3H23.31V.48a.36.36,0,0,1,.32-.32h2.89c1.57,0,2.91.32,2.91,2.35a2,2,0,0,1-1.44,2A2.43,2.43,0,0,1,29.19,6l.93,2.35ZM26.38,1.73h-1v2h1a1,1,0,0,0,1.09-1.1c0-.79-.48-.94-1.09-.94m8.26,6.73a3.91,3.91,0,0,1-4.07-4.24A3.9,3.9,0,0,1,34.64,0c2.5,0,3.91,1.88,3.91,4.22s-1.41,4.24-3.91,4.24m0-6.73c-1.09,0-1.88.78-1.88,2.49s.79,2.51,1.88,2.51c.94,0,1.72-.78,1.72-2.51s-.78-2.49-1.72-2.49m7.92,6.73a6.29,6.29,0,0,1-3.22-.89l.92-1.64a5.33,5.33,0,0,0,2.46.79c.52,0,1.19-.1,1.19-.68s-.74-.72-1.72-1c-1.17-.34-2.54-.8-2.54-2.38S41.16,0,43.13,0A4.17,4.17,0,0,1,46,1L44.82,2.24a3.47,3.47,0,0,0-1.77-.6c-.77,0-1.2.3-1.2.73s.56.63,1.26.85c1.24.38,3,.77,3,2.4s-1.35,2.84-3.5,2.84"/></g></g></g></svg>