<svg xmlns="http://www.w3.org/2000/svg" viewBox="0 0 80 18.65"><defs><style>.cls-1{fill:#c12581;}.cls-1,.cls-2{fill-rule:evenodd;}.cls-2{fill:#fff;}</style></defs><title>Millennium-bank</title><g id="Layer_2" data-name="Layer 2"><g id="Millennium-bank"><polygon class="cls-1" points="0 0.03 0 18.65 80 18.65 80 0.03 0 0.03 0 0.03"/><path class="cls-2" d="M67.24,5.81a2.39,2.39,0,0,0-1.93-1.15A2.24,2.24,0,0,0,64,4.92a2.3,2.3,0,0,0-.74.71c-.13.15.11-.1,0,0l0,0V4.83H62v6.22h1.22c0-.53,0-2.76,0-3.48S63.32,6,64,5.7a1.46,1.46,0,0,1,1.92.47c.53.74.39,2.13.39,3.11v1.77h1.2c.12-1.15-.26-4.12.34-5a1,1,0,0,1,.47-.41,1.86,1.86,0,0,1,.75-.14c1.14,0,1.47.89,1.53,2,0,.58,0,1.18,0,1.77v1.74h1.23c0-.31,0-2.52,0-3a4.61,4.61,0,0,0-.48-2.59,2.36,2.36,0,0,0-2.19-.77A2.45,2.45,0,0,0,68,5.05a6.08,6.08,0,0,0-.77.76Z"/><path class="cls-2" d="M36.37,9.57c-.12,0,0,0-.09,0a2.87,2.87,0,0,1-.57.33,3.6,3.6,0,0,1-2.62.17,2.28,2.28,0,0,1-1.19-.86,1.89,1.89,0,0,1-.48-1.59h4.95a3,3,0,0,0-.8-2.18,3.07,3.07,0,0,0-2.1-.87,3.5,3.5,0,0,0-2.3.68c-.1.08-.1,0-.2.16l-.18.2A3,3,0,0,0,30,7.15a3.25,3.25,0,0,0,2.16,3.74,5.13,5.13,0,0,0,2.65.19,4.07,4.07,0,0,0,.58-.14c.49-.17.26-.15.68-.85.09-.14.19-.36.27-.52Z"/><path class="cls-2" d="M59,10.19V11h1.21V4.82H59c0,.22,0,2.94,0,3.41a2.2,2.2,0,0,1-.38,1.37,1.43,1.43,0,0,1-1.17.58c-1.86,0-1.54-2-1.54-3.64l0-1.73h-1.2c0,.21,0,2.47,0,2.89a5,5,0,0,0,.39,2.53,2.42,2.42,0,0,0,.3.41,2.71,2.71,0,0,0,2.84.27,2.51,2.51,0,0,0,.69-.67c.08-.08,0,0,.08-.07Z"/><path class="cls-2" d="M38.77,5.67l0-.83H37.52v6.2h1.23c0-.52,0-2.78,0-3.49A2.64,2.64,0,0,1,39,6.06a1.39,1.39,0,0,1,1.28-.52c1.17,0,1.53.84,1.54,2s0,2.37,0,3.51h1.21c0-.58,0-2.21,0-2.9a4.76,4.76,0,0,0-.34-2.56A2.59,2.59,0,0,0,39.52,5a4.35,4.35,0,0,0-.75.71Z"/><path class="cls-2" d="M45.78,5.67V4.85H44.55v6.21h1.22c0-.55,0-1.18,0-1.73V7.53c0-1.26.18-2,1.55-2A1.67,1.67,0,0,1,48,5.7c.69.32.78,1.1.83,1.83s0,2.67,0,3.52l1.22,0c0-.92,0-2,0-2.9,0-1.32.19-2.58-1.14-3.2a2.57,2.57,0,0,0-2.8.33,1.56,1.56,0,0,0-.16.2.6.6,0,0,1-.21.21Z"/><polygon class="cls-2" points="27.35 11.05 27.46 11.06 28.48 11.06 28.59 11.06 28.59 2.16 27.34 2.16 27.35 11.05 27.35 11.05"/><polygon class="cls-2" points="24.27 4.34 24.27 11.06 24.38 11.06 25.39 11.06 25.49 11.05 25.51 2.16 25.33 2.16 24.27 2.16 24.27 4.34 24.27 4.34"/><path class="cls-2" d="M51.89,11.05h1.18V4.85H51.91c0,.25,0,6,0,6.19Z"/><path class="cls-2" d="M21.16,11.07a4.66,4.66,0,0,1,1.18,0V4.84H21.15v6.23Z"/><path class="cls-2" d="M56.73,14.67c.61-.36,1.55-.34,1.52.21s-1,.36-1.58.67a.83.83,0,0,0-.3,1.13,1.1,1.1,0,0,0,1.14.54c.24,0,.23,0,.35-.18l.25-.32a1.43,1.43,0,0,1-.82,0c-.45-.16-.63-.82.18-1,.36-.1.43-.11.78-.23a9,9,0,0,0,0,1.29,1.33,1.33,0,0,0,.85.44l.27-.42c-.57-.11-.56-.19-.56-1a2.71,2.71,0,0,0-.15-1.38,1.31,1.31,0,0,0-1.13-.4c-.61,0-.39.08-.84.67Z"/><path class="cls-2" d="M60.39,14.46v-.38h-.57l0,3.06h.6V15.43c0-.61.08-1,.76-1s.75.41.76,1v1.74h.61V15.73a2.57,2.57,0,0,0-.16-1.26,1.24,1.24,0,0,0-1.84-.12.3.3,0,0,1-.14.11Z"/><path class="cls-1" d="M31.48,6.89H35c-.13-1.51-2.05-1.7-2.89-1a1.53,1.53,0,0,0-.59,1Z"/><path class="cls-2" d="M64.15,15.43a1.86,1.86,0,0,0,.14.2l1.1,1.51h.78c0-.08-.09-.13-.15-.21l-1.21-1.56a7,7,0,0,1,.69-.82l.39-.47h-.36c-.27,0-.21,0-.66.5a5.12,5.12,0,0,0-.36.43l-.18.21a1.81,1.81,0,0,0-.18.21Z"/><path class="cls-2" d="M52.33,2.39A.81.81,0,0,0,52.59,4a.81.81,0,0,0-.26-1.59Z"/><path class="cls-2" d="M21.53,2.4a.8.8,0,1,0,.91.62.79.79,0,0,0-.91-.62Z"/><polygon class="cls-2" points="0 12.4 0 12.75 79.91 12.75 79.91 12.4 0 12.4 0 12.4"/><path class="cls-2" d="M53,17.19a1,1,0,0,0,.49.11l.55,0c2.85-.09,2.26-3.57.28-3.22-.25.05-.21.07-.32.25a2.17,2.17,0,0,0-.22.34,1.21,1.21,0,0,1,1.54,1.07c0,.94-.79,1.24-1.72,1,0-1.44,0-2.86,0-4.29H53l0,4.7Z"/><polygon class="cls-2" points="63.4 17.14 64 17.14 64 12.76 64 12.4 63.38 12.4 63.4 17.14 63.4 17.14"/><path class="cls-2" d="M6.76,0A3.09,3.09,0,0,1,8.58.48c.07.06.12.12.17.17.88.89.62,2.3.5,3.31-.19,1.51-.43,3.24-.64,4.76-.07.44-.36,2.12-.37,2.32H9.36c.06-.61.13-1.32.21-1.91s.16-1.25.24-1.85.44-3.6.52-3.71c.26.56.77,1.74,1,2.25L12,7.59c.3.65.56,1.32.84,2a3.22,3.22,0,0,0,1.18,1.63l.75-1.92c.53-1.29,1-2.56,1.5-3.83.05-.12.67-1.8.78-1.89.14,1.21.31,2.51.44,3.72s.36,2.52.4,3.74l1.48,0-.32-2.2c-.1-.73-.18-1.47-.29-2.19-.23-1.46-.42-3-.56-4.45H16.41l-.55,1.71c-.2.54-.44,1.07-.63,1.61s-.42,1.1-.63,1.61c-.08.21-.57,1.49-.63,1.58-.37-.82-.73-1.63-1.08-2.47-.17-.43-.37-.82-.53-1.24s-.36-.82-.53-1.23A7,7,0,0,0,9.88.66,4.47,4.47,0,0,0,9.21.24L8.57,0Z"/></g></g></svg>