<svg xmlns="http://www.w3.org/2000/svg" viewBox="0 0 80.88 48.46"><defs><style>.cls-1,.cls-4{fill:#fff;}.cls-1{stroke:#0079be;stroke-miterlimit:2.61;stroke-width:0.88px;}.cls-1,.cls-2,.cls-3,.cls-4{fill-rule:evenodd;}.cls-2{fill:#0079be;}.cls-3{fill:#ffe237;}</style></defs><title>Mister-Cash</title><g id="Layer_2" data-name="Layer 2"><g id="Mister-Cash"><path class="cls-1" d="M40.44.44H74.52c4.52,0,5.92,3.31,5.92,5.65V42.37A5.51,5.51,0,0,1,74.52,48H6.35A5.53,5.53,0,0,1,.44,42.37V6.09A5.49,5.49,0,0,1,6.35.44Z"/><polygon class="cls-2" points="24.4 28.03 36.85 28.03 43.81 20.57 56.3 20.57 45.7 32.4 6.49 32.4 6.49 24.5 27.51 24.5 24.4 28.03 24.4 28.03"/><polygon class="cls-3" points="56.3 20.57 43.81 20.57 36.85 28.07 24.32 28.07 34.92 16.24 74.17 16.24 74.17 24.1 53.14 24.1 56.3 20.57 56.3 20.57"/><path class="cls-2" d="M69.13,13.33a3.92,3.92,0,0,1-2,.53,3.69,3.69,0,0,1-3.81-3.58A3.55,3.55,0,0,1,67,6.71a4.28,4.28,0,0,1,2.14.48V9.4a2.66,2.66,0,0,0-1.84-.53,1.54,1.54,0,0,0-1.53,1.5,1.45,1.45,0,0,0,1.53,1.28,2.53,2.53,0,0,0,1.84-.49v2.17Z"/><path class="cls-2" d="M74.26,11.65v1.68c-1.8,1.32-3.85.22-3.85-1.33V8.91h-.88v-2h.88V5.25l2.45-1.32V6.88h1.4V8.74H73v2.87c0,.53.88.48,1.27,0Z"/><path class="cls-2" d="M56.52,9.09l.39-1.9c2.46-.84,6-.35,6,1.86v4.67H60.59l-.09-.22c-1,.67-4.9,1-4.38-2.07.31-1.81,2.37-2.25,3.64-2.25.66,0,.92-.62.09-.66a7.43,7.43,0,0,0-3.33.57Z"/><path class="cls-2" d="M15.16,9.09l.35-1.9c2.45-.84,6-.35,6,1.86v4.67H19.15l0-.22c-1,.67-5,1-4.38-2.07C15,9.62,17,9.18,18.31,9.18c.66,0,.92-.62.14-.66a7.11,7.11,0,0,0-3.29.57Z"/><path class="cls-2" d="M43.24,10.37a3.59,3.59,0,0,1-3.77,3.53,3.7,3.7,0,0,1-3.81-3.62,3.79,3.79,0,0,1,7.58.09Z"/><path class="cls-2" d="M55.68,11.65v1.68c-1.84,1.32-3.85.22-3.85-1.33V8.91H51v-2h.88V5.25l2.5-1.32V6.88h1.35V8.74H54.37v2.87c0,.53.92.48,1.31,0Z"/><path class="cls-2" d="M11.08,3.44a2.83,2.83,0,0,1,1.84,4.94,2.83,2.83,0,0,1-1.48,5.3H6.53V3.44Z"/><path class="cls-2" d="M35.22,13.33a3.84,3.84,0,0,1-5.78-3.05,3.54,3.54,0,0,1,3.64-3.57,4.28,4.28,0,0,1,2.14.48V9.4a2.62,2.62,0,0,0-1.79-.53,1.55,1.55,0,0,0-1.58,1.5c0,.79.88,1.28,1.58,1.28a2.47,2.47,0,0,0,1.79-.49v2.17Z"/><path class="cls-2" d="M29,9.27v4.45H26.51V9.88a1,1,0,1,0-2,0v3.84H22.08V6.88h2.5v.58A2.61,2.61,0,0,1,29,9.27Z"/><path class="cls-2" d="M50.6,9.27v4.45H48.15V9.88a1,1,0,1,0-2,0v3.84H43.72V6.88h2.46v.58c2.1-1.55,4.42-.14,4.42,1.81Z"/><path class="cls-2" d="M59.85,8.52c.83,0,.57.66-.09.66-1.27,0-3.33.44-3.64,2.25-.52,3.05,3.33,2.74,4.38,2.07l.09.22h2.28V9.05c0-2.21-3.5-2.7-6-1.86l-.39,1.9a7.43,7.43,0,0,1,3.33-.57Z"/><path class="cls-2" d="M18.45,8.52c.78,0,.52.66-.14.66-1.27,0-3.28.44-3.59,2.25-.61,3.05,3.37,2.74,4.38,2.07l0,.22h2.32V9.05c0-2.21-3.51-2.7-6-1.86l-.35,1.9a7.11,7.11,0,0,1,3.29-.57Z"/><path class="cls-2" d="M39.43,6.66a3.72,3.72,0,0,0-3.77,3.62,3.7,3.7,0,0,0,3.81,3.62,3.59,3.59,0,0,0,3.77-3.53,3.72,3.72,0,0,0-3.81-3.71Z"/><path class="cls-2" d="M54.37,11.61V8.74h1.31V6.88H54.33V3.93l-2.5,1.32V6.88H51v2h.88V12c0,1.55,2,2.65,3.85,1.33V11.65c-.39.44-1.31.49-1.31,0Z"/><path class="cls-2" d="M6.53,3.44V13.68h4.91a2.83,2.83,0,0,0,1.48-5.3,2.83,2.83,0,0,0-1.84-4.94Z"/><path class="cls-2" d="M35.22,11.16a2.47,2.47,0,0,1-1.79.49c-.7,0-1.58-.49-1.58-1.28a1.55,1.55,0,0,1,1.58-1.5,2.62,2.62,0,0,1,1.79.53V7.19a4.28,4.28,0,0,0-2.14-.48,3.54,3.54,0,0,0-3.64,3.57,3.84,3.84,0,0,0,5.78,3.05V11.16Z"/><path class="cls-2" d="M24.58,7.46V6.88h-2.5v6.84h2.45V9.88a1,1,0,1,1,2,0v3.84H29V9.27a2.61,2.61,0,0,0-4.38-1.81Z"/><path class="cls-2" d="M46.18,7.46V6.88H43.72v6.84h2.46V9.88a1,1,0,1,1,2,0v3.84H50.6V9.27c0-1.95-2.32-3.36-4.42-1.81Z"/><path class="cls-2" d="M69.13,11.16a2.53,2.53,0,0,1-1.84.49,1.45,1.45,0,0,1-1.53-1.28,1.54,1.54,0,0,1,1.53-1.5,2.66,2.66,0,0,1,1.84.53V7.19A4.28,4.28,0,0,0,67,6.71a3.55,3.55,0,0,0-3.68,3.57,3.69,3.69,0,0,0,3.81,3.58,3.92,3.92,0,0,0,2-.53V11.16Z"/><path class="cls-2" d="M73,11.61V8.74h1.27V6.88h-1.4V3.93L70.41,5.25V6.88h-.88v2h.88V12c0,1.55,2,2.65,3.85,1.33V11.65c-.39.44-1.27.49-1.27,0Z"/><path class="cls-2" d="M40.88,10.37a1.41,1.41,0,0,1-1.41,1.37,1.39,1.39,0,0,1-1.35-1.46,1.29,1.29,0,0,1,1.35-1.37,1.36,1.36,0,0,1,1.41,1.46Z"/><path class="cls-2" d="M9.33,9.58h1.1a1,1,0,1,1,0,2.07H9.33V9.58Z"/><path class="cls-2" d="M19,10.72v.84c0,.93-1.84,1.19-1.84.22s1.32-1.15,1.84-1.06Z"/><path class="cls-2" d="M60.42,10.72v.84c0,.93-1.8,1.19-1.8.22s1.31-1.15,1.8-1.06Z"/><path class="cls-2" d="M10.43,5.51c1.27.58.83,2,0,2H9.33V5.51a3.24,3.24,0,0,1,1.1,0Z"/><path class="cls-4" d="M39.47,8.91a1.29,1.29,0,0,0-1.35,1.37,1.39,1.39,0,0,0,1.35,1.46,1.41,1.41,0,0,0,1.41-1.37,1.36,1.36,0,0,0-1.41-1.46Z"/><path class="cls-4" d="M58.62,11.78c0,1,1.8.71,1.8-.22v-.84c-.49-.09-1.8.18-1.8,1.06Z"/><path class="cls-4" d="M9.33,5.51v2h1.14c.79,0,1.23-1.37,0-1.95a3.24,3.24,0,0,0-1.1,0Z"/><path class="cls-4" d="M17.17,11.78c0,1,1.84.71,1.84-.22v-.84c-.52-.09-1.84.18-1.84,1.06Z"/><path class="cls-4" d="M9.33,11.65h1.14a1,1,0,1,0,0-2.07H9.33v2.07Z"/><path class="cls-2" d="M37,41.62c0-2.38-1-3.93-3.38-3.93A3.53,3.53,0,0,0,30,41.36,3.65,3.65,0,0,0,33.87,45a5.07,5.07,0,0,0,3-.79v-2a5.59,5.59,0,0,1-2.41.71c-1.32,0-2-.35-2-1.28Z"/><polygon class="cls-2" points="11.26 41.97 13.28 39.06 13.28 44.84 15.9 44.84 15.95 34.82 13.28 34.82 11.26 37.83 9.2 34.82 6.53 34.82 6.57 44.84 9.2 44.84 9.2 39.06 11.26 41.97 11.26 41.97"/><path class="cls-2" d="M39.83,40.83a1.74,1.74,0,0,1,1.57-1.06,2.08,2.08,0,0,1,1.14.39V38a1.17,1.17,0,0,0-.92-.35,2.61,2.61,0,0,0-1.79.79v-.7H37.46v7.1h2.37v-4Z"/><path class="cls-2" d="M19.67,44.4a6.78,6.78,0,0,0,2.5.49c2.54,0,3.28-1.33,3.28-2.43,0-1.28-1.31-2-2.49-2.16-.18,0-.66-.14-.66-.36s.13-.39.7-.39a5.1,5.1,0,0,1,1.8.39l-.09-1.85a8,8,0,0,0-2.28-.4A2.47,2.47,0,0,0,19.72,40c0,1.1.78,1.68,2.05,1.94.53,0,1,.26,1,.53s-.35.44-.7.44a5.31,5.31,0,0,1-2.41-.44V44.4Z"/><path class="cls-2" d="M28.65,42.68V39.77H30v-1.9H28.57v-3l-2.5,1.33v1.72h-.88v2h.88v3.18c0,1.59,2.06,2.65,3.94,1.32V42.68c-.39.4-1.36.49-1.36,0Z"/><polygon class="cls-2" points="19.23 44.76 19.23 37.87 16.61 37.87 16.61 44.76 19.23 44.76 19.23 44.76"/><path class="cls-2" d="M17.92,37.65a1.47,1.47,0,0,0,1.45-1.46,1.42,1.42,0,0,0-1.45-1.37,1.37,1.37,0,0,0-1.36,1.37,1.42,1.42,0,0,0,1.36,1.46Z"/><path class="cls-2" d="M61.12,44.4a6.77,6.77,0,0,0,2.49.49c2.55,0,3.33-1.33,3.33-2.43,0-1.28-1.31-2-2.54-2.16-.17,0-.65-.14-.65-.36s.13-.39.74-.39a5.3,5.3,0,0,1,1.8.39l-.13-1.85a8,8,0,0,0-2.28-.4A2.48,2.48,0,0,0,61.16,40c0,1.1.79,1.68,2.06,1.94.53,0,1,.26,1,.53s-.35.44-.7.44a5.29,5.29,0,0,1-2.41-.44V44.4Z"/><path class="cls-2" d="M53.41,41.93a3.75,3.75,0,0,1-2.59.75,3.13,3.13,0,0,1-3.15-2.78,2.81,2.81,0,0,1,3.15-3,3.58,3.58,0,0,1,2.59.79V35.31a6.1,6.1,0,0,0-3-.62,5.11,5.11,0,0,0-5.35,5.12,5.32,5.32,0,0,0,5.52,5.12,5.61,5.61,0,0,0,2.81-.7v-2.3Z"/><path class="cls-2" d="M57.61,39.41c.83.05.57.71-.09.71-1.31,0-3.41.44-3.68,2.25-.56,3.09,3.38,2.83,4.43,2.16l.09.18h2.36V39.94c0-2.25-3.59-2.69-6.13-1.85L54.24,40a7.78,7.78,0,0,1,3.37-.58Z"/><path class="cls-2" d="M69.75,38.4V34.82H67.29v10h2.46V40.91a1,1,0,0,1,2,0v3.93h2.5V40.3c0-2-2.36-3.45-4.51-1.9Z"/><path class="cls-4" d="M32.33,40.25a1.07,1.07,0,0,1,1.14-.88c.48,0,1.1.22,1.1.88Z"/><path class="cls-4" d="M58.18,41.67v.83c0,1-1.84,1.2-1.84.22s1.36-1.1,1.84-1Z"/></g></g></svg>