<svg xmlns="http://www.w3.org/2000/svg" viewBox="0 0 67.73 80"><defs><style>.cls-1{fill:#231f20;}.cls-2{fill:#246bb5;fill-rule:evenodd;}</style></defs><title>Multibanco</title><g id="Layer_2" data-name="Layer 2"><g id="Multibanco"><path class="cls-1" d="M54.66,16.76H43.06a2.32,2.32,0,0,0-2.32,2.32v26.5A2.3,2.3,0,0,0,43.1,47.8H57c5,0,9-3.81,9-8.47a8.46,8.46,0,0,0-5-7.57,8.85,8.85,0,0,0-6.4-15Zm6.52,22.08a4.36,4.36,0,0,1-4.34,4.34H45.54v-22h8.91a4.2,4.2,0,0,1,.64,8.36v.05H50.66a2.44,2.44,0,0,0,0,4.88h6.18A4.36,4.36,0,0,1,61.18,38.84Z"/><path class="cls-1" d="M13.82,80h0a3.36,3.36,0,0,0,3.35-3.35h0v-4a.75.75,0,1,0-1.49,0v4h0a1.88,1.88,0,0,1-1.86,1.86h0A1.88,1.88,0,0,1,12,76.65h0v-4a.75.75,0,1,0-1.49,0v4h0A3.38,3.38,0,0,0,13.81,80h0Z"/><path class="cls-1" d="M22.74,80a.75.75,0,0,0,0-1.49H20.67a1.28,1.28,0,0,1-.92-.39,1.32,1.32,0,0,1-.39-.93h0V72.61a.75.75,0,0,0-.75-.75.74.74,0,0,0-.74.75v4.58h0a2.75,2.75,0,0,0,.82,2,2.8,2.8,0,0,0,2,.83h2.07Z"/><path class="cls-1" d="M3.86,48.22a2.79,2.79,0,0,0,3.08-2.48L9.23,24.67l8.12,20.62v0h0v0l0,0v0l0,0v.06l0,0h0l0,.05v0a3.23,3.23,0,0,0,.29.43h0l.09.09h0l.06.07.08.07h0l.09.08h0a2.74,2.74,0,0,0,.43.3h0l0,0h0l.05,0h0l0,0h0l0,0h0l0,0h0l0,0a2.75,2.75,0,0,0,.92.19h.2a2.59,2.59,0,0,0,.82-.16h0l0,0H21l0,0h.07l0,0,0,0h0l.05,0h0l0,0h0a2.43,2.43,0,0,0,.48-.34l.05,0h0a2.57,2.57,0,0,0,.57-.73v0l0,0v0l0,0v0l0,0h0l0,0,0-.06h0v0l8.12-20.6L33,45.74a2.79,2.79,0,1,0,5.55-.59l-2.7-24.84h0a4.25,4.25,0,0,0-.18-.86,4.09,4.09,0,0,0-.34-.81,4.62,4.62,0,0,0-3.47-2.41h0l-.16,0a4.1,4.1,0,0,0-.7,0h0a4.38,4.38,0,0,0-.85.11,4.61,4.61,0,0,0-3.25,2.81L20,36.64,13,19.09a4.59,4.59,0,0,0-3.25-2.81A4.37,4.37,0,0,0,9,16.17h0a4.24,4.24,0,0,0-.71,0l-.15,0h0A4.62,4.62,0,0,0,4.6,18.62a4.79,4.79,0,0,0-.34.81,5.06,5.06,0,0,0-.18.86h0L1.38,45.15A2.79,2.79,0,0,0,3.86,48.22Z"/><path class="cls-1" d="M.66,80a.74.74,0,0,0,.83-.65L2.13,74l2.28,5.29a.71.71,0,0,0,.39.39.74.74,0,0,0,1-.39L8.06,74l.64,5.38a.74.74,0,0,0,.83.65.73.73,0,0,0,.65-.82l-.74-6.25h0a.3.3,0,0,0,0-.1.83.83,0,0,0,0-.15,2,2,0,0,0-.1-.21,1.26,1.26,0,0,0-.93-.6H8.12l-.22,0a1.25,1.25,0,0,0-.87.71L5.09,77.07,3.16,72.59a.59.59,0,0,0,0-.08L3,72.37a1.43,1.43,0,0,0-.15-.18,1.29,1.29,0,0,0-1-.33h0l-.22,0-.06,0L1.4,72a1.19,1.19,0,0,0-.65.92L0,79.17A.73.73,0,0,0,.66,80Z"/><path class="cls-1" d="M25.25,80a.75.75,0,0,0,.75-.75v-5.9h2.12a.75.75,0,1,0,0-1.49H22.38a.75.75,0,1,0,0,1.49h2.13v5.9A.74.74,0,0,0,25.25,80Z"/><path class="cls-1" d="M29.16,72.61v6.64a.75.75,0,0,0,1.5,0V72.61a.75.75,0,0,0-1.5,0Z"/><path class="cls-1" d="M40.9,76.49a.74.74,0,0,0,.74.74h2.59l.27,2.11A.75.75,0,1,0,46,79.16L45.46,75h0s0-.05,0-.07a5,5,0,0,0-.13-.61,3.9,3.9,0,0,0-.26-.64,3.12,3.12,0,0,0-2.84-1.83h0a2.86,2.86,0,0,0-.73.09,2.72,2.72,0,0,0-.66.24A3.55,3.55,0,0,0,39,75l-.47,4.15a.74.74,0,0,0,1.48.16l.47-4.15a2.07,2.07,0,0,1,1-1.66,1.51,1.51,0,0,1,.33-.13,2.33,2.33,0,0,1,.38,0h0a1.69,1.69,0,0,1,1.51,1,3.52,3.52,0,0,1,.16.39,2.87,2.87,0,0,1,.08.38s0,0,0,.06h0l.07.55H41.64A.75.75,0,0,0,40.9,76.49Z"/><path class="cls-1" d="M53.42,79.75l.06,0h0l.1,0,.15-.1a1.06,1.06,0,0,0,.39-.82V72.61a.75.75,0,0,0-1.5,0V77.5l-4-5.07a1.05,1.05,0,0,0-.79-.41h-.2l-.08,0-.11,0a1.08,1.08,0,0,0-.58.49h0a1.39,1.39,0,0,0-.06.13h0a.84.84,0,0,0-.06.24.53.53,0,0,0,0,.13h0v6.17a.75.75,0,1,0,1.49,0V74.33l4,5.07v0h0l0,0,.1.09a1.58,1.58,0,0,0,.15.12l.09,0a1.1,1.1,0,0,0,.8,0Z"/><path class="cls-1" d="M57.73,73.35h2.2a.75.75,0,0,0,0-1.49h-2.2a2.94,2.94,0,0,0-2.08.86,3,3,0,0,0-.87,2.09h0v2.24h0a2.89,2.89,0,0,0,.87,2.08,3,3,0,0,0,2.08.87h2.2a.75.75,0,0,0,0-1.49h-2.2a1.44,1.44,0,0,1-1-.43,1.47,1.47,0,0,1-.43-1h0V74.81h0a1.47,1.47,0,0,1,.43-1,1.43,1.43,0,0,1,1-.43Z"/><path class="cls-1" d="M64.25,71.86h0a3.56,3.56,0,0,0-2.45,1,3.29,3.29,0,0,0-1,2.39h0v1.4h0a3.29,3.29,0,0,0,1,2.39,3.56,3.56,0,0,0,2.45,1h0a3.56,3.56,0,0,0,2.45-1,3.33,3.33,0,0,0,1-2.39h0v-1.4h0a3.33,3.33,0,0,0-1-2.39A3.56,3.56,0,0,0,64.25,71.86Zm2,4.77a1.79,1.79,0,0,1-.58,1.31,2,2,0,0,1-1.41.57h0a2.06,2.06,0,0,1-1.42-.57,1.82,1.82,0,0,1-.57-1.31h0v-1.4h0a1.86,1.86,0,0,1,.57-1.32,2.1,2.1,0,0,1,1.42-.56h0a2.1,2.1,0,0,1,1.42.56,1.86,1.86,0,0,1,.57,1.32h0v1.4Z"/><path class="cls-1" d="M34.94,71.86H32a.7.7,0,0,0-.49.22h0a.89.89,0,0,0-.24.56h0v6.61A.75.75,0,0,0,32,80h3.63a2.47,2.47,0,0,0,1.72-.71,2.43,2.43,0,0,0,.71-1.72h0a2.41,2.41,0,0,0-.66-1.67l0-.05a2.72,2.72,0,0,0-.42-.34,2.38,2.38,0,0,0,.36-1.27h0a2.37,2.37,0,0,0-2.38-2.38Zm.63,1.75a.89.89,0,0,1,.27.63h0a.85.85,0,0,1-.27.63h0a.93.93,0,0,1-.56.27h-.34a.75.75,0,0,0-.75.74.76.76,0,0,0,.75.75h1a.93.93,0,0,1,.67.28l0,0a.92.92,0,0,1,.25.64h0a.92.92,0,0,1-.27.66,1,1,0,0,1-.67.28H32.78V73.35h2.16A.88.88,0,0,1,35.57,73.61Z"/><path class="cls-2" d="M13.91,0H56.68a5.64,5.64,0,0,1,5.46,5.78V8.54a2.66,2.66,0,1,1-5.29,0V7.06A1.75,1.75,0,0,0,55.1,5.32H12.25A1.75,1.75,0,0,0,10.5,7.06V8.54c0,3.88-5,3.86-5,.08V5.78A5.64,5.64,0,0,1,10.92,0ZM33.52,64.47H61.25c6.34,0,6.4-6.73,5.76-10-.36-2.24-4.15-2.22-4.57,0V57a2.16,2.16,0,0,1-2.16,2.15H7.11A2.16,2.16,0,0,1,5,57V54.42c-.42-2.22-4.22-2.24-4.57,0-.64,3.32-.58,10,5.75,10H33.52Z"/></g></g></svg>