<svg xmlns="http://www.w3.org/2000/svg" viewBox="0 0 80 13.5"><defs><style>.cls-1{fill:#8fc641;}</style></defs><title>Neteller</title><g id="Layer_2" data-name="Layer 2"><g id="Neteller"><path class="cls-1" d="M70.55,5.69a3.29,3.29,0,0,1-1.9.45H67.8l.65-3.5h.62A2.9,2.9,0,0,1,70.65,3a1.36,1.36,0,0,1,.61,1.22,1.7,1.7,0,0,1-.71,1.49M20.14,10.08H13.61L14,7.8h4.1l.47-2.58H14.53L14.93,3h6.52ZM74.08,1a7.75,7.75,0,0,0-4.33-1h-5L62.9,10.08H56.35l.42-2.28h3.95l.47-2.57H57.25L57.67,3h4.06l.54-3H54L52.26,9.57h-3L51,0H46.7L44.93,9.57H42L43.76,0H39.45L37.59,10.08H31l.42-2.28h4l.46-2.56h-4L32.31,3h4.1L37,0H11.26L9.79,8,6.88,0H2.41L0,13H4.27L5.73,4.83,8.56,13h15.3L25.72,3h2.4L26.26,13H66.54L67.7,6.67,69.6,13h4.27l-2-5.2.45-.1A3.85,3.85,0,0,0,74.65,6.4a4.21,4.21,0,0,0,.81-2.63A3.12,3.12,0,0,0,74.08,1"/><path class="cls-1" d="M77.6,11.5l.58,0a1,1,0,0,0,.29-.06.28.28,0,0,0,.15-.13.41.41,0,0,0,0-.18.35.35,0,0,0-.12-.24.55.55,0,0,0-.34-.08l-.65,0Zm-.22,1.16-.1-2.06.91,0a1.28,1.28,0,0,1,.42,0,.47.47,0,0,1,.23.19.56.56,0,0,1,0,.67.71.71,0,0,1-.42.22l.17.09a1.47,1.47,0,0,1,.23.26l.39.54-.34,0-.29-.41-.22-.28a.79.79,0,0,0-.14-.13.28.28,0,0,0-.13,0h-.15l-.31,0,0,.91Z"/><path class="cls-1" d="M76.49,11.66a1.59,1.59,0,0,1,.41-1.14A1.62,1.62,0,0,1,78,10a1.59,1.59,0,0,1,1.67,1.51v.08a1.59,1.59,0,0,1-3.18.08m1.5-2a1.92,1.92,0,0,0,.19,3.83,1.93,1.93,0,0,0,1.82-2h0a1.92,1.92,0,0,0-2-1.81"/></g></g></svg>