<svg xmlns="http://www.w3.org/2000/svg" xmlns:xlink="http://www.w3.org/1999/xlink" viewBox="0 0 79.99 24.16"><defs><style>.cls-1{fill:none;}.cls-2{fill:#231f20;}.cls-3{fill:#127dc2;}.cls-4{clip-path:url(#clip-path);}</style><clipPath id="clip-path"><rect class="cls-1" width="80" height="24.27"/></clipPath></defs><title>Neue-Aarguer-Bank</title><g id="Layer_2" data-name="Layer 2"><g id="Neue-Aarguer-Bank"><path class="cls-2" d="M1.42,17.53l1.67,3.94,0,0a4,4,0,0,1-.11-1V17.53H4.34v6.53H3.07L1.42,20.12l0,0,.06.65v3.27H.13V17.53H1.42"/><polyline class="cls-2" points="8.15 17.53 8.15 18.74 6.79 18.74 6.79 20.16 7.99 20.16 7.99 21.37 6.79 21.37 6.79 22.85 8.17 22.85 8.17 24.06 5.45 24.06 5.45 17.53 8.15 17.53"/><path class="cls-2" d="M10.42,17.53v4.22c0,.5-.06,1.24.66,1.24s.66-.47.67-1v-4.5h1.34v4.76c0,.69-.08,1.87-2,1.87-1.26,0-2-.56-2-1.78V17.53h1.34"/><polyline class="cls-2" points="16.77 17.53 16.77 18.74 15.41 18.74 15.41 20.16 16.61 20.16 16.61 21.37 15.41 21.37 15.41 22.85 16.79 22.85 16.79 24.06 14.07 24.06 14.07 17.53 16.77 17.53"/><path class="cls-2" d="M21.25,20.2l-.15-1h0l-.15,1-.28,1.74h.94Zm.59-2.67,1.63,6.53H22L21.79,23H20.43l-.24,1.1H18.86l1.57-6.53h1.41"/><path class="cls-2" d="M26.27,20.2l-.15-1h0l-.15,1-.29,1.74h.95Zm.59-2.67,1.63,6.53H27.06L26.81,23H25.45l-.24,1.1H23.87l1.58-6.53h1.41"/><path class="cls-2" d="M30.37,20.33h.23c.62,0,.86-.4.86-.93a.76.76,0,0,0-.91-.82h-.18ZM29,24.06V17.53h1.35c.85,0,2.38.08,2.38,1.87a1.8,1.8,0,0,1-1,1.69l1.18,3H31.57l-1.18-3h0v3H29"/><path class="cls-2" d="M37.88,20.42v.51c0,1.39-.35,3.23-2.17,3.23s-2.42-1.89-2.42-3.33.5-3.41,2.42-3.41a2,2,0,0,1,2,1.55l-1.3.49c-.06-.33-.17-.84-.69-.84-.9-.05-1,1.56-1,2.17s0,2.18,1,2.18c.68,0,.79-.89.79-1.34h-.85V20.42h2.19"/><path class="cls-2" d="M40.58,20.2l-.15-1h0l-.14,1L40,21.94h1Zm.6-2.67,1.63,6.53H41.38L41.12,23H39.76l-.24,1.1H38.19l1.57-6.53h1.42"/><path class="cls-2" d="M44.65,17.53v4.22c0,.5-.06,1.24.67,1.24s.65-.47.66-1v-4.5h1.35v4.76c0,.69-.09,1.87-2,1.87-1.25,0-2-.56-2-1.78V17.53h1.34"/><polyline class="cls-2" points="50.94 17.53 50.94 18.74 49.58 18.74 49.58 20.16 50.78 20.16 50.78 21.37 49.58 21.37 49.58 22.85 50.96 22.85 50.96 24.06 48.24 24.06 48.24 17.53 50.94 17.53"/><path class="cls-2" d="M53.24,20.33h.24c.61,0,.85-.4.85-.93s-.23-.85-.91-.82h-.18ZM51.9,24.06V17.53h1.35c.86,0,2.39.08,2.39,1.87a1.81,1.81,0,0,1-1,1.69l1.18,3H54.44l-1.18-3h0v3H51.9"/><path class="cls-2" d="M59.41,18.61V20.2a.76.76,0,0,0,.8-.82.71.71,0,0,0-.8-.77Zm0,2.6V23a.81.81,0,0,0,.85-.91.79.79,0,0,0-.85-.86Zm-1.35,2.85V17.53h1.32a2.09,2.09,0,0,1,1.4.35,1.9,1.9,0,0,1,.7,1.47,1.51,1.51,0,0,1-.73,1.36,1.71,1.71,0,0,1,.84,1.51c0,1.29-1,1.84-2.22,1.84H58.06"/><path class="cls-2" d="M64.23,20.2l-.15-1h0l-.15,1-.29,1.74h.95Zm.59-2.67,1.63,6.53H65L64.77,23H63.41l-.24,1.1H61.84l1.57-6.53h1.41"/><path class="cls-2" d="M68.28,17.53,70,21.47l0,0a4,4,0,0,1-.11-1V17.53H71.2v6.53H69.93l-1.65-3.94,0,0,.06.65v3.27H67V17.53h1.29"/><polyline class="cls-2" points="73.89 17.53 73.89 20.45 73.91 20.45 75.03 17.53 76.39 17.53 75.14 20.54 76.56 24.06 75.14 24.06 73.91 20.73 73.89 20.73 73.89 24.06 72.55 24.06 72.55 17.53 73.89 17.53"/><path class="cls-3" d="M59.43,16a.48.48,0,0,1-.12-.53L61,10.18h0a.3.3,0,0,0-.11-.33L56.46,6.58a.46.46,0,0,1-.22-.49h0a.44.44,0,0,1,.46-.26h5.53a.29.29,0,0,0,.28-.2h0L64.22.36A.48.48,0,0,1,64.6,0H0V16H59.6a.27.27,0,0,1-.17-.06h0"/><path class="cls-2" d="M64.8,12.65a.27.27,0,0,0-.34,0h0l-3.87,2.81-.55.39-.07.06a.54.54,0,0,1-.27.11.22.22,0,0,1-.08,0h1.49a.5.5,0,0,0,.26-.11l.08-.06.54-.39L65.33,13h0l-.52-.38"/><path class="cls-2" d="M66.05,13.57,63.6,15.34l-.17.12-.54.39-.08.06a.6.6,0,0,1-.26.11s-.06,0-.08,0H64a.59.59,0,0,0,.27-.11l.08-.06.54-.39,1.91-1.38,0,0-.66-.48"/><path class="cls-2" d="M67.44,14.58l-1,.75-.17.13-.54.39-.07.05a.66.66,0,0,1-.27.12h1.4A.61.61,0,0,0,67,15.9l.08-.05.54-.39.51-.37,0,0-.66-.48"/><path class="cls-2" d="M65,.36l1.71,5.26h0a.29.29,0,0,0,.28.2h1.41a.29.29,0,0,1-.28-.2L66.43.36A.46.46,0,0,0,66,0H64.62a.46.46,0,0,1,.4.36"/><path class="cls-2" d="M67.81.36l1.71,5.26h0a.28.28,0,0,0,.28.21h1.4a.3.3,0,0,1-.28-.21h0L69.21.36a.47.47,0,0,0-.4-.36h-1.4a.47.47,0,0,1,.4.36"/><g class="cls-4"><path class="cls-2" d="M77.2,6.09h0a.46.46,0,0,0-.46-.26H75.36a.45.45,0,0,1,.43.26h0a.47.47,0,0,1-.22.5L71.11,9.85h0a.29.29,0,0,0-.11.33l1.7,5.26a.46.46,0,0,1-.12.52h0a.3.3,0,0,1-.15,0h1.29A.38.38,0,0,0,74,16h0a.46.46,0,0,0,.11-.52l-1.69-5.26h0a.28.28,0,0,1,.11-.32h0L77,6.59a.49.49,0,0,0,.22-.5"/><path class="cls-2" d="M80,6.1h0a.47.47,0,0,0-.46-.26H78.14a.47.47,0,0,1,.43.26h0a.46.46,0,0,1-.22.49L73.89,9.85h0a.29.29,0,0,0-.11.33l1.7,5.26a.48.48,0,0,1-.12.53h0a.47.47,0,0,1-.15.06H76.5a.43.43,0,0,0,.27-.06h0a.48.48,0,0,0,.11-.53l-1.69-5.26h0a.29.29,0,0,1,.11-.33h0l4.46-3.26A.47.47,0,0,0,80,6.1"/></g><path class="cls-2" d="M74.41,6.09h0A.44.44,0,0,0,74,5.83h0a.3.3,0,0,1-.28-.21h0L72,.36A.48.48,0,0,0,71.6,0H70.19a.48.48,0,0,1,.4.36L72.3,5.62h0a.29.29,0,0,0,.28.21h0a.43.43,0,0,1,.43.26h0a.49.49,0,0,1-.22.5L68.33,9.85h0a.3.3,0,0,0-.11.33l1.69,5.26a.47.47,0,0,1-.11.53h0a.44.44,0,0,1-.16.06h1.3A.34.34,0,0,0,71.2,16h0a.47.47,0,0,0,.12-.53l-1.69-5.26h0a.28.28,0,0,1,.11-.33h0L74.2,6.59a.48.48,0,0,0,.21-.5"/></g></g></svg>