<svg xmlns="http://www.w3.org/2000/svg" viewBox="0 0 80 49.25"><defs><style>.cls-1{fill:#a38054;fill-rule:evenodd;}.cls-2{fill:#231f20;}</style></defs><title>Noble-Bank</title><g id="Layer_2" data-name="Layer 2"><g id="Noble-Bank"><path class="cls-1" d="M61.61,25.29v0h0l0,0v.19h-.09l.09-1.19h.08v.24l0,0h.28l1.84.13h.29v0h0v-.22h0v0h.08l-.09,1.3V26l0,.1,0,.1,0,.09,0,.08,0,.07L64,26.5l0,.05-.05.06-.06,0-.06,0-.07,0-.07,0-.07,0h-.3l-.07,0-.06,0-.06,0,0,0,0,0-.05-.05,0-.05,0,0,0-.06,0-.06,0-.07,0-.07,0-.07,0-.08v-.49h.06v.27l0,0,0,0,0,0,.05.05,0,.05.07,0,.07,0,.07,0,.08,0h.46l.06,0,0,0,.05,0,0,0,0,0,0,0,0,0,0-.05,0-.06,0-.06v-.13l0-.24-2.17-.15h-.3Zm.4-4.06-.08,0-.08,0-.07,0-.05.05-.06,0,0,.06,0,.05,0,.07,0,.07,0,.07V22l0,.17.06.15.09.11.12.1.14.06.17,0h.19l.21,0,1.07-.15h.13l.06,0h0l0,0h0l0,0,0,0,0,0V22h.08l.12.87h-.08v-.09l0,0v0l0,0,0,0,0,0h0l0,0h-.35l-1.12.16h-.36l-.11,0-.1,0-.09,0-.09,0-.08-.06-.08-.06-.07-.07-.06-.09,0-.09,0-.1,0-.11,0-.11,0-.13,0-.13v-.25l0-.11,0-.1,0-.1.05-.09.06-.08.06-.07.07-.05.08-.05.09-.05.1,0,.11,0,.12,0,.12,0,1.21-.17h.27l0,0h0v-.25h.08L64,21.27h-.09v-.18l0,0v0l0,0h-.29l-1.24.17-.11,0-.1,0-.09,0Zm1.1-4.08,0-.09L63,17l0-.07-.06-.06-.06-.06-.07-.05-.08,0-.08,0-.1,0-.09,0h-.32l-.12,0-.12,0-.13,0-.14,0-.14.05-.13.06-.12.06-.12.07-.1.08-.09.08-.09.08-.07.09-.06.09-.05.09,0,.09,0,.1v.19l0,.09,0,.09,0,.08,0,.07.06.06.06,0,.08.05.08,0,.1,0,.09,0,.11,0h.34l.13,0,.13,0,.14,0,.14-.05.13,0,.12-.05.11-.06.1-.07.1-.07.08-.07.08-.09.06-.08.06-.09,0-.09,0-.09,0-.09v-.19l0-.09Zm.13.07,0,.14,0,.13v.26l0,.13,0,.13-.05.12-.06.12-.07.12-.08.1-.09.1-.09.09-.11.07-.11.07-.13.05-.13,0-.09,0h-.08l-.09,0h-.42l-.08,0-.09,0-.07,0-.08,0-.08,0-.07-.05-.07,0L61,18.66l-.09-.08-.09-.09-.08-.09-.07-.1-.06-.1-.06-.11,0-.11,0-.12,0-.11,0-.12v-.34l0-.11,0-.11,0-.11.07-.14.08-.12.1-.12.1-.1.12-.09.14-.08.14-.06.16-.05.14,0,.15,0h.13l.14,0,.14,0,.13,0,.14.05.13.07.12.07.11.09.1.1.09.11.08.11.07.13.06.14.05.14Zm-3-3.65.14.26.06.1.08.07.09.05.1,0h.11l.12,0L61,14l.15-.07.12-.07.09-.07.07-.08.06-.09,0-.09v-.1l0-.1,0-.1L61.35,13l-1.14.61Zm-.65,1.59h0V15l0,0,0,0,0-.05,0,0,0-.06.05-.07,0-.08.06-.08.06-.09.36-.54-.15-.28-.69.36,0,0,0,0,0,0,0,0,0,0,0,0,0,0v.23l0,0h0l-.07,0-.56-1.06.07,0h0l0,0,0,0,0,0,0,0,0,0h.2l0,0,0,0,0,0,1.62-.86,0,0,0,0,0,0,0,0,0,0,0,0h0v-.19l0,0,0,0h0l.07,0,.64,1.21,0,.08,0,.08,0,.09,0,.08V14l0,.07,0,.06,0,.06,0,.05-.05,0,0,.05-.06,0-.07,0,0,0-.06,0-.06,0h-.36l-.06,0-.06,0,0,0-.06,0-.06,0,0,0-.08-.07-.37.67-.06.12-.06.11-.05.1,0,.09,0,.09,0,.08,0,.08v.05l0,0-.25-.49Zm-1.31-4.48.06,0,.8,1-.06.05,0,0,0,0,0,0,0,0,0,0,0,0h-.16l0,0,0,0,0,0-.07.06-.55.44L57.9,12l-.11-.08-.11-.08-.1-.08-.09-.09-.09-.08-.09-.09-.08-.1-.1-.14L57,11.14,57,11l-.06-.13,0-.14,0-.14,0-.13v-.14l0-.13,0-.13,0-.13L57,9.81,57,9.7l.09-.11.1-.11.11-.1.13-.1.13-.08.14-.06.13-.05.14,0,.14,0h.14l.15,0,.14,0,.14,0,.14.06.13.08.12.08.13.11.12.12.11.13.07.08.05.08,0,.08,0,.08,0,.08,0,.09,0,.08,0,.09v.14h0l-.38.31,0-.05,0-.06,0-.07,0-.07,0-.06,0-.07,0-.07v-.26l0-.06,0-.07,0-.06,0-.07,0-.06-.05-.06-.08-.09-.07-.07-.09-.06-.09,0-.09,0-.09,0h-.32l-.11,0-.11,0-.11,0-.1,0L58,9.61l-.11.07-.11.09-.11.09-.1.1-.09.1-.08.1-.07.1-.06.11,0,.11,0,.11,0,.11V11l0,.1,0,.09.05.09.06.09,0,0,0,0,0,0,0,0,0,0h.27l0,0,0,0,.05,0,.06,0,.05,0,.19-.16,0,0,0,0,0,0,0,0,0,0,0,0,0,0v0h0v-.1l0,0v0l0,0-.08-.11,0-.07ZM54.31,7.24l.06,0L54,7.6h-.2l-.05,0h0l0,0-.05,0,0,0-.06,0,0,0-.06,0,0,0-.05,0,0,0,0,0,0,0,0,0L53,7.13,52.84,7l-.1-.11-.09-.12-.07-.12-.06-.12,0-.12,0-.13V5.82l0-.07,0-.07,0-.07,0-.07,0-.06,0-.07,0-.06,0-.06,0-.06.1-.12L53,5l.11-.09.12-.08.12-.06.13,0,.13,0,.14,0h.35l.08,0,.08,0,.07,0,.08,0,.08,0,.08,0,.07,0,.07,0,.07,0,.07,0,.07,0,0,0,0,0,0,0,0,0,0,0,0,0,0,0,.05,0,0,0,0,.05,0,0,0,0,0,0,0,0,0,0v0h0v0h0v0h0l-.3.38-.05,0L55.09,6l0-.14V5.72l0-.13,0-.12L55,5.35l-.09-.1-.11-.1-.1-.07L54.62,5l-.09,0-.1,0-.1,0h-.21L54,5l-.1,0-.11,0-.1,0-.1.07-.09.08-.1.09-.1.1-.09.12-.09.12-.08.12L53,5.9,52.94,6l0,.12,0,.11,0,.11v.32l0,.1,0,.1L53,7l.07.08.08.08.08.08.06,0,.06,0,.06,0,.07,0,.06,0,.06,0h.34l.08,0,.07,0,.08,0,.09,0,.07,0ZM49.1,4.63h0l0,0h0l0,0h.13l0,0h0l0,0,0,0,0,0,0,0,0,0,0,0,.83-1.64,0-.05,0,0V2.67l0,0V2.49l0,0,0,0,0,0,0,0,0,0,0,0h0l0-.07,1.07.54,0,.07h-.09l0,0H51l0,0,0,0,0,0,0,0,0,0,0,0,0,0L50,4.7v0l0,0V5l0,0,0,0,0,0,0,0,0,0,0,0,0,0,.05,0,.08,0,.08,0,.07,0,.06,0,.06,0h.2l.05,0,.06,0,.06,0,.06,0,.07,0,.08,0,.07-.05,0,0-.4.54L49,4.68l0-.07h0ZM41,1.29h0l-.07,1v.3h0l0,0h.26V2.8L40,2.72V2.63h.3v0h0V2.3L40.51.47V.19h0v0h0l0,0h-.25V0l1.2.08V.16h-.3V.5L41,1.29Zm0,.06.09-.05,0,0,0,0,0,0,0,0L42.09.13l.53,0V.25h-.21l0,0h0l0,0h0l0,0,0,0,0,0,0,0,0,0-.75.81.19.28.07.11.07.1.08.11.06.1.07.09.07.09.06.09.06.08.06.08.06.08.06.07.05.07.06.07.05.06,0,.06,0,0v0l-.51,0h-.13l0,0,0,0,0,0,0,0,0,0,0,0,0,0,0,0,0-.05L41,1.35ZM36.19.84l.2,1.65v.13l0,.06v0l0,0v0l0,0,0,0,0,0h.36V3L36,3.1V3h.13l0,0,0,0,0,0,0,0,0,0,0,0V2.5L36,.76l0,0,0,0,0,0,0,0,0,0,0,0,0,0,0,0h-.28V.42l.87-.11,1.92,1.87L38.09.66V.38l0,0v0l0,0,0,0,0,0h-.31V.16l1-.12V.12h0l0,0H38.4l0,0,0,0,0,0,0,0v0l0,0V.64l.26,2.15-.26,0-2.05-2ZM32.77,3l.85-.28-.8-1.05,0,1.33Zm.93-.17-1,.31v.55h0v0h0v0h0l0,0,0,0,0,0,0,0,0,0H33L33,4l-.69.22,0-.08h0l0,0,0,0,0,0,0,0,0,0,0,0,0,0v0l0,0V3.16l.11-2,.21-.07,1.12,1.42.1.14.1.12.09.11.07.09.07.08.06.06,0,.05,0,0,0,0,0,0h.24l0,.07-1,.33,0-.08h0l0,0h.06v0h0v0h0V3.34h0v0h0v0h0l-.31-.41ZM29.43,3.92l.22-.11.1-.06.08-.08.06-.08,0-.09V3.29l0-.12-.06-.12-.06-.11-.07-.09-.08-.06-.09,0-.09,0h-.1l-.1,0-.11,0-.22.11.52,1Zm.05.09.37.73,0,.06,0,0,0,0,0,0,0,0,0,0,0,0,0,0h.21l0,0,.05,0,.05,0,0,0,0,0,0,0,0,0,0,0,0,0V4.44l0-.06V4.32l0-.06,0-.07,0-.06,0-.06,0-.05,0,0,0,0-.05,0-.05,0-.06,0-.05,0h-.31l-.06,0-.07,0L29.48,4ZM31,3.75l.05.07.05.08,0,.08,0,.08,0,.08v.23l0,.08,0,.07,0,.08L31,4.67l-.05.07-.07.06-.08.07-.08.06L30.6,5l-.1,0-1.16.59,0-.07h.05l0,0,0,0,0,0,0,0,0,0,0,0V5.22l0,0,0,0,0,0-.83-1.63,0-.05,0,0,0,0,0,0,0,0,0,0h-.17l0,0h0l0,0h-.05l0-.07,1.1-.56.2-.09.17-.06.16,0h.14l.12,0,.11.06.09.09.07.11,0,.11,0,.1v.1l0,.1,0,.11-.07.1-.2.25.25-.07h.36l.08,0,.07,0,.07,0,.06,0,.06.06ZM25,6,25,6l0,0-.05,0,0,0H24.6l0,0,0,0,0,0,0,0L24,6.33l.73.88L25.05,7l.07-.06,0-.06,0-.07V6.64l0-.07,0-.08,0,0,.05-.05.56.68,0,0,0,0,0,0,0,0,0,0,0,0h0l0,0h-.21l0,0,0,0,0,0-.28.24.59.7,0,0,0,0,0,0,0,0,0,0h.16l0,0h0l0,0,0,0,0,0,0,0,.07-.06.06,0,.05,0,0-.06,0,0,0,0,0,0v-.4l0-.07,0-.08V7l.05,0,.34.59-1.6,1.34,0-.06h0l0,0,0,0,0,0,0,0v0l0,0V8.51l0,0,0,0,0,0,0,0,0,0L23.86,6.92l0,0,0,0,0,0,0,0,0,0,0,0h-.17l0,0,0,0,0,0h0l-.05-.06,1.48-1.23.38.45-.06,0,0,0L25,6Zm-1.56,4.2,0,0,0,0,0,0h.13l0,0,0,0,0,0,0,0,0,0h0l.06.05-.76.93L23.12,11h0l0,0,0,0,0,0v0l0,0v-.09l0,0v0l0,0,0,0,0,0,0,0-.05,0L21.36,9.17l-.22.28,0,0,0,0,0,0,0,0,0,0V10l0,.05,0,.05,0,.06,0,.08,0,.05-.37-.43L22.18,8l.49.27,0,.05h-.5l0,0h0l0,0,0,0,0,0,0,0,0,0-.22.28,1.69,1.37,0,0,0,0Zm-3,3.18.45-.78-1.29-.24.84,1Zm.59-.75-.5.86.34.39h.24l0,0,0,0,0,0v0l.07,0-.36.63-.07,0v-.32l0,0,0,0,0,0,0-.05,0,0,0-.05,0-.06-.22-.26L19.21,12l.11-.2,1.77.31.18,0,.15,0,.14,0,.12,0h.42l0,0,0,0,0,0,0,0,0,0h0l.07,0-.53.92-.07,0h0v-.16h0v0h0v0h0l0,0h-.13l-.5-.09ZM19.82,16l-1.35-1.27,0,0,0,0,0,0h-.08l0,0h-.1l-.05,0,0,0,0,0,0,.06,0,0-.07,0,.31-.77.08,0,0,0v.19l0,.05,0,.06,0,.05.05,0,1.86,1.75-.12.29-2.23-.09h-.41l0,0h0l0,0,0,0,0,0,0,0,0,0,0,0v0l-.08,0,.45-1.11.07,0v.2l0,0,0,0,0,0,0,0h.14l1.88.1Zm-.53,2.88v0l0,0v0l0-.05h0l.08,0-.29,1.17-.08,0h0v-.26l0,0h0l0,0h-.1l-.05,0H18.8L17,19h-.31v0l0,0v0l0,0v0l0,0,0,.05h0l-.08,0L16.8,18l.08,0h0v.25h0l0,0h0l0,0H17l0,0h.11l1.78.45h.31v0l0,0,0,0Zm-1.84,3.5,0-.3V22l0-.1-.05-.09-.07-.08-.1-.06-.11-.05-.14,0-.16,0H16.7l-.13,0-.1,0-.09.05-.07.06-.06.08,0,.1,0,.11,0,.3,1.28.11Zm1.44-1.53h0l-.05.55v.08l0,0,0,0,0,0,0,0,0,0,0,0-.06,0-.07,0-.07,0-.08,0-.1,0-.1.05-.6.24,0,.33.78.06h.29v0h0v-.22h.09l-.11,1.2h-.08V23h-.29l-1.83-.16h-.29l0,0h0v.22H16l.12-1.37v-.09l0-.09,0-.08,0-.08,0-.07,0-.06.05-.06,0-.05.05-.05.06,0,.06,0,.06,0h.07l.07,0H17L17,21l.05,0,.06,0,.05,0,.05,0,0,0,.05,0,0,0,0,0,0,.06,0,.05,0,.07,0,.06,0,.1.68-.36.11-.07.11-.06.1-.06.08-.06.08-.05.07,0,.06-.05,0,0Zm-.32,5h.07v-.26h.08l.08,1.2h-.09v-.22l0,0h-.31l-1.83.13h-.24l0,0h0l0,0v.23h0v0h-.07L16,25.55v-.39l0-.09,0-.07,0-.08,0-.06.05-.06.05-.05,0,0,.06,0,.07,0,.07,0H17l.06,0,.06,0,.06,0,.05,0,.06,0,0,.05.05.05,0,.06,0,.06,0,.07,0,.07,0,.07v.48h-.05v-.05l0-.06v0l0-.05,0-.05,0,0,0,0,0,0-.06-.05-.06,0-.07,0-.07,0-.08,0h-.48l-.06,0-.06,0-.05,0-.05,0,0,0,0,0,0,.05,0,.05,0,.05,0,.06v.19l0,.24,2.17-.15h.22ZM45.88,2l.53-.32.32.53-.53.32L45.88,2Z"/><path class="cls-1" d="M35.85,25.92a1.36,1.36,0,0,1,.23-.74c-.15-.26-.76-.53-.53-.08a1.63,1.63,0,0,1,.22.79l.08,0ZM45.1,24.1c.17-.46-.36-.78-.34-.22.2.41.08.17-.15.05s.48-.5-.46-.54c.08.36.12.85.53.85-.28.2-1-.33-1,.17,0,.3.2.27.44.2,0,.62-.36.6-.68.94-.74,1.2,1,.33,1.49.15.11-.08,1.34-1.49.6-1.27-.41.26.29-.14.35-.24.24-.69-.61-.06-.73-.09ZM29.94,25.44c.44.22.49-.64-.21-.22,0,0,.38.58.14.31s-.31.67.14.32c0-.12.26,0,.14.13-.77.76.67.48.5,0s-.39-.3-.71-.55Zm2.71-.88c.14-.11-.56-1.12-.6-.3.1.2.72.38.23.27s-.13.33.14.29c-1.05.41,2.78,1.43,1.39-.22-.17-.15-.43-.38-.59-.21s.19-.36-.23-.34a.74.74,0,0,0-.26.48c.34-.12.23.25-.08,0Zm10.24-.22c-.27-.42-.18-.14-.49-.11-.14.16.32.45-.1.3s-.89.42-1.09.76c-.91,3.18,2.73.7,1.68-.95ZM38,26.76c.47-.08.44-1.78-.56-.77-.58.64.13.62.56.77Zm12.58-1c0-.31-.22-.13-.52-.15.19-.36.24-.41-.21-.2-.24.24.17.17-.27.35-1.13.61.41.55.81.53-.35-.59.23,0,.19-.53Zm-1.15-.42c-.21-.49-.79-.53-.18-.78-.28-.19-1-.37-.89.22,1,.7-1.39-.35-.59.42.31.26-.73.16-.17.7.84.45,1,.37,1.59-.16.54,0,.23-.19.24-.4Zm-17.89.76a7.33,7.33,0,0,0,1.11-.31,2.73,2.73,0,0,0-1.71-.81c-.25.62-.05,1,.6,1.12ZM35.44,26c.68-.14-1-1.78-1-1.1a1.51,1.51,0,0,0,.34.62,1.83,1.83,0,0,0,.69.48Zm1.45-.32c.24-.32-.29-.27-.08,0-.14,0-.46.49-.21,0,.11-.27-.84-.3-.35.11s-.38.07,0,.39.49.16.58,0a1.65,1.65,0,0,1,.7-.52l.31-.15c0-.11-.12-.18-.29-.23a1,1,0,0,1-.27-.1c.12.34,0,.74-.39.54Zm-6.42-.95c-.47-.25-.48.86.23.12,0,0,.6-.19.16-.48-.12,0-.54.21-.39.36ZM46.73,24c.49-.39-.14-.66,0,0-.34-.14-.12.9.21.27a.36.36,0,0,0-.19-.27Zm5-5s0-.21-.07-.34c-.4-.38-.37,0,0,.26a3.25,3.25,0,0,0-.47.36c.34,0,.44.07.57-.28Zm-1.54-.8a.45.45,0,0,1,0-.39c-1.11-.13.84,1.28.3.58-.2-.26.15-.51.3-.76a6.13,6.13,0,0,0-.57.57Zm-4.86-4c.22,0,.66.42.73,0-.26-.64-.79-.15-1-.44-.33-.67-.74.4-.12.27.3-.07.21.25,0,.18-.66-.35-.65.47-.16.17.24-.1.24.45.5.08.09-.14,0-.14-.05-.26Zm-12.52-.33c.34,0,1.3,0,.56-.45a2.34,2.34,0,0,1,.59-.09c-.2-.12-.85-.54-1.06-.37-.25.81-1.09-.12-.85,1,.62-.53.56.63,1,.44a1.34,1.34,0,0,0-.25-.49Zm0-.49c.27.2.82.17.25.33-.39.11-.48-.07-.25-.33Zm1.43-2c-.14-.06.74.46.9.55s.12.11.19.33.3-.53,0-.5-1.18-1.17-1-.5c-.07,0-.11.05-.14.12Zm6.17-1.39c-.36-1.08-.61-.06.11.37.4.28.65-.85-.11-.37Zm-6.63-.41c.29-.18.27,0,.42-.3.45-.46-.35-.11-.51-.13.28.53-.12.06-.16.06-.43-.28,0,.37-.16.39-.36.11.31.45.2.1.08,0,.37.25.21-.12ZM55.59,26c.15-.16.2-.35-.07-.35-.62.14.1.55.37.72,0-.24,0-.47-.3-.37ZM54,23.46c.05.12,0,.16-.25.12.27.28-.09.38.25.63.1-.41.88.55,1.15.27.26-.11-.34-.23-.39-.51s.42-1.42,0-1.09c-.18.37-.22-.24-.45.42.08.68-.11.4-.35.16Zm-.07-.4c.24,0,0-.25,0-.5-.5.26-.42.36,0,.5Zm2.12.76c.19-.1-.44-.42,0-.26-.37-.61-.66-.2-.32-.1,0,.3,0,0-.22-.08-.55-.31-.17,0-.28.31-.3.66.79.13.78.13ZM30.58,23.1,30.31,23c-1.33-.2-.7.28.2.35.16,0,1,.55.57,0-.2-.14-.5-.28-.39-.59.2-.6-.63-.21-.11.32Zm1.82-4.37s.18.16.42-.05c.51-.65-1.25-.22-.42.05Zm-5.14-1c-.2-.28.41-.79-.22-.49s.23.66.51.9c0,0,.44-.43,0-.35.08-.36-.2-.35-.3-.06Zm2,7.84c.51.2.16-.21,0-.43-.37-.44-.67.16-.1.16,0,.23-.9.63,0,.68.32,0,.28-.16.11-.41Zm-1.58-.45c-.45.61,1.53.36.29.07.13-.59-.39-.13-.29-.07Zm11-1.13c.32.16.11-.62-.08-.13,0,.05-.26.11-.37.2s-.11.18.16.33a1,1,0,0,1,.27.22c.2.22.21,0,.18-.25s-.12-.25-.16-.37Zm-4.92,0c-.28-.1-.14-1.36-.51-.63-.21.48,1,.76,1,1.27.38-.14.05-.51-.22-.53a3,3,0,0,1,0-.77c-.18.16-.39.49-.27.66Zm4.65-.19c.16.12.57-.21.11-.39-.06,0-.33,0-.37,0-.31.27.25.75.26.39ZM49.22,11.92c-.16-.49-.52-.22-.27-.07s-.32,0-.14.31c.38.41,1.1-.37.46-.45a2.09,2.09,0,0,0-.05.21ZM46,25.44c.52-.16,1.36-.74.48-1.05-.43-.07-1,1.17-.48,1.05Zm-3.89-1.2c.44-.18.52-.31.54-.74-.42.07-.86.24-.54.74Zm-.3-.22c.29-.27.08-.59-.22-.27.05.13.13.17.22.27Zm6.73-3.29c.68-.11.67-1.12-.19-.63a.74.74,0,0,0,.19.63Zm.65,0c.2-.1.22-.1.29-.33-.26.06-.48,0-.29.33Zm5.5-.33c.44-.19-.23-.72-.34-.24.07.12.22.17.34.24Zm-5.4-.17c.47-.23-.36-.48-.07-.07a.46.46,0,0,0,.07.07Zm0-.57c-.18.17.37.51.27.12-.06-.21,0-.22-.27-.12Zm-.39,0c.14.19.23.36.22-.09-.09-.26-.59-.11-.22.09Zm-.41-.16c.28.21.4-.5-.1-.13a.64.64,0,0,0,.1.13Zm.61-.09c.43.15.4-.57-.17,0Zm3.34-.41c.8.62.21-.73-.27-.27a3.44,3.44,0,0,0,.27.27Zm-1.61-.68a4.18,4.18,0,0,1,.51-.07c.36-.8-.9-.2-.51.07Zm.63-.76.28.16c.1-.84-.71-.38-.28-.16Zm2.42-.55c-.72.33.71.94.36.05a1.49,1.49,0,0,0-.36-.05Zm-3.43.5c.28,0,.88-.05.5-.46-.2-.13-.58.26-.5.46Zm-1.17-.14c.76.35,1-.53.16-.14a.54.54,0,0,0-.16.14Zm1.34-1c-.27-.2-.17.17-.15.42,0,.6.5-.15.15-.42Zm-1.76-.89c0,.26.22.26.41.27.61,0,0-1-.41-.27Zm1.32-.36c-.19.37.75.38.26,0-.08-.06-.17,0-.26,0ZM45.68,15c-.25.71.76,0,.36-.22a1,1,0,0,0-.36.22Zm5.16,0c-.43-.06-1.36-.25-.28.14a.55.55,0,0,0,.73-.17,1.14,1.14,0,0,1-.45,0Zm-4.37-.33c.73.06-.54-.86-.34-.27a.82.82,0,0,0,.34.27ZM44,14.18c.3,0,.17-.26,0-.34s-.19.27,0,.34ZM39,13.49a.37.37,0,0,0,.2.12c1,.35-.23-.9-.2-.12Zm7.28.18c-.46-.24-.17.68,0,.22.23,0,.17-.1,0-.22Zm-15-.34c.83-.13-.29-.75-.08-.08,0,0,0,.05.08.08Zm14.06.28c.16,0,.17-.19.11-.31s-.69.14-.11.31Zm5-1.16c-.2.44.33.24.25,0s-.15-.23-.25,0Zm-18.6-.06c.1.07.24.24.36.23,1.28-.13-1.39-.9-.36-.23Zm1.8.23c.95.08-.11-1-.17,0Zm15.8-.27a1.29,1.29,0,0,0,.17.16c.6-.3-.24-.5-.17-.16Zm-14.18.11c.46-.12-.21-.52-.4-.59-.31.51-.11.48.4.59Zm5.13-.56c.4.74.57-.7.06-.54a.73.73,0,0,0-.06.54Zm7-.64c.73.18,0-.73-.09,0l.09,0Zm-11.94-.43c0-.86-1.3.58-.41.24a.89.89,0,0,0,.41-.24Zm4.32-.39c-.35.16-.13.21.12.37,0-.13.14-.47-.12-.37ZM32.93,9.35c.07.09.3.24.3,0s-.17-.17-.3,0Zm8-.24c.51-.08.44-.67-.27-.35a.51.51,0,0,0,.27.35Zm-2.38-.19c0-.33-.64-.34-.29,0,.18.16.31.38.29,0Zm2.79-.35c.38.78.59-.81,0-.22a.17.17,0,0,0,0,.22Zm-.47-.67c-.44.45,1.13.19.36-.07a.32.32,0,0,0-.36.07ZM54.57,26.4c0-.21-.07-.66-.42-.41-.07.18.34.73.42.41Zm.41-.75c.17.12.53-.34.12-.2-.21.05-.38,0-.12.2Zm1,.07a.16.16,0,1,0-.17-.26c0,.12.1.18.17.26Zm-5.13-.82c-.31.25-.35.24,0,.37.15.06.43-.69,0-.37Zm-.11-.12c.71-.43-.19-.58-.1-.05,0,.05,0,.05.1.05Zm5.53-1.55c-.1-.15-.16,0-.13-.24-.54.37.11.46.13.24Zm-2-.7c-.15.06-.56.21-.18.3.18,0,.16-.14.18-.3Zm1.88.1c.25.05.4-.35-.13-.22,0,.09,0,.18.13.22Zm-2.31-.24c.39.2.3-.06.21-.35-.17.07-.51.18-.21.35Zm-1.24-.26c.22.18.44-.57-.14-.25,0,.13,0,.17.14.25ZM31,22.67c0-.28.29-.75-.09-.21-.19.26-.36.61,0,.64s.08-.33.06-.43Zm1.39-3.28c0,.56.62.58,1,.58-.31-.3-.66-.58-1-.87l0,.29Zm-.56.54c.7-.27-.12-.47-.21-.15,0,.1.12.12.21.15Zm-6.35-.54c-.67-.51-.45.9.12.1l-.12-.1Zm7.5.09c.31.33.4.35.2-.08.79.22.16-.48-.33-.54.42.35-.29.16.13.62Zm-1.63-.29c-.67.18.43.63.1.25.15-.13.1-.28-.1-.25Zm.28-.37c.3.16.38-.47-.21-.44-.18.15.06.36.21.44ZM33,18.51c-.38.33.09.32.27.29.42-.08-.14-.33-.27-.29Zm-5.89,0c.51-.11-.12-.24-.15-.49-.05-.81-1.06.36-.35.25.19-.08.29.27.5.24Zm1-1.63c-.36-.33-.58-.22-.92.12.74-.09.58.17,1.15.5a2,2,0,0,0-.23-.62Zm1.9-.47.15-.13c-1.27-.15-.37.57-.75.65-.57.05.08.34.14.31.84-.32-.14-.37.46-.83Zm.65.61c.64-.06-.25-.6,0-.63.67-.09.56-.21.22-.64-.63.63-1.54.88-.27,1.27ZM29,16.42c-.68.46.3.75.21-.1l-.21.1Zm-4.14,5.64c0,.33-.27.46.25.39.75-.12-.09-.12,0-.54s.31-.49-.22-.21c-.31.14-.25-.36-.46.08s.45,0,.47.28Zm.56-.46c-.24-.26-.3-.6-.18,0,.07.19.4.3.57.49.64-.34-.18-.35-.39-.51Zm-.33,5.53c.37-.18-.22-.66-.21-.18,0,.13.09.15.21.18Zm1-.14c.4.36.42-.49.06-.18-.06.06-.09.09-.06.18Zm.68,0c.4-.14-.07-.6-.25-.3,0,.14.14.21.25.3Zm-.24-.41c0-.13-.45-.31-.17.15a.41.41,0,0,0,.17-.15Zm1.65-.66c.3-.07-.13-.61-.34-.24.05.16.19.2.34.24Zm6.41-1.38c.19.23.8.52.8,0-.38-.06-.63.15-.38-.39-.19.08-.49.13-.42.39Zm-2.77-.42c.29,0,.42-.36,0-.41s-.21.25,0,.41Zm-.31-.48c.88-.07-.5-.78-.1-.11l.1.11Zm-1.45-.82c.27-.25-.35-.79-.41-.28a.67.67,0,0,0,.41.28Zm24.47-.88c.68-.29.08-.21,0-.5-.22-.55-.61.72,0,.5Zm.59,0c.55-.19.46-.37-.1-.56-.2.25-.14.38.1.56Zm-29-.33c.38,0-.29-.81-.51-.39a.61.61,0,0,0,.51.39Zm26.54-.06c.61-.24.1-.66-.26-.21.06.13.13.15.26.21Zm-14.2,7.08c-.36-1.14-2.83-2-3.93-2.25a7.08,7.08,0,0,0-1.13-.08,10.57,10.57,0,0,0-2.62.28c-.37.09-1.69.46-1.82.21-.75-.54-.36,1-.93.69s-.75.33-1.23-.19c-.55-.25-.87.65-1,.13s-.31.45-.8.16c-.25-.07-1.22-.09-.6-.24-.28-.49-.05,0,.12-.27,0-.53-.48-.08-.47-.1,0-.4-.55-.06-.25.15-1,.44-1.11-1.42-.37-1.17.43.13-.24-.73.57-.56.21-.06,0-.22.18-.25.49.34.12-.76.58-.16.62.53.14-1.18-.29-.57-.05-.09.23-.17,0-.31-.35-.1-1.09.24-.36.33-.22.32-1.22-.24-1.11-.51.55-.81-.2-1.33,1.07-1.57.44-.53-1.28-.34-.85-.92.32-.41-.18-.53.13-1.12.24-.15,1.13.53.91.07s-.21-1.58.65-1.6c1.64.92,1.39-.6.79-.28-.24.09-.27-.3-.28-.42-.1-.6,1.29-1.32.26-1.78-.22.27.16-.61.19-.81,0-.65,1.27.29.91-.27-.62-.78.53-.33.3-.88-.15-.39.26,0,.2-.33s.23-.5.48-.25c.51.49,1.06.75.76,0-.24-.58.68-.3,1-.62.13.17.36.82.57.34s-.18-1,.19-1c.63-.52.26,0,.31-.54.58.53-.1-1.5.72-1.4.15,0,.49-.74.59-.33,0,.05,1.51.14.74-.31.11-.37.43-.73.31-1,.92-.45.89-.63,1.71.17.42.34-.13.59.48.76-.24.25.32,0,.44.11.31.22-.19.93.31.29S34.66,9.06,36,8.65c.32.1.64,1.31.84.39.16-.09.11-.71.27-1a.38.38,0,0,0,.45-.14c.45.2,0,.33.3.4s.2-.39.25-.49a1.17,1.17,0,0,1,1,.67c-.61.2.08.74.25.27.82,0-.11-.72.55-.74s.54-.44,1-.26c.23.08.81-.17,1.18-.12,0,.2.17.29.17.46-.22.09-.37.22,0,.46.13,0,1.39-.45,1,.19.16.47.69-.17.81.87.38-.18.79-1.06,1-.45.16,0,.37-.48.46-.1s.48-.14.26.3c.06.14.23.11.1.22-.34.36,1.49,1.17,1.21.46.51.13.13-.27.52-.22-.26.31.17.62.36.22.16.08.55.49.65.16,0,0,.33,1.43.82,1,0-.15-.14-.49-.32-.44,0-.83.82,0,.56.1.11.46.9.65.48,1s.19.69.14.28c.57,0,.76.41.8,1,0,.14-.93.77-.19.74.56-.14.36-.31.61.22-.18.13,0,.51-.39.19s-.23.73,0,.52.7,0,.61-.43c-.35-1,1.74.33,1.8.36a1.64,1.64,0,0,0,0-.22c.8.15,0,.93.58,1.16s-.43.66-.55.55c-.62-.31-.16.83.11.34.2,0,.11.15.23.2a.54.54,0,0,0-.06.11c.45.26.54-.37.5.16,0,.14.53.13.15.36-.67.36.9.27.05.7-.2.16.29.7-.11.64s-.75-.52-.85,0c.24.47.4.11.65.34-1,.09.45.54.93.3h0a.3.3,0,0,0,0,.21h0s.38.17.47.45c-.39.5,0,.05.11.48-.13.05-.32.12-.17.29h0a.22.22,0,0,0,.06.17c-.15.06-.27-.06-.31.18-.38-.35-.86.45-.29.24.34-.12.65.79,1-.09.36.3-.15.84.08.9.8,0,.48.94.8,1h0s0,0,0,0a.33.33,0,0,0-.16.45,2.34,2.34,0,0,1-1.06.59c.32.31-.58.6-.75.89.14.2,1.16,0,1.51.05l0,.12c-.41.18.6.83.7.9l-.28.43c-.37-.68-.63,0-.42.07.45.13.13.35,0,.24-.2-.31-.7-.16-.35.17-.32.23-.32-.44-.33-.45a1.47,1.47,0,0,0-.84-.15c.7.44-.72.54-.22,0-.21.05-.36.16-.36.34h0v0h0a.81.81,0,0,0-.31,0c-.3.24.13-1.1-.68-.58-.94.24.25.21.1.34s.17.57-.29.45-.37.11-.28-.26a.23.23,0,0,0-.33-.09c0-.51-.79.12-1.12.19v0s-.23-.12-.31-.08h0s-.08.08-.12.12-.07-.08-.12-.1h0c-.14-.08-.07-.2-.26-.2v0a2.61,2.61,0,0,0-.56.08,13.09,13.09,0,0,1-3.43-.17c-1.47-.22-4.92.88-5.32,2.53-1,5.19,6.41,4.23,9.26,4.5.3,0,1.42.51,1,.53-7.82,0-23.33,0-23.33,0a3.79,3.79,0,0,1,1-.56c3-.4,10.38.6,9.19-4.75Z"/><path class="cls-2" d="M24.4,44.61a4.84,4.84,0,0,1,1.47.39,1.87,1.87,0,0,1,1,1.74A2.09,2.09,0,0,1,26,48.52a3.94,3.94,0,0,1-2.4.62H19.89v-.4a2,2,0,0,0,.92-.18c.11-.08.16-.3.16-.65V42c0-.35,0-.57-.17-.66a2.11,2.11,0,0,0-.91-.16v-.4H23.3a4.52,4.52,0,0,1,2.28.43,1.53,1.53,0,0,1,.71,1.41,1.72,1.72,0,0,1-.44,1.22,3.52,3.52,0,0,1-1.45.82Zm-2-.11h.83c1.07,0,1.61-.58,1.61-1.74s-.58-1.54-1.72-1.54h-.72V44.5Zm0,.48V47.4a1.6,1.6,0,0,0,.23,1,1.29,1.29,0,0,0,.94.26c1.13,0,1.69-.59,1.69-1.76S24.56,45,23.16,45Z"/><path class="cls-2" d="M15.3,41.15a2.38,2.38,0,0,0-2,.93,4.06,4.06,0,0,0-.72,2.54,5,5,0,0,0,.83,3,2.5,2.5,0,0,0,2.12,1.16,2.27,2.27,0,0,0,1.94-1,4.54,4.54,0,0,0,.72-2.69,4.59,4.59,0,0,0-.8-2.83,2.47,2.47,0,0,0-2.09-1.07Zm.3-.52a4.28,4.28,0,0,1,3.09,1.21A3.91,3.91,0,0,1,20,44.79,4.15,4.15,0,0,1,18.56,48a4.85,4.85,0,0,1-3.42,1.3A4.24,4.24,0,0,1,12.07,48a4,4,0,0,1-1.26-3,4.1,4.1,0,0,1,1.38-3.14,4.86,4.86,0,0,1,3.41-1.28Z"/><path class="cls-2" d="M51.42,46.36A2.12,2.12,0,0,1,49,48.64h-2V43.89h.57c2.37,0,3.79.6,3.79,2.47Zm-.88-5c0,1.6-1.17,2.08-3.29,2.08h-.19V39.72c0-.48,0-.57.91-.57,1.52,0,2.57.74,2.57,2.25Zm2.68,5c0-1.62-1.17-2.56-3.54-2.81,1.68-.33,2.51-1.09,2.51-2.3,0-1.63-1.56-2.46-4-2.46H44v.35c1.28,0,1.48.34,1.48,1.4v6.74c0,1-.2,1.36-1.48,1.39v.45h5c2.8,0,4.23-.94,4.23-2.75Z"/><path class="cls-2" d="M58.71,46.44H55l-.46,1.36a1.09,1.09,0,0,0-.07.32c0,.33.23.53.68.56v.42H52.8v-.16c.64-.2,1.17-1.23,1.33-1.66l2.47-6.55H58l2.59,6.91c.13.36.32.9.75,1a.52.52,0,0,0,.6,0,1.17,1.17,0,0,0,.43-.84V42.19c0-.81-.8-1-1.5-1v-.41l1,0a2.2,2.2,0,0,1,2,.79l4.52,5.64V42.45c0-.54-.08-.88-.25-1A2,2,0,0,0,67,41.13v-.39h6.78v.4c-1,0-1.2.27-1.2,1.14v3.23l4-3.45a1.06,1.06,0,0,0,.27-.47.32.32,0,0,0-.15-.34,1.07,1.07,0,0,0-.53-.11H76v-.44h2.79v.44h-.11c-.4,0-.66.24-1.08.63l-2.7,2.45,2.83,3.3A3.9,3.9,0,0,0,80,48.93v.28a4.12,4.12,0,0,1-4-1.58l-2.12-2.49-1.33,1.21v1.19c0,.86.16,1.1,1.2,1.12v.45H70.14v-.45h.93l.06,0h0a0,0,0,0,0,0,0,.43.43,0,0,0,.09-.1h0s0,0,0,0h0a.45.45,0,0,0,0-.2h0v0h0V48c0-.12,0-.27,0-.44v-1.3a.49.49,0,0,0,0-.12V42.05a.88.88,0,0,0-.35-.77,1.49,1.49,0,0,0-.76-.14h0a1.62,1.62,0,0,0-1,.19A1.41,1.41,0,0,0,69,42.45v6.66h-.63L63,42.33v5a1.47,1.47,0,0,0,.25,1,2,2,0,0,0,1.16.3v.43l-5.8,0v-.42c.49,0,.73-.17.73-.51a1.18,1.18,0,0,0-.08-.41l-.51-1.32Zm-3.51-.53h3.33l-1.71-4.48L55.2,45.91Z"/><path class="cls-2" d="M35.89,45.18h.16c.74,0,1.58,0,1.63.67l.47-.09a7.63,7.63,0,0,1,0-.82,5.22,5.22,0,0,1,0-.67l-.47-.09c-.06.71-.89.62-1.66.62h-.13v-3c0-.68,0-.68,1-.68,1.65,0,2.38.15,2.55,1.5h.26V40.72H33.4v.4c1,0,1.2.28,1.2,1.15v6.84h5.7l.06-1.94h-.25c-.17,1.25-.89,1.6-2.37,1.6s-1.85-.33-1.85-1.55v-2Z"/><path class="cls-2" d="M33.87,49.11l.74-1.38h-.42a3.36,3.36,0,0,1-2.69,1c-1.76,0-2-.29-2-1.55V42.29c0-.87.16-1.12,1.21-1.15v-.42H27v.42c1.05,0,1.21.28,1.21,1.15V47.7c0,.87-.16,1-1.21,1.07v.35Z"/><path class="cls-2" d="M2.37,41.45v5.68a1.81,1.81,0,0,0,.29,1.22A2.34,2.34,0,0,0,4,48.73v.38H.3v-.38a1.74,1.74,0,0,0,1.08-.41,2,2,0,0,0,.26-1.19V40.51a1.68,1.68,0,0,0-.15-.8,1.12,1.12,0,0,0-.76-.46,5.09,5.09,0,0,0-.73-.1v-.38H1.38a1.49,1.49,0,0,1,1.21.53L9.1,46.69V40.74a1.74,1.74,0,0,0-.29-1.21,2.32,2.32,0,0,0-1.33-.38v-.38h3.73v.38a1.66,1.66,0,0,0-1.08.42,1.89,1.89,0,0,0-.26,1.17v8.37H9.15L2.37,41.45Z"/></g></g></svg>