<svg id="Layer_1" data-name="Layer 1" xmlns="http://www.w3.org/2000/svg" viewBox="0 0 80 17.04"><defs><style>.cls-1{fill:#0066a4;}.cls-2{fill:#fff;}</style></defs><title>Nordea-SOLO</title><path id="path6" class="cls-1" d="M21.58,54.15c0,2.57,2.21,4.37,5.36,4.37s5.36-1.8,5.36-4.37-2.21-4.37-5.36-4.37-5.36,1.8-5.36,4.37Zm2.2,0c0-1.52,1.27-2.54,3.16-2.54s3.16,1,3.16,2.54-1.27,2.54-3.16,2.54-3.16-1-3.16-2.54Z" transform="translate(-10 -41.48)"/><path id="path8" class="cls-1" d="M35.35,50.66V50H33.23v8.3h2.14V53.89A1.7,1.7,0,0,1,36.48,52a3.17,3.17,0,0,1,1.1-.18h.31v-2a4.64,4.64,0,0,0-2.54.87Z" transform="translate(-10 -41.48)"/><path id="path10" class="cls-1" d="M46.58,47v3.7a6,6,0,0,0-3.24-.87c-3.16,0-5.36,1.8-5.36,4.37s2.21,4.37,5.36,4.37a6.4,6.4,0,0,0,3.24-.8v.58H48.7V47Zm-6.4,7.2c0-1.52,1.27-2.54,3.16-2.54s3.16,1,3.16,2.54-1.27,2.54-3.16,2.54-3.16-1-3.16-2.54Z" transform="translate(-10 -41.48)"/><path id="path12" class="cls-1" d="M61.15,54.15c0,2.61,2.14,4.37,5.32,4.37a5.87,5.87,0,0,0,3.28-.79v.58h2.12V54.2c0-2.64-2.15-4.41-5.36-4.41s-5.36,1.79-5.36,4.36Zm2.2,0c0-1.52,1.27-2.54,3.16-2.54s3.16,1,3.16,2.54-1.27,2.54-3.16,2.54-3.16-1-3.16-2.54Z" transform="translate(-10 -41.48)"/><path id="path14" class="cls-1" d="M60.38,55a4.17,4.17,0,0,1-2.19,2.82,6.17,6.17,0,0,1-3.14.71c-3.29,0-5.35-2-5.35-4.32,0-2.61,2.27-4.44,5.35-4.42,4.09,0,5.32,2.57,5.41,4.16l-8,1.73a3.33,3.33,0,0,0,2.57,1,3.29,3.29,0,0,0,2.78-1.16L60.38,55Zm-8.43-1,5.8-1.26a3.35,3.35,0,0,0-2.7-1.08c-1.8,0-3,1-3.1,2.34Z" transform="translate(-10 -41.48)"/><path id="path16" class="cls-1" d="M18.62,58.3l2.05,0V48.09H18.54v7l-6.44-7H10V58.32h2.13V51.48l6.49,6.82Z" transform="translate(-10 -41.48)"/><path id="path18" class="cls-2" d="M75.89,47.24a11,11,0,0,0-2.41-4.62c7-1.6,11.93-1.36,12.62.56,1.18,3.3-5.26,9.47-11,11.31,1.18-1.52,1.61-4.22.78-7.25ZM86.72,46a4.81,4.81,0,0,0,.46-3.75,2.72,2.72,0,0,0-.4-.73c1.93.28,3.65,3.15,3.12,6.4a13.26,13.26,0,0,1-2.42,6c-1.34-.66-4.17-.83-7.34-.31-.72.12-1.29.23-1.94.4,3.62-1.91,7.13-5.12,8.52-8Z" transform="translate(-10 -41.48)"/><path id="path20" class="cls-1" d="M75.89,47.24c.83,3,.41,5.73-.77,7.25,5.73-1.84,12.17-8,11-11.31-.69-1.92-5.64-2.16-12.62-.56a11.28,11.28,0,0,1,2.4,4.62Z" transform="translate(-10 -41.48)"/><path id="path22" class="cls-1" d="M86.72,46a4.81,4.81,0,0,0,.46-3.75,2.72,2.72,0,0,0-.4-.73c1.93.28,3.65,3.15,3.12,6.4a13.26,13.26,0,0,1-2.42,6c-1.34-.66-4.17-.83-7.34-.31-.72.12-1.29.23-1.94.4,3.62-1.91,7.13-5.12,8.52-8Z" transform="translate(-10 -41.48)"/></svg>