<svg xmlns="http://www.w3.org/2000/svg" viewBox="0 0 80 17.04"><defs><style>.cls-1{fill:#0067a6;fill-rule:evenodd;}</style></defs><title>Nordea</title><g id="Layer_2" data-name="Layer 2"><g id="Nordea"><path class="cls-1" d="M11.57,12.68c0,2.56,2.21,4.36,5.35,4.36s5.38-1.8,5.38-4.36S20.09,8.3,16.92,8.3s-5.35,1.8-5.35,4.38Zm2.21,0c0-1.52,1.26-2.56,3.14-2.56s3.17,1,3.17,2.56-1.26,2.54-3.17,2.54-3.14-1-3.14-2.54Z"/><path class="cls-1" d="M25.34,9.17V8.52H23.21v8.3h2.15V12.4a1.68,1.68,0,0,1,1.1-1.89,3.2,3.2,0,0,1,1.09-.18h.31v-2a4.65,4.65,0,0,0-2.52.87Z"/><path class="cls-1" d="M36.58,5.48V9.17a5.89,5.89,0,0,0-3.24-.87C30.17,8.3,28,10.08,28,12.66S30.17,17,33.34,17a6.53,6.53,0,0,0,3.24-.79v.59h2.11V5.48Zm-6.41,7.2c0-1.52,1.28-2.56,3.17-2.56s3.16,1,3.16,2.56-1.28,2.54-3.16,2.54-3.17-1-3.17-2.54Z"/><path class="cls-1" d="M51.13,12.66c0,2.62,2.15,4.38,5.34,4.38a5.87,5.87,0,0,0,3.27-.79c0,.21,0,.57,0,.57h2.11v-4.1c0-2.66-2.16-4.42-5.36-4.42s-5.38,1.8-5.38,4.36Zm2.21,0c0-1.5,1.28-2.54,3.17-2.54s3.16,1,3.16,2.54S58.4,15.2,56.51,15.2s-3.17-1-3.17-2.54Z"/><path class="cls-1" d="M50.36,13.49a4.12,4.12,0,0,1-2.19,2.82A6.22,6.22,0,0,1,45,17c-3.28,0-5.35-2-5.35-4.32C39.69,10.1,42,8.28,45,8.3c4.08,0,5.32,2.58,5.42,4.16l-8,1.72a3.28,3.28,0,0,0,2.57,1A3.29,3.29,0,0,0,47.82,14l2.54-.55Zm-8.42-1,5.8-1.26A3.38,3.38,0,0,0,45,10.1c-1.8.07-3,1-3.1,2.36Z"/><path class="cls-1" d="M8.62,16.82l2.05,0V6.61H8.54v7l-6.45-7H0V16.84H2.11V10l6.51,6.82Z"/><path class="cls-1" d="M65.88,5.76c.83,3,.41,5.72-.77,7.25,5.72-1.85,12.18-8,11-11.33-.69-1.9-5.64-2.15-12.62-.54a11.05,11.05,0,0,1,2.41,4.62Z"/><path class="cls-1" d="M76.72,4.48A4.86,4.86,0,0,0,77.18.73a2.85,2.85,0,0,0-.4-.73c1.93.26,3.65,3.14,3.12,6.39a13.52,13.52,0,0,1-2.43,6c-1.34-.67-4.16-.83-7.35-.33-.71.12-1.27.25-1.92.41,3.61-1.91,7.12-5.11,8.52-8Z"/></g></g></svg>