<svg id="Layer_1" data-name="Layer 1" xmlns="http://www.w3.org/2000/svg" viewBox="0 0 20 17.1"><defs><style>.cls-1{fill:#12172b;}</style></defs><title>offline</title><path class="cls-1" d="M24.94,16a.22.22,0,0,0-.3,0l-1.47,1.49h0c0-.08,0-.16.07-.25s.09-.36.13-.54h0A8.55,8.55,0,0,0,9,9c-.1.1-.21.21-.3.32l-.09.1c-.06.08-.13.15-.2.23a.76.76,0,0,1-.11.14L8.1,10,8,10.13l-.12.17h0l0,0a.21.21,0,1,0,.35.23l.15-.22.1-.14.15-.2.11-.14.17-.2L9,9.56a4.11,4.11,0,0,1,.29-.3L9.56,9l0,0,.27-.23h0a8.14,8.14,0,0,1,10.25,0,0,0,0,0,1,0,0l.27.23,0,0,.3.29A8.16,8.16,0,0,1,23,16.62h0c0,.17-.08.35-.12.52s-.05.15-.07.23,0,.05,0,.07L22,15.51a.21.21,0,1,0-.39.15l1,2.6a.2.2,0,0,0,.15.13h0a.2.2,0,0,0,.15-.06l2-2A.23.23,0,0,0,24.94,16Z" transform="translate(-5 -6.46)"/><path class="cls-1" d="M22.11,19.36a.21.21,0,0,0-.29.06c-.13.2-.27.39-.42.58l-.22.27a.52.52,0,0,1-.1.11l-.34.36A8.12,8.12,0,0,1,6.9,15.66h0a7.45,7.45,0,0,1,0-1.7s0,0,0-.06c0-.17,0-.34.08-.5v0l.12-.52,0-.11c0-.05,0-.1,0-.15L8,14.51a.21.21,0,0,0,.2.13h.08a.21.21,0,0,0,.12-.27l-1-2.6a.2.2,0,0,0-.15-.13.22.22,0,0,0-.19.06l-2,2a.21.21,0,0,0,.3.3L6.83,12.5v0l-.06.2a2.82,2.82,0,0,0-.07.31c0,.09-.05.19-.07.28l0,.19c0,.14,0,.27-.07.41v0A8.6,8.6,0,0,0,9,21.06,8.43,8.43,0,0,0,11,22.58a8.58,8.58,0,0,0,4,1h0a8.58,8.58,0,0,0,4-1,8.82,8.82,0,0,0,2.07-1.52c.12-.12.24-.25.35-.38l.1-.12.23-.28.06-.07a0,0,0,0,1,0,0c.13-.17.26-.35.38-.53A.25.25,0,0,0,22.11,19.36Z" transform="translate(-5 -6.46)"/><path class="cls-1" d="M9.75,19.36H20.07a.21.21,0,1,0,0-.42H9.75a.21.21,0,1,0,0,.42Z" transform="translate(-5 -6.46)"/><path class="cls-1" d="M9.75,18a.21.21,0,1,0,0,.42H20.07a.21.21,0,0,0,0-.42H18.94V14.22h1.22a.21.21,0,1,0,0-.42H9.75a.21.21,0,1,0,0,.42H11V18Zm6-3.76h1.52v3.09a.21.21,0,0,0,.42,0V14.22h.78V18H15.79Zm-1.2,0h.78V18h-.78Zm-3.2,0h2.78V18H12.59V15a.21.21,0,1,0-.42,0v3h-.78Z" transform="translate(-5 -6.46)"/><path class="cls-1" d="M9.57,13.11a0,0,0,0,1,0,0h0l0,0,0,0h10.5l.09,0h0a.1.1,0,0,0,0,0h0a0,0,0,0,0,0,0,.05.05,0,0,0,0,0,.06.06,0,0,0,0,0v0h0s0,0,0,0,0,0,0,0l0,0,0,0h0L15.08,8.53a.23.23,0,0,0-.27,0L9.6,12.84h0l0,0,0,0s0,0,0,0,0,0,0,0h0a0,0,0,0,0,0,0,.06.06,0,0,0,0,0ZM15,9l4.62,3.83H10.33Z" transform="translate(-5 -6.46)"/></svg>