<svg id="Layer_1" data-name="Layer 1" xmlns="http://www.w3.org/2000/svg" viewBox="0 0 20 13.4"><defs><style>.cls-1{fill:#000100;}</style></defs><title>online</title><path d="M23,19.4h-.62V10.19H7.84V19.4H7.21V9.88a.31.31,0,0,1,.31-.31H22.67a.31.31,0,0,1,.31.31Z" transform="translate(-5 -8.3)"/><path d="M24.42,19.4H23.8V9.1a.17.17,0,0,0-.17-.17h-17a.17.17,0,0,0-.17.17V19.4H5.86V9.1a.8.8,0,0,1,.8-.8h17a.79.79,0,0,1,.79.8Z" transform="translate(-5 -8.3)"/><path d="M23.2,21.7H6.8c-1.21,0-1.8-.39-1.8-1.19v-1.1a.31.31,0,0,1,.31-.31h7.21a.31.31,0,0,1,.31.31.35.35,0,0,0,.35.35H17.1a.35.35,0,0,0,.35-.35.31.31,0,0,1,.31-.31h6.93a.31.31,0,0,1,.31.31v1.1C25,21.31,24.41,21.7,23.2,21.7Zm-17.58-2v.79c0,.2,0,.57,1.18.57H23.2c1.18,0,1.18-.37,1.18-.57v-.79H18a1,1,0,0,1-.92.66H13.18a1,1,0,0,1-.92-.66Z" transform="translate(-5 -8.3)"/><path d="M15,17.39a2.65,2.65,0,1,1,2.65-2.65A2.65,2.65,0,0,1,15,17.39Zm0-4.68a2,2,0,1,0,2,2A2,2,0,0,0,15,12.71Z" transform="translate(-5 -8.3)"/><path d="M14.88,16.11v-.34a.88.88,0,0,1-.51-.15l.08-.23a.88.88,0,0,0,.48.14c.24,0,.4-.14.4-.33s-.13-.3-.38-.4-.56-.29-.56-.59a.55.55,0,0,1,.51-.54v-.34h.21v.33a.93.93,0,0,1,.44.12l-.08.22a.81.81,0,0,0-.42-.12c-.26,0-.36.16-.36.29s.12.26.42.38.52.31.52.61a.6.6,0,0,1-.53.58v.35h-.22Z" transform="translate(-5 -8.3)"/><path d="M15.16,16.18H14.8v-.34a1,1,0,0,1-.48-.16l0,0,.13-.37.08.05a.81.81,0,0,0,.44.13c.2,0,.33-.1.33-.26s-.1-.24-.34-.33-.6-.29-.6-.65a.61.61,0,0,1,.51-.6v-.35h.36v.33a.89.89,0,0,1,.4.12l.05,0-.14.36-.07,0A.69.69,0,0,0,15,14c-.21,0-.28.11-.28.22s.08.19.37.32.57.37.57.68a.66.66,0,0,1-.53.64v.36ZM15,16H15v-.34h.06a.52.52,0,0,0,.47-.51c0-.25-.13-.41-.48-.55s-.46-.22-.46-.45A.38.38,0,0,1,15,13.8a.93.93,0,0,1,.39.09l0-.09a.78.78,0,0,0-.35-.08H15V13.4H15v.33h-.06a.48.48,0,0,0-.44.47c0,.23.14.37.51.52.2.08.43.21.43.47s-.2.4-.48.4a1,1,0,0,1-.44-.11l0,.09a1.09,1.09,0,0,0,.43.11H15V16Z" transform="translate(-5 -8.3)"/><path d="M11.05,14.4a.34.34,0,1,1-.34-.34A.34.34,0,0,1,11.05,14.4Z" transform="translate(-5 -8.3)"/><path d="M19.6,14.4a.34.34,0,1,1-.34-.34A.34.34,0,0,1,19.6,14.4Z" transform="translate(-5 -8.3)"/><path class="cls-1" d="M20.25,18.56H9.94a.31.31,0,0,1-.31-.31.8.8,0,0,0-.8-.8.31.31,0,0,1-.31-.31V12.06a.31.31,0,0,1,.31-.31.8.8,0,0,0,.8-.8.31.31,0,0,1,.31-.31H20.25a.31.31,0,0,1,.31.31.8.8,0,0,0,.8.8.31.31,0,0,1,.31.31v5.08a.31.31,0,0,1-.31.31.8.8,0,0,0-.8.8A.31.31,0,0,1,20.25,18.56Zm-10-.62H20a1.43,1.43,0,0,1,1.08-1.08V12.33A1.43,1.43,0,0,1,20,11.25H10.22a1.43,1.43,0,0,1-1.08,1.08v4.53A1.42,1.42,0,0,1,10.22,17.94Z" transform="translate(-5 -8.3)"/></svg>