<svg xmlns="http://www.w3.org/2000/svg" viewBox="0 0 80 36.87"><defs><style>.cls-1{fill:#eea52d;}.cls-1,.cls-2,.cls-3{fill-rule:evenodd;}.cls-2{fill:#fff;}.cls-3{fill:#ed1c24;}</style></defs><title>Oxxo</title><g id="Layer_2" data-name="Layer 2"><g id="Oxxo"><path class="cls-1" d="M0,2.49A2.5,2.5,0,0,1,2.49,0h75A2.5,2.5,0,0,1,80,2.49V34.38a2.5,2.5,0,0,1-2.49,2.49h-75A2.5,2.5,0,0,1,0,34.38V2.49Z"/><polygon class="cls-2" points="0 3.62 80 3.62 80 33.25 0 33.25 0 3.62 0 3.62"/><path class="cls-3" d="M67.8,11.32A6.64,6.64,0,1,0,74.44,18a6.66,6.66,0,0,0-6.64-6.64Z"/><path class="cls-3" d="M13,11.32A6.64,6.64,0,1,0,19.68,18,6.66,6.66,0,0,0,13,11.32Z"/><path class="cls-3" d="M67.28,5.47c-6.15-.14-9.05,3.8-13.24,8.67l-4,4.58,6.27,7.51c1.49,2.3-1.36,4.59-3.13,2.48L47.43,21.8l-5.65,6.55c-1.8,2.08-4.62-.25-3.09-2.53l6.13-7.13-4-4.79,2.59-3.2,4.08,4.9L51,11.51c1.73-2,3.49-4.67,5.78-6H0V31.4H13.27c6.15,0,9-3.67,13-8.63l3.85-4.68-6.44-7.36C22.16,8.46,25,6.11,26.78,8.17L32.73,15l5.5-6.67c1.75-2.13,4.62.13,3.15,2.45l-6,7.27,4.13,4.7-2.6,3.08-4.11-4.63L29.4,25.32C27.72,27.37,26,30,23.77,31.4H80V5.47ZM23.53,18A10.5,10.5,0,1,1,13,7.46,10.52,10.52,0,0,1,23.53,18ZM67.8,28.46A10.5,10.5,0,1,1,78.29,18,10.52,10.52,0,0,1,67.8,28.46Z"/></g></g></svg>