<svg xmlns="http://www.w3.org/2000/svg" viewBox="0 0 80 27.56"><defs><style>.cls-1{fill:#f04a23;}.cls-2{fill:#216443;}</style></defs><title>PAB_Ping_An_Bank</title><g id="Layer_2" data-name="Layer 2"><g id="PAB_Ping_An_Bank"><path class="cls-1" d="M69.08,3a.37.37,0,0,1-.38-.37V1.09a.37.37,0,0,1,.38-.37h10a.4.4,0,0,1,.39.37V2.6a.39.39,0,0,1-.39.37h-10m-.63,4.78a.38.38,0,0,1-.37-.37V5.87a.38.38,0,0,1,.37-.37H79.63a.38.38,0,0,1,.37.37V7.38a.37.37,0,0,1-.37.37h-2v6.41a1.41,1.41,0,0,1-1.43,1.41H70.79a.37.37,0,0,1-.37-.37V13.87a.37.37,0,0,1,.37-.37h4.1V7.75H68.45m-7.11,2c-.17,0-.27-.07-.27-.17s0-.06.06-.12l3-3.75c.23-.27.29-.33.5-.33H67a.18.18,0,0,1,.2.19.32.32,0,0,1-.06.17L64.69,8.79h1.12V15.2a.41.41,0,0,1-.38.37H63.49a.39.39,0,0,1-.39-.37V9.72H61.34m0-4.78c-.19,0-.27-.06-.27-.17l0-.1,3-3.77c.23-.28.29-.33.5-.33H67a.18.18,0,0,1,.2.17.29.29,0,0,1-.07.2L64.07,4.77a.42.42,0,0,1-.41.17Z"/><path class="cls-1" d="M56.6,9.9c.23-.25.31-.31.5-.31h1.78c.23,0,.33,0,.33.17s-.06.14-.19.29l-2.34,2.68.17.27a3.32,3.32,0,0,0,.41.63c.15.14.23.16.71.16h1a.4.4,0,0,1,.37.37v1a.4.4,0,0,1-.37.37H57.49a2.43,2.43,0,0,1-2.42-1.12L52.46,10a.49.49,0,0,1-.08-.22c0-.11.07-.17.21-.17h1.92c.28,0,.33.06.54.39l.62,1L56.6,9.9M51.22,5.7V7h5.46V5.7H51.22m5.46-3.12H51.22V3.9h5.46V2.58M51.22,13.79h1.84a.4.4,0,0,1,.4.37v1a.41.41,0,0,1-.4.37H50.33a1.43,1.43,0,0,1-1.43-1.41v-12A1.43,1.43,0,0,1,50.33.72h7.29A1.4,1.4,0,0,1,59,2.12V7.44a1.41,1.41,0,0,1-1.4,1.43h-6.4v4.92M45.31,9h2.21a.39.39,0,0,1,.39.37v1.24a.39.39,0,0,1-.39.38H45.31v2.83h1.75a.39.39,0,0,1,.38.37v1a.41.41,0,0,1-.38.37H44.31a1.42,1.42,0,0,1-1.4-1.41V11H41.1a.38.38,0,0,1-.37-.38V9.34A.38.38,0,0,1,41.1,9h1.81V7.34H41.1A.38.38,0,0,1,40.73,7V5.7a.38.38,0,0,1,.37-.37h6.42a.39.39,0,0,1,.39.37V7a.39.39,0,0,1-.39.37H45.31V9m2.21-7.15a.39.39,0,0,1,.39.37V3.45a.4.4,0,0,1-.39.37H43.38l-.29.5c-.16.31-.23.35-.54.35h-1.9c-.25,0-.31,0-.31-.15a.44.44,0,0,1,.08-.2L42.31.9c.14-.26.2-.32.43-.32h2.07c.21,0,.29,0,.29.12A.45.45,0,0,1,45,.9l-.52.92Z"/><path class="cls-1" d="M25.84,8.6c0,1,.06,1.1,1.22,1.66l2.19,1,2.19-1c1.18-.58,1.23-.64,1.23-1.66V7.88H25.84V8.6m2-8.2a.38.38,0,0,1,.37-.4h2.13a.38.38,0,0,1,.37.4v.74h6a1.75,1.75,0,0,1,1.74,1.75V4a.37.37,0,0,1-.38.37H36.6A.36.36,0,0,1,36.23,4V3h-14V4a.37.37,0,0,1-.37.37H20.5A.38.38,0,0,1,20.11,4V2.89a1.77,1.77,0,0,1,1.78-1.75h5.92V.4M20.33,7.88a.37.37,0,0,1-.39-.37V6.18a.37.37,0,0,1,.39-.36h2.88V4.57a.37.37,0,0,1,.37-.37h1.86a.38.38,0,0,1,.4.37V5.82h6.83V4.59a.37.37,0,0,1,.39-.39h1.86a.37.37,0,0,1,.37.39V5.82h2.78a.37.37,0,0,1,.37.36V7.51a.37.37,0,0,1-.37.37H35.29v.77c0,1.71-.49,2.31-2.69,3.31l-.91.41.17.06a6.56,6.56,0,0,0,2.94.69h2.91a.39.39,0,0,1,.38.39v1.3a.37.37,0,0,1-.38.37H34.8a8.33,8.33,0,0,1-4-1l-1.53-.68-1.53.68a8.25,8.25,0,0,1-4,1H20.79a.36.36,0,0,1-.37-.37v-1.3a.38.38,0,0,1,.37-.39h2.92a7.28,7.28,0,0,0,2.94-.69l.16-.06L25.9,12c-2.23-1-2.65-1.56-2.69-3.31V7.88Z"/><path class="cls-1" d="M14.5,4.11h2.09c.18,0,.25.07.25.18a.69.69,0,0,1-.1.27L14.61,8.74c-.15.29-.25.35-.69.35H11.81q-.24,0-.24-.18s0-.09.1-.27l2.15-4.18c.12-.27.27-.35.68-.35M6.64,8.64a.63.63,0,0,1,.1.27q0,.18-.24.18H4.39C4,9.09,3.85,9,3.7,8.74L1.55,4.56a.88.88,0,0,1-.08-.27c0-.12.08-.18.25-.18H3.8c.42,0,.54.06.69.35L6.64,8.64M.39,12.44A.37.37,0,0,1,0,12.05V10.71a.39.39,0,0,1,.39-.4H7.7V2.88H1a.38.38,0,0,1-.37-.39V1.21A.36.36,0,0,1,1,.84H17.32a.36.36,0,0,1,.37.37V2.49a.38.38,0,0,1-.37.39H10.59v7.43H18a.39.39,0,0,1,.39.4v1.34a.37.37,0,0,1-.39.39H10.59v2.82a.39.39,0,0,1-.39.37H8.07a.37.37,0,0,1-.37-.37V12.44Z"/><path class="cls-1" d="M48.94,21.12a.61.61,0,0,1,.62-.63h2.53a2.49,2.49,0,0,1,1.83.63,1.55,1.55,0,0,1,.47,1.16v0a1.67,1.67,0,0,1-1,1.56,1.74,1.74,0,0,1,1.4,1.71v0c0,1.25-1,1.93-2.6,1.93H49.56a.62.62,0,0,1-.62-.63V21.12m2.9,2.33c.79,0,1.32-.31,1.32-.95v0c0-.55-.44-.89-1.24-.89H50.15v1.86h1.69m.36,3c.84,0,1.35-.33,1.35-1v0c0-.6-.47-1-1.44-1h-2v1.93H52.2m3.58.29,2.61-5.82a.78.78,0,0,1,.74-.5h.06a.77.77,0,0,1,.73.5l2.61,5.82a.54.54,0,0,1,.07.26.58.58,0,0,1-.58.59.63.63,0,0,1-.6-.43l-.58-1.31h-3.4l-.6,1.35a.59.59,0,0,1-.57.39A.56.56,0,0,1,55.7,27a.63.63,0,0,1,.08-.28m4.6-2-1.24-2.83L57.9,24.72h2.48m3.56-3.64a.62.62,0,0,1,.62-.63h.13a.77.77,0,0,1,.64.36l3.51,4.55V21.05a.61.61,0,1,1,1.21,0v5.89a.59.59,0,0,1-.6.61h0a.77.77,0,0,1-.64-.37l-3.61-4.67V27a.61.61,0,0,1-1.21,0V21.08m7.92,0a.62.62,0,1,1,1.24,0v3l3.33-3.36a.65.65,0,0,1,.51-.23.56.56,0,0,1,.57.57.63.63,0,0,1-.22.47l-2.19,2.1,2.37,2.94a.67.67,0,0,1,.17.44.6.6,0,0,1-.62.6.62.62,0,0,1-.52-.29l-2.26-2.88L73.1,25.5V27a.62.62,0,0,1-1.24,0V21.06Z"/><path class="cls-1" d="M19.31,20.41H18.25a.17.17,0,0,0-.17.17v4.84l-4.32-4.88a.44.44,0,0,0-.31-.13H12.39a.17.17,0,0,0-.16.17v6.69a.17.17,0,0,0,.16.17h1.07a.18.18,0,0,0,.17-.17V22.39c.4.45,4.25,4.82,4.35,4.92a.4.4,0,0,0,.31.13h1a.17.17,0,0,0,.16-.17V20.58a.17.17,0,0,0-.16-.17m6.14-.09H23a2.27,2.27,0,0,0-2.4,2.13V25.4A2.28,2.28,0,0,0,23,27.53h2.45a2.28,2.28,0,0,0,2.4-2.13V23.51H24.14v1a.17.17,0,0,0,.16.17h2V26a.18.18,0,0,1-.17.17H22.28a.18.18,0,0,1-.17-.17V21.82a.17.17,0,0,1,.17-.17h3.89a.16.16,0,0,1,.16.17v.8a.17.17,0,0,0,.18.17h1.17a.16.16,0,0,0,.17-.17v-.17a2.28,2.28,0,0,0-2.4-2.13m20.26.09H44.65a.17.17,0,0,0-.16.17v4.84c-.56-.63-4.22-4.78-4.32-4.88a.46.46,0,0,0-.32-.13H38.8a.18.18,0,0,0-.17.17v6.69a.18.18,0,0,0,.17.17h1.06a.17.17,0,0,0,.17-.17V22.39l4.35,4.92a.42.42,0,0,0,.32.13h1a.18.18,0,0,0,.18-.17V20.58a.18.18,0,0,0-.18-.17m-11.1.19a.34.34,0,0,0-.3-.2H33.26a.34.34,0,0,0-.3.2l-3.3,6.5c-.11.21,0,.33.18.33h1a.27.27,0,0,0,.29-.18L33.79,22l2.61,5.23a.27.27,0,0,0,.29.18h1.05c.19,0,.29-.12.18-.33l-3.31-6.5M6.76,23.89a.18.18,0,0,1-.17.17H3V21.65H6.59a.17.17,0,0,1,.17.17v2.07M6,20.41H1.63a.17.17,0,0,0-.16.17v6.69a.17.17,0,0,0,.16.17h1.2A.17.17,0,0,0,3,27.27v-2H6a2.16,2.16,0,0,0,2.4-2v-.78A2.29,2.29,0,0,0,6,20.41m4.78,0H9.55a.17.17,0,0,0-.16.17v6.69a.17.17,0,0,0,.16.17h1.19a.18.18,0,0,0,.17-.17V20.58A.18.18,0,0,0,10.74,20.41Z"/><rect class="cls-2" x="32.72" y="25.34" width="2.14" height="2.1" rx="0.17" ry="0.17"/></g></g></svg>