<svg xmlns="http://www.w3.org/2000/svg" viewBox="0 0 81.7 63.66"><defs><style>.cls-1{fill:#e03160;fill-rule:evenodd;}.cls-2{fill:#fff;stroke:#fff;stroke-linecap:round;stroke-linejoin:round;stroke-width:3.4px;}.cls-3{fill:#506185;stroke:#506185;stroke-miterlimit:2.61;stroke-width:0.59px;}</style></defs><title>pagofacil</title><g id="Layer_2" data-name="Layer 2"><g id="pagofacil"><path class="cls-1" d="M14.17,11.33,57.47,0l7.6,28.1L81.7,23.8l-16,20.92-.17.05s-1.45.39-1.91.13.53-2.11,1-3.37,1.52-4.29,2.38-6a9.55,9.55,0,0,1,2.44-3.23c.33-.13.53-1.32.4-1.85s0-1.12-.53-1.12-.92,1.58-1.65,2.51A55.83,55.83,0,0,0,64,38.74a33.32,33.32,0,0,1-5.46,7.5c-1.46,1.14-.29-1.08-.15-1.74a19.36,19.36,0,0,1,1-2.51s1.19-1.32-.33-.86-2.91,2.71-2.91,2.71-3.76,4.69-5.08,5.61-1-.53-.73-2a8.23,8.23,0,0,1,1.92-3.17l.66-.26s-.4,1.45-.07,1.39a1.49,1.49,0,0,0,.79-1.19c.07-.53,0-2.71-.39-2.45a30.09,30.09,0,0,0-3.17,3c-.66.79-3,3.76-3.9,5.14s-.26-.72-.26-.72.33-1.19.4-1.72-.66-.26-.66-.26l-1,1s-.2.2-.2,1-1,1.91-2,2.51-.6-.53-.6-.53a11.94,11.94,0,0,1,1.32-3,4.22,4.22,0,0,1,2.64-2c.6-.27.33-.66.14-1s-.85-.1-1.06.06c-.45.36-7.8,6.5-8.12,7.59s.73.27.73.27l2.9-3.16.13-.14-.06.72A4.89,4.89,0,0,0,39.84,53c.21.85.86.66,1.32.63s1.38-1.36,2-1.82.66.06.86.46,1-.13,1-.13,2-2.71,2.44-3.3a1.46,1.46,0,0,1,1.06-.6,2.34,2.34,0,0,0,.4,1.85c.66,1.06,1.85.27,2.57-.2a30,30,0,0,0,3.57-4.09A2.21,2.21,0,0,1,56.34,45a14.46,14.46,0,0,0-.26,2.91c.13.59,1.12.72,2.31-.4a46.31,46.31,0,0,0,3.68-4.78,8.11,8.11,0,0,0-.45,3.2c.2,1.38,1.38,1,1.89.83A13.14,13.14,0,0,1,64.78,46L51.31,63.66,32.91,55.6c.59-1.76,2.63-7.84,2.71-8.06l4-1.26a15.7,15.7,0,0,1,.84-1.93c.44-.78-.61-.61-.61-.61a15.38,15.38,0,0,1-2.58,1.58c-1.08.56-.66-.62-.66-.62s1.58-3.23,2.1-4.55,2-1.31,3.24-1.83,9.54-3.15,10.94-3.68S54,32,54,32a19.24,19.24,0,0,1-2.63,1.13c-1.14.35-8.84,3.33-9.71,3.77s-.44-.35-.44-1-.44-.35-.44-.35a10.68,10.68,0,0,1-1.75.7c-.7.18-1.13,1.4-1.13,1.4s-6.92,3.15-8.4,4.9.87,1,.87,1,6.65-3.94,6.13-3-2.8,6.3-2.8,6.3-2.19,1.49-3,2.1-.44,1.84-.44,1.84,3.15-2.54,2.8-1.75S31.79,53.67,31.46,55L5.14,43.44l16.06-4.3-7-27.81ZM47.41,43a20.12,20.12,0,0,0,2-2.78c.25-.67,1.35-.76,1.26,0s-1.85,2.27-1.85,2.27-.84,1-1.26,1-.17-.5-.17-.5Zm12.26-3.5s-.56.08-.48-.87.32-.8.79-1.19.88-1,.88-.16a2.18,2.18,0,0,1-.48,1.66,1.61,1.61,0,0,1-.71.56Z"/><path class="cls-2" d="M1.7,26l9.68-2.51a16.51,16.51,0,0,1,4.43-.65,7,7,0,0,1,3.15.57,4,4,0,0,1,1.88,1.86,5,5,0,0,1,.42,1.2q1,5-7.18,7.15l-3.4.88,1.1,4.63L5.15,40.88,1.7,26Zm38.62-9.57h.06c.21-.15.44-.29.67-.43a16.34,16.34,0,0,1,4.38-1.76,17.41,17.41,0,0,1,2.42-.48,12.1,12.1,0,0,1,2.28-.06,8.31,8.31,0,0,1,3.74,1,5.91,5.91,0,0,1,2.39,2.49l0,.08-3.58.93v1.68l4.19-1.08L58.79,27,54.58,28.1,54,26.73A7.54,7.54,0,0,1,52.72,28v0h0a11.42,11.42,0,0,1-4.36,2.07,12.11,12.11,0,0,1-6.81,0,6.74,6.74,0,0,1-4.17-3.4l-.41-.87-.19-.81a7.52,7.52,0,0,1,1.36-6.44,9.39,9.39,0,0,1,2.21-2.14v0ZM9.14,27.76l.72,3.31,2.86-.74a3.36,3.36,0,0,0,1.85-1.08,1.36,1.36,0,0,0,.21-1.57c-.41-.81-1.63-.95-3.67-.43l-2,.51Zm13.94-7.28,6.76-1.75,10.69,13-6.59,1.71-1.27-1.77-6.62,1.72-.27,2.17L19.32,37.2l3.76-16.72Zm3.53,9.46,4.18-1.08-3.32-4.78-.86,5.86ZM66.78,8.73a12.89,12.89,0,0,1,7.46-.1,8.72,8.72,0,0,1,2.59,1.43,6,6,0,0,1,1,1,6.17,6.17,0,0,1,.78,1.23L79,13l.19.63a6.88,6.88,0,0,1-.2,4.22,8.76,8.76,0,0,1-3,3.92,15,15,0,0,1-5.57,2.63,12.93,12.93,0,0,1-7.55.09A7.2,7.2,0,0,1,58.57,21l-.19-.56-.23-.66-.2-.58a7.39,7.39,0,0,1,.3-4.13,8.75,8.75,0,0,1,3-3.69,15.06,15.06,0,0,1,5.58-2.62Zm.78,3.64q-4.32,1.13-2.49,6.52a3.5,3.5,0,0,0,4.47,1.88,3.71,3.71,0,0,0,3-2.62,5.34,5.34,0,0,0-.43-3.89,3.77,3.77,0,0,0-1.77-1.78,4.08,4.08,0,0,0-2.77-.11Z"/><path class="cls-3" d="M1.93,26l9.68-2.51A16.4,16.4,0,0,1,16,22.87a7,7,0,0,1,3.14.57,4,4,0,0,1,1.89,1.86,5.45,5.45,0,0,1,.41,1.2q1,5-7.18,7.15l-3.39.88L12,39.16,5.38,40.88,1.93,26Zm7.44,1.73.71,3.31L13,30.33a3.36,3.36,0,0,0,1.85-1.08,1.34,1.34,0,0,0,.2-1.57c-.4-.81-1.63-.95-3.67-.43l-2,.51Zm13.94-7.28,6.76-1.75,10.69,13-6.6,1.71-1.27-1.77-6.62,1.72L26,35.53,19.55,37.2l3.76-16.72Zm3.52,9.46L31,28.86l-3.32-4.78-.86,5.86Zm22-5.57-.76-3.21,9.06-2.35L59,27l-4.2,1.09-.63-1.37a9.82,9.82,0,0,1-5.62,3.39,12.15,12.15,0,0,1-6.82,0,6.79,6.79,0,0,1-4.17-3.4l-.41-.87L37,25.08a7.54,7.54,0,0,1,1.35-6.44A9.84,9.84,0,0,1,41.27,16a16.61,16.61,0,0,1,4.38-1.76,17.7,17.7,0,0,1,2.42-.48,12.21,12.21,0,0,1,2.29-.06,8.27,8.27,0,0,1,3.73,1,5.88,5.88,0,0,1,2.4,2.49l0,.08-6.29,1.63c-.8-1.12-2.08-1.45-3.86-1Q42,19.06,44,24.55c.86,1.72,2.44,2.27,4.74,1.68a5.5,5.5,0,0,0,2-1,2.33,2.33,0,0,0,1-1.58l-2.89.75ZM67,8.73a12.92,12.92,0,0,1,7.47-.1,9,9,0,0,1,2.59,1.43,6.91,6.91,0,0,1,1,1,7.22,7.22,0,0,1,.78,1.23l.37.73.19.63a7,7,0,0,1-.21,4.22,8.76,8.76,0,0,1-3,3.92,15,15,0,0,1-5.56,2.63,12.93,12.93,0,0,1-7.55.09A7.15,7.15,0,0,1,58.8,21l-.19-.56-.24-.66-.2-.58a7.48,7.48,0,0,1,.3-4.13,8.75,8.75,0,0,1,3-3.69A15.21,15.21,0,0,1,67,8.73Zm.79,3.64q-4.32,1.13-2.49,6.52a3.5,3.5,0,0,0,4.47,1.88,3.74,3.74,0,0,0,3-2.62,5.35,5.35,0,0,0-.44-3.89,3.69,3.69,0,0,0-1.77-1.78,4.06,4.06,0,0,0-2.76-.11Z"/></g></g></svg>