<svg id="Layer_1" data-name="Layer 1" xmlns="http://www.w3.org/2000/svg" viewBox="0 0 79.98 56.19"><defs><style>.cls-1{fill:#ad1f24;}.cls-1,.cls-2{fill-rule:evenodd;}.cls-2{fill:#1d417c;}</style></defs><title>pago-express</title><path class="cls-1" d="M17.84,38.86c0-1.56.81-1.58,2.25-1.58H54.16c2.23,0,1.76.29,1.75-2.06,0-.71.05-1,.54-1.34a2.73,2.73,0,0,1,1.65-.25c.49,0,4,2.8,4.45,3.14C64.05,38,65.66,39,66.88,40c3.2,2.59,7.58,5.57,10.83,8.18.42.34,1.89,1.24,2,1.79A1.31,1.31,0,0,1,79,51.27c-.85.52-4.91,3.7-5.42,4-1.38.81-6.61,4.84-8.81,6.37l-1,.82c-.48.28-.71.48-1.12.76s-.74.51-1.15.83l-2.15,1.58c-.44.28-.58.6-1.27.6-2.4,0-2.1-.6-2.09-3.63,0-.9.21-1-.67-1H22c-.88,0-3,.21-3.66-.3a1.07,1.07,0,0,1-.47-.9V38.86ZM55.73,24.39v3.25c0,.8.4.59-2,.59-6.93,0-42-.1-42.34,0a2.93,2.93,0,0,0-1.13.94s0,0,0,.06c-.15.18,0,.08-.21.18,0,1.19-.12,39,0,39.44,0,0,.1.18.1.19l.87.9a3.35,3.35,0,0,0,1.84.22H53.75c2.37,0,2-.21,2,.59a49.69,49.69,0,0,0,.07,5.64,1.42,1.42,0,0,0,.25.54,2.27,2.27,0,0,0,.78.79l.35.15a7.1,7.1,0,0,0,2.49.17c.18-.49,1.23-1.22,1.67-1.58l.67-.61c.64-.58,1.37-1,2-1.69,0,0,.19-.19.19-.2l.27-.22,6.82-5.88,0,0,6-5.17a12.18,12.18,0,0,0,.91-.87l1.55-1.31,0-.05a.12.12,0,0,0,0,0l3.32-2.88a10.91,10.91,0,0,0,.94-.83l4.66-4.1C90,51.43,90,51.3,90,49.57c-.33-.12-.52-.61-.91-.87l-.24-.16-.15-.15a.12.12,0,0,0-.05,0l-2.94-2.67,0-.05-1.07-1-.11-.09,0,0-.09-.11c-.3-.33-.38-.29-.69-.59l-.72-.66c-.22-.22-.33-.28-.53-.46L76.13,37l0,0,0-.05s0,0,0,0l-1.7-1.55-.1-.09-.11-.09L70.5,31.89c-1-.95-2.14-1.85-3.08-2.83l0,0-5.8-5.22a.12.12,0,0,1,0-.05l-1.76-1.59c-.15-.14-.13,0-.21-.28H57.38c-.11.27-.38.19-.62.36a2.17,2.17,0,0,0-.55.54c-.13.18-.1.08-.19.3l-.14.36A3.22,3.22,0,0,0,55.73,24.39Z" transform="translate(-10 -21.87)"/><path class="cls-2" d="M37.36,51.31c.35-.25,1.09-.59,1.22-1-.71-.05-1.13.08-1.75.08-.87,0-.83,0-1.37.39a8.5,8.5,0,0,1-2.18,1.54l.2-1.93c-3.08,0-2.57-.35-2.57,1.57,0,2.61.36,1.94-1.47,3.15-.88.59-3.77,2.78-4.52,2.93.46-.67.76-.89.82-1.61H23.3c0-.42.1-.41.35-.71s.17-.28.38-.5h2.58c.27-.48,1.13-1.27,1.15-1.79l-2.34,0c0-.42.31-.39.74-1.19l2.78,0a5.76,5.76,0,0,0,1.13-1.76H26c-1,0-.6,0-1.47,1.05L21,56.29c-.36.5-1.28,1.52-1.29,2.05,1,0,3.55.15,4.87,0l.41,0s0,0,0,0h2.26l2.67-2a2.36,2.36,0,0,1,1-.64c0,.47-.35,2-.28,2.38s.5.26,1.13.25c1.27,0,1,.12,1.44-.34l0-3.93Z" transform="translate(-10 -21.87)"/><path class="cls-1" d="M43.64,46.54c-.44.3-.26.45-1,.73-1.3.51-2.61-.47-2.6-2.4,0-2.86,2.56-3.16,3.37-1.71a3.66,3.66,0,0,0,1.83-.95,3,3,0,0,0-.86-1.11,3.1,3.1,0,0,0-1.29-.66c-5.26-1.23-6.72,6.05-3.16,8.26a4.26,4.26,0,0,0,3.21.35,3.61,3.61,0,0,0,2.08-1.73A5.71,5.71,0,0,0,45.74,44H41.82l0,1.85,1.87,0Z" transform="translate(-10 -21.87)"/><path class="cls-1" d="M50.11,42.38c1.28-.53,2.21.76,2.4,1.73A2.72,2.72,0,0,1,51.26,47c-2.54,1-3.56-3.62-1.15-4.62Zm4.42,3.08a4.45,4.45,0,0,0-.64-3.38c-2-3.07-6.4-2.12-7.17,1.83a4.79,4.79,0,0,0,.71,3.42C49.42,50.5,54,49.24,54.53,45.46Z" transform="translate(-10 -21.87)"/><path class="cls-2" d="M46.34,54.05c0-.5,0-.3.24-.6l.93-1.33h.54c1.48,0,.3,2-1.71,1.94ZM44.71,56c.12-.37.14-.36.54-.45l-.33,2.64c2.81.17,2.33.32,2.42-2.19,0-.1,0-.34,0-.4.06-.62,0-.26.19-.42s.45-.16.72-.26c1.41-.5,3.76-2.39,3.1-4.17a2.69,2.69,0,0,0-1-.3H46.68a27.36,27.36,0,0,0-2.17,2.89L41.68,57.2c-.28.4-.53.55-.56,1.1l1.93,0C43.51,57.55,44.35,56.67,44.71,56Z" transform="translate(-10 -21.87)"/><path class="cls-1" d="M33.34,45.71a.35.35,0,0,1-.07-.24s0-.13,0-.18l.3-1.1c0-.24.3-1.32.38-1.49.2.06.21-.16.4.6.06.26.09.52.18.81a7.83,7.83,0,0,1,.34,1.68,5.49,5.49,0,0,1-1.55-.08Zm-1.15,3.38c.27-.48.32-1.33.48-1.58h2.71A6.28,6.28,0,0,1,35.82,49h2L35.37,40.5l-2.5.11-.69,2.18c-.36.94-1.92,6-1.9,6.29Z" transform="translate(-10 -21.87)"/><path class="cls-2" d="M39.34,53.87c.07-.45,0-.26.25-.54l.85-1.19a1.92,1.92,0,0,1,1.26.17c0,1.16-1.14,1.58-2.36,1.56Zm-1.56,1.92a7.43,7.43,0,0,0,3.62-.64,6.75,6.75,0,0,0,2.93-3.37,1,1,0,0,0-.63-1.28,29.54,29.54,0,0,0-4.12,0c-.34.14-3.89,5.34-4.28,5.8a7.65,7.65,0,0,0-1.36,2h1.89A23.77,23.77,0,0,0,37.78,55.79Z" transform="translate(-10 -21.87)"/><path class="cls-2" d="M57.5,52.13a4.69,4.69,0,0,0,1.11-1.7H53.85a12.6,12.6,0,0,0-1.51,2c-.27.37-.45.58-.72,1l-2.5,3.51c-.33.43-.93.86-.95,1.45h4.1c.84,0,.68.11,1.44-.91.37-.5.51-.64.49-1H51.84c0-.55.36-.74.6-1.15l2.79,0c.39-.92,1-1.24,1.08-1.8L54,53.4c0-.38.14-.36.37-.68C55,51.9,54.78,52.16,57.5,52.13Z" transform="translate(-10 -21.87)"/><path class="cls-1" d="M27.1,42.53c1.27-.08,1.74.11,1.49,1.45-.42.41-.74.43-1.52.37l0-1.82Zm-.17,6.41s.05,0,.09-.23a2.81,2.81,0,0,0,0-.29c0-3-.33-1.88,1.63-2.15,2.57-.35,2.61-4.35.7-5.44-.58-.33-3.3-.23-4.21-.21l0,8.51a4.29,4.29,0,0,0,1-.05Z" transform="translate(-10 -21.87)"/><path class="cls-2" d="M62.92,52.2c.37-.12.51-.33,1-.71.29-.22.7-.52.77-.91-1.48-1.91-7.14.74-7,3.55a4.92,4.92,0,0,0,1.78,1,1.53,1.53,0,0,1-1.23,1.45c-1.16.36-1.23-.46-1.64-.92-.44.12-.7.5-1,.72-.87.6-1.4.73-.77,1.37,1.67,1.72,5.14-.14,6.34-1.61a2.93,2.93,0,0,0,1.06-2.26c-.45-.64-1.16-.6-1.75-1,0-.47.05-.51.34-.74s.12-.22.61-.35a1.37,1.37,0,0,1,1.43.39S62.9,52.18,62.92,52.2Z" transform="translate(-10 -21.87)"/><path class="cls-2" d="M69.52,52.24c.25-.19.58-.5.84-.72l.43-.37L71,51a.8.8,0,0,0,.18-.29c-.21-.4-.28-.36-.72-.54a4.86,4.86,0,0,0-3.1.24,7.42,7.42,0,0,0-1.92,1.43c-.43.42-1.3,1.18-1.17,2.13.1.71,1.16.79,1.74,1.18l-.1.68c-.07,0-2.1,2-2.66-.22-.4.07-.24.07-.59.33L61.12,57c0,2,4.31,1.92,7-1.4,1.64-2.05.24-2.16-1.12-2.78,0-1,1.11-1.22,1.87-1C69.28,51.93,69,52.06,69.52,52.24Z" transform="translate(-10 -21.87)"/></svg>