<svg id="Layer_1" data-name="Layer 1" xmlns="http://www.w3.org/2000/svg" xmlns:xlink="http://www.w3.org/1999/xlink" viewBox="0 0 78.42 61.14"><defs><style>.cls-1,.cls-8{fill:#1b171b;}.cls-1{stroke:#1b171b;stroke-width:0.99px;}.cls-1,.cls-2,.cls-3,.cls-4,.cls-5,.cls-6,.cls-7,.cls-9{fill-rule:evenodd;}.cls-2{fill:url(#linear-gradient);}.cls-3{fill:url(#linear-gradient-2);}.cls-4{fill:url(#linear-gradient-3);}.cls-5{fill:url(#linear-gradient-4);}.cls-6{fill:url(#linear-gradient-5);}.cls-7{fill:#fdd800;}.cls-10,.cls-9{fill:#df1f26;}.cls-11{fill:#231f20;}.cls-12{fill:#fff;}</style><linearGradient id="linear-gradient" x1="62.95" y1="64.32" x2="71.39" y2="61.84" gradientTransform="matrix(1, 0, 0, -1, -11.5, 83.17)" gradientUnits="userSpaceOnUse"><stop offset="0.45" stop-color="#ea9f22"/><stop offset="0.55" stop-color="#feda00"/></linearGradient><linearGradient id="linear-gradient-2" x1="52.71" y1="65.08" x2="57.67" y2="72.52" xlink:href="#linear-gradient"/><linearGradient id="linear-gradient-3" x1="55.38" y1="58.19" x2="60.84" y2="51" gradientTransform="matrix(1, 0, 0, -1, -11.5, 83.17)" gradientUnits="userSpaceOnUse"><stop offset="0.45" stop-color="#feda00"/><stop offset="0.55" stop-color="#ea9f22"/></linearGradient><linearGradient id="linear-gradient-4" x1="66.08" y1="49.5" x2="74.33" y2="52.26" xlink:href="#linear-gradient"/><linearGradient id="linear-gradient-5" x1="77.47" y1="56.88" x2="77.36" y2="65.57" gradientTransform="matrix(1, 0, 0, -1, -11.5, 83.17)" gradientUnits="userSpaceOnUse"><stop offset="0.46" stop-color="#ea9f22"/><stop offset="0.55" stop-color="#feda00"/></linearGradient></defs><title>pago-todos</title><polygon class="cls-1" points="52.42 15.53 61.32 1.78 60.72 18.14 76.55 22.36 60.8 26.85 61.68 43.21 52.54 29.62 37.26 35.51 47.36 22.62 37.03 9.9 52.42 15.53"/><polygon class="cls-2" points="52.87 14.96 61.77 1.22 61.17 17.58 77 21.8 61.25 26.29 62.13 42.65 52.99 29.06 37.71 34.95 47.81 22.06 37.49 9.34 52.87 14.96"/><polyline class="cls-3" points="47.81 22.06 37.48 9.34 52.86 14.97"/><polyline class="cls-4" points="47.81 22.05 37.71 34.95 52.99 29.06 55.27 21.88"/><polyline class="cls-5" points="61.25 26.29 62.13 42.65 52.99 29.06 54.83 22.07"/><polyline class="cls-6" points="61.18 17.58 77 21.8 61.25 26.29 54.83 21.94"/><polygon class="cls-7" points="60.87 38.89 53.87 28.47 53.4 27.77 52.61 28.07 40.9 32.59 48.64 22.71 49.16 22.04 48.63 21.39 40.71 11.65 52.51 15.96 53.3 16.24 53.75 15.54 60.58 5 60.12 17.55 60.09 18.39 60.9 18.6 73.03 21.83 60.96 25.28 60.15 25.51 60.2 26.35 60.87 38.89"/><path class="cls-8" d="M53.35,48.2l-.85-4.48H49.34l-3.76,6.65L45.2,51h2.72l.42-.82H51l.11.84h2.72Zm-3.3.21h-.77l.77-1.5.44-.85.33,2.34Z" transform="translate(-11.5 -18.83)"/><path class="cls-8" d="M41.82,45.29c.67,0,1.16.23,1.16.93h2.9A2.18,2.18,0,0,0,44.1,43.7l-.19-.05a6.91,6.91,0,0,0-5.1.68,5.15,5.15,0,0,0-1.76,5.21c.69,2.27,5.15,2.19,6.6.83h0l.16.66h1.08l.6-3.08.21-1.09H42.07l-.3,1.64h1v0a1.9,1.9,0,0,1-2.22.82c-.91-.23-1.16-1.05-.84-2.33A2,2,0,0,1,41.82,45.29Z" transform="translate(-11.5 -18.83)"/><path class="cls-8" d="M35,43.72H31.85l-3.33,5.89L27.71,51h2.72l.43-.82h2.7l.11.84H36.4Zm-2.47,4.69h-.77l.77-1.55L33,46l.31,2.46Z" transform="translate(-11.5 -18.83)"/><path class="cls-8" d="M28.58,43.94a2.57,2.57,0,0,0-1.08-.23H22L20.59,51h2.56l.43-2.28h3a2.7,2.7,0,0,0,1.94-.9,3.16,3.16,0,0,0,.75-1.66C29.52,44.91,29.19,44.25,28.58,43.94Zm-1.95,2.25a1,1,0,0,1-.13.39.88.88,0,0,1-.79.41H24l.28-1.54H26a.77.77,0,0,1,.56.17A.62.62,0,0,1,26.63,46.19Z" transform="translate(-11.5 -18.83)"/><path class="cls-8" d="M73,52.31c-.42,0-.83,0-1.23,0-5.09.32-8.32,2.73-9.28,8.41,0,.24-.08.5-.11.75a9.12,9.12,0,0,0,.11,2.95c.67,2.91,3.27,4.34,8.83,4.11l.45,0c5.62-.38,8.37-3.14,9.29-8.19C82.07,54.23,79.06,52.16,73,52.31Zm.6,11.58a4,4,0,0,1-1.83.8,3.3,3.3,0,0,1-3.19-.91c-.88-1.1-.66-3.73.42-5.57a4.22,4.22,0,0,1,2.77-2,4.62,4.62,0,0,1,1-.08A2.53,2.53,0,0,1,75.45,59C75.35,61.33,74.65,62.94,73.55,63.89Z" transform="translate(-11.5 -18.83)"/><path class="cls-8" d="M62.46,56.19c-.65-2.75-3.07-3.5-7-3.33h-9l-.89,4.75-1.6,8.54-.36,1.9H54.2c4.14,0,7.23-2.11,8.24-7.91l0-.14A10.05,10.05,0,0,0,62.46,56.19Zm-5.58,3.86c-.35,2.22-1.29,3.89-3.6,4.15l-.31,0H49.63l.35-1.9L51,56.7h3.33C56.27,56.81,57.2,57.8,56.88,60.05Z" transform="translate(-11.5 -18.83)"/><polygon class="cls-8" points="14.94 34.02 0.76 34.03 0.07 37.84 5 37.84 2.85 49.21 8.19 49.22 10.32 37.84 14.94 37.84 15.31 37.84 16 34.02 14.94 34.02"/><path class="cls-8" d="M44,55.81c-.93-2.64-3.68-3.61-7.91-3.5-.41,0-.82,0-1.21,0a13.81,13.81,0,0,0-2.32.32,8.72,8.72,0,0,0-4,2,8.41,8.41,0,0,0-2.07,3,14.32,14.32,0,0,0-1,3.85,6.51,6.51,0,0,0,1,4.85,5,5,0,0,0,2.07,1.5,11.54,11.54,0,0,0,4,.72c.58,0,1.2,0,1.86,0l.47,0c5.33-.36,8.07-2.88,9.12-7.46l.15-.73A9,9,0,0,0,44,55.81Zm-7.31,8.08a3.85,3.85,0,0,1-1.8.79,4.15,4.15,0,0,1-2.32-.22,2,2,0,0,1-.88-.69c-.88-1.1-.54-4,.54-5.79a4.69,4.69,0,0,1,.34-.49,3.6,3.6,0,0,1,2.32-1.29,5.13,5.13,0,0,1,1-.05A2.53,2.53,0,0,1,38.58,59C38.48,61.34,37.77,62.94,36.67,63.89Z" transform="translate(-11.5 -18.83)"/><path class="cls-9" d="M53.56,48l-.85-4.48H49.55l-3.76,6.65-.38.67h2.72l.42-.82h2.7l.11.84h2.72Zm-3.31.21h-.77l.77-1.5.44-.85L51,48.25Z" transform="translate(-11.5 -18.83)"/><path class="cls-9" d="M42,45.12c.67,0,1.16.23,1.16.93h2.9a2.18,2.18,0,0,0-1.78-2.54l-.19-.05a6.91,6.91,0,0,0-5.1.68,5.15,5.15,0,0,0-1.76,5.21c.69,2.27,5.15,2.19,6.6.83h0l.16.66h1.08l.6-3.08.21-1.09H42.26L42,48.35h1v0a1.9,1.9,0,0,1-2.22.82c-.91-.23-1.16-1.05-.84-2.33A2,2,0,0,1,42,45.12Z" transform="translate(-11.5 -18.83)"/><path class="cls-9" d="M35.21,43.56H32.05l-3.33,5.89-.81,1.43h2.72l.43-.82h2.7l.11.84H36.6Zm-2.46,4.69H32l.77-1.55.46-.92.31,2.46Z" transform="translate(-11.5 -18.83)"/><path class="cls-9" d="M28.78,43.78a2.57,2.57,0,0,0-1.08-.23H22.17L20.8,50.87h2.56l.43-2.28h3a2.7,2.7,0,0,0,1.94-.9A3.16,3.16,0,0,0,29.52,46C29.72,44.75,29.4,44.09,28.78,43.78Zm-2,2.24a1.06,1.06,0,0,1-.13.39.88.88,0,0,1-.79.41H24.14l.28-1.54h1.72a.77.77,0,0,1,.56.17A.58.58,0,0,1,26.83,46Z" transform="translate(-11.5 -18.83)"/><path class="cls-9" d="M73.16,52.15c-.42,0-.83,0-1.23,0-5.09.32-8.32,2.73-9.28,8.41,0,.24-.08.49-.11.75a9.12,9.12,0,0,0,.11,2.95c.67,2.91,3.27,4.34,8.83,4.11l.45,0c5.62-.38,8.37-3.14,9.29-8.19C82.27,54.07,79.26,52,73.16,52.15Zm.59,11.58a4,4,0,0,1-1.83.8,3.3,3.3,0,0,1-3.19-.91c-.88-1.1-.66-3.73.42-5.57a4.22,4.22,0,0,1,2.77-2,4.62,4.62,0,0,1,1-.08,2.53,2.53,0,0,1,2.74,2.84A6.55,6.55,0,0,1,73.75,63.73Z" transform="translate(-11.5 -18.83)"/><path class="cls-9" d="M62.67,56c-.65-2.75-3.07-3.5-7-3.33h-9l-.89,4.75L44.12,66l-.36,1.9H54.41c4.14,0,7.23-2.11,8.25-7.91l0-.14A10.49,10.49,0,0,0,62.67,56Zm-5.58,3.85c-.34,2.22-1.29,3.89-3.6,4.15l-.31,0H49.83l.35-1.9,1-5.64h3.33C56.47,56.64,57.41,57.64,57.09,59.88Z" transform="translate(-11.5 -18.83)"/><polygon class="cls-9" points="15.15 33.86 0.97 33.86 0.27 37.67 5.2 37.67 3.06 49.05 8.39 49.06 10.53 37.68 15.15 37.68 15.51 37.68 16.2 33.86 15.15 33.86"/><path class="cls-9" d="M44.19,55.64c-.93-2.64-3.68-3.61-7.91-3.5-.41,0-.82,0-1.21,0a13.81,13.81,0,0,0-2.32.32,8.72,8.72,0,0,0-4,2,8.41,8.41,0,0,0-2.07,3,14.32,14.32,0,0,0-1,3.85,6.54,6.54,0,0,0,1,4.86,5,5,0,0,0,2.07,1.5,11.54,11.54,0,0,0,4,.72c.58,0,1.2,0,1.86,0l.47,0c5.33-.36,8.07-2.88,9.12-7.46l.15-.73A9.32,9.32,0,0,0,44.19,55.64Zm-7.31,8.09a3.85,3.85,0,0,1-1.8.79,4.15,4.15,0,0,1-2.32-.22,2,2,0,0,1-.88-.69c-.88-1.1-.54-4,.54-5.79A3.74,3.74,0,0,1,35.09,56a5.13,5.13,0,0,1,1,0,2.53,2.53,0,0,1,2.74,2.84A6.72,6.72,0,0,1,36.88,63.73Z" transform="translate(-11.5 -18.83)"/><path class="cls-8" d="M12.65,71.5h4.2a2.58,2.58,0,0,1,2,.65A2.18,2.18,0,0,1,19.24,74a2.93,2.93,0,0,1-1,1.94,3.64,3.64,0,0,1-2.37.7H14.47l-.42,3H11.5Zm2,3.49h.62a1.74,1.74,0,0,0,1.06-.25,1,1,0,0,0,.39-.65.77.77,0,0,0-.17-.65,1.2,1.2,0,0,0-.93-.27H15Z" transform="translate(-11.5 -18.83)"/><path class="cls-8" d="M24,78.33H21.14l-.59,1.35H18l4.22-8.18H25l1.93,8.18H24.23Zm-.28-1.77-.49-2.94-1.31,2.94Z" transform="translate(-11.5 -18.83)"/><path class="cls-8" d="M27.71,79.68l1.15-8.18h4.21a5.92,5.92,0,0,1,1.76.2,1.55,1.55,0,0,1,.89.74,2,2,0,0,1,.19,1.33,2.59,2.59,0,0,1-.45,1.17,2.7,2.7,0,0,1-.91.8,3.34,3.34,0,0,1-.93.32,2.23,2.23,0,0,1,.62.3,2.09,2.09,0,0,1,.34.43,2.27,2.27,0,0,1,.28.51l.89,2.37H32.89l-1-2.5a1.68,1.68,0,0,0-.37-.63.91.91,0,0,0-.59-.19h-.22l-.46,3.32H27.71Zm3.23-4.86H32a4.83,4.83,0,0,0,.69-.11.8.8,0,0,0,.45-.26.9.9,0,0,0,.23-.47.66.66,0,0,0-.17-.61,1.39,1.39,0,0,0-.91-.21H31.18Z" transform="translate(-11.5 -18.83)"/><path class="cls-8" d="M41.79,78.33H38.92l-.59,1.35H35.75L40,71.5h2.76l1.93,8.18H42Zm-.28-1.77L41,73.62l-1.31,2.94Z" transform="translate(-11.5 -18.83)"/><path class="cls-8" d="M45.94,71.65h7l-.26,2H50.3l-.8,6.15H47.21l.8-6.15H45.67Z" transform="translate(-11.5 -18.83)"/><path class="cls-8" d="M52.76,75.74a5.06,5.06,0,0,1,1.42-3.11,4.1,4.1,0,0,1,3-1.11,3.23,3.23,0,0,1,2.71,1.09,4,4,0,0,1,.6,3.07A6,6,0,0,1,59.71,78a4,4,0,0,1-1.45,1.43,4.22,4.22,0,0,1-2.13.51,4.06,4.06,0,0,1-2-.44A2.72,2.72,0,0,1,53,78.14,4.83,4.83,0,0,1,52.76,75.74Zm2.29,0a2.69,2.69,0,0,0,.19,1.78,1.18,1.18,0,0,0,1.06.54,1.55,1.55,0,0,0,1.21-.53,3.59,3.59,0,0,0,.65-1.9A2.53,2.53,0,0,0,58,74a1.21,1.21,0,0,0-1.08-.53A1.53,1.53,0,0,0,55.7,74,3.3,3.3,0,0,0,55.05,75.75Z" transform="translate(-11.5 -18.83)"/><path class="cls-8" d="M62.24,71.65h3.4a3.52,3.52,0,0,1,1.59.3,2.22,2.22,0,0,1,.91.86,3.32,3.32,0,0,1,.42,1.31,6.46,6.46,0,0,1,0,1.58,6.2,6.2,0,0,1-.54,2,4.14,4.14,0,0,1-.91,1.21,2.87,2.87,0,0,1-1.12.65,5.1,5.1,0,0,1-1.39.22h-3.4Zm2.05,1.85L63.71,78h.56a2.22,2.22,0,0,0,1-.18,1.46,1.46,0,0,0,.56-.61,4.68,4.68,0,0,0,.36-1.42A2.85,2.85,0,0,0,66.08,74a1.35,1.35,0,0,0-1.21-.48h-.58Z" transform="translate(-11.5 -18.83)"/><path class="cls-8" d="M69.44,75.74a5.06,5.06,0,0,1,1.42-3.11,4.1,4.1,0,0,1,3-1.11,3.23,3.23,0,0,1,2.71,1.09,4,4,0,0,1,.6,3.07A6,6,0,0,1,76.39,78a4,4,0,0,1-1.45,1.43,4.22,4.22,0,0,1-2.13.51,4.06,4.06,0,0,1-2-.44,2.72,2.72,0,0,1-1.15-1.39A4.83,4.83,0,0,1,69.44,75.74Zm2.29,0a2.69,2.69,0,0,0,.19,1.78,1.18,1.18,0,0,0,1.07.54,1.55,1.55,0,0,0,1.21-.53,3.59,3.59,0,0,0,.65-1.9,2.53,2.53,0,0,0-.2-1.68,1.21,1.21,0,0,0-1.08-.53,1.53,1.53,0,0,0-1.18.54A3.22,3.22,0,0,0,71.73,75.75Z" transform="translate(-11.5 -18.83)"/><path class="cls-8" d="M78,77.81h2l-.26,2h-2Zm.73-6.16H81l-.24,1.86-.91,3.74H78.45l.07-3.74Z" transform="translate(-11.5 -18.83)"/><path class="cls-10" d="M12.77,71.42H17a2.54,2.54,0,0,1,2,.65,2.18,2.18,0,0,1,.42,1.86,2.93,2.93,0,0,1-1,1.94,3.58,3.58,0,0,1-2.37.7H14.58l-.42,3H11.62Zm2.05,3.49h.62a1.74,1.74,0,0,0,1.06-.25,1,1,0,0,0,.39-.65.77.77,0,0,0-.17-.65,1.2,1.2,0,0,0-.93-.27h-.72Z" transform="translate(-11.5 -18.83)"/><path class="cls-10" d="M24.14,78.25H21.27l-.59,1.35H18.1l4.22-8.18h2.76L27,79.6H24.36Zm-.28-1.77-.49-2.94-1.31,2.94Z" transform="translate(-11.5 -18.83)"/><path class="cls-10" d="M27.84,79.6,29,71.42H33.2a5.92,5.92,0,0,1,1.76.2,1.55,1.55,0,0,1,.89.74A2,2,0,0,1,36,73.69a2.49,2.49,0,0,1-.46,1.17,2.7,2.7,0,0,1-.91.8,3.34,3.34,0,0,1-.93.32,2.23,2.23,0,0,1,.62.3,2.09,2.09,0,0,1,.34.43,2.27,2.27,0,0,1,.28.51l.89,2.37H33l-1-2.5a1.68,1.68,0,0,0-.37-.63.91.91,0,0,0-.59-.19h-.22l-.46,3.32H27.84Zm3.22-4.86h1.07a4.56,4.56,0,0,0,.68-.11.8.8,0,0,0,.45-.26.9.9,0,0,0,.23-.47.66.66,0,0,0-.17-.61,1.39,1.39,0,0,0-.91-.21H31.3Z" transform="translate(-11.5 -18.83)"/><path class="cls-10" d="M41.92,78.25H39.05l-.59,1.35H35.88l4.22-8.18h2.76l1.93,8.18H42.14Zm-.28-1.77-.49-2.94-1.31,2.94Z" transform="translate(-11.5 -18.83)"/><path class="cls-10" d="M46.07,71.53h7l-.26,2H50.43l-.8,6.15H47.34l.8-6.15H45.8Z" transform="translate(-11.5 -18.83)"/><path class="cls-10" d="M52.89,75.62a5.06,5.06,0,0,1,1.42-3.11,4.1,4.1,0,0,1,3-1.11A3.23,3.23,0,0,1,60,72.49a4,4,0,0,1,.6,3.07,6,6,0,0,1-.74,2.35,4,4,0,0,1-1.45,1.43,4.22,4.22,0,0,1-2.13.51,4.06,4.06,0,0,1-2-.44A2.72,2.72,0,0,1,53.09,78,4.83,4.83,0,0,1,52.89,75.62Zm2.29,0a2.69,2.69,0,0,0,.19,1.78,1.18,1.18,0,0,0,1.06.54,1.55,1.55,0,0,0,1.21-.53,3.59,3.59,0,0,0,.65-1.9,2.53,2.53,0,0,0-.2-1.68A1.21,1.21,0,0,0,57,73.31a1.53,1.53,0,0,0-1.18.54A3.3,3.3,0,0,0,55.18,75.63Z" transform="translate(-11.5 -18.83)"/><path class="cls-10" d="M62.37,71.53h3.4a3.52,3.52,0,0,1,1.59.3,2.22,2.22,0,0,1,.91.86A3.32,3.32,0,0,1,68.69,74a6.46,6.46,0,0,1,0,1.58,6.2,6.2,0,0,1-.54,2,4.14,4.14,0,0,1-.91,1.21,2.87,2.87,0,0,1-1.12.65,5.1,5.1,0,0,1-1.39.22h-3.4Zm2.05,1.85-.58,4.46h.56a2.22,2.22,0,0,0,1-.18,1.38,1.38,0,0,0,.55-.61,4.68,4.68,0,0,0,.36-1.42,2.86,2.86,0,0,0-.15-1.78A1.35,1.35,0,0,0,65,73.37h-.57Z" transform="translate(-11.5 -18.83)"/><path class="cls-10" d="M69.57,75.62A5.06,5.06,0,0,1,71,72.51a4.1,4.1,0,0,1,3-1.11,3.23,3.23,0,0,1,2.71,1.09,4,4,0,0,1,.6,3.07,6,6,0,0,1-.74,2.35,4,4,0,0,1-1.45,1.43,4.22,4.22,0,0,1-2.13.51,4.06,4.06,0,0,1-2-.44A2.72,2.72,0,0,1,69.77,78,4.83,4.83,0,0,1,69.57,75.62Zm2.29,0a2.69,2.69,0,0,0,.19,1.78,1.18,1.18,0,0,0,1.06.54,1.55,1.55,0,0,0,1.21-.53,3.59,3.59,0,0,0,.65-1.9,2.53,2.53,0,0,0-.2-1.68,1.21,1.21,0,0,0-1.08-.53,1.53,1.53,0,0,0-1.18.54A3.3,3.3,0,0,0,71.86,75.63Z" transform="translate(-11.5 -18.83)"/><path class="cls-10" d="M78.16,77.69h2l-.26,2h-2Zm.73-6.16h2.2l-.24,1.86-.91,3.74H78.58l.07-3.74Z" transform="translate(-11.5 -18.83)"/><path class="cls-11" d="M69.81,40.61a7.75,7.75,0,0,0-1.39-1.46l1-2.49a.94.94,0,0,1,.37.64,2.63,2.63,0,0,1-.13.9l1.68.65a2.68,2.68,0,0,0-.26-2.64,3.09,3.09,0,0,0-1.11-1l.34-.9L69,33.83l-.35.89A3.12,3.12,0,0,0,68,34.6a2.54,2.54,0,0,0-1.25.24,2.73,2.73,0,0,0-.87.62,3,3,0,0,0-.61,1,2.59,2.59,0,0,0-.09,1.73,3.51,3.51,0,0,0,1.34,1.66l.15.12-1.06,2.74a1.18,1.18,0,0,1-.44-.71,3.27,3.27,0,0,1,.17-1.18l-1.72-.67a3,3,0,0,0,.1,2.92A4.16,4.16,0,0,0,65,44.16l-.5,1.29.35.13v0l.62.24v0l.33.13.5-1.3a3.81,3.81,0,0,0,1.57.05A2.73,2.73,0,0,0,70,42.82,2.48,2.48,0,0,0,69.81,40.61ZM67,37.9a1.1,1.1,0,0,1-.07-1,1.2,1.2,0,0,1,.57-.67.93.93,0,0,1,.58-.07l-.81,2.07A1.45,1.45,0,0,1,67,37.9Zm.29,5.3a1.16,1.16,0,0,1-.46,0l.89-2.29a1.71,1.71,0,0,1,.32.41,1.15,1.15,0,0,1,0,1A1.27,1.27,0,0,1,67.31,43.2Z" transform="translate(-11.5 -18.83)"/><path class="cls-12" d="M70.2,40.42A7.45,7.45,0,0,0,68.81,39l1-2.49a.93.93,0,0,1,.37.65A2.4,2.4,0,0,1,70,38l1.68.65A2.68,2.68,0,0,0,71.44,36a3.11,3.11,0,0,0-1.12-1l.36-.9-1.3-.5-.34.89a3.85,3.85,0,0,0-.69-.12,2.56,2.56,0,0,0-1.25.24,2.73,2.73,0,0,0-.87.62,2.86,2.86,0,0,0-.61,1,2.54,2.54,0,0,0-.1,1.73,3.54,3.54,0,0,0,1.33,1.66l.15.1-1.06,2.74a1.17,1.17,0,0,1-.45-.71,3.25,3.25,0,0,1,.17-1.18L63.94,40a3,3,0,0,0,.1,2.92A4.28,4.28,0,0,0,65.37,44l-.5,1.29.35.13v0l.61.24v0l.33.13.5-1.3a3.81,3.81,0,0,0,1.57.05,2.72,2.72,0,0,0,2.08-1.88A2.4,2.4,0,0,0,70.2,40.42Zm-2.79-2.71a1,1,0,0,1-.07-1,1.1,1.1,0,0,1,.57-.67,1,1,0,0,1,.58-.07L67.68,38A2.19,2.19,0,0,1,67.41,37.71Zm.28,5.3a1.36,1.36,0,0,1-.46,0l.89-2.3a1.71,1.71,0,0,1,.32.41,1.17,1.17,0,0,1,0,1A1.27,1.27,0,0,1,67.69,43Z" transform="translate(-11.5 -18.83)"/></svg>