<svg xmlns="http://www.w3.org/2000/svg" viewBox="0 0 80 79.18"><defs><style>.cls-1{fill:#009ade;}.cls-2{fill:#002f87;}.cls-3{fill:#002169;}</style></defs><title>Paypal</title><g id="Layer_2" data-name="Layer 2"><g id="Paypal"><path class="cls-1" d="M54,57.87H47.76a.85.85,0,0,0-.85.73L44.39,74.55a.51.51,0,0,0,.51.6h3.19a.6.6,0,0,0,.6-.51l.72-4.52a.85.85,0,0,1,.85-.73h2c4.1,0,6.46-2,7.08-5.92a4.78,4.78,0,0,0-.79-4C57.63,58.42,56.06,57.87,54,57.87Zm.72,5.82c-.34,2.24-2.05,2.24-3.7,2.24h-.93l.65-4.17a.53.53,0,0,1,.52-.44h.43c1.12,0,2.18,0,2.73.64A2.07,2.07,0,0,1,54.7,63.69Z"/><path class="cls-2" d="M9.6,57.87H3.38a.87.87,0,0,0-.86.73L0,74.55a.51.51,0,0,0,.51.6h3a.85.85,0,0,0,.85-.73L5,70.12a.87.87,0,0,1,.86-.73h2c4.09,0,6.46-2,7.08-5.92a4.75,4.75,0,0,0-.8-4C13.25,58.42,11.68,57.87,9.6,57.87Zm.72,5.82c-.34,2.24-2.05,2.24-3.7,2.24H5.68l.66-4.17a.52.52,0,0,1,.51-.44h.43c1.13,0,2.19,0,2.74.64A2.11,2.11,0,0,1,10.32,63.69Z"/><path class="cls-2" d="M28.2,63.62h-3a.52.52,0,0,0-.51.44l-.13.83-.21-.3c-.65-.93-2.09-1.25-3.52-1.25a6.85,6.85,0,0,0-6.65,6,5.59,5.59,0,0,0,1.11,4.57,4.64,4.64,0,0,0,3.75,1.52,5.69,5.69,0,0,0,4.12-1.71l-.13.83a.51.51,0,0,0,.51.6h2.69a.87.87,0,0,0,.85-.73l1.61-10.2A.52.52,0,0,0,28.2,63.62Zm-4.15,5.8a3.32,3.32,0,0,1-3.37,2.85,2.31,2.31,0,0,1-2.46-2.9,3.33,3.33,0,0,1,3.33-2.87,2.48,2.48,0,0,1,2,.82A2.54,2.54,0,0,1,24.05,69.42Z"/><path class="cls-1" d="M72.58,63.62h-3a.52.52,0,0,0-.51.44l-.13.83-.21-.3c-.64-.93-2.08-1.25-3.52-1.25a6.86,6.86,0,0,0-6.65,6,5.59,5.59,0,0,0,1.11,4.57,4.67,4.67,0,0,0,3.75,1.52,5.7,5.7,0,0,0,4.13-1.71l-.14.83a.52.52,0,0,0,.52.6h2.68a.85.85,0,0,0,.85-.73l1.61-10.2A.52.52,0,0,0,72.58,63.62Zm-4.15,5.8a3.32,3.32,0,0,1-3.36,2.85,2.32,2.32,0,0,1-2.47-2.9,3.34,3.34,0,0,1,3.34-2.87,2.48,2.48,0,0,1,2,.82A2.54,2.54,0,0,1,68.43,69.42Z"/><path class="cls-2" d="M44.07,63.62h-3a.86.86,0,0,0-.71.38l-4.13,6.09-1.75-5.85a.87.87,0,0,0-.83-.62H30.7a.52.52,0,0,0-.49.69L33.51,74l-3.1,4.38a.51.51,0,0,0,.42.81h3a.86.86,0,0,0,.72-.37l10-14.37A.53.53,0,0,0,44.07,63.62Z"/><path class="cls-1" d="M76.09,58.3,73.54,74.55a.51.51,0,0,0,.51.6h2.57a.87.87,0,0,0,.86-.73l2.51-16a.51.51,0,0,0-.51-.6H76.61A.52.52,0,0,0,76.09,58.3Z"/><path class="cls-1" d="M59.4,13.12c.63-4,0-6.75-2.17-9.23C54.83,1.17,50.51,0,45,0h-16a2.3,2.3,0,0,0-2.27,1.94L20,44.31a1.37,1.37,0,0,0,1.36,1.59h9.9l-.68,4.34a1.21,1.21,0,0,0,1.19,1.39h8.35a2,2,0,0,0,2-1.69l.08-.43,1.57-10,.1-.55a2,2,0,0,1,2-1.7h1.24c8.09,0,14.43-3.29,16.28-12.79.77-4,.37-7.29-1.67-9.62a7.94,7.94,0,0,0-2.29-1.76h0"/><path class="cls-3" d="M59.4,13.12c.63-4,0-6.75-2.17-9.23C54.83,1.17,50.51,0,45,0h-16a2.3,2.3,0,0,0-2.27,1.94L20,44.31a1.37,1.37,0,0,0,1.36,1.59h9.9l2.49-15.78-.07.5a2.28,2.28,0,0,1,2.26-1.94h4.7c9.25,0,16.49-3.76,18.61-14.62.06-.32.11-.64.16-.94"/><path class="cls-2" d="M36.42,13.17a2,2,0,0,1,1.11-1.5,2.13,2.13,0,0,1,.87-.19H51a25.62,25.62,0,0,1,4.15.3c.36.06.72.12,1.06.2l1,.25.47.15a10.58,10.58,0,0,1,1.74.74c.63-4,0-6.75-2.17-9.23C54.83,1.17,50.51,0,45,0h-16a2.3,2.3,0,0,0-2.27,1.94L20,44.31a1.37,1.37,0,0,0,1.36,1.59h9.91l2.48-15.78Z"/></g></g></svg>