<svg xmlns="http://www.w3.org/2000/svg" xmlns:xlink="http://www.w3.org/1999/xlink" viewBox="0 0 79.95 20.46"><defs><style>.cls-1{fill:none;}.cls-2{clip-path:url(#clip-path);}.cls-3{fill:#188fcc;}.cls-4{fill:#c32127;}</style><clipPath id="clip-path" transform="translate(0 0)"><rect class="cls-1" width="80" height="20.46"/></clipPath></defs><title>paysafecard</title><g id="Layer_2" data-name="Layer 2"><g id="paysafecard"><g class="cls-2"><path class="cls-3" d="M10.41,5.7a2.21,2.21,0,0,1,.41-1.39A1.78,1.78,0,0,1,11.34,4,1.53,1.53,0,0,1,12,3.83h2.49c1.09,0,1.65.61,1.67,1.8V9.3a1.53,1.53,0,0,1-.5,1.1,1.58,1.58,0,0,1-1.13.5H12.15v2.64H10.41Zm4,.35c0-.28-.14-.42-.4-.43H12.65a.49.49,0,0,0-.5.53V8.58a.49.49,0,0,0,.55.53h1.24A.43.43,0,0,0,14.27,9a.36.36,0,0,0,.13-.28Z" transform="translate(0 0)"/><path class="cls-3" d="M21.54,6c0-.27-.15-.4-.47-.39h-3.5V3.83h3.94A1.55,1.55,0,0,1,23.26,5.5V9.24a1.76,1.76,0,0,1-.43,1.18,1.48,1.48,0,0,1-1.14.48H19.31c-1.16,0-1.75-.54-1.77-1.6V7.86a1.51,1.51,0,0,1,1.68-1.68h2.32ZM19.28,8.76a.28.28,0,0,0,.14.24.45.45,0,0,0,.31.11h1.34c.3,0,.46-.12.47-.35v-.5c0-.28-.16-.41-.48-.41H19.73a.64.64,0,0,0-.36.08.59.59,0,0,0-.09.38Z" transform="translate(0 0)"/><path class="cls-3" d="M28.15,11.76a.58.58,0,0,0,.36-.15.38.38,0,0,0,.14-.29V10.9H26.42a1.9,1.9,0,0,1-.7-.11,1.71,1.71,0,0,1-.55-.37,1.81,1.81,0,0,1-.37-.59,1.87,1.87,0,0,1-.12-.72V3.83h1.74V8.54c0,.38.15.57.46.57h1.23A.52.52,0,0,0,28.49,9a.38.38,0,0,0,.16-.29V3.83h1.72v7.79A2.24,2.24,0,0,1,29.93,13a1.5,1.5,0,0,1-1.19.53H24.68V11.76Z" transform="translate(0 0)"/><path class="cls-3" d="M31.74,9.11h3.1c.28,0,.43-.12.44-.34V8.61a.53.53,0,0,0,0-.16.31.31,0,0,0-.26-.2H33.44a1.7,1.7,0,0,1-1.17-.47,1.34,1.34,0,0,1-.51-1V5.42c0-1,.58-1.57,1.7-1.59h3.59V5.62H34q-.54,0-.54.33v.17c0,.23.18.34.55.34h1.53a1.46,1.46,0,0,1,1.05.47A1.6,1.6,0,0,1,37.05,8v1.3a1.71,1.71,0,0,1-.5,1.1,1.41,1.41,0,0,1-.48.37,1.86,1.86,0,0,1-.69.1H31.74Z" transform="translate(0 0)"/><path class="cls-3" d="M42.29,6c0-.27-.15-.4-.47-.39h-3.5V3.83h4A1.55,1.55,0,0,1,44,5.5V9.24a1.77,1.77,0,0,1-.44,1.18,1.46,1.46,0,0,1-1.13.48H40.06c-1.16,0-1.75-.54-1.77-1.6V7.86A1.51,1.51,0,0,1,40,6.18h2.31ZM40,8.76a.28.28,0,0,0,.14.24.48.48,0,0,0,.32.11h1.34c.3,0,.45-.12.46-.35v-.5c0-.28-.16-.41-.48-.41H40.49a.59.59,0,0,0-.36.08.58.58,0,0,0-.1.38Z" transform="translate(0 0)"/><path class="cls-3" d="M45.43,2.82A1.48,1.48,0,0,1,46,1.66,2,2,0,0,1,47.3,1.2h1.11V2.93h-.67c-.37,0-.56.18-.57.52v.38h1.24V5.62H47.17V10.9H45.43Z" transform="translate(0 0)"/><path class="cls-3" d="M51.2,8.5v.11a.51.51,0,0,0,.11.34.25.25,0,0,0,.23.16h3.57V10.9h-3.8a2.87,2.87,0,0,1-.81-.1,1.56,1.56,0,0,1-.56-.34,1.42,1.42,0,0,1-.38-.58,2.57,2.57,0,0,1-.11-.82V5.48a1.5,1.5,0,0,1,1.69-1.65h2.34a1.52,1.52,0,0,1,1.66,1.71V7ZM53.35,6v0a.27.27,0,0,0-.11-.23.56.56,0,0,0-.3-.08H51.73a.55.55,0,0,0-.38.13.39.39,0,0,0-.18.33v.71Z" transform="translate(0 0)"/><path class="cls-3" d="M58.81,10.9a3.91,3.91,0,0,1-.72-.07,1.54,1.54,0,0,1-.69-.32,1.66,1.66,0,0,1-.5-.7A2.58,2.58,0,0,1,56.76,9V5.61a2.3,2.3,0,0,1,.08-.72,1.47,1.47,0,0,1,.37-.61,1.57,1.57,0,0,1,.66-.41,2.8,2.8,0,0,1,.74-.08h2.67V4.2H58.67a1.8,1.8,0,0,0-1.08.29,1.25,1.25,0,0,0-.41,1.06V8.89a2.2,2.2,0,0,0,.1.68,1.55,1.55,0,0,0,.37.58,1.48,1.48,0,0,0,.57.27,2.93,2.93,0,0,0,.61.06h2.49v.42Z" transform="translate(0 0)"/><path class="cls-3" d="M68.55,9a4.83,4.83,0,0,1,0,.71,1.64,1.64,0,0,1-1.71,1.22H64.71a1.85,1.85,0,0,1-1.32-.48,1.74,1.74,0,0,1-.52-1.33V8a1.67,1.67,0,0,1,1.82-1.87h3.46V5.68a1.59,1.59,0,0,0-.34-1,1.07,1.07,0,0,0-.5-.38,2.57,2.57,0,0,0-.65-.08H62.89V3.79h3.58a6.13,6.13,0,0,1,.89.06,1.28,1.28,0,0,1,.38.16,1.5,1.5,0,0,1,.34.33,2.2,2.2,0,0,1,.47,1.43Zm-.41-2.4h-3.5a1.32,1.32,0,0,0-1,.39,1.41,1.41,0,0,0-.37,1V9.06a2,2,0,0,0,.07.57.87.87,0,0,0,.32.48,1.56,1.56,0,0,0,1,.37h2.12a1.22,1.22,0,0,0,1.33-1.4Z" transform="translate(0 0)"/><path class="cls-3" d="M72.46,4.2c-1,0-1.45.55-1.43,1.59V10.9h-.41V5.79c0-1.34.61-2,1.91-2H73V4.2Z" transform="translate(0 0)"/><path class="cls-3" d="M79.92,8.92a1.83,1.83,0,0,1-2.14,2H76.24a4.63,4.63,0,0,1-.88-.08,1.62,1.62,0,0,1-.76-.49,1.51,1.51,0,0,1-.35-.69,2.4,2.4,0,0,1-.08-.78v-3a1.82,1.82,0,0,1,2.07-2h3.27V1.48h.41Zm-.41-4.71h-3.3a2.51,2.51,0,0,0-.64.07,1.17,1.17,0,0,0-.58.37,1.32,1.32,0,0,0-.33.54,1.81,1.81,0,0,0-.08.65V9.09a1.2,1.2,0,0,0,.48,1.11,2.18,2.18,0,0,0,.52.21,2.56,2.56,0,0,0,.64.07h1.44A2.17,2.17,0,0,0,79,10.11a1.44,1.44,0,0,0,.53-1.22Z" transform="translate(0 0)"/><path class="cls-4" d="M.75,3.56a2,2,0,0,1,.41-.13,2.64,2.64,0,0,1,5.17,0,1.85,1.85,0,0,1,1,.47,3.68,3.68,0,0,0,0-.67A3.54,3.54,0,0,0,.2,3.4a4.34,4.34,0,0,0,0,.51,2.55,2.55,0,0,1,.56-.35" transform="translate(0 0)"/><path class="cls-4" d="M5.81,3.83H1.56A1.52,1.52,0,0,0,.93,4a1.78,1.78,0,0,0-.52.33A2.15,2.15,0,0,0,0,5.7V9a2.15,2.15,0,0,0,.41,1.39,1.78,1.78,0,0,0,.52.33,1.52,1.52,0,0,0,.63.15H5.81q1.65,0,1.68-1.8V5.63q0-1.78-1.68-1.8" transform="translate(0 0)"/><path class="cls-3" d="M31.81,20.46V16.89a.88.88,0,0,1,0-.17.66.66,0,0,1,.61-.68l.11,0h1.17l.17,0a.72.72,0,0,1,.62.81v1.67a.69.69,0,0,1-.15.41l-.09.1a.79.79,0,0,1-.53.22H32.63v1.21s-.82,0-.82,0m.83-2.22a.21.21,0,0,0,.2.19h.67a.19.19,0,0,0,.13-.07.28.28,0,0,0,0-.12V17c0-.09,0-.14-.15-.16h-.68a.2.2,0,0,0-.2.13.3.3,0,0,0,0,.11v1.1a.09.09,0,0,0,0,0" transform="translate(0 0)"/><path class="cls-3" d="M35.07,18.52v-.65a.72.72,0,0,1,.79-.77H37v-.17c0-.08-.06-.11-.18-.13H35.08V16h2c.42.05.61.22.67.6a.36.36,0,0,1,0,.14v1.71a.36.36,0,0,1,0,.15.71.71,0,0,1-.72.61H35.9c-.48,0-.75-.21-.82-.58a.53.53,0,0,0,0-.15m.86-.14a.23.23,0,0,0,.13.07h.68a.2.2,0,0,0,.16-.06.21.21,0,0,0,.05-.13v-.22c0-.11,0-.12-.11-.17a.23.23,0,0,0-.11,0H36c-.07,0-.11,0-.12.15v.25a.17.17,0,0,0,0,.11" transform="translate(0 0)"/><path class="cls-3" d="M38.33,20.46v-.82H40a.23.23,0,0,0,.19-.2v-.19H39.14a.73.73,0,0,1-.7-.36.75.75,0,0,1-.11-.46V16h.82v2.15c0,.17.07.25.22.25H40a.23.23,0,0,0,.21-.2V16H41v3.55a.81.81,0,0,1,0,.16.74.74,0,0,1-.59.7l-.17,0Z" transform="translate(0 0)"/><path class="cls-3" d="M42.38,18.42V16.79c0-.46.19-.69.55-.75h1.62v.82H43.44c-.17,0-.22,0-.24.13v1.23a.2.2,0,0,0,0,.13.21.21,0,0,0,.19.09h1.12v.82H43.24c-.59,0-.86-.27-.86-.83" transform="translate(0 0)"/><path class="cls-3" d="M45,18.52v-.65a.72.72,0,0,1,.79-.77h1.1v-.17c0-.08,0-.11-.17-.13H45V16h2a.66.66,0,0,1,.67.6.71.71,0,0,1,0,.14v1.71a.71.71,0,0,1,0,.15.73.73,0,0,1-.73.61H45.85a.73.73,0,0,1-.82-.58.53.53,0,0,0,0-.15m.86-.14a.23.23,0,0,0,.13.07h.68a.18.18,0,0,0,.16-.06.21.21,0,0,0,0-.13v-.22c0-.11,0-.12-.1-.17a.33.33,0,0,0-.12,0H46c-.08,0-.12,0-.13.15v.25a.17.17,0,0,0,0,.11" transform="translate(0 0)"/><path class="cls-3" d="M48.19,19.25v-.82h1.46c.1,0,.15,0,.16-.12a.06.06,0,0,0,0,0v-.06a.25.25,0,0,0,0-.07.14.14,0,0,0-.12-.09H49a.68.68,0,0,1-.35-.09.66.66,0,0,1-.42-.6v-.61a.57.57,0,0,1,0-.18A.71.71,0,0,1,49,16h1.65v.83H49.18l-.07,0s0,0,0,0A.16.16,0,0,0,49,17v.08a.19.19,0,0,0,0,.1.22.22,0,0,0,.16.06H50a.62.62,0,0,1,.51.24.82.82,0,0,1,.2.47v.6a.75.75,0,0,1-.13.39.69.69,0,0,1-.64.32Z" transform="translate(0 0)"/><path class="cls-3" d="M51.18,19.25V14.82H52V16h1.11l.13,0a.69.69,0,0,1,.61.6.49.49,0,0,1,0,.12v2.49h-.81V17c0-.09,0-.13-.16-.14h-.65c-.1,0-.14,0-.18,0A.2.2,0,0,0,52,17v2.26Z" transform="translate(0 0)"/><path class="cls-3" d="M54.29,18.76a.51.51,0,0,1,.87-.37.5.5,0,0,1,0,.71.52.52,0,0,1-.72,0,.56.56,0,0,1-.15-.35" transform="translate(0 0)"/><path class="cls-3" d="M57.47,20.46V16.89a.88.88,0,0,1,0-.17A.66.66,0,0,1,58.1,16l.11,0h1.17l.17,0a.72.72,0,0,1,.62.81v1.67a.69.69,0,0,1-.15.41l-.09.1a.76.76,0,0,1-.52.22H58.29v1.21s-.82,0-.82,0m.83-2.22a.21.21,0,0,0,.2.19h.67a.19.19,0,0,0,.13-.07.28.28,0,0,0,.05-.12V17c0-.09-.05-.14-.15-.16h-.67a.22.22,0,0,0-.21.13.3.3,0,0,0,0,.11v1.1a.09.09,0,0,0,0,0" transform="translate(0 0)"/><path class="cls-3" d="M60.73,18.52v-.65a.72.72,0,0,1,.79-.77h1.09v-.17c0-.08-.06-.11-.18-.13H60.74V16h2a.66.66,0,0,1,.67.6.71.71,0,0,1,0,.14v1.71a.71.71,0,0,1,0,.15.74.74,0,0,1-.73.61H61.56a.73.73,0,0,1-.82-.58.53.53,0,0,0,0-.15m.86-.14a.23.23,0,0,0,.13.07h.68a.2.2,0,0,0,.16-.06.21.21,0,0,0,0-.13v-.22c0-.11,0-.12-.1-.17a.33.33,0,0,0-.12,0h-.71c-.08,0-.12,0-.13.15v.25a.17.17,0,0,0,0,.11" transform="translate(0 0)"/><path class="cls-3" d="M64,20.46v-.82h1.68a.23.23,0,0,0,.19-.2v-.19H64.8a.73.73,0,0,1-.7-.36.75.75,0,0,1-.11-.46V16h.82v2.15c0,.17.07.25.22.25h.63a.23.23,0,0,0,.2-.2V16h.81v3.55a.81.81,0,0,1,0,.16.74.74,0,0,1-.59.7l-.17,0Z" transform="translate(0 0)"/><path class="cls-3" d="M68,19.25v-.82h1.46c.09,0,.14,0,.16-.12a.06.06,0,0,0,0,0v-.06a.25.25,0,0,0,0-.07.14.14,0,0,0-.12-.09h-.71a.68.68,0,0,1-.35-.09.67.67,0,0,1-.41-.6v-.61a1.1,1.1,0,0,1,0-.18.72.72,0,0,1,.77-.55h1.65v.83H69l-.06,0a0,0,0,0,0,0,0c-.06,0-.07.08-.07.1v.08a.19.19,0,0,0,0,.1s.06,0,.15.06h.73a.64.64,0,0,1,.52.24.79.79,0,0,1,.19.47v.6a.84.84,0,0,1-.12.39.69.69,0,0,1-.64.32Z" transform="translate(0 0)"/><path class="cls-3" d="M71,18.52v-.65a.72.72,0,0,1,.79-.77h1.09v-.17c0-.08,0-.11-.17-.13H71V16h2a.65.65,0,0,1,.67.6.71.71,0,0,1,0,.14v1.71a.71.71,0,0,1,0,.15.72.72,0,0,1-.73.61H71.82c-.48,0-.75-.21-.82-.58a.53.53,0,0,0,0-.15m.86-.14a.2.2,0,0,0,.12.07h.69a.21.21,0,0,0,.16-.06.2.2,0,0,0,0-.13v-.22c0-.11,0-.12-.1-.17a.23.23,0,0,0-.11,0h-.72c-.07,0-.11,0-.12.15v.25a.17.17,0,0,0,0,.11" transform="translate(0 0)"/><path class="cls-3" d="M74.25,19.25V15.56a.78.78,0,0,1,.87-.74h.52v.79h-.35c-.15,0-.23.1-.23.23V16h.58v.83h-.58v2.4Z" transform="translate(0 0)"/><path class="cls-3" d="M75.86,16.78a.44.44,0,0,1,0-.16.69.69,0,0,1,.78-.59h1.26a.67.67,0,0,1,.62.63v.78l-1.85.7v.06c0,.13.06.22.16.22h1.69v.82h-1.8a.85.85,0,0,1-.49-.09.73.73,0,0,1-.39-.74Zm1.85.27v0h0a.17.17,0,0,0-.15-.13h-.71a.26.26,0,0,0-.15.11.15.15,0,0,0,0,.09v.32Z" transform="translate(0 0)"/><path class="cls-3" d="M78.93,18.76a.51.51,0,0,1,.87-.37.5.5,0,0,1,0,.71.5.5,0,0,1-.71,0,.52.52,0,0,1-.16-.35" transform="translate(0 0)"/></g></g></g></svg>