<svg xmlns="http://www.w3.org/2000/svg" xmlns:xlink="http://www.w3.org/1999/xlink" viewBox="0 0 80 39.92"><defs><style>.cls-1{isolation:isolate;}.cls-2,.cls-4{fill:#b2d235;}.cls-3{fill:url(#New_Gradient_Swatch_5);}.cls-4{mix-blend-mode:multiply;}</style><linearGradient id="New_Gradient_Swatch_5" x1="35.85" y1="16.28" x2="35.85" y2="46.76" gradientUnits="userSpaceOnUse"><stop offset="0" stop-color="#b2d235"/><stop offset="1" stop-color="#3c9339"/></linearGradient></defs><title>PayU</title><g class="cls-1"><g id="Layer_2" data-name="Layer 2"><g id="PayU"><rect class="cls-2" x="75.06" y="3.38" width="4.94" height="4.98" rx="0.7" ry="0.7"/><rect class="cls-2" x="71.71" width="3.35" height="3.38" rx="0.47" ry="0.47"/><path class="cls-3" d="M9.12,10H4c-2.75,0-4,1.23-4,4V31.6C0,32.67.34,33,1.4,33h.35c1.06,0,1.41-.34,1.41-1.41V24.73h6c5.3,0,7.77-2.34,7.77-7.38S14.42,10,9.12,10Zm4.62,7.39c0,2.88-.74,4.44-4.62,4.44h-6V14.36c0-1,.38-1.42,1.41-1.42H9.12C12,12.94,13.74,13.66,13.74,17.35ZM23.52,15a18.22,18.22,0,0,0-3.8.35c-.86.19-1.22.42-1.22,1.4v.28a1.53,1.53,0,0,0,.18.83.75.75,0,0,0,.68.33,2.35,2.35,0,0,0,.53-.08,19,19,0,0,1,3.77-.37c3.08,0,4.33.85,4.33,2.94v1.86H24.11c-5,0-7.31,1.69-7.31,5.3s2.4,5.44,6.75,5.44c5.18,0,7.49-1.76,7.49-5.72V20.71C31,16.89,28.58,15,23.52,15Zm4.47,10v2.42c0,2-.73,3.12-4.47,3.12-2.47,0-3.67-.9-3.67-2.74,0-2,1.2-2.8,4.3-2.8ZM48.18,17l-4,16C43,37.65,41,39.66,37.27,39.9l-.28,0c-.8,0-1.06-.45-1.21-1.17l-.07-.31a1.24,1.24,0,0,1,.08-.95c.19-.24.52-.31,1-.36,2.5-.25,3.35-1.41,4.18-4a4.17,4.17,0,0,1-1.38.21c-2.75,0-3.49-1.92-4.11-4.24L32.21,17a1.3,1.3,0,0,1,0-1.1,1.27,1.27,0,0,1,1-.32h.28a1.46,1.46,0,0,1,1.71,1.31l3.27,12c.42,1.5.84,1.75,1.9,1.75.87,0,1.38-.27,1.74-1.74l2.88-12c.23-1,.64-1.31,1.68-1.31h.31a1.28,1.28,0,0,1,1,.31A1.31,1.31,0,0,1,48.18,17ZM71.7,12.28V24.41a9,9,0,0,1-1.29,4.94c-1.65,2.58-4.83,3.95-9.35,3.95h0c-4.53,0-7.71-1.37-9.35-3.95a9,9,0,0,1-1.29-4.94V12.28c0-2,.8-2.31,3-2.31H54c2.15,0,2.95.35,2.95,2.31V24.41a3.41,3.41,0,0,0,.47,1.89c.58.91,1.74,1.32,3.6,1.32s3-.41,3.61-1.32a3.44,3.44,0,0,0,.46-1.89V12.28c0-2,.81-2.31,3-2.31h.67C70.9,10,71.7,10.32,71.7,12.28Z"/><rect class="cls-4" x="68.41" y="8.36" width="6.65" height="6.71" rx="0.94" ry="0.94"/></g></g></g></svg>