<svg id="Layer_1" data-name="Layer 1" xmlns="http://www.w3.org/2000/svg" viewBox="0 0 80.01 12.54"><defs><style>.cls-1{fill:#d71921;}.cls-2{fill:#231f20;}</style></defs><title>Pekao24-_UniCredit_</title><polygon class="cls-1" points="20.42 0 20.42 12.54 20.85 12.54 20.86 0.01 20.42 0 20.42 0"/><path class="cls-1" d="M25.19,52.32s2.17.83,1.91,3.93h0c.09-.2,1.36-2.91-.65-4.16a4,4,0,0,0-.71-3.85c-.77-.93-2.18-1.83-4.77-1.46,0,0-3.21-5.35-8.17-1.84a2.28,2.28,0,0,1-.4,2.06h0c.75-.44,4.34-3.78,8.23.21,0,0,6.14-.57,4.51,5.1Z" transform="translate(-10 -43.73)"/><path class="cls-1" d="M17.45,52.66a2.22,2.22,0,0,1,3.37-.17,2.62,2.62,0,0,1,3.09-.62c.85.38,2.1,1.63.73,4.28h0s.56-2.25-1.08-3.27c-.66-.41-1.87-.33-3.07,1,0,0-.57-1.06-1.54-.76a5.76,5.76,0,0,1-.84,3.13h0s.56-2.42-.6-3.59Z" transform="translate(-10 -43.73)"/><path class="cls-1" d="M11.53,53.18s2-1.64,3.7-.89c1.07.48,1.35,1.8,1.15,3.85h0c.15-.36,2.14-4-.89-5.16a3.91,3.91,0,0,0-2.81.25l-1.34-3.84s2.12-2.87-1.37-3.53v0c.34.19,2.42,1.51.09,3.08l1.44,6.22Z" transform="translate(-10 -43.73)"/><path class="cls-2" d="M37.32,53.14A2.48,2.48,0,0,0,38.1,53a1.32,1.32,0,0,0,.52-.3,1.17,1.17,0,0,0,.29-.44,1.63,1.63,0,0,0,.09-.55,1.17,1.17,0,0,0-.41-.94,2,2,0,0,0-1.29-.34H35.61v2.68Zm-1.7-6.29v2.64H37a2.07,2.07,0,0,0,1.31-.34,1.17,1.17,0,0,0,.43-1,1.19,1.19,0,0,0-.41-1,2.1,2.1,0,0,0-1.28-.31Zm1.44-1.07a5,5,0,0,1,1.38.16,2.57,2.57,0,0,1,.94.44,1.66,1.66,0,0,1,.54.7,2.33,2.33,0,0,1,.17.93,1.9,1.9,0,0,1-.09.58,1.55,1.55,0,0,1-.28.52,2.27,2.27,0,0,1-.48.44,2.52,2.52,0,0,1-.68.32c1.2.25,1.79.89,1.79,1.91a2.47,2.47,0,0,1-.2,1,2,2,0,0,1-.59.77,2.7,2.7,0,0,1-1,.51,4.21,4.21,0,0,1-1.28.18h-3.1V45.79h2.83Z" transform="translate(-10 -43.73)"/><path class="cls-2" d="M44.37,51.61a8.15,8.15,0,0,0-1.14.11,3.23,3.23,0,0,0-.75.22,1,1,0,0,0-.41.31.71.71,0,0,0-.13.4A.8.8,0,0,0,42,53a.67.67,0,0,0,.19.25.82.82,0,0,0,.28.14,1.34,1.34,0,0,0,.35,0,1.87,1.87,0,0,0,.85-.18,2.41,2.41,0,0,0,.69-.54V51.61ZM41,49.07a3.42,3.42,0,0,1,2.42-.94,2.43,2.43,0,0,1,.92.17,1.8,1.8,0,0,1,.67.47,2.14,2.14,0,0,1,.42.72,2.75,2.75,0,0,1,.14.93v3.8H45a.55.55,0,0,1-.28-.06.42.42,0,0,1-.16-.23l-.12-.49a4.88,4.88,0,0,1-.45.37,2.4,2.4,0,0,1-.46.27,2.57,2.57,0,0,1-1.11.23,2.15,2.15,0,0,1-.68-.1,1.57,1.57,0,0,1-.54-.3,1.43,1.43,0,0,1-.36-.5,1.68,1.68,0,0,1-.13-.7,1.35,1.35,0,0,1,.18-.67,1.65,1.65,0,0,1,.61-.59A4,4,0,0,1,42.65,51a8,8,0,0,1,1.72-.19v-.4a1.39,1.39,0,0,0-.28-1,1,1,0,0,0-.81-.32,1.78,1.78,0,0,0-.61.09,2.89,2.89,0,0,0-.43.2l-.32.2a.53.53,0,0,1-.3.09.32.32,0,0,1-.22-.07.5.5,0,0,1-.15-.17L41,49.07Z" transform="translate(-10 -43.73)"/><path class="cls-2" d="M47.83,49a4.48,4.48,0,0,1,.4-.36,3,3,0,0,1,.44-.28,2.13,2.13,0,0,1,.5-.18,2.62,2.62,0,0,1,.57-.06,2.06,2.06,0,0,1,.86.16,1.71,1.71,0,0,1,.63.46,1.91,1.91,0,0,1,.38.72,3,3,0,0,1,.13.92v3.81H50.5V50.41a1.41,1.41,0,0,0-.28-.94,1.06,1.06,0,0,0-.85-.33,1.61,1.61,0,0,0-.78.19,2.56,2.56,0,0,0-.68.53v4.36H46.65v-6h.76a.32.32,0,0,1,.33.24l.09.55Z" transform="translate(-10 -43.73)"/><path class="cls-2" d="M54.08,45.54v5h.27a.41.41,0,0,0,.21,0,.44.44,0,0,0,.17-.15l1.68-1.92a.64.64,0,0,1,.19-.18.54.54,0,0,1,.27-.06H58l-2,2.3a1.64,1.64,0,0,1-.39.36,1.24,1.24,0,0,1,.21.18,2,2,0,0,1,.17.23l2.15,2.93H57a.67.67,0,0,1-.26,0,.41.41,0,0,1-.19-.18l-1.73-2.35a.4.4,0,0,0-.18-.17.62.62,0,0,0-.26,0h-.31v2.79H52.82V45.54Z" transform="translate(-10 -43.73)"/><path class="cls-2" d="M63.91,50.08a2.55,2.55,0,0,0,.81-.12,1.63,1.63,0,0,0,.58-.33,1.45,1.45,0,0,0,.35-.52,1.83,1.83,0,0,0,.12-.68,1.9,1.9,0,0,0-.11-.66,1.35,1.35,0,0,0-.34-.5,1.47,1.47,0,0,0-.58-.31,2.86,2.86,0,0,0-.82-.11H62.67v3.23Zm0-4.3a4.67,4.67,0,0,1,1.43.19,2.81,2.81,0,0,1,1,.54,2.17,2.17,0,0,1,.59.84,2.92,2.92,0,0,1,.19,1.08,2.89,2.89,0,0,1-.21,1.11,2.37,2.37,0,0,1-.61.86,2.73,2.73,0,0,1-1,.56,4.54,4.54,0,0,1-1.4.2H62.64v3.06H61.27V45.78Z" transform="translate(-10 -43.73)"/><path class="cls-2" d="M71.42,50.56a1.87,1.87,0,0,0-.09-.59,1.29,1.29,0,0,0-.27-.47,1.32,1.32,0,0,0-.44-.32,1.4,1.4,0,0,0-.6-.11,1.46,1.46,0,0,0-1.08.39,1.91,1.91,0,0,0-.5,1.1Zm-3,.77a3.14,3.14,0,0,0,.16.88,1.88,1.88,0,0,0,.36.62,1.45,1.45,0,0,0,.54.37,1.94,1.94,0,0,0,.7.12,2,2,0,0,0,.64-.09,3.05,3.05,0,0,0,.47-.19l.34-.19a.48.48,0,0,1,.26-.09.26.26,0,0,1,.23.12l.36.46a2.65,2.65,0,0,1-.5.45,3.36,3.36,0,0,1-.6.3,2.94,2.94,0,0,1-.65.16,4.87,4.87,0,0,1-.65,0,3.09,3.09,0,0,1-1.15-.21,2.6,2.6,0,0,1-.92-.61,2.86,2.86,0,0,1-.61-1,3.92,3.92,0,0,1-.22-1.38,3.41,3.41,0,0,1,.2-1.16,2.86,2.86,0,0,1,.56-.94,2.48,2.48,0,0,1,.89-.63A3,3,0,0,1,70,48.14a2.8,2.8,0,0,1,1,.18,2.3,2.3,0,0,1,.81.52,2.36,2.36,0,0,1,.53.85,3.1,3.1,0,0,1,.19,1.14.81.81,0,0,1-.06.39.24.24,0,0,1-.23.1H68.41Z" transform="translate(-10 -43.73)"/><path class="cls-2" d="M74.58,45.54v5h.27a.41.41,0,0,0,.21,0,.38.38,0,0,0,.17-.15l1.68-1.92a.64.64,0,0,1,.19-.18.54.54,0,0,1,.27-.06h1.14l-2,2.28a1.64,1.64,0,0,1-.39.36.88.88,0,0,1,.2.18,2,2,0,0,1,.17.23l2.15,2.93H77.49a.67.67,0,0,1-.26-.05A.41.41,0,0,1,77,54l-1.73-2.35a.4.4,0,0,0-.18-.17.62.62,0,0,0-.26,0h-.31V54.2H73.3V45.52h1.28Z" transform="translate(-10 -43.73)"/><path class="cls-2" d="M82.22,51.61a8.15,8.15,0,0,0-1.14.11,3.23,3.23,0,0,0-.75.22,1,1,0,0,0-.41.31.71.71,0,0,0-.13.4.8.8,0,0,0,.07.36.79.79,0,0,0,.19.25.82.82,0,0,0,.28.14,1.37,1.37,0,0,0,.36,0,1.87,1.87,0,0,0,.85-.18,2.41,2.41,0,0,0,.69-.54V51.61Zm-3.34-2.54a3.42,3.42,0,0,1,2.42-.94,2.43,2.43,0,0,1,.92.17,1.8,1.8,0,0,1,.67.47,2.14,2.14,0,0,1,.42.72,2.75,2.75,0,0,1,.14.93v3.8h-.56a.55.55,0,0,1-.28-.06.42.42,0,0,1-.16-.23l-.12-.49a4.88,4.88,0,0,1-.45.37,2.4,2.4,0,0,1-.46.27,2.57,2.57,0,0,1-1.11.23,2.15,2.15,0,0,1-.68-.1,1.57,1.57,0,0,1-.54-.3,1.43,1.43,0,0,1-.36-.5,1.68,1.68,0,0,1-.13-.7,1.26,1.26,0,0,1,.19-.67,1.65,1.65,0,0,1,.61-.59A4,4,0,0,1,80.52,51a8,8,0,0,1,1.72-.19v-.4a1.39,1.39,0,0,0-.28-1,1,1,0,0,0-.81-.32,1.78,1.78,0,0,0-.61.09,2.89,2.89,0,0,0-.43.2l-.32.2a.53.53,0,0,1-.3.09.32.32,0,0,1-.22-.07.5.5,0,0,1-.15-.17l-.24-.42Z" transform="translate(-10 -43.73)"/><path class="cls-2" d="M87.1,53.33a1.41,1.41,0,0,0,1.21-.54,3.22,3.22,0,0,0,0-3.11,1.38,1.38,0,0,0-1.21-.55,1.4,1.4,0,0,0-1.22.55,2.59,2.59,0,0,0-.4,1.56,2.56,2.56,0,0,0,.4,1.55,1.41,1.41,0,0,0,1.22.54Zm0-5.18a3.09,3.09,0,0,1,1.2.22,2.54,2.54,0,0,1,.92.62,2.7,2.7,0,0,1,.58,1,4,4,0,0,1,0,2.56,2.85,2.85,0,0,1-.58,1,2.58,2.58,0,0,1-.92.62,3.29,3.29,0,0,1-1.2.22,3.11,3.11,0,0,1-1.21-.22,2.54,2.54,0,0,1-.92-.62,2.87,2.87,0,0,1-.59-1,3.7,3.7,0,0,1-.2-1.28,4,4,0,0,1,.2-1.28A2.72,2.72,0,0,1,85,49a2.58,2.58,0,0,1,.92-.62,3.11,3.11,0,0,1,1.21-.22Z" transform="translate(-10 -43.73)"/></svg>