<?xml version="1.0" encoding="utf-8"?>
<!-- Generator: Adobe Illustrator 24.1.1, SVG Export Plug-In . SVG Version: 6.00 Build 0)  -->
<svg version="1.1" id="Layer_1" xmlns="http://www.w3.org/2000/svg" xmlns:xlink="http://www.w3.org/1999/xlink" x="0px" y="0px"
	 viewBox="0 0 100 100" style="enable-background:new 0 0 100 100;" xml:space="preserve">
<style type="text/css">
	.st0{fill:#D71921;}
	.st1{fill:#231F20;}
</style>
<g>
	<g>
		<polygon class="st0" points="30.42,43.73 30.42,56.27 30.85,56.27 30.86,43.74 30.42,43.73 30.42,43.73 		"/>
		<path class="st0" d="M25.19,52.32c0,0,2.17,0.83,1.91,3.93c0,0,0.03,0,0.03,0c0.09-0.2,1.36-2.91-0.65-4.16c0,0,0.81-2-0.71-3.85
			C25,47.31,23.59,46.41,21,46.78c0,0-3.21-5.35-8.17-1.84c0,0,0.38,1-0.4,2.06l0.02,0.01c0.75-0.44,4.34-3.78,8.23,0.21
			C20.68,47.22,26.82,46.65,25.19,52.32L25.19,52.32L25.19,52.32z"/>
		<path class="st0" d="M17.45,52.66c0,0,1.58-1.91,3.37-0.17c0,0,1.21-1.47,3.09-0.62c0.85,0.38,2.1,1.63,0.73,4.28
			c0,0-0.03,0-0.03,0c0,0,0.56-2.25-1.08-3.27c-0.66-0.41-1.87-0.33-3.07,1c0,0-0.57-1.06-1.54-0.76c0,0,0.12,1.55-0.84,3.13
			c0,0-0.03,0-0.03,0C18.04,56.25,18.61,53.83,17.45,52.66L17.45,52.66L17.45,52.66z"/>
		<path class="st0" d="M11.53,53.18c0,0,2.02-1.64,3.7-0.89c1.07,0.48,1.35,1.8,1.15,3.85c0,0,0.03,0,0.03,0
			c0.15-0.36,2.14-4.04-0.89-5.16c-0.57-0.21-1.37-0.28-2.81,0.25l-1.34-3.84c0,0,2.12-2.87-1.37-3.53c0,0,0,0.02,0,0.02
			c0.34,0.19,2.42,1.51,0.09,3.08L11.53,53.18L11.53,53.18L11.53,53.18z"/>
	</g>
	<path class="st1" d="M37.32,53.14c0.31,0,0.57-0.04,0.78-0.11c0.21-0.07,0.39-0.17,0.52-0.3c0.13-0.13,0.23-0.27,0.29-0.44
		c0.06-0.17,0.09-0.35,0.09-0.55c0-0.4-0.14-0.71-0.41-0.94c-0.27-0.23-0.7-0.34-1.29-0.34h-1.69v2.68H37.32L37.32,53.14z
		 M35.62,46.85v2.64H37c0.59,0,1.02-0.11,1.31-0.34c0.29-0.23,0.43-0.55,0.43-0.98c0-0.47-0.14-0.8-0.41-1.01
		c-0.27-0.21-0.7-0.31-1.28-0.31H35.62L35.62,46.85z M37.06,45.78c0.54,0,1,0.05,1.38,0.16c0.38,0.1,0.7,0.25,0.94,0.44
		c0.25,0.19,0.43,0.43,0.54,0.7c0.12,0.28,0.17,0.59,0.17,0.93c0,0.2-0.03,0.39-0.09,0.58c-0.06,0.19-0.15,0.36-0.28,0.52
		c-0.13,0.16-0.29,0.31-0.48,0.44c-0.19,0.13-0.42,0.24-0.68,0.32c1.2,0.25,1.79,0.89,1.79,1.91c0,0.36-0.07,0.69-0.2,0.99
		c-0.13,0.3-0.33,0.56-0.59,0.77c-0.26,0.22-0.57,0.39-0.95,0.51c-0.38,0.12-0.8,0.18-1.28,0.18h-3.1v-8.44H37.06L37.06,45.78z"/>
	<path class="st1" d="M44.37,51.61c-0.45,0.02-0.83,0.05-1.14,0.11c-0.31,0.06-0.56,0.13-0.75,0.22c-0.19,0.09-0.33,0.19-0.41,0.31
		c-0.08,0.12-0.13,0.25-0.13,0.4c0,0.14,0.02,0.26,0.07,0.36c0.04,0.1,0.11,0.18,0.19,0.25c0.08,0.06,0.17,0.11,0.28,0.14
		c0.11,0.03,0.23,0.04,0.35,0.04c0.33,0,0.61-0.06,0.85-0.18c0.24-0.12,0.47-0.3,0.69-0.54V51.61L44.37,51.61z M41.02,49.07
		c0.68-0.63,1.48-0.94,2.42-0.94c0.34,0,0.65,0.06,0.92,0.17c0.27,0.11,0.49,0.27,0.67,0.47c0.18,0.2,0.32,0.44,0.42,0.72
		c0.1,0.28,0.14,0.59,0.14,0.93v3.8h-0.56c-0.12,0-0.21-0.02-0.28-0.06c-0.06-0.04-0.12-0.11-0.16-0.23l-0.12-0.49
		c-0.15,0.14-0.3,0.26-0.45,0.37c-0.15,0.11-0.3,0.2-0.46,0.27c-0.16,0.07-0.33,0.13-0.51,0.17c-0.18,0.04-0.38,0.06-0.6,0.06
		c-0.24,0-0.47-0.03-0.68-0.1c-0.21-0.07-0.39-0.17-0.54-0.3c-0.15-0.13-0.27-0.3-0.36-0.5c-0.09-0.2-0.13-0.43-0.13-0.7
		c0-0.23,0.06-0.46,0.18-0.67c0.12-0.22,0.33-0.42,0.61-0.59c0.28-0.17,0.66-0.32,1.12-0.43c0.46-0.11,1.03-0.18,1.72-0.19v-0.4
		c0-0.43-0.09-0.75-0.28-0.96c-0.18-0.21-0.45-0.32-0.81-0.32c-0.24,0-0.45,0.03-0.61,0.09c-0.16,0.06-0.31,0.13-0.43,0.2
		c-0.12,0.07-0.23,0.14-0.32,0.2c-0.09,0.06-0.19,0.09-0.3,0.09c-0.09,0-0.16-0.02-0.22-0.07c-0.06-0.04-0.11-0.1-0.15-0.17
		L41.02,49.07L41.02,49.07z"/>
	<path class="st1" d="M47.83,49.03c0.13-0.13,0.26-0.25,0.4-0.36c0.14-0.11,0.29-0.2,0.44-0.28c0.16-0.08,0.32-0.14,0.5-0.18
		c0.18-0.04,0.37-0.06,0.57-0.06c0.33,0,0.62,0.05,0.86,0.16c0.25,0.11,0.46,0.26,0.63,0.46c0.17,0.2,0.3,0.44,0.38,0.72
		c0.09,0.28,0.13,0.59,0.13,0.92v3.81H50.5v-3.81c0-0.4-0.09-0.72-0.28-0.94c-0.19-0.22-0.47-0.33-0.85-0.33
		c-0.28,0-0.54,0.06-0.78,0.19c-0.24,0.13-0.47,0.3-0.68,0.53v4.36h-1.26v-5.98h0.76c0.17,0,0.28,0.08,0.33,0.24L47.83,49.03
		L47.83,49.03z"/>
	<path class="st1" d="M54.08,45.54v5.03h0.27c0.09,0,0.16-0.01,0.21-0.04c0.05-0.02,0.11-0.07,0.17-0.15l1.68-1.92
		c0.06-0.08,0.12-0.14,0.19-0.18c0.07-0.04,0.16-0.06,0.27-0.06h1.14L56,50.52c-0.12,0.15-0.25,0.27-0.39,0.36
		c0.08,0.05,0.15,0.12,0.21,0.18c0.06,0.07,0.12,0.15,0.17,0.23l2.15,2.93h-1.13c-0.1,0-0.19-0.02-0.26-0.05
		c-0.07-0.03-0.14-0.09-0.19-0.18l-1.73-2.35c-0.06-0.09-0.12-0.15-0.18-0.17c-0.06-0.03-0.15-0.04-0.26-0.04h-0.31v2.79h-1.26
		v-8.68H54.08L54.08,45.54z"/>
	<path class="st1" d="M63.91,50.08c0.3,0,0.57-0.04,0.81-0.12c0.23-0.08,0.43-0.19,0.58-0.33c0.15-0.14,0.27-0.32,0.35-0.52
		c0.08-0.2,0.12-0.43,0.12-0.68c0-0.25-0.04-0.47-0.11-0.66c-0.08-0.2-0.19-0.36-0.34-0.5c-0.15-0.14-0.35-0.24-0.58-0.31
		c-0.23-0.07-0.51-0.11-0.82-0.11h-1.25v3.23H63.91L63.91,50.08z M63.91,45.78c0.55,0,1.03,0.06,1.43,0.19
		c0.4,0.13,0.74,0.31,1,0.54c0.26,0.23,0.46,0.51,0.59,0.84c0.13,0.33,0.19,0.69,0.19,1.08c0,0.4-0.07,0.77-0.21,1.11
		c-0.14,0.33-0.34,0.62-0.61,0.86c-0.27,0.24-0.6,0.43-1.01,0.56c-0.4,0.13-0.87,0.2-1.4,0.2h-1.25v3.06h-1.37v-8.44H63.91
		L63.91,45.78z"/>
	<path class="st1" d="M71.42,50.56c0-0.21-0.03-0.41-0.09-0.59c-0.06-0.18-0.15-0.34-0.27-0.47c-0.12-0.13-0.26-0.24-0.44-0.32
		c-0.17-0.08-0.37-0.11-0.6-0.11c-0.46,0-0.82,0.13-1.08,0.39c-0.26,0.26-0.43,0.63-0.5,1.1H71.42L71.42,50.56z M68.41,51.33
		c0.02,0.34,0.07,0.63,0.16,0.88c0.09,0.25,0.21,0.45,0.36,0.62c0.15,0.16,0.33,0.29,0.54,0.37c0.21,0.08,0.44,0.12,0.7,0.12
		c0.25,0,0.46-0.03,0.64-0.09c0.18-0.06,0.34-0.12,0.47-0.19c0.13-0.07,0.25-0.13,0.34-0.19c0.09-0.06,0.18-0.09,0.26-0.09
		c0.1,0,0.18,0.04,0.23,0.12l0.36,0.46c-0.15,0.18-0.32,0.32-0.5,0.45c-0.19,0.12-0.39,0.22-0.6,0.3c-0.21,0.08-0.43,0.13-0.65,0.16
		c-0.22,0.03-0.44,0.05-0.65,0.05c-0.41,0-0.8-0.07-1.15-0.21c-0.35-0.14-0.66-0.34-0.92-0.61c-0.26-0.27-0.46-0.6-0.61-1
		c-0.15-0.4-0.22-0.86-0.22-1.38c0-0.41,0.07-0.8,0.2-1.16c0.13-0.36,0.32-0.67,0.56-0.94c0.24-0.27,0.54-0.48,0.89-0.63
		c0.35-0.15,0.75-0.23,1.19-0.23c0.37,0,0.71,0.06,1.02,0.18c0.31,0.12,0.58,0.29,0.81,0.52c0.23,0.23,0.4,0.51,0.53,0.85
		c0.13,0.33,0.19,0.71,0.19,1.14c0,0.2-0.02,0.33-0.06,0.39c-0.04,0.07-0.12,0.1-0.23,0.1H68.41L68.41,51.33z"/>
	<path class="st1" d="M74.58,45.54v5.03h0.27c0.09,0,0.16-0.01,0.21-0.04c0.06-0.02,0.11-0.07,0.17-0.15l1.68-1.92
		c0.06-0.08,0.12-0.14,0.19-0.18c0.07-0.04,0.16-0.06,0.27-0.06h1.14l-2.02,2.28c-0.12,0.15-0.25,0.27-0.39,0.36
		c0.08,0.05,0.15,0.12,0.2,0.18c0.06,0.07,0.12,0.15,0.17,0.23l2.15,2.93h-1.13c-0.1,0-0.19-0.02-0.26-0.05
		c-0.07-0.03-0.14-0.09-0.19-0.18l-1.73-2.35c-0.06-0.09-0.12-0.15-0.18-0.17c-0.06-0.03-0.15-0.04-0.26-0.04h-0.31v2.79h-1.26
		v-8.68H74.58L74.58,45.54z"/>
	<path class="st1" d="M82.22,51.61c-0.45,0.02-0.83,0.05-1.14,0.11c-0.31,0.06-0.56,0.13-0.75,0.22c-0.19,0.09-0.33,0.19-0.41,0.31
		c-0.08,0.12-0.13,0.25-0.13,0.4c0,0.14,0.02,0.26,0.07,0.36c0.05,0.1,0.11,0.18,0.19,0.25c0.08,0.06,0.17,0.11,0.28,0.14
		c0.11,0.03,0.23,0.04,0.36,0.04c0.33,0,0.61-0.06,0.85-0.18c0.24-0.12,0.47-0.3,0.69-0.54V51.61L82.22,51.61z M78.88,49.07
		c0.68-0.63,1.48-0.94,2.42-0.94c0.34,0,0.65,0.06,0.92,0.17c0.27,0.11,0.49,0.27,0.67,0.47c0.18,0.2,0.32,0.44,0.42,0.72
		c0.1,0.28,0.14,0.59,0.14,0.93v3.8h-0.56c-0.12,0-0.21-0.02-0.28-0.06c-0.06-0.04-0.12-0.11-0.16-0.23l-0.12-0.49
		c-0.15,0.14-0.3,0.26-0.45,0.37c-0.15,0.11-0.3,0.2-0.46,0.27c-0.16,0.07-0.33,0.13-0.51,0.17c-0.18,0.04-0.38,0.06-0.6,0.06
		c-0.24,0-0.47-0.03-0.68-0.1c-0.21-0.07-0.39-0.17-0.54-0.3c-0.15-0.13-0.27-0.3-0.36-0.5c-0.09-0.2-0.13-0.43-0.13-0.7
		c0-0.23,0.06-0.46,0.19-0.67c0.12-0.22,0.33-0.42,0.61-0.59c0.28-0.17,0.66-0.32,1.12-0.43c0.46-0.11,1.04-0.18,1.72-0.19v-0.4
		c0-0.43-0.09-0.75-0.28-0.96c-0.18-0.21-0.45-0.32-0.81-0.32c-0.24,0-0.45,0.03-0.61,0.09c-0.16,0.06-0.31,0.13-0.43,0.2
		c-0.12,0.07-0.23,0.14-0.32,0.2c-0.09,0.06-0.19,0.09-0.3,0.09c-0.09,0-0.16-0.02-0.22-0.07c-0.06-0.04-0.11-0.1-0.15-0.17
		L78.88,49.07L78.88,49.07z"/>
	<path class="st1" d="M87.1,53.33c0.54,0,0.94-0.18,1.21-0.54c0.26-0.36,0.4-0.88,0.4-1.55c0-0.67-0.13-1.19-0.4-1.56
		c-0.26-0.37-0.67-0.55-1.21-0.55c-0.55,0-0.95,0.18-1.22,0.55c-0.27,0.37-0.4,0.88-0.4,1.56c0,0.67,0.13,1.19,0.4,1.55
		C86.14,53.15,86.55,53.33,87.1,53.33L87.1,53.33z M87.1,48.15c0.44,0,0.84,0.07,1.2,0.22c0.36,0.14,0.66,0.35,0.92,0.62
		c0.25,0.27,0.45,0.59,0.58,0.97c0.14,0.38,0.21,0.81,0.21,1.28c0,0.47-0.07,0.9-0.21,1.28c-0.14,0.38-0.33,0.7-0.58,0.97
		c-0.25,0.27-0.56,0.47-0.92,0.62c-0.36,0.14-0.76,0.22-1.2,0.22c-0.45,0-0.85-0.07-1.21-0.22c-0.36-0.14-0.66-0.35-0.92-0.62
		c-0.25-0.27-0.45-0.59-0.59-0.97c-0.14-0.38-0.2-0.81-0.2-1.28c0-0.47,0.07-0.9,0.2-1.28c0.14-0.38,0.33-0.7,0.59-0.97
		c0.25-0.27,0.56-0.47,0.92-0.62C86.25,48.22,86.65,48.15,87.1,48.15L87.1,48.15z"/>
</g>
</svg>
