<?xml version="1.0" encoding="utf-8"?>
<!-- Generator: Adobe Illustrator 25.0.0, SVG Export Plug-In . SVG Version: 6.00 Build 0)  -->
<svg version="1.1" id="Layer_1" xmlns="http://www.w3.org/2000/svg" xmlns:xlink="http://www.w3.org/1999/xlink" x="0px" y="0px"
	 viewBox="0 0 100 100" style="enable-background:new 0 0 100 100;" xml:space="preserve">
<style type="text/css">
	.st0{clip-path:url(#SVGID_2_);fill-rule:evenodd;clip-rule:evenodd;fill:#EC1C24;}
	.st1{fill-rule:evenodd;clip-rule:evenodd;fill:#FFFFFF;}
</style>
<g>
	<g>
		<defs>
			<rect id="SVGID_1_" x="10" y="10" width="80" height="80"/>
		</defs>
		<clipPath id="SVGID_2_">
			<use xlink:href="#SVGID_1_"  style="overflow:visible;"/>
		</clipPath>
		<path class="st0" d="M49.93,10c10.59,0,20.75,4.21,28.24,11.7c7.49,7.49,11.7,17.65,11.7,28.24c0,16.15-9.73,30.71-24.65,36.89
			c-14.92,6.18-32.1,2.76-43.52-8.66c-11.42-11.42-14.84-28.6-8.66-43.52C19.22,19.73,33.78,10,49.93,10L49.93,10z M49.93,10"/>
	</g>
	<path class="st1" d="M48.23,36.99h-3.38c-0.55-0.06-1.23-0.06-1.91-0.12c-0.18,0.06-0.25,0.25-0.31,0.49
		c-0.06,0.25,0,0.43,0.12,0.61l0.74,0.06c0.92,0.18,1.6,0.37,2.03,0.55c0.43,0.24,0.74,0.68,0.86,1.23
		c0.12,0.55,0.18,1.29,0.12,2.21c-0.06,1.29-0.12,2.83-0.18,4.61c-0.06,1.79-0.19,3.63-0.31,5.54c-0.12,2.95-0.39,10.14-1.19,12.26
		c-0.19,0.49-0.49,0.8-0.86,0.99c-0.43,0.18-0.93,0.37-1.54,0.43l-0.99,0.12c-0.18,0.12-0.25,0.31-0.18,0.62
		c0,0.19,0.06,0.37,0.25,0.55c0.8-0.06,1.54-0.12,2.34-0.19h4.87c0.92,0.06,1.73,0.13,2.46,0.19c0.19-0.12,0.31-0.31,0.31-0.55
		c0-0.25-0.06-0.43-0.25-0.62l-1.72-0.12c-0.55-0.06-0.99-0.19-1.29-0.43c-0.15-0.12-0.28-0.3-0.37-0.51
		c-0.36-0.87-0.37-2.35-0.35-3.27c0.04-1.91,0.06-3.81,0.12-5.72c0.06-1.91,0.12-3.57,0.18-4.98c0.06-1.29,0.19-2.65,0.25-4
		c0.06-1.35,0.12-2.71,0.19-4.06h0.12c0.49,1.04,0.99,2.09,1.42,3.26c0.49,1.11,0.98,2.22,1.48,3.26l4.12,8.79
		c0.37,0.74,0.8,1.66,1.29,2.77c0.55,1.17,1.11,2.28,1.6,3.38c0.26,0.59,0.48,1.14,0.68,1.65c0.05,0,0.39,1.13,0.43,1.27
		c0.24,0.24,0.63,0.23,0.86,0c0.38-0.92,0.78-1.84,1.23-2.73c1.17-2.62,2.38-5.11,3.75-7.63l4-7.94c0.31-0.68,0.61-1.42,1.05-2.22
		c0.43-0.86,0.86-1.66,1.23-2.34c0.31-0.74,0.55-1.23,0.67-1.42h0.06l0.12,19.01c0.06,0.98,0,1.72-0.06,2.27
		c-0.05,0.44-0.17,0.86-0.6,1.07c-0.25,0.31-0.74,0.43-1.54,0.49l-1.36,0.12c-0.12,0.12-0.18,0.31-0.12,0.62
		c0,0.19,0.06,0.37,0.25,0.55c0.92-0.06,1.91-0.12,2.83-0.19h5.3c0.92,0.06,1.85,0.13,2.77,0.19c0.19-0.12,0.25-0.31,0.25-0.55
		c0.06-0.25,0-0.43-0.12-0.62l-1.48-0.12c-0.68-0.06-1.17-0.25-1.48-0.56c-0.3-0.31-0.55-0.68-0.61-1.17
		c-0.06-0.55-0.12-1.23-0.12-1.97c-0.13-2.29-0.21-4.61-0.27-6.91c-0.06-2.46-0.19-4.8-0.25-7.01V42.4c0-1.04,0.06-1.84,0.18-2.46
		c0.12-0.55,0.43-1.04,0.86-1.35c0.43-0.25,1.17-0.43,2.15-0.55l0.92-0.06c0.12-0.12,0.18-0.31,0.12-0.61
		c0-0.19-0.06-0.37-0.18-0.49c-0.74,0.06-1.48,0.06-2.15,0.12h-3.32c-0.55-0.06-1.17-0.06-1.97-0.12c-0.06,1.04-0.43,2.22-0.99,3.57
		c-0.68,1.41-1.48,3.14-2.46,5.17l-4.31,8.67c-1.12,2.36-2.13,4.61-3.5,6.85h-0.12c-1.09-2.05-2.09-4.19-3.08-6.29l-5.23-10.46
		c-0.68-1.48-1.29-2.89-1.78-4.18c-0.43-1.29-0.61-2.4-0.55-3.32C49.59,36.93,48.91,36.93,48.23,36.99L48.23,36.99z M22.99,60.37
		c0,1.57-0.06,2.76-0.19,3.58c-0.12,1.58-1.17,2.1-2.64,2.2l-0.94,0.13c-0.3,0.3-0.28,0.96,0.07,1.19c1.94-0.12,3.7-0.19,5.65-0.19
		c2.08,0,4.02,0.09,6.09,0.19c0.13-0.13,0.19-0.31,0.25-0.56c0-0.31-0.06-0.5-0.19-0.63l-1.26-0.13c-1.01-0.06-1.7-0.25-2.07-0.57
		c-0.02-0.02-0.05-0.03-0.07-0.05c-0.38-0.32-0.65-0.8-0.77-1.55c-0.12-0.81-0.19-2.01-0.12-3.57v-4.39c-1.38,0.06-2.63,0-3.76-0.19
		L22.99,60.37z M18.97,37.46c-0.06,0.25,0.06,0.44,0.25,0.63l1.63,0.19c0.69,0.06,1.19,0.25,1.5,0.57c0.31,0.25,0.5,0.69,0.56,1.38
		c0.06,0.69,0.13,1.69,0.13,3.01v9.28c1.25,0.06,2.51,0.06,3.76,0V39.72c-0.06-0.5,0-0.88,0.12-1.19c0.06-0.19,0.31-0.38,0.63-0.44
		c0.38-0.06,1-0.06,1.82-0.06c2.38,0.06,4.2,0.69,5.52,2.01c1.25,1.32,1.88,3.14,1.88,5.39c0.06,2.01-0.44,3.7-1.5,5.08
		c-0.94,1.19-2.32,2.07-4.2,2.51c-1.82,0.44-4.39,0.63-7.84,0.56c-3.01-0.06-6.27-0.25-9.85-0.63c3.95,0.81,6.9,1.38,8.78,1.57
		c3.07,0.38,6.08,0.31,8.9-0.12c1.44-0.19,2.76-0.56,3.95-1c1.13-0.5,2.26-1.19,3.45-2.01c0.69-0.5,1.32-1.32,1.88-2.38
		c0.44-1,0.69-2.19,0.75-3.64c-0.06-1.57-0.44-2.94-1.13-4.14c-0.69-1.19-1.51-2.13-2.57-2.82c-1.06-0.63-2.38-1.13-3.89-1.44
		c-1.44-0.25-3.14-0.38-5.08-0.38c-1.88,0-3.58,0-5.08,0.06c-1.51,0.06-2.88,0.13-4.08,0.25C19.09,37.02,18.97,37.21,18.97,37.46
		L18.97,37.46z M18.97,37.46"/>
</g>
</svg>
