<?xml version="1.0" encoding="utf-8"?>
<!-- Generator: Adobe Illustrator 24.1.1, SVG Export Plug-In . SVG Version: 6.00 Build 0)  -->
<svg version="1.1" id="Layer_1" xmlns="http://www.w3.org/2000/svg" xmlns:xlink="http://www.w3.org/1999/xlink" x="0px" y="0px"
	 viewBox="0 0 100 100" style="enable-background:new 0 0 100 100;" xml:space="preserve">
<style type="text/css">
	.st0{fill:#DF902C;}
	.st1{fill:#2360A4;}
</style>
<g>
	<path class="st0" d="M49.75,10c4.05,0,7.36,3.3,7.36,7.35c0,4.06-3.31,7.36-7.36,7.36c-4.05,0-7.35-3.3-7.35-7.36
		C42.39,13.3,45.7,10,49.75,10z"/>
	<path class="st1" d="M54.56,58.32v9.55c0,2.43-2.31,3.9-4.22,4.08c-0.04,0.01-0.04,0.04,0,0.05c1.91,0.23,4.22,1.58,4.22,4.12v9.3
		c0,1.7-0.02,2.99,0.7,4.23c-1.54,0.2-3.09,0.32-4.64,0.34c-1.65,0.04-3.31-0.03-4.95-0.21c-0.76-1.52-0.66-2.76-0.66-4.4v-7.41
		c0-1.98-0.84-3.59-2.88-3.71V89.3c-1.61-0.26-3.2-0.65-4.76-1.15c-1.46-0.48-2.89-1.04-4.28-1.7V52.9
		c1.52,0.48,3.06,0.88,4.62,1.21c1.46,0.31,2.93,0.57,4.42,0.76v14.79c1.91,0.38,2.88-0.88,2.88-2.8V58.3
		c0-0.99,0.04-2.26,0.63-3.11c1.55,0.09,3.17,0.11,4.77,0.09c1.6-0.02,3.21-0.09,4.77-0.18C54.69,56.13,54.56,57.06,54.56,58.32z"/>
	<path class="st1" d="M75.55,48.96c-2.3,1.21-4.06,2.35-6.99,3.37c-2.93,1.03-5.07,1.61-7.82,2.1c-1.84,0.34-2.89,1.71-2.89,3.65
		v26.87c0,2.56,1.55,3.94,4.32,3.3c5.65-1.55,11.89-5.39,14.51-10.28c1.27-2.36,1.33-5.1,1.33-7.69V50.26
		C78.01,48.76,76.66,48.33,75.55,48.96z M69.79,77.98c0,2.51-2.88,2.85-2.88,1.15V59.79c0-2.25,2.88-2.73,2.88-0.89V77.98z"/>
	<path class="st1" d="M69.62,31.98c-4.95-2.21-11.86-3.6-19.74-3.6c-5.46,0-11.3,0.7-16.56,2.48c-5.25,1.78-11.33,5.26-11.33,10.6
		v30.22c0,5.98,3.38,10.1,8.22,13.2V48.91c5.22,2.22,12.37,3.56,19.67,3.56c15.43,0,27.66-5.5,27.66-12.01
		C77.54,37.2,74.56,34.18,69.62,31.98z M61.26,41.26h-21.8c-0.79,0-1.44-0.64-1.44-1.43v-0.01c0-0.79,0.65-1.44,1.44-1.44h21.8
		c0.79,0.01,1.43,0.65,1.44,1.44C62.7,40.62,62.06,41.26,61.26,41.26z"/>
</g>
</svg>
