<svg id="Layer_1" data-name="Layer 1" xmlns="http://www.w3.org/2000/svg" viewBox="0 0 80 25.08"><defs><style>.cls-1,.cls-3{fill:#c82128;}.cls-2{fill:#102648;}.cls-2,.cls-3{fill-rule:evenodd;}</style></defs><title>Pocztowy24</title><path class="cls-1" d="M11.51,52.06a12,12,0,0,1,2.15-.19,3.85,3.85,0,0,1,2,.42,1.6,1.6,0,0,1,1,1.45A2,2,0,0,1,15,55.63v0a1.73,1.73,0,0,1,1.29,1.73,2.2,2.2,0,0,1-1.12,1.89,5.73,5.73,0,0,1-3.09.65A11.75,11.75,0,0,1,10,59.78ZM12,58.57a6.36,6.36,0,0,0,.67,0c1,0,1.81-.37,1.81-1.25s-.68-1-1.49-1h-.55Zm.7-3.48h.58c1,0,1.62-.4,1.62-1.07s-.49-.83-1.15-.83a2.75,2.75,0,0,0-.68.06Z" transform="translate(-10 -37.45)"/><path class="cls-1" d="M20.89,59.89c0-.34.05-.73.09-1.15h0a2.25,2.25,0,0,1-2,1.28,1.82,1.82,0,0,1-1.8-2,4,4,0,0,1,4.25-4,7.35,7.35,0,0,1,2,.28l-.63,3a12.82,12.82,0,0,0-.23,2.6Zm.51-4.57a3.08,3.08,0,0,0-.47,0c-1.13,0-2,1.34-2,2.42,0,.56.23,1,.72,1s1.17-.58,1.43-2Z" transform="translate(-10 -37.45)"/><path class="cls-1" d="M23.8,59.89l.75-3.9c.15-.73.24-1.37.32-1.88h1.56l-.12,1h0A2.54,2.54,0,0,1,28.42,54a1.4,1.4,0,0,1,1.52,1.57,8.71,8.71,0,0,1-.09,1l-.66,3.36H27.44l.62-3.2a4.62,4.62,0,0,0,.06-.65c0-.4-.15-.68-.59-.68s-1.24.69-1.48,2l-.5,2.56Z" transform="translate(-10 -37.45)"/><path class="cls-1" d="M30.65,59.89l1.63-8.38H34l-1,5h0l.54-.66,1.52-1.75h2.16l-2.53,2.37,1.66,3.4h-2l-1-2.47-.66.61-.37,1.86H30.65Z" transform="translate(-10 -37.45)"/><path class="cls-1" d="M40.8,52.09a9.85,9.85,0,0,1,2.14-.21,4,4,0,0,1,2.18.53A1.94,1.94,0,0,1,46,54.1a2.76,2.76,0,0,1-1.12,2.24,4.33,4.33,0,0,1-2.62.73,6.4,6.4,0,0,1-.72,0L41,59.89H39.27Zm1,3.55a3.75,3.75,0,0,0,.67.06,1.57,1.57,0,0,0,1.75-1.45c0-.77-.57-1-1.25-1a3,3,0,0,0-.71.06Z" transform="translate(-10 -37.45)"/><path class="cls-1" d="M51.74,56.36A3.49,3.49,0,0,1,48.19,60a2.32,2.32,0,0,1-2.52-2.39A3.51,3.51,0,0,1,49.22,54,2.33,2.33,0,0,1,51.74,56.36ZM47.48,57.6c0,.67.34,1.12,1,1.12,1,0,1.5-1.36,1.5-2.35,0-.53-.23-1.1-.94-1.1C48,55.27,47.47,56.7,47.48,57.6Z" transform="translate(-10 -37.45)"/><path class="cls-1" d="M56.72,59.71A4.1,4.1,0,0,1,55,60a2.28,2.28,0,0,1-2.51-2.37A3.69,3.69,0,0,1,56.4,54a3.86,3.86,0,0,1,1.21.19l-.43,1.31a2.13,2.13,0,0,0-.8-.14,2,2,0,0,0-2,2.11,1.1,1.1,0,0,0,1.17,1.19,3,3,0,0,0,1.18-.24Z" transform="translate(-10 -37.45)"/><path class="cls-1" d="M57.71,58.86l1.93-2a15.57,15.57,0,0,1,1.46-1.34v0H58.57l.27-1.38h4.65L63.3,55.2l-1.89,2A13.56,13.56,0,0,1,60,58.49v0h2.79l-.28,1.38H57.53Z" transform="translate(-10 -37.45)"/><path class="cls-1" d="M67.25,52.55l-.31,1.57h1.27L68,55.4H66.68l-.4,2a3.87,3.87,0,0,0-.1.73c0,.28.12.48.5.48a4,4,0,0,0,.49,0L67,59.89a3.67,3.67,0,0,1-1,.13c-1,0-1.55-.53-1.55-1.25a5.9,5.9,0,0,1,.12-1.07L65,55.41h-.76l.24-1.28h.77L65.44,53Z" transform="translate(-10 -37.45)"/><path class="cls-1" d="M74.2,56.36A3.44,3.44,0,0,1,70.75,60a2.29,2.29,0,0,1-2.44-2.39A3.47,3.47,0,0,1,71.76,54,2.3,2.3,0,0,1,74.2,56.36ZM70.07,57.6c0,.67.33,1.12.92,1.12.93,0,1.45-1.36,1.45-2.35,0-.53-.22-1.1-.91-1.1C70.55,55.27,70.05,56.7,70.07,57.6Z" transform="translate(-10 -37.45)"/><path class="cls-1" d="M76.85,54.11v2.44c0,.66,0,1.21-.06,1.84h0c.21-.61.48-1.19.73-1.77l1.17-2.51h1.43l.15,2.43c0,.67,0,1.24,0,1.85h0c.19-.64.4-1.21.66-1.88l1-2.41h1.76l-2.9,5.77H79.24l-.17-2c0-.6,0-1.16,0-1.85h0c-.32.81-.46,1.25-.71,1.77l-1,2.09H75.62l-.56-5.77h1.79Z" transform="translate(-10 -37.45)"/><path class="cls-1" d="M86,54.11l.36,2.51c.08.59.14,1,.19,1.37h0c.13-.34.27-.72.52-1.34l1.08-2.54H90l-2.13,4.14a11.36,11.36,0,0,1-2.29,3.3,4,4,0,0,1-1.91,1l-.39-1.45a3.56,3.56,0,0,0,1-.46,3,3,0,0,0,1-1,.29.29,0,0,0,0-.28l-1.18-5.23Z" transform="translate(-10 -37.45)"/><path class="cls-2" d="M54.06,44.61c-.82.92-2,1.21-2.63.64s-.47-1.76.35-2.68,2-1.21,2.63-.64S54.88,43.7,54.06,44.61Z" transform="translate(-10 -37.45)"/><path class="cls-3" d="M56.09,39c-1.18-1.06-3.39-.5-5,1.23s-1.87,4-.69,5.06a1.84,1.84,0,0,0,.63.36h.05a.17.17,0,0,0,.18-.16.21.21,0,0,0-.09-.18l0,0c-.85-.76-.63-2.38.47-3.61s2.69-1.62,3.54-.86.66,2.2-.3,3.4a.29.29,0,0,0,0,.08.13.13,0,0,0,.13.13.22.22,0,0,0,.1,0l.29-.31C57,42.29,57.27,40,56.09,39Z" transform="translate(-10 -37.45)"/><path class="cls-3" d="M60.87,41.11a.38.38,0,0,0-.3.16h0S57.23,46,52.69,46.08a3.79,3.79,0,0,1-4.18-4,6.45,6.45,0,0,1,1.75-4.27.2.2,0,0,0,.06-.13.18.18,0,0,0-.18-.18h0a29.47,29.47,0,0,0-11.22,6,.18.18,0,0,0-.08.15.19.19,0,0,0,.19.19h.11a11.26,11.26,0,0,1,6.5,2.43,10.56,10.56,0,0,0,6.14,2.27s5.23.62,9.44-6.82a.81.81,0,0,0,.06-.2A.36.36,0,0,0,60.87,41.11Z" transform="translate(-10 -37.45)"/></svg>