<svg id="Layer_1" data-name="Layer 1" xmlns="http://www.w3.org/2000/svg" viewBox="0 0 80 30.61"><defs><style>.cls-1{fill:#2f4596;fill-rule:evenodd;}</style></defs><title>Poli</title><path d="M10,64.17V37.81h6.83A47.1,47.1,0,0,1,22.9,38a11.7,11.7,0,0,1,3.58,1.31,6.28,6.28,0,0,1,2.5,3A11.63,11.63,0,0,1,29.83,47c0,3-.65,5.36-2.24,6.92s-5.1,2.22-8.16,2.22H17.68v8H10Zm7.64-12.89.36,0c2.38.09,3-.51,3.38-1,.56-.69.58-2.25.58-3.7,0-1.2,0-2.18-.82-3.12-.56-.62-2-.82-3.5-.82v8.56Z" transform="translate(-10 -34.7)"/><polygon points="70.29 29.35 53.01 29.35 53.01 2.95 61.53 2.95 61.53 21.44 70.29 21.44 70.29 29.35"/><rect x="71.77" y="12.06" width="8.17" height="17.33"/><rect x="71.65" y="3.06" width="8.35" height="7.16"/><path class="cls-1" d="M51.54,62.23a10,10,0,0,0,3.12-2.08c2.64-2.4,5.42-6.48,5.2-11.45A12.32,12.32,0,0,0,53.1,38a7,7,0,0,1,2.8,1.63,11.6,11.6,0,0,1,4.29,9.17c.1,5.62-2.89,9.46-5.85,12.1a7.81,7.81,0,0,0,2.34-2.15,15.43,15.43,0,0,0,3.77-9.89c0-5.89-3.34-9.29-7.22-11.51a9.46,9.46,0,0,1,3.38,1.95,12.16,12.16,0,0,1,4.16,10.15A16.09,16.09,0,0,1,55.7,60.34a18.17,18.17,0,0,1-10.93,4.94,11.07,11.07,0,0,1-1.63,0c-6.79-.56-11.71-4.91-12.23-11.58a12,12,0,0,1,0-2.08,16.09,16.09,0,0,1,4.68-10.15A16.17,16.17,0,0,1,46.51,36.2c.12-.52.26-1.13.33-1.5,1.57,1.68,3.48,3.5,5.46,5.46-2.38,1.21-4.69,2.5-7,3.77.06-.48.16-1,.19-1.37a9.65,9.65,0,0,0-8.06,7.67A7.17,7.17,0,0,0,44.63,59a9.88,9.88,0,0,0,9.62-7.93,7.47,7.47,0,0,0-2.86-7.41,7.14,7.14,0,0,1,3.51,6.57,10.48,10.48,0,0,1-10.08,9.23A8.86,8.86,0,0,1,38,56.28a8.37,8.37,0,0,0,7.67,3.38,10.07,10.07,0,0,0,6.24-2.93,10.64,10.64,0,0,0,3.19-5.92,9.55,9.55,0,0,0,0-2.67c-.39-2.6-2-3.81-3.42-5.47,2,1.65,4.22,3.83,4.07,7.37-.22,5.17-5.16,9.73-10.34,10.08a8.91,8.91,0,0,1-7.28-2.6,8.78,8.78,0,0,0,8.26,2.73,11.45,11.45,0,0,0,9.56-9.69c.46-4.46-1.79-6.54-4-8.74,2.3,1.75,4.26,3.67,4.41,7.24a11.25,11.25,0,0,1-3.32,8.06C50,60.21,44,62.25,39.28,59.4c4,3.05,10.17,1.3,13.46-1.69a11,11,0,0,0,3.84-9.36c-.23-3.47-2.2-5.24-4.42-7.09A8.68,8.68,0,0,1,57,48.15,11.4,11.4,0,0,1,52.87,58a12.89,12.89,0,0,1-12,3c7.86,2.46,15.21-3.39,16.26-10.14.75-4.85-1.73-7.71-4.1-9.76-.25-.2-.38-.36-.71-.65a9.83,9.83,0,0,1,5.07,11.12C56.13,58,49.74,63.16,41.49,61.8a9.14,9.14,0,0,0,3.81.32,13.56,13.56,0,0,0,9-4.1,12.75,12.75,0,0,0,3.61-10c-.3-4-2.56-6-5.32-8.1a7.67,7.67,0,0,1,3,2.14,10,10,0,0,1,2.7,6.11,13.31,13.31,0,0,1-4.1,10.41A13.75,13.75,0,0,1,44.07,62.8c6.67.2,11.12-3.9,13.27-8.45a13,13,0,0,0,.59-9.17c-.92-2.66-3-4.48-5.14-6,3.65,2,6.72,5.6,6.05,11.28A13.51,13.51,0,0,1,56.93,56,16.5,16.5,0,0,1,48,63a14,14,0,0,0,7.15-4.29,14.16,14.16,0,0,0,4-10.27C59,43.6,56,40.81,53,38.62l.12,0a10.92,10.92,0,0,1,6.38,8.88c.91,7-3.69,12.06-7.93,14.7" transform="translate(-10 -34.7)"/></svg>