<svg xmlns="http://www.w3.org/2000/svg" xmlns:xlink="http://www.w3.org/1999/xlink" viewBox="0 0 79.83 22.56"><defs><style>.cls-1{fill:none;}.cls-2{clip-path:url(#clip-path);}.cls-3{fill:#fcd20b;}.cls-4{fill:#fff;}.cls-5{fill:#ec2227;}.cls-6{fill:#231f20;}</style><clipPath id="clip-path"><rect class="cls-1" y="0.01" width="80" height="22.55"/></clipPath></defs><title>Post-Finance</title><g id="Layer_2" data-name="Layer 2"><g id="Post-Finance"><g class="cls-2"><rect class="cls-3" width="79.83" height="22.56"/></g><polyline class="cls-4" points="66.29 17.41 67.07 13.71 3.41 13.71 2.63 17.41 66.29 17.41"/><path class="cls-5" d="M74,8.68s.86-3.92.87-3.95H69.4s-1.12,5.19-1.12,5.21h1.39s.85-3.9.85-3.9h2.64S72.33,10,72.3,10h4l-.52,2.41h-4s-.8,3.69-.8,3.69H68s-.27,1.31-.28,1.33h4.43s.8-3.7.8-3.7h4s1-5,1-5H74"/><path class="cls-6" d="M64.14,9.83a.94.94,0,0,1,1,1c0,.11,0,.21,0,.32H62.61a1.67,1.67,0,0,1,1.53-1.36Zm1.24,4.86.31-1.45a5.12,5.12,0,0,1-1.73.33c-.78,0-1.46-.27-1.5-1.21h4A4.72,4.72,0,0,0,66.72,11a2.27,2.27,0,0,0-2.45-2.44,3.53,3.53,0,0,0-3.49,3.74,2.56,2.56,0,0,0,2.86,2.67,6,6,0,0,0,1.74-.25Zm-6.62-1.24a1.16,1.16,0,0,1-1.33-1.32A2,2,0,0,1,59.32,10a3.44,3.44,0,0,1,1.19.27l.29-1.39a4.78,4.78,0,0,0-1.59-.29,3.49,3.49,0,0,0-3.55,3.62,2.44,2.44,0,0,0,2.7,2.66,3.64,3.64,0,0,0,1.32-.23L60,13.21a3.65,3.65,0,0,1-1.24.24Zm-8.43,1.31L51,11.68c.27-1.25.88-1.68,1.51-1.68.82,0,.92.61.76,1.31l-.73,3.45h1.74l.77-3.54c.38-1.76-.44-2.69-1.72-2.69a2.68,2.68,0,0,0-2,.9l.16-.72H49.89l-1.3,6ZM44.06,13c0-.61.54-.95,1.43-.95a6.76,6.76,0,0,1,.89.06l-.07.34a1.57,1.57,0,0,1-1.49,1.2c-.5,0-.76-.24-.76-.65Zm1.69-4.45a7.63,7.63,0,0,0-1.89.26l-.29,1.41a7.22,7.22,0,0,1,1.84-.32c.91,0,1.24.28,1.24.75a1.46,1.46,0,0,1,0,.29l0,.12c-.44-.05-.85-.09-1.05-.09-1.73,0-3.12.67-3.12,2.26a1.68,1.68,0,0,0,1.85,1.66,2.35,2.35,0,0,0,1.8-.78l-.14.63h1.55l.76-3.46a3.5,3.5,0,0,0,.08-.78c0-1-.57-1.95-2.58-1.95ZM37.3,14.76,38,11.68c.27-1.25.88-1.68,1.51-1.68.82,0,.92.61.76,1.31l-.74,3.45h1.75L42,11.22c.38-1.76-.44-2.69-1.72-2.69a2.68,2.68,0,0,0-2,.9l.16-.72H36.86l-1.3,6ZM34.18,7a.89.89,0,0,0,.9,1,1,1,0,0,0,1.06-1,.89.89,0,0,0-.9-1,1,1,0,0,0-1.06,1Zm-.25,1.67-1.3,6h1.73l1.3-6Zm-4.92,6,.68-3.16h2.64l.31-1.55H30l.4-1.93h2.77l.34-1.55H29l-1.73,8.19ZM27.29,10l.28-1.33H25.7L26.07,7l-1.82.4L23.12,12.6c-.32,1.46.49,2.27,1.95,2.27a4.29,4.29,0,0,0,1.18-.18l.3-1.33a4.54,4.54,0,0,1-1,.14c-.5,0-.85-.17-.73-.78L25.41,10ZM20.68,13c0,.49-.6.57-1.1.57a6.16,6.16,0,0,1-1.71-.29l-.3,1.37a8.67,8.67,0,0,0,1.91.24c1.56,0,2.82-.59,2.82-2,0-1.89-2.26-1.56-2.26-2.4,0-.38.36-.51.94-.51a7,7,0,0,1,1.57.29l.29-1.38a6.91,6.91,0,0,0-1.71-.23c-1.69,0-2.72.76-2.72,2,0,1.84,2.27,1.54,2.27,2.38Zm-6.56,2a3.53,3.53,0,0,0,3.5-3.2A2.53,2.53,0,0,0,15,8.53a3.55,3.55,0,0,0-3.5,3.21,2.53,2.53,0,0,0,2.62,3.2Zm.16-1.4c-.69,0-1.24-.55-1-1.8s.86-1.81,1.56-1.81,1.24.56,1,1.81-.85,1.8-1.55,1.8ZM6.93,12.26H7.7c2.45,0,3.81-1.21,3.81-3.22,0-1.5-1.06-2.47-2.87-2.47H6.37L4.64,14.76H6.39Zm.31-1.5.57-2.69h.73c.81,0,1.19.33,1.19,1.09A1.54,1.54,0,0,1,8,10.76H7.24"/></g></g></svg>