<svg id="Layer_1" data-name="Layer 1" xmlns="http://www.w3.org/2000/svg" viewBox="0 0 20 13.34"><title>prepaid</title><path d="M23.33,21.67H6.67A1.67,1.67,0,0,1,5,20V10A1.67,1.67,0,0,1,6.67,8.33H23.34A1.67,1.67,0,0,1,25,10V20A1.67,1.67,0,0,1,23.33,21.67ZM6.67,9a1,1,0,0,0-1,1V20a1,1,0,0,0,1,1H23.34a1,1,0,0,0,1-1V10a1,1,0,0,0-1-1Z" transform="translate(-5 -8.33)"/><path d="M15,19.5a2.85,2.85,0,0,1-3-2.33.5.5,0,0,1,.46-.54.51.51,0,0,1,.54.46,1.85,1.85,0,0,0,2,1.41c1.1,0,2-.67,2-1.5S16,15.7,15,15.51l-.25,0C12.94,15.11,12,14.28,12,13a2.79,2.79,0,0,1,3-2.5,2.84,2.84,0,0,1,3,2.33.5.5,0,1,1-1,.08,1.85,1.85,0,0,0-2-1.41c-1.1,0-2,.67-2,1.5s1.06,1.3,2,1.48l.25,0C17.07,14.9,18,15.73,18,17A2.79,2.79,0,0,1,15,19.5Z" transform="translate(-5 -8.33)"/><path d="M15,20.5a.5.5,0,0,1-.5-.5V10a.5.5,0,0,1,1,0V20A.5.5,0,0,1,15,20.5Z" transform="translate(-5 -8.33)"/></svg>