<svg xmlns="http://www.w3.org/2000/svg" viewBox="0 0 80 27.4"><defs><style>.cls-1{fill:#cf4545;}.cls-2{fill:#afb2bb;}</style></defs><title>Przelew24</title><g id="Layer_2" data-name="Layer 2"><g id="Przelew24"><path class="cls-1" d="M0,23.82l2-11.4H7.24c1.29,0,2.12.25,2.5.75A3.75,3.75,0,0,1,10,16a4.38,4.38,0,0,1-1.21,2.66,4.52,4.52,0,0,1-2.86.71H2.08l-.79,4.49Zm2.28-5.58h3a5.29,5.29,0,0,0,2.52-.39,2.57,2.57,0,0,0,.86-1.8,3.54,3.54,0,0,0,0-2.09c-.19-.3-.74-.44-1.65-.44H3.12Z"/><path class="cls-1" d="M11.09,15.84h1.17l-.28.92,0,0a3,3,0,0,1,2.49-1.12c1.47,0,2.07.75,1.8,2.27l-.1.55H15l.06-.2c.06-.21.09-.36.11-.43.14-.82-.23-1.23-1.12-1.23-1.3,0-2.1.81-2.38,2.42l-.85,4.78H9.68Z"/><path class="cls-1" d="M17.31,15.84h5.76L22.86,17l-5.8,5.88h4.76l-.17,1H15.5l.19-1.11,5.83-5.9H17.14Z"/><path class="cls-1" d="M28.81,21.41H30L30,21.7a2.34,2.34,0,0,1-1.06,1.74,5.67,5.67,0,0,1-2.74.5c-1.47,0-2.39-.27-2.75-.81s-.39-1.66-.09-3.38a6.13,6.13,0,0,1,1.27-3.21,4,4,0,0,1,2.85-.82c1.47,0,2.4.24,2.77.71s.42,1.47.15,3l-.11.63H24.51a4.3,4.3,0,0,0,0,2.4c.21.35.81.52,1.8.52a4.55,4.55,0,0,0,1.88-.25,1.39,1.39,0,0,0,.61-1.06Zm.41-2.27.06-.38c.15-.86.11-1.42-.13-1.68a2.61,2.61,0,0,0-1.77-.39,2.9,2.9,0,0,0-1.92.46,3.65,3.65,0,0,0-.78,2Z"/><path class="cls-1" d="M34.15,12.42l-2,11.4H31l2-11.4Z"/><path class="cls-1" d="M39.69,21.41h1.2l0,.29a2.34,2.34,0,0,1-1.06,1.74,5.67,5.67,0,0,1-2.74.5c-1.47,0-2.38-.27-2.75-.81s-.39-1.66-.09-3.38a6.13,6.13,0,0,1,1.27-3.21,4.05,4.05,0,0,1,2.86-.82c1.46,0,2.39.24,2.76.71s.42,1.47.15,3l-.11.63H35.39a4.3,4.3,0,0,0,0,2.4c.21.35.81.52,1.8.52A4.55,4.55,0,0,0,39,22.72a1.39,1.39,0,0,0,.61-1.06Zm.41-2.27.06-.38c.15-.86.11-1.42-.13-1.68a2.61,2.61,0,0,0-1.77-.39,2.9,2.9,0,0,0-1.92.46,3.65,3.65,0,0,0-.78,2Z"/><path class="cls-1" d="M53.48,15.84l-3.66,8H48.08l-.28-4.43L47.72,18l0-.68,0-.68h0l-.27.68-.28.68-.57,1.35-1.86,4.43H42.87l-.75-8h1.23l.34,4.42.11,1.38,0,.69,0,.7h0l.28-.7.29-.69.58-1.38L47,15.84h1.7l.3,4.43L49,21.65l0,.68,0,.7h0l.29-.7.29-.69.6-1.38,1.9-4.42Z"/><path class="cls-1" d="M59.36,15.84,57.83,19.4l-.77,1.77-.36.89-.38.88h0l-.15-.88L56,21.17l-.31-1.77-.59-3.56H53.85l1.61,8.67-.19.4c-.49,1.05-1.05,1.56-1.67,1.52a2.28,2.28,0,0,1-.4-.05l-.17,1a3.15,3.15,0,0,0,.55.06,2.44,2.44,0,0,0,1.77-.67,7.73,7.73,0,0,0,1.49-2.45l3.77-8.44Z"/><path class="cls-2" d="M68.09,22.81l-.19,1.07h-8l.37-2.12a3.56,3.56,0,0,1,1.1-2.35,8.45,8.45,0,0,1,3.4-.85,6.08,6.08,0,0,0,2.6-.63,3.66,3.66,0,0,0,.79-2.06Q68.4,14.42,68,14c-.26-.29-.93-.44-2-.44a6,6,0,0,0-2.59.35,2.37,2.37,0,0,0-.83,1.7l-.13.84H61.22l.11-.59a4,4,0,0,1,1.32-2.7,6.49,6.49,0,0,1,3.5-.67c1.5,0,2.46.24,2.89.73s.53,1.43.28,2.83a4.48,4.48,0,0,1-1.2,2.72,6.68,6.68,0,0,1-3.3.92,6.08,6.08,0,0,0-2.63.6,3.92,3.92,0,0,0-.79,2.16l-.07.38Z"/><path class="cls-2" d="M78.64,12.58,77.29,20.2H79l-.19,1.08H77.1l-.46,2.6H75.39l.46-2.6H69.62l.26-1.5,6.82-7.2ZM76,20.2l1.2-6.8h0l-6.36,6.8Z"/><path class="cls-2" d="M26.47,9a40.9,40.9,0,0,1,7.79-3.51l-.5-2.82a54.92,54.92,0,0,0-10,4.27Z"/><path class="cls-2" d="M57.39,7.44,67,2.18A52.24,52.24,0,0,0,51.59,0h-.06L49.32,4.41A27,27,0,0,1,57.39,7.44Z"/><path class="cls-2" d="M21.28,8.34a38.26,38.26,0,0,0-6.45,4.87h5.36q2-1.52,3.85-2.75Z"/><path class="cls-2" d="M48.42.07A57.66,57.66,0,0,0,35.89,2l.37,2.85a29.1,29.1,0,0,1,10.85-.81Z"/><path class="cls-2" d="M72.15,4.23,59.67,8.9a15.9,15.9,0,0,1,1.76,1.44H80S77.9,7.09,72.15,4.23Z"/></g></g></svg>