<svg id="Layer_1" data-name="Layer 1" xmlns="http://www.w3.org/2000/svg" viewBox="0 0 80 27.38"><defs><style>.cls-1{fill:#cf4545;}.cls-2{fill:#aeb2ba;}</style></defs><title>Przelewy24</title><path class="cls-1" d="M10,60.12l2-11.4h5.21a3.12,3.12,0,0,1,2.5.74,3.75,3.75,0,0,1,.21,2.78,4.38,4.38,0,0,1-1.2,2.66,4.55,4.55,0,0,1-2.87.71H12.08l-.8,4.49H10Zm2.28-5.58h3.05a5.34,5.34,0,0,0,2.52-.39,2.61,2.61,0,0,0,.86-1.8,3.54,3.54,0,0,0,0-2.09c-.19-.29-.74-.44-1.65-.44h-4Z" transform="translate(-10 -36.31)"/><path class="cls-1" d="M21.09,52.14h1.17l-.28.92,0,0A3,3,0,0,1,24.49,52c1.47,0,2.07.76,1.8,2.27l-.11.55H25l.06-.2c.05-.21.09-.35.1-.43.15-.82-.23-1.23-1.12-1.23-1.3,0-2.1.8-2.38,2.41l-.85,4.78H19.67Z" transform="translate(-10 -36.31)"/><path class="cls-1" d="M27.31,52.14h5.75l-.2,1.14-5.8,5.88h4.76l-.17,1H25.5L25.7,59l5.82-5.9H27.15Z" transform="translate(-10 -36.31)"/><path class="cls-1" d="M38.81,57.71H40L40,58a2.37,2.37,0,0,1-1.06,1.74,5.67,5.67,0,0,1-2.74.5c-1.47,0-2.39-.27-2.75-.81S33,57.76,33.32,56a6.1,6.1,0,0,1,1.26-3.21A4,4,0,0,1,37.44,52c1.47,0,2.39.24,2.76.71s.42,1.47.15,3l-.11.63H34.5a4.26,4.26,0,0,0,0,2.4c.21.35.81.52,1.8.52A4.55,4.55,0,0,0,38.16,59,1.39,1.39,0,0,0,38.77,58Zm.41-2.27.06-.38c.15-.86.11-1.42-.13-1.68A2.61,2.61,0,0,0,37.38,53a2.89,2.89,0,0,0-1.92.46,3.69,3.69,0,0,0-.78,2Z" transform="translate(-10 -36.31)"/><path class="cls-1" d="M44.15,48.72l-2,11.4H41l2-11.4Z" transform="translate(-10 -36.31)"/><path class="cls-1" d="M49.69,57.71h1.19l0,.29a2.37,2.37,0,0,1-1.06,1.74,5.67,5.67,0,0,1-2.74.5c-1.47,0-2.39-.27-2.75-.81S43.9,57.76,44.2,56a6.1,6.1,0,0,1,1.26-3.21A4,4,0,0,1,48.32,52c1.47,0,2.39.24,2.76.71s.42,1.47.15,3l-.11.63H45.38a4.26,4.26,0,0,0,0,2.4c.21.35.81.52,1.8.52A4.55,4.55,0,0,0,49,59,1.39,1.39,0,0,0,49.65,58Zm.41-2.27.06-.38c.15-.86.11-1.42-.13-1.68A2.61,2.61,0,0,0,48.26,53a2.89,2.89,0,0,0-1.92.46,3.69,3.69,0,0,0-.78,2Z" transform="translate(-10 -36.31)"/><path class="cls-1" d="M63.48,52.14l-3.66,8H58.08l-.28-4.43-.09-1.35,0-.68,0-.68h0l-.28.68-.28.68-.57,1.35-1.86,4.43H52.86l-.74-8h1.23l.34,4.42.1,1.39,0,.69,0,.69h0l.28-.69.29-.69.58-1.38,1.88-4.42h1.7l.3,4.43L59,58l0,.68,0,.69h0l.3-.69.29-.69.6-1.39,1.9-4.42Z" transform="translate(-10 -36.31)"/><path class="cls-1" d="M69.36,52.14,67.83,55.7l-.77,1.77-.37.89-.37.89h0l-.15-.89-.14-.9-.3-1.77-.6-3.56H63.86l1.6,8.67-.18.39c-.49,1.05-1,1.56-1.67,1.53l-.4-.06-.17,1a3.15,3.15,0,0,0,.55.06A2.46,2.46,0,0,0,65.37,63a8,8,0,0,0,1.49-2.45l3.76-8.44H69.36Z" transform="translate(-10 -36.31)"/><path class="cls-2" d="M78.09,59.11l-.19,1.08h-8l.38-2.13a3.56,3.56,0,0,1,1.1-2.34,8.45,8.45,0,0,1,3.4-.85,6,6,0,0,0,2.59-.63,3.58,3.58,0,0,0,.79-2.06c.17-1,.12-1.6-.14-1.89s-.94-.43-2-.43a6,6,0,0,0-2.59.35,2.35,2.35,0,0,0-.82,1.69l-.13.84H71.23l.11-.59a4,4,0,0,1,1.32-2.7,6.49,6.49,0,0,1,3.5-.67c1.5,0,2.47.24,2.9.73s.52,1.43.27,2.84a4.45,4.45,0,0,1-1.2,2.71,6.58,6.58,0,0,1-3.3.92,6.08,6.08,0,0,0-2.63.6,3.92,3.92,0,0,0-.79,2.16l-.07.38h6.75Z" transform="translate(-10 -36.31)"/><path class="cls-2" d="M88.64,48.88,87.3,56.5H89l-.19,1.08H87.1l-.46,2.61H85.38l.46-2.61H79.61l.26-1.5,6.81-7.19h2ZM86,56.5l1.2-6.8h0l-6.37,6.8Z" transform="translate(-10 -36.31)"/><path class="cls-2" d="M36.47,45.27a41.68,41.68,0,0,1,7.8-3.52l-.5-2.81a54.92,54.92,0,0,0-10,4.27Z" transform="translate(-10 -36.31)"/><path class="cls-2" d="M67.39,43.74,77,38.49a52.24,52.24,0,0,0-15.43-2.18h-.06l-2.2,4.41A26.73,26.73,0,0,1,67.39,43.74Z" transform="translate(-10 -36.31)"/><path class="cls-2" d="M31.28,44.64a38.26,38.26,0,0,0-6.45,4.87h5.36c1.31-1,2.59-1.92,3.85-2.75Z" transform="translate(-10 -36.31)"/><path class="cls-2" d="M58.42,36.36a58.38,58.38,0,0,0-12.53,2l.37,2.85a29.35,29.35,0,0,1,10.85-.82Z" transform="translate(-10 -36.31)"/><path class="cls-2" d="M82.15,40.53,69.67,45.2a15.9,15.9,0,0,1,1.76,1.44H90S87.9,43.39,82.15,40.53Z" transform="translate(-10 -36.31)"/></svg>