<svg xmlns="http://www.w3.org/2000/svg" viewBox="0 0 80 74.76"><title>PSBC_postal savings Bank of China</title><g id="Layer_2" data-name="Layer 2"><g id="PSBC_postal_savings_Bank_of_China" data-name="PSBC_postal savings Bank of China"><path d="M46.08.18C46,.6,43.84,10.88,43.84,11s-3.79.08-9.17.09l-9.16,0L23.22,21.89c-1.27,6-2.32,10.89-2.35,11S20,33,12.53,33H4.24l0,.19c-.3,1.24-1.95,9-2.07,9.74S.33,51.51,0,52.71l0,.19H8.37c4.6,0,8.36,0,8.36.06s-1,4.94-2.31,10.92l-2.3,10.85,20,0c11,0,20,0,20,0s4.6-21.48,4.6-21.78c0,0,2.7-.08,6.14-.09l6.14,0,.88-4.33c.48-2.38.88-4.37.88-4.43s-1.77-.1-8.6-.1c-8.13,0-8.61,0-8.65.14s-.45,2.15-.94,4.59c-.67,3.34-3.26,15.44-3.64,17.05l0,.18H34c-11.83,0-14.86,0-14.86-.1s.08-.53.18-1.06l.17-1,13.28,0L46,63.8l2.18-10.33c1.19-5.68,2.24-10.63,2.31-11l.15-.67H71.09l.09-.31c0-.17.47-2.1.94-4.31s.88-4,.9-4.1-2.57-.1-12.8-.1H47.39l-.85,4.22c-.63,3.16-3.36,16-3.72,17.55l0,.19H21.4l0-.23c0-.12.1-.57.18-1l.15-.77,9.16,0c5,0,9.15,0,9.15-.05s1.86-9.16,2.05-10,2-9.77,2-9.9-4.09,0-9.09,0-9.12,0-9.14-.06a8.51,8.51,0,0,1,.23-1l.25-1,13.28,0C47,30.87,53,30.83,53,30.79S55,21,55.19,20.31l.09-.39H75.76l0-.18c.23-1,1.83-8.49,1.83-8.59S76.39,11,64.84,11l-12.79,0-.84,3.84c-.69,3.17-1.5,7-1.5,7.12S44.88,22,39,22c-7.65,0-10.74,0-10.74-.09s.19-.83.42-1.73l.08-.3H47l0-.19c.11-.43,1.78-8.77,2-9.73l.19-1.06,14.44,0,14.44,0L79,4.62c.51-2.34.94-4.33,1-4.43L80,0H46.12l0,.18ZM19,41.94c0,.08-.11.57-.23,1.08l-.22.94-5.8,0L7,44l.15-.84c.08-.45.17-.95.2-1.1l.05-.26h5.83c5.5,0,5.83,0,5.83.14Zm18.2,0c0,.05-.09.54-.19,1.08l-.18,1-6.64,0-6.63,0,0-.18c0-.1.14-.6.26-1.11l.22-.91h6.56c5.2,0,6.56,0,6.56.1Z"/></g></g></svg>