<svg xmlns="http://www.w3.org/2000/svg" viewBox="0 0 80 31.44"><defs><style>.cls-1{fill:#0660aa;}.cls-2{fill:#fdb718;}</style></defs><title>PSE</title><g id="Layer_2" data-name="Layer 2"><g id="PSE"><g id="_Group_" data-name="&lt;Group&gt;"><g id="_Group_2" data-name="&lt;Group&gt;"><path id="_Path_" data-name="&lt;Path&gt;" class="cls-1" d="M60.89,23.35H52.08a.5.5,0,0,1,0-1h8.76A3.47,3.47,0,0,0,63.6,19c.1-2.7-1.45-3-1.7-3H56.25a3.22,3.22,0,0,1-2.68-3.51A4.52,4.52,0,0,1,57.2,8.13h8a.5.5,0,0,1,.5.5.5.5,0,0,1-.5.5H57.36a3.55,3.55,0,0,0-2.79,3.37v0A2.29,2.29,0,0,0,56.37,15H62s2.79.21,2.65,4A4.46,4.46,0,0,1,61,23.34Z"/></g><g id="_Group_3" data-name="&lt;Group&gt;"><path id="_Compound_Path_" data-name="&lt;Compound Path&gt;" class="cls-1" d="M77.5,23.4H69.31c-1.07-.11-3.11-.86-3.15-2.86s1.37-8.6,1.43-8.88a.14.14,0,0,0,0-.06c0-.14,1.25-3.28,3.9-3.28h5.85l.14,0c.1,0,2.5.75,2.5,2.81a37.15,37.15,0,0,1-.53,4.8.49.49,0,0,1-.49.41l-11.32.1a26.89,26.89,0,0,0-.5,4.05c0,1.55,2,1.86,2.24,1.89h8.1a.5.5,0,0,1,.5.5A.5.5,0,0,1,77.5,23.4ZM68.56,11.92c0,.25-.39,1.79-.72,3.54l10.71-.09A32.94,32.94,0,0,0,79,11.15c0-1.17-1.41-1.72-1.72-1.83H71.51C69.66,9.32,68.68,11.63,68.56,11.92Z"/></g><g id="_Group_4" data-name="&lt;Group&gt;"><path id="_Compound_Path_2" data-name="&lt;Compound Path&gt;" class="cls-1" d="M36.81,30h-.09a.5.5,0,0,1-.4-.58l1.6-8.82c.4-2.2.81-4.4,1.11-6.06.15-.83.28-1.52.37-2s.13-.66.18-.83h0a5.8,5.8,0,0,1,3.62-3.4h5.74c.48,0,3.08,1,2.78,3a.13.13,0,0,0,0,.06l-1.4,8.52a.13.13,0,0,1,0,.06,5.13,5.13,0,0,1-3.2,3.35.3.3,0,0,1-.13,0l-5.15.15h-.06a4.73,4.73,0,0,1-3-1.83c-.55,3-1.11,6.1-1.44,8A.51.51,0,0,1,36.81,30Zm2.2-9.8a4,4,0,0,0,2.82,2.26l5-.14a4.22,4.22,0,0,0,2.46-2.63l1.39-8.46c.14-.94-1.3-1.95-1.9-1.95H43.35A5,5,0,0,0,40.52,12C40.43,12.39,39.75,16.1,39,20.17Z"/></g><path id="_Path_2" data-name="&lt;Path&gt;" class="cls-2" d="M30.05,6.14a1.4,1.4,0,1,1-1.39-1.4A1.4,1.4,0,0,1,30.05,6.14Z"/><circle id="_Path_3" data-name="&lt;Path&gt;" class="cls-2" cx="25.49" cy="1.4" r="1.4"/><path id="_Path_4" data-name="&lt;Path&gt;" class="cls-2" d="M23.71,6.14a1.4,1.4,0,1,1-1.39-1.4A1.4,1.4,0,0,1,23.71,6.14Z"/><circle id="_Path_5" data-name="&lt;Path&gt;" class="cls-2" cx="28.49" cy="25.16" r="1.4"/><circle id="_Path_6" data-name="&lt;Path&gt;" class="cls-2" cx="25.49" cy="20.7" r="1.4"/><circle id="_Path_7" data-name="&lt;Path&gt;" class="cls-2" cx="19.32" cy="20.7" r="1.15"/><path id="_Path_8" data-name="&lt;Path&gt;" class="cls-2" d="M23.56,25.16A1.16,1.16,0,1,1,22.41,24,1.15,1.15,0,0,1,23.56,25.16Z"/><circle id="_Path_9" data-name="&lt;Path&gt;" class="cls-2" cx="19.24" cy="30.05" r="1.15"/><circle id="_Path_10" data-name="&lt;Path&gt;" class="cls-2" cx="16.25" cy="25.16" r="0.89"/><circle id="_Path_11" data-name="&lt;Path&gt;" class="cls-2" cx="5.25" cy="15.8" r="0.89"/><circle id="_Path_12" data-name="&lt;Path&gt;" class="cls-2" cx="6.85" cy="11.03" r="0.89"/><path id="_Path_13" data-name="&lt;Path&gt;" class="cls-2" d="M10.78,6.14a.9.9,0,1,1-.89-.9A.89.89,0,0,1,10.78,6.14Z"/><path id="_Path_14" data-name="&lt;Path&gt;" class="cls-2" d="M13.86,1.5A.9.9,0,1,1,13,.61.9.9,0,0,1,13.86,1.5Z"/><circle id="_Path_15" data-name="&lt;Path&gt;" class="cls-2" cx="13.05" cy="30.05" r="0.89"/><circle id="_Path_16" data-name="&lt;Path&gt;" class="cls-2" cx="9.97" cy="25.16" r="0.89"/><circle id="_Path_17" data-name="&lt;Path&gt;" class="cls-2" cx="6.81" cy="20.7" r="0.89"/><circle id="_Path_18" data-name="&lt;Path&gt;" class="cls-2" cx="5.12" cy="25.16" r="0.46"/><circle id="_Path_19" data-name="&lt;Path&gt;" class="cls-2" cx="2.24" cy="20.7" r="0.46"/><path id="_Path_20" data-name="&lt;Path&gt;" class="cls-2" d="M.92,15.72a.46.46,0,0,1-.46.46.47.47,0,0,1,0-.93A.46.46,0,0,1,.92,15.72Z"/><circle id="_Path_21" data-name="&lt;Path&gt;" class="cls-2" cx="2.11" cy="11.04" r="0.46"/><circle id="_Path_22" data-name="&lt;Path&gt;" class="cls-2" cx="5.23" cy="6.19" r="0.46"/><circle id="_Path_23" data-name="&lt;Path&gt;" class="cls-2" cx="13" cy="20.7" r="1.15"/><circle id="_Path_24" data-name="&lt;Path&gt;" class="cls-2" cx="9.76" cy="15.81" r="1.15"/><path id="_Path_25" data-name="&lt;Path&gt;" class="cls-2" d="M14.12,11A1.16,1.16,0,1,1,13,9.87,1.15,1.15,0,0,1,14.12,11Z"/><circle id="_Path_26" data-name="&lt;Path&gt;" class="cls-2" cx="16.17" cy="6.14" r="1.15"/><circle id="_Path_27" data-name="&lt;Path&gt;" class="cls-2" cx="19.2" cy="1.42" r="1.15"/><circle id="_Path_28" data-name="&lt;Path&gt;" class="cls-2" cx="16.09" cy="15.81" r="1.4"/><circle id="_Path_29" data-name="&lt;Path&gt;" class="cls-2" cx="19.2" cy="11.03" r="1.4"/><circle id="_Path_30" data-name="&lt;Path&gt;" class="cls-2" cx="25.49" cy="30.05" r="1.4"/><rect id="_Rectangle_" data-name="&lt;Rectangle&gt;" class="cls-2" x="16.79" y="15.32" width="20.67" height="0.86"/><rect id="_Rectangle_2" data-name="&lt;Rectangle&gt;" class="cls-2" x="20.23" y="10.6" width="6.5" height="0.86"/><polygon id="_Path_31" data-name="&lt;Path&gt;" class="cls-2" points="29.52 16.13 25.95 10.6 26.95 10.6 30.52 16.13 29.52 16.13"/><rect id="_Rectangle_3" data-name="&lt;Rectangle&gt;" class="cls-2" x="26.58" y="20.27" width="3.32" height="0.86"/><polygon id="_Path_32" data-name="&lt;Path&gt;" class="cls-2" points="29.1 21.13 32.07 16.13 32.92 16.13 29.96 21.13 29.1 21.13"/></g></g></g></svg>