<svg xmlns="http://www.w3.org/2000/svg" viewBox="0 0 51.47 80"><defs><style>.cls-1{fill:#f78f20;}.cls-1,.cls-2{fill-rule:evenodd;}.cls-2{fill:#0769b3;}</style></defs><title>Qiwi</title><g id="Layer_2" data-name="Layer 2"><g id="Qiwi"><path class="cls-1" d="M43,36.41a8.54,8.54,0,0,0-2.73-4.77,7.07,7.07,0,0,0-1.65-1.2,6.18,6.18,0,0,0-1-.45,5.74,5.74,0,0,0-2.73-.45,5.23,5.23,0,0,1,2.27-.29,10.7,10.7,0,0,1,1.93.46l1.54.85a18.92,18.92,0,0,0-.63-12.11A21.54,21.54,0,0,0,34.2,9.93,19.48,19.48,0,0,0,24.71,5a15.81,15.81,0,0,0-6.25.06,13.92,13.92,0,0,0-4.83,2.33,14.29,14.29,0,0,0-3.35,3.86,7.68,7.68,0,0,0-.69,1.14c-.17.43-.37.84-.56,1.25a17.66,17.66,0,0,0-.8,2.78A18,18,0,0,0,8,22.89a21.38,21.38,0,0,0,1.54,5.62c.41.8.79,1.64,1.25,2.39A22.48,22.48,0,0,0,12.26,33a21.84,21.84,0,0,0,3.81,3.36,20.87,20.87,0,0,0,10.8,3.58c.09-.19-.12-.56-.17-.8s-.1-.59-.17-.85a7.79,7.79,0,0,1,0-1.93c.18,0,.17.27.28.39s.14.29.29.34a6,6,0,0,0,.51.8,7.07,7.07,0,0,0,1.31,1.31,9.34,9.34,0,0,0,1.53,1.08,9.09,9.09,0,0,0,1.71.85,13.51,13.51,0,0,0,4.14,1c1.52.21,3,.47,4.38.8a16.79,16.79,0,0,1,3.64,1.53,17.23,17.23,0,0,1,1.59,1,5.19,5.19,0,0,1,.74.57c.3.12.43.41.73.51a24.34,24.34,0,0,1,2.51,2.67,12.25,12.25,0,0,1,1,1.65c.21.23.27.61.46.85,0,.33.32.72,0,1-.42.06-.33-.38-.51-.57a4.06,4.06,0,0,1-.4-.68c-.66-.7-1.26-1.46-2-2.1a15.11,15.11,0,0,0-2.27-1.76,17.29,17.29,0,0,0-5.57-2.56,20.76,20.76,0,0,0-7.21-.68,15.79,15.79,0,0,0-3.36.74,32.47,32.47,0,0,1-3.46.56,28.64,28.64,0,0,1-13.3-2.5,20.6,20.6,0,0,1-5-3.12,15.88,15.88,0,0,1-2.11-2,13.8,13.8,0,0,1-1.7-2.33A22.86,22.86,0,0,1,3,33.12a24.31,24.31,0,0,1-1-3,14.82,14.82,0,0,1-.68-3.41c0-.34-.18-1-.17-1.53,0-.05.06-.09.05-.17a5.7,5.7,0,0,1,0-1.65,17.77,17.77,0,0,1,.4-3.58,21.09,21.09,0,0,1,.85-3.18c.34-1,.79-1.94,1.2-2.9.27-.41.48-.88.73-1.31s.55-.78.74-1.25c.22-.12.26-.42.46-.57s.32-.35.4-.62a2.1,2.1,0,0,0,.45-.57,2,2,0,0,0,.46-.57c.67-.67,1.28-1.41,2-2s1.49-1.24,2.22-1.88c.46-.22.8-.57,1.25-.79s.85-.48,1.19-.8A29.78,29.78,0,0,1,16.3,2,23.33,23.33,0,0,1,19.25.89,24.21,24.21,0,0,1,26.36,0c.1,0,.14-.1.17,0a22.36,22.36,0,0,1,12.1,3.81A21.4,21.4,0,0,1,46,12.32,22.36,22.36,0,0,1,47.9,25.56,27.05,27.05,0,0,1,46,31.64,27.51,27.51,0,0,1,44.6,34.2a7.5,7.5,0,0,1-.8,1.19,2.3,2.3,0,0,1-.39.57,3.11,3.11,0,0,1-.23.28s0,.1-.11.12S43,36.47,43,36.41Z"/><path class="cls-1" d="M41.65,37.89c-.67-.26-.78-1.08-1.08-1.71a1.26,1.26,0,0,1,0-.79s0-.06.11-.06.33,0,.57.12a3.55,3.55,0,0,1,.68,1.42C41.94,37.31,42,37.78,41.65,37.89Z"/><path class="cls-1" d="M36.64,36.92c0-.06.06,0,.06,0,1,.13,1.47.81,1.54,1.88a1.22,1.22,0,0,1-1,1.08,1.75,1.75,0,0,1-1.65-2.5C35.89,37.16,36.08,36.86,36.64,36.92Z"/><path class="cls-2" d="M9.37,74.77a3.74,3.74,0,0,0,.91,1.65,4.55,4.55,0,0,0,1.42,1.14,6.92,6.92,0,0,0,1.76.79,4.35,4.35,0,0,0,1,.29c.27.14.61.22.63.62s-.34.65-.74.74a6.61,6.61,0,0,1-1.25-.23,10.69,10.69,0,0,1-2.28-.62,10.54,10.54,0,0,1-3.52-2.28c-.2-.33-.47-.59-.68-.91s-.35-.7-.57-1a7,7,0,0,1-3.86-1.87,8.16,8.16,0,0,1-2-4A11.82,11.82,0,0,1,.39,63.8,6.89,6.89,0,0,1,7,58.46a8.57,8.57,0,0,1,2.73.46,6.5,6.5,0,0,1,2.21,1.42.41.41,0,0,1,.12.11c.13.19.44.45.62.68,0,0,0,.12.06.17s.17.14.23.23,0,.12.05.17a2.91,2.91,0,0,1,.17.28c0,.05.1.08.12.12s.14.41.22.62a5.89,5.89,0,0,1,.29.63,10.79,10.79,0,0,1,.45,2.21,10.11,10.11,0,0,1-1.08,5.86,6.33,6.33,0,0,1-1.59,2A8.63,8.63,0,0,1,9.37,74.77ZM6.64,60.45a4.5,4.5,0,0,0-1.19.4,4,4,0,0,0-.8.74c-.33.18-.42.6-.68.85a9.6,9.6,0,0,0-.57,1.87,13.86,13.86,0,0,0-.23,2.28,9.57,9.57,0,0,0,1.19,5.06A5.1,5.1,0,0,0,6.07,73c.4,0,.71.16,1.14.17.23-.09.64,0,.79-.17.35,0,.44-.21.74-.23a1.83,1.83,0,0,1,.57-.4c.2-.23.4-.46.62-.68s.18-.39.35-.51a11.92,11.92,0,0,0,.45-7.56,6.84,6.84,0,0,0-1-2,5.54,5.54,0,0,0-1.47-1.08,5.1,5.1,0,0,0-1.48-.17s-.07,0-.06.06Z"/><path class="cls-2" d="M18.63,58.86a22.21,22.21,0,0,1,2.73.06,1.57,1.57,0,0,1,.11.91c.06,4.17,0,8.63,0,12.89,0,.35,0,.69,0,1a1.55,1.55,0,0,1-.11.85,7,7,0,0,1-1.48.06,3.31,3.31,0,0,1-1.42-.12c-.1-5-.1-10.47,0-15.51A.29.29,0,0,1,18.63,58.86Z"/><path class="cls-2" d="M25.45,58.86h2.67a3.31,3.31,0,0,1,.4,1.31c.8,3.06,1.6,6.13,2.33,9.26.17,0,.12-.19.17-.29s0-.26.11-.34c0-.25.19-.38.17-.68.21-.38.27-.91.46-1.3.23-.93.53-1.78.79-2.68s.59-1.75.8-2.72a24.91,24.91,0,0,1,.91-2.56h1.13c.41.76.56,1.79.91,2.61s.56,1.76.8,2.67c.56,1.77,1.14,3.53,1.65,5.35a10,10,0,0,0,.39-1.31,9.63,9.63,0,0,1,.34-1.31c.44-1.79.86-3.62,1.37-5.34a17.75,17.75,0,0,1,.68-2.61,9.09,9.09,0,0,1,2.33,0,5.35,5.35,0,0,1-.45,2c-.11.73-.38,1.29-.51,2-.41,1.29-.72,2.66-1.14,3.93s-.75,2.62-1.08,4c-.22.64-.38,1.33-.57,2a9.43,9.43,0,0,1-.63,1.88H37.89c-.4-.71-.55-1.69-.9-2.44-.8-2.51-1.68-4.92-2.45-7.45-.27.28-.26.83-.45,1.19a11.42,11.42,0,0,1-.4,1.25c-.22.87-.55,1.61-.74,2.5a26.3,26.3,0,0,0-.79,2.51c-.34.74-.46,1.7-.86,2.38a9,9,0,0,1-1.59.06c-.4-.45-.44-1.27-.68-1.88s-.33-1.34-.57-1.93c-.3-1.38-.77-2.61-1.08-4s-.76-2.61-1.14-3.92c-.2-.63-.36-1.3-.56-1.93s-.56-1.3-.4-2.05A.42.42,0,0,1,25.45,58.86Z"/><path class="cls-2" d="M47.9,58.86a22,22,0,0,1,2.72.06,5.81,5.81,0,0,1,.12,1.87V72.72a5.87,5.87,0,0,1-.12,1.88,16.52,16.52,0,0,1-2.27.06c-.22,0-.48,0-.62-.12a5.79,5.79,0,0,1-.12-1.87V60.85A6,6,0,0,1,47.73,59,.42.42,0,0,1,47.9,58.86Z"/></g></g></svg>