<svg xmlns="http://www.w3.org/2000/svg" xmlns:xlink="http://www.w3.org/1999/xlink" viewBox="0 0 80 16.83"><defs><style>.cls-1{fill:none;}.cls-2{fill:#fcee23;}.cls-3{clip-path:url(#clip-path);}.cls-4{fill-rule:evenodd;}.cls-5{fill:#231f20;}</style><clipPath id="clip-path" transform="translate(0 -0.04)"><rect class="cls-1" width="62.66" height="17.29"/></clipPath></defs><title>Raiffeisen-Polbank copy 2</title><g id="Layer_2" data-name="Layer 2"><g id="Raiffeisen-Polbank_copy_2" data-name="Raiffeisen-Polbank copy 2"><rect y="0.39" width="16.44" height="16.44"/><rect class="cls-2" x="0.48" y="0.87" width="15.48" height="15.49"/><g class="cls-3"><path class="cls-4" d="M1.3,13.26l2,2.06,4.73-4.8,4.89,4.9,2.05-2L10.15,8.55l.93-.9V5.73l.58-.5V6.74l.76.61L14.66,5.1l.73.56c.42-1.58-2-5.15-4.08-3.17L8.93,4.85l.48.58L8.21,6.61,7,5.46l.61-.56L5.05,2.39c-2-1.61-4,.84-4,3.24L1.72,5,3.91,7.39l.78-.65V5.29l.49.37V7.55l1,1Z" transform="translate(0 -0.04)"/></g><path class="cls-5" d="M20.23,5.46V8.28H18.14V.53h2.53c2.11,0,3.16.77,3.16,2.29A2.29,2.29,0,0,1,22.52,4.9l2.25,3.38H22.4L20.76,5.46Zm0-1.57h.39c.73,0,1.1-.33,1.1-1s-.36-.8-1.08-.8h-.41Z" transform="translate(0 -0.04)"/><path class="cls-5" d="M24.87,6.19V4.54h3V6.19Z" transform="translate(0 -0.04)"/><path class="cls-5" d="M34.54,3a2.59,2.59,0,0,1-.76,2,3.1,3.1,0,0,1-2.17.71H31V8.28H28.93V.53h2.68a3.32,3.32,0,0,1,2.2.64A2.3,2.3,0,0,1,34.54,3ZM31,4h.38a1.09,1.09,0,0,0,.75-.26A1,1,0,0,0,32.43,3c0-.53-.29-.79-.87-.79H31Z" transform="translate(0 -0.04)"/><path class="cls-5" d="M39.28,2.17a2.78,2.78,0,0,1,.51,0l.12,0-.19,2a2.6,2.6,0,0,0-.7-.07,1.4,1.4,0,0,0-1,.31,1.25,1.25,0,0,0-.3.9V8.28H35.66v-6H37.2l.32,1h.1a2.21,2.21,0,0,1,.72-.77A1.78,1.78,0,0,1,39.28,2.17Z" transform="translate(0 -0.04)"/><path class="cls-5" d="M45.26,8.28h-5V7.09l2.48-3.23H40.43V2.28h4.71V3.56L42.76,6.69h2.5Z" transform="translate(0 -0.04)"/><path class="cls-5" d="M49.14,8.38a3.19,3.19,0,0,1-2.33-.8A3,3,0,0,1,46,5.31,3.27,3.27,0,0,1,46.75,3,3.41,3.41,0,0,1,51,2.88a2.69,2.69,0,0,1,.74,2v.92h-3.7a1,1,0,0,0,.36.79,1.46,1.46,0,0,0,1,.29,5.13,5.13,0,0,0,1-.1,4.61,4.61,0,0,0,1-.36V7.94a3.72,3.72,0,0,1-1,.35A7.41,7.41,0,0,1,49.14,8.38ZM49,3.58a.81.81,0,0,0-.61.23,1,1,0,0,0-.29.72H49.9a1,1,0,0,0-.25-.69A.79.79,0,0,0,49,3.58Z" transform="translate(0 -0.04)"/><path class="cls-5" d="M55,8.28H53V0H55Z" transform="translate(0 -0.04)"/><path class="cls-5" d="M59.35,8.38A3.19,3.19,0,0,1,57,7.58a3,3,0,0,1-.83-2.27A3.27,3.27,0,0,1,57,3a3.41,3.41,0,0,1,4.29-.1,2.69,2.69,0,0,1,.74,2v.92h-3.7a1,1,0,0,0,.36.79,1.46,1.46,0,0,0,1,.29,5.13,5.13,0,0,0,1-.1,4.88,4.88,0,0,0,1-.36V7.94a3.79,3.79,0,0,1-1,.35A7.41,7.41,0,0,1,59.35,8.38Zm-.12-4.8a.81.81,0,0,0-.61.23,1,1,0,0,0-.29.72h1.78a1,1,0,0,0-.25-.69A.79.79,0,0,0,59.23,3.58Z" transform="translate(0 -0.04)"/><path class="cls-5" d="M68.32,8.28l-.68-2.86-.16-.87-.1-.69h0c-.18,1-.29,1.61-.35,1.87l-.61,2.55H64.21l-1.64-6h2l.49,2.3a12.78,12.78,0,0,1,.27,2h0a14.12,14.12,0,0,1,.29-1.85l.56-2.42h2.29l.51,2.45a17.61,17.61,0,0,1,.3,1.82h0c0-.27,0-.6.1-1a8.12,8.12,0,0,1,.17-1l.52-2.3h2l-1.65,6Z" transform="translate(0 -0.04)"/><path class="cls-5" d="M18.67,12.82h.64a1.45,1.45,0,0,1,1,.3,1,1,0,0,1,.35.78,1.08,1.08,0,0,1-.26.69,1.34,1.34,0,0,1-.73.42l.81,1.55H19.9l-.79-1.51h-.25l-.23,1.52h-.51Zm.44.46-.18,1.31a1.52,1.52,0,0,0,.89-.2.61.61,0,0,0,.27-.49.52.52,0,0,0-.13-.36.52.52,0,0,0-.3-.21A1.92,1.92,0,0,0,19.11,13.28Z" transform="translate(0 -0.04)"/><path class="cls-5" d="M23.16,14.21h.5l-.35,2.35h-.5l0-.25a1.1,1.1,0,0,1-.75.32,1.09,1.09,0,0,1-.81-.36,1.24,1.24,0,0,1,0-1.75,1.19,1.19,0,0,1,.86-.37,1,1,0,0,1,.91.57ZM23,15.34a.74.74,0,0,0-.23-.54.7.7,0,0,0-.53-.23.73.73,0,0,0-.56.25.85.85,0,0,0-.23.6.81.81,0,0,0,.22.57.76.76,0,0,0,1.11,0A.88.88,0,0,0,23,15.34Z" transform="translate(0 -0.04)"/><path class="cls-5" d="M24.35,14.21h.5l-.34,2.35H24Zm.1-1.05a.31.31,0,0,1,.32-.32.33.33,0,0,1,.23.09.32.32,0,0,1,.09.23.31.31,0,0,1-.32.32.29.29,0,0,1-.23-.1A.31.31,0,0,1,24.45,13.16Z" transform="translate(0 -0.04)"/><path class="cls-5" d="M27.2,12.75l-.15.48a1,1,0,0,0-.32-.07c-.13,0-.2.08-.23.24l-.12.81H27l-.08.47h-.58L26,16.56h-.5l.28-1.88h-.46l.07-.47h.46l.14-.88a.79.79,0,0,1,.24-.49.71.71,0,0,1,.5-.18A1.38,1.38,0,0,1,27.2,12.75Z" transform="translate(0 -0.04)"/><path class="cls-5" d="M29.2,12.75l-.15.48a1,1,0,0,0-.32-.07c-.13,0-.2.08-.23.24l-.12.81H29l-.08.47h-.58L28,16.56h-.5l.29-1.88h-.47l.07-.47h.47l.13-.88a.79.79,0,0,1,.24-.49.73.73,0,0,1,.5-.18A1.38,1.38,0,0,1,29.2,12.75Z" transform="translate(0 -0.04)"/><path class="cls-5" d="M31.47,15.51H29.61a.89.89,0,0,0,.22.55.71.71,0,0,0,.5.18,1,1,0,0,0,.68-.37l.29.29a1.2,1.2,0,0,1-1,.47,1.17,1.17,0,0,1-.86-.33,1.15,1.15,0,0,1-.34-.86,1.27,1.27,0,0,1,.37-.91,1.23,1.23,0,0,1,.9-.38,1,1,0,0,1,.77.34,1.1,1.1,0,0,1,.31.8A1.55,1.55,0,0,1,31.47,15.51Zm-1.83-.37H31a.63.63,0,0,0-.66-.58.75.75,0,0,0-.46.15A.76.76,0,0,0,29.64,15.14Z" transform="translate(0 -0.04)"/><path class="cls-5" d="M32.18,14.21h.5l-.33,2.35h-.5Zm.1-1.05a.29.29,0,0,1,.1-.23.29.29,0,0,1,.22-.09.31.31,0,0,1,.32.32.33.33,0,0,1-.09.23.32.32,0,0,1-.23.09.27.27,0,0,1-.22-.1A.28.28,0,0,1,32.28,13.16Z" transform="translate(0 -0.04)"/><path class="cls-5" d="M33,16.18l.27-.35a1.33,1.33,0,0,0,.31.26.54.54,0,0,0,.31.09.35.35,0,0,0,.23-.07.19.19,0,0,0,.1-.16c0-.11-.1-.22-.31-.33a1.56,1.56,0,0,1-.44-.34.68.68,0,0,1-.12-.4.64.64,0,0,1,.23-.51.74.74,0,0,1,.55-.22,1.29,1.29,0,0,1,.71.31l-.28.35a.88.88,0,0,0-.47-.21.32.32,0,0,0-.21.08.24.24,0,0,0-.08.2.23.23,0,0,0,.07.17,1.56,1.56,0,0,0,.31.21,1,1,0,0,1,.36.29.6.6,0,0,1,.12.38.61.61,0,0,1-.23.5.84.84,0,0,1-.57.2.93.93,0,0,1-.44-.11A1.4,1.4,0,0,1,33,16.18Z" transform="translate(0 -0.04)"/><path class="cls-5" d="M37.42,15.51H35.56a.9.9,0,0,0,.23.55.67.67,0,0,0,.49.18,1,1,0,0,0,.68-.37l.29.29a1.19,1.19,0,0,1-2.16-.72,1.23,1.23,0,0,1,.37-.91,1.19,1.19,0,0,1,.89-.38,1,1,0,0,1,.77.34,1.11,1.11,0,0,1,.32.8A1.5,1.5,0,0,1,37.42,15.51Zm-1.82-.37H37a.61.61,0,0,0-.65-.58.69.69,0,0,0-.72.58Z" transform="translate(0 -0.04)"/><path class="cls-5" d="M37.72,16.56l.34-2.35h.5l-.06.42a2.47,2.47,0,0,1,.43-.36.82.82,0,0,1,.43-.12.6.6,0,0,1,.46.22.64.64,0,0,1,.2.47V15l-.25,1.61h-.49l.22-1.49a.25.25,0,0,0,0-.1.4.4,0,0,0-.11-.29.33.33,0,0,0-.27-.11.62.62,0,0,0-.49.28,1.59,1.59,0,0,0-.28.74l-.14,1Z" transform="translate(0 -0.04)"/><path class="cls-5" d="M42.77,12.82h.62a1.41,1.41,0,0,1,.85.25.81.81,0,0,1,.31.66,1,1,0,0,1-.6.89,1,1,0,0,1,.6.9.89.89,0,0,1-.43.76,2,2,0,0,1-1.14.28h-.77Zm.2,2-.19,1.27h0a3.63,3.63,0,0,0,.7-.05.69.69,0,0,0,.35-.2.53.53,0,0,0,.14-.37.59.59,0,0,0-.21-.44,1.06,1.06,0,0,0-.76-.21Zm.24-1.56L43,14.39a1.21,1.21,0,0,0,.76-.18.54.54,0,0,0,.22-.43.39.39,0,0,0-.19-.38A1.23,1.23,0,0,0,43.21,13.28Z" transform="translate(0 -0.04)"/><path class="cls-5" d="M47.23,14.21h.5l-.34,2.35h-.51l0-.25a1.05,1.05,0,0,1-1.55,0,1.21,1.21,0,0,1-.35-.86,1.25,1.25,0,0,1,.36-.89,1.19,1.19,0,0,1,.87-.37,1,1,0,0,1,.91.57Zm-.12,1.13a.74.74,0,0,0-.23-.54.74.74,0,0,0-1.09,0,.85.85,0,0,0-.23.6.77.77,0,0,0,.22.57.75.75,0,0,0,1.1,0A.89.89,0,0,0,47.11,15.34Z" transform="translate(0 -0.04)"/><path class="cls-5" d="M48,16.56l.34-2.35h.5l-.05.42a1.91,1.91,0,0,1,.43-.36.77.77,0,0,1,.43-.12.58.58,0,0,1,.45.22.64.64,0,0,1,.2.47V15l-.25,1.61h-.49l.22-1.49a.25.25,0,0,0,0-.1.4.4,0,0,0-.11-.29.33.33,0,0,0-.27-.11.62.62,0,0,0-.49.28,1.71,1.71,0,0,0-.28.74l-.14,1Z" transform="translate(0 -0.04)"/><path class="cls-5" d="M51.26,12.66h.5l-.39,2.64,1-1.09H53l-1,1.18.89,1.17h-.62l-.87-1.13-.16,1.13h-.51Z" transform="translate(0 -0.04)"/><path class="cls-5" d="M55.6,12.82h.79a1.14,1.14,0,0,1,.83.31,1,1,0,0,1,.33.77,1.08,1.08,0,0,1-.36.79A1.57,1.57,0,0,1,56,15h-.26l-.23,1.52h-.5Zm.44.45-.2,1.32a1.49,1.49,0,0,0,.9-.21.59.59,0,0,0,.27-.49.6.6,0,0,0-.42-.58A2.34,2.34,0,0,0,56,13.27Z" transform="translate(0 -0.04)"/><path class="cls-5" d="M57.73,15.44a1.31,1.31,0,0,1,2.19-.94,1.15,1.15,0,0,1,.35.85,1.2,1.2,0,0,1-.37.91,1.27,1.27,0,0,1-.93.36,1.24,1.24,0,0,1-.89-.33A1.14,1.14,0,0,1,57.73,15.44ZM59,14.66a.78.78,0,0,0-.58.23.74.74,0,0,0-.23.54.66.66,0,0,0,.19.5.78.78,0,0,0,.53.19.84.84,0,0,0,.59-.21.66.66,0,0,0,.23-.54.73.73,0,0,0-.2-.51A.76.76,0,0,0,59,14.66Z" transform="translate(0 -0.04)"/><path class="cls-5" d="M61.27,12.66h.51l-.58,3.9h-.5Z" transform="translate(0 -0.04)"/><path class="cls-5" d="M61.9,16.18l.28-.35a1.31,1.31,0,0,0,.3.26.56.56,0,0,0,.31.09.36.36,0,0,0,.24-.07.22.22,0,0,0,.1-.16c0-.11-.11-.22-.32-.33a1.49,1.49,0,0,1-.43-.34.68.68,0,0,1-.12-.4.67.67,0,0,1,.22-.51.77.77,0,0,1,.55-.22,1.35,1.35,0,0,1,.72.31l-.28.35A.91.91,0,0,0,63,14.6a.29.29,0,0,0-.21.08.25.25,0,0,0-.09.2.25.25,0,0,0,.08.17,1.56,1.56,0,0,0,.31.21,1,1,0,0,1,.35.29.55.55,0,0,1,.13.38.64.64,0,0,1-.23.5.84.84,0,0,1-.57.2,1,1,0,0,1-.45-.11A1.69,1.69,0,0,1,61.9,16.18Z" transform="translate(0 -0.04)"/><path class="cls-5" d="M64.58,12.66h.51L64.7,15.3l1-1.09h.65l-1,1.18.89,1.17h-.61l-.87-1.13-.17,1.13H64Z" transform="translate(0 -0.04)"/><path class="cls-5" d="M68.81,14.21h.5L69,16.56h-.5l0-.25a1.08,1.08,0,0,1-.74.32,1.09,1.09,0,0,1-.81-.36,1.21,1.21,0,0,1-.35-.86,1.25,1.25,0,0,1,.36-.89,1.19,1.19,0,0,1,.87-.37,1,1,0,0,1,.91.57Zm-.12,1.13a.74.74,0,0,0-.23-.54.7.7,0,0,0-.54-.23.73.73,0,0,0-.55.25.85.85,0,0,0-.23.6.77.77,0,0,0,.22.57.73.73,0,0,0,.55.23.75.75,0,0,0,.56-.25A.93.93,0,0,0,68.69,15.34Z" transform="translate(0 -0.04)"/><path class="cls-5" d="M74,13.32l-.44.28a.83.83,0,0,0-.67-.36.66.66,0,0,0-.46.17.5.5,0,0,0-.2.39.47.47,0,0,0,.14.33,2.87,2.87,0,0,0,.57.34,2,2,0,0,1,.65.45,1,1,0,0,1,.21.63,1,1,0,0,1-.38.8,1.25,1.25,0,0,1-.88.34,1.43,1.43,0,0,1-.77-.22,1.29,1.29,0,0,1-.52-.59l.48-.22a.9.9,0,0,0,.79.49.76.76,0,0,0,.52-.19.52.52,0,0,0,.22-.42.43.43,0,0,0-.14-.33,2.36,2.36,0,0,0-.58-.34,1.81,1.81,0,0,1-.64-.45.91.91,0,0,1-.21-.62,1,1,0,0,1,.35-.78,1.2,1.2,0,0,1,.84-.32A1.26,1.26,0,0,1,74,13.32Z" transform="translate(0 -0.04)"/><path class="cls-5" d="M74.26,16.22a.38.38,0,0,1,.12-.28.36.36,0,0,1,.27-.12.36.36,0,0,1,.28.12.38.38,0,0,1,.12.28.41.41,0,0,1-.11.28.4.4,0,0,1-.29.12.36.36,0,0,1-.27-.12A.36.36,0,0,1,74.26,16.22Z" transform="translate(0 -0.04)"/><path class="cls-5" d="M77.68,12.68l1,3.88h-.5L78,15.7H76.49l-.49.86h-.57Zm-.17,1.25-.78,1.36h1.14Z" transform="translate(0 -0.04)"/><path class="cls-5" d="M79.21,16.22a.41.41,0,0,1,.11-.28.4.4,0,1,1,.56.56.36.36,0,0,1-.28.12.38.38,0,0,1-.28-.12A.39.39,0,0,1,79.21,16.22Z" transform="translate(0 -0.04)"/></g></g></svg>