<svg id="Layer_1" data-name="Layer 1" xmlns="http://www.w3.org/2000/svg" viewBox="0 0 80 21.39"><defs><style>.cls-1{fill:#231f20;}.cls-1,.cls-2{fill-rule:evenodd;}.cls-2{fill:#fff100;}</style></defs><title>R_Przelew</title><polygon class="cls-1" points="0 0.36 21.03 0.36 21.03 21.39 0 21.39 0 0.36"/><polygon class="cls-2" points="0.61 0.97 20.42 0.97 20.42 20.78 0.61 20.78 0.61 0.97"/><path class="cls-1" d="M11.66,56.09l2.58,2.63,6-6.14,6.26,6.27,2.62-2.6L23,50.06l1.19-1.15V46.45l.75-.63v1.93l1,.79,2.88-2.88.92.71c.54-2-2.61-6.59-5.22-4l-3,3,.62.75-1.55,1.51L19,46.12l.79-.71-3.33-3.22c-2.51-2.06-5.08,1.08-5.17,4.14l.91-.76,2.8,3,1-.84V45.89l.62.47v2.42L17.84,50l-6.18,6.09Z" transform="translate(-10 -39.31)"/><path class="cls-1" d="M36.4,42.19V44h.79a.94.94,0,0,0,0-1.82Zm-2.23-1.81v8.26H36.4V46l1.9,2.69h2.63l-2.34-3.31a2.58,2.58,0,0,0-1.15-4.95Zm10.31,4.13a1.24,1.24,0,1,1-1.32,1.24,1.29,1.29,0,0,1,1.32-1.24ZM44,42.68a2.87,2.87,0,0,1,1.65.53V42.9h2.18v5.74h-2.2v-.35a2.86,2.86,0,0,1-1.65.52,3.07,3.07,0,0,1,0-6.13Zm5,.22h2.32v5.74H49V42.9Zm1.16-3.28a1.23,1.23,0,1,1-1.23,1.23,1.23,1.23,0,0,1,1.23-1.23Zm17.6,3.28h2.32v5.74H67.76V42.9Zm1.15-3.28a1.23,1.23,0,1,1-1.22,1.23,1.24,1.24,0,0,1,1.22-1.23ZM51.75,42.9v1.82h.8v3.91h2.24V44.72h2.1v3.91h2.32V44.7h1.44V42.93H59.14V41.65c0-.47,1.06-.66,1.44-.28V39.5c-2.13-.67-3.85.53-3.84,2.39v1h-2V41.65c0-.47.94-.66,1.49-.28V39.5c-1.85-.54-3.83.35-3.81,2.38v1ZM64,48.8c2,0,2.72-.84,3.15-2h-2a1.17,1.17,0,0,1-2.18-.63h4.26c0-2.33-1.24-3.43-3.22-3.43a3,3,0,0,0-3.22,3.09,3.1,3.1,0,0,0,3.22,3Zm-.75-4c0-.7,1.55-.7,1.65,0Zm16.53,4c2,0,2.74-.84,3.17-2h-2a1.17,1.17,0,0,1-2.18-.63H83c0-2.33-1.23-3.43-3.22-3.43a3,3,0,0,0-3.22,3.09,3.1,3.1,0,0,0,3.22,3Zm-.75-4c0-.7,1.55-.7,1.65,0ZM75.92,43l-.68,1.39c-.86-.27-1.7-.22-1.67,0s-.11.42,1.23.61c2,.32,1.84,4-1.52,3.76A5,5,0,0,1,71,48.13l.75-1.49c1.05.52,2.06.82,2.14.3s-1.1-.42-1.82-1c-1.29-.8-.56-3.27,1.56-3.29a6.12,6.12,0,0,1,2.3.32Zm7.92-.11v5.74H86V45.13c.06-.87,1.79-1,1.8,0v3.51H90V45c0-2-2.17-3-4.08-1.71V42.9ZM35.45,52.15,34,60.66h4.09C40.86,60.66,42,57.21,40,56c1.68-1.56.82-3.9-1-3.93l-3.59,0Zm1.66,5.08-.29,1.41h1c1.08,0,.95-1.41.33-1.41Zm.48-3.06-.24,1.14h.29c.87,0,1.38-1.15.33-1.15ZM41,60.67h2.48l.75-1.49H47l.42,1.52h2.29l-2-8.5H45.38L41,60.67Zm4-3.28h1.55l-.49-2.24L45,57.39Zm5.49,3.31h2.29l.58-5.33,3.28,5.31H59.1l1-8.52H57.84l-.65,5.33-3.28-5.36H51.54l-1,8.57Zm11.29-8.58-1.61,8.55h2.42l.65-3.19,2.17,3.19h3.18l-3.1-4.48,4-4.08H66.37l-2.71,3,.43-3Z" transform="translate(-10 -39.31)"/></svg>