<svg xmlns="http://www.w3.org/2000/svg" xmlns:xlink="http://www.w3.org/1999/xlink" viewBox="0 0 66.22 80"><defs><style>.cls-1{fill:#2a3795;}.cls-2{fill:url(#linear-gradient);}.cls-3{fill:#f47920;}.cls-4{fill:url(#linear-gradient-2);}.cls-5{fill:#fff;}.cls-10,.cls-11,.cls-5,.cls-6,.cls-7,.cls-8,.cls-9{fill-rule:evenodd;}.cls-6{fill:#c9252c;}.cls-7{fill:#cb4d2c;}.cls-8{fill:#c4161c;}.cls-9{fill:#a71c20;}.cls-10{fill:#cc612c;}.cls-11{fill:#b7161c;}.cls-12{fill:#4f264a;opacity:0.45;}.cls-13{fill:#fbb257;}.cls-14{fill:url(#linear-gradient-3);}</style><linearGradient id="linear-gradient" x1="11.03" y1="47.72" x2="54.58" y2="47.72" gradientUnits="userSpaceOnUse"><stop offset="0" stop-color="#cc612c"/><stop offset="1" stop-color="#743237"/></linearGradient><linearGradient id="linear-gradient-2" x1="7.44" y1="43.93" x2="34.36" y2="39.19" gradientUnits="userSpaceOnUse"><stop offset="0" stop-color="#ffdd7f"/><stop offset="1" stop-color="#f47920"/></linearGradient><linearGradient id="linear-gradient-3" x1="25.81" y1="14.27" x2="41.39" y2="29.86" gradientUnits="userSpaceOnUse"><stop offset="0" stop-color="#2a3795"/><stop offset="1" stop-color="#222a7e"/></linearGradient></defs><title>Rabobank</title><g id="Layer_2" data-name="Layer 2"><g id="Rabobank"><path class="cls-1" d="M39.18,75.74c-.28,1.8-1.21,2.74-2.32,2.74a1,1,0,0,1-1-1.26l.39-2.44a1.69,1.69,0,0,1,1.65-1.61C39,73.17,39.47,73.9,39.18,75.74Zm-3.81,3.58a2.62,2.62,0,0,0,1.69.63c2.49,0,3.92-1.8,4.31-4.13.5-2.88-.9-4.18-2.66-4.18a4.16,4.16,0,0,0-1.9.31l.68-4H35.42L33.36,79.81h1.56s.23-.49.47-.49Zm22.07-5c.32-1.79-.34-2.66-2.28-2.66A3.15,3.15,0,0,0,52.6,72.8l.06-1H50.74l-.15,1.48-1.12,6.52h2.11l.68-4.23C52.5,74.12,53.5,73,54.45,73s1,.61.88,1.52l-.92,5.29H56.5Zm8.78-2.64H63.76l-2.81,3h0L62,68H60L57.93,79.81H60l.21-1.18L60.64,76c1.09,0,1.71.12,2.19,2.3l.33,1.47h2.12s-.52-2.23-.87-3.1-.76-1.53-1.6-1.69ZM5.94,74.53a3.38,3.38,0,0,0,2.51-2.35C9,70,8,68.27,5.22,68.3H2L0,79.81H2.09l.83-4.62c1.93-.06,2.16.41,2.52,2.66l.33,2H7.94c-.25-1.19-.42-2.31-.63-3.21a2.51,2.51,0,0,0-1.48-2Zm.42-2.74a2,2,0,0,1-1.95,1.74H3.17l.64-3.63H4.93C6.26,69.89,6.52,70.77,6.36,71.79ZM15.81,74c.3-1.75-.63-2.35-2.51-2.35a4.65,4.65,0,0,0-3.37,1.11L10.65,74a3.07,3.07,0,0,1,2.27-.89c.85,0,.86.43.78.89l-.16,1c-3-.08-4.57.57-4.92,2.56-.29,1.62.93,2.41,2.3,2.41a2.66,2.66,0,0,0,2-.71.87.87,0,0,0,.65.64A2.4,2.4,0,0,0,15,79.71a11.37,11.37,0,0,1,.26-2.3Zm-2.48,2.12c-.34,2.38-.65,2.61-1.8,2.61-.78,0-1.07-.53-.94-1.24C10.77,76.51,11.5,76.09,13.33,76.09ZM49,74c.3-1.75-.63-2.35-2.51-2.35a4.65,4.65,0,0,0-3.37,1.11L43.82,74a3.07,3.07,0,0,1,2.27-.89c.85,0,.87.43.79.89l-.17,1c-3-.08-4.57.57-4.92,2.56-.28,1.62.93,2.41,2.3,2.41a2.66,2.66,0,0,0,2-.71.87.87,0,0,0,.65.64,2.39,2.39,0,0,0,1.41-.18,11.37,11.37,0,0,1,.26-2.3ZM46.5,76.09c-.34,2.38-.65,2.61-1.8,2.61-.78,0-1.07-.53-.94-1.24C44,76.51,44.67,76.09,46.5,76.09ZM20,80c2.49,0,3.92-1.8,4.31-4.13.5-2.88-.9-4.18-2.66-4.18a4.14,4.14,0,0,0-1.89.31l.68-4H18.37L16.31,79.81h1.56s.23-.49.45-.49A2.62,2.62,0,0,0,20,80Zm.87-6.78c1.07,0,1.52.72,1.27,2.57s-1.21,2.74-2.34,2.74a1,1,0,0,1-1-1.26l.4-2.44a1.69,1.69,0,0,1,1.63-1.61Zm4.32,3.29c.32-3,1.68-4.87,4.9-4.87,2.4,0,3.19,1.83,2.87,3.79C32.45,78.52,31.23,80,28.16,80A3,3,0,0,1,25.2,76.46Zm5.58-.93c.16-.83.32-2.45-1.11-2.45-1,0-1.86.65-2.26,2.94-.25,1.4,0,2.52,1.13,2.52C29.36,78.54,30.35,77.86,30.78,75.53Z"/><path class="cls-2" d="M51,37.13a11.51,11.51,0,0,1,2.2,3c1.69,3.44,1.07,7.23-2.3,10.54C47,54.46,40.46,56.79,32.82,56.79s-14.21-2.33-18.08-6.12c-3.37-3.31-4-7.1-2.3-10.54a11.64,11.64,0,0,1,2.19-3,12,12,0,0,0-2.7,3.51,10,10,0,0,0,2.36,11.45c4,3.89,10.16,6.23,18.59,6.23s14.66-2.41,18.45-6.23a10.1,10.1,0,0,0,2.34-11.55A11.84,11.84,0,0,0,51,37.13Z"/><path class="cls-3" d="M44.8,33.15a31.73,31.73,0,0,0-12-2.24,31.73,31.73,0,0,0-12,2.24c-3.91,1.63-6.94,4-8.4,7-1.69,3.44-1.07,7.23,2.3,10.54,3.87,3.79,10.44,6.12,18.08,6.12S47,54.46,50.9,50.67c3.37-3.31,4-7.1,2.3-10.54C51.75,37.19,48.72,34.78,44.8,33.15Z"/><path class="cls-4" d="M33.53,34.81a6.5,6.5,0,0,1-.42-3.9h-.29a31.73,31.73,0,0,0-12,2.24c-3.91,1.63-6.95,4-8.4,7-1.69,3.43-1.07,7.23,2.3,10.53l.74.68C29.71,50.52,37.14,42.2,33.53,34.81Z"/><path class="cls-5" d="M23.66,35.05a79.2,79.2,0,0,1,7.71,2.42c.51-1.52,1.05-3,1.66-4.51.61,1.48,1.15,3,1.66,4.51a73.15,73.15,0,0,1,7.67-2.38,58.23,58.23,0,0,0-5.23,3.72c3.5.45,6.77,1,10.21,1.77-3.43-.07-6.66.05-10.09.27,2.42,2,4.49,4,6.73,6.25-3.08-1.75-6-3.23-9.17-4.75q-.93,4-1.78,8.07c-.56-2.69-1.08-5.26-1.71-7.94-3.2,1.52-6.12,3-9.3,4.65,2.25-2.23,4.38-4.16,6.79-6.21-3.42-.22-6.71-.27-10.21-.32,3.43-.74,6.84-1.32,10.33-1.77A61.57,61.57,0,0,0,23.66,35.05ZM33,39.74V33.82c-.6,1.65-1.13,3.32-1.63,5C32,39.12,32.49,39.43,33,39.74Zm-7.83-4c2.12.93,4.18,2,6.2,3.11L29.89,39C28.37,37.83,26.81,36.73,25.2,35.71Zm7.83,4q6.12,0,12.22.62c-3.57-.64-7-1.13-10.6-1.55Zm7.83-4c-2.12.94-4.19,2-6.21,3.11-.08-.28-.16-.55-.25-.83C36.52,37.14,38.67,36.37,40.86,35.7Zm-8,4c.08,2.86.19,5.89.21,8.66.54-2.56,1.09-5.12,1.68-7.67C34.15,40.4,33.38,40.07,32.82,39.75ZM42,45.64c-2.38-1.71-4.81-3.36-7.31-4.9l1.53-.11C38.23,42.23,40.15,43.91,42,45.64Zm-9-5.9c-4.1.06-7.31.25-11.31.59,3.45,0,6.14.14,9.65.42C31.92,40.41,32.47,40.07,33,39.74Zm-9,5.91q3.57-2.58,7.32-4.9c.07.32.15.64.22,1Q27.75,43.55,24.05,45.65Z"/><path class="cls-6" d="M33,33.06c.61,1.48,1.15,3,1.66,4.51a73.75,73.75,0,0,1,7.4-2.32l.27-.16a73.15,73.15,0,0,0-7.67,2.38c-.51-1.52-1-3-1.66-4.51-.61,1.48-1.15,3-1.66,4.51a79.2,79.2,0,0,0-7.71-2.42l.26.17a76.67,76.67,0,0,1,7.45,2.35C31.88,36.05,32.42,34.54,33,33.06Z"/><path class="cls-7" d="M28.8,40.92c-2.37,2-4.57,4-6.78,6.21l.35-.2c2.18-2.15,4.1-3.89,6.43-5.86Z"/><path class="cls-8" d="M33,39.74h0v.1h0Z"/><path class="cls-8" d="M33,39.8l-.09,0c-.5.3-1,.6-1.49.91l0,.1,1.64-1v-.12Z"/><path class="cls-7" d="M31.4,38.82h-.15L29.89,39c-1.52-1.15-3.08-2.25-4.69-3.27v.12c1.61,1,3.17,2.12,4.69,3.27l1.51-.16c.49.27,1,.52,1.43.8H33C32.5,39.43,31.94,39.12,31.4,38.82Z"/><path class="cls-7" d="M24.05,45.79c2.47-1.4,5-2.72,7.54-3.94v-.14q-3.84,1.84-7.54,3.94Z"/><path class="cls-9" d="M34.71,40.74c-.58,2.52-1.15,5.14-1.68,7.67v.1c.54-2.56,1.08-5.1,1.67-7.65,1.71,1,4.19,2.67,7.32,4.93v-.15C39.64,43.93,37.21,42.28,34.71,40.74Z"/><path class="cls-9" d="M37.36,40.94l-.11-.09V41c2.33,2,4.19,3.74,6.37,5.89l.36.2C41.7,44.84,39.66,42.9,37.36,40.94Z"/><path class="cls-7" d="M28.82,38.85c-3.46.44-6.82,1-10.22,1.75h.53c3.28-.69,6.48-1.23,9.8-1.66v-.12Z"/><path class="cls-7" d="M31.37,40.75c-3.22-.28-6.42-.44-9.65-.41v.1c3.19,0,6.35.13,9.52.4l.13-.09"/><path class="cls-9" d="M37.13,38.81c3.5.45,6.77,1,10.21,1.77h-.58c-3.27-.69-6.31-1.21-9.63-1.64Z"/><path class="cls-9" d="M33,39.74q6.12,0,12.22.62v.11c-4-.4-8-.6-12-.62l-.1-.06-.09,0h.17"/><path class="cls-9" d="M34.65,38.81l.15,0q3-1.65,6.05-3v-.1c-2.12.93-4.18,2-6.2,3.1"/><path class="cls-8" d="M34.65,38.81c-.08-.28-.16-.55-.25-.83v.1c.08.25.15.5.23.74h0"/><path class="cls-5" d="M33.44,56c-.12.09-.29.18-.41.27-.12-.09-.29-.18-.41-.27V52.68c.12-.08.29-.16.41-.25.12.09.28.17.4.25C33.43,53.79,33.43,54.9,33.44,56Z"/><path class="cls-5" d="M13.68,48l-.2.37c.12.05.36.12.46.17l3.46-1.84a2.91,2.91,0,0,1,.12-.41l-.35-.09C16,46.74,14.84,47.34,13.68,48Z"/><path class="cls-5" d="M12.82,41.13l-.32.25.18.24c1.09-.15,2.17-.28,3.26-.4l.32-.3-.19-.2C15,40.83,13.9,41,12.82,41.13Z"/><path class="cls-5" d="M17,35.61l-.33.15c0,.06,0,.18,0,.25.8.11,1.6.25,2.4.4l.33-.19a1.55,1.55,0,0,0,0-.21C18.59,35.86,17.8,35.72,17,35.61Z"/><path class="cls-5" d="M41.47,32.22h.31l.12.12c-.42.27-.83.55-1.24.83h-.32L40.23,33C40.64,32.76,41.05,32.48,41.47,32.22Z"/><path class="cls-5" d="M32.75,31.07,33,31l.24.07c0,.32,0,.65,0,1l-.25.08-.23-.08C32.74,31.72,32.74,31.39,32.75,31.07Z"/><path class="cls-5" d="M24,32.37s.13-.12.17-.16h.31c.42.26.83.54,1.24.82l-.12.14-.36,0C24.81,32.91,24.4,32.63,24,32.37Z"/><path class="cls-5" d="M21.43,54c-.16,0-.37,0-.54.08s-.12-.23-.15-.35c.81-1,1.63-1.93,2.47-2.89l.53-.1a3.92,3.92,0,0,0,.16.36C23.06,52,22.24,53,21.43,54Z"/><path class="cls-5" d="M52.12,48l.19.37c-.12.05-.36.12-.46.17-1.16-.62-2.31-1.24-3.46-1.84a2.91,2.91,0,0,0-.12-.41l.35-.09C49.79,46.74,51,47.34,52.12,48Z"/><path class="cls-5" d="M53,41.13l.32.25-.18.24c-1.08-.15-2.17-.28-3.26-.4l-.32-.3.19-.2C50.81,40.83,51.89,41,53,41.13Z"/><path class="cls-5" d="M48.8,35.61l.33.15,0,.25c-.8.11-1.6.25-2.39.4l-.34-.19c0-.07,0-.14,0-.21C47.2,35.86,48,35.72,48.8,35.61Z"/><path class="cls-5" d="M44.36,54l.54.08a3.68,3.68,0,0,0,.15-.35c-.81-1-1.63-1.93-2.47-2.89l-.53-.1-.15.36C42.73,52,43.55,53,44.36,54Z"/><path class="cls-10" d="M13.66,48.15l-.1.21-.08,0,.2-.37c1.16-.62,2.32-1.22,3.49-1.8l.35.09-.06.2-.32-.07C16,47,14.82,47.54,13.66,48.15Z"/><path class="cls-10" d="M12.86,41.28l-.28.21-.08-.11.32-.25c1.08-.16,2.17-.3,3.25-.41l.19.2L16.2,41l-.12-.1C15,41,13.94,41.12,12.86,41.28Z"/><path class="cls-10" d="M16.69,35.93c0-.07,0-.1,0-.17l.33-.15c.8.11,1.59.25,2.39.4a1.55,1.55,0,0,1,0,.21S17.8,35.9,17,35.79Z"/><path class="cls-9" d="M41.78,32.39l0,0,.1-.07-.12-.12h-.31c-.42.26-.83.54-1.24.82l.09.11c.38-.26.76-.52,1.15-.76Z"/><path class="cls-11" d="M32.75,31.23l.22-.07.24.07v-.16L33,31l-.22.07Z"/><path class="cls-7" d="M24.46,32.36c.39.24.77.52,1.15.78L25.7,33c-.41-.28-.82-.56-1.24-.82h-.31s-.13.11-.17.16l.1.06.08-.07Z"/><path class="cls-9" d="M23.71,50.85c0,.06.1.2.14.27s0,0,0,0l-.16-.36-.53.1c-.84,1-1.66,1.92-2.47,2.89,0,0,.05.1.06.14.52-.62,1.65-2,2.47-2.91Z"/><path class="cls-9" d="M52.13,48.15l.11.21.07,0L52.12,48c-1.16-.62-2.33-1.22-3.5-1.8l-.35.09c0,.07,0,.14.07.2l.31-.07C49.82,47,51,47.54,52.13,48.15Z"/><path class="cls-9" d="M52.94,41.28a2.78,2.78,0,0,1,.27.21,1,1,0,0,0,.08-.11L53,41.13c-1.08-.16-2.16-.3-3.25-.41l-.19.2.07.06a.52.52,0,0,1,.11-.1C50.79,41,51.85,41.12,52.94,41.28Z"/><path class="cls-9" d="M49.11,35.93a1,1,0,0,1,0-.17l-.33-.15c-.8.11-1.6.25-2.4.4,0,.07,0,.14,0,.21s1.64-.32,2.43-.43Z"/><path class="cls-9" d="M42.08,50.85c0,.06-.09.2-.14.27a.1.1,0,0,1,0,0s.11-.26.15-.36l.53.1c.84,1,1.66,1.92,2.47,2.89a.78.78,0,0,1,0,.14c-.52-.62-1.66-2-2.48-2.91Z"/><path class="cls-9" d="M33.36,52.8,33.44,56V52.68c-.12-.08-.28-.16-.4-.25-.12.09-.29.17-.41.25V56l.08-3.21c.1-.07.24-.13.33-.2S33.27,52.73,33.36,52.8Z"/><path class="cls-7" d="M16.91,40.77c1.45-6.47,10.42-8.39,16-8.39s14.6,1.93,16,8.39c1.8,8-10.21,11-16,11S15.11,48.82,16.91,40.77Zm.59,0c1.36-6.25,10-8.11,15.45-8.11s14.1,1.86,15.46,8.11C50.1,48.46,38.56,51.32,33,51.32S15.81,48.46,17.5,40.73Z"/><path class="cls-5" d="M17,41C18.41,34.5,27,32.55,33,32.55s14.59,2,16,8.42C50.85,49,38.84,52,33,52S15.16,49,17,41Zm.59,0c1.36-6.24,10-8.1,15.46-8.1s14.09,1.86,15.45,8.11C50.15,48.66,38.61,51.52,33,51.52S15.86,48.66,17.55,40.92Z"/><path class="cls-12" d="M52.16,42.3l-2.63-.39-.35-.08a3.21,3.21,0,0,1-1.65-1.14c-.37-.57-1.25-1.54-1.74-2.15-.67-.84-2.2-1.61-2.42-2a11.24,11.24,0,0,1-.7-1.2.69.69,0,0,0-.74-.41c-.39,0-.43.16-.77.18a4.85,4.85,0,0,1-.81,0,2,2,0,0,0-.49-.07c-.21.35-.54.56-1.32.56l-.13,0c.08.18.8.28.93.27s.81.19,1,.22a1.22,1.22,0,0,1,.77.24,5.57,5.57,0,0,1,2.34,3c.14.64,1.24,1.69,1.37,2.28a11.63,11.63,0,0,1-3.42-1.08l-.25-.12a5.9,5.9,0,0,0-2.21-.5,15.88,15.88,0,0,1-3.74-.65c-.53-.18-.45-.27-.88-.29h-.23a1,1,0,0,1-.22.29,6.83,6.83,0,0,0-1.18,1.4.88.88,0,0,1-.5.32c.48-.11,1.42-.36,1.42-.36a7,7,0,0,1,2.25.27,12.27,12.27,0,0,1,1.33.43A27,27,0,0,1,41.64,43,32.19,32.19,0,0,0,46,44.82c.79.28,2.73,1.33,2.73,1.33a26.11,26.11,0,0,0,4.18,2A8.06,8.06,0,0,0,54,42.69h0Z"/><path class="cls-12" d="M50.83,39.31a2.32,2.32,0,0,0-.54.06l-.72.43c-.09.15.23.34.23.34s.91.06.91.29a8.31,8.31,0,0,0,2.81.44h0c-.1-.25-.2-.49-.32-.74s-.24-.46-.38-.69h0A7.68,7.68,0,0,0,50.83,39.31Z"/><path class="cls-12" d="M45.48,48.13s-.17-.22-1.09-.22c-.58,0,.26,1.38.26,1.38a11.89,11.89,0,0,0,2.81.94c.39.05,1.71.45,1.71.45a10.29,10.29,0,0,1,1.4.3l.33-.31A13.61,13.61,0,0,0,52,49.45a12.91,12.91,0,0,1-5.58-1C46.24,48,45.48,48.13,45.48,48.13Z"/><path class="cls-13" d="M40.63,23s-.53-.48-.54-.51.15-.4.2-.68l-.17-.07a3.24,3.24,0,0,1,0-1.85,1.18,1.18,0,0,0,.17-.8,38.32,38.32,0,0,0-1.92-4.23,2.61,2.61,0,0,1-.16-1.06,9.47,9.47,0,0,1-1.29-2.73A14.44,14.44,0,0,0,36,14.47c0,1.57,1.59,2.33,1,4.94-.11.51-.3,1.2-.49,1.92.33,1.82.33,3.14.82,5.24a5.87,5.87,0,0,1,1.55,2.64c.19.68.76,2.27,1.49,2.51.45.15-1.54.51-2.1-.19s-1.48-1.23-1.93-2-.9-1.8-1.25-2.39l-.42,2.24c.58,2.38.23,2.91-.28,4.85-.23.83-1.92-3.08-1.92-3.38A6,6,0,0,0,32.28,29,4.82,4.82,0,0,1,32,26.57c.08-1.25.07-3.59.13-4.21-.43-1.05-1.52-2.94-1.63-4-.17-1.66.11-3.34-.12-5a6.62,6.62,0,0,1-1.23,2.51,37.48,37.48,0,0,0-2.72,3c-.31.43,0,.63-.52,1.32s-.22.37-.32,1a.6.6,0,0,1-.11.24.84.84,0,0,1-.9.24c-.71-.36-.76-.88-.81-1.56-.09-1.3.87-1.36,1.41-2.14,1.06-1.54,1.6-4.12,2.74-5.28.07-.23.34-1.06.85-2.29,0-1.53.39-2.9,2-3.53.64-.25,1.49-.32,1.52-1.21a1.14,1.14,0,0,0-.09-.48c-.26-.21-.44-.21-.56-.36a8.94,8.94,0,0,1-.44-2.57C31.55.54,32.4,0,33.49,0a2.1,2.1,0,0,1,2.24,2.4c0,1.38-1.48,3.16.66,3.83.82.26,1,.08,1.67.79s1,2.19,1.11,3.49L40,12.38c1.47,2.47.93,3.26,1.48,5.78a10.88,10.88,0,0,1,.43,2.65C41.91,21.49,41.37,23,40.63,23Z"/><path class="cls-14" d="M25.29,21.17a1.64,1.64,0,0,1,.4-1.22c.39-.57.2-.85.54-1.34a38.55,38.55,0,0,1,2.61-3.1,12.15,12.15,0,0,0,1.7-3.59c0-.12.1-.17.13-.07A31.8,31.8,0,0,1,31,16c-.11,3,0,2.7,1.22,5.51.11-1.13.38-2.77,1-3.33a45.56,45.56,0,0,0-.9,8.4,4.9,4.9,0,0,0,.1,2.29,7.89,7.89,0,0,1,.12,1.49c0,.28,0,5.14,0,5.14l-.45,2.26a4.31,4.31,0,0,1-1.62,2.09c-.2.11-.66.35-.66.57s2.29,1,2.82.22a6.83,6.83,0,0,1,1.18-1.4c.73-.69-.07-1.4,0-2.34.17-1.64.87-3.06,1.1-4.6a4.92,4.92,0,0,0-.31-2.81L35,26.5c.33.51.65,1.32,1,2a5.55,5.55,0,0,0,1.57,2.29,6.67,6.67,0,0,1,.93,1.12,4,4,0,0,1,.75,2.36c-.35.63-.49.59-.93,1,0,0-.13.36.29.36,1.5,0,1.31-.78,1.88-1.79.36-.66,1.41-1.65.26-2a1.52,1.52,0,0,1-.91-.67,8.74,8.74,0,0,1-1.24-2.52,4,4,0,0,0-1.37-1.83,7.92,7.92,0,0,1-.63-2.32c-.16-1.21-.27-2.07-.47-3.3.58-2.31.88-2.8-.11-5a4,4,0,0,1-.36-1.66,10.77,10.77,0,0,1,.8-3.26,1.28,1.28,0,0,1,.61-.78,10.2,10.2,0,0,0,1.55,3.19,3.5,3.5,0,0,0,.15,1.07A40.41,40.41,0,0,1,40.62,19c.15.53,0,.78-.2,1.21a3.71,3.71,0,0,0,0,1.23l.21.12c0,.13-.13.5-.2.67s.28.33.28.33c.33-.07.81-1.28.79-1.76a9.64,9.64,0,0,0-.45-2.58c-.49-2.5-.21-3.19-1.61-5.61l-.79-2c-.1-1-.5-3.31-1.79-3.73-.22-.07-.44-.08-.77-.18-1.69-.55-1.68-1.85-1.22-3.27.41-1.26.46-2.74-1.39-2.9-1.15-.1-1.5.81-1.75,1.85a8,8,0,0,0,.32,2.17c.49.36.77.25.74,1.17a1.56,1.56,0,0,1-1.18,1.45c-1.08.38-1.63.61-2,1.72a5.25,5.25,0,0,0-.21,1.6v.05c-.31.77-.7,1.64-.94,2.46-1.32,1.34-2,4.37-3.33,5.65-.89.85-1.16.9-.84,2.21a1.88,1.88,0,0,0,.56.53C24.94,21.45,25.3,21.24,25.29,21.17Z"/></g></g></svg>