<svg xmlns="http://www.w3.org/2000/svg" viewBox="0 0 80.36 35.83"><defs><style>.cls-1{fill:#e93f2e;}.cls-2{fill:#373379;}.cls-3{fill:#fff;}.cls-4,.cls-5{fill:none;}.cls-4{stroke:#231f20;stroke-width:0.49px;}</style></defs><title>Raiffeisen-Polbank copy</title><g id="Layer_2" data-name="Layer 2"><g id="Raiffeisen-Polbank_copy" data-name="Raiffeisen-Polbank copy"><path class="cls-1" d="M59.8,3.55c.9,2.1-.8,4.85-3.8,6.14s-6.17.63-7.07-1.48.8-4.85,3.8-6.14S58.9,1.44,59.8,3.55Z"/><path class="cls-2" d="M45.53,18.08l-8.38,0-.87,2.18h.93a.53.53,0,0,1,.32.72l-3.21,8h3.17l1.24-3h3.83a3.66,3.66,0,0,0,2.9-1.83l1.73-4.28S47.74,18.46,45.53,18.08Zm-2,3.07-.89,2s-.18.55-1,.55l-2-.07,1.31-3.28h2.2S43.74,20.39,43.56,21.15Z"/><path class="cls-3" d="M43.11,20.39h-2.2L39.6,23.67l2,.07c.86,0,1-.55,1-.55l.89-2C43.74,20.39,43.11,20.39,43.11,20.39Z"/><path class="cls-2" d="M56.29,22.53l1.8-4.42H51.46s-2.65.28-3.38,2L46.67,23.5s-.69,2.21,1.21,2.38h8.55l.9-2.14S55.71,24,56.29,22.53Zm-3.55,1.21H50.43s-.48-.07-.24-.9c0,0,.72-2.48,1.76-2.55l2,.07Z"/><path class="cls-3" d="M50.19,22.84c-.24.83.24.9.24.9h2.31L54,20.36l-2-.07C50.91,20.36,50.19,22.84,50.19,22.84Z"/><path class="cls-2" d="M67.77,20.41l-1.18-1.26a.57.57,0,0,1,0-.89l.57-.41-1.47-1.58a78,78,0,0,0-8,4.68,1.56,1.56,0,0,0,0,1.79l2.8,2.9a.7.7,0,0,1-.53,1l-2,0-1,2.16,3.54,0A9.82,9.82,0,0,0,64,26.2a1.23,1.23,0,0,0,0-1.39c-.36-.45.24-.64.24-.64a17.54,17.54,0,0,0,3.35-2.28A1.42,1.42,0,0,0,67.77,20.41Zm-3.33,1.15-2.39,1.52a.47.47,0,0,1-.58-.06l-1-1.09c-.25-.32.15-.79.15-.79L62.5,20c.81-.34,1.13,0,1.13,0l.81.79A.68.68,0,0,1,64.44,21.56Z"/><path class="cls-3" d="M63.63,20s-.32-.37-1.13,0l-1.84,1.18s-.4.47-.15.79l1,1.09a.47.47,0,0,0,.58.06l2.39-1.52a.68.68,0,0,0,0-.78Z"/><path class="cls-2" d="M79.63,20.68a24.58,24.58,0,0,0-3-2.6,3.22,3.22,0,0,0-2.51,0s-3.76,1.88-5.51,3a1.8,1.8,0,0,0-.68,1.9,21.71,21.71,0,0,0,2.9,2.9,2.81,2.81,0,0,0,2.35.15s4.27-1.64,6.4-3.67A1.47,1.47,0,0,0,79.63,20.68Zm-3.54,1.58a24.21,24.21,0,0,1-2.16,1.24,1.18,1.18,0,0,1-1.17,0,6.49,6.49,0,0,1-1-1c-.25-.28,0-.69,0-.69A15.28,15.28,0,0,1,74,20.49c.42-.28,1.11.06,1.11.06l1,.9A.57.57,0,0,1,76.09,22.26Z"/><path class="cls-3" d="M75.11,20.55s-.69-.34-1.11-.06a15.28,15.28,0,0,0-2.24,1.34s-.28.41,0,.69a6.49,6.49,0,0,0,1,1,1.18,1.18,0,0,0,1.17,0,24.21,24.21,0,0,0,2.16-1.24.57.57,0,0,0,0-.81Z"/><path class="cls-1" d="M35.82,18.12H32.66s-2,4.89-2.2,5.55c0,0-.38,1.19.19,1.66A2.19,2.19,0,0,0,32,26l2.19,0,.94-2.17h-.7a.64.64,0,0,1-.47-.94Z"/><path class="cls-1" d="M34.37,15A2.52,2.52,0,0,1,36.2,15a.91.91,0,0,1,.17,1.43,2.32,2.32,0,0,1-2,.91s-1.24.15-1.33-.87C33,16.5,33,15.45,34.37,15Z"/><path class="cls-1" d="M30.27,18.61a2.3,2.3,0,0,0-1.49-.55l-8,0L19.9,20.3h.68s.75,0,.32,1.09l-3,7.64,3.14,0,1.15-3.14,4.08,0a2.74,2.74,0,0,0,2.24-1.17,18.35,18.35,0,0,0,2.05-4.53S31,19.17,30.27,18.61ZM27,21.19a9,9,0,0,1-.82,2,1.41,1.41,0,0,1-1.06.55h-2l1.37-3.31h2.11C27.3,20.43,27,21.19,27,21.19Z"/><path class="cls-3" d="M26.58,20.4H24.47L23.1,23.71h2a1.41,1.41,0,0,0,1.06-.55,9,9,0,0,0,.82-2S27.3,20.43,26.58,20.4Z"/><path class="cls-1" d="M18,22.45l1.77-4.37-6.36,0a5.7,5.7,0,0,0-2,.49A2.85,2.85,0,0,0,9.91,20a27.25,27.25,0,0,0-1.43,3.41c-.55,1.35,0,1.82,0,1.82A2,2,0,0,0,10,26l8.15,0,.9-2.15-1-.17C17.59,23.41,18,22.45,18,22.45Zm-3.58,1.22-2.12,0s-.76,0-.42-1a6,6,0,0,1,.81-1.8,1.23,1.23,0,0,1,1.11-.51l1.86,0Z"/><path class="cls-1" d="M9.72,18.1l-.94,2.26H6.28s-.68-.13-1.11.83L3.32,25.93.12,26l3.11-7.89Z"/><path class="cls-2" d="M53.45,0s-3.1,1.05-4.14,2.27A8.5,8.5,0,0,0,47,6.36s-.28,2.35.87,3.5A6,6,0,0,0,50,11.59a8.41,8.41,0,0,0,3.71.41s3.71-.47,5.65-2.61a11.49,11.49,0,0,1-3.92,4,15.83,15.83,0,0,1-5.34,2.24,13,13,0,0,1-5.63.12,7.66,7.66,0,0,1-4-2.13,5.14,5.14,0,0,1-1.39-3.27,7.48,7.48,0,0,1,1.6-4.58A17.14,17.14,0,0,1,44.31,2.5,25.77,25.77,0,0,1,48.47.62,15.27,15.27,0,0,1,53.45,0Z"/><polyline class="cls-4" points="2.79 30.8 0.77 34.4 0.24 30.76"/><path class="cls-4" d="M6.42,34.1s-1.26,1.19-1.62-.37c0,0,0-1.83,1.14-1.88,0,0,.86-.13.64.68a1,1,0,0,1-.6.61,8.57,8.57,0,0,1-1,0"/><line class="cls-4" x1="9.83" y1="31.82" x2="9.37" y2="34.57"/><path class="cls-4" d="M9.69,32.68s.92-.87,1.29-.78a.45.45,0,0,1,.45.58L11,34.53"/><line class="cls-4" x1="14.83" y1="31.23" x2="15.76" y2="30.66"/><line class="cls-4" x1="14.89" y1="31.85" x2="14.27" y2="34.61"/><path class="cls-4" d="M19.38,32s-.84-.48-1.32.06c0,0-.45.64.13.9,0,0,1,.33.93.77,0,0,.06.58-.93.76a1.12,1.12,0,0,1-.88-.25"/><path class="cls-4" d="M20.56,34.35s0-.36.34-.27c0,0,.24.21,0,.37C20.88,34.45,20.7,34.62,20.56,34.35Z"/><path class="cls-4" d="M20.88,34.45a1,1,0,0,1-.57.79"/><line class="cls-4" x1="27.68" y1="31.89" x2="26.93" y2="35.6"/><path class="cls-4" d="M27.55,32.65s.65-.7,1.15-.71a.59.59,0,0,1,.66.66s0,1.1-.45,1.47a1.51,1.51,0,0,1-1.6.32"/><path class="cls-4" d="M33.84,34.5a2.44,2.44,0,0,1,0-.91l.29-1.23s.17-.78-1-.41a2.18,2.18,0,0,0-.87,1.34s-.26.94.3,1.12c0,0,.41.21,1.17-.54"/><path class="cls-4" d="M33.84,34.5a2.44,2.44,0,0,1,0-.91l.29-1.23s.17-.78-1-.41a2.18,2.18,0,0,0-.87,1.34s-.26.94.3,1.12c0,0,.41.21,1.17-.54"/><path class="cls-4" d="M39.05,32.23s-.36-.78-1.25-.14A2,2,0,0,0,37,33.3s-.24,1.09.5,1.16a1.89,1.89,0,0,0,1.25-.68A4,4,0,0,0,39.05,32.23Z"/><path class="cls-4" d="M38.9,33.33a6.24,6.24,0,0,1-.47,1.84,1.44,1.44,0,0,1-1.94.13"/><line class="cls-4" x1="44.15" y1="30.63" x2="43.06" y2="31.28"/><path class="cls-4" d="M43.52,34.53a2.45,2.45,0,0,1,0-.91l.29-1.23s.17-.78-1-.41a2.14,2.14,0,0,0-.87,1.33s-.26.94.31,1.13c0,0,.41.21,1.16-.55"/><path class="cls-4" d="M48.41,32s-.85-.47-1.32.07c0,0-.45.63.13.9,0,0,1,.33.92.77,0,0,.07.58-.92.76a1.14,1.14,0,0,1-.89-.25"/><line class="cls-4" x1="54.43" y1="31.82" x2="54.79" y2="34.54"/><path class="cls-4" d="M56.27,31.93s-1.08,2.11-1.4,2.65a2.27,2.27,0,0,1-.9,1"/><path class="cls-4" d="M62.31,34.61s-.48-.09-.29-1l.59-3"/><path class="cls-5" d="M65.85,30.79s.14-.05.16.13c0,0,0,.29-.16.18S65.64,30.78,65.85,30.79Z"/><line class="cls-4" x1="65.73" y1="31.76" x2="65.07" y2="34.62"/><path class="cls-4" d="M70.13,32s-.84-.48-1.32.07c0,0-.45.63.14.89,0,0,1,.33.92.77,0,0,.07.58-.92.77a1.14,1.14,0,0,1-.89-.25"/><path class="cls-4" d="M73.62,31.08A24.15,24.15,0,0,0,73,33.84s-.23.94.7.65"/><line class="cls-4" x1="74.19" y1="31.94" x2="72.8" y2="31.91"/><path class="cls-4" d="M77.78,31.9s.8,0,.75,1A2.68,2.68,0,0,1,78,34.16s-1,.74-1.33-.07c0,0-.25-1.05.18-1.54C76.8,32.55,77.18,31.86,77.78,31.9Z"/><path class="cls-4" d="M79.93,34.07s.19,0,.19.17c0,0,0,.26-.19.16C79.93,34.4,79.62,34.21,79.93,34.07Z"/></g></g></svg>