<svg xmlns="http://www.w3.org/2000/svg" xmlns:xlink="http://www.w3.org/1999/xlink" viewBox="0 0 79.84 21.35"><defs><style>.cls-1{fill:none;}.cls-2{fill:#fcee23;}.cls-3{clip-path:url(#clip-path);}.cls-4{fill-rule:evenodd;}</style><clipPath id="clip-path" transform="translate(0 -0.19)"><rect class="cls-1" width="80" height="22.08"/></clipPath></defs><title>Raiffeisen-Polbank</title><g id="Layer_2" data-name="Layer 2"><g id="Raiffeisen-Polbank"><rect y="0.36" width="20.98" height="20.98"/><rect class="cls-2" x="0.61" y="0.97" width="19.77" height="19.77"/><g class="cls-3"><path class="cls-4" d="M1.65,16.93l2.58,2.63,6-6.13,6.24,6.26,2.62-2.59L13,10.91l1.19-1.15V7.31l.74-.63V8.6l1,.79,2.87-2.87.92.7c.55-2-2.6-6.57-5.2-4l-3,3,.62.74L10.48,8.44,9,7l.78-.71L6.45,3.05C3.94,1,1.38,4.13,1.29,7.19l.91-.76L5,9.44,6,8.6V6.76l.62.46V9.64l1.21,1.21Z" transform="translate(0 -0.19)"/><path class="cls-4" d="M26.34,3.06V4.88h.79c1.07-.2.78-1.74,0-1.82Zm-2.22-1.8V9.5h2.22V6.82l1.9,2.68h2.63L28.53,6.2a2.57,2.57,0,0,0-1.15-4.94ZM34.41,5.38a1.29,1.29,0,0,1,1.33,1.24,1.33,1.33,0,0,1-2.65,0,1.28,1.28,0,0,1,1.32-1.24Zm-.47-1.82a2.82,2.82,0,0,1,1.64.53V3.77h2.18V9.5h-2.2V9.14a2.81,2.81,0,0,1-1.64.52,3,3,0,0,1-2.95-3,3,3,0,0,1,2.95-3.06Zm5,.21h2.31V9.5H38.92ZM40.09.5a1.23,1.23,0,0,1,0,2.45,1.23,1.23,0,1,1,0-2.45ZM57.64,3.77H60V9.5H57.64ZM58.79.5a1.23,1.23,0,1,1-1.21,1.22A1.22,1.22,0,0,1,58.79.5ZM41.66,3.77V5.59h.8V9.5H44.7V5.59h2.1V9.5h2.31V5.57h1.44V3.8h-1.5V2.52c0-.47,1.06-.66,1.44-.28V.37C48.36-.3,46.64.9,46.66,2.76v1h-2V2.52c0-.47.93-.66,1.49-.28V.37c-1.85-.54-3.82.36-3.81,2.38v1ZM53.85,9.66c2,0,2.72-.83,3.15-2H55A1.18,1.18,0,0,1,52.81,7h4.25c0-2.33-1.24-3.43-3.21-3.43a3,3,0,0,0-3.21,3.08,3.08,3.08,0,0,0,3.21,3Zm-.75-4c0-.69,1.55-.69,1.65,0Zm16.5,4c2,0,2.73-.83,3.16-2h-2A1.18,1.18,0,0,1,68.56,7h4.25c0-2.33-1.22-3.43-3.21-3.43a3,3,0,0,0-3.21,3.08,3.08,3.08,0,0,0,3.21,3Zm-.74-4c0-.69,1.54-.69,1.64,0ZM65.78,3.89,65.1,5.28c-.86-.27-1.69-.22-1.67,0s-.11.42,1.23.61c2,.31,1.83,4-1.52,3.75A5,5,0,0,1,60.85,9L61.6,7.5c1,.52,2.06.82,2.14.3s-1.1-.41-1.83-1c-1.28-.79-.55-3.26,1.56-3.28a6.08,6.08,0,0,1,2.31.33Zm7.92-.12V9.5h2.16V6c.06-.88,1.78-1,1.79,0V9.5h2.19V5.91c0-2-2.16-3-4.07-1.71V3.77ZM25.4,13,24,21.49H28c2.77,0,3.9-3.43,1.93-4.61,1.68-1.55.82-3.89-1-3.92Zm1.65,5.07-.29,1.4h.95c1.07.05.95-1.4.33-1.4ZM27.53,15l-.24,1.14h.29c.87,0,1.38-1.15.33-1.15Zm3.36,6.49h2.48L34.12,20h2.8l.42,1.51h2.29l-2-8.48H35.3Zm4-3.28h1.54L36,16Zm5.48,3.3H42.7l.58-5.32,3.28,5.3H49L50,13H47.74l-.64,5.32L43.83,13H41.46ZM51.68,13l-1.61,8.54h2.41l.65-3.19,2.16,3.19h3.18L55.37,17l4-4.07H56.25l-2.7,3L54,13Z" transform="translate(0 -0.19)"/></g></g></g></svg>