<svg id="Layer_1" data-name="Layer 1" xmlns="http://www.w3.org/2000/svg" viewBox="0 0 80 29.12"><defs><style>.cls-1{fill:#e83f2e;}.cls-2{fill:#373379;}</style></defs><title>rapipago</title><path class="cls-1" d="M69.85,39c.91,2.11-.8,4.87-3.81,6.16s-6.18.63-7.09-1.48.8-4.87,3.81-6.16S68.94,36.88,69.85,39Z" transform="translate(-10 -35.44)"/><path class="cls-2" d="M55.54,53.57l-8.41,0-.86,2.18h.93a.53.53,0,0,1,.31.73l-3.22,8h3.18l1.25-3h3.84a3.65,3.65,0,0,0,2.91-1.83l1.73-4.29S57.75,54,55.54,53.57Zm-2,3.08-.9,2s-.17.55-1,.55l-2-.07,1.32-3.29h2.21S53.74,55.88,53.56,56.65Z" transform="translate(-10 -35.44)"/><path class="cls-2" d="M66.33,58l1.8-4.43H61.49s-2.66.28-3.39,2L56.68,59s-.69,2.21,1.21,2.39h8.58l.9-2.14S65.74,59.45,66.33,58Zm-3.56,1.21H60.45s-.48-.07-.24-.9c0,0,.73-2.49,1.77-2.56l2,.07Z" transform="translate(-10 -35.44)"/><path class="cls-2" d="M77.83,55.9l-1.18-1.26a.58.58,0,0,1,0-.9l.58-.41-1.48-1.58a79.46,79.46,0,0,0-8,4.69,1.57,1.57,0,0,0,0,1.8l2.8,2.91a.7.7,0,0,1-.53,1l-2,0-1,2.16,3.55,0a9.89,9.89,0,0,0,3.53-2.5,1.24,1.24,0,0,0,0-1.39c-.36-.45.24-.64.24-.64a17.14,17.14,0,0,0,3.36-2.29A1.42,1.42,0,0,0,77.83,55.9ZM74.5,57.06l-2.4,1.52a.47.47,0,0,1-.58-.06l-1-1.09c-.26-.32.15-.79.15-.79l1.84-1.18c.81-.34,1.13,0,1.13,0l.81.79A.7.7,0,0,1,74.5,57.06Z" transform="translate(-10 -35.44)"/><path class="cls-2" d="M89.73,56.18a25.34,25.34,0,0,0-3-2.61,3.26,3.26,0,0,0-2.53,0s-3.77,1.88-5.52,3.06a1.8,1.8,0,0,0-.68,1.9,21.26,21.26,0,0,0,2.91,2.91,2.82,2.82,0,0,0,2.35.15s4.28-1.65,6.42-3.68A1.48,1.48,0,0,0,89.73,56.18Zm-3.55,1.58A24.21,24.21,0,0,1,84,59a1.2,1.2,0,0,1-1.18,0,6.44,6.44,0,0,1-1-1c-.26-.28,0-.68,0-.68A15.15,15.15,0,0,1,84.08,56c.43-.28,1.11.06,1.11.06l1,.9A.58.58,0,0,1,86.18,57.76Z" transform="translate(-10 -35.44)"/><path class="cls-1" d="M45.8,53.61H42.63s-2,4.9-2.2,5.56c0,0-.39,1.2.19,1.67a2.19,2.19,0,0,0,1.31.62l2.2,0,.94-2.18h-.71a.64.64,0,0,1-.47-.94Z" transform="translate(-10 -35.44)"/><path class="cls-1" d="M44.34,50.44a2.53,2.53,0,0,1,1.84.06.91.91,0,0,1,.17,1.43,2.34,2.34,0,0,1-2,.92S43.1,53,43,52A1.69,1.69,0,0,1,44.34,50.44Z" transform="translate(-10 -35.44)"/><path class="cls-1" d="M40.24,54.1a2.34,2.34,0,0,0-1.5-.56l-8.07,0-.83,2.23h.68s.75,0,.32,1.09l-3,7.66,3.15,0,1.16-3.15,4.09,0a2.75,2.75,0,0,0,2.25-1.18,18.1,18.1,0,0,0,2-4.54S40.94,54.66,40.24,54.1ZM37,56.69a9.1,9.1,0,0,1-.81,2,1.43,1.43,0,0,1-1.07.56h-2l1.37-3.32h2.12C37.26,55.92,37,56.69,37,56.69Z" transform="translate(-10 -35.44)"/><path class="cls-1" d="M28,58l1.78-4.39-6.38,0a5.78,5.78,0,0,0-2,.49,2.85,2.85,0,0,0-1.52,1.45,27.89,27.89,0,0,0-1.43,3.42c-.56,1.35,0,1.82,0,1.82a2,2,0,0,0,1.56.73l8.17,0,.9-2.16-1-.17C27.53,58.91,28,58,28,58Zm-3.59,1.22-2.12,0s-.77,0-.43-1.05a6.27,6.27,0,0,1,.81-1.8,1.23,1.23,0,0,1,1.11-.51l1.86,0Z" transform="translate(-10 -35.44)"/><path class="cls-1" d="M19.63,53.59l-.94,2.27h-2.5s-.68-.13-1.11.83l-1.86,4.75-3.22,0,3.12-7.92Z" transform="translate(-10 -35.44)"/><path class="cls-2" d="M63.47,35.46s-3.1,1-4.15,2.27A8.5,8.5,0,0,0,57,41.82s-.28,2.35.88,3.51A6,6,0,0,0,60,47.06a8.48,8.48,0,0,0,3.72.41s3.72-.47,5.67-2.61a11.57,11.57,0,0,1-3.94,4,15.71,15.71,0,0,1-5.35,2.25,13.17,13.17,0,0,1-5.65.13,7.64,7.64,0,0,1-4-2.14,5.12,5.12,0,0,1-1.39-3.27,7.53,7.53,0,0,1,1.6-4.6A17,17,0,0,1,54.31,38a25.14,25.14,0,0,1,4.17-1.88A15,15,0,0,1,63.47,35.46Z" transform="translate(-10 -35.44)"/></svg>