<svg id="Layer_1" data-name="Layer 1" xmlns="http://www.w3.org/2000/svg" viewBox="0 0 80 15.72"><defs><style>.cls-1{fill:#26174f;}.cls-2{fill:#becb3a;}</style></defs><title>Red-Pagos</title><path class="cls-1" d="M51.64,53.77c0,.55.52.83,1,.83,1.53,0,2-1.06,2.33-2.33h-.72C53.29,52.26,51.64,52.43,51.64,53.77Z" transform="translate(-10 -42.14)"/><path class="cls-1" d="M72.47,49.43c-1.63,0-2.44,1.79-2.44,3.22,0,1,.43,1.86,1.61,1.86,1.6,0,2.39-1.84,2.39-3.19C74,50.29,73.68,49.43,72.47,49.43Z" transform="translate(-10 -42.14)"/><path class="cls-1" d="M10,45.68V57.86H39.87L41.69,49a8.48,8.48,0,0,0,.17-1h2l-.23,1h0A2.69,2.69,0,0,1,46,47.82c2,0,2.9,1.33,2.9,3.21,0,2.47-1.37,5.06-4.11,5.06a2.06,2.06,0,0,1-2.18-1.41h0l-.65,3.17H58.24l.23-.75a6.33,6.33,0,0,0,2.48.61c2.18,0,2.5-1.52,3-3.31h0a3,3,0,0,1-2.65,1.5c-1.92,0-2.75-1.61-2.75-3.34,0-2.36,1.44-4.74,4-4.74a2.75,2.75,0,0,1,2.41,1.33L65.15,48h2c-.06.21-.15.6-.26,1.1L65.61,55a6.55,6.55,0,0,1-1.14,2.8H90V45.68ZM56.21,55.91H54.48l.21-1.21h0a3,3,0,0,1-2.55,1.4,2.19,2.19,0,0,1-2.44-2.25c0-2.61,2.91-2.81,4.85-2.81h.72a2.46,2.46,0,0,0,.06-.67c0-.8-.86-1-1.58-1a6.12,6.12,0,0,0-2.59.61l.29-1.64a7.93,7.93,0,0,1,2.68-.48c1.58,0,3.07.58,3.07,2.44C57.17,51.33,56.39,54.43,56.21,55.91Zm15.26.19a3.32,3.32,0,0,1-3.59-3.6,4.58,4.58,0,0,1,4.68-4.66,3.32,3.32,0,0,1,3.62,3.47A4.57,4.57,0,0,1,71.47,56.1ZM83,49.7a4.88,4.88,0,0,0-1.69-.37c-.61,0-1.38.17-1.38.8,0,1,2.67,1.36,2.67,3.3S80.77,56.1,79,56.1a5.53,5.53,0,0,1-2.41-.48L77,54a3.88,3.88,0,0,0,2,.61c.69,0,1.41-.23,1.41-.87,0-1.27-2.67-1.4-2.67-3.37s1.79-2.52,3.42-2.52a9.39,9.39,0,0,1,2.24.32Z" transform="translate(-10 -42.14)"/><path class="cls-1" d="M60.67,52.56c0,.95.38,1.76,1.3,1.76,1.64,0,2.32-1.73,2.32-3.24a1.5,1.5,0,0,0-1.49-1.66C61.32,49.43,60.67,51.37,60.67,52.56Z" transform="translate(-10 -42.14)"/><path class="cls-1" d="M44.47,54.5c1.72,0,2.27-2.15,2.27-3.39,0-1-.49-1.69-1.44-1.69-1.4,0-2.18,1.84-2.18,3.22C43.12,53.66,43.47,54.5,44.47,54.5Z" transform="translate(-10 -42.14)"/><path class="cls-2" d="M90,42.14H10v3.54H38.36L37.64,49a3.06,3.06,0,0,0-2.44-1.12c-2.68,0-4,2.62-4,5,0,1.72.84,3.28,2.71,3.28a2.93,2.93,0,0,0,2.58-1.35h0l-.2,1.17h1.92c0-.4.17-1.07.29-1.75l1.85-8.49H90ZM34.64,54.5c-1,0-1.26-1.07-1.26-1.87,0-1.18.69-3.21,2.16-3.21,1,0,1.49.95,1.49,1.87C37,52.75,36.14,54.5,34.64,54.5Z" transform="translate(-10 -42.14)"/><path class="cls-2" d="M22.07,47.83a2.84,2.84,0,0,0-2.33,1.67h0L20,48H18c-.06.37-.12.72-.18,1.06l-1.41,6.84H18.5l.74-3.54c.26-1.27,1-2.58,2.42-2.58a2.83,2.83,0,0,1,.78.12l.43-2A4.33,4.33,0,0,0,22.07,47.83Z" transform="translate(-10 -42.14)"/><path class="cls-2" d="M27.06,47.83a4.72,4.72,0,0,0-4.49,4.82c0,2.35,1.53,3.45,3.8,3.45a9,9,0,0,0,2.52-.44L29.15,54a5.84,5.84,0,0,1-2.42.57c-1.41,0-2.19-.54-2.19-2h5.57a8.71,8.71,0,0,0,.2-1.76C30.3,48.83,29,47.83,27.06,47.83Zm1.23,3.36H24.8c.4-1.09.95-1.86,2.22-1.86a1.18,1.18,0,0,1,1.3,1.32A2.42,2.42,0,0,1,28.29,51.19Z" transform="translate(-10 -42.14)"/></svg>