<svg xmlns="http://www.w3.org/2000/svg" viewBox="0 0 80 80"><defs><style>.cls-1{fill:#ffcb05;}.cls-1,.cls-2,.cls-3{fill-rule:evenodd;}.cls-2{fill:#074723;}.cls-3{fill:#ed1c24;}</style></defs><title>RedLink</title><g id="Layer_2" data-name="Layer 2"><g id="RedLink"><path class="cls-1" d="M40,0A40,40,0,1,1,0,40,40,40,0,0,1,40,0ZM12.94,29.68V51.85h12V46.69H18.38v-17Zm13.67,17v5.16h5.58V29.68H26.61v17Zm8-17V51.85H39.3V38.19l7.39,13.66h4.75V29.68H47.3V43.35L39.9,29.68Zm19.25,0h4.46v9.41L69.14,22.42a33.92,33.92,0,1,0,2.94,6.21L63.22,39.89l7.19,10.6v1.36h-5l-5.65-8.77-1.54,1.63.14,7-.14.17H53.81Z"/><path class="cls-2" d="M12.73,19.64l-.48.66-.47.67-.45.69-.43.69c-.43.7-.83,1.42-1.21,2.16l-.37.74L9,26l-.33.76-.31.77L8,28.3l-.27.78-.26.8-.24.8c-.15.54-.29,1.09-.42,1.63l-.18.83L6.5,34l-.14.84-.12.85-.1.85-.07.86L6,38.25l0,.87v1.76l0,.87.06.87.07.86.1.85.12.85L6.5,46l.16.84.18.83c.13.54.27,1.09.42,1.63l.24.8.26.79L8,51.7l.3.78.31.77L9,54l.35.74.37.74c.38.74.78,1.45,1.21,2.16l.43.69.45.69.47.67.48.66.5.65.51.64.53.62.54.61.56.6.57.58.58.57.6.56.61.54.62.53.64.51.65.5.66.48.67.47.69.45.69.43c.7.43,1.42.83,2.16,1.21l.74.37L26,71l.76.33.77.31.78.3.78.27.8.26.8.24c.54.15,1.09.29,1.63.42l.83.18.84.16.84.14.85.12.85.1.86.07.87.06.87,0h1.76l.87,0,.87-.06.86-.07.85-.1.85-.12L46,73.5l.84-.16.83-.18c.54-.13,1.09-.27,1.63-.42l.8-.24.79-.26L51.7,72l.78-.3.77-.31L54,71l.74-.35.74-.37c.74-.38,1.45-.78,2.16-1.21l.69-.43.69-.45.67-.47.66-.48.65-.5.64-.51.62-.53.61-.54.6-.56.58-.57.57-.58.56-.6.54-.61.53-.62.51-.64.5-.65.48-.66.47-.67.45-.69.43-.69c.43-.71.83-1.42,1.21-2.16l.37-.74L71,54l.33-.76.31-.77.3-.78.27-.79.26-.79.24-.8c.15-.54.29-1.09.42-1.63l.18-.83L73.5,46l.14-.84.12-.85.1-.85.07-.86.06-.87,0-.87V39.1l0-.83v0l-.06-.82v-.06l-.07-.79v-.07l-.08-.75,0-.16-.1-.68,0-.16-.11-.67,0-.19-.12-.61,0-.29-.11-.47-.1-.42-.09-.4-.12-.45-.08-.31-.13-.44-.05-.18,0-.17-.16-.5,0-.17v0l-.22-.65-.06-.17L63.22,39.89l7.19,10.6v1.36h-5l-5.65-8.77-1.54,1.63.14,7-.14.17H53.81V29.68h4.46v9.41L69.14,22.42,69,22.17l-.22-.35-.17-.26L68.26,21l-.15-.21-.25-.37-.17-.24-.37-.5-.18-.24-.24-.31-.19-.25-.39-.48-.18-.22-.28-.33-.18-.22-.41-.45L65.05,17l-.27-.29-.2-.22L64.14,16,64,15.83l-.34-.34-.18-.17L63,14.9l-.23-.21-.33-.29-.22-.19-.46-.39-.21-.18-.38-.3-.25-.2-.43-.33-.23-.17-.41-.3-.24-.17-.45-.31-.22-.15-.49-.32-.22-.14L57.78,11l-.25-.15L57,10.52l-.2-.12-.47-.26L56.13,10l-.61-.32-.13-.07-.52-.26-.19-.09L54.05,9l-.16-.08-.53-.23-.18-.08-.65-.26-.18-.07-.53-.2L51.64,8,51,7.78l-.19-.07-.55-.17-.18-.06-.7-.21-.14,0-.6-.16-.17,0-.68-.17-.22-.05L47,6.68l-.16,0-.72-.14-.17,0-.69-.11h-.08l-.74-.11-.19,0-.7-.08h-.06l-.76-.06-.2,0-.74,0h0L41,6H39.12l-.87,0-.87.06-.86.07-.85.1-.85.12L34,6.5l-.84.16-.83.18c-.54.13-1.09.27-1.63.42l-.8.24-.8.26L28.3,8l-.78.3-.77.31L26,9l-.74.35-.74.37c-.74.38-1.46.78-2.16,1.21l-.69.43-.69.45-.67.47-.66.48-.65.5-.64.51-.62.53-.61.54-.6.56-.58.57-.57.58-.56.6-.54.61-.53.62-.51.64-.5.65ZM25.39,24a4,4,0,1,1,4,4,4,4,0,0,1-4-4ZM12.94,29.68h5.44v17h6.56v5.16h-12V29.68Zm13.67,17v-17h5.58V51.85H26.61V46.69Zm8-17H39.9l7.4,13.67V29.68h4.14V51.85H46.69L39.3,38.19V51.85H34.56Z"/><path class="cls-3" d="M29.4,28.07a4,4,0,1,0-4-4A4,4,0,0,0,29.4,28.07Z"/></g></g></svg>