<svg xmlns="http://www.w3.org/2000/svg" viewBox="0 0 80 59.55"><defs><style>.cls-1{fill:#d42027;}</style></defs><title>RegioBAnk</title><g id="Layer_2" data-name="Layer 2"><g id="RegioBAnk"><path class="cls-1" d="M3.71,14.68v9.06H0V1.06H6.41c2.93,0,5.09.54,6.5,1.64a5.9,5.9,0,0,1,2.11,5q0,4.23-4.4,6l6.4,10H12.8L7.37,14.68Zm0-3.07H6.29a5.9,5.9,0,0,0,3.75-1A3.5,3.5,0,0,0,11.2,7.79,3.07,3.07,0,0,0,10,5a6.89,6.89,0,0,0-3.79-.84H3.71Z"/><path class="cls-1" d="M27.42,24.05a8.29,8.29,0,0,1-6.26-2.33,8.89,8.89,0,0,1-2.26-6.43A9.69,9.69,0,0,1,21,8.68a7.2,7.2,0,0,1,5.76-2.41,7.07,7.07,0,0,1,5.36,2.06,7.87,7.87,0,0,1,2,5.68v2H22.66A5.65,5.65,0,0,0,24,19.83a4.71,4.71,0,0,0,3.58,1.34,13.39,13.39,0,0,0,2.84-.29,15,15,0,0,0,2.81-.95v3a11.58,11.58,0,0,1-2.7.9A16.24,16.24,0,0,1,27.42,24.05ZM26.76,9A3.69,3.69,0,0,0,24,10.13a5.24,5.24,0,0,0-1.25,3.22h7.79a4.75,4.75,0,0,0-1-3.22A3.53,3.53,0,0,0,26.76,9Z"/><path class="cls-1" d="M52.73,6.58v2l-2.93.55a4.73,4.73,0,0,1,.67,1.33,5.47,5.47,0,0,1,.26,1.68,5.12,5.12,0,0,1-1.83,4.17,7.68,7.68,0,0,1-5,1.52,8.4,8.4,0,0,1-1.49-.12,2,2,0,0,0-1.18,1.7,1,1,0,0,0,.55.89,4.72,4.72,0,0,0,2,.29h3a6.69,6.69,0,0,1,4.31,1.21,4.26,4.26,0,0,1,1.48,3.5,5.08,5.08,0,0,1-2.41,4.5q-2.4,1.57-7,1.58a9.55,9.55,0,0,1-5.35-1.24A4,4,0,0,1,36,26.6a3.74,3.74,0,0,1,1-2.66,5.37,5.37,0,0,1,2.8-1.5,2.7,2.7,0,0,1-1.2-1,2.6,2.6,0,0,1,.07-3.08A6.08,6.08,0,0,1,40.27,17a4.76,4.76,0,0,1-2.16-1.87,5.45,5.45,0,0,1-.83-3A5.4,5.4,0,0,1,39,7.81a7.37,7.37,0,0,1,5-1.54,11.77,11.77,0,0,1,1.53.1,10.77,10.77,0,0,1,1.2.21ZM39.25,26.41a2,2,0,0,0,1.06,1.82,5.9,5.9,0,0,0,3,.64A9,9,0,0,0,47.74,28a2.56,2.56,0,0,0,1.46-2.26,1.69,1.69,0,0,0-.8-1.59,6.39,6.39,0,0,0-3-.48H42.66a3.91,3.91,0,0,0-2.49.74A2.43,2.43,0,0,0,39.25,26.41Zm1.57-14.27a3.43,3.43,0,0,0,.83,2.48,3.12,3.12,0,0,0,2.38.87q3.16,0,3.16-3.39a3.86,3.86,0,0,0-.78-2.58A3,3,0,0,0,44,8.61a3.06,3.06,0,0,0-2.4.9A3.82,3.82,0,0,0,40.82,12.14Z"/><path class="cls-1" d="M55.7,2a2,2,0,0,1,.53-1.5A2.11,2.11,0,0,1,57.76,0a2.06,2.06,0,0,1,1.5.53A2,2,0,0,1,59.8,2a2,2,0,0,1-.54,1.47,2,2,0,0,1-1.5.53,2.07,2.07,0,0,1-1.53-.53A2,2,0,0,1,55.7,2Zm3.86,21.71H55.92V6.58h3.64Z"/><path class="cls-1" d="M80,15.13a9.39,9.39,0,0,1-2.16,6.57,7.73,7.73,0,0,1-6,2.35A8.3,8.3,0,0,1,67.58,23a7.21,7.21,0,0,1-2.83-3.12,10.54,10.54,0,0,1-1-4.72,9.36,9.36,0,0,1,2.14-6.52,7.78,7.78,0,0,1,6-2.34,7.57,7.57,0,0,1,5.9,2.4A9.25,9.25,0,0,1,80,15.13Zm-12.49,0c0,4,1.46,5.95,4.39,5.95s4.34-2,4.34-5.95-1.45-5.88-4.37-5.88a3.75,3.75,0,0,0-3.33,1.52A7.72,7.72,0,0,0,67.51,15.13Z"/><path class="cls-1" d="M0,36.55H6.74q4.68,0,6.77,1.36a4.79,4.79,0,0,1,2.09,4.32,5.18,5.18,0,0,1-1,3.3,4.57,4.57,0,0,1-3,1.66v.16a5.87,5.87,0,0,1,3.52,1.77,5.4,5.4,0,0,1,1.12,3.6,5.81,5.81,0,0,1-2.13,4.78,9.14,9.14,0,0,1-5.94,1.74H0Zm3.71,9.37H7.28a6.14,6.14,0,0,0,3.4-.74,2.82,2.82,0,0,0,1.07-2.5,2.53,2.53,0,0,0-1.16-2.32,7.28,7.28,0,0,0-3.67-.71H3.71Zm0,3v7.19H7.65a5.8,5.8,0,0,0,3.52-.9,3.28,3.28,0,0,0,1.18-2.81,3,3,0,0,0-1.21-2.63,6.47,6.47,0,0,0-3.68-.85Z"/><path class="cls-1" d="M31.33,59.24l-.73-2.39h-.12A7.1,7.1,0,0,1,28,59a7.86,7.86,0,0,1-3.23.57,5.48,5.48,0,0,1-3.95-1.37,5.13,5.13,0,0,1-1.42-3.86,4.55,4.55,0,0,1,2-4,11.38,11.38,0,0,1,6-1.47l3-.1v-.91a3.47,3.47,0,0,0-.76-2.46,3.17,3.17,0,0,0-2.39-.82,8.21,8.21,0,0,0-2.53.39,19.65,19.65,0,0,0-2.32.92l-1.18-2.61a12.43,12.43,0,0,1,3.05-1.11,14.36,14.36,0,0,1,3.14-.38,7.43,7.43,0,0,1,4.94,1.43,5.6,5.6,0,0,1,1.67,4.48V59.24ZM25.9,56.75a4.51,4.51,0,0,0,3.19-1.11,4,4,0,0,0,1.2-3.11V51l-2.2.09a7.53,7.53,0,0,0-3.75.87,2.61,2.61,0,0,0-1.17,2.35,2.31,2.31,0,0,0,.68,1.77A2.94,2.94,0,0,0,25.9,56.75Z"/><path class="cls-1" d="M54.13,59.24H50.47V48.68a4.63,4.63,0,0,0-.8-3,3.1,3.1,0,0,0-2.54-1,4,4,0,0,0-3.38,1.37c-.72.91-1.07,2.43-1.07,4.57v8.56H39V42.07h2.86l.51,2.25h.18a5.06,5.06,0,0,1,2.21-1.89A7.31,7.31,0,0,1,48,41.76q6.18,0,6.18,6.29Z"/><path class="cls-1" d="M62.73,50.17l2.06-2.57L70,42.07h4.21l-6.91,7.37,7.34,9.8H70.33l-5.51-7.53-2,1.64v5.89H59.21V35.09h3.61V46.87l-.18,3.3Z"/></g></g></svg>