<svg xmlns="http://www.w3.org/2000/svg" xmlns:xlink="http://www.w3.org/1999/xlink" viewBox="0 0 80 80"><defs><style>.cls-1{fill:#3c63ae;}.cls-2{fill:url(#linear-gradient);}.cls-3{fill:#333479;}.cls-4{fill:#bbcce0;}.cls-5{fill:#7ea6cf;}.cls-6{fill:#67bd55;}.cls-7{fill:url(#linear-gradient-2);}.cls-8{fill:#fff;}</style><linearGradient id="linear-gradient" x1="0.8" y1="40" x2="79.2" y2="40" gradientTransform="translate(40 -16.57) rotate(45)" gradientUnits="userSpaceOnUse"><stop offset="0" stop-color="#3c63ae"/><stop offset="1" stop-color="#2a4e9a"/></linearGradient><linearGradient id="linear-gradient-2" x1="26.73" y1="21.37" x2="40.16" y2="21.37" gradientUnits="userSpaceOnUse"><stop offset="0" stop-color="#3973b9"/><stop offset="1" stop-color="#04a4de"/></linearGradient></defs><title>SS_Sams_Club</title><g id="Layer_2" data-name="Layer 2"><g id="SS_Sams_Club"><rect class="cls-1" x="12.28" y="12.28" width="55.44" height="55.44" transform="translate(-16.57 40) rotate(-45)"/><rect class="cls-2" x="12.28" y="12.28" width="55.44" height="55.44" transform="translate(-16.57 40) rotate(-45)"/><path class="cls-3" d="M.66,40.33,40.33.66,80,40.33,40.56,79.77l-.23.23L.66,40.33Zm39.67,39.2.23-.23-.23.23ZM1.59,40.33,40.33,79.07,79.07,40.33,40.33,1.59,1.59,40.33Z"/><path class="cls-4" d="M0,39.67,39.67,0,79.34,39.67,39.9,79.11l-.23.23L0,39.67Zm39.67,39.2.23-.23-.23.23ZM.93,39.67,39.67,78.4,78.41,39.67,39.67.93.93,39.67Z"/><path class="cls-5" d="M.33,40,40,.33,79.67,40,40.23,79.44l-.23.23L.33,40ZM40,79.2l.23-.23L40,79.2ZM1.26,40,40,78.74,78.74,40,40,1.26,1.26,40Z"/><path class="cls-6" d="M40.76,29.66l8.29-8.29-8.29-8.29,2.57-2.57L54.19,21.37,43.33,32.23l-2.57-2.57Zm0-16.58Z"/><path class="cls-7" d="M40.16,29.66l-2.57,2.57L26.73,21.37,37.59,10.51l2.57,2.57-8.29,8.29,8.29,8.29Zm0-16.58Z"/><polygon class="cls-8" points="57.68 35.12 59.92 35.37 57.88 38.48 57.34 38.48 57.68 35.12"/><path class="cls-8" d="M13.86,44.3h.58a8.18,8.18,0,0,0,2,3.45,4.58,4.58,0,0,0,3.33,1.37A2.89,2.89,0,0,0,22,48.24a3,3,0,0,0,.85-2.17,4.19,4.19,0,0,0-.12-1,3.6,3.6,0,0,0-1.27-1.95,31.67,31.67,0,0,0-2.93-2,12.29,12.29,0,0,1-3-2.35,4.38,4.38,0,0,1-1-2.9,4.32,4.32,0,0,1,1.31-3.26,4.53,4.53,0,0,1,3.27-1.28,6.5,6.5,0,0,1,2.31.46,7.7,7.7,0,0,0,1.41.45c.39,0,.68-.3.86-.91h.55l.59,5.78h-.67a7.51,7.51,0,0,0-1-2.34,5.39,5.39,0,0,0-1.62-1.7,3.86,3.86,0,0,0-2.12-.62,2.8,2.8,0,0,0-2,.68,2.44,2.44,0,0,0-.74,1.92q0,1.72,2.74,3.42c1.72,1.09,2.89,1.87,3.53,2.32a6.35,6.35,0,0,1,1.65,1.73,4.61,4.61,0,0,1,.7,2.59A4.78,4.78,0,0,1,24,48.66a5.3,5.3,0,0,1-4,1.5A6.19,6.19,0,0,1,18.58,50c-.42-.11-.9-.25-1.44-.44A4.44,4.44,0,0,0,16,49.29c-.45,0-.72.29-.78.87h-.55Z"/><path class="cls-8" d="M35.35,47.92c0,.58.18.87.55.87a2.54,2.54,0,0,0,1.37-.65v.73a5.22,5.22,0,0,1-1,1,1.89,1.89,0,0,1-1.1.49q-1.81,0-1.89-2.1c-1.43,1.4-2.69,2.1-3.76,2.1a2.57,2.57,0,0,1-1.94-.84,2.86,2.86,0,0,1-.8-2,3.25,3.25,0,0,1,.64-2A5.52,5.52,0,0,1,29,44a14.22,14.22,0,0,1,2.07-1l2.07-.83A8.54,8.54,0,0,0,32.79,39a1.48,1.48,0,0,0-1.52-.84,2.77,2.77,0,0,0-1,.2,1.16,1.16,0,0,0-.69.54,1.1,1.1,0,0,0-.08.5c0,.11,0,.28,0,.53s0,.44,0,.59a1.21,1.21,0,0,1-.35.83,1.08,1.08,0,0,1-.79.36,1,1,0,0,1-1.13-1.11,2,2,0,0,1,.27-1q1-2,4.08-2a3.48,3.48,0,0,1,2.91,1,6,6,0,0,1,.81,3.59Zm-2.19-5.07-1.5.58a8.23,8.23,0,0,0-1.26.63,3.07,3.07,0,0,0-1,.95A2.69,2.69,0,0,0,29,46.49a2.55,2.55,0,0,0,.48,1.59,1.61,1.61,0,0,0,1.36.63,3.29,3.29,0,0,0,1.25-.4,2.18,2.18,0,0,0,1-.8Z"/><path class="cls-8" d="M39.89,41a2.37,2.37,0,0,0-.32-1.47,1.76,1.76,0,0,0-1.32-.36v-.45l3.87-1.4V39.1c0,.17,0,.26.12.26a.34.34,0,0,0,.2-.12l.3-.31c.11-.13.21-.23.3-.32a5.37,5.37,0,0,1,3.2-1.28A2.6,2.6,0,0,1,48,38a3,3,0,0,1,1,1.66A7.36,7.36,0,0,1,50.87,38,4.14,4.14,0,0,1,53,37.33c1.41,0,2.33.46,2.74,1.39a9.56,9.56,0,0,1,.62,3.81V47.6a1.94,1.94,0,0,0,.36,1.31,1.88,1.88,0,0,0,1.28.5v.38H52.48v-.38a1.54,1.54,0,0,0,1.68-1.81V42.07a5.56,5.56,0,0,0-.42-2.63,1.82,1.82,0,0,0-1.66-.67,3.25,3.25,0,0,0-2.84,1.65V47.6a1.53,1.53,0,0,0,1.67,1.81v.38H45.36v-.38a1.84,1.84,0,0,0,1.28-.5A1.94,1.94,0,0,0,47,47.6V42a6.65,6.65,0,0,0-.33-2.31,1.38,1.38,0,0,0-1.46-.87,3.95,3.95,0,0,0-3.09,1.61V47.6a1.88,1.88,0,0,0,.37,1.31,1.92,1.92,0,0,0,1.31.5v.38H38.25v-.38a1.88,1.88,0,0,0,1.28-.5,1.94,1.94,0,0,0,.36-1.31Z"/><path class="cls-8" d="M59.26,45.87h.4q.57,3.8,3.2,3.8a2,2,0,0,0,1.37-.52,1.85,1.85,0,0,0,.56-1.41,2,2,0,0,0-.66-1.54,15.14,15.14,0,0,0-2-1.45A9.36,9.36,0,0,1,60,43a3.1,3.1,0,0,1-.72-2.11,3.35,3.35,0,0,1,.46-1.8A3.08,3.08,0,0,1,61,38a3.7,3.7,0,0,1,1.7-.39,5.42,5.42,0,0,1,1.82.49,1.21,1.21,0,0,0,.48.08.45.45,0,0,0,.4-.32h.34V41.5H65.3a7.44,7.44,0,0,0-1-2.45,2,2,0,0,0-1.72-.85,1.91,1.91,0,0,0-1.3.5A1.61,1.61,0,0,0,60.78,40a1.94,1.94,0,0,0,.66,1.49A14.47,14.47,0,0,0,63.56,43a11.49,11.49,0,0,1,2.21,1.72,2.73,2.73,0,0,1,.75,1.94,3.52,3.52,0,0,1-1,2.69,3.69,3.69,0,0,1-2.61,1,8.21,8.21,0,0,1-1.75-.41,3.08,3.08,0,0,0-1-.21.48.48,0,0,0-.52.37h-.33Z"/><path class="cls-8" d="M31.37,57.43a4.45,4.45,0,0,1-1.64.26c-1.75,0-3.06-1-3.06-2.76s1.32-2.86,3.24-2.86a4,4,0,0,1,1.48.24l-.21.58a3.11,3.11,0,0,0-1.24-.23,2.16,2.16,0,0,0-2.42,2.24,2.1,2.1,0,0,0,2.37,2.19,3.57,3.57,0,0,0,1.32-.22Z"/><path class="cls-8" d="M34.79,52.16h.81V57h2.65v.59H34.79Z"/><path class="cls-8" d="M42,52.16v3.23c0,1.21.61,1.73,1.44,1.73S45,56.58,45,55.39V52.16h.81v3.18a2.12,2.12,0,0,1-2.35,2.35,2,2,0,0,1-2.22-2.32V52.16Z"/><path class="cls-8" d="M50.25,52.24a8.24,8.24,0,0,1,1.46-.12,2.79,2.79,0,0,1,1.69.39,1.1,1.1,0,0,1,.53,1,1.33,1.33,0,0,1-1,1.19v0a1.46,1.46,0,0,1,1.28,1.36,1.36,1.36,0,0,1-.53,1.09,3.4,3.4,0,0,1-2.14.51,11.34,11.34,0,0,1-1.24-.06Zm.8,2.23h.73c.83,0,1.33-.4,1.33-.92s-.54-.89-1.35-.89a3.39,3.39,0,0,0-.71.05Zm0,2.6a5.7,5.7,0,0,0,.67,0c.83,0,1.59-.26,1.59-1.06s-.72-1-1.6-1h-.66Z"/><path class="cls-8" d="M56.75,51.12a1.72,1.72,0,1,1-1.52,1.7,1.6,1.6,0,0,1,1.52-1.7Zm0,.26a1.46,1.46,0,0,0,0,2.88A1.33,1.33,0,0,0,58,52.83a1.35,1.35,0,0,0-1.23-1.45Zm-.29,2.43h-.27v-1.9a3.08,3.08,0,0,1,.48,0,.84.84,0,0,1,.53.14.5.5,0,0,1,.16.4.47.47,0,0,1-.33.46h0c.14,0,.25.18.28.46a1.51,1.51,0,0,0,.11.47h-.29a1.44,1.44,0,0,1-.11-.48c0-.25-.15-.34-.37-.34h-.19Zm0-1.05h.2c.22,0,.41-.09.41-.32s-.11-.34-.41-.34l-.2,0Z"/></g></g></svg>