<svg id="Layer_1" data-name="Layer 1" xmlns="http://www.w3.org/2000/svg" viewBox="0 0 80.06 19.46"><defs><style>.cls-1{fill:#ed1c24;stroke:#ec008c;stroke-miterlimit:10;stroke-width:0.06px;}.cls-2{fill:#fff;}</style></defs><title>scotiabank</title><rect class="cls-1" x="0.03" y="0.03" width="80" height="19.4"/><path class="cls-2" d="M17.8,49.9a4.79,4.79,0,0,1-.5-2.3,4.49,4.49,0,0,1,4.4-4.3h6.9L25.9,46H21.6a4.18,4.18,0,0,0-3.8,3.9M20.5,48a3.56,3.56,0,0,1,1.3-1.7,3.79,3.79,0,0,0-3,1.7Zm1.4-1.3A4.49,4.49,0,0,0,20.8,48h2.1A11.32,11.32,0,0,0,21.9,46.7Zm-3.3,1.7a2.82,2.82,0,0,0-.4,1.5h1.9a4,4,0,0,1,.3-1.5Zm2.1,0a4,4,0,0,0-.3,1.5h2.9a4,4,0,0,0-.3-1.5Zm4.2-.4A3.63,3.63,0,0,0,22,46.3,5.5,5.5,0,0,1,23.3,48Zm-1.5.4a4,4,0,0,1,.3,1.5h1.9a4.19,4.19,0,0,0-.4-1.5ZM18.7,52a3.79,3.79,0,0,0,3,1.7A4.31,4.31,0,0,1,20.4,52Zm3.1,1.3a3.59,3.59,0,0,0,1-1.4H20.7A5.26,5.26,0,0,0,21.8,53.3Zm-1.5-1.6a4,4,0,0,1-.3-1.5H18.1a4.19,4.19,0,0,0,.4,1.5Zm2.7,0a4,4,0,0,0,.3-1.5H20.4a4,4,0,0,0,.3,1.5Zm.2.3a4.31,4.31,0,0,1-1.3,1.7,3.54,3.54,0,0,0,3-1.7Zm1.9-.3a2.82,2.82,0,0,0,.4-1.5H23.6a4,4,0,0,1-.3,1.5Zm.8-1.7a4,4,0,0,1-3.8,4H17.8l-2.7,2.6H22a4.64,4.64,0,0,0,4.4-4.3,4.79,4.79,0,0,0-.5-2.3Z" transform="translate(-9.97 -40.27)"/><path class="cls-2" d="M43,53.8c-1.7,0-3-1-3-2.6s1.3-2.6,3-2.6a2.77,2.77,0,0,1,3,2.7c0,1.5-1.3,2.5-3,2.5m0-1.3c.7,0,1.1-.6,1.2-1.4s-.4-1.4-1.1-1.4-1.2.6-1.2,1.4S42.3,52.5,43,52.5Z" transform="translate(-9.97 -40.27)"/><path class="cls-2" d="M60.1,53.7V46.6h1.8V49h0a2.47,2.47,0,0,1,1.5-.5,2.66,2.66,0,0,1,0,5.3,2.18,2.18,0,0,1-1.6-.6h0v.5H60.1M64,51.2a1.12,1.12,0,1,0-1.1,1.3A1.16,1.16,0,0,0,64,51.2Z" transform="translate(-9.97 -40.27)"/><path class="cls-2" d="M50.7,48.7h1.8v5H50.7Zm.9-2.6a.94.94,0,0,0-1,1,1,1,0,1,0,1-1Z" transform="translate(-9.97 -40.27)"/><path class="cls-2" d="M73.2,53.8h1.7V51.2a.92.92,0,0,1,.9-1c.6,0,.9.4.9,1v2.6h1.7v-3a2,2,0,0,0-2.1-2.1,2.16,2.16,0,0,0-1.6.7h0v-.6H73.1l.1,5" transform="translate(-9.97 -40.27)"/><polyline class="cls-2" points="69.63 13.53 71.33 13.53 71.33 11.23 71.43 11.23 72.93 13.53 74.93 13.53 73.03 10.83 74.93 8.53 72.93 8.53 71.43 10.53 71.33 10.53 71.33 6.43 69.63 6.43 69.63 13.53"/><path class="cls-2" d="M39.7,48.7a5.62,5.62,0,0,0-1.3-.2,2.58,2.58,0,0,0-2.8,2.6,2.55,2.55,0,0,0,2.7,2.6,5.62,5.62,0,0,0,1.3-.2L39.5,52a1.56,1.56,0,0,1-.9.3,1.16,1.16,0,0,1-1.2-1.2,1.24,1.24,0,0,1,1.3-1.2,1.9,1.9,0,0,1,.9.3l.1-1.5" transform="translate(-9.97 -40.27)"/><path class="cls-2" d="M59,48.7v5H57.3v-.5h0a2.1,2.1,0,0,1-1.7.6,2.47,2.47,0,0,1-2.3-2.6,2.42,2.42,0,0,1,2.4-2.6,2,2,0,0,1,1.6.6h0v-.5H59m-3.9,2.5a1.27,1.27,0,0,0,1.1,1.4,1.32,1.32,0,0,0,0-2.6C55.5,49.9,55.1,50.5,55.1,51.2Z" transform="translate(-9.97 -40.27)"/><path class="cls-2" d="M72.2,48.7v5H70.5v-.5h0a2.1,2.1,0,0,1-1.7.6,2.47,2.47,0,0,1-2.3-2.6,2.42,2.42,0,0,1,2.4-2.6,2,2,0,0,1,1.6.6h0v-.5h1.7m-4,2.5a1.27,1.27,0,0,0,1.1,1.4,1.32,1.32,0,0,0,0-2.6C68.7,49.9,68.2,50.5,68.2,51.2Z" transform="translate(-9.97 -40.27)"/><path class="cls-2" d="M30,53.5a10.53,10.53,0,0,0,2.1.3c1.5,0,3-.5,3-2.2,0-2.3-3.1-2-3.1-2.9,0-.5.5-.6,1-.6a4.65,4.65,0,0,1,1.7.4l.1-1.5a9.66,9.66,0,0,0-1.8-.3c-1.5,0-3,.6-3,2,0,2.2,3.1,1.8,3.1,2.9,0,.4-.5.6-1,.6a6.4,6.4,0,0,1-1.9-.5L30,53.5" transform="translate(-9.97 -40.27)"/><path class="cls-2" d="M49.9,52.3a4.33,4.33,0,0,1-.5.1.73.73,0,0,1-.8-.8V49.9h1.1V48.6H48.6V47H46.8v1.6H46v1.3h.8v2a1.66,1.66,0,0,0,1.8,1.9,3.08,3.08,0,0,0,1-.1l.3-1.4" transform="translate(-9.97 -40.27)"/></svg>