<svg id="Layer_1" data-name="Layer 1" xmlns="http://www.w3.org/2000/svg" xmlns:xlink="http://www.w3.org/1999/xlink" viewBox="0 0 80 25.7"><defs><style>.cls-1,.cls-2,.cls-4,.cls-6{fill:none;}.cls-2{clip-path:url(#clip-path);}.cls-3{fill:#ed1b2e;}.cls-4{stroke:#000;}.cls-4,.cls-6{stroke-miterlimit:3.86;stroke-width:0.28px;}.cls-10,.cls-12,.cls-5,.cls-7{fill-rule:evenodd;}.cls-6{stroke:#ffc629;}.cls-7,.cls-8{fill:#ffc629;}.cls-10,.cls-9{fill:#0f7ad2;}.cls-11{clip-path:url(#clip-path-2);}.cls-12{fill:#fff;}</style><clipPath id="clip-path"><ellipse class="cls-1" cx="27.7" cy="49.9" rx="8.1" ry="8.2"/></clipPath><clipPath id="clip-path-2" transform="translate(-10 -37.1)"><ellipse class="cls-2" cx="27.7" cy="49.9" rx="8.1" ry="8.2"/></clipPath></defs><title>sencillito</title><rect class="cls-3" width="80" height="25.7"/><path class="cls-4" d="M79.6,53.2a1,1,0,0,1,2,0,1,1,0,0,1-1,1A.94.94,0,0,1,79.6,53.2Z" transform="translate(-10 -37.1)"/><path class="cls-5" d="M80.1,53.9V52.7h.7a.1.1,0,0,1,.1.1V53c0,.1,0,.2-.1.2s-.1.1-.3.1a.1.1,0,0,1,.1.1.35.35,0,0,1,.1.2l.2.3H81l-.2-.3c0-.1-.1-.1-.1-.2l-.1-.1h-.4v.5h-.1Zm.2-.7h.5a.1.1,0,0,0,.1-.1V53c0-.1,0-.1-.1-.1a.35.35,0,0,0-.2-.1h-.4v.4Z" transform="translate(-10 -37.1)"/><path class="cls-6" d="M79.5,53.2a1,1,0,1,1,2,0,1,1,0,0,1-2,0Z" transform="translate(-10 -37.1)"/><path class="cls-7" d="M80,53.8V52.6h.7a.1.1,0,0,1,.1.1c0,.1.1.1.1.2s0,.2-.1.2-.1.1-.3.1a.1.1,0,0,1,.1.1.35.35,0,0,1,.1.2l.2.3h-.2l-.2-.3c0-.1-.1-.1-.1-.2l-.1-.1h-.4v.5H80Zm.2-.6h.5a.1.1,0,0,0,.1-.1V53c0-.1,0-.1-.1-.1a.35.35,0,0,0-.2-.1h-.4v.4Z" transform="translate(-10 -37.1)"/><path class="cls-5" d="M46.1,49.2h-2V48c0-.2,0-.4-.1-.4s-.2-.1-.4-.1-.3,0-.4.1-.1.2-.1.4v.3a.76.76,0,0,0,.2.4c.2.2.7.6,1.7,1.4a11.15,11.15,0,0,1,1,.9,1.61,1.61,0,0,1,.3,1.1,2.9,2.9,0,0,1-.3,1.4,1.6,1.6,0,0,1-.9.7,3.34,3.34,0,0,1-1.5.3,5,5,0,0,1-1.2-.2,1.58,1.58,0,0,1-.8-.5,2.19,2.19,0,0,1-.3-.5,1.48,1.48,0,0,1-.1-.7V51.2h2v1.4c0,.2,0,.3.1.4s.2.1.4.1.3,0,.4-.1.1-.3.1-.6v-.2a.37.37,0,0,0-.1-.3l-.6-.6L42,50.2a5.06,5.06,0,0,1-.8-.9,2.39,2.39,0,0,1-.2-.9,2.13,2.13,0,0,1,.3-1.2,2.7,2.7,0,0,1,.8-.7,3.34,3.34,0,0,1,1.5-.3,3,3,0,0,1,1.8.5,1.43,1.43,0,0,1,.6,1.2v1.3Z" transform="translate(-10 -37.1)"/><path class="cls-5" d="M51,51.4H48.3v1.4c0,.2,0,.4.1.4a.4.4,0,0,0,.7-.3v-1H51v.8a1.68,1.68,0,0,1-.6,1.4,2.65,2.65,0,0,1-1.7.5,3.73,3.73,0,0,1-1.2-.2,1.79,1.79,0,0,1-.7-.5l-.3-.6c0-.2-.1-.4-.1-.7V49.8a1.82,1.82,0,0,1,.6-1.4,3.26,3.26,0,0,1,3.1-.2,1.58,1.58,0,0,1,.7.7,2.87,2.87,0,0,1,.2,1.2Zm-2.7-1.1h.8v-.9a.37.37,0,0,0-.1-.3.44.44,0,0,0-.3-.1.37.37,0,0,0-.3.1c-.1.1-.1.1-.1.3Z" transform="translate(-10 -37.1)"/><path class="cls-5" d="M51.5,54.3V48h1.9v.8a1,1,0,0,1,.5-.6,1.61,1.61,0,0,1,.9-.3,1.43,1.43,0,0,1,1.1.5,2.87,2.87,0,0,1,.2,1.2v4.8H54.2V49.9c0-.2,0-.3-.1-.4a.4.4,0,0,0-.7.3v4.6H51.5Z" transform="translate(-10 -37.1)"/><path class="cls-5" d="M60.9,50.2H59.1v-.7c0-.2,0-.3-.1-.4a.5.5,0,0,0-.6,0c-.1.1-.1.2-.1.4v3.4a.43.43,0,0,0,.7.3c.1-.1.1-.2.1-.4v-.9h1.8v.8a1.68,1.68,0,0,1-.6,1.4,2.86,2.86,0,0,1-1.7.5,2.73,2.73,0,0,1-1.6-.4,1.68,1.68,0,0,1-.6-1.4V49.9a2.92,2.92,0,0,1,.2-.9,1.58,1.58,0,0,1,.7-.7,2.5,2.5,0,0,1,1.3-.3,2,2,0,0,1,1.1.2,2.18,2.18,0,0,1,.8.5.71.71,0,0,1,.3.6,1.7,1.7,0,0,1,.1.7Z" transform="translate(-10 -37.1)"/><path class="cls-5" d="M61.4,47.6V46.4h1.9v1.2Zm0,6.7V48h1.9v6.3Z" transform="translate(-10 -37.1)"/><rect x="53.8" y="9.3" width="1.9" height="7.9"/><rect x="56.1" y="9.3" width="1.9" height="7.9"/><path class="cls-5" d="M68.5,47.6V46.4h1.9v1.2Zm0,6.7V48h1.9v6.3Z" transform="translate(-10 -37.1)"/><path class="cls-5" d="M70.6,49.1V48h.6V46.8h1.9V48H74v1.1h-.8v3.5c0,.2,0,.3.1.4s.2.1.4.1H74v1.1h-.7a3.78,3.78,0,0,1-1.2-.1,2.19,2.19,0,0,1-.5-.3.76.76,0,0,1-.2-.4c0-.2-.1-.4-.1-.8V49h-.7Z" transform="translate(-10 -37.1)"/><path class="cls-5" d="M78.8,49.7v3a1.27,1.27,0,0,1-.1.6,2.09,2.09,0,0,1-.4.6,1.61,1.61,0,0,1-.7.4,3.12,3.12,0,0,1-2.2,0,2.18,2.18,0,0,1-.8-.5,1.63,1.63,0,0,1-.3-.6,1.27,1.27,0,0,1-.1-.6V49.7a2,2,0,0,1,.2-.9,1.58,1.58,0,0,1,.7-.7,2.5,2.5,0,0,1,1.3-.3,5.07,5.07,0,0,1,1.3.2,1.56,1.56,0,0,1,.8.6A2,2,0,0,1,78.8,49.7Zm-2.7,3.2a.4.4,0,1,0,.8,0V49.5a.43.43,0,0,0-.7-.3c-.1.1-.1.2-.1.4Z" transform="translate(-10 -37.1)"/><path class="cls-7" d="M45.8,49h-2V47.8c0-.2,0-.4-.1-.4s-.2-.1-.4-.1-.3,0-.4.1-.1.2-.1.4V48a.76.76,0,0,0,.2.4c.2.2.7.6,1.7,1.4a11.15,11.15,0,0,1,1,.9,1.61,1.61,0,0,1,.3,1.1,2.9,2.9,0,0,1-.3,1.4,2.36,2.36,0,0,1-.9.8,3.34,3.34,0,0,1-1.5.3,5,5,0,0,1-1.2-.2,1.58,1.58,0,0,1-.8-.5,2.19,2.19,0,0,1-.3-.5,1.48,1.48,0,0,1-.1-.7V51h2v1.4c0,.2,0,.3.1.4s.2.1.4.1.3,0,.4-.1.1-.3.1-.6V52a.37.37,0,0,0-.1-.3l-.6-.6-1.4-1.2A5.06,5.06,0,0,1,41,49a2,2,0,0,1-.2-.9,2.13,2.13,0,0,1,.3-1.2,2.7,2.7,0,0,1,.8-.7,3.34,3.34,0,0,1,1.5-.3,3,3,0,0,1,1.8.5,1.43,1.43,0,0,1,.6,1.2Z" transform="translate(-10 -37.1)"/><path class="cls-7" d="M50.8,51.1H48.1v1.4c0,.2,0,.4.1.4a.4.4,0,0,0,.7-.3v-1h1.9v.8a1.68,1.68,0,0,1-.6,1.4,2.65,2.65,0,0,1-1.7.5,3.73,3.73,0,0,1-1.2-.2,1.79,1.79,0,0,1-.7-.5l-.3-.6c0-.2-.1-.4-.1-.7V49.5a1.82,1.82,0,0,1,.6-1.4,3.26,3.26,0,0,1,3.1-.2,1.58,1.58,0,0,1,.7.7,2.87,2.87,0,0,1,.2,1.2Zm-2.7-1h.8v-.9a.43.43,0,0,0-.7-.3c-.1.1-.1.1-.1.3Z" transform="translate(-10 -37.1)"/><path class="cls-7" d="M51.2,54.1V47.8h1.9v.8a1,1,0,0,1,.5-.6,1.61,1.61,0,0,1,.9-.3,1.43,1.43,0,0,1,1.1.5,2.68,2.68,0,0,1,.2,1.1v4.8H53.9V49.6c0-.2,0-.3-.1-.4a.4.4,0,0,0-.7.3v4.6Z" transform="translate(-10 -37.1)"/><path class="cls-7" d="M60.7,50H58.9v-.7c0-.2,0-.3-.1-.4a.5.5,0,0,0-.6,0c-.1.1-.1.2-.1.4v3.4a.43.43,0,0,0,.7.3c.1-.1.1-.2.1-.4v-.9h1.8v.8a1.68,1.68,0,0,1-.6,1.4,2.77,2.77,0,0,1-1.6.5,2.73,2.73,0,0,1-1.6-.4,1.68,1.68,0,0,1-.6-1.4V49.7a2.92,2.92,0,0,1,.2-.9,1.39,1.39,0,0,1,.8-.7,2.5,2.5,0,0,1,1.3-.3,3.59,3.59,0,0,1,1.1.2,2.18,2.18,0,0,1,.8.5.71.71,0,0,1,.3.6,1.7,1.7,0,0,1,.1.7V50Z" transform="translate(-10 -37.1)"/><path class="cls-7" d="M61.2,47.3V46.1h1.9v1.2Zm0,6.8V47.8h1.9v6.3Z" transform="translate(-10 -37.1)"/><rect class="cls-8" x="53.5" y="9.1" width="1.9" height="7.9"/><rect class="cls-8" x="55.9" y="9.1" width="1.9" height="7.9"/><path class="cls-7" d="M68.2,47.3V46.1h1.9v1.2Zm0,6.8V47.8h1.9v6.3Z" transform="translate(-10 -37.1)"/><path class="cls-7" d="M70.4,48.9V47.8H71V46.6h1.9v1.2h.8v1.1h-.8v3.5c0,.2,0,.3.1.4s.2.1.4.1h.3V54H73a3.78,3.78,0,0,1-1.2-.1,2.19,2.19,0,0,1-.5-.3.76.76,0,0,1-.2-.4c0-.2-.1-.4-.1-.8V48.8h-.6Z" transform="translate(-10 -37.1)"/><path class="cls-7" d="M78.5,49.5v3a1.27,1.27,0,0,1-.1.6,2.09,2.09,0,0,1-.4.6,1.61,1.61,0,0,1-.7.4,3.12,3.12,0,0,1-2.2,0,2.18,2.18,0,0,1-.8-.5A1.63,1.63,0,0,1,74,53V49.6a2,2,0,0,1,.2-.9,1.58,1.58,0,0,1,.7-.7,2.5,2.5,0,0,1,1.3-.3,4.44,4.44,0,0,1,1.3.2,1.56,1.56,0,0,1,.8.6A2.15,2.15,0,0,1,78.5,49.5Zm-2.7,3.1c0,.1,0,.3.1.3a.4.4,0,0,0,.7-.3V49.2a.43.43,0,0,0-.7-.3c-.1.1-.1.2-.1.4Z" transform="translate(-10 -37.1)"/><rect x="31.4" y="18.4" width="36.9" height="1.8"/><rect class="cls-9" x="31.1" y="18.2" width="36.9" height="1.8"/><path class="cls-5" d="M19,50.1a9,9,0,1,1,9,9.1A9,9,0,0,1,19,50.1Z" transform="translate(-10 -37.1)"/><path class="cls-10" d="M18.7,49.9a9,9,0,1,1,9,9.1A9,9,0,0,1,18.7,49.9Z" transform="translate(-10 -37.1)"/><path id="SVGID" class="cls-7" d="M19.6,49.9a8.1,8.1,0,1,1,8.1,8.2A8.09,8.09,0,0,1,19.6,49.9Z" transform="translate(-10 -37.1)"/><g class="cls-11"><path class="cls-10" d="M35.7,50.5,32,49.9a14.71,14.71,0,0,0-1.3-2,7.12,7.12,0,0,0-1.3-1.6,19.12,19.12,0,0,1-.6-2.7c-.2-.9-.1-1.4-.8-1.2a2.11,2.11,0,0,0-1.7,1.8c-.3,1.4.2,2,.3,2.8a14.75,14.75,0,0,1,.1,1.6,8.6,8.6,0,0,0-2.3-.2c-.9.1-1.7.3-2,1.2a4.55,4.55,0,0,0,.1,1.4,1.09,1.09,0,0,0-.3,1.3c.2.8.5.8.5.8a1.61,1.61,0,0,0,.1,1.2,1,1,0,0,0,.7.6,1.86,1.86,0,0,0,1.3,1.5c1.2.4,1.7,0,1.7,0a6.09,6.09,0,0,0,2.3.3c.8-.1,1.7-1.1,2.5-1.2a2.54,2.54,0,0,1,1.4.3,7.35,7.35,0,0,1,.8.2,10.31,10.31,0,0,0,1.8-2.5,12.76,12.76,0,0,0,.7-2.8Z" transform="translate(-10 -37.1)"/><path class="cls-12" d="M35.7,51.1s-3-.6-3.4-.7a3.2,3.2,0,0,0-.7-.1,9.09,9.09,0,0,0-1.2-2c-.9-1.2-1.2-1.1-1.6-2.3a14.6,14.6,0,0,1-.6-2.6c-.1-.6-.3-.7-.7-.4a2.19,2.19,0,0,0-.9,1.9,20.16,20.16,0,0,1,.5,2.8,5.53,5.53,0,0,1-.1,1.4,9.21,9.21,0,0,0-2.6-.3c-1.1.1-1.6.5-1.6,1.1s.2,1.2,1.4,1.4a18.1,18.1,0,0,0,2.3-.3c.6-.1.6-.5.4-.8a1.73,1.73,0,0,0-1.3-.5c-.5,0-.9.3-1.1.3s-.6-.1-.1-.4a2.26,2.26,0,0,1,1.9-.2c.9.2,1,.4,1.2.8a1.2,1.2,0,0,1,0,.7,1,1,0,0,1,.8.8c.1.7-.3.9-.3.9a1.08,1.08,0,0,1,.5.8c.1.2-.1.8-.1.8a2.13,2.13,0,0,1,.5.8c0,.6-.8.9-.8.9a1.72,1.72,0,0,0,1.4-.1c.7-.4,1.3-1,2.1-.9s2.1.5,2.1.5A11.19,11.19,0,0,0,35.2,53,3.59,3.59,0,0,0,35.7,51.1Z" transform="translate(-10 -37.1)"/><path class="cls-12" d="M23.1,51.2a2.42,2.42,0,0,0,1.7.4,14.94,14.94,0,0,0,2.2-.4c.5-.1.8-.1.9.4s-.2.8-.7.9a7.88,7.88,0,0,1-2.3.4c-.6-.1-1.5-.1-1.8-.4s-.4-.5-.2-.9S23.1,51.2,23.1,51.2Z" transform="translate(-10 -37.1)"/><path class="cls-12" d="M23.5,53.2a3.62,3.62,0,0,0,1.8.3,6,6,0,0,0,2-.6c.5-.1.8,0,.9.4s-.1.7-.7.9a7.38,7.38,0,0,1-2.4.3c-1-.1-1.6-.2-1.7-.6A.94.94,0,0,1,23.5,53.2Z" transform="translate(-10 -37.1)"/><path class="cls-12" d="M24.3,54.8s.3.7.7.8a3.24,3.24,0,0,0,1.8.1c1-.1,1.5-.4,1.6-.6a.66.66,0,0,0-.1-.6c-.1-.1-.2-.2-.6-.1a7.21,7.21,0,0,1-2,.5A9.44,9.44,0,0,1,24.3,54.8Z" transform="translate(-10 -37.1)"/></g></svg>