<svg xmlns="http://www.w3.org/2000/svg" viewBox="0 0 80 47.26"><defs><style>.cls-1{fill:#862165;}</style></defs><title>skrill Direct</title><g id="Layer_2" data-name="Layer 2"><g id="skrill_Direct" data-name="skrill Direct"><path class="cls-1" d="M63.44,2.68l6.64-1.19V27H63.44Zm9.69,0V27h6.65V1.49ZM54,27h6.65V8.33H54ZM10.1,11c-.84-.05-2.79-.18-2.79-1.93,0-2.11,2.8-2.11,3.85-2.11A23.05,23.05,0,0,1,17.1,8s.95.34,1.76.68l.08,0V2.9l-.1,0a23.89,23.89,0,0,0-8.7-1.38C2.65,1.49,0,5.85,0,9.59c0,2.15.92,7.22,9.5,7.8.72.05,2.65.16,2.65,2,0,1.49-1.58,2.37-4.23,2.37A20.69,20.69,0,0,1,.47,20.28v6a34.87,34.87,0,0,0,8.85,1c7.32,0,10.6-4.13,10.6-8.22C19.92,14.4,16.25,11.38,10.1,11ZM50.24,8.06C44.1,8.26,41,11,41,16.49V27h6.69V18.42c0-3.28.43-4.68,4.32-4.82V8.16A9.3,9.3,0,0,0,50.24,8.06Zm-18,.25a23.36,23.36,0,0,1-3.79,6.49V1.49L21.59,2.84V27h6.85V19.51a25.87,25.87,0,0,1,3,7.46h8.21c-.82-3.37-4.37-9.6-4.37-9.6a29.84,29.84,0,0,0,4.81-9.06ZM57.3,6.55A3.28,3.28,0,1,0,54,3.27,3.28,3.28,0,0,0,57.3,6.55Z"/><path class="cls-1" d="M36.31,39a7.76,7.76,0,0,1-2.22,6q-2.21,2.07-6.39,2.07H23.24V31.29h4.94a8.36,8.36,0,0,1,6,2A7.48,7.48,0,0,1,36.31,39Zm-3.47.08q0-5.07-4.49-5.07H26.58V44.29H28Q32.84,44.29,32.84,39.1Z"/><path class="cls-1" d="M37.7,31.88c0-1.07.59-1.6,1.79-1.6s1.78.53,1.78,1.6a1.55,1.55,0,0,1-.44,1.19,1.86,1.86,0,0,1-1.34.43C38.29,33.5,37.7,33,37.7,31.88Zm3.42,15.17H37.84V35h3.28Z"/><path class="cls-1" d="M49.82,34.77a4.89,4.89,0,0,1,1.11.1L50.68,38a3.81,3.81,0,0,0-1-.11,3.47,3.47,0,0,0-2.45.81,2.9,2.9,0,0,0-.88,2.26v6.14H43.09V35h2.49l.49,2h.16a4.55,4.55,0,0,1,1.51-1.63A3.78,3.78,0,0,1,49.82,34.77Z"/><path class="cls-1" d="M56.88,47.26a6.22,6.22,0,0,1-4.55-1.6,6.11,6.11,0,0,1-1.64-4.55,6.71,6.71,0,0,1,1.51-4.69,5.41,5.41,0,0,1,4.19-1.65,5.32,5.32,0,0,1,4,1.46,5.5,5.5,0,0,1,1.42,4v1.59H54A3.19,3.19,0,0,0,54.85,44a2.94,2.94,0,0,0,2.18.78,9.16,9.16,0,0,0,2.06-.22,10.27,10.27,0,0,0,2-.72v2.54a7.56,7.56,0,0,1-1.84.64A11.65,11.65,0,0,1,56.88,47.26Zm-.47-10.15a2.11,2.11,0,0,0-1.64.66,3,3,0,0,0-.67,1.88h4.61a2.77,2.77,0,0,0-.64-1.88A2.15,2.15,0,0,0,56.41,37.11Z"/><path class="cls-1" d="M67.88,47.26q-5.62,0-5.63-6.17a6.6,6.6,0,0,1,1.53-4.7,5.76,5.76,0,0,1,4.39-1.62,8.33,8.33,0,0,1,3.75.82l-1,2.54q-.78-.32-1.44-.51a4.84,4.84,0,0,0-1.34-.2c-1.71,0-2.57,1.22-2.57,3.64s.86,3.54,2.57,3.54a6.18,6.18,0,0,0,1.76-.25,6.52,6.52,0,0,0,1.61-.8v2.82a5.51,5.51,0,0,1-1.61.7A9,9,0,0,1,67.88,47.26Z"/><path class="cls-1" d="M77.93,44.64A7.09,7.09,0,0,0,80,44.27v2.44a7.31,7.31,0,0,1-3,.55,3.68,3.68,0,0,1-2.87-1,4.33,4.33,0,0,1-.9-3V37.46H71.64V36.07L73.45,35l1-2.55h2.1V35h3.37v2.46H76.5v5.81a1.29,1.29,0,0,0,.39,1A1.56,1.56,0,0,0,77.93,44.64Z"/></g></g></svg>