<svg xmlns="http://www.w3.org/2000/svg" viewBox="0 0 80 27.32"><defs><style>.cls-1{fill:#862165;}</style></defs><title>skrill</title><g id="Layer_2" data-name="Layer 2"><g id="skrill"><path class="cls-1" d="M63.62,2.69l6.65-1.2V27.05H63.62Zm9.72,0V27.05H80V1.49ZM54.14,27.05H60.8V8.36H54.14Zm-44-16c-.84-.05-2.79-.18-2.79-1.93C7.33,7,10.14,7,11.19,7a23.29,23.29,0,0,1,6,1.06s1,.33,1.77.68l.07,0V2.91l-.1,0a23.71,23.71,0,0,0-8.72-1.39C2.66,1.49,0,5.87,0,9.61c0,2.16.93,7.25,9.52,7.83.73,0,2.67.16,2.67,2,0,1.5-1.59,2.38-4.25,2.38A20.81,20.81,0,0,1,.47,20.34v6a34.61,34.61,0,0,0,8.88,1c7.34,0,10.63-4.13,10.63-8.23C20,14.44,16.3,11.41,10.12,11ZM50.38,8.08c-6.15.2-9.28,3-9.28,8.45V27.05h6.72V18.47c0-3.28.43-4.69,4.33-4.83V8.18A9.43,9.43,0,0,0,50.38,8.08Zm-18.06.26a23.37,23.37,0,0,1-3.8,6.5V1.49L21.65,2.85v24.2h6.87V19.57a26.06,26.06,0,0,1,3,7.48h8.23c-.82-3.39-4.38-9.63-4.38-9.63a30,30,0,0,0,4.82-9.08ZM57.46,6.56a3.28,3.28,0,1,0-3.28-3.28A3.28,3.28,0,0,0,57.46,6.56Z"/></g></g></svg>