<svg id="Layer_1" data-name="Layer 1" xmlns="http://www.w3.org/2000/svg" viewBox="0 0 80 14.51"><defs><style>.cls-1{fill:#f38020;}</style></defs><title>Sofort-eng</title><path class="cls-1" d="M32.11,43H24.05a7.78,7.78,0,0,0-3.61.56c-1.11.56-2.08,1.69-2.83,3.93a4.49,4.49,0,0,0-.26,1.26,1.89,1.89,0,0,0,.19.94,2.64,2.64,0,0,0,.79.89,3.88,3.88,0,0,0,1.2.61l.53.15.82.24a2.05,2.05,0,0,1,.38.16.79.79,0,0,1,.3.3.73.73,0,0,1,.07.29.87.87,0,0,1-.06.34.92.92,0,0,1-.56.62,4,4,0,0,1-1.4.16H11.32L10,57h8.88a9.72,9.72,0,0,0,3.83-.62A5.88,5.88,0,0,0,26.18,52a3,3,0,0,0-.21-2.3,3.28,3.28,0,0,0-2-1.31l-.47-.14-.7-.2a.89.89,0,0,1-.55-.4.76.76,0,0,1-.08-.63.92.92,0,0,1,.46-.55,1.84,1.84,0,0,1,.9-.2h5.16l.11-.16A11.13,11.13,0,0,1,32.11,43" transform="translate(-10 -42.74)"/><path class="cls-1" d="M32.12,43H24.06a7.8,7.8,0,0,0-3.61.56c-1.11.56-2.08,1.68-2.83,3.93a4.49,4.49,0,0,0-.26,1.26,1.89,1.89,0,0,0,.19.94,2.64,2.64,0,0,0,.79.89,3.66,3.66,0,0,0,1.2.6l.53.15.82.24a2.05,2.05,0,0,1,.38.16.79.79,0,0,1,.3.3.73.73,0,0,1,.07.29.87.87,0,0,1-.06.34.9.9,0,0,1-.56.62,4,4,0,0,1-1.4.16H11.33L10,57h8.88a9.72,9.72,0,0,0,3.83-.62A5.88,5.88,0,0,0,26.19,52a3,3,0,0,0-.21-2.3,3.28,3.28,0,0,0-2-1.31l-.47-.14-.7-.2a.89.89,0,0,1-.55-.4.76.76,0,0,1-.08-.63.92.92,0,0,1,.46-.55,1.84,1.84,0,0,1,.9-.2H28.7l.11-.16A11,11,0,0,1,32.12,43" transform="translate(-10 -42.74)"/><path class="cls-1" d="M76,43a3.5,3.5,0,0,1,1.29,3.34h2.59L76,57h3.9l3.9-10.72h5L90,43Z" transform="translate(-10 -42.74)"/><path class="cls-1" d="M75.8,44.35c-.64-.92-2-1.38-4-1.38H67.08L62,57h4.35l1.86-5c.09.2,1.19,5,1.19,5h4.57a43.44,43.44,0,0,0-1.44-4.89A8.11,8.11,0,0,0,72,51a6.43,6.43,0,0,0,3.94-3.6,3.28,3.28,0,0,0-.09-3.07M72,47.46a2.52,2.52,0,0,1-2.59,1.82h-.75l1.26-3.4h.72c1.32,0,1.81.38,1.36,1.58" transform="translate(-10 -42.74)"/><path class="cls-1" d="M40,44.28a4.1,4.1,0,0,0-3.58-1.52,7.33,7.33,0,0,0-3.15.72,9.91,9.91,0,0,0-3.77,3.29,14.09,14.09,0,0,0-1.73,3.35c-.86,2.37-.85,4.29,0,5.56a4.13,4.13,0,0,0,3.66,1.57h0c3.86,0,6.74-2.53,8.57-7.52.49-1.32,1.13-3.78,0-5.45M35.9,49.93c-1.2,3.3-2.08,4.13-3.39,4.13h0c-1.28,0-1.73-.81-.53-4.09.9-2.45,2.06-4,3.46-4h0c1.33,0,1.63.77.46,4" transform="translate(-10 -42.74)"/><path class="cls-1" d="M55.46,43H47.25a4.82,4.82,0,0,0-4.81,3.34L38.54,57h4.27l2-5.51h3.78l1.07-2.95H45.9l.61-1.71a.9.9,0,0,1,.87-.55h4.45l.11-.16A12.14,12.14,0,0,1,55.46,43" transform="translate(-10 -42.74)"/><path class="cls-1" d="M63.33,44.28a4.1,4.1,0,0,0-3.58-1.52,7.37,7.37,0,0,0-3.15.72,9.91,9.91,0,0,0-3.77,3.29,14.09,14.09,0,0,0-1.73,3.35c-.87,2.37-.86,4.29,0,5.56a4.13,4.13,0,0,0,3.66,1.57h0c3.86,0,6.74-2.53,8.57-7.52.49-1.32,1.12-3.78,0-5.45M59.2,49.93c-1.2,3.3-2.08,4.13-3.39,4.13h0c-1.28,0-1.73-.81-.53-4.09.89-2.45,2.06-4,3.46-4h0c1.33,0,1.63.77.46,4" transform="translate(-10 -42.74)"/><path class="cls-1" d="M76,43a3.5,3.5,0,0,1,1.29,3.34h2.59L76,57h3.9l3.9-10.72h5L90,43Z" transform="translate(-10 -42.74)"/><path class="cls-1" d="M75.8,44.33c-.64-.92-2-1.38-4-1.38H67.08L62,57h4.35l1.86-5c.09.2,1.19,5,1.19,5h4.57a43.44,43.44,0,0,0-1.44-4.89A8.11,8.11,0,0,0,72,51a6.43,6.43,0,0,0,3.94-3.6,3.25,3.25,0,0,0-.09-3.07M72,47.44a2.52,2.52,0,0,1-2.59,1.82h-.75l1.26-3.4h.72c1.31,0,1.8.38,1.36,1.58" transform="translate(-10 -42.74)"/><path class="cls-1" d="M40,44.26a4.1,4.1,0,0,0-3.58-1.52,7.33,7.33,0,0,0-3.15.72,9.91,9.91,0,0,0-3.77,3.29,14.47,14.47,0,0,0-1.73,3.35c-.87,2.37-.86,4.29,0,5.56a4.13,4.13,0,0,0,3.66,1.57h0c3.86,0,6.74-2.53,8.57-7.52.48-1.32,1.12-3.78,0-5.45M35.9,49.91C34.7,53.21,33.82,54,32.51,54h0c-1.28,0-1.73-.81-.53-4.09.9-2.45,2.06-4,3.46-4h0c1.33,0,1.64.77.46,4" transform="translate(-10 -42.74)"/><path class="cls-1" d="M55.47,43H47.26a4.82,4.82,0,0,0-4.81,3.34L38.54,57h4.27l2-5.51h3.78l1.07-3H45.9l.61-1.71a.9.9,0,0,1,.87-.55h4.45l.11-.16A12,12,0,0,1,55.47,43" transform="translate(-10 -42.74)"/><path class="cls-1" d="M63.34,44.26a4.1,4.1,0,0,0-3.58-1.52,7.33,7.33,0,0,0-3.15.72,9.91,9.91,0,0,0-3.77,3.29,14.09,14.09,0,0,0-1.73,3.35c-.87,2.37-.86,4.29,0,5.56a4.13,4.13,0,0,0,3.66,1.57h0c3.86,0,6.75-2.53,8.57-7.52.48-1.32,1.12-3.78,0-5.45M59.2,49.91C58,53.21,57.12,54,55.81,54h0c-1.28,0-1.73-.81-.53-4.09.9-2.45,2.06-4,3.46-4h0c1.33,0,1.64.77.46,4" transform="translate(-10 -42.74)"/></svg>