<svg xmlns="http://www.w3.org/2000/svg" viewBox="0 0 80 25.05"><defs><style>.cls-1{fill:#ec8023;}.cls-2{fill:#3a3a3a;}</style></defs><title>Sofort-de</title><g id="Layer_2" data-name="Layer 2"><g id="Sofort-de"><path class="cls-1" d="M62,4.74a2.53,2.53,0,0,1-2.6,1.84h-.74l1.26-3.44h.72c1.31,0,1.8.39,1.36,1.6M65.8,1.6c-.64-.93-1.95-1.39-4-1.39H57.08L52,14.41h4.35l1.86-5c.09.21,1.19,5,1.19,5h4.57a43.67,43.67,0,0,0-1.45-4.95,7.1,7.1,0,0,0-.54-1.11,6.42,6.42,0,0,0,3.94-3.64A3.31,3.31,0,0,0,65.8,1.6M22.12.2H14.06a7.72,7.72,0,0,0-3.62.57c-1.1.57-2.08,1.7-2.83,4A4.62,4.62,0,0,0,7.35,6a1.9,1.9,0,0,0,.19,1,2.66,2.66,0,0,0,.79.9,3.72,3.72,0,0,0,1.19.61l.53.16c.28.07.55.16.82.24a1.54,1.54,0,0,1,.38.16.79.79,0,0,1,.3.3.82.82,0,0,1,.07.3,1.11,1.11,0,0,1-.06.34.94.94,0,0,1-.55.63,4,4,0,0,1-1.4.16H1.31L0,14.4H8.88a9.61,9.61,0,0,0,3.83-.63,5.93,5.93,0,0,0,3.47-4.41A3.06,3.06,0,0,0,16,7a3.28,3.28,0,0,0-2-1.33l-.47-.14-.7-.2a.89.89,0,0,1-.55-.4.78.78,0,0,1-.08-.64.92.92,0,0,1,.46-.55,1.74,1.74,0,0,1,.9-.21h5.16l.1-.16A11.53,11.53,0,0,1,22.12.2"/><path class="cls-1" d="M25.9,7.24c-1.2,3.33-2.08,4.16-3.39,4.16h0c-1.28,0-1.73-.82-.53-4.13.9-2.48,2.06-4.06,3.46-4.06h0c1.34,0,1.64.79.47,4M30,1.53A4.08,4.08,0,0,0,26.46,0a7.17,7.17,0,0,0-3.15.73,9.77,9.77,0,0,0-3.77,3.32,14.32,14.32,0,0,0-1.73,3.38c-.87,2.39-.86,4.34,0,5.62a4.15,4.15,0,0,0,3.66,1.59h0c3.86,0,6.74-2.56,8.57-7.6.48-1.34,1.12-3.83,0-5.51M45.47.2H37.25a4.85,4.85,0,0,0-4.81,3.37L28.54,14.4h4.27l2-5.57h3.77l1.08-3H35.9l.61-1.72a.91.91,0,0,1,.87-.56h4.45l.11-.16A12,12,0,0,1,45.47.2m3.73,7c-1.2,3.33-2.08,4.16-3.39,4.16h0c-1.28,0-1.73-.82-.53-4.13.9-2.48,2.06-4.06,3.46-4.06h0c1.34,0,1.65.79.47,4m4.14-5.71A4.08,4.08,0,0,0,49.76,0a7.17,7.17,0,0,0-3.15.73,9.77,9.77,0,0,0-3.77,3.32,14.32,14.32,0,0,0-1.73,3.38c-.87,2.39-.86,4.34,0,5.62a4.15,4.15,0,0,0,3.66,1.59h0c3.86,0,6.75-2.56,8.57-7.6.48-1.34,1.12-3.83,0-5.51"/><path class="cls-1" d="M66,.21A3.2,3.2,0,0,1,66.7,1a3.71,3.71,0,0,1,.59,2.61h2.59L66,14.41h3.9L73.78,3.58h5L80,.21Z"/><path class="cls-2" d="M7.05,16.57a1.16,1.16,0,0,1-.34.53,1.07,1.07,0,0,1-.62.16q-.42,0-.51-.15c-.06-.1,0-.27,0-.52A1.15,1.15,0,0,1,6,16.05a1.09,1.09,0,0,1,.61-.15q.42,0,.51.15c.07.1,0,.27,0,.52m-2.36,0a1.08,1.08,0,0,1-.34.53,1,1,0,0,1-.61.16q-.42,0-.51-.15a.65.65,0,0,1,0-.52,1.14,1.14,0,0,1,.34-.54,1.13,1.13,0,0,1,.62-.15q.42,0,.51.15c.06.1,0,.27,0,.52M6,22.3a4.73,4.73,0,0,1-.61,1.16,4,4,0,0,1-.87.87,4,4,0,0,1-1.1.54,4.54,4.54,0,0,1-1.3.18A3.4,3.4,0,0,1,1,24.88a1.43,1.43,0,0,1-.7-.5A1.49,1.49,0,0,1,0,23.54a3.54,3.54,0,0,1,.23-1.18l1.55-4.29a.3.3,0,0,1,.07-.1L2,17.9l.23,0,.35,0,.34,0,.2,0A.17.17,0,0,1,3.2,18a.17.17,0,0,1,0,.1L1.7,22.23a2.3,2.3,0,0,0-.16.73.88.88,0,0,0,.11.51.69.69,0,0,0,.35.3,1.34,1.34,0,0,0,.56.1,1.91,1.91,0,0,0,1.19-.4A2.69,2.69,0,0,0,4.21,23a2.94,2.94,0,0,0,.34-.66l1.53-4.25a.2.2,0,0,1,.07-.1.5.5,0,0,1,.13-.07l.24,0,.35,0,.33,0,.2,0a.19.19,0,0,1,.08.07.17.17,0,0,1,0,.1Zm6.11-2.46a1.14,1.14,0,0,0,.07-.38.45.45,0,0,0-.09-.28.6.6,0,0,0-.27-.17,1.57,1.57,0,0,0-.5-.06h-.72L9.9,20.78h.8a1.53,1.53,0,0,0,.51-.07,1.28,1.28,0,0,0,.38-.21,1.33,1.33,0,0,0,.29-.29,1.85,1.85,0,0,0,.19-.37m-.73,3a1.06,1.06,0,0,0,.08-.44.57.57,0,0,0-.12-.32.6.6,0,0,0-.33-.2,1.89,1.89,0,0,0-.6-.07H9.53l-.73,2h1a2,2,0,0,0,.52-.06,1.59,1.59,0,0,0,.42-.19,1.38,1.38,0,0,0,.34-.3,1.22,1.22,0,0,0,.23-.42m1.49-.05a2.57,2.57,0,0,1-.35.68A3.09,3.09,0,0,1,12,24a2.85,2.85,0,0,1-.58.4,3.36,3.36,0,0,1-.65.28,3.53,3.53,0,0,1-.7.16,4.92,4.92,0,0,1-.79.05H7.44a.3.3,0,0,1-.26-.1c-.06-.07-.06-.19,0-.35l2.21-6.14A.68.68,0,0,1,9.64,18a.61.61,0,0,1,.34-.1h1.75a4.34,4.34,0,0,1,1,.1,1.56,1.56,0,0,1,.63.33.89.89,0,0,1,.26.56,1.73,1.73,0,0,1-.12.8,2.16,2.16,0,0,1-.24.48,2.2,2.2,0,0,1-.33.41,2,2,0,0,1-.43.33,2.75,2.75,0,0,1-.49.23,1.27,1.27,0,0,1,.48.19,1,1,0,0,1,.31.35,1.12,1.12,0,0,1,.11.5,1.83,1.83,0,0,1-.13.65m5.22,1.55c0,.11-.08.2-.11.27a.85.85,0,0,1-.1.17l-.1.09a.16.16,0,0,1-.1,0H14.13a.32.32,0,0,1-.26-.11c-.06-.07,0-.19,0-.35l2.22-6.14a.66.66,0,0,1,.24-.35.61.61,0,0,1,.34-.1h3.48a.15.15,0,0,1,.08,0,.13.13,0,0,1,0,.1.59.59,0,0,1,0,.17c0,.07,0,.16-.08.27l-.11.26a1.94,1.94,0,0,1-.1.17.46.46,0,0,1-.1.1.19.19,0,0,1-.1,0H17.26l-.62,1.72h2.11a.11.11,0,0,1,.08,0,.12.12,0,0,1,0,.09.59.59,0,0,1,0,.17,2.38,2.38,0,0,1-.08.26,1.69,1.69,0,0,1-.11.26.55.55,0,0,1-.1.17.41.41,0,0,1-.1.09.16.16,0,0,1-.1,0H16.24l-.71,2H18a.11.11,0,0,1,.08,0,.13.13,0,0,1,0,.1.59.59,0,0,1,0,.17,2.38,2.38,0,0,1-.08.26M24.7,20a.91.91,0,0,0,.06-.59.54.54,0,0,0-.39-.34l-.23,0-.38,0h-.63l-.72,2h.72a1.93,1.93,0,0,0,.55-.07,1.75,1.75,0,0,0,.46-.21A1.45,1.45,0,0,0,24.7,20m.11,4.78-.06.1a.26.26,0,0,1-.13.07,1.18,1.18,0,0,1-.25,0h-.79a.69.69,0,0,1-.19,0,.15.15,0,0,1-.09-.08.37.37,0,0,1,0-.11l-.06-1.58c0-.17,0-.33-.05-.47a1.11,1.11,0,0,0-.11-.35.66.66,0,0,0-.23-.21,1,1,0,0,0-.38-.07H22l-1,2.69a.23.23,0,0,1-.07.1.37.37,0,0,1-.14.07l-.23,0-.35,0-.34,0a.77.77,0,0,1-.2,0s-.08,0-.09-.07a.17.17,0,0,1,0-.1l2.31-6.4a.68.68,0,0,1,.25-.35.58.58,0,0,1,.33-.1h2.26l.31,0a2.16,2.16,0,0,1,.69.21,1.06,1.06,0,0,1,.59.95,2.26,2.26,0,0,1-.15.74,2.81,2.81,0,0,1-.32.65,3.17,3.17,0,0,1-.45.52,2.87,2.87,0,0,1-.57.39,3.06,3.06,0,0,1-.67.28,1,1,0,0,1,.22.18.89.89,0,0,1,.17.27,1.61,1.61,0,0,1,.1.35c0,.13,0,.28.05.45l.09,1.39a2.37,2.37,0,0,1,0,.3.61.61,0,0,1,0,.15m8.82-.18a1,1,0,0,1-.17.21.72.72,0,0,1-.21.12,1.34,1.34,0,0,1-.31.05l-.46,0-.49,0a.81.81,0,0,1-.27-.05.2.2,0,0,1-.12-.12.72.72,0,0,1,0-.21l.5-4.47h0l-2.67,4.47a1.15,1.15,0,0,1-.15.2.46.46,0,0,1-.2.13,1.17,1.17,0,0,1-.3.05l-.49,0-.49,0a.81.81,0,0,1-.27-.05.2.2,0,0,1-.12-.12.72.72,0,0,1,0-.21L28,18.41a1.82,1.82,0,0,1,0-.31.37.37,0,0,1,.13-.17.53.53,0,0,1,.25-.07l.43,0h.4a.7.7,0,0,1,.21,0,.11.11,0,0,1,.07.09,1,1,0,0,1,0,.16l-.73,5.4h0L32,18.18a.83.83,0,0,1,.12-.17.29.29,0,0,1,.16-.1.72.72,0,0,1,.24-.05l.4,0h.4a.8.8,0,0,1,.23,0,.16.16,0,0,1,.08.1.53.53,0,0,1,0,.18l-.62,5.36h0l3.17-5.39.09-.15a.34.34,0,0,1,.14-.09.71.71,0,0,1,.23-.05l.4,0,.37,0c.08,0,.14,0,.16.07s0,.1,0,.18a2.67,2.67,0,0,1-.17.32Zm7.31-.2c0,.09-.07.18-.11.27a.85.85,0,0,1-.1.17.41.41,0,0,1-.1.09.16.16,0,0,1-.1,0H37a.32.32,0,0,1-.26-.11.41.41,0,0,1,0-.35L39,18.33a.73.73,0,0,1,.24-.35.61.61,0,0,1,.34-.1h3.49l.07,0a.13.13,0,0,1,0,.1.37.37,0,0,1,0,.17c0,.07,0,.16-.08.27a2,2,0,0,1-.11.26.85.85,0,0,1-.1.17.46.46,0,0,1-.1.1.19.19,0,0,1-.1,0H40.15l-.62,1.72h2.11a.11.11,0,0,1,.08,0,.12.12,0,0,1,0,.09.59.59,0,0,1,0,.17,2.38,2.38,0,0,1-.08.26,1.69,1.69,0,0,1-.11.26.55.55,0,0,1-.1.17.28.28,0,0,1-.1.09.16.16,0,0,1-.1,0h-2.1l-.72,2h2.51a.11.11,0,0,1,.08,0,.13.13,0,0,1,0,.1.37.37,0,0,1,0,.17,1.23,1.23,0,0,1-.08.26m3,.37a.23.23,0,0,1-.07.1.46.46,0,0,1-.14.07l-.23,0-.35,0-.34,0a.69.69,0,0,1-.2,0s-.08,0-.09-.07a.09.09,0,0,1,0-.1l2.39-6.66A.61.61,0,0,1,45,18l.15-.07.23,0,.35,0,.34,0,.2,0a.17.17,0,0,1,.09.07.17.17,0,0,1,0,.1Zm6.91-1.92a3.25,3.25,0,0,1-.56,1,3.58,3.58,0,0,1-.81.7,4,4,0,0,1-1,.42,4.17,4.17,0,0,1-1.06.14,3.1,3.1,0,0,1-.64-.06,3.47,3.47,0,0,1-.5-.14,1.63,1.63,0,0,1-.33-.18.67.67,0,0,1-.17-.16.34.34,0,0,1,0-.21,1.79,1.79,0,0,1,.11-.38c0-.12.08-.21.11-.29l.1-.18a.33.33,0,0,1,.11-.1.17.17,0,0,1,.1,0,.3.3,0,0,1,.18.09l.28.2a2.4,2.4,0,0,0,.45.2,2,2,0,0,0,.66.09,1.85,1.85,0,0,0,.48-.07,1.53,1.53,0,0,0,.41-.17,1.28,1.28,0,0,0,.32-.29,1.17,1.17,0,0,0,.22-.37.58.58,0,0,0,0-.41.74.74,0,0,0-.22-.31,2.78,2.78,0,0,0-.38-.25l-.46-.25a2.45,2.45,0,0,1-.44-.3,1.4,1.4,0,0,1-.33-.39,1.35,1.35,0,0,1-.14-.55,2,2,0,0,1,.15-.76,3.1,3.1,0,0,1,.5-.89,3.22,3.22,0,0,1,.74-.64,3.28,3.28,0,0,1,.88-.37,3.4,3.4,0,0,1,.95-.13,3.18,3.18,0,0,1,.91.14,1.7,1.7,0,0,1,.33.15.43.43,0,0,1,.17.14.18.18,0,0,1,0,.09v.1l0,.16c0,.08-.05.16-.08.23a1.86,1.86,0,0,1-.11.27,1.5,1.5,0,0,1-.09.18.3.3,0,0,1-.09.1.14.14,0,0,1-.1,0,.36.36,0,0,1-.17-.08l-.25-.17a2.29,2.29,0,0,0-.38-.16,1.64,1.64,0,0,0-.52-.07,1.88,1.88,0,0,0-.43.05,1.77,1.77,0,0,0-.34.16,1,1,0,0,0-.26.25,1.11,1.11,0,0,0-.17.3.62.62,0,0,0,0,.4.84.84,0,0,0,.23.31,3.49,3.49,0,0,0,.4.25l.46.24a4.27,4.27,0,0,1,.44.3,1.32,1.32,0,0,1,.34.4,1.26,1.26,0,0,1,.14.54,2,2,0,0,1-.13.74m7.42-.51a4.73,4.73,0,0,1-.61,1.16,3.75,3.75,0,0,1-2,1.41,4.54,4.54,0,0,1-1.3.18,3.3,3.3,0,0,1-1.12-.17,1.46,1.46,0,0,1-.71-.5,1.49,1.49,0,0,1-.25-.84,3.34,3.34,0,0,1,.24-1.18l1.54-4.29a.3.3,0,0,1,.07-.1l.14-.07.23,0,.36,0,.33,0,.2,0a.17.17,0,0,1,.09.07.17.17,0,0,1,0,.1L54,22.23a2.62,2.62,0,0,0-.16.73,1,1,0,0,0,.11.51.69.69,0,0,0,.35.3,1.34,1.34,0,0,0,.56.1,2,2,0,0,0,.64-.1,1.83,1.83,0,0,0,.55-.3,2.39,2.39,0,0,0,.46-.49,2.94,2.94,0,0,0,.34-.66l1.53-4.25a.3.3,0,0,1,.07-.1l.14-.07.23,0,.35,0,.33,0,.2,0a.19.19,0,0,1,.08.07.09.09,0,0,1,0,.1Zm7,2.12a.84.84,0,0,1-.12.23,1.29,1.29,0,0,1-.17.16,1,1,0,0,1-.21.1l-.21,0H64a1.3,1.3,0,0,1-.31,0,.48.48,0,0,1-.2-.14.68.68,0,0,1-.13-.27,3.4,3.4,0,0,1-.08-.45l-.55-3.29c0-.21-.06-.43-.08-.64s0-.44,0-.66h0c-.08.26-.17.52-.25.78s-.18.54-.28.81l-1.33,3.68a.21.21,0,0,1-.06.1.4.4,0,0,1-.13.07,1,1,0,0,1-.22.05L60,25l-.31,0a.56.56,0,0,1-.18-.05.16.16,0,0,1-.07-.07.38.38,0,0,1,0-.1l2.29-6.33A.76.76,0,0,1,62,18a.78.78,0,0,1,.41-.12h.76a1.42,1.42,0,0,1,.33,0,.43.43,0,0,1,.21.12.47.47,0,0,1,.13.23,2.15,2.15,0,0,1,.07.35l.43,2.58c0,.15.05.31.07.46l.06.45c0,.15,0,.3,0,.44s0,.29,0,.44h0l.26-.8c.09-.26.18-.52.28-.78l1.19-3.31a.23.23,0,0,1,.07-.1.49.49,0,0,1,.13-.08l.22,0,.32,0,.3,0a.6.6,0,0,1,.18,0,.17.17,0,0,1,.07.08.38.38,0,0,1,0,.1ZM74.87,19c0,.11-.08.2-.11.27s-.08.14-.11.19a.38.38,0,0,1-.09.09.16.16,0,0,1-.09,0,.36.36,0,0,1-.2-.1,2.12,2.12,0,0,0-.33-.21A2.77,2.77,0,0,0,73.4,19a2.69,2.69,0,0,0-.8-.1,2.93,2.93,0,0,0-1,.17,3.11,3.11,0,0,0-.88.51,3.35,3.35,0,0,0-.73.77,4,4,0,0,0-.52,1,3.39,3.39,0,0,0-.23,1.07,1.58,1.58,0,0,0,.17.76,1.08,1.08,0,0,0,.52.47,1.92,1.92,0,0,0,.83.16,2.81,2.81,0,0,0,.49-.05,2.19,2.19,0,0,0,.49-.17L72.35,22H71c-.07,0-.1,0-.11-.12a1.18,1.18,0,0,1,.1-.42,2.39,2.39,0,0,1,.1-.26l.1-.16.1-.09a.19.19,0,0,1,.1,0h2.35a.33.33,0,0,1,.15,0A.18.18,0,0,1,74,21a.29.29,0,0,1,0,.14.72.72,0,0,1,0,.19l-1,2.81a1.08,1.08,0,0,1-.16.28.64.64,0,0,1-.31.2L72,24.8c-.2.06-.39.1-.59.14l-.59.08a5.52,5.52,0,0,1-.58,0,3.62,3.62,0,0,1-1.4-.24,1.76,1.76,0,0,1-.87-.7A2.1,2.1,0,0,1,67.7,23a4.53,4.53,0,0,1,.3-1.5,6.09,6.09,0,0,1,.82-1.56A5.37,5.37,0,0,1,70,18.75a4.91,4.91,0,0,1,3-1,4.74,4.74,0,0,1,.8.06,3.36,3.36,0,0,1,.59.15,2.16,2.16,0,0,1,.4.19.84.84,0,0,1,.19.18.31.31,0,0,1,0,.22,2.34,2.34,0,0,1-.11.41"/></g></g></svg>