<svg xmlns="http://www.w3.org/2000/svg" viewBox="0 0 80 14.64"><defs><style>.cls-1{fill:#ec8023;}</style></defs><title>Sofort</title><g id="Layer_2" data-name="Layer 2"><g id="Sofort"><path class="cls-1" d="M62,4.74a2.53,2.53,0,0,1-2.6,1.84h-.74l1.26-3.44h.72c1.31,0,1.8.39,1.36,1.6M65.8,1.6c-.64-.93-1.95-1.39-4-1.39H57.08L52,14.41h4.35l1.86-5c.09.21,1.19,5,1.19,5h4.57a43.67,43.67,0,0,0-1.45-4.95,7.1,7.1,0,0,0-.54-1.11,6.42,6.42,0,0,0,3.94-3.64A3.31,3.31,0,0,0,65.8,1.6M22.12.2H14.06a7.72,7.72,0,0,0-3.62.57c-1.1.57-2.08,1.7-2.83,4A4.62,4.62,0,0,0,7.35,6a1.9,1.9,0,0,0,.19,1,2.66,2.66,0,0,0,.79.9,3.72,3.72,0,0,0,1.19.61l.53.16c.28.07.55.16.82.24a1.54,1.54,0,0,1,.38.16.79.79,0,0,1,.3.3.82.82,0,0,1,.07.3,1.11,1.11,0,0,1-.06.34.94.94,0,0,1-.55.63,4,4,0,0,1-1.4.16H1.31L0,14.4H8.88a9.61,9.61,0,0,0,3.83-.63,5.93,5.93,0,0,0,3.47-4.41A3.06,3.06,0,0,0,16,7a3.28,3.28,0,0,0-2-1.33l-.47-.14-.7-.2a.89.89,0,0,1-.55-.4.78.78,0,0,1-.08-.64.92.92,0,0,1,.46-.55,1.74,1.74,0,0,1,.9-.21h5.16l.1-.16A11.53,11.53,0,0,1,22.12.2"/><path class="cls-1" d="M25.9,7.24c-1.2,3.33-2.08,4.16-3.39,4.16h0c-1.28,0-1.73-.82-.53-4.13.9-2.48,2.06-4.06,3.46-4.06h0c1.34,0,1.64.79.47,4M30,1.53A4.08,4.08,0,0,0,26.46,0a7.17,7.17,0,0,0-3.15.73,9.77,9.77,0,0,0-3.77,3.32,14.32,14.32,0,0,0-1.73,3.38c-.87,2.39-.86,4.34,0,5.62a4.15,4.15,0,0,0,3.66,1.59h0c3.86,0,6.74-2.56,8.57-7.6.48-1.34,1.12-3.83,0-5.51M45.47.2H37.25a4.85,4.85,0,0,0-4.81,3.37L28.54,14.4h4.27l2-5.57h3.77l1.08-3H35.9l.61-1.72a.91.91,0,0,1,.87-.56h4.45l.11-.16A12,12,0,0,1,45.47.2m3.73,7c-1.2,3.33-2.08,4.16-3.39,4.16h0c-1.28,0-1.73-.82-.53-4.13.9-2.48,2.06-4.06,3.46-4.06h0c1.34,0,1.65.79.47,4m4.14-5.71A4.08,4.08,0,0,0,49.76,0a7.17,7.17,0,0,0-3.15.73,9.77,9.77,0,0,0-3.77,3.32,14.32,14.32,0,0,0-1.73,3.38c-.87,2.39-.86,4.34,0,5.62a4.15,4.15,0,0,0,3.66,1.59h0c3.86,0,6.75-2.56,8.57-7.6.48-1.34,1.12-3.83,0-5.51"/><path class="cls-1" d="M66,.21A3.2,3.2,0,0,1,66.7,1a3.71,3.71,0,0,1,.59,2.61h2.59L66,14.41h3.9L73.78,3.58h5L80,.21Z"/></g></g></svg>