<svg id="Layer_1" data-name="Layer 1" xmlns="http://www.w3.org/2000/svg" viewBox="0 0 80 22.37"><defs><style>.cls-1{fill:#1c3c6d;}</style></defs><title>SPDB</title><path class="cls-1" d="M45.33,45.71a16.58,16.58,0,0,1-1.72,4.14l-.06.09,1,.7.06-.09a15.46,15.46,0,0,0,1.79-4.28l0-.08-1.05-.62,0,.14m0-.47.07.1.85-.75-.07-.08a7,7,0,0,0-2.09-1.79l-.07,0-.83.7.12.08a11.56,11.56,0,0,1,2,1.77m7.86-3.73-.06-.08a6.88,6.88,0,0,0-1.31-1.29l-.07,0-.88.67.11.09s.49.42.78.73H50.54V40H49.39v1.57H46.25v.15a8.77,8.77,0,0,0-1.48-1.17l-.06,0-.88.69.12.09a13.43,13.43,0,0,1,2,1.73l.07.08.63-.47h2.8v.63H46.75V50.8h1.11V48h1.53V50.5h1.15V48H52.1v1.55s-.2.1-1,.1h-.16l.39,1.11h.76a1.08,1.08,0,0,0,.73-.29,1.13,1.13,0,0,0,.39-.71h0V43.27H50.54v-.63h3.52V41.57h-1ZM49.39,47H47.86v-.83h1.53Zm0-1.9H47.86v-.74h1.53ZM52.1,47H50.54v-.83H52.1Zm0-1.9H50.53v-.73H52.1Zm10.3,3.15A9.77,9.77,0,0,0,64,45.67V44.8H60.06c.06-.19.19-.58.23-.68H65.5V43.06h-5c.1-.49.23-1.32.39-2.47v-.1l-1.06-.28v.13a17.92,17.92,0,0,1-.43,2.71H57.79c.11-.26.85-2.12.85-2.12l-1-.51L56.54,43.2v.91h2.62a8.68,8.68,0,0,1-3.81,5.39l-.11.07.78.91.08-.06a9.4,9.4,0,0,0,3.44-4.18,9.59,9.59,0,0,0,1.39,2,7.56,7.56,0,0,1-3.42,1.59l-.17,0,.66.94h.07A7.16,7.16,0,0,0,61.71,49a14.9,14.9,0,0,0,1.82,1.19,8.07,8.07,0,0,0,1.69.63l.06,0,.76-.9-.17,0a9.17,9.17,0,0,1-3.47-1.65m-.75-.75a7.4,7.4,0,0,1-1.12-1.6H62.7a6.9,6.9,0,0,1-1.05,1.6m8.63-3h1.25V43.42H69.28a5.15,5.15,0,0,0,.26-.66h2.1V41.7H69.85A6,6,0,0,0,70,40.49V40.4l-1-.28v.13a5.92,5.92,0,0,1-1.88,4.31l-.08.07.69.83H67.6v1.06h1.55v2.76a.74.74,0,0,1-.12.5l-.06.06.61,1,2.11-1.11V48.57l-1.41.69V46.51h1.45V45.45H70.28Zm-1.12,1H67.75l0,0a5.24,5.24,0,0,0,.91-1h.46Zm6.49,2.7a5.18,5.18,0,0,0,1.61-1.52l.06-.09-.78-.62h.22V40.62H71.9v8.75c0,.29-.06.38-.1.41l-.07.06.53,1,2.51-.91V48.8L73,49.39V45.94h.75a6.06,6.06,0,0,0,1,2.83,4.24,4.24,0,0,0,2.42,1.74l.07,0,.77-1-.16,0a3.64,3.64,0,0,1-2.22-1.36M73,41.69h2.65v1H73Zm0,2.07h2.65v1.12H73Zm2.16,3.52A4.71,4.71,0,0,1,74.83,46h1.6l0,0a3.77,3.77,0,0,1-1.22,1.28M80.57,44a12,12,0,0,0,2.87-3.2l.06-.09L82.64,40l-.07.1a10.55,10.55,0,0,1-2.9,3.07l-.12.09,1,.76Zm3.25-.19v1.06h3v4.73c0,.1,0,.12-.06.13a1.94,1.94,0,0,1-.59,0c-.37,0-.74,0-1.08,0H84.9l.35,1.12H86a5.26,5.26,0,0,0,1.14-.08.94.94,0,0,0,.6-.39,1.11,1.11,0,0,0,.22-.68V44.85H90V43.77H83.82ZM84,43.4l-.88-.59-.06.09a11.39,11.39,0,0,1-3.53,3.46l-.12.07.85.88,1.19-.85v4.31h1.11V45.36A14.41,14.41,0,0,0,84,43.48ZM89.29,42V41H84.08V42Zm-25.24.88.06.1.93-.67L65,42.25a9,9,0,0,0-2-2l-.07,0-.9.63.11.1a11.89,11.89,0,0,1,1.88,2" transform="translate(-10 -38.82)"/><path class="cls-1" d="M81,58.78l-.11-.16L77,53H75.92v6.73h.75V53.86l.11.15,3.92,5.67h1V53H81v5.83m3.6-2.68,0,0,0,0L87.93,53h-1l-3.18,3-.1.09V53h-.75v6.73h.75V56.14l.1.1c.13.14,3.1,3.19,3.34,3.45h1.1c-.57-.59-3.53-3.56-3.56-3.59M47.23,56c-.79-.24-1.55-.47-1.55-1.34,0-.43.31-1.15,1.45-1.15a1.6,1.6,0,0,1,1.25.56l.62-.56a2.32,2.32,0,0,0-1.86-.69,2,2,0,0,0-2.25,1.84c0,1.45,1,1.79,2,2.08.74.24,1.44.46,1.44,1.22a1.39,1.39,0,0,1-1.48,1.25,1.84,1.84,0,0,1-1.48-.7l-.62.54a2.6,2.6,0,0,0,2.08.85,2.09,2.09,0,0,0,2.31-2c0-1.28-1-1.57-1.88-1.85m5.25-3H50.14v6.73h.75V56.63h1.59c1.92,0,2.12-1.29,2.12-1.84S54.4,53,52.48,53m-.26,3H50.89V53.59h1.33c.39,0,1.58,0,1.58,1.21S52.61,56,52.22,56m5.42-3H55.32v6.73h2.16a3.79,3.79,0,0,0,2.76-1A3.36,3.36,0,0,0,57.64,53m-.3,6H56.06V53.64h1.5a2.59,2.59,0,0,1,2.8,2.68c0,1.85-1.51,2.68-3,2.68m9.6-2.92a1.53,1.53,0,0,0,1.13-1.48c0-1-.75-1.64-2-1.64H63.75v6.73H66c1.4,0,2.34-.74,2.34-1.83a1.76,1.76,0,0,0-1.43-1.78m-2.45-2.49h1.57a1.07,1.07,0,0,1,1.19,1.12c0,.72-.51,1.13-1.39,1.13H64.48V53.59ZM66,59.06H64.49v-2.6H66c1,0,1.58.49,1.58,1.33,0,1.18-1.21,1.27-1.58,1.27M71.58,53l-3,6.73h.88L70.18,58h3.43s.67,1.64.69,1.72h.88C75.11,59.53,72.33,53,72.3,53Zm-1.14,4.39,1.47-3.57,1.44,3.57Z" transform="translate(-10 -38.82)"/><path class="cls-1" d="M27.29,47.33l.09-.07a6,6,0,0,1,4.45-1.18,5.24,5.24,0,0,0-5.18-3.47,5.35,5.35,0,0,0-4.19,2,5.49,5.49,0,0,0-1.19,3,7.38,7.38,0,0,1-2.19,4.87,5.4,5.4,0,0,1-4.53,1.22,5.35,5.35,0,0,0,5.3,3.48,5.43,5.43,0,0,0,3.79-1.68,6.18,6.18,0,0,0,1.5-3.6,7.06,7.06,0,0,1,2.15-4.64m9.12-5.17a1.38,1.38,0,0,0-.47-1L33.09,39s-.57-.48-.57.25v9a5.46,5.46,0,0,1-1.87,4.11,6.19,6.19,0,0,1-5,1.47A6,6,0,0,0,31,57.26a5.5,5.5,0,0,0,5.37-5.47ZM15.76,47.53a6.23,6.23,0,0,1,5-1.47,6,6,0,0,0-5.43-3.48A5.5,5.5,0,0,0,10,48.05s0,5.23,0,9.79a1.38,1.38,0,0,0,.47,1L13.33,61s.57.48.57-.25V51.65a5.4,5.4,0,0,1,1.86-4.12" transform="translate(-10 -38.82)"/></svg>