<svg xmlns="http://www.w3.org/2000/svg" viewBox="0 0 80 22.35"><defs><style>.cls-1{fill:#1c3c6e;}</style></defs><title>SPDB_SPD Bank</title><g id="Layer_2" data-name="Layer 2"><g id="SPDB_SPD_Bank" data-name="SPDB_SPD Bank"><path class="cls-1" d="M35.33,6.89A16.68,16.68,0,0,1,33.62,11l-.06.09,1,.71.06-.1a15.34,15.34,0,0,0,1.79-4.28V7.37l-1.05-.63,0,.15m0-.47.07.1.85-.75-.07-.08a7.19,7.19,0,0,0-2.09-1.8l-.07,0-.82.7.11.08a11.78,11.78,0,0,1,2,1.78m7.86-3.73-.06-.08a6.44,6.44,0,0,0-1.3-1.28l-.07-.05L40.87,2,41,2s.49.42.78.72H40.54V1.2H39.39V2.76H36.25v.15a8.4,8.4,0,0,0-1.48-1.16l-.06,0-.89.69.12.09a13.43,13.43,0,0,1,2,1.73L36,4.3l.63-.47h2.8v.62H36.74V12h1.11V9.21h1.54v2.47h1.15V9.21H42.1v1.56a2.39,2.39,0,0,1-1,.1h-.16L41.33,12h.76a1.07,1.07,0,0,0,.73-.3,1.09,1.09,0,0,0,.39-.7h0V4.45H40.54V3.82h3.52V2.75h-.94ZM39.39,8.16H37.85V7.33h1.54Zm0-1.9H37.85V5.52h1.54Zm2.71,1.9H40.54V7.33H42.1Zm0-1.9H40.53V5.53H42.1ZM52.4,9.41A9.51,9.51,0,0,0,54,6.85V6H50.06c.06-.19.19-.58.23-.68H55.5V4.23h-5c.1-.49.23-1.31.39-2.47V1.67l-1.06-.28v.13a19.3,19.3,0,0,1-.43,2.71H47.79c.11-.26.85-2.11.85-2.11l-1-.51L46.54,4.39V5.3h2.62a8.68,8.68,0,0,1-3.81,5.39l-.11.07.78.91.08-.06a9.27,9.27,0,0,0,3.44-4.18,9.66,9.66,0,0,0,1.39,2A7.56,7.56,0,0,1,47.51,11l-.16,0L48,12h.07a7.16,7.16,0,0,0,3.64-1.82,14.52,14.52,0,0,0,1.82,1.18,7.91,7.91,0,0,0,1.69.64h.06l.77-.89-.18,0A9,9,0,0,1,52.4,9.41m-.75-.75a7.6,7.6,0,0,1-1.12-1.61h2.18a7.35,7.35,0,0,1-1.06,1.61m8.63-3h1.25V4.59H59.28a6.65,6.65,0,0,0,.27-.66h2.1V2.87H59.86A6.28,6.28,0,0,0,60,1.66V1.58L59,1.3v.13a6,6,0,0,1-1.89,4.32L57,5.82l.69.83H57.6V7.71h1.56v2.76A.86.86,0,0,1,59,11L59,11l.61,1L61.7,10.9V9.77l-1.42.69V7.71h1.45V6.65H60.28Zm-1.12,1H57.74l0,0a5.59,5.59,0,0,0,.91-1h.47Zm6.49,2.69a5,5,0,0,0,1.61-1.51l.06-.09-.78-.62h.22V1.81H61.9v8.75c0,.29-.06.38-.1.41l-.07.06.53,1,2.51-.91V10L63,10.58V7.12h.75a6.13,6.13,0,0,0,1,2.83,4.15,4.15,0,0,0,2.42,1.74l.07,0,.77-1-.17,0a3.69,3.69,0,0,1-2.21-1.37M63,2.87h2.65v1H63Zm0,2.06h2.65V6.05H63Zm2.16,3.52a4.62,4.62,0,0,1-.34-1.33h1.6l0,0a3.7,3.7,0,0,1-1.23,1.28m5.39-3.32a11.85,11.85,0,0,0,2.87-3.2l.06-.09-.86-.67-.07.1a10.55,10.55,0,0,1-2.9,3.07l-.12.09,1,.75Zm3.25-.19V6h3v4.73c0,.1,0,.12-.06.13a2.27,2.27,0,0,1-.59,0c-.37,0-.74,0-1.08,0h-.17L75.23,12H76a6,6,0,0,0,1.14-.08,1,1,0,0,0,.61-.39,1.09,1.09,0,0,0,.22-.68V6H80V4.94ZM74,4.57,73.12,4l-.06.09a11.49,11.49,0,0,1-3.53,3.46l-.12.07.84.88,1.2-.85v4.31h1.1V6.54A13.84,13.84,0,0,0,74,4.66ZM79.29,3.2V2.12H74.08l0,1.08Zm-25.24.89.07.09L55,3.51,55,3.42a9.21,9.21,0,0,0-1.95-2L53,1.38l-.9.64.11.09a13.52,13.52,0,0,1,1.87,2"/><path class="cls-1" d="M71,20l-.1-.16c-.16-.22-3.61-5.27-3.88-5.67H65.93v6.74h.75V15.05l.11.15,3.91,5.67h1V14.13H71V20m3.6-2.69,0,0,0,0,3.33-3.06h-1l-3.18,3-.09.09V14.13h-.75v6.74h.75V17.32l.09.1,3.35,3.45h1.1l-3.57-3.6m-37.37-.13c-.79-.24-1.55-.47-1.55-1.34,0-.43.31-1.15,1.45-1.15a1.6,1.6,0,0,1,1.25.56l.61-.56A2.32,2.32,0,0,0,37.13,14a2,2,0,0,0-2.25,1.84c0,1.45,1,1.78,2,2.08.75.24,1.45.46,1.45,1.22a1.38,1.38,0,0,1-1.48,1.25,1.84,1.84,0,0,1-1.48-.7l-.63.54a2.61,2.61,0,0,0,2.08.85,2.09,2.09,0,0,0,2.31-2c0-1.29-1-1.58-1.87-1.86m5.25-3H40.14v6.74h.75V17.81h1.59c1.92,0,2.12-1.28,2.12-1.84s-.2-1.84-2.12-1.84m-.26,3H40.89V14.76h1.33c.39,0,1.58,0,1.58,1.21s-1.19,1.21-1.58,1.21m5.42-3H45.32v6.74h2.16a3.79,3.79,0,0,0,2.76-1,3.37,3.37,0,0,0-2.6-5.7m-.3,6H46.07V14.82h1.5a2.59,2.59,0,0,1,2.8,2.68,2.73,2.73,0,0,1-3,2.68m9.6-2.92a1.54,1.54,0,0,0,1.13-1.49c0-1-.75-1.64-2-1.64H53.75v6.74H56c1.4,0,2.34-.74,2.34-1.84a1.76,1.76,0,0,0-1.43-1.77m-2.45-2.5h1.58a1.07,1.07,0,0,1,1.19,1.12c0,.72-.5,1.13-1.39,1.13H54.49ZM56,20.24H54.49v-2.6H56c1,0,1.58.48,1.58,1.33,0,1.18-1.22,1.27-1.59,1.27m5.61-6.11c0,.07-2.9,6.58-3,6.74h.88l.69-1.72h3.42l.7,1.72h.88l-2.88-6.74Zm-1.14,4.39L61.91,15l1.44,3.56Z"/><path class="cls-1" d="M17.29,8.51l.09-.07a5.94,5.94,0,0,1,4.45-1.18,5.24,5.24,0,0,0-5.17-3.47,5.33,5.33,0,0,0-4.19,2,5.52,5.52,0,0,0-1.19,3.06,7.27,7.27,0,0,1-2.19,4.86A5.38,5.38,0,0,1,4.57,15a5.35,5.35,0,0,0,5.3,3.48,5.43,5.43,0,0,0,3.79-1.68,6.14,6.14,0,0,0,1.5-3.6,7,7,0,0,1,2.13-4.64m9.12-5.17a1.38,1.38,0,0,0-.47-1L23.09.15s-.57-.48-.57.26v9a5.46,5.46,0,0,1-1.87,4.11,6.23,6.23,0,0,1-5,1.47A6,6,0,0,0,21,18.45,5.49,5.49,0,0,0,26.41,13ZM5.76,8.71a6.21,6.21,0,0,1,5-1.48A6,6,0,0,0,5.37,3.75,5.5,5.5,0,0,0,0,9.22S0,14.45,0,19a1.39,1.39,0,0,0,.46,1L3.32,22.2s.57.48.57-.25V12.81a5.45,5.45,0,0,1,1.87-4.1"/></g></g></svg>