<svg xmlns="http://www.w3.org/2000/svg" viewBox="0 0 80 16.78"><defs><style>.cls-1{fill:#217abf;}.cls-1,.cls-2{fill-rule:evenodd;}.cls-2{fill:#f58024;}</style></defs><title>SU_Superama</title><g id="Layer_2" data-name="Layer 2"><g id="SU_Superama"><path class="cls-1" d="M8.85,7.2C8.88,4.86,7.09,4.06,5,4.06s-4,1-4,3.14C1,8.84,2.13,9.42,3.3,9.82c1.33.46,2.28.56,2.28,1.23S4.9,12,4.32,12a1.53,1.53,0,0,1-1.11-.25,1.42,1.42,0,0,1-.34-1.08H0c-.16,2.44,1.85,3.45,4.06,3.45S8.38,13,8.38,10.68c0-1.1-.52-2-2.21-2.61C5.21,7.76,3.83,7.7,3.83,7s.61-.77,1.1-.77a1.56,1.56,0,0,1,.87.18,1,1,0,0,1,.34.8Zm8-.27H14.2l-.61,2.8c-.22.92-.25,2.19-1.45,2.19-.4,0-.77-.22-.77-.62a3.56,3.56,0,0,1,.09-.74l.83-3.63H9.61a40.38,40.38,0,0,0-1,5.26c0,1.33,1,1.85,2.21,1.85A2.61,2.61,0,0,0,13,13h.06l-.24.87H15.4l1.45-6.93Zm3.79,5.17c-.86,0-1-.86-1-1.14,0-.58.22-2.31,1.39-2.31.77,0,.95.56.95,1.26,0,.87-.34,2.19-1.38,2.19Zm-4.71,4h2.64L19.19,13a2.16,2.16,0,0,0,2.12,1c2.34,0,3.36-2.4,3.36-4.43,0-1.24-.55-2.87-2.49-2.87a2.25,2.25,0,0,0-1.91,1h0l.12-.77H17.87l-1.94,9.2ZM27.6,9.61A1.4,1.4,0,0,1,29,8.44a.91.91,0,0,1,1,1s0,.19,0,.22Zm1.9,2.21a1,1,0,0,1-1,.5c-.8,0-1.08-.59-1.08-1.3h4.93a3.72,3.72,0,0,0,.15-1.23c0-2.18-1.85-3-3.42-3A4,4,0,0,0,24.89,11c0,1.69,1,3.08,3.48,3.08,3,0,3.51-1.72,3.69-2.22Zm2.9,2h2.68l.58-2.9C36,9.51,36.52,9,37.66,9a2.29,2.29,0,0,1,1.05.19l.49-2.37a2.52,2.52,0,0,0-1-.1,2.71,2.71,0,0,0-2,1.3h0l.21-1.11H33.85L32.4,13.86Zm8.16-2c0-.52.43-.73.86-.76a4.33,4.33,0,0,0,1.42-.34c-.19,1-.56,1.69-1.45,1.69-.4,0-.83-.09-.83-.59ZM41.33,9a1,1,0,0,1,1.05-.74c.4,0,.83.16.83.65,0,.86-1.2.74-2,.77-2,.18-3.33.68-3.33,2.49C37.91,13.52,39,14,40.16,14a2.65,2.65,0,0,0,2.12-.86h.06a1,1,0,0,0,.1.68H45c-.09-.31-.06-.07-.09-.59s.8-3.57.8-4.65c0-1.72-2.09-1.88-3.35-1.88-1.73,0-3.11.43-3.55,2.28Zm4.4,4.84h2.65l.86-4c.12-.58.43-1,1.11-1,.43,0,.65.21.65.67a4.63,4.63,0,0,1-.1.65l-.8,3.7h2.65l.92-4.19a1,1,0,0,1,1-.83.61.61,0,0,1,.68.67c0,.22-.13.93-.13,1.05l-.73,3.3h2.67L58,9.91c0-.3.18-.8.18-1.1,0-1.42-.86-2.07-2.25-2.07a2.93,2.93,0,0,0-2.31,1.14c-.12-.86-1-1.14-1.84-1.14a2.77,2.77,0,0,0-2.19,1.11h0l.18-.92H47.18l-1.45,6.93Zm15.09-2c0-.52.43-.73.86-.76a4.39,4.39,0,0,0,1.42-.34c-.19,1-.56,1.69-1.45,1.69-.4,0-.83-.09-.83-.59ZM61.59,9a.94.94,0,0,1,1-.74c.44,0,.84.16.84.65,0,.86-1.2.74-2,.77-2,.18-3.33.68-3.33,2.49,0,1.33,1,1.85,2.25,1.85a2.65,2.65,0,0,0,2.12-.86h.06a1,1,0,0,0,.1.68h2.58c-.09-.31-.06-.07-.09-.59S66,9.7,66,8.62c0-1.72-2.09-1.88-3.36-1.88-1.72,0-3.11.43-3.54,2.28Z"/><path class="cls-1" d="M73,3.08c.65,0,.83.21.83.55s-.4.62-1,.62-.77-.25-.77-.49a.85.85,0,0,1,1-.68Z"/><path class="cls-1" d="M71.75,9.05l.68.09s-.5,4.32-8,6.9c-5.91,2-12.25-.68-12.25-.68l.92-1.54a18.47,18.47,0,0,0,7.64,1.67A14.71,14.71,0,0,0,69,12.56a13.68,13.68,0,0,0,2.71-3.51Z"/><path class="cls-2" d="M71.66,4.13A3.81,3.81,0,0,0,70.09,5.3c-.53.67-.68,1.9-1.91,1.9s-1.91-1.41-1.91-2.52,1-1.82,2.58-1.82,2.59.5,2.81,1.27Z"/><path class="cls-2" d="M71.72,3.17a3,3,0,0,0-2.56-.55C68.73,2.62,68,2.4,68,2c0-.95,1.63-2,4-2C73.29,0,74,.28,74,1.05a2.88,2.88,0,0,1-2.25,2.12Z"/><path class="cls-2" d="M74.06,3.17c0-2,.77-3,2.37-3A2.74,2.74,0,0,1,79.2,2.31c0,.46-.15.68-.71.68s-1.54-.4-2.22-.4a4.14,4.14,0,0,0-2.21.58Z"/><path class="cls-2" d="M74,4.25c.58-.77,1.23-1.11,3-1.11s3.08.68,3.08,2-2,2.4-2.8,2.4-1.14-.86-1.45-1.44A3.44,3.44,0,0,0,74,4.25Z"/><path class="cls-2" d="M72.89,4.59a3.3,3.3,0,0,1,3,2.92c0,1.05-1.94,1.3-2.77,1.3s-3.66-.44-3.66-1.48c0-1.45,2.46-2.74,3.45-2.74Z"/></g></g></svg>