<svg id="Layer_1" data-name="Layer 1" xmlns="http://www.w3.org/2000/svg" xmlns:xlink="http://www.w3.org/1999/xlink" viewBox="0 0 79.91 18.7"><defs><style>.cls-1{fill:#8cc541;}.cls-2{fill:#08974a;}.cls-3{fill:url(#linear-gradient);}.cls-4{fill:url(#linear-gradient-2);}.cls-5{fill:#eb2227;}.cls-6{fill:#fff;}</style><linearGradient id="linear-gradient" x1="9.02" y1="48.25" x2="29.44" y2="48.25" gradientTransform="matrix(1, 0, 0, -1, 0, 102)" gradientUnits="userSpaceOnUse"><stop offset="0.4" stop-color="#8cc541"/><stop offset="0.85" stop-color="#08974a"/></linearGradient><linearGradient id="linear-gradient-2" x1="9.03" y1="55.65" x2="29.44" y2="55.65" gradientTransform="matrix(1, 0, 0, -1, 0, 102)" gradientUnits="userSpaceOnUse"><stop offset="0.15" stop-color="#8cc541"/><stop offset="0.6" stop-color="#08974a"/></linearGradient></defs><title>super-selectos</title><path d="M30.9,43.3c0,1.9,1.4,2.2,2.8,2.5l1,.2c.9.2,1.6.4,1.6,1.1,0,.9-1,1.1-1.9,1.1-1.6,0-1.9-.9-1.9-1.4H30.7c0,1.1.6,2.9,3.8,2.9.8,0,3.5-.2,3.5-2.8,0-1.5-1.1-2-2.3-2.3l-2.2-.5c-.4-.1-.9-.2-.9-.9s.8-1,1.5-1c1.6,0,1.8.9,1.8,1.3h1.8c0-1.1-.7-2.8-3.5-2.8S30.9,42.4,30.9,43.3Z" transform="translate(-10 -40.7)"/><path d="M41.8,49.7c2.2,0,3.6-1,3.6-3.2V40.9H43.5v5.7c0,1-.5,1.6-1.8,1.6a1.5,1.5,0,0,1-1.6-1.7V40.9H38.2v5.7a2.82,2.82,0,0,0,.7,2.1A4.44,4.44,0,0,0,41.8,49.7Z" transform="translate(-10 -40.7)"/><path d="M48.1,46.4h2.1A2.64,2.64,0,0,0,53,43.7a2.58,2.58,0,0,0-2.8-2.8H46.1v8.6H48V46.4Zm0-4h1.5c1.1,0,1.6.3,1.6,1.2,0,.4,0,1.3-1.4,1.3H48.1Z" transform="translate(-10 -40.7)"/><polygon points="50.4 7.3 45.4 7.3 45.4 5.1 49.8 5.1 49.8 3.5 45.4 3.5 45.4 1.7 50.1 1.7 50.1 0.2 43.6 0.2 43.6 8.8 50.4 8.8 50.4 7.3"/><path d="M62.8,46.1h1.9c1.4,0,1.4.5,1.4,1.6a5.94,5.94,0,0,0,.2,1.7h2v-.2c-.3-.1-.3-.4-.3-1.6,0-1.6-.4-1.9-1.1-2.2a2.08,2.08,0,0,0,1.4-2.1c0-.7-.4-2.4-2.8-2.4H61v8.6h1.8Zm0-3.7h2.3c1.1,0,1.3.7,1.3,1.1,0,.9-.5,1.2-1.4,1.2H62.8Z" transform="translate(-10 -40.7)"/><path d="M38.1,56.5c0-1.5-1.1-2-2.3-2.3l-2.2-.5c-.4-.1-.9-.2-.9-.9s.8-1,1.5-1c1.6,0,1.8.9,1.8,1.3h1.8c0-1.1-.7-2.8-3.5-2.8S30.9,52,30.9,53c0,1.9,1.4,2.2,2.8,2.5l1,.2c.9.2,1.6.4,1.6,1.1,0,.9-1,1.1-1.9,1.1-1.6,0-1.9-.9-1.9-1.4H30.7c0,1.1.6,2.9,3.8,2.9C35.3,59.3,38.1,59.1,38.1,56.5Z" transform="translate(-10 -40.7)"/><polygon points="35.3 11.3 35.3 9.8 28.7 9.8 28.7 18.4 35.5 18.4 35.5 16.9 30.6 16.9 30.6 14.6 34.9 14.6 34.9 13.1 30.6 13.1 30.6 11.3 35.3 11.3"/><polygon points="42.3 16.8 37.9 16.8 37.9 9.8 36.1 9.8 36.1 18.4 42.3 18.4 42.3 16.8"/><polygon points="44.6 14.6 48.9 14.6 48.9 13.1 44.6 13.1 44.6 11.3 49.3 11.3 49.3 9.8 42.8 9.8 42.8 18.4 49.5 18.4 49.5 16.9 44.6 16.9 44.6 14.6"/><path d="M63.6,59.3a3.74,3.74,0,0,0,3.9-3.2H65.6a1.81,1.81,0,0,1-2,1.6c-1.6,0-2.2-1.4-2.2-2.9,0-2.4,1.3-3,2.2-3a1.92,1.92,0,0,1,2,1.5h1.9c-.1-1.3-1.2-3-3.8-3-2.3,0-4.1,1.5-4.1,4.5S61.2,59.3,63.6,59.3Z" transform="translate(-10 -40.7)"/><polygon points="61.9 18.4 61.9 11.3 64.6 11.3 64.6 9.8 57.4 9.8 57.4 11.3 60.1 11.3 60.1 18.4 61.9 18.4"/><path d="M78.3,59.3c1.2,0,4.3-.5,4.3-4.5s-3.1-4.5-4.3-4.5-4.3.5-4.3,4.5S77.2,59.3,78.3,59.3Zm0-7.5c1,0,2.4.6,2.4,3s-1.4,3-2.4,3-2.4-.6-2.4-3S77.3,51.8,78.3,51.8Z" transform="translate(-10 -40.7)"/><path d="M87.7,54.2l-2.2-.5c-.4-.1-.9-.2-.9-.9s.8-1,1.5-1c1.6,0,1.8.9,1.8,1.3h1.8c0-1.1-.7-2.8-3.5-2.8s-3.4,1.7-3.4,2.6c0,1.9,1.4,2.2,2.8,2.5l1,.2c.9.2,1.6.4,1.6,1.1,0,.9-1,1.1-1.9,1.1-1.6,0-1.9-.9-1.9-1.4H82.6c0,1.1.6,2.9,3.8,2.9.8,0,3.5-.2,3.5-2.8C90,54.9,88.9,54.5,87.7,54.2Z" transform="translate(-10 -40.7)"/><path class="cls-1" d="M15.3,47.2a16.8,16.8,0,0,1,6.9-6.5H10V50.8C12.6,50.9,13.4,50,15.3,47.2Z" transform="translate(-10 -40.7)"/><path class="cls-2" d="M23.2,52.7c-1.5,2.1-3.4,4.9-6.9,6.5H28.5V49.1C25.9,49.1,25.1,50,23.2,52.7Z" transform="translate(-10 -40.7)"/><path class="cls-2" d="M22.4,52.2c-1.8,2.6-4.2,6-9.2,7.1h3.1a16.8,16.8,0,0,0,6.9-6.5c1.9-2.8,2.7-3.6,5.3-3.6v-1C25.4,48.1,24.4,49.4,22.4,52.2Z" transform="translate(-10 -40.7)"/><path class="cls-3" d="M22.4,52.2c-1.8,2.6-4.2,6-9.2,7.1h3.1a16.8,16.8,0,0,0,6.9-6.5c1.9-2.8,2.7-3.6,5.3-3.6v-1C25.4,48.1,24.4,49.4,22.4,52.2Z" transform="translate(-10 -40.7)"/><path class="cls-4" d="M15.3,47.2c-1.9,2.8-2.7,3.7-5.3,3.7v1c3.1,0,4.1-1.3,6.1-4.1,1.8-2.6,4.2-6,9.1-7h-3C18.7,42.4,16.8,45.2,15.3,47.2Z" transform="translate(-10 -40.7)"/><path class="cls-5" d="M24,45.2a14.08,14.08,0,0,0-4.7,4.7c-1.3,1.9-2.6,3.8-4.9,4.9a9.57,9.57,0,0,1-4.4.9v3.5h3.2c5-1,7.4-4.4,9.2-7.1,2-2.8,3-4.1,6.1-4.1V44.2A11.09,11.09,0,0,0,24,45.2Z" transform="translate(-10 -40.7)"/><path class="cls-6" d="M25.3,40.8c-5,1-7.3,4.4-9.1,7-2,2.8-3,4.1-6.1,4.1v3.8a9.29,9.29,0,0,0,4.4-.9,13.54,13.54,0,0,0,4.9-4.9,14.08,14.08,0,0,1,4.7-4.7,9.73,9.73,0,0,1,4.5-.9V40.8Z" transform="translate(-10 -40.7)"/></svg>