<svg xmlns="http://www.w3.org/2000/svg" viewBox="0 0 81.6 25.25"><defs><style>.cls-1,.cls-4{fill:#fff;}.cls-1{stroke:#75bd50;stroke-width:1.6px;}.cls-2{fill:#e93629;}.cls-3{fill:#fd0;}</style></defs><title>Surtimax</title><g id="Layer_2" data-name="Layer 2"><g id="Surtimax"><path class="cls-1" d="M.8.8H77.39A3.41,3.41,0,0,1,80.8,4.21V21a3.41,3.41,0,0,1-3.41,3.41H4.18A3.38,3.38,0,0,1,.8,21Z"/><path class="cls-2" d="M3.37,3.1H75.05a3,3,0,0,1,3.18,2.74V19.41a3,3,0,0,1-3.18,2.75H6.52a3,3,0,0,1-3.15-2.75Z"/><path class="cls-3" d="M8,16.94a1.87,1.87,0,0,0,.37.94,2.13,2.13,0,0,0,1.7.58,3.58,3.58,0,0,0,1.18-.16,1.07,1.07,0,0,0,.85-1.07.77.77,0,0,0-.42-.7,4.53,4.53,0,0,0-1.33-.44l-1-.22a6.57,6.57,0,0,1-2.1-.7,2.23,2.23,0,0,1-1-2,2.64,2.64,0,0,1,1-2.07A4.16,4.16,0,0,1,10,10.28a4.34,4.34,0,0,1,2.61.78,2.69,2.69,0,0,1,1.13,2.24H11.81A1.3,1.3,0,0,0,11,12.12a2.8,2.8,0,0,0-1.19-.23,2.36,2.36,0,0,0-1.27.3,1,1,0,0,0-.47.84.79.79,0,0,0,.47.74,6.07,6.07,0,0,0,1.27.38l1.68.38a4.36,4.36,0,0,1,1.65.67A2.25,2.25,0,0,1,14,17.09a2.61,2.61,0,0,1-1,2.1,4.35,4.35,0,0,1-2.86.84,4.79,4.79,0,0,1-3-.83,2.68,2.68,0,0,1-1.08-2.26Z"/><path class="cls-3" d="M15.44,10.55h2v5.68a3.07,3.07,0,0,0,.24,1.39,1.55,1.55,0,0,0,1.57.77,1.58,1.58,0,0,0,1.58-.77,3.23,3.23,0,0,0,.23-1.39V10.55h2v5.68a4.66,4.66,0,0,1-.47,2.29c-.59,1-1.71,1.51-3.37,1.51s-2.77-.5-3.37-1.51a4.66,4.66,0,0,1-.47-2.29Z"/><path class="cls-3" d="M31.17,10.79a2.34,2.34,0,0,1,.9.65,2.93,2.93,0,0,1,.48.77,2.52,2.52,0,0,1,.18,1,2.69,2.69,0,0,1-.35,1.29,1.92,1.92,0,0,1-1.13.9,1.78,1.78,0,0,1,.94.73,3,3,0,0,1,.27,1.44v.62a5.05,5.05,0,0,0,0,.86.8.8,0,0,0,.37.53v.23h-2.2a4.17,4.17,0,0,1-.13-.5,4.07,4.07,0,0,1-.09-.79v-.86a1.68,1.68,0,0,0-.32-1.18A1.68,1.68,0,0,0,29,16.17H27v3.62H25.09V10.55h4.57A4.6,4.6,0,0,1,31.17,10.79ZM27,12.16v2.48h2.15a2.34,2.34,0,0,0,1-.15,1,1,0,0,0,.57-1,1.15,1.15,0,0,0-.55-1.13,2,2,0,0,0-.92-.16Z"/><path class="cls-3" d="M41.59,10.55v1.64H38.73v7.6h-2v-7.6H33.84V10.55Z"/><path class="cls-3" d="M44.59,19.79h-2V10.55h2Z"/><path class="cls-4" d="M46.93,5.81h3.88l1.82,9.39h0l1.82-9.39h3.88V20h-2.5V9.4h0L53.74,20H51.55L49.45,9.4h0V20h-2.5Z"/><path class="cls-4" d="M60.87,5.81h3.24L67.54,20H64.69l-.48-2.31H60.73L60.25,20H57.41ZM62.48,9.4h0l-1.1,5.38h2.23Z"/><path class="cls-4" d="M69.65,12.65,66.56,5.81h3.16l1.46,3.83,1.46-3.83H75.8l-3.09,6.84L76.16,20H72.87l-1.69-4.3L69.48,20H66.19Z"/></g></g></svg>