<svg xmlns="http://www.w3.org/2000/svg" viewBox="0 0 80 38.97"><defs><style>.cls-1{fill:#ed3995;fill-rule:evenodd;}</style></defs><title>T-mobile-bankowe</title><g id="Layer_2" data-name="Layer 2"><g id="T-mobile-bankowe"><path class="cls-1" d="M0,13.76Q.18,6.88.43,0h31.4c.15,4.59.26,9.17.41,13.75l-2.11.34C29.88,10.83,29,7.43,26.77,5a10.48,10.48,0,0,0-7.55-3.09q0,14.9,0,29.79c.07,1.48.13,3.29,1.45,4.23,1.52,1,3.43.83,5.16.9V39H6.46V36.78c1.81-.07,3.87.08,5.39-1.09,1.2-1.18,1.12-3,1.21-4.55q0-14.65,0-29.28A10.42,10.42,0,0,0,5.73,4.7c-2.48,2.46-3.32,6-3.62,9.39L0,13.76Z"/><path class="cls-1" d="M0,18c2.66,0,5.32,0,8,0,0,2.64,0,5.28,0,7.92-2.67-.07-5.34,0-8-.05C0,23.22,0,20.6,0,18Z"/><path class="cls-1" d="M24.18,18c2.66,0,5.33,0,8,0,0,2.63,0,5.26,0,7.88-2.66,0-5.32,0-8,0,0-2.65,0-5.28,0-7.92Z"/><path class="cls-1" d="M48.1,18h8c0,2.63,0,5.26,0,7.89q-4,0-8,0c0-2.63,0-5.26,0-7.89Z"/><path class="cls-1" d="M72,18c2.66,0,5.32,0,8,0,0,2.64,0,5.28,0,7.92-2.66-.05-5.33,0-8,0V18Z"/></g></g></svg>