<svg xmlns="http://www.w3.org/2000/svg" xmlns:xlink="http://www.w3.org/1999/xlink" viewBox="0 0 81.05 15.49"><defs><style>.cls-1{fill:none;}.cls-2{fill:#fff;}.cls-3{fill:#00a850;}.cls-4{clip-path:url(#clip-path);}.cls-5{fill:#006736;opacity:0.4;}.cls-6{fill:#2d2a26;}</style><clipPath id="clip-path"><path class="cls-1" d="M80,4a4,4,0,1,1-4-3.95A4,4,0,0,1,80,4Z"/></clipPath></defs><title>Todito-Cash</title><g id="Layer_2" data-name="Layer 2"><g id="Todito-Cash"><path class="cls-2" d="M34.24,9.15a1.16,1.16,0,0,0-.72-.26,1.3,1.3,0,0,0-1.22.74,3.12,3.12,0,0,0-.41,1.51,1.4,1.4,0,0,0,.32.93,1,1,0,0,0,.78.37,1.3,1.3,0,0,0,1.15-.74,3.26,3.26,0,0,0,.42-1.64A1.14,1.14,0,0,0,34.24,9.15Z"/><path class="cls-2" d="M51.47,12.25c0,.42.29.62.87.62.8,0,1.29-.58,1.48-1.75a4.07,4.07,0,0,1-1.46.32C51.76,11.5,51.47,11.77,51.47,12.25Z"/><path class="cls-2" d="M61.28,8.4c-.49,0-.74.22-.74.63,0,.21.17.38.53.51Z"/><path class="cls-2" d="M60.92,12.86c.65,0,1-.19,1-.61s-.24-.51-.72-.68Z"/><path class="cls-2" d="M16.71,8.88a1.14,1.14,0,0,0-1,.71,3.48,3.48,0,0,0-.4,1.73,1.37,1.37,0,0,0,.24.87.77.77,0,0,0,.64.3,1.19,1.19,0,0,0,1.09-.8,3.72,3.72,0,0,0,.39-1.64,1.19,1.19,0,0,0-.3-.88A.94.94,0,0,0,16.71,8.88Z"/><path class="cls-2" d="M9.74,9.15A1.11,1.11,0,0,0,9,8.89a1.32,1.32,0,0,0-1.23.74,3.1,3.1,0,0,0-.4,1.51,1.35,1.35,0,0,0,.32.93,1,1,0,0,0,.78.37,1.28,1.28,0,0,0,1.14-.74,3.26,3.26,0,0,0,.43-1.64A1.11,1.11,0,0,0,9.74,9.15Z"/><path class="cls-3" d="M80,4a4,4,0,1,1-4-3.95A4,4,0,0,1,80,4Z"/><g class="cls-4"><polygon class="cls-5" points="73.02 4.69 76.51 8.9 81.05 5.24 77.59 1.03 75.4 2.94 73.02 4.69"/></g><path class="cls-2" d="M77.17,2.94h2l-.36,1.75h-2l-.42,1.93H74.6L75,4.69H73l.38-1.75h2L75.82,1h1.77Z"/><path class="cls-1" d="M49.19,15.16a2.64,2.64,0,0,0,.36.16h0A2.43,2.43,0,0,1,49.19,15.16Z"/><path class="cls-2" d="M49.19,15.16l0,0Z"/><path class="cls-6" d="M3.89,7.31l.53-2.49L1.54,6.26l-.22,1H.38L0,9.15H.92L.44,11.44a8.14,8.14,0,0,0-.18,1.09,1.71,1.71,0,0,0,.45,1.13,2,2,0,0,0,1.54.52A15.37,15.37,0,0,0,4,14l.39-1.84a5.4,5.4,0,0,1-.8.12c-.4,0-.6-.15-.6-.46A1.13,1.13,0,0,1,3,11.52l.49-2.37H4.83l.39-1.84Z"/><path class="cls-6" d="M9.12,7.16a4.51,4.51,0,0,0-2.27.53A3.59,3.59,0,0,0,5.39,9.17a4.12,4.12,0,0,0-.5,2,3,3,0,0,0,.84,2.17,3.47,3.47,0,0,0,2.6.87,4.52,4.52,0,0,0,2.35-.57,3.53,3.53,0,0,0,1.42-1.52,4.2,4.2,0,0,0,.48-1.89,3.05,3.05,0,0,0-.83-2.13A3.38,3.38,0,0,0,9.12,7.16Zm.52,4.54a1.28,1.28,0,0,1-1.14.74,1,1,0,0,1-.78-.37,1.35,1.35,0,0,1-.32-.93,3.1,3.1,0,0,1,.4-1.51A1.32,1.32,0,0,1,9,8.89a1,1,0,0,1,1,1.17A3.26,3.26,0,0,1,9.64,11.7Z"/><path class="cls-6" d="M18.9,4.75,18.16,8.2A2.4,2.4,0,0,0,16,7.14a2.75,2.75,0,0,0-2.3,1.27,5,5,0,0,0-.9,3,3.17,3.17,0,0,0,.6,2,2.1,2.1,0,0,0,1.74.76,2.74,2.74,0,0,0,1-.18,3.56,3.56,0,0,0,1-.68l0,0L17.1,14h2.39l2-9.27Zm-1.59,6.94a1.19,1.19,0,0,1-1.09.8.77.77,0,0,1-.64-.3,1.37,1.37,0,0,1-.24-.87,3.48,3.48,0,0,1,.4-1.73,1.14,1.14,0,0,1,1-.71.94.94,0,0,1,.69.29,1.19,1.19,0,0,1,.3.88A3.72,3.72,0,0,1,17.31,11.69Z"/><polygon class="cls-6" points="20.43 14.02 23.02 14.02 24.46 7.31 21.87 7.31 20.43 14.02"/><polygon class="cls-6" points="24.99 4.75 22.41 4.75 22.05 6.52 24.63 6.52 24.99 4.75"/><path class="cls-6" d="M28.38,7.31l.54-2.49L26,6.26l-.22,1h-.95l-.38,1.84h.93l-.48,2.29a7.25,7.25,0,0,0-.19,1.09,1.68,1.68,0,0,0,.46,1.13,2,2,0,0,0,1.53.52A15.71,15.71,0,0,0,28.45,14l.38-1.84a5.33,5.33,0,0,1-.79.12c-.4,0-.6-.15-.6-.46a.86.86,0,0,1,0-.32L28,9.15h1.35l.39-1.84Z"/><path class="cls-6" d="M33.62,7.16a4.58,4.58,0,0,0-2.28.53,3.65,3.65,0,0,0-1.46,1.48,4.24,4.24,0,0,0-.5,2,3,3,0,0,0,.84,2.17,3.48,3.48,0,0,0,2.61.87,4.48,4.48,0,0,0,2.34-.57,3.61,3.61,0,0,0,1.43-1.52,4.32,4.32,0,0,0,.47-1.89,3,3,0,0,0-.82-2.13A3.4,3.4,0,0,0,33.62,7.16Zm.52,4.54a1.3,1.3,0,0,1-1.15.74,1,1,0,0,1-.78-.37,1.4,1.4,0,0,1-.32-.93,3.12,3.12,0,0,1,.41-1.51,1.3,1.3,0,0,1,1.22-.74,1.16,1.16,0,0,1,.72.26,1.14,1.14,0,0,1,.32.91A3.26,3.26,0,0,1,34.14,11.7Z"/><path class="cls-3" d="M44.18,6.63c.93,0,1.39.48,1.36,1.46h2.9A3.83,3.83,0,0,0,47.13,5a4.63,4.63,0,0,0-2.94-.85,5,5,0,0,0-4,1.74A6.1,6.1,0,0,0,38.81,10a4.72,4.72,0,0,0,1,3.25,4.09,4.09,0,0,0,3.22,1.27,5,5,0,0,0,4-1.63,5,5,0,0,0,1.06-2.38h-3a1.66,1.66,0,0,1-1.7,1.53c-1.07,0-1.6-.7-1.6-2.1a4.53,4.53,0,0,1,.51-2.2A2,2,0,0,1,44.18,6.63Z"/><path class="cls-3" d="M53.36,6.92A4.94,4.94,0,0,0,51,7.38a2.76,2.76,0,0,0-1.35,1.9h2.59a1,1,0,0,1,1.1-.73c.58,0,.86.21.86.62s-.24.62-.72.73c0,0-.47,0-1.29.11a5.68,5.68,0,0,0-2.52.62,2.14,2.14,0,0,0-1,1.95,1.71,1.71,0,0,0,.71,1.48,3.27,3.27,0,0,0,3.86-.43h0a2.21,2.21,0,0,0,.1.69h2.7a4.13,4.13,0,0,1-.11-.64c0-.1.15-.83.44-2.18a16.59,16.59,0,0,0,.44-2.66Q56.87,6.92,53.36,6.92Zm-1,5.95c-.58,0-.87-.2-.87-.62s.29-.75.89-.81a4.07,4.07,0,0,0,1.46-.32C53.63,12.29,53.14,12.87,52.34,12.87Z"/><path class="cls-3" d="M62.31,9.19H64.4A2.24,2.24,0,0,0,62.13,6.8l.18-.87H61.8l-.17.84h-.18a3.53,3.53,0,0,0-2.07.61,2.1,2.1,0,0,0-1,1.82,1.81,1.81,0,0,0,.6,1.49,3.68,3.68,0,0,0,1.3.6l.4.13-.26,1.38c-.42-.09-.63-.39-.65-.91H57.51a2.4,2.4,0,0,0,.68,1.79,3,3,0,0,0,1.88.79l-.2,1h.5l.21-1A4.59,4.59,0,0,0,62.91,14a2.21,2.21,0,0,0,1.13-2,2,2,0,0,0-1.75-2l-.74-.21.24-1.23A.66.66,0,0,1,62.31,9.19ZM60.54,9c0-.41.25-.62.74-.63l-.21,1.14C60.71,9.41,60.54,9.24,60.54,9Zm1.35,3.22c0,.42-.32.63-1,.61l.25-1.29C61.65,11.74,61.89,12,61.89,12.25Z"/><path class="cls-3" d="M72.17,7.36a2.81,2.81,0,0,0-1.65-.44,2.58,2.58,0,0,0-1.17.28,2.54,2.54,0,0,0-1,.82h0l.75-3.63H66.34l-2,9.93h2.75l.81-3.83c.19-.91.64-1.37,1.34-1.37.52,0,.77.23.77.69a10.39,10.39,0,0,1-.22,1.2L69,14.32H71.8l.87-4.08a7.18,7.18,0,0,0,.2-1.37A1.74,1.74,0,0,0,72.17,7.36Z"/></g></g></svg>