<svg xmlns="http://www.w3.org/2000/svg" viewBox="0 0 80 12.26"><defs><style>.cls-1{fill:#d12026;}</style></defs><title>Toyota-Bank</title><g id="Layer_2" data-name="Layer 2"><g id="Toyota-Bank"><path class="cls-1" d="M2.74,9.7V2.19H0V.42H7.81V2.19H5.07V9.7Z"/><path class="cls-1" d="M15.37,6.2a3.79,3.79,0,0,1-.95,2.72,3.52,3.52,0,0,1-2.67,1,3.51,3.51,0,0,1-2.66-1A3.79,3.79,0,0,1,8.14,6.2a3.79,3.79,0,0,1,.95-2.73,3.51,3.51,0,0,1,2.66-1,3.52,3.52,0,0,1,2.67,1A3.83,3.83,0,0,1,15.37,6.2Zm-2.24,0a4.27,4.27,0,0,0-.1-1,2,2,0,0,0-.29-.67,1.11,1.11,0,0,0-.43-.36A1.4,1.4,0,0,0,11.75,4a1.51,1.51,0,0,0-.53.09,1.06,1.06,0,0,0-.43.35,1.67,1.67,0,0,0-.3.67,4,4,0,0,0-.11,1.06,4.19,4.19,0,0,0,.1,1,1.84,1.84,0,0,0,.28.63,1.07,1.07,0,0,0,.43.36,1.58,1.58,0,0,0,.58.11,1.44,1.44,0,0,0,.53-.11,1.07,1.07,0,0,0,.44-.34A2,2,0,0,0,13,7.26,4.12,4.12,0,0,0,13.13,6.21Z"/><path class="cls-1" d="M23.06,2.7l-3.54,9.56H17.18l1.06-2.73L15.67,2.7H18l1.47,4.39L20.81,2.7Z"/><path class="cls-1" d="M30.59,6.2a3.78,3.78,0,0,1-.94,2.72,3.52,3.52,0,0,1-2.67,1,3.53,3.53,0,0,1-2.67-1,3.79,3.79,0,0,1-.95-2.72,3.79,3.79,0,0,1,.95-2.73,3.53,3.53,0,0,1,2.67-1,3.51,3.51,0,0,1,2.66,1A3.83,3.83,0,0,1,30.59,6.2Zm-2.24,0a4.27,4.27,0,0,0-.1-1A2,2,0,0,0,28,4.51a1.13,1.13,0,0,0-.44-.36A1.38,1.38,0,0,0,27,4a1.44,1.44,0,0,0-.53.09,1,1,0,0,0-.44.35,2,2,0,0,0-.3.67,4.42,4.42,0,0,0-.11,1.06,4.19,4.19,0,0,0,.1,1,2.32,2.32,0,0,0,.28.63,1.1,1.1,0,0,0,.44.36,1.45,1.45,0,0,0,1.11,0A1,1,0,0,0,28,7.9a1.79,1.79,0,0,0,.29-.64A4.12,4.12,0,0,0,28.35,6.21Z"/><path class="cls-1" d="M34.43,9.83a2.81,2.81,0,0,1-1.94-.55,2.28,2.28,0,0,1-.61-1.79V4.22h-.83V2.7h.83V.7h2.18v2h2.1V4.22h-2.1V6.7c0,.24,0,.46,0,.64a1.26,1.26,0,0,0,.1.49.7.7,0,0,0,.31.35,1.33,1.33,0,0,0,.64.13,1.93,1.93,0,0,0,.46-.08A1.36,1.36,0,0,0,36,8.09h.19V9.63a4.53,4.53,0,0,1-.75.15A6.92,6.92,0,0,1,34.43,9.83Z"/><path class="cls-1" d="M40.91,9l-.4.34a2.51,2.51,0,0,1-.48.3,2.68,2.68,0,0,1-.57.22,3.09,3.09,0,0,1-.77.07,2.07,2.07,0,0,1-1.55-.62,2.15,2.15,0,0,1-.61-1.57,2.26,2.26,0,0,1,.31-1.26,2.18,2.18,0,0,1,.9-.76,4.8,4.8,0,0,1,1.41-.4c.55-.07,1.14-.13,1.77-.17v0a.82.82,0,0,0-.42-.8A2.91,2.91,0,0,0,39.21,4a3.3,3.3,0,0,0-.9.14,6.41,6.41,0,0,0-1,.36h-.19V2.85c.22-.06.57-.14,1-.22a7.93,7.93,0,0,1,1.46-.13,4.54,4.54,0,0,1,2.63.6,2.12,2.12,0,0,1,.83,1.84V9.7H40.91Zm0-1.08V6.41l-.9.1a3.11,3.11,0,0,0-.67.16.9.9,0,0,0-.45.3.87.87,0,0,0-.15.54.77.77,0,0,0,.26.68,1.41,1.41,0,0,0,.78.18,1.43,1.43,0,0,0,.59-.13A1.79,1.79,0,0,0,40.91,7.87Z"/><path class="cls-1" d="M56,6.85a2.74,2.74,0,0,1-.26,1.22,2.52,2.52,0,0,1-.71.87,3.2,3.2,0,0,1-1.15.58,5.9,5.9,0,0,1-1.59.18H48.56V.42h3.27A10.19,10.19,0,0,1,53.38.5a3.11,3.11,0,0,1,1,.32,1.77,1.77,0,0,1,.74.72,2,2,0,0,1,.25,1A2.14,2.14,0,0,1,55,3.78a1.94,1.94,0,0,1-.94.78v.05a2.51,2.51,0,0,1,1.38.74A2.09,2.09,0,0,1,56,6.85ZM53,3a1.14,1.14,0,0,0-.11-.46.7.7,0,0,0-.36-.34A1.31,1.31,0,0,0,52,2.13h-1.1v2H52a1.37,1.37,0,0,0,.5-.13.77.77,0,0,0,.39-.36A1.33,1.33,0,0,0,53,3Zm.59,3.77a1.09,1.09,0,0,0-.18-.67,1,1,0,0,0-.52-.37,2,2,0,0,0-.58-.09H50.87V8H51l1.26,0A1.89,1.89,0,0,0,53,7.81a.91.91,0,0,0,.46-.4A1.16,1.16,0,0,0,53.58,6.81Z"/><path class="cls-1" d="M61,9l-.4.34a2.74,2.74,0,0,1-.47.3,3,3,0,0,1-.58.22,3.09,3.09,0,0,1-.77.07,2.05,2.05,0,0,1-1.54-.62,2.16,2.16,0,0,1-.62-1.57A2.35,2.35,0,0,1,57,6.43a2.18,2.18,0,0,1,.9-.76,5,5,0,0,1,1.42-.4c.54-.07,1.13-.13,1.77-.17v0a.83.83,0,0,0-.43-.8A2.86,2.86,0,0,0,59.35,4a3.19,3.19,0,0,0-.9.14,5.77,5.77,0,0,0-1,.36h-.19V2.85a9.76,9.76,0,0,1,1-.22,7.82,7.82,0,0,1,1.45-.13,4.55,4.55,0,0,1,2.64.6,2.12,2.12,0,0,1,.82,1.84V9.7H61Zm0-1.08V6.41l-.89.1a3.2,3.2,0,0,0-.68.16A.83.83,0,0,0,59,7a.81.81,0,0,0-.16.54.8.8,0,0,0,.26.68,1.42,1.42,0,0,0,.79.18,1.39,1.39,0,0,0,.58-.13A1.79,1.79,0,0,0,61,7.87Z"/><path class="cls-1" d="M71.38,9.7H69.19V6.23a7.94,7.94,0,0,0,0-.85A1.92,1.92,0,0,0,69,4.76a.73.73,0,0,0-.33-.34,1.28,1.28,0,0,0-.56-.1,1.56,1.56,0,0,0-.55.1,2.27,2.27,0,0,0-.58.32v5H64.83v-7H67v.77a5.2,5.2,0,0,1,1-.71,2.47,2.47,0,0,1,1.13-.25,2,2,0,0,1,1.63.67,3,3,0,0,1,.57,2Z"/><path class="cls-1" d="M80,9.7H77.41l-1.9-3-.33.45V9.7H73V0h2.18V5.43L77.25,2.7h2.57l-2.45,3Z"/></g></g></svg>