<svg xmlns="http://www.w3.org/2000/svg" viewBox="0 0 80 10.18"><defs><style>.cls-1{fill:#213164;}.cls-1,.cls-2{fill-rule:evenodd;}.cls-2{fill:#1b947b;}</style></defs><title>Triodos-Bank</title><g id="Layer_2" data-name="Layer 2"><g id="Triodos-Bank"><path class="cls-1" d="M39.5,7c0-1.8-2.67-1.6-2.65-2.83a.69.69,0,0,1,.63-.75c.89,0,1.15,1,1.2,1.34h.44A5.43,5.43,0,0,0,39,3.32,3.27,3.27,0,0,0,37.59,3c-2.1,0-2.1,1.46-2.12,1.57,0,1.88,2.67,1.53,2.68,3a.77.77,0,0,1-.78.78c-.89,0-1.42-1-1.49-1.6h-.49a6.72,6.72,0,0,0,.23,1.67,3.64,3.64,0,0,0,1.64.38c1.58,0,2.23-.8,2.24-1.72ZM34.65,5.74A2.7,2.7,0,0,0,31.7,3a2.85,2.85,0,0,0-3,2.95,2.7,2.7,0,0,0,2.95,2.8,2.85,2.85,0,0,0,3-3ZM28.49,8.2l0-.29H28.2c-.52,0-.52-.28-.53-1.23V0A10.12,10.12,0,0,0,25.55.3V.6s.17,0,.3,0c.41,0,.41.45.41,1.49v1A4.71,4.71,0,0,0,25.47,3a3.11,3.11,0,0,0-3.39,3.1,2.52,2.52,0,0,0,2.61,2.65,3.27,3.27,0,0,0,1.64-.56l.3.56a9.38,9.38,0,0,0,1.86-.53ZM21.11,5.74A2.66,2.66,0,0,0,18.2,3a2.84,2.84,0,0,0-3,2.95,2.67,2.67,0,0,0,2.91,2.8,2.82,2.82,0,0,0,3-3ZM13.76,1.16a.77.77,0,0,0-.82-.79.79.79,0,0,0-.82.79.82.82,0,0,0,.82.85.8.8,0,0,0,.82-.85Zm.71,7.38v-.3l-.26,0c-.41,0-.47-.16-.48-.78V3a7.6,7.6,0,0,0-2.13.45v.34A.77.77,0,0,1,12,3.69c.36,0,.36.53.34.93v2.8c0,.62,0,.75-.49.78l-.22,0v.3ZM11,3.5a1.41,1.41,0,0,0-1-.52,2.2,2.2,0,0,0-1.34.82A4.27,4.27,0,0,0,8.65,3a9.94,9.94,0,0,0-2,.52v.3a1.54,1.54,0,0,1,.41-.07c.34,0,.34.53.33.93V7.42c0,.62,0,.75-.48.78l-.26,0v.3H9.77v-.3l-.48-.07c-.48-.06-.48-.21-.49-1V4.25A.53.53,0,0,1,9.29,4a7.68,7.68,0,0,1,1,.33A1.9,1.9,0,0,0,11,3.5ZM6.86,2.76c0-.17-.1-1.76-.15-2H.15C.1,1,0,2.59,0,2.76H.41C.73,1.5.86,1.19,2.2,1.19h.45V6.82c0,1.21,0,1.28-.75,1.38l-.3,0v.3H5.26v-.3L5,8.2C4.2,8.1,4.2,8,4.21,6.82V1.19h.45c1.35,0,1.48.31,1.79,1.57ZM33.12,6c0,.92-.26,2.27-1.34,2.28s-1.57-1.37-1.57-2.61c0-1,.29-2.23,1.38-2.24S33.12,4.75,33.12,6ZM26.26,7.83a1.09,1.09,0,0,1-.67.19,2.23,2.23,0,0,1-2-2.5c0-1.2.6-2.08,1.64-2.09a1.36,1.36,0,0,1,1,.41v4ZM19.62,6c0,.92-.27,2.27-1.38,2.28S16.7,6.91,16.71,5.67c0-1,.28-2.23,1.34-2.24S19.61,4.75,19.62,6ZM80,8.54v-.3c-.46,0-.57-.13-2.46-3.09,1.33-1.36,1.34-1.54,2-1.65l.22,0v-.3H77.2v.3l.38,0c.16,0,.36.08.37.19s-.12.33-.52.82L77,5a1.22,1.22,0,0,1-1.12.52V0A10.35,10.35,0,0,0,73.77.3V.6s.18,0,.34,0c.39,0,.39.45.37,1.49V7.42c0,.62,0,.75-.48.78l-.23,0v.3h2.87v-.3l-.26,0c-.41,0-.47-.16-.48-.78V5.93h.15c.49,0,.5.31,1.12,1.23s.68,1.38,1.93,1.38Zm-6.71,0v-.3l-.23,0c-.43,0-.49-.16-.48-.78V5.11C72.57,3.5,71.85,3,70.79,3a2.63,2.63,0,0,0-1.87.71V3a7.47,7.47,0,0,0-2.12.45v.34a.8.8,0,0,1,.37-.08c.36,0,.36.53.37.93v2.8c0,.62-.07.75-.48.78l-.23,0v.3h2.84v-.3l-.22,0C69,8.17,69,8,69,7.42V4.14a1.13,1.13,0,0,1,1-.45c1.22,0,1.22,1.12,1.23,2.05V7.42c0,.62-.07.75-.48.78l-.27,0v.3Zm-6.87-.11,0-.15h-.08c-.77,0-.77-.87-.78-1.72V5.11c0-1.35-.25-2.12-1.72-2.13a3.5,3.5,0,0,0-2.57,1.27,2.22,2.22,0,0,0,.34.6h.11c.16-.36.5-1.18,1.41-1.16s1,.61,1,1.31v.3c-1,.24-3,.64-3.06,2.12a1.41,1.41,0,0,0,1.57,1.31,2.78,2.78,0,0,0,1.64-.6,1.17,1.17,0,0,0,1.16.6,2.12,2.12,0,0,0,1-.3ZM60.31,6.3a2.09,2.09,0,0,0-2-2v0a1.92,1.92,0,0,0,1.6-1.86C59.93.74,58,.74,57.4.75H53.89V1l.26,0c.57.08.57.08.56,1.38V6.79c0,1.34,0,1.34-.56,1.41l-.26,0v.3H57c1.77,0,3.36-.5,3.36-2.24Zm3.88,1.46a1.23,1.23,0,0,1-.75.26.87.87,0,0,1-.86-1A1.26,1.26,0,0,1,64,5.82a.4.4,0,0,1,.11,0v1.3c0,.21,0,.51.08.64ZM58.41,2.65c0,1.28-.82,1.53-1.72,1.53h-.45V1.27a2.8,2.8,0,0,1,.64-.08,1.42,1.42,0,0,1,1.53,1.46Zm.37,3.84a1.44,1.44,0,0,1-1.57,1.6,3.12,3.12,0,0,1-1-.18V4.62h.52a1.82,1.82,0,0,1,2,1.87Z"/><path class="cls-2" d="M52,5.3a5.34,5.34,0,0,0-1.42-3.66A5.26,5.26,0,0,0,48.93.48l-.07.15a5.75,5.75,0,0,1,.93.71A5.53,5.53,0,0,1,51.28,5a3.55,3.55,0,0,1,0,.63,3.46,3.46,0,0,0-.89-1.38,2,2,0,0,0-.41-.37,5,5,0,0,1-.26,1.23,5.92,5.92,0,0,0,.45.41,2,2,0,0,1,.59,1.3.87.87,0,0,1-.3.68,1.39,1.39,0,0,1-1,.33A3,3,0,0,1,48,7.31a5.51,5.51,0,0,0,1.46-2.5,5.06,5.06,0,0,0,.15-1.27A4,4,0,0,0,49,1.45,2.65,2.65,0,0,0,46.66,0a4.71,4.71,0,0,0-3.28,1.53A4.88,4.88,0,0,0,41.88,5a5.85,5.85,0,0,0,0,.71h.15a5.87,5.87,0,0,1,.15-1.19A5.55,5.55,0,0,1,43.67,2.2a4.58,4.58,0,0,1,1.53-1,4.07,4.07,0,0,0-.78,1.45,3.78,3.78,0,0,0-.08.56,5,5,0,0,1,1.2-.41,2.68,2.68,0,0,1,.71-1.53A.88.88,0,0,1,47,.9a1.26,1.26,0,0,1,1,.7,2.93,2.93,0,0,1,.3,1.57A4.39,4.39,0,0,0,46.84,3a4.57,4.57,0,0,0-1.45.22,4.72,4.72,0,0,0-2.13,1.19,3.21,3.21,0,0,0-1,2.2,3.09,3.09,0,0,0,1,2.17A5.26,5.26,0,0,0,47,10.18a4.87,4.87,0,0,0,2.95-1l-.08-.11a4.52,4.52,0,0,1-2.27.56,5.47,5.47,0,0,1-3.25-1,3.18,3.18,0,0,0,.68,0,3.32,3.32,0,0,0,1.49-.3,5.05,5.05,0,0,1-.93-.85,3.73,3.73,0,0,1-1.2.26,1.32,1.32,0,0,1-1-.38.91.91,0,0,1-.27-.63,1.86,1.86,0,0,1,.6-1.23,2.61,2.61,0,0,1,.82-.6A5.35,5.35,0,0,0,46,7.46a4.69,4.69,0,0,0,3.09,1.38,2.67,2.67,0,0,0,2-.79A4,4,0,0,0,52,5.3Zm-3.88-.83a5.07,5.07,0,0,1-1.27,2A4.61,4.61,0,0,1,45.8,4.4a3.8,3.8,0,0,1,1-.11,5.8,5.8,0,0,1,1.38.18Z"/></g></g></svg>