<svg xmlns="http://www.w3.org/2000/svg" viewBox="0 0 80 24.73"><defs><style>.cls-1{fill:#010101;}.cls-1,.cls-2{fill-rule:evenodd;}.cls-2{fill:#6ebe44;}</style></defs><title>Trustly</title><g id="Layer_2" data-name="Layer 2"><g id="Trustly"><path class="cls-1" d="M49.34,14.43c0,.93,0,1.86,0,2.79a2.78,2.78,0,0,1-.23,1.1,1.85,1.85,0,0,1-1.69,1.17h-.17c-1.31,0-2.63,0-3.94,0a3.13,3.13,0,0,1-.75-.08A1.92,1.92,0,0,1,41,17.87a3.85,3.85,0,0,1-.1-.83c0-1.77,0-3.53,0-5.29a1.21,1.21,0,0,1,.07-.43.55.55,0,0,1,.59-.43h2.15a1,1,0,0,1,.39.07.65.65,0,0,1,.44.66v4a2.12,2.12,0,0,0,0,.44.54.54,0,0,0,.53.46.59.59,0,0,0,.65-.4,1.4,1.4,0,0,0,.06-.41c0-1.33,0-2.65,0-4a3.15,3.15,0,0,1,0-.44.44.44,0,0,1,.4-.38h2.23l.3,0a.6.6,0,0,1,.52.56,1.93,1.93,0,0,1,0,.24v2.72Z"/><path class="cls-1" d="M28,7.8h4.31a2.83,2.83,0,0,1,.41,0,.34.34,0,0,1,.3.37c0,.19,0,.38,0,.58v1.43c0,.31-.08.4-.38.41s-.84,0-1.25,0H30.25c-.3,0-.36.07-.36.36v7.81a2.81,2.81,0,0,1,0,.29.37.37,0,0,1-.28.33,1.33,1.33,0,0,1-.34.05H26.53a1.67,1.67,0,0,1-.31,0,.3.3,0,0,1-.24-.26,2.64,2.64,0,0,1,0-.28V11.09a1.93,1.93,0,0,0,0-.24.19.19,0,0,0-.19-.21.86.86,0,0,0-.22,0h-2a1.37,1.37,0,0,1-.29,0,.25.25,0,0,1-.24-.26,1.34,1.34,0,0,1,0-.2V8.33c0-.39.12-.51.51-.53H28Z"/><path class="cls-1" d="M75.43,14.72,76,13.36l.72-1.79a1.16,1.16,0,0,1,.39-.54.68.68,0,0,1,.42-.14h1.94a1.34,1.34,0,0,1,.35,0,.24.24,0,0,1,.19.32,2.09,2.09,0,0,1-.08.23L75.46,22a1.6,1.6,0,0,1-.32.49.8.8,0,0,1-.55.22c-.56,0-1.13,0-1.69,0a1.53,1.53,0,0,1-.3,0c-.26,0-.34-.17-.27-.42,0-.06,0-.13.08-.2l1.1-2.61a.3.3,0,0,0,0-.29l-3.05-7.56a2,2,0,0,1-.08-.22.3.3,0,0,1,.26-.42l.3,0h2.49a.8.8,0,0,1,.57.24,1.19,1.19,0,0,1,.29.48c.35,1,.69,2,1,3l.07.16Z"/><path class="cls-1" d="M54.42,19.71a14.18,14.18,0,0,1-3.2-.38l-.32-.1a.21.21,0,0,1-.18-.19A4.91,4.91,0,0,1,50.64,18c0-.21,0-.41,0-.62l0-.13c.08-.26.14-.29.39-.22a8.4,8.4,0,0,0,2.45.24,3.21,3.21,0,0,0,.43-.07.57.57,0,0,0,.22-.11.26.26,0,0,0,0-.42,1.27,1.27,0,0,0-.31-.2l-.61-.28c-.35-.16-.7-.32-1-.51a2.82,2.82,0,0,1-.92-.76A2.46,2.46,0,0,1,51,12.39a2.16,2.16,0,0,1,.82-1,4.75,4.75,0,0,1,1.61-.67,10.76,10.76,0,0,1,3.65,0c.12,0,.23.07.35.1a.21.21,0,0,1,.19.22,4.42,4.42,0,0,1,0,.63,3.33,3.33,0,0,1-.2.87l-.05.12c-.13.28-.21.32-.51.28l-1.41-.16a2.16,2.16,0,0,0-.44,0l-.26.05a.31.31,0,0,0-.24.25c0,.13.07.2.16.25s.3.18.45.26c.35.18.71.34,1.05.52a4.54,4.54,0,0,1,1.13.82,2.68,2.68,0,0,1,.8,2.18,3.09,3.09,0,0,1-.12.73,2.21,2.21,0,0,1-1.12,1.37,3.91,3.91,0,0,1-1.41.43Z"/><path class="cls-1" d="M59.79,13.22h-.64a.36.36,0,0,1-.3-.24,1.09,1.09,0,0,1,0-.26c0-.43,0-.86,0-1.29a.13.13,0,0,1,0-.06.43.43,0,0,1,.45-.45H60c0-.07,0-.12,0-.18,0-.3,0-.59,0-.89a.56.56,0,0,1,.33-.56,1.14,1.14,0,0,1,.4-.15c.66-.12,1.33-.22,2-.33a1.22,1.22,0,0,1,.27,0A.24.24,0,0,1,63.2,9a2.17,2.17,0,0,1,0,.36c0,.45,0,.91,0,1.37v.13h1a.44.44,0,0,1,.46.32,1.39,1.39,0,0,1,.06.4c0,.38,0,.77,0,1.15v.1c0,.28-.12.38-.4.39h-1c0,.06,0,.12,0,.17v3.2c0,.32.11.45.43.49a1.71,1.71,0,0,0,.32,0c.12,0,.15,0,.19.12s.09.32.13.49a7.1,7.1,0,0,1,.13,1.31.86.86,0,0,0,0,.16.19.19,0,0,1-.16.21c-.29.06-.58.14-.88.18a5.45,5.45,0,0,1-1.51.05A2.61,2.61,0,0,1,60.46,19a2.22,2.22,0,0,1-.64-1.36,8.72,8.72,0,0,1,0-.88c0-1.14,0-2.28,0-3.42C59.8,13.31,59.79,13.28,59.79,13.22Z"/><path class="cls-1" d="M66,13.57V8a.41.41,0,0,1,.39-.4h2.33a2.18,2.18,0,0,1,.44,0A.36.36,0,0,1,69.5,8a1.15,1.15,0,0,1,0,.19V18.81a2.45,2.45,0,0,1,0,.27.38.38,0,0,1-.37.38H66.6l-.34,0a.26.26,0,0,1-.23-.24A1.49,1.49,0,0,1,66,19V13.57Z"/><path class="cls-1" d="M33.6,15.61V12.86a3.18,3.18,0,0,1,.06-.62,1.38,1.38,0,0,1,.86-1.09,2.57,2.57,0,0,1,1-.24c.39,0,.79,0,1.18,0h2.86c.26,0,.34.08.34.34v1.72a.49.49,0,0,1,0,.12.3.3,0,0,1-.28.29c-.12,0-.25,0-.38,0l-.86.07a1.94,1.94,0,0,0-.66.24,1.07,1.07,0,0,0-.58.93c0,.1,0,.2,0,.29v3.82a2,2,0,0,1,0,.35.44.44,0,0,1-.44.4H34.37a1,1,0,0,1-.3,0,.56.56,0,0,1-.45-.49c0-.11,0-.23,0-.34Z"/><path class="cls-2" d="M16.4,7.8l.25,0c.85,0,1.7,0,2.55,0a2,2,0,0,1,.88.2,1,1,0,0,1,.59,1.25c-.18.89-.39,1.79-.59,2.68L19,16.79c-.1.46-.2.91-.31,1.37a1.52,1.52,0,0,1-.76,1.08,1.86,1.86,0,0,1-.83.21c-.17,0-.34,0-.5,0H3.65a1.72,1.72,0,0,1-1-.28A1.46,1.46,0,0,1,2,18.25c-.14-.59-.27-1.17-.4-1.76C1.14,14.33.66,12.16.17,10,.12,9.76.06,9.52,0,9.28a2,2,0,0,1,0-.54,1,1,0,0,1,.5-.67,1.88,1.88,0,0,1,1-.25c.85,0,1.69,0,2.54,0,.25,0,.25,0,.25-.25V6.05A6,6,0,0,1,9,.16,5.83,5.83,0,0,1,11,0a5.91,5.91,0,0,1,3.13,1.28,6,6,0,0,1,2.14,3.45A5.74,5.74,0,0,1,16.4,6V7.8Zm-6.06,0h3.82c.11,0,.12,0,.13-.13a.66.66,0,0,0,0-.14c0-.52,0-1,0-1.57a5.25,5.25,0,0,0-.06-.79A3.94,3.94,0,0,0,9.86,2a3.62,3.62,0,0,0-1.6.57A3.87,3.87,0,0,0,6.4,5.87c0,.57,0,1.14,0,1.71,0,.24,0,.24.24.24Zm0,2.43H8c-.26,0-.34.08-.35.34v.81c0,.34,0,.39.38.39h.9c.28,0,.28,0,.28.28V16a1.69,1.69,0,0,0,0,.23c0,.19.09.25.28.26h1.41l.19,0a.26.26,0,0,0,.24-.22,1.93,1.93,0,0,0,0-.24V12c0-.23,0-.23.24-.23h1l.24,0a.15.15,0,0,0,.13-.13c0-.05,0-.1,0-.16v-.87c0-.27-.09-.35-.35-.35H10.33Z"/><path class="cls-2" d="M12.06,22.32a2.38,2.38,0,0,1,4.75,0,2.38,2.38,0,1,1-4.75,0Z"/><path class="cls-2" d="M8.63,22.35A2.38,2.38,0,1,1,6.27,20,2.38,2.38,0,0,1,8.63,22.35Z"/></g></g></svg>