<svg xmlns="http://www.w3.org/2000/svg" viewBox="0 0 80 30.76"><defs><style>.cls-1{fill:#ed1c24;}.cls-2{fill:#020202;}</style></defs><title>UBS</title><g id="Layer_2" data-name="Layer 2"><g id="UBS"><g id="layer1"><g id="g2189"><path id="path2195" class="cls-1" d="M72.55,25.16A11.61,11.61,0,0,1,69,24.34c-.23-.1-.39-1-.51-1l-.24-1.18c0-1.06-.07-2.23-.09-2.6l0-.67H69l.11.83c.41,3.09,2,4.65,4.88,4.65,1.88,0,3-.71,3.64-2.2a4.26,4.26,0,0,0,.21-1.84c0-1.29,0-1.31-.3-1.92-.52-1.08-1-1.44-3.71-2.5-.78-.31-1.72-.71-2.07-.89-2.32-1.17-3.47-2.82-3.46-5a5.4,5.4,0,0,1,4.24-5.51,11.42,11.42,0,0,1,4.2,0,9.38,9.38,0,0,1,2.26.9,10.81,10.81,0,0,1,.14,1.82c0,.94.07,1.93.09,2.2l0,.49H78.4l-.19-1c-.45-2.28-1.5-3.48-3.3-3.78A4.45,4.45,0,0,0,71,6.44a3.4,3.4,0,0,0-.69,2.39,2.5,2.5,0,0,0,.27,1.52,3.35,3.35,0,0,0,1.67,1.52A24.83,24.83,0,0,0,75.07,13a17.72,17.72,0,0,1,2.49,1.24A5.21,5.21,0,0,1,79.9,18a5.56,5.56,0,0,1,0,1.86,5.59,5.59,0,0,1-1.78,3.77C76.8,24.91,75.15,25.36,72.55,25.16ZM39.79,25c-2.93-.56-4.32-2.11-4.71-5.25-.06-.48-.1-3.4-.1-7.59V5.4H32.77V4.56h7.29v.83l-1.18,0-1.17,0,0,6c0,7.85,0,9.12.74,10.51s2,2.07,3.92,2.07c2.2,0,3.43-.83,4.09-2.75.43-1.23.46-1.88.46-9.11V5.4H44.67V4.56H50V5.4H48l0,7.4c0,7.33,0,7.41-.24,8.15a5.05,5.05,0,0,1-3.85,3.94A12.52,12.52,0,0,1,39.79,25Zm11.46-.54,0-.39,1.11,0h1.11l0-9.34,0-9.34-1.13,0-1.14,0,0-.39,0-.4h4.53c2.87,0,4.78,0,5.2.1a4.08,4.08,0,0,1,3.28,2.13,5.41,5.41,0,0,1,.43,3.45A3.77,3.77,0,0,1,62.83,13a5.37,5.37,0,0,1-2,.85A4.78,4.78,0,0,0,60,14s.2.09.55.13c3.57.36,5.13,1.93,5.13,5.15a5,5,0,0,1-1.46,3.95,5.43,5.43,0,0,1-2.5,1.37c-.7.19-.91.2-5.6.23l-4.87,0Zm8.41-.58a3.94,3.94,0,0,0,3-3.09,8.43,8.43,0,0,0-.15-3.6,4.1,4.1,0,0,0-1.69-2.12c-.74-.43-1.27-.52-3-.52h-1.6v9.47h1.46A9.39,9.39,0,0,0,59.66,23.92Zm0-10.39c1.53-.49,2.42-2,2.4-4.11s-1.12-3.75-2.81-4a14.33,14.33,0,0,0-1.76,0l-1.27,0V9.52c0,2.26,0,4.14.07,4.18A13.93,13.93,0,0,0,59.65,13.53Z"/><path id="path2191" class="cls-2" d="M13.5,30.67c-.29-.08-.3-.1-.3-.58s0-.51-.3-.56A6,6,0,0,1,11,28.64a4.47,4.47,0,0,1-1.45-5.22,4.77,4.77,0,0,1,3.16-2.71c.68-.17.64-.36-.07-.42l-.55-.05v-.93l.57,0,.58,0V16.89c0-1.3,0-2.36,0-2.36s-.72.55-1.55,1.23L9.85,17.19c-.14.11-.25.23-.25.28a1.89,1.89,0,0,0,.32.45c.3.36.3.38.16.62a.82.82,0,0,1-.4.34c-.24.09-.29.06-.62-.34s-.4-.41-.47-.34,0,.28.19.74a3.22,3.22,0,0,1,.34,1.58A4,4,0,0,1,9,22.11,4.3,4.3,0,0,1,6.06,25a3.57,3.57,0,0,1-1.52.14,4.09,4.09,0,0,1-2.44-.82A3.38,3.38,0,0,0,1.5,24a1.91,1.91,0,0,0-.38.28c-.3.25-.33.26-.58.13a1.2,1.2,0,0,1-.54-.8c0-.07.15-.25.34-.41l.34-.29-.24-.57a4.52,4.52,0,0,1,2.47-6.16A3.5,3.5,0,0,1,4.43,16a4,4,0,0,1,2.65.83c.76.5.94.42.44-.2-.35-.42-.35-.44-.21-.68a.93.93,0,0,1,.4-.34c.23-.09.28-.06.63.35l.38.43,2-1.61a24.06,24.06,0,0,0,2-1.72,24.1,24.1,0,0,0-1.94-1.67L8.81,9.81l-.25.24c-.33.31-.32.5,0,.75s.34.3,0,.66l-.25.3-.29-.29c-.35-.34-.38-.34-.61-.07-.38.44-.38.49,0,.73.18.12.32.26.32.32a1.28,1.28,0,0,1-.44.59,17.13,17.13,0,0,1-1.85-1.48,4.93,4.93,0,0,1,1-.61,4.93,4.93,0,0,0,1-.61s-.12-.15-.26-.26l-.27-.19L6,10.4a6,6,0,0,1-.93.48,6,6,0,0,1,.28-1l.31-1-.24-.18c-.13-.11-.27-.18-.32-.16a4.39,4.39,0,0,0-.4,1c-.18.56-.33,1-.35,1A17.93,17.93,0,0,1,2.4,9.08a1.76,1.76,0,0,1,.48-.59,1.65,1.65,0,0,1,.41.25L3.61,9l.27-.29a1.48,1.48,0,0,0,.27-.35A1.45,1.45,0,0,0,3.81,8l-.34-.29L3.7,7.4C4,7.05,4,7,4.36,7.33a1.24,1.24,0,0,0,.34.24,1.89,1.89,0,0,0,.56-.63,6.49,6.49,0,0,0-.78-.67c-.87-.68-.94-.83-.55-1.29s0-.87,5.48,3.59c3,2.41,3.68,3,3.73,3s.06-1.07.06-2.37V6.82h-.92v.93h-.83V6.82h-.93v.93H9.69V5.25l.44.17,1,.42a6.11,6.11,0,0,0,.67.24s.08-.16.08-.35V5.38l-1-.4-1-.41,1-.42,1-.41V3.38c0-.2,0-.36-.05-.36s-.47.17-1,.38l-1.06.43c-.09,0-.12-.25-.12-1.22V1.35h.83v.92h.93V1.35h.83v.92h.92V.15l.35-.1a1,1,0,0,1,.65,0l.29.1V5.87c0,4.83,0,5.7.13,5.66s2.63-2.08,7-5.63c.79-.65,1.48-1.21,1.55-1.25s.46,0,.65.3c.38.55.36.6-.49,1.28a5.71,5.71,0,0,0-.79.71,1.42,1.42,0,0,0,.49.63,1.85,1.85,0,0,0,.41-.25l.32-.26.26.32.27.33L23.9,8l-.36.33.29.31c.19.22.32.29.4.23.62-.46.59-.45.83-.21a1.27,1.27,0,0,1,.25.33,8.86,8.86,0,0,1-1.86,1.56,6.59,6.59,0,0,1-.37-1.06,3.54,3.54,0,0,0-.41-1,.76.76,0,0,0-.32.18l-.21.18.32,1a6.35,6.35,0,0,1,.27,1s-.46-.24-1-.52l-.93-.52-.26.26-.27.26.57.32,1,.57.44.25-1,.79-1,.79-.26-.32-.26-.33.35-.29.36-.3-.26-.34a1.67,1.67,0,0,0-.3-.34,1.79,1.79,0,0,0-.4.28l-.35.27-.25-.33-.25-.33.35-.3.35-.3-.27-.34c-.23-.29-.29-.32-.43-.23C18.42,10.19,15,13,15,13.05a3.94,3.94,0,0,0,.52.46c.3.23,1.21,1,2,1.65s1.52,1.23,1.54,1.23a2.56,2.56,0,0,0,.33-.42c.36-.5.55-.52.93-.14l.28.28-.24.3c-.31.39-.47.7-.39.79a.18.18,0,0,0,.19,0,6.7,6.7,0,0,1,1.75-1,4.33,4.33,0,0,1,5.34,2.24l.39.79v1.17a4,4,0,0,1-.56,2.47c0,.06.13.22.33.37s.37.32.32.51a1.46,1.46,0,0,1-.62.76c-.13.07-.25,0-.54-.24l-.37-.32-.42.32a4.34,4.34,0,0,1-2.84,1A3.93,3.93,0,0,1,19.89,24a4.22,4.22,0,0,1-1.19-2.1,4.43,4.43,0,0,1,.29-3c.18-.4.21-.57.13-.65s-.15,0-.28.12c-.56.72-.5.68-.82.52a1,1,0,0,1-.39-.35c-.11-.19-.09-.25.37-.84l.18-.24L16.43,16c-1-.78-1.79-1.44-1.85-1.46a11.17,11.17,0,0,0-.07,2.33l0,2.35.55,0c.6,0,.69.1.69.53s-.09.49-.69.52c-.79,0-.73.23.14.49a4.46,4.46,0,0,1,2.66,1.95,4.58,4.58,0,0,1,.21,4.35,5,5,0,0,1-2.67,2.26c-1,.28-.94.26-.94.77s0,.46-.29.55S13.9,30.79,13.5,30.67ZM13.22,28c0-.37,0-.42.33-.5a1.22,1.22,0,0,1,.6,0c.27.08.3.13.34.55s.07.46.28.44a3.91,3.91,0,0,0,1.79-1.05,3,3,0,0,0,.92-2.36,4.92,4.92,0,0,0-.11-1.19,1.57,1.57,0,0,0-2.76-.63,1.38,1.38,0,0,0,.46,1.92,1.9,1.9,0,0,0,1.29,0c.14-.07.16,0,.16.44s0,.51-.29.61a2.12,2.12,0,0,1-2.05-.46,1.77,1.77,0,0,0-.27-.28,2.67,2.67,0,0,0-.36.31,2,2,0,0,1-2,.42l-.36-.1V25.6c0-.45,0-.5.16-.43a2.34,2.34,0,0,0,.73.08c.51,0,.61,0,.86-.27a1.4,1.4,0,0,0,0-2c-.86-.8-2.26-.14-2.58,1.23a3.56,3.56,0,0,0,1.35,3.71c.46.32,1.34.66,1.43.56A1.23,1.23,0,0,0,13.22,28ZM5.87,24a3.33,3.33,0,0,0,2.07-2,1.56,1.56,0,0,0-.41-1.63c-.36-.35-.44-.39-.83-.39a1.35,1.35,0,0,0-1.41,1.15A1.39,1.39,0,0,0,6,22.49l.36.18L6,23a1.64,1.64,0,0,1-.51.3,1.82,1.82,0,0,1-.53-.38,1.86,1.86,0,0,1-.66-1.61l0-.41-.45-.06a2.23,2.23,0,0,1-1.66-1.4c-.09-.23-.07-.28.25-.56a2.08,2.08,0,0,1,.4-.31s.1.15.16.35a1.41,1.41,0,0,0,1.26.9,1.36,1.36,0,0,0,1.34-1.36A1.46,1.46,0,0,0,4,17c-1.71,0-3.19,2-2.88,3.9.1.65.3,1.2.44,1.2a1.13,1.13,0,0,0,.37-.23c.27-.23.29-.24.56-.09a1.11,1.11,0,0,1,.44.47l.16.33-.35.32a3.78,3.78,0,0,0-.34.35,4.39,4.39,0,0,0,1.37.77A3.92,3.92,0,0,0,5.87,24Zm18.56-.13a3.15,3.15,0,0,0,.74-.45c.16-.18.16-.19-.13-.44s-.38-.53-.11-.87.52-.48.93-.16l.36.3.2-.45a2.78,2.78,0,0,0,.21-1.38A2.54,2.54,0,0,0,26.37,19a3.59,3.59,0,0,0-1.69-1.73,1.77,1.77,0,0,0-2.42.67,1.09,1.09,0,0,0,.25,1.45,1.25,1.25,0,0,0,1.95-.05,1.14,1.14,0,0,0,.28-.55c0-.3.07-.29.48.06s.42.42.17.9a2,2,0,0,1-1.59,1.07h-.37l.06.39a1.83,1.83,0,0,1-.62,1.64,1.74,1.74,0,0,1-.58.44,1.45,1.45,0,0,1-.51-.3l-.37-.29.26-.11a1.2,1.2,0,0,0,.74-1.08,1.19,1.19,0,0,0-.64-1.29,1.25,1.25,0,0,0-1.79.52c-.56.95,0,2.24,1.22,3a3,3,0,0,0,1.92.46A3,3,0,0,0,24.43,23.87Z"/></g></g></g></g></svg>