<svg id="Layer_1" data-name="Layer 1" xmlns="http://www.w3.org/2000/svg" viewBox="0 0 80.01 51.11"><defs><style>.cls-1{fill:#01798a;}.cls-2{fill:#1a4580;}.cls-3{fill:#dc1f2a;}.cls-4{fill:#fff;}.cls-5{fill:#df2f42;}.cls-6{fill:#2e507e;}</style></defs><title>unionpay-max</title><path class="cls-1" d="M86.05,24.46H66.29c-2.71.08-6.08,2.25-6.69,4.93L50.3,70.61A3.82,3.82,0,0,0,54,75.55h20.7a6.58,6.58,0,0,0,5.82-4.92l9.32-41.22a3.83,3.83,0,0,0-3.83-4.95" transform="translate(-10 -24.44)"/><path class="cls-2" d="M50.3,70.61l9.32-41.22c.61-2.68,4-4.85,6.69-4.93H44.37c-2.71.06-6.13,2.24-6.74,4.94L28.3,70.61A3.81,3.81,0,0,0,32,75.55H54a3.81,3.81,0,0,1-3.74-4.94" transform="translate(-10 -24.44)"/><path class="cls-3" d="M28.3,70.61l9.32-41.22c.61-2.7,4-4.88,6.74-4.94H26.28c-2.73,0-6.23,2.21-6.85,4.94L10.11,70.61a4.9,4.9,0,0,0-.11.74v.76a3.74,3.74,0,0,0,3.85,3.44H32a3.81,3.81,0,0,1-3.74-4.94" transform="translate(-10 -24.44)"/><path class="cls-4" d="M44.74,54.49h.34a.65.65,0,0,0,.63-.31l.89-1.33H49l-.5.88h2.85L51,55.07h-3.4a1.57,1.57,0,0,1-1.45.83H44.35l.39-1.41m-.39,1.92H50.6l-.4,1.46H47.68l-.38,1.41h2.45l-.4,1.46H46.9l-.57,2.08c-.14.35,0,.5.55.47h2l-.37,1.35H44.67c-.73,0-1-.42-.75-1.25l.73-2.65H43.1l.4-1.46h1.56l.38-1.41h-1.5Zm10-3.58-.1.85a4.58,4.58,0,0,1,2.25-.89h4l-1.51,5.48c-.13.63-.66.94-1.61.94H52.83l-1,3.85c-.06.21,0,.31.25.31h.88l-.32,1.19H50.35q-1.29,0-1.08-.78l3-11h2.09Zm3.35,1.55H54.15l-.42,1.48a3,3,0,0,1,1.57-.44c1,0,2.1,0,2.1,0ZM56.4,57.81c.26,0,.41-.07.43-.31l.22-.78H53.5l-.3,1.09ZM54,59.59h2l0,.88h.54c.27,0,.41-.09.41-.26l.16-.57h1.7l-.23.83a1.46,1.46,0,0,1-1.52,1.09H56v1.51c0,.24.2.36.65.36h1l-.33,1.19H54.87c-.69,0-1-.29-1-1l.17-4" transform="translate(-10 -24.44)"/><path class="cls-4" d="M29.29,45.53a5,5,0,0,1-1.91,3.14,6.25,6.25,0,0,1-3.81,1.09,4.14,4.14,0,0,1-3.22-1.12,2.88,2.88,0,0,1-.71-2,5.42,5.42,0,0,1,.12-1.09l1.66-8h2.51l-1.64,7.91a2.72,2.72,0,0,0-.07.61,1.59,1.59,0,0,0,.3,1,1.74,1.74,0,0,0,1.45.58,3,3,0,0,0,1.9-.57,2.65,2.65,0,0,0,1-1.61l1.64-7.91H31l-1.67,8" transform="translate(-10 -24.44)"/><path class="cls-4" d="M39.82,42.39h2l-1.54,7.14h-2l1.54-7.14m.61-2.6h2L42,41.52h-2l.37-1.73" transform="translate(-10 -24.44)"/><path class="cls-4" d="M43.51,49a2.63,2.63,0,0,1-.77-2,4.57,4.57,0,0,1,0-.49,4,4,0,0,1,.08-.52,4.85,4.85,0,0,1,1.49-2.76,4,4,0,0,1,2.76-1,2.9,2.9,0,0,1,2.09.74A2.67,2.67,0,0,1,50,45a4.75,4.75,0,0,1,0,.5c0,.18,0,.36-.08.53a4.71,4.71,0,0,1-1.49,2.72,4,4,0,0,1-2.75,1,2.92,2.92,0,0,1-2.1-.73m3.74-1.41a3.4,3.4,0,0,0,.74-1.7l.06-.36c0-.12,0-.23,0-.34a1.41,1.41,0,0,0-.34-1,1.23,1.23,0,0,0-.95-.36,1.71,1.71,0,0,0-1.33.57,3.52,3.52,0,0,0-.75,1.73l-.06.35a1.87,1.87,0,0,0,0,.33,1.39,1.39,0,0,0,.34,1,1.24,1.24,0,0,0,1,.36,1.76,1.76,0,0,0,1.32-.57" transform="translate(-10 -24.44)"/><polyline class="cls-5" points="56.35 0.02 48.47 0.01 56.3 0.02 56.35 0.02"/><path class="cls-6" d="M58.47,24.45h0" transform="translate(-10 -24.44)"/><path class="cls-4" d="M62.69,54.55l.47-1.67h2.39l-.1.61a6,6,0,0,1,2.1-.61h3L70,54.55h-.47L67.34,62.4h.47L67.37,64H66.9l-.19.68H64.39l.19-.68H60l.45-1.56h.46l2.23-7.85h-.46m2.58,0-.61,2.13a9.75,9.75,0,0,1,1.94-.51c.2-.74.46-1.61.46-1.61H65.27Zm-.89,3.12-.61,2.23a6.63,6.63,0,0,1,1.95-.62c.23-.86.46-1.61.46-1.61Zm.44,4.73.46-1.61H63.5L63,62.4Zm5.79-9.62h2.25l.1.83c0,.21.11.31.38.31h.4l-.4,1.41H71.69c-.63,0-1-.21-1-.73Zm-.66,3h7.28l-.43,1.51H74.48l-.4,1.4H76.4L76,60.22H73.4l-.58.88h1.26l.29,1.77c0,.18.19.26.46.26h.39l-.41,1.46H73.42c-.72,0-1.09-.21-1.12-.73L72,62.25,70.82,64a1.25,1.25,0,0,1-1.25.68H67.45l.41-1.46h.66a.89.89,0,0,0,.7-.36l1.8-2.6H68.7l.43-1.51h2.52l.4-1.4H69.53L70,55.8" transform="translate(-10 -24.44)"/><path class="cls-4" d="M31.6,42.38h1.77l-.2,1,.25-.29a2.76,2.76,0,0,1,2.09-.92,1.94,1.94,0,0,1,1.62.65,2.21,2.21,0,0,1,.27,1.81l-1,4.86H34.61l.88-4.41a1.4,1.4,0,0,0-.07-1,.85.85,0,0,0-.78-.33,1.69,1.69,0,0,0-1.18.44,2.21,2.21,0,0,0-.64,1.21L32,49.53H30.18l1.42-7.15" transform="translate(-10 -24.44)"/><path class="cls-4" d="M51.89,42.38h1.77l-.2,1,.25-.29a2.76,2.76,0,0,1,2.09-.92,1.94,1.94,0,0,1,1.62.65,2.14,2.14,0,0,1,.26,1.81l-1,4.86H54.9l.88-4.41a1.4,1.4,0,0,0-.07-1,.85.85,0,0,0-.78-.33,1.69,1.69,0,0,0-1.18.44,2.15,2.15,0,0,0-.64,1.21l-.81,4.1H50.48l1.41-7.14" transform="translate(-10 -24.44)"/><path class="cls-4" d="M60.65,38h5.14a3.48,3.48,0,0,1,2.28.66,2.39,2.39,0,0,1,.79,1.92v0a5.13,5.13,0,0,1,0,.53c0,.19-.06.38-.1.59a4.55,4.55,0,0,1-1.56,2.66,4.43,4.43,0,0,1-2.89,1H61.52l-.85,4.18H58.28L60.65,38m1.28,5.37h2.29a2.21,2.21,0,0,0,1.41-.41,2.15,2.15,0,0,0,.69-1.27c0-.11,0-.2.05-.29a2.11,2.11,0,0,0,0-.25,1,1,0,0,0-.44-.89,2.59,2.59,0,0,0-1.38-.28H62.63l-.7,3.39" transform="translate(-10 -24.44)"/><path class="cls-4" d="M79.54,50.91a11.14,11.14,0,0,1-1.9,3,3.85,3.85,0,0,1-3.28,1.36L74.53,54c1.7-.52,2.62-2.88,3.14-3.92l-.62-7.69,1.31,0h1.1l.12,4.82,2.06-4.82h2.09l-4.19,8.51" transform="translate(-10 -24.44)"/><path class="cls-4" d="M73.69,43l-.83.57a2.61,2.61,0,0,0-3.19-.39c-2.08,1-3.82,8.37,1.91,5.93l.33.39,2.26.06,1.48-6.73-2,.17m-1.28,3.68c-.36,1.07-1.17,1.78-1.81,1.57s-.86-1.23-.49-2.3,1.18-1.78,1.81-1.57.86,1.23.49,2.3" transform="translate(-10 -24.44)"/></svg>