<?xml version="1.0" encoding="utf-8"?>
<!-- Generator: Adobe Illustrator 24.1.1, SVG Export Plug-In . SVG Version: 6.00 Build 0)  -->
<svg version="1.1" id="Layer_1" xmlns="http://www.w3.org/2000/svg" xmlns:xlink="http://www.w3.org/1999/xlink" x="0px" y="0px"
	 viewBox="0 0 100 100" style="enable-background:new 0 0 100 100;" xml:space="preserve">
<style type="text/css">
	.st0{fill:#D7D7D7;}
	.st1{fill:#01798A;}
	.st2{fill:#1A4580;}
	.st3{fill:#DC1F2A;}
	.st4{fill:#FFFFFF;}
	.st5{fill:#DF2F42;}
	.st6{fill:#2E507E;}
</style>
<g>
	<path class="st0" d="M86.36,77.27H13.64c-2.01,0-3.64-1.63-3.64-3.64V26.36c0-2.01,1.63-3.64,3.64-3.64h72.73
		c2.01,0,3.64,1.63,3.64,3.64v47.27C90,75.64,88.37,77.27,86.36,77.27z"/>
	<g id="XMLID_1407_">
		<path id="XMLID_1442_" class="st1" d="M83.91,57.98l-5.42,0h0l-0.01,0c-0.74,0.02-1.67,0.62-1.84,1.36l-2.56,11.34
			c-0.17,0.74,0.29,1.35,1.03,1.36h5.69c0.73-0.04,1.43-0.63,1.6-1.35l2.56-11.34C85.14,58.59,84.67,57.98,83.91,57.98"/>
		<path id="XMLID_1441_" class="st2" d="M74.08,70.67l2.56-11.34c0.17-0.74,1.1-1.33,1.84-1.36l-2.15,0l-3.88,0
			c-0.75,0.02-1.69,0.62-1.85,1.36l-2.56,11.34c-0.17,0.74,0.29,1.35,1.03,1.36h6.05C74.37,72.02,73.91,71.41,74.08,70.67"/>
		<path id="XMLID_1440_" class="st3" d="M68.03,70.67l2.56-11.34c0.17-0.74,1.11-1.34,1.85-1.36l-4.97,0
			c-0.75,0-1.71,0.61-1.88,1.36l-2.56,11.34c-0.02,0.07-0.02,0.14-0.03,0.2v0.21c0.05,0.54,0.46,0.94,1.06,0.94h5
			C68.32,72.02,67.86,71.41,68.03,70.67"/>
		<path id="XMLID_1433_" class="st4" d="M72.55,66.23h0.09c0.09,0,0.14-0.03,0.17-0.09l0.24-0.37h0.65l-0.14,0.24h0.79l-0.1,0.37
			h-0.93c-0.11,0.16-0.24,0.24-0.4,0.23h-0.49L72.55,66.23 M72.45,66.76h1.72l-0.11,0.4h-0.69l-0.11,0.39h0.67l-0.11,0.4h-0.67
			l-0.16,0.57c-0.04,0.1,0.01,0.14,0.15,0.13h0.55l-0.1,0.37h-1.05c-0.2,0-0.27-0.11-0.21-0.34l0.2-0.73H72.1l0.11-0.4h0.43
			l0.11-0.39h-0.41L72.45,66.76z M75.19,65.78l-0.03,0.23c0,0,0.32-0.24,0.62-0.24h1.09l-0.42,1.51c-0.03,0.17-0.18,0.26-0.44,0.26
			h-1.23l-0.29,1.06c-0.02,0.06,0.01,0.09,0.07,0.09h0.24l-0.09,0.33h-0.62c-0.24,0-0.34-0.07-0.3-0.21l0.82-3.01H75.19L75.19,65.78
			z M76.11,66.21h-0.97l-0.12,0.41c0,0,0.16-0.12,0.43-0.12c0.27,0,0.58,0,0.58,0L76.11,66.21z M75.76,67.15
			c0.07,0.01,0.11-0.02,0.12-0.09l0.06-0.21h-0.97l-0.08,0.3H75.76z M75.1,67.64h0.56l-0.01,0.24h0.15c0.08,0,0.11-0.02,0.11-0.07
			l0.04-0.16h0.47l-0.06,0.23c-0.05,0.19-0.19,0.29-0.42,0.3h-0.3l0,0.41c-0.01,0.07,0.05,0.1,0.18,0.1h0.28l-0.09,0.33h-0.67
			c-0.19,0.01-0.28-0.08-0.28-0.27L75.1,67.64"/>
		<path id="XMLID_1432_" class="st4" d="M68.31,63.77c-0.08,0.37-0.25,0.66-0.53,0.86c-0.27,0.2-0.62,0.3-1.05,0.3
			c-0.4,0-0.7-0.1-0.89-0.31c-0.13-0.15-0.2-0.33-0.2-0.56c0-0.09,0.01-0.19,0.03-0.3l0.46-2.2h0.69l-0.45,2.17
			c-0.01,0.06-0.02,0.12-0.02,0.17c0,0.11,0.03,0.2,0.08,0.27c0.08,0.11,0.21,0.16,0.4,0.16c0.21,0,0.39-0.05,0.52-0.16
			c0.14-0.1,0.22-0.25,0.26-0.44l0.45-2.17h0.69L68.31,63.77"/>
		<path id="XMLID_1429_" class="st4" d="M71.2,62.91h0.54l-0.42,1.96h-0.54L71.2,62.91 M71.37,62.19h0.54l-0.1,0.48h-0.54
			L71.37,62.19"/>
		<path id="XMLID_1426_" class="st4" d="M72.22,64.72C72.08,64.58,72,64.4,72,64.17c0-0.04,0-0.08,0.01-0.13
			c0.01-0.05,0.01-0.1,0.02-0.14c0.06-0.32,0.2-0.57,0.41-0.76c0.21-0.19,0.46-0.28,0.76-0.28c0.24,0,0.43,0.07,0.58,0.2
			c0.14,0.14,0.21,0.32,0.21,0.55c0,0.04,0,0.09-0.01,0.14c-0.01,0.05-0.01,0.1-0.02,0.15c-0.06,0.31-0.2,0.56-0.41,0.75
			c-0.21,0.18-0.46,0.28-0.76,0.28C72.55,64.92,72.36,64.85,72.22,64.72 M73.24,64.33c0.1-0.1,0.16-0.26,0.2-0.47
			c0.01-0.03,0.01-0.07,0.02-0.1c0-0.03,0-0.06,0-0.09c0-0.12-0.03-0.22-0.09-0.28c-0.06-0.07-0.15-0.1-0.26-0.1
			c-0.15,0-0.27,0.05-0.37,0.16c-0.1,0.11-0.16,0.26-0.21,0.48c-0.01,0.03-0.01,0.07-0.02,0.1c0,0.03,0,0.06,0,0.09
			c0,0.12,0.03,0.21,0.09,0.28c0.06,0.07,0.15,0.1,0.26,0.1C73.03,64.49,73.15,64.43,73.24,64.33"/>
		<polyline id="XMLID_1425_" class="st5" points="78.5,57.98 76.33,57.97 78.48,57.98 78.5,57.98 		"/>
		<path id="XMLID_1424_" class="st6" d="M76.33,57.97l-3.85,0c-0.01,0-0.02,0-0.03,0L76.33,57.97"/>
		<path id="XMLID_1417_" class="st4" d="M77.49,66.25l0.13-0.46h0.66l-0.03,0.17c0,0,0.34-0.17,0.58-0.17c0.24,0,0.81,0,0.81,0
			l-0.13,0.46h-0.13l-0.61,2.16h0.13l-0.12,0.43h-0.13l-0.05,0.19h-0.64l0.05-0.19h-1.26l0.12-0.43H77l0.61-2.16H77.49 M78.2,66.25
			l-0.17,0.58c0,0,0.29-0.11,0.53-0.14c0.05-0.2,0.13-0.44,0.13-0.44H78.2z M77.95,67.11l-0.17,0.61c0,0,0.32-0.16,0.54-0.17
			c0.06-0.24,0.13-0.44,0.13-0.44H77.95z M78.08,68.41l0.13-0.44h-0.49l-0.13,0.44H78.08z M79.67,65.77h0.62l0.03,0.23
			c0,0.06,0.03,0.09,0.1,0.09h0.11l-0.11,0.39h-0.45c-0.17,0.01-0.26-0.06-0.27-0.2L79.67,65.77z M79.49,66.59h2l-0.12,0.42h-0.64
			l-0.11,0.39h0.64l-0.12,0.41h-0.71l-0.16,0.24h0.35l0.08,0.49c0.01,0.05,0.05,0.07,0.13,0.07h0.11l-0.11,0.4h-0.38
			c-0.2,0.01-0.3-0.06-0.31-0.2l-0.09-0.44l-0.32,0.47c-0.07,0.13-0.19,0.2-0.34,0.19H78.8l0.11-0.4h0.18c0.07,0,0.14-0.03,0.19-0.1
			l0.49-0.72h-0.64l0.12-0.41h0.69l0.11-0.39h-0.69L79.49,66.59"/>
		<path id="XMLID_1416_" class="st4" d="M68.94,62.91h0.49l-0.06,0.28l0.07-0.08c0.16-0.17,0.35-0.25,0.58-0.25
			c0.2,0,0.35,0.06,0.45,0.18c0.09,0.12,0.12,0.29,0.07,0.5l-0.27,1.34h-0.5l0.24-1.21c0.02-0.13,0.02-0.22-0.02-0.28
			c-0.04-0.06-0.11-0.09-0.22-0.09c-0.13,0-0.24,0.04-0.33,0.12c-0.09,0.08-0.15,0.19-0.18,0.33l-0.22,1.13h-0.5L68.94,62.91"/>
		<path id="XMLID_1415_" class="st4" d="M74.52,62.91h0.49l-0.06,0.28l0.07-0.08c0.16-0.17,0.35-0.25,0.58-0.25
			c0.2,0,0.35,0.06,0.44,0.18c0.09,0.12,0.12,0.29,0.07,0.5l-0.27,1.34h-0.5l0.24-1.21c0.02-0.13,0.02-0.22-0.02-0.28
			c-0.04-0.06-0.11-0.09-0.22-0.09c-0.13,0-0.24,0.04-0.33,0.12c-0.09,0.08-0.15,0.19-0.17,0.33l-0.22,1.13h-0.5L74.52,62.91"/>
		<path id="XMLID_1412_" class="st4" d="M76.93,61.69h1.41c0.27,0,0.48,0.06,0.63,0.18c0.14,0.12,0.22,0.3,0.22,0.53v0.01
			c0,0.04,0,0.09-0.01,0.15c-0.01,0.05-0.02,0.11-0.03,0.16c-0.06,0.3-0.21,0.55-0.43,0.73c-0.22,0.18-0.49,0.28-0.8,0.28h-0.76
			l-0.23,1.15h-0.66L76.93,61.69 M77.28,63.17h0.63c0.16,0,0.29-0.04,0.39-0.11c0.09-0.08,0.16-0.19,0.19-0.35
			c0.01-0.03,0.01-0.06,0.01-0.08c0-0.02,0-0.05,0-0.07c0-0.11-0.04-0.19-0.12-0.25c-0.08-0.05-0.21-0.08-0.38-0.08h-0.53
			L77.28,63.17"/>
		<path id="XMLID_1411_" class="st4" d="M82.12,65.25c-0.21,0.44-0.41,0.7-0.52,0.82c-0.12,0.12-0.35,0.39-0.9,0.37l0.05-0.34
			c0.47-0.14,0.72-0.79,0.86-1.08l-0.17-2.11l0.36,0h0.3l0.03,1.33l0.57-1.33h0.57L82.12,65.25"/>
		<path id="XMLID_1408_" class="st4" d="M80.52,63.07l-0.23,0.16c-0.24-0.19-0.46-0.3-0.88-0.11c-0.57,0.27-1.05,2.3,0.53,1.63
			l0.09,0.11l0.62,0.02l0.41-1.85L80.52,63.07 M80.16,64.08c-0.1,0.29-0.32,0.49-0.5,0.43c-0.17-0.05-0.24-0.34-0.14-0.63
			c0.1-0.29,0.32-0.49,0.5-0.43C80.2,63.5,80.26,63.78,80.16,64.08"/>
	</g>
</g>
</svg>
