<svg xmlns="http://www.w3.org/2000/svg" viewBox="0 0 80 51.11"><defs><style>.cls-1{fill:#057a8b;}.cls-2{fill:#194680;}.cls-3{fill:#dd1f2b;}.cls-4{fill:#fff;}.cls-5{fill:#e03042;}.cls-6{fill:#2f507e;}</style></defs><title>UnionPay</title><g id="Layer_2" data-name="Layer 2"><g id="UnionPay"><g id="_Group_" data-name="&lt;Group&gt;"><path id="_Path_" data-name="&lt;Path&gt;" class="cls-1" d="M76.05,0H56.3c-2.7.09-6.07,2.26-6.69,4.93L40.3,46.17A3.81,3.81,0,0,0,44,51.11H64.73a6.58,6.58,0,0,0,5.82-4.93L79.87,5A3.82,3.82,0,0,0,76.05,0"/><path id="_Path_2" data-name="&lt;Path&gt;" class="cls-2" d="M40.3,46.17,49.61,4.94C50.23,2.27,53.6.1,56.3,0H34.36c-2.72.06-6.13,2.25-6.75,4.94L18.3,46.17A3.81,3.81,0,0,0,22,51.11H44a3.81,3.81,0,0,1-3.74-4.94"/><path id="_Path_3" data-name="&lt;Path&gt;" class="cls-3" d="M18.3,46.17,27.61,4.94c.62-2.69,4-4.88,6.75-4.94H16.28c-2.73,0-6.23,2.21-6.85,4.94L.11,46.17a4.72,4.72,0,0,0-.11.74v.76a3.74,3.74,0,0,0,3.85,3.44H22a3.81,3.81,0,0,1-3.74-4.94"/><path id="_Compound_Path_" data-name="&lt;Compound Path&gt;" class="cls-4" d="M34.74,30h.34a.63.63,0,0,0,.63-.31l.88-1.33H39l-.5.87h2.85L41,30.61h-3.4a1.59,1.59,0,0,1-1.45.84H34.35L34.74,30M34.35,32H40.6l-.4,1.45H37.69l-.39,1.41h2.45l-.4,1.45H36.91l-.57,2.08c-.14.35,0,.5.55.47h2l-.37,1.35H34.68c-.72,0-1-.41-.74-1.24l.72-2.66H33.1l.4-1.45h1.56l.39-1.41H34Zm10-3.58-.1.85a4.6,4.6,0,0,1,2.25-.88h4l-1.51,5.48q-.2.93-1.62.93H42.83l-1.06,3.85c-.06.21,0,.32.26.32h.88l-.33,1.19H40.34q-1.29,0-1.08-.78l3-11Zm3.35,1.55H44.15l-.42,1.48A2.85,2.85,0,0,1,45.3,31c1,0,2.1,0,2.1,0ZM46.4,33.37c.26,0,.41-.07.43-.31l.21-.78H43.5l-.29,1.09ZM44,35.14h2L46,36h.54c.27,0,.41-.09.41-.26l.16-.57h1.7L48.6,36a1.45,1.45,0,0,1-1.52,1.09H46v1.51c0,.24.2.37.65.37h1l-.32,1.19H44.88q-1,.06-1-1l.16-4"/><path id="_Path_4" data-name="&lt;Path&gt;" class="cls-4" d="M19.29,21.09a4.94,4.94,0,0,1-1.91,3.13,6.23,6.23,0,0,1-3.81,1.09,4.21,4.21,0,0,1-3.23-1.11,3,3,0,0,1-.71-2,5.42,5.42,0,0,1,.12-1.09l1.66-8h2.51L12.28,21a2.64,2.64,0,0,0-.07.6,1.59,1.59,0,0,0,.3,1,1.73,1.73,0,0,0,1.45.57,3,3,0,0,0,1.9-.56,2.63,2.63,0,0,0,1-1.61l1.64-7.91H21l-1.66,8"/><path id="_Compound_Path_2" data-name="&lt;Compound Path&gt;" class="cls-4" d="M29.82,17.94h2l-1.54,7.14h-2l1.54-7.14m.61-2.6h2L32,17.07h-2l.37-1.73"/><path id="_Compound_Path_3" data-name="&lt;Compound Path&gt;" class="cls-4" d="M33.51,24.53a2.63,2.63,0,0,1-.77-2,4.4,4.4,0,0,1,0-.48c0-.18,0-.36.07-.52a4.86,4.86,0,0,1,1.5-2.76,4,4,0,0,1,2.75-1,2.92,2.92,0,0,1,2.1.74,2.7,2.7,0,0,1,.77,2c0,.14,0,.31,0,.49s0,.36-.09.54a4.7,4.7,0,0,1-1.48,2.72,4,4,0,0,1-2.75,1,2.92,2.92,0,0,1-2.1-.73m3.74-1.41a3.4,3.4,0,0,0,.75-1.7c0-.12,0-.24,0-.36a2.06,2.06,0,0,0,0-.34,1.41,1.41,0,0,0-.34-1,1.2,1.2,0,0,0-.95-.37,1.71,1.71,0,0,0-1.33.57,3.66,3.66,0,0,0-.76,1.73c0,.12,0,.24,0,.36a1.85,1.85,0,0,0,0,.33,1.45,1.45,0,0,0,.33,1,1.25,1.25,0,0,0,1,.36,1.7,1.7,0,0,0,1.33-.57"/><polyline id="_Path_5" data-name="&lt;Path&gt;" class="cls-5" points="56.35 0.01 48.47 0.01 56.3 0.01 56.35 0.01"/><path id="_Path_6" data-name="&lt;Path&gt;" class="cls-6" d="M48.47,0h0"/><path id="_Compound_Path_4" data-name="&lt;Compound Path&gt;" class="cls-4" d="M52.69,30.1l.47-1.66h2.39l-.1.61a6,6,0,0,1,2.1-.61h3L60,30.1h-.47L57.34,38h.47l-.45,1.56H56.9l-.19.67H54.39l.19-.67H50L50.46,38h.45l2.24-7.86h-.46m2.58,0-.61,2.13a9.75,9.75,0,0,1,1.94-.51c.2-.75.45-1.62.45-1.62Zm-.89,3.13-.62,2.22a6.53,6.53,0,0,1,2-.61c.23-.87.46-1.61.46-1.61ZM54.82,38l.46-1.62H53.5L53,38Zm5.79-9.62h2.25l.09.83c0,.21.11.31.38.31h.4l-.4,1.4H61.67c-.63,0-1-.21-1-.73Zm-.66,3h7.28l-.42,1.51H64.49l-.4,1.4h2.32L66,35.77H63.4l-.59.88h1.27l.29,1.77c0,.18.19.26.45.26h.4l-.42,1.46H63.42c-.72,0-1.1-.21-1.13-.73L62,37.8l-1.15,1.72a1.24,1.24,0,0,1-1.25.67H57.44l.41-1.45h.66a.87.87,0,0,0,.7-.37l1.8-2.6H58.69l.43-1.51h2.52l.4-1.4H59.52L60,31.35"/><path id="_Path_7" data-name="&lt;Path&gt;" class="cls-4" d="M21.6,17.94h1.77l-.2,1,.25-.3a2.77,2.77,0,0,1,2.1-.91,1.88,1.88,0,0,1,1.61.65,2.12,2.12,0,0,1,.27,1.81l-1,4.86H24.61l.88-4.41a1.4,1.4,0,0,0-.08-1,.85.85,0,0,0-.78-.33,1.69,1.69,0,0,0-1.18.44A2.06,2.06,0,0,0,22.81,21L22,25.08H20.17l1.43-7.14"/><path id="_Path_8" data-name="&lt;Path&gt;" class="cls-4" d="M41.89,17.94h1.78l-.21,1,.26-.3a2.75,2.75,0,0,1,2.09-.91,1.91,1.91,0,0,1,1.62.65,2.16,2.16,0,0,1,.26,1.81l-1,4.86H44.9l.88-4.41a1.46,1.46,0,0,0-.07-1,.88.88,0,0,0-.79-.33,1.71,1.71,0,0,0-1.18.44A2.12,2.12,0,0,0,43.1,21l-.81,4.1H40.47l1.42-7.14"/><path id="_Compound_Path_5" data-name="&lt;Compound Path&gt;" class="cls-4" d="M50.65,13.51h5.14a3.48,3.48,0,0,1,2.28.66,2.4,2.4,0,0,1,.78,1.92v0c0,.15,0,.33,0,.53s-.06.38-.1.58a4.51,4.51,0,0,1-1.57,2.66,4.41,4.41,0,0,1-2.89,1H51.51l-.85,4.18H48.27l2.38-11.57m1.28,5.38h2.29a2.16,2.16,0,0,0,1.41-.42,2.13,2.13,0,0,0,.7-1.27c0-.11,0-.2.05-.29s0-.17,0-.25a1,1,0,0,0-.43-.89,2.63,2.63,0,0,0-1.39-.28H52.63l-.7,3.4"/><path id="_Path_9" data-name="&lt;Path&gt;" class="cls-4" d="M69.54,26.46a11.49,11.49,0,0,1-1.9,3,3.83,3.83,0,0,1-3.28,1.35l.18-1.22c1.7-.53,2.61-2.88,3.14-3.93L67.05,18l1.32,0h1.1l.12,4.82,2.06-4.82h2.09l-4.2,8.52"/><path id="_Compound_Path_6" data-name="&lt;Compound Path&gt;" class="cls-4" d="M63.69,18.52l-.83.57a2.61,2.61,0,0,0-3.19-.39c-2.08,1-3.82,8.38,1.91,5.94l.33.38,2.26.06,1.48-6.73-2,.17M62.41,22.2c-.36,1.07-1.17,1.78-1.81,1.58s-.86-1.23-.49-2.3,1.18-1.78,1.81-1.58.86,1.23.49,2.3"/></g></g></g></svg>