<svg id="Layer_1" data-name="Layer 1" xmlns="http://www.w3.org/2000/svg" viewBox="0 0 80 16.48"><defs><style>.cls-1{fill:none;}.cls-2{fill:#5e9e44;}.cls-3{fill:#b5b5b9;}.cls-4{fill:#fff;}</style></defs><title>Van-Lanschot-Bankiers</title><rect class="cls-1" width="80" height="16.48"/><path class="cls-2" d="M55.51,58.24a.23.23,0,0,0,.19-.08s.13-.18.17-.23a4.16,4.16,0,0,1,3.2-1.25c2.51-.08,2.67-1.78,2.67-2.45,0,0,0-12.47,0-12.47H49.28V54.22c0,.67.16,2.37,2.67,2.45a4.18,4.18,0,0,1,3.2,1.25l.17.23a.22.22,0,0,0,.19.09Z" transform="translate(-10 -41.76)"/><path class="cls-3" d="M10,53.74a2.74,2.74,0,0,0,2.75,2.74H49.2a3.29,3.29,0,0,1-.81-2.28h0V42.4H10ZM90,42.41H62.63V54.23a3.19,3.19,0,0,1-.81,2.26H87.25A2.75,2.75,0,0,0,90,53.74Z" transform="translate(-10 -41.76)"/><polygon class="cls-4" points="4.63 5.91 4.63 6.19 4.35 6.21 4.3 6.28 5 8.3 5.7 6.28 5.65 6.21 5.36 6.19 5.36 5.91 6.5 5.91 6.5 6.19 6.17 6.26 5.13 9.18 4.51 9.18 3.45 6.25 3.12 6.19 3.12 5.91 4.63 5.91"/><path class="cls-4" d="M17,51a.64.64,0,0,1-.67-.67.7.7,0,0,1,.43-.66,8.5,8.5,0,0,1,1.08-.3v-.14c0-.32-.17-.48-.5-.48h-.07v.51h-.55c-.19,0-.28,0-.28-.2s.44-.6,1.19-.6a1,1,0,0,1,.86.33,1,1,0,0,1,.13.65V50.6l.05.06.25,0v.25h-1l-.06-.27A1.56,1.56,0,0,1,17,51m.85-1.3c-.47.06-.69.19-.69.48a.33.33,0,0,0,.35.34.9.9,0,0,0,.34-.09Z" transform="translate(-10 -41.76)"/><path class="cls-4" d="M19.35,50.68l.24,0,.05-.06V49h-.32v-.24l.83-.28h.27v.31a2.08,2.08,0,0,1,.87-.31c.48,0,.67.29.67.88V50.6l.05.06.25,0v.26H21v-.26l.18,0,.06-.06v-1c0-.4-.11-.57-.49-.57l-.29,0v1.58l.06.06.19,0v.26H19.36v-.25Z" transform="translate(-10 -41.76)"/><polygon class="cls-4" points="13.8 8.89 14.07 8.87 14.16 8.78 14.16 6.28 14.1 6.21 13.8 6.19 13.8 5.91 15.37 5.91 15.37 6.19 15.06 6.21 14.98 6.28 14.98 8.84 15.77 8.84 15.82 8.76 15.89 8.15 16.35 8.15 16.35 9.18 13.8 9.18 13.8 8.89"/><path class="cls-4" d="M27.39,51a.65.65,0,0,1-.68-.67.7.7,0,0,1,.43-.66,8.5,8.5,0,0,1,1.08-.3v-.14c0-.32-.17-.48-.5-.48h-.07v.51H27.1c-.19,0-.28,0-.28-.2s.44-.6,1.19-.6a1,1,0,0,1,.86.33,1,1,0,0,1,.13.65V50.6l.05.06.25,0v.25h-1l-.06-.27a1.56,1.56,0,0,1-.83.33m.84-1.3c-.47.06-.69.19-.69.48a.33.33,0,0,0,.35.34.9.9,0,0,0,.34-.09Z" transform="translate(-10 -41.76)"/><path class="cls-4" d="M29.7,50.68l.24,0,0-.06V49h-.32v-.24l.83-.28h.27v.31a2.08,2.08,0,0,1,.87-.31c.48,0,.67.29.67.88V50.6l0,.06.25,0v.26H31.32v-.26l.18,0,.05-.06v-1c0-.4-.11-.57-.49-.57l-.29,0v1.58l.06.06.19,0v.26H29.7Z" transform="translate(-10 -41.76)"/><path class="cls-4" d="M35,49.33h-.33L34.58,49l-.06-.07a.75.75,0,0,0-.34-.09c-.23,0-.35.1-.35.27s.26.28.62.44.63.35.63.7-.43.8-1.07.8a3.78,3.78,0,0,1-1-.14v-.81h.34l.05.44,0,.06a1.09,1.09,0,0,0,.47.12c.23,0,.36-.11.36-.28s-.17-.25-.43-.38c-.52-.24-.81-.4-.81-.79s.39-.76,1-.76a3.53,3.53,0,0,1,.88.13Z" transform="translate(-10 -41.76)"/><path class="cls-4" d="M36.68,51a1.11,1.11,0,0,1-.94-.38,1.29,1.29,0,0,1-.3-.85,1.25,1.25,0,0,1,1.35-1.28c.55,0,.89.27.89.62a.4.4,0,0,1-.43.4.65.65,0,0,1-.37-.12v-.64c-.37,0-.6.37-.6.93s.29.86.69.86a1.59,1.59,0,0,0,.72-.25v.43a2.23,2.23,0,0,1-1,.28" transform="translate(-10 -41.76)"/><path class="cls-4" d="M39.08,47.32v1.46a2.08,2.08,0,0,1,.87-.31c.48,0,.67.29.67.88v1.24l.05.07.25,0v.26h-1.3v-.26l.18,0,.05-.07v-1c0-.4-.1-.56-.49-.56a1.42,1.42,0,0,0-.3,0v1.58l.07.07.19,0v.26H38v-.26l.24,0,.06-.07V47.84H38V47.6l.83-.28Z" transform="translate(-10 -41.76)"/><path class="cls-4" d="M43.85,49.72a1.34,1.34,0,1,1-1.31-1.25,1.18,1.18,0,0,1,1.31,1.25m-1.8,0c0,.64.14,1,.47,1s.46-.31.46-.92-.13-1-.46-1-.47.31-.47.94" transform="translate(-10 -41.76)"/><path class="cls-4" d="M44.14,49v-.22l.4-.26.29-.56h.41v.69h.7V49h-.7V50.1c0,.33.09.42.44.42l.26,0v.28a2.41,2.41,0,0,1-.85.2.64.64,0,0,1-.54-.23,1,1,0,0,1-.08-.52V49Z" transform="translate(-10 -41.76)"/><polygon class="cls-4" points="45.93 5.43 45.93 5.78 46.31 5.78 46.31 5.43 46.82 5.43 46.82 6.07 45.51 6.07 44.2 6.07 44.2 5.43 44.71 5.43 44.71 5.78 45.08 5.78 45.08 5.43 45.93 5.43"/><path class="cls-4" d="M55.42,47h0a.13.13,0,0,0-.07-.12,1.36,1.36,0,0,1-.6-.79.71.71,0,0,1,0-.54s.08-.09.08-.12-.08-.22-.1-.33a.51.51,0,0,1,.06-.36c.08-.09.15-.08.12-.17a1,1,0,0,1-.06-.33c0-.1,0-.27.14-.31s.11,0,.12-.07,0-.27,0-.38.07-.38.32-.41h.08c.25,0,.3.32.32.41s0,.36,0,.38,0,0,.12.07.14.2.14.31a.77.77,0,0,1-.07.33c0,.09,0,.08.12.17a.51.51,0,0,1,.06.36c0,.11-.1.28-.11.33s0,.08.08.12a.72.72,0,0,1,.05.54,1.4,1.4,0,0,1-.6.79.13.13,0,0,0-.07.12h-.22Z" transform="translate(-10 -41.76)"/><polygon class="cls-4" points="45.51 6.49 46.58 6.49 46.72 6.25 45.51 6.25 44.3 6.25 44.45 6.49 45.51 6.49"/><path class="cls-4" d="M55.51,51.21H57l.28,1.9H56.13L56,52.29s-.06-.24-.44-.24-.44.24-.44.24l-.17.82H53.76l.28-1.9h1.47" transform="translate(-10 -41.76)"/><polygon class="cls-4" points="46.91 9.26 46.78 9.02 45.92 9.02 45.51 9.02 44.24 9.02 44.11 9.26 46.91 9.26"/><path class="cls-4" d="M53,46.33h0c.27,0,.33.34.34.45s0,.38,0,.4,0,0,.13.07.15.22.15.33a1,1,0,0,1-.07.35c0,.1.05.09.13.19a.49.49,0,0,1,.06.39c0,.12-.11.3-.11.36s0,.09.08.13a.8.8,0,0,1,0,.59,1.5,1.5,0,0,1-.63.85c-.07,0-.06.13-.06.16v1.85h-.25V50.6s0-.12-.06-.16a1.46,1.46,0,0,1-.63-.85.8.8,0,0,1,0-.59s.08-.1.08-.13-.09-.24-.11-.36a.49.49,0,0,1,.06-.39c.08-.1.16-.09.13-.19a1,1,0,0,1-.07-.35c0-.11,0-.29.15-.33s.12,0,.13-.07,0-.28,0-.4.07-.42.34-.45Z" transform="translate(-10 -41.76)"/><path class="cls-4" d="M58,46.33h0c-.27,0-.32.34-.34.45s0,.38,0,.4,0,0-.13.07-.15.22-.15.33a1,1,0,0,0,.07.35c0,.1,0,.09-.13.19a.49.49,0,0,0-.06.39c0,.12.11.3.11.36s0,.09-.08.13a.75.75,0,0,0-.05.59,1.5,1.5,0,0,0,.63.85.19.19,0,0,1,.06.16v1.85h.26V50.6s0-.12.06-.16a1.46,1.46,0,0,0,.63-.85.8.8,0,0,0,0-.59s-.08-.1-.08-.13.09-.24.11-.36a.49.49,0,0,0-.06-.39c-.08-.1-.16-.09-.13-.19a1,1,0,0,0,.07-.35c0-.11,0-.29-.15-.33s-.12,0-.13-.07,0-.28,0-.4-.07-.42-.34-.45Z" transform="translate(-10 -41.76)"/><path class="cls-4" d="M56.49,48.42h-2l-.2,2.18h2.37Zm-1.4,1.35h-.36V49.1h.36Zm1.2,0h-.36V49.1h.36Z" transform="translate(-10 -41.76)"/><polygon class="cls-4" points="45.93 5.43 45.93 5.78 46.31 5.78 46.31 5.43 46.82 5.43 46.82 6.07 45.51 6.07 44.2 6.07 44.2 5.43 44.71 5.43 44.71 5.78 45.08 5.78 45.08 5.43 45.93 5.43"/><path class="cls-4" d="M55.42,47h0a.13.13,0,0,0-.07-.12,1.36,1.36,0,0,1-.6-.79.71.71,0,0,1,0-.54s.08-.09.08-.12-.08-.22-.1-.33a.51.51,0,0,1,.06-.36c.08-.09.15-.08.12-.17a1,1,0,0,1-.06-.33c0-.1,0-.27.14-.31s.11,0,.12-.07,0-.27,0-.38.07-.38.32-.41h.08c.25,0,.3.32.32.41s0,.36,0,.38,0,0,.12.07.14.2.14.31a.77.77,0,0,1-.07.33c0,.09,0,.08.12.17a.51.51,0,0,1,.06.36c0,.11-.1.28-.11.33s0,.08.08.12a.72.72,0,0,1,.05.54,1.4,1.4,0,0,1-.6.79.13.13,0,0,0-.07.12h-.22Z" transform="translate(-10 -41.76)"/><polygon class="cls-4" points="45.51 6.49 46.58 6.49 46.72 6.25 45.51 6.25 44.3 6.25 44.45 6.49 45.51 6.49"/><path class="cls-4" d="M55.51,51.21H57l.28,1.9H56.13L56,52.29s-.06-.24-.44-.24-.44.24-.44.24l-.17.82H53.76l.28-1.9h1.47" transform="translate(-10 -41.76)"/><polygon class="cls-4" points="46.91 9.26 46.78 9.02 45.92 9.02 45.51 9.02 44.24 9.02 44.11 9.26 46.91 9.26"/><path class="cls-4" d="M53,46.33h0c.27,0,.33.34.34.45s0,.38,0,.4,0,0,.13.07.15.22.15.33a1,1,0,0,1-.07.35c0,.1.05.09.13.19a.49.49,0,0,1,.06.39c0,.12-.11.3-.11.36s0,.09.08.13a.8.8,0,0,1,0,.59,1.5,1.5,0,0,1-.63.85c-.07,0-.06.13-.06.16v1.85h-.25V50.6s0-.12-.06-.16a1.46,1.46,0,0,1-.63-.85.8.8,0,0,1,0-.59s.08-.1.08-.13-.09-.24-.11-.36a.49.49,0,0,1,.06-.39c.08-.1.16-.09.13-.19a1,1,0,0,1-.07-.35c0-.11,0-.29.15-.33s.12,0,.13-.07,0-.28,0-.4.07-.42.34-.45Z" transform="translate(-10 -41.76)"/><path class="cls-4" d="M58,46.33h0c-.27,0-.32.34-.34.45s0,.38,0,.4,0,0-.13.07-.15.22-.15.33a1,1,0,0,0,.07.35c0,.1,0,.09-.13.19a.49.49,0,0,0-.06.39c0,.12.11.3.11.36s0,.09-.08.13a.75.75,0,0,0-.05.59,1.5,1.5,0,0,0,.63.85.19.19,0,0,1,.06.16v1.85h.26V50.6s0-.12.06-.16a1.46,1.46,0,0,0,.63-.85.8.8,0,0,0,0-.59s-.08-.1-.08-.13.09-.24.11-.36a.49.49,0,0,0-.06-.39c-.08-.1-.16-.09-.13-.19a1,1,0,0,0,.07-.35c0-.11,0-.29-.15-.33s-.12,0-.13-.07,0-.28,0-.4-.07-.42-.34-.45Z" transform="translate(-10 -41.76)"/><path class="cls-4" d="M56.49,48.42h-2l-.2,2.18h2.37Zm-1.4,1.35h-.36V49.1h.36Zm1.2,0h-.36V49.1h.36Z" transform="translate(-10 -41.76)"/><polygon class="cls-4" points="44.14 12.11 44.14 13.15 44.16 13.17 44.33 13.18 44.33 13.28 43.67 13.28 43.67 13.18 43.85 13.17 43.87 13.14 43.87 12.34 43.85 12.32 43.62 12.35 43.62 12.25 43.98 12.11 44.14 12.11"/><path class="cls-4" d="M56.34,54.72c0,.19-.18.34-.47.34s-.37-.1-.37-.23a.13.13,0,0,1,.14-.15.16.16,0,0,1,.09,0l.05.23h.09a.2.2,0,0,0,.19-.21.21.21,0,0,0-.21-.21h-.11v-.15h.06c.14,0,.23-.07.23-.19a.19.19,0,0,0-.21-.21h0v.24a.23.23,0,0,1-.11,0,.14.14,0,0,1-.15-.14c0-.14.15-.26.4-.26s.37.12.37.29-.1.24-.29.28c.22,0,.33.12.33.29" transform="translate(-10 -41.76)"/><polygon class="cls-4" points="46.67 13.31 47.17 12.38 46.75 12.38 46.72 12.54 46.59 12.54 46.59 12.12 47.4 12.12 47.4 12.28 46.87 13.31 46.67 13.31"/><polygon class="cls-4" points="44.6 13.31 45.1 12.38 44.68 12.38 44.66 12.54 44.52 12.54 44.52 12.12 45.33 12.12 45.33 12.28 44.8 13.31 44.6 13.31"/><path class="cls-4" d="M66.81,47.67c.69,0,1,.27,1,.74a.79.79,0,0,1-.69.78c.56,0,.86.31.86.79s-.41,1-1.17,1h-1.7v-.28l.29,0,.07-.09V48L65.44,48l-.29,0v-.28Zm-.41,1.42c.42,0,.61-.18.61-.58s-.18-.53-.57-.53h-.11v1.1Zm.08,1.53c.47,0,.68-.18.68-.61s-.23-.6-.7-.6h-.14v1.2h.16" transform="translate(-10 -41.76)"/><path class="cls-4" d="M69.09,51a.64.64,0,0,1-.67-.67.69.69,0,0,1,.43-.66,8.5,8.5,0,0,1,1.08-.3v-.14c0-.32-.17-.48-.5-.48h-.07v.51H68.8c-.2,0-.28,0-.28-.2s.44-.6,1.19-.6a1,1,0,0,1,.86.33,1,1,0,0,1,.13.65V50.6l0,.06.25,0v.25H70l-.06-.27a1.56,1.56,0,0,1-.83.33m.84-1.31c-.47.06-.69.19-.69.48a.33.33,0,0,0,.35.34.9.9,0,0,0,.34-.09Z" transform="translate(-10 -41.76)"/><path class="cls-4" d="M71.4,50.68l.24,0,0-.06V49h-.32v-.24l.83-.28h.27v.31a2.08,2.08,0,0,1,.87-.31c.48,0,.67.29.67.88V50.6l0,.06.25,0v.26H73v-.26l.18,0,0-.06v-1c0-.4-.1-.57-.49-.57l-.29,0v1.58l.06.06.19,0v.26H71.4Z" transform="translate(-10 -41.76)"/><polygon class="cls-4" points="64.66 8.93 64.89 8.9 64.95 8.83 64.95 6.08 64.62 6.08 64.62 5.84 65.5 5.56 65.72 5.56 65.72 7.9 65.85 7.9 66.5 7.11 66.47 7.06 66.25 7.04 66.25 6.79 67.3 6.79 67.3 7.04 66.97 7.07 66.53 7.6 67.22 8.9 67.49 8.93 67.49 9.18 66.4 9.18 66.4 8.96 65.93 8.08 65.72 8.08 65.72 8.85 65.76 8.9 66.01 8.93 66.01 9.18 64.66 9.18 64.66 8.93"/><path class="cls-4" d="M78.91,48.47v2.12l.06.06.28,0v.26H77.81v-.26l.27,0,0-.06V49h-.3v-.24l.8-.28Zm0-.69a.44.44,0,0,1-.43.45.42.42,0,0,1-.42-.45.42.42,0,0,1,.41-.45.43.43,0,0,1,.44.45" transform="translate(-10 -41.76)"/><path class="cls-4" d="M81.9,50.7a2.34,2.34,0,0,1-1.13.28,1.17,1.17,0,0,1-1.26-1.23,1.2,1.2,0,0,1,1.27-1.29,1.07,1.07,0,0,1,1.12,1.22v.06H80.32c0,.49.26.77.66.77a1.7,1.7,0,0,0,.91-.26v.45Zm-.81-1.3c0-.43-.11-.63-.35-.63s-.41.21-.41.64v0h.76Z" transform="translate(-10 -41.76)"/><path class="cls-4" d="M82.32,50.68l.25,0,.05-.06V49h-.35v-.24l.85-.27h.26l0,.55a2.47,2.47,0,0,1,.62-.53h.13a.49.49,0,0,1,.3.09l-.13.94h-.33a.44.44,0,0,0-.45-.33h-.11v1.4l.06.06.35,0V51H82.3v-.27Z" transform="translate(-10 -41.76)"/><path class="cls-4" d="M86.62,49.33h-.33L86.23,49l-.06-.07a.75.75,0,0,0-.34-.09c-.23,0-.35.1-.35.27s.26.28.62.44.63.35.63.7-.44.8-1.07.8a3.78,3.78,0,0,1-1-.14v-.81H85l0,.44.05.06a1.09,1.09,0,0,0,.47.12c.23,0,.37-.11.37-.28s-.17-.25-.43-.38c-.52-.24-.81-.4-.81-.79s.39-.76,1-.76a3.46,3.46,0,0,1,.88.13v.74Z" transform="translate(-10 -41.76)"/></svg>