<svg id="Layer_1" data-name="Layer 1" xmlns="http://www.w3.org/2000/svg" viewBox="0 0 700.74 352.18"><defs><style>.cls-1{fill:#1b4da2;}.cls-2{fill:#fff;}.cls-3{fill:#f4a929;}</style></defs><title>visa-deb-mexico</title><path d="M792.87,647.9c1.34-8.8,2.64-17.6,4-26.39q3.17-20.4,6.41-40.79c1.06-6.64,2.2-13.26,3.35-20.18h-30c.87-3.85,1.6-7.41,2.54-10.92.12-.45,1.27-.89,2-.9,10.7-.17,21.41-.33,32.12-.36,11.48,0,23,.06,34.43.11.63,0,1.26,0,2,.09v11.85H819.89c-.81,4.38-1.69,8.69-2.38,13q-5.07,31.68-10.06,63.37c-.45,2.85-1.08,5.66-1.51,8.51a1.78,1.78,0,0,1-2,1.77c-3.44.2-6.88.54-10.32.82Z" transform="translate(-149.71 -295.72)"/><path class="cls-1" d="M850.45,518.86c-.71,0-1.34.09-2,.09-15.91,0-31.82,0-47.72.16-1.76,0-2.45-.53-2.8-2.22-2-9.64-4.12-19.26-6.08-28.91-.31-1.54-.91-2-2.39-1.94q-17.13.07-34.25,0c-11.48,0-23-.08-34.44-.22a2.69,2.69,0,0,0-3,2.15c-3.43,9.65-7,19.24-10.4,28.9-.6,1.71-1.45,2.17-3.18,2.17-18,0-36.05,0-54.07,0h-2.55c.4-1.07.67-1.83,1-2.58q40.35-96.66,80.7-193.31c2.18-5.24,4.52-10.33,8.28-14.65a22.18,22.18,0,0,1,17.35-8.08q23.94-.1,47.9-.39c1.5,0,2,.43,2.36,1.92q13,62,26,123.94,9.63,45.91,19.13,91.85A10.29,10.29,0,0,1,850.45,518.86ZM766.14,359.58C754.19,386.09,745.54,413.76,735,441h47.38C776.74,413.78,770,387,766.14,359.58Z" transform="translate(-149.71 -295.72)"/><path class="cls-1" d="M497.88,461.77c3.32,1.51,6.38,3,9.47,4.3a123.17,123.17,0,0,0,33.32,9.37c11.46,1.51,23,1.61,34.16-1.47,8.3-2.29,14.89-7.14,17.33-16.07,1.11-4.07-.1-7.71-2.26-11.13-3.17-5-7.77-8.52-12.85-11.33-8.18-4.52-16.55-8.71-24.71-13.27-10.52-5.88-20.28-12.78-27.87-22.35-8.55-10.79-12.44-23.1-11.19-36.76,1.57-17,9.18-31.22,21.67-42.7,11.48-10.56,25.37-16.7,40.29-20.65a130.69,130.69,0,0,1,39.83-3.81,168.09,168.09,0,0,1,42.38,7.74c1.14.36,1.66.82,1.47,2.15-1.41,9.75-2.7,19.52-4.13,29.27-.73,5-1.65,10-2.49,14.95-.11.63-.27,1.24-.42,1.93-4-1.58-7.87-3.25-11.83-4.64-11.33-4-23-6.29-35-5.7a88.47,88.47,0,0,0-18.55,2.72c-7.56,2.05-12.88,7.06-14.31,15.19-.69,3.89.9,7.15,3.61,9.89,5.51,5.58,12,9.75,18.85,13.49,9.37,5.16,19.07,9.78,28.06,15.52,11.42,7.29,20.78,16.8,25.38,30,5.42,15.47,4.13,30.79-2.1,45.74s-17,25.72-30.91,33.62a104.87,104.87,0,0,1-43.19,13.13,214.51,214.51,0,0,1-36.11.27,152.27,152.27,0,0,1-45.11-10.29c-.24-.09-.46-.2-.86-.38C492.45,494.34,495.14,478.21,497.88,461.77Z" transform="translate(-149.71 -295.72)"/><path class="cls-1" d="M410.08,300.07c-1.15,2.79-2.23,5.38-3.28,8q-32.52,79.72-65.05,159.45c-6.83,16.7-13.93,33.29-20.9,49.94-.43,1-.74,1.83-2.24,1.81q-27.32-.27-54.63-.33c-2,0-2.72-.54-3.22-2.43Q242,445.34,223,374.24q-5.83-22-11.72-43.93c-.11-.42-.19-.85-.28-1.27l.37-.4c3.49,2.25,7,4.41,10.44,6.75,21.39,14.62,39.41,32.52,52.94,54.73,6.59,10.82,12.06,22.21,15.08,34.55.46,1.86.87,3.74,1.26,5.62,1.21,5.88,2.14,11.83,3.27,17.73.06.31.14.61.35,1.55.48-1.09.78-1.65,1-2.25q20.58-55.71,41.17-111.43c4.21-11.4,8.47-22.79,12.65-34.2A2.23,2.23,0,0,1,352,299.9q28.1.06,56.18,0C408.72,299.93,409.27,300,410.08,300.07Z" transform="translate(-149.71 -295.72)"/><path class="cls-1" d="M433.11,299.84h56.42q-17.64,109.53-35.27,218.94h-56C409,445.65,421.73,372.9,433.11,299.84Z" transform="translate(-149.71 -295.72)"/><path d="M510.82,548.59c9.16,0,17.81-.15,26.45,0a56.15,56.15,0,0,1,19.31,3.78c11.74,4.61,18.58,13.4,21.06,25.49,4.47,21.88-1,40.91-17.41,56.33-8.2,7.72-18.37,11.67-29.52,12.4-8.88.58-17.8.34-26.71.44-2.87,0-5.75,0-8.88,0Q503,597.57,510.82,548.59Zm-1.14,87.69a6.28,6.28,0,0,0,1.11.15c6.72-.26,13.49-.13,20.15-.9,12.54-1.44,22-8.07,28.27-18.92,5.85-10.08,7.22-21.1,5.61-32.51a37.5,37.5,0,0,0-2.38-9.64c-2.53-5.81-7.3-9.44-13.2-11.59-8.5-3.1-17.37-2.82-26.21-2.7-.38,0-1,.71-1.09,1.18q-.88,4.23-1.57,8.49c-2.12,13.21-4.19,26.43-6.31,39.64C512.63,618.39,511.15,627.29,509.68,636.28Z" transform="translate(-149.71 -295.72)"/><path d="M706.65,596.14a21.54,21.54,0,0,1,12.64,15.78c3.09,14.48-4.31,27.44-18.29,32.45-7.11,2.55-14.5,3-22,3s-14.73,0-22.42,0c.32-2.14.6-4.13.91-6.1q4.77-30,9.55-59.92,2.52-15.84,5-31.68c.16-1,.53-1.39,1.6-1.37,7.75.14,15.52-.07,23.25.41a47.29,47.29,0,0,1,12.7,2.66c8.83,3.13,13.64,10.53,13.22,19.89-.49,10.7-5.58,18.67-15,23.89-.39.21-.78.44-1.16.67C706.68,595.86,706.69,596,706.65,596.14ZM671,637.33c8.08-.41,16.11.06,23.9-2.2a16.14,16.14,0,0,0,7.59-4.66c4.43-4.89,6.3-10.54,4.37-17s-6.4-10.3-13.23-11.14a43.21,43.21,0,0,0-4.39-.44c-4.13-.06-8.26,0-12.34,0C674.9,613.61,672.94,625.38,671,637.33Zm7.81-45.9c5.13-.56,9.83-.92,14.48-1.63a22.53,22.53,0,0,0,11.94-5.27c4.49-4,6-9.16,4.64-15-1.26-5.65-5.48-8.27-10.74-9-4.73-.63-9.56-.47-14.34-.73-1.64-.09-2.17.59-2.35,2.17-.65,5.85-1.45,11.68-2.18,17.51C679.75,583.27,679.3,587,678.76,591.43Z" transform="translate(-149.71 -295.72)"/><path d="M604.19,636.2h38.59l-2.4,10.13c-16.86,1.71-33.71.42-50.78.83.63-4.2,1.2-8.17,1.82-12.13,2.63-17,5.22-33.92,7.92-50.87,1.82-11.44,3.8-22.86,5.64-34.29.19-1.16.64-1.47,1.72-1.46q23.76.11,47.52.16a5.22,5.22,0,0,1,.9.16c-.83,3.59-1.6,7.15-2.55,10.65-.11.43-1.18.82-1.82.83-8.52.14-17,.22-25.58.3-2.63,0-5.26-.06-7.88,0a1.86,1.86,0,0,0-1.41,1c-1.47,9.35-2.86,18.72-4.29,28.3h28v12.58h-2c-8.59-.07-17.19-.11-25.78-.25-1.5,0-2.06.39-2.32,1.95-1.65,10.1-3.44,20.19-5.17,30.29C604.24,634.88,604.25,635.33,604.19,636.2Z" transform="translate(-149.71 -295.72)"/><path d="M748.82,549l13.33-.92c-5.28,33.27-10.52,66.23-15.74,99.15h-13C738.58,614.38,743.68,581.8,748.82,549Z" transform="translate(-149.71 -295.72)"/><path class="cls-2" d="M509.68,636.28c1.47-9,2.95-17.89,4.38-26.8,2.12-13.21,4.19-26.43,6.31-39.64q.69-4.26,1.57-8.49c.1-.47.71-1.17,1.09-1.18,8.84-.12,17.71-.4,26.21,2.7,5.9,2.15,10.67,5.78,13.2,11.59a37.5,37.5,0,0,1,2.38,9.64c1.61,11.41.24,22.43-5.61,32.51-6.29,10.85-15.73,17.48-28.27,18.92-6.66.77-13.43.64-20.15.9A6.28,6.28,0,0,1,509.68,636.28Z" transform="translate(-149.71 -295.72)"/><path class="cls-2" d="M671,637.33c2-12,3.95-23.72,5.9-35.45,4.08,0,8.21,0,12.34,0a43.21,43.21,0,0,1,4.39.44c6.83.84,11.29,4.63,13.23,11.14s.06,12.1-4.37,17a16.14,16.14,0,0,1-7.59,4.66C687.06,637.39,679,636.92,671,637.33Z" transform="translate(-149.71 -295.72)"/><path class="cls-2" d="M678.76,591.43c.54-4.43,1-8.16,1.45-11.9.73-5.83,1.53-11.66,2.18-17.51.18-1.58.71-2.26,2.35-2.17,4.78.26,9.61.1,14.34.73,5.26.71,9.48,3.33,10.74,9,1.31,5.81-.15,10.93-4.64,15a22.53,22.53,0,0,1-11.94,5.27C688.59,590.51,683.89,590.87,678.76,591.43Z" transform="translate(-149.71 -295.72)"/><path class="cls-3" d="M149.71,303.57s2.38-2.55,12.25-2.89,88.34,0,88.34,0,15.66-1.36,20.76,23.49,19.07,101.7,19.07,101.7S267.16,333.87,149.71,303.57Z" transform="translate(-149.71 -295.72)"/></svg>