<?xml version="1.0" encoding="utf-8"?>
<!-- Generator: Adobe Illustrator 24.1.1, SVG Export Plug-In . SVG Version: 6.00 Build 0)  -->
<svg version="1.1" id="Layer_1" xmlns="http://www.w3.org/2000/svg" xmlns:xlink="http://www.w3.org/1999/xlink" x="0px" y="0px"
	 viewBox="0 0 100 100" style="enable-background:new 0 0 100 100;" xml:space="preserve">
<style type="text/css">
	.st0{fill:#D7D7D7;}
	.st1{fill:#055EA8;}
	.st2{fill-rule:evenodd;clip-rule:evenodd;fill:#055EA8;}
	.st3{fill-rule:evenodd;clip-rule:evenodd;fill:#F3A41D;}
	.st4{fill-rule:evenodd;clip-rule:evenodd;fill:#DF1F26;}
	.st5{fill-rule:evenodd;clip-rule:evenodd;fill:#FFFFFF;}
	.st6{fill:url(#SVGID_1_);}
	.st7{fill:url(#SVGID_2_);}
	.st8{fill:url(#SVGID_3_);}
	.st9{fill:url(#SVGID_4_);}
</style>
<g>
	<path class="st0" d="M86.36,77.27H13.64c-2.01,0-3.64-1.63-3.64-3.64V26.36c0-2.01,1.63-3.64,3.64-3.64h72.73
		c2.01,0,3.64,1.63,3.64,3.64v47.27C90,75.64,88.37,77.27,86.36,77.27z"/>
	<g>
		<g>
			<path class="st1" d="M84.25,64.27c0.34,0,0.61,0.27,0.61,0.61v6.27c0,0.34-0.27,0.61-0.61,0.61H73.27
				c-0.34,0-0.61-0.27-0.61-0.61v-6.27c0-0.34,0.27-0.61,0.61-0.61H84.25 M84.25,64.14H73.27c-0.4,0-0.73,0.33-0.73,0.73v6.27
				c0,0.4,0.33,0.73,0.73,0.73h10.98c0.4,0,0.73-0.33,0.73-0.73v-6.27C84.99,64.47,84.66,64.14,84.25,64.14L84.25,64.14z
				 M84.25,64.14"/>
			<path class="st2" d="M84.89,70.49c0-0.44,0.03-0.73,0.07-0.92l0-4.53c0-0.46-0.41-0.88-0.87-0.88l-9.32-0.01
				c-0.15,0.07-0.63,0.09-1.06,0.05c-0.45-0.03-0.5,0.03-0.67,0.08l11.8,7.23c0.03-0.08,0.06-0.13,0.08-0.32
				C84.93,71.04,84.89,70.74,84.89,70.49L84.89,70.49z M84.89,70.49"/>
			<path class="st3" d="M72.88,67.97h6.13v3.76L72.88,67.97z M72.88,67.97"/>
			<path class="st4" d="M72.78,69.83h3.07v1.91L72.78,69.83z M72.78,69.83"/>
			<path class="st5" d="M77.88,66.4h0.61c0.46,0,0.72-0.26,0.72-0.72c0-0.46-0.26-0.72-0.72-0.72h-0.61V66.4z M78.24,65.26h0.2
				c0.26,0,0.41,0.1,0.41,0.41c0,0.26-0.15,0.36-0.41,0.36h-0.2V65.26z M78.24,65.26"/>
			<path class="st5" d="M79.52,66.4h1.18v-0.36h-0.82v-0.26h0.72v-0.31h-0.72v-0.21h0.77v-0.31h-1.12V66.4z M79.52,66.4"/>
			<path class="st5" d="M81,66.4h1.02v-0.36h-0.66v-1.08H81V66.4z M81,66.4"/>
			<path class="st5" d="M83.2,64.96h-1.23v0.31h0.41v1.13h0.41v-1.13h0.41V64.96z M83.2,64.96"/>
			<path class="st5" d="M83.86,65.37l0.15,0.46h-0.31L83.86,65.37z M83.15,66.4h0.36l0.1-0.26h0.51l0.1,0.26h0.36l-0.51-1.44h-0.41
				L83.15,66.4z M83.15,66.4"/>
		</g>
		<g>
			<linearGradient id="SVGID_1_" gradientUnits="userSpaceOnUse" x1="48.3994" y1="68.1476" x2="71.6404" y2="67.9947">
				<stop  offset="0" style="stop-color:#262860"/>
				<stop  offset="1" style="stop-color:#3D4498"/>
			</linearGradient>
			<path class="st6" d="M71.77,71.87c-0.62,0-1.24,0-1.86,0c-0.07-0.33-0.14-0.65-0.2-0.97c-0.02-0.13-0.07-0.19-0.22-0.18
				c-0.75,0.01-1.49,0.01-2.24,0c-0.11,0-0.16,0.04-0.19,0.14c-0.1,0.31-0.22,0.61-0.33,0.92c-0.02,0.04-0.07,0.1-0.1,0.1
				c-0.67,0.01-1.35,0-2.04,0c0.13-0.3,0.25-0.59,0.37-0.88c0.87-2.07,1.74-4.14,2.61-6.22c0.19-0.45,0.47-0.64,0.96-0.64
				c0.54,0,1.08,0,1.64,0c0.05,0.25,0.11,0.5,0.16,0.75c0.43,2.05,0.85,4.1,1.28,6.14c0.05,0.26,0.12,0.52,0.18,0.78
				C71.77,71.83,71.77,71.85,71.77,71.87z M69.33,69.12c-0.2-0.95-0.39-1.89-0.59-2.83c-0.01,0-0.02,0-0.02,0
				c-0.34,0.94-0.68,1.88-1.03,2.84C68.25,69.12,68.78,69.12,69.33,69.12z"/>
			<linearGradient id="SVGID_2_" gradientUnits="userSpaceOnUse" x1="48.3991" y1="68.0892" x2="71.64" y2="67.9363">
				<stop  offset="0" style="stop-color:#262860"/>
				<stop  offset="1" style="stop-color:#3D4498"/>
			</linearGradient>
			<path class="st7" d="M63.65,64c0.25,0.05,0.49,0.08,0.74,0.14c0.22,0.05,0.44,0.12,0.68,0.19c-0.12,0.56-0.24,1.1-0.35,1.63
				c-0.31-0.09-0.61-0.2-0.92-0.26c-0.42-0.09-0.85-0.13-1.27-0.01c-0.17,0.05-0.34,0.14-0.48,0.25c-0.23,0.2-0.23,0.48-0.01,0.69
				c0.15,0.14,0.33,0.26,0.51,0.37c0.41,0.25,0.84,0.46,1.23,0.72c0.47,0.31,0.81,0.73,0.88,1.31c0.13,1.01-0.25,1.81-1.1,2.38
				c-0.54,0.36-1.14,0.51-1.77,0.57c-0.88,0.08-1.75-0.02-2.59-0.29c-0.06-0.02-0.11-0.04-0.17-0.06c-0.02-0.01-0.03-0.02-0.06-0.03
				c0.12-0.56,0.24-1.12,0.36-1.69c0.14,0.06,0.28,0.13,0.42,0.18c0.66,0.27,1.34,0.39,2.04,0.25c0.18-0.03,0.37-0.12,0.53-0.22
				c0.34-0.23,0.37-0.65,0.06-0.92c-0.2-0.17-0.44-0.3-0.67-0.44c-0.36-0.22-0.74-0.41-1.08-0.65c-0.44-0.31-0.75-0.73-0.81-1.29
				c-0.09-0.83,0.22-1.51,0.86-2.03c0.56-0.46,1.22-0.66,1.92-0.75c0.04,0,0.08-0.02,0.12-0.03C63.03,64,63.34,64,63.65,64z"/>
			<linearGradient id="SVGID_3_" gradientUnits="userSpaceOnUse" x1="48.3986" y1="68.0192" x2="71.6395" y2="67.8663">
				<stop  offset="0" style="stop-color:#262860"/>
				<stop  offset="1" style="stop-color:#3D4498"/>
			</linearGradient>
			<path class="st8" d="M56.4,64.14c-0.1,0.25-0.2,0.49-0.3,0.73c-0.96,2.29-1.92,4.58-2.87,6.87c-0.05,0.11-0.1,0.14-0.21,0.14
				c-0.61-0.01-1.21-0.01-1.82,0c-0.13,0-0.17-0.04-0.2-0.16c-0.51-2-1.04-4-1.54-6c-0.09-0.37-0.28-0.62-0.63-0.77
				c-0.56-0.25-1.14-0.42-1.74-0.56c-0.03-0.01-0.05-0.01-0.08-0.02c0-0.23,0-0.23,0.22-0.23c1.06,0,2.12,0,3.18,0
				c0.5,0,0.87,0.29,0.96,0.79c0.27,1.41,0.53,2.82,0.8,4.23c0.01,0.06,0.02,0.12,0.04,0.21c0.03-0.05,0.05-0.08,0.06-0.11
				c0.66-1.66,1.32-3.33,1.97-4.99c0.04-0.09,0.08-0.12,0.18-0.12c0.61,0,1.23,0,1.84,0C56.31,64.14,56.35,64.14,56.4,64.14z"/>
			<linearGradient id="SVGID_4_" gradientUnits="userSpaceOnUse" x1="48.3989" y1="68.0719" x2="71.6399" y2="67.919">
				<stop  offset="0" style="stop-color:#262860"/>
				<stop  offset="1" style="stop-color:#3D4498"/>
			</linearGradient>
			<path class="st9" d="M55.6,71.88c0.55-2.59,1.1-5.16,1.65-7.73c0.67,0,1.33,0,2.01,0c-0.08,0.39-0.17,0.78-0.25,1.16
				c-0.45,2.13-0.91,4.25-1.36,6.38c-0.03,0.15-0.08,0.19-0.24,0.19c-0.55-0.01-1.1,0-1.65,0C55.72,71.88,55.67,71.88,55.6,71.88z"
				/>
		</g>
	</g>
</g>
</svg>
