<svg id="Layer_1" data-name="Layer 1" xmlns="http://www.w3.org/2000/svg" xmlns:xlink="http://www.w3.org/1999/xlink" viewBox="0 0 80.01 16.85"><defs><style>.cls-1,.cls-2{fill:#055ea8;}.cls-2,.cls-3,.cls-4,.cls-5{fill-rule:evenodd;}.cls-3{fill:#f3a41d;}.cls-4{fill:#df1f26;}.cls-5{fill:#fff;}.cls-6{fill:url(#linear-gradient);}.cls-7{fill:url(#linear-gradient-2);}.cls-8{fill:url(#linear-gradient-3);}.cls-9{fill:url(#linear-gradient-4);}</style><linearGradient id="linear-gradient" x1="12.92" y1="51.69" x2="61.88" y2="52.01" gradientTransform="matrix(1, 0, 0, -1, 0, 102)" gradientUnits="userSpaceOnUse"><stop offset="0" stop-color="#262860"/><stop offset="1" stop-color="#3d4498"/></linearGradient><linearGradient id="linear-gradient-2" x1="12.92" y1="51.82" x2="61.88" y2="52.14" xlink:href="#linear-gradient"/><linearGradient id="linear-gradient-3" x1="12.92" y1="51.96" x2="61.88" y2="52.28" xlink:href="#linear-gradient"/><linearGradient id="linear-gradient-4" x1="12.92" y1="51.84" x2="61.88" y2="52.16" xlink:href="#linear-gradient"/></defs><title>Visa_-Electron_-Delta</title><path class="cls-1" d="M88.46,42.13a1.29,1.29,0,0,1,1.29,1.29V56.63a1.29,1.29,0,0,1-1.29,1.29H65.31A1.29,1.29,0,0,1,64,56.63V43.42a1.29,1.29,0,0,1,1.29-1.29H88.46m0-.25H65.31a1.54,1.54,0,0,0-1.54,1.54V56.63a1.54,1.54,0,0,0,1.54,1.54H88.45A1.54,1.54,0,0,0,90,56.63V43.42a1.53,1.53,0,0,0-1.53-1.54Z" transform="translate(-9.98 -41.57)"/><path class="cls-2" d="M89.81,55.24A10.06,10.06,0,0,1,90,53.3V43.75a1.89,1.89,0,0,0-1.83-1.84l-19.64,0a6.94,6.94,0,0,1-2.22.12,2.57,2.57,0,0,0-1.42.17L89.69,57.41a2.28,2.28,0,0,0,.17-.68c0-.32,0-1,0-1.49Z" transform="translate(-9.98 -41.57)"/><path class="cls-3" d="M64.49,49.94H77.41v7.92Z" transform="translate(-9.98 -41.57)"/><path class="cls-4" d="M64.28,53.85h6.46v4Z" transform="translate(-9.98 -41.57)"/><path class="cls-5" d="M75,46.62h1.29a1.52,1.52,0,0,0,0-3H75Zm.76-2.38h.43c.54,0,.86.22.86.87s-.32.76-.86.76h-.43Z" transform="translate(-9.98 -41.57)"/><path class="cls-5" d="M78.48,46.62H81v-.76H79.24v-.54h1.51v-.65H79.24v-.43h1.62v-.65H78.49v3Z" transform="translate(-9.98 -41.57)"/><path class="cls-5" d="M81.6,46.62h2.15v-.76h-1.4V43.58H81.6Z" transform="translate(-9.98 -41.57)"/><path class="cls-5" d="M86.23,43.59H83.65v.65h.86v2.39h.86V44.24h.86Z" transform="translate(-9.98 -41.57)"/><path class="cls-5" d="M87.63,44.45l.32,1H87.3Zm-1.51,2.17h.75l.22-.54h1.08l.22.54h.75l-1.08-3H87.2Z" transform="translate(-9.98 -41.57)"/><path class="cls-6" d="M62.16,58.16H58.23c-.14-.69-.3-1.37-.42-2-.05-.28-.14-.39-.46-.39-1.57,0-3.15,0-4.72,0a.37.37,0,0,0-.41.29c-.22.65-.45,1.29-.7,1.93,0,.09-.14.21-.22.21H47c.27-.64.52-1.25.77-1.86l5.49-13.1a1.93,1.93,0,0,1,2-1.34h3.45c.11.53.23,1.06.34,1.58l2.7,12.94c.12.55.25,1.1.38,1.65A.32.32,0,0,1,62.16,58.16ZM57,52.37l-1.24-6h-.05l-2.17,6Z" transform="translate(-9.98 -41.57)"/><path class="cls-7" d="M45.05,41.57c.52.1,1,.18,1.55.29s.93.26,1.42.4l-.74,3.44c-.66-.19-1.28-.41-1.93-.56a5.48,5.48,0,0,0-2.67,0,2.68,2.68,0,0,0-1,.53.92.92,0,0,0,0,1.45,5.88,5.88,0,0,0,1.08.77c.86.52,1.76,1,2.6,1.52a3.84,3.84,0,0,1,1.85,2.75,4.89,4.89,0,0,1-2.32,5,8,8,0,0,1-3.74,1.21,13.49,13.49,0,0,1-5.46-.62l-.35-.14-.12-.07L36,54l.88.38a7.66,7.66,0,0,0,4.3.54,3,3,0,0,0,1.11-.46,1.17,1.17,0,0,0,.13-1.93A10.2,10.2,0,0,0,41,51.57c-.76-.46-1.56-.85-2.28-1.37A3.82,3.82,0,0,1,37,47.49a4.65,4.65,0,0,1,1.81-4.29,7.62,7.62,0,0,1,4-1.57l.24-.06Z" transform="translate(-9.98 -41.57)"/><path class="cls-8" d="M29.78,41.88l-.64,1.54L23.08,57.88a.41.41,0,0,1-.45.29c-1.28,0-2.55,0-3.83,0a.36.36,0,0,1-.42-.33c-1.08-4.21-2.18-8.42-3.25-12.64a2.25,2.25,0,0,0-1.33-1.63,21.39,21.39,0,0,0-3.66-1.18l-.16,0c0-.49,0-.49.47-.49h6.7a1.94,1.94,0,0,1,2,1.66c.57,3,1.12,5.94,1.68,8.9,0,.13,0,.26.09.44a1.31,1.31,0,0,0,.12-.24q2.09-5.26,4.15-10.52a.33.33,0,0,1,.37-.25h3.88Z" transform="translate(-9.98 -41.57)"/><path class="cls-9" d="M28.09,58.17c1.17-5.45,2.32-10.86,3.48-16.28H35.8c-.18.83-.35,1.64-.52,2.45q-1.44,6.72-2.87,13.44c-.07.31-.18.41-.5.4-1.16,0-2.32,0-3.48,0Z" transform="translate(-9.98 -41.57)"/></svg>