<svg id="Layer_1" data-name="Layer 1" xmlns="http://www.w3.org/2000/svg" xmlns:xlink="http://www.w3.org/1999/xlink" viewBox="0 0 80.01 25.85"><defs><style>.cls-1{fill:url(#linear-gradient);}.cls-2{fill:url(#linear-gradient-2);}.cls-3{fill:url(#linear-gradient-3);}.cls-4{fill:url(#linear-gradient-4);}</style><linearGradient id="linear-gradient" x1="14.48" y1="51.53" x2="89.58" y2="52.03" gradientTransform="matrix(1, 0, 0, -1, 0, 102)" gradientUnits="userSpaceOnUse"><stop offset="0" stop-color="#262860"/><stop offset="1" stop-color="#3c429a"/></linearGradient><linearGradient id="linear-gradient-2" x1="14.48" y1="51.71" x2="89.58" y2="52.2" xlink:href="#linear-gradient"/><linearGradient id="linear-gradient-3" x1="14.48" y1="51.94" x2="89.58" y2="52.43" xlink:href="#linear-gradient"/><linearGradient id="linear-gradient-4" x1="14.48" y1="51.77" x2="89.58" y2="52.27" xlink:href="#linear-gradient"/></defs><title>Visa-mexico</title><path class="cls-1" d="M90,62.51H84c-.22-1.06-.46-2.09-.64-3.14-.08-.43-.22-.6-.7-.6-2.41,0-4.83,0-7.25,0a.54.54,0,0,0-.62.45c-.33,1-.7,2-1.07,3,0,.13-.22.32-.33.32-2.18,0-4.35,0-6.59,0,.41-1,.79-1.92,1.19-2.86l8.42-20.09a3,3,0,0,1,3.09-2.06h5.29c.17.82.35,1.62.52,2.43l4.14,19.85c.18.85.39,1.69.58,2.53A1.48,1.48,0,0,0,90,62.51Zm-7.88-8.88c-.64-3.08-1.28-6.11-1.91-9.15l-.08,0-3.32,9.16Z" transform="translate(-10 -37.07)"/><path class="cls-2" d="M63.76,37.07c.79.15,1.6.27,2.38.45s1.42.4,2.18.61c-.38,1.8-.76,3.55-1.13,5.27-1-.3-2-.64-3-.85a8.45,8.45,0,0,0-4.09,0,4.1,4.1,0,0,0-1.54.82,1.41,1.41,0,0,0,0,2.22,9.75,9.75,0,0,0,1.65,1.19c1.32.79,2.7,1.48,4,2.33A5.9,5.9,0,0,1,67,53.29,7.52,7.52,0,0,1,63.47,61a12.17,12.17,0,0,1-5.73,1.85,20.33,20.33,0,0,1-8.37-.95l-.54-.21a1.46,1.46,0,0,1-.18-.11c.38-1.8.77-3.61,1.17-5.46.46.2.9.41,1.35.59a11.6,11.6,0,0,0,6.6.82,4.63,4.63,0,0,0,1.7-.71,1.8,1.8,0,0,0,.2-3,16.06,16.06,0,0,0-2.18-1.43c-1.16-.71-2.39-1.31-3.49-2.1a5.84,5.84,0,0,1-2.62-4.16,7.1,7.1,0,0,1,2.78-6.57,11.69,11.69,0,0,1,6.21-2.41c.13,0,.25-.06.37-.09Z" transform="translate(-10 -37.07)"/><path class="cls-3" d="M40.34,37.54l-1,2.36Q34.71,51,30.07,62.09a.61.61,0,0,1-.68.44c-2,0-3.91,0-5.87,0-.41,0-.55-.14-.65-.51-1.66-6.46-3.34-12.92-5-19.39a3.37,3.37,0,0,0-2-2.49,31.64,31.64,0,0,0-5.61-1.81L10,38.27c0-.75,0-.75.72-.75H21a3,3,0,0,1,3.1,2.55c.87,4.55,1.72,9.1,2.58,13.66,0,.2.08.4.14.68.09-.17.15-.26.19-.36Q30.2,46,33.37,37.91a.53.53,0,0,1,.58-.39c2,0,4,0,6,0A3.28,3.28,0,0,1,40.34,37.54Z" transform="translate(-10 -37.07)"/><path class="cls-4" d="M37.75,62.52c1.79-8.36,3.56-16.66,5.34-25h6.49c-.27,1.27-.53,2.51-.8,3.75q-2.2,10.31-4.4,20.62c-.1.48-.27.63-.77.62-1.78,0-3.56,0-5.33,0Z" transform="translate(-10 -37.07)"/></svg>