<svg xmlns="http://www.w3.org/2000/svg" xmlns:xlink="http://www.w3.org/1999/xlink" viewBox="0 0 80 45.7"><defs><style>.cls-1{fill:url(#radial-gradient);}.cls-2{fill:url(#radial-gradient-2);}.cls-3,.cls-5{fill:#010101;}.cls-3{fill-opacity:0.5;}.cls-4{fill:url(#linear-gradient);}.cls-6{fill:#b4b4b4;}.cls-7{fill:#676767;}.cls-8{fill:#b3b3b3;}.cls-9{fill:#d9d9d8;}.cls-10{fill:#f9f9fa;}.cls-11{fill:url(#linear-gradient-2);}.cls-12{fill:#818181;}.cls-13{fill:#192250;}</style><radialGradient id="radial-gradient" cx="32.2" cy="56.83" r="26.99" gradientTransform="translate(0.33 -50.2) rotate(0.29)" gradientUnits="userSpaceOnUse"><stop offset="0" stop-color="#375fa4"/><stop offset="1" stop-color="#19244e"/></radialGradient><radialGradient id="radial-gradient-2" cx="-104.41" cy="265.22" r="10.52" gradientTransform="matrix(0.7, 0.71, -0.71, 0.7, 298.16, -100.58)" gradientUnits="userSpaceOnUse"><stop offset="0" stop-color="#98b5dc"/><stop offset="1" stop-color="#1d4079"/></radialGradient><linearGradient id="linear-gradient" x1="-61.07" y1="419.06" x2="-49.16" y2="438.75" gradientTransform="translate(92.66 -414.95) scale(0.96 1)" gradientUnits="userSpaceOnUse"><stop offset="0" stop-color="#010101"/><stop offset="1" stop-color="#fff"/></linearGradient><linearGradient id="linear-gradient-2" x1="-142.42" y1="314.2" x2="-140.25" y2="328.09" gradientTransform="translate(181.9 -302.56)" gradientUnits="userSpaceOnUse"><stop offset="0" stop-color="#fff"/><stop offset="1" stop-color="#9e9f9c"/></linearGradient></defs><title>Volkswagen-Bank</title><g id="Layer_2" data-name="Layer 2"><g id="Volkswagen-Bank"><g id="_Group_" data-name="&lt;Group&gt;"><circle id="ellipse106" class="cls-1" cx="40" cy="15" r="14.46" transform="translate(-0.08 0.2) rotate(-0.29)"/><circle id="ellipse108" class="cls-2" cx="40" cy="15" r="11.74" transform="translate(-0.11 0.3) rotate(-0.43)"/><path id="path110" class="cls-3" d="M28.27,15.56A12.09,12.09,0,1,1,40.36,27.64,12.09,12.09,0,0,1,28.27,15.56Zm15,9.64-.62-1.39-2.27-4.69-2.27,4.67-.63,1.42a10.07,10.07,0,0,0,5.79,0Zm-7.22-.54-5.35-12a10.1,10.1,0,0,0,5.35,12Zm14.37-9.1A9.85,9.85,0,0,0,50,12.77l-5.3,11.86a10.07,10.07,0,0,0,5.69-9.07ZM44,20.49,48.52,9.67A10.21,10.21,0,0,0,45.64,7L42,15.07H38.8L35.11,7a10.12,10.12,0,0,0-2.88,2.65l4.5,10.85,2.05-4.58h0l3.15,0,0,0h0Zm-3.65-8.7,2.79-5.9a10,10,0,0,0-2.81-.4,10.15,10.15,0,0,0-2.78.39l2.8,5.91Z"/><path id="path112" class="cls-4" d="M28.36,14.68A11.88,11.88,0,0,1,40,2.59,11.88,11.88,0,0,1,51.64,14.68,11.87,11.87,0,0,1,40,26.76,11.87,11.87,0,0,1,28.36,14.68ZM42.8,24.32l-.59-1.39L40,18.24l-2.19,4.67-.6,1.42a9.43,9.43,0,0,0,2.77.41,9.53,9.53,0,0,0,2.8-.42Zm-6.95-.54-5.15-12a10.49,10.49,0,0,0-.4,2.88,10.12,10.12,0,0,0,5.55,9.1Zm13.85-9.1a10.75,10.75,0,0,0-.38-2.8l-5.1,11.86a10.11,10.11,0,0,0,5.48-9.06Zm-6,4.78L47.8,9.69A11.88,11.88,0,0,0,45,6.59l-3.43,7.59h-3l-3.56-8.1a10,10,0,0,0-2.77,2.65l4.34,10.86,2-4.12a.36.36,0,0,0,.42-.08s1.8,0,2.88,0ZM40,10.91,42.71,5A9.35,9.35,0,0,0,40,4.61,9.14,9.14,0,0,0,37.32,5Z"/><path class="cls-5" d="M40,26.77a11.19,11.19,0,0,1-4.53-.95,11.62,11.62,0,0,1-3.71-2.59,12.17,12.17,0,0,1-2.5-3.85,12.62,12.62,0,0,1,0-9.41,12.17,12.17,0,0,1,2.5-3.85,11.62,11.62,0,0,1,3.71-2.59,11.28,11.28,0,0,1,9.06,0,11.62,11.62,0,0,1,3.71,2.59A12.17,12.17,0,0,1,50.74,10a12.62,12.62,0,0,1,0,9.41,12.17,12.17,0,0,1-2.5,3.85,11.62,11.62,0,0,1-3.71,2.59A11.19,11.19,0,0,1,40,26.77ZM40,2.6A11.88,11.88,0,0,0,28.37,14.68,11.87,11.87,0,0,0,40,26.75,11.87,11.87,0,0,0,51.63,14.68,11.88,11.88,0,0,0,40,2.6Zm0,22.16a9.26,9.26,0,0,1-2.77-.42h0l.61-1.43,2.2-4.7v0l2.2,4.69.59,1.39h0A9.53,9.53,0,0,1,40,24.76Zm-2.75-.44a9.45,9.45,0,0,0,5.54,0l-.59-1.37L40,18.27l-2.17,4.65Zm-1.37-.51,0,0a9.86,9.86,0,0,1-4-3.65,10.45,10.45,0,0,1-1.15-8.34v0l0,0Zm-5.17-12a10.41,10.41,0,0,0-.39,2.84,10.13,10.13,0,0,0,5.51,9.07ZM44.19,23.77l0,0,5.11-11.9v0a10.56,10.56,0,0,1,.38,2.8,10.3,10.3,0,0,1-1.53,5.42,9.79,9.79,0,0,1-4,3.65Zm5.13-11.85L44.25,23.71a10.15,10.15,0,0,0,5.43-9A10.67,10.67,0,0,0,49.32,11.92Zm-12.81,7.7L32.16,8.73h0a10,10,0,0,1,2.78-2.65h0l3.56,8.11h3L45,6.57h0a11.58,11.58,0,0,1,2.85,3.1h0l-4.1,9.8v0l-2-4.07-2.86,0a.43.43,0,0,1-.43.08ZM32.19,8.73l4.32,10.82,1.94-4.09h0a.36.36,0,0,0,.41-.08h0s1.81,0,2.88,0h0l1.94,4.05,4.07-9.73A11.54,11.54,0,0,0,45,6.61L41.54,14.2h-3L34.94,6.1A10,10,0,0,0,32.19,8.73ZM40,10.94,37.31,5h0A9.34,9.34,0,0,1,40,4.59a9.56,9.56,0,0,1,2.71.4h0ZM37.34,5,40,10.87,42.69,5A9.41,9.41,0,0,0,40,4.62,9.55,9.55,0,0,0,37.34,5Z"/><path id="path3217" class="cls-6" d="M35.89,5.24c-.79.35-.66.35-1.08,1.75l3.62,7.93c1.19,0,2.35-.07,3.54-.07C43.29,12,44.2,9.92,45.53,7c0,.12-.48-1.2-.49-1.29-.91,1.92-3.95,3.94-4.86,5.86C39.27,9.67,37.84,7,36.93,5.11c-.22.09-.82,0-1,.13Z"/><path class="cls-7" d="M38.43,14.93h0L36.6,11C36,9.7,35.46,8.44,34.79,7h0c.07-.22.12-.4.16-.56.25-.85.26-.9.93-1.19a1.58,1.58,0,0,1,.53-.07,1.76,1.76,0,0,0,.52-.07h0v0c.45,1,1,2.12,1.62,3.23s1.16,2.26,1.61,3.22A12.91,12.91,0,0,1,42.6,8.64,12.29,12.29,0,0,0,45,5.72l0,0v.06s.2.56.33.9.14.35.15.39h0s0,0,0,0h0L43.76,11,42,14.86h0c-.6,0-1.19,0-1.77,0S39,14.93,38.43,14.93ZM34.83,7l1.8,4,1.81,4c.59,0,1.18,0,1.76,0s1.16,0,1.76,0c.65-1.45,1.22-2.7,1.77-3.91L45.51,7l-.15-.38c-.15-.4-.28-.74-.32-.86a13,13,0,0,1-2.41,2.89A12.28,12.28,0,0,0,40.2,11.6l0,0v0c-.46-1-1.06-2.13-1.63-3.25s-1.16-2.26-1.62-3.22a2.15,2.15,0,0,1-.51.06,1.64,1.64,0,0,0-.51.07h0c-.66.28-.67.32-.91,1.17C34.94,6.59,34.89,6.77,34.83,7Z"/><path id="path117" class="cls-8" d="M25,15A15,15,0,1,1,40,30,15,15,0,0,1,25,15Zm29.21,0A14.24,14.24,0,1,0,40,29.24,14.25,14.25,0,0,0,54.24,15Z"/><path id="path119" class="cls-9" d="M25.11,15A14.89,14.89,0,1,1,40,29.89,14.89,14.89,0,0,1,25.11,15Zm29.21,0A14.32,14.32,0,1,0,40,29.32,14.33,14.33,0,0,0,54.32,15Z"/><path class="cls-5" d="M40,30A15,15,0,1,1,55,15,15,15,0,0,1,40,30ZM40,.22A14.78,14.78,0,1,0,54.78,15,14.8,14.8,0,0,0,40,.22Zm0,29.21A14.43,14.43,0,1,1,54.43,15,14.46,14.46,0,0,1,40,29.43ZM40,.79A14.21,14.21,0,1,0,54.21,15,14.23,14.23,0,0,0,40,.79Z"/><path id="path3223" class="cls-10" d="M31.14,9.26c-.39.89-.46.58-.76,1.51,1.82,4,3.55,8.07,5.43,12.05a12.06,12.06,0,0,0,1.25.5c1-2.12,2.12-3.84,3.15-5.95,1,2.1,1.94,3.82,3,5.92A1.83,1.83,0,0,0,44.83,22c1.68-3.74,2.74-8.51,4.42-12.24l-1.47-.06c-1.51,3.69-2.67,5.74-4.19,9.44.06,3.49.45,4.48-.32,2.85-.1,0-4-6.62-4-6.62h-.89s-1.11,2.09-1.83,3.72c-1.54-3.71-2.55-6-4.1-9.75-.69,0-1.24-.19-1.29-.09Z"/><path id="path3243" class="cls-11" d="M27.62,15A12.38,12.38,0,1,1,40,27.38,12.39,12.39,0,0,1,27.62,15ZM43,24.88l-.62-1.42L40,18.65,37.7,23.44l-.64,1.45a10.55,10.55,0,0,0,2.94.42,10.42,10.42,0,0,0,3-.43Zm-7.39-.55L30.11,12.06A10.55,10.55,0,0,0,29.69,15,10.32,10.32,0,0,0,35.59,24.33ZM50.31,15a10.4,10.4,0,0,0-.4-2.86L44.49,24.29A10.32,10.32,0,0,0,50.31,15Zm-6.63,6L48.75,9.74a18.5,18.5,0,0,0-3.66-4l-4,9.1H39.23l-4-9.25a18.42,18.42,0,0,0-3.91,3.62l5.25,11.94c.88-1.88,1.81-3.9,2.69-5.78,0,0,1.74,0,1.62,0ZM40,11.14l2.86-6.05A10.49,10.49,0,0,0,40,4.69a10.2,10.2,0,0,0-2.84.39Z"/><path class="cls-12" d="M40,27.39A12.4,12.4,0,0,1,27.61,15,12.39,12.39,0,1,1,44.82,26.41,12.25,12.25,0,0,1,40,27.39ZM40,2.63A12.37,12.37,0,1,0,52.37,15,12.39,12.39,0,0,0,40,2.63Zm0,22.69a10.17,10.17,0,0,1-3-.43h0l.64-1.44L40,18.64h0l2.33,4.8L43,24.88h0A10.4,10.4,0,0,1,40,25.32Zm-2.94-.44a10.4,10.4,0,0,0,2.94.43,10.27,10.27,0,0,0,3-.44l-.62-1.41L40,18.67,37.7,23.44Zm-1.46-.54h0A10.3,10.3,0,0,1,29.68,15a10.06,10.06,0,0,1,.43-2.94v0h0ZM30.11,12.08a10.31,10.31,0,0,0,5.47,12.23ZM44.47,24.3h0l5.43-12.17v0a10.32,10.32,0,0,1-5.43,12.15Zm5.44-12.14L44.5,24.27A10.36,10.36,0,0,0,50.31,15,10.47,10.47,0,0,0,49.91,12.16Zm-13.35,9h0L31.3,9.23h0a18.34,18.34,0,0,1,3.9-3.63h0l4,9.26h1.84l4-9.11h0a19.94,19.94,0,0,1,3.67,4h0L43.68,21h0l-2.82-5.59h-1.6l-1.35,2.89-1.34,2.9Zm-5.24-12,5.24,11.93c.44-.94.9-1.93,1.34-2.89s.91-1.94,1.35-2.88c0,0,.06,0,.77,0h.85s0,0,0,0h0L43.68,21,48.74,9.74a19.78,19.78,0,0,0-3.65-4l-4,9.1H39.22l-4-9.24A18.19,18.19,0,0,0,31.32,9.23ZM40,11.16,37.15,5.08h0A10.17,10.17,0,0,1,40,4.68a10.33,10.33,0,0,1,2.88.41h0ZM37.16,5.09l2.86,6,2.85-6A10.26,10.26,0,0,0,40,4.69,10.47,10.47,0,0,0,37.16,5.09Z"/></g><path class="cls-13" d="M4.08,39.81h1L3,45.62H2L0,39.81H1l1.21,3.61c.07.17.13.4.21.67a5.79,5.79,0,0,1,.13.61c0-.21.09-.44.16-.7s.13-.47.18-.59Z"/><path class="cls-13" d="M11,42.71a3.18,3.18,0,0,1-.71,2.2,2.54,2.54,0,0,1-2,.79,2.58,2.58,0,0,1-2-.78,3.2,3.2,0,0,1-.71-2.22,3.16,3.16,0,0,1,.71-2.21,2.6,2.6,0,0,1,2-.78,2.57,2.57,0,0,1,2,.79A3.14,3.14,0,0,1,11,42.71Zm-4.44,0A2.68,2.68,0,0,0,7,44.34a1.54,1.54,0,0,0,1.29.55,1.53,1.53,0,0,0,1.28-.55,3.3,3.3,0,0,0,0-3.26,1.5,1.5,0,0,0-1.27-.55A1.54,1.54,0,0,0,7,41.08,2.6,2.6,0,0,0,6.56,42.71Z"/><path class="cls-13" d="M12.25,45.62V39.81h.95v5h2.46v.81Z"/><path class="cls-13" d="M21.11,45.62H20L18.18,43l-.56.46v2.17h-.95V39.81h.95v2.77l.77-.92L20,39.81h1.08l-2.19,2.55Z"/><path class="cls-13" d="M25.23,44a1.47,1.47,0,0,1-.56,1.22,2.48,2.48,0,0,1-1.55.44,3.78,3.78,0,0,1-1.62-.3v-.9a4.73,4.73,0,0,0,.85.29,3.72,3.72,0,0,0,.83.11,1.3,1.3,0,0,0,.84-.22.68.68,0,0,0,.27-.57.75.75,0,0,0-.25-.56A3.61,3.61,0,0,0,23,43a2.72,2.72,0,0,1-1.12-.74,1.55,1.55,0,0,1-.33-1,1.38,1.38,0,0,1,.52-1.15,2.13,2.13,0,0,1,1.39-.42,4,4,0,0,1,1.66.37l-.3.77a3.78,3.78,0,0,0-1.39-.32,1,1,0,0,0-.7.2.67.67,0,0,0-.23.53.8.8,0,0,0,.09.39.94.94,0,0,0,.32.3,4.7,4.7,0,0,0,.78.38,4.11,4.11,0,0,1,.94.5,1.35,1.35,0,0,1,.44.52A1.59,1.59,0,0,1,25.23,44Z"/><path class="cls-13" d="M31.72,45.62h-1l-1-3.47c0-.15-.09-.37-.16-.65s-.1-.49-.11-.6c0,.17-.07.39-.13.66s-.11.48-.15.61l-1,3.45h-1l-.75-2.91-.77-2.9h1l.83,3.39c.13.54.22,1,.28,1.44a6.38,6.38,0,0,1,.13-.76c.06-.28.11-.5.16-.68L29,39.81h.95l1,3.41a12.58,12.58,0,0,1,.29,1.42,10.5,10.5,0,0,1,.29-1.45l.83-3.38h1Z"/><path class="cls-13" d="M37.67,45.62,37.09,44H34.87l-.57,1.61h-1l2.18-5.84h1l2.18,5.84Zm-.83-2.43-.55-1.59c0-.1-.09-.27-.16-.5L36,40.6a8.17,8.17,0,0,1-.31,1.07l-.53,1.52Z"/><path class="cls-13" d="M41.83,42.47H44v2.92a7,7,0,0,1-1,.24,6.8,6.8,0,0,1-1,.07,2.64,2.64,0,0,1-2-.78,3.14,3.14,0,0,1-.72-2.21A2.91,2.91,0,0,1,40,40.52a3,3,0,0,1,2.22-.8,4.38,4.38,0,0,1,1.73.35l-.33.79a3.52,3.52,0,0,0-1.42-.32,1.9,1.9,0,0,0-1.47.58,2.28,2.28,0,0,0-.54,1.6,2.41,2.41,0,0,0,.48,1.62,1.79,1.79,0,0,0,1.41.56,4.44,4.44,0,0,0,1-.12v-1.5h-1.2Z"/><path class="cls-13" d="M48.66,45.62H45.37V39.81h3.29v.8H46.32v1.58h2.19V43H46.32v1.82h2.34Z"/><path class="cls-13" d="M54.76,45.62H53.59L50.73,41h0l0,.26q.06.73.06,1.35v3h-.87V39.81h1.16l2.85,4.61h0c0-.06,0-.29,0-.67s0-.68,0-.9v-3h.87Z"/><path class="cls-13" d="M58.41,39.81h1.73a3.18,3.18,0,0,1,1.73.35,1.21,1.21,0,0,1,.54,1.1,1.39,1.39,0,0,1-.26.85,1.18,1.18,0,0,1-.76.42v0a1.49,1.49,0,0,1,.9.46,1.34,1.34,0,0,1,.29.92A1.49,1.49,0,0,1,62,45.18a2.37,2.37,0,0,1-1.52.44h-2.1Zm1,2.4h.92a1.52,1.52,0,0,0,.87-.19.73.73,0,0,0,.27-.64.67.67,0,0,0-.29-.6,1.88,1.88,0,0,0-.94-.18h-.83Zm0,.77v1.84h1a1.42,1.42,0,0,0,.9-.23.82.82,0,0,0,.31-.72.76.76,0,0,0-.31-.67,1.61,1.61,0,0,0-.94-.22Z"/><path class="cls-13" d="M67.4,45.62,66.82,44H64.59L64,45.62H63l2.18-5.84h1l2.18,5.84Zm-.83-2.43L66,41.6c0-.1-.09-.27-.16-.5l-.15-.5a8.17,8.17,0,0,1-.31,1.07l-.53,1.52Z"/><path class="cls-13" d="M74,45.62H72.86L70,41h0l0,.26c0,.49.05.94.05,1.35v3h-.86V39.81h1.15l2.85,4.61h0c0-.06,0-.29,0-.67s0-.68,0-.9v-3H74Z"/><path class="cls-13" d="M80,45.62H78.9L77.07,43l-.56.46v2.17h-1V39.81h1v2.77c.26-.32.52-.62.78-.92l1.57-1.85h1.08l-2.18,2.55Z"/></g></g></svg>