<svg xmlns="http://www.w3.org/2000/svg" viewBox="0 0 80 19.02"><defs><style>.cls-1{fill:#fcbb30;}.cls-2{fill:#3374ba;}</style></defs><title>WA_Wallmart</title><g id="Layer_2" data-name="Layer 2"><g id="WA_Wallmart"><g id="layer1"><path id="path2974" class="cls-1" d="M70.27,6.4a.81.81,0,0,0,.86-.53l.44-5c0-.5-.57-.9-1.3-.9S69,.4,69,.9l.44,5a.82.82,0,0,0,.86.53h0"/><path id="path2976" class="cls-1" d="M67.58,8a.81.81,0,0,0,0-1L63.47,4.08c-.43-.25-1.07,0-1.43.67s-.3,1.33.13,1.58l4.52,2.1A.8.8,0,0,0,67.58,8h0"/><path id="path2978" class="cls-1" d="M73,8a.81.81,0,0,0,.89.48l4.53-2.1c.43-.25.49-1,.13-1.58s-1-.92-1.43-.67L73,6.94a.84.84,0,0,0,0,1h0"/><path id="path2980" class="cls-1" d="M70.27,12.62a.81.81,0,0,1,.86.52l.44,5c0,.49-.57.9-1.3.9s-1.3-.41-1.3-.9l.44-5a.82.82,0,0,1,.86-.52h0"/><path id="path2982" class="cls-1" d="M73,11.06a.84.84,0,0,1,.89-.48l4.53,2.11c.43.24.49,1,.13,1.57s-1,.92-1.43.68L73,12.07a.82.82,0,0,1,0-1h0"/><path id="path2984" class="cls-1" d="M67.58,11.06a.79.79,0,0,1,0,1l-4.08,2.87c-.43.25-1.07,0-1.43-.68s-.3-1.33.13-1.57l4.52-2.11a.82.82,0,0,1,.89.48h0"/><path id="path2986" class="cls-2" d="M44.48,12.06a1.33,1.33,0,0,1-.06.45,1.55,1.55,0,0,1-1.51,1.06,1,1,0,0,1-1.11-1.09c0-1.14,1.25-1.46,2.68-1.45v1Zm2.24-2c0-1.88-.81-3.53-3.52-3.53a6.43,6.43,0,0,0-3.1.74l.45,1.51a4.49,4.49,0,0,1,2.26-.64c1.37,0,1.6.78,1.6,1.28v.12c-3,0-4.9,1-4.9,3.15a2.5,2.5,0,0,0,2.65,2.5,3,3,0,0,0,2.41-1.07h0s.34,1.43,2.23.88a11.93,11.93,0,0,1-.13-2V10.08"/><path id="path2988" class="cls-2" d="M0,4s2,8,2.27,9.33c.37,1.52,1,2.08,2.92,1.7l1.22-5c.31-1.24.52-2.12.72-3.38h0c.14,1.27.34,2.14.59,3.38,0,0,.5,2.26.75,3.45s1,1.93,2.83,1.52L14.25,4H11.9l-1,4.77c-.26,1.39-.51,2.47-.69,3.74h0c-.17-1.25-.38-2.3-.65-3.65L8.48,4H6L4.92,8.73c-.31,1.44-.61,2.6-.8,3.83h0c-.19-1.16-.45-2.62-.72-4L2.48,4H0"/><path id="path2990" class="cls-2" d="M18.7,12.06a1.64,1.64,0,0,1-.05.45,1.56,1.56,0,0,1-1.51,1.06A1,1,0,0,1,16,12.48C16,11.34,17.28,11,18.7,11v1Zm2.24-2c0-1.88-.8-3.53-3.51-3.53a6.4,6.4,0,0,0-3.1.74l.44,1.51A4.52,4.52,0,0,1,17,8.16c1.38,0,1.6.78,1.6,1.28v.12c-3,0-4.89,1-4.89,3.15a2.49,2.49,0,0,0,2.64,2.5,3,3,0,0,0,2.41-1.07h.05s.35,1.43,2.23.88a11.93,11.93,0,0,1-.13-2V10.08"/><path id="path2992" class="cls-2" d="M24.68,12.68V4H22.44V15h2.24V12.68"/><path id="path2994" class="cls-2" d="M54,4v8.14a3.43,3.43,0,0,0,.66,2.39,2.5,2.5,0,0,0,1.82.69A5.19,5.19,0,0,0,58.11,15l0-1.75a3.24,3.24,0,0,1-.85.1c-.77,0-1-.49-1-1.49V8.71h1.95V6.6H56.21V4H54"/><path id="path2996" class="cls-2" d="M48.21,6.74V15h2.31V10.78a3.67,3.67,0,0,1,0-.61A1.75,1.75,0,0,1,52.4,8.71a4.27,4.27,0,0,1,.67.06V6.6a2,2,0,0,0-.51,0A2.45,2.45,0,0,0,50.3,8.3h-.06V6.74h-2"/><path id="path2998" class="cls-2" d="M26.25,6.74V15H28.5V10.16a1.89,1.89,0,0,1,.11-.67A1.52,1.52,0,0,1,30,8.42c.91,0,1.34.77,1.34,1.88V15h2.25V10.1a2.46,2.46,0,0,1,.09-.67,1.44,1.44,0,0,1,1.35-1c.93,0,1.37.76,1.37,2.06V15h2.25V10.14c0-2.57-1.31-3.59-2.78-3.59A3,3,0,0,0,34.2,7a3.53,3.53,0,0,0-1.05,1h0a2.38,2.38,0,0,0-2.29-1.48,2.6,2.6,0,0,0-2.41,1.31h0V6.73H26.25"/><path id="path3000" class="cls-1" d="M79.52,14.62h0s.08,0,.08,0,0-.05-.07-.05h0v.09Zm0,.23h-.12v-.39l.17,0a.28.28,0,0,1,.16,0,.13.13,0,0,1,0,.09s0,.07-.09.09h0s.07,0,.08.1a.29.29,0,0,0,0,.1h-.14a.64.64,0,0,1,0-.09.07.07,0,0,0-.07-.06h0v.15Zm0-.52a.32.32,0,0,0,0,.63.3.3,0,0,0,.3-.32.31.31,0,0,0-.31-.31Zm0-.11a.43.43,0,1,1,0,.85.43.43,0,1,1,0-.85h0"/></g></g></g></svg>