<svg xmlns="http://www.w3.org/2000/svg" viewBox="0 0 80 20.89"><defs><style>.cls-1{fill:#135eab;fill-rule:evenodd;}</style></defs><title>WebMoney</title><g id="Layer_2" data-name="Layer 2"><g id="WebMoney"><path class="cls-1" d="M10.45,0A10.31,10.31,0,0,1,15,1.06c.22.1.44.22.65.34l-1,.86L13.27.77,10.83,2.94,9.38,1.36,4.84,5.46,7.75,8.67l-1.14,1,2.86,3.22-1.13,1,4.1,4.56,2.43-2.24,2.1,2.4a11.68,11.68,0,0,1-1.37.92A10.45,10.45,0,1,1,10.45,0Z"/><polygon class="cls-1" points="8.54 9.79 11.03 7.55 13.26 10.03 10.78 12.27 8.54 9.79 8.54 9.79"/><polygon class="cls-1" points="10.31 14.08 12.79 11.84 15.03 14.32 12.54 16.56 10.31 14.08 10.31 14.08"/><polygon class="cls-1" points="6.76 5.54 9.25 3.31 11.48 5.79 9 8.03 6.76 5.54 6.76 5.54"/><polygon class="cls-1" points="11.32 4.34 13.19 2.66 14.86 4.53 13 6.2 11.32 4.34 11.32 4.34"/><polygon class="cls-1" points="14.63 12.02 16.5 10.35 18.17 12.21 16.31 13.89 14.63 12.02 14.63 12.02"/><polygon class="cls-1" points="16.27 15.79 18.13 14.11 19.81 15.97 17.95 17.65 16.27 15.79 16.27 15.79"/><polygon class="cls-1" points="17.02 7.16 18.26 6.04 19.38 7.29 18.14 8.4 17.02 7.16 17.02 7.16"/><polygon class="cls-1" points="15.44 3.47 16.68 2.35 17.8 3.6 16.55 4.71 15.44 3.47 15.44 3.47"/><polygon class="cls-1" points="18.61 10.85 19.85 9.73 20.97 10.97 19.73 12.09 18.61 10.85 18.61 10.85"/><polygon class="cls-1" points="13.04 8.09 14.9 6.41 16.58 8.27 14.72 9.95 13.04 8.09 13.04 8.09"/><path class="cls-1" d="M49.66,6.43l0,0-.06,0a2.06,2.06,0,0,0-1.48-.54,2.16,2.16,0,0,0-2.22,2.39v6.84h1.34V8.28c0-1,.66-1,.88-1a.92.92,0,0,1,.58.2,1.1,1.1,0,0,1,.29.85v6.84h1.35V8.28c0-1,.66-1,.87-1a1,1,0,0,1,.59.2,1.13,1.13,0,0,1,.29.85v6.84h1.34V8.28a2.48,2.48,0,0,0-.66-1.81,2.22,2.22,0,0,0-1.56-.58A2.13,2.13,0,0,0,49.66,6.43Z"/><path class="cls-1" d="M59.46,9a3,3,0,0,0-2.2-.87A2.93,2.93,0,0,0,55.1,9a3.9,3.9,0,0,0-.84,2.67,3.88,3.88,0,0,0,.84,2.65,2.93,2.93,0,0,0,2.16.87,3,3,0,0,0,2.2-.87,3.88,3.88,0,0,0,.84-2.65A3.9,3.9,0,0,0,59.46,9Zm-.53,3a2.67,2.67,0,0,1-.48,1.89,1.62,1.62,0,0,1-1.19.45,1.55,1.55,0,0,1-1.15-.45A2.63,2.63,0,0,1,55.62,12v-.6a2.55,2.55,0,0,1,.49-1.87,1.51,1.51,0,0,1,1.15-.47,1.58,1.58,0,0,1,1.19.47,2.59,2.59,0,0,1,.48,1.87Z"/><path class="cls-1" d="M61.4,8.28l1.13,0v.61a4,4,0,0,1,1-.53,2.58,2.58,0,0,1,1.11-.21,2.06,2.06,0,0,1,1.67.66,2.55,2.55,0,0,1,.57,1.73V15.1H65.59V10.46a1.22,1.22,0,0,0-1.28-1.4,2.56,2.56,0,0,0-1.68.7V15.1H61.4V8.28Z"/><path class="cls-1" d="M72.93,13.77a4.75,4.75,0,0,1-.8.32,3.39,3.39,0,0,1-1,.17,2.11,2.11,0,0,1-1.54-.56,2.12,2.12,0,0,1-.48-1.52V12h4.2v-.31A3.62,3.62,0,0,0,72.54,9a2.66,2.66,0,0,0-2-.81,2.71,2.71,0,0,0-2.09.89,3.78,3.78,0,0,0-.78,2.53,4,4,0,0,0,.82,2.67,3,3,0,0,0,2.38,1A4.16,4.16,0,0,0,72.48,15a7.52,7.52,0,0,0,.84-.39l-.39-.8ZM69.06,11a2.06,2.06,0,0,1,.45-1.44,1.46,1.46,0,0,1,2-.12,1.77,1.77,0,0,1,.45,1.42v.3H69.06Z"/><path class="cls-1" d="M80,8.3l-2.67,8a3.54,3.54,0,0,1-.64,1.27,1.73,1.73,0,0,1-1.34.56,2.08,2.08,0,0,1-1.07-.27,2.36,2.36,0,0,1-.57-.43l.58-.74a2.48,2.48,0,0,0,.36.28,1.3,1.3,0,0,0,.64.17.88.88,0,0,0,.72-.35,4.4,4.4,0,0,0,.37-.84l.15-.54L73.67,8.3H75l1.71,4.27a10.47,10.47,0,0,1,.39,1.2h.06c.21-.81.31-1.09.48-1.59L78.89,8.3Z"/><path class="cls-1" d="M27.6,14.71l0-.06.06.06a2.2,2.2,0,0,0,1.5.54,2.17,2.17,0,0,0,2.22-2.39V6H30.06v6.84c0,1-.67,1-.86,1a.78.78,0,0,1-.58-.19,1.09,1.09,0,0,1-.3-.84V6H27v6.84c0,1-.66,1-.88,1a.78.78,0,0,1-.56-.19,1.09,1.09,0,0,1-.29-.84V6H23.86v6.84a2.47,2.47,0,0,0,.67,1.79,2.18,2.18,0,0,0,1.55.6A2.3,2.3,0,0,0,27.6,14.71Z"/><path class="cls-1" d="M37.67,13.77a6.21,6.21,0,0,1-.78.32,3.39,3.39,0,0,1-1,.17,2.1,2.1,0,0,1-1.54-.56,2.22,2.22,0,0,1-.47-1.52V12H38v-.31A3.7,3.7,0,0,0,37.3,9a2.89,2.89,0,0,0-4,.08,3.73,3.73,0,0,0-.78,2.53,4,4,0,0,0,.8,2.67,3.14,3.14,0,0,0,2.37,1,4.28,4.28,0,0,0,1.6-.29,5.71,5.71,0,0,0,.82-.39l-.39-.78ZM33.83,11a2,2,0,0,1,.45-1.44,1.42,1.42,0,0,1,2-.1,1.73,1.73,0,0,1,.45,1.42v.28H33.83Z"/><path class="cls-1" d="M43.78,8.87a2.82,2.82,0,0,0-1.87-.68,5.3,5.3,0,0,0-.87.09c-.2.06-.45.16-.66.24V5.85H39.15v8.66a4.94,4.94,0,0,0,2.55.72,2.83,2.83,0,0,0,2.39-1.07,4.11,4.11,0,0,0,.69-2.49,3.54,3.54,0,0,0-1-2.8Zm-2.1.19A1.84,1.84,0,0,1,43,9.55a2.6,2.6,0,0,1,.42,1.77v.58A3.15,3.15,0,0,1,43,13.77a1.55,1.55,0,0,1-1.3.57,3.53,3.53,0,0,1-.8-.14,3.58,3.58,0,0,1-.56-.27V9.47"/></g></g></svg>