<svg xmlns="http://www.w3.org/2000/svg" viewBox="0 0 80 63.18"><defs><style>.cls-1{fill:#030202;}.cls-2{fill:#fba91a;}</style></defs><title>Webpay</title><g id="Layer_2" data-name="Layer 2"><g id="Webpay"><path class="cls-1" d="M0,7.88H5.57l4.55,13.56L15,7.88h3.4l4.82,13.41L27.81,7.88h5.6L25.14,31.72h-3.6L16.71,18.13l-5,13.59H8.17Z"/><path class="cls-1" d="M54.41,21.53H35.19a6.4,6.4,0,0,0,2.23,4A7,7,0,0,0,42,27.07a8,8,0,0,0,5.76-2.34H53.6a4.72,4.72,0,0,1-.77,2.37,12,12,0,0,1-4.51,4,14.23,14.23,0,0,1-6.25,1.28,12.36,12.36,0,0,1-9.14-3.54,12,12,0,0,1-3.52-8.86,12.45,12.45,0,0,1,3.51-9.06,11.81,11.81,0,0,1,8.82-3.61,12.22,12.22,0,0,1,9.16,3.61,13,13,0,0,1,3.53,9.52Zm-6-4.71a6.09,6.09,0,0,0-2.34-3.25A6.8,6.8,0,0,0,42,12.32a7.13,7.13,0,0,0-4.39,1.41,7.82,7.82,0,0,0-2.2,3.09Z"/><path class="cls-1" d="M59.82,0V10.5a11.21,11.21,0,0,1,3.51-2.43,10.08,10.08,0,0,1,4-.81,10.42,10.42,0,0,1,7.93,3.53,12.79,12.79,0,0,1,3.27,9.05,12.5,12.5,0,0,1-3.38,8.91,10.61,10.61,0,0,1-8,3.58,10.08,10.08,0,0,1-3.83-.73,11.77,11.77,0,0,1-3.53-2.4v2.52H53.88V0Zm6.29,12.78a6.27,6.27,0,0,0-4.69,1.93,7,7,0,0,0-1.86,5,7.17,7.17,0,0,0,1.86,5.14,6.19,6.19,0,0,0,4.69,2,6.06,6.06,0,0,0,4.61-2,7.14,7.14,0,0,0,1.88-5.09,7.06,7.06,0,0,0-1.85-5A6.1,6.1,0,0,0,66.11,12.78Z"/><path class="cls-2" d="M14.09,31.41V34a11.22,11.22,0,0,1,3.42-2.37,9.83,9.83,0,0,1,3.94-.79,10.15,10.15,0,0,1,7.73,3.44,12.47,12.47,0,0,1,3.19,8.83,12.21,12.21,0,0,1-3.29,8.69,10.39,10.39,0,0,1-7.8,3.5,9.71,9.71,0,0,1-3.75-.72,11.55,11.55,0,0,1-3.44-2.34V62.39H8.3v-31Zm6.14,4.79a6.08,6.08,0,0,0-4.58,1.88A6.77,6.77,0,0,0,13.84,43a7,7,0,0,0,1.81,5,6.07,6.07,0,0,0,4.58,1.91A6,6,0,0,0,24.73,48a7,7,0,0,0,1.83-5,6.88,6.88,0,0,0-1.8-4.91A6,6,0,0,0,20.23,36.2Z"/><path class="cls-2" d="M50.25,31.41h5.1V54.67h-5.1V52.21a12.13,12.13,0,0,1-3.63,2.34,10.63,10.63,0,0,1-3.95.72,11.28,11.28,0,0,1-8.26-3.5,11.83,11.83,0,0,1-3.48-8.69,12.09,12.09,0,0,1,3.37-8.83,11.06,11.06,0,0,1,8.19-3.44,10.94,10.94,0,0,1,4.17.79A11.55,11.55,0,0,1,50.25,34Zm-6.5,4.79A6.44,6.44,0,0,0,39,38.11,6.66,6.66,0,0,0,37.09,43,6.74,6.74,0,0,0,39,48a6.46,6.46,0,0,0,4.75,1.94A6.59,6.59,0,0,0,48.61,48a6.78,6.78,0,0,0,1.92-5,6.57,6.57,0,0,0-1.92-4.92A6.63,6.63,0,0,0,43.75,36.2Z"/><path class="cls-2" d="M55.35,31.41h6l6,14.59L74,31.41h6L65.43,63.18h-6l4.78-10.25Z"/></g></g></svg>