<svg id="Layer_1" data-name="Layer 1" xmlns="http://www.w3.org/2000/svg" viewBox="0 0 79.99 20.92"><defs><style>.cls-1{fill:#37b34a;}</style></defs><title>WeChat-eng</title><path class="cls-1" d="M18.62,52.77a.87.87,0,0,1-.36.09.79.79,0,0,1-.69-.4l-.05-.11-2.16-4.74a.47.47,0,0,1,0-.17.4.4,0,0,1,.4-.4.41.41,0,0,1,.24.08l2.55,1.81a1.21,1.21,0,0,0,.65.19,1.41,1.41,0,0,0,.41-.07l12-5.33a12.67,12.67,0,0,0-9.68-4.18C15.32,39.54,10,44,10,49.42a9.3,9.3,0,0,0,4.1,7.47.79.79,0,0,1,.33.64,1,1,0,0,1,0,.25c-.2.74-.52,1.94-.53,2a1.36,1.36,0,0,0-.06.29.4.4,0,0,0,.4.4.45.45,0,0,0,.23-.07l2.6-1.5a1.28,1.28,0,0,1,.63-.18,1.34,1.34,0,0,1,.35,0,14,14,0,0,0,3.87.54c6.55,0,11.86-4.42,11.86-9.88a8.58,8.58,0,0,0-1.35-4.58L18.75,52.72Z" transform="translate(-10.01 -39.54)"/><path class="cls-1" d="M46.49,50.87l-.16.56c-.13.47-.25.88-.35,1.29-.13-.6-.31-1.27-.46-1.86l-1.06-4,0-.07h-.69l-1.18,4.08c-.21.69-.4,1.31-.53,1.86-.1-.43-.22-.91-.35-1.42l-1.15-4.45,0-.07h-.8l1.92,7.27,0,.07h.68L43.57,50c.22-.71.38-1.27.5-1.76.11.51.25,1.08.43,1.75l1.07,4.1,0,.07h.69l2.16-7.22,0-.12h-.8Z" transform="translate(-10.01 -39.54)"/><path class="cls-1" d="M51,48.72c-1.44,0-2.4,1.15-2.4,2.86a2.44,2.44,0,0,0,2.49,2.66,3.47,3.47,0,0,0,1.65-.34l.11-.06-.34-.58-.08,0a2.84,2.84,0,0,1-1.29.25c-1.09,0-1.73-.72-1.78-2H53l0-.11a1.67,1.67,0,0,0,0-.33,3.12,3.12,0,0,0-.38-1.48,1.81,1.81,0,0,0-1.7-.94M49.41,50.9a1.57,1.57,0,0,1,1.53-1.48,1.26,1.26,0,0,1,.93.35,1.77,1.77,0,0,1,.43,1.13Z" transform="translate(-10.01 -39.54)"/><path class="cls-1" d="M59,53.25h0a3.8,3.8,0,0,1-1.49.29,2.7,2.7,0,0,1-2.85-3c0-2,1.1-3.13,2.93-3.13a3.33,3.33,0,0,1,1.36.27l.08,0,.36-.62L59.31,47a3.85,3.85,0,0,0-5.42,3.5,3.38,3.38,0,0,0,3.48,3.73,4.73,4.73,0,0,0,2-.37l.12-.06-.35-.61Z" transform="translate(-10.01 -39.54)"/><path class="cls-1" d="M62.66,48.72a2.06,2.06,0,0,0-1.09.31,2,2,0,0,0-.5.42V46.68H60.3v7.46h.78V50.93a1.28,1.28,0,0,1,.06-.46,1.54,1.54,0,0,1,1.39-1c1.08,0,1.25,1,1.25,1.59v3.11h.78V51c0-2.13-1.59-2.24-1.9-2.24" transform="translate(-10.01 -39.54)"/><path class="cls-1" d="M71.5,47.7h-.78v1.18h-.85v.64h.85v3a1.92,1.92,0,0,0,.34,1.29,1.16,1.16,0,0,0,1,.41,1.94,1.94,0,0,0,.76-.14l.13,0-.33-.57h-.07a1.76,1.76,0,0,1-.42,0c-.42,0-.6-.27-.6-.9V49.52h1.44v-.64H71.5Z" transform="translate(-10.01 -39.54)"/><path class="cls-1" d="M78,46.75a8.73,8.73,0,0,0-1.54.14l-.11,0v7.24h.78v-3a3.87,3.87,0,0,0,.72,0,2.86,2.86,0,0,0,2.18-.83,2.11,2.11,0,0,0,.53-1.51A1.94,1.94,0,0,0,80,47.4a2.72,2.72,0,0,0-2-.65m-.88.75a4.82,4.82,0,0,1,.86-.06c1.14,0,1.79.54,1.79,1.48s-.69,1.59-1.89,1.59a3.26,3.26,0,0,1-.76-.07Z" transform="translate(-10.01 -39.54)"/><path class="cls-1" d="M89.16,48.83,87.9,52.18c-.1.26-.19.52-.27.75l-.25-.72-1.32-3.29,0-.09H85.2l1.94,4.85a.61.61,0,0,1,0,.17,1,1,0,0,1,0,.17,3.85,3.85,0,0,1-.81,1.22,2.78,2.78,0,0,1-.83.53l-.14,0,.59.61h0a3.33,3.33,0,0,0,.73-.53,7.71,7.71,0,0,0,1.74-3.12L90,49l0-.14Z" transform="translate(-10.01 -39.54)"/><path class="cls-1" d="M69.26,52.81v-2c0-1.39-.65-2.12-1.88-2.12a3,3,0,0,0-1.55.45l-.08,0,.34.59.09-.06a2.13,2.13,0,0,1,1.16-.33h0a1.05,1.05,0,0,1,.8.28,1.45,1.45,0,0,1,.33,1.06,3.58,3.58,0,0,0-2.58.77,1.67,1.67,0,0,0-.49,1.22A1.51,1.51,0,0,0,67,54.27a2.05,2.05,0,0,0,1.53-.65l.05.53h.75l0-.16a6.82,6.82,0,0,1-.08-1.18m-2.76-.87a2.75,2.75,0,0,1,1.89-.5h.09v.94a.69.69,0,0,1,0,.26,1.37,1.37,0,0,1-1.36.91.84.84,0,0,1-.87-.91,1,1,0,0,1,.3-.7" transform="translate(-10.01 -39.54)"/><path class="cls-1" d="M84.62,52.81v-2c0-1.39-.65-2.12-1.88-2.12a3,3,0,0,0-1.49.42l-.08,0,.33.58.08-.05a2.13,2.13,0,0,1,1.1-.3h0a1.07,1.07,0,0,1,.8.28,1.45,1.45,0,0,1,.33,1.06,3.58,3.58,0,0,0-2.58.77,1.67,1.67,0,0,0-.49,1.22,1.51,1.51,0,0,0,1.62,1.52,2.05,2.05,0,0,0,1.53-.65l0,.53h.75l0-.16a9.52,9.52,0,0,1-.06-1.18m-.78-.42a.87.87,0,0,1,0,.26,1.37,1.37,0,0,1-1.36.91.84.84,0,0,1-.87-.91.93.93,0,0,1,.28-.71,2.75,2.75,0,0,1,1.89-.5h.1Z" transform="translate(-10.01 -39.54)"/></svg>