<svg id="Layer_1" data-name="Layer 1" xmlns="http://www.w3.org/2000/svg" viewBox="0 0 80 64.82"><defs><style>.cls-1{fill:#55b948;}</style></defs><title>WeChat</title><path class="cls-1" d="M81.5,75.3C86.7,71.6,90,66.1,90,60c0-11.1-10.8-20.1-24.1-20.1S41.8,48.9,41.8,60,52.6,80.1,65.9,80.1a27.09,27.09,0,0,0,8.2-1.2,1.76,1.76,0,0,1,1.4.2l5.2,3c1.2.7,1.8.2,1.5-1.1L81,76.6A1.38,1.38,0,0,1,81.5,75.3ZM57.8,56.8a3.3,3.3,0,1,1,3.3-3.3A3.33,3.33,0,0,1,57.8,56.8Zm16,0a3.3,3.3,0,1,1,3.3-3.3A3.33,3.33,0,0,1,73.8,56.8Z" transform="translate(-10 -17.6)"/><path class="cls-1" d="M39,17.6c-16,0-29,10.8-29,24.1C10,49,13.9,55.6,20.1,60a1.62,1.62,0,0,1,.7,1.8L19.4,67c-.4,1.5.4,2.1,1.7,1.3l6.2-3.6a2.49,2.49,0,0,1,1.9-.2A34.64,34.64,0,0,0,39,65.9h1.6a19.74,19.74,0,0,1-1-5.9c0-12.1,11.9-22,26.6-22h1.5C65.5,26.4,53.5,17.6,39,17.6ZM29.3,37.8a3.9,3.9,0,1,1,3.9-3.9A4,4,0,0,1,29.3,37.8Zm19.4,0a3.9,3.9,0,1,1,3.9-3.9A4,4,0,0,1,48.7,37.8Z" transform="translate(-10 -17.6)"/></svg>