<svg xmlns="http://www.w3.org/2000/svg" viewBox="0 0 80 15.3"><defs><style>.cls-1{fill:#010101;}.cls-2{fill:#fedc00;}.cls-3{fill:#fff;}</style></defs><title>Westernunion</title><g id="Layer_2" data-name="Layer 2"><g id="Westernunion"><rect class="cls-1" width="80" height="15.3" rx="1.23" ry="1.23"/><polygon class="cls-2" points="2.65 1.92 4.45 1.92 4.88 5.13 4.9 5.13 5.37 1.92 7.46 1.92 7.93 5.13 7.95 5.13 8.38 1.92 10.18 1.92 9.08 7.02 6.9 7.02 6.42 3.72 6.41 3.72 5.94 7.02 3.75 7.02 2.65 1.92"/><polygon class="cls-2" points="11.36 1.92 15.23 1.92 15.23 3.25 13.29 3.25 13.29 3.79 15.09 3.79 15.09 5.12 13.29 5.12 13.29 5.69 15.3 5.69 15.3 7.02 11.36 7.02 11.36 1.92"/><path class="cls-2" d="M19.37,3.37c0-.32-.18-.42-.45-.42s-.46.14-.46.29.12.26.33.33A13.61,13.61,0,0,1,20.41,4a1.36,1.36,0,0,1,.92,1.34c0,1.25-1,1.77-2.46,1.77-1.22,0-2.35-.38-2.35-1.71h1.93a.62.62,0,0,0,.11.39A.46.46,0,0,0,19,6a.44.44,0,0,0,.49-.41c0-.19-.15-.29-.34-.35l-1.43-.42a1.29,1.29,0,0,1-1.06-1.36c0-1.06.85-1.66,2.34-1.66,1.27,0,2.23.4,2.23,1.58Z"/><polygon class="cls-2" points="23.68 3.29 22.42 3.29 22.42 1.92 26.95 1.92 26.95 3.29 25.7 3.29 25.7 7.02 23.68 7.02 23.68 3.29"/><polygon class="cls-2" points="28.26 1.92 32.14 1.92 32.14 3.25 30.2 3.25 30.2 3.79 31.99 3.79 31.99 5.12 30.2 5.12 30.2 5.69 32.2 5.69 32.2 7.02 28.26 7.02 28.26 1.92"/><path class="cls-2" d="M35.79,4.05c.38,0,.67-.14.67-.52s-.27-.45-.66-.45h-.18v1ZM33.64,1.92h3c1.1,0,1.74.34,1.74,1.3a1.14,1.14,0,0,1-1,1.21h0a.86.86,0,0,1,.86.65c.11.44.1,1.16.33,1.93h-2a12.65,12.65,0,0,1-.26-1.46c0-.26-.17-.35-.49-.35h-.23V7h-2Z"/><polygon class="cls-2" points="39.92 1.92 42.34 1.92 43.42 5.01 43.43 5.01 43.43 1.92 45.07 1.92 45.07 7.02 42.65 7.02 41.57 3.91 41.56 3.91 41.56 7.02 39.92 7.02 39.92 1.92"/><path class="cls-2" d="M21.29,11.41c0,1.23-.88,1.84-2.42,1.84s-2.42-.61-2.42-1.84V8h2v3.31c0,.4.19.55.4.55s.4-.15.4-.55V8h2Z"/><polygon class="cls-2" points="22.9 8.03 25.32 8.03 26.4 11.11 26.42 11.11 26.42 8.03 28.05 8.03 28.05 13.12 25.63 13.12 24.56 10.01 24.54 10.01 24.54 13.12 22.9 13.12 22.9 8.03"/><rect class="cls-2" x="29.71" y="8.02" width="2.02" height="5.09"/><path class="cls-2" d="M35.82,11.93c.31,0,.54-.18.54-1.36s-.21-1.35-.54-1.35-.54.2-.54,1.35.23,1.36.54,1.36m0-4a2.43,2.43,0,0,1,2.63,2.68,2.43,2.43,0,0,1-2.63,2.68,2.43,2.43,0,0,1-2.63-2.68,2.43,2.43,0,0,1,2.63-2.68"/><polygon class="cls-2" points="39.92 8.03 42.34 8.03 43.42 11.11 43.43 11.11 43.43 8.03 45.07 8.03 45.07 13.12 42.65 13.12 41.57 10.01 41.56 10.01 41.56 13.12 39.92 13.12 39.92 8.03"/><path class="cls-2" d="M64.06,1.85H63.2L62.24,9h0L61.16,1.85H56.5L55.44,9h0l-1-7.15h-4l2.46,11.36h4.88l1.05-7.36h0l1.06,7.36h4.88L65,12.08a3.78,3.78,0,0,1-1-2.68Z"/><path class="cls-3" d="M64.06,1.85V9.4a3.78,3.78,0,0,0,1,2.68L67.23,1.85Z"/><path class="cls-2" d="M70.36,1.85V9.22c0,.89-.43,1.24-.9,1.24s-.9-.35-.9-1.24V1.85h-1L65.33,12.36a6.41,6.41,0,0,0,4.13,1.16c3.43,0,5.4-1.38,5.4-4.12V1.85Z"/><polygon class="cls-2" points="47.47 1.85 46.8 1.85 49.21 13.21 49.88 13.21 47.47 1.85"/><polygon class="cls-2" points="51.05 13.21 51.72 13.21 49.3 1.85 48.63 1.85 51.05 13.21"/><path class="cls-2" d="M76.22,2.39a.12.12,0,0,0-.13-.11c-.06,0-.12,0-.12.1s.07.09.14.1.28.07.28.22-.16.25-.32.25-.3-.07-.29-.26h.16a.13.13,0,0,0,.13.14c.07,0,.15,0,.15-.1s-.11-.09-.17-.11-.25-.07-.25-.21.16-.25.31-.25a.23.23,0,0,1,.26.23Z"/><polygon class="cls-2" points="76.99 2.93 76.85 2.93 76.65 2.29 76.65 2.29 76.65 2.93 76.5 2.93 76.5 2.18 76.77 2.18 76.92 2.73 76.92 2.73 77.1 2.18 77.35 2.18 77.35 2.93 77.2 2.93 77.2 2.29 77.2 2.29 76.99 2.93"/></g></g></svg>