<svg xmlns="http://www.w3.org/2000/svg" viewBox="0 0 80 31.69"><defs><style>.cls-1{fill:#ec2427;}.cls-2{fill:#231f20;}</style></defs><title>Yandex</title><g id="Layer_2" data-name="Layer 2"><g id="Yandex"><g id="_Group_" data-name="&lt;Group&gt;"><path id="_Compound_Path_" data-name="&lt;Compound Path&gt;" class="cls-1" d="M10.54,15.25H9c-2.46,0-4.86-1.79-4.86-6.28,0-4.67,2.25-6.58,4.53-6.58h1.9ZM13,0H8.75C4.56,0,1,3.18,1,9.35c0,3.7,1.72,6.43,4.79,7.77L.07,27.44c-.18.34,0,.6.3.6H3a.44.44,0,0,0,.45-.26L8.67,17.65h1.87V27.78a.29.29,0,0,0,.26.26h2.32c.23,0,.3-.11.3-.3V.37C13.42.11,13.27,0,13,0"/><path id="_Path_" data-name="&lt;Path&gt;" class="cls-2" d="M27.06,9.29H24.74a.29.29,0,0,0-.29.27V16.7h-4.3V9.56c0-.19-.08-.27-.27-.27H17.57a.27.27,0,0,0-.3.27V27.73c0,.18.07.29.26.29h2.35a.27.27,0,0,0,.27-.29V19.05h4.3v8.68a.27.27,0,0,0,.29.29h2.32a.26.26,0,0,0,.26-.29V9.56a.26.26,0,0,0-.26-.27"/><path id="_Path_2" data-name="&lt;Path&gt;" class="cls-2" d="M80,26.83l-.3-1.27c0-.11-.08-.15-.19-.15a11,11,0,0,1-2.65.41c-2.84,0-4.23-2.73-4.23-7.07,0-3.81,1.16-7.59,3.1-7.59a3.06,3.06,0,0,1,2.17,1.09.4.4,0,0,0,.3.15c.11,0,.23-.08.34-.26l1-1.65a.62.62,0,0,0,.11-.34c0-.15-.15-.26-.37-.37a7.14,7.14,0,0,0-3.48-.93c-3.51,0-6.24,4.18-6.24,10.73,0,5.64,2.61,8.89,6.35,8.89a7.72,7.72,0,0,0,3.93-1.23.38.38,0,0,0,.15-.41"/><path id="_Path_3" data-name="&lt;Path&gt;" class="cls-2" d="M63.74,17.74l4.48-8.18c.08-.12,0-.27-.11-.27h-2.2a1,1,0,0,0-1.09.71l-3.36,7a1.81,1.81,0,0,1-.56.78V9.56c0-.15-.08-.27-.23-.27H58.24a.26.26,0,0,0-.22.27v18.2a.24.24,0,0,0,.22.26h2.43a.23.23,0,0,0,.23-.26V18.38a.85.85,0,0,1,.26.34l4.26,8.74a1,1,0,0,0,1,.56h2.39c.15,0,.19-.15.11-.26l-5.23-10"/><path id="_Compound_Path_2" data-name="&lt;Compound Path&gt;" class="cls-2" d="M38.28,25.67H32.86c1.9-3.25,2.65-6.92,2.91-11.4.08-1,.12-2,.12-2.62h2.39Zm4,0h-.45c-.56,0-.71-.22-.71-.67V9.56c0-.19-.08-.27-.23-.27H33.46a.27.27,0,0,0-.3.27V10.9c0,4.53-.26,10.36-2.66,14.77h-.82a.26.26,0,0,0-.3.3v5.46a.26.26,0,0,0,.26.26h1.8a.53.53,0,0,0,.56-.56V28h8v3.41a.25.25,0,0,0,.26.26h1.91c.22,0,.45-.19.45-.56V26a.28.28,0,0,0-.3-.3"/><path id="_Compound_Path_3" data-name="&lt;Compound Path&gt;" class="cls-2" d="M49.53,17c-.86,0-2.2.15-2.2.15A11.33,11.33,0,0,1,47.4,16c.34-3.18,1.12-4.79,2.43-4.79s1.94,1.65,2.13,4.53c0,.6,0,1.27,0,1.27Zm.41-8.11c-4,0-5.83,5.08-5.83,10.61s2.54,9,6.28,9a8.39,8.39,0,0,0,4.26-1.23.27.27,0,0,0,.15-.34l-.3-1.27c0-.15-.11-.22-.3-.22a11.13,11.13,0,0,1-2.76.41c-2.88,0-4.23-2.51-4.23-5.8v-.88s1.46.17,2.32.17H55V17.74c0-5.79-2.06-8.89-5.05-8.89"/></g></g></g></svg>