<svg xmlns="http://www.w3.org/2000/svg" viewBox="0 0 80 31.54"><defs><style>.cls-1{fill:#040404;}.cls-2{fill:#e42a26;}</style></defs><title>Yandex_eng</title><g id="Layer_2" data-name="Layer 2"><g id="Yandex_eng"><g id="g10"><path id="path38" class="cls-1" d="M35.21,12a7.76,7.76,0,0,0-3.74,1.34v-.86c0-.19-.08-.27-.27-.27H28.87a.27.27,0,0,0-.3.27V30.76c0,.19.07.3.26.3H31.2a.27.27,0,0,0,.27-.3V15.07a5.06,5.06,0,0,1,2.44-.7c1.27,0,2.28.63,2.28,1.93V30.76a.27.27,0,0,0,.3.3h2.33a.27.27,0,0,0,.27-.3V15.48C39.09,13.18,37.67,12,35.21,12Z"/><path id="path40" class="cls-1" d="M53.38,2.76H51a.27.27,0,0,0-.3.26v9.25a6.74,6.74,0,0,0-2.37-.53c-3.8,0-6.4,3.63-6.4,10.61,0,6,2.53,9.19,5.84,9.19A5.23,5.23,0,0,0,51.2,30l.51.87a.31.31,0,0,0,.33.2h1.34a.27.27,0,0,0,.27-.3V3c0-.19-.08-.26-.27-.26Zm-8.32,19c0-3.85,1.12-7.66,3.42-7.66a3.55,3.55,0,0,1,2.26.84V28.47a4.34,4.34,0,0,1-2.08.61C46.16,29.08,45.06,26.11,45.06,21.74Z"/><path id="path42" class="cls-1" d="M62.33,11.78c-3.89,0-5.81,5.09-5.81,10.64,0,5.8,2.74,9,6.26,9a8.92,8.92,0,0,0,4.1-1.17.29.29,0,0,0,.15-.36l-.3-1.22a.27.27,0,0,0-.3-.23,12.29,12.29,0,0,1-2.6.38c-2.88,0-4.2-2.57-4.2-6v-.83a21.72,21.72,0,0,0,2.29.2h5.44V20.69c0-5.8-2-8.91-5-8.91Zm-.19,8.13c-.86,0-2.42.21-2.42.21s0-.62.09-1.22c.34-3.19,1.1-4.8,2.41-4.8,1.14,0,1.92,1.65,2.11,4.53,0,.6,0,1.28,0,1.28Z"/><path id="path44" class="cls-1" d="M24.13,14.16A4.43,4.43,0,0,0,20,11.71a11.71,11.71,0,0,0-4.08,1c-.23.1-.38.19-.38.37a.73.73,0,0,0,.12.34l.79,1.71a.33.33,0,0,0,.32.23.55.55,0,0,0,.32-.12,5.6,5.6,0,0,1,2.67-1.14,2,2,0,0,1,1.85,1.47,8.89,8.89,0,0,1,.48,3.27v.38a6,6,0,0,0-2.61-.7c-3.38,0-5.2,3.21-5.2,6.64,0,3.7,2.13,6.41,4.69,6.41a4.79,4.79,0,0,0,3.57-1.89s.46,1.1.52,1.23a.27.27,0,0,0,.3.18h1.37a.26.26,0,0,0,.26-.3V20.13c0-2.62-.13-4.61-.82-6ZM22.05,28.09a3.25,3.25,0,0,1-2.2,1,2,2,0,0,1-1.72-1,5.51,5.51,0,0,1-.8-3.19c0-2,.75-4.1,2.33-4.1a3.83,3.83,0,0,1,2.39.84v6.42Z"/><path id="path46" class="cls-1" d="M79.7,12.16H77.61a.4.4,0,0,0-.41.28l-1.37,3.63c-.26.69-1,2.65-1,2.65H74.8s-.51-1.43-.79-2.14-1.38-3.64-1.53-4c-.07-.21-.16-.41-.46-.41H69.74a.34.34,0,0,0-.31.45c.08.17,3.71,8.45,3.71,8.45s-3.9,9.27-4,9.48a.35.35,0,0,0,.3.52h2c.34,0,.48-.18.58-.47.29-.8.71-1.92,1.32-3.65.4-1.15,1-3.16,1-3.16h.06s.7,2,1,2.72c.65,1.7,1.49,3.91,1.57,4.14s.23.42.46.42h2.27c.22,0,.32-.26.22-.48-.25-.53-2.41-5.77-3.9-9.21,0,0,3.88-8.56,3.95-8.77s.06-.44-.26-.44Z"/><path id="path48" class="cls-2" d="M16.6,0H14a.38.38,0,0,0-.41.28c0,.17-3.94,12.08-4.22,13.08-.2.7-.86,3.18-1,3.78L7,13.43c-.33-1-3.5-9.87-3.59-10.22s-.14-.44-.48-.44H.33A.34.34,0,0,0,0,3.22c.07.13,4.7,12.47,6.57,17.18V30.76c0,.19.08.3.26.3H9.28a.27.27,0,0,0,.27-.3V20.48c1.56-4.36,7.26-19.87,7.32-20S16.92,0,16.6,0Z"/></g></g></g></svg>