<?xml version="1.0" encoding="utf-8"?>
<!-- Generator: Adobe Illustrator 24.1.2, SVG Export Plug-In . SVG Version: 6.00 Build 0)  -->
<svg version="1.1" id="Layer_1" xmlns="http://www.w3.org/2000/svg" xmlns:xlink="http://www.w3.org/1999/xlink" x="0px" y="0px"
	 viewBox="0 0 50 12" style="enable-background:new 0 0 50 12;" xml:space="preserve">
<style type="text/css">
	.st0{display:none;}
	.st1{display:inline;}
	.st2{fill:#231F20;}
	.st3{fill-rule:evenodd;clip-rule:evenodd;fill:#00B7F1;}
	.st4{fill-rule:evenodd;clip-rule:evenodd;fill:#BBBDBF;}
	.st5{fill-rule:evenodd;clip-rule:evenodd;fill:#231F20;}
	.st6{fill:none;stroke:#231F20;stroke-width:0.2198;stroke-miterlimit:10;}
	.st7{fill:#FFFFFF;}
	.st8{fill-rule:evenodd;clip-rule:evenodd;fill:#FFFFFF;}
	.st9{fill:none;stroke:#FFFFFF;stroke-width:0.2198;stroke-miterlimit:10;}
</style>
<g class="st0">
	<g class="st1">
		<g>
			<path class="st2" d="M30.16,10c0,0.77-0.47,1.18-1.04,1.18c-0.59,0-1.01-0.46-1.01-1.14c0-0.71,0.44-1.18,1.04-1.18
				C29.76,8.87,30.16,9.34,30.16,10z M28.42,10.04c0,0.48,0.26,0.91,0.72,0.91c0.46,0,0.72-0.42,0.72-0.93
				c0-0.45-0.23-0.91-0.71-0.91C28.66,9.11,28.42,9.55,28.42,10.04z"/>
			<path class="st2" d="M30.42,9.97c0-0.17,0-0.3-0.01-0.44h0.26l0.02,0.27h0.01c0.08-0.15,0.27-0.3,0.53-0.3
				c0.22,0,0.57,0.13,0.57,0.69v0.96H31.5v-0.93c0-0.26-0.1-0.48-0.37-0.48c-0.19,0-0.34,0.14-0.39,0.3
				c-0.01,0.04-0.02,0.09-0.02,0.14v0.97h-0.29V9.97z"/>
			<path class="st2" d="M32.09,8.79h0.29v2.36h-0.29V8.79z"/>
			<path class="st2" d="M33.17,9.09c0,0.1-0.07,0.18-0.19,0.18c-0.1,0-0.18-0.08-0.18-0.18c0-0.1,0.08-0.18,0.18-0.18
				C33.1,8.9,33.17,8.98,33.17,9.09z M32.84,11.15V9.54h0.29v1.61H32.84z"/>
			<path class="st2" d="M33.59,9.97c0-0.17,0-0.3-0.01-0.44h0.26l0.02,0.27h0.01c0.08-0.15,0.27-0.3,0.53-0.3
				c0.22,0,0.57,0.13,0.57,0.69v0.96h-0.29v-0.93c0-0.26-0.1-0.48-0.37-0.48c-0.19,0-0.34,0.14-0.39,0.3
				c-0.01,0.04-0.02,0.09-0.02,0.14v0.97h-0.29V9.97z"/>
			<path class="st2" d="M35.63,10.4c0.01,0.4,0.26,0.56,0.55,0.56c0.21,0,0.34-0.04,0.45-0.08l0.05,0.21
				c-0.1,0.05-0.28,0.1-0.54,0.1c-0.5,0-0.79-0.33-0.79-0.81S35.63,9.5,36.1,9.5c0.53,0,0.67,0.46,0.67,0.76
				c0,0.06-0.01,0.11-0.01,0.14H35.63z M36.48,10.19c0-0.19-0.08-0.48-0.41-0.48c-0.3,0-0.43,0.27-0.45,0.48H36.48z"/>
			<path class="st2" d="M38.2,9.15h-0.68V8.91h1.66v0.25h-0.68v2H38.2V9.15z"/>
			<path class="st2" d="M39.29,10.04c0-0.19,0-0.35-0.01-0.5h0.26l0.01,0.32h0.01c0.07-0.22,0.25-0.35,0.45-0.35
				c0.03,0,0.06,0,0.08,0.01v0.28c-0.03-0.01-0.06-0.01-0.1-0.01c-0.21,0-0.35,0.16-0.39,0.38c-0.01,0.04-0.01,0.09-0.01,0.14v0.86
				h-0.29V10.04z"/>
			<path class="st2" d="M41.29,11.15l-0.02-0.2h-0.01c-0.09,0.13-0.26,0.24-0.49,0.24c-0.33,0-0.49-0.23-0.49-0.46
				c0-0.39,0.35-0.6,0.97-0.6v-0.03c0-0.13-0.04-0.37-0.37-0.37c-0.15,0-0.31,0.05-0.42,0.12l-0.07-0.19
				c0.13-0.09,0.33-0.14,0.53-0.14c0.49,0,0.61,0.34,0.61,0.66v0.6c0,0.14,0.01,0.28,0.03,0.39H41.29z M41.25,10.33
				c-0.32-0.01-0.68,0.05-0.68,0.36c0,0.19,0.13,0.28,0.28,0.28c0.21,0,0.34-0.13,0.39-0.27c0.01-0.03,0.02-0.06,0.02-0.09V10.33z"
				/>
			<path class="st2" d="M43.42,8.79v1.95c0,0.14,0,0.31,0.01,0.42h-0.26l-0.01-0.28h-0.01c-0.09,0.18-0.29,0.32-0.55,0.32
				c-0.39,0-0.69-0.33-0.69-0.82c0-0.54,0.33-0.87,0.72-0.87c0.25,0,0.41,0.12,0.49,0.25h0.01V8.79H43.42z M43.13,10.19
				c0-0.04,0-0.09-0.01-0.12c-0.04-0.19-0.2-0.34-0.42-0.34c-0.3,0-0.48,0.27-0.48,0.62c0,0.33,0.16,0.6,0.48,0.6
				c0.2,0,0.38-0.13,0.43-0.35c0.01-0.04,0.01-0.08,0.01-0.13V10.19z"/>
			<path class="st2" d="M44.19,9.09c0,0.1-0.07,0.18-0.19,0.18c-0.1,0-0.18-0.08-0.18-0.18c0-0.1,0.08-0.18,0.18-0.18
				C44.13,8.9,44.19,8.98,44.19,9.09z M43.87,11.15V9.54h0.29v1.61H43.87z"/>
			<path class="st2" d="M44.68,9.97c0-0.17,0-0.3-0.01-0.44h0.26l0.02,0.27h0.01c0.08-0.15,0.27-0.3,0.53-0.3
				c0.22,0,0.57,0.13,0.57,0.69v0.96h-0.29v-0.93c0-0.26-0.1-0.48-0.37-0.48c-0.19,0-0.34,0.14-0.39,0.3
				c-0.01,0.04-0.02,0.09-0.02,0.14v0.97h-0.29V9.97z"/>
			<path class="st2" d="M47.81,9.54c-0.01,0.12-0.01,0.25-0.01,0.44v0.94c0,0.37-0.07,0.59-0.23,0.73
				c-0.16,0.15-0.38,0.19-0.58,0.19c-0.19,0-0.41-0.05-0.54-0.13l0.07-0.22c0.11,0.07,0.27,0.13,0.47,0.13
				c0.3,0,0.52-0.16,0.52-0.56v-0.18H47.5c-0.09,0.15-0.26,0.27-0.51,0.27c-0.4,0-0.69-0.34-0.69-0.79c0-0.54,0.36-0.85,0.73-0.85
				c0.28,0,0.43,0.15,0.5,0.28h0.01l0.01-0.24H47.81z M47.51,10.17c0-0.05,0-0.09-0.02-0.13c-0.05-0.17-0.2-0.31-0.41-0.31
				c-0.28,0-0.48,0.24-0.48,0.61c0,0.32,0.16,0.58,0.48,0.58c0.18,0,0.34-0.11,0.41-0.3c0.02-0.05,0.02-0.11,0.02-0.16V10.17z"/>
		</g>
		<path class="st3" d="M45.02,7.43C45,7.41,43.59,5.64,42.17,3.87c1.43-1.79,2.86-3.58,2.88-3.6c0.03-0.03,0-0.1-0.04-0.1l-1.46,0
			c-0.15,0.01-0.17,0.08-0.24,0.15c-0.02,0.02-0.91,1.14-1.99,2.49l0,0l-0.85,1.06c0,0,2.82,3.53,2.85,3.58
			c0.07,0.1,0.14,0.17,0.23,0.17l1.4,0C45.05,7.63,45.11,7.53,45.02,7.43z"/>
		<path class="st4" d="M47.97,7.43c-0.02-0.02-1.43-1.79-2.85-3.56c1.43-1.79,2.86-3.58,2.88-3.6c0.03-0.03,0-0.1-0.04-0.1l-1.46,0
			c-0.15,0.01-0.17,0.08-0.24,0.15c-0.02,0.02-0.91,1.14-1.99,2.49l0,0l-0.85,1.06c0,0,2.82,3.53,2.85,3.58
			c0.07,0.1,0.14,0.17,0.23,0.17l1.4,0C48.01,7.63,48.07,7.53,47.97,7.43z"/>
		<path class="st5" d="M1.85,7.56c0,0.05-0.04,0.08-0.08,0.08H0.58C0.54,7.64,0.5,7.6,0.5,7.56v-5.3c0-0.05,0.04-0.08,0.08-0.08
			h1.18c0.05,0,0.08,0.04,0.08,0.08V7.56z"/>
		<path class="st5" d="M1.85,1.43c0,0.05-0.04,0.08-0.08,0.08H0.58c-0.05,0-0.08-0.04-0.08-0.08V0.28c0-0.05,0.04-0.08,0.08-0.08
			h1.18c0.05,0,0.08,0.04,0.08,0.08V1.43z"/>
		<path class="st5" d="M10.16,0.19H4.38H4.06H3.19c-0.05,0-0.08,0.04-0.08,0.08v7.28c0,0.05,0.04,0.08,0.08,0.08h1.18
			c0.05,0,0.08-0.04,0.08-0.08V4.57h4.4c0.05,0,0.08-0.04,0.08-0.08V3.31c0-0.05-0.04-0.08-0.08-0.08h-4.4V1.55h5.7
			c0.05,0,0.08-0.04,0.08-0.08V0.28C10.24,0.23,10.2,0.19,10.16,0.19z"/>
		<path class="st5" d="M42.06,7.45c-0.02-0.02-1.43-1.79-2.85-3.56c1.43-1.79,2.86-3.58,2.88-3.6c0.03-0.04,0-0.1-0.04-0.1l-1.46,0
			c-0.15,0.01-0.17,0.08-0.24,0.15c-0.02,0.02-0.91,1.14-1.99,2.49c-1.08-1.35-1.97-2.47-1.99-2.49c-0.06-0.07-0.09-0.14-0.24-0.15
			l-1.46,0c-0.05,0-0.07,0.06-0.04,0.1c0.02,0.02,1.45,1.81,2.88,3.6c-1.41,1.77-2.83,3.54-2.85,3.56c-0.09,0.1-0.03,0.2,0.07,0.19
			l1.4,0c0.09,0,0.16-0.07,0.23-0.17c0.03-0.04,0.93-1.16,2-2.51c1.08,1.35,1.98,2.47,2,2.51c0.07,0.1,0.14,0.17,0.23,0.17l1.4,0
			C42.09,7.65,42.15,7.55,42.06,7.45z"/>
		<path class="st5" d="M34.08,1.55c0.05,0,0.08-0.04,0.08-0.08V0.28c0-0.05-0.04-0.08-0.08-0.08h-5.78h-0.31h-0.87
			c-0.05,0-0.08,0.04-0.08,0.08v7.28c0,0.05,0.04,0.08,0.08,0.08h0.87h0.31h5.78c0.05,0,0.08-0.04,0.08-0.08V6.37
			c0-0.05-0.04-0.08-0.08-0.08h-5.7V4.57h4.4c0.05,0,0.08-0.04,0.08-0.08V3.31c0-0.05-0.04-0.08-0.08-0.08h-4.4V1.55H34.08z"/>
		<path class="st5" d="M13.97,0.02c-2.18,0-3.94,1.74-3.94,3.88c0,2.14,1.77,3.88,3.94,3.88c2.18,0,3.94-1.74,3.94-3.88
			C17.92,1.76,16.15,0.02,13.97,0.02z M13.97,6.56c-1.38,0-2.5-1.19-2.5-2.66c0-1.47,1.12-2.66,2.5-2.66c1.38,0,2.5,1.19,2.5,2.66
			C16.47,5.37,15.35,6.56,13.97,6.56z"/>
		<path class="st2" d="M24.88,4.29c0.63-0.41,1.04-1.09,1.04-1.84c0-1.22-1.09-2.26-2.43-2.26h-2.34h-1.14h-0.18h-1.01
			c-0.05,0-0.08,0.04-0.08,0.08v7.28c0,0.05,0.04,0.08,0.08,0.08h1.18c0.05,0,0.08-0.04,0.08-0.08V4.7h1.11h1.78
			c0.65,0,1.46,0.75,1.46,1.29c0,0.07,0,0.36,0,0.39v1.17c0,0.05,0.04,0.08,0.08,0.08h1.18c0.05,0,0.08-0.04,0.08-0.08V6.38
			c0-0.03-0.02-0.53-0.02-0.74C25.78,5,25.42,4.57,24.88,4.29z M20.1,1.44h3.4c0.65,0,1.14,0.49,1.14,1.03
			c0,0.54-0.46,1.04-1.11,1.04H20.1V1.44z"/>
	</g>
	<g class="st1">
		<g>
			<path class="st2" d="M48.61,1.11V0.35h0.33c0.07,0,0.12,0.01,0.15,0.02c0.04,0.01,0.06,0.04,0.08,0.07
				c0.02,0.03,0.03,0.07,0.03,0.11c0,0.05-0.02,0.1-0.05,0.14c-0.03,0.04-0.09,0.06-0.16,0.07c0.03,0.01,0.05,0.03,0.06,0.04
				c0.03,0.03,0.06,0.06,0.08,0.1l0.13,0.2h-0.13l-0.1-0.16c-0.03-0.04-0.05-0.08-0.07-0.1c-0.02-0.02-0.04-0.04-0.05-0.05
				c-0.01-0.01-0.03-0.02-0.05-0.02c-0.01,0-0.03,0-0.06,0h-0.11v0.33H48.61z M48.71,0.69h0.21c0.05,0,0.08,0,0.11-0.01
				c0.03-0.01,0.05-0.02,0.06-0.05C49.1,0.6,49.1,0.58,49.1,0.56c0-0.04-0.01-0.07-0.04-0.09C49.04,0.45,49,0.44,48.94,0.44h-0.24
				V0.69z"/>
		</g>
		<path class="st6" d="M49.5,0.76c0,0.33-0.27,0.6-0.6,0.6c-0.33,0-0.6-0.27-0.6-0.6c0-0.33,0.27-0.6,0.6-0.6
			C49.23,0.16,49.5,0.43,49.5,0.76z"/>
	</g>
</g>
<g>
	<g>
		<g>
			<path class="st7" d="M30.16,10c0,0.77-0.47,1.18-1.04,1.18c-0.59,0-1.01-0.46-1.01-1.14c0-0.71,0.44-1.18,1.04-1.18
				C29.76,8.87,30.16,9.34,30.16,10z M28.42,10.04c0,0.48,0.26,0.91,0.72,0.91c0.46,0,0.72-0.42,0.72-0.93
				c0-0.45-0.23-0.91-0.71-0.91C28.66,9.11,28.42,9.55,28.42,10.04z"/>
			<path class="st7" d="M30.42,9.97c0-0.17,0-0.3-0.01-0.44h0.26l0.02,0.27h0.01c0.08-0.15,0.27-0.3,0.53-0.3
				c0.22,0,0.57,0.13,0.57,0.69v0.96H31.5v-0.93c0-0.26-0.1-0.48-0.37-0.48c-0.19,0-0.34,0.14-0.39,0.3
				c-0.01,0.04-0.02,0.09-0.02,0.14v0.97h-0.29V9.97z"/>
			<path class="st7" d="M32.09,8.79h0.29v2.36h-0.29V8.79z"/>
			<path class="st7" d="M33.17,9.08c0,0.1-0.07,0.18-0.19,0.18c-0.1,0-0.18-0.08-0.18-0.18c0-0.1,0.08-0.18,0.18-0.18
				C33.1,8.9,33.17,8.98,33.17,9.08z M32.84,11.15V9.54h0.29v1.61H32.84z"/>
			<path class="st7" d="M33.59,9.97c0-0.17,0-0.3-0.01-0.44h0.26l0.02,0.27h0.01c0.08-0.15,0.27-0.3,0.53-0.3
				c0.22,0,0.57,0.13,0.57,0.69v0.96h-0.29v-0.93c0-0.26-0.1-0.48-0.37-0.48c-0.19,0-0.34,0.14-0.39,0.3
				c-0.01,0.04-0.02,0.09-0.02,0.14v0.97h-0.29V9.97z"/>
			<path class="st7" d="M35.63,10.4c0.01,0.4,0.26,0.56,0.55,0.56c0.21,0,0.34-0.04,0.45-0.08l0.05,0.21
				c-0.1,0.05-0.28,0.1-0.54,0.1c-0.5,0-0.79-0.33-0.79-0.81S35.63,9.5,36.1,9.5c0.53,0,0.67,0.46,0.67,0.76
				c0,0.06-0.01,0.11-0.01,0.14H35.63z M36.48,10.19c0-0.19-0.08-0.48-0.41-0.48c-0.3,0-0.43,0.27-0.45,0.48H36.48z"/>
			<path class="st7" d="M38.2,9.15h-0.68V8.91h1.66v0.25h-0.68v2H38.2V9.15z"/>
			<path class="st7" d="M39.29,10.04c0-0.19,0-0.35-0.01-0.5h0.26l0.01,0.32h0.01c0.07-0.22,0.25-0.35,0.45-0.35
				c0.03,0,0.06,0,0.08,0.01v0.28c-0.03-0.01-0.06-0.01-0.1-0.01c-0.21,0-0.35,0.16-0.39,0.38c-0.01,0.04-0.01,0.09-0.01,0.14v0.86
				h-0.29V10.04z"/>
			<path class="st7" d="M41.29,11.15l-0.02-0.2h-0.01c-0.09,0.13-0.26,0.24-0.49,0.24c-0.33,0-0.49-0.23-0.49-0.46
				c0-0.39,0.35-0.6,0.97-0.6v-0.03c0-0.13-0.04-0.37-0.37-0.37c-0.15,0-0.31,0.05-0.42,0.12l-0.07-0.19
				c0.13-0.09,0.33-0.14,0.53-0.14c0.49,0,0.61,0.34,0.61,0.66v0.6c0,0.14,0.01,0.28,0.03,0.39H41.29z M41.25,10.33
				c-0.32-0.01-0.68,0.05-0.68,0.36c0,0.19,0.13,0.28,0.28,0.28c0.21,0,0.34-0.13,0.39-0.27c0.01-0.03,0.02-0.06,0.02-0.09V10.33z"
				/>
			<path class="st7" d="M43.42,8.79v1.95c0,0.14,0,0.31,0.01,0.42h-0.26l-0.01-0.28h-0.01c-0.09,0.18-0.29,0.32-0.55,0.32
				c-0.39,0-0.69-0.33-0.69-0.82c0-0.54,0.33-0.87,0.72-0.87c0.25,0,0.41,0.12,0.49,0.25h0.01V8.79H43.42z M43.13,10.19
				c0-0.04,0-0.09-0.01-0.12c-0.04-0.19-0.2-0.34-0.42-0.34c-0.3,0-0.48,0.27-0.48,0.62c0,0.33,0.16,0.6,0.48,0.6
				c0.2,0,0.38-0.13,0.43-0.35c0.01-0.04,0.01-0.08,0.01-0.13V10.19z"/>
			<path class="st7" d="M44.19,9.08c0,0.1-0.07,0.18-0.19,0.18c-0.1,0-0.18-0.08-0.18-0.18c0-0.1,0.08-0.18,0.18-0.18
				C44.13,8.9,44.19,8.98,44.19,9.08z M43.87,11.15V9.54h0.29v1.61H43.87z"/>
			<path class="st7" d="M44.68,9.97c0-0.17,0-0.3-0.01-0.44h0.26l0.02,0.27h0.01c0.08-0.15,0.27-0.3,0.53-0.3
				c0.22,0,0.57,0.13,0.57,0.69v0.96h-0.29v-0.93c0-0.26-0.1-0.48-0.37-0.48c-0.19,0-0.34,0.14-0.39,0.3
				c-0.01,0.04-0.02,0.09-0.02,0.14v0.97h-0.29V9.97z"/>
			<path class="st7" d="M47.81,9.54c-0.01,0.12-0.01,0.25-0.01,0.44v0.94c0,0.37-0.07,0.59-0.23,0.73
				c-0.16,0.15-0.38,0.19-0.58,0.19c-0.19,0-0.41-0.05-0.54-0.13l0.07-0.22c0.11,0.07,0.27,0.13,0.47,0.13
				c0.3,0,0.52-0.16,0.52-0.56v-0.18H47.5c-0.09,0.15-0.26,0.27-0.51,0.27c-0.4,0-0.69-0.34-0.69-0.79c0-0.54,0.36-0.85,0.73-0.85
				c0.28,0,0.43,0.15,0.5,0.28h0.01l0.01-0.24H47.81z M47.51,10.17c0-0.05,0-0.09-0.02-0.13c-0.05-0.17-0.2-0.31-0.41-0.31
				c-0.28,0-0.48,0.24-0.48,0.61c0,0.32,0.16,0.58,0.48,0.58c0.18,0,0.34-0.11,0.41-0.3c0.02-0.05,0.02-0.11,0.02-0.16V10.17z"/>
		</g>
		<path class="st3" d="M45.02,7.43C45,7.41,43.59,5.64,42.17,3.87c1.43-1.79,2.86-3.58,2.88-3.6c0.03-0.03,0-0.1-0.04-0.1l-1.46,0
			c-0.15,0.01-0.17,0.08-0.24,0.15c-0.02,0.02-0.91,1.14-1.99,2.49l0,0l-0.85,1.06c0,0,2.82,3.53,2.85,3.58
			c0.07,0.1,0.14,0.17,0.23,0.17l1.4,0C45.05,7.63,45.11,7.53,45.02,7.43z"/>
		<path class="st4" d="M47.97,7.43c-0.02-0.02-1.43-1.79-2.85-3.56c1.43-1.79,2.86-3.58,2.88-3.6c0.03-0.03,0-0.1-0.04-0.1l-1.46,0
			c-0.15,0.01-0.17,0.08-0.24,0.15c-0.02,0.02-0.91,1.14-1.99,2.49l0,0l-0.85,1.06c0,0,2.82,3.53,2.85,3.58
			c0.07,0.1,0.14,0.17,0.23,0.17l1.4,0C48.01,7.63,48.07,7.53,47.97,7.43z"/>
		<path class="st8" d="M1.85,7.56c0,0.05-0.04,0.08-0.08,0.08H0.58C0.54,7.64,0.5,7.6,0.5,7.56v-5.3c0-0.05,0.04-0.08,0.08-0.08
			h1.18c0.05,0,0.08,0.04,0.08,0.08V7.56z"/>
		<path class="st8" d="M1.85,1.43c0,0.05-0.04,0.08-0.08,0.08H0.58c-0.05,0-0.08-0.04-0.08-0.08V0.28c0-0.05,0.04-0.08,0.08-0.08
			h1.18c0.05,0,0.08,0.04,0.08,0.08V1.43z"/>
		<path class="st8" d="M10.16,0.19H4.38H4.06H3.19c-0.05,0-0.08,0.04-0.08,0.08v7.28c0,0.05,0.04,0.08,0.08,0.08h1.18
			c0.05,0,0.08-0.04,0.08-0.08V4.57h4.4c0.05,0,0.08-0.04,0.08-0.08V3.31c0-0.05-0.04-0.08-0.08-0.08h-4.4V1.55h5.7
			c0.05,0,0.08-0.04,0.08-0.08V0.28C10.24,0.23,10.2,0.19,10.16,0.19z"/>
		<path class="st8" d="M42.06,7.45c-0.02-0.02-1.43-1.79-2.85-3.56c1.43-1.79,2.86-3.58,2.88-3.6c0.03-0.04,0-0.1-0.04-0.1l-1.46,0
			c-0.15,0.01-0.17,0.08-0.24,0.15c-0.02,0.02-0.91,1.14-1.99,2.49c-1.08-1.35-1.97-2.47-1.99-2.49c-0.06-0.07-0.09-0.14-0.24-0.15
			l-1.46,0c-0.05,0-0.07,0.06-0.04,0.1c0.02,0.02,1.45,1.81,2.88,3.6c-1.41,1.77-2.83,3.54-2.85,3.56c-0.09,0.1-0.03,0.2,0.07,0.19
			l1.4,0c0.09,0,0.16-0.07,0.23-0.17c0.03-0.04,0.93-1.16,2-2.51c1.08,1.35,1.98,2.47,2,2.51c0.07,0.1,0.14,0.17,0.23,0.17l1.4,0
			C42.09,7.65,42.15,7.55,42.06,7.45z"/>
		<path class="st8" d="M34.08,1.55c0.05,0,0.08-0.04,0.08-0.08V0.28c0-0.05-0.04-0.08-0.08-0.08h-5.78h-0.31h-0.87
			c-0.05,0-0.08,0.04-0.08,0.08v7.28c0,0.05,0.04,0.08,0.08,0.08h0.87h0.31h5.78c0.05,0,0.08-0.04,0.08-0.08V6.37
			c0-0.05-0.04-0.08-0.08-0.08h-5.7V4.57h4.4c0.05,0,0.08-0.04,0.08-0.08V3.31c0-0.05-0.04-0.08-0.08-0.08h-4.4V1.55H34.08z"/>
		<path class="st8" d="M13.97,0.02c-2.18,0-3.94,1.74-3.94,3.88c0,2.14,1.77,3.88,3.94,3.88c2.18,0,3.94-1.74,3.94-3.88
			C17.92,1.76,16.15,0.02,13.97,0.02z M13.97,6.56c-1.38,0-2.5-1.19-2.5-2.66c0-1.47,1.12-2.66,2.5-2.66c1.38,0,2.5,1.19,2.5,2.66
			C16.47,5.37,15.35,6.56,13.97,6.56z"/>
		<path class="st7" d="M24.88,4.29c0.63-0.41,1.04-1.09,1.04-1.84c0-1.22-1.09-2.26-2.43-2.26h-2.34h-1.14h-0.18h-1.01
			c-0.05,0-0.08,0.04-0.08,0.08v7.28c0,0.05,0.04,0.08,0.08,0.08h1.18c0.05,0,0.08-0.04,0.08-0.08V4.7h1.11h1.78
			c0.65,0,1.46,0.75,1.46,1.29c0,0.07,0,0.36,0,0.39v1.17c0,0.05,0.04,0.08,0.08,0.08h1.18c0.05,0,0.08-0.04,0.08-0.08V6.39
			c0-0.03-0.02-0.53-0.02-0.74C25.78,5,25.42,4.57,24.88,4.29z M20.1,1.44h3.4c0.65,0,1.14,0.49,1.14,1.03
			c0,0.54-0.46,1.04-1.11,1.04H20.1V1.44z"/>
	</g>
	<g>
		<g>
			<path class="st7" d="M48.61,1.11V0.35h0.33c0.07,0,0.12,0.01,0.15,0.02c0.04,0.01,0.06,0.04,0.08,0.07
				c0.02,0.03,0.03,0.07,0.03,0.11c0,0.05-0.02,0.1-0.05,0.14c-0.03,0.04-0.09,0.06-0.16,0.07c0.03,0.01,0.05,0.03,0.06,0.04
				c0.03,0.03,0.06,0.06,0.08,0.1l0.13,0.2h-0.13l-0.1-0.16c-0.03-0.04-0.05-0.08-0.07-0.1c-0.02-0.02-0.04-0.04-0.05-0.05
				c-0.01-0.01-0.03-0.02-0.05-0.02c-0.01,0-0.03,0-0.06,0h-0.12v0.33H48.61z M48.71,0.69h0.21c0.05,0,0.08,0,0.11-0.01
				c0.03-0.01,0.04-0.02,0.06-0.05c0.01-0.02,0.02-0.04,0.02-0.07c0-0.04-0.01-0.07-0.04-0.09C49.04,0.45,49,0.44,48.94,0.44h-0.24
				V0.69z"/>
		</g>
		<path class="st9" d="M49.5,0.76c0,0.33-0.27,0.6-0.6,0.6c-0.33,0-0.6-0.27-0.6-0.6c0-0.33,0.27-0.6,0.6-0.6
			C49.23,0.16,49.5,0.43,49.5,0.76z"/>
	</g>
</g>
</svg>
