<?xml version="1.0" standalone="no"?>
<!DOCTYPE svg PUBLIC "-//W3C//DTD SVG 1.1//EN" "http://www.w3.org/Graphics/SVG/1.1/DTD/svg11.dtd" >
<svg xmlns="http://www.w3.org/2000/svg">
<metadata>Generated by IcoMoon</metadata>
<defs>
<font id="instruments" horiz-adv-x="1024">
<font-face units-per-em="1024" ascent="960" descent="-64" />
<missing-glyph horiz-adv-x="1024" />
<glyph unicode="&#x20;" horiz-adv-x="512" d="" />
<glyph unicode="&#xe900;" glyph-name="ico-wb-arrow-right" d="M366.496 262.816l195.424 195.84-195.424 195.84 60.16 60.16 256-256-256-256z" />
<glyph unicode="&#xe901;" glyph-name="icon-send-email" d="M815.787 533.333h-218.453v-44.373h-170.667v44.373h-218.453l303.787-269.653zM849.92 506.027l-215.040-191.147 211.627-184.32c3.413 6.827 6.827 13.653 6.827 20.48v341.333c0 3.413 0 6.827-3.413 13.653zM174.080 506.027c-3.413-3.413-3.413-10.24-3.413-17.067v-341.333c0-6.827 0-13.653 3.413-17.067l215.040 184.32-215.040 191.147zM512 205.653l-92.16 81.92-208.213-180.907h597.333l-204.8 180.907zM471.040 533.333h85.333v85.333h126.293l-170.667 170.667-170.667-170.667h129.707z" />
<glyph unicode="&#xe902;" glyph-name="filed_price_alert" d="M512 21.333c46.933 0 85.333 38.4 85.333 85.333h-170.667c0-46.933 37.973-85.333 85.333-85.333zM768 277.333v213.333c0 130.987-69.973 240.64-192 269.653v29.013c0 35.413-28.587 64-64 64s-64-28.587-64-64v-29.013c-122.453-29.013-192-138.24-192-269.653v-213.333l-85.333-85.333v-42.667h682.667v42.667l-85.333 85.333z" />
<glyph unicode="&#xe903;" glyph-name="outline_price_alert" d="M512 21.333c46.933 0 85.333 38.4 85.333 85.333h-170.667c0-46.933 38.4-85.333 85.333-85.333zM768 277.333v213.333c0 130.987-69.547 240.64-192 269.653v29.013c0 35.413-28.587 64-64 64s-64-28.587-64-64v-29.013c-122.027-29.013-192-138.24-192-269.653v-213.333l-85.333-85.333v-42.667h682.667v42.667l-85.333 85.333zM682.667 234.667h-341.333v256c0 105.813 64.427 192 170.667 192s170.667-86.187 170.667-192v-256z" />
<glyph unicode="&#xe904;" glyph-name="signals_icon" d="M636.369 632.879c30.72 0 55.855-25.135 55.855-55.855v-521.309c0-30.72-25.135-55.855-55.855-55.855h-521.309c-30.72 0-55.855 25.135-55.855 55.855v521.309c0 30.72 25.135 55.855 55.855 55.855h521.309zM636.369 651.497h-521.309c-41.146 0-74.473-33.327-74.473-74.473v-521.309c0-41.146 33.327-74.473 74.473-74.473h521.309c41.146 0 74.473 33.327 74.473 74.473v521.309c0 41.146-33.513 74.473-74.473 74.473v0zM293.236 539.788v-45.987h151.552l-144.663-144.663 32.396-32.396 144.663 144.663v-151.552h45.987v229.935h-229.935zM458.193 92.951v45.987h-151.552l144.663 144.663-32.396 32.396-144.663-144.663v151.552h-45.987v-229.935h229.935zM776.006 567.529c-1.676 1.676-2.793 4.096-2.793 6.516 0 71.866-58.461 130.327-130.327 130.327-5.213 0-9.309 4.096-9.309 9.309s4.096 9.309 9.309 9.309c82.106 0 148.945-66.839 148.945-148.945 0-5.213-4.096-9.309-9.309-9.309-2.607 0-4.841 1.117-6.516 2.793zM874.496 554.31c-1.676 1.676-2.793 4.096-2.793 6.516 0 64.605-25.135 125.487-70.935 171.101-45.801 45.801-106.496 70.935-171.101 70.935-5.213 0-9.309 4.096-9.309 9.309s4.096 9.309 9.309 9.309c69.632 0 135.168-27.183 184.32-76.335s76.335-114.688 76.335-184.32c0-5.213-4.096-9.309-9.309-9.309-2.42 0.186-4.841 1.117-6.516 2.793zM967.587 554.31c-1.676 1.676-2.793 4.096-2.793 6.516 0 89.553-34.816 173.708-98.118 237.009s-147.456 98.118-237.009 98.118c-5.213 0-9.309 4.096-9.309 9.309s4.096 9.309 9.309 9.309c94.58 0 183.389-36.864 250.228-103.517 66.839-66.839 103.517-155.648 103.517-250.228 0-5.213-4.096-9.309-9.309-9.309-2.42 0.186-4.841 1.117-6.516 2.793z" />
<glyph unicode="&#xe905;" glyph-name="ico-sh-check" d="M384 270.080l-177.92 177.92-60.587-60.16 238.507-238.507 512 512-60.16 60.16z" />
<glyph unicode="&#xe906;" glyph-name="ico-sh-plus" d="M810.667 405.333h-256v-256h-85.333v256h-256v85.333h256v256h85.333v-256h256v-85.333z" />
<glyph unicode="&#xe907;" glyph-name="ico-sh-minus" d="M810.667 405.333h-597.333v85.333h597.333v-85.333z" />
<glyph unicode="&#xe908;" glyph-name="ico-sh-warning" d="M42.667 64h938.667l-469.333 810.667-469.333-810.667zM554.667 192h-85.333v85.333h85.333v-85.333zM554.667 362.667h-85.333v170.667h85.333v-170.667z" />
<glyph unicode="&#xe909;" glyph-name="ico-sh-send-email" d="M781.653 154.453h-539.307c-37.547 0-71.68 30.72-71.68 71.68v331.093c0 37.547 30.72 71.68 71.68 71.68h201.387c6.827 0 10.24-6.827 10.24-10.24s-6.827-10.24-10.24-10.24h-201.387c-27.307 0-47.787-20.48-47.787-47.787v-331.093c0-27.307 20.48-47.787 47.787-47.787h542.72c27.307 0 47.787 20.48 47.787 47.787v331.093c0 27.307-20.48 47.787-47.787 47.787h-201.387c-6.827 0-10.24 6.827-10.24 10.24s6.827 10.24 10.24 10.24h201.387c37.547 0 71.68-30.72 71.68-71.68v-331.093c-3.413-40.96-34.133-71.68-75.093-71.68zM505.173 342.187c-17.067 0-34.133 3.413-47.787 13.653l-225.28 177.493c-3.413 3.413-6.827 10.24-3.413 17.067 3.413 3.413 10.24 6.827 17.067 3.413l225.28-177.493c17.067-13.653 51.2-13.653 68.267 0l221.867 177.493c3.413 3.413 13.653 3.413 17.067-3.413 3.413-3.413 3.413-13.653-3.413-17.067l-225.28-177.493c-6.827-10.24-27.307-13.653-44.373-13.653zM252.587 202.24c-3.413 0-6.827 0-6.827 3.413-6.827 3.413-6.827 10.24 0 13.653l139.947 139.947c3.413 3.413 13.653 3.413 17.067 0s3.413-13.653 0-17.067l-139.947-139.947c-3.413 0-6.827 0-10.24 0zM771.413 202.24c-3.413 0-6.827 0-6.827 3.413l-143.36 139.947c-3.413 3.413-3.413 13.653 0 17.067s13.653 3.413 17.067 0l139.947-139.947c3.413-3.413 3.413-13.653 0-17.067 0-3.413-3.413-3.413-6.827-3.413zM512 482.133c-6.827 0-10.24 6.827-10.24 10.24v208.213l-37.547-37.547c-3.413-3.413-13.653-3.413-17.067 0s-3.413 13.653 0 17.067l58.027 58.027c3.413 3.413 6.827 3.413 13.653 3.413 3.413-3.413 6.827-6.827 6.827-10.24v-235.52c-3.413-6.827-6.827-13.653-13.653-13.653zM570.027 659.627c-3.413 0-6.827 0-6.827 3.413l-58.027 58.027c-3.413 3.413-3.413 13.653 0 17.067s13.653 3.413 17.067 0l58.027-58.027c3.413-3.413 3.413-13.653 0-17.067s-6.827-3.413-10.24-3.413z" />
<glyph unicode="&#xe90a;" glyph-name="Categories" d="M905.6 121.6l-64 112c-28.8 51.2-44.8 105.6-44.8 172.8v99.2c0 128-96 240-220.8 268.8v86.4c0 35.2-28.8 64-64 64s-64-28.8-64-64v-83.2c-124.8-28.8-220.8-140.8-220.8-268.8v-99.2c0-67.2-16-124.8-44.8-172.8l-64-112c-3.2-6.4-3.2-9.6 0-16s9.6-6.4 12.8-6.4h291.2c-3.2-9.6-6.4-19.2-6.4-32 0-54.4 41.6-96 96-96s96 41.6 96 96c0 9.6-3.2 22.4-6.4 32h291.2c6.4 0 9.6 3.2 12.8 6.4s3.2 9.6 0 12.8zM480 860.8c0 16 12.8 32 32 32 16 0 32-12.8 32-32v-80c-9.6 0-22.4 3.2-32 3.2s-22.4 0-32-3.2v80zM576 67.2c0-35.2-28.8-64-64-64s-64 28.8-64 64c0 9.6 3.2 22.4 9.6 32h112c3.2-9.6 6.4-22.4 6.4-32zM160 131.2l51.2 86.4c32 54.4 48 118.4 48 188.8v99.2c0 131.2 115.2 243.2 252.8 243.2s252.8-112 252.8-243.2v-99.2c0-73.6 16-134.4 48-188.8l51.2-86.4h-704z" />
<glyph unicode="&#xe90b;" glyph-name="Email" d="M972.8 758.4c0 0 0 0 0 0-6.4 6.4-19.2 9.6-28.8 9.6h-864c-25.6 0-48-22.4-48-48v-544c0-25.6 22.4-48 48-48h864c25.6 0 48 22.4 48 48v544c0 16-6.4 28.8-19.2 38.4zM64 176v544c0 0 0 0 0 0l364.8-272-364.8-272c0 0 0 0 0 0zM96 736h832l-371.2-275.2-6.4-6.4c-22.4-16-54.4-16-76.8 0l-377.6 281.6zM457.6 428.8c16-12.8 35.2-16 54.4-16s38.4 6.4 54.4 16l361.6-268.8h-832l361.6 268.8zM595.2 448l364.8 272c0 0 0 0 0 0v-544c0 0 0 0 0 0l-364.8 272z" />
<glyph unicode="&#xe90c;" glyph-name="Info" d="M864 912h-704c-60.8 0-112-51.2-112-112v-512c0-60.8 51.2-112 112-112h473.6l188.8-188.8c3.2-3.2 6.4-3.2 12.8-3.2 3.2 0 3.2 0 6.4 0 6.4 3.2 9.6 9.6 9.6 16v176h44.8c44.8 0 80 35.2 80 80v544c0 60.8-51.2 112-112 112zM944 256c0-25.6-22.4-48-48-48h-64c-9.6 0-16-6.4-16-16v-153.6l-163.2 163.2c-3.2 3.2-6.4 3.2-12.8 3.2h-480c-44.8 0-80 35.2-80 80v515.2c0 44.8 35.2 80 80 80h704c44.8 0 80-35.2 80-80v-544zM512 748.8c-19.2 0-32-9.6-32-25.6v-249.6c0-12.8 16-25.6 32-25.6 19.2 0 32 9.6 32 25.6v252.8c0 12.8-12.8 22.4-32 22.4zM489.6 393.6c-6.4-6.4-9.6-12.8-9.6-22.4s3.2-16 9.6-22.4c6.4-6.4 12.8-9.6 22.4-9.6s16 3.2 22.4 9.6c6.4 6.4 9.6 12.8 9.6 22.4s-3.2 16-9.6 22.4c-12.8 12.8-32 12.8-44.8 0z" />
<glyph unicode="&#xe90d;" glyph-name="Mobile" d="M688 928h-352c-60.8 0-112-51.2-112-112v-736c0-60.8 51.2-112 112-112h352c60.8 0 112 51.2 112 112v736c0 60.8-51.2 112-112 112zM336 896h352c44.8 0 80-35.2 80-80v-16h-512v16c0 44.8 35.2 80 80 80zM768 160h-512v608h512v-608zM768 80c0-44.8-35.2-80-80-80h-352c-44.8 0-80 35.2-80 80v48h512v-48zM432 832h160c9.6 0 16 6.4 16 16s-6.4 16-16 16h-160c-9.6 0-16-6.4-16-16s6.4-16 16-16zM688 832c9.6 0 16 6.4 16 16s-6.4 16-16 16v0c-9.6 0-16-6.4-16-16s6.4-16 16-16zM544 64c0-17.673-14.327-32-32-32s-32 14.327-32 32c0 17.673 14.327 32 32 32s32-14.327 32-32z" />
<glyph unicode="&#xe90e;" glyph-name="ico-sh-pen-signature" d="M849.197 640.094c-2.048 0-4.096 0.779-5.658 2.342-3.125 3.125-3.125 8.192 0 11.312l32.256 32.251c3.125 3.125 8.186 3.125 11.312 0s3.125-8.192 0-11.312l-32.256-32.251c-1.562-1.562-3.61-2.342-5.653-2.342zM733.801 524.191c-2.043 0-4.080 0.773-5.643 2.325-3.13 3.115-3.147 8.181-0.032 11.318l82.138 82.645c3.109 3.13 8.171 3.152 11.312 0.032 3.13-3.115 3.147-8.181 0.032-11.318l-82.138-82.645c-1.562-1.573-3.61-2.357-5.67-2.357zM837.17 384.961c0 0 0 0 0 0-7.691 0-13.301 3.142-15.979 5.034-1.403 0.656-2.384 1.525-2.875 2.016-5.627 5.632-8.742 13.189-8.742 21.248 0 8.070 3.115 15.627 8.773 21.28l126.991 126.991c0.336 0.336 0.667 0.752 0.667 0.944-0.010 2.458-4.981 7.701-8.646 11.371-27.648-32.128-61.754-68.837-106.623-114.772-12.037-12.538-24.805-25.312-37.157-37.663-1.957-1.957-4.88-2.87-7.6-2.229-2.699 0.64-4.976 2.533-5.851 5.162-0.581 1.739-1.894 3.723-3.61 5.44l-97.252 97.252c-1.712 1.712-3.696 3.029-5.446 3.61-2.661 0.891-4.661 3.104-5.275 5.84s0.256 5.595 2.282 7.536c5.482 5.232 10.72 10.47 15.887 15.643 5.291 5.285 10.518 10.512 15.872 15.61 4.586 4.47 9.184 8.971 13.733 13.429 14.389 14.101 27.984 27.419 41.808 40.090 107.37 101.055 171.79 144.202 215.321 144.202 14.058 0 25.872-4.682 35.109-13.925 25.866-25.866 15.589-70.027-31.451-134.9l35.013-35.456c5.621-5.621 8.736-13.179 8.736-21.243s-3.115-15.627-8.773-21.28l-148.66-148.66c-8.347-8.342-17.179-12.571-26.256-12.571zM828.893 404.128c0.432-0.246 0.848-0.528 1.232-0.848 0.287-0.24 2.912-2.325 7.040-2.325 4.682 0 9.706 2.651 14.938 7.882l148.66 148.66c2.629 2.634 4.085 6.171 4.085 9.962s-1.451 7.333-4.085 9.968l-39.851 40.347c-2.779 2.81-3.082 7.227-0.73 10.395 44.33 59.605 56.789 99.839 37.051 119.583-6.219 6.219-14 9.237-23.797 9.237-49.979 0-140.607-79.861-204.431-139.924-13.706-12.56-27.21-25.791-41.499-39.797-4.56-4.47-9.173-8.981-13.839-13.525-5.318-5.072-10.453-10.203-15.648-15.397-2.896-2.896-5.813-5.813-8.779-8.736 0.448-0.405 0.896-0.827 1.328-1.264l97.252-97.252c0.47-0.47 0.923-0.949 1.36-1.434 10.16 10.176 20.342 20.437 30.048 30.544 47.749 48.885 83.179 87.184 111.546 120.58 1.446 1.701 3.542 2.725 5.776 2.816 2.32 0.075 4.41-0.762 5.984-2.342l4.427-4.416c7.029-6.938 15.003-14.805 15.029-24.32 0.005-3.162-0.912-7.872-5.354-12.309l-126.991-126.985c-2.629-2.634-4.085-6.171-4.085-9.968 0.016-3.403 1.19-6.608 3.333-9.13zM445.457 166.754c-0.005 0-0.005 0-0.005 0-1.446 0-2.848 0.064-4.186 0.192-7.595 0.682-13.162 3.019-17.487 7.338-4.128 4.133-6.597 10.005-7.344 17.461-5.392 50.677 89.413 185.748 230.552 328.43 1.957 1.979 4.81 2.795 7.499 2.166 2.709-0.629 4.896-2.619 5.776-5.253 0.581-1.749 1.899-3.733 3.616-5.446l97.252-97.252c1.712-1.712 3.696-3.029 5.446-3.616 2.64-0.88 4.629-3.067 5.258-5.776 0.629-2.704-0.186-5.547-2.166-7.499-137.348-135.86-270.665-230.745-324.211-230.745zM651.247 501.706c-147.546-150.532-222.894-270.808-218.905-308.323 0.362-3.632 1.333-6.379 2.742-7.786 1.040-1.040 2.853-2.294 7.658-2.725 0.891-0.091 1.781-0.123 2.704-0.123 41.242-0.005 159.002 75.179 305.741 219.012-0.47 0.416-0.928 0.853-1.381 1.306l-97.252 97.252c-0.448 0.458-0.885 0.918-1.306 1.386zM772.201 393.654c-3.621 0-7.413 0.704-10.976 2.043-3.867 1.28-7.904 3.872-11.419 7.381l-97.252 97.252c-3.509 3.509-6.096 7.552-7.477 11.685-3.61 10.827-1.515 21.882 5.461 28.858 6.88 6.885 18.229 8.997 28.842 5.456 4.139-1.381 8.186-3.968 11.696-7.477l97.252-97.258c3.509-3.504 6.101-7.552 7.477-11.701 3.605-10.805 1.509-21.861-5.461-28.832-3.701-3.706-7.663-5.904-12.080-6.715-1.93-0.458-3.968-0.694-6.063-0.694zM668.916 532.069c-2.939 0-5.446-0.891-7.061-2.512-2.624-2.624-3.248-7.52-1.6-12.475 0.581-1.744 1.899-3.728 3.616-5.446l97.252-97.252c1.712-1.712 3.696-3.029 5.446-3.616 3.142-1.162 5.904-1.397 8.123-0.832 0.203 0.053 0.41 0.096 0.624 0.128 0.843 0.139 1.947 0.528 3.723 2.304 2.619 2.619 3.243 7.515 1.595 12.47-0.581 1.749-1.894 3.728-3.605 5.44l-97.263 97.263c-1.712 1.712-3.691 3.024-5.44 3.605-1.824 0.614-3.648 0.923-5.408 0.923zM409.777 152.296c-2.010 0-4.027 0.757-5.584 2.272-3.162 3.082-3.227 8.149-0.139 11.312l19.653 20.154c3.082 3.168 8.144 3.232 11.312 0.144 3.162-3.082 3.227-8.149 0.139-11.312l-19.653-20.154c-1.568-1.61-3.648-2.416-5.728-2.416zM93.827 105.917c-0.261 0-0.518 0.005-0.779 0.016-3.887 0.128-7.115 3.029-7.658 6.885-1.253 8.944-0.523 22.021 0.325 37.162 1.414 25.221 3.344 59.765-6.336 69.579-1.67 1.685-3.653 2.432-6.39 2.282-8.33-0.368-18.405-7.072-28.357-18.863-19.461-23.066-31.92-57.003-30.058-71.93 0.549-4.379-2.56-8.379-6.944-8.928-4.39-0.523-8.384 2.56-8.928 6.949-2.614 20.906 12.821 59.477 33.701 84.229 13.051 15.461 26.848 23.947 39.893 24.533 7.221 0.368 13.632-2.123 18.475-7.029 14.661-14.863 12.672-50.373 10.918-81.706-0.47-8.4-0.923-16.523-0.966-23.248 6.784 7.248 13.467 23.36 19.552 38.021 11.338 27.344 24.197 58.336 48.058 66.49 7.861 2.971 17.008-1.403 20.154-9.797 3.59-10.752 4.443-23.936 5.275-36.687 0.694-10.677 1.984-30.554 6.219-32.299 0.032 0.010 5.099-1.829 22.075 13.205 18.4 16.239 49.146 43.354 78.757 38.176 24.827-4.357 24.4-22.266 24.090-35.338-0.037-1.536-0.075-3.082-0.080-4.624 0.73 1.216 1.456 2.437 2.16 3.632 8.544 14.448 20.239 34.208 39.754 29.69 11.403-2.715 14.063-13.882 15.819-21.263 0.523-2.203 1.318-5.525 1.957-6.41 5.248-6.171 5.253-6.171 16.918-4.416l3.152 0.47c4.336 0.646 8.437-2.379 9.077-6.757 0.646-4.368-2.379-8.432-6.752-9.077l-3.104-0.458c-15.887-2.39-20.933-2.528-31.365 9.744-3.12 3.429-4.304 8.395-5.446 13.205-0.901 3.786-2.133 8.971-3.92 9.397-7.472 1.706-14.229-8.592-22.32-22.272-5.13-8.667-9.979-16.858-16.299-20.992-1.947-1.264-4.352-1.621-6.581-0.997-2.229 0.64-4.080 2.219-5.056 4.33-4.342 9.366-4.112 18.827-3.915 27.184 0.325 13.653-0.037 17.296-10.87 19.2-22.043 3.925-50.229-21.024-65.386-34.405-17.034-15.082-28.991-20.037-38.762-16.005-13.461 5.542-14.742 25.221-16.096 46.053-0.762 11.738-1.552 23.877-4.39 32.384-16.928-5.824-28.314-33.263-38.357-57.482-11.039-26.651-21.482-51.824-41.215-51.829z" />
<glyph unicode="&#xe90f;" glyph-name="ico-sh-export" d="M528.896 38.399h-512c-9.216 0-16.896 7.68-16.896 16.896v614.401c0 4.608 2.048 8.705 5.12 12.288l272.897 272.897c3.072 3.072 7.68 5.12 12.288 5.12h443.904c9.216 0 16.896-7.68 16.896-16.896v-512c0-9.216-7.68-16.896-16.896-16.896s-16.896 7.68-16.896 16.896v494.592h-419.84l-263.168-262.656v-590.336h495.104c9.216 0 16.896-7.68 16.896-16.896 0-9.728-7.68-17.408-17.408-17.408zM290.304 652.8h-273.408c-9.216 0-16.896 7.68-16.896 16.896s7.68 16.896 16.896 16.896h256.001v256.001c0 9.216 7.68 16.896 16.896 16.896 9.728 0.512 17.408-7.169 17.408-16.385v-272.897c0-9.728-7.68-17.408-16.896-17.408zM802.304 38.399c-9.216 0-16.896 7.68-16.896 16.896v239.105c0 9.216 7.68 16.896 16.896 16.896s16.896-7.68 16.896-16.896v-239.105c0-9.216-7.68-16.896-16.896-16.896zM802.304 38.399c-4.608 0-8.705 1.536-12.288 5.12l-102.401 102.401c-6.656 6.656-6.656 17.408 0 24.065s17.408 6.656 24.065 0l90.113-90.113 90.113 90.113c6.656 6.656 17.408 6.656 24.065 0s6.656-17.408 0-24.065l-102.401-102.401c-2.561-3.584-7.169-5.12-11.264-5.12zM802.304-64c-122.369 0-221.696 99.329-221.696 221.696s99.329 221.696 221.696 221.696 221.696-99.329 221.696-221.696-99.329-221.696-221.696-221.696zM802.304 345.599c-103.424 0-187.904-84.48-187.904-187.904s84.48-187.904 187.904-187.904 187.904 84.48 187.904 187.904-84.48 187.904-187.904 187.904z" />
<glyph unicode="&#xe910;" glyph-name="ico-sh-print" d="M959.488 140.8h-153.6c-10.241 0-15.36 5.12-15.36 15.36s5.12 15.36 15.36 15.36h153.6c20.48 0 35.84 15.36 35.84 35.84v291.84c0 46.080-35.84 87.041-87.041 87.041h-787.969c-46.080 0-87.041-35.84-87.041-87.041v-291.84c0-20.48 15.36-35.84 35.84-35.84h153.6c10.241 0 15.36-5.12 15.36-15.36s-5.12-15.36-15.36-15.36h-153.6c-35.84 0-66.56 30.72-66.56 66.56v291.84c0 66.56 51.2 117.761 117.761 117.761h783.361c66.56 0 117.761-51.2 117.761-117.761v-291.84c4.608-35.84-25.601-66.56-61.952-66.56v0zM805.888-64h-583.169c-10.241 0-15.36 5.12-15.36 15.36v373.76c0 15.36 5.12 20.48 15.36 20.48h578.561c10.241 0 15.36-5.12 15.36-15.36v-373.76c4.608-15.36 0-20.48-10.752-20.48v0zM242.688-28.16h547.841v343.040h-547.841v-343.040zM805.888 586.24h-583.169c-10.241 0-15.36 5.633-15.36 15.36v343.040c0 10.241 5.12 15.36 15.36 15.36h578.561c15.36 0 20.48-5.12 20.48-15.36v-343.040c-0.512-10.241-5.12-15.36-15.872-15.36v0zM242.688 616.96h547.841v307.2h-547.841v-307.2zM703.489 74.24h-373.76c-10.241 0-15.36 5.633-15.36 15.36 0 10.241 5.12 15.36 15.36 15.36h373.76c10.241 0 15.36-5.633 15.36-15.36 0-10.241-4.608-15.36-15.36-15.36v0zM703.489 207.359h-373.76c-10.241 0-15.36 5.12-15.36 15.36s5.12 15.36 15.36 15.36h373.76c10.241 0 15.36-5.12 15.36-15.36 0-5.12-4.608-15.36-15.36-15.36v0z" />
<glyph unicode="&#xe911;" glyph-name="ico-sh-refresh" d="M512-64c-282.113 0-512 229.889-512 512s229.889 512 512 512c203.777 0 371.712-121.856 486.401-352.256 4.097-8.192 0.512-18.944-7.68-23.040s-18.432-0.512-23.040 7.68c-75.264 152.064-216.065 333.312-455.681 333.312-263.681 0-477.696-214.529-477.696-477.696s214.529-477.696 477.696-477.696c263.681 0 477.696 214.529 477.696 477.696 0 9.216 7.68 16.896 16.896 16.896s16.896-7.68 16.896-16.896c0.512-282.113-229.376-512-511.489-512zM1007.104 581.632h-172.544c-9.216 0-16.896 7.68-16.896 16.896s7.68 16.896 16.896 16.896h155.136v153.6c0 9.216 7.68 16.896 16.896 16.896 9.728 0 17.408-7.68 17.408-16.896v-170.496c0-9.216-7.68-16.896-16.896-16.896z" />
<glyph unicode="&#xe912;" glyph-name="ico-sh-bank-wire" d="M1020.782 395.63c-4.242 4.242-11.118 4.242-15.36 0l-75.337-76.069c0.146 0.293 0.146 0.439 0.293 0.731 1.317 4.242 2.633 8.338 3.803 12.581 2.487 9.216 4.681 18.578 6.583 27.941 0 0.146 0.146 0.439 0.146 0.585 29.257 143.067-14.19 290.67-119.515 396.142-170.569 170.569-448.219 170.569-618.935 0-5.413-5.413-10.533-10.825-15.653-16.384-1.609-1.755-2.926-3.511-4.535-5.266-3.511-3.95-6.875-7.899-10.24-11.849-1.902-2.341-3.803-4.827-5.559-7.314-2.779-3.511-5.559-7.022-8.192-10.533-2.048-2.779-3.95-5.705-5.998-8.631s-4.096-5.705-5.998-8.631c0-0.146 0-0.146-0.146-0.293-0.439-0.731-1.024-1.463-1.609-2.194-3.218-4.974-1.902-11.703 3.218-14.921 4.974-3.218 11.703-1.902 14.921 3.218 2.487 3.803 5.12 7.607 7.753 11.41 1.755 2.487 3.365 4.974 5.12 7.314 2.487 3.365 5.12 6.729 7.753 10.094 1.755 2.341 3.511 4.681 5.413 7.022 2.779 3.511 5.851 6.875 8.777 10.24 1.755 2.048 3.365 4.096 5.12 5.998 4.827 5.266 9.655 10.533 14.775 15.653 4.974 4.974 10.094 9.947 15.36 14.629 0.731 0.585 1.317 1.17 2.048 1.755 4.681 4.096 9.362 8.192 14.043 12.142 0 0 0.146 0.146 0.146 0.146 152.137 123.904 372.297 123.904 524.581 0.146 0.146-0.146 0.293-0.293 0.439-0.439 4.681-3.803 9.362-7.899 13.897-11.849 0.731-0.731 1.463-1.317 2.194-1.902 5.266-4.681 10.386-9.655 15.36-14.629 98.889-98.889 140.581-241.518 113.664-376.539 0-0.146-0.146-0.293-0.146-0.439-1.755-8.923-3.95-17.847-6.29-26.624-1.024-3.95-2.341-7.753-3.511-11.703-0.293-1.17-0.731-2.341-1.17-3.511l-39.058 99.328c-2.194 5.559-8.485 8.338-14.043 6.144s-8.338-8.485-6.144-14.043l52.224-133.12c1.317-3.365 4.242-5.851 7.899-6.583 0.731-0.146 1.463-0.293 2.194-0.293 2.926 0 5.705 1.17 7.753 3.218l101.376 102.4c4.827 3.95 4.827 10.679 0.585 14.921zM875.959 224.622c-4.974 3.218-11.703 1.902-14.921-3.218-6.729-10.24-13.897-20.187-21.504-29.842-3.657-4.681-7.314-9.216-11.264-13.605-1.609-1.902-3.218-3.95-4.974-5.705-5.559-6.29-11.264-12.434-17.115-18.286-162.231-162.231-426.13-162.231-588.361 0-70.656 70.656-112.055 163.694-120.101 260.242 0 0.146 0 0.293 0 0.439-2.341 28.818-1.755 58.075 1.902 87.040 0.146 1.024 0.439 2.194 0.585 3.218 1.17 8.631 2.487 17.262 4.242 25.746 0.146 0.731 0.293 1.463 0.439 2.194 1.755 8.777 3.803 17.554 6.144 26.478 0.439 1.902 1.17 3.657 1.755 5.559 0.731 2.633 1.609 5.266 2.487 7.899l39.058-99.328c1.609-4.242 5.705-6.875 10.094-6.875 1.317 0 2.633 0.293 3.95 0.731 5.559 2.194 8.338 8.485 6.144 14.043l-52.224 132.974c-1.317 3.365-4.242 5.851-7.899 6.583s-7.314-0.439-9.801-2.926l-101.376-102.4c-4.242-4.242-4.242-11.118 0-15.36s11.118-4.096 15.36 0l75.337 76.069c-0.146-0.439-0.293-1.024-0.439-1.463-1.024-3.072-2.341-6.437-3.218-9.801-1.463-5.266-2.487-10.533-3.803-15.799-1.17-4.827-2.487-9.655-3.511-14.629-0.585-3.218-1.024-6.437-1.609-9.655-1.17-6.875-2.487-13.897-3.365-20.919 0-0.293 0-0.731-0.146-1.024-16.384-132.389 28.233-268.288 124.635-364.544 32.037-32.037 67.73-57.929 105.911-77.97 63.488-33.353 133.559-50.030 203.63-50.030v0 0c70.071 0 140.142 16.677 203.63 50.030 38.034 20.041 73.874 45.934 105.911 77.97 6.29 6.29 12.288 12.727 17.993 19.31 1.755 2.048 3.511 4.096 5.12 5.998 4.096 4.681 8.046 9.509 11.849 14.482 0.878 1.17 1.902 2.341 2.926 3.511 0.146 0.146 0.146 0.439 0.293 0.731 6.729 8.923 13.312 17.847 19.456 27.209 3.218 4.974 1.902 11.703-3.218 14.921zM242.981 224.914h528.53c5.998 0 10.825 4.827 10.825 10.825s-4.827 10.825-10.825 10.825h-528.53c-5.998 0-10.825-4.827-10.825-10.825s4.827-10.825 10.825-10.825zM242.981 295.424c-5.998 0-10.825-4.827-10.825-10.825s4.827-10.825 10.825-10.825h528.53c5.998 0 10.825 4.827 10.825 10.825s-4.827 10.825-10.825 10.825h-57.929v192.366h62.757c5.998 0 10.825 4.827 10.825 10.825s-4.827 10.825-10.825 10.825h-533.358c-5.998 0-10.825-4.827-10.825-10.825s4.827-10.825 10.825-10.825h62.318v-192.366h-62.318zM552.667 487.79h77.824v-157.989c0-5.998 4.827-10.825 10.825-10.825s10.825 4.827 10.825 10.825v157.989h39.79v-192.366h-139.264v192.366zM491.081 487.79h39.79v-192.366h-39.79v192.366zM326.949 487.79h142.482v-192.366h-81.042v154.331c0 5.998-4.827 10.825-10.825 10.825s-10.825-4.827-10.825-10.825v-154.331h-39.79v192.366zM233.911 544.841c0.293-0.439 0.439-0.878 0.731-1.317 0.146-0.146 0.293-0.146 0.439-0.293 0.439-0.585 1.17-1.024 1.755-1.463s1.024-0.878 1.609-1.17c0.585-0.293 1.17-0.293 1.755-0.585 0.731-0.146 1.463-0.439 2.341-0.439 0.146 0 0.293-0.146 0.439-0.146h533.211c1.609 0 3.072 0.293 4.389 1.024 0.293 0.146 0.585 0.439 1.024 0.585 1.024 0.585 1.902 1.17 2.633 2.048 0.146 0.146 0.293 0.146 0.439 0.293 0.293 0.439 0.439 0.878 0.731 1.317 0.439 0.585 0.731 1.17 1.024 1.902s0.293 1.463 0.439 2.194c0 0.439 0.293 0.878 0.293 1.463 0 0.146-0.146 0.293-0.146 0.439 0 0.731-0.293 1.463-0.439 2.194-0.146 0.585-0.293 1.317-0.585 1.902s-0.731 1.024-1.024 1.609c-0.439 0.585-0.878 1.17-1.463 1.755-0.146 0.146-0.146 0.293-0.293 0.439l-266.679 220.891c-3.95 3.365-9.801 3.365-13.751 0l-266.679-220.891c-0.146-0.146-0.146-0.293-0.293-0.439-0.585-0.439-1.024-1.17-1.463-1.755s-0.878-1.024-1.024-1.609c-0.293-0.585-0.439-1.17-0.585-1.902s-0.439-1.463-0.439-2.194c0-0.146-0.146-0.293-0.146-0.439 0-0.439 0.146-0.878 0.293-1.463 0.146-0.731 0.146-1.463 0.439-2.194 0.293-0.585 0.731-1.17 1.024-1.755zM509.659 757.248l236.544-196.023h-473.234l236.69 196.023z" />
<glyph unicode="&#xe913;" glyph-name="ico-sh-credit-card" d="M950.857 698.88h-937.691c-5.998 0-10.971-4.974-10.971-10.971v-547.84c0-5.998 4.974-10.971 10.971-10.971h937.691c5.998 0 10.971 4.974 10.971 10.971v547.84c0 6.144-4.827 10.971-10.971 10.971zM939.886 151.186h-915.749v525.751h915.895v-525.751zM810.277 346.624c-14.775 0-28.526-4.681-39.936-12.434-11.703 7.899-25.454 12.434-39.643 12.434-39.058 0-70.802-31.744-70.802-70.802s31.744-70.802 70.802-70.802c14.336 0 27.941 4.535 39.643 12.434 11.41-7.899 25.161-12.434 39.936-12.434 39.058 0 70.802 31.744 70.802 70.802s-31.744 70.802-70.802 70.802zM681.691 275.822c0 26.917 21.943 48.859 48.859 48.859 8.338 0 16.384-2.194 23.552-6.144-9.070-11.849-14.629-26.624-14.629-42.715s5.559-30.72 14.629-42.715c-7.168-3.95-15.214-6.144-23.552-6.144-26.917 0-48.859 21.943-48.859 48.859zM810.277 226.962c-26.917 0-48.859 21.943-48.859 48.859s21.943 48.859 48.859 48.859c26.917 0 48.859-21.943 48.859-48.859s-21.943-48.859-48.859-48.859zM93.915 482.962h171.008c5.998 0 10.971 4.974 10.971 10.971v117.175c0 5.998-4.974 10.971-10.971 10.971h-171.008c-5.998 0-10.971-4.974-10.971-10.971v-117.175c0-5.998 4.974-10.971 10.971-10.971zM104.887 600.137h149.065v-95.232h-149.065v95.232zM93.915 403.090h776.192c5.998 0 10.971 4.974 10.971 10.971s-4.974 10.971-10.971 10.971h-776.192c-5.998 0-10.971-4.974-10.971-10.971 0-6.144 4.974-10.971 10.971-10.971zM1010.834 766.757h-913.993c-5.998 0-10.971-4.974-10.971-10.971s4.974-10.971 10.971-10.971h903.022v-522.971c0-5.998 4.974-10.971 10.971-10.971s10.971 4.974 10.971 10.971v533.943c0 6.144-4.827 10.971-10.971 10.971z" />
<glyph unicode="&#xe914;" glyph-name="ico-sh-phone" d="M950.891 172.13c0 18.805 3.131 34.479-28.217 43.891-43.891 12.543-213.174 94.044-228.848 94.044-18.805-6.262-53.303-37.61-78.37-62.696-12.543-12.543-37.61-18.805-53.303-9.412-43.891 28.217-122.261 84.651-150.478 112.85-37.61 37.61-97.175 109.718-122.261 153.609-9.412 15.674-3.131 40.76 9.412 56.434 25.086 25.086 59.565 62.696 65.827 78.37 0 6.262-12.543 43.891-21.936 62.696-25.086 59.565-53.303 122.261-75.239 178.695-6.262 6.262-21.936 6.262-34.479 6.262-21.936 0-68.977-9.412-90.913-25.086-47.022-37.61-68.977-122.261-68.977-172.414-3.131-169.283 144.215-373.064 332.304-529.806 115.999-90.913 548.622-291.545 545.482 12.543z" />
<glyph unicode="&#xe915;" glyph-name="ico-sh-email" d="M853.333 789.333h-682.667c-46.933 0-84.907-38.4-84.907-85.333l-0.427-512c0-46.933 38.4-85.333 85.333-85.333h682.667c46.933 0 85.333 38.4 85.333 85.333v512c0 46.933-38.4 85.333-85.333 85.333zM853.333 618.667l-341.333-213.333-341.333 213.333v85.333l341.333-213.333 341.333 213.333v-85.333z" />
<glyph unicode="&#xe916;" glyph-name="ico-sh-live-chat" horiz-adv-x="1016" d="M936.639 960h-857.4c-43.763 0-79.239-35.477-79.239-79.239l1.486-944.761 198.098 192.815h737.055c43.71 0.131 79.108 35.529 79.239 79.226v672.719c-0.131 43.71-35.529 79.108-79.226 79.239zM609.249 350.949h-407.223v104.53h407.223zM807.347 501.734h-605.321v104.53h605.321zM807.347 654.698h-605.321v104.53h605.321z" />
<glyph unicode="&#xe917;" glyph-name="bot" d="M246.497 147.824h-51.77c-88.817 0-161.012 72.195-161.012 161.012v32.298c0 13.299 10.449 23.748 23.748 23.748s23.748-10.449 23.748-23.748v-32.298c0-62.695 50.822-113.516 113.516-113.516h51.77c12.824 0 23.748-10.449 23.748-23.748s-10.925-23.748-23.748-23.748zM829.274 147.824h-634.548c-12.824 0-23.748 10.449-23.748 23.748s10.449 23.748 23.748 23.748h634.548c62.695 0 113.516 50.822 113.516 113.516v278.326c0 62.695-50.822 113.516-113.516 113.516h-634.548c-62.695 0-113.516-50.822-113.516-113.516v-278.326c0-13.299-10.449-23.748-23.748-23.748s-23.748 10.449-23.748 23.748v278.326c0 88.817 72.195 161.012 161.012 161.012h634.548c88.817 0 161.012-72.195 161.012-161.012v-278.326c0-88.817-72.195-161.012-161.012-161.012zM512 256.591c-50.822 0-91.667 18.523-93.567 18.998-11.874 5.225-17.098 19.474-11.874 31.348s19.474 17.098 31.348 11.874c0.474 0 33.722-15.199 74.094-15.199 39.897 0 73.619 14.724 73.619 14.724 11.874 5.225 26.123 0 31.348-11.874s0-25.647-11.874-31.348c-1.425 0-42.272-18.523-93.092-18.523zM308.241 422.827c-12.824 0-23.748 10.449-23.748 23.748v70.77c0 12.824 10.449 23.748 23.748 23.748s23.748-10.449 23.748-23.748v-70.77c0-13.299-10.925-23.748-23.748-23.748zM715.759 422.827c-13.299 0-23.748 10.449-23.748 23.748v70.77c0 12.824 10.449 23.748 23.748 23.748s23.748-10.449 23.748-23.748v-70.77c0-13.299-10.449-23.748-23.748-23.748zM37.039 285.089c-12.824 0-23.748 10.449-23.748 23.748v278.326c0 12.824 10.449 23.748 23.748 23.748s23.748-10.449 23.748-23.748v-278.326c0-13.299-10.925-23.748-23.748-23.748zM986.961 285.089c-13.299 0-23.748 10.449-23.748 23.748v278.326c0 12.824 10.449 23.748 23.748 23.748s23.748-10.449 23.748-23.748v-278.326c0-13.299-10.449-23.748-23.748-23.748z" />
<glyph unicode="&#xe918;" glyph-name="botchat" d="M315.124 298.161h-38.308c-65.948 0-119.289 53.341-119.289 119.289v23.761c0 9.699 7.758 17.457 17.457 17.457s17.457-7.758 17.457-17.457v-23.761c0-46.552 37.823-84.375 84.375-84.375h38.308c9.699 0 17.457-7.758 17.457-17.457s-7.758-17.457-17.457-17.457zM747.185 298.161h-470.855c-9.699 0-17.457 7.758-17.457 17.457s7.758 17.457 17.457 17.457h470.855c46.552 0 84.375 37.823 84.375 84.375v206.575c0 46.552-37.823 84.375-84.375 84.375h-470.855c-46.552 0-84.375-37.823-84.375-84.375v-206.575c0-9.699-7.758-17.457-17.457-17.457s-17.457 7.758-17.457 17.457v206.575c0 65.948 53.341 119.289 119.289 119.289h470.855c65.948 0 119.289-53.341 119.289-119.289v-206.575c0-65.464-53.341-119.289-119.289-119.289zM27.083 30.487c-2.426 0-4.364 0.485-6.789 1.455-6.303 2.909-10.668 9.212-10.668 16.002v653.667c0 90.195 73.708 163.902 163.902 163.902h676.943c90.679 0 163.902-73.708 163.902-163.902v-361.749c0-90.679-73.708-163.902-163.902-163.902h-669.669l-141.595-140.141c-2.909-3.394-7.758-5.335-12.123-5.335zM173.527 830.115c-71.283 0-128.988-57.705-128.988-128.988v-610.995l116.865 115.41c3.394 3.394 7.758 4.849 12.123 4.849h676.943c71.283 0 128.988 57.705 128.988 128.988v362.233c0 71.283-57.705 128.988-128.988 128.988h-676.943zM512 379.142c-37.34 0-67.889 13.577-69.343 14.064-8.729 3.88-12.608 14.547-8.729 23.276s14.547 12.608 23.276 8.729c0.485 0 25.215-11.153 54.796-11.153s54.31 11.153 54.796 11.153c8.244 3.88 19.396 0 23.276-8.729s0-19.396-8.729-23.276c-1.455-0.485-32.005-14.064-69.343-14.064zM360.706 502.31c-9.699 0-17.457 7.758-17.457 17.457v52.371c0 9.699 7.758 17.457 17.457 17.457s17.457-7.758 17.457-17.457v-52.371c0.485-9.699-7.758-17.457-17.457-17.457zM663.294 502.31c-9.699 0-17.457 7.758-17.457 17.457v52.371c0 9.699 7.758 17.457 17.457 17.457s17.457-7.758 17.457-17.457v-52.371c0-9.699-7.758-17.457-17.457-17.457zM159.951 399.993c-9.699 0-17.457 7.758-17.457 17.457v206.575c0 9.699 7.758 17.457 17.457 17.457s17.457-7.758 17.457-17.457v-206.575c0-9.699-7.758-17.457-17.457-17.457zM864.049 399.993c-9.699 0-17.457 7.758-17.457 17.457v206.575c0 9.699 7.758 17.457 17.457 17.457s17.457-7.758 17.457-17.457v-206.575c0-9.699-7.758-17.457-17.457-17.457z" />
<glyph unicode="&#xe919;" glyph-name="helpcenter" d="M534.172 358.306c-12.597 0-22.172 10.079-22.172 22.172v44.848c0 10.582 7.559 19.652 17.637 21.667 32.754 7.055 71.554 24.187 71.554 67.524 0 31.746-38.296 67.019-89.694 67.019-47.871 0-86.671-36.281-89.694-69.035-1.008-12.094-11.59-21.667-24.187-20.661-12.094 1.008-21.667 12.094-20.661 24.187 4.535 53.413 59.46 109.852 134.039 109.852 73.066 0 134.542-51.398 134.542-111.867 0-51.398-32.249-89.694-89.694-106.828v-27.211c1.008-11.59-9.070-21.667-21.667-21.667zM535.179 268.61c-12.597 0-22.676 10.079-22.676 22.172 0 12.597 9.574 22.172 22.172 22.172h0.503c12.597 0 22.172-10.079 22.172-22.172 0.503-12.094-9.574-22.172-22.172-22.172zM24.725-55.904c-4.032 0-8.567 1.512-11.59 4.535-5.039 5.039-6.55 12.094-4.032 18.644l102.293 246.913c-45.855 76.089-70.042 162.257-70.042 250.441 0.503 268.581 218.695 487.275 487.275 487.275s487.275-218.695 487.275-487.275-218.695-487.275-487.275-487.275c-93.223 0-183.926 26.707-262.030 76.594l-234.819-108.843c-2.015-0.503-4.535-1.008-7.055-1.008zM528.629 918.143c-249.936 0-453.514-203.578-453.514-453.514 0-84.656 24.187-167.8 69.539-240.362 3.023-4.535 3.527-10.582 1.512-15.117l-89.191-215.167 204.081 94.735c5.039 2.52 11.59 2.015 16.629-1.512 74.577-49.887 161.753-76.089 251.448-76.089 249.936 0 453.514 203.578 453.514 453.514s-203.578 453.514-454.017 453.514z" />
<glyph unicode="&#xe91a;" glyph-name="helpcentertab" d="M512-56c-277.705 0-504 226.297-504 504s226.297 504 504 504 504-226.297 504-504-226.297-504-504-504zM512 917.224c-258.552 0-469.224-210.672-469.224-469.224s210.672-469.224 469.224-469.224 469.224 210.672 469.224 469.224-210.672 469.224-469.224 469.224zM512 253.455c-9.576 0-17.136 7.56-17.136 17.136v33.264c0 39.816 15.624 77.616 43.848 106.344l54.936 54.936c21.672 21.672 33.768 51.408 33.768 81.648v33.264c0 63.504-51.912 115.416-115.416 115.416s-115.416-51.912-115.416-115.416v-44.352c0-9.576-7.56-17.136-17.136-17.136s-17.136 7.56-17.136 17.136v44.352c0 82.657 67.537 150.192 150.192 150.192s150.192-67.537 150.192-150.192v-33.264c0-39.312-16.129-78.121-43.848-106.344l-54.936-54.936c-21.672-21.672-33.768-50.905-33.768-81.648v-33.264c-1.009-9.072-8.569-17.136-18.144-17.136zM512 120.904c-21.672 0-39.312 17.641-39.312 39.312s17.641 39.312 39.312 39.312 39.312-17.641 39.312-39.312c0-21.672-17.641-39.312-39.312-39.312zM512 165.256c-2.521 0-4.536-2.016-4.536-4.536 0-5.040 9.576-5.040 9.576 0-0.504 2.521-2.521 4.536-5.040 4.536z" />
<glyph unicode="&#xe91b;" glyph-name="tour" d="M229.206 582.641l120.125-45.547v-108.613c0-0.5 0-1.502 0-2.001 2.503-24.525 37.539-43.046 52.555-50.052 32.534-15.016 71.575-23.023 110.115-23.023s77.581 8.008 110.115 23.023c15.016 7.007 50.052 25.527 52.555 50.052 0 0.5 0 1.502 0 2.001v108.613l45.047 17.017v-43.046c-14.014-5.506-24.025-19.521-24.025-35.538 0-7.007 2.001-13.514 5.506-19.521l-14.515-73.577c-1.001-4.505 0.5-8.509 3.003-12.013 3.003-3.503 7.007-5.506 11.512-5.506h66.069c4.505 0 8.509 2.001 11.512 5.506s4.004 8.008 3.003 12.013l-14.014 73.076c3.503 6.006 5.506 13.014 5.506 20.020 0 16.017-9.509 29.531-23.525 35.538v54.557l45.547 17.519c5.506 2.001 9.509 7.508 9.509 13.514s-3.503 11.512-9.509 13.514l-276.788 105.109c-2.503 1.001-4.505 1.001-6.506 1.001s-4.004 0-5.506-1.001l-276.788-105.109c-5.506-2.001-9.509-7.508-9.509-13.514 0-6.506 3.503-11.512 9.010-14.014zM645.64 428.98c-0.5-3.503-11.011-15.515-37.539-27.528-16.517-7.508-50.554-19.521-96.1-19.521s-79.583 12.013-96.1 19.521c-26.528 12.013-36.538 24.025-37.539 27.528 0 0 0 0 0 0v96.6l54.557-20.522 73.577-28.030c0 0 0 0 0 0s0 0 0.5 0 1.001-0.5 1.001-0.5c0 0 0.5 0 0.5 0 0.5 0 1.001 0 1.001 0s0 0 0.5 0 1.001 0 1.502 0c0 0 0.5 0 0.5 0s0.5 0 0.5 0c0 0 0 0 0 0 0.5 0 1.001 0 1.502 0 0 0 0.5 0 0.5 0 0.5 0 1.001 0 1.001 0s0.5 0 0.5 0 1.001 0.5 1.502 0.5c0 0 0 0 0 0l127.633 48.55v-96.6zM724.722 475.528c0 5.004 4.004 9.010 9.010 9.010s9.010-4.004 9.010-9.010c0-3.003-1.502-5.004-2.503-6.006 0 0-0.5-0.5-0.5-0.5v0c0 0 0 0-0.5-0.5 0 0-0.5 0-0.5-0.5 0 0 0 0 0 0v0c0 0-0.5-0.5-0.5-0.5s0 0 0 0v0c0 0-0.5 0-0.5-0.5 0 0 0 0-0.5 0 0 0-0.5 0-0.5 0s0 0-0.5 0c0 0-0.5 0-0.5 0s-0.5 0-0.5 0c0 0-0.5 0-0.5 0s-0.5 0-0.5 0c0 0-0.5 0-0.5 0v0 0c0 0-0.5 0-0.5 0s-0.5 0-0.5 0c0 0-0.5 0-0.5 0s-0.5 0-0.5 0c0 0-0.5 0-0.5 0s0 0-0.5 0c0 0-0.5 0-0.5 0s0 0 0 0-0.5 0-0.5 0.5c0 0 0 0 0 0s-0.5 0.5-0.5 0.5v0c0 0 0 0 0 0s0 0 0 0c-0.5 0.5-1.001 1.001-1.502 1.001 0 0 0 0 0 0-1.502 1.502-3.003 3.503-3.003 6.506zM718.716 393.944l8.509 43.545c0.5 0 1.001 0 1.502-0.5 0.5 0 1.001 0 1.001 0 1.502 0 2.503 0 4.004 0v0 0c1.502 0 2.503 0 4.004 0 0.5 0 1.001 0 1.001 0 0.5 0 1.001 0 1.502 0l8.509-43.545h-30.031zM512 686.248l236.245-90.093-16.517-6.506-217.227 36.037c-8.008 1.502-15.515-4.004-17.017-12.013s4.004-15.515 12.013-17.017l167.676-28.030-165.172-62.064-130.136 49.552-12.512 5.004-93.597 35.538 236.245 89.594zM627.12 183.224h-230.239c-8.008 0-14.515-6.506-14.515-14.515s6.506-14.515 14.515-14.515h230.741c8.008 0 14.515 6.506 14.515 14.515-0.5 8.008-7.007 14.515-15.016 14.515zM1010.020 121.66l-112.617 174.182v486.507c0 8.008-6.506 14.515-14.515 14.515h-741.773c-8.008 0-14.515-6.506-14.515-14.515v-487.007l-112.617-174.182c-3.003-4.505-3.003-10.011-0.5-15.016 2.503-4.505 7.508-7.508 13.014-7.508h972.012c5.506 0 10.511 3.003 13.014 7.508 2.001 5.004 1.502 11.011-1.502 15.515zM868.371 767.833v-461.982h-712.743v461.982h712.743zM53.022 128.167l96.1 148.655h725.756l96.1-148.655h-917.956z" />
<glyph unicode="&#xe91c;" glyph-name="ico-favorites" horiz-adv-x="1076" d="M538.22 707.384l70.508-221.81h220.087l-181.954-131.427 67.599-208.015-175.54 126.906-185.738-129.599 69.316 213.3-180.216 135.831h224.334l71.604 214.814zM541.865 960h-3.768l-129.142-387.43h-405.726l325.549-245.373-125.377-385.816 334.697 233.534 328.24-237.301-125.377 385.816 335.235 242.145h-408.954l-125.377 394.425z" />
<glyph unicode="&#xe91d;" glyph-name="ico-star-full" horiz-adv-x="1076" d="M328.778 327.197l-125.377-385.816 334.697 233.534 328.24-237.301-125.377 385.816 335.235 242.144h-408.954l-125.377 394.426h-3.767l-129.143-387.43h-405.726z" />
<glyph unicode="&#xe91e;" glyph-name="ico-sh-arr-up" d="M170.667 448l60.16-60.16 238.507 238.080v-519.253h85.333v519.253l238.080-238.507 60.587 60.587-341.333 341.333-341.333-341.333z" />
<glyph unicode="&#xe91f;" glyph-name="ico-sh-reveal-off" d="M512 661.333c117.76 0 213.333-95.573 213.333-213.333 0-27.733-5.547-53.76-15.36-78.080l124.587-124.587c64.427 53.76 115.2 123.307 146.347 202.667-73.813 187.307-256 320-469.333 320-59.733 0-116.907-10.667-169.813-29.867l92.16-92.16c24.32 9.813 50.347 15.36 78.080 15.36zM85.333 777.813l116.907-116.907c-70.827-55.040-126.293-128.427-159.573-212.907 73.813-187.307 256-320 469.333-320 66.133 0 129.28 12.8 186.88 35.84l17.92-17.92 125.013-124.587 54.187 54.187-756.48 756.48-54.187-54.187zM321.28 541.867l66.133-66.133c-2.133-8.96-3.413-18.347-3.413-27.733 0-70.827 57.173-128 128-128 9.387 0 18.773 1.28 27.733 3.413l66.133-66.133c-28.587-14.080-60.16-22.613-93.867-22.613-117.76 0-213.333 95.573-213.333 213.333 0 33.707 8.533 65.28 22.613 93.867zM505.173 575.147l134.4-134.4 0.853 6.827c0 70.827-57.173 128-128 128l-7.253-0.427z" />
<glyph unicode="&#xe920;" glyph-name="ico-sh-reveal" d="M512 768c-213.333 0-395.52-132.693-469.333-320 73.813-187.307 256-320 469.333-320s395.52 132.693 469.333 320c-73.813 187.307-256 320-469.333 320zM512 234.667c-117.76 0-213.333 95.573-213.333 213.333s95.573 213.333 213.333 213.333 213.333-95.573 213.333-213.333-95.573-213.333-213.333-213.333zM512 576c-70.827 0-128-57.173-128-128s57.173-128 128-128 128 57.173 128 128-57.173 128-128 128z" />
<glyph unicode="&#xe921;" glyph-name="info_icon" d="M512-64c-281.6 0-512 230.4-512 512s230.4 512 512 512c281.6 0 512-230.4 512-512s-230.4-512-512-512zM512 926.72c-263.68 0-478.72-215.040-478.72-478.72s215.040-478.72 478.72-478.72c263.68 0 478.72 215.040 478.72 478.72s-215.040 478.72-478.72 478.72zM647.68 107.52h-238.080c-38.4 0-69.12 30.72-69.12 69.12s30.72 69.12 69.12 69.12h33.28v135.68h-43.52c-30.72 0-53.76 15.36-58.88 40.96 0 2.56 0 5.12 0 7.68v5.12c0 2.56 0 5.12 2.56 7.68 5.12 25.6 28.16 43.52 58.88 43.52h161.28c46.080 0 84.48-38.4 84.48-84.48v-153.6c38.4 0 69.12-30.72 69.12-69.12 0-40.96-30.72-71.68-69.12-71.68zM409.6 209.92c-17.92 0-33.28-15.36-33.28-33.28s15.36-33.28 33.28-33.28h238.080c17.92 0 33.28 15.36 33.28 33.28s-15.36 33.28-33.28 33.28h-17.92c-10.24 0-17.92 7.68-17.92 17.92v168.96c0 28.16-23.040 51.2-51.2 51.2h-161.28c-5.12 0-23.040 0-25.6-17.92 2.56-15.36 17.92-15.36 25.6-15.36h61.44c10.24 0 17.92-7.68 17.92-17.92v-171.52c0-10.24-7.68-17.92-17.92-17.92h-51.2zM529.92 550.4c-66.56 0-120.32 53.76-120.32 120.32s53.76 120.32 120.32 120.32c66.56 0 120.32-53.76 120.32-120.32s-56.32-120.32-120.32-120.32zM529.92 755.2c-46.080 0-84.48-38.4-84.48-84.48s38.4-84.48 84.48-84.48c46.080 0 84.48 38.4 84.48 84.48s-38.4 84.48-84.48 84.48z" />
<glyph unicode="&#xe922;" glyph-name="ico-sh-wallet" d="M559.104 263.68c-12.288 0-20.48-10.24-20.48-20.48 0-12.288 10.24-20.48 20.48-20.48h61.44v-20.48c0-12.288 10.24-20.48 20.48-20.48 12.288 0 20.48 10.24 20.48 20.48v20.48h20.48c24.576 0 61.44 16.384 61.44 61.44v40.96c0 45.056-36.864 61.44-61.44 61.44h-20.48v83.968h61.44c12.288 0 20.48 10.24 20.48 20.48 0 12.288-10.24 20.48-20.48 20.48h-61.44v20.48c0 12.288-10.24 20.48-20.48 20.48-12.288 0-20.48-10.24-20.48-20.48v-20.48h-20.48c-24.576 0-61.44-16.384-61.44-61.44v-40.96c0-45.056 36.864-61.44 61.44-61.44h20.48v-83.968h-61.44zM663.552 347.648h20.48c10.24 0 20.48-4.096 20.48-20.48v-40.96c0-16.384-12.288-20.48-20.48-20.48h-20.48v81.92zM600.064 388.608c-10.24 0-20.48 4.096-20.48 20.48v40.96c0 16.384 12.288 20.48 20.48 20.48h20.48v-83.968h-20.48zM272.384 607.744h212.992v-53.248h-212.992v53.248zM272.384 501.248h159.744v-53.248h-159.744v53.248zM272.384 394.752h159.744v-53.248h-159.744v53.248zM272.384 288.256h106.496v-53.248h-106.496v53.248zM831.488 873.984c-14.336 0-26.624-12.288-26.624-26.624v-26.624h-53.248v26.624c0 14.336-12.288 26.624-26.624 26.624s-26.624-12.288-26.624-26.624v-26.624h-53.248v26.624c0 14.336-12.288 26.624-26.624 26.624s-26.624-12.288-26.624-26.624v-26.624h-53.248v26.624c0 14.336-12.288 26.624-26.624 26.624s-26.624-12.288-26.624-26.624v-26.624h-53.248v26.624c0 14.336-12.288 26.624-26.624 26.624s-26.624-12.288-26.624-26.624v-26.624h-53.248v26.624c0 14.336-12.288 26.624-26.624 26.624s-26.624-12.288-26.624-26.624v-26.624h-53.248v26.624c0 14.336-12.288 26.624-26.624 26.624s-26.624-12.288-26.624-26.624v-800.768c0-14.336 12.288-26.624 26.624-26.624s26.624 12.288 26.624 26.624v26.624h53.248v-26.624c0-14.336 12.288-26.624 26.624-26.624s26.624 12.288 26.624 26.624v26.624h53.248v-26.624c0-14.336 12.288-26.624 26.624-26.624s26.624 12.288 26.624 26.624v26.624h53.248v-26.624c0-14.336 12.288-26.624 26.624-26.624s26.624 12.288 26.624 26.624v26.624h53.248v-26.624c0-14.336 12.288-26.624 26.624-26.624s26.624 12.288 26.624 26.624v26.624h53.248v-26.624c0-14.336 12.288-26.624 26.624-26.624s26.624 12.288 26.624 26.624v26.624h53.248v-26.624c0-14.336 12.288-26.624 26.624-26.624s26.624 12.288 26.624 26.624v800.768c0 14.336-12.288 26.624-26.624 26.624zM804.864 128.512h-585.728v638.976h585.728v-638.976z" />
<glyph unicode="&#xe923;" glyph-name="ico-sh-deposit" d="M48.54 732.952v-293.321h199.46l-205.323-293.321h469.321l205.323 293.321h70.4l-246.4-352h-404.798l-41.060-58.66h469.321l287.46 410.66h134.938v293.321h-938.651zM476.8 204.952h-322.66l275.721 398.921h322.66l-275.721-398.921zM394.66 433.752c-17.6-23.46 0-41.060 35.2-41.060h29.34c17.6 0 23.46-11.74 17.6-23.46s-29.34-23.46-46.94-23.46c-41.060 0-58.66 0-93.86 0-5.86-5.86-11.74-11.74-17.6-23.46h64.54c-5.86-5.86-11.74-11.74-17.6-23.46h29.34c5.86 5.86 11.74 11.74 17.6 23.46 35.2 0 76.26 17.6 93.86 41.060s0 41.060-35.2 41.060h-29.34c-17.6 0-23.46 11.74-17.6 23.46s29.34 23.46 46.94 23.46h99.74c5.86 5.86 11.74 11.74 17.6 23.46h-64.54c5.86 5.86 11.74 11.74 17.6 23.46h-29.34c-5.86-5.86-11.74-11.74-17.6-23.46-41.060 5.86-82.14-17.6-99.74-41.060z" />
<glyph unicode="&#xe924;" glyph-name="ico-sh-trade" d="M111.568 202.024h171.622v-171.622h-171.622v171.622zM340.378 316.44h171.622v-286.017h-171.622v286.017zM569.208 430.833h171.622v-400.432h-171.622v400.432zM798.017 545.249h171.622v-514.847h-171.622v514.847zM843.788 739.746h-171.622l-223.102-171.622-114.416 57.208-280.309-234.539v-74.375l291.746 245.976 114.416-57.208 234.539 177.331h171.622l102.977 97.249v85.812z" />
<glyph unicode="&#xe925;" glyph-name="ico-sh-user" d="M977 187.6c-31 43.4-124 74.4-223.2 111.6s-117.8 55.8-117.8 55.8v93c0 0 37.2 24.8 49.6 111.6 24.8-6.2 43.4 31 49.6 55.8 0 18.6-6.2 74.4-31 74.4 6.2 43.4 12.4 80.6 6.2 99.2-12.4 74.4-86.8 155-198.4 155s-186-80.6-192.2-155c0-18.6 0-55.8 6.2-99.2-24.8 6.2-31-49.6-31-74.4 0-18.6 24.8-62 49.6-55.8 12.4-86.8 49.6-111.6 49.6-111.6v-93c0 0-24.8-12.4-117.8-55.8-99.2-37.2-198.4-68.2-229.4-111.6-24.8-37.2-18.6-235.6-18.6-235.6h960.985c6.2 0 12.4 198.4-12.4 235.6z" />
<glyph unicode="&#xe926;" glyph-name="ico-sh-incomming-call" d="M717.43 20.876c-50.848 0-231.865 18.303-453.568 240.006s-240.006 404.751-240.006 453.568c0 83.392 105.766 201.36 134.24 201.36h61.019c8.132 0 16.272-4.070 18.303-12.202l87.463-211.531c4.070-8.132 0-18.303-6.101-24.404-83.392-63.050-111.867-83.392-111.867-113.897 0-67.12 282.713-349.833 349.833-349.833 32.545 0 52.878 28.474 115.937 111.867 6.101 8.132 16.272 10.171 24.404 6.101l207.461-89.493c8.132-4.070 12.202-10.171 12.202-18.303v-61.019c2.031-26.444-115.937-132.209-199.322-132.209zM906.579 846.65l-56.949 56.949-256.278-256.278v187.118h-81.354v-325.429h325.429v81.354h-187.118z" />
<glyph unicode="&#xe927;" glyph-name="ico-sh-outgoing-call" d="M762.507-7.466c-51.757 0-236.010 18.63-461.676 244.297s-244.297 411.987-244.297 461.676c0 84.883 107.657 204.96 136.64 204.96h62.11c8.277 0 16.563-4.143 18.63-12.42l89.027-215.313c4.143-8.277 0-18.63-6.21-24.84-84.883-64.177-113.867-84.883-113.867-115.933 0-68.32 287.767-356.087 356.087-356.087 33.127 0 53.823 28.983 118.010 113.867 6.21 8.277 16.563 10.353 24.84 6.21l211.17-91.093c8.277-4.143 12.42-10.353 12.42-18.63v-62.11c2.067-26.917-118.010-134.571-202.883-134.571zM636.22 903.466v-82.807h190.463l-260.859-260.859 57.967-57.967 260.859 260.859v-190.463h82.807v331.247z" />
<glyph unicode="&#xe928;" glyph-name="ico-sh-search" d="M661.333 362.667h-33.707l-11.947 11.52c41.813 48.64 66.987 111.787 66.987 180.48 0 153.173-124.16 277.333-277.333 277.333s-277.333-124.16-277.333-277.333 124.16-277.333 277.333-277.333c68.693 0 131.84 25.173 180.48 66.987l11.52-11.947v-33.707l213.333-212.907 63.573 63.573-212.907 213.333zM405.333 362.667c-106.24 0-192 85.76-192 192s85.76 192 192 192 192-85.76 192-192-85.76-192-192-192z" />
<glyph unicode="&#xe929;" glyph-name="ico-sh-info-closed" d="M512 857.6c-225.28 0-409.6-184.32-409.6-409.6s184.32-409.6 409.6-409.6 409.6 184.32 409.6 409.6c0 225.28-184.32 409.6-409.6 409.6zM653.312 413.184c-26.624-28.672-59.392-57.344-90.112-86.016-30.72-26.624-61.44-55.296-88.064-83.968-8.192-10.24-20.48-14.336-32.768-14.336-4.096 0-8.192 0-12.288 2.048-18.432 4.096-32.768 20.48-36.864 38.912-4.096 16.384 2.048 32.768 14.336 43.008 55.296 47.104 126.976 108.544 157.696 135.168-38.912 30.72-159.744 135.168-159.744 135.168-20.48 22.528-14.336 53.248 4.096 69.632 20.48 18.432 47.104 18.432 65.536-2.048 26.624-28.672 57.344-57.344 88.064-83.968 30.72-28.672 63.488-57.344 90.112-86.016 18.432-18.432 18.432-49.152 0-67.584z" />
<glyph unicode="&#xe92a;" glyph-name="ico-sh-calendar" d="M384 490.667h-85.333v-85.333h85.333v85.333zM554.667 490.667h-85.333v-85.333h85.333v85.333zM725.333 490.667h-85.333v-85.333h85.333v85.333zM810.667 789.333h-42.667v85.333h-85.333v-85.333h-341.333v85.333h-85.333v-85.333h-42.667c-47.36 0-84.907-38.4-84.907-85.333l-0.427-597.333c0-46.933 37.973-85.333 85.333-85.333h597.333c46.933 0 85.333 38.4 85.333 85.333v597.333c0 46.933-38.4 85.333-85.333 85.333zM810.667 106.667h-597.333v469.333h597.333v-469.333z" />
<glyph unicode="&#xe92b;" glyph-name="ico-sh-drag-up-down" horiz-adv-x="343" d="M0 960h113.778v-113.778h-113.778v113.778zM228.82 960h113.778v-113.778h-113.778v113.778zM0 732.444h113.778v-113.778h-113.778v113.778zM228.82 732.444h113.778v-113.778h-113.778v113.778zM0 504.889h113.778v-113.778h-113.778v113.778zM228.82 504.889h113.778v-113.778h-113.778v113.778zM0 277.333h113.778v-113.778h-113.778v113.778zM228.82 277.333h113.778v-113.778h-113.778v113.778zM1.264 49.778h113.778v-113.778h-113.778v113.778zM231.348 49.778h113.778v-113.778h-113.778v113.778z" />
<glyph unicode="&#xe92c;" glyph-name="ico-sh-signals" horiz-adv-x="597" d="M153.6 217.6l290.133 264.533 145.067-128-290.133-273.067 162.133-145.067h-460.8v426.667zM8.533 541.867l145.067-128 290.133 264.533 153.6-145.067v426.667h-460.8l162.133-145.067z" />
<glyph unicode="&#xe92d;" glyph-name="ico-sh-circle-with-plus" d="M512 857.6c-225.28 0-409.6-184.32-409.6-409.6s184.32-409.6 409.6-409.6 409.6 184.32 409.6 409.6c0 225.28-184.32 409.6-409.6 409.6zM700.416 409.088h-149.504v-149.504h-77.824v149.504h-149.504v77.824h149.504v149.504h77.824v-149.504h149.504v-77.824z" />
<glyph unicode="&#xe92e;" glyph-name="ico-wb-refresh" d="M753.067 689.067c-61.867 61.867-146.773 100.267-241.067 100.267-188.587 0-340.907-152.747-340.907-341.333s152.32-341.333 340.907-341.333c159.147 0 291.84 108.8 329.813 256h-88.747c-34.987-99.413-129.707-170.667-241.067-170.667-141.227 0-256 114.773-256 256s114.773 256 256 256c70.827 0 133.973-29.44 180.053-75.947l-137.387-137.387h298.667v298.667l-100.267-100.267z" />
<glyph unicode="&#xe92f;" glyph-name="ico-sh-cashback" horiz-adv-x="1017" d="M628.308 869.284c-227.858 60.898-463.194-74.787-524.092-302.645-0.68-2.622-1.166-5.245-1.36-7.867h-60.607c-5.051 0-10.101-1.263-14.569-3.885-13.986-8.061-18.648-25.933-10.587-39.919l100.137-173.467c5.439-9.518 15.637-15.152 26.71-14.569 9.907 0.583 18.842 5.925 23.893 14.569l99.943 173.467c2.622 4.468 3.885 9.518 3.885 14.569 0 16.026-13.015 29.235-29.138 29.235h-52.157c54.876 174.827 237.473 276.421 416.185 228.44 183.471-49.243 291.864-236.793 242.621-420.264-49.437-183.471-236.793-291.67-420.459-242.621-58.179 15.637-111.306 46.232-153.848 88.773-16.22 16.803-43.027 17.191-60.024 0.971-16.803-16.22-17.191-43.027-0.971-60.024 0.389-0.389 0.583-0.583 0.971-0.971 53.128-53.128 119.368-91.396 191.921-110.724 35.84-9.324 71.388-14.18 106.839-14.375 190.367-1.651 366.068 124.904 417.545 317.214 60.801 227.761-74.884 463.097-302.839 524.092z" />
<glyph unicode="&#xe930;" glyph-name="ico-sh-info-opened" d="M512 857.6c-225.28 0-409.6-184.32-409.6-409.6s184.32-409.6 409.6-409.6c225.28 0 409.6 184.32 409.6 409.6s-184.32 409.6-409.6 409.6zM714.752 454.144c-28.672-26.624-57.344-57.344-83.968-88.064-28.672-30.72-57.344-63.488-86.016-90.112-18.432-18.432-49.152-18.432-67.584 0-28.672 26.624-57.344 59.392-86.016 90.112-26.624 30.72-55.296 61.44-83.968 88.064-10.24 8.192-14.336 20.48-14.336 32.768 0 4.096 0 8.192 2.048 12.288 4.096 18.432 20.48 32.768 38.912 36.864 16.384 4.096 32.768-2.048 43.008-14.336 47.104-55.296 108.544-126.976 135.168-157.696 30.72 38.912 135.168 159.744 135.168 159.744 22.528 20.48 53.248 14.336 69.632-4.096 20.48-18.432 18.432-47.104-2.048-65.536z" />
<glyph unicode="&#xe931;" glyph-name="chat-icon" d="M52.131 246.924l340.713 338.851 199.215-193.629 305.338 331.404 74.473-74.473-379.811-405.876-199.215 193.629-266.24-264.378-74.473 74.473z" />
<glyph unicode="&#xe932;" glyph-name="ico-poi-addr-pending" d="M400.696 452.452h-106.852c-8.904 0-17.809-8.904-17.809-17.809v-244.87h-151.374v338.365c0 8.904-8.904 17.809-17.809 17.809h-4.452l289.391 289.391c4.452 4.452 17.809 4.452 26.713 0l200.348-204.8c13.357 4.452 31.165 4.452 44.522 8.904l-222.609 222.609c-22.261 22.261-57.878 22.261-75.687 0l-320.557-320.557c-4.452-4.452-8.904-13.357-4.452-17.809 4.452-8.904 8.904-13.357 17.809-13.357h31.165v-338.365c0-8.904 8.904-17.809 17.809-17.809h191.443c8.904 0 17.809 8.904 17.809 17.809v244.87h71.235c4.452 13.357 8.904 22.261 13.357 35.617zM783.583 194.226c-4.452 0-8.904 0-13.357 4.452l-133.565 89.043c-4.452 4.452-8.904 8.904-8.904 17.809v178.087c0 13.357 8.904 22.261 22.261 22.261s22.261-8.904 22.261-22.261v-164.73l124.661-84.591c8.904-8.904 13.357-22.261 4.452-31.165 0-4.452-8.904-8.904-17.809-8.904zM694.539 16.139c-160.278 0-289.391 129.113-289.391 289.391s129.113 289.391 289.391 289.391 289.391-129.113 289.391-289.391-129.113-289.391-289.391-289.391zM694.539 550.4c-133.565 0-244.87-111.304-244.87-244.87s111.304-244.87 244.87-244.87c133.565 0 244.87 111.304 244.87 244.87s-106.852 244.87-244.87 244.87z" />
<glyph unicode="&#xe933;" glyph-name="ico-poi-addr-error" d="M489.739 443.548h-213.704c-8.904 0-17.809-8.904-17.809-17.809v-244.87h-151.374v338.365c0 8.904-8.904 17.809-17.809 17.809h-4.452l289.391 289.391c4.452 4.452 17.809 4.452 26.713 0l195.896-200.348c4.452 13.357 13.357 22.261 26.713 26.713l-200.348 204.8c-22.261 22.261-57.878 22.261-75.687 0l-320.557-325.009c-4.452-4.452-4.452-13.357-4.452-17.809 4.452-8.904 8.904-13.357 17.809-13.357h31.165v-338.365c0-8.904 8.904-17.809 17.809-17.809h191.443c8.904 0 17.809 8.904 17.809 17.809v244.87h173.635c4.452 13.357 8.904 22.261 17.809 35.617zM890.435 25.043h-400.696c-40.070 0-75.687 13.357-93.496 40.070-13.357 17.809-26.713 48.974-4.452 93.496l209.252 414.052c17.809 31.165 48.974 48.974 84.591 48.974s66.783-17.809 84.591-44.522l213.704-418.504c17.809-31.165 17.809-66.783 0-93.496-13.357-26.713-48.974-40.070-93.496-40.070zM431.861 140.8c-8.904-17.809-13.357-40.070 0-57.878 8.904-13.357 31.165-22.261 57.878-22.261h400.696c26.713 0 48.974 8.904 62.33 26.713 8.904 13.357 8.904 31.165-4.452 53.426l-209.252 418.504c-8.904 17.809-26.713 26.713-48.974 26.713-17.809 0-35.617-8.904-48.974-26.713l-209.252-418.504zM694.539 203.13c-13.357 0-26.713 8.904-26.713 22.261v200.348c0 8.904 13.357 22.261 26.713 22.261s26.713-8.904 26.713-22.261v-200.348c0-13.357-13.357-22.261-26.713-22.261zM694.539 109.635c-8.904 0-13.357 4.452-17.809 8.904s-8.904 13.357-8.904 17.809c0 8.904 4.452 13.357 8.904 17.809 8.904 8.904 26.713 8.904 35.617 0 4.452-4.452 8.904-13.357 8.904-17.809 0-8.904-4.452-13.357-8.904-17.809s-13.357-8.904-17.809-8.904z" />
<glyph unicode="&#xe934;" glyph-name="ico-poi-addr-done" d="M396.243 452.452h-102.4c-8.904 0-17.809-8.904-17.809-17.809v-244.87h-155.826v342.817c0 8.904-8.904 17.809-17.809 17.809h-4.452l289.391 289.391c4.452 4.452 17.809 4.452 26.713 0l200.348-204.8c13.357 4.452 31.165 4.452 44.522 8.904l-222.609 222.609c-22.261 22.261-57.878 22.261-75.687 0l-320.557-320.557c-4.452-8.904-4.452-13.357 0-22.261 0-4.452 8.904-8.904 13.357-8.904h31.165v-338.365c0-8.904 8.904-17.809 17.809-17.809h191.443c8.904 0 17.809 8.904 17.809 17.809v244.87h71.235c4.452 8.904 8.904 22.261 13.357 31.165zM654.47 171.965c-4.452 0-13.357 0-17.809 4.452l-89.043 89.043c-8.904 8.904-8.904 22.261 0 31.165s22.261 8.904 31.165 0l71.235-71.235 160.278 160.278c8.904 8.904 22.261 8.904 31.165 0s8.904-22.261 0-31.165l-178.087-178.087c0-4.452-4.452-4.452-8.904-4.452zM698.991 16.139c-160.278 0-289.391 129.113-289.391 289.391s129.113 289.391 289.391 289.391 289.391-129.113 289.391-289.391-129.113-289.391-289.391-289.391zM698.991 550.4c-133.565 0-244.87-111.304-244.87-244.87s111.304-244.87 244.87-244.87c133.565 0 244.87 111.304 244.87 244.87s-111.304 244.87-244.87 244.87z" />
<glyph unicode="&#xe935;" glyph-name="ico-poi-addr" d="M810.296 82.922h-191.443c-8.904 0-17.809 8.904-17.809 17.809v244.87h-178.087v-244.87c0-8.904-8.904-17.809-17.809-17.809h-191.443c-8.904 0-17.809 8.904-17.809 17.809v338.365h-26.713c-8.904 0-13.357 4.452-17.809 13.357s0 13.357 4.452 22.261l320.557 325.009c22.261 17.809 57.878 17.809 75.687 0l320.557-320.557c4.452-4.452 8.904-13.357 4.452-22.261s-8.904-13.357-17.809-13.357h-31.165v-338.365c0-13.357-8.904-22.261-17.809-22.261zM636.661 122.991h151.374v338.365c0 8.904 8.904 17.809 17.809 17.809h4.452l-289.391 289.391c-4.452 4.452-17.809 4.452-26.713 0l-289.391-289.391h4.452c8.904 0 17.809-8.904 17.809-17.809v-338.365h151.374v244.87c0 8.904 8.904 17.809 17.809 17.809h213.704c8.904 0 17.809-8.904 17.809-17.809v-244.87z" />
<glyph unicode="&#xe936;" glyph-name="ico-poi-id-pending" d="M222.609 234.296v40.070c0 84.591 71.235 155.826 160.278 155.826 0 0 0 0 4.452 0 4.452 13.357 8.904 22.261 13.357 35.617-4.452 0-8.904 0-13.357 0-53.426 0-97.948 44.522-97.948 97.948s44.522 97.948 97.948 97.948c48.974 0 84.591-35.617 93.496-80.139 8.904 8.904 17.809 13.357 26.713 22.261-17.809 48.974-66.783 89.043-120.209 89.043-71.235-4.452-129.113-62.33-129.113-133.565 0-44.522 26.713-84.591 62.33-111.304-71.235-26.713-124.661-93.496-124.661-173.635v-40.070h-133.565v583.235h645.565v-151.374c8.904 0 22.261 0 31.165 0v169.183c0 8.904-8.904 17.809-17.809 17.809h-676.73c-8.904 0-17.809-8.904-17.809-17.809v-614.4c4.452-8.904 8.904-17.809 17.809-17.809h356.174c-4.452 8.904-8.904 22.261-13.357 31.165h-164.73zM681.183 345.6v169.183c0 13.357-8.904 22.261-22.261 22.261s-22.261-8.904-22.261-22.261v-178.087c0-8.904 4.452-13.357 8.904-17.809l133.565-89.043c4.452-4.452 8.904-4.452 13.357-4.452 8.904 0 13.357 4.452 17.809 8.904 8.904 8.904 4.452 22.261-4.452 31.165l-124.661 80.139zM703.443 626.087c-160.278 0-289.391-129.113-289.391-289.391s129.113-289.391 289.391-289.391 289.391 129.113 289.391 289.391c0 155.826-129.113 289.391-289.391 289.391zM703.443 91.826c-133.565 0-244.87 111.304-244.87 244.87s111.304 244.87 244.87 244.87c133.565 0 244.87-111.304 244.87-244.87s-106.852-244.87-244.87-244.87z" />
<glyph unicode="&#xe937;" glyph-name="ico-milestone-error" d="M512 934.4c-266.24 0-486.4-220.16-486.4-486.4s220.16-486.4 486.4-486.4 486.4 220.16 486.4 486.4-220.16 486.4-486.4 486.4zM696.32 325.12c15.36-15.36 15.36-40.96 0-56.32-10.24-10.24-20.48-10.24-30.72-10.24s-20.48 5.12-30.72 10.24l-122.88 122.88-122.88-122.88c-15.36-15.36-40.96-15.36-56.32 0s-15.36 40.96 0 56.32l122.88 122.88-128 122.88c-15.36 15.36-15.36 40.96 0 56.32s40.96 15.36 56.32 0l128-122.88 122.88 122.88c15.36 15.36 40.96 15.36 56.32 0s15.36-40.96 0-56.32l-122.88-122.88 128-122.88z" />
<glyph unicode="&#xe938;" glyph-name="ico-poi-id-error" d="M979.478 185.322l-209.252 418.504c-17.809 26.713-48.974 44.522-84.591 44.522s-66.783-17.809-84.591-48.974l-209.252-414.052c-22.261-48.974-8.904-75.687 4.452-93.496 17.809-22.261 53.426-40.070 93.496-40.070h400.696c40.070 0 75.687 17.809 97.948 40.070 8.904 26.713 8.904 62.33-8.904 93.496zM943.861 114.087c-8.904-13.357-35.617-26.713-62.33-26.713h-400.696c-26.713 0-48.974 8.904-57.878 22.261-13.357 17.809-4.452 40.070 0 57.878l209.252 414.052c8.904 17.809 31.165 26.713 48.974 26.713s35.617-8.904 48.974-26.713l209.252-414.052c13.357-22.261 17.809-40.070 4.452-53.426zM685.635 470.261c-13.357 0-26.713-8.904-26.713-22.261v-200.348c0-8.904 13.357-22.261 26.713-22.261s26.713 13.357 26.713 22.261v200.348c0 13.357-13.357 22.261-26.713 22.261zM667.826 180.87c-4.452-4.452-8.904-13.357-8.904-17.809 0-8.904 4.452-13.357 8.904-17.809s13.357-8.904 17.809-8.904 13.357 4.452 17.809 8.904c4.452 4.452 8.904 13.357 8.904 17.809 0 8.904-4.452 13.357-8.904 17.809-8.904 8.904-26.713 13.357-35.617 0zM222.609 269.913c0 84.591 71.235 155.826 160.278 155.826 0 0 0 0 0 0s0 0 0 0c17.809 0 40.070-4.452 62.33-17.809 4.452 8.904 13.357 26.713 17.809 31.165-4.452 0-8.904 0-13.357 4.452 35.617 22.261 62.33 62.33 62.33 111.304 0 71.235-57.878 129.113-129.113 129.113s-124.661-57.878-124.661-129.113c0-44.522 26.713-84.591 62.33-111.304-71.235-26.713-124.661-93.496-124.661-173.635v-40.070h-133.565v583.235h645.565v-124.661c13.357 0 22.261-4.452 31.165-8.904v146.922c0 8.904-8.904 17.809-17.809 17.809h-676.73c-8.904 0-13.357-8.904-13.357-17.809v-614.4c0-8.904 8.904-17.809 17.809-17.809h293.843c8.904 13.357 13.357 26.713 17.809 31.165h-138.017v44.522zM289.391 554.852c0 53.426 44.522 97.948 97.948 97.948s97.948-44.522 97.948-97.948-44.522-97.948-97.948-97.948-97.948 44.522-97.948 97.948z" />
<glyph unicode="&#xe939;" glyph-name="ico-poi-id-done" d="M823.652 416.835l-160.278-160.278-71.235 71.235c-8.904 8.904-22.261 8.904-31.165 0s-8.904-22.261 0-31.165l89.043-89.043c4.452-4.452 8.904-4.452 17.809-4.452 4.452 0 13.357 0 17.809 4.452l178.087 178.087c8.904 8.904 8.904 22.261 0 31.165-17.809 8.904-31.165 8.904-40.070 0zM707.896 621.635c-160.278 0-289.391-129.113-289.391-289.391s129.113-289.391 289.391-289.391 289.391 129.113 289.391 289.391-129.113 289.391-289.391 289.391zM707.896 87.374c-133.565 0-244.87 111.304-244.87 244.87s111.304 244.87 244.87 244.87c133.565 0 244.87-111.304 244.87-244.87s-111.304-244.87-244.87-244.87zM222.609 234.296v40.070c0 84.591 71.235 155.826 160.278 155.826 0 0 0 0 4.452 0 4.452 13.357 8.904 22.261 13.357 35.617-4.452 0-8.904 0-13.357 0-53.426 0-97.948 44.522-97.948 97.948s44.522 97.948 97.948 97.948c48.974 0 84.591-35.617 93.496-80.139 8.904 8.904 17.809 13.357 26.713 22.261-17.809 48.974-66.783 89.043-120.209 89.043-75.687-4.452-133.565-62.33-133.565-133.565 0-44.522 26.713-84.591 62.33-111.304-71.235-26.713-124.661-93.496-124.661-173.635v-40.070h-129.113v583.235h645.565v-151.374c8.904 0 22.261 0 31.165 0v169.183c0 8.904-8.904 17.809-17.809 17.809h-676.73c-8.904 0-17.809-8.904-17.809-17.809v-614.4c0-8.904 8.904-17.809 17.809-17.809h356.174c-4.452 8.904-8.904 22.261-13.357 31.165h-164.73z" />
<glyph unicode="&#xe93a;" glyph-name="ico-locked" d="M855.341 586.541h-36.141v36.141c0 162.635-150.588 313.224-313.224 313.224-168.659 0-313.224-138.541-313.224-295.153v-54.212h-24.094c-18.071 0-36.141-18.071-36.141-36.141v-554.165c0-18.071 18.071-36.141 36.141-36.141h692.706c18.071 0 36.141 18.071 36.141 36.141v554.165c-6.024 18.071-18.071 36.141-42.165 36.141zM271.059 640.753c0 120.471 114.447 222.871 240.941 222.871s240.941-120.471 240.941-240.941v-36.141h-481.882v54.212zM825.224 32.376h-626.447v481.882h620.424v-481.882zM475.859 249.224v-108.424c0-18.071 18.071-36.141 36.141-36.141s36.141 18.071 36.141 36.141v108.424c42.165 12.047 66.259 54.212 66.259 96.376 0 60.235-48.188 102.4-102.4 102.4-60.235 0-102.4-48.188-102.4-102.4 0-48.188 30.118-84.329 66.259-96.376z" />
<glyph unicode="&#xe93b;" glyph-name="ico-milestone-dot" d="M716.8 448c0-113.108-91.692-204.8-204.8-204.8s-204.8 91.692-204.8 204.8c0 113.108 91.692 204.8 204.8 204.8s204.8-91.692 204.8-204.8z" />
<glyph unicode="&#xe93c;" glyph-name="ico-restricted" d="M512 929.882c-265.035 0-481.882-216.847-481.882-481.882s216.847-481.882 481.882-481.882 481.882 216.847 481.882 481.882-216.847 481.882-481.882 481.882zM512 38.4c-222.871 0-409.6 180.706-409.6 409.6 0 96.376 36.141 186.729 90.353 252.988l572.235-572.235c-66.259-54.212-156.612-90.353-252.988-90.353zM831.247 195.012l-572.235 572.235c72.282 54.212 156.612 90.353 252.988 90.353 222.871 0 409.6-180.706 409.6-409.6 0-96.376-36.141-186.729-90.353-252.988z" />
<glyph unicode="&#xe93d;" glyph-name="ico-not-active" d="M825.224-15.812h-626.447c-66.259 0-120.471 24.094-144.565 60.235-24.094 30.118-42.165 78.306-6.024 150.588l331.294 644.518c30.118 48.188 78.306 72.282 132.518 72.282s102.4-24.094 132.518-72.282l331.294-650.541c30.118-54.212 30.118-102.4 0-144.565-30.118-36.141-90.353-60.235-150.588-60.235zM108.424 164.894c-12.047-24.094-24.094-60.235 0-90.353 12.047-18.071 48.188-30.118 90.353-30.118h626.447c42.165 0 78.306 12.047 96.376 36.141s12.047 48.188-6.024 84.329l-331.294 650.541c-12.047 24.094-42.165 36.141-72.282 36.141s-60.235-12.047-78.306-42.165l-325.271-644.518zM512 255.247c-24.094 0-42.165 12.047-42.165 30.118v319.247c0 18.071 18.071 30.118 42.165 30.118s42.165-12.047 42.165-30.118v-313.224c0-18.071-18.071-36.141-42.165-36.141zM512 116.706c-12.047 0-18.071 6.024-30.118 12.047-6.024 6.024-12.047 18.071-12.047 30.118s6.024 24.094 12.047 30.118c18.071 18.071 42.165 18.071 60.235 0 6.024-6.024 12.047-18.071 12.047-30.118s-6.024-24.094-12.047-30.118c-6.024-12.047-18.071-12.047-30.118-12.047z" />
<glyph unicode="&#xe93e;" glyph-name="ico-limited" d="M512-33.882c-265.035 0-481.882 216.847-481.882 481.882s216.847 481.882 481.882 481.882 481.882-216.847 481.882-481.882-216.847-481.882-481.882-481.882zM512 857.6c-222.871 0-409.6-180.706-409.6-409.6 0-222.871 180.706-409.6 409.6-409.6 222.871 0 409.6 180.706 409.6 409.6 0 222.871-186.729 409.6-409.6 409.6zM512 544.376c24.094 0 42.165-12.047 42.165-30.118v-319.247c0-18.071-18.071-30.118-42.165-30.118s-42.165 12.047-42.165 30.118v319.247c0 18.071 18.071 30.118 42.165 30.118zM512 731.106c18.071 0 30.118-6.024 42.165-18.071s18.071-30.118 18.071-48.188c0-18.071-6.024-30.118-18.071-42.165-24.094-24.094-60.235-24.094-84.329 0-12.047 12.047-18.071 30.118-18.071 48.188s6.024 30.118 18.071 42.165c12.047 12.047 24.094 18.071 42.165 18.071z" />
<glyph unicode="&#xe93f;" glyph-name="ico-active" d="M512-33.882c-265.035 0-481.882 216.847-481.882 481.882s216.847 481.882 481.882 481.882 481.882-216.847 481.882-481.882-216.847-481.882-481.882-481.882zM512 857.6c-222.871 0-409.6-180.706-409.6-409.6 0-222.871 180.706-409.6 409.6-409.6 222.871 0 409.6 180.706 409.6 409.6 0 222.871-186.729 409.6-409.6 409.6zM433.694 213.082c-12.047 0-18.071 6.024-30.118 12.047l-156.612 156.612c-18.071 18.071-18.071 42.165 0 54.212 18.071 18.071 42.165 18.071 54.212 0l132.518-132.518 289.129 295.153c18.071 18.071 42.165 18.071 54.212 0 18.071-18.071 18.071-42.165 0-54.212l-319.247-319.247c-6.024-12.047-18.071-12.047-24.094-12.047z" />
<glyph unicode="&#xe940;" glyph-name="ico-tooltip" d="M494.933 285.867c-42.667 0-68.267-34.133-68.267-68.267s34.133-68.267 68.267-68.267c42.667 0 68.267 34.133 68.267 68.267s-34.133 68.267-68.267 68.267zM503.467 755.2c-51.2 0-153.6-25.6-153.6-51.2v-8.533l25.6-59.733 8.533-8.533c8.533 0 51.2 25.6 102.4 25.6 42.667 0 68.267-17.067 68.267-59.733s-25.6-59.733-59.733-76.8c-25.6-8.533-59.733-8.533-59.733-25.6v-102.4c0-25.6 8.533-25.6 25.6-25.6h59.733c17.067 0 17.067 0 17.067 17.067v59.733c51.2 17.067 136.533 42.667 136.533 153.6 0 93.867-59.733 162.133-170.667 162.133zM512 917.333c-256 0-469.333-213.333-469.333-469.333s213.333-469.333 469.333-469.333c256 0 469.333 213.333 469.333 469.333s-213.333 469.333-469.333 469.333zM512 55.467c-213.333 0-392.533 179.2-392.533 392.533s179.2 392.533 392.533 392.533 392.533-179.2 392.533-392.533c0-213.333-179.2-392.533-392.533-392.533z" />
<glyph unicode="&#xe941;" glyph-name="ico-milestone-done" d="M512 934.4c-266.24 0-486.4-220.16-486.4-486.4s220.16-486.4 486.4-486.4 486.4 220.16 486.4 486.4-220.16 486.4-486.4 486.4zM757.76 565.76l-291.84-291.84c-10.24-10.24-20.48-10.24-30.72-10.24s-15.36 0-25.6 10.24l-143.36 143.36c-10.24 10.24-15.36 20.48-15.36 30.72s5.12 20.48 15.36 30.72c15.36 15.36 40.96 15.36 56.32 0l117.76-117.76 261.12 261.12c15.36 15.36 40.96 15.36 56.32 0 10.24-10.24 10.24-20.48 10.24-30.72 5.12-10.24 0-20.48-10.24-25.6z" />
<glyph unicode="&#xe942;" glyph-name="ico-poi-num-pending" d="M814.748 283.27c-4.452 0-8.904 0-13.357 4.452l-133.565 89.043c-4.452 4.452-8.904 8.904-8.904 17.809v178.087c0 13.357 8.904 22.261 22.261 22.261s22.261-8.904 22.261-22.261v-164.73l124.661-84.591c8.904-8.904 13.357-22.261 4.452-31.165-4.452-4.452-8.904-8.904-17.809-8.904zM725.704 105.183c-160.278 0-289.391 129.113-289.391 289.391s129.113 289.391 289.391 289.391 289.391-129.113 289.391-289.391-129.113-289.391-289.391-289.391zM725.704 639.443c-133.565 0-244.87-111.304-244.87-244.87s111.304-244.87 244.87-244.87c133.565 0 244.87 111.304 244.87 244.87s-106.852 244.87-244.87 244.87zM418.504 323.339h-62.33c0 4.452 0 4.452 0 8.904 0 22.261-17.809 44.522-44.522 44.522s-44.522-17.809-44.522-44.522c0-4.452 0-4.452 0-8.904h-66.783c0 4.452 0 4.452 0 8.904 0 22.261-17.809 44.522-44.522 44.522s-44.522-17.809-44.522-44.522c0-4.452 0-4.452 0-8.904h-66.783v431.861h694.539v-40.070c13.357 0 22.261 0 35.617-4.452v62.33c0 8.904-8.904 17.809-17.809 17.809h-730.157c-8.904 0-17.809-8.904-17.809-17.809v-471.93c0-8.904 8.904-17.809 17.809-17.809h102.4c8.904 0 17.809 8.904 17.809 17.809 0 0 0 4.452 0 4.452 4.452 4.452 4.452 13.357 0 17.809 0 0 0 4.452 0 4.452 0 8.904 4.452 8.904 8.904 8.904s8.904-4.452 8.904-8.904c0 0 0-4.452 0-4.452-4.452-4.452-4.452-13.357 0-17.809 0 0 0-4.452 0-4.452 0-8.904 8.904-17.809 17.809-17.809h102.4c8.904 0 17.809 8.904 17.809 17.809 0 0 0 4.452 0 4.452 4.452 4.452 4.452 13.357 0 17.809 0 0 0 4.452 0 4.452 0 8.904 4.452 8.904 8.904 8.904s8.904-4.452 8.904-8.904c0 0 0-4.452 0-4.452-4.452-4.452-4.452-13.357 0-17.809 0 0 0-4.452 0-4.452 0-8.904 8.904-17.809 17.809-17.809h89.043c-4.452 13.357-8.904 26.713-8.904 40.070zM298.296 416.835h-182.539c-8.904 0-17.809 8.904-17.809 17.809v235.965c0 8.904 8.904 17.809 17.809 17.809h182.539c8.904 0 17.809-8.904 17.809-17.809v-235.965c0-8.904-8.904-17.809-17.809-17.809zM133.565 452.452h146.922v200.348h-146.922v-200.348z" />
<glyph unicode="&#xe943;" glyph-name="ico-poi-num-error" d="M899.339 114.087h-400.696c-40.070 0-75.687 13.357-93.496 40.070-13.357 13.357-22.261 44.522-4.452 93.496l209.252 414.052c17.809 31.165 48.974 48.974 84.591 48.974s66.783-17.809 84.591-44.522l213.704-418.504c17.809-31.165 17.809-66.783 0-93.496s-53.426-40.070-93.496-40.070zM440.765 229.843c-8.904-17.809-13.357-40.070 0-57.878 8.904-13.357 31.165-22.261 57.878-22.261h400.696c26.713 0 48.974 8.904 62.33 26.713 8.904 13.357 8.904 31.165-4.452 53.426l-209.252 414.052c-8.904 17.809-26.713 26.713-48.974 26.713-17.809 0-35.617-8.904-48.974-26.713l-209.252-414.052zM703.443 287.722c-13.357 0-26.713 8.904-26.713 22.261v200.348c0 8.904 13.357 22.261 26.713 22.261s26.713-8.904 26.713-22.261v-200.348c-4.452-13.357-13.357-22.261-26.713-22.261zM703.443 198.678c-8.904 0-13.357 4.452-17.809 8.904s-8.904 13.357-8.904 17.809c0 8.904 4.452 13.357 8.904 17.809 8.904 8.904 26.713 8.904 35.617 0 4.452-4.452 8.904-13.357 8.904-17.809 0-8.904-4.452-13.357-8.904-17.809-8.904-4.452-13.357-8.904-17.809-8.904zM761.322 781.913h-730.157c-8.904 0-17.809-8.904-17.809-17.809v-471.93c0-8.904 8.904-17.809 17.809-17.809h102.4c8.904 0 17.809 8.904 17.809 17.809 0 0 0 4.452 0 4.452 4.452 4.452 4.452 13.357 0 17.809 0 0 0 4.452 0 4.452 0 4.452 4.452 8.904 8.904 8.904s8.904-4.452 8.904-8.904c0 0 0-4.452 0-4.452-4.452-4.452-4.452-13.357 0-17.809 0 0 0-4.452 0-4.452 0-8.904 8.904-17.809 17.809-17.809h102.4c8.904 0 17.809 8.904 17.809 17.809 0 0 0 4.452 0 4.452 4.452 4.452 4.452 13.357 0 17.809 0 0 0 4.452 0 4.452 0 4.452 4.452 8.904 8.904 8.904s8.904-4.452 8.904-8.904c0 0 0-4.452 0-4.452-4.452-4.452-4.452-13.357 0-17.809 0 0 0-4.452 0-4.452 0-8.904 8.904-17.809 17.809-17.809h22.261c0 0 0 0 0 4.452 8.904 8.904 13.357 22.261 22.261 31.165h-26.713c0 4.452 0 4.452 0 8.904 0 22.261-17.809 44.522-44.522 44.522s-44.522-17.809-44.522-44.522c0-4.452 0-4.452 0-8.904h-66.783c0 4.452 0 4.452 0 8.904 0 22.261-17.809 44.522-44.522 44.522s-44.522-17.809-44.522-44.522c0-4.452 0-4.452 0-8.904h-66.783v436.313h694.539c0 0 0 0 4.452 0 13.357 0 22.261 0 35.617 0v17.809c-4.452 8.904-13.357 17.809-22.261 17.809zM307.2 407.93h-182.539c-8.904 0-17.809 8.904-17.809 17.809v235.965c0 8.904 8.904 17.809 17.809 17.809h182.539c8.904 0 17.809-8.904 17.809-17.809v-235.965c0-8.904-8.904-17.809-17.809-17.809zM142.47 443.548h146.922v200.348h-146.922v-200.348z" />
<glyph unicode="&#xe944;" glyph-name="ico-poi-num-done" d="M685.635 261.009c-4.452 0-13.357 0-17.809 4.452l-89.043 89.043c-8.904 8.904-8.904 22.261 0 31.165s22.261 8.904 31.165 0l71.235-71.235 160.278 160.278c8.904 8.904 22.261 8.904 31.165 0s8.904-22.261 0-31.165l-178.087-178.087c4.452-4.452-4.452-4.452-8.904-4.452zM730.157 105.183c-160.278 0-289.391 129.113-289.391 289.391s129.113 289.391 289.391 289.391 289.391-129.113 289.391-289.391-129.113-289.391-289.391-289.391zM730.157 639.443c-133.565 0-244.87-111.304-244.87-244.87s111.304-244.87 244.87-244.87c133.565 0 244.87 111.304 244.87 244.87s-111.304 244.87-244.87 244.87zM414.052 323.339h-62.33c0 4.452 0 4.452 0 8.904 0 22.261-17.809 44.522-44.522 44.522s-44.522-17.809-44.522-44.522c0-4.452 0-4.452 0-8.904h-66.783c0 4.452 0 4.452 0 8.904 0 22.261-17.809 44.522-44.522 44.522s-44.522-17.809-44.522-44.522c0-4.452 0-4.452 0-8.904h-66.783v431.861h694.539v-40.070c13.357 0 22.261 0 35.617-4.452v62.33c0 8.904-8.904 17.809-17.809 17.809h-730.157c-8.904 0-17.809-8.904-17.809-17.809v-471.93c0-8.904 8.904-17.809 17.809-17.809h102.4c8.904 0 17.809 8.904 17.809 17.809 0 0 0 4.452 0 4.452 4.452 4.452 4.452 13.357 0 17.809 0 0 0 4.452 0 4.452 0 4.452 4.452 8.904 8.904 8.904s8.904-4.452 8.904-8.904c0 0 0-4.452 0-4.452-4.452-4.452-4.452-13.357 0-17.809 0 0 0-4.452 0-4.452 0-8.904 8.904-17.809 17.809-17.809h102.4c8.904 0 17.809 8.904 17.809 17.809 0 0 0 4.452 0 4.452 4.452 4.452 4.452 13.357 0 17.809 0 0 0 4.452 0 4.452 0 4.452 4.452 8.904 8.904 8.904s8.904-4.452 8.904-8.904c0 0 0-4.452 0-4.452-4.452-4.452-4.452-13.357 0-17.809 0 0 0-4.452 0-4.452 0-8.904 8.904-17.809 17.809-17.809h89.043c-4.452 13.357-4.452 26.713-8.904 40.070zM293.843 416.835h-182.539c-8.904 0-17.809 8.904-17.809 17.809v235.965c0 8.904 8.904 17.809 17.809 17.809h182.539c13.357 0 17.809-8.904 17.809-17.809v-235.965c0-8.904-4.452-17.809-17.809-17.809zM129.113 452.452h146.922v200.348h-146.922v-200.348z" />
<glyph unicode="&#xe945;" glyph-name="ico-poi-num" d="M823.652 559.304h-262.678c-8.904 0-17.809 8.904-17.809 17.809s8.904 17.809 17.809 17.809h262.678c8.904 0 17.809-8.904 17.809-17.809s-4.452-17.809-17.809-17.809zM721.252 456.904h-155.826c-8.904 0-17.809 8.904-17.809 17.809s8.904 17.809 17.809 17.809h155.826c8.904 0 17.809-8.904 17.809-17.809s-8.904-17.809-17.809-17.809zM823.652 350.052h-262.678c-8.904 0-17.809 8.904-17.809 17.809s8.904 17.809 17.809 17.809h262.678c8.904 0 17.809-8.904 17.809-17.809s-4.452-17.809-17.809-17.809zM877.078 194.226h-102.4c-8.904 0-17.809 8.904-17.809 17.809 0 0 0 4.452 0 4.452-4.452 4.452-4.452 13.357 0 17.809 0 0 0 4.452 0 4.452 0 4.452-4.452 8.904-8.904 8.904s-8.904-4.452-8.904-8.904c0 0 0-4.452 0-4.452 4.452-4.452 4.452-13.357 0-17.809 0 0 0-4.452 0-4.452 0-8.904-8.904-17.809-17.809-17.809h-102.4c-8.904 0-17.809 8.904-17.809 17.809 0 0 0 4.452 0 4.452-4.452 4.452-4.452 13.357 0 17.809 0 0 0 4.452 0 4.452 0 4.452-4.452 8.904-8.904 8.904s-8.904-4.452-8.904-8.904c0 0 0-4.452 0-4.452 4.452-4.452 4.452-13.357 0-17.809 0 0 0-4.452 0-4.452 0-8.904-8.904-17.809-17.809-17.809h-102.4c-8.904 0-17.809 8.904-17.809 17.809 0 0 0 4.452 0 4.452-4.452 4.452-4.452 13.357 0 17.809 0 0 0 4.452 0 4.452 0 4.452-4.452 8.904-8.904 8.904s-8.904-4.452-8.904-8.904c0 0 0-4.452 0-4.452 4.452-4.452 4.452-13.357 0-17.809 0 0 0-4.452 0-4.452 0-8.904-8.904-17.809-17.809-17.809h-106.852c-8.904 0-17.809 8.904-17.809 17.809 0 0 0 4.452 0 4.452-4.452 4.452-4.452 13.357 0 17.809 0 0 0 4.452 0 4.452 0 4.452-4.452 8.904-8.904 8.904s-8.904-4.452-8.904-8.904c0 0 0-4.452 0-4.452 4.452-4.452 4.452-13.357 0-17.809 0 0 0-4.452 0-4.452 0-8.904-8.904-17.809-17.809-17.809h-102.4c-8.904 0-17.809 8.904-17.809 17.809v471.93c0 8.904 8.904 17.809 17.809 17.809h730.157c8.904 0 17.809-8.904 17.809-17.809v-471.93c0-8.904-8.904-17.809-17.809-17.809zM788.035 229.843h71.235v436.313h-694.539v-436.313h71.235c0 4.452 0 4.452 0 8.904 0 22.261 17.809 44.522 44.522 44.522s44.522-17.809 44.522-44.522c0-4.452 0-4.452 0-8.904h71.235c0 4.452 0 4.452 0 8.904 0 22.261 17.809 44.522 44.522 44.522s44.522-17.809 44.522-44.522c0-4.452 0-4.452 0-8.904h71.235c0 4.452 0 4.452 0 8.904 0 22.261 17.809 44.522 44.522 44.522s44.522-17.809 44.522-44.522c0-4.452 0-4.452 0-8.904h71.235c0 4.452 0 4.452 0 8.904 0 22.261 17.809 44.522 44.522 44.522s44.522-17.809 44.522-44.522c-13.357-4.452-17.809-4.452-17.809-8.904zM418.504 327.791h-182.539c-8.904 0-17.809 8.904-17.809 17.809v231.513c0 8.904 8.904 17.809 17.809 17.809h182.539c8.904 0 17.809-8.904 17.809-17.809v-235.965c0-8.904-4.452-13.357-17.809-13.357zM253.774 358.957h146.922v200.348h-146.922v-200.348z" />
<glyph unicode="&#xe946;" glyph-name="ico-milestone" d="M512-33.882c-265.035 0-481.882 216.847-481.882 481.882s216.847 481.882 481.882 481.882 481.882-216.847 481.882-481.882-216.847-481.882-481.882-481.882zM512 857.6c-222.871 0-409.6-180.706-409.6-409.6 0-222.871 180.706-409.6 409.6-409.6 222.871 0 409.6 180.706 409.6 409.6 0 222.871-186.729 409.6-409.6 409.6z" />
<glyph unicode="&#xe947;" glyph-name="ico-milestone-restricted" d="M291.84 448c0-122.88 97.28-220.16 220.16-220.16 46.080 0 92.16 15.36 128 40.96l-307.2 307.2c-25.6-35.84-40.96-81.92-40.96-128zM512 668.16c-46.080 0-92.16-15.36-128-46.080l307.2-307.2c30.72 40.96 46.080 81.92 46.080 128-5.12 128-102.4 225.28-225.28 225.28zM512 934.4c-266.24 0-486.4-220.16-486.4-486.4s220.16-486.4 486.4-486.4 486.4 220.16 486.4 486.4-220.16 486.4-486.4 486.4zM512 161.28c-158.72 0-286.72 128-286.72 286.72s128 286.72 286.72 286.72 286.72-128 286.72-286.72c0-158.72-128-286.72-286.72-286.72z" />
<glyph unicode="&#xe948;" glyph-name="ico-poi-id" d="M850.365 773.009h-676.73c-8.904 0-17.809-8.904-17.809-17.809v-614.4c0-8.904 8.904-17.809 17.809-17.809h676.73c8.904 0 17.809 8.904 17.809 17.809v614.4c0 8.904-8.904 17.809-17.809 17.809zM351.722 158.609v40.070c0 84.591 71.235 155.826 160.278 155.826s160.278-66.783 160.278-155.826v-40.070h-320.557zM837.009 158.609h-129.113v40.070c0 80.139-53.426 146.922-124.661 173.635 35.617 22.261 62.33 62.33 62.33 111.304 0 71.235-57.878 129.113-129.113 129.113s-129.113-57.878-129.113-129.113c0-44.522 26.713-84.591 62.33-111.304-71.235-26.713-124.661-93.496-124.661-173.635v-40.070h-138.017v578.783h645.565v-578.783zM512 381.217c-53.426 0-97.948 44.522-97.948 97.948s44.522 97.948 97.948 97.948 97.948-44.522 97.948-97.948-44.522-97.948-97.948-97.948z" />
<glyph unicode="&#xe949;" glyph-name="ico-dt-chart" d="M72.363 329.899l305.152 305.152 254.635-254.635 252.587 252.587 66.901-66.901-319.488-319.488-254.635 254.635-238.251-238.251-66.901 66.901zM918.187 705.365c58.368 0 105.813-47.445 105.813-105.813s-47.445-105.813-105.813-105.813c-58.368 0-105.813 47.445-105.813 105.813s47.445 105.813 105.813 105.813v0zM918.187 641.877c23.552 0 42.325-19.115 42.325-42.325 0-23.552-19.115-42.325-42.325-42.325-23.552 0-42.325 19.115-42.325 42.325 0 23.552 18.773 42.325 42.325 42.325v0zM632.149 419.328c58.368 0 105.813-47.445 105.813-105.813s-47.445-105.813-105.813-105.813c-58.368 0-105.813 47.445-105.813 105.813s47.445 105.813 105.813 105.813v0zM632.149 356.181c23.552 0 42.325-19.115 42.325-42.325 0-23.552-19.115-42.325-42.325-42.325-23.552 0-42.325 19.115-42.325 42.325s19.115 42.325 42.325 42.325v0zM377.515 673.963c58.368 0 105.813-47.445 105.813-105.813s-47.445-105.813-105.813-105.813c-58.368 0-105.813 47.445-105.813 105.813 0 58.709 47.445 105.813 105.813 105.813v0zM377.515 610.816c23.552 0 42.325-19.115 42.325-42.325 0-23.552-19.115-42.325-42.325-42.325-23.552 0-42.325 19.115-42.325 42.325s19.115 42.325 42.325 42.325v0zM105.813 402.261c58.368 0 105.813-47.445 105.813-105.813s-47.445-105.813-105.813-105.813c-58.368 0-105.813 47.445-105.813 105.813s47.445 105.813 105.813 105.813v0zM105.813 338.773c23.552 0 42.325-19.115 42.325-42.325 0-23.552-19.115-42.325-42.325-42.325-23.552 0-42.325 19.115-42.325 42.325-0.341 23.552 18.773 42.325 42.325 42.325v0z" />
<glyph unicode="&#xe94a;" glyph-name="ico-ds-collapse" d="M0 796.16h1024v-40.96h-1024v40.96zM0 140.8h1024v-40.96h-1024v40.96zM1024 755.2v-614.4h-40.96v614.4h40.96zM696.32 755.2v-81.92h-40.96v81.92h40.96zM696.32 222.72v-81.92h-40.96v81.92h40.96zM40.96 755.2v-614.4h-40.96v614.4h40.96zM696.32 591.36v-286.72h-40.96v286.72h40.96zM778.24 509.44v-122.88h-40.96v122.88h40.96zM737.28 550.4v-204.8h-40.96v204.8h40.96zM819.2 468.48v-40.96h-40.96v40.96h40.96z" />
<glyph unicode="&#xe94b;" glyph-name="ico-dt-collapse" d="M0 857.6h1024v-51.2h-1024v51.2zM0 89.6h1024v-51.2h-1024v51.2zM1024 806.4v-716.8h-51.2v716.8h51.2zM51.2 806.4v-307.2h-51.2v307.2h51.2zM51.2 345.6v-256h-51.2v256h51.2zM665.6 806.4v-716.8h-51.2v716.8h51.2zM307.2 396.8h-307.2v51.2h307.2v-51.2zM358.4 550.4v-256h-51.2v256h51.2zM409.6 499.2v-153.6h-51.2v153.6h51.2zM460.8 448v-51.2h-51.2v51.2h51.2z" />
<glyph unicode="&#xe94c;" glyph-name="ico-dt-calendar" d="M904.533-64h-785.067c-65.877 0-119.467 53.589-119.467 119.467v682.667c0 65.877 53.589 119.467 119.467 119.467h785.067c65.877 0 119.467-53.589 119.467-119.467v-682.667c0-65.877-53.589-119.467-119.467-119.467zM119.467 823.467c-47.104 0-85.333-38.229-85.333-85.333v-682.667c0-47.104 38.229-85.333 85.333-85.333h785.067c47.104 0 85.333 38.229 85.333 85.333v682.667c0 47.104-38.229 85.333-85.333 85.333h-785.067zM1006.933 618.667h-989.867c-9.557 0-17.067 7.509-17.067 17.067s7.509 17.067 17.067 17.067h989.867c9.557 0 17.067-7.509 17.067-17.067s-7.509-17.067-17.067-17.067zM290.133 755.2c-9.557 0-17.067 7.509-17.067 17.067v170.667c0 9.557 7.509 17.067 17.067 17.067s17.067-7.509 17.067-17.067v-170.667c0-9.557-7.509-17.067-17.067-17.067zM733.867 755.2c-9.557 0-17.067 7.509-17.067 17.067v170.667c0 9.557 7.509 17.067 17.067 17.067s17.067-7.509 17.067-17.067v-170.667c0-9.557-7.509-17.067-17.067-17.067zM375.467 106.667c-1.024 0-2.048 0-2.731 0.341-55.296 1.365-99.669 46.763-99.669 102.4 0 9.557 7.509 17.067 17.067 17.067s17.067-7.851 17.067-17.067c0-37.547 30.72-68.267 68.267-68.267 0.683 0 1.707 0 2.389 0 36.523 1.365 65.877 31.061 65.877 67.243-0.341 37.205-30.037 66.219-68.267 66.219h-42.667c-9.557 0-17.067 7.509-17.067 17.067s7.509 17.067 17.067 17.067h42.667c36.864 0 68.267 31.744 68.267 69.632 0 38.912-30.72 69.632-68.267 69.632s-68.267-30.72-68.267-68.267c0-9.557-7.509-17.067-17.067-17.067s-17.067 7.851-17.067 17.067c0 56.32 46.080 102.4 102.4 102.4s102.4-45.739 102.4-102.4c0-36.864-18.091-68.949-45.397-87.723 27.307-17.749 45.056-47.787 45.397-82.944 0 0 0-0.341 0-0.341s0-0.341 0-0.341c0 0 0-0.341 0-0.341s0-0.341 0-0.341c-0.683-55.979-46.421-101.035-102.4-101.035zM665.6 123.733c-9.557 0-17.067 7.509-17.067 17.067v282.965l-39.253-39.253c-6.827-6.827-17.408-6.827-24.235 0s-6.827 17.408 0 24.235l68.267 68.267c4.779 4.779 12.288 6.485 18.432 3.755 6.827-2.731 10.923-8.875 10.923-15.701v-324.267c0-9.557-7.509-17.067-17.067-17.067zM733.867 106.667h-136.533c-9.557 0-17.067 7.509-17.067 17.067s7.509 17.067 17.067 17.067h136.533c9.557 0 17.067-7.509 17.067-17.067s-7.509-17.067-17.067-17.067z" />
<glyph unicode="&#xe94d;" glyph-name="ico-dt-instrinfo" d="M680.619 737.451c-86.016-7.168-157.013-68.608-177.493-150.187h177.493v150.187zM540.672 105.301v55.637h-57.003v-56.32l-207.189-168.619h84.309l122.88 105.472v-21.163h57.003v22.528l124.245-106.837h84.309l-207.872 169.301h-0.683zM478.891 352.085h-68.608v237.227h-52.565v-237.227h-36.864v329.387h-52.565v-329.728h-37.205v201.045h-52.224v-201.045h-68.608c-7.851 0.341-14.336-6.144-14.336-13.995s6.485-14.336 14.336-14.336h368.64c7.851 0 14.336 6.485 14.336 14.336s-6.485 14.336-14.336 14.336zM26.965 960c-7.168 0-12.629-5.803-12.629-12.629v-33.792c0-7.168 5.803-12.629 12.629-12.629h970.069c7.168 0 12.629 5.803 12.629 12.629v33.792c0 7.168-5.803 12.629-12.629 12.629h-970.069zM14.336 212.139c0-7.168 5.803-12.629 12.629-12.629h970.069c7.168 0 12.629 5.803 12.629 12.629v640.683c0 7.168-5.803 12.971-12.629 12.971h-970.069c-7.168 0-12.629-5.803-12.629-12.971v-640.683zM51.883 822.443c0 4.779 3.755 8.533 8.533 8.533h902.827c4.779 0 8.533-3.755 8.533-8.533v-579.584c0-4.779-3.755-8.533-8.533-8.533h-902.827c-4.779 0-8.533 3.755-8.533 8.533v579.584zM709.291 737.792v-164.523c0-3.755-1.365-7.509-4.096-10.24s-6.144-4.096-10.24-4.096h-196.949c-0.683-6.827-1.024-13.653-1.024-20.821 0-110.592 89.429-200.021 200.021-200.021s200.021 89.429 200.021 200.021c0.341 106.496-82.944 193.536-187.733 199.68zM454.656-64h114.347v50.859h-114.347v-50.859z" />
<glyph unicode="&#xe94e;" glyph-name="ico-dt-marktinfo" d="M512 899.765c249.374 0 451.765-202.391 451.765-451.765s-202.391-451.765-451.765-451.765-451.765 202.391-451.765 451.765 202.391 451.765 451.765 451.765zM512 960c-282.504 0-512-229.496-512-512s229.496-512 512-512 512 229.496 512 512-229.496 512-512 512v0zM477.666 672.075c0 13.252 3.012 23.492 9.638 29.515s15.059 9.638 24.696 9.638c9.638 0 17.468-3.012 24.094-9.638s10.24-16.264 10.24-29.515-3.012-22.889-9.638-29.515-15.059-9.638-24.094-9.638c-9.638 0-18.071 3.012-24.696 9.638s-10.24 16.264-10.24 29.515zM541.515 180.555h-59.031v386.711h58.428v-386.711z" />
<glyph unicode="&#xe94f;" glyph-name="ico-ds-expand" d="M0 796.16h1024v-40.96h-1024v40.96zM0 140.8h1024v-40.96h-1024v40.96zM696.32 755.2v-614.4h-40.96v614.4h40.96zM1024 755.2v-81.92h-40.96v81.92h40.96zM1024 222.72v-81.92h-40.96v81.92h40.96zM40.96 755.2v-614.4h-40.96v614.4h40.96zM983.039 304.64v286.72h40.96v-286.72h-40.96zM901.119 386.56v122.88h40.96v-122.88h-40.96zM942.079 345.6v204.8h40.96v-204.8h-40.96zM860.159 427.52v40.96h40.96v-40.96h-40.96z" />
<glyph unicode="&#xe950;" glyph-name="ico-dt-expand" d="M0 857.6h1024v-51.2h-1024v51.2zM0 89.6h1024v-51.2h-1024v51.2zM1024 806.4v-716.8h-51.2v716.8h51.2zM665.6 806.4v-307.2h-51.2v307.2h51.2zM665.6 345.6v-256h-51.2v256h51.2zM51.2 806.4v-716.8h-51.2v716.8h51.2zM358.4 448h307.2v-51.2h-307.2v51.2zM307.2 294.4v256h51.2v-256h-51.2zM256 345.6v153.6h51.2v-153.6h-51.2zM204.8 396.8v51.2h51.2v-51.2h-51.2z" />
<glyph unicode="&#xe951;" glyph-name="ico-ds-close" d="M0 929.882h120.471v-60.235h-120.471v60.235zM60.235 869.647h120.471v-60.235h-120.471v60.235zM120.471 809.412h120.471v-60.235h-120.471v60.235zM180.706 749.176h120.471v-60.235h-120.471v60.235zM240.941 688.941h120.471v-60.235h-120.471v60.235zM301.176 628.706h120.471v-60.235h-120.471v60.235zM361.412 568.471h120.471v-60.235h-120.471v60.235zM421.647 508.235h120.471v-60.235h-120.471v60.235zM481.882 448h120.471v-60.235h-120.471v60.235zM542.118 387.765h120.471v-60.235h-120.471v60.235zM602.353 327.529h120.471v-60.235h-120.471v60.235zM662.588 267.294h120.471v-60.235h-120.471v60.235zM722.824 207.059h120.471v-60.235h-120.471v60.235zM783.059 146.824h120.471v-60.235h-120.471v60.235zM843.294 86.588h120.471v-60.235h-120.471v60.235zM903.529 26.353h120.471v-60.235h-120.471v60.235zM0 26.353h120.471v-60.235h-120.471v60.235zM60.235 86.588h120.471v-60.235h-120.471v60.235zM120.471 146.824h120.471v-60.235h-120.471v60.235zM180.706 207.059h120.471v-60.235h-120.471v60.235zM240.941 267.294h120.471v-60.235h-120.471v60.235zM301.176 327.529h120.471v-60.235h-120.471v60.235zM361.412 387.765h120.471v-60.235h-120.471v60.235zM421.647 448h120.471v-60.235h-120.471v60.235zM481.882 508.235h120.471v-60.235h-120.471v60.235zM542.118 568.471h120.471v-60.235h-120.471v60.235zM602.353 628.706h120.471v-60.235h-120.471v60.235zM662.588 688.941h120.471v-60.235h-120.471v60.235zM722.824 749.176h120.471v-60.235h-120.471v60.235zM783.059 809.412h120.471v-60.235h-120.471v60.235zM843.294 869.647h120.471v-60.235h-120.471v60.235zM903.529 929.882h120.471v-60.235h-120.471v60.235z" />
<glyph unicode="&#xe952;" glyph-name="ico-sh-brandinfo" d="M512 106.667c-188.075 0-341.333 153.259-341.333 341.333s153.259 341.333 341.333 341.333c188.075 0 341.333-153.259 341.333-341.333s-153.259-341.333-341.333-341.333zM512 766.464c-175.787 0-318.464-143.019-318.464-318.464s143.019-318.464 318.464-318.464c175.787 0 318.464 143.019 318.464 318.464s-142.677 318.464-318.464 318.464zM603.136 220.331h-159.403c-25.259 0-45.397 20.48-45.397 45.397 0 25.259 20.48 45.397 45.397 45.397h22.869v91.136h-28.331c-20.48 0-35.499 10.923-38.912 27.648-0.683 1.365-0.683 2.731-0.683 4.437v3.755c0 1.365 0.341 3.072 1.024 4.437 3.755 16.725 18.773 28.331 38.912 28.331h107.52c31.403 0 57.003-25.6 57.003-57.003v-102.4c24.917 0 45.397-20.48 45.397-45.397 0-25.259-20.48-45.739-45.397-45.739zM443.733 288.597c-12.629 0-22.869-10.24-22.869-22.869s10.24-22.869 22.869-22.869h159.403c12.629 0 22.869 10.24 22.869 22.869s-10.24 22.869-22.869 22.869h-11.264c-6.144 0-11.264 5.12-11.264 11.264v114.005c0 18.773-15.36 34.133-34.133 34.133h-108.203c-2.731 0-15.701-0.683-17.067-11.605 1.365-9.899 11.947-10.923 17.067-10.923h39.595c6.144 0 11.264-5.12 11.264-11.264v-113.664c0-6.144-5.12-11.264-11.264-11.264h-34.133zM523.264 516.267c-43.691 0-79.531 35.84-79.531 79.531s35.84 79.531 79.531 79.531c44.032 0 79.531-35.84 79.531-79.531s-35.499-79.531-79.531-79.531zM523.264 652.8c-31.403 0-57.003-25.6-57.003-57.003s25.6-57.003 57.003-57.003c31.403 0 57.003 25.6 57.003 57.003s-25.6 57.003-57.003 57.003z" />
<glyph unicode="&#xea07;" glyph-name="warning" d="M512 867.226l429.102-855.226h-858.206l429.104 855.226zM512 960c-22.070 0-44.14-14.882-60.884-44.648l-437.074-871.112c-33.486-59.532-5-108.24 63.304-108.24h869.308c68.3 0 96.792 48.708 63.3 108.24h0.002l-437.074 871.112c-16.742 29.766-38.812 44.648-60.882 44.648v0zM576 128c0-35.346-28.654-64-64-64s-64 28.654-64 64c0 35.346 28.654 64 64 64s64-28.654 64-64zM512 256c-35.346 0-64 28.654-64 64v192c0 35.346 28.654 64 64 64s64-28.654 64-64v-192c0-35.346-28.654-64-64-64z" />
<glyph unicode="&#xea32;" glyph-name="ico-sh-arrow-up" d="M512 928l-480-480h288v-512h384v512h288z" />
<glyph unicode="&#xea36;" glyph-name="ico-sh-arrow-down" d="M512-32l480 480h-288v512h-384v-512h-288z" />
</font>
</defs>
</svg>
