<?xml version="1.0" encoding="utf-8"?>
<!-- Generator: Adobe Illustrator 17.0.0, SVG Export Plug-In . SVG Version: 6.00 Build 0)  -->
<!DOCTYPE svg PUBLIC "-//W3C//DTD SVG 1.1//EN" "http://www.w3.org/Graphics/SVG/1.1/DTD/svg11.dtd">
<svg version="1.1" id="Layer_1" xmlns="http://www.w3.org/2000/svg" xmlns:xlink="http://www.w3.org/1999/xlink" x="0px" y="0px"
	 width="100px" height="100px" viewBox="0 0 100 100" enable-background="new 0 0 100 100" xml:space="preserve">
<path fill="#999" d="M100,50c0-27.6-22.4-50-50-50S0,22.4,0,50s22.4,50,50,50c11.2,0,21.55-3.7,29.9-9.95l0,0l16.85,6.5l-4.3-20.1
	C97.2,68.8,100,59.7,100,50z M49.95,21.85c3.95,0,7.2,3.2,7.2,7.2c0,3.95-3.2,7.2-7.2,7.2c-3.95,0-7.2-3.2-7.2-7.2
	C42.75,25.05,45.95,21.85,49.95,21.85z M60,78.25H40.25v-8.5H43V47.5h-2.75v-8h2.95h14.05v30.25H60V78.25z"/>
</svg>
