<?xml version="1.0" encoding="utf-8"?>
<!-- Generator: Adobe Illustrator 22.0.1, SVG Export Plug-In . SVG Version: 6.00 Build 0)  -->
<svg version="1.1" id="Layer_1" xmlns="http://www.w3.org/2000/svg" xmlns:xlink="http://www.w3.org/1999/xlink" x="0px" y="0px"
	 viewBox="0 0 47 47" style="enable-background:new 0 0 47 47;" xml:space="preserve">
<style type="text/css">
	.st0{fill:none;}
	.st1{fill:#293B4B;}
	.st2{fill:#FF8B8B;}
</style>
<g>
	<path class="st0" d="M40.1,5.2c-0.2-0.4-0.7-0.6-1.2-0.6c-0.5,0-0.9,0.2-1.2,0.7l-5.1,10.1c-0.2,0.4-0.3,1,0,1.4
		c0.3,0.3,0.8,0.5,1.5,0.5h9.8c0.7,0,1.2-0.2,1.5-0.6c0.2-0.3,0.2-0.8-0.1-1.3L40.1,5.2z M39.4,16c-0.1,0.1-0.3,0.2-0.5,0.2
		c-0.2,0-0.3-0.1-0.4-0.2c-0.1-0.1-0.2-0.3-0.2-0.5c0-0.2,0.1-0.3,0.2-0.4c0.3-0.3,0.7-0.2,0.9,0c0.1,0.1,0.2,0.3,0.2,0.5
		C39.6,15.7,39.5,15.8,39.4,16z M39.6,13.4c0,0.3-0.3,0.5-0.6,0.5c-0.4,0-0.6-0.2-0.6-0.5V8.5C38.3,8.2,38.6,8,39,8
		c0.4,0,0.6,0.2,0.6,0.5V13.4z"/>
	<path class="st1" d="M39.3,23.1c0,0.1,0,0.3,0,0.4c0,8.7-7.1,15.8-15.8,15.8c-8.7,0-15.8-7.1-15.8-15.8c0-8.7,7.1-15.8,15.8-15.8
		c1.7,0,3.4,0.3,4.9,0.8c0.2-0.4,0.3-0.7,0.5-1c-1.7-0.6-3.5-0.9-5.5-0.9c-9.4,0-17,7.6-17,17c0,9.4,7.6,17,17,17
		c9.4,0,17-7.6,17-17c0-0.2,0-0.4,0-0.7C40.1,22.9,39.7,23,39.3,23.1z"/>
	<path class="st1" d="M23.5,13.3c-3.4,0-6.3,2.1-6.6,4.9c-0.1,0.9-0.2,1.6,0,2.9l0,0.4c0.1,1.1,0.3,2.6,0.5,3.5c0,0.1,0.7,3,2.2,4.1
		c0.2,0.8,0.2,1.7,0.1,1.9c-0.5,0.5-3.3,1.1-5.6,1.4c-0.4,0-0.6,0.4-0.6,0.7c0,0.3,0.3,0.6,0.6,0.6c0,0,0,0,0.1,0
		c1.3-0.1,5.4-0.7,6.4-1.9c0.7-0.8,0.3-2.6,0.1-3.3c0-0.2-0.2-0.3-0.3-0.4c-0.7-0.4-1.5-2-1.8-3.4c-0.2-0.9-0.4-2.3-0.5-3.3l0-0.4
		c-0.1-1.2-0.1-1.8,0-2.6c0.3-2.2,2.6-3.8,5.4-3.8s5.1,1.6,5.4,3.8c0.1,0.8,0.1,1.4,0,2.6l0,0.4c-0.1,1-0.3,2.5-0.5,3.3
		c-0.3,1.3-1.1,3-1.8,3.4c-0.2,0.1-0.3,0.2-0.3,0.4c-0.2,0.7-0.5,2.5,0.1,3.3c1,1.2,5.2,1.7,6.4,1.9c0.3,0,0.7-0.2,0.7-0.6
		c0-0.4-0.2-0.7-0.6-0.7c-2.3-0.3-5.1-0.9-5.6-1.4c-0.1-0.2-0.1-1.1,0.1-1.9c1.5-1,2.2-4,2.2-4.1c0.2-0.9,0.4-2.4,0.5-3.5l0-0.4
		c0.1-1.3,0.1-2,0-2.9C29.8,15.4,26.9,13.3,23.5,13.3z"/>
	<path class="st2" d="M46.2,15L41,4.8c-0.5-0.7-1.2-1.1-2.1-1.1c-0.8,0-1.6,0.4-2.1,1.2L31.7,15c-0.5,1.1-0.3,1.9,0.1,2.3
		c0.5,0.6,1.3,0.9,2.3,0.9h9.8c1,0,1.9-0.4,2.4-1C46.6,16.6,46.6,15.8,46.2,15z M45.3,16.7c-0.3,0.4-0.8,0.6-1.5,0.6H34
		c-0.7,0-1.2-0.2-1.5-0.5c-0.3-0.4-0.2-1,0-1.4l5.1-10.1c0.3-0.4,0.7-0.7,1.2-0.7c0.5,0,0.9,0.2,1.2,0.6l5.2,10.2
		C45.5,15.9,45.6,16.3,45.3,16.7z"/>
	<path class="st2" d="M39,8c-0.4,0-0.6,0.2-0.6,0.5v4.9c0,0.3,0.3,0.5,0.6,0.5c0.4,0,0.6-0.2,0.6-0.5V8.5C39.6,8.2,39.3,8,39,8z"/>
	<path class="st2" d="M38.5,15.1c-0.1,0.1-0.2,0.3-0.2,0.4c0,0.2,0.1,0.3,0.2,0.5c0.1,0.1,0.3,0.2,0.4,0.2c0.2,0,0.3-0.1,0.5-0.2
		c0.1-0.1,0.2-0.3,0.2-0.4c0-0.2-0.1-0.3-0.2-0.5C39.2,14.8,38.8,14.8,38.5,15.1z"/>
</g>
</svg>
